<svg xmlns="http://www.w3.org/2000/svg" xmlns:xlink="http://www.w3.org/1999/xlink" width="40" zoomAndPan="magnify" viewBox="0 0 30 30.000001" height="40" preserveAspectRatio="xMidYMid meet" version="1.0"><defs><clipPath id="881c0920fb"><path d="M 0.484375 0 L 29.515625 0 L 29.515625 29.03125 L 0.484375 29.03125 Z M 0.484375 0 " clip-rule="nonzero"/></clipPath><clipPath id="978749e4cb"><path d="M 16 10 L 23.710938 10 L 23.710938 18 L 16 18 Z M 16 10 " clip-rule="nonzero"/></clipPath><clipPath id="b58b0b48d9"><path d="M 5.566406 2.902344 L 21 2.902344 L 21 25.402344 L 5.566406 25.402344 Z M 5.566406 2.902344 " clip-rule="nonzero"/></clipPath></defs><g clip-path="url(#881c0920fb)"><path fill="#ffffff" d="M 0.484375 0 L 29.515625 0 L 29.515625 29.03125 L 0.484375 29.03125 Z M 0.484375 0 " fill-opacity="1" fill-rule="nonzero"/><path fill="#ffffff" d="M 0.484375 0 L 29.515625 0 L 29.515625 29.03125 L 0.484375 29.03125 Z M 0.484375 0 " fill-opacity="1" fill-rule="nonzero"/></g><g clip-path="url(#978749e4cb)"><path fill="#935f3d" d="M 20.367188 10.65625 C 18.429688 10.65625 16.84375 12.242188 16.84375 14.179688 C 16.84375 16.121094 18.429688 17.707031 20.367188 17.707031 C 22.304688 17.707031 23.890625 16.121094 23.890625 14.179688 C 23.890625 12.242188 22.304688 10.65625 20.367188 10.65625 Z M 20.367188 17 C 18.816406 17 17.546875 15.730469 17.546875 14.179688 C 17.546875 12.632812 18.816406 11.363281 20.367188 11.363281 C 21.917969 11.363281 23.1875 12.632812 23.1875 14.179688 C 23.1875 15.730469 21.917969 17 20.367188 17 Z M 20.367188 17 " fill-opacity="1" fill-rule="nonzero"/></g><path fill="#935f3d" d="M 21.953125 13.828125 L 20.71875 13.828125 L 20.71875 12.59375 C 20.71875 12.402344 20.5625 12.242188 20.367188 12.242188 C 20.171875 12.242188 20.015625 12.402344 20.015625 12.59375 L 20.015625 13.828125 L 18.78125 13.828125 C 18.585938 13.828125 18.429688 13.988281 18.429688 14.179688 C 18.429688 14.375 18.585938 14.535156 18.78125 14.535156 L 20.015625 14.535156 L 20.015625 15.765625 C 20.015625 15.960938 20.171875 16.121094 20.367188 16.121094 C 20.5625 16.121094 20.71875 15.960938 20.71875 15.765625 L 20.71875 14.535156 L 21.953125 14.535156 C 22.148438 14.535156 22.304688 14.375 22.304688 14.179688 C 22.304688 13.988281 22.148438 13.828125 21.953125 13.828125 Z M 21.953125 13.828125 " fill-opacity="1" fill-rule="nonzero"/><g clip-path="url(#b58b0b48d9)"><path fill="#935f3d" d="M 18.570312 18.003906 C 18.515625 18.128906 18.394531 18.234375 18.253906 18.234375 L 11.910156 18.234375 C 11.714844 18.234375 11.554688 18.074219 11.554688 17.882812 C 11.554688 17.6875 11.714844 17.53125 11.910156 17.53125 L 17.792969 17.53125 C 17.53125 17.316406 17.28125 17.089844 17.070312 16.824219 L 11.910156 16.824219 C 11.714844 16.824219 11.554688 16.667969 11.554688 16.472656 C 11.554688 16.277344 11.714844 16.121094 11.910156 16.121094 L 16.613281 16.121094 C 16.453125 15.820312 16.347656 15.519531 16.261719 15.1875 C 16.191406 14.921875 16.15625 14.640625 16.136719 14.339844 L 11.910156 14.339844 C 11.714844 14.339844 11.554688 14.179688 11.554688 13.988281 C 11.554688 13.792969 11.714844 13.636719 11.910156 13.636719 L 16.171875 13.636719 C 16.207031 13.386719 16.261719 13.160156 16.3125 12.929688 L 11.910156 12.929688 C 11.714844 12.929688 11.554688 12.773438 11.554688 12.578125 C 11.554688 12.382812 11.714844 12.226562 11.910156 12.226562 L 16.613281 12.226562 C 16.808594 11.855469 17.054688 11.503906 17.351562 11.203125 C 17.652344 10.902344 17.988281 10.640625 18.359375 10.445312 C 18.324219 10.480469 18.289062 10.480469 18.253906 10.480469 L 11.910156 10.480469 C 11.714844 10.480469 11.554688 10.324219 11.554688 10.128906 C 11.554688 9.933594 11.714844 9.777344 11.910156 9.777344 L 18.253906 9.777344 C 18.445312 9.777344 18.605469 9.933594 18.605469 10.128906 C 18.605469 10.234375 18.550781 10.339844 18.464844 10.410156 C 19.046875 10.109375 19.679688 9.953125 20.367188 9.953125 C 20.488281 9.953125 20.597656 9.953125 20.71875 9.96875 L 20.71875 5.371094 C 20.71875 4.789062 20.242188 4.3125 19.660156 4.3125 L 15.960938 4.3125 L 15.960938 3.960938 C 15.960938 3.378906 15.484375 2.902344 14.902344 2.902344 L 11.378906 2.902344 C 10.796875 2.902344 10.324219 3.378906 10.324219 3.960938 L 10.324219 4.3125 L 6.621094 4.3125 C 6.039062 4.3125 5.566406 4.789062 5.566406 5.371094 L 5.566406 24.402344 C 5.566406 24.984375 6.039062 25.460938 6.621094 25.460938 L 19.660156 25.460938 C 20.242188 25.460938 20.71875 24.984375 20.71875 24.402344 L 20.71875 18.394531 C 20.597656 18.394531 20.488281 18.410156 20.367188 18.410156 C 19.730469 18.410156 19.117188 18.269531 18.570312 18.003906 Z M 18.605469 8.71875 C 18.605469 8.914062 18.445312 9.070312 18.253906 9.070312 L 11.910156 9.070312 C 11.714844 9.070312 11.554688 8.914062 11.554688 8.71875 C 11.554688 8.523438 11.714844 8.367188 11.910156 8.367188 L 18.253906 8.367188 C 18.445312 8.367188 18.605469 8.523438 18.605469 8.71875 Z M 11.027344 3.960938 C 11.027344 3.765625 11.1875 3.609375 11.378906 3.609375 L 14.902344 3.609375 C 15.097656 3.609375 15.257812 3.765625 15.257812 3.960938 L 15.257812 4.3125 L 11.027344 4.3125 Z M 9.96875 5.019531 L 16.3125 5.019531 L 16.3125 5.722656 C 16.3125 5.917969 16.15625 6.074219 15.960938 6.074219 L 10.324219 6.074219 C 10.128906 6.074219 9.96875 5.917969 9.96875 5.722656 Z M 7.679688 8.894531 C 7.679688 8.507812 7.996094 8.191406 8.382812 8.191406 L 9.441406 8.191406 C 9.617188 8.191406 9.777344 8.261719 9.898438 8.367188 L 8.929688 9.160156 C 8.789062 9.070312 8.578125 9.089844 8.472656 9.230469 C 8.347656 9.386719 8.367188 9.601562 8.523438 9.722656 L 8.71875 9.882812 C 8.789062 9.933594 8.859375 9.96875 8.949219 9.96875 C 9.035156 9.96875 9.105469 9.953125 9.175781 9.882812 L 10.144531 9.070312 L 10.144531 9.953125 C 10.144531 10.339844 9.828125 10.65625 9.441406 10.65625 L 8.382812 10.65625 C 7.996094 10.65625 7.679688 10.339844 7.679688 9.953125 Z M 7.679688 12.773438 C 7.679688 12.382812 7.996094 12.066406 8.382812 12.066406 L 9.441406 12.066406 C 9.617188 12.066406 9.777344 12.136719 9.898438 12.242188 L 8.929688 13.035156 C 8.789062 12.949219 8.578125 12.964844 8.472656 13.105469 C 8.347656 13.265625 8.367188 13.476562 8.523438 13.601562 L 8.71875 13.757812 C 8.789062 13.8125 8.859375 13.847656 8.949219 13.847656 C 9.035156 13.847656 9.105469 13.828125 9.175781 13.757812 L 10.164062 12.949219 L 10.164062 13.828125 C 10.164062 14.21875 9.847656 14.535156 9.457031 14.535156 L 8.402344 14.535156 C 8.015625 14.535156 7.695312 14.21875 7.695312 13.828125 L 7.695312 12.773438 Z M 7.679688 16.648438 C 7.679688 16.261719 7.996094 15.945312 8.382812 15.945312 L 9.441406 15.945312 C 9.617188 15.945312 9.777344 16.015625 9.898438 16.121094 L 8.929688 16.914062 C 8.789062 16.824219 8.578125 16.84375 8.472656 16.984375 C 8.347656 17.140625 8.367188 17.351562 8.523438 17.476562 L 8.71875 17.636719 C 8.789062 17.6875 8.859375 17.722656 8.949219 17.722656 C 9.035156 17.722656 9.105469 17.707031 9.175781 17.636719 L 10.144531 16.824219 L 10.144531 17.707031 C 10.144531 18.09375 9.828125 18.410156 9.441406 18.410156 L 8.382812 18.410156 C 7.996094 18.410156 7.679688 18.09375 7.679688 17.707031 Z M 9.441406 22.289062 L 8.382812 22.289062 C 7.996094 22.289062 7.679688 21.96875 7.679688 21.582031 L 7.679688 20.527344 C 7.679688 20.136719 7.996094 19.820312 8.382812 19.820312 L 9.441406 19.820312 C 9.617188 19.820312 9.777344 19.890625 9.898438 19.996094 L 8.929688 20.789062 C 8.789062 20.703125 8.578125 20.71875 8.472656 20.859375 C 8.347656 21.019531 8.367188 21.230469 8.523438 21.355469 L 8.71875 21.511719 C 8.789062 21.566406 8.859375 21.601562 8.949219 21.601562 C 9.035156 21.601562 9.105469 21.582031 9.175781 21.511719 L 10.164062 20.703125 L 10.164062 21.601562 C 10.144531 21.96875 9.828125 22.289062 9.441406 22.289062 Z M 18.253906 22.113281 L 11.910156 22.113281 C 11.714844 22.113281 11.554688 21.953125 11.554688 21.757812 C 11.554688 21.566406 11.714844 21.40625 11.910156 21.40625 L 18.253906 21.40625 C 18.445312 21.40625 18.605469 21.566406 18.605469 21.757812 C 18.605469 21.953125 18.445312 22.113281 18.253906 22.113281 Z M 18.253906 20.703125 L 11.910156 20.703125 C 11.714844 20.703125 11.554688 20.542969 11.554688 20.347656 C 11.554688 20.15625 11.714844 19.996094 11.910156 19.996094 L 18.253906 19.996094 C 18.445312 19.996094 18.605469 20.15625 18.605469 20.347656 C 18.605469 20.542969 18.445312 20.703125 18.253906 20.703125 Z M 18.253906 20.703125 " fill-opacity="1" fill-rule="nonzero"/></g></svg>