<svg xmlns="http://www.w3.org/2000/svg" xmlns:xlink="http://www.w3.org/1999/xlink" width="40" zoomAndPan="magnify" viewBox="0 0 30 30.000001" height="40" preserveAspectRatio="xMidYMid meet" version="1.0"><defs><clipPath id="44c88a4054"><path d="M 0.484375 0 L 29.515625 0 L 29.515625 29.03125 L 0.484375 29.03125 Z M 0.484375 0 " clip-rule="nonzero"/></clipPath><clipPath id="cc007f8d1b"><path d="M 3.402344 2.902344 L 26.628906 2.902344 L 26.628906 26.128906 L 3.402344 26.128906 Z M 3.402344 2.902344 " clip-rule="nonzero"/></clipPath></defs><g clip-path="url(#44c88a4054)"><path fill="#ffffff" d="M 0.484375 0 L 29.515625 0 L 29.515625 29.03125 L 0.484375 29.03125 Z M 0.484375 0 " fill-opacity="1" fill-rule="nonzero"/><path fill="#ffffff" d="M 0.484375 0 L 29.515625 0 L 29.515625 29.03125 L 0.484375 29.03125 Z M 0.484375 0 " fill-opacity="1" fill-rule="nonzero"/></g><g clip-path="url(#cc007f8d1b)"><path fill="#935f3d" d="M 8.503906 22.09375 L 3.777344 22.09375 C 3.570312 22.09375 3.402344 21.925781 3.402344 21.71875 L 3.402344 16.707031 C 3.402344 16.5 3.570312 16.332031 3.777344 16.332031 L 5.1875 16.332031 C 5.078125 15.746094 5.023438 15.140625 5.023438 14.527344 C 5.023438 11.769531 6.144531 9.269531 7.953125 7.464844 L 7.953125 5.230469 C 7.953125 5.09375 8.027344 4.972656 8.140625 4.90625 L 9.324219 4.222656 L 10.292969 3.664062 L 11.476562 2.980469 C 11.59375 2.914062 11.734375 2.914062 11.851562 2.980469 L 14.585938 4.558594 C 14.722656 4.554688 14.859375 4.550781 14.996094 4.550781 C 17.785156 4.550781 20.308594 5.695312 22.121094 7.542969 C 22.285156 7.523438 22.453125 7.511719 22.621094 7.511719 C 24.816406 7.511719 26.59375 9.289062 26.59375 11.484375 C 26.59375 12.796875 25.957031 13.964844 24.972656 14.6875 C 24.941406 16.542969 24.402344 18.277344 23.492188 19.757812 L 24.8125 19.757812 C 25.179688 19.757812 25.460938 19.960938 25.636719 20.253906 L 26.5 21.660156 C 26.511719 21.675781 26.519531 21.691406 26.527344 21.710938 C 26.574219 21.820312 26.59375 21.917969 26.59375 22.035156 L 26.59375 24.550781 C 26.59375 24.9375 26.277344 25.25 25.894531 25.25 L 25.5 25.25 C 25.339844 25.753906 24.871094 26.121094 24.3125 26.121094 C 23.757812 26.121094 23.285156 25.753906 23.125 25.25 L 19.238281 25.25 C 19.082031 25.753906 18.609375 26.121094 18.050781 26.121094 C 17.496094 26.121094 17.023438 25.753906 16.863281 25.25 L 15.859375 25.25 C 15.402344 25.25 15.050781 24.898438 15.050781 24.5 C 15.035156 24.5 15.015625 24.5 14.996094 24.5 C 12.519531 24.5 10.25 23.59375 8.503906 22.09375 Z M 5.761719 17.082031 L 4.148438 17.082031 L 4.148438 21.347656 L 5.761719 21.347656 Z M 7.953125 8.566406 C 6.59375 10.175781 5.769531 12.253906 5.769531 14.527344 C 5.769531 14.917969 5.792969 15.304688 5.84375 15.683594 C 5.910156 15.597656 6.015625 15.539062 6.136719 15.539062 L 6.230469 15.539062 L 6.230469 15.128906 C 6.230469 14.921875 6.398438 14.753906 6.601562 14.753906 L 6.941406 14.753906 L 6.941406 14.527344 C 6.941406 14.320312 7.109375 14.152344 7.316406 14.152344 C 7.523438 14.152344 7.691406 14.320312 7.691406 14.527344 L 7.691406 14.753906 L 8.027344 14.753906 C 8.234375 14.753906 8.402344 14.921875 8.402344 15.128906 L 8.402344 15.539062 L 8.496094 15.539062 C 8.703125 15.539062 8.871094 15.707031 8.871094 15.914062 L 8.871094 16.332031 L 10.855469 16.332031 C 11.0625 16.332031 11.230469 16.5 11.230469 16.707031 L 11.230469 21.71875 C 11.230469 21.925781 11.0625 22.09375 10.855469 22.09375 L 9.722656 22.09375 C 11.21875 23.140625 13.035156 23.753906 14.996094 23.753906 C 15.015625 23.753906 15.035156 23.753906 15.050781 23.753906 L 15.050781 19.570312 C 15.050781 19.171875 15.402344 18.816406 15.859375 18.816406 L 21.972656 18.816406 C 22.398438 18.816406 22.734375 19.125 22.777344 19.488281 C 23.589844 18.214844 24.101562 16.726562 24.207031 15.128906 C 23.71875 15.339844 23.183594 15.457031 22.621094 15.457031 C 20.429688 15.457031 18.652344 13.679688 18.652344 11.484375 C 18.652344 9.769531 19.738281 8.308594 21.261719 7.753906 C 19.699219 6.308594 17.640625 5.394531 15.371094 5.304688 L 15.371094 9.078125 C 15.371094 9.210938 15.300781 9.335938 15.183594 9.402344 L 11.851562 11.328125 C 11.734375 11.394531 11.59375 11.394531 11.476562 11.328125 L 8.140625 9.402344 C 8.027344 9.335938 7.953125 9.210938 7.953125 9.078125 Z M 8.703125 5.875 L 8.703125 8.863281 L 11.289062 10.355469 L 11.289062 7.371094 Z M 9.511719 4.976562 L 9.078125 5.230469 L 11.664062 6.722656 L 12.097656 6.46875 Z M 10.480469 4.417969 L 10.261719 4.546875 L 12.847656 6.039062 L 13.066406 5.914062 Z M 14.25 5.230469 L 11.664062 3.734375 L 11.226562 3.988281 L 13.8125 5.480469 Z M 25.84375 23.21875 L 25.84375 22.035156 C 25.84375 22.03125 25.84375 22.023438 25.84375 22.019531 L 25 20.644531 C 24.957031 20.574219 24.902344 20.503906 24.8125 20.503906 L 22.78125 20.503906 L 22.78125 24.503906 L 23.125 24.503906 C 23.285156 24 23.757812 23.632812 24.3125 23.632812 C 24.871094 23.632812 25.339844 24 25.5 24.503906 L 25.84375 24.503906 L 25.84375 23.96875 L 25.667969 23.96875 C 25.460938 23.96875 25.292969 23.800781 25.292969 23.59375 C 25.292969 23.386719 25.460938 23.21875 25.667969 23.21875 Z M 19.238281 24.503906 L 22.03125 24.503906 L 22.03125 19.625 C 22.03125 19.597656 22.011719 19.574219 21.984375 19.566406 C 21.980469 19.566406 21.976562 19.566406 21.972656 19.566406 L 15.859375 19.566406 C 15.855469 19.566406 15.851562 19.566406 15.847656 19.566406 C 15.820312 19.574219 15.800781 19.597656 15.800781 19.625 L 15.800781 24.441406 C 15.800781 24.46875 15.820312 24.496094 15.847656 24.5 C 15.851562 24.503906 15.855469 24.503906 15.859375 24.503906 L 16.863281 24.503906 C 17.023438 24 17.496094 23.632812 18.050781 23.632812 C 18.609375 23.632812 19.082031 24 19.238281 24.503906 Z M 6.511719 21.347656 L 8.121094 21.347656 L 8.121094 16.289062 L 8.050781 16.289062 C 8.042969 16.289062 8.035156 16.289062 8.027344 16.289062 L 6.601562 16.289062 C 6.597656 16.289062 6.589844 16.289062 6.582031 16.289062 L 6.511719 16.289062 Z M 12.039062 7.371094 L 12.039062 10.355469 L 14.625 8.863281 L 14.625 5.875 L 14.1875 6.128906 L 14.1875 7.429688 C 14.1875 7.5625 14.117188 7.6875 14 7.753906 L 13.035156 8.3125 C 12.917969 8.378906 12.777344 8.378906 12.660156 8.3125 C 12.542969 8.242188 12.472656 8.121094 12.472656 7.988281 L 12.472656 7.117188 Z M 8.871094 17.082031 L 8.871094 21.347656 L 10.484375 21.347656 L 10.484375 17.082031 Z M 7.65625 15.539062 L 7.65625 15.5 L 6.976562 15.5 L 6.976562 15.539062 Z M 13.441406 6.558594 L 13.222656 6.6875 L 13.222656 7.339844 L 13.441406 7.210938 Z M 25.304688 13.273438 C 25.644531 12.761719 25.84375 12.148438 25.84375 11.484375 C 25.84375 9.703125 24.402344 8.261719 22.621094 8.261719 C 20.839844 8.261719 19.398438 9.703125 19.398438 11.484375 C 19.398438 12.148438 19.597656 12.761719 19.941406 13.273438 C 20.21875 12.578125 20.761719 12.011719 21.445312 11.707031 C 21.15625 11.410156 20.976562 11.007812 20.976562 10.5625 C 20.976562 9.65625 21.71875 8.917969 22.621094 8.917969 C 23.527344 8.917969 24.265625 9.65625 24.265625 10.5625 C 24.265625 11.007812 24.085938 11.410156 23.796875 11.707031 C 24.480469 12.011719 25.023438 12.578125 25.304688 13.273438 Z M 20.523438 13.933594 C 21.089844 14.414062 21.820312 14.707031 22.621094 14.707031 C 23.421875 14.707031 24.15625 14.414062 24.71875 13.933594 C 24.527344 12.949219 23.660156 12.207031 22.621094 12.207031 C 21.582031 12.207031 20.714844 12.949219 20.523438 13.933594 Z M 22.621094 11.457031 C 23.113281 11.457031 23.519531 11.054688 23.519531 10.5625 C 23.519531 10.066406 23.113281 9.664062 22.621094 9.664062 C 22.128906 9.664062 21.726562 10.066406 21.726562 10.5625 C 21.726562 11.054688 22.128906 11.457031 22.621094 11.457031 Z M 24.3125 24.378906 C 24.039062 24.378906 23.816406 24.601562 23.816406 24.875 C 23.816406 25.152344 24.039062 25.375 24.3125 25.375 C 24.585938 25.375 24.808594 25.152344 24.808594 24.875 C 24.808594 24.601562 24.585938 24.378906 24.3125 24.378906 Z M 18.050781 24.378906 C 17.777344 24.378906 17.554688 24.601562 17.554688 24.875 C 17.554688 25.152344 17.777344 25.375 18.050781 25.375 C 18.324219 25.375 18.546875 25.152344 18.546875 24.875 C 18.546875 24.601562 18.324219 24.378906 18.050781 24.378906 Z M 25.152344 22.730469 L 23.335938 22.730469 C 23.128906 22.730469 22.960938 22.5625 22.960938 22.355469 L 22.960938 21.066406 C 22.960938 20.859375 23.128906 20.691406 23.335938 20.691406 L 24.601562 20.691406 C 24.753906 20.691406 24.886719 20.78125 24.945312 20.917969 L 25.496094 22.210938 C 25.542969 22.324219 25.53125 22.457031 25.460938 22.5625 C 25.394531 22.667969 25.277344 22.730469 25.152344 22.730469 Z M 24.585938 21.980469 L 24.355469 21.4375 L 23.707031 21.4375 L 23.707031 21.980469 Z M 24.585938 21.980469 " fill-opacity="1" fill-rule="evenodd"/></g></svg>