<svg xmlns="http://www.w3.org/2000/svg" xmlns:xlink="http://www.w3.org/1999/xlink" width="40" zoomAndPan="magnify" viewBox="0 0 30 30.000001" height="40" preserveAspectRatio="xMidYMid meet" version="1.0"><defs><clipPath id="7af4f61fc6"><path d="M 0.484375 0 L 29.515625 0 L 29.515625 29.03125 L 0.484375 29.03125 Z M 0.484375 0 " clip-rule="nonzero"/></clipPath><clipPath id="36ebde7f80"><path d="M 3.386719 4 L 20 4 L 20 26.128906 L 3.386719 26.128906 Z M 3.386719 4 " clip-rule="nonzero"/></clipPath><clipPath id="65856550e1"><path d="M 10 2.902344 L 26.613281 2.902344 L 26.613281 24 L 10 24 Z M 10 2.902344 " clip-rule="nonzero"/></clipPath></defs><g clip-path="url(#7af4f61fc6)"><path fill="#ffffff" d="M 0.484375 0 L 29.515625 0 L 29.515625 29.03125 L 0.484375 29.03125 Z M 0.484375 0 " fill-opacity="1" fill-rule="nonzero"/><path fill="#ffffff" d="M 0.484375 0 L 29.515625 0 L 29.515625 29.03125 L 0.484375 29.03125 Z M 0.484375 0 " fill-opacity="1" fill-rule="nonzero"/></g><g clip-path="url(#36ebde7f80)"><path fill="#935f3d" d="M 3.386719 14.515625 C 3.386719 20.917969 8.597656 26.128906 15 26.128906 C 16.449219 26.128906 17.859375 25.863281 19.199219 25.34375 C 19.347656 25.285156 19.421875 25.117188 19.363281 24.96875 C 19.304688 24.820312 19.136719 24.746094 18.988281 24.804688 C 17.71875 25.296875 16.375 25.546875 15 25.546875 C 8.917969 25.546875 3.96875 20.597656 3.96875 14.515625 C 3.96875 11.140625 5.523438 7.953125 8.15625 5.867188 L 8.15625 7.804688 C 8.15625 7.964844 8.285156 8.09375 8.445312 8.09375 C 8.605469 8.09375 8.734375 7.964844 8.734375 7.804688 L 8.734375 5.277344 C 8.734375 5.269531 8.734375 5.269531 8.734375 5.265625 C 8.730469 5.234375 8.726562 5.210938 8.71875 5.183594 C 8.710938 5.167969 8.707031 5.152344 8.699219 5.140625 C 8.691406 5.132812 8.691406 5.121094 8.683594 5.113281 C 8.679688 5.105469 8.671875 5.101562 8.667969 5.097656 C 8.652344 5.078125 8.632812 5.0625 8.613281 5.046875 C 8.605469 5.039062 8.597656 5.035156 8.589844 5.027344 C 8.5625 5.011719 8.535156 5.003906 8.503906 4.996094 C 8.5 4.996094 8.496094 4.996094 8.492188 4.996094 C 8.476562 4.992188 8.460938 4.984375 8.445312 4.984375 L 5.914062 4.984375 C 5.753906 4.984375 5.625 5.113281 5.625 5.277344 C 5.625 5.4375 5.753906 5.566406 5.914062 5.566406 L 7.605469 5.566406 C 4.953125 7.761719 3.386719 11.046875 3.386719 14.515625 Z M 3.386719 14.515625 " fill-opacity="1" fill-rule="nonzero"/></g><g clip-path="url(#65856550e1)"><path fill="#935f3d" d="M 15 2.902344 C 13.648438 2.902344 12.320312 3.132812 11.058594 3.589844 C 10.90625 3.644531 10.828125 3.808594 10.882812 3.960938 C 10.9375 4.113281 11.105469 4.191406 11.257812 4.136719 C 12.453125 3.703125 13.714844 3.484375 15 3.484375 C 21.082031 3.484375 26.03125 8.433594 26.03125 14.515625 C 26.03125 17.796875 24.546875 20.929688 22.027344 23.015625 L 22.027344 21.09375 C 22.027344 20.933594 21.898438 20.804688 21.738281 20.804688 C 21.578125 20.804688 21.449219 20.933594 21.449219 21.09375 L 21.449219 23.570312 C 21.445312 23.585938 21.449219 23.597656 21.449219 23.613281 L 21.449219 23.625 C 21.449219 23.625 21.449219 23.625 21.449219 23.628906 C 21.449219 23.660156 21.457031 23.691406 21.46875 23.722656 C 21.472656 23.734375 21.476562 23.746094 21.484375 23.757812 C 21.492188 23.769531 21.492188 23.78125 21.5 23.792969 C 21.503906 23.796875 21.511719 23.796875 21.515625 23.804688 C 21.539062 23.835938 21.570312 23.859375 21.605469 23.878906 C 21.644531 23.898438 21.6875 23.914062 21.738281 23.914062 L 24.269531 23.914062 C 24.429688 23.914062 24.558594 23.785156 24.558594 23.625 C 24.558594 23.464844 24.429688 23.335938 24.269531 23.335938 L 22.550781 23.335938 C 25.105469 21.140625 26.613281 17.902344 26.613281 14.515625 C 26.613281 8.113281 21.402344 2.902344 15 2.902344 Z M 15 2.902344 " fill-opacity="1" fill-rule="nonzero"/></g><path fill="#935f3d" d="M 20.949219 9.015625 L 9.050781 9.015625 C 8.886719 9.015625 8.757812 9.144531 8.757812 9.304688 L 8.757812 13.578125 C 8.027344 13.707031 7.464844 14.34375 7.464844 15.113281 L 7.464844 19.726562 C 7.464844 19.886719 7.59375 20.019531 7.757812 20.019531 C 7.917969 20.019531 8.046875 19.886719 8.046875 19.726562 L 8.046875 17.761719 L 21.953125 17.761719 L 21.953125 19.726562 C 21.953125 19.886719 22.082031 20.019531 22.242188 20.019531 C 22.40625 20.019531 22.535156 19.886719 22.535156 19.726562 L 22.535156 15.113281 C 22.535156 14.34375 21.972656 13.707031 21.242188 13.578125 L 21.242188 9.304688 C 21.242188 9.144531 21.113281 9.015625 20.949219 9.015625 Z M 20.660156 9.59375 L 20.660156 13.550781 L 19.390625 13.550781 L 19.390625 12.167969 C 19.390625 11.503906 18.851562 10.964844 18.1875 10.964844 L 15.914062 10.964844 C 15.546875 10.964844 15.222656 11.132812 15 11.394531 C 14.777344 11.132812 14.453125 10.964844 14.085938 10.964844 L 11.8125 10.964844 C 11.148438 10.964844 10.609375 11.503906 10.609375 12.167969 L 10.609375 13.550781 L 9.339844 13.550781 L 9.339844 9.59375 Z M 14.710938 13.550781 L 11.191406 13.550781 L 11.191406 12.167969 C 11.191406 11.824219 11.46875 11.542969 11.8125 11.542969 L 14.085938 11.542969 C 14.429688 11.542969 14.710938 11.824219 14.710938 12.167969 Z M 18.808594 13.550781 L 15.289062 13.550781 L 15.289062 12.167969 C 15.289062 11.824219 15.570312 11.542969 15.914062 11.542969 L 18.1875 11.542969 C 18.53125 11.542969 18.808594 11.824219 18.808594 12.167969 Z M 21.953125 15.113281 L 21.953125 17.179688 L 8.046875 17.179688 L 8.046875 15.113281 C 8.046875 14.574219 8.488281 14.132812 9.03125 14.132812 L 20.96875 14.132812 C 21.511719 14.132812 21.953125 14.574219 21.953125 15.113281 Z M 21.953125 15.113281 " fill-opacity="1" fill-rule="nonzero"/></svg>