<svg xmlns="http://www.w3.org/2000/svg" xmlns:xlink="http://www.w3.org/1999/xlink" width="40" zoomAndPan="magnify" viewBox="0 0 30 30.000001" height="40" preserveAspectRatio="xMidYMid meet" version="1.0"><defs><clipPath id="269566e3c5"><path d="M 0.484375 0 L 29.515625 0 L 29.515625 29.03125 L 0.484375 29.03125 Z M 0.484375 0 " clip-rule="nonzero"/></clipPath><clipPath id="12c9307d8a"><path d="M 4 3.722656 L 26 3.722656 L 26 26.222656 L 4 26.222656 Z M 4 3.722656 " clip-rule="nonzero"/></clipPath></defs><g clip-path="url(#269566e3c5)"><path fill="#ffffff" d="M 0.484375 0 L 29.515625 0 L 29.515625 29.03125 L 0.484375 29.03125 Z M 0.484375 0 " fill-opacity="1" fill-rule="nonzero"/><path fill="#ffffff" d="M 0.484375 0 L 29.515625 0 L 29.515625 29.03125 L 0.484375 29.03125 Z M 0.484375 0 " fill-opacity="1" fill-rule="nonzero"/></g><g clip-path="url(#12c9307d8a)"><path fill="#935f3d" d="M 25.75 17.5 C 25.539062 17.148438 24.679688 16.109375 22.410156 17.429688 L 18.421875 19.753906 C 18.226562 19.867188 18.03125 19.949219 17.824219 19.996094 C 17.898438 19.875 17.957031 19.738281 18 19.582031 C 18.203125 18.820312 17.75 18.019531 16.964844 17.765625 C 16.949219 17.761719 16.933594 17.757812 16.917969 17.753906 C 15.769531 17.546875 14.640625 17.136719 13.730469 16.808594 C 13.414062 16.695312 13.117188 16.585938 12.863281 16.503906 C 11.835938 16.171875 10.914062 16.585938 10.144531 17.03125 L 7.179688 18.746094 L 6.90625 18.257812 C 6.78125 18.035156 6.578125 17.878906 6.332031 17.808594 C 6.089844 17.742188 5.832031 17.773438 5.613281 17.898438 L 4.492188 18.53125 C 4.039062 18.789062 3.878906 19.371094 4.136719 19.824219 L 7.425781 25.640625 C 7.550781 25.859375 7.753906 26.015625 7.996094 26.085938 C 8.082031 26.109375 8.167969 26.121094 8.253906 26.121094 C 8.414062 26.121094 8.574219 26.078125 8.71875 25.996094 L 9.835938 25.363281 C 10.058594 25.238281 10.214844 25.035156 10.285156 24.792969 C 10.351562 24.546875 10.320312 24.289062 10.195312 24.070312 L 9.859375 23.476562 L 10.527344 23.09375 L 15.632812 24.460938 C 15.921875 24.539062 16.207031 24.578125 16.484375 24.578125 C 17.039062 24.578125 17.570312 24.421875 18.066406 24.117188 L 25.304688 19.660156 C 25.96875 19.25 26.179688 18.222656 25.75 17.5 Z M 9.585938 24.597656 C 9.570312 24.65625 9.535156 24.707031 9.480469 24.734375 L 8.363281 25.367188 C 8.308594 25.398438 8.25 25.40625 8.191406 25.390625 C 8.132812 25.371094 8.082031 25.335938 8.054688 25.28125 L 4.765625 19.46875 C 4.734375 19.417969 4.726562 19.355469 4.742188 19.296875 C 4.757812 19.238281 4.796875 19.191406 4.847656 19.160156 L 5.96875 18.527344 C 6.003906 18.507812 6.039062 18.5 6.078125 18.5 C 6.097656 18.5 6.121094 18.5 6.140625 18.507812 C 6.199219 18.523438 6.246094 18.558594 6.277344 18.613281 L 9.566406 24.425781 C 9.597656 24.480469 9.605469 24.539062 9.585938 24.597656 Z M 24.925781 19.042969 L 17.6875 23.5 C 17.117188 23.851562 16.488281 23.941406 15.820312 23.761719 L 10.570312 22.355469 C 10.476562 22.332031 10.378906 22.34375 10.296875 22.390625 L 9.503906 22.847656 L 7.539062 19.375 L 10.503906 17.65625 C 11.167969 17.269531 11.886719 16.949219 12.640625 17.191406 C 12.882812 17.269531 13.160156 17.371094 13.484375 17.488281 C 14.414062 17.824219 15.566406 18.242188 16.761719 18.460938 C 17.175781 18.605469 17.40625 19.003906 17.300781 19.398438 C 17.160156 19.914062 16.730469 19.980469 16.386719 19.9375 C 15.800781 19.820312 15.242188 19.660156 14.652344 19.492188 C 14.371094 19.410156 14.082031 19.328125 13.785156 19.246094 C 13.589844 19.195312 13.390625 19.3125 13.339844 19.503906 C 13.289062 19.695312 13.402344 19.894531 13.597656 19.945312 C 13.886719 20.023438 14.175781 20.105469 14.453125 20.183594 C 15.0625 20.359375 15.636719 20.523438 16.257812 20.648438 C 16.257812 20.652344 16.261719 20.652344 16.265625 20.652344 C 16.265625 20.652344 16.269531 20.652344 16.269531 20.652344 L 16.765625 20.734375 C 17.511719 20.851562 18.171875 20.738281 18.785156 20.378906 L 22.773438 18.054688 C 23.917969 17.390625 24.796875 17.320312 25.128906 17.871094 C 25.355469 18.25 25.253906 18.84375 24.925781 19.042969 Z M 6.289062 19.644531 C 6.320312 19.863281 6.171875 20.066406 5.953125 20.097656 C 5.734375 20.128906 5.53125 19.976562 5.5 19.757812 C 5.46875 19.539062 5.617188 19.339844 5.835938 19.304688 C 6.054688 19.273438 6.257812 19.425781 6.289062 19.644531 Z M 13.671875 12.28125 L 14.425781 12.570312 C 14.535156 12.972656 14.695312 13.359375 14.902344 13.722656 L 14.574219 14.460938 C 14.511719 14.597656 14.542969 14.757812 14.648438 14.863281 L 15.71875 15.933594 C 15.824219 16.039062 15.984375 16.066406 16.121094 16.007812 L 16.859375 15.679688 C 17.222656 15.886719 17.609375 16.046875 18.011719 16.15625 L 18.300781 16.910156 C 18.355469 17.050781 18.488281 17.140625 18.636719 17.140625 L 20.152344 17.140625 C 20.300781 17.140625 20.4375 17.050781 20.488281 16.910156 L 20.78125 16.15625 C 21.179688 16.046875 21.566406 15.886719 21.929688 15.679688 L 22.667969 16.007812 C 22.804688 16.066406 22.964844 16.039062 23.070312 15.933594 L 24.140625 14.863281 C 24.246094 14.757812 24.277344 14.597656 24.214844 14.460938 L 23.886719 13.722656 C 24.09375 13.359375 24.253906 12.972656 24.367188 12.570312 L 25.121094 12.28125 C 25.257812 12.226562 25.351562 12.09375 25.351562 11.941406 L 25.351562 10.429688 C 25.351562 10.277344 25.257812 10.144531 25.121094 10.089844 L 24.367188 9.800781 C 24.253906 9.398438 24.09375 9.015625 23.890625 8.648438 L 24.214844 7.910156 C 24.277344 7.773438 24.246094 7.617188 24.140625 7.511719 L 23.070312 6.4375 C 22.964844 6.332031 22.804688 6.304688 22.667969 6.363281 L 21.929688 6.691406 C 21.566406 6.488281 21.179688 6.328125 20.78125 6.214844 L 20.488281 5.460938 C 20.4375 5.320312 20.300781 5.230469 20.152344 5.230469 L 18.636719 5.230469 C 18.488281 5.230469 18.355469 5.320312 18.300781 5.460938 L 18.011719 6.214844 C 17.609375 6.328125 17.222656 6.488281 16.859375 6.691406 L 16.121094 6.363281 C 15.984375 6.304688 15.824219 6.332031 15.71875 6.4375 L 14.648438 7.511719 C 14.542969 7.617188 14.511719 7.773438 14.574219 7.910156 L 14.902344 8.648438 C 14.695312 9.015625 14.535156 9.398438 14.425781 9.800781 L 13.671875 10.089844 C 13.53125 10.144531 13.4375 10.28125 13.4375 10.429688 L 13.4375 11.941406 C 13.4375 12.09375 13.53125 12.226562 13.671875 12.28125 Z M 14.160156 10.675781 L 14.855469 10.410156 C 14.96875 10.367188 15.050781 10.269531 15.078125 10.15625 C 15.1875 9.699219 15.367188 9.265625 15.613281 8.863281 C 15.675781 8.761719 15.6875 8.636719 15.636719 8.527344 L 15.335938 7.84375 L 16.054688 7.125 L 16.738281 7.429688 C 16.84375 7.476562 16.972656 7.46875 17.074219 7.40625 C 17.472656 7.160156 17.90625 6.976562 18.363281 6.871094 C 18.480469 6.84375 18.574219 6.757812 18.617188 6.648438 L 18.886719 5.953125 L 19.902344 5.953125 L 20.171875 6.648438 C 20.214844 6.757812 20.308594 6.84375 20.425781 6.871094 C 20.882812 6.976562 21.316406 7.160156 21.71875 7.40625 C 21.820312 7.46875 21.945312 7.476562 22.054688 7.429688 L 22.734375 7.125 L 23.457031 7.84375 L 23.152344 8.527344 C 23.105469 8.636719 23.113281 8.761719 23.175781 8.863281 C 23.421875 9.265625 23.601562 9.699219 23.710938 10.15625 C 23.738281 10.269531 23.820312 10.367188 23.933594 10.410156 L 24.628906 10.675781 L 24.628906 11.695312 L 23.933594 11.960938 C 23.820312 12.003906 23.738281 12.101562 23.710938 12.214844 C 23.601562 12.671875 23.421875 13.109375 23.175781 13.507812 C 23.113281 13.609375 23.105469 13.734375 23.152344 13.84375 L 23.457031 14.527344 L 22.734375 15.246094 L 22.054688 14.945312 C 21.945312 14.894531 21.820312 14.902344 21.71875 14.964844 C 21.316406 15.214844 20.882812 15.394531 20.425781 15.503906 C 20.308594 15.53125 20.214844 15.613281 20.171875 15.722656 L 19.902344 16.417969 L 18.886719 16.417969 L 18.617188 15.722656 C 18.574219 15.613281 18.480469 15.53125 18.363281 15.5 C 17.90625 15.394531 17.472656 15.214844 17.074219 14.964844 C 16.972656 14.902344 16.84375 14.894531 16.738281 14.945312 L 16.054688 15.246094 L 15.335938 14.527344 L 15.636719 13.84375 C 15.6875 13.734375 15.675781 13.609375 15.613281 13.507812 C 15.367188 13.109375 15.1875 12.671875 15.078125 12.214844 C 15.050781 12.101562 14.96875 12.003906 14.855469 11.960938 L 14.160156 11.695312 Z M 19.394531 14.421875 C 21.179688 14.421875 22.628906 12.96875 22.628906 11.1875 C 22.628906 9.402344 21.179688 7.949219 19.394531 7.949219 C 17.609375 7.949219 16.160156 9.402344 16.160156 11.1875 C 16.160156 12.96875 17.609375 14.421875 19.394531 14.421875 Z M 19.394531 8.671875 C 20.78125 8.671875 21.90625 9.800781 21.90625 11.1875 C 21.90625 12.570312 20.78125 13.699219 19.394531 13.699219 C 18.007812 13.699219 16.882812 12.570312 16.882812 11.1875 C 16.882812 9.800781 18.007812 8.671875 19.394531 8.671875 Z M 17.699219 11.546875 C 17.5 11.546875 17.339844 11.386719 17.339844 11.1875 C 17.339844 10.988281 17.5 10.824219 17.699219 10.824219 L 19.035156 10.824219 L 19.035156 9.488281 C 19.035156 9.289062 19.195312 9.128906 19.394531 9.128906 C 19.59375 9.128906 19.757812 9.289062 19.757812 9.488281 L 19.757812 10.824219 L 21.089844 10.824219 C 21.289062 10.824219 21.453125 10.988281 21.453125 11.1875 C 21.453125 11.386719 21.289062 11.546875 21.089844 11.546875 L 19.757812 11.546875 L 19.757812 12.882812 C 19.757812 13.082031 19.59375 13.242188 19.394531 13.242188 C 19.195312 13.242188 19.035156 13.082031 19.035156 12.882812 L 19.035156 11.546875 Z M 9.410156 11.511719 C 11.554688 11.511719 13.304688 9.765625 13.304688 7.617188 C 13.304688 5.46875 11.554688 3.722656 9.410156 3.722656 C 7.261719 3.722656 5.511719 5.46875 5.511719 7.617188 C 5.511719 9.765625 7.261719 11.511719 9.410156 11.511719 Z M 9.410156 4.445312 C 11.15625 4.445312 12.582031 5.867188 12.582031 7.617188 C 12.582031 9.367188 11.15625 10.789062 9.410156 10.789062 C 7.660156 10.789062 6.234375 9.367188 6.234375 7.617188 C 6.234375 5.867188 7.660156 4.445312 9.410156 4.445312 Z M 9.410156 10.53125 C 11.015625 10.53125 12.324219 9.226562 12.324219 7.617188 C 12.324219 6.011719 11.015625 4.703125 9.410156 4.703125 C 7.800781 4.703125 6.492188 6.011719 6.492188 7.617188 C 6.492188 9.226562 7.800781 10.53125 9.410156 10.53125 Z M 9.410156 5.425781 C 10.617188 5.425781 11.601562 6.410156 11.601562 7.617188 C 11.601562 8.828125 10.617188 9.808594 9.410156 9.808594 C 8.199219 9.808594 7.214844 8.828125 7.214844 7.617188 C 7.214844 6.410156 8.199219 5.425781 9.410156 5.425781 Z M 9.835938 8.371094 C 9.859375 8.347656 9.871094 8.316406 9.863281 8.257812 C 9.855469 8.195312 9.839844 8.042969 9.351562 7.964844 C 8.480469 7.820312 8.328125 7.320312 8.3125 7.035156 C 8.292969 6.578125 8.582031 6.195312 9.046875 6.054688 L 9.046875 6 C 9.046875 5.800781 9.210938 5.640625 9.410156 5.640625 C 9.609375 5.640625 9.769531 5.800781 9.769531 6 L 9.769531 6.050781 C 10.066406 6.140625 10.34375 6.34375 10.492188 6.703125 C 10.570312 6.886719 10.484375 7.097656 10.300781 7.175781 C 10.117188 7.25 9.90625 7.164062 9.828125 6.980469 C 9.71875 6.71875 9.441406 6.703125 9.292969 6.738281 C 9.230469 6.75 9.027344 6.8125 9.035156 7 C 9.039062 7.042969 9.042969 7.183594 9.46875 7.25 C 10.148438 7.363281 10.519531 7.671875 10.582031 8.171875 C 10.613281 8.425781 10.542969 8.65625 10.382812 8.84375 C 10.238281 9.011719 10.019531 9.132812 9.769531 9.191406 L 9.769531 9.234375 C 9.769531 9.433594 9.609375 9.59375 9.410156 9.59375 C 9.210938 9.59375 9.046875 9.433594 9.046875 9.234375 L 9.046875 9.1875 C 8.644531 9.078125 8.335938 8.785156 8.238281 8.390625 C 8.191406 8.199219 8.308594 8.003906 8.5 7.953125 C 8.695312 7.90625 8.890625 8.023438 8.941406 8.21875 C 8.996094 8.441406 9.238281 8.515625 9.433594 8.511719 C 9.601562 8.507812 9.769531 8.449219 9.835938 8.371094 Z M 9.835938 8.371094 " fill-opacity="1" fill-rule="nonzero"/></g></svg>