<svg xmlns="http://www.w3.org/2000/svg" xmlns:xlink="http://www.w3.org/1999/xlink" width="40" zoomAndPan="magnify" viewBox="0 0 30 30.000001" height="40" preserveAspectRatio="xMidYMid meet" version="1.0"><defs><clipPath id="643f53a3a7"><path d="M 0.484375 0 L 29.515625 0 L 29.515625 29.03125 L 0.484375 29.03125 Z M 0.484375 0 " clip-rule="nonzero"/></clipPath><clipPath id="1c2fb7f87b"><path d="M 17 10 L 24.433594 10 L 24.433594 19 L 17 19 Z M 17 10 " clip-rule="nonzero"/></clipPath><clipPath id="52c6cdf631"><path d="M 5.566406 2.902344 L 22 2.902344 L 22 26.128906 L 5.566406 26.128906 Z M 5.566406 2.902344 " clip-rule="nonzero"/></clipPath></defs><g clip-path="url(#643f53a3a7)"><path fill="#ffffff" d="M 0.484375 0 L 29.515625 0 L 29.515625 29.03125 L 0.484375 29.03125 Z M 0.484375 0 " fill-opacity="1" fill-rule="nonzero"/><path fill="#ffffff" d="M 0.484375 0 L 29.515625 0 L 29.515625 29.03125 L 0.484375 29.03125 Z M 0.484375 0 " fill-opacity="1" fill-rule="nonzero"/></g><g clip-path="url(#1c2fb7f87b)"><path fill="#935f3d" d="M 20.804688 10.886719 C 18.808594 10.886719 17.175781 12.519531 17.175781 14.515625 C 17.175781 16.511719 18.808594 18.144531 20.804688 18.144531 C 22.800781 18.144531 24.433594 16.511719 24.433594 14.515625 C 24.433594 12.519531 22.800781 10.886719 20.804688 10.886719 Z M 20.804688 17.417969 C 19.210938 17.417969 17.902344 16.113281 17.902344 14.515625 C 17.902344 12.917969 19.210938 11.613281 20.804688 11.613281 C 22.402344 11.613281 23.710938 12.917969 23.710938 14.515625 C 23.710938 16.113281 22.402344 17.417969 20.804688 17.417969 Z M 20.804688 17.417969 " fill-opacity="1" fill-rule="nonzero"/></g><path fill="#935f3d" d="M 22.441406 14.152344 L 21.167969 14.152344 L 21.167969 12.882812 C 21.167969 12.683594 21.007812 12.519531 20.804688 12.519531 C 20.605469 12.519531 20.445312 12.683594 20.445312 12.882812 L 20.445312 14.152344 L 19.171875 14.152344 C 18.972656 14.152344 18.808594 14.316406 18.808594 14.515625 C 18.808594 14.714844 18.972656 14.878906 19.171875 14.878906 L 20.445312 14.878906 L 20.445312 16.148438 C 20.445312 16.347656 20.605469 16.511719 20.804688 16.511719 C 21.007812 16.511719 21.167969 16.347656 21.167969 16.148438 L 21.167969 14.878906 L 22.441406 14.878906 C 22.640625 14.878906 22.800781 14.714844 22.800781 14.515625 C 22.800781 14.316406 22.640625 14.152344 22.441406 14.152344 Z M 22.441406 14.152344 " fill-opacity="1" fill-rule="nonzero"/><g clip-path="url(#52c6cdf631)"><path fill="#935f3d" d="M 18.957031 18.453125 C 18.902344 18.582031 18.773438 18.691406 18.628906 18.691406 L 12.097656 18.691406 C 11.898438 18.691406 11.734375 18.527344 11.734375 18.328125 C 11.734375 18.128906 11.898438 17.964844 12.097656 17.964844 L 18.15625 17.964844 C 17.886719 17.746094 17.632812 17.511719 17.414062 17.238281 L 12.097656 17.238281 C 11.898438 17.238281 11.734375 17.074219 11.734375 16.875 C 11.734375 16.675781 11.898438 16.511719 12.097656 16.511719 L 16.941406 16.511719 C 16.777344 16.203125 16.667969 15.894531 16.578125 15.550781 C 16.507812 15.277344 16.46875 14.988281 16.453125 14.679688 L 12.097656 14.679688 C 11.898438 14.679688 11.734375 14.515625 11.734375 14.316406 C 11.734375 14.117188 11.898438 13.953125 12.097656 13.953125 L 16.488281 13.953125 C 16.523438 13.699219 16.578125 13.464844 16.632812 13.226562 L 12.097656 13.226562 C 11.898438 13.226562 11.734375 13.066406 11.734375 12.863281 C 11.734375 12.664062 11.898438 12.503906 12.097656 12.503906 L 16.941406 12.503906 C 17.140625 12.121094 17.394531 11.757812 17.703125 11.449219 C 18.011719 11.140625 18.355469 10.867188 18.738281 10.667969 C 18.703125 10.707031 18.664062 10.707031 18.628906 10.707031 L 12.097656 10.707031 C 11.898438 10.707031 11.734375 10.542969 11.734375 10.34375 C 11.734375 10.144531 11.898438 9.980469 12.097656 9.980469 L 18.628906 9.980469 C 18.828125 9.980469 18.992188 10.144531 18.992188 10.34375 C 18.992188 10.453125 18.9375 10.558594 18.847656 10.632812 C 19.445312 10.324219 20.097656 10.160156 20.804688 10.160156 C 20.933594 10.160156 21.042969 10.160156 21.167969 10.179688 L 21.167969 5.445312 C 21.167969 4.84375 20.679688 4.355469 20.082031 4.355469 L 16.269531 4.355469 L 16.269531 3.992188 C 16.269531 3.394531 15.78125 2.902344 15.179688 2.902344 L 11.550781 2.902344 C 10.953125 2.902344 10.464844 3.394531 10.464844 3.992188 L 10.464844 4.355469 L 6.652344 4.355469 C 6.054688 4.355469 5.566406 4.84375 5.566406 5.445312 L 5.566406 25.039062 C 5.566406 25.640625 6.054688 26.128906 6.652344 26.128906 L 20.082031 26.128906 C 20.679688 26.128906 21.167969 25.640625 21.167969 25.039062 L 21.167969 18.851562 C 21.042969 18.851562 20.933594 18.871094 20.804688 18.871094 C 20.152344 18.871094 19.519531 18.726562 18.957031 18.453125 Z M 18.992188 8.890625 C 18.992188 9.089844 18.828125 9.253906 18.628906 9.253906 L 12.097656 9.253906 C 11.898438 9.253906 11.734375 9.089844 11.734375 8.890625 C 11.734375 8.691406 11.898438 8.527344 12.097656 8.527344 L 18.628906 8.527344 C 18.828125 8.527344 18.992188 8.691406 18.992188 8.890625 Z M 11.191406 3.992188 C 11.191406 3.792969 11.351562 3.628906 11.550781 3.628906 L 15.179688 3.628906 C 15.382812 3.628906 15.542969 3.792969 15.542969 3.992188 L 15.542969 4.355469 L 11.191406 4.355469 Z M 10.101562 5.082031 L 16.632812 5.082031 L 16.632812 5.804688 C 16.632812 6.007812 16.46875 6.167969 16.269531 6.167969 L 10.464844 6.167969 C 10.265625 6.167969 10.101562 6.007812 10.101562 5.804688 Z M 7.742188 9.074219 C 7.742188 8.671875 8.070312 8.347656 8.46875 8.347656 L 9.554688 8.347656 C 9.738281 8.347656 9.902344 8.417969 10.027344 8.527344 L 9.03125 9.34375 C 8.886719 9.253906 8.667969 9.273438 8.558594 9.417969 C 8.429688 9.582031 8.449219 9.796875 8.613281 9.925781 L 8.8125 10.089844 C 8.886719 10.144531 8.957031 10.179688 9.046875 10.179688 C 9.140625 10.179688 9.210938 10.160156 9.285156 10.089844 L 10.28125 9.253906 L 10.28125 10.160156 C 10.28125 10.558594 9.957031 10.886719 9.554688 10.886719 L 8.46875 10.886719 C 8.070312 10.886719 7.742188 10.558594 7.742188 10.160156 Z M 7.742188 13.066406 C 7.742188 12.664062 8.070312 12.339844 8.46875 12.339844 L 9.554688 12.339844 C 9.738281 12.339844 9.902344 12.410156 10.027344 12.519531 L 9.03125 13.335938 C 8.886719 13.246094 8.667969 13.265625 8.558594 13.410156 C 8.429688 13.574219 8.449219 13.789062 8.613281 13.917969 L 8.8125 14.082031 C 8.886719 14.136719 8.957031 14.171875 9.046875 14.171875 C 9.140625 14.171875 9.210938 14.152344 9.285156 14.082031 L 10.300781 13.246094 L 10.300781 14.152344 C 10.300781 14.550781 9.972656 14.878906 9.574219 14.878906 L 8.484375 14.878906 C 8.085938 14.878906 7.761719 14.550781 7.761719 14.152344 L 7.761719 13.066406 Z M 7.742188 17.054688 C 7.742188 16.65625 8.070312 16.332031 8.46875 16.332031 L 9.554688 16.332031 C 9.738281 16.332031 9.902344 16.402344 10.027344 16.511719 L 9.03125 17.328125 C 8.886719 17.238281 8.667969 17.257812 8.558594 17.402344 C 8.429688 17.566406 8.449219 17.78125 8.613281 17.910156 L 8.8125 18.074219 C 8.886719 18.128906 8.957031 18.164062 9.046875 18.164062 C 9.140625 18.164062 9.210938 18.144531 9.285156 18.074219 L 10.28125 17.238281 L 10.28125 18.144531 C 10.28125 18.542969 9.957031 18.871094 9.554688 18.871094 L 8.46875 18.871094 C 8.070312 18.871094 7.742188 18.542969 7.742188 18.144531 Z M 9.554688 22.863281 L 8.46875 22.863281 C 8.070312 22.863281 7.742188 22.535156 7.742188 22.136719 L 7.742188 21.046875 C 7.742188 20.648438 8.070312 20.324219 8.46875 20.324219 L 9.554688 20.324219 C 9.738281 20.324219 9.902344 20.394531 10.027344 20.503906 L 9.03125 21.320312 C 8.886719 21.230469 8.667969 21.246094 8.558594 21.394531 C 8.429688 21.554688 8.449219 21.773438 8.613281 21.902344 L 8.8125 22.066406 C 8.886719 22.117188 8.957031 22.15625 9.046875 22.15625 C 9.140625 22.15625 9.210938 22.136719 9.285156 22.066406 L 10.300781 21.230469 L 10.300781 22.15625 C 10.28125 22.535156 9.957031 22.863281 9.554688 22.863281 Z M 18.628906 22.679688 L 12.097656 22.679688 C 11.898438 22.679688 11.734375 22.519531 11.734375 22.320312 C 11.734375 22.117188 11.898438 21.957031 12.097656 21.957031 L 18.628906 21.957031 C 18.828125 21.957031 18.992188 22.117188 18.992188 22.320312 C 18.992188 22.519531 18.828125 22.679688 18.628906 22.679688 Z M 18.628906 21.230469 L 12.097656 21.230469 C 11.898438 21.230469 11.734375 21.066406 11.734375 20.867188 C 11.734375 20.667969 11.898438 20.503906 12.097656 20.503906 L 18.628906 20.503906 C 18.828125 20.503906 18.992188 20.667969 18.992188 20.867188 C 18.992188 21.066406 18.828125 21.230469 18.628906 21.230469 Z M 18.628906 21.230469 " fill-opacity="1" fill-rule="nonzero"/></g></svg>