<svg xmlns="http://www.w3.org/2000/svg" xmlns:xlink="http://www.w3.org/1999/xlink" width="40" zoomAndPan="magnify" viewBox="0 0 30 30.000001" height="40" preserveAspectRatio="xMidYMid meet" version="1.0"><defs><clipPath id="9f759aaade"><path d="M 0.484375 0 L 29.515625 0 L 29.515625 29.03125 L 0.484375 29.03125 Z M 0.484375 0 " clip-rule="nonzero"/></clipPath><clipPath id="1b4215dc2b"><path d="M 3.386719 16 L 5 16 L 5 18 L 3.386719 18 Z M 3.386719 16 " clip-rule="nonzero"/></clipPath><clipPath id="b32c0a0fc2"><path d="M 3.386719 11 L 5 11 L 5 13 L 3.386719 13 Z M 3.386719 11 " clip-rule="nonzero"/></clipPath><clipPath id="fc5de88211"><path d="M 3.386719 13 L 5 13 L 5 15 L 3.386719 15 Z M 3.386719 13 " clip-rule="nonzero"/></clipPath><clipPath id="72da13c52a"><path d="M 25 11 L 26.613281 11 L 26.613281 14 L 25 14 Z M 25 11 " clip-rule="nonzero"/></clipPath><clipPath id="08dc07c647"><path d="M 14 2.902344 L 16 2.902344 L 16 4 L 14 4 Z M 14 2.902344 " clip-rule="nonzero"/></clipPath><clipPath id="ddad88ca49"><path d="M 25 16 L 26.613281 16 L 26.613281 18 L 25 18 Z M 25 16 " clip-rule="nonzero"/></clipPath><clipPath id="e1396dda04"><path d="M 25 14 L 26.613281 14 L 26.613281 16 L 25 16 Z M 25 14 " clip-rule="nonzero"/></clipPath><clipPath id="8f872ac3fc"><path d="M 14 25 L 16 25 L 16 26.128906 L 14 26.128906 Z M 14 25 " clip-rule="nonzero"/></clipPath></defs><g clip-path="url(#9f759aaade)"><path fill="#ffffff" d="M 0.484375 0 L 29.515625 0 L 29.515625 29.03125 L 0.484375 29.03125 Z M 0.484375 0 " fill-opacity="1" fill-rule="nonzero"/><path fill="#ffffff" d="M 0.484375 0 L 29.515625 0 L 29.515625 29.03125 L 0.484375 29.03125 Z M 0.484375 0 " fill-opacity="1" fill-rule="nonzero"/></g><path fill="#935f3d" d="M 9.375 8.273438 L 9.375 8.417969 C 9.539062 8.363281 9.703125 8.347656 9.882812 8.347656 C 10.628906 8.347656 11.296875 8.800781 11.570312 9.488281 L 12.640625 12.15625 L 18.449219 12.15625 C 18.648438 12.15625 18.808594 12.320312 18.808594 12.519531 C 18.808594 12.71875 18.648438 12.882812 18.449219 12.882812 L 12.929688 12.882812 L 13.222656 13.609375 L 17.921875 13.609375 C 18.246094 13.480469 18.609375 13.425781 18.992188 13.425781 C 19.589844 13.425781 20.136719 13.589844 20.625 13.863281 L 20.625 10.597656 C 20.625 10.488281 20.570312 10.398438 20.496094 10.324219 L 16.976562 7.347656 C 16.90625 7.292969 16.832031 7.257812 16.742188 7.257812 L 10.390625 7.257812 C 9.828125 7.257812 9.375 7.710938 9.375 8.273438 Z M 17.070312 8.363281 L 19.355469 10.304688 L 17.359375 10.304688 C 17.195312 10.304688 17.070312 10.179688 17.070312 10.015625 Z M 17.070312 8.363281 " fill-opacity="1" fill-rule="nonzero"/><path fill="#935f3d" d="M 16.742188 14.335938 L 13.511719 14.335938 L 13.800781 15.058594 L 16.179688 15.058594 C 16.324219 14.789062 16.507812 14.550781 16.742188 14.335938 Z M 16.742188 14.335938 " fill-opacity="1" fill-rule="nonzero"/><path fill="#935f3d" d="M 20.625 20.757812 L 20.625 19.523438 C 20.535156 19.578125 20.445312 19.613281 20.351562 19.667969 C 20.261719 19.707031 20.171875 19.742188 20.082031 19.777344 C 19.734375 19.90625 19.371094 19.960938 19.011719 19.960938 C 17.214844 19.960938 15.742188 18.488281 15.742188 16.695312 C 15.742188 16.386719 15.796875 16.078125 15.871094 15.785156 L 14.09375 15.785156 L 14.601562 17.074219 C 14.710938 17.328125 14.746094 17.617188 14.726562 17.910156 L 14.636719 20.015625 C 14.617188 20.414062 14.382812 20.777344 14.019531 20.941406 C 13.875 21.011719 13.710938 21.046875 13.546875 21.046875 C 13.3125 21.046875 13.09375 20.976562 12.914062 20.847656 L 12.730469 20.703125 C 11.007812 19.46875 11.007812 19.46875 10.972656 19.433594 C 10.734375 19.234375 10.574219 18.996094 10.445312 18.726562 L 9.882812 17.308594 L 9.375 16.039062 L 9.375 20.738281 C 9.375 21.300781 9.828125 21.757812 10.390625 21.757812 L 19.609375 21.757812 C 20.171875 21.773438 20.625 21.320312 20.625 20.757812 Z M 20.625 20.757812 " fill-opacity="1" fill-rule="nonzero"/><path fill="#935f3d" d="M 7.289062 6.839844 C 7.378906 6.75 7.453125 6.675781 7.542969 6.585938 C 7.6875 6.441406 7.6875 6.222656 7.558594 6.078125 C 7.414062 5.933594 7.199219 5.933594 7.050781 6.058594 C 6.960938 6.152344 6.871094 6.242188 6.78125 6.332031 C 6.5625 6.550781 6.726562 6.949219 7.035156 6.949219 C 7.125 6.929688 7.214844 6.894531 7.289062 6.839844 Z M 7.289062 6.839844 " fill-opacity="1" fill-rule="nonzero"/><path fill="#935f3d" d="M 5.925781 8.492188 C 6 8.402344 6.054688 8.292969 6.128906 8.203125 C 6.234375 8.039062 6.199219 7.820312 6.035156 7.695312 C 5.871094 7.585938 5.65625 7.621094 5.527344 7.785156 C 5.457031 7.894531 5.382812 7.984375 5.308594 8.09375 C 5.203125 8.257812 5.238281 8.492188 5.417969 8.601562 C 5.601562 8.691406 5.820312 8.65625 5.925781 8.492188 Z M 5.925781 8.492188 " fill-opacity="1" fill-rule="nonzero"/><path fill="#935f3d" d="M 8.847656 4.664062 C 8.738281 4.734375 8.632812 4.789062 8.523438 4.863281 C 8.359375 4.972656 8.304688 5.207031 8.429688 5.371094 C 8.503906 5.480469 8.613281 5.535156 8.738281 5.535156 C 8.921875 5.535156 9.085938 5.371094 9.246094 5.28125 C 9.410156 5.171875 9.464844 4.953125 9.355469 4.773438 C 9.246094 4.589844 9.011719 4.554688 8.847656 4.664062 Z M 8.847656 4.664062 " fill-opacity="1" fill-rule="nonzero"/><g clip-path="url(#1b4215dc2b)"><path fill="#935f3d" d="M 3.839844 16.003906 C 3.640625 16.039062 3.515625 16.222656 3.550781 16.421875 C 3.570312 16.546875 3.585938 16.675781 3.621094 16.800781 C 3.660156 17.003906 3.859375 17.128906 4.058594 17.09375 C 4.257812 17.054688 4.386719 16.855469 4.347656 16.65625 C 4.332031 16.546875 4.3125 16.421875 4.277344 16.3125 C 4.222656 16.113281 4.039062 15.96875 3.839844 16.003906 Z M 3.839844 16.003906 " fill-opacity="1" fill-rule="nonzero"/></g><path fill="#935f3d" d="M 4.277344 18.980469 C 4.347656 19.160156 4.566406 19.253906 4.746094 19.179688 C 4.929688 19.105469 5.019531 18.890625 4.949219 18.707031 C 4.894531 18.597656 4.855469 18.488281 4.820312 18.382812 C 4.746094 18.199219 4.546875 18.089844 4.347656 18.164062 C 4.167969 18.234375 4.058594 18.433594 4.132812 18.636719 C 4.183594 18.742188 4.222656 18.851562 4.277344 18.980469 Z M 4.277344 18.980469 " fill-opacity="1" fill-rule="nonzero"/><g clip-path="url(#b32c0a0fc2)"><path fill="#935f3d" d="M 4.386719 12.066406 C 4.421875 11.867188 4.3125 11.683594 4.113281 11.632812 C 3.914062 11.59375 3.730469 11.703125 3.675781 11.902344 C 3.640625 12.03125 3.621094 12.15625 3.605469 12.265625 C 3.570312 12.464844 3.695312 12.664062 3.894531 12.703125 C 4.09375 12.738281 4.277344 12.609375 4.3125 12.410156 C 4.332031 12.300781 4.367188 12.175781 4.386719 12.066406 Z M 4.386719 12.066406 " fill-opacity="1" fill-rule="nonzero"/></g><path fill="#935f3d" d="M 10.664062 4.480469 C 10.828125 4.480469 10.988281 4.371094 11.136719 4.320312 C 11.316406 4.246094 11.425781 4.046875 11.351562 3.847656 C 11.28125 3.648438 11.082031 3.554688 10.882812 3.628906 C 10.753906 3.664062 10.644531 3.71875 10.535156 3.773438 C 10.355469 3.847656 10.265625 4.066406 10.335938 4.246094 C 10.390625 4.410156 10.519531 4.5 10.664062 4.480469 Z M 10.664062 4.480469 " fill-opacity="1" fill-rule="nonzero"/><g clip-path="url(#fc5de88211)"><path fill="#935f3d" d="M 3.75 14.898438 C 3.949219 14.898438 4.113281 14.734375 4.113281 14.535156 C 4.113281 14.535156 4.113281 14.296875 4.113281 14.171875 C 4.113281 13.972656 3.96875 13.808594 3.769531 13.789062 C 3.570312 13.789062 3.40625 13.933594 3.386719 14.136719 C 3.386719 14.261719 3.386719 14.515625 3.386719 14.515625 C 3.386719 14.734375 3.550781 14.898438 3.75 14.898438 Z M 3.75 14.898438 " fill-opacity="1" fill-rule="nonzero"/></g><path fill="#935f3d" d="M 4.894531 9.5625 C 4.710938 9.472656 4.492188 9.5625 4.421875 9.742188 C 4.367188 9.851562 4.3125 9.980469 4.277344 10.089844 C 4.203125 10.269531 4.292969 10.488281 4.476562 10.558594 C 4.65625 10.632812 4.875 10.542969 4.949219 10.359375 C 5.003906 10.253906 5.039062 10.144531 5.09375 10.035156 C 5.148438 9.851562 5.074219 9.636719 4.894531 9.5625 Z M 4.894531 9.5625 " fill-opacity="1" fill-rule="nonzero"/><path fill="#935f3d" d="M 21.824219 5.570312 C 21.929688 5.40625 21.894531 5.191406 21.730469 5.0625 C 21.621094 4.988281 21.53125 4.917969 21.421875 4.84375 C 21.261719 4.734375 21.023438 4.773438 20.914062 4.953125 C 20.804688 5.117188 20.84375 5.351562 21.023438 5.460938 C 21.113281 5.535156 21.222656 5.589844 21.316406 5.660156 C 21.476562 5.769531 21.714844 5.734375 21.824219 5.570312 Z M 21.824219 5.570312 " fill-opacity="1" fill-rule="nonzero"/><path fill="#935f3d" d="M 12.421875 3.554688 C 12.460938 3.738281 12.605469 3.847656 12.785156 3.847656 C 12.929688 3.847656 13.078125 3.792969 13.203125 3.773438 C 13.402344 3.738281 13.53125 3.554688 13.492188 3.355469 C 13.457031 3.15625 13.277344 3.03125 13.078125 3.066406 C 12.949219 3.085938 12.824219 3.101562 12.714844 3.121094 C 12.515625 3.175781 12.386719 3.355469 12.421875 3.554688 Z M 12.421875 3.554688 " fill-opacity="1" fill-rule="nonzero"/><path fill="#935f3d" d="M 23.4375 7.078125 C 23.582031 6.929688 23.582031 6.714844 23.457031 6.570312 C 23.363281 6.476562 23.273438 6.386719 23.183594 6.296875 C 23.039062 6.152344 22.820312 6.152344 22.675781 6.296875 C 22.53125 6.441406 22.53125 6.660156 22.675781 6.804688 C 22.765625 6.894531 22.839844 6.96875 22.929688 7.058594 C 23.054688 7.203125 23.292969 7.203125 23.4375 7.078125 Z M 23.4375 7.078125 " fill-opacity="1" fill-rule="nonzero"/><g clip-path="url(#72da13c52a)"><path fill="#935f3d" d="M 26.160156 13.011719 C 26.359375 12.972656 26.484375 12.792969 26.449219 12.59375 C 26.429688 12.464844 26.414062 12.339844 26.378906 12.210938 C 26.339844 12.011719 26.140625 11.886719 25.941406 11.921875 C 25.742188 11.957031 25.613281 12.15625 25.652344 12.355469 C 25.667969 12.464844 25.6875 12.59375 25.722656 12.703125 C 25.777344 12.902344 25.960938 13.027344 26.160156 13.011719 Z M 26.160156 13.011719 " fill-opacity="1" fill-rule="nonzero"/></g><path fill="#935f3d" d="M 25.652344 10.851562 C 25.832031 10.777344 25.921875 10.578125 25.867188 10.378906 C 25.832031 10.253906 25.777344 10.144531 25.722656 10.035156 C 25.652344 9.851562 25.433594 9.761719 25.253906 9.835938 C 25.070312 9.90625 24.980469 10.125 25.050781 10.304688 C 25.105469 10.414062 25.144531 10.523438 25.179688 10.632812 C 25.253906 10.832031 25.46875 10.921875 25.652344 10.851562 Z M 25.652344 10.851562 " fill-opacity="1" fill-rule="nonzero"/><g clip-path="url(#08dc07c647)"><path fill="#935f3d" d="M 14.964844 2.902344 C 14.765625 2.902344 14.601562 3.066406 14.601562 3.265625 C 14.601562 3.464844 14.765625 3.628906 14.964844 3.628906 C 14.964844 3.628906 15.328125 3.628906 15.328125 3.628906 C 15.527344 3.628906 15.691406 3.464844 15.691406 3.285156 C 15.691406 3.085938 15.542969 2.921875 15.34375 2.902344 C 15.234375 2.902344 14.964844 2.902344 14.964844 2.902344 Z M 14.964844 2.902344 " fill-opacity="1" fill-rule="nonzero"/></g><path fill="#935f3d" d="M 16.816406 3.410156 C 16.777344 3.609375 16.90625 3.792969 17.105469 3.828125 C 17.25 3.847656 17.394531 3.917969 17.539062 3.917969 C 17.703125 3.917969 17.847656 3.808594 17.886719 3.628906 C 17.921875 3.429688 17.8125 3.246094 17.613281 3.195312 C 17.484375 3.15625 17.359375 3.140625 17.25 3.121094 C 17.03125 3.085938 16.851562 3.210938 16.816406 3.410156 Z M 16.816406 3.410156 " fill-opacity="1" fill-rule="nonzero"/><path fill="#935f3d" d="M 19.609375 4.609375 C 19.753906 4.609375 19.882812 4.535156 19.933594 4.390625 C 20.027344 4.210938 19.933594 3.992188 19.753906 3.917969 C 19.644531 3.863281 19.519531 3.808594 19.410156 3.773438 C 19.226562 3.703125 19.011719 3.792969 18.9375 3.972656 C 18.863281 4.15625 18.957031 4.371094 19.136719 4.445312 C 19.28125 4.5 19.445312 4.609375 19.609375 4.609375 Z M 19.609375 4.609375 " fill-opacity="1" fill-rule="nonzero"/><path fill="#935f3d" d="M 21.132812 24.367188 C 21.242188 24.296875 21.351562 24.242188 21.460938 24.167969 C 21.621094 24.058594 21.675781 23.824219 21.550781 23.660156 C 21.441406 23.496094 21.207031 23.445312 21.042969 23.570312 C 20.953125 23.644531 20.84375 23.699219 20.753906 23.769531 C 20.589844 23.878906 20.535156 24.097656 20.644531 24.277344 C 20.734375 24.421875 20.96875 24.476562 21.132812 24.367188 Z M 21.132812 24.367188 " fill-opacity="1" fill-rule="nonzero"/><path fill="#935f3d" d="M 22.421875 22.972656 C 22.546875 23.117188 22.785156 23.117188 22.929688 22.988281 C 23.019531 22.898438 23.109375 22.808594 23.203125 22.71875 C 23.347656 22.574219 23.347656 22.355469 23.203125 22.210938 C 23.054688 22.066406 22.839844 22.066406 22.695312 22.210938 C 22.601562 22.300781 22.53125 22.371094 22.441406 22.464844 C 22.292969 22.589844 22.292969 22.828125 22.421875 22.972656 Z M 22.421875 22.972656 " fill-opacity="1" fill-rule="nonzero"/><path fill="#935f3d" d="M 24.652344 20.976562 C 24.761719 20.8125 24.726562 20.578125 24.5625 20.46875 C 24.398438 20.359375 24.164062 20.394531 24.054688 20.558594 C 23.980469 20.648438 23.925781 20.757812 23.855469 20.847656 C 23.746094 21.011719 23.78125 21.230469 23.945312 21.355469 C 24.109375 21.464844 24.34375 21.429688 24.453125 21.265625 C 24.507812 21.175781 24.582031 21.066406 24.652344 20.976562 Z M 24.652344 20.976562 " fill-opacity="1" fill-rule="nonzero"/><path fill="#935f3d" d="M 5.347656 20.976562 C 5.457031 21.140625 5.691406 21.195312 5.855469 21.066406 C 6.019531 20.957031 6.074219 20.722656 5.945312 20.558594 C 5.871094 20.46875 5.820312 20.359375 5.746094 20.269531 C 5.636719 20.105469 5.417969 20.050781 5.238281 20.160156 C 5.074219 20.269531 5.019531 20.484375 5.128906 20.667969 C 5.21875 20.777344 5.273438 20.867188 5.347656 20.976562 Z M 5.347656 20.976562 " fill-opacity="1" fill-rule="nonzero"/><path fill="#935f3d" d="M 19.171875 24.570312 C 19.066406 24.621094 18.957031 24.660156 18.847656 24.695312 C 18.664062 24.769531 18.554688 24.96875 18.628906 25.167969 C 18.703125 25.347656 18.917969 25.441406 19.101562 25.386719 C 19.226562 25.347656 19.335938 25.292969 19.445312 25.238281 C 19.628906 25.167969 19.71875 24.949219 19.644531 24.769531 C 19.574219 24.585938 19.355469 24.496094 19.171875 24.570312 Z M 19.171875 24.570312 " fill-opacity="1" fill-rule="nonzero"/><g clip-path="url(#ddad88ca49)"><path fill="#935f3d" d="M 26.304688 17.148438 C 26.339844 17.019531 26.359375 16.894531 26.378906 16.785156 C 26.414062 16.585938 26.285156 16.402344 26.085938 16.347656 C 25.886719 16.3125 25.707031 16.441406 25.652344 16.640625 C 25.632812 16.746094 25.597656 16.875 25.578125 16.984375 C 25.523438 17.183594 25.652344 17.382812 25.851562 17.417969 C 26.070312 17.472656 26.269531 17.347656 26.304688 17.148438 Z M 26.304688 17.148438 " fill-opacity="1" fill-rule="nonzero"/></g><g clip-path="url(#e1396dda04)"><path fill="#935f3d" d="M 26.25 14.117188 C 26.050781 14.117188 25.886719 14.28125 25.886719 14.480469 C 25.886719 14.480469 25.886719 14.753906 25.886719 14.878906 C 25.886719 15.078125 26.03125 15.242188 26.230469 15.261719 C 26.394531 15.261719 26.539062 15.152344 26.59375 15.007812 C 26.59375 14.96875 26.613281 14.953125 26.613281 14.914062 C 26.613281 14.789062 26.613281 14.496094 26.613281 14.496094 C 26.613281 14.28125 26.449219 14.117188 26.25 14.117188 Z M 26.25 14.117188 " fill-opacity="1" fill-rule="nonzero"/></g><path fill="#935f3d" d="M 25.105469 19.488281 C 25.289062 19.558594 25.507812 19.488281 25.578125 19.304688 C 25.632812 19.199219 25.6875 19.070312 25.722656 18.960938 C 25.796875 18.78125 25.707031 18.5625 25.523438 18.488281 C 25.34375 18.417969 25.125 18.507812 25.050781 18.691406 C 24.996094 18.796875 24.960938 18.90625 24.90625 19.015625 C 24.835938 19.199219 24.925781 19.414062 25.105469 19.488281 Z M 25.105469 19.488281 " fill-opacity="1" fill-rule="nonzero"/><path fill="#935f3d" d="M 17.140625 25.183594 C 17.03125 25.203125 16.90625 25.222656 16.796875 25.257812 C 16.597656 25.292969 16.46875 25.476562 16.507812 25.675781 C 16.542969 25.855469 16.6875 25.984375 16.867188 25.984375 C 17.015625 25.984375 17.160156 25.949219 17.304688 25.910156 C 17.503906 25.875 17.632812 25.675781 17.59375 25.476562 C 17.523438 25.277344 17.324219 25.148438 17.140625 25.183594 Z M 17.140625 25.183594 " fill-opacity="1" fill-rule="nonzero"/><path fill="#935f3d" d="M 24.851562 8.347656 C 24.78125 8.238281 24.707031 8.128906 24.652344 8.019531 C 24.542969 7.855469 24.308594 7.800781 24.144531 7.929688 C 23.980469 8.039062 23.925781 8.273438 24.054688 8.4375 C 24.128906 8.527344 24.179688 8.636719 24.253906 8.726562 C 24.363281 8.890625 24.582031 8.945312 24.761719 8.835938 C 24.90625 8.746094 24.945312 8.527344 24.851562 8.347656 Z M 24.851562 8.347656 " fill-opacity="1" fill-rule="nonzero"/><path fill="#935f3d" d="M 6.527344 22.464844 C 6.617188 22.554688 6.707031 22.644531 6.796875 22.734375 C 6.945312 22.882812 7.179688 22.882812 7.304688 22.734375 C 7.453125 22.589844 7.453125 22.371094 7.304688 22.226562 C 7.214844 22.136719 7.144531 22.066406 7.050781 21.972656 C 6.90625 21.828125 6.691406 21.828125 6.542969 21.957031 C 6.398438 22.082031 6.398438 22.320312 6.527344 22.464844 Z M 6.527344 22.464844 " fill-opacity="1" fill-rule="nonzero"/><g clip-path="url(#8f872ac3fc)"><path fill="#935f3d" d="M 14.65625 25.402344 C 14.457031 25.402344 14.292969 25.546875 14.273438 25.746094 C 14.273438 25.949219 14.417969 26.109375 14.617188 26.128906 C 14.746094 26.128906 15 26.128906 15 26.128906 C 15.199219 26.128906 15.363281 25.964844 15.363281 25.765625 C 15.363281 25.566406 15.199219 25.402344 15 25.402344 C 14.890625 25.402344 14.765625 25.402344 14.65625 25.402344 Z M 14.65625 25.402344 " fill-opacity="1" fill-rule="nonzero"/></g><path fill="#935f3d" d="M 8.667969 23.371094 C 8.503906 23.261719 8.285156 23.296875 8.160156 23.460938 C 8.050781 23.625 8.085938 23.84375 8.25 23.96875 C 8.359375 24.042969 8.449219 24.113281 8.558594 24.1875 C 8.722656 24.296875 8.957031 24.261719 9.066406 24.078125 C 9.175781 23.914062 9.140625 23.679688 8.957031 23.570312 C 8.867188 23.515625 8.757812 23.445312 8.667969 23.371094 Z M 8.667969 23.371094 " fill-opacity="1" fill-rule="nonzero"/><path fill="#935f3d" d="M 12.53125 25.132812 C 12.332031 25.09375 12.152344 25.203125 12.097656 25.402344 C 12.058594 25.601562 12.167969 25.800781 12.367188 25.839844 C 12.496094 25.875 12.621094 25.894531 12.730469 25.910156 C 12.929688 25.949219 13.113281 25.820312 13.148438 25.621094 C 13.183594 25.421875 13.058594 25.238281 12.859375 25.203125 C 12.769531 25.167969 12.660156 25.148438 12.53125 25.132812 Z M 12.53125 25.132812 " fill-opacity="1" fill-rule="nonzero"/><path fill="#935f3d" d="M 10.519531 24.441406 C 10.335938 24.351562 10.117188 24.441406 10.046875 24.621094 C 9.957031 24.804688 10.046875 25.023438 10.226562 25.09375 C 10.335938 25.148438 10.464844 25.203125 10.574219 25.238281 C 10.753906 25.3125 10.972656 25.222656 11.042969 25.039062 C 11.117188 24.859375 11.027344 24.640625 10.84375 24.570312 C 10.734375 24.53125 10.628906 24.496094 10.519531 24.441406 Z M 10.519531 24.441406 " fill-opacity="1" fill-rule="nonzero"/><path fill="#935f3d" d="M 8.085938 10.886719 L 11.117188 18.472656 C 11.191406 18.636719 11.296875 18.78125 11.425781 18.90625 C 11.425781 18.90625 13.332031 20.269531 13.332031 20.269531 C 13.441406 20.339844 13.585938 20.359375 13.695312 20.304688 C 13.820312 20.25 13.894531 20.121094 13.894531 19.996094 L 13.984375 17.871094 C 14.003906 17.691406 13.984375 17.527344 13.910156 17.363281 L 10.898438 9.761719 C 10.679688 9.199219 10.046875 8.925781 9.484375 9.164062 L 8.703125 9.472656 C 8.160156 9.691406 7.867188 10.34375 8.085938 10.886719 Z M 13.203125 19.269531 L 12.113281 18.488281 L 13.277344 17.925781 Z M 8.976562 10.144531 L 9.757812 9.835938 C 9.9375 9.761719 10.15625 9.851562 10.226562 10.035156 L 13.09375 17.21875 L 11.679688 17.910156 C 11.679688 17.910156 8.777344 10.632812 8.777344 10.613281 C 8.632812 10.269531 8.886719 10.179688 8.976562 10.144531 Z M 8.976562 10.144531 " fill-opacity="1" fill-rule="nonzero"/><path fill="#935f3d" d="M 18.992188 14.152344 C 17.59375 14.152344 16.453125 15.296875 16.453125 16.695312 C 16.453125 18.089844 17.59375 19.234375 18.992188 19.234375 C 20.390625 19.234375 21.53125 18.089844 21.53125 16.695312 C 21.53125 15.296875 20.390625 14.152344 18.992188 14.152344 Z M 18.992188 18.507812 C 17.992188 18.507812 17.175781 17.691406 17.175781 16.695312 C 17.175781 15.695312 17.992188 14.878906 18.992188 14.878906 C 19.988281 14.878906 20.804688 15.695312 20.804688 16.695312 C 20.804688 17.691406 19.988281 18.507812 18.992188 18.507812 Z M 18.992188 18.507812 " fill-opacity="1" fill-rule="nonzero"/><path fill="#935f3d" d="M 19.628906 16.203125 L 18.71875 16.746094 L 18.484375 16.402344 C 18.375 16.238281 18.140625 16.203125 17.976562 16.3125 C 17.8125 16.421875 17.777344 16.65625 17.886719 16.820312 C 17.886719 16.820312 18.300781 17.4375 18.300781 17.4375 C 18.410156 17.601562 18.628906 17.636719 18.792969 17.546875 L 20.007812 16.820312 C 20.171875 16.710938 20.242188 16.492188 20.136719 16.332031 C 20.007812 16.148438 19.789062 16.09375 19.628906 16.203125 Z M 19.628906 16.203125 " fill-opacity="1" fill-rule="nonzero"/></svg>