<svg xmlns="http://www.w3.org/2000/svg" xmlns:xlink="http://www.w3.org/1999/xlink" width="40" zoomAndPan="magnify" viewBox="0 0 30 30.000001" height="40" preserveAspectRatio="xMidYMid meet" version="1.0"><defs><clipPath id="7dc817a4fd"><path d="M 0.484375 0 L 29.515625 0 L 29.515625 29.03125 L 0.484375 29.03125 Z M 0.484375 0 " clip-rule="nonzero"/></clipPath><clipPath id="6214eb5730"><path d="M 3.429688 2.859375 L 26.65625 2.859375 L 26.65625 26.085938 L 3.429688 26.085938 Z M 3.429688 2.859375 " clip-rule="nonzero"/></clipPath></defs><g clip-path="url(#7dc817a4fd)"><path fill="#ffffff" d="M 0.484375 0 L 29.515625 0 L 29.515625 29.03125 L 0.484375 29.03125 Z M 0.484375 0 " fill-opacity="1" fill-rule="nonzero"/><path fill="#ffffff" d="M 0.484375 0 L 29.515625 0 L 29.515625 29.03125 L 0.484375 29.03125 Z M 0.484375 0 " fill-opacity="1" fill-rule="nonzero"/></g><g clip-path="url(#6214eb5730)"><path fill="#935f3d" d="M 26.15625 17.167969 C 25.9375 16.804688 25.042969 15.722656 22.6875 17.097656 L 18.546875 19.507812 C 18.34375 19.625 18.140625 19.710938 17.925781 19.761719 C 18.003906 19.632812 18.0625 19.488281 18.105469 19.332031 C 18.320312 18.539062 17.847656 17.707031 17.03125 17.445312 C 17.015625 17.4375 17 17.433594 16.984375 17.433594 C 15.792969 17.21875 14.617188 16.792969 13.675781 16.449219 C 13.347656 16.332031 13.035156 16.21875 12.773438 16.136719 C 11.710938 15.789062 10.75 16.214844 9.949219 16.679688 L 6.875 18.460938 L 6.585938 17.953125 C 6.457031 17.726562 6.246094 17.558594 5.992188 17.488281 C 5.738281 17.417969 5.472656 17.453125 5.246094 17.582031 L 4.082031 18.238281 C 3.609375 18.507812 3.441406 19.109375 3.710938 19.582031 L 7.128906 25.621094 C 7.257812 25.847656 7.46875 26.011719 7.722656 26.082031 C 7.808594 26.109375 7.898438 26.121094 7.988281 26.121094 C 8.15625 26.121094 8.320312 26.078125 8.46875 25.992188 L 9.632812 25.332031 C 9.859375 25.203125 10.023438 24.992188 10.09375 24.738281 C 10.164062 24.484375 10.132812 24.21875 10.003906 23.992188 L 9.65625 23.375 L 10.347656 22.976562 L 15.652344 24.394531 C 15.953125 24.476562 16.246094 24.515625 16.535156 24.515625 C 17.109375 24.515625 17.660156 24.355469 18.179688 24.039062 L 25.695312 19.410156 C 26.382812 18.984375 26.601562 17.917969 26.15625 17.167969 Z M 9.371094 24.539062 C 9.355469 24.601562 9.316406 24.652344 9.261719 24.679688 L 8.101562 25.339844 C 8.046875 25.371094 7.984375 25.375 7.921875 25.359375 C 7.859375 25.34375 7.8125 25.304688 7.78125 25.25 L 4.363281 19.210938 C 4.332031 19.15625 4.324219 19.09375 4.339844 19.035156 C 4.359375 18.972656 4.398438 18.921875 4.453125 18.890625 L 5.613281 18.234375 C 5.648438 18.214844 5.6875 18.203125 5.726562 18.203125 C 5.75 18.203125 5.769531 18.207031 5.792969 18.214844 C 5.851562 18.230469 5.902344 18.269531 5.933594 18.324219 L 9.351562 24.359375 C 9.382812 24.414062 9.390625 24.476562 9.371094 24.539062 Z M 25.300781 18.769531 L 17.785156 23.398438 C 17.191406 23.765625 16.539062 23.855469 15.847656 23.671875 L 10.394531 22.210938 C 10.296875 22.183594 10.195312 22.199219 10.109375 22.246094 L 9.285156 22.722656 L 7.242188 19.113281 L 10.324219 17.328125 C 11.015625 16.929688 11.761719 16.59375 12.542969 16.847656 C 12.792969 16.929688 13.082031 17.035156 13.417969 17.15625 C 14.382812 17.503906 15.578125 17.9375 16.824219 18.164062 C 17.25 18.316406 17.492188 18.730469 17.382812 19.136719 C 17.238281 19.675781 16.789062 19.742188 16.433594 19.699219 C 15.824219 19.574219 15.246094 19.410156 14.632812 19.234375 C 14.339844 19.152344 14.039062 19.066406 13.730469 18.984375 C 13.53125 18.929688 13.324219 19.046875 13.269531 19.25 C 13.214844 19.449219 13.335938 19.652344 13.535156 19.707031 C 13.839844 19.789062 14.136719 19.875 14.425781 19.957031 C 15.058594 20.136719 15.65625 20.308594 16.296875 20.4375 C 16.300781 20.441406 16.304688 20.441406 16.304688 20.441406 C 16.308594 20.441406 16.308594 20.441406 16.3125 20.441406 L 16.828125 20.527344 C 17.601562 20.648438 18.285156 20.527344 18.921875 20.15625 L 23.066406 17.746094 C 24.253906 17.050781 25.167969 16.980469 25.511719 17.554688 C 25.746094 17.945312 25.640625 18.5625 25.300781 18.769531 Z M 5.949219 19.394531 C 5.980469 19.621094 5.824219 19.832031 5.597656 19.863281 C 5.371094 19.898438 5.160156 19.742188 5.125 19.515625 C 5.09375 19.289062 5.25 19.078125 5.476562 19.042969 C 5.703125 19.011719 5.914062 19.167969 5.949219 19.394531 Z M 13.613281 11.746094 L 14.394531 12.046875 C 14.511719 12.464844 14.675781 12.867188 14.890625 13.242188 L 14.550781 14.011719 C 14.488281 14.152344 14.519531 14.320312 14.628906 14.429688 L 15.738281 15.539062 C 15.847656 15.648438 16.015625 15.679688 16.15625 15.617188 L 16.925781 15.277344 C 17.300781 15.492188 17.703125 15.65625 18.121094 15.773438 L 18.421875 16.554688 C 18.476562 16.699219 18.617188 16.796875 18.769531 16.796875 L 20.34375 16.796875 C 20.5 16.796875 20.636719 16.699219 20.695312 16.554688 L 20.996094 15.773438 C 21.414062 15.65625 21.8125 15.492188 22.191406 15.277344 L 22.957031 15.617188 C 23.097656 15.679688 23.265625 15.648438 23.375 15.539062 L 24.488281 14.429688 C 24.597656 14.320312 24.628906 14.152344 24.5625 14.011719 L 24.222656 13.242188 C 24.4375 12.867188 24.601562 12.464844 24.71875 12.046875 L 25.5 11.746094 C 25.648438 11.691406 25.742188 11.550781 25.742188 11.398438 L 25.742188 9.824219 C 25.742188 9.667969 25.648438 9.53125 25.5 9.472656 L 24.71875 9.171875 C 24.605469 8.753906 24.4375 8.355469 24.222656 7.976562 L 24.5625 7.210938 C 24.628906 7.070312 24.597656 6.902344 24.488281 6.792969 L 23.375 5.679688 C 23.265625 5.570312 23.097656 5.539062 22.957031 5.605469 L 22.191406 5.945312 C 21.8125 5.730469 21.410156 5.566406 20.996094 5.449219 L 20.695312 4.664062 C 20.636719 4.519531 20.5 4.425781 20.34375 4.425781 L 18.769531 4.425781 C 18.617188 4.425781 18.476562 4.519531 18.421875 4.664062 L 18.121094 5.449219 C 17.703125 5.566406 17.300781 5.730469 16.925781 5.945312 L 16.15625 5.605469 C 16.015625 5.539062 15.847656 5.570312 15.738281 5.679688 L 14.628906 6.792969 C 14.519531 6.902344 14.488281 7.070312 14.550781 7.210938 L 14.890625 7.976562 C 14.675781 8.355469 14.511719 8.757812 14.394531 9.171875 L 13.613281 9.472656 C 13.46875 9.53125 13.371094 9.667969 13.371094 9.824219 L 13.371094 11.398438 C 13.371094 11.550781 13.46875 11.691406 13.613281 11.746094 Z M 14.121094 10.082031 L 14.84375 9.804688 C 14.960938 9.757812 15.046875 9.660156 15.074219 9.539062 C 15.1875 9.066406 15.375 8.613281 15.632812 8.199219 C 15.695312 8.09375 15.707031 7.960938 15.65625 7.847656 L 15.339844 7.140625 L 16.089844 6.394531 L 16.796875 6.707031 C 16.910156 6.757812 17.039062 6.75 17.144531 6.683594 C 17.5625 6.429688 18.011719 6.242188 18.488281 6.128906 C 18.609375 6.101562 18.707031 6.015625 18.75 5.898438 L 19.027344 5.175781 L 20.085938 5.175781 L 20.363281 5.898438 C 20.410156 6.011719 20.507812 6.101562 20.628906 6.128906 C 21.101562 6.242188 21.554688 6.429688 21.96875 6.683594 C 22.074219 6.75 22.207031 6.757812 22.316406 6.707031 L 23.027344 6.394531 L 23.773438 7.140625 L 23.460938 7.847656 C 23.410156 7.960938 23.417969 8.09375 23.484375 8.199219 C 23.738281 8.613281 23.925781 9.066406 24.039062 9.539062 C 24.066406 9.660156 24.15625 9.757812 24.269531 9.804688 L 24.992188 10.082031 L 24.992188 11.140625 L 24.269531 11.417969 C 24.152344 11.460938 24.066406 11.558594 24.039062 11.679688 C 23.925781 12.15625 23.738281 12.605469 23.484375 13.023438 C 23.417969 13.128906 23.410156 13.257812 23.460938 13.371094 L 23.773438 14.078125 L 23.027344 14.828125 L 22.320312 14.511719 C 22.207031 14.460938 22.074219 14.472656 21.96875 14.535156 C 21.554688 14.792969 21.101562 14.980469 20.628906 15.09375 C 20.507812 15.121094 20.410156 15.207031 20.363281 15.324219 L 20.085938 16.046875 L 19.027344 16.046875 L 18.75 15.324219 C 18.707031 15.207031 18.609375 15.121094 18.488281 15.09375 C 18.011719 14.980469 17.5625 14.792969 17.144531 14.535156 C 17.039062 14.472656 16.910156 14.460938 16.796875 14.511719 L 16.089844 14.828125 L 15.339844 14.078125 L 15.65625 13.371094 C 15.707031 13.257812 15.695312 13.128906 15.632812 13.023438 C 15.375 12.605469 15.1875 12.15625 15.074219 11.679688 C 15.046875 11.558594 14.960938 11.460938 14.84375 11.417969 L 14.121094 11.140625 Z M 19.558594 13.96875 C 21.410156 13.96875 22.917969 12.464844 22.917969 10.609375 C 22.917969 8.757812 21.410156 7.25 19.558594 7.25 C 17.703125 7.25 16.199219 8.757812 16.199219 10.609375 C 16.199219 12.464844 17.703125 13.96875 19.558594 13.96875 Z M 19.558594 8 C 20.996094 8 22.167969 9.171875 22.167969 10.609375 C 22.167969 12.050781 20.996094 13.21875 19.558594 13.21875 C 18.117188 13.21875 16.949219 12.050781 16.949219 10.609375 C 16.949219 9.171875 18.117188 8 19.558594 8 Z M 17.796875 10.984375 C 17.589844 10.984375 17.421875 10.816406 17.421875 10.609375 C 17.421875 10.402344 17.589844 10.234375 17.796875 10.234375 L 19.183594 10.234375 L 19.183594 8.847656 C 19.183594 8.640625 19.351562 8.472656 19.558594 8.472656 C 19.765625 8.472656 19.933594 8.640625 19.933594 8.847656 L 19.933594 10.234375 L 21.320312 10.234375 C 21.527344 10.234375 21.695312 10.402344 21.695312 10.609375 C 21.695312 10.816406 21.527344 10.984375 21.320312 10.984375 L 19.933594 10.984375 L 19.933594 12.371094 C 19.933594 12.578125 19.765625 12.746094 19.558594 12.746094 C 19.351562 12.746094 19.183594 12.578125 19.183594 12.371094 L 19.183594 10.984375 Z M 9.1875 10.949219 C 11.417969 10.949219 13.230469 9.136719 13.230469 6.90625 C 13.230469 4.675781 11.417969 2.859375 9.1875 2.859375 C 6.957031 2.859375 5.140625 4.675781 5.140625 6.90625 C 5.140625 9.136719 6.957031 10.949219 9.1875 10.949219 Z M 9.1875 3.609375 C 11.003906 3.609375 12.480469 5.085938 12.480469 6.90625 C 12.480469 8.722656 11.003906 10.199219 9.1875 10.199219 C 7.371094 10.199219 5.890625 8.722656 5.890625 6.90625 C 5.890625 5.085938 7.371094 3.609375 9.1875 3.609375 Z M 9.1875 9.933594 C 10.855469 9.933594 12.214844 8.574219 12.214844 6.90625 C 12.214844 5.234375 10.855469 3.878906 9.1875 3.878906 C 7.515625 3.878906 6.160156 5.234375 6.160156 6.90625 C 6.160156 8.574219 7.515625 9.933594 9.1875 9.933594 Z M 9.1875 4.628906 C 10.441406 4.628906 11.464844 5.648438 11.464844 6.90625 C 11.464844 8.160156 10.441406 9.183594 9.1875 9.183594 C 7.929688 9.183594 6.910156 8.160156 6.910156 6.90625 C 6.910156 5.648438 7.929688 4.628906 9.1875 4.628906 Z M 9.628906 7.6875 C 9.652344 7.660156 9.667969 7.632812 9.660156 7.570312 C 9.652344 7.503906 9.632812 7.347656 9.128906 7.265625 C 8.222656 7.117188 8.0625 6.597656 8.050781 6.300781 C 8.027344 5.828125 8.328125 5.429688 8.8125 5.28125 L 8.8125 5.226562 C 8.8125 5.019531 8.980469 4.851562 9.1875 4.851562 C 9.394531 4.851562 9.5625 5.019531 9.5625 5.226562 L 9.5625 5.28125 C 9.871094 5.371094 10.15625 5.582031 10.3125 5.953125 C 10.394531 6.144531 10.304688 6.363281 10.113281 6.445312 C 9.921875 6.523438 9.703125 6.433594 9.621094 6.246094 C 9.507812 5.972656 9.21875 5.957031 9.066406 5.992188 C 9.003906 6.003906 8.789062 6.070312 8.796875 6.261719 C 8.800781 6.308594 8.808594 6.453125 9.25 6.523438 C 9.953125 6.640625 10.34375 6.960938 10.40625 7.480469 C 10.4375 7.742188 10.367188 7.984375 10.199219 8.179688 C 10.046875 8.351562 9.820312 8.480469 9.5625 8.539062 L 9.5625 8.582031 C 9.5625 8.789062 9.394531 8.957031 9.1875 8.957031 C 8.980469 8.957031 8.8125 8.789062 8.8125 8.582031 L 8.8125 8.535156 C 8.390625 8.421875 8.074219 8.117188 7.972656 7.710938 C 7.921875 7.507812 8.042969 7.304688 8.246094 7.253906 C 8.445312 7.203125 8.648438 7.328125 8.699219 7.527344 C 8.757812 7.761719 9.011719 7.839844 9.210938 7.832031 C 9.386719 7.828125 9.558594 7.769531 9.628906 7.6875 Z M 9.628906 7.6875 " fill-opacity="1" fill-rule="nonzero"/></g></svg>