<svg xmlns="http://www.w3.org/2000/svg" xmlns:xlink="http://www.w3.org/1999/xlink" width="40" zoomAndPan="magnify" viewBox="0 0 30 30.000001" height="40" preserveAspectRatio="xMidYMid meet" version="1.0"><defs><clipPath id="6e3e128e96"><path d="M 0.484375 0 L 29.515625 0 L 29.515625 29.03125 L 0.484375 29.03125 Z M 0.484375 0 " clip-rule="nonzero"/></clipPath><clipPath id="b155dbea07"><path d="M 7.089844 2.902344 L 23 2.902344 L 23 26.128906 L 7.089844 26.128906 Z M 7.089844 2.902344 " clip-rule="nonzero"/></clipPath></defs><g clip-path="url(#6e3e128e96)"><path fill="#ffffff" d="M 0.484375 0 L 29.515625 0 L 29.515625 29.03125 L 0.484375 29.03125 Z M 0.484375 0 " fill-opacity="1" fill-rule="nonzero"/><path fill="#ffffff" d="M 0.484375 0 L 29.515625 0 L 29.515625 29.03125 L 0.484375 29.03125 Z M 0.484375 0 " fill-opacity="1" fill-rule="nonzero"/></g><g clip-path="url(#b155dbea07)"><path fill="#935f3d" d="M 14.898438 2.992188 C 14.710938 3.003906 14.539062 3.128906 14.464844 3.300781 L 14.042969 4.308594 L 12.929688 4.535156 C 12.730469 4.574219 12.5625 4.746094 12.53125 4.945312 C 12.496094 5.136719 12.585938 5.339844 12.746094 5.445312 L 13.425781 5.90625 L 13.230469 6.9375 C 13.191406 7.136719 13.289062 7.355469 13.460938 7.460938 C 13.625 7.5625 13.847656 7.558594 14.007812 7.453125 L 14.9375 6.828125 L 15.871094 7.453125 C 16.03125 7.558594 16.253906 7.5625 16.417969 7.460938 C 16.589844 7.355469 16.6875 7.136719 16.648438 6.9375 L 16.453125 5.90625 L 17.132812 5.445312 C 17.292969 5.339844 17.382812 5.132812 17.347656 4.945312 C 17.316406 4.746094 17.148438 4.574219 16.949219 4.53125 L 15.816406 4.304688 L 15.398438 3.300781 C 15.320312 3.125 15.140625 2.996094 14.949219 2.992188 C 14.933594 2.992188 14.917969 2.992188 14.902344 2.992188 C 14.902344 2.992188 14.902344 2.992188 14.898438 2.992188 Z M 14.929688 4.097656 L 15.175781 4.679688 C 15.246094 4.847656 15.394531 4.96875 15.574219 5.003906 L 16.261719 5.144531 L 15.9375 5.367188 C 15.753906 5.488281 15.664062 5.710938 15.707031 5.925781 L 15.820312 6.53125 L 15.246094 6.148438 C 15.058594 6.023438 14.820312 6.023438 14.636719 6.148438 L 14.058594 6.53125 L 14.175781 5.925781 C 14.214844 5.710938 14.125 5.488281 13.941406 5.367188 L 13.617188 5.148438 L 14.289062 5.011719 C 14.464844 4.972656 14.613281 4.851562 14.683594 4.683594 Z M 19.53125 5.625 C 19.421875 5.625 19.316406 5.660156 19.226562 5.722656 C 19.074219 5.835938 18.992188 6.039062 19.027344 6.230469 L 19.1875 7.035156 L 18.320312 7.625 C 18.152344 7.742188 18.066406 7.964844 18.113281 8.164062 C 18.160156 8.347656 18.320312 8.503906 18.507812 8.539062 L 19.605469 8.757812 L 19.832031 9.855469 C 19.867188 10.042969 20.023438 10.203125 20.210938 10.25 C 20.40625 10.296875 20.628906 10.207031 20.746094 10.039062 L 21.332031 9.171875 L 22.140625 9.324219 C 22.328125 9.363281 22.535156 9.277344 22.648438 9.121094 C 22.765625 8.953125 22.765625 8.714844 22.65625 8.546875 L 22.011719 7.585938 L 22.421875 6.578125 C 22.492188 6.398438 22.453125 6.183594 22.320312 6.042969 C 22.183594 5.894531 21.949219 5.84375 21.761719 5.921875 L 20.753906 6.335938 L 19.804688 5.710938 C 19.722656 5.65625 19.625 5.628906 19.53125 5.625 Z M 10.3125 5.648438 C 10.214844 5.648438 10.121094 5.679688 10.039062 5.734375 L 9.09375 6.363281 L 8.082031 5.953125 L 8.082031 5.957031 C 7.894531 5.878906 7.660156 5.929688 7.523438 6.078125 C 7.390625 6.21875 7.351562 6.4375 7.425781 6.613281 L 7.839844 7.621094 L 7.199219 8.585938 C 7.089844 8.753906 7.09375 8.992188 7.210938 9.15625 C 7.324219 9.3125 7.53125 9.398438 7.71875 9.359375 L 8.527344 9.203125 L 9.117188 10.066406 C 9.234375 10.234375 9.457031 10.320312 9.652344 10.273438 C 9.839844 10.230469 9.996094 10.066406 10.03125 9.878906 L 10.25 8.78125 L 11.347656 8.558594 C 11.535156 8.519531 11.695312 8.363281 11.742188 8.179688 L 11.742188 8.175781 C 11.785156 7.980469 11.699219 7.757812 11.53125 7.644531 L 10.660156 7.054688 L 10.816406 6.25 C 10.851562 6.058594 10.769531 5.855469 10.613281 5.742188 C 10.523438 5.679688 10.417969 5.648438 10.3125 5.648438 Z M 19.859375 6.628906 L 20.429688 7.007812 C 20.582031 7.105469 20.773438 7.125 20.941406 7.054688 L 21.527344 6.816406 L 21.292969 7.398438 C 21.222656 7.566406 21.242188 7.757812 21.34375 7.910156 L 21.734375 8.496094 L 21.347656 8.421875 C 21.132812 8.378906 20.910156 8.472656 20.789062 8.652344 L 20.445312 9.167969 L 20.304688 8.488281 C 20.261719 8.269531 20.089844 8.101562 19.875 8.058594 L 19.195312 7.925781 L 19.707031 7.574219 C 19.886719 7.453125 19.976562 7.230469 19.933594 7.015625 Z M 9.988281 6.652344 L 9.914062 7.039062 C 9.875 7.257812 9.964844 7.476562 10.148438 7.597656 L 10.660156 7.945312 L 9.980469 8.082031 C 9.761719 8.125 9.59375 8.296875 9.550781 8.515625 L 9.414062 9.195312 L 9.066406 8.683594 C 8.941406 8.5 8.722656 8.410156 8.507812 8.453125 L 8.121094 8.527344 L 8.507812 7.941406 C 8.609375 7.789062 8.628906 7.597656 8.558594 7.429688 L 8.316406 6.84375 L 8.90625 7.085938 C 9.078125 7.152344 9.269531 7.132812 9.417969 7.03125 Z M 12.972656 8.316406 C 12.898438 8.320312 12.820312 8.335938 12.746094 8.363281 C 12.742188 8.367188 12.742188 8.367188 12.738281 8.367188 C 12.738281 8.367188 12.738281 8.367188 12.738281 8.371094 C 12.683594 8.386719 12.625 8.40625 12.566406 8.429688 C 12.53125 8.445312 12.484375 8.460938 12.449219 8.476562 C 12.449219 8.476562 12.445312 8.476562 12.445312 8.480469 C 12.410156 8.492188 12.375 8.507812 12.339844 8.523438 C 12.339844 8.523438 12.335938 8.523438 12.335938 8.527344 L 12.332031 8.527344 C 12.332031 8.527344 12.328125 8.527344 12.328125 8.527344 C 12.324219 8.527344 12.324219 8.527344 12.324219 8.527344 L 12.324219 8.53125 C 12.265625 8.554688 12.210938 8.582031 12.160156 8.605469 C 12.160156 8.605469 12.160156 8.605469 12.15625 8.609375 C 12.15625 8.609375 12.152344 8.609375 12.152344 8.609375 C 11.863281 8.738281 11.671875 9.023438 11.664062 9.335938 L 11.664062 9.339844 C 11.664062 9.34375 11.664062 9.34375 11.660156 9.34375 L 11.664062 9.347656 C 11.664062 9.351562 11.664062 9.355469 11.664062 9.363281 C 11.664062 9.367188 11.664062 9.367188 11.664062 9.371094 C 11.648438 9.71875 11.707031 10.074219 11.777344 10.445312 C 11.792969 10.53125 11.765625 10.625 11.703125 10.6875 C 11.695312 10.695312 11.679688 10.707031 11.664062 10.726562 C 11.597656 10.789062 11.507812 10.816406 11.417969 10.800781 C 11.046875 10.726562 10.691406 10.664062 10.34375 10.675781 C 10.34375 10.675781 10.34375 10.675781 10.339844 10.675781 C 10.332031 10.675781 10.328125 10.675781 10.320312 10.675781 L 10.320312 10.679688 C 10.320312 10.679688 10.316406 10.679688 10.316406 10.679688 C 10.003906 10.6875 9.71875 10.875 9.589844 11.160156 C 9.589844 11.164062 9.585938 11.167969 9.585938 11.171875 C 9.558594 11.226562 9.53125 11.277344 9.507812 11.335938 C 9.503906 11.339844 9.503906 11.339844 9.503906 11.34375 C 9.503906 11.34375 9.503906 11.34375 9.503906 11.347656 C 9.503906 11.347656 9.503906 11.347656 9.5 11.347656 C 9.488281 11.382812 9.472656 11.414062 9.460938 11.445312 L 9.460938 11.449219 L 9.457031 11.453125 C 9.457031 11.453125 9.457031 11.453125 9.457031 11.457031 C 9.457031 11.457031 9.457031 11.457031 9.453125 11.460938 L 9.453125 11.464844 C 9.4375 11.496094 9.425781 11.527344 9.414062 11.5625 C 9.414062 11.5625 9.410156 11.5625 9.410156 11.566406 C 9.410156 11.566406 9.410156 11.566406 9.410156 11.570312 C 9.410156 11.570312 9.410156 11.570312 9.40625 11.574219 C 9.382812 11.636719 9.363281 11.691406 9.34375 11.75 C 9.339844 11.75 9.339844 11.753906 9.339844 11.757812 C 9.226562 12.050781 9.292969 12.386719 9.507812 12.613281 C 9.515625 12.621094 9.523438 12.628906 9.527344 12.636719 C 9.527344 12.636719 9.527344 12.636719 9.53125 12.636719 C 9.53125 12.640625 9.53125 12.640625 9.53125 12.640625 L 9.53125 12.644531 C 9.53125 12.644531 9.535156 12.644531 9.535156 12.644531 C 9.535156 12.648438 9.535156 12.648438 9.535156 12.648438 C 9.769531 12.898438 10.0625 13.105469 10.371094 13.3125 C 10.449219 13.367188 10.492188 13.449219 10.492188 13.542969 C 10.492188 13.570312 10.488281 13.589844 10.488281 13.597656 C 10.488281 13.6875 10.445312 13.773438 10.371094 13.820312 C 10.058594 14.03125 9.765625 14.242188 9.527344 14.496094 C 9.527344 14.496094 9.523438 14.5 9.523438 14.5 C 9.515625 14.507812 9.511719 14.511719 9.507812 14.511719 L 9.507812 14.515625 L 9.503906 14.515625 C 9.285156 14.742188 9.21875 15.078125 9.332031 15.375 C 9.332031 15.378906 9.332031 15.378906 9.332031 15.382812 C 9.351562 15.4375 9.371094 15.496094 9.394531 15.554688 C 9.394531 15.554688 9.398438 15.558594 9.398438 15.5625 C 9.402344 15.566406 9.402344 15.570312 9.402344 15.574219 C 9.414062 15.601562 9.425781 15.632812 9.4375 15.664062 C 9.441406 15.664062 9.441406 15.667969 9.445312 15.671875 L 9.445312 15.679688 C 9.449219 15.683594 9.449219 15.683594 9.449219 15.6875 C 9.460938 15.71875 9.472656 15.75 9.488281 15.777344 C 9.488281 15.78125 9.488281 15.785156 9.492188 15.785156 L 9.492188 15.789062 C 9.492188 15.792969 9.492188 15.792969 9.492188 15.796875 L 9.492188 15.800781 C 9.519531 15.855469 9.546875 15.910156 9.570312 15.960938 C 9.570312 15.964844 9.570312 15.964844 9.574219 15.964844 C 9.574219 15.964844 9.574219 15.96875 9.574219 15.972656 C 9.703125 16.261719 9.988281 16.449219 10.300781 16.460938 C 10.300781 16.460938 10.300781 16.457031 10.300781 16.457031 L 10.308594 16.460938 C 10.308594 16.460938 10.308594 16.460938 10.3125 16.460938 C 10.316406 16.460938 10.320312 16.460938 10.328125 16.460938 C 10.332031 16.460938 10.332031 16.460938 10.335938 16.460938 C 10.679688 16.472656 11.039062 16.414062 11.410156 16.34375 C 11.496094 16.328125 11.585938 16.355469 11.648438 16.417969 C 11.65625 16.425781 11.671875 16.441406 11.691406 16.460938 C 11.753906 16.523438 11.785156 16.613281 11.765625 16.703125 C 11.695312 17.074219 11.628906 17.425781 11.640625 17.769531 L 11.640625 17.773438 C 11.640625 17.773438 11.640625 17.777344 11.640625 17.78125 C 11.644531 17.792969 11.644531 17.800781 11.644531 17.808594 C 11.644531 17.808594 11.644531 17.808594 11.648438 17.8125 C 11.65625 18.125 11.839844 18.410156 12.128906 18.539062 C 12.132812 18.539062 12.132812 18.542969 12.136719 18.542969 C 12.191406 18.566406 12.246094 18.59375 12.304688 18.617188 L 12.304688 18.621094 C 12.304688 18.621094 12.308594 18.621094 12.308594 18.621094 L 12.308594 18.625 L 12.316406 18.625 C 12.347656 18.640625 12.378906 18.652344 12.414062 18.667969 L 12.417969 18.667969 C 12.421875 18.667969 12.425781 18.671875 12.429688 18.671875 C 12.429688 18.671875 12.433594 18.675781 12.433594 18.675781 C 12.464844 18.6875 12.496094 18.703125 12.53125 18.714844 C 12.53125 18.714844 12.535156 18.714844 12.535156 18.714844 L 12.539062 18.71875 L 12.542969 18.71875 C 12.601562 18.742188 12.65625 18.761719 12.710938 18.78125 C 12.714844 18.78125 12.71875 18.78125 12.71875 18.78125 C 12.722656 18.78125 12.722656 18.78125 12.726562 18.785156 C 13.019531 18.898438 13.351562 18.832031 13.578125 18.617188 C 13.578125 18.617188 13.582031 18.617188 13.582031 18.617188 C 13.582031 18.617188 13.582031 18.613281 13.585938 18.613281 C 13.585938 18.613281 13.59375 18.605469 13.601562 18.601562 C 13.859375 18.363281 14.066406 18.070312 14.277344 17.753906 C 14.328125 17.679688 14.414062 17.632812 14.507812 17.636719 C 14.53125 17.636719 14.550781 17.636719 14.558594 17.636719 C 14.648438 17.636719 14.734375 17.679688 14.785156 17.753906 C 14.996094 18.066406 15.207031 18.363281 15.457031 18.597656 C 15.460938 18.601562 15.460938 18.601562 15.460938 18.601562 C 15.46875 18.609375 15.472656 18.613281 15.476562 18.617188 C 15.476562 18.617188 15.480469 18.617188 15.480469 18.617188 C 15.480469 18.621094 15.484375 18.621094 15.484375 18.621094 C 15.710938 18.839844 16.042969 18.90625 16.339844 18.792969 C 16.339844 18.792969 16.34375 18.792969 16.34375 18.792969 C 16.347656 18.792969 16.347656 18.792969 16.347656 18.792969 C 16.402344 18.773438 16.460938 18.753906 16.519531 18.730469 L 16.523438 18.730469 C 16.523438 18.726562 16.523438 18.726562 16.527344 18.726562 C 16.527344 18.726562 16.527344 18.726562 16.53125 18.726562 C 16.53125 18.726562 16.53125 18.726562 16.535156 18.726562 C 16.570312 18.710938 16.605469 18.695312 16.644531 18.679688 C 16.679688 18.664062 16.71875 18.648438 16.753906 18.632812 C 16.753906 18.632812 16.757812 18.632812 16.757812 18.632812 C 16.757812 18.632812 16.761719 18.632812 16.761719 18.628906 C 16.820312 18.605469 16.871094 18.578125 16.925781 18.554688 C 16.929688 18.550781 16.933594 18.550781 16.933594 18.550781 C 17.222656 18.421875 17.414062 18.136719 17.421875 17.824219 C 17.421875 17.824219 17.425781 17.824219 17.425781 17.820312 C 17.421875 17.820312 17.421875 17.820312 17.421875 17.816406 C 17.421875 17.816406 17.421875 17.808594 17.425781 17.796875 C 17.425781 17.796875 17.425781 17.792969 17.425781 17.792969 C 17.4375 17.445312 17.382812 17.089844 17.308594 16.71875 C 17.292969 16.628906 17.320312 16.535156 17.382812 16.472656 C 17.394531 16.460938 17.410156 16.449219 17.425781 16.433594 C 17.488281 16.367188 17.582031 16.339844 17.671875 16.355469 C 18.039062 16.429688 18.390625 16.492188 18.734375 16.480469 C 18.734375 16.480469 18.734375 16.480469 18.738281 16.480469 C 18.75 16.480469 18.761719 16.476562 18.773438 16.476562 C 19.085938 16.46875 19.371094 16.285156 19.5 15.996094 L 19.5 15.992188 C 19.503906 15.992188 19.503906 15.988281 19.503906 15.988281 C 19.53125 15.933594 19.558594 15.875 19.582031 15.820312 L 19.585938 15.816406 L 19.585938 15.808594 C 19.597656 15.78125 19.613281 15.746094 19.632812 15.703125 L 19.628906 15.703125 L 19.671875 15.609375 C 19.671875 15.605469 19.671875 15.601562 19.675781 15.589844 C 19.679688 15.589844 19.679688 15.585938 19.679688 15.585938 C 19.679688 15.582031 19.683594 15.582031 19.683594 15.582031 L 19.683594 15.578125 C 19.707031 15.519531 19.726562 15.464844 19.746094 15.410156 L 19.746094 15.40625 C 19.746094 15.40625 19.746094 15.402344 19.746094 15.402344 C 19.746094 15.402344 19.746094 15.398438 19.75 15.398438 C 19.863281 15.105469 19.792969 14.769531 19.578125 14.542969 C 19.574219 14.535156 19.570312 14.527344 19.5625 14.519531 C 19.328125 14.261719 19.03125 14.054688 18.71875 13.839844 C 18.640625 13.789062 18.597656 13.707031 18.597656 13.613281 C 18.597656 13.597656 18.597656 13.582031 18.597656 13.5625 C 18.597656 13.472656 18.644531 13.390625 18.71875 13.339844 C 19.03125 13.128906 19.324219 12.917969 19.5625 12.664062 C 19.5625 12.664062 19.5625 12.664062 19.566406 12.660156 C 19.570312 12.65625 19.574219 12.648438 19.578125 12.648438 C 19.578125 12.648438 19.578125 12.648438 19.578125 12.644531 C 19.582031 12.644531 19.582031 12.644531 19.582031 12.644531 C 19.582031 12.640625 19.585938 12.640625 19.585938 12.640625 L 19.585938 12.636719 C 19.800781 12.410156 19.871094 12.078125 19.757812 11.78125 C 19.757812 11.78125 19.757812 11.777344 19.753906 11.777344 C 19.734375 11.71875 19.714844 11.660156 19.691406 11.601562 C 19.691406 11.597656 19.691406 11.597656 19.691406 11.597656 C 19.675781 11.558594 19.660156 11.519531 19.644531 11.484375 C 19.628906 11.445312 19.609375 11.40625 19.59375 11.367188 C 19.570312 11.304688 19.539062 11.25 19.515625 11.195312 C 19.515625 11.191406 19.515625 11.191406 19.511719 11.191406 L 19.511719 11.1875 C 19.40625 10.949219 19.191406 10.785156 18.945312 10.726562 C 19.011719 10.671875 19.078125 10.609375 19.144531 10.554688 C 19.394531 10.359375 19.464844 10.019531 19.371094 9.761719 C 19.277344 9.503906 19.011719 9.289062 18.691406 9.296875 C 18.636719 9.296875 18.585938 9.304688 18.53125 9.320312 L 18.527344 9.320312 C 18.152344 9.417969 17.789062 9.558594 17.433594 9.730469 C 17.445312 9.613281 17.453125 9.5 17.449219 9.382812 C 17.449219 9.371094 17.445312 9.363281 17.445312 9.355469 C 17.4375 9.039062 17.25 8.757812 16.964844 8.628906 C 16.960938 8.625 16.960938 8.625 16.960938 8.625 C 16.957031 8.625 16.957031 8.621094 16.957031 8.621094 L 16.953125 8.621094 C 16.898438 8.59375 16.847656 8.570312 16.789062 8.542969 C 16.785156 8.542969 16.785156 8.539062 16.785156 8.539062 L 16.78125 8.539062 C 16.777344 8.539062 16.777344 8.539062 16.777344 8.539062 C 16.773438 8.535156 16.773438 8.535156 16.773438 8.535156 C 16.765625 8.535156 16.761719 8.53125 16.761719 8.53125 L 16.757812 8.53125 L 16.660156 8.492188 C 16.660156 8.492188 16.660156 8.492188 16.660156 8.488281 C 16.621094 8.472656 16.585938 8.457031 16.558594 8.445312 L 16.554688 8.445312 C 16.554688 8.445312 16.554688 8.445312 16.550781 8.445312 C 16.550781 8.445312 16.546875 8.445312 16.546875 8.445312 L 16.546875 8.441406 C 16.488281 8.417969 16.429688 8.398438 16.375 8.378906 C 16.371094 8.378906 16.371094 8.375 16.367188 8.375 C 16.070312 8.261719 15.738281 8.328125 15.507812 8.542969 C 15.5 8.554688 15.492188 8.5625 15.480469 8.566406 C 15.226562 8.800781 15.019531 9.097656 14.808594 9.40625 C 14.757812 9.480469 14.675781 9.527344 14.582031 9.523438 C 14.5625 9.523438 14.542969 9.523438 14.523438 9.523438 C 14.433594 9.523438 14.351562 9.480469 14.300781 9.402344 C 14.089844 9.089844 13.878906 8.796875 13.625 8.558594 C 13.625 8.558594 13.625 8.558594 13.621094 8.554688 C 13.613281 8.546875 13.613281 8.542969 13.609375 8.542969 C 13.609375 8.542969 13.605469 8.539062 13.601562 8.539062 C 13.433594 8.375 13.203125 8.296875 12.972656 8.316406 Z M 13.050781 9.070312 C 13.0625 9.074219 13.070312 9.078125 13.082031 9.085938 C 13.089844 9.097656 13.101562 9.105469 13.113281 9.117188 C 13.289062 9.28125 13.464844 9.519531 13.667969 9.828125 C 13.863281 10.113281 14.183594 10.285156 14.527344 10.28125 C 14.539062 10.28125 14.550781 10.285156 14.574219 10.285156 C 14.921875 10.289062 15.242188 10.117188 15.4375 9.832031 C 15.644531 9.527344 15.820312 9.289062 15.996094 9.125 C 16 9.121094 16.003906 9.117188 16.003906 9.117188 C 16.011719 9.109375 16.019531 9.105469 16.03125 9.097656 C 16.046875 9.082031 16.070312 9.074219 16.09375 9.082031 C 16.101562 9.085938 16.113281 9.089844 16.121094 9.09375 C 16.167969 9.109375 16.210938 9.125 16.253906 9.140625 C 16.253906 9.140625 16.253906 9.140625 16.257812 9.140625 C 16.257812 9.140625 16.261719 9.144531 16.261719 9.144531 L 16.265625 9.144531 L 16.273438 9.148438 L 16.277344 9.148438 C 16.296875 9.160156 16.328125 9.171875 16.367188 9.1875 C 16.375 9.191406 16.382812 9.195312 16.390625 9.199219 C 16.398438 9.203125 16.402344 9.203125 16.40625 9.207031 C 16.414062 9.207031 16.414062 9.207031 16.417969 9.210938 C 16.4375 9.21875 16.457031 9.226562 16.472656 9.234375 C 16.476562 9.234375 16.480469 9.234375 16.480469 9.238281 L 16.492188 9.242188 C 16.523438 9.253906 16.554688 9.273438 16.621094 9.304688 C 16.632812 9.308594 16.640625 9.3125 16.652344 9.320312 C 16.675781 9.328125 16.6875 9.351562 16.6875 9.371094 C 16.6875 9.378906 16.6875 9.386719 16.6875 9.394531 C 16.6875 9.394531 16.6875 9.394531 16.6875 9.398438 C 16.6875 9.398438 16.691406 9.402344 16.691406 9.40625 C 16.699219 9.628906 16.65625 9.90625 16.597656 10.226562 C 15.972656 10.664062 15.433594 11.199219 14.976562 11.785156 C 14.808594 12 14.675781 12.234375 14.527344 12.460938 L 14.15625 11.976562 C 14.15625 11.972656 14.15625 11.972656 14.152344 11.972656 C 13.945312 11.703125 13.621094 11.546875 13.28125 11.546875 C 13.273438 11.546875 13.269531 11.546875 13.265625 11.546875 C 13.265625 11.546875 13.261719 11.546875 13.261719 11.546875 C 12.664062 11.554688 12.175781 12.050781 12.175781 12.648438 C 12.175781 12.839844 12.222656 13.035156 12.324219 13.207031 C 12.324219 13.210938 12.328125 13.214844 12.328125 13.21875 L 13.636719 15.316406 C 13.820312 15.644531 14.140625 15.867188 14.5 15.9375 C 14.507812 15.941406 14.523438 15.941406 14.542969 15.945312 C 14.546875 15.949219 14.546875 15.949219 14.550781 15.949219 C 14.546875 15.949219 14.558594 15.949219 14.578125 15.953125 C 14.628906 15.960938 14.691406 15.964844 14.757812 15.964844 C 15.304688 15.964844 15.789062 15.605469 15.945312 15.082031 L 15.941406 15.09375 C 16.199219 14.320312 16.558594 13.582031 17.003906 12.898438 C 17.320312 12.402344 17.695312 11.941406 18.101562 11.515625 C 18.332031 11.476562 18.542969 11.449219 18.714844 11.457031 C 18.71875 11.457031 18.722656 11.457031 18.726562 11.457031 C 18.738281 11.457031 18.75 11.457031 18.765625 11.460938 C 18.789062 11.460938 18.808594 11.476562 18.816406 11.496094 C 18.824219 11.507812 18.828125 11.515625 18.832031 11.523438 C 18.859375 11.578125 18.875 11.617188 18.894531 11.65625 C 18.894531 11.65625 18.894531 11.660156 18.898438 11.664062 C 18.898438 11.664062 18.898438 11.667969 18.898438 11.667969 C 18.910156 11.699219 18.925781 11.730469 18.9375 11.765625 C 18.9375 11.765625 18.941406 11.769531 18.941406 11.773438 C 18.941406 11.773438 18.941406 11.777344 18.945312 11.777344 C 18.957031 11.808594 18.96875 11.84375 18.984375 11.875 C 18.984375 11.875 18.984375 11.878906 18.984375 11.878906 C 18.988281 11.882812 18.988281 11.886719 18.988281 11.886719 C 19.003906 11.925781 19.019531 11.96875 19.039062 12.023438 C 19.042969 12.035156 19.046875 12.042969 19.046875 12.054688 C 19.058594 12.078125 19.054688 12.101562 19.035156 12.117188 C 19.027344 12.125 19.019531 12.136719 19.011719 12.144531 C 19.007812 12.148438 19.007812 12.148438 19.003906 12.148438 C 19.003906 12.152344 19.003906 12.152344 19.003906 12.152344 C 18.839844 12.328125 18.601562 12.503906 18.296875 12.710938 C 18.011719 12.902344 17.839844 13.226562 17.839844 13.570312 C 17.839844 13.585938 17.839844 13.597656 17.839844 13.609375 C 17.835938 13.953125 18.003906 14.273438 18.289062 14.46875 C 18.597656 14.675781 18.839844 14.855469 19.003906 15.035156 C 19.007812 15.039062 19.007812 15.039062 19.011719 15.042969 C 19.011719 15.042969 19.011719 15.046875 19.015625 15.046875 C 19.019531 15.054688 19.023438 15.058594 19.027344 15.0625 C 19.042969 15.078125 19.046875 15.101562 19.039062 15.125 C 19.035156 15.136719 19.03125 15.144531 19.027344 15.15625 C 19.003906 15.226562 18.996094 15.261719 18.980469 15.292969 L 18.976562 15.304688 C 18.976562 15.304688 18.972656 15.308594 18.972656 15.3125 C 18.964844 15.328125 18.957031 15.347656 18.949219 15.367188 C 18.945312 15.375 18.945312 15.378906 18.945312 15.378906 C 18.941406 15.382812 18.9375 15.390625 18.9375 15.394531 C 18.9375 15.394531 18.9375 15.394531 18.9375 15.398438 C 18.933594 15.402344 18.933594 15.410156 18.929688 15.417969 C 18.910156 15.457031 18.898438 15.488281 18.890625 15.511719 C 18.890625 15.511719 18.890625 15.515625 18.886719 15.515625 C 18.886719 15.515625 18.886719 15.519531 18.886719 15.519531 C 18.886719 15.519531 18.886719 15.523438 18.886719 15.523438 C 18.882812 15.527344 18.882812 15.53125 18.878906 15.535156 C 18.863281 15.574219 18.84375 15.613281 18.820312 15.660156 C 18.816406 15.667969 18.8125 15.679688 18.808594 15.6875 C 18.800781 15.707031 18.777344 15.722656 18.753906 15.722656 C 18.742188 15.722656 18.730469 15.722656 18.71875 15.726562 C 18.71875 15.726562 18.714844 15.726562 18.710938 15.726562 C 18.472656 15.734375 18.175781 15.6875 17.8125 15.613281 C 17.476562 15.546875 17.125 15.65625 16.882812 15.898438 C 16.867188 15.917969 16.859375 15.929688 16.851562 15.933594 C 16.605469 16.175781 16.5 16.523438 16.5625 16.863281 C 16.632812 17.222656 16.675781 17.515625 16.664062 17.753906 L 16.664062 17.757812 C 16.664062 17.769531 16.664062 17.785156 16.664062 17.800781 C 16.660156 17.824219 16.648438 17.847656 16.628906 17.855469 C 16.617188 17.863281 16.605469 17.867188 16.597656 17.871094 C 16.542969 17.894531 16.507812 17.914062 16.46875 17.929688 C 16.464844 17.933594 16.457031 17.933594 16.457031 17.933594 L 16.457031 17.9375 C 16.425781 17.949219 16.394531 17.960938 16.363281 17.972656 C 16.355469 17.976562 16.351562 17.980469 16.347656 17.980469 C 16.3125 17.992188 16.28125 18.007812 16.25 18.019531 L 16.238281 18.023438 C 16.199219 18.039062 16.15625 18.054688 16.097656 18.074219 C 16.089844 18.078125 16.078125 18.082031 16.070312 18.085938 C 16.046875 18.09375 16.023438 18.089844 16.003906 18.074219 C 15.996094 18.0625 15.988281 18.058594 15.976562 18.050781 L 15.976562 18.046875 C 15.976562 18.046875 15.972656 18.042969 15.972656 18.042969 C 15.796875 17.878906 15.617188 17.636719 15.414062 17.332031 C 15.222656 17.046875 14.902344 16.878906 14.558594 16.878906 L 14.558594 16.855469 C 14.554688 16.863281 14.550781 16.875 14.550781 16.875 C 14.542969 16.871094 14.53125 16.871094 14.515625 16.871094 C 14.167969 16.867188 13.847656 17.039062 13.652344 17.324219 C 13.445312 17.632812 13.261719 17.875 13.085938 18.039062 C 13.078125 18.046875 13.070312 18.054688 13.058594 18.0625 C 13.042969 18.078125 13.019531 18.082031 13 18.074219 L 12.996094 18.070312 C 12.988281 18.070312 12.976562 18.066406 12.96875 18.0625 C 12.96875 18.0625 12.964844 18.058594 12.964844 18.058594 C 12.898438 18.035156 12.863281 18.027344 12.832031 18.015625 C 12.832031 18.015625 12.828125 18.015625 12.824219 18.011719 C 12.820312 18.011719 12.820312 18.011719 12.816406 18.011719 C 12.816406 18.007812 12.8125 18.007812 12.808594 18.003906 C 12.78125 17.992188 12.753906 17.980469 12.722656 17.96875 L 12.714844 17.96875 L 12.710938 17.964844 C 12.710938 17.964844 12.707031 17.964844 12.707031 17.964844 C 12.707031 17.964844 12.703125 17.960938 12.703125 17.960938 L 12.699219 17.957031 C 12.667969 17.945312 12.640625 17.933594 12.609375 17.921875 L 12.601562 17.917969 L 12.597656 17.917969 C 12.59375 17.917969 12.59375 17.914062 12.589844 17.914062 C 12.550781 17.898438 12.511719 17.878906 12.464844 17.855469 C 12.453125 17.847656 12.445312 17.84375 12.433594 17.839844 C 12.410156 17.832031 12.402344 17.8125 12.402344 17.789062 L 12.402344 17.785156 C 12.398438 17.773438 12.398438 17.757812 12.398438 17.746094 C 12.398438 17.742188 12.398438 17.742188 12.398438 17.742188 C 12.390625 17.503906 12.4375 17.210938 12.507812 16.84375 C 12.574219 16.507812 12.464844 16.160156 12.21875 15.917969 C 12.207031 15.902344 12.195312 15.890625 12.1875 15.886719 C 12.183594 15.882812 12.183594 15.882812 12.183594 15.878906 C 11.941406 15.640625 11.597656 15.535156 11.261719 15.597656 C 10.902344 15.667969 10.605469 15.707031 10.363281 15.699219 C 10.359375 15.699219 10.359375 15.699219 10.359375 15.699219 L 10.355469 15.699219 C 10.355469 15.699219 10.351562 15.699219 10.34375 15.699219 L 10.320312 15.695312 C 10.292969 15.695312 10.273438 15.679688 10.265625 15.660156 C 10.261719 15.648438 10.257812 15.640625 10.25 15.632812 C 10.226562 15.578125 10.207031 15.539062 10.1875 15.5 C 10.1875 15.496094 10.1875 15.496094 10.1875 15.496094 C 10.1875 15.492188 10.1875 15.488281 10.183594 15.488281 C 10.171875 15.457031 10.160156 15.425781 10.148438 15.394531 C 10.144531 15.390625 10.144531 15.390625 10.144531 15.386719 L 10.144531 15.382812 L 10.140625 15.382812 L 10.140625 15.378906 C 10.140625 15.378906 10.140625 15.375 10.136719 15.375 C 10.125 15.339844 10.113281 15.3125 10.101562 15.28125 C 10.101562 15.28125 10.101562 15.277344 10.101562 15.277344 C 10.097656 15.277344 10.097656 15.273438 10.097656 15.273438 L 10.097656 15.269531 C 10.082031 15.230469 10.066406 15.1875 10.046875 15.132812 C 10.042969 15.121094 10.039062 15.109375 10.035156 15.101562 C 10.027344 15.078125 10.03125 15.054688 10.046875 15.035156 L 10.066406 15.015625 C 10.070312 15.015625 10.074219 15.011719 10.074219 15.011719 C 10.074219 15.007812 10.078125 15.007812 10.078125 15.003906 C 10.246094 14.828125 10.484375 14.652344 10.789062 14.445312 C 11.074219 14.253906 11.242188 13.933594 11.242188 13.589844 C 11.242188 13.589844 11.242188 13.589844 11.242188 13.585938 C 11.242188 13.578125 11.246094 13.566406 11.246094 13.542969 C 11.25 13.199219 11.078125 12.875 10.792969 12.679688 C 10.488281 12.472656 10.25 12.296875 10.085938 12.121094 C 10.078125 12.109375 10.066406 12.097656 10.058594 12.089844 C 10.050781 12.078125 10.042969 12.070312 10.042969 12.058594 C 10.039062 12.046875 10.035156 12.039062 10.042969 12.023438 C 10.046875 12.015625 10.050781 12.003906 10.054688 11.996094 C 10.070312 11.945312 10.085938 11.902344 10.101562 11.863281 C 10.101562 11.863281 10.101562 11.859375 10.101562 11.859375 C 10.101562 11.859375 10.105469 11.855469 10.105469 11.855469 C 10.105469 11.855469 10.105469 11.855469 10.105469 11.851562 L 10.109375 11.84375 C 10.121094 11.8125 10.136719 11.785156 10.148438 11.757812 C 10.148438 11.753906 10.148438 11.753906 10.148438 11.75 C 10.148438 11.746094 10.152344 11.738281 10.15625 11.734375 L 10.15625 11.730469 C 10.167969 11.699219 10.183594 11.671875 10.195312 11.640625 C 10.195312 11.640625 10.195312 11.636719 10.195312 11.636719 C 10.195312 11.636719 10.199219 11.632812 10.199219 11.628906 C 10.214844 11.597656 10.230469 11.566406 10.265625 11.5 C 10.265625 11.5 10.265625 11.5 10.265625 11.496094 C 10.273438 11.488281 10.277344 11.480469 10.28125 11.46875 C 10.289062 11.449219 10.308594 11.433594 10.332031 11.433594 C 10.34375 11.433594 10.355469 11.433594 10.367188 11.433594 C 10.609375 11.421875 10.90625 11.46875 11.273438 11.539062 C 11.613281 11.609375 11.960938 11.5 12.203125 11.257812 C 12.214844 11.246094 12.222656 11.234375 12.226562 11.230469 C 12.226562 11.226562 12.230469 11.226562 12.234375 11.222656 C 12.476562 10.984375 12.585938 10.636719 12.519531 10.300781 C 12.453125 9.9375 12.410156 9.644531 12.417969 9.402344 C 12.417969 9.402344 12.417969 9.402344 12.417969 9.398438 C 12.417969 9.398438 12.417969 9.394531 12.417969 9.390625 C 12.417969 9.378906 12.421875 9.367188 12.421875 9.355469 C 12.421875 9.332031 12.4375 9.3125 12.457031 9.304688 C 12.46875 9.296875 12.476562 9.292969 12.484375 9.289062 C 12.539062 9.261719 12.582031 9.242188 12.617188 9.226562 C 12.632812 9.222656 13.015625 9.0625 12.726562 9.183594 C 12.765625 9.167969 12.875 9.125 12.835938 9.136719 L 12.847656 9.132812 C 12.886719 9.117188 12.925781 9.105469 12.984375 9.085938 C 12.992188 9.082031 13.003906 9.078125 13.015625 9.074219 C 13.027344 9.070312 13.039062 9.070312 13.050781 9.070312 Z M 18.488281 10.136719 C 17.671875 10.8125 16.941406 11.59375 16.367188 12.484375 C 15.890625 13.222656 15.5 14.019531 15.222656 14.855469 C 15.222656 14.859375 15.222656 14.859375 15.21875 14.863281 C 15.15625 15.070312 14.972656 15.210938 14.753906 15.210938 C 14.734375 15.210938 14.710938 15.207031 14.683594 15.203125 C 14.679688 15.203125 14.675781 15.203125 14.671875 15.203125 C 14.675781 15.203125 14.667969 15.203125 14.667969 15.203125 C 14.667969 15.203125 14.660156 15.203125 14.648438 15.199219 C 14.644531 15.195312 14.644531 15.195312 14.640625 15.195312 C 14.492188 15.167969 14.367188 15.078125 14.292969 14.949219 C 14.292969 14.941406 14.289062 14.9375 14.285156 14.933594 L 12.972656 12.828125 C 12.941406 12.777344 12.925781 12.714844 12.925781 12.648438 C 12.925781 12.453125 13.074219 12.300781 13.269531 12.296875 C 13.273438 12.296875 13.273438 12.296875 13.273438 12.296875 C 13.273438 12.296875 13.277344 12.296875 13.277344 12.296875 C 13.386719 12.296875 13.488281 12.347656 13.554688 12.433594 L 14.246094 13.335938 C 14.371094 13.503906 14.609375 13.535156 14.773438 13.40625 C 14.816406 13.375 14.847656 13.335938 14.875 13.292969 C 15.078125 12.925781 15.3125 12.574219 15.570312 12.246094 C 16.144531 11.511719 16.84375 10.875 17.664062 10.449219 C 17.925781 10.316406 18.207031 10.226562 18.488281 10.136719 Z M 11.300781 13.589844 C 11.300781 13.589844 11.296875 13.59375 11.292969 13.59375 C 11.296875 13.59375 11.300781 13.59375 11.304688 13.59375 C 11.304688 13.59375 11.300781 13.589844 11.300781 13.589844 Z M 14.558594 16.816406 C 14.558594 16.816406 14.554688 16.820312 14.554688 16.820312 L 14.546875 16.820312 C 14.546875 16.820312 14.554688 16.835938 14.558594 16.84375 Z M 14.558594 16.847656 C 14.554688 16.855469 14.546875 16.871094 14.546875 16.871094 C 14.546875 16.871094 14.554688 16.855469 14.558594 16.851562 Z M 18.722656 18.917969 C 18.59375 18.90625 18.449219 18.90625 18.292969 18.921875 C 17.667969 18.972656 16.855469 19.199219 16.082031 19.472656 C 15.480469 19.683594 14.921875 19.921875 14.367188 20.164062 C 13.957031 19.929688 13.550781 19.660156 13.105469 19.445312 C 12.535156 19.160156 11.898438 18.96875 11.21875 19.066406 C 10.542969 19.160156 9.90625 19.511719 9.503906 19.734375 C 9.101562 19.957031 8.925781 20.066406 8.636719 20.191406 C 8.425781 20.28125 8.132812 20.386719 7.828125 20.496094 C 7.816406 20.5 7.808594 20.503906 7.800781 20.507812 C 7.78125 20.515625 7.765625 20.519531 7.75 20.53125 C 7.75 20.53125 7.75 20.53125 7.746094 20.53125 C 7.621094 20.605469 7.535156 20.746094 7.523438 20.890625 C 7.476562 21.117188 7.445312 21.351562 7.445312 21.585938 C 7.453125 22.078125 7.5625 22.554688 7.730469 22.996094 C 7.941406 23.554688 8.242188 24.054688 8.5625 24.523438 C 8.5625 24.527344 8.566406 24.527344 8.566406 24.53125 C 8.675781 24.71875 8.929688 24.804688 9.128906 24.722656 C 9.132812 24.722656 9.136719 24.722656 9.140625 24.71875 C 9.144531 24.71875 9.152344 24.714844 9.15625 24.714844 C 9.15625 24.714844 9.15625 24.710938 9.160156 24.710938 C 9.382812 24.609375 9.601562 24.511719 9.804688 24.421875 C 10.015625 24.328125 10.054688 24.292969 10.257812 24.332031 C 10.441406 24.367188 10.855469 24.554688 11.527344 24.875 C 12.199219 25.199219 13.136719 25.644531 13.667969 25.863281 C 13.9375 25.972656 14.144531 26.039062 14.375 26.039062 C 14.601562 26.039062 14.796875 25.988281 15.101562 25.925781 C 15.714844 25.792969 16.882812 25.566406 17.539062 25.414062 C 17.867188 25.339844 18.109375 25.269531 18.367188 25.117188 C 18.621094 24.96875 18.863281 24.757812 19.265625 24.398438 C 20.078125 23.679688 21.570312 22.324219 22.285156 21.511719 C 22.636719 21.105469 22.828125 20.835938 22.871094 20.53125 C 22.890625 20.402344 22.867188 20.273438 22.8125 20.164062 C 22.796875 20.128906 22.773438 20.089844 22.746094 20.054688 C 22.648438 19.9375 22.53125 19.882812 22.457031 19.847656 C 22.222656 19.746094 21.910156 19.742188 21.539062 19.835938 C 21.527344 19.796875 21.527344 19.765625 21.503906 19.726562 C 21.414062 19.558594 21.246094 19.433594 21.03125 19.375 C 20.730469 19.300781 20.34375 19.355469 19.847656 19.492188 C 19.839844 19.472656 19.832031 19.449219 19.820312 19.433594 L 19.820312 19.429688 C 19.757812 19.320312 19.664062 19.246094 19.578125 19.1875 C 19.394531 19.058594 19.113281 18.945312 18.722656 18.917969 Z M 18.59375 19.699219 C 18.6875 19.703125 18.722656 19.726562 18.789062 19.738281 C 18.679688 19.792969 18.597656 19.832031 18.421875 19.914062 C 17.980469 20.121094 17.21875 20.492188 16.492188 20.839844 C 16.488281 20.839844 16.488281 20.839844 16.488281 20.839844 C 16.386719 20.886719 16.285156 20.933594 16.1875 20.980469 C 15.90625 20.863281 15.617188 20.742188 15.328125 20.617188 C 15.664062 20.476562 16 20.335938 16.34375 20.214844 C 17.082031 19.957031 17.875 19.746094 18.355469 19.707031 C 18.441406 19.699219 18.523438 19.699219 18.59375 19.699219 Z M 11.679688 19.828125 L 11.679688 19.832031 C 12.03125 19.851562 12.386719 19.96875 12.757812 20.148438 C 13.25 20.394531 13.769531 20.761719 14.367188 21.0625 C 14.964844 21.367188 15.585938 21.574219 16.066406 21.78125 C 16.542969 21.992188 16.917969 22.21875 17.125 22.40625 C 17.273438 22.542969 17.339844 22.65625 17.371094 22.734375 C 17.371094 22.75 17.375 22.753906 17.375 22.761719 L 17.371094 22.761719 C 17.371094 22.761719 17.367188 22.761719 17.363281 22.761719 C 17.300781 22.773438 17.199219 22.777344 17.058594 22.773438 C 16.523438 22.753906 15.414062 22.546875 14.300781 22.335938 C 14.300781 22.335938 14.296875 22.335938 14.296875 22.335938 C 14.292969 22.332031 14.292969 22.332031 14.289062 22.332031 C 14.273438 22.328125 14.269531 22.328125 14.277344 22.332031 C 14.277344 22.328125 14.273438 22.328125 14.269531 22.328125 C 14.183594 22.316406 14.089844 22.332031 14.011719 22.378906 C 13.835938 22.480469 13.765625 22.738281 13.867188 22.917969 C 13.925781 23.015625 14.027344 23.085938 14.140625 23.105469 C 14.152344 23.109375 14.15625 23.109375 14.148438 23.109375 C 14.15625 23.109375 14.160156 23.109375 14.164062 23.109375 C 15.269531 23.324219 16.351562 23.535156 17.03125 23.5625 C 17.382812 23.574219 17.652344 23.542969 17.871094 23.40625 C 18.109375 23.253906 18.1875 22.988281 18.183594 22.789062 C 18.179688 22.714844 18.152344 22.65625 18.132812 22.589844 C 18.894531 22.136719 19.589844 21.71875 20.148438 21.378906 C 20.15625 21.375 20.15625 21.378906 20.171875 21.367188 C 20.175781 21.367188 20.175781 21.367188 20.175781 21.367188 C 20.628906 21.089844 21.046875 20.847656 21.34375 20.710938 C 21.613281 20.589844 21.792969 20.542969 21.90625 20.535156 C 21.972656 20.527344 21.996094 20.535156 22.03125 20.542969 C 22.023438 20.550781 22.023438 20.558594 22.015625 20.566406 C 21.953125 20.667969 21.851562 20.808594 21.691406 20.988281 C 21.050781 21.714844 19.542969 23.097656 18.742188 23.808594 C 18.34375 24.164062 18.125 24.347656 17.964844 24.441406 C 17.800781 24.539062 17.675781 24.574219 17.359375 24.644531 C 16.734375 24.789062 15.566406 25.019531 14.9375 25.152344 C 14.625 25.21875 14.457031 25.253906 14.378906 25.253906 C 14.285156 25.253906 14.207031 25.230469 13.964844 25.132812 C 13.484375 24.9375 12.535156 24.488281 11.867188 24.164062 C 11.199219 23.84375 10.796875 23.632812 10.410156 23.558594 C 10.011719 23.476562 9.699219 23.601562 9.484375 23.699219 C 9.359375 23.753906 9.222656 23.816406 9.085938 23.878906 C 8.839844 23.5 8.621094 23.113281 8.46875 22.710938 C 8.328125 22.34375 8.242188 21.960938 8.238281 21.582031 C 8.234375 21.441406 8.253906 21.304688 8.273438 21.167969 C 8.503906 21.085938 8.730469 21.003906 8.917969 20.925781 L 8.886719 20.925781 C 8.910156 20.925781 8.929688 20.917969 8.949219 20.910156 C 8.957031 20.90625 8.964844 20.902344 8.972656 20.898438 C 9.289062 20.761719 9.503906 20.636719 9.886719 20.421875 C 10.277344 20.207031 10.859375 19.910156 11.328125 19.84375 C 11.445312 19.828125 11.5625 19.824219 11.679688 19.828125 Z M 20.640625 20.136719 C 20.554688 20.199219 20.515625 20.230469 20.355469 20.332031 C 19.820312 20.667969 18.785156 21.285156 17.738281 21.914062 C 17.710938 21.882812 17.691406 21.855469 17.65625 21.824219 C 17.503906 21.6875 17.285156 21.566406 17.078125 21.445312 C 17.988281 21.03125 18.890625 20.625 19.515625 20.40625 C 19.90625 20.265625 20.214844 20.191406 20.433594 20.15625 C 20.519531 20.140625 20.578125 20.140625 20.640625 20.136719 Z M 20.640625 20.136719 " fill-opacity="1" fill-rule="nonzero"/></g></svg>