<svg xmlns="http://www.w3.org/2000/svg" xmlns:xlink="http://www.w3.org/1999/xlink" width="40" zoomAndPan="magnify" viewBox="0 0 30 30.000001" height="40" preserveAspectRatio="xMidYMid meet" version="1.0"><defs><clipPath id="2e55a4d36d"><path d="M 0.484375 0 L 29.515625 0 L 29.515625 29.03125 L 0.484375 29.03125 Z M 0.484375 0 " clip-rule="nonzero"/></clipPath><clipPath id="d943cb2ee4"><path d="M 3.386719 2.859375 L 26.613281 2.859375 L 26.613281 26.085938 L 3.386719 26.085938 Z M 3.386719 2.859375 " clip-rule="nonzero"/></clipPath></defs><g clip-path="url(#2e55a4d36d)"><path fill="#ffffff" d="M 0.484375 0 L 29.515625 0 L 29.515625 29.03125 L 0.484375 29.03125 Z M 0.484375 0 " fill-opacity="1" fill-rule="nonzero"/><path fill="#ffffff" d="M 0.484375 0 L 29.515625 0 L 29.515625 29.03125 L 0.484375 29.03125 Z M 0.484375 0 " fill-opacity="1" fill-rule="nonzero"/></g><g clip-path="url(#d943cb2ee4)"><path fill="#935f3d" d="M 26.15625 17.195312 C 25.9375 16.832031 25.042969 15.75 22.683594 17.125 L 18.53125 19.542969 C 18.328125 19.660156 18.125 19.742188 17.910156 19.792969 C 17.988281 19.667969 18.050781 19.523438 18.09375 19.363281 C 18.304688 18.566406 17.832031 17.738281 17.015625 17.472656 C 17 17.46875 16.984375 17.464844 16.964844 17.460938 C 15.773438 17.246094 14.597656 16.820312 13.652344 16.476562 C 13.320312 16.359375 13.011719 16.246094 12.746094 16.160156 C 11.683594 15.816406 10.71875 16.242188 9.917969 16.707031 L 6.835938 18.492188 L 6.550781 17.984375 C 6.421875 17.753906 6.207031 17.589844 5.953125 17.519531 C 5.699219 17.449219 5.433594 17.480469 5.203125 17.609375 L 4.039062 18.269531 C 3.566406 18.539062 3.398438 19.140625 3.667969 19.613281 L 7.089844 25.664062 C 7.21875 25.894531 7.433594 26.058594 7.6875 26.128906 C 7.773438 26.152344 7.863281 26.164062 7.953125 26.164062 C 8.121094 26.164062 8.285156 26.121094 8.4375 26.035156 L 9.601562 25.378906 C 9.828125 25.25 9.996094 25.035156 10.066406 24.78125 C 10.136719 24.527344 10.101562 24.261719 9.972656 24.03125 L 9.625 23.414062 L 10.320312 23.015625 L 15.632812 24.4375 C 15.933594 24.519531 16.230469 24.558594 16.519531 24.558594 C 17.09375 24.558594 17.644531 24.398438 18.164062 24.078125 L 25.695312 19.441406 C 26.386719 19.015625 26.605469 17.945312 26.15625 17.195312 Z M 9.339844 24.582031 C 9.324219 24.640625 9.285156 24.691406 9.230469 24.722656 L 8.066406 25.382812 C 8.011719 25.414062 7.949219 25.421875 7.886719 25.402344 C 7.828125 25.386719 7.777344 25.347656 7.746094 25.292969 L 4.320312 19.242188 C 4.289062 19.191406 4.28125 19.125 4.300781 19.066406 C 4.316406 19.003906 4.355469 18.953125 4.410156 18.921875 L 5.574219 18.265625 C 5.609375 18.246094 5.648438 18.234375 5.6875 18.234375 C 5.710938 18.234375 5.730469 18.238281 5.753906 18.242188 C 5.8125 18.261719 5.863281 18.300781 5.894531 18.351562 L 9.320312 24.402344 C 9.351562 24.457031 9.355469 24.519531 9.339844 24.582031 Z M 25.300781 18.800781 L 17.769531 23.441406 C 17.171875 23.804688 16.519531 23.898438 15.828125 23.710938 L 10.363281 22.246094 C 10.265625 22.222656 10.164062 22.234375 10.078125 22.285156 L 9.253906 22.761719 L 7.207031 19.144531 L 10.296875 17.355469 C 10.984375 16.957031 11.734375 16.621094 12.515625 16.875 C 12.769531 16.957031 13.058594 17.0625 13.394531 17.183594 C 14.359375 17.535156 15.558594 17.96875 16.804688 18.195312 C 17.234375 18.34375 17.476562 18.761719 17.367188 19.167969 C 17.222656 19.707031 16.773438 19.773438 16.414062 19.734375 C 15.804688 19.609375 15.222656 19.441406 14.609375 19.265625 C 14.316406 19.183594 14.015625 19.097656 13.707031 19.015625 C 13.503906 18.960938 13.300781 19.078125 13.246094 19.28125 C 13.191406 19.480469 13.3125 19.6875 13.511719 19.742188 C 13.816406 19.820312 14.113281 19.90625 14.402344 19.988281 C 15.035156 20.171875 15.636719 20.339844 16.28125 20.472656 C 16.28125 20.472656 16.285156 20.472656 16.289062 20.472656 C 16.289062 20.476562 16.292969 20.476562 16.292969 20.476562 L 16.8125 20.558594 C 17.585938 20.683594 18.269531 20.5625 18.910156 20.191406 L 23.058594 17.773438 C 24.25 17.082031 25.167969 17.007812 25.511719 17.582031 C 25.746094 17.976562 25.640625 18.59375 25.300781 18.800781 Z M 5.910156 19.425781 C 5.941406 19.652344 5.785156 19.863281 5.558594 19.898438 C 5.332031 19.929688 5.121094 19.773438 5.085938 19.546875 C 5.054688 19.320312 5.210938 19.109375 5.4375 19.074219 C 5.664062 19.042969 5.875 19.199219 5.910156 19.425781 Z M 13.589844 11.765625 L 14.371094 12.066406 C 14.488281 12.484375 14.65625 12.886719 14.871094 13.265625 L 14.527344 14.03125 C 14.464844 14.175781 14.496094 14.339844 14.605469 14.449219 L 15.71875 15.566406 C 15.832031 15.675781 15.996094 15.707031 16.136719 15.644531 L 16.90625 15.300781 C 17.285156 15.515625 17.6875 15.683594 18.105469 15.796875 L 18.40625 16.582031 C 18.460938 16.726562 18.601562 16.824219 18.757812 16.824219 L 20.332031 16.824219 C 20.488281 16.824219 20.628906 16.726562 20.683594 16.582031 L 20.984375 15.796875 C 21.402344 15.683594 21.804688 15.515625 22.183594 15.300781 L 22.953125 15.644531 C 23.09375 15.707031 23.261719 15.675781 23.371094 15.566406 L 24.484375 14.449219 C 24.59375 14.339844 24.625 14.175781 24.5625 14.03125 L 24.222656 13.265625 C 24.433594 12.886719 24.601562 12.484375 24.71875 12.066406 L 25.5 11.765625 C 25.648438 11.707031 25.742188 11.570312 25.742188 11.414062 L 25.742188 9.839844 C 25.742188 9.683594 25.648438 9.542969 25.5 9.488281 L 24.71875 9.183594 C 24.601562 8.765625 24.433594 8.367188 24.222656 7.988281 L 24.5625 7.21875 C 24.625 7.078125 24.59375 6.910156 24.484375 6.800781 L 23.371094 5.6875 C 23.261719 5.578125 23.09375 5.546875 22.953125 5.609375 L 22.183594 5.949219 C 21.804688 5.738281 21.402344 5.570312 20.984375 5.453125 L 20.683594 4.667969 C 20.628906 4.523438 20.488281 4.429688 20.332031 4.429688 L 18.757812 4.429688 C 18.601562 4.429688 18.460938 4.523438 18.40625 4.667969 L 18.105469 5.453125 C 17.6875 5.570312 17.285156 5.738281 16.90625 5.949219 L 16.136719 5.609375 C 15.996094 5.546875 15.832031 5.578125 15.71875 5.6875 L 14.605469 6.800781 C 14.496094 6.910156 14.464844 7.078125 14.527344 7.21875 L 14.871094 7.988281 C 14.65625 8.367188 14.488281 8.765625 14.375 9.183594 L 13.589844 9.488281 C 13.445312 9.542969 13.347656 9.683594 13.347656 9.839844 L 13.347656 11.414062 C 13.347656 11.570312 13.445312 11.707031 13.589844 11.765625 Z M 14.101562 10.097656 L 14.824219 9.816406 C 14.9375 9.773438 15.027344 9.675781 15.054688 9.554688 C 15.167969 9.078125 15.355469 8.625 15.613281 8.207031 C 15.675781 8.101562 15.6875 7.972656 15.636719 7.859375 L 15.320312 7.148438 L 16.070312 6.402344 L 16.777344 6.714844 C 16.890625 6.765625 17.023438 6.757812 17.128906 6.691406 C 17.546875 6.433594 18 6.246094 18.472656 6.136719 C 18.59375 6.105469 18.691406 6.019531 18.738281 5.902344 L 19.015625 5.179688 L 20.074219 5.179688 L 20.355469 5.902344 C 20.398438 6.019531 20.496094 6.105469 20.617188 6.136719 C 21.09375 6.246094 21.546875 6.433594 21.960938 6.691406 C 22.066406 6.757812 22.199219 6.765625 22.3125 6.714844 L 23.019531 6.402344 L 23.769531 7.148438 L 23.457031 7.859375 C 23.40625 7.972656 23.414062 8.101562 23.480469 8.207031 C 23.734375 8.625 23.921875 9.078125 24.035156 9.554688 C 24.066406 9.675781 24.152344 9.773438 24.265625 9.816406 L 24.992188 10.097656 L 24.992188 11.15625 L 24.265625 11.433594 C 24.152344 11.480469 24.066406 11.578125 24.035156 11.699219 C 23.921875 12.171875 23.734375 12.625 23.480469 13.042969 C 23.414062 13.148438 23.40625 13.277344 23.457031 13.390625 L 23.769531 14.101562 L 23.019531 14.851562 L 22.3125 14.535156 C 22.199219 14.484375 22.066406 14.496094 21.960938 14.558594 C 21.546875 14.816406 21.09375 15.003906 20.617188 15.117188 C 20.496094 15.144531 20.398438 15.230469 20.355469 15.347656 L 20.074219 16.070312 L 19.015625 16.070312 L 18.738281 15.347656 C 18.691406 15.230469 18.59375 15.144531 18.472656 15.117188 C 18 15.003906 17.546875 14.816406 17.128906 14.558594 C 17.023438 14.496094 16.890625 14.484375 16.777344 14.535156 L 16.070312 14.851562 L 15.320312 14.101562 L 15.636719 13.390625 C 15.6875 13.277344 15.675781 13.148438 15.613281 13.042969 C 15.355469 12.625 15.167969 12.171875 15.054688 11.699219 C 15.027344 11.578125 14.9375 11.476562 14.824219 11.433594 L 14.101562 11.15625 Z M 19.546875 13.992188 C 21.402344 13.992188 22.910156 12.480469 22.910156 10.625 C 22.910156 8.769531 21.402344 7.257812 19.546875 7.257812 C 17.6875 7.257812 16.179688 8.769531 16.179688 10.625 C 16.179688 12.480469 17.6875 13.992188 19.546875 13.992188 Z M 19.546875 8.011719 C 20.988281 8.011719 22.160156 9.183594 22.160156 10.625 C 22.160156 12.066406 20.988281 13.242188 19.546875 13.242188 C 18.105469 13.242188 16.929688 12.066406 16.929688 10.625 C 16.929688 9.183594 18.105469 8.011719 19.546875 8.011719 Z M 17.78125 11 C 17.574219 11 17.40625 10.832031 17.40625 10.625 C 17.40625 10.417969 17.574219 10.25 17.78125 10.25 L 19.167969 10.25 L 19.167969 8.859375 C 19.167969 8.652344 19.335938 8.484375 19.546875 8.484375 C 19.753906 8.484375 19.921875 8.652344 19.921875 8.859375 L 19.921875 10.25 L 21.308594 10.25 C 21.515625 10.25 21.6875 10.417969 21.6875 10.625 C 21.6875 10.832031 21.515625 11 21.308594 11 L 19.921875 11 L 19.921875 12.390625 C 19.921875 12.597656 19.753906 12.765625 19.546875 12.765625 C 19.335938 12.765625 19.167969 12.597656 19.167969 12.390625 L 19.167969 11 Z M 9.152344 10.964844 C 11.390625 10.964844 13.207031 9.148438 13.207031 6.914062 C 13.207031 4.675781 11.390625 2.859375 9.152344 2.859375 C 6.917969 2.859375 5.101562 4.675781 5.101562 6.914062 C 5.101562 9.148438 6.917969 10.964844 9.152344 10.964844 Z M 9.152344 3.609375 C 10.972656 3.609375 12.457031 5.09375 12.457031 6.914062 C 12.457031 8.734375 10.972656 10.214844 9.152344 10.214844 C 7.332031 10.214844 5.851562 8.734375 5.851562 6.914062 C 5.851562 5.09375 7.332031 3.609375 9.152344 3.609375 Z M 9.152344 9.945312 C 10.828125 9.945312 12.1875 8.585938 12.1875 6.914062 C 12.1875 5.238281 10.828125 3.878906 9.152344 3.878906 C 7.480469 3.878906 6.121094 5.238281 6.121094 6.914062 C 6.121094 8.585938 7.480469 9.945312 9.152344 9.945312 Z M 9.152344 4.632812 C 10.414062 4.632812 11.4375 5.65625 11.4375 6.914062 C 11.4375 8.171875 10.414062 9.195312 9.152344 9.195312 C 7.894531 9.195312 6.871094 8.171875 6.871094 6.914062 C 6.871094 5.65625 7.894531 4.632812 9.152344 4.632812 Z M 9.597656 7.699219 C 9.621094 7.671875 9.636719 7.640625 9.628906 7.578125 C 9.621094 7.511719 9.601562 7.355469 9.09375 7.273438 C 8.1875 7.125 8.027344 6.601562 8.015625 6.304688 C 7.992188 5.832031 8.296875 5.433594 8.777344 5.289062 L 8.777344 5.230469 C 8.777344 5.023438 8.945312 4.855469 9.152344 4.855469 C 9.363281 4.855469 9.53125 5.023438 9.53125 5.230469 L 9.53125 5.285156 C 9.839844 5.375 10.125 5.585938 10.28125 5.960938 C 10.363281 6.152344 10.273438 6.371094 10.082031 6.453125 C 9.890625 6.53125 9.671875 6.441406 9.589844 6.25 C 9.476562 5.976562 9.1875 5.960938 9.035156 5.996094 C 8.96875 6.011719 8.757812 6.074219 8.765625 6.269531 C 8.769531 6.316406 8.773438 6.460938 9.21875 6.53125 C 9.921875 6.648438 10.3125 6.96875 10.375 7.488281 C 10.40625 7.753906 10.335938 7.996094 10.167969 8.1875 C 10.019531 8.363281 9.789062 8.488281 9.53125 8.550781 L 9.53125 8.59375 C 9.53125 8.800781 9.363281 8.96875 9.152344 8.96875 C 8.945312 8.96875 8.777344 8.800781 8.777344 8.59375 L 8.777344 8.546875 C 8.359375 8.429688 8.039062 8.128906 7.9375 7.71875 C 7.886719 7.515625 8.007812 7.3125 8.210938 7.261719 C 8.414062 7.210938 8.617188 7.335938 8.667969 7.535156 C 8.722656 7.769531 8.976562 7.847656 9.179688 7.84375 C 9.355469 7.839844 9.527344 7.777344 9.597656 7.699219 Z M 9.597656 7.699219 " fill-opacity="1" fill-rule="nonzero"/></g></svg>