<svg xmlns="http://www.w3.org/2000/svg" xmlns:xlink="http://www.w3.org/1999/xlink" width="40" zoomAndPan="magnify" viewBox="0 0 30 30.000001" height="40" preserveAspectRatio="xMidYMid meet" version="1.0"><defs><clipPath id="d3b1d15548"><path d="M 0.484375 0 L 29.515625 0 L 29.515625 29.03125 L 0.484375 29.03125 Z M 0.484375 0 " clip-rule="nonzero"/></clipPath><clipPath id="d64c8df6f3"><path d="M 3.386719 3.339844 L 26.613281 3.339844 L 26.613281 25.839844 L 3.386719 25.839844 Z M 3.386719 3.339844 " clip-rule="nonzero"/></clipPath><clipPath id="193a1ce9d2"><path d="M 10 3.339844 L 14 3.339844 L 14 8 L 10 8 Z M 10 3.339844 " clip-rule="nonzero"/></clipPath></defs><g clip-path="url(#d3b1d15548)"><path fill="#ffffff" d="M 0.484375 0 L 29.515625 0 L 29.515625 29.03125 L 0.484375 29.03125 Z M 0.484375 0 " fill-opacity="1" fill-rule="nonzero"/><path fill="#ffffff" d="M 0.484375 0 L 29.515625 0 L 29.515625 29.03125 L 0.484375 29.03125 Z M 0.484375 0 " fill-opacity="1" fill-rule="nonzero"/></g><g clip-path="url(#d64c8df6f3)"><path fill="#935f3d" d="M 17.949219 17.421875 C 18.339844 17.410156 18.660156 17.523438 18.960938 17.824219 L 25.847656 24.746094 C 25.9375 24.839844 25.953125 24.949219 25.933594 25.023438 C 25.917969 25.097656 25.90625 25.09375 25.898438 25.09375 L 4.171875 25.09375 C 4.132812 25.09375 4.128906 25.089844 4.113281 25.074219 C 4.097656 25.0625 4.078125 25.03125 4.066406 24.980469 C 4.042969 24.886719 4.085938 24.765625 4.097656 24.753906 L 7.808594 21.21875 C 8.261719 20.789062 8.546875 20.53125 8.828125 20.390625 C 9.109375 20.25 9.414062 20.195312 9.980469 20.195312 L 11.46875 20.195312 C 12.363281 20.195312 12.898438 20.019531 13.628906 19.597656 L 15.8125 18.335938 C 16.046875 18.328125 16.277344 18.246094 16.460938 18.082031 C 16.523438 18.023438 16.578125 17.949219 16.621094 17.871094 C 17.105469 17.589844 17.5625 17.433594 17.949219 17.421875 Z M 12.546875 13.574219 C 12.675781 13.574219 12.859375 13.617188 13.0625 13.722656 C 13.976562 14.203125 14.339844 14.503906 14.503906 14.828125 C 14.695312 15.199219 14.761719 15.945312 14.761719 17.292969 C 14.746094 17.613281 14.871094 17.898438 15.066406 18.082031 L 13.332031 19.082031 C 12.699219 19.445312 12.351562 19.574219 11.664062 19.59375 C 11.714844 19.488281 11.753906 19.367188 11.765625 19.238281 C 12.015625 17.359375 12.128906 15.917969 12.21875 14.078125 C 12.238281 13.714844 12.328125 13.632812 12.441406 13.59375 C 12.46875 13.582031 12.503906 13.578125 12.546875 13.574219 Z M 15.34375 6.289062 C 15.339844 6.507812 15.292969 6.828125 15.253906 7.039062 C 15.070312 7.117188 14.882812 7.175781 14.726562 7.226562 C 14.867188 6.914062 14.96875 6.542969 15.039062 6.140625 C 15.074219 5.945312 15.351562 6.007812 15.34375 6.289062 Z M 15.875 5.855469 L 16.578125 5.878906 C 16.378906 6.222656 16.15625 6.472656 15.910156 6.667969 C 15.921875 6.550781 15.933594 6.425781 15.941406 6.328125 C 15.953125 6.152344 15.929688 5.996094 15.875 5.855469 Z M 17.664062 6.078125 C 17.140625 7.554688 16.246094 8.160156 15.140625 8.496094 C 14.625 8.648438 14.140625 8.683594 13.550781 8.746094 C 13.394531 8.761719 13.277344 8.898438 13.28125 9.050781 L 13.378906 12.167969 C 13.382812 12.277344 13.445312 12.378906 13.542969 12.425781 C 14.664062 12.964844 15.394531 13.480469 15.753906 14.183594 C 16.175781 15 16.140625 15.929688 16.167969 17.308594 C 16.171875 17.453125 16.117188 17.558594 16.058594 17.636719 C 16 17.714844 15.875 17.746094 15.761719 17.746094 C 15.648438 17.746094 15.542969 17.703125 15.472656 17.636719 C 15.363281 17.507812 15.359375 17.425781 15.359375 17.308594 C 15.335938 15.9375 15.332031 15.132812 15.035156 14.554688 C 14.777344 14.058594 14.289062 13.691406 13.339844 13.195312 C 12.984375 13.007812 12.605469 12.90625 12.246094 13.03125 C 11.886719 13.160156 11.648438 13.542969 11.625 14.046875 C 11.535156 15.882812 11.425781 17.296875 11.175781 19.164062 C 11.175781 19.167969 11.175781 19.171875 11.175781 19.175781 C 11.160156 19.34375 11.101562 19.417969 11.023438 19.472656 C 10.945312 19.527344 10.832031 19.550781 10.71875 19.539062 C 10.609375 19.523438 10.503906 19.46875 10.445312 19.394531 C 10.351562 19.257812 10.359375 19.1875 10.375 19.058594 C 10.949219 14.757812 11.019531 11.316406 10.652344 8.550781 C 10.617188 8.300781 10.804688 8.089844 11.050781 8.089844 C 12.378906 8.089844 13.933594 8.089844 14.90625 7.796875 C 15.820312 7.519531 16.714844 7.03125 17.292969 5.792969 C 17.445312 5.464844 17.773438 5.773438 17.664062 6.078125 Z M 21.003906 4.753906 L 21.003906 5.410156 L 18.089844 5.332031 C 18.015625 5.242188 17.929688 5.171875 17.828125 5.121094 C 17.546875 4.984375 17.179688 5.046875 16.929688 5.292969 L 14.710938 5.222656 C 14.472656 5.214844 14.511719 4.910156 14.699219 4.902344 Z M 21.296875 3.949219 C 21.167969 3.953125 21.058594 4.035156 21.019531 4.15625 L 14.71875 4.304688 C 14.242188 4.316406 13.878906 4.699219 13.882812 5.074219 C 13.890625 5.40625 14.152344 5.71875 14.53125 5.796875 C 14.492188 5.878906 14.460938 5.964844 14.445312 6.0625 C 14.378906 6.601562 14.160156 7.078125 13.953125 7.375 C 13.121094 7.480469 12.019531 7.496094 11.050781 7.496094 C 10.453125 7.496094 10.023438 8.121094 10.0625 8.628906 C 10.347656 12.433594 10.257812 15.957031 9.78125 18.972656 C 9.746094 19.203125 9.785156 19.421875 9.875 19.601562 C 9.328125 19.609375 8.921875 19.675781 8.558594 19.855469 C 8.171875 20.050781 7.855469 20.351562 7.398438 20.785156 L 3.6875 24.320312 C 3.457031 24.542969 3.417969 24.847656 3.488281 25.125 C 3.523438 25.261719 3.589844 25.398438 3.703125 25.507812 C 3.820312 25.621094 3.992188 25.691406 4.171875 25.691406 L 25.898438 25.691406 C 26.222656 25.691406 26.453125 25.425781 26.515625 25.15625 C 26.578125 24.886719 26.507812 24.566406 26.273438 24.328125 L 19.386719 17.402344 C 18.976562 16.992188 18.460938 16.808594 17.933594 16.828125 C 17.546875 16.839844 17.15625 16.949219 16.765625 17.128906 C 16.765625 15.847656 16.765625 14.84375 16.285156 13.910156 C 15.855469 13.074219 15.035156 12.519531 13.96875 11.984375 L 13.886719 9.296875 C 14.359375 9.25 14.820312 9.214844 15.316406 9.0625 C 16.539062 8.695312 17.644531 7.914062 18.226562 6.28125 C 18.269531 6.160156 18.285156 6.046875 18.289062 5.9375 L 21.011719 6.007812 C 21.101562 6.359375 21.625 6.277344 21.601562 5.914062 L 21.601562 4.25 C 21.601562 4.082031 21.464844 3.945312 21.296875 3.949219 Z M 21.296875 3.949219 " fill-opacity="1" fill-rule="nonzero"/></g><g clip-path="url(#193a1ce9d2)"><path fill="#935f3d" d="M 12.320312 4.25 C 12.921875 4.480469 13.210938 5.128906 12.980469 5.71875 C 12.75 6.308594 12.082031 6.601562 11.476562 6.371094 C 10.878906 6.144531 10.589844 5.492188 10.820312 4.90625 C 11.050781 4.316406 11.71875 4.023438 12.320312 4.25 Z M 12.53125 3.691406 C 11.632812 3.351562 10.613281 3.796875 10.261719 4.6875 L 10.265625 4.6875 C 9.914062 5.578125 10.367188 6.589844 11.265625 6.929688 C 12.167969 7.269531 13.183594 6.828125 13.535156 5.9375 C 13.886719 5.046875 13.433594 4.035156 12.53125 3.691406 Z M 12.53125 3.691406 " fill-opacity="1" fill-rule="evenodd"/></g></svg>