<svg xmlns="http://www.w3.org/2000/svg" xmlns:xlink="http://www.w3.org/1999/xlink" width="40" zoomAndPan="magnify" viewBox="0 0 30 30.000001" height="40" preserveAspectRatio="xMidYMid meet" version="1.0"><defs><clipPath id="a8a0454e36"><path d="M 0.484375 0 L 29.515625 0 L 29.515625 29.03125 L 0.484375 29.03125 Z M 0.484375 0 " clip-rule="nonzero"/></clipPath><clipPath id="db50a8e03a"><path d="M 22 11 L 26.613281 11 L 26.613281 17 L 22 17 Z M 22 11 " clip-rule="nonzero"/></clipPath><clipPath id="f2892aada7"><path d="M 17 20 L 25 20 L 25 25.867188 L 17 25.867188 Z M 17 20 " clip-rule="nonzero"/></clipPath><clipPath id="e46c2cf149"><path d="M 3.386719 11 L 9 11 L 9 17 L 3.386719 17 Z M 3.386719 11 " clip-rule="nonzero"/></clipPath><clipPath id="59b7ff6ca9"><path d="M 8 21 L 12 21 L 12 25.867188 L 8 25.867188 Z M 8 21 " clip-rule="nonzero"/></clipPath><clipPath id="9e33b8b870"><path d="M 16 3.367188 L 19 3.367188 L 19 8 L 16 8 Z M 16 3.367188 " clip-rule="nonzero"/></clipPath></defs><g clip-path="url(#a8a0454e36)"><path fill="#ffffff" d="M 0.484375 0 L 29.515625 0 L 29.515625 29.03125 L 0.484375 29.03125 Z M 0.484375 0 " fill-opacity="1" fill-rule="nonzero"/><path fill="#ffffff" d="M 0.484375 0 L 29.515625 0 L 29.515625 29.03125 L 0.484375 29.03125 Z M 0.484375 0 " fill-opacity="1" fill-rule="nonzero"/></g><path fill="#935f3d" d="M 18.738281 5.609375 C 18.738281 5.738281 18.84375 5.839844 18.972656 5.839844 L 19.738281 5.839844 C 19.867188 5.839844 19.972656 5.738281 19.972656 5.609375 C 19.972656 5.480469 19.867188 5.375 19.738281 5.375 L 18.972656 5.375 C 18.84375 5.375 18.738281 5.480469 18.738281 5.609375 Z M 18.738281 5.609375 " fill-opacity="1" fill-rule="nonzero"/><path fill="#935f3d" d="M 18.894531 5.308594 C 18.945312 5.308594 18.992188 5.292969 19.035156 5.261719 L 19.648438 4.800781 C 19.75 4.722656 19.769531 4.574219 19.691406 4.472656 C 19.613281 4.371094 19.46875 4.351562 19.367188 4.429688 L 18.753906 4.890625 C 18.652344 4.96875 18.632812 5.117188 18.710938 5.21875 C 18.753906 5.277344 18.824219 5.308594 18.894531 5.308594 Z M 18.894531 5.308594 " fill-opacity="1" fill-rule="nonzero"/><path fill="#935f3d" d="M 19.648438 6.417969 L 19.035156 5.957031 C 18.933594 5.878906 18.789062 5.898438 18.710938 6 C 18.632812 6.101562 18.652344 6.25 18.753906 6.324219 L 19.367188 6.789062 C 19.410156 6.820312 19.457031 6.835938 19.507812 6.835938 C 19.578125 6.835938 19.644531 6.804688 19.691406 6.742188 C 19.769531 6.640625 19.75 6.496094 19.648438 6.417969 Z M 19.648438 6.417969 " fill-opacity="1" fill-rule="nonzero"/><g clip-path="url(#db50a8e03a)"><path fill="#935f3d" d="M 26.378906 11.691406 L 24.003906 11.691406 C 23.992188 11.652344 23.976562 11.617188 23.964844 11.578125 L 23.675781 11.691406 L 22.304688 11.691406 C 22.175781 11.691406 22.070312 11.792969 22.070312 11.921875 L 22.070312 15.054688 C 22.070312 15.183594 22.175781 15.285156 22.304688 15.285156 L 23.242188 15.285156 L 23.242188 16.351562 C 23.242188 16.445312 23.300781 16.53125 23.390625 16.566406 C 23.417969 16.578125 23.445312 16.582031 23.476562 16.582031 C 23.539062 16.582031 23.601562 16.558594 23.644531 16.507812 L 24.070312 16.046875 C 24.058594 16.148438 24.046875 16.242188 24.03125 16.339844 L 24.492188 16.410156 C 24.511719 16.269531 24.53125 16.132812 24.542969 15.992188 L 24.160156 15.953125 L 24.425781 15.660156 L 24.570312 15.671875 C 24.574219 15.613281 24.578125 15.550781 24.582031 15.492188 L 24.769531 15.285156 L 26.378906 15.285156 C 26.507812 15.285156 26.613281 15.183594 26.613281 15.054688 L 26.613281 11.921875 C 26.613281 11.792969 26.507812 11.691406 26.378906 11.691406 Z M 25.949219 14.433594 C 25.949219 14.582031 25.832031 14.699219 25.6875 14.699219 C 25.625 14.699219 25.566406 14.679688 25.523438 14.640625 C 25.421875 14.695312 25.304688 14.722656 25.183594 14.722656 C 24.890625 14.722656 24.636719 14.550781 24.515625 14.300781 L 24.53125 14.34375 C 24.582031 14.480469 24.507812 14.632812 24.371094 14.683594 C 24.339844 14.695312 24.3125 14.699219 24.28125 14.699219 C 24.171875 14.699219 24.070312 14.632812 24.03125 14.523438 L 23.921875 14.21875 L 23.28125 14.21875 L 23.171875 14.523438 C 23.121094 14.664062 22.96875 14.734375 22.832031 14.683594 C 22.695312 14.632812 22.625 14.480469 22.671875 14.34375 L 23.351562 12.472656 C 23.390625 12.367188 23.488281 12.300781 23.601562 12.300781 C 23.710938 12.300781 23.8125 12.367188 23.851562 12.472656 L 24.464844 14.160156 C 24.449219 14.105469 24.441406 14.042969 24.441406 13.980469 C 24.441406 13.570312 24.773438 13.238281 25.183594 13.238281 C 25.265625 13.238281 25.34375 13.25 25.421875 13.273438 L 25.421875 12.5625 C 25.421875 12.417969 25.539062 12.296875 25.683594 12.296875 C 25.832031 12.296875 25.949219 12.417969 25.949219 12.5625 Z M 25.949219 14.433594 " fill-opacity="1" fill-rule="nonzero"/></g><path fill="#935f3d" d="M 25.183594 13.765625 C 25.066406 13.765625 24.972656 13.863281 24.972656 13.980469 C 24.972656 14.097656 25.066406 14.191406 25.183594 14.191406 C 25.304688 14.191406 25.398438 14.097656 25.398438 13.980469 C 25.398438 13.863281 25.304688 13.765625 25.183594 13.765625 Z M 25.183594 13.765625 " fill-opacity="1" fill-rule="nonzero"/><path fill="#935f3d" d="M 23.476562 13.6875 L 23.726562 13.6875 L 23.601562 13.339844 Z M 23.476562 13.6875 " fill-opacity="1" fill-rule="nonzero"/><g clip-path="url(#f2892aada7)"><path fill="#935f3d" d="M 24.605469 21.957031 L 23.84375 21.628906 L 24.082031 20.832031 C 24.101562 20.757812 24.078125 20.671875 24.015625 20.621094 C 23.957031 20.566406 23.871094 20.554688 23.796875 20.589844 L 22.582031 21.160156 C 22.527344 21.183594 22.488281 21.230469 22.46875 21.285156 L 22.210938 22.167969 L 21.867188 22.328125 C 21.789062 22.195312 21.695312 22.066406 21.589844 21.953125 C 21.617188 21.925781 21.644531 21.898438 21.671875 21.871094 L 21.351562 21.539062 C 21.316406 21.574219 21.277344 21.605469 21.242188 21.640625 C 21.109375 21.546875 20.96875 21.46875 20.816406 21.402344 C 20.542969 21.289062 20.253906 21.230469 19.953125 21.230469 C 19.65625 21.230469 19.363281 21.289062 19.09375 21.402344 C 18.828125 21.515625 18.59375 21.675781 18.386719 21.878906 C 18.183594 22.082031 18.023438 22.316406 17.914062 22.582031 C 17.796875 22.855469 17.738281 23.144531 17.738281 23.441406 C 17.738281 23.519531 17.742188 23.59375 17.75 23.667969 C 17.707031 23.683594 17.660156 23.699219 17.613281 23.710938 L 17.742188 24.15625 C 17.777344 24.148438 17.8125 24.136719 17.847656 24.125 C 17.867188 24.1875 17.890625 24.246094 17.914062 24.304688 C 18.027344 24.566406 18.1875 24.804688 18.390625 25.007812 C 18.59375 25.210938 18.828125 25.371094 19.09375 25.484375 C 19.367188 25.597656 19.65625 25.65625 19.953125 25.65625 C 20.253906 25.65625 20.542969 25.597656 20.816406 25.484375 C 21.078125 25.371094 21.316406 25.210938 21.519531 25.007812 C 21.722656 24.804688 21.882812 24.570312 21.996094 24.304688 C 22.109375 24.03125 22.167969 23.742188 22.167969 23.441406 C 22.167969 23.1875 22.125 22.9375 22.039062 22.699219 L 22.382812 22.539062 L 23.226562 22.902344 C 23.253906 22.914062 23.28125 22.917969 23.308594 22.917969 C 23.339844 22.917969 23.371094 22.914062 23.394531 22.898438 L 24.613281 22.332031 C 24.683594 22.296875 24.730469 22.222656 24.730469 22.140625 C 24.726562 22.0625 24.679688 21.988281 24.605469 21.957031 Z M 21.230469 24.71875 C 20.886719 25.058594 20.433594 25.246094 19.953125 25.246094 C 19.472656 25.246094 19.019531 25.058594 18.679688 24.71875 C 18.335938 24.378906 18.148438 23.925781 18.148438 23.441406 C 18.148438 22.960938 18.335938 22.507812 18.679688 22.167969 C 19.019531 21.828125 19.472656 21.640625 19.953125 21.640625 C 20.433594 21.640625 20.886719 21.828125 21.230469 22.167969 C 21.332031 22.269531 21.417969 22.382812 21.492188 22.5 L 21.195312 22.640625 C 21.140625 22.554688 21.074219 22.472656 21 22.398438 C 20.71875 22.117188 20.347656 21.964844 19.953125 21.964844 C 19.558594 21.964844 19.1875 22.117188 18.910156 22.398438 C 18.628906 22.675781 18.476562 23.046875 18.476562 23.441406 C 18.476562 23.835938 18.628906 24.210938 18.910156 24.488281 C 19.1875 24.765625 19.558594 24.921875 19.953125 24.921875 C 20.347656 24.921875 20.71875 24.765625 21 24.488281 C 21.277344 24.210938 21.433594 23.835938 21.433594 23.441406 C 21.433594 23.292969 21.410156 23.148438 21.371094 23.011719 L 21.667969 22.875 C 21.726562 23.054688 21.757812 23.246094 21.757812 23.441406 C 21.757812 23.925781 21.570312 24.378906 21.230469 24.71875 Z M 19.78125 23.527344 C 19.816406 23.601562 19.890625 23.648438 19.96875 23.648438 C 20 23.648438 20.027344 23.640625 20.054688 23.628906 L 20.277344 23.527344 C 20.238281 23.667969 20.109375 23.777344 19.953125 23.777344 C 19.769531 23.777344 19.621094 23.628906 19.621094 23.441406 C 19.621094 23.257812 19.769531 23.109375 19.953125 23.109375 C 20.007812 23.109375 20.0625 23.125 20.109375 23.148438 L 19.882812 23.257812 C 19.78125 23.304688 19.734375 23.425781 19.78125 23.527344 Z M 19.953125 22.699219 C 19.542969 22.699219 19.210938 23.03125 19.210938 23.441406 C 19.210938 23.851562 19.542969 24.1875 19.953125 24.1875 C 20.363281 24.1875 20.695312 23.851562 20.695312 23.441406 C 20.695312 23.40625 20.695312 23.367188 20.6875 23.332031 L 20.992188 23.191406 C 21.011719 23.273438 21.019531 23.355469 21.019531 23.441406 C 21.019531 24.03125 20.542969 24.511719 19.953125 24.511719 C 19.363281 24.511719 18.886719 24.03125 18.886719 23.441406 C 18.886719 22.855469 19.363281 22.375 19.953125 22.375 C 20.308594 22.375 20.625 22.550781 20.820312 22.816406 L 20.515625 22.957031 C 20.378906 22.800781 20.179688 22.699219 19.953125 22.699219 Z M 19.953125 22.699219 " fill-opacity="1" fill-rule="nonzero"/></g><path fill="#935f3d" d="M 10.394531 7.210938 L 10.15625 6.8125 C 10.042969 6.878906 9.925781 6.953125 9.816406 7.023438 L 10.070312 7.414062 C 10.175781 7.34375 10.285156 7.277344 10.394531 7.210938 Z M 10.394531 7.210938 " fill-opacity="1" fill-rule="nonzero"/><path fill="#935f3d" d="M 10.988281 6.886719 L 10.777344 6.46875 C 10.660156 6.53125 10.539062 6.59375 10.421875 6.65625 L 10.648438 7.0625 C 10.761719 7.003906 10.875 6.941406 10.988281 6.886719 Z M 10.988281 6.886719 " fill-opacity="1" fill-rule="nonzero"/><path fill="#935f3d" d="M 6.824219 11.164062 L 6.402344 10.96875 C 6.347656 11.089844 6.292969 11.214844 6.242188 11.335938 L 6.671875 11.515625 C 6.71875 11.398438 6.773438 11.28125 6.824219 11.164062 Z M 6.824219 11.164062 " fill-opacity="1" fill-rule="nonzero"/><path fill="#935f3d" d="M 8.785156 8.4375 L 8.464844 8.101562 C 8.371094 8.191406 8.273438 8.289062 8.179688 8.382812 L 8.515625 8.707031 C 8.605469 8.613281 8.695312 8.523438 8.785156 8.4375 Z M 8.785156 8.4375 " fill-opacity="1" fill-rule="nonzero"/><path fill="#935f3d" d="M 9.292969 7.988281 L 8.996094 7.628906 C 8.894531 7.714844 8.792969 7.800781 8.691406 7.890625 L 9.003906 8.238281 C 9.097656 8.152344 9.195312 8.070312 9.292969 7.988281 Z M 9.292969 7.988281 " fill-opacity="1" fill-rule="nonzero"/><path fill="#935f3d" d="M 9.828125 7.578125 L 9.5625 7.199219 C 9.453125 7.277344 9.34375 7.355469 9.238281 7.4375 L 9.523438 7.804688 C 9.621094 7.726562 9.726562 7.652344 9.828125 7.578125 Z M 9.828125 7.578125 " fill-opacity="1" fill-rule="nonzero"/><path fill="#935f3d" d="M 11.601562 6.605469 L 11.421875 6.175781 C 11.300781 6.226562 11.175781 6.28125 11.054688 6.335938 L 11.25 6.757812 C 11.367188 6.703125 11.484375 6.652344 11.601562 6.605469 Z M 11.601562 6.605469 " fill-opacity="1" fill-rule="nonzero"/><path fill="#935f3d" d="M 12.234375 6.371094 L 12.089844 5.929688 C 11.964844 5.972656 11.835938 6.015625 11.710938 6.0625 L 11.875 6.5 C 11.992188 6.453125 12.113281 6.410156 12.234375 6.371094 Z M 12.234375 6.371094 " fill-opacity="1" fill-rule="nonzero"/><path fill="#935f3d" d="M 7.132812 10.566406 L 6.730469 10.335938 C 6.664062 10.453125 6.601562 10.574219 6.539062 10.691406 L 6.957031 10.902344 C 7.011719 10.789062 7.074219 10.675781 7.132812 10.566406 Z M 7.132812 10.566406 " fill-opacity="1" fill-rule="nonzero"/><path fill="#935f3d" d="M 8.316406 8.921875 L 7.96875 8.609375 C 7.878906 8.707031 7.792969 8.8125 7.707031 8.914062 L 8.066406 9.210938 C 8.144531 9.113281 8.230469 9.015625 8.316406 8.921875 Z M 8.316406 8.921875 " fill-opacity="1" fill-rule="nonzero"/><path fill="#935f3d" d="M 12.882812 6.1875 L 12.769531 5.734375 C 12.640625 5.765625 12.511719 5.800781 12.382812 5.839844 L 12.511719 6.285156 C 12.636719 6.25 12.757812 6.21875 12.882812 6.1875 Z M 12.882812 6.1875 " fill-opacity="1" fill-rule="nonzero"/><path fill="#935f3d" d="M 7.882812 9.4375 L 7.515625 9.152344 C 7.433594 9.257812 7.351562 9.367188 7.273438 9.476562 L 7.652344 9.746094 C 7.726562 9.640625 7.804688 9.539062 7.882812 9.4375 Z M 7.882812 9.4375 " fill-opacity="1" fill-rule="nonzero"/><path fill="#935f3d" d="M 7.488281 9.988281 L 7.097656 9.730469 C 7.027344 9.839844 6.953125 9.957031 6.882812 10.070312 L 7.28125 10.3125 C 7.347656 10.203125 7.417969 10.09375 7.488281 9.988281 Z M 7.488281 9.988281 " fill-opacity="1" fill-rule="nonzero"/><path fill="#935f3d" d="M 13.222656 6.109375 C 13.390625 6.472656 13.757812 6.726562 14.183594 6.726562 L 14.230469 6.726562 L 14.230469 8.078125 C 14.230469 8.335938 14.4375 8.542969 14.695312 8.542969 C 14.953125 8.542969 15.160156 8.335938 15.160156 8.078125 L 15.160156 6.726562 L 15.546875 6.726562 L 15.546875 4.617188 L 14.183594 4.617188 C 13.609375 4.617188 13.140625 5.082031 13.128906 5.652344 C 13.113281 5.65625 13.09375 5.660156 13.074219 5.664062 L 13.171875 6.121094 C 13.1875 6.117188 13.207031 6.113281 13.222656 6.109375 Z M 13.222656 6.109375 " fill-opacity="1" fill-rule="nonzero"/><path fill="#935f3d" d="M 7.140625 19.453125 L 6.738281 19.679688 C 6.804688 19.796875 6.871094 19.914062 6.945312 20.03125 L 7.339844 19.785156 C 7.273438 19.675781 7.207031 19.5625 7.140625 19.453125 Z M 7.140625 19.453125 " fill-opacity="1" fill-rule="nonzero"/><path fill="#935f3d" d="M 7.902344 20.589844 L 7.535156 20.875 C 7.617188 20.980469 7.707031 21.085938 7.792969 21.1875 L 8.148438 20.886719 C 8.0625 20.789062 7.980469 20.6875 7.902344 20.589844 Z M 7.902344 20.589844 " fill-opacity="1" fill-rule="nonzero"/><path fill="#935f3d" d="M 6.5625 18.214844 L 6.128906 18.378906 C 6.175781 18.503906 6.226562 18.632812 6.28125 18.753906 L 6.707031 18.574219 C 6.65625 18.453125 6.609375 18.332031 6.5625 18.214844 Z M 6.5625 18.214844 " fill-opacity="1" fill-rule="nonzero"/><path fill="#935f3d" d="M 6.34375 17.566406 L 5.898438 17.695312 C 5.9375 17.824219 5.976562 17.957031 6.023438 18.082031 L 6.460938 17.933594 C 6.421875 17.8125 6.382812 17.6875 6.34375 17.566406 Z M 6.34375 17.566406 " fill-opacity="1" fill-rule="nonzero"/><path fill="#935f3d" d="M 7.5 20.035156 L 7.113281 20.292969 C 7.1875 20.40625 7.265625 20.515625 7.347656 20.625 L 7.722656 20.351562 C 7.644531 20.246094 7.570312 20.140625 7.5 20.035156 Z M 7.5 20.035156 " fill-opacity="1" fill-rule="nonzero"/><path fill="#935f3d" d="M 6.179688 16.902344 L 5.722656 17 C 5.75 17.132812 5.78125 17.265625 5.816406 17.394531 L 6.265625 17.277344 C 6.234375 17.15625 6.203125 17.027344 6.179688 16.902344 Z M 6.179688 16.902344 " fill-opacity="1" fill-rule="nonzero"/><path fill="#935f3d" d="M 6.828125 18.84375 L 6.410156 19.039062 C 6.464844 19.160156 6.527344 19.285156 6.589844 19.402344 L 7 19.1875 C 6.941406 19.074219 6.882812 18.960938 6.828125 18.84375 Z M 6.828125 18.84375 " fill-opacity="1" fill-rule="nonzero"/><g clip-path="url(#e46c2cf149)"><path fill="#935f3d" d="M 6.105469 16.515625 L 7.375 16.515625 C 7.800781 16.515625 8.148438 16.171875 8.148438 15.746094 L 8.148438 12.527344 C 8.148438 12.101562 7.800781 11.757812 7.375 11.757812 L 6.480469 11.757812 L 6.128906 11.625 C 6.109375 11.667969 6.09375 11.714844 6.078125 11.757812 L 4.15625 11.757812 C 3.734375 11.757812 3.386719 12.101562 3.386719 12.527344 L 3.386719 15.746094 C 3.386719 16.171875 3.734375 16.515625 4.15625 16.515625 L 5.632812 16.515625 C 5.640625 16.574219 5.652344 16.632812 5.664062 16.691406 L 6.121094 16.609375 C 6.113281 16.578125 6.109375 16.546875 6.105469 16.515625 Z M 6.648438 15.765625 L 6.246094 15.765625 L 6.246094 15.402344 L 6.648438 15.402344 Z M 6.960938 12.535156 L 7.363281 12.535156 L 7.363281 12.894531 L 6.960938 12.894531 Z M 6.960938 15.402344 L 7.363281 15.402344 L 7.363281 15.765625 L 6.960938 15.765625 Z M 6.246094 12.535156 L 6.648438 12.535156 L 6.648438 12.894531 L 6.246094 12.894531 Z M 5.527344 12.535156 L 5.933594 12.535156 L 5.933594 12.894531 L 5.527344 12.894531 Z M 4.8125 12.535156 L 5.214844 12.535156 L 5.214844 12.894531 L 4.8125 12.894531 Z M 4.5 15.765625 L 4.097656 15.765625 L 4.097656 15.402344 L 4.5 15.402344 Z M 4.5 12.894531 L 4.097656 12.894531 L 4.097656 12.535156 L 4.5 12.535156 Z M 5.214844 15.765625 L 4.8125 15.765625 L 4.8125 15.402344 L 5.214844 15.402344 Z M 5.234375 15.109375 C 5.195312 15.109375 5.152344 15.101562 5.117188 15.078125 C 5.046875 15.035156 5.003906 14.960938 5.003906 14.878906 L 5.003906 13.394531 C 5.003906 13.3125 5.046875 13.234375 5.117188 13.195312 C 5.191406 13.152344 5.277344 13.152344 5.351562 13.195312 L 6.632812 13.933594 C 6.707031 13.976562 6.75 14.054688 6.75 14.136719 C 6.75 14.21875 6.707031 14.296875 6.632812 14.335938 L 5.351562 15.078125 C 5.316406 15.101562 5.273438 15.109375 5.234375 15.109375 Z M 5.933594 15.765625 L 5.527344 15.765625 L 5.527344 15.402344 L 5.933594 15.402344 Z M 5.933594 15.765625 " fill-opacity="1" fill-rule="nonzero"/></g><path fill="#935f3d" d="M 15.054688 24.078125 C 15 24.078125 14.941406 24.074219 14.886719 24.074219 L 14.878906 24.539062 C 14.9375 24.539062 14.996094 24.542969 15.054688 24.542969 C 15.132812 24.542969 15.210938 24.539062 15.289062 24.539062 L 15.277344 24.074219 C 15.203125 24.074219 15.128906 24.078125 15.054688 24.078125 Z M 15.054688 24.078125 " fill-opacity="1" fill-rule="nonzero"/><path fill="#935f3d" d="M 15.578125 24.0625 L 15.601562 24.527344 C 15.738281 24.519531 15.875 24.507812 16.011719 24.496094 L 15.964844 24.03125 C 15.835938 24.042969 15.707031 24.054688 15.578125 24.0625 Z M 15.578125 24.0625 " fill-opacity="1" fill-rule="nonzero"/><path fill="#935f3d" d="M 16.941406 23.878906 L 17.039062 24.335938 C 17.171875 24.304688 17.304688 24.273438 17.4375 24.242188 L 17.320312 23.789062 C 17.195312 23.824219 17.070312 23.851562 16.941406 23.878906 Z M 16.941406 23.878906 " fill-opacity="1" fill-rule="nonzero"/><path fill="#935f3d" d="M 14.152344 24.5 C 14.289062 24.511719 14.425781 24.523438 14.5625 24.53125 L 14.585938 24.066406 C 14.457031 24.058594 14.324219 24.046875 14.195312 24.035156 Z M 14.152344 24.5 " fill-opacity="1" fill-rule="nonzero"/><path fill="#935f3d" d="M 16.261719 23.996094 L 16.324219 24.457031 C 16.460938 24.4375 16.597656 24.417969 16.730469 24.394531 L 16.648438 23.9375 C 16.519531 23.960938 16.390625 23.980469 16.261719 23.996094 Z M 16.261719 23.996094 " fill-opacity="1" fill-rule="nonzero"/><path fill="#935f3d" d="M 13.433594 24.40625 C 13.570312 24.425781 13.707031 24.449219 13.839844 24.464844 L 13.898438 24.003906 C 13.769531 23.988281 13.640625 23.96875 13.511719 23.945312 Z M 13.433594 24.40625 " fill-opacity="1" fill-rule="nonzero"/><path fill="#935f3d" d="M 12.027344 24.050781 C 12.15625 24.09375 12.289062 24.136719 12.417969 24.171875 L 12.546875 23.726562 C 12.421875 23.691406 12.296875 23.652344 12.175781 23.609375 Z M 12.027344 24.050781 " fill-opacity="1" fill-rule="nonzero"/><path fill="#935f3d" d="M 12.726562 24.253906 C 12.855469 24.289062 12.992188 24.320312 13.125 24.347656 L 13.21875 23.890625 C 13.089844 23.863281 12.964844 23.835938 12.839844 23.804688 Z M 12.726562 24.253906 " fill-opacity="1" fill-rule="nonzero"/><g clip-path="url(#59b7ff6ca9)"><path fill="#935f3d" d="M 11.78125 22.171875 C 11.78125 22.167969 11.78125 22.160156 11.78125 22.152344 L 11 22.152344 C 10.746094 22.152344 10.539062 21.945312 10.539062 21.691406 L 10.539062 21.019531 L 8.210938 21.019531 C 8.097656 21.019531 8.003906 21.113281 8.003906 21.226562 L 8.003906 21.417969 L 8 21.425781 C 8 21.425781 8.003906 21.429688 8.003906 21.429688 L 8.003906 25.449219 C 8.003906 25.5625 8.097656 25.65625 8.210938 25.65625 L 11.578125 25.65625 C 11.691406 25.65625 11.78125 25.5625 11.78125 25.449219 L 11.78125 23.808594 L 11.890625 23.511719 C 11.855469 23.496094 11.820312 23.484375 11.78125 23.46875 Z M 10.875 24.976562 L 8.910156 24.976562 C 8.796875 24.976562 8.707031 24.886719 8.707031 24.773438 C 8.707031 24.660156 8.796875 24.566406 8.910156 24.566406 L 10.875 24.566406 C 10.988281 24.566406 11.082031 24.660156 11.082031 24.773438 C 11.082031 24.886719 10.988281 24.976562 10.875 24.976562 Z M 10.875 24.28125 L 8.910156 24.28125 C 8.796875 24.28125 8.707031 24.1875 8.707031 24.074219 C 8.707031 23.960938 8.796875 23.871094 8.910156 23.871094 L 10.875 23.871094 C 10.988281 23.871094 11.082031 23.960938 11.082031 24.074219 C 11.082031 24.1875 10.988281 24.28125 10.875 24.28125 Z M 10.875 23.585938 L 8.910156 23.585938 C 8.796875 23.585938 8.707031 23.492188 8.707031 23.378906 C 8.707031 23.265625 8.796875 23.175781 8.910156 23.175781 L 10.875 23.175781 C 10.988281 23.175781 11.082031 23.265625 11.082031 23.378906 C 11.082031 23.492188 10.988281 23.585938 10.875 23.585938 Z M 10.875 22.886719 L 8.910156 22.886719 C 8.796875 22.886719 8.707031 22.796875 8.707031 22.683594 C 8.707031 22.570312 8.796875 22.476562 8.910156 22.476562 L 10.875 22.476562 C 10.988281 22.476562 11.082031 22.570312 11.082031 22.683594 C 11.082031 22.796875 10.988281 22.886719 10.875 22.886719 Z M 10.875 22.886719 " fill-opacity="1" fill-rule="nonzero"/></g><path fill="#935f3d" d="M 23.714844 17.714844 L 24.160156 17.855469 C 24.203125 17.722656 24.242188 17.585938 24.277344 17.453125 L 23.828125 17.332031 C 23.792969 17.460938 23.757812 17.589844 23.714844 17.714844 Z M 23.714844 17.714844 " fill-opacity="1" fill-rule="nonzero"/><path fill="#935f3d" d="M 22.039062 20.796875 L 22.398438 21.09375 C 22.484375 20.984375 22.574219 20.875 22.65625 20.765625 L 22.289062 20.484375 C 22.207031 20.589844 22.125 20.695312 22.039062 20.796875 Z M 22.039062 20.796875 " fill-opacity="1" fill-rule="nonzero"/><path fill="#935f3d" d="M 21.566406 21.320312 L 21.902344 21.644531 C 22 21.546875 22.09375 21.441406 22.1875 21.335938 L 21.839844 21.027344 C 21.75 21.128906 21.660156 21.226562 21.566406 21.320312 Z M 21.566406 21.320312 " fill-opacity="1" fill-rule="nonzero"/><path fill="#935f3d" d="M 22.46875 20.234375 L 22.847656 20.503906 C 22.929688 20.390625 23.007812 20.273438 23.082031 20.15625 L 22.691406 19.90625 C 22.621094 20.015625 22.546875 20.128906 22.46875 20.234375 Z M 22.46875 20.234375 " fill-opacity="1" fill-rule="nonzero"/><path fill="#935f3d" d="M 23.191406 19.023438 L 23.609375 19.230469 C 23.667969 19.105469 23.730469 18.976562 23.785156 18.851562 L 23.359375 18.664062 C 23.308594 18.785156 23.25 18.90625 23.191406 19.023438 Z M 23.191406 19.023438 " fill-opacity="1" fill-rule="nonzero"/><path fill="#935f3d" d="M 22.851562 19.644531 L 23.253906 19.882812 C 23.324219 19.761719 23.394531 19.640625 23.460938 19.519531 L 23.050781 19.296875 C 22.988281 19.414062 22.921875 19.53125 22.851562 19.644531 Z M 22.851562 19.644531 " fill-opacity="1" fill-rule="nonzero"/><path fill="#935f3d" d="M 23.480469 18.378906 L 23.910156 18.554688 C 23.964844 18.425781 24.011719 18.292969 24.058594 18.160156 L 23.621094 18.007812 C 23.578125 18.132812 23.527344 18.257812 23.480469 18.378906 Z M 23.480469 18.378906 " fill-opacity="1" fill-rule="nonzero"/><path fill="#935f3d" d="M 24.4375 16.726562 L 23.980469 16.644531 C 23.957031 16.773438 23.929688 16.90625 23.902344 17.035156 L 24.355469 17.136719 C 24.386719 17 24.414062 16.863281 24.4375 16.726562 Z M 24.4375 16.726562 " fill-opacity="1" fill-rule="nonzero"/><path fill="#935f3d" d="M 19.726562 7.21875 L 19.964844 6.820312 C 19.90625 6.785156 19.851562 6.75 19.792969 6.71875 L 19.5625 7.121094 C 19.613281 7.152344 19.671875 7.183594 19.726562 7.21875 Z M 19.726562 7.21875 " fill-opacity="1" fill-rule="nonzero"/><path fill="#935f3d" d="M 22.351562 9.605469 L 22.726562 9.328125 C 22.640625 9.214844 22.554688 9.101562 22.464844 8.992188 L 22.105469 9.285156 C 22.1875 9.386719 22.273438 9.496094 22.351562 9.605469 Z M 22.351562 9.605469 " fill-opacity="1" fill-rule="nonzero"/><path fill="#935f3d" d="M 23.109375 10.8125 L 23.519531 10.597656 C 23.453125 10.472656 23.386719 10.347656 23.316406 10.226562 L 22.914062 10.460938 C 22.980469 10.574219 23.046875 10.695312 23.109375 10.8125 Z M 23.109375 10.8125 " fill-opacity="1" fill-rule="nonzero"/><path fill="#935f3d" d="M 22.753906 10.191406 L 23.148438 9.945312 C 23.074219 9.828125 22.996094 9.707031 22.914062 9.59375 L 22.53125 9.855469 C 22.609375 9.964844 22.683594 10.082031 22.753906 10.191406 Z M 22.753906 10.191406 " fill-opacity="1" fill-rule="nonzero"/><path fill="#935f3d" d="M 23.414062 11.457031 L 23.839844 11.277344 C 23.785156 11.148438 23.726562 11.015625 23.667969 10.890625 L 23.246094 11.089844 C 23.304688 11.210938 23.359375 11.335938 23.414062 11.457031 Z M 23.414062 11.457031 " fill-opacity="1" fill-rule="nonzero"/><path fill="#935f3d" d="M 20.886719 8.046875 L 21.1875 7.691406 C 21.078125 7.601562 20.964844 7.511719 20.855469 7.425781 L 20.570312 7.792969 C 20.679688 7.875 20.785156 7.960938 20.886719 8.046875 Z M 20.886719 8.046875 " fill-opacity="1" fill-rule="nonzero"/><path fill="#935f3d" d="M 21.414062 8.527344 L 21.742188 8.195312 C 21.640625 8.097656 21.539062 8 21.433594 7.90625 L 21.121094 8.25 C 21.21875 8.339844 21.320312 8.433594 21.414062 8.527344 Z M 21.414062 8.527344 " fill-opacity="1" fill-rule="nonzero"/><path fill="#935f3d" d="M 21.90625 9.046875 L 22.253906 8.742188 C 22.164062 8.636719 22.066406 8.53125 21.96875 8.429688 L 21.632812 8.75 C 21.726562 8.84375 21.816406 8.945312 21.90625 9.046875 Z M 21.90625 9.046875 " fill-opacity="1" fill-rule="nonzero"/><path fill="#935f3d" d="M 20.59375 7.230469 C 20.476562 7.148438 20.359375 7.070312 20.242188 6.992188 L 19.988281 7.382812 C 20.101562 7.457031 20.214844 7.53125 20.324219 7.609375 Z M 20.59375 7.230469 " fill-opacity="1" fill-rule="nonzero"/><path fill="#935f3d" d="M 11.585938 21.890625 L 10.796875 21.105469 L 10.796875 21.691406 C 10.796875 21.800781 10.890625 21.890625 11 21.890625 Z M 11.585938 21.890625 " fill-opacity="1" fill-rule="nonzero"/><path fill="#935f3d" d="M 5.464844 14.472656 L 6.050781 14.136719 L 5.464844 13.796875 Z M 5.464844 14.472656 " fill-opacity="1" fill-rule="nonzero"/><g clip-path="url(#9e33b8b870)"><path fill="#935f3d" d="M 17.8125 7.886719 C 17.855469 7.925781 17.910156 7.945312 17.96875 7.945312 C 18 7.945312 18.03125 7.941406 18.0625 7.925781 C 18.144531 7.890625 18.199219 7.804688 18.199219 7.714844 L 18.199219 6.339844 C 18.476562 6.242188 18.675781 5.980469 18.675781 5.671875 C 18.675781 5.363281 18.476562 5.101562 18.199219 5.003906 L 18.199219 3.625 C 18.199219 3.53125 18.144531 3.449219 18.0625 3.414062 C 17.976562 3.375 17.878906 3.390625 17.8125 3.453125 L 17.539062 3.699219 C 17.101562 4.09375 16.578125 4.382812 16.015625 4.539062 L 16.015625 6.800781 C 16.578125 6.957031 17.101562 7.246094 17.539062 7.640625 Z M 17.8125 7.886719 " fill-opacity="1" fill-rule="nonzero"/></g><path fill="#935f3d" d="M 17.441406 19.855469 L 16.410156 19.855469 L 16.410156 18.898438 L 20.058594 18.898438 C 20.1875 18.898438 20.292969 18.792969 20.292969 18.664062 L 20.292969 17.535156 L 9.976562 17.535156 L 9.976562 18.664062 C 9.976562 18.792969 10.078125 18.898438 10.207031 18.898438 L 13.855469 18.898438 L 13.855469 19.855469 L 12.824219 19.855469 C 12.695312 19.855469 12.589844 19.957031 12.589844 20.085938 C 12.589844 20.214844 12.695312 20.320312 12.824219 20.320312 L 17.445312 20.320312 C 17.574219 20.320312 17.675781 20.214844 17.675781 20.085938 C 17.675781 19.957031 17.570312 19.855469 17.441406 19.855469 Z M 17.441406 19.855469 " fill-opacity="1" fill-rule="nonzero"/><path fill="#935f3d" d="M 15.066406 15.9375 C 15.605469 15.9375 16.113281 15.703125 16.464844 15.296875 L 16.246094 14.558594 C 16.21875 14.476562 16.242188 14.386719 16.304688 14.328125 C 16.363281 14.265625 16.453125 14.246094 16.535156 14.269531 L 16.894531 14.375 C 16.902344 14.324219 16.910156 14.269531 16.910156 14.214844 C 16.914062 14.171875 16.917969 14.128906 16.917969 14.085938 C 16.917969 13.59375 16.722656 13.128906 16.375 12.777344 C 16.023438 12.429688 15.558594 12.238281 15.066406 12.238281 C 14.570312 12.238281 14.109375 12.429688 13.757812 12.777344 C 13.410156 13.128906 13.214844 13.59375 13.214844 14.085938 C 13.214844 14.582031 13.410156 15.046875 13.757812 15.394531 C 14.105469 15.746094 14.570312 15.9375 15.066406 15.9375 Z M 14.328125 14.632812 C 14.328125 14.503906 14.433594 14.398438 14.5625 14.398438 C 14.6875 14.398438 14.792969 14.503906 14.792969 14.632812 L 14.792969 14.667969 C 14.792969 14.789062 14.890625 14.886719 15.011719 14.886719 L 15.039062 14.886719 C 15.046875 14.886719 15.054688 14.886719 15.066406 14.886719 C 15.074219 14.886719 15.085938 14.886719 15.09375 14.886719 L 15.121094 14.886719 C 15.242188 14.886719 15.339844 14.789062 15.339844 14.667969 L 15.339844 14.648438 C 15.339844 14.566406 15.289062 14.488281 15.210938 14.453125 L 14.726562 14.230469 C 14.484375 14.121094 14.328125 13.878906 14.328125 13.613281 L 14.328125 13.597656 C 14.328125 13.28125 14.542969 13.015625 14.832031 12.9375 L 14.832031 12.828125 C 14.832031 12.699219 14.9375 12.597656 15.066406 12.597656 C 15.195312 12.597656 15.296875 12.699219 15.296875 12.828125 L 15.296875 12.9375 C 15.589844 13.015625 15.804688 13.28125 15.804688 13.597656 C 15.804688 13.726562 15.699219 13.828125 15.570312 13.828125 C 15.441406 13.828125 15.339844 13.726562 15.339844 13.597656 C 15.339844 13.476562 15.242188 13.378906 15.121094 13.378906 L 15.011719 13.378906 C 14.890625 13.378906 14.792969 13.476562 14.792969 13.597656 L 14.792969 13.613281 C 14.792969 13.695312 14.84375 13.773438 14.921875 13.808594 L 15.40625 14.027344 C 15.648438 14.140625 15.804688 14.382812 15.804688 14.648438 L 15.804688 14.667969 C 15.804688 14.984375 15.589844 15.25 15.296875 15.328125 L 15.296875 15.453125 C 15.296875 15.582031 15.195312 15.6875 15.066406 15.6875 C 14.9375 15.6875 14.832031 15.582031 14.832031 15.453125 L 14.832031 15.328125 C 14.542969 15.25 14.328125 14.984375 14.328125 14.667969 Z M 14.328125 14.632812 " fill-opacity="1" fill-rule="nonzero"/><path fill="#935f3d" d="M 9.976562 11.332031 L 9.976562 17.070312 L 20.292969 17.070312 L 20.292969 11.332031 C 20.292969 11.203125 20.1875 11.097656 20.058594 11.097656 L 10.207031 11.097656 C 10.078125 11.097656 9.976562 11.203125 9.976562 11.332031 Z M 12.933594 13.1875 C 13.050781 12.910156 13.214844 12.664062 13.429688 12.449219 C 13.640625 12.238281 13.890625 12.070312 14.164062 11.953125 C 14.449219 11.832031 14.753906 11.773438 15.066406 11.773438 C 15.378906 11.773438 15.683594 11.832031 15.96875 11.953125 C 16.242188 12.070312 16.492188 12.238281 16.703125 12.449219 C 16.914062 12.664062 17.082031 12.910156 17.199219 13.1875 C 17.320312 13.472656 17.378906 13.773438 17.378906 14.085938 C 17.378906 14.140625 17.378906 14.195312 17.375 14.246094 C 17.371094 14.335938 17.359375 14.425781 17.34375 14.511719 L 18.40625 14.832031 C 18.484375 14.855469 18.546875 14.917969 18.566406 14.996094 C 18.585938 15.078125 18.5625 15.160156 18.503906 15.21875 L 18.34375 15.378906 L 18.738281 15.769531 C 18.828125 15.863281 18.828125 16.007812 18.738281 16.101562 L 18.074219 16.761719 C 18.03125 16.804688 17.972656 16.828125 17.910156 16.828125 C 17.851562 16.828125 17.792969 16.804688 17.746094 16.761719 L 17.355469 16.367188 L 17.195312 16.53125 C 17.136719 16.585938 17.050781 16.609375 16.972656 16.589844 C 16.894531 16.570312 16.828125 16.511719 16.804688 16.433594 L 16.617188 15.804688 C 16.195312 16.1875 15.644531 16.402344 15.066406 16.402344 C 14.753906 16.402344 14.453125 16.339844 14.164062 16.21875 C 13.890625 16.101562 13.640625 15.9375 13.429688 15.722656 C 13.21875 15.511719 13.050781 15.261719 12.933594 14.988281 C 12.8125 14.703125 12.753906 14.398438 12.753906 14.085938 C 12.75 13.773438 12.8125 13.472656 12.933594 13.1875 Z M 12.933594 13.1875 " fill-opacity="1" fill-rule="nonzero"/><path fill="#935f3d" d="M 17.140625 15.925781 L 17.191406 15.875 C 17.234375 15.832031 17.292969 15.808594 17.355469 15.808594 C 17.414062 15.808594 17.476562 15.832031 17.519531 15.875 L 17.910156 16.269531 L 18.242188 15.9375 L 17.851562 15.542969 C 17.808594 15.5 17.78125 15.441406 17.78125 15.378906 C 17.78125 15.316406 17.808594 15.257812 17.851562 15.214844 L 17.902344 15.164062 L 16.8125 14.839844 Z M 17.140625 15.925781 " fill-opacity="1" fill-rule="nonzero"/></svg>