<svg xmlns="http://www.w3.org/2000/svg" xmlns:xlink="http://www.w3.org/1999/xlink" width="40" zoomAndPan="magnify" viewBox="0 0 30 30.000001" height="40" preserveAspectRatio="xMidYMid meet" version="1.0"><defs><clipPath id="9a6baae236"><path d="M 0.484375 0 L 29.515625 0 L 29.515625 29.03125 L 0.484375 29.03125 Z M 0.484375 0 " clip-rule="nonzero"/></clipPath><clipPath id="80047679a3"><path d="M 3.386719 8.171875 L 26.613281 8.171875 L 26.613281 20.511719 L 3.386719 20.511719 Z M 3.386719 8.171875 " clip-rule="nonzero"/></clipPath></defs><g clip-path="url(#9a6baae236)"><path fill="#ffffff" d="M 0.484375 0 L 29.515625 0 L 29.515625 29.03125 L 0.484375 29.03125 Z M 0.484375 0 " fill-opacity="1" fill-rule="nonzero"/><path fill="#ffffff" d="M 0.484375 0 L 29.515625 0 L 29.515625 29.03125 L 0.484375 29.03125 Z M 0.484375 0 " fill-opacity="1" fill-rule="nonzero"/></g><g clip-path="url(#80047679a3)"><path fill="#935f3d" d="M 7.566406 13.441406 C 7.445312 13.503906 7.367188 13.589844 7.367188 13.703125 L 7.367188 13.917969 C 7.148438 14.121094 6.964844 14.28125 6.925781 14.292969 L 3.96875 14.996094 C 3.859375 15.027344 3.761719 15.003906 3.671875 14.933594 L 3.433594 14.761719 C 3.410156 14.746094 3.398438 14.722656 3.402344 14.691406 C 3.40625 14.664062 3.421875 14.640625 3.453125 14.632812 L 7.566406 13.015625 Z M 7.714844 13.386719 C 7.800781 13.359375 7.894531 13.34375 7.984375 13.335938 C 8.046875 13.328125 8.113281 13.328125 8.179688 13.328125 C 8.335938 13.324219 8.492188 13.34375 8.644531 13.386719 L 8.644531 13.296875 C 8.539062 13.164062 8.414062 13.058594 8.265625 12.980469 C 8.230469 12.960938 8.195312 12.945312 8.152344 12.925781 L 8.082031 12.898438 L 8.152344 12.804688 L 8.289062 12.617188 C 8.253906 12.613281 8.21875 12.613281 8.179688 12.613281 C 7.921875 12.613281 7.714844 12.691406 7.714844 12.792969 Z M 8.757812 13.253906 L 8.789062 13.238281 L 12.613281 11.699219 C 12.636719 11.691406 12.648438 11.671875 12.652344 11.644531 C 12.65625 11.621094 12.648438 11.601562 12.628906 11.582031 L 12.429688 11.425781 C 12.289062 11.316406 12.132812 11.285156 11.960938 11.332031 L 9.046875 12.125 C 8.84375 12.179688 8.679688 12.292969 8.554688 12.460938 L 8.515625 12.511719 L 8.496094 12.539062 L 8.429688 12.632812 L 8.421875 12.640625 L 8.269531 12.847656 C 8.410156 12.914062 8.535156 13.003906 8.644531 13.113281 C 8.6875 13.15625 8.726562 13.203125 8.757812 13.253906 Z M 21.257812 13.699219 C 21.292969 13.699219 21.3125 13.679688 21.3125 13.644531 C 21.3125 13.53125 21.386719 13.445312 21.507812 13.382812 L 21.507812 12.996094 L 19.480469 13.789062 Z M 22.234375 12.597656 C 22.195312 12.59375 22.160156 12.589844 22.121094 12.589844 C 21.863281 12.589844 21.65625 12.671875 21.65625 12.773438 L 21.65625 13.328125 C 21.757812 13.300781 21.863281 13.28125 21.96875 13.273438 C 22.019531 13.269531 22.070312 13.269531 22.121094 13.269531 C 22.277344 13.265625 22.433594 13.285156 22.585938 13.328125 L 22.585938 13.273438 C 22.480469 13.144531 22.355469 13.039062 22.210938 12.960938 C 22.171875 12.941406 22.136719 12.921875 22.097656 12.90625 L 22.027344 12.875 L 22.097656 12.78125 Z M 26.570312 11.5625 L 26.371094 11.402344 C 26.230469 11.292969 26.074219 11.261719 25.90625 11.3125 L 22.988281 12.105469 C 22.785156 12.160156 22.621094 12.273438 22.496094 12.441406 L 22.457031 12.492188 L 22.441406 12.515625 L 22.371094 12.609375 L 22.367188 12.617188 L 22.210938 12.828125 C 22.351562 12.894531 22.476562 12.984375 22.585938 13.09375 C 22.628906 13.136719 22.667969 13.179688 22.703125 13.230469 L 22.730469 13.21875 L 26.554688 11.679688 C 26.578125 11.667969 26.59375 11.652344 26.597656 11.625 C 26.597656 11.597656 26.589844 11.578125 26.570312 11.5625 Z M 22.785156 13.632812 C 22.785156 13.636719 22.785156 13.640625 22.785156 13.644531 L 22.785156 14.972656 C 22.785156 14.984375 22.785156 14.992188 22.78125 14.996094 C 22.769531 15.023438 22.753906 15.046875 22.730469 15.0625 C 22.722656 15.070312 22.714844 15.078125 22.703125 15.082031 C 22.699219 15.085938 22.695312 15.089844 22.6875 15.09375 C 22.664062 15.105469 22.636719 15.117188 22.613281 15.128906 C 22.609375 15.128906 22.609375 15.128906 22.609375 15.128906 C 22.621094 15.105469 22.628906 15.078125 22.628906 15.050781 C 22.628906 14.878906 22.363281 14.796875 22.121094 14.796875 C 21.875 14.796875 21.613281 14.878906 21.613281 15.050781 C 21.613281 15.078125 21.621094 15.105469 21.632812 15.128906 C 21.632812 15.128906 21.628906 15.128906 21.628906 15.128906 C 21.601562 15.117188 21.578125 15.105469 21.554688 15.09375 C 21.546875 15.089844 21.542969 15.085938 21.535156 15.082031 C 21.527344 15.078125 21.519531 15.070312 21.507812 15.0625 C 21.484375 15.046875 21.46875 15.023438 21.460938 14.996094 C 21.457031 14.992188 21.457031 14.984375 21.457031 14.972656 C 21.457031 14.960938 21.457031 14.949219 21.457031 14.9375 C 21.457031 14.933594 21.453125 14.929688 21.453125 14.925781 C 21.453125 14.917969 21.453125 14.910156 21.453125 14.902344 C 21.449219 14.898438 21.449219 14.894531 21.449219 14.890625 C 21.449219 14.882812 21.445312 14.875 21.445312 14.867188 C 21.445312 14.863281 21.445312 14.863281 21.445312 14.863281 C 21.441406 14.851562 21.4375 14.84375 21.433594 14.835938 C 21.433594 14.832031 21.433594 14.832031 21.433594 14.828125 C 21.429688 14.824219 21.425781 14.816406 21.425781 14.8125 C 21.421875 14.808594 21.421875 14.808594 21.421875 14.804688 C 21.417969 14.800781 21.414062 14.792969 21.410156 14.789062 C 21.410156 14.789062 21.410156 14.785156 21.40625 14.785156 C 21.402344 14.78125 21.398438 14.773438 21.394531 14.769531 C 21.390625 14.765625 21.390625 14.765625 21.390625 14.765625 C 21.386719 14.761719 21.382812 14.757812 21.378906 14.753906 C 21.375 14.75 21.375 14.75 21.375 14.75 C 21.371094 14.746094 21.363281 14.742188 21.359375 14.738281 C 21.359375 14.738281 21.359375 14.738281 21.355469 14.738281 C 21.351562 14.734375 21.347656 14.730469 21.339844 14.726562 C 21.339844 14.726562 21.335938 14.726562 21.335938 14.726562 C 21.332031 14.722656 21.328125 14.722656 21.324219 14.71875 C 21.320312 14.71875 21.320312 14.71875 21.316406 14.71875 C 21.3125 14.714844 21.308594 14.714844 21.304688 14.710938 C 21.300781 14.710938 21.300781 14.710938 21.300781 14.710938 C 21.292969 14.710938 21.285156 14.707031 21.28125 14.707031 C 21.28125 14.707031 21.277344 14.707031 21.277344 14.707031 C 21.273438 14.707031 21.269531 14.703125 21.261719 14.703125 C 21.261719 14.703125 21.261719 14.703125 21.257812 14.703125 C 21.253906 14.703125 21.25 14.703125 21.246094 14.703125 L 21.242188 14.703125 C 21.234375 14.703125 21.230469 14.703125 21.222656 14.703125 C 21.21875 14.703125 21.210938 14.703125 21.207031 14.703125 L 21.203125 14.703125 C 21.199219 14.703125 21.195312 14.703125 21.191406 14.703125 L 21.1875 14.703125 C 21.183594 14.703125 21.179688 14.703125 21.175781 14.707031 L 21.171875 14.707031 C 21.167969 14.707031 21.167969 14.707031 21.164062 14.707031 L 21.160156 14.707031 C 21.15625 14.707031 21.15625 14.707031 21.152344 14.710938 C 21.148438 14.710938 21.144531 14.710938 21.144531 14.710938 L 21.136719 14.710938 C 21.136719 14.710938 20.355469 14.914062 19.46875 15.171875 C 19.484375 15.210938 19.503906 15.257812 19.527344 15.304688 C 19.773438 15.886719 20.171875 17.003906 20.375 18.550781 C 20.386719 18.625 20.375 18.699219 20.351562 18.769531 C 20.324219 18.839844 20.285156 18.902344 20.226562 18.953125 C 20.171875 19.003906 20.105469 19.039062 20.03125 19.058594 C 19.957031 19.078125 19.882812 19.078125 19.808594 19.0625 L 17.96875 18.628906 C 17.738281 18.578125 17.542969 18.460938 17.378906 18.289062 C 17.21875 18.113281 17.121094 17.90625 17.085938 17.671875 C 17.023438 17.253906 16.949219 16.871094 16.867188 16.523438 C 16.855469 16.46875 16.839844 16.417969 16.828125 16.367188 C 16.71875 15.925781 16.597656 15.542969 16.484375 15.234375 C 16.421875 15.0625 16.351562 14.894531 16.277344 14.730469 C 16.164062 14.472656 15.964844 14.445312 15.804688 14.449219 C 15.746094 14.449219 15.714844 14.480469 15.714844 14.542969 C 15.714844 14.601562 15.746094 14.632812 15.808594 14.632812 C 15.953125 14.628906 16.046875 14.65625 16.109375 14.800781 C 16.34375 15.339844 16.539062 15.890625 16.695312 16.453125 C 16.636719 16.484375 16.574219 16.515625 16.507812 16.539062 C 16.488281 16.546875 16.46875 16.554688 16.449219 16.558594 C 16.40625 16.574219 16.363281 16.589844 16.320312 16.601562 C 16.308594 16.601562 16.300781 16.605469 16.292969 16.609375 C 16.378906 16.53125 16.429688 16.4375 16.429688 16.328125 C 16.429688 15.949219 15.792969 15.75 15.160156 15.75 C 14.527344 15.75 13.890625 15.949219 13.890625 16.328125 C 13.890625 16.464844 13.972656 16.578125 14.109375 16.667969 C 14.105469 16.679688 14.101562 16.6875 14.101562 16.695312 C 14.078125 16.785156 14.050781 16.886719 14.023438 16.996094 C 14.011719 17.050781 14 17.109375 13.984375 17.171875 C 13.976562 17.203125 13.972656 17.234375 13.964844 17.265625 C 13.960938 17.289062 13.957031 17.3125 13.949219 17.335938 L 13.929688 17.335938 C 13.84375 17.300781 13.753906 17.285156 13.660156 17.285156 C 13.679688 17.1875 13.699219 17.09375 13.71875 17.007812 C 13.730469 16.949219 13.746094 16.894531 13.757812 16.839844 C 13.765625 16.8125 13.773438 16.785156 13.777344 16.757812 C 13.796875 16.683594 13.816406 16.613281 13.835938 16.546875 C 13.796875 16.535156 13.761719 16.519531 13.726562 16.503906 C 13.691406 16.488281 13.660156 16.472656 13.628906 16.457031 C 13.59375 16.4375 13.554688 16.414062 13.519531 16.390625 C 13.503906 16.378906 13.488281 16.363281 13.472656 16.351562 C 13.457031 16.339844 13.445312 16.328125 13.429688 16.3125 C 13.417969 16.300781 13.410156 16.289062 13.398438 16.277344 C 13.363281 16.230469 13.339844 16.179688 13.339844 16.121094 C 13.339844 16.113281 13.335938 16.105469 13.335938 16.097656 C 13.335938 16.09375 13.335938 16.089844 13.335938 16.085938 C 13.332031 16.074219 13.332031 16.0625 13.328125 16.050781 C 13.328125 16.042969 13.324219 16.035156 13.324219 16.027344 C 13.320312 16.015625 13.316406 16.007812 13.3125 15.996094 C 13.304688 15.980469 13.296875 15.964844 13.289062 15.949219 C 13.28125 15.9375 13.273438 15.925781 13.265625 15.914062 C 13.246094 15.886719 13.222656 15.867188 13.199219 15.847656 C 13.164062 15.824219 13.128906 15.808594 13.09375 15.796875 L 11.5 15.382812 C 11.496094 15.382812 11.492188 15.382812 11.488281 15.382812 C 11.488281 15.382812 11.488281 15.382812 11.484375 15.382812 C 11.484375 15.382812 11.480469 15.382812 11.480469 15.382812 C 11.476562 15.382812 11.476562 15.382812 11.476562 15.382812 C 11.476562 15.382812 11.472656 15.382812 11.472656 15.382812 C 11.46875 15.382812 11.464844 15.382812 11.464844 15.382812 C 11.460938 15.382812 11.460938 15.382812 11.457031 15.382812 C 11.457031 15.382812 11.453125 15.382812 11.449219 15.386719 C 11.449219 15.386719 11.445312 15.386719 11.445312 15.386719 C 11.441406 15.386719 11.4375 15.390625 11.4375 15.390625 C 11.433594 15.390625 11.433594 15.390625 11.429688 15.394531 C 11.429688 15.394531 11.425781 15.394531 11.421875 15.394531 C 11.421875 15.398438 11.417969 15.398438 11.417969 15.398438 C 11.414062 15.402344 11.414062 15.402344 11.410156 15.402344 C 11.40625 15.40625 11.40625 15.40625 11.402344 15.40625 C 11.402344 15.410156 11.398438 15.410156 11.398438 15.414062 C 11.394531 15.414062 11.390625 15.414062 11.390625 15.417969 C 11.386719 15.417969 11.386719 15.421875 11.382812 15.421875 C 11.382812 15.425781 11.378906 15.425781 11.375 15.429688 C 11.375 15.429688 11.371094 15.433594 11.371094 15.433594 C 11.367188 15.4375 11.367188 15.4375 11.363281 15.441406 C 11.359375 15.441406 11.359375 15.445312 11.355469 15.445312 C 11.355469 15.449219 11.351562 15.449219 11.351562 15.453125 C 11.347656 15.457031 11.347656 15.457031 11.34375 15.460938 C 11.339844 15.460938 11.339844 15.464844 11.335938 15.46875 C 11.335938 15.46875 11.332031 15.472656 11.332031 15.472656 C 11.328125 15.476562 11.328125 15.480469 11.324219 15.480469 C 11.324219 15.484375 11.320312 15.484375 11.320312 15.484375 C 11.3125 15.492188 11.308594 15.503906 11.300781 15.511719 C 11.296875 15.515625 11.292969 15.519531 11.292969 15.523438 C 11.289062 15.527344 11.289062 15.527344 11.285156 15.53125 C 11.285156 15.535156 11.28125 15.535156 11.28125 15.539062 C 11.277344 15.542969 11.277344 15.542969 11.273438 15.546875 C 11.273438 15.550781 11.269531 15.554688 11.269531 15.558594 C 11.265625 15.558594 11.265625 15.5625 11.261719 15.566406 C 11.261719 15.566406 11.257812 15.570312 11.257812 15.574219 L 11.253906 15.582031 C 11.25 15.585938 11.25 15.589844 11.246094 15.59375 C 11.246094 15.59375 11.242188 15.597656 11.242188 15.601562 C 11.238281 15.605469 11.238281 15.609375 11.234375 15.609375 C 11.234375 15.613281 11.230469 15.617188 11.230469 15.621094 C 11.230469 15.621094 11.226562 15.625 11.226562 15.628906 C 11.222656 15.632812 11.222656 15.636719 11.21875 15.636719 C 11.21875 15.640625 11.21875 15.644531 11.214844 15.648438 C 11.214844 15.652344 11.210938 15.652344 11.210938 15.65625 C 11.210938 15.660156 11.207031 15.664062 11.207031 15.664062 C 11.203125 15.667969 11.203125 15.671875 11.203125 15.675781 C 11.199219 15.679688 11.199219 15.679688 11.199219 15.683594 C 11.195312 15.6875 11.195312 15.691406 11.195312 15.691406 C 11.191406 15.695312 11.191406 15.699219 11.191406 15.703125 C 11.1875 15.703125 11.1875 15.707031 11.1875 15.710938 C 11.183594 15.714844 11.183594 15.714844 11.183594 15.71875 C 11.179688 15.722656 11.179688 15.726562 11.179688 15.726562 C 11.175781 15.730469 11.175781 15.734375 11.175781 15.734375 C 11.171875 15.738281 11.171875 15.742188 11.171875 15.746094 L 11.167969 15.753906 C 11.167969 15.753906 11.167969 15.757812 11.164062 15.761719 C 11.164062 15.761719 11.164062 15.765625 11.164062 15.769531 C 11.160156 15.769531 11.160156 15.773438 11.160156 15.777344 C 11.160156 15.78125 11.160156 15.78125 11.15625 15.785156 C 11.15625 15.785156 11.15625 15.789062 11.15625 15.792969 C 11.15625 15.792969 11.152344 15.796875 11.152344 15.796875 C 11.152344 15.800781 11.152344 15.808594 11.148438 15.8125 C 11.105469 15.992188 11.0625 16.191406 11.015625 16.414062 C 10.914062 16.917969 10.839844 17.429688 10.792969 17.941406 C 10.78125 18.105469 10.769531 18.277344 10.761719 18.449219 C 10.753906 18.582031 10.75 18.714844 10.746094 18.851562 C 10.746094 18.941406 10.746094 19.03125 10.746094 19.125 C 10.746094 19.21875 10.75 19.3125 10.753906 19.40625 C 10.753906 19.4375 10.757812 19.46875 10.761719 19.5 C 10.761719 19.511719 10.765625 19.519531 10.765625 19.53125 C 10.769531 19.550781 10.777344 19.566406 10.78125 19.585938 C 10.785156 19.605469 10.792969 19.621094 10.800781 19.640625 C 10.804688 19.65625 10.8125 19.671875 10.816406 19.6875 C 10.820312 19.695312 10.824219 19.699219 10.828125 19.707031 C 10.867188 19.78125 10.914062 19.847656 10.972656 19.90625 C 11.066406 19.996094 11.179688 20.058594 11.304688 20.085938 L 13.296875 20.554688 C 13.304688 20.554688 13.308594 20.558594 13.3125 20.558594 C 13.316406 20.558594 13.316406 20.558594 13.316406 20.558594 C 13.320312 20.558594 13.324219 20.558594 13.324219 20.558594 C 13.328125 20.558594 13.328125 20.558594 13.328125 20.558594 C 13.328125 20.558594 13.332031 20.558594 13.332031 20.558594 C 13.335938 20.558594 13.339844 20.558594 13.34375 20.558594 C 13.34375 20.558594 13.34375 20.554688 13.347656 20.554688 C 13.351562 20.554688 13.355469 20.554688 13.355469 20.554688 C 13.359375 20.554688 13.359375 20.554688 13.359375 20.554688 C 13.363281 20.550781 13.367188 20.550781 13.371094 20.546875 C 13.375 20.546875 13.375 20.546875 13.375 20.546875 C 13.378906 20.542969 13.382812 20.542969 13.386719 20.542969 C 13.386719 20.539062 13.386719 20.539062 13.390625 20.539062 C 13.390625 20.535156 13.394531 20.535156 13.398438 20.53125 C 13.398438 20.53125 13.398438 20.53125 13.402344 20.53125 C 13.40625 20.527344 13.40625 20.523438 13.410156 20.519531 C 13.421875 20.507812 13.429688 20.492188 13.433594 20.476562 C 13.441406 20.460938 13.441406 20.445312 13.441406 20.429688 C 13.414062 20.039062 13.410156 19.667969 13.421875 19.3125 C 13.511719 19.363281 13.609375 19.394531 13.714844 19.40625 C 13.707031 19.722656 13.710938 20.058594 13.730469 20.402344 C 13.734375 20.433594 13.734375 20.464844 13.730469 20.496094 C 13.722656 20.527344 13.714844 20.558594 13.707031 20.585938 C 13.699219 20.601562 13.695312 20.617188 13.6875 20.628906 C 13.667969 20.671875 13.636719 20.710938 13.605469 20.742188 C 13.59375 20.75 13.582031 20.757812 13.574219 20.765625 C 13.554688 20.78125 13.53125 20.796875 13.507812 20.808594 C 13.453125 20.835938 13.390625 20.851562 13.328125 20.851562 C 13.3125 20.851562 13.296875 20.851562 13.277344 20.847656 C 13.265625 20.847656 13.25 20.84375 13.234375 20.839844 C 13.234375 20.839844 13.234375 20.839844 13.230469 20.839844 L 11.238281 20.371094 C 11.15625 20.355469 11.078125 20.324219 11.003906 20.285156 C 10.984375 20.273438 10.964844 20.265625 10.945312 20.253906 C 10.929688 20.242188 10.914062 20.230469 10.898438 20.222656 C 10.878906 20.210938 10.863281 20.195312 10.847656 20.183594 C 10.832031 20.171875 10.816406 20.160156 10.800781 20.144531 C 10.792969 20.136719 10.78125 20.128906 10.769531 20.117188 C 10.75 20.097656 10.734375 20.078125 10.714844 20.058594 C 10.695312 20.039062 10.679688 20.015625 10.664062 19.996094 C 10.5625 19.859375 10.5 19.710938 10.472656 19.542969 C 10.46875 19.515625 10.464844 19.488281 10.460938 19.460938 C 10.460938 19.445312 10.460938 19.429688 10.460938 19.417969 C 10.457031 19.367188 10.457031 19.316406 10.457031 19.269531 C 10.453125 19.167969 10.453125 19.070312 10.453125 18.972656 C 10.453125 18.921875 10.453125 18.875 10.453125 18.824219 C 10.453125 18.429688 10.472656 18.042969 10.496094 17.675781 C 10.507812 17.535156 10.519531 17.398438 10.53125 17.265625 C 10.535156 17.222656 10.539062 17.175781 10.542969 17.132812 C 10.550781 17.050781 10.5625 16.96875 10.570312 16.890625 C 10.578125 16.84375 10.582031 16.796875 10.585938 16.753906 C 10.597656 16.667969 10.609375 16.589844 10.621094 16.511719 C 10.628906 16.429688 10.640625 16.355469 10.652344 16.28125 C 10.671875 16.167969 10.6875 16.058594 10.707031 15.957031 C 10.726562 15.855469 10.746094 15.757812 10.765625 15.667969 C 10.785156 15.578125 10.804688 15.492188 10.824219 15.414062 C 10.859375 15.277344 10.804688 15.1875 10.664062 15.152344 L 10.570312 15.128906 L 9.152344 14.773438 C 9.144531 14.769531 9.132812 14.769531 9.125 14.765625 C 9.121094 14.765625 9.117188 14.765625 9.113281 14.765625 C 9.105469 14.765625 9.097656 14.765625 9.09375 14.765625 C 9.09375 14.765625 9.089844 14.765625 9.089844 14.765625 C 9.082031 14.765625 9.078125 14.765625 9.070312 14.765625 C 9.070312 14.765625 9.066406 14.765625 9.066406 14.765625 C 9.058594 14.765625 9.046875 14.769531 9.039062 14.769531 C 9.039062 14.769531 9.035156 14.769531 9.03125 14.773438 C 9.027344 14.773438 9.019531 14.773438 9.015625 14.777344 C 9.011719 14.777344 9.007812 14.777344 9.003906 14.78125 C 9 14.78125 8.996094 14.785156 8.988281 14.785156 C 8.988281 14.789062 8.984375 14.789062 8.980469 14.789062 C 8.976562 14.792969 8.972656 14.796875 8.964844 14.796875 C 8.964844 14.800781 8.960938 14.800781 8.957031 14.804688 C 8.953125 14.804688 8.949219 14.808594 8.945312 14.8125 C 8.941406 14.816406 8.9375 14.816406 8.9375 14.820312 C 8.933594 14.824219 8.925781 14.828125 8.921875 14.832031 C 8.921875 14.832031 8.917969 14.835938 8.917969 14.835938 C 8.910156 14.839844 8.90625 14.847656 8.898438 14.855469 C 8.898438 14.855469 8.898438 14.859375 8.894531 14.859375 C 8.890625 14.863281 8.886719 14.871094 8.882812 14.875 C 8.882812 14.878906 8.878906 14.882812 8.878906 14.882812 C 8.875 14.886719 8.875 14.894531 8.871094 14.898438 C 8.867188 14.902344 8.867188 14.90625 8.867188 14.90625 C 8.863281 14.914062 8.863281 14.917969 8.859375 14.921875 C 8.859375 14.925781 8.855469 14.929688 8.855469 14.933594 C 8.855469 14.9375 8.851562 14.941406 8.851562 14.949219 C 8.851562 14.953125 8.847656 14.957031 8.847656 14.957031 C 8.847656 14.964844 8.847656 14.96875 8.84375 14.976562 C 8.84375 14.980469 8.84375 14.984375 8.84375 14.984375 C 8.84375 14.996094 8.84375 15.003906 8.84375 15.015625 C 8.84375 15.078125 8.773438 15.132812 8.664062 15.171875 C 8.679688 15.148438 8.683594 15.121094 8.683594 15.09375 C 8.683594 14.921875 8.421875 14.839844 8.179688 14.839844 C 7.933594 14.839844 7.671875 14.921875 7.671875 15.09375 C 7.671875 15.121094 7.679688 15.148438 7.691406 15.171875 C 7.640625 15.15625 7.59375 15.128906 7.554688 15.097656 C 7.53125 15.074219 7.515625 15.050781 7.515625 15.015625 L 7.515625 13.703125 C 7.519531 13.664062 7.535156 13.632812 7.566406 13.613281 C 7.613281 13.578125 7.660156 13.554688 7.714844 13.539062 C 7.738281 13.53125 7.765625 13.523438 7.796875 13.515625 C 7.921875 13.484375 8.050781 13.472656 8.179688 13.472656 C 8.335938 13.46875 8.492188 13.492188 8.644531 13.539062 C 8.695312 13.554688 8.746094 13.578125 8.789062 13.613281 C 8.820312 13.632812 8.839844 13.664062 8.84375 13.703125 L 8.84375 13.765625 C 8.84375 13.847656 8.871094 13.917969 8.929688 13.976562 C 8.988281 14.035156 9.058594 14.066406 9.144531 14.066406 L 13.46875 14.066406 C 13.597656 14.066406 13.722656 14.054688 13.847656 14.035156 C 13.898438 14.023438 13.953125 14.015625 14.003906 14.003906 C 14.023438 13.996094 14.039062 13.992188 14.058594 13.988281 C 14.089844 13.980469 14.125 13.96875 14.160156 13.960938 C 14.246094 13.933594 14.328125 13.902344 14.410156 13.863281 C 14.425781 13.855469 14.441406 13.847656 14.457031 13.84375 C 14.492188 13.828125 14.523438 13.808594 14.554688 13.792969 C 14.585938 13.777344 14.617188 13.757812 14.648438 13.742188 C 14.679688 13.722656 14.707031 13.703125 14.738281 13.683594 C 14.84375 13.613281 14.941406 13.535156 15.035156 13.449219 L 17.035156 11.59375 L 17.035156 11.726562 C 17.035156 11.871094 17.183594 11.949219 17.304688 11.992188 C 17.464844 12.042969 17.628906 12.066406 17.796875 12.066406 L 16.730469 14.011719 C 16.691406 14.078125 16.675781 14.152344 16.675781 14.226562 C 16.675781 14.300781 16.695312 14.375 16.734375 14.4375 C 16.773438 14.503906 16.824219 14.554688 16.886719 14.59375 C 16.953125 14.632812 17.023438 14.652344 17.101562 14.65625 L 17.113281 14.65625 C 17.152344 14.65625 17.171875 14.636719 17.171875 14.597656 C 17.171875 14.5625 17.152344 14.542969 17.113281 14.542969 L 17.101562 14.542969 C 16.980469 14.542969 16.890625 14.492188 16.828125 14.386719 C 16.769531 14.28125 16.765625 14.179688 16.820312 14.074219 L 17.167969 14.054688 L 17.519531 14.035156 L 17.667969 14.03125 L 17.746094 14.027344 L 17.988281 14.011719 L 18.226562 14 L 18.390625 13.992188 L 18.644531 13.980469 L 18.8125 13.972656 L 19.050781 13.957031 L 19.148438 13.953125 L 19.402344 13.941406 L 19.566406 13.933594 L 19.886719 13.917969 L 19.964844 13.914062 L 20.191406 13.902344 L 20.472656 13.886719 L 20.605469 13.878906 L 20.730469 13.875 L 20.796875 13.871094 L 20.90625 13.863281 L 20.957031 13.863281 L 21.265625 13.847656 C 21.28125 13.84375 21.300781 13.84375 21.316406 13.835938 C 21.320312 13.835938 21.324219 13.835938 21.328125 13.832031 C 21.351562 13.824219 21.371094 13.8125 21.386719 13.796875 C 21.394531 13.792969 21.398438 13.789062 21.402344 13.785156 C 21.410156 13.773438 21.417969 13.765625 21.425781 13.753906 C 21.429688 13.75 21.429688 13.742188 21.433594 13.738281 C 21.441406 13.726562 21.445312 13.714844 21.449219 13.703125 C 21.453125 13.683594 21.457031 13.664062 21.457031 13.644531 C 21.457031 13.640625 21.457031 13.636719 21.457031 13.632812 C 21.460938 13.621094 21.464844 13.609375 21.46875 13.597656 C 21.476562 13.585938 21.488281 13.574219 21.496094 13.566406 C 21.5 13.5625 21.503906 13.558594 21.507812 13.554688 C 21.515625 13.550781 21.519531 13.546875 21.523438 13.546875 C 21.527344 13.542969 21.53125 13.539062 21.539062 13.535156 C 21.546875 13.527344 21.558594 13.523438 21.570312 13.515625 C 21.582031 13.511719 21.59375 13.503906 21.609375 13.5 C 21.617188 13.496094 21.621094 13.492188 21.628906 13.488281 C 21.636719 13.488281 21.648438 13.484375 21.65625 13.480469 C 21.664062 13.480469 21.667969 13.476562 21.675781 13.472656 C 21.683594 13.472656 21.691406 13.46875 21.699219 13.46875 C 21.726562 13.460938 21.757812 13.453125 21.789062 13.445312 C 21.898438 13.425781 22.007812 13.414062 22.121094 13.414062 C 22.1875 13.414062 22.253906 13.417969 22.316406 13.425781 C 22.347656 13.429688 22.375 13.433594 22.402344 13.4375 L 22.414062 13.4375 C 22.429688 13.441406 22.449219 13.445312 22.464844 13.449219 C 22.492188 13.453125 22.519531 13.460938 22.542969 13.46875 C 22.550781 13.46875 22.558594 13.472656 22.566406 13.472656 C 22.574219 13.476562 22.578125 13.480469 22.585938 13.480469 C 22.59375 13.484375 22.605469 13.488281 22.613281 13.488281 C 22.632812 13.496094 22.652344 13.507812 22.671875 13.515625 C 22.683594 13.523438 22.695312 13.527344 22.703125 13.535156 C 22.710938 13.539062 22.714844 13.542969 22.71875 13.542969 C 22.722656 13.546875 22.726562 13.550781 22.730469 13.554688 C 22.734375 13.558594 22.742188 13.5625 22.746094 13.566406 C 22.75 13.570312 22.757812 13.578125 22.765625 13.585938 C 22.765625 13.589844 22.769531 13.59375 22.769531 13.597656 C 22.777344 13.609375 22.78125 13.621094 22.785156 13.632812 Z M 20.085938 18.589844 C 20 17.953125 19.875 17.324219 19.699219 16.707031 C 19.574219 16.257812 19.421875 15.820312 19.242188 15.390625 C 19.21875 15.339844 19.199219 15.292969 19.183594 15.253906 C 19.105469 15.085938 19.058594 14.992188 19.054688 14.988281 C 19.046875 14.972656 19.039062 14.953125 19.039062 14.9375 C 18.992188 14.878906 18.941406 14.867188 18.878906 14.910156 C 18.816406 14.949219 18.804688 15.003906 18.839844 15.066406 C 18.839844 15.070312 18.886719 15.15625 18.960938 15.320312 C 18.917969 15.332031 18.871094 15.347656 18.828125 15.359375 C 18.804688 15.367188 18.78125 15.375 18.757812 15.382812 C 18.636719 15.417969 18.519531 15.457031 18.402344 15.492188 L 18.375 15.5 C 18.261719 15.539062 18.152344 15.574219 18.046875 15.609375 L 18.019531 15.617188 C 17.957031 15.640625 17.894531 15.660156 17.835938 15.683594 C 17.8125 15.691406 17.792969 15.699219 17.769531 15.707031 C 17.734375 15.71875 17.699219 15.730469 17.667969 15.742188 C 17.636719 15.753906 17.605469 15.769531 17.574219 15.78125 C 17.5625 15.78125 17.554688 15.785156 17.546875 15.789062 C 17.519531 15.800781 17.496094 15.808594 17.472656 15.820312 L 17.445312 15.832031 C 17.433594 15.835938 17.421875 15.839844 17.410156 15.84375 C 17.367188 15.863281 17.332031 15.878906 17.296875 15.894531 C 17.285156 15.898438 17.277344 15.902344 17.265625 15.90625 C 17.257812 15.910156 17.25 15.914062 17.242188 15.917969 C 17.234375 15.921875 17.226562 15.929688 17.21875 15.933594 C 17.210938 15.9375 17.199219 15.941406 17.195312 15.945312 C 17.1875 15.949219 17.179688 15.953125 17.171875 15.953125 C 17.128906 15.976562 17.085938 16.003906 17.046875 16.03125 C 17.066406 16.105469 17.082031 16.175781 17.101562 16.253906 C 17.21875 16.707031 17.308594 17.167969 17.378906 17.628906 C 17.402344 17.804688 17.476562 17.960938 17.597656 18.089844 C 17.71875 18.21875 17.863281 18.304688 18.039062 18.34375 L 19.878906 18.777344 C 19.9375 18.789062 19.988281 18.777344 20.03125 18.738281 C 20.074219 18.695312 20.09375 18.648438 20.085938 18.589844 Z M 13.660156 17.285156 Z M 15.160156 15.898438 C 14.539062 15.898438 14.035156 16.089844 14.035156 16.328125 C 14.035156 16.34375 14.039062 16.359375 14.042969 16.375 C 14.046875 16.390625 14.050781 16.402344 14.058594 16.417969 C 14.085938 16.464844 14.125 16.503906 14.171875 16.535156 C 14.1875 16.546875 14.207031 16.558594 14.226562 16.570312 C 14.261719 16.589844 14.292969 16.605469 14.328125 16.621094 C 14.339844 16.625 14.351562 16.628906 14.363281 16.636719 C 14.382812 16.640625 14.402344 16.648438 14.421875 16.65625 L 14.421875 16.441406 C 14.421875 16.375 14.464844 16.28125 14.667969 16.210938 C 14.800781 16.164062 14.976562 16.140625 15.160156 16.140625 C 15.34375 16.140625 15.519531 16.164062 15.652344 16.210938 C 15.855469 16.28125 15.898438 16.375 15.898438 16.441406 L 15.898438 16.65625 C 15.90625 16.652344 15.917969 16.648438 15.925781 16.644531 C 15.9375 16.640625 15.945312 16.640625 15.957031 16.636719 C 15.96875 16.628906 15.980469 16.625 15.992188 16.621094 C 16.027344 16.605469 16.0625 16.589844 16.09375 16.570312 C 16.113281 16.558594 16.132812 16.546875 16.148438 16.535156 C 16.195312 16.503906 16.234375 16.464844 16.261719 16.417969 C 16.269531 16.402344 16.273438 16.390625 16.28125 16.375 C 16.285156 16.359375 16.285156 16.34375 16.285156 16.328125 C 16.285156 16.089844 15.78125 15.898438 15.160156 15.898438 Z M 15.628906 16.972656 C 15.652344 16.964844 15.671875 16.957031 15.691406 16.949219 C 15.714844 16.9375 15.738281 16.925781 15.757812 16.910156 C 15.777344 16.898438 15.789062 16.886719 15.804688 16.871094 C 15.808594 16.863281 15.8125 16.855469 15.8125 16.851562 C 15.816406 16.847656 15.820312 16.839844 15.820312 16.835938 C 15.820312 16.832031 15.820312 16.832031 15.820312 16.832031 C 15.824219 16.824219 15.824219 16.816406 15.824219 16.8125 L 15.824219 16.441406 C 15.824219 16.398438 15.789062 16.359375 15.726562 16.324219 C 15.71875 16.316406 15.703125 16.3125 15.691406 16.304688 C 15.679688 16.300781 15.664062 16.292969 15.652344 16.289062 C 15.636719 16.285156 15.621094 16.277344 15.605469 16.273438 C 15.574219 16.261719 15.539062 16.253906 15.503906 16.246094 C 15.484375 16.242188 15.46875 16.238281 15.449219 16.238281 C 15.417969 16.230469 15.390625 16.226562 15.359375 16.222656 C 15.226562 16.210938 15.09375 16.210938 14.964844 16.222656 C 14.933594 16.226562 14.902344 16.230469 14.871094 16.238281 C 14.851562 16.238281 14.835938 16.242188 14.816406 16.246094 C 14.78125 16.253906 14.746094 16.261719 14.714844 16.273438 C 14.699219 16.277344 14.683594 16.285156 14.667969 16.289062 C 14.65625 16.292969 14.640625 16.300781 14.628906 16.304688 C 14.617188 16.3125 14.605469 16.316406 14.59375 16.324219 C 14.53125 16.359375 14.496094 16.398438 14.496094 16.441406 L 14.496094 16.8125 C 14.496094 16.816406 14.496094 16.824219 14.5 16.832031 C 14.5 16.832031 14.5 16.832031 14.5 16.835938 C 14.5 16.839844 14.503906 16.84375 14.507812 16.851562 C 14.507812 16.855469 14.511719 16.863281 14.515625 16.871094 C 14.53125 16.886719 14.546875 16.898438 14.5625 16.910156 C 14.582031 16.925781 14.605469 16.9375 14.628906 16.949219 C 14.648438 16.957031 14.667969 16.964844 14.691406 16.972656 C 14.699219 16.976562 14.703125 16.976562 14.710938 16.980469 C 14.6875 16.953125 14.679688 16.925781 14.675781 16.890625 C 14.675781 16.882812 14.679688 16.875 14.679688 16.871094 C 14.683594 16.832031 14.710938 16.78125 14.785156 16.738281 C 14.789062 16.734375 14.792969 16.734375 14.796875 16.730469 C 14.8125 16.722656 14.828125 16.714844 14.84375 16.710938 C 15.054688 16.640625 15.265625 16.640625 15.476562 16.710938 C 15.492188 16.714844 15.507812 16.722656 15.523438 16.730469 C 15.527344 16.734375 15.53125 16.734375 15.535156 16.738281 C 15.609375 16.78125 15.636719 16.832031 15.640625 16.867188 C 15.640625 16.875 15.644531 16.882812 15.644531 16.890625 C 15.644531 16.925781 15.632812 16.953125 15.609375 16.980469 C 15.617188 16.976562 15.625 16.976562 15.628906 16.972656 Z M 14.847656 17.070312 L 14.847656 17.277344 L 15.472656 17.234375 L 15.472656 16.992188 C 15.480469 16.988281 15.492188 16.984375 15.5 16.976562 C 15.515625 16.96875 15.527344 16.960938 15.539062 16.953125 C 15.546875 16.941406 15.554688 16.933594 15.5625 16.921875 C 15.566406 16.910156 15.570312 16.902344 15.570312 16.890625 C 15.570312 16.886719 15.570312 16.882812 15.570312 16.878906 C 15.570312 16.878906 15.570312 16.878906 15.566406 16.875 C 15.566406 16.871094 15.566406 16.863281 15.5625 16.859375 C 15.554688 16.847656 15.546875 16.835938 15.539062 16.828125 C 15.527344 16.820312 15.515625 16.808594 15.5 16.800781 C 15.476562 16.789062 15.449219 16.777344 15.421875 16.769531 C 15.40625 16.761719 15.386719 16.757812 15.367188 16.753906 C 15.347656 16.75 15.328125 16.746094 15.304688 16.742188 C 15.207031 16.730469 15.113281 16.730469 15.015625 16.742188 C 14.992188 16.746094 14.972656 16.75 14.953125 16.753906 C 14.933594 16.757812 14.917969 16.761719 14.898438 16.769531 C 14.871094 16.777344 14.847656 16.789062 14.820312 16.800781 C 14.808594 16.808594 14.792969 16.820312 14.78125 16.828125 C 14.773438 16.835938 14.765625 16.847656 14.757812 16.859375 C 14.757812 16.863281 14.753906 16.871094 14.753906 16.875 C 14.753906 16.878906 14.753906 16.878906 14.753906 16.878906 C 14.75 16.882812 14.75 16.886719 14.75 16.890625 C 14.75 16.902344 14.753906 16.910156 14.757812 16.921875 C 14.765625 16.933594 14.773438 16.941406 14.78125 16.953125 C 14.792969 16.960938 14.808594 16.96875 14.820312 16.976562 C 14.824219 16.980469 14.828125 16.984375 14.835938 16.984375 C 14.839844 16.988281 14.84375 16.988281 14.847656 16.992188 Z M 14.9375 18.125 C 14.863281 17.765625 14.664062 17.480469 14.441406 17.382812 L 14.085938 17.40625 L 14.066406 17.40625 C 14.070312 17.410156 14.078125 17.414062 14.082031 17.417969 C 14.140625 17.457031 14.195312 17.503906 14.242188 17.550781 C 14.414062 17.738281 14.519531 17.953125 14.5625 18.203125 C 14.609375 18.480469 14.570312 18.753906 14.449219 18.980469 C 14.417969 19.039062 14.378906 19.09375 14.335938 19.148438 L 14.730469 19.058594 L 14.722656 19.050781 C 14.929688 18.882812 15.015625 18.511719 14.9375 18.125 Z M 16.207031 17.964844 C 16.257812 18.371094 16.0625 18.738281 15.757812 18.820312 L 14.902344 19.015625 C 15.058594 18.800781 15.117188 18.457031 15.046875 18.105469 C 14.980469 17.785156 14.820312 17.519531 14.628906 17.371094 L 14.847656 17.355469 L 15.472656 17.3125 L 15.496094 17.3125 L 15.5 17.308594 C 15.632812 17.289062 15.773438 17.324219 15.898438 17.417969 C 16.066406 17.539062 16.175781 17.738281 16.207031 17.964844 Z M 16.125 17.933594 C 16.109375 17.820312 16.0625 17.726562 15.988281 17.644531 C 15.910156 17.570312 15.820312 17.539062 15.730469 17.550781 C 15.699219 17.554688 15.671875 17.566406 15.644531 17.582031 L 15.566406 17.589844 L 15.558594 17.59375 C 15.394531 17.636719 15.296875 17.824219 15.320312 18.03125 C 15.332031 18.140625 15.375 18.238281 15.449219 18.316406 C 15.503906 18.382812 15.570312 18.414062 15.65625 18.417969 C 15.664062 18.417969 15.675781 18.417969 15.683594 18.417969 C 15.691406 18.414062 15.695312 18.414062 15.703125 18.414062 L 15.753906 18.40625 C 15.777344 18.414062 15.800781 18.414062 15.824219 18.417969 C 15.835938 18.417969 15.847656 18.414062 15.859375 18.414062 C 16.042969 18.386719 16.160156 18.171875 16.125 17.933594 Z M 14.289062 19.03125 C 14.273438 19.050781 14.257812 19.070312 14.238281 19.089844 C 14.222656 19.109375 14.203125 19.128906 14.183594 19.144531 C 14.164062 19.160156 14.144531 19.175781 14.125 19.191406 C 14.121094 19.195312 14.117188 19.195312 14.113281 19.199219 C 14.085938 19.21875 14.058594 19.234375 14.027344 19.246094 C 14 19.261719 13.972656 19.269531 13.941406 19.277344 C 13.933594 19.28125 13.925781 19.28125 13.917969 19.285156 C 13.90625 19.289062 13.894531 19.289062 13.882812 19.292969 C 13.875 19.292969 13.871094 19.292969 13.863281 19.292969 C 13.855469 19.296875 13.851562 19.296875 13.84375 19.296875 C 13.839844 19.296875 13.839844 19.296875 13.835938 19.296875 C 13.832031 19.296875 13.828125 19.296875 13.824219 19.296875 C 13.8125 19.300781 13.804688 19.300781 13.792969 19.300781 C 13.785156 19.300781 13.78125 19.300781 13.777344 19.300781 C 13.769531 19.300781 13.765625 19.300781 13.761719 19.300781 C 13.753906 19.300781 13.746094 19.296875 13.738281 19.296875 C 13.734375 19.296875 13.730469 19.296875 13.722656 19.296875 C 13.722656 19.296875 13.71875 19.296875 13.71875 19.296875 C 13.710938 19.296875 13.707031 19.296875 13.703125 19.292969 C 13.699219 19.292969 13.695312 19.292969 13.6875 19.292969 C 13.679688 19.289062 13.675781 19.289062 13.667969 19.289062 C 13.664062 19.289062 13.65625 19.285156 13.652344 19.285156 C 13.644531 19.285156 13.640625 19.28125 13.632812 19.28125 C 13.628906 19.277344 13.621094 19.277344 13.617188 19.277344 C 13.609375 19.273438 13.601562 19.273438 13.59375 19.269531 C 13.589844 19.269531 13.585938 19.265625 13.582031 19.265625 C 13.574219 19.261719 13.5625 19.257812 13.554688 19.253906 C 13.550781 19.253906 13.550781 19.253906 13.546875 19.253906 C 13.539062 19.246094 13.527344 19.242188 13.515625 19.238281 C 13.511719 19.234375 13.507812 19.234375 13.507812 19.234375 C 13.496094 19.230469 13.488281 19.226562 13.480469 19.21875 C 13.476562 19.21875 13.472656 19.214844 13.46875 19.214844 C 13.460938 19.210938 13.457031 19.207031 13.449219 19.203125 C 13.445312 19.199219 13.441406 19.195312 13.4375 19.195312 C 13.433594 19.191406 13.429688 19.191406 13.425781 19.1875 C 13.421875 19.183594 13.421875 19.183594 13.417969 19.179688 C 13.414062 19.179688 13.410156 19.175781 13.402344 19.171875 C 13.398438 19.167969 13.390625 19.164062 13.386719 19.160156 C 13.382812 19.15625 13.378906 19.152344 13.371094 19.148438 C 13.367188 19.144531 13.359375 19.140625 13.355469 19.136719 C 13.351562 19.132812 13.347656 19.128906 13.34375 19.125 C 13.335938 19.121094 13.332031 19.113281 13.324219 19.109375 C 13.320312 19.105469 13.316406 19.101562 13.3125 19.097656 C 13.308594 19.09375 13.300781 19.085938 13.296875 19.082031 C 13.292969 19.078125 13.289062 19.074219 13.285156 19.070312 C 13.277344 19.066406 13.273438 19.058594 13.265625 19.050781 C 13.261719 19.046875 13.261719 19.042969 13.257812 19.039062 C 13.25 19.035156 13.246094 19.027344 13.238281 19.019531 C 13.234375 19.015625 13.234375 19.015625 13.230469 19.011719 C 13.222656 19 13.214844 18.992188 13.210938 18.984375 C 13.207031 18.984375 13.207031 18.980469 13.203125 18.976562 C 13.195312 18.964844 13.1875 18.957031 13.179688 18.945312 C 13.179688 18.941406 13.175781 18.941406 13.175781 18.9375 C 13.167969 18.929688 13.164062 18.917969 13.15625 18.910156 C 13.152344 18.90625 13.152344 18.902344 13.148438 18.898438 C 13.144531 18.886719 13.136719 18.878906 13.132812 18.871094 C 13.128906 18.867188 13.128906 18.863281 13.125 18.859375 C 13.121094 18.851562 13.117188 18.84375 13.113281 18.835938 C 13.109375 18.828125 13.105469 18.824219 13.105469 18.820312 C 13.101562 18.8125 13.097656 18.804688 13.09375 18.796875 C 13.089844 18.789062 13.085938 18.785156 13.085938 18.777344 C 13.082031 18.769531 13.078125 18.761719 13.074219 18.753906 C 13.070312 18.75 13.070312 18.742188 13.066406 18.738281 C 13.0625 18.730469 13.058594 18.722656 13.058594 18.714844 C 13.054688 18.707031 13.050781 18.703125 13.050781 18.695312 C 13.046875 18.6875 13.042969 18.679688 13.042969 18.671875 C 13.039062 18.664062 13.035156 18.660156 13.035156 18.652344 C 13.03125 18.644531 13.03125 18.636719 13.027344 18.628906 C 13.023438 18.621094 13.023438 18.613281 13.019531 18.609375 C 13.019531 18.601562 13.015625 18.589844 13.015625 18.582031 C 13.011719 18.574219 13.011719 18.570312 13.007812 18.5625 C 13.007812 18.554688 13.003906 18.542969 13 18.535156 C 13 18.527344 13 18.523438 13 18.519531 C 12.996094 18.503906 12.992188 18.488281 12.988281 18.472656 C 12.984375 18.4375 12.980469 18.402344 12.976562 18.371094 C 12.9375 17.921875 13.148438 17.527344 13.484375 17.421875 C 13.496094 17.417969 13.507812 17.414062 13.523438 17.410156 C 13.535156 17.40625 13.546875 17.40625 13.558594 17.402344 C 13.574219 17.398438 13.589844 17.398438 13.605469 17.398438 C 13.609375 17.394531 13.613281 17.394531 13.617188 17.394531 C 13.625 17.394531 13.628906 17.394531 13.636719 17.394531 C 13.640625 17.394531 13.644531 17.394531 13.648438 17.394531 C 13.65625 17.394531 13.660156 17.394531 13.667969 17.394531 C 13.667969 17.394531 13.671875 17.394531 13.675781 17.394531 C 13.675781 17.394531 13.679688 17.394531 13.683594 17.394531 C 13.6875 17.394531 13.695312 17.394531 13.703125 17.394531 C 13.707031 17.394531 13.714844 17.398438 13.71875 17.398438 C 13.726562 17.398438 13.730469 17.398438 13.738281 17.398438 C 13.746094 17.402344 13.75 17.402344 13.753906 17.402344 C 13.761719 17.402344 13.769531 17.40625 13.773438 17.40625 C 13.78125 17.40625 13.785156 17.40625 13.789062 17.410156 C 13.796875 17.410156 13.804688 17.414062 13.8125 17.414062 C 13.816406 17.414062 13.820312 17.417969 13.824219 17.417969 C 13.832031 17.417969 13.835938 17.421875 13.839844 17.421875 C 13.84375 17.421875 13.847656 17.425781 13.847656 17.425781 C 13.851562 17.425781 13.855469 17.425781 13.859375 17.429688 C 13.871094 17.433594 13.878906 17.4375 13.890625 17.441406 L 13.894531 17.441406 C 13.90625 17.445312 13.914062 17.449219 13.925781 17.457031 C 13.925781 17.457031 13.925781 17.457031 13.929688 17.457031 C 13.929688 17.457031 13.933594 17.457031 13.933594 17.460938 C 13.941406 17.464844 13.953125 17.46875 13.960938 17.472656 C 13.964844 17.476562 13.96875 17.476562 13.972656 17.480469 C 13.980469 17.484375 13.988281 17.488281 13.992188 17.492188 C 13.996094 17.496094 14 17.496094 14.003906 17.5 C 14.011719 17.503906 14.019531 17.507812 14.027344 17.511719 C 14.03125 17.515625 14.035156 17.519531 14.039062 17.519531 C 14.042969 17.527344 14.050781 17.53125 14.058594 17.535156 C 14.058594 17.535156 14.058594 17.535156 14.058594 17.539062 C 14.0625 17.539062 14.066406 17.542969 14.070312 17.542969 C 14.074219 17.550781 14.082031 17.554688 14.089844 17.558594 C 14.09375 17.5625 14.097656 17.566406 14.101562 17.570312 C 14.105469 17.574219 14.113281 17.578125 14.117188 17.585938 C 14.121094 17.589844 14.125 17.59375 14.128906 17.59375 C 14.136719 17.601562 14.140625 17.605469 14.148438 17.613281 C 14.152344 17.617188 14.15625 17.621094 14.160156 17.625 C 14.164062 17.628906 14.171875 17.636719 14.175781 17.640625 C 14.179688 17.644531 14.183594 17.648438 14.1875 17.652344 C 14.191406 17.660156 14.199219 17.667969 14.203125 17.675781 C 14.207031 17.675781 14.210938 17.679688 14.210938 17.683594 C 14.21875 17.691406 14.226562 17.703125 14.234375 17.710938 C 14.234375 17.710938 14.238281 17.714844 14.238281 17.714844 C 14.246094 17.726562 14.253906 17.738281 14.261719 17.75 C 14.265625 17.75 14.265625 17.753906 14.265625 17.753906 C 14.273438 17.765625 14.28125 17.773438 14.285156 17.785156 C 14.289062 17.789062 14.292969 17.792969 14.292969 17.796875 C 14.300781 17.804688 14.304688 17.8125 14.308594 17.820312 C 14.3125 17.828125 14.3125 17.832031 14.316406 17.835938 C 14.320312 17.84375 14.324219 17.851562 14.328125 17.859375 C 14.332031 17.863281 14.335938 17.871094 14.339844 17.875 C 14.34375 17.882812 14.347656 17.890625 14.351562 17.898438 C 14.351562 17.902344 14.355469 17.910156 14.359375 17.914062 C 14.363281 17.921875 14.363281 17.929688 14.367188 17.9375 C 14.371094 17.945312 14.375 17.949219 14.375 17.957031 C 14.378906 17.964844 14.382812 17.972656 14.386719 17.980469 C 14.386719 17.988281 14.390625 17.992188 14.390625 18 C 14.394531 18.007812 14.398438 18.015625 14.402344 18.023438 C 14.402344 18.027344 14.40625 18.035156 14.40625 18.042969 C 14.410156 18.050781 14.414062 18.058594 14.414062 18.066406 C 14.417969 18.074219 14.417969 18.078125 14.421875 18.085938 C 14.425781 18.09375 14.425781 18.101562 14.429688 18.113281 C 14.429688 18.117188 14.433594 18.125 14.433594 18.128906 C 14.4375 18.140625 14.4375 18.152344 14.441406 18.160156 C 14.441406 18.164062 14.441406 18.171875 14.445312 18.175781 C 14.445312 18.191406 14.449219 18.207031 14.453125 18.222656 C 14.503906 18.53125 14.4375 18.828125 14.289062 19.03125 Z M 13.753906 18.773438 C 13.804688 18.773438 13.851562 18.757812 13.898438 18.730469 C 13.949219 18.699219 13.992188 18.652344 14.023438 18.597656 C 14.070312 18.5 14.085938 18.394531 14.066406 18.289062 C 14.054688 18.207031 14.023438 18.132812 13.972656 18.066406 C 13.9375 18.019531 13.894531 17.984375 13.839844 17.957031 C 13.796875 17.933594 13.75 17.921875 13.699219 17.921875 C 13.695312 17.921875 13.691406 17.921875 13.6875 17.921875 C 13.664062 17.921875 13.636719 17.925781 13.609375 17.933594 C 13.585938 17.941406 13.5625 17.953125 13.539062 17.96875 C 13.414062 18.046875 13.34375 18.222656 13.375 18.40625 C 13.390625 18.484375 13.417969 18.554688 13.464844 18.617188 C 13.535156 18.714844 13.636719 18.773438 13.746094 18.773438 C 13.75 18.773438 13.75 18.773438 13.753906 18.773438 Z M 13.90625 18.621094 C 13.96875 18.550781 14 18.46875 13.996094 18.371094 C 13.996094 18.359375 13.996094 18.347656 13.992188 18.335938 C 13.992188 18.324219 13.992188 18.3125 13.988281 18.304688 C 13.980469 18.339844 13.960938 18.367188 13.929688 18.386719 C 13.921875 18.394531 13.90625 18.398438 13.894531 18.402344 C 13.851562 18.40625 13.816406 18.394531 13.789062 18.359375 C 13.773438 18.34375 13.761719 18.328125 13.753906 18.308594 C 13.742188 18.277344 13.738281 18.246094 13.738281 18.214844 C 13.742188 18.152344 13.773438 18.101562 13.824219 18.082031 C 13.828125 18.082031 13.832031 18.078125 13.839844 18.078125 C 13.851562 18.078125 13.863281 18.078125 13.878906 18.078125 C 13.875 18.078125 13.875 18.078125 13.875 18.078125 C 13.871094 18.074219 13.867188 18.070312 13.867188 18.070312 C 13.863281 18.066406 13.855469 18.0625 13.851562 18.058594 C 13.851562 18.054688 13.847656 18.050781 13.84375 18.050781 C 13.839844 18.046875 13.835938 18.042969 13.828125 18.039062 C 13.828125 18.039062 13.824219 18.035156 13.820312 18.035156 C 13.816406 18.03125 13.808594 18.027344 13.800781 18.023438 C 13.800781 18.023438 13.796875 18.023438 13.796875 18.023438 C 13.789062 18.019531 13.78125 18.015625 13.773438 18.011719 C 13.769531 18.011719 13.765625 18.011719 13.765625 18.007812 C 13.757812 18.007812 13.753906 18.003906 13.746094 18.003906 C 13.742188 18.003906 13.738281 18.003906 13.738281 18.003906 C 13.730469 18 13.726562 18 13.71875 18 C 13.71875 18 13.714844 18 13.710938 18 C 13.707031 18 13.703125 18 13.703125 18 C 13.699219 18 13.699219 18 13.699219 18 C 13.695312 18 13.695312 18 13.691406 18 C 13.691406 18 13.6875 18 13.6875 18 C 13.679688 18 13.671875 18 13.664062 18.003906 C 13.648438 18.003906 13.636719 18.007812 13.625 18.011719 C 13.585938 18.027344 13.550781 18.050781 13.523438 18.085938 C 13.515625 18.09375 13.511719 18.101562 13.507812 18.109375 C 13.476562 18.152344 13.460938 18.203125 13.453125 18.253906 C 13.449219 18.265625 13.449219 18.277344 13.449219 18.289062 C 13.445312 18.3125 13.449219 18.335938 13.449219 18.355469 C 13.449219 18.367188 13.453125 18.378906 13.453125 18.394531 C 13.457031 18.402344 13.457031 18.414062 13.460938 18.425781 C 13.460938 18.429688 13.464844 18.433594 13.464844 18.4375 C 13.464844 18.445312 13.46875 18.453125 13.46875 18.457031 C 13.472656 18.464844 13.472656 18.46875 13.476562 18.472656 C 13.476562 18.472656 13.476562 18.476562 13.476562 18.476562 C 13.480469 18.480469 13.480469 18.484375 13.480469 18.488281 C 13.484375 18.492188 13.484375 18.5 13.488281 18.503906 C 13.492188 18.507812 13.492188 18.511719 13.496094 18.519531 C 13.496094 18.523438 13.5 18.527344 13.503906 18.53125 C 13.503906 18.535156 13.507812 18.542969 13.511719 18.546875 C 13.511719 18.550781 13.515625 18.554688 13.519531 18.558594 C 13.523438 18.5625 13.523438 18.566406 13.527344 18.570312 C 13.53125 18.574219 13.535156 18.578125 13.535156 18.582031 C 13.539062 18.585938 13.542969 18.59375 13.546875 18.597656 C 13.550781 18.597656 13.554688 18.601562 13.554688 18.605469 C 13.558594 18.609375 13.5625 18.613281 13.566406 18.617188 C 13.570312 18.621094 13.574219 18.625 13.578125 18.625 C 13.582031 18.628906 13.585938 18.632812 13.589844 18.636719 C 13.59375 18.640625 13.597656 18.640625 13.597656 18.644531 C 13.605469 18.648438 13.609375 18.652344 13.613281 18.652344 C 13.617188 18.65625 13.617188 18.65625 13.621094 18.660156 C 13.628906 18.664062 13.632812 18.667969 13.640625 18.671875 C 13.644531 18.671875 13.644531 18.671875 13.644531 18.671875 C 13.652344 18.675781 13.664062 18.679688 13.671875 18.683594 C 13.671875 18.683594 13.675781 18.683594 13.679688 18.683594 C 13.683594 18.6875 13.691406 18.6875 13.695312 18.691406 C 13.699219 18.691406 13.703125 18.691406 13.707031 18.691406 C 13.710938 18.691406 13.71875 18.695312 13.722656 18.695312 C 13.726562 18.695312 13.730469 18.695312 13.734375 18.695312 C 13.734375 18.695312 13.738281 18.695312 13.742188 18.695312 C 13.742188 18.695312 13.742188 18.695312 13.746094 18.695312 C 13.746094 18.695312 13.746094 18.695312 13.75 18.695312 C 13.75 18.695312 13.753906 18.695312 13.753906 18.695312 C 13.765625 18.695312 13.773438 18.695312 13.78125 18.691406 C 13.792969 18.691406 13.804688 18.6875 13.816406 18.683594 C 13.851562 18.667969 13.882812 18.648438 13.90625 18.621094 Z M 15.933594 17.699219 C 15.890625 17.648438 15.835938 17.625 15.769531 17.621094 C 15.753906 17.621094 15.738281 17.625 15.722656 17.628906 C 15.71875 17.628906 15.714844 17.628906 15.714844 17.628906 C 15.652344 17.652344 15.609375 17.691406 15.578125 17.75 C 15.535156 17.835938 15.523438 17.925781 15.539062 18.019531 C 15.566406 18.195312 15.679688 18.328125 15.800781 18.339844 C 15.816406 18.34375 15.832031 18.34375 15.847656 18.339844 C 15.847656 18.339844 15.847656 18.339844 15.851562 18.339844 C 15.992188 18.320312 16.082031 18.140625 16.050781 17.945312 C 16.039062 17.847656 16 17.765625 15.933594 17.699219 Z M 22.5 14.992188 C 22.488281 14.980469 22.472656 14.972656 22.460938 14.964844 C 22.433594 14.949219 22.410156 14.9375 22.382812 14.929688 C 22.207031 14.882812 22.035156 14.882812 21.859375 14.929688 C 21.832031 14.9375 21.804688 14.949219 21.78125 14.964844 C 21.765625 14.972656 21.753906 14.980469 21.742188 14.992188 C 21.734375 15 21.726562 15.007812 21.71875 15.019531 C 21.707031 15.042969 21.707031 15.0625 21.71875 15.085938 C 21.722656 15.089844 21.726562 15.09375 21.730469 15.097656 C 21.746094 15.117188 21.761719 15.128906 21.78125 15.140625 C 21.796875 15.148438 21.8125 15.15625 21.832031 15.164062 C 21.863281 15.175781 21.894531 15.183594 21.925781 15.191406 C 21.933594 15.191406 21.945312 15.195312 21.957031 15.195312 C 21.96875 15.199219 21.984375 15.199219 22 15.203125 C 22.082031 15.210938 22.160156 15.210938 22.242188 15.203125 C 22.257812 15.199219 22.273438 15.199219 22.285156 15.195312 C 22.296875 15.195312 22.304688 15.191406 22.316406 15.191406 C 22.347656 15.183594 22.378906 15.175781 22.410156 15.164062 C 22.429688 15.15625 22.445312 15.148438 22.460938 15.140625 C 22.480469 15.128906 22.496094 15.117188 22.511719 15.097656 C 22.515625 15.09375 22.519531 15.089844 22.523438 15.085938 C 22.535156 15.0625 22.535156 15.042969 22.523438 15.019531 C 22.515625 15.007812 22.507812 15 22.5 14.992188 Z M 8.179688 14.9375 C 7.953125 14.9375 7.769531 15.007812 7.769531 15.09375 C 7.769531 15.128906 7.792969 15.15625 7.839844 15.183594 C 7.863281 15.195312 7.890625 15.207031 7.917969 15.214844 C 7.929688 15.21875 7.9375 15.222656 7.949219 15.226562 C 7.960938 15.226562 7.96875 15.230469 7.980469 15.234375 C 7.992188 15.234375 8.003906 15.238281 8.011719 15.238281 C 8.015625 15.238281 8.015625 15.238281 8.019531 15.238281 C 8.125 15.257812 8.230469 15.257812 8.339844 15.238281 C 8.339844 15.238281 8.339844 15.238281 8.34375 15.238281 C 8.355469 15.238281 8.367188 15.234375 8.375 15.234375 C 8.386719 15.230469 8.398438 15.226562 8.40625 15.226562 C 8.417969 15.222656 8.429688 15.21875 8.4375 15.214844 C 8.464844 15.207031 8.492188 15.195312 8.519531 15.183594 C 8.5625 15.15625 8.589844 15.128906 8.589844 15.09375 C 8.589844 15.007812 8.40625 14.9375 8.179688 14.9375 Z M 18.421875 10.367188 C 18.507812 10.417969 18.582031 10.488281 18.582031 10.589844 L 18.582031 10.6875 C 18.828125 10.917969 19.03125 11.097656 19.078125 11.121094 L 22.035156 11.824219 C 22.125 11.847656 22.207031 11.832031 22.277344 11.773438 L 22.28125 11.773438 L 22.519531 11.601562 C 22.523438 11.597656 22.527344 11.59375 22.523438 11.585938 C 22.523438 11.578125 22.519531 11.574219 22.515625 11.574219 L 18.421875 9.96875 Z M 17.777344 9.839844 C 17.757812 9.851562 17.738281 9.859375 17.722656 9.867188 C 17.699219 9.878906 17.679688 9.890625 17.664062 9.902344 C 17.539062 9.976562 17.433594 10.070312 17.34375 10.183594 L 17.34375 10.308594 C 17.496094 10.269531 17.652344 10.25 17.808594 10.25 C 17.855469 10.25 17.90625 10.25 17.949219 10.253906 C 17.984375 10.257812 18.015625 10.261719 18.046875 10.265625 C 18.082031 10.269531 18.117188 10.273438 18.152344 10.28125 C 18.191406 10.289062 18.234375 10.296875 18.273438 10.308594 L 18.273438 9.679688 C 18.273438 9.582031 18.066406 9.5 17.808594 9.5 C 17.769531 9.5 17.734375 9.5 17.699219 9.503906 L 17.726562 9.542969 L 17.835938 9.691406 L 17.898438 9.773438 L 17.90625 9.785156 L 17.835938 9.8125 C 17.8125 9.824219 17.792969 9.832031 17.777344 9.839844 Z M 18.300781 11.882812 C 18.316406 11.875 18.328125 11.871094 18.339844 11.863281 C 18.355469 11.859375 18.367188 11.851562 18.378906 11.847656 C 18.4375 11.8125 18.472656 11.769531 18.472656 11.726562 L 18.472656 10.589844 C 18.472656 10.589844 18.472656 10.585938 18.472656 10.585938 C 18.46875 10.550781 18.453125 10.519531 18.421875 10.5 C 18.402344 10.484375 18.382812 10.472656 18.359375 10.460938 C 18.347656 10.453125 18.335938 10.449219 18.320312 10.441406 C 18.308594 10.4375 18.289062 10.429688 18.273438 10.425781 C 18.261719 10.421875 18.246094 10.417969 18.230469 10.414062 C 18.21875 10.410156 18.203125 10.40625 18.191406 10.402344 C 18.1875 10.402344 18.183594 10.398438 18.179688 10.398438 C 18.164062 10.394531 18.144531 10.390625 18.125 10.386719 C 18.109375 10.382812 18.097656 10.382812 18.082031 10.378906 C 18.078125 10.378906 18.070312 10.378906 18.066406 10.378906 C 18.058594 10.375 18.046875 10.375 18.039062 10.375 C 18.015625 10.371094 17.996094 10.367188 17.976562 10.367188 C 17.921875 10.363281 17.867188 10.359375 17.808594 10.359375 C 17.753906 10.359375 17.695312 10.363281 17.644531 10.367188 C 17.621094 10.367188 17.601562 10.371094 17.582031 10.375 C 17.570312 10.375 17.5625 10.375 17.550781 10.378906 C 17.53125 10.378906 17.511719 10.382812 17.492188 10.386719 C 17.472656 10.390625 17.457031 10.394531 17.4375 10.398438 C 17.421875 10.402344 17.402344 10.40625 17.386719 10.414062 C 17.371094 10.417969 17.359375 10.421875 17.34375 10.425781 C 17.328125 10.429688 17.3125 10.4375 17.296875 10.441406 C 17.285156 10.449219 17.269531 10.453125 17.257812 10.460938 C 17.238281 10.472656 17.21875 10.484375 17.199219 10.5 C 17.167969 10.519531 17.148438 10.550781 17.144531 10.589844 L 17.144531 11.726562 C 17.144531 11.769531 17.179688 11.8125 17.242188 11.84375 C 17.253906 11.851562 17.265625 11.859375 17.277344 11.863281 C 17.289062 11.871094 17.304688 11.875 17.320312 11.882812 C 17.320312 11.882812 17.320312 11.882812 17.324219 11.882812 C 17.308594 11.859375 17.304688 11.832031 17.304688 11.804688 C 17.304688 11.628906 17.566406 11.550781 17.808594 11.550781 C 17.894531 11.550781 17.980469 11.558594 18.0625 11.582031 C 18.078125 11.585938 18.097656 11.589844 18.113281 11.597656 C 18.132812 11.601562 18.148438 11.609375 18.167969 11.617188 C 18.195312 11.628906 18.21875 11.644531 18.242188 11.664062 C 18.292969 11.699219 18.316406 11.746094 18.316406 11.804688 C 18.316406 11.832031 18.308594 11.859375 18.296875 11.882812 C 18.296875 11.882812 18.300781 11.882812 18.300781 11.882812 Z M 18.066406 11.683594 C 18.050781 11.675781 18.03125 11.671875 18.011719 11.667969 C 17.945312 11.652344 17.878906 11.648438 17.808594 11.648438 C 17.582031 11.648438 17.398438 11.71875 17.398438 11.804688 C 17.398438 11.871094 17.5 11.925781 17.644531 11.949219 C 17.699219 11.957031 17.753906 11.960938 17.808594 11.960938 C 17.824219 11.960938 17.839844 11.960938 17.851562 11.960938 C 17.875 11.960938 17.894531 11.957031 17.917969 11.957031 C 17.9375 11.953125 17.957031 11.953125 17.976562 11.949219 C 17.980469 11.949219 17.980469 11.949219 17.984375 11.945312 C 18.027344 11.941406 18.070312 11.929688 18.109375 11.914062 C 18.175781 11.882812 18.21875 11.847656 18.21875 11.804688 C 18.21875 11.785156 18.210938 11.765625 18.195312 11.753906 C 18.175781 11.730469 18.148438 11.714844 18.121094 11.703125 C 18.101562 11.695312 18.085938 11.6875 18.066406 11.683594 Z M 13.375 8.585938 L 17.199219 10.125 L 17.230469 10.140625 C 17.261719 10.089844 17.300781 10.042969 17.34375 10 C 17.429688 9.914062 17.527344 9.839844 17.632812 9.78125 C 17.660156 9.765625 17.6875 9.75 17.71875 9.734375 L 17.566406 9.527344 L 17.558594 9.519531 L 17.492188 9.425781 L 17.472656 9.398438 L 17.453125 9.375 L 17.433594 9.347656 C 17.308594 9.179688 17.144531 9.066406 16.941406 9.011719 L 14.027344 8.21875 C 13.855469 8.171875 13.699219 8.203125 13.558594 8.3125 L 13.359375 8.46875 C 13.339844 8.488281 13.332031 8.507812 13.335938 8.535156 C 13.339844 8.558594 13.351562 8.578125 13.375 8.585938 Z M 13.375 8.585938 " fill-opacity="1" fill-rule="nonzero"/></g></svg>