<svg xmlns="http://www.w3.org/2000/svg" xmlns:xlink="http://www.w3.org/1999/xlink" width="40" zoomAndPan="magnify" viewBox="0 0 30 30.000001" height="40" preserveAspectRatio="xMidYMid meet" version="1.0"><defs><clipPath id="ffe01cc56c"><path d="M 0.484375 0 L 29.515625 0 L 29.515625 29.03125 L 0.484375 29.03125 Z M 0.484375 0 " clip-rule="nonzero"/></clipPath><clipPath id="9990bb4163"><path d="M 3.386719 5.226562 L 26.613281 5.226562 L 26.613281 24 L 3.386719 24 Z M 3.386719 5.226562 " clip-rule="nonzero"/></clipPath></defs><g clip-path="url(#ffe01cc56c)"><path fill="#ffffff" d="M 0.484375 0 L 29.515625 0 L 29.515625 29.03125 L 0.484375 29.03125 Z M 0.484375 0 " fill-opacity="1" fill-rule="nonzero"/><path fill="#ffffff" d="M 0.484375 0 L 29.515625 0 L 29.515625 29.03125 L 0.484375 29.03125 Z M 0.484375 0 " fill-opacity="1" fill-rule="nonzero"/></g><g clip-path="url(#9990bb4163)"><path fill="#935f3d" d="M 13.566406 12.964844 C 13.175781 12.976562 12.757812 13 12.382812 13.113281 C 12.015625 13.234375 11.726562 13.457031 11.519531 13.78125 C 11.328125 14.0625 11.1875 14.363281 11.09375 14.6875 C 10.960938 14.667969 10.824219 14.660156 10.6875 14.664062 C 10.519531 14.65625 10.359375 14.679688 10.199219 14.726562 C 10.042969 14.789062 10.015625 14.945312 9.980469 15.089844 C 9.9375 15.261719 9.898438 15.433594 9.871094 15.605469 C 9.839844 15.777344 9.816406 15.949219 9.800781 16.125 C 9.785156 16.269531 9.742188 16.449219 9.824219 16.582031 C 9.90625 16.71875 10.09375 16.734375 10.238281 16.753906 C 10.429688 16.777344 10.621094 16.785156 10.808594 16.78125 C 10.859375 16.777344 10.890625 16.757812 10.914062 16.714844 C 10.917969 16.816406 10.925781 16.917969 10.933594 17.019531 C 10.957031 17.335938 11.03125 17.640625 11.152344 17.933594 C 11.257812 18.203125 11.421875 18.429688 11.648438 18.609375 C 11.902344 18.804688 12.1875 18.941406 12.496094 19.023438 C 12.804688 19.105469 13.117188 19.109375 13.433594 19.128906 L 13.476562 19.128906 C 13.472656 19.132812 13.46875 19.136719 13.464844 19.140625 C 13.347656 19.335938 13.4375 19.582031 13.613281 19.710938 C 13.824219 19.867188 14.109375 19.828125 14.355469 19.804688 L 14.785156 19.761719 C 14.917969 19.75 15.074219 19.757812 15.199219 19.703125 C 15.40625 19.617188 15.441406 19.378906 15.4375 19.175781 C 15.4375 19.160156 15.4375 19.144531 15.429688 19.132812 C 15.527344 19.121094 15.621094 19.105469 15.71875 19.09375 C 16.089844 19.019531 16.441406 18.894531 16.777344 18.71875 C 17.242188 18.492188 17.589844 18.089844 17.820312 17.628906 C 17.835938 17.667969 17.863281 17.691406 17.902344 17.695312 C 18.125 17.734375 18.363281 17.765625 18.585938 17.707031 C 18.800781 17.644531 18.957031 17.511719 19.050781 17.308594 C 19.144531 17.101562 19.207031 16.882812 19.234375 16.65625 C 19.265625 16.445312 19.285156 16.191406 19.152344 16.007812 C 19.058594 15.878906 18.910156 15.835938 18.765625 15.789062 L 18.253906 15.625 C 18.242188 15.625 18.230469 15.621094 18.21875 15.621094 C 18.226562 15.339844 18.195312 15.058594 18.125 14.785156 C 18.078125 14.613281 18.007812 14.453125 17.910156 14.304688 C 17.695312 14.015625 17.421875 13.800781 17.09375 13.65625 C 16.738281 13.488281 16.371094 13.355469 15.992188 13.253906 C 15.800781 13.203125 15.613281 13.15625 15.421875 13.121094 C 15.445312 12.996094 15.457031 12.875 15.460938 12.75 C 15.460938 12.671875 15.464844 12.558594 15.402344 12.496094 C 15.332031 12.441406 15.253906 12.414062 15.167969 12.414062 L 15.113281 12.402344 C 15.113281 12.402344 15.113281 12.402344 15.113281 12.398438 C 15.148438 12.0625 15.203125 11.730469 15.273438 11.402344 C 15.296875 11.402344 15.320312 11.398438 15.34375 11.386719 C 15.460938 11.3125 15.535156 11.210938 15.566406 11.074219 C 15.59375 10.933594 15.554688 10.820312 15.445312 10.726562 C 15.332031 10.628906 15.210938 10.613281 15.078125 10.683594 C 14.945312 10.773438 14.886719 10.894531 14.902344 11.054688 C 14.910156 11.144531 14.949219 11.21875 15.011719 11.28125 C 15.019531 11.289062 15.03125 11.296875 15.039062 11.300781 C 14.960938 11.652344 14.90625 12.003906 14.867188 12.363281 C 14.800781 12.34375 14.734375 12.335938 14.664062 12.347656 C 14.523438 12.382812 14.472656 12.546875 14.433594 12.671875 C 14.398438 12.769531 14.386719 12.875 14.390625 12.980469 C 14.117188 12.960938 13.839844 12.957031 13.566406 12.964844 Z M 10.90625 15.875 C 10.894531 16.109375 10.898438 16.34375 10.90625 16.578125 C 10.882812 16.542969 10.851562 16.527344 10.808594 16.53125 C 10.667969 16.535156 10.523438 16.53125 10.382812 16.519531 C 10.3125 16.511719 10.242188 16.503906 10.167969 16.492188 C 10.125 16.484375 10.050781 16.484375 10.03125 16.4375 C 10.019531 16.378906 10.019531 16.316406 10.03125 16.257812 C 10.035156 16.1875 10.042969 16.121094 10.050781 16.050781 C 10.066406 15.910156 10.085938 15.769531 10.109375 15.628906 C 10.136719 15.492188 10.164062 15.355469 10.199219 15.222656 C 10.214844 15.15625 10.230469 15.085938 10.25 15.019531 C 10.269531 14.953125 10.28125 14.953125 10.34375 14.9375 C 10.570312 14.894531 10.796875 14.890625 11.027344 14.921875 C 10.957031 15.238281 10.917969 15.554688 10.90625 15.875 Z M 15.050781 19.492188 C 14.84375 19.527344 14.628906 19.53125 14.421875 19.554688 C 14.238281 19.570312 14.039062 19.609375 13.859375 19.5625 C 13.742188 19.527344 13.597656 19.398438 13.675781 19.261719 C 13.707031 19.222656 13.707031 19.179688 13.675781 19.136719 C 13.964844 19.15625 14.253906 19.171875 14.542969 19.175781 C 14.761719 19.175781 14.980469 19.167969 15.199219 19.152344 C 15.199219 19.160156 15.199219 19.167969 15.199219 19.175781 C 15.195312 19.300781 15.203125 19.46875 15.050781 19.492188 Z M 18.207031 15.902344 C 18.207031 15.890625 18.207031 15.878906 18.207031 15.867188 L 18.664062 16.011719 C 18.789062 16.054688 18.9375 16.078125 18.988281 16.21875 C 19.054688 16.425781 18.988281 16.683594 18.941406 16.886719 C 18.890625 17.089844 18.820312 17.316406 18.628906 17.425781 C 18.4375 17.53125 18.175781 17.496094 17.964844 17.457031 C 17.941406 17.453125 17.917969 17.457031 17.898438 17.464844 C 17.949219 17.347656 17.992188 17.226562 18.027344 17.105469 C 18.136719 16.710938 18.195312 16.3125 18.207031 15.902344 Z M 16.4375 13.648438 C 16.765625 13.75 17.074219 13.898438 17.359375 14.089844 C 17.488281 14.183594 17.601562 14.296875 17.695312 14.429688 C 17.886719 14.71875 17.953125 15.058594 17.96875 15.398438 C 17.980469 15.769531 17.960938 16.132812 17.90625 16.5 C 17.804688 17.167969 17.546875 17.835938 17.011719 18.277344 C 16.753906 18.488281 16.425781 18.617188 16.117188 18.730469 C 15.761719 18.847656 15.398438 18.910156 15.023438 18.921875 C 14.34375 18.957031 13.652344 18.902344 12.972656 18.855469 C 12.453125 18.820312 11.832031 18.578125 11.53125 18.132812 C 11.195312 17.644531 11.160156 17.015625 11.144531 16.445312 C 11.121094 15.921875 11.167969 15.40625 11.285156 14.898438 C 11.3125 14.867188 11.320312 14.832031 11.316406 14.789062 C 11.351562 14.660156 11.398438 14.53125 11.453125 14.402344 C 11.585938 14.09375 11.765625 13.78125 12.03125 13.5625 C 12.320312 13.328125 12.703125 13.273438 13.0625 13.238281 C 14.21875 13.125 15.34375 13.261719 16.4375 13.644531 Z M 15.160156 10.949219 Z M 15.160156 10.941406 C 15.160156 10.945312 15.160156 10.945312 15.160156 10.949219 C 15.160156 10.949219 15.160156 10.941406 15.160156 10.941406 Z M 15.144531 10.996094 C 15.144531 10.996094 15.144531 10.992188 15.144531 10.992188 C 15.144531 10.980469 15.148438 10.96875 15.152344 10.960938 L 15.152344 10.949219 C 15.15625 10.941406 15.160156 10.929688 15.167969 10.921875 L 15.167969 10.914062 L 15.179688 10.902344 C 15.179688 10.902344 15.183594 10.898438 15.1875 10.898438 L 15.195312 10.894531 L 15.222656 10.894531 L 15.242188 10.898438 C 15.253906 10.902344 15.261719 10.90625 15.269531 10.914062 C 15.277344 10.917969 15.285156 10.925781 15.289062 10.933594 C 15.289062 10.941406 15.300781 10.949219 15.304688 10.957031 C 15.304688 10.964844 15.304688 10.976562 15.308594 10.980469 C 15.316406 10.988281 15.308594 10.980469 15.308594 10.988281 C 15.308594 10.996094 15.308594 11.011719 15.308594 11.019531 L 15.308594 11.03125 C 15.308594 11.042969 15.304688 11.050781 15.300781 11.0625 L 15.292969 11.074219 C 15.289062 11.085938 15.28125 11.09375 15.277344 11.105469 C 15.273438 11.109375 15.269531 11.113281 15.269531 11.117188 L 15.257812 11.128906 C 15.25 11.125 15.242188 11.125 15.234375 11.128906 L 15.21875 11.128906 L 15.203125 11.125 L 15.179688 11.109375 L 15.164062 11.09375 C 15.160156 11.09375 15.160156 11.089844 15.15625 11.089844 C 15.15625 11.089844 15.152344 11.089844 15.152344 11.085938 C 15.152344 11.078125 15.152344 11.074219 15.148438 11.070312 C 15.140625 11.066406 15.148438 11.070312 15.144531 11.066406 L 15.144531 11.058594 C 15.144531 11.054688 15.140625 11.046875 15.136719 11.039062 C 15.136719 11.039062 15.136719 11.035156 15.136719 11.03125 C 15.136719 11.019531 15.136719 11.011719 15.136719 11 C 15.136719 11 15.136719 11 15.136719 10.996094 C 15.144531 11.003906 15.144531 11.011719 15.144531 10.996094 Z M 14.726562 12.582031 Z M 14.636719 12.964844 C 14.636719 12.960938 14.636719 12.953125 14.636719 12.945312 L 14.636719 12.859375 C 14.636719 12.839844 14.644531 12.816406 14.648438 12.796875 C 14.660156 12.75 14.675781 12.703125 14.691406 12.660156 C 14.691406 12.648438 14.699219 12.640625 14.703125 12.632812 L 14.703125 12.625 L 14.714844 12.601562 C 14.71875 12.59375 14.71875 12.589844 14.722656 12.582031 L 14.734375 12.582031 L 14.816406 12.597656 L 15.019531 12.636719 C 15.078125 12.644531 15.136719 12.660156 15.199219 12.667969 C 15.199219 12.691406 15.199219 12.714844 15.199219 12.742188 C 15.199219 12.851562 15.1875 12.960938 15.164062 13.070312 C 14.988281 13.042969 14.8125 13.019531 14.636719 13 C 14.636719 12.988281 14.636719 12.976562 14.636719 12.964844 Z M 13.34375 15.484375 C 13.445312 15.585938 13.457031 15.699219 13.378906 15.820312 C 13.363281 15.84375 13.347656 15.867188 13.324219 15.886719 C 13.296875 15.910156 13.265625 15.929688 13.230469 15.945312 C 13.171875 15.964844 13.113281 15.964844 13.054688 15.945312 C 12.984375 15.921875 12.929688 15.875 12.890625 15.8125 C 12.875 15.785156 12.871094 15.757812 12.878906 15.726562 C 12.871094 15.714844 12.867188 15.703125 12.867188 15.691406 C 12.855469 15.636719 12.863281 15.585938 12.886719 15.539062 C 12.898438 15.511719 12.917969 15.484375 12.941406 15.464844 C 13.019531 15.398438 13.105469 15.382812 13.203125 15.410156 C 13.257812 15.421875 13.304688 15.449219 13.34375 15.484375 Z M 15.832031 16.191406 C 15.847656 16.210938 15.867188 16.226562 15.890625 16.230469 C 15.914062 16.234375 15.941406 16.238281 15.964844 16.234375 C 16 16.234375 16.03125 16.222656 16.0625 16.210938 C 16.109375 16.1875 16.144531 16.15625 16.171875 16.117188 C 16.199219 16.070312 16.214844 16.023438 16.210938 15.972656 C 16.210938 15.894531 16.183594 15.828125 16.121094 15.777344 C 16.097656 15.757812 16.066406 15.738281 16.035156 15.726562 C 15.996094 15.710938 15.957031 15.707031 15.914062 15.710938 C 15.8125 15.71875 15.683594 15.761719 15.65625 15.871094 C 15.648438 15.902344 15.648438 15.929688 15.648438 15.960938 C 15.648438 15.992188 15.65625 16.019531 15.664062 16.046875 C 15.6875 16.132812 15.742188 16.183594 15.832031 16.195312 Z M 15.945312 15.957031 L 15.960938 15.957031 C 15.960938 15.957031 15.960938 15.957031 15.960938 15.960938 L 15.960938 15.972656 L 15.933594 15.972656 C 15.921875 15.960938 15.910156 15.949219 15.894531 15.941406 L 15.914062 15.9375 Z M 14.722656 16.75 C 14.796875 16.714844 14.859375 16.664062 14.917969 16.605469 C 14.972656 16.554688 15.03125 16.554688 15.085938 16.609375 C 15.140625 16.664062 15.144531 16.722656 15.089844 16.78125 C 15 16.871094 14.894531 16.941406 14.777344 16.988281 C 14.65625 17.019531 14.535156 17.027344 14.410156 17.007812 C 14.277344 17.003906 14.152344 16.972656 14.03125 16.914062 C 13.910156 16.847656 13.851562 16.746094 13.859375 16.605469 C 13.859375 16.527344 13.902344 16.484375 13.980469 16.484375 C 14.0625 16.484375 14.101562 16.527344 14.101562 16.605469 C 14.097656 16.667969 14.140625 16.707031 14.207031 16.726562 C 14.289062 16.75 14.375 16.765625 14.464844 16.769531 C 14.550781 16.78125 14.636719 16.777344 14.722656 16.75 Z M 12.824219 13.867188 C 12.484375 13.980469 12.222656 14.195312 12.039062 14.503906 C 11.898438 14.777344 11.792969 15.0625 11.722656 15.359375 C 11.578125 15.929688 11.515625 16.589844 11.730469 17.152344 C 11.933594 17.675781 12.375 18.007812 12.894531 18.1875 C 13.261719 18.300781 13.636719 18.371094 14.019531 18.394531 C 14.75 18.464844 15.46875 18.398438 16.171875 18.195312 C 16.714844 18.027344 17.089844 17.613281 17.316406 17.105469 C 17.546875 16.632812 17.609375 16.144531 17.511719 15.628906 C 17.472656 15.460938 17.421875 15.300781 17.355469 15.140625 C 17.140625 14.671875 16.683594 14.359375 16.226562 14.148438 C 15.894531 13.992188 15.542969 13.882812 15.179688 13.824219 C 14.414062 13.699219 13.570312 13.585938 12.824219 13.867188 Z M 16.972656 14.972656 C 17.042969 15.0625 17.101562 15.15625 17.144531 15.261719 C 17.355469 15.742188 17.375 16.230469 17.207031 16.726562 C 17.0625 17.167969 16.800781 17.617188 16.386719 17.847656 C 16.113281 18 15.769531 18.058594 15.464844 18.105469 C 15.132812 18.15625 14.796875 18.179688 14.460938 18.171875 C 14.066406 18.167969 13.679688 18.128906 13.292969 18.050781 C 12.863281 17.953125 12.417969 17.769531 12.140625 17.410156 C 11.792969 16.945312 11.796875 16.292969 11.890625 15.75 C 11.933594 15.515625 11.992188 15.289062 12.066406 15.066406 C 12.167969 14.761719 12.304688 14.453125 12.582031 14.261719 C 12.859375 14.074219 13.214844 13.992188 13.550781 13.960938 C 13.929688 13.929688 14.3125 13.941406 14.691406 13.992188 C 15.078125 14.03125 15.460938 14.117188 15.832031 14.242188 C 16.25 14.398438 16.683594 14.621094 16.972656 14.976562 Z M 21.625 17.609375 C 21.542969 17.5625 21.4375 17.582031 21.351562 17.597656 C 21.261719 17.613281 21.175781 17.644531 21.09375 17.683594 C 21.058594 17.703125 21.023438 17.726562 20.992188 17.75 C 20.992188 17.75 20.988281 17.75 20.988281 17.75 C 20.988281 17.714844 20.996094 17.679688 20.996094 17.65625 C 21 17.574219 20.984375 17.503906 20.941406 17.433594 C 20.898438 17.359375 20.835938 17.316406 20.753906 17.308594 C 20.667969 17.300781 20.597656 17.328125 20.542969 17.394531 C 20.492188 17.460938 20.453125 17.535156 20.429688 17.617188 C 20.398438 17.695312 20.378906 17.773438 20.363281 17.855469 C 20.328125 18.027344 20.320312 18.203125 20.34375 18.375 C 20.234375 18.425781 20.136719 18.488281 20.046875 18.566406 C 19.683594 18.847656 19.40625 19.199219 19.21875 19.617188 C 19.09375 19.632812 18.992188 19.6875 18.90625 19.777344 C 18.816406 19.875 18.761719 19.984375 18.742188 20.113281 C 18.6875 20.089844 18.628906 20.070312 18.582031 20.054688 C 18.289062 19.957031 17.988281 19.894531 17.683594 19.863281 C 17.332031 19.820312 16.980469 19.8125 16.625 19.804688 C 16.542969 19.671875 16.453125 19.546875 16.355469 19.429688 C 16.242188 19.285156 16.109375 19.171875 15.953125 19.082031 C 15.8125 19.011719 15.6875 19.222656 15.832031 19.292969 C 16.09375 19.425781 16.289062 19.71875 16.4375 19.964844 C 16.515625 20.09375 16.585938 20.226562 16.636719 20.371094 C 16.695312 20.554688 16.730469 20.746094 16.75 20.941406 C 16.804688 21.355469 16.804688 21.769531 16.75 22.183594 C 16.722656 22.40625 16.679688 22.625 16.632812 22.84375 C 16.597656 23.007812 16.574219 23.253906 16.429688 23.363281 C 16.355469 23.421875 16.246094 23.417969 16.15625 23.421875 L 15.773438 23.449219 C 15.53125 23.464844 15.28125 23.476562 15.035156 23.492188 C 14.542969 23.515625 14.054688 23.535156 13.566406 23.550781 C 13.324219 23.558594 13.078125 23.570312 12.828125 23.5625 C 12.722656 23.5625 12.613281 23.550781 12.507812 23.523438 C 12.402344 23.488281 12.398438 23.328125 12.382812 23.230469 C 12.300781 22.761719 12.273438 22.285156 12.292969 21.808594 C 12.304688 21.324219 12.3125 20.835938 12.445312 20.367188 C 12.550781 19.996094 12.738281 19.609375 13.082031 19.402344 C 13.152344 19.359375 13.167969 19.304688 13.125 19.234375 C 13.085938 19.164062 13.027344 19.148438 12.957031 19.191406 C 12.730469 19.332031 12.550781 19.519531 12.421875 19.753906 C 12.402344 19.75 12.378906 19.75 12.359375 19.753906 C 12.023438 19.875 11.707031 20.03125 11.414062 20.230469 C 11.136719 20.40625 10.886719 20.613281 10.660156 20.851562 C 10.554688 20.96875 10.460938 21.09375 10.375 21.226562 C 10.359375 21.207031 10.339844 21.191406 10.320312 21.179688 C 10.253906 20.875 10.195312 20.570312 10.121094 20.269531 C 10.058594 20.011719 9.964844 19.742188 9.777344 19.550781 C 9.886719 19.296875 9.90625 19.015625 9.933594 18.746094 C 9.949219 18.65625 9.933594 18.578125 9.878906 18.503906 C 9.808594 18.421875 9.722656 18.402344 9.625 18.453125 C 9.558594 18.492188 9.503906 18.542969 9.460938 18.605469 C 9.4375 18.636719 9.414062 18.671875 9.390625 18.703125 C 9.28125 18.617188 9.167969 18.527344 9.054688 18.449219 C 8.976562 18.382812 8.894531 18.378906 8.804688 18.425781 C 8.71875 18.476562 8.679688 18.550781 8.695312 18.652344 C 8.707031 18.726562 8.734375 18.800781 8.773438 18.867188 C 8.804688 18.921875 8.835938 18.976562 8.867188 19.03125 C 8.9375 19.152344 9.007812 19.273438 9.085938 19.386719 C 9.152344 19.488281 9.226562 19.589844 9.304688 19.679688 C 9.300781 19.710938 9.292969 19.742188 9.289062 19.769531 C 9.269531 19.992188 9.28125 20.210938 9.328125 20.425781 C 9.382812 20.765625 9.488281 21.089844 9.640625 21.394531 L 9.640625 21.398438 C 9.546875 21.539062 9.632812 21.738281 9.703125 21.867188 C 9.742188 21.9375 9.785156 22 9.835938 22.058594 C 9.886719 22.121094 9.953125 22.164062 10.03125 22.1875 C 10.144531 22.210938 10.242188 22.179688 10.320312 22.089844 C 10.375 22.023438 10.410156 21.949219 10.433594 21.867188 C 10.472656 21.875 10.511719 21.878906 10.550781 21.878906 C 10.734375 21.875 10.914062 21.835938 11.085938 21.769531 C 11.425781 21.652344 11.757812 21.511719 12.074219 21.339844 L 12.070312 21.433594 C 12.035156 21.964844 12.050781 22.496094 12.113281 23.023438 C 12.128906 23.152344 12.152344 23.28125 12.179688 23.40625 C 12.191406 23.515625 12.238281 23.609375 12.316406 23.6875 C 12.410156 23.75 12.511719 23.78125 12.625 23.785156 C 12.761719 23.796875 12.902344 23.804688 13.039062 23.800781 C 13.582031 23.796875 14.121094 23.769531 14.664062 23.746094 C 15.203125 23.722656 15.742188 23.703125 16.277344 23.652344 C 16.507812 23.644531 16.667969 23.539062 16.757812 23.328125 C 16.839844 23.113281 16.898438 22.890625 16.929688 22.664062 C 17.023438 22.207031 17.054688 21.742188 17.03125 21.277344 C 17.023438 21.136719 17.011719 21 16.992188 20.863281 L 17.003906 20.863281 C 17.324219 20.890625 17.644531 20.882812 17.964844 20.835938 C 18.121094 20.816406 18.277344 20.785156 18.429688 20.742188 C 18.554688 20.71875 18.671875 20.675781 18.78125 20.609375 C 18.886719 20.726562 19.015625 20.78125 19.171875 20.773438 C 19.40625 20.757812 19.550781 20.636719 19.597656 20.402344 C 19.617188 20.332031 19.621094 20.257812 19.617188 20.183594 C 19.652344 20.183594 19.679688 20.171875 19.703125 20.144531 C 19.898438 19.941406 20.101562 19.738281 20.285156 19.527344 C 20.476562 19.332031 20.625 19.109375 20.734375 18.863281 C 20.746094 18.828125 20.757812 18.792969 20.765625 18.753906 C 20.820312 18.796875 20.871094 18.792969 20.917969 18.742188 L 21.363281 18.296875 C 21.4375 18.226562 21.511719 18.15625 21.578125 18.082031 C 21.644531 18.019531 21.6875 17.945312 21.710938 17.859375 C 21.738281 17.757812 21.710938 17.675781 21.625 17.609375 Z M 9.742188 18.667969 L 9.746094 18.660156 C 9.75 18.667969 9.746094 18.671875 9.742188 18.667969 Z M 9.703125 18.652344 Z M 8.945312 18.625 Z M 8.914062 18.632812 Z M 9.074219 18.878906 C 9.042969 18.824219 9.015625 18.765625 8.984375 18.710938 L 8.96875 18.679688 L 9.027344 18.71875 L 9.132812 18.800781 L 9.375 18.988281 C 9.445312 19.027344 9.5 19.011719 9.539062 18.945312 C 9.566406 18.890625 9.59375 18.839844 9.628906 18.792969 C 9.636719 18.785156 9.667969 18.75 9.695312 18.71875 C 9.695312 18.769531 9.6875 18.820312 9.683594 18.867188 C 9.671875 19.066406 9.632812 19.253906 9.566406 19.4375 C 9.527344 19.4375 9.488281 19.445312 9.453125 19.46875 C 9.3125 19.28125 9.183594 19.085938 9.078125 18.878906 Z M 9.578125 20.378906 C 9.558594 20.257812 9.546875 20.136719 9.542969 20.015625 C 9.527344 19.910156 9.535156 19.808594 9.566406 19.710938 L 9.574219 19.695312 C 9.585938 19.703125 9.605469 19.714844 9.617188 19.726562 C 9.664062 19.777344 9.703125 19.832031 9.738281 19.890625 C 9.804688 20.011719 9.851562 20.144531 9.882812 20.277344 C 9.957031 20.558594 10.011719 20.839844 10.070312 21.125 C 10.058594 21.125 10.046875 21.128906 10.03125 21.128906 C 9.964844 21.152344 9.902344 21.183594 9.847656 21.226562 C 9.71875 20.957031 9.628906 20.675781 9.578125 20.378906 Z M 9.863281 21.535156 Z M 10.183594 21.863281 C 10.171875 21.886719 10.160156 21.90625 10.140625 21.925781 L 10.136719 21.929688 L 10.121094 21.9375 L 10.109375 21.945312 L 10.097656 21.945312 L 10.089844 21.9375 L 10.082031 21.933594 C 9.992188 21.851562 9.925781 21.75 9.886719 21.628906 C 9.875 21.601562 9.867188 21.570312 9.863281 21.539062 C 9.863281 21.542969 9.863281 21.539062 9.863281 21.539062 L 9.878906 21.523438 C 9.921875 21.480469 9.964844 21.441406 10.015625 21.40625 L 10.050781 21.386719 L 10.070312 21.378906 L 10.082031 21.375 L 10.113281 21.363281 C 10.125 21.363281 10.136719 21.363281 10.148438 21.363281 L 10.160156 21.363281 L 10.1875 21.375 C 10.199219 21.382812 10.214844 21.394531 10.199219 21.378906 L 10.210938 21.390625 C 10.210938 21.390625 10.210938 21.390625 10.214844 21.398438 C 10.222656 21.414062 10.238281 21.429688 10.257812 21.441406 C 10.210938 21.515625 10.1875 21.597656 10.191406 21.683594 C 10.195312 21.710938 10.207031 21.730469 10.21875 21.753906 C 10.214844 21.761719 10.210938 21.769531 10.210938 21.777344 C 10.199219 21.804688 10.183594 21.851562 10.179688 21.867188 Z M 11.027344 21.53125 C 10.933594 21.566406 10.839844 21.59375 10.742188 21.613281 C 10.695312 21.625 10.644531 21.628906 10.59375 21.632812 C 10.550781 21.632812 10.496094 21.613281 10.453125 21.617188 C 10.453125 21.609375 10.460938 21.601562 10.464844 21.589844 C 10.484375 21.550781 10.503906 21.511719 10.527344 21.472656 C 10.570312 21.394531 10.617188 21.316406 10.667969 21.246094 C 10.886719 20.957031 11.140625 20.714844 11.441406 20.515625 C 11.710938 20.324219 12 20.164062 12.308594 20.039062 C 12.195312 20.367188 12.125 20.707031 12.101562 21.054688 C 11.757812 21.246094 11.398438 21.40625 11.023438 21.535156 Z M 20.742188 17.539062 C 20.742188 17.546875 20.742188 17.546875 20.734375 17.546875 C 20.726562 17.546875 20.738281 17.539062 20.738281 17.542969 Z M 19.292969 19.867188 C 19.289062 19.859375 19.292969 19.867188 19.292969 19.867188 Z M 19.273438 19.859375 Z M 18.679688 20.382812 C 18.632812 20.425781 18.578125 20.453125 18.515625 20.460938 C 18.359375 20.511719 18.199219 20.550781 18.035156 20.578125 C 17.695312 20.632812 17.351562 20.648438 17.007812 20.617188 C 16.992188 20.613281 16.972656 20.617188 16.957031 20.621094 C 16.917969 20.421875 16.859375 20.234375 16.773438 20.050781 C 17.375 20.066406 17.984375 20.09375 18.554688 20.300781 C 18.589844 20.3125 18.625 20.332031 18.65625 20.339844 C 18.691406 20.351562 18.703125 20.351562 18.679688 20.378906 Z M 19.375 20.292969 C 19.375 20.292969 19.375 20.296875 19.375 20.296875 C 19.375 20.3125 19.371094 20.324219 19.367188 20.335938 C 19.363281 20.351562 19.359375 20.367188 19.351562 20.382812 L 19.351562 20.394531 C 19.347656 20.40625 19.34375 20.414062 19.339844 20.421875 L 19.328125 20.445312 C 19.324219 20.445312 19.324219 20.449219 19.320312 20.453125 L 19.3125 20.460938 C 19.308594 20.46875 19.300781 20.472656 19.296875 20.480469 L 19.285156 20.488281 C 19.28125 20.492188 19.277344 20.492188 19.277344 20.496094 L 19.261719 20.503906 L 19.242188 20.515625 C 19.226562 20.519531 19.210938 20.523438 19.195312 20.527344 L 19.171875 20.527344 C 19.15625 20.527344 19.140625 20.527344 19.125 20.527344 L 19.089844 20.519531 L 19.070312 20.515625 L 19.058594 20.515625 C 19.046875 20.507812 19.03125 20.503906 19.019531 20.496094 C 19.015625 20.492188 19.011719 20.488281 19.007812 20.484375 C 19.003906 20.484375 19 20.480469 18.996094 20.476562 C 18.988281 20.46875 18.980469 20.460938 18.972656 20.453125 C 19.015625 20.417969 19.03125 20.378906 19.015625 20.324219 C 19.007812 20.308594 19.003906 20.292969 19 20.273438 C 18.996094 20.257812 18.996094 20.25 18.992188 20.246094 C 18.992188 20.214844 18.992188 20.1875 18.992188 20.15625 C 18.992188 20.152344 18.992188 20.148438 18.992188 20.144531 C 18.992188 20.136719 18.996094 20.128906 19 20.121094 C 19.003906 20.105469 19.007812 20.09375 19.011719 20.078125 L 19.019531 20.0625 C 19.019531 20.058594 19.023438 20.046875 19.023438 20.050781 C 19.03125 20.035156 19.042969 20.019531 19.050781 20.003906 C 19.054688 19.996094 19.0625 19.988281 19.066406 19.980469 L 19.09375 19.949219 C 19.101562 19.945312 19.109375 19.9375 19.113281 19.933594 L 19.121094 19.925781 C 19.136719 19.917969 19.148438 19.90625 19.164062 19.898438 L 19.1875 19.886719 L 19.191406 19.886719 C 19.207031 19.882812 19.21875 19.878906 19.234375 19.875 L 19.269531 19.875 L 19.289062 19.878906 C 19.289062 19.878906 19.296875 19.890625 19.292969 19.878906 L 19.300781 19.886719 C 19.300781 19.886719 19.300781 19.894531 19.304688 19.898438 L 19.304688 19.90625 C 19.320312 19.949219 19.332031 20 19.34375 20.046875 C 19.367188 20.125 19.378906 20.207031 19.375 20.292969 Z M 20.484375 18.832031 C 20.382812 19.027344 20.253906 19.207031 20.101562 19.367188 C 19.933594 19.558594 19.753906 19.738281 19.578125 19.921875 C 19.5625 19.835938 19.527344 19.761719 19.472656 19.695312 L 19.457031 19.679688 C 19.648438 19.277344 19.929688 18.941406 20.296875 18.683594 C 20.34375 18.652344 20.457031 18.546875 20.523438 18.609375 C 20.570312 18.660156 20.507812 18.785156 20.484375 18.832031 Z M 21.367188 17.949219 C 21.164062 18.148438 20.964844 18.347656 20.765625 18.550781 C 20.757812 18.527344 20.746094 18.507812 20.734375 18.484375 C 20.699219 18.429688 20.648438 18.390625 20.585938 18.371094 C 20.558594 18.144531 20.578125 17.925781 20.65625 17.710938 C 20.667969 17.660156 20.691406 17.613281 20.714844 17.570312 C 20.71875 17.5625 20.722656 17.558594 20.722656 17.550781 C 20.734375 17.5625 20.742188 17.578125 20.742188 17.578125 C 20.746094 17.589844 20.75 17.597656 20.753906 17.609375 C 20.753906 17.667969 20.753906 17.726562 20.746094 17.78125 C 20.746094 17.898438 20.785156 18.058594 20.929688 18.058594 C 20.992188 18.050781 21.042969 18.023438 21.085938 17.980469 C 21.128906 17.945312 21.171875 17.914062 21.21875 17.890625 C 21.257812 17.871094 21.304688 17.855469 21.347656 17.84375 C 21.386719 17.832031 21.425781 17.828125 21.46875 17.828125 C 21.441406 17.875 21.40625 17.917969 21.367188 17.953125 Z M 14.546875 21 C 14.5 21.039062 14.457031 21.085938 14.425781 21.140625 C 14.367188 21.0625 14.300781 21.003906 14.21875 20.953125 C 14.136719 20.902344 14.050781 20.902344 13.964844 20.953125 C 13.878906 21.015625 13.84375 21.09375 13.859375 21.199219 C 13.894531 21.359375 13.976562 21.496094 14.105469 21.597656 C 14.230469 21.71875 14.378906 21.761719 14.546875 21.734375 C 14.558594 21.734375 14.566406 21.730469 14.574219 21.726562 C 14.628906 21.757812 14.679688 21.75 14.726562 21.707031 C 14.839844 21.617188 14.929688 21.507812 15 21.382812 C 15.070312 21.25 15.082031 21.082031 14.96875 20.96875 C 14.859375 20.859375 14.671875 20.902344 14.546875 21 Z M 14.101562 21.15625 C 14.101562 21.15625 14.109375 21.15625 14.101562 21.15625 Z M 14.085938 21.164062 C 14.082031 21.164062 14.082031 21.152344 14.085938 21.164062 Z M 14.109375 21.207031 C 14.105469 21.195312 14.105469 21.1875 14.101562 21.175781 C 14.113281 21.183594 14.128906 21.191406 14.136719 21.199219 C 14.214844 21.269531 14.277344 21.347656 14.320312 21.441406 C 14.324219 21.449219 14.328125 21.457031 14.335938 21.460938 C 14.320312 21.453125 14.304688 21.445312 14.289062 21.433594 C 14.210938 21.375 14.152344 21.296875 14.113281 21.207031 Z M 14.816406 21.175781 L 14.816406 21.179688 C 14.816406 21.179688 14.816406 21.203125 14.816406 21.199219 C 14.804688 21.242188 14.785156 21.28125 14.757812 21.316406 C 14.707031 21.390625 14.648438 21.457031 14.582031 21.515625 C 14.550781 21.496094 14.519531 21.492188 14.488281 21.5 C 14.476562 21.5 14.46875 21.5 14.457031 21.5 C 14.492188 21.492188 14.515625 21.472656 14.53125 21.441406 C 14.570312 21.363281 14.617188 21.289062 14.671875 21.222656 C 14.695312 21.191406 14.722656 21.167969 14.757812 21.152344 C 14.769531 21.144531 14.785156 21.140625 14.796875 21.140625 C 14.796875 21.140625 14.785156 21.136719 14.796875 21.140625 C 14.8125 21.144531 14.796875 21.132812 14.808594 21.148438 C 14.800781 21.140625 14.808594 21.148438 14.808594 21.148438 C 14.808594 21.148438 14.8125 21.164062 14.8125 21.167969 Z M 15.171875 11.09375 C 15.171875 11.09375 15.171875 11.09375 15.171875 11.085938 C 15.171875 11.085938 15.167969 11.085938 15.171875 11.09375 Z M 15.210938 10.886719 Z M 15.144531 11 L 15.144531 10.988281 C 15.144531 10.992188 15.144531 10.996094 15.144531 11 Z M 15.152344 11.0625 C 15.15625 11.066406 15.15625 11.066406 15.15625 11.070312 Z M 26.46875 14.878906 C 26.269531 14.546875 25.855469 14.386719 25.515625 14.242188 C 25.109375 14.070312 24.6875 13.9375 24.257812 13.84375 C 24.039062 13.796875 23.820312 13.761719 23.597656 13.734375 C 23.402344 13.703125 23.207031 13.703125 23.011719 13.734375 C 22.523438 13.824219 22.355469 14.296875 22.183594 14.703125 C 21.988281 15.183594 21.832031 15.679688 21.726562 16.183594 C 21.714844 16.234375 21.726562 16.273438 21.765625 16.304688 C 21.683594 16.65625 22.0625 16.894531 22.367188 16.941406 C 22.457031 16.957031 22.550781 16.964844 22.644531 16.980469 C 22.695312 16.988281 22.746094 17 22.796875 17.011719 C 22.84375 17.027344 22.859375 17.027344 22.867188 17.070312 C 22.863281 17.183594 22.851562 17.292969 22.828125 17.402344 C 22.8125 17.519531 22.800781 17.636719 22.789062 17.757812 C 22.789062 17.796875 22.804688 17.828125 22.835938 17.851562 C 22.867188 17.875 22.902344 17.882812 22.941406 17.875 C 23.089844 17.808594 23.21875 17.714844 23.324219 17.589844 C 23.4375 17.472656 23.550781 17.34375 23.730469 17.359375 C 23.855469 17.371094 23.972656 17.398438 24.09375 17.429688 L 24.449219 17.511719 C 24.667969 17.5625 24.886719 17.617188 25.105469 17.65625 C 25.488281 17.71875 25.886719 17.691406 26.136719 17.359375 C 26.390625 17.027344 26.472656 16.550781 26.527344 16.136719 C 26.554688 15.921875 26.574219 15.703125 26.585938 15.488281 C 26.609375 15.273438 26.570312 15.070312 26.46875 14.878906 Z M 26.300781 15.933594 C 26.261719 16.328125 26.199219 16.757812 26.003906 17.109375 C 25.921875 17.277344 25.789062 17.382812 25.605469 17.421875 C 25.4375 17.449219 25.269531 17.445312 25.105469 17.40625 C 24.871094 17.359375 24.640625 17.304688 24.410156 17.25 L 24.054688 17.171875 C 23.933594 17.136719 23.8125 17.117188 23.6875 17.109375 C 23.511719 17.121094 23.363281 17.191406 23.246094 17.320312 C 23.183594 17.378906 23.125 17.449219 23.058594 17.511719 C 23.074219 17.375 23.09375 17.242188 23.105469 17.101562 C 23.128906 16.894531 23 16.804688 22.8125 16.757812 C 22.625 16.714844 22.4375 16.722656 22.261719 16.664062 C 22.125 16.617188 21.960938 16.484375 22.011719 16.324219 C 22.03125 16.273438 22.019531 16.230469 21.972656 16.199219 C 22.058594 15.808594 22.171875 15.421875 22.308594 15.046875 C 22.382812 14.855469 22.460938 14.667969 22.546875 14.480469 C 22.621094 14.316406 22.699219 14.140625 22.855469 14.042969 C 23.015625 13.960938 23.1875 13.933594 23.363281 13.953125 C 23.5625 13.964844 23.757812 13.992188 23.953125 14.027344 C 24.351562 14.101562 24.742188 14.207031 25.121094 14.351562 C 25.316406 14.421875 25.507812 14.503906 25.691406 14.59375 C 25.851562 14.664062 26 14.753906 26.132812 14.863281 C 26.433594 15.132812 26.335938 15.574219 26.300781 15.933594 Z M 23.410156 15.363281 C 23.433594 15.339844 23.460938 15.320312 23.492188 15.304688 C 23.523438 15.28125 23.558594 15.261719 23.59375 15.246094 C 23.660156 15.203125 23.675781 15.148438 23.636719 15.078125 C 23.59375 15.011719 23.539062 14.996094 23.46875 15.035156 C 23.382812 15.078125 23.304688 15.128906 23.230469 15.191406 C 23.15625 15.257812 23.070312 15.335938 23.070312 15.445312 C 23.070312 15.550781 23.164062 15.640625 23.222656 15.71875 L 23.410156 15.972656 C 23.453125 16.035156 23.507812 16.050781 23.574219 16.015625 C 23.640625 15.972656 23.65625 15.917969 23.617188 15.851562 L 23.46875 15.636719 C 23.441406 15.601562 23.417969 15.570312 23.390625 15.535156 C 23.386719 15.527344 23.34375 15.464844 23.324219 15.441406 L 23.324219 15.4375 C 23.351562 15.410156 23.378906 15.382812 23.410156 15.359375 Z M 23.316406 15.445312 C 23.316406 15.453125 23.316406 15.449219 23.316406 15.445312 Z M 24.78125 15.382812 C 24.839844 15.441406 24.839844 15.496094 24.78125 15.554688 C 24.574219 15.742188 24.367188 15.925781 24.160156 16.113281 C 24.101562 16.167969 24.042969 16.167969 23.988281 16.113281 C 23.929688 16.054688 23.929688 15.996094 23.988281 15.941406 C 24.195312 15.753906 24.402344 15.566406 24.609375 15.382812 C 24.667969 15.328125 24.726562 15.328125 24.78125 15.386719 Z M 25.382812 15.964844 C 25.382812 15.964844 25.382812 15.960938 25.382812 15.957031 Z M 25.519531 15.636719 C 25.597656 15.789062 25.691406 15.992188 25.554688 16.140625 C 25.488281 16.203125 25.417969 16.25 25.332031 16.28125 C 25.253906 16.320312 25.171875 16.351562 25.089844 16.371094 C 25.011719 16.390625 24.960938 16.363281 24.9375 16.285156 C 24.917969 16.207031 24.945312 16.15625 25.023438 16.136719 C 25.0625 16.125 25.105469 16.113281 25.140625 16.097656 L 25.179688 16.082031 L 25.1875 16.082031 L 25.199219 16.078125 L 25.261719 16.046875 C 25.285156 16.039062 25.304688 16.027344 25.324219 16.011719 L 25.34375 16 C 25.34375 16 25.359375 15.992188 25.359375 15.988281 C 25.359375 15.988281 25.375 15.972656 25.378906 15.972656 C 25.378906 15.972656 25.378906 15.976562 25.378906 15.980469 L 25.378906 15.972656 C 25.378906 15.972656 25.378906 15.96875 25.378906 15.96875 L 25.378906 15.957031 C 25.378906 15.949219 25.375 15.941406 25.371094 15.933594 C 25.367188 15.921875 25.359375 15.894531 25.351562 15.875 L 25.347656 15.863281 L 25.335938 15.839844 C 25.328125 15.816406 25.316406 15.796875 25.304688 15.777344 C 25.273438 15.714844 25.234375 15.65625 25.203125 15.597656 C 25.160156 15.527344 25.175781 15.472656 25.246094 15.429688 C 25.316406 15.390625 25.371094 15.402344 25.414062 15.472656 C 25.453125 15.523438 25.488281 15.582031 25.519531 15.640625 Z M 7.871094 10.683594 C 7.777344 10.523438 7.671875 10.367188 7.554688 10.214844 C 7.476562 10.121094 7.390625 10.148438 7.277344 10.15625 C 7.164062 10.167969 7.03125 10.179688 6.917969 10.1875 C 6.382812 10.226562 5.847656 10.238281 5.3125 10.226562 C 5.230469 10.226562 5.191406 10.269531 5.1875 10.347656 C 5.214844 10.703125 5.144531 11.039062 4.984375 11.359375 C 4.90625 11.515625 4.804688 11.660156 4.6875 11.789062 C 4.578125 11.902344 4.453125 12.015625 4.507812 12.195312 C 4.539062 12.28125 4.582031 12.363281 4.636719 12.4375 L 4.808594 12.738281 C 4.90625 12.90625 5 13.074219 5.101562 13.242188 C 5.273438 13.527344 5.488281 13.820312 5.800781 13.964844 C 5.882812 14.003906 5.96875 14.03125 6.0625 14.046875 C 6.238281 14.277344 6.578125 14.289062 6.859375 14.28125 C 7.328125 14.269531 7.792969 14.210938 8.25 14.105469 C 8.292969 14.09375 8.320312 14.066406 8.332031 14.023438 C 8.53125 13.261719 8.523438 12.503906 8.316406 11.742188 C 8.214844 11.371094 8.066406 11.019531 7.871094 10.683594 Z M 8.117188 13.875 C 7.753906 13.953125 7.386719 14.003906 7.019531 14.019531 C 6.855469 14.035156 6.6875 14.03125 6.523438 14.015625 L 6.476562 14.007812 C 6.585938 13.972656 6.675781 13.914062 6.753906 13.835938 C 6.808594 13.777344 6.808594 13.71875 6.753906 13.664062 C 6.695312 13.609375 6.640625 13.609375 6.582031 13.660156 C 6.476562 13.765625 6.347656 13.8125 6.199219 13.804688 C 6.167969 13.765625 6.128906 13.75 6.078125 13.765625 C 6.0625 13.769531 6.050781 13.773438 6.039062 13.785156 C 5.980469 13.769531 5.925781 13.75 5.875 13.71875 C 5.597656 13.578125 5.421875 13.300781 5.269531 13.039062 C 5.179688 12.886719 5.089844 12.726562 5 12.574219 L 4.859375 12.328125 C 4.832031 12.289062 4.808594 12.246094 4.785156 12.207031 C 4.769531 12.179688 4.734375 12.136719 4.738281 12.105469 C 4.746094 12.050781 4.835938 11.988281 4.871094 11.949219 C 4.925781 11.890625 4.976562 11.828125 5.023438 11.761719 C 5.113281 11.636719 5.191406 11.507812 5.25 11.367188 C 5.378906 11.082031 5.441406 10.78125 5.4375 10.472656 C 6.085938 10.480469 6.734375 10.453125 7.382812 10.390625 C 7.757812 10.886719 8.007812 11.4375 8.136719 12.046875 C 8.265625 12.65625 8.257812 13.265625 8.117188 13.871094 Z M 6.917969 11.816406 C 6.847656 12.082031 6.910156 12.359375 6.878906 12.632812 C 6.867188 12.722656 6.839844 12.816406 6.730469 12.824219 C 6.652344 12.816406 6.578125 12.796875 6.503906 12.765625 L 6.085938 12.628906 C 6.011719 12.605469 5.984375 12.554688 6.003906 12.480469 C 6.027344 12.402344 6.074219 12.375 6.152344 12.390625 L 6.449219 12.488281 L 6.605469 12.539062 C 6.617188 12.542969 6.628906 12.546875 6.640625 12.554688 C 6.640625 12.515625 6.640625 12.480469 6.644531 12.445312 C 6.644531 12.371094 6.644531 12.296875 6.640625 12.222656 C 6.632812 12.0625 6.648438 11.90625 6.6875 11.753906 C 6.707031 11.671875 6.757812 11.640625 6.835938 11.664062 C 6.917969 11.6875 6.945312 11.738281 6.921875 11.816406 Z M 18.875 9.640625 Z M 18.851562 9.640625 Z M 20.253906 11.433594 Z M 20.230469 11.417969 L 20.222656 11.414062 C 20.230469 11.417969 20.234375 11.417969 20.230469 11.417969 Z M 20.164062 11.3125 C 20.164062 11.316406 20.164062 11.316406 20.164062 11.320312 C 20.164062 11.316406 20.164062 11.3125 20.164062 11.308594 Z M 21.542969 8.972656 C 21.546875 8.980469 21.542969 8.988281 21.542969 8.972656 Z M 21.652344 9.074219 L 21.644531 9.074219 C 21.644531 9.074219 21.644531 9.066406 21.652344 9.070312 Z M 21.6875 9.066406 C 21.691406 9.054688 21.699219 9.054688 21.6875 9.0625 Z M 21.964844 8.894531 L 21.964844 8.898438 C 21.964844 8.898438 21.964844 8.894531 21.964844 8.894531 Z M 21.6875 9.0625 Z M 21.6875 9.0625 L 21.679688 9.0625 C 21.679688 9.0625 21.679688 9.0625 21.683594 9.0625 Z M 18.003906 10.367188 C 17.988281 10.355469 17.972656 10.347656 17.957031 10.339844 C 17.867188 10.296875 17.78125 10.292969 17.691406 10.324219 C 17.488281 10.398438 17.398438 10.539062 17.417969 10.753906 C 17.421875 10.867188 17.464844 10.964844 17.539062 11.046875 C 17.582031 11.085938 17.628906 11.113281 17.683594 11.128906 C 17.691406 11.136719 17.703125 11.144531 17.710938 11.152344 C 17.859375 11.261719 18.070312 11.183594 18.164062 11.042969 C 18.265625 10.886719 18.230469 10.667969 18.140625 10.515625 L 18.140625 10.507812 C 18.179688 10.503906 18.210938 10.484375 18.234375 10.449219 C 18.386719 10.230469 18.539062 10.03125 18.707031 9.832031 C 18.765625 9.871094 18.828125 9.886719 18.898438 9.882812 C 18.992188 9.933594 19.085938 9.941406 19.183594 9.898438 C 19.277344 9.859375 19.351562 9.800781 19.414062 9.71875 L 19.4375 9.691406 L 20.09375 10.046875 C 20.121094 10.0625 20.152344 10.074219 20.179688 10.09375 L 20.195312 10.105469 C 20.195312 10.105469 20.203125 10.121094 20.203125 10.125 C 20.21875 10.191406 20.226562 10.257812 20.234375 10.324219 C 20.257812 10.464844 20.277344 10.605469 20.300781 10.746094 C 20.324219 10.820312 20.375 10.847656 20.449219 10.824219 C 20.515625 10.800781 20.542969 10.753906 20.53125 10.683594 C 20.507812 10.535156 20.484375 10.382812 20.460938 10.230469 C 20.453125 10.164062 20.441406 10.101562 20.425781 10.039062 C 20.4375 10.035156 20.453125 10.03125 20.464844 10.027344 C 20.824219 9.855469 21.179688 9.671875 21.527344 9.480469 C 21.5625 9.460938 21.582031 9.433594 21.585938 9.398438 C 21.589844 9.359375 21.582031 9.328125 21.554688 9.300781 C 21.558594 9.300781 21.5625 9.304688 21.566406 9.304688 C 21.652344 9.328125 21.734375 9.316406 21.8125 9.269531 C 21.84375 9.292969 21.875 9.296875 21.910156 9.285156 C 22.097656 9.222656 22.199219 9.09375 22.210938 8.898438 C 22.21875 8.695312 22.125 8.570312 21.929688 8.519531 C 21.78125 8.476562 21.648438 8.5 21.519531 8.582031 C 21.257812 8.34375 21.007812 8.097656 20.769531 7.84375 C 20.78125 7.808594 20.785156 7.777344 20.789062 7.742188 C 20.792969 7.644531 20.757812 7.5625 20.691406 7.492188 C 20.542969 7.347656 20.378906 7.324219 20.195312 7.417969 C 20.019531 7.5 19.941406 7.632812 19.957031 7.824219 C 19.960938 8 20.046875 8.113281 20.210938 8.167969 C 20.378906 8.222656 20.515625 8.183594 20.625 8.046875 C 20.855469 8.292969 21.097656 8.527344 21.347656 8.753906 L 21.351562 8.753906 C 21.277344 8.878906 21.273438 9.007812 21.34375 9.132812 C 21.375 9.183594 21.414062 9.222656 21.464844 9.253906 C 21.441406 9.253906 21.421875 9.261719 21.40625 9.269531 C 21.054688 9.460938 20.699219 9.644531 20.339844 9.816406 C 20.3125 9.832031 20.292969 9.851562 20.285156 9.882812 C 20.28125 9.878906 20.277344 9.875 20.269531 9.875 C 20.019531 9.738281 19.769531 9.601562 19.515625 9.464844 C 19.515625 9.453125 19.511719 9.4375 19.507812 9.425781 C 19.472656 9.332031 19.417969 9.25 19.34375 9.183594 C 19.28125 9.113281 19.203125 9.066406 19.113281 9.039062 C 19.09375 9.03125 19.074219 9.027344 19.054688 9.027344 C 19.050781 9.007812 19.046875 8.992188 19.035156 8.976562 C 18.761719 8.613281 18.5 8.246094 18.25 7.875 C 18.3125 7.835938 18.351562 7.78125 18.371094 7.710938 C 18.390625 7.617188 18.371094 7.535156 18.316406 7.457031 C 18.207031 7.308594 18.058594 7.226562 17.871094 7.214844 C 17.777344 7.210938 17.699219 7.238281 17.625 7.292969 C 17.558594 7.355469 17.511719 7.429688 17.488281 7.519531 C 17.4375 7.671875 17.445312 7.855469 17.582031 7.960938 C 17.714844 8.0625 17.871094 8.015625 18 7.933594 C 18.261719 8.320312 18.535156 8.699219 18.8125 9.074219 C 18.625 9.171875 18.527344 9.328125 18.527344 9.539062 C 18.53125 9.574219 18.539062 9.609375 18.550781 9.640625 C 18.367188 9.863281 18.191406 10.089844 18.023438 10.328125 C 18.015625 10.339844 18.007812 10.355469 18.003906 10.367188 Z M 20.53125 7.667969 L 20.523438 7.660156 C 20.527344 7.664062 20.527344 7.667969 20.527344 7.671875 Z M 20.511719 7.648438 L 20.503906 7.640625 Z M 20.421875 7.605469 C 20.417969 7.605469 20.414062 7.605469 20.414062 7.605469 C 20.414062 7.605469 20.414062 7.609375 20.417969 7.609375 Z M 20.324219 7.621094 L 20.316406 7.621094 C 20.316406 7.621094 20.320312 7.621094 20.320312 7.621094 Z M 20.199219 7.765625 L 20.199219 7.757812 C 20.199219 7.746094 20.203125 7.757812 20.199219 7.769531 Z M 20.214844 7.851562 Z M 20.234375 7.882812 Z M 20.449219 7.875 C 20.449219 7.871094 20.449219 7.871094 20.449219 7.867188 L 20.441406 7.878906 L 20.421875 7.898438 L 20.390625 7.917969 L 20.382812 7.917969 L 20.355469 7.925781 L 20.351562 7.925781 C 20.347656 7.925781 20.34375 7.925781 20.34375 7.925781 L 20.324219 7.925781 C 20.316406 7.925781 20.304688 7.921875 20.296875 7.917969 L 20.285156 7.914062 L 20.257812 7.914062 L 20.234375 7.890625 C 20.230469 7.886719 20.230469 7.882812 20.226562 7.878906 C 20.222656 7.867188 20.214844 7.855469 20.210938 7.847656 C 20.207031 7.839844 20.207031 7.835938 20.203125 7.828125 C 20.203125 7.820312 20.203125 7.808594 20.199219 7.800781 C 20.199219 7.796875 20.199219 7.792969 20.199219 7.785156 C 20.199219 7.78125 20.199219 7.777344 20.199219 7.773438 C 20.203125 7.757812 20.207031 7.746094 20.207031 7.730469 C 20.207031 7.726562 20.214844 7.71875 20.21875 7.714844 L 20.226562 7.699219 C 20.226562 7.699219 20.226562 7.699219 20.230469 7.695312 L 20.226562 7.695312 C 20.234375 7.6875 20.242188 7.675781 20.253906 7.667969 C 20.257812 7.664062 20.261719 7.660156 20.265625 7.65625 L 20.296875 7.636719 L 20.308594 7.628906 L 20.347656 7.617188 L 20.359375 7.617188 C 20.359375 7.617188 20.355469 7.617188 20.367188 7.617188 L 20.371094 7.617188 C 20.382812 7.617188 20.398438 7.617188 20.410156 7.617188 L 20.425781 7.617188 L 20.453125 7.625 L 20.460938 7.628906 L 20.484375 7.644531 L 20.488281 7.644531 C 20.488281 7.644531 20.488281 7.644531 20.496094 7.648438 L 20.5 7.65625 L 20.511719 7.664062 L 20.519531 7.675781 C 20.519531 7.675781 20.523438 7.683594 20.527344 7.691406 C 20.527344 7.695312 20.527344 7.699219 20.53125 7.703125 C 20.53125 7.714844 20.53125 7.726562 20.53125 7.738281 C 20.53125 7.746094 20.527344 7.75 20.527344 7.753906 C 20.484375 7.765625 20.457031 7.792969 20.445312 7.835938 C 20.445312 7.84375 20.441406 7.847656 20.441406 7.855469 C 20.441406 7.863281 20.441406 7.871094 20.445312 7.875 Z M 21.921875 8.996094 L 21.929688 8.984375 C 21.925781 8.988281 21.925781 8.992188 21.921875 8.996094 Z M 21.890625 8.757812 L 21.878906 8.757812 C 21.878906 8.757812 21.882812 8.757812 21.890625 8.757812 Z M 21.582031 8.84375 C 21.589844 8.835938 21.59375 8.828125 21.601562 8.824219 C 21.613281 8.8125 21.621094 8.804688 21.632812 8.792969 L 21.652344 8.78125 C 21.664062 8.773438 21.675781 8.765625 21.6875 8.761719 L 21.710938 8.753906 L 21.75 8.742188 L 21.824219 8.742188 C 21.835938 8.742188 21.847656 8.746094 21.859375 8.75 L 21.882812 8.757812 L 21.910156 8.773438 L 21.914062 8.773438 L 21.921875 8.78125 C 21.925781 8.78125 21.929688 8.792969 21.9375 8.796875 L 21.941406 8.800781 C 21.945312 8.808594 21.949219 8.820312 21.953125 8.824219 C 21.953125 8.828125 21.957031 8.832031 21.957031 8.835938 C 21.957031 8.839844 21.957031 8.847656 21.957031 8.851562 L 21.957031 8.859375 C 21.957031 8.859375 21.957031 8.878906 21.957031 8.890625 C 21.957031 8.882812 21.960938 8.878906 21.957031 8.894531 C 21.957031 8.894531 21.957031 8.910156 21.953125 8.917969 L 21.945312 8.933594 C 21.941406 8.945312 21.933594 8.957031 21.925781 8.96875 C 21.925781 8.972656 21.921875 8.972656 21.921875 8.976562 C 21.917969 8.980469 21.917969 8.984375 21.914062 8.984375 C 21.902344 8.996094 21.894531 9.003906 21.882812 9.015625 L 21.863281 9.027344 L 21.847656 9.035156 L 21.839844 9.035156 L 21.828125 9.039062 C 21.777344 9.003906 21.726562 9.007812 21.683594 9.046875 L 21.675781 9.054688 L 21.679688 9.046875 C 21.671875 9.054688 21.671875 9.046875 21.679688 9.046875 C 21.675781 9.050781 21.667969 9.050781 21.664062 9.054688 L 21.652344 9.054688 C 21.652344 9.054688 21.652344 9.054688 21.648438 9.054688 C 21.644531 9.054688 21.644531 9.054688 21.640625 9.054688 L 21.632812 9.054688 L 21.617188 9.046875 C 21.609375 9.042969 21.601562 9.039062 21.59375 9.035156 C 21.585938 9.03125 21.578125 9.019531 21.585938 9.035156 C 21.59375 9.050781 21.585938 9.035156 21.578125 9.03125 C 21.574219 9.019531 21.566406 9.011719 21.558594 9.003906 C 21.558594 9.003906 21.554688 8.996094 21.550781 8.992188 C 21.546875 8.988281 21.550781 8.980469 21.546875 8.976562 C 21.546875 8.972656 21.546875 8.964844 21.546875 8.960938 C 21.546875 8.953125 21.546875 8.945312 21.546875 8.9375 L 21.546875 8.933594 C 21.550781 8.917969 21.554688 8.90625 21.558594 8.890625 C 21.558594 8.886719 21.558594 8.886719 21.5625 8.882812 C 21.566406 8.867188 21.574219 8.855469 21.582031 8.84375 Z M 19.273438 9.496094 C 19.273438 9.492188 19.273438 9.496094 19.273438 9.496094 Z M 19.023438 9.269531 Z M 18.121094 7.671875 Z M 18.113281 7.59375 Z M 17.835938 7.457031 L 17.832031 7.457031 C 17.832031 7.457031 17.835938 7.457031 17.835938 7.457031 Z M 17.84375 7.457031 Z M 17.78125 7.484375 Z M 17.699219 7.722656 C 17.695312 7.699219 17.699219 7.710938 17.699219 7.71875 Z M 17.710938 7.757812 C 17.710938 7.757812 17.710938 7.757812 17.714844 7.765625 C 17.71875 7.773438 17.710938 7.757812 17.710938 7.753906 Z M 17.734375 7.777344 Z M 17.765625 7.777344 C 17.765625 7.777344 17.773438 7.777344 17.773438 7.777344 Z M 17.90625 7.707031 Z M 17.910156 7.699219 L 17.894531 7.710938 C 17.871094 7.730469 17.84375 7.746094 17.820312 7.757812 L 17.8125 7.761719 L 17.800781 7.769531 C 17.789062 7.773438 17.777344 7.773438 17.761719 7.777344 L 17.726562 7.777344 C 17.726562 7.777344 17.722656 7.777344 17.722656 7.777344 C 17.71875 7.777344 17.714844 7.777344 17.710938 7.773438 C 17.710938 7.769531 17.707031 7.765625 17.703125 7.757812 C 17.703125 7.757812 17.699219 7.753906 17.699219 7.75 C 17.699219 7.746094 17.699219 7.742188 17.699219 7.734375 C 17.699219 7.726562 17.699219 7.714844 17.699219 7.703125 C 17.699219 7.703125 17.699219 7.671875 17.699219 7.667969 C 17.699219 7.664062 17.695312 7.691406 17.699219 7.667969 C 17.699219 7.660156 17.699219 7.65625 17.699219 7.648438 C 17.707031 7.625 17.714844 7.601562 17.722656 7.574219 C 17.722656 7.570312 17.726562 7.566406 17.726562 7.5625 C 17.734375 7.546875 17.746094 7.53125 17.753906 7.519531 L 17.757812 7.511719 L 17.765625 7.507812 L 17.777344 7.496094 C 17.777344 7.496094 17.792969 7.484375 17.796875 7.484375 L 17.804688 7.484375 L 17.828125 7.476562 L 17.882812 7.476562 C 17.851562 7.476562 17.890625 7.476562 17.898438 7.480469 L 17.941406 7.492188 L 17.949219 7.492188 L 17.957031 7.5 C 17.972656 7.503906 17.984375 7.511719 17.996094 7.515625 C 18.007812 7.523438 18.015625 7.527344 18.027344 7.535156 L 18.042969 7.546875 L 18.046875 7.550781 L 18.082031 7.582031 L 18.097656 7.597656 L 18.117188 7.636719 L 18.117188 7.644531 C 18.117188 7.644531 18.117188 7.648438 18.117188 7.648438 L 18.117188 7.660156 C 18.117188 7.664062 18.117188 7.664062 18.117188 7.667969 C 18.117188 7.667969 18.117188 7.667969 18.117188 7.671875 L 18.105469 7.671875 C 18.046875 7.621094 17.992188 7.621094 17.9375 7.671875 L 17.90625 7.699219 Z M 18.765625 9.503906 C 18.765625 9.488281 18.769531 9.476562 18.773438 9.460938 C 18.777344 9.449219 18.773438 9.457031 18.773438 9.453125 C 18.777344 9.445312 18.78125 9.4375 18.785156 9.433594 C 18.789062 9.421875 18.796875 9.410156 18.804688 9.398438 L 18.8125 9.382812 L 18.820312 9.375 C 18.832031 9.367188 18.84375 9.351562 18.851562 9.34375 L 18.867188 9.332031 L 18.878906 9.320312 C 18.890625 9.3125 18.902344 9.304688 18.917969 9.296875 L 18.941406 9.28125 C 18.9375 9.28125 18.921875 9.289062 18.945312 9.28125 L 18.964844 9.277344 L 19.019531 9.277344 L 19.039062 9.28125 L 19.054688 9.289062 L 19.089844 9.304688 L 19.109375 9.316406 L 19.125 9.328125 L 19.152344 9.355469 C 19.160156 9.363281 19.171875 9.375 19.179688 9.382812 C 19.191406 9.394531 19.203125 9.40625 19.210938 9.417969 C 19.210938 9.414062 19.199219 9.402344 19.210938 9.417969 L 19.230469 9.445312 C 19.234375 9.453125 19.246094 9.464844 19.25 9.476562 L 19.265625 9.5 C 19.257812 9.511719 19.253906 9.519531 19.246094 9.527344 L 19.238281 9.539062 L 19.21875 9.5625 C 19.207031 9.574219 19.195312 9.589844 19.179688 9.601562 C 19.167969 9.617188 19.15625 9.628906 19.140625 9.640625 L 19.132812 9.648438 L 19.113281 9.664062 C 19.109375 9.667969 19.101562 9.671875 19.09375 9.675781 L 19.085938 9.679688 L 19.070312 9.683594 L 19.050781 9.6875 L 19.015625 9.6875 L 19.003906 9.683594 C 18.972656 9.640625 18.933594 9.628906 18.882812 9.644531 L 18.867188 9.648438 C 18.859375 9.648438 18.855469 9.648438 18.855469 9.648438 L 18.84375 9.648438 L 18.851562 9.648438 C 18.84375 9.648438 18.839844 9.648438 18.847656 9.648438 L 18.828125 9.648438 L 18.824219 9.625 C 18.820312 9.597656 18.808594 9.578125 18.789062 9.558594 C 18.785156 9.554688 18.777344 9.546875 18.769531 9.542969 C 18.769531 9.535156 18.769531 9.527344 18.769531 9.523438 C 18.769531 9.515625 18.765625 9.503906 18.765625 9.5 Z M 17.949219 10.683594 Z M 17.699219 10.863281 L 17.703125 10.871094 C 17.703125 10.871094 17.699219 10.863281 17.699219 10.863281 Z M 17.742188 10.898438 C 17.742188 10.898438 17.742188 10.894531 17.742188 10.894531 Z M 17.738281 10.898438 Z M 17.878906 10.964844 C 17.882812 10.960938 17.882812 10.960938 17.886719 10.964844 Z M 17.925781 10.945312 Z M 17.933594 10.941406 L 17.914062 10.953125 L 17.902344 10.953125 C 17.898438 10.945312 17.898438 10.9375 17.894531 10.933594 C 17.855469 10.867188 17.800781 10.851562 17.730469 10.886719 L 17.734375 10.886719 L 17.722656 10.878906 C 17.722656 10.878906 17.714844 10.871094 17.710938 10.867188 C 17.707031 10.863281 17.703125 10.859375 17.703125 10.851562 C 17.695312 10.847656 17.691406 10.839844 17.691406 10.832031 L 17.6875 10.824219 C 17.6875 10.816406 17.6875 10.8125 17.6875 10.808594 C 17.683594 10.804688 17.679688 10.796875 17.679688 10.792969 C 17.679688 10.785156 17.675781 10.78125 17.675781 10.773438 L 17.675781 10.761719 C 17.671875 10.746094 17.671875 10.730469 17.675781 10.71875 C 17.675781 10.710938 17.675781 10.703125 17.675781 10.699219 C 17.675781 10.691406 17.675781 10.691406 17.675781 10.691406 C 17.675781 10.691406 17.683594 10.664062 17.683594 10.660156 L 17.691406 10.640625 L 17.707031 10.617188 C 17.714844 10.609375 17.722656 10.597656 17.726562 10.59375 L 17.734375 10.585938 L 17.738281 10.585938 C 17.746094 10.578125 17.757812 10.574219 17.765625 10.566406 L 17.773438 10.566406 L 17.789062 10.5625 L 17.8125 10.5625 C 17.820312 10.5625 17.820312 10.5625 17.816406 10.5625 L 17.839844 10.5625 L 17.859375 10.570312 L 17.871094 10.574219 C 17.875 10.574219 17.878906 10.578125 17.882812 10.582031 C 17.894531 10.589844 17.902344 10.597656 17.914062 10.609375 L 17.917969 10.613281 L 17.917969 10.621094 L 17.921875 10.628906 C 17.929688 10.636719 17.9375 10.652344 17.945312 10.664062 C 17.949219 10.671875 17.957031 10.679688 17.960938 10.691406 C 17.960938 10.691406 17.960938 10.691406 17.960938 10.695312 L 17.96875 10.71875 C 17.972656 10.734375 17.976562 10.75 17.980469 10.765625 C 17.980469 10.773438 17.980469 10.78125 17.980469 10.789062 C 17.980469 10.800781 17.980469 10.816406 17.980469 10.832031 C 17.980469 10.847656 17.980469 10.847656 17.980469 10.855469 C 17.980469 10.863281 17.980469 10.863281 17.980469 10.863281 C 17.976562 10.875 17.972656 10.886719 17.96875 10.898438 L 17.957031 10.921875 L 17.957031 10.925781 L 17.949219 10.933594 Z M 17.730469 10.894531 Z M 17.730469 10.894531 Z M 17.785156 10.554688 Z M 17.726562 7.769531 L 17.730469 7.769531 Z M 17.699219 7.652344 Z M 17.757812 7.5 L 17.761719 7.496094 C 17.761719 7.496094 17.765625 7.496094 17.761719 7.5 Z M 20.445312 7.863281 L 20.445312 7.867188 C 20.449219 7.863281 20.453125 7.859375 20.453125 7.863281 Z M 20.371094 7.609375 L 20.359375 7.609375 Z M 20.226562 7.691406 C 20.230469 7.683594 20.234375 7.683594 20.226562 7.691406 Z M 20.34375 7.933594 L 20.332031 7.933594 C 20.332031 7.933594 20.339844 7.9375 20.347656 7.9375 Z M 21.878906 10.816406 C 21.5 10.941406 21.117188 11.054688 20.730469 11.15625 C 20.703125 11.101562 20.671875 11.046875 20.625 11.003906 C 20.5625 10.9375 20.488281 10.886719 20.402344 10.859375 C 20.292969 10.832031 20.195312 10.855469 20.109375 10.929688 C 19.949219 11.046875 19.890625 11.199219 19.933594 11.394531 C 19.976562 11.558594 20.082031 11.652344 20.253906 11.675781 C 20.273438 11.730469 20.308594 11.753906 20.367188 11.757812 C 20.382812 11.757812 20.398438 11.757812 20.417969 11.757812 C 20.550781 12.109375 20.707031 12.449219 20.890625 12.78125 C 20.847656 12.816406 20.808594 12.855469 20.777344 12.902344 C 20.726562 12.96875 20.703125 13.046875 20.703125 13.128906 C 20.707031 13.222656 20.75 13.300781 20.828125 13.355469 C 20.898438 13.402344 20.972656 13.421875 21.058594 13.414062 C 21.15625 13.398438 21.246094 13.367188 21.332031 13.320312 C 21.359375 13.304688 21.375 13.285156 21.386719 13.257812 C 21.445312 13.273438 21.488281 13.253906 21.519531 13.203125 C 21.601562 13.078125 21.597656 12.957031 21.511719 12.835938 C 21.429688 12.707031 21.308594 12.648438 21.15625 12.667969 C 21.140625 12.671875 21.125 12.671875 21.113281 12.675781 C 20.929688 12.347656 20.769531 12.007812 20.636719 11.652344 C 20.691406 11.601562 20.730469 11.539062 20.757812 11.46875 C 20.761719 11.445312 20.769531 11.421875 20.773438 11.398438 C 21.1875 11.289062 21.597656 11.167969 22.003906 11.03125 C 22.058594 11.078125 22.117188 11.109375 22.183594 11.128906 C 22.183594 11.136719 22.1875 11.144531 22.191406 11.148438 C 22.234375 11.21875 22.289062 11.234375 22.359375 11.195312 C 22.496094 11.113281 22.585938 11 22.632812 10.847656 C 22.679688 10.683594 22.65625 10.492188 22.484375 10.421875 C 22.398438 10.398438 22.316406 10.398438 22.234375 10.429688 C 22.167969 10.449219 22.109375 10.472656 22.050781 10.507812 C 21.933594 10.574219 21.875 10.679688 21.878906 10.816406 Z M 21.113281 12.925781 C 21.109375 12.925781 21.09375 12.933594 21.113281 12.925781 Z M 20.957031 13.148438 Z M 21.164062 12.914062 L 21.171875 12.914062 C 21.15625 12.917969 21.171875 12.914062 21.175781 12.914062 L 21.21875 12.914062 L 21.238281 12.917969 L 21.25 12.917969 C 21.253906 12.917969 21.265625 12.921875 21.269531 12.925781 C 21.273438 12.929688 21.269531 12.925781 21.277344 12.925781 C 21.285156 12.933594 21.289062 12.9375 21.296875 12.945312 C 21.296875 12.945312 21.300781 12.957031 21.304688 12.957031 C 21.304688 12.957031 21.316406 12.976562 21.320312 12.984375 C 21.320312 12.984375 21.320312 12.988281 21.320312 12.992188 C 21.320312 13 21.320312 13.007812 21.324219 13.019531 L 21.324219 13.046875 C 21.324219 13.050781 21.324219 13.054688 21.324219 13.058594 C 21.320312 13.066406 21.316406 13.078125 21.308594 13.085938 C 21.308594 13.089844 21.304688 13.09375 21.300781 13.101562 C 21.269531 13.09375 21.238281 13.097656 21.210938 13.113281 L 21.140625 13.144531 L 21.117188 13.15625 C 21.097656 13.160156 21.082031 13.167969 21.066406 13.171875 L 20.980469 13.171875 L 20.964844 13.164062 C 20.964844 13.164062 20.964844 13.15625 20.964844 13.15625 C 20.964844 13.160156 20.964844 13.15625 20.964844 13.15625 L 20.964844 13.132812 C 20.964844 13.128906 20.964844 13.125 20.964844 13.121094 C 20.96875 13.117188 20.96875 13.109375 20.972656 13.105469 L 20.972656 13.089844 L 20.984375 13.070312 C 20.988281 13.0625 20.992188 13.054688 21 13.046875 C 21.003906 13.039062 21.007812 13.035156 21.011719 13.03125 C 21.019531 13.023438 21.027344 13.015625 21.035156 13.007812 L 21.046875 12.996094 L 21.058594 12.988281 L 21.050781 12.992188 C 21.066406 12.976562 21.089844 12.964844 21.109375 12.957031 C 21.109375 12.957031 21.121094 12.957031 21.121094 12.949219 C 21.132812 12.945312 21.144531 12.941406 21.15625 12.9375 Z M 20.292969 11.4375 L 20.285156 11.4375 C 20.261719 11.4375 20.28125 11.4375 20.292969 11.4375 Z M 20.320312 11.4375 Z M 20.183594 11.21875 C 20.183594 11.214844 20.1875 11.207031 20.183594 11.21875 Z M 20.167969 11.265625 C 20.167969 11.265625 20.167969 11.273438 20.167969 11.277344 C 20.167969 11.28125 20.164062 11.265625 20.164062 11.265625 Z M 20.226562 11.410156 L 20.195312 11.378906 C 20.191406 11.371094 20.1875 11.367188 20.1875 11.363281 C 20.183594 11.359375 20.183594 11.355469 20.179688 11.351562 C 20.175781 11.339844 20.179688 11.34375 20.179688 11.359375 C 20.175781 11.351562 20.171875 11.332031 20.167969 11.324219 C 20.167969 11.320312 20.167969 11.320312 20.167969 11.316406 L 20.167969 11.3125 C 20.167969 11.304688 20.167969 11.292969 20.167969 11.285156 C 20.171875 11.28125 20.171875 11.28125 20.167969 11.277344 C 20.167969 11.269531 20.167969 11.261719 20.175781 11.253906 L 20.183594 11.230469 L 20.199219 11.199219 L 20.214844 11.175781 C 20.222656 11.164062 20.230469 11.15625 20.238281 11.148438 L 20.253906 11.136719 L 20.265625 11.125 L 20.285156 11.113281 L 20.296875 11.109375 L 20.308594 11.101562 L 20.324219 11.101562 L 20.34375 11.109375 L 20.367188 11.117188 L 20.386719 11.128906 C 20.398438 11.132812 20.40625 11.144531 20.417969 11.148438 L 20.4375 11.164062 C 20.445312 11.175781 20.457031 11.183594 20.464844 11.191406 C 20.472656 11.203125 20.484375 11.21875 20.480469 11.210938 C 20.488281 11.222656 20.492188 11.230469 20.5 11.238281 L 20.507812 11.257812 C 20.507812 11.257812 20.523438 11.289062 20.507812 11.261719 C 20.515625 11.277344 20.519531 11.296875 20.527344 11.3125 C 20.527344 11.320312 20.527344 11.324219 20.527344 11.332031 C 20.527344 11.339844 20.527344 11.34375 20.527344 11.351562 C 20.527344 11.359375 20.527344 11.363281 20.527344 11.371094 C 20.527344 11.371094 20.527344 11.375 20.527344 11.375 C 20.523438 11.390625 20.519531 11.402344 20.515625 11.414062 C 20.515625 11.417969 20.515625 11.421875 20.515625 11.425781 L 20.511719 11.433594 C 20.507812 11.4375 20.503906 11.445312 20.5 11.449219 C 20.5 11.449219 20.492188 11.460938 20.492188 11.464844 L 20.46875 11.488281 L 20.457031 11.496094 L 20.449219 11.5 C 20.417969 11.449219 20.375 11.429688 20.316406 11.445312 L 20.292969 11.445312 C 20.28125 11.441406 20.269531 11.4375 20.257812 11.4375 C 20.257812 11.4375 20.261719 11.4375 20.257812 11.4375 L 20.253906 11.4375 L 20.234375 11.425781 L 20.230469 11.425781 Z M 22.335938 10.902344 C 22.339844 10.898438 22.339844 10.894531 22.34375 10.890625 C 22.34375 10.890625 22.335938 10.898438 22.332031 10.902344 Z M 22.386719 10.820312 L 22.386719 10.816406 C 22.386719 10.816406 22.382812 10.816406 22.382812 10.816406 Z M 22.414062 10.730469 C 22.414062 10.726562 22.414062 10.722656 22.414062 10.71875 C 22.414062 10.71875 22.410156 10.722656 22.410156 10.726562 Z M 22.234375 10.894531 L 22.230469 10.894531 C 22.210938 10.882812 22.222656 10.886719 22.230469 10.886719 Z M 22.40625 10.648438 Z M 22.40625 10.648438 Z M 22.40625 10.648438 Z M 22.40625 10.648438 C 22.410156 10.648438 22.410156 10.648438 22.402344 10.648438 Z M 22.160156 10.730469 C 22.179688 10.722656 22.195312 10.707031 22.210938 10.699219 C 22.230469 10.6875 22.234375 10.691406 22.242188 10.683594 L 22.257812 10.679688 C 22.28125 10.671875 22.300781 10.664062 22.324219 10.660156 C 22.335938 10.660156 22.351562 10.652344 22.367188 10.648438 L 22.394531 10.648438 C 22.382812 10.648438 22.394531 10.648438 22.402344 10.648438 L 22.40625 10.648438 C 22.40625 10.652344 22.40625 10.652344 22.40625 10.65625 C 22.40625 10.65625 22.40625 10.65625 22.40625 10.664062 C 22.40625 10.667969 22.40625 10.671875 22.40625 10.675781 L 22.40625 10.679688 C 22.40625 10.6875 22.40625 10.691406 22.40625 10.6875 C 22.40625 10.691406 22.40625 10.699219 22.40625 10.707031 C 22.40625 10.710938 22.40625 10.71875 22.40625 10.722656 C 22.40625 10.734375 22.398438 10.753906 22.398438 10.753906 C 22.394531 10.769531 22.390625 10.785156 22.386719 10.800781 C 22.386719 10.800781 22.386719 10.800781 22.386719 10.804688 L 22.382812 10.8125 C 22.367188 10.839844 22.355469 10.867188 22.335938 10.894531 L 22.332031 10.902344 C 22.328125 10.902344 22.324219 10.90625 22.320312 10.910156 C 22.300781 10.90625 22.28125 10.902344 22.261719 10.894531 L 22.234375 10.886719 C 22.226562 10.882812 22.21875 10.878906 22.210938 10.875 L 22.183594 10.859375 L 22.171875 10.851562 L 22.152344 10.835938 L 22.140625 10.824219 L 22.128906 10.804688 C 22.128906 10.804688 22.128906 10.804688 22.128906 10.800781 C 22.128906 10.792969 22.128906 10.800781 22.128906 10.792969 C 22.128906 10.789062 22.128906 10.785156 22.128906 10.78125 C 22.128906 10.785156 22.128906 10.785156 22.128906 10.789062 L 22.128906 10.769531 L 22.140625 10.75 L 22.144531 10.742188 Z M 22.414062 10.675781 L 22.414062 10.683594 C 22.414062 10.683594 22.410156 10.679688 22.410156 10.675781 Z M 22.128906 10.800781 C 22.128906 10.800781 22.128906 10.796875 22.128906 10.796875 L 22.128906 10.789062 C 22.125 10.796875 22.125 10.800781 22.125 10.800781 Z M 21.269531 12.929688 L 21.277344 12.933594 C 21.269531 12.933594 21.269531 12.929688 21.269531 12.929688 Z M 21.019531 13.171875 Z M 21.304688 12.964844 C 21.292969 12.957031 21.296875 12.957031 21.304688 12.964844 Z M 3.890625 18.144531 C 3.886719 18.148438 3.886719 18.148438 3.882812 18.152344 C 3.882812 18.152344 3.890625 18.144531 3.890625 18.144531 Z M 5.851562 16.695312 C 5.851562 16.699219 5.851562 16.699219 5.851562 16.703125 C 5.851562 16.699219 5.851562 16.699219 5.851562 16.695312 Z M 5.851562 16.644531 C 5.851562 16.644531 5.851562 16.644531 5.851562 16.652344 C 5.851562 16.648438 5.851562 16.648438 5.855469 16.644531 Z M 5.835938 16.613281 L 5.84375 16.617188 C 5.839844 16.617188 5.839844 16.613281 5.835938 16.613281 Z M 5.558594 16.773438 Z M 5.8125 16.597656 L 5.816406 16.597656 C 5.816406 16.597656 5.820312 16.601562 5.816406 16.597656 Z M 5.570312 16.785156 L 5.574219 16.785156 Z M 5.738281 16.589844 C 5.730469 16.589844 5.726562 16.589844 5.726562 16.589844 Z M 5.546875 16.722656 C 5.546875 16.71875 5.546875 16.71875 5.546875 16.714844 C 5.554688 16.71875 5.550781 16.722656 5.550781 16.722656 Z M 5.546875 16.742188 C 5.546875 16.738281 5.546875 16.734375 5.546875 16.730469 C 5.546875 16.730469 5.546875 16.734375 5.546875 16.742188 Z M 5.839844 16.75 L 5.839844 16.753906 C 5.839844 16.753906 5.839844 16.75 5.839844 16.75 Z M 3.980469 19.742188 C 3.980469 19.742188 3.976562 19.742188 3.980469 19.742188 Z M 3.871094 19.632812 Z M 7.078125 18.371094 L 6.914062 17.535156 C 6.980469 17.511719 7.035156 17.472656 7.078125 17.414062 C 7.128906 17.34375 7.15625 17.261719 7.15625 17.171875 C 7.15625 17.070312 7.128906 16.976562 7.078125 16.886719 C 7.03125 16.804688 6.976562 16.726562 6.914062 16.65625 C 6.839844 16.566406 6.746094 16.542969 6.636719 16.582031 C 6.550781 16.621094 6.484375 16.683594 6.441406 16.769531 C 6.394531 16.847656 6.363281 16.9375 6.34375 17.027344 C 6.3125 17.136719 6.328125 17.238281 6.386719 17.335938 C 6.445312 17.417969 6.527344 17.460938 6.628906 17.464844 C 6.636719 17.464844 6.644531 17.464844 6.652344 17.464844 L 6.847656 18.433594 C 6.757812 18.492188 6.695312 18.574219 6.664062 18.675781 C 6.65625 18.671875 6.648438 18.671875 6.636719 18.671875 C 6.15625 18.632812 5.675781 18.617188 5.191406 18.617188 C 5.191406 18.605469 5.1875 18.589844 5.175781 18.578125 C 5.171875 18.566406 5.164062 18.558594 5.15625 18.550781 C 5.304688 18.070312 5.46875 17.597656 5.65625 17.128906 C 5.675781 17.132812 5.699219 17.136719 5.71875 17.132812 C 5.867188 17.101562 5.976562 17.023438 6.046875 16.886719 C 6.121094 16.75 6.132812 16.554688 6.015625 16.4375 C 5.898438 16.335938 5.769531 16.3125 5.628906 16.363281 C 5.46875 16.410156 5.367188 16.507812 5.316406 16.664062 C 5.289062 16.765625 5.3125 16.859375 5.382812 16.9375 C 5.402344 16.960938 5.425781 16.980469 5.453125 16.996094 C 5.441406 17.011719 5.429688 17.027344 5.421875 17.046875 C 5.246094 17.488281 5.085938 17.941406 4.941406 18.398438 L 4.863281 18.339844 L 4.78125 18.28125 L 4.761719 18.269531 L 4.742188 18.25 L 4.71875 18.234375 C 4.636719 18.171875 4.558594 18.105469 4.484375 18.035156 C 4.488281 18.011719 4.488281 17.988281 4.492188 17.964844 C 4.492188 17.84375 4.46875 17.726562 4.421875 17.617188 C 4.382812 17.5 4.308594 17.410156 4.203125 17.34375 C 3.972656 17.222656 3.765625 17.261719 3.589844 17.449219 C 3.429688 17.632812 3.382812 17.84375 3.449219 18.078125 C 3.480469 18.210938 3.558594 18.308594 3.679688 18.371094 C 3.765625 18.414062 3.859375 18.417969 3.949219 18.386719 C 3.976562 18.410156 4.003906 18.421875 4.039062 18.425781 C 4.164062 18.4375 4.269531 18.394531 4.355469 18.300781 C 4.363281 18.292969 4.371094 18.28125 4.378906 18.273438 C 4.535156 18.40625 4.695312 18.527344 4.867188 18.644531 C 4.664062 18.8125 4.488281 19.007812 4.34375 19.226562 L 4.335938 19.226562 C 4.167969 19.152344 4.003906 19.167969 3.847656 19.269531 C 3.675781 19.371094 3.605469 19.519531 3.640625 19.71875 C 3.667969 19.816406 3.726562 19.890625 3.8125 19.945312 C 3.875 19.980469 3.941406 19.996094 4.011719 19.984375 C 4.042969 20.035156 4.089844 20.050781 4.144531 20.039062 C 4.324219 19.992188 4.449219 19.882812 4.507812 19.707031 C 4.546875 19.601562 4.542969 19.5 4.503906 19.402344 C 4.523438 19.390625 4.542969 19.375 4.554688 19.355469 C 4.574219 19.324219 4.597656 19.292969 4.617188 19.261719 L 4.652344 19.21875 L 4.652344 19.210938 C 4.65625 19.203125 4.664062 19.199219 4.671875 19.1875 C 4.714844 19.132812 4.765625 19.078125 4.8125 19.027344 C 4.863281 18.976562 4.914062 18.921875 4.96875 18.875 L 5.050781 18.804688 C 5.074219 18.847656 5.109375 18.867188 5.15625 18.863281 C 5.648438 18.863281 6.140625 18.882812 6.632812 18.917969 L 6.652344 18.917969 C 6.671875 18.984375 6.703125 19.046875 6.75 19.101562 C 6.738281 19.117188 6.734375 19.136719 6.734375 19.15625 C 6.734375 19.195312 6.753906 19.230469 6.789062 19.25 C 6.683594 19.496094 6.605469 19.746094 6.554688 20.007812 C 6.554688 20.027344 6.554688 20.046875 6.554688 20.066406 C 6.535156 20.0625 6.511719 20.058594 6.488281 20.058594 C 6.332031 20.066406 6.21875 20.136719 6.148438 20.277344 C 6.109375 20.359375 6.105469 20.441406 6.132812 20.527344 C 6.160156 20.617188 6.21875 20.6875 6.304688 20.730469 C 6.375 20.773438 6.429688 20.757812 6.472656 20.6875 C 6.511719 20.617188 6.5 20.5625 6.429688 20.519531 C 6.417969 20.515625 6.410156 20.507812 6.398438 20.503906 L 6.378906 20.484375 L 6.371094 20.46875 C 6.371094 20.46875 6.371094 20.460938 6.363281 20.457031 C 6.359375 20.453125 6.359375 20.4375 6.359375 20.433594 C 6.359375 20.433594 6.359375 20.429688 6.359375 20.429688 C 6.359375 20.425781 6.359375 20.421875 6.359375 20.417969 C 6.359375 20.410156 6.363281 20.402344 6.367188 20.390625 C 6.371094 20.386719 6.371094 20.382812 6.371094 20.378906 L 6.382812 20.367188 C 6.386719 20.363281 6.390625 20.355469 6.398438 20.347656 L 6.410156 20.339844 L 6.4375 20.324219 L 6.445312 20.316406 L 6.472656 20.308594 L 6.523438 20.308594 L 6.542969 20.316406 L 6.5625 20.328125 L 6.574219 20.335938 C 6.582031 20.339844 6.589844 20.347656 6.597656 20.355469 C 6.601562 20.359375 6.605469 20.367188 6.609375 20.371094 L 6.625 20.394531 L 6.636719 20.417969 C 6.636719 20.421875 6.636719 20.429688 6.644531 20.4375 L 6.652344 20.464844 L 6.652344 20.476562 C 6.652344 20.488281 6.652344 20.5 6.652344 20.511719 C 6.652344 20.515625 6.652344 20.523438 6.652344 20.53125 C 6.648438 20.550781 6.640625 20.570312 6.632812 20.59375 L 6.625 20.613281 C 6.617188 20.625 6.609375 20.636719 6.601562 20.648438 L 6.59375 20.660156 C 6.609375 20.640625 6.59375 20.660156 6.59375 20.664062 C 6.59375 20.667969 6.578125 20.683594 6.566406 20.695312 L 6.535156 20.722656 L 6.519531 20.734375 C 6.496094 20.75 6.46875 20.761719 6.441406 20.773438 C 6.375 20.816406 6.363281 20.871094 6.398438 20.9375 C 6.4375 21 6.492188 21.015625 6.5625 20.980469 C 6.699219 20.921875 6.796875 20.820312 6.855469 20.683594 C 6.917969 20.542969 6.914062 20.402344 6.835938 20.265625 C 6.804688 20.214844 6.769531 20.171875 6.726562 20.136719 C 6.753906 20.121094 6.773438 20.097656 6.78125 20.0625 C 6.835938 19.777344 6.925781 19.5 7.058594 19.238281 C 7.15625 19.195312 7.238281 19.128906 7.308594 19.046875 C 7.371094 18.984375 7.410156 18.910156 7.429688 18.820312 C 7.445312 18.730469 7.429688 18.644531 7.382812 18.5625 C 7.3125 18.449219 7.210938 18.386719 7.078125 18.371094 Z M 5.566406 16.785156 C 5.5625 16.78125 5.5625 16.78125 5.566406 16.78125 Z M 5.582031 16.792969 Z M 5.566406 16.792969 L 5.558594 16.792969 C 5.558594 16.792969 5.5625 16.789062 5.566406 16.789062 Z M 5.546875 16.734375 C 5.546875 16.730469 5.546875 16.730469 5.546875 16.726562 C 5.546875 16.726562 5.546875 16.726562 5.546875 16.722656 C 5.546875 16.71875 5.546875 16.71875 5.546875 16.714844 C 5.554688 16.707031 5.558594 16.699219 5.566406 16.6875 L 5.570312 16.683594 C 5.578125 16.671875 5.589844 16.664062 5.597656 16.65625 L 5.601562 16.65625 L 5.609375 16.652344 L 5.636719 16.632812 L 5.667969 16.617188 C 5.648438 16.625 5.671875 16.617188 5.675781 16.617188 L 5.722656 16.605469 C 5.71875 16.605469 5.722656 16.605469 5.726562 16.605469 L 5.789062 16.605469 L 5.816406 16.613281 L 5.808594 16.613281 L 5.816406 16.613281 C 5.824219 16.613281 5.824219 16.613281 5.824219 16.613281 L 5.828125 16.613281 L 5.835938 16.621094 C 5.835938 16.617188 5.835938 16.617188 5.839844 16.625 L 5.84375 16.625 L 5.851562 16.636719 C 5.851562 16.640625 5.851562 16.644531 5.855469 16.648438 C 5.855469 16.648438 5.855469 16.648438 5.855469 16.652344 C 5.855469 16.660156 5.855469 16.660156 5.855469 16.660156 C 5.855469 16.664062 5.855469 16.671875 5.855469 16.675781 C 5.855469 16.679688 5.855469 16.691406 5.855469 16.703125 C 5.855469 16.695312 5.859375 16.6875 5.855469 16.703125 C 5.855469 16.703125 5.855469 16.707031 5.855469 16.707031 L 5.855469 16.71875 C 5.855469 16.730469 5.847656 16.742188 5.847656 16.75 L 5.847656 16.753906 C 5.847656 16.753906 5.847656 16.753906 5.847656 16.761719 C 5.847656 16.769531 5.847656 16.765625 5.847656 16.769531 C 5.839844 16.78125 5.835938 16.789062 5.828125 16.800781 C 5.824219 16.804688 5.820312 16.808594 5.816406 16.8125 L 5.792969 16.84375 L 5.777344 16.855469 L 5.769531 16.863281 L 5.738281 16.878906 C 5.714844 16.808594 5.664062 16.78125 5.589844 16.796875 L 5.570312 16.796875 C 5.566406 16.796875 5.566406 16.796875 5.566406 16.792969 L 5.570312 16.792969 L 5.5625 16.792969 L 5.554688 16.785156 L 5.5625 16.792969 C 5.5625 16.785156 5.550781 16.78125 5.546875 16.773438 L 5.546875 16.753906 C 5.546875 16.753906 5.546875 16.753906 5.546875 16.757812 C 5.546875 16.757812 5.546875 16.753906 5.546875 16.753906 C 5.546875 16.730469 5.546875 16.730469 5.546875 16.730469 Z M 4.121094 18.175781 Z M 4.15625 18.15625 L 4.125 18.171875 L 4.121094 18.171875 L 4.089844 18.183594 C 4.085938 18.167969 4.074219 18.152344 4.066406 18.140625 C 4.007812 18.085938 3.949219 18.085938 3.890625 18.140625 L 3.882812 18.144531 C 3.875 18.148438 3.871094 18.148438 3.863281 18.152344 L 3.808594 18.152344 L 3.769531 18.136719 L 3.765625 18.136719 C 3.753906 18.125 3.746094 18.117188 3.738281 18.105469 L 3.726562 18.089844 C 3.722656 18.082031 3.71875 18.074219 3.710938 18.0625 C 3.707031 18.054688 3.710938 18.058594 3.707031 18.054688 C 3.703125 18.050781 3.699219 18.035156 3.695312 18.023438 C 3.695312 18.015625 3.6875 17.988281 3.683594 17.96875 C 3.683594 17.96875 3.683594 17.953125 3.683594 17.953125 C 3.679688 17.945312 3.675781 17.941406 3.671875 17.933594 C 3.671875 17.917969 3.671875 17.898438 3.671875 17.878906 C 3.671875 17.859375 3.671875 17.859375 3.671875 17.847656 C 3.671875 17.839844 3.671875 17.828125 3.671875 17.824219 C 3.679688 17.753906 3.707031 17.691406 3.753906 17.636719 C 3.742188 17.648438 3.769531 17.621094 3.773438 17.613281 L 3.796875 17.59375 L 3.808594 17.585938 C 3.820312 17.578125 3.832031 17.570312 3.84375 17.5625 L 3.863281 17.554688 L 3.886719 17.546875 C 3.898438 17.539062 3.914062 17.535156 3.929688 17.535156 L 4.003906 17.535156 C 4.023438 17.539062 4.042969 17.542969 4.058594 17.546875 L 4.0625 17.546875 L 4.082031 17.558594 L 4.097656 17.566406 L 4.109375 17.578125 C 4.136719 17.601562 4.15625 17.628906 4.171875 17.660156 C 4.1875 17.691406 4.203125 17.722656 4.210938 17.757812 C 4.21875 17.777344 4.222656 17.800781 4.226562 17.820312 C 4.234375 17.84375 4.226562 17.839844 4.234375 17.851562 C 4.234375 17.851562 4.234375 17.878906 4.234375 17.878906 C 4.238281 17.914062 4.238281 17.945312 4.234375 17.980469 C 4.210938 18.011719 4.199219 18.042969 4.203125 18.082031 L 4.1875 18.105469 L 4.175781 18.125 C 4.167969 18.132812 4.15625 18.140625 4.148438 18.148438 C 4.148438 18.148438 4.175781 18.140625 4.15625 18.15625 Z M 4.265625 19.46875 L 4.261719 19.464844 C 4.265625 19.464844 4.265625 19.46875 4.265625 19.46875 Z M 4.226562 19.4375 L 4.21875 19.4375 Z M 4.171875 19.421875 C 4.191406 19.425781 4.175781 19.425781 4.171875 19.421875 Z M 3.871094 19.617188 C 3.871094 19.625 3.867188 19.636719 3.871094 19.617188 Z M 3.894531 19.695312 L 3.898438 19.703125 C 3.894531 19.699219 3.894531 19.695312 3.894531 19.695312 Z M 3.953125 19.742188 Z M 3.96875 19.746094 Z M 3.957031 19.746094 C 3.957031 19.746094 3.957031 19.746094 3.964844 19.746094 Z M 4.273438 19.632812 C 4.273438 19.632812 4.273438 19.636719 4.273438 19.640625 C 4.265625 19.652344 4.261719 19.664062 4.25 19.675781 C 4.25 19.683594 4.242188 19.691406 4.238281 19.695312 L 4.238281 19.703125 C 4.230469 19.710938 4.222656 19.722656 4.210938 19.734375 L 4.195312 19.746094 L 4.1875 19.753906 C 4.175781 19.761719 4.164062 19.769531 4.152344 19.777344 L 4.144531 19.777344 C 4.105469 19.722656 4.050781 19.710938 3.988281 19.742188 C 4.015625 19.730469 4 19.738281 3.988281 19.742188 L 3.964844 19.742188 L 3.949219 19.738281 L 3.945312 19.738281 L 3.933594 19.726562 C 3.933594 19.726562 3.90625 19.714844 3.925781 19.722656 C 3.941406 19.730469 3.925781 19.722656 3.925781 19.71875 L 3.902344 19.703125 L 3.902344 19.695312 L 3.894531 19.679688 C 3.890625 19.675781 3.890625 19.671875 3.886719 19.664062 L 3.871094 19.644531 C 3.871094 19.644531 3.871094 19.640625 3.871094 19.636719 C 3.871094 19.636719 3.871094 19.640625 3.871094 19.640625 C 3.871094 19.664062 3.871094 19.621094 3.871094 19.613281 C 3.871094 19.609375 3.871094 19.605469 3.871094 19.601562 C 3.875 19.59375 3.875 19.589844 3.875 19.582031 C 3.882812 19.570312 3.890625 19.558594 3.898438 19.546875 C 3.898438 19.542969 3.902344 19.539062 3.90625 19.535156 L 3.910156 19.53125 L 3.933594 19.503906 L 3.949219 19.492188 C 3.972656 19.480469 3.996094 19.464844 4.019531 19.453125 L 4.039062 19.449219 C 4.054688 19.441406 4.070312 19.4375 4.085938 19.4375 L 4.15625 19.4375 C 4.171875 19.441406 4.183594 19.445312 4.199219 19.445312 L 4.214844 19.445312 C 4.222656 19.449219 4.230469 19.453125 4.238281 19.460938 C 4.238281 19.464844 4.25 19.46875 4.253906 19.472656 C 4.253906 19.480469 4.257812 19.488281 4.261719 19.492188 C 4.253906 19.476562 4.261719 19.492188 4.261719 19.492188 L 4.269531 19.519531 L 4.269531 19.550781 C 4.269531 19.558594 4.269531 19.566406 4.269531 19.578125 C 4.269531 19.585938 4.269531 19.59375 4.261719 19.605469 Z M 6.359375 20.410156 L 6.359375 20.40625 C 6.359375 20.40625 6.359375 20.40625 6.359375 20.410156 Z M 6.664062 20.472656 C 6.664062 20.472656 6.664062 20.46875 6.664062 20.472656 Z M 6.621094 17.238281 C 6.621094 17.234375 6.621094 17.230469 6.621094 17.226562 C 6.621094 17.230469 6.621094 17.234375 6.621094 17.238281 Z M 6.621094 17.222656 Z M 6.621094 17.222656 Z M 6.867188 17.277344 C 6.867188 17.285156 6.863281 17.285156 6.867188 17.277344 Z M 6.886719 17.242188 Z M 6.710938 16.808594 Z M 6.710938 16.808594 Z M 6.710938 16.808594 C 6.710938 16.808594 6.710938 16.800781 6.714844 16.808594 Z M 6.710938 16.808594 C 6.707031 16.804688 6.707031 16.804688 6.714844 16.808594 Z M 6.710938 16.808594 C 6.710938 16.808594 6.707031 16.808594 6.707031 16.808594 Z M 6.699219 16.820312 Z M 6.621094 16.941406 Z M 6.59375 17.210938 L 6.601562 17.210938 Z M 6.601562 17.210938 L 6.59375 17.207031 L 6.589844 17.203125 C 6.585938 17.199219 6.585938 17.195312 6.585938 17.191406 C 6.585938 17.183594 6.585938 17.179688 6.578125 17.171875 C 6.574219 17.164062 6.578125 17.167969 6.578125 17.164062 C 6.578125 17.148438 6.578125 17.132812 6.578125 17.113281 C 6.578125 17.113281 6.578125 17.109375 6.578125 17.105469 L 6.582031 17.085938 C 6.59375 17.050781 6.601562 17.015625 6.613281 16.984375 C 6.621094 16.96875 6.625 16.953125 6.628906 16.941406 C 6.632812 16.933594 6.636719 16.921875 6.640625 16.917969 C 6.652344 16.894531 6.664062 16.875 6.679688 16.855469 C 6.683594 16.847656 6.691406 16.839844 6.699219 16.835938 L 6.707031 16.824219 L 6.714844 16.820312 L 6.734375 16.839844 L 6.742188 16.855469 L 6.769531 16.894531 C 6.792969 16.921875 6.8125 16.953125 6.832031 16.984375 C 6.847656 17.011719 6.863281 17.039062 6.875 17.066406 C 6.875 17.066406 6.875 17.070312 6.875 17.074219 L 6.882812 17.097656 C 6.886719 17.113281 6.890625 17.132812 6.894531 17.148438 C 6.894531 17.160156 6.894531 17.167969 6.894531 17.175781 C 6.894531 17.183594 6.894531 17.1875 6.894531 17.195312 C 6.890625 17.207031 6.886719 17.222656 6.882812 17.238281 L 6.882812 17.242188 L 6.867188 17.273438 L 6.867188 17.277344 L 6.855469 17.292969 C 6.863281 17.222656 6.832031 17.175781 6.765625 17.160156 C 6.703125 17.140625 6.660156 17.160156 6.628906 17.21875 L 6.609375 17.21875 Z M 7.183594 18.800781 L 7.164062 18.832031 L 7.152344 18.851562 L 7.148438 18.859375 C 7.125 18.882812 7.101562 18.910156 7.078125 18.933594 C 7.0625 18.941406 7.050781 18.953125 7.039062 18.960938 L 7.011719 18.984375 L 6.996094 18.992188 L 6.980469 18.980469 L 6.972656 18.976562 L 6.929688 18.933594 C 6.925781 18.925781 6.921875 18.921875 6.917969 18.914062 C 6.910156 18.902344 6.90625 18.894531 6.898438 18.882812 L 6.894531 18.863281 C 6.890625 18.851562 6.886719 18.839844 6.882812 18.828125 C 6.882812 18.828125 6.882812 18.824219 6.882812 18.824219 C 6.882812 18.816406 6.882812 18.8125 6.882812 18.808594 C 6.882812 18.796875 6.882812 18.785156 6.882812 18.773438 C 6.882812 18.765625 6.882812 18.761719 6.886719 18.753906 C 6.890625 18.746094 6.890625 18.742188 6.894531 18.734375 C 6.894531 18.734375 6.894531 18.730469 6.894531 18.730469 C 6.894531 18.726562 6.894531 18.726562 6.894531 18.722656 C 6.894531 18.714844 6.902344 18.710938 6.90625 18.703125 C 6.910156 18.695312 6.914062 18.6875 6.917969 18.683594 C 6.925781 18.675781 6.933594 18.667969 6.941406 18.660156 L 6.953125 18.648438 L 6.988281 18.628906 L 7 18.628906 L 7.023438 18.621094 L 7.070312 18.621094 L 7.089844 18.628906 L 7.101562 18.632812 L 7.117188 18.644531 L 7.121094 18.644531 L 7.128906 18.648438 C 7.136719 18.65625 7.144531 18.664062 7.152344 18.671875 C 7.152344 18.671875 7.164062 18.691406 7.167969 18.695312 L 7.175781 18.710938 C 7.175781 18.722656 7.179688 18.730469 7.183594 18.742188 C 7.183594 18.75 7.183594 18.757812 7.183594 18.765625 L 7.183594 18.78125 C 7.1875 18.789062 7.183594 18.792969 7.183594 18.800781 Z M 6.980469 18.980469 L 6.96875 18.976562 Z M 6.582031 17.203125 Z M 6.59375 17.207031 Z M 6.625 17.21875 Z M 6.628906 17.21875 Z M 10.765625 6.65625 C 10.570312 6.933594 10.449219 7.238281 10.410156 7.574219 C 10.355469 7.964844 10.371094 8.390625 10.539062 8.757812 C 10.613281 8.925781 10.726562 9.0625 10.875 9.171875 C 11.019531 9.261719 11.171875 9.328125 11.339844 9.367188 C 11.492188 9.417969 11.628906 9.476562 11.683594 9.640625 C 11.710938 9.753906 11.765625 9.851562 11.84375 9.933594 C 11.765625 10.007812 11.738281 10.097656 11.757812 10.199219 C 11.765625 10.25 11.785156 10.296875 11.820312 10.332031 C 11.804688 10.351562 11.789062 10.375 11.777344 10.398438 C 11.726562 10.492188 11.722656 10.589844 11.761719 10.6875 C 11.78125 10.734375 11.808594 10.777344 11.84375 10.8125 C 11.863281 10.828125 11.882812 10.84375 11.902344 10.855469 C 11.839844 10.980469 11.859375 11.089844 11.964844 11.1875 C 12.066406 11.269531 12.183594 11.300781 12.3125 11.28125 C 12.5625 11.265625 12.828125 11.230469 13.019531 11.050781 C 13.128906 10.957031 13.183594 10.835938 13.183594 10.691406 C 13.179688 10.621094 13.15625 10.5625 13.113281 10.507812 C 13.164062 10.429688 13.175781 10.339844 13.148438 10.25 C 13.117188 10.167969 13.0625 10.113281 12.984375 10.082031 C 12.988281 10.011719 12.96875 9.949219 12.933594 9.890625 C 12.890625 9.832031 12.839844 9.78125 12.777344 9.746094 C 12.796875 9.695312 12.808594 9.640625 12.832031 9.589844 C 12.996094 9.226562 13.382812 9.019531 13.554688 8.664062 C 13.761719 8.242188 13.730469 7.738281 13.601562 7.300781 C 13.492188 6.902344 13.269531 6.578125 12.945312 6.328125 C 12.613281 6.089844 12.175781 6.097656 11.785156 6.128906 C 11.574219 6.132812 11.371094 6.183594 11.175781 6.269531 C 11.007812 6.367188 10.871094 6.496094 10.765625 6.65625 Z M 11.917969 10.859375 C 11.925781 10.867188 11.933594 10.871094 11.945312 10.875 C 11.929688 10.875 11.921875 10.871094 11.917969 10.859375 Z M 12.945312 10.730469 C 12.9375 10.777344 12.917969 10.8125 12.886719 10.847656 C 12.824219 10.917969 12.75 10.964844 12.660156 10.988281 C 12.539062 11.019531 12.417969 11.039062 12.292969 11.042969 C 12.246094 11.050781 12.199219 11.042969 12.15625 11.027344 C 12.136719 11.019531 12.125 11.007812 12.117188 10.988281 C 12.121094 10.980469 12.121094 10.972656 12.125 10.96875 C 12.179688 10.855469 12.183594 10.734375 12.066406 10.664062 C 12.015625 10.632812 11.96875 10.605469 11.984375 10.535156 C 11.996094 10.496094 12.027344 10.476562 12.050781 10.441406 C 12.082031 10.390625 12.089844 10.335938 12.070312 10.277344 C 12.058594 10.238281 11.957031 10.148438 12.015625 10.109375 C 12.046875 10.089844 12.0625 10.066406 12.070312 10.035156 C 12.214844 10.046875 12.355469 10.035156 12.496094 9.992188 C 12.539062 9.980469 12.585938 9.960938 12.625 9.941406 C 12.65625 9.953125 12.683594 9.972656 12.707031 9.996094 C 12.726562 10.015625 12.769531 10.078125 12.746094 10.101562 C 12.734375 10.121094 12.722656 10.136719 12.71875 10.160156 C 12.707031 10.144531 12.691406 10.136719 12.671875 10.132812 C 12.640625 10.125 12.609375 10.128906 12.578125 10.144531 L 12.542969 10.160156 C 12.507812 10.175781 12.46875 10.191406 12.429688 10.203125 C 12.390625 10.214844 12.371094 10.222656 12.339844 10.230469 C 12.289062 10.207031 12.242188 10.214844 12.203125 10.253906 C 12.148438 10.3125 12.148438 10.371094 12.203125 10.425781 C 12.25 10.46875 12.304688 10.484375 12.367188 10.476562 C 12.402344 10.46875 12.441406 10.460938 12.476562 10.445312 C 12.554688 10.421875 12.628906 10.390625 12.703125 10.355469 C 12.730469 10.339844 12.75 10.316406 12.757812 10.285156 C 12.789062 10.316406 12.828125 10.324219 12.867188 10.308594 C 12.898438 10.292969 12.917969 10.304688 12.925781 10.335938 C 12.9375 10.378906 12.890625 10.410156 12.859375 10.425781 C 12.84375 10.4375 12.828125 10.449219 12.816406 10.464844 C 12.761719 10.433594 12.714844 10.4375 12.667969 10.480469 L 12.65625 10.492188 C 12.632812 10.511719 12.605469 10.527344 12.574219 10.539062 C 12.542969 10.554688 12.511719 10.5625 12.476562 10.566406 C 12.453125 10.570312 12.429688 10.570312 12.40625 10.566406 C 12.324219 10.566406 12.285156 10.609375 12.285156 10.691406 C 12.285156 10.769531 12.324219 10.8125 12.40625 10.8125 C 12.574219 10.816406 12.71875 10.761719 12.84375 10.648438 C 12.851562 10.640625 12.859375 10.632812 12.863281 10.625 C 12.882812 10.636719 12.902344 10.648438 12.925781 10.648438 C 12.949219 10.65625 12.949219 10.71875 12.945312 10.730469 Z M 11.511719 6.414062 C 11.710938 6.375 11.914062 6.355469 12.117188 6.359375 C 12.308594 6.351562 12.496094 6.378906 12.679688 6.449219 C 13.039062 6.613281 13.265625 7.003906 13.375 7.367188 C 13.488281 7.726562 13.515625 8.097656 13.394531 8.449219 C 13.289062 8.742188 13.039062 8.933594 12.839844 9.160156 C 12.738281 9.277344 12.65625 9.40625 12.597656 9.550781 C 12.582031 9.585938 12.574219 9.625 12.558594 9.660156 C 12.5 9.664062 12.464844 9.691406 12.445312 9.746094 C 12.378906 9.769531 12.3125 9.78125 12.242188 9.789062 C 12.089844 9.804688 11.980469 9.777344 11.929688 9.621094 C 11.894531 9.46875 11.816406 9.34375 11.6875 9.253906 C 11.441406 9.089844 11.125 9.101562 10.917969 8.882812 C 10.683594 8.636719 10.632812 8.28125 10.628906 7.960938 C 10.621094 7.375 10.851562 6.570312 11.511719 6.414062 Z M 11.691406 5.714844 C 11.671875 5.59375 11.660156 5.472656 11.65625 5.347656 C 11.65625 5.269531 11.699219 5.226562 11.777344 5.226562 C 11.8125 5.226562 11.839844 5.238281 11.863281 5.261719 C 11.886719 5.285156 11.898438 5.316406 11.898438 5.347656 C 11.90625 5.429688 11.910156 5.515625 11.921875 5.601562 L 11.929688 5.648438 C 11.9375 5.679688 11.933594 5.710938 11.917969 5.742188 C 11.890625 5.789062 11.851562 5.8125 11.796875 5.804688 C 11.738281 5.796875 11.707031 5.769531 11.691406 5.714844 Z M 10.738281 5.65625 C 10.726562 5.636719 10.722656 5.617188 10.722656 5.597656 C 10.722656 5.585938 10.722656 5.574219 10.722656 5.5625 C 10.746094 5.488281 10.796875 5.460938 10.871094 5.480469 C 10.902344 5.492188 10.929688 5.507812 10.945312 5.539062 L 11.0625 5.78125 C 11.074219 5.800781 11.078125 5.820312 11.078125 5.84375 L 11.078125 5.875 C 11.054688 5.953125 11.003906 5.980469 10.929688 5.957031 C 10.894531 5.949219 10.871094 5.929688 10.855469 5.902344 C 10.816406 5.820312 10.777344 5.738281 10.738281 5.65625 Z M 9.976562 6.113281 C 9.960938 6.082031 9.957031 6.050781 9.964844 6.015625 C 9.988281 5.941406 10.039062 5.914062 10.117188 5.9375 C 10.132812 5.941406 10.144531 5.945312 10.15625 5.957031 C 10.171875 5.964844 10.179688 5.976562 10.1875 5.992188 L 10.171875 5.972656 C 10.242188 6.058594 10.320312 6.136719 10.410156 6.203125 L 10.441406 6.226562 C 10.46875 6.246094 10.488281 6.269531 10.496094 6.300781 C 10.511719 6.351562 10.496094 6.394531 10.453125 6.429688 C 10.410156 6.464844 10.363281 6.464844 10.316406 6.4375 C 10.253906 6.390625 10.191406 6.339844 10.132812 6.285156 C 10.078125 6.230469 10.027344 6.171875 9.976562 6.113281 Z M 9.625 6.988281 C 9.632812 6.957031 9.652344 6.933594 9.683594 6.917969 C 9.710938 6.898438 9.742188 6.894531 9.777344 6.902344 L 10.078125 6.980469 C 10.152344 7.007812 10.179688 7.054688 10.160156 7.132812 C 10.136719 7.210938 10.089844 7.238281 10.007812 7.21875 L 9.707031 7.140625 C 9.632812 7.117188 9.605469 7.066406 9.625 6.988281 Z M 9.550781 7.984375 C 9.53125 7.90625 9.558594 7.859375 9.632812 7.832031 L 9.925781 7.765625 C 10.003906 7.746094 10.050781 7.773438 10.074219 7.851562 C 10.09375 7.929688 10.066406 7.976562 9.988281 8 L 9.699219 8.070312 C 9.625 8.089844 9.574219 8.058594 9.550781 7.984375 Z M 12.566406 5.808594 C 12.550781 5.777344 12.546875 5.746094 12.554688 5.714844 C 12.578125 5.628906 12.601562 5.539062 12.621094 5.453125 C 12.628906 5.421875 12.648438 5.394531 12.675781 5.378906 C 12.707031 5.363281 12.738281 5.359375 12.773438 5.367188 C 12.804688 5.375 12.828125 5.394531 12.84375 5.421875 C 12.859375 5.453125 12.867188 5.484375 12.855469 5.519531 C 12.835938 5.605469 12.8125 5.691406 12.792969 5.78125 C 12.78125 5.8125 12.765625 5.835938 12.734375 5.855469 C 12.664062 5.894531 12.609375 5.878906 12.570312 5.808594 Z M 13.210938 6.148438 C 13.203125 6.113281 13.207031 6.082031 13.222656 6.050781 L 13.3125 5.890625 C 13.351562 5.824219 13.40625 5.808594 13.476562 5.84375 C 13.488281 5.851562 13.5 5.863281 13.507812 5.875 C 13.519531 5.890625 13.527344 5.902344 13.53125 5.917969 C 13.542969 5.949219 13.542969 5.980469 13.53125 6.015625 L 13.441406 6.175781 C 13.425781 6.203125 13.402344 6.222656 13.367188 6.234375 C 13.335938 6.242188 13.304688 6.238281 13.273438 6.21875 C 13.261719 6.210938 13.25 6.203125 13.242188 6.1875 C 13.226562 6.175781 13.21875 6.164062 13.214844 6.148438 Z M 13.601562 6.796875 C 13.589844 6.765625 13.59375 6.734375 13.613281 6.703125 C 13.628906 6.675781 13.652344 6.65625 13.683594 6.648438 L 14.0625 6.507812 C 14.117188 6.492188 14.164062 6.503906 14.199219 6.550781 C 14.234375 6.597656 14.234375 6.644531 14.203125 6.691406 C 14.1875 6.722656 14.160156 6.738281 14.128906 6.75 L 13.753906 6.886719 C 13.671875 6.910156 13.625 6.878906 13.601562 6.800781 Z M 11.644531 8.425781 C 11.722656 8.40625 11.78125 8.363281 11.828125 8.296875 C 11.847656 8.332031 11.878906 8.347656 11.917969 8.347656 L 11.925781 8.359375 C 11.941406 8.390625 11.953125 8.417969 11.964844 8.449219 C 11.988281 8.523438 12.011719 8.59375 12.03125 8.667969 C 12.035156 8.691406 12.042969 8.714844 12.046875 8.742188 C 12.058594 8.878906 12.078125 9.019531 12.105469 9.15625 C 12.125 9.222656 12.171875 9.25 12.242188 9.242188 C 12.308594 9.234375 12.347656 9.191406 12.347656 9.121094 C 12.339844 8.980469 12.320312 8.839844 12.289062 8.703125 C 12.285156 8.640625 12.28125 8.574219 12.28125 8.511719 C 12.28125 8.414062 12.28125 8.316406 12.292969 8.21875 C 12.292969 8.179688 12.296875 8.140625 12.304688 8.101562 C 12.339844 8.105469 12.378906 8.105469 12.414062 8.101562 C 12.539062 8.082031 12.632812 8.019531 12.707031 7.914062 C 12.746094 7.84375 12.730469 7.789062 12.660156 7.75 C 12.589844 7.710938 12.535156 7.722656 12.492188 7.792969 C 12.46875 7.828125 12.429688 7.851562 12.386719 7.855469 C 12.371094 7.839844 12.351562 7.828125 12.332031 7.824219 C 12.269531 7.800781 12.214844 7.8125 12.167969 7.855469 C 12.144531 7.859375 12.125 7.863281 12.105469 7.875 C 12.066406 7.898438 12.035156 7.933594 12.015625 7.976562 C 12.015625 7.984375 12.003906 8.011719 11.996094 8.03125 C 11.972656 8.003906 11.953125 7.972656 11.9375 7.9375 C 11.910156 7.894531 11.871094 7.875 11.816406 7.878906 C 11.765625 7.886719 11.730469 7.917969 11.714844 7.96875 C 11.707031 8.050781 11.671875 8.117188 11.613281 8.175781 L 11.601562 8.1875 C 11.589844 8.167969 11.585938 8.144531 11.589844 8.121094 C 11.609375 8.046875 11.582031 7.996094 11.507812 7.972656 C 11.429688 7.953125 11.382812 7.976562 11.355469 8.054688 C 11.328125 8.160156 11.347656 8.253906 11.410156 8.34375 C 11.472656 8.417969 11.554688 8.449219 11.652344 8.429688 Z M 11.914062 8.339844 C 11.914062 8.339844 11.917969 8.339844 11.917969 8.339844 Z M 12 8.039062 Z M 11.597656 8.191406 Z M 11.597656 8.191406 " fill-opacity="1" fill-rule="nonzero"/></g></svg>