<svg xmlns="http://www.w3.org/2000/svg" xmlns:xlink="http://www.w3.org/1999/xlink" width="40" zoomAndPan="magnify" viewBox="0 0 30 30.000001" height="40" preserveAspectRatio="xMidYMid meet" version="1.0"><defs><clipPath id="97ddac5053"><path d="M 0.484375 0 L 29.515625 0 L 29.515625 29.03125 L 0.484375 29.03125 Z M 0.484375 0 " clip-rule="nonzero"/></clipPath><clipPath id="a74d680da6"><path d="M 3.773438 2.902344 L 16 2.902344 L 16 26.128906 L 3.773438 26.128906 Z M 3.773438 2.902344 " clip-rule="nonzero"/></clipPath><clipPath id="7244a992e2"><path d="M 10 7 L 26.273438 7 L 26.273438 22 L 10 22 Z M 10 7 " clip-rule="nonzero"/></clipPath></defs><g clip-path="url(#97ddac5053)"><path fill="#ffffff" d="M 0.484375 0 L 29.515625 0 L 29.515625 29.03125 L 0.484375 29.03125 Z M 0.484375 0 " fill-opacity="1" fill-rule="nonzero"/><path fill="#ffffff" d="M 0.484375 0 L 29.515625 0 L 29.515625 29.03125 L 0.484375 29.03125 Z M 0.484375 0 " fill-opacity="1" fill-rule="nonzero"/></g><path fill="#935f3d" d="M 14.972656 12.832031 C 14.914062 12.683594 14.769531 12.582031 14.609375 12.582031 C 14.445312 12.582031 14.304688 12.683594 14.246094 12.832031 L 13.085938 15.929688 C 13.011719 16.128906 13.113281 16.351562 13.3125 16.425781 C 13.515625 16.5 13.734375 16.402344 13.8125 16.199219 L 14.007812 15.675781 L 15.210938 15.675781 L 15.410156 16.199219 C 15.46875 16.355469 15.613281 16.449219 15.773438 16.449219 C 15.820312 16.449219 15.867188 16.441406 15.910156 16.425781 C 16.109375 16.355469 16.210938 16.128906 16.132812 15.929688 Z M 14.300781 14.902344 L 14.613281 14.070312 L 14.925781 14.902344 Z M 14.300781 14.902344 " fill-opacity="1" fill-rule="nonzero"/><path fill="#935f3d" d="M 16.929688 12.582031 C 16.71875 12.582031 16.542969 12.753906 16.542969 12.96875 L 16.542969 16.0625 C 16.542969 16.277344 16.71875 16.449219 16.929688 16.449219 C 17.144531 16.449219 17.316406 16.277344 17.316406 16.0625 L 17.316406 12.96875 C 17.316406 12.753906 17.144531 12.582031 16.929688 12.582031 Z M 16.929688 12.582031 " fill-opacity="1" fill-rule="nonzero"/><g clip-path="url(#a74d680da6)"><path fill="#935f3d" d="M 15.382812 21.09375 C 11.757812 21.09375 8.804688 18.140625 8.804688 14.515625 C 8.804688 10.890625 11.757812 7.9375 15.382812 7.9375 C 15.59375 7.9375 15.769531 7.765625 15.769531 7.550781 L 15.769531 3.292969 C 15.769531 3.082031 15.59375 2.90625 15.382812 2.90625 L 13.34375 2.90625 C 13.164062 2.90625 13.011719 3.027344 12.96875 3.203125 L 12.414062 5.421875 C 11.941406 5.578125 11.484375 5.761719 11.054688 5.984375 L 9.089844 4.808594 C 8.941406 4.714844 8.742188 4.742188 8.617188 4.867188 L 5.734375 7.75 C 5.613281 7.871094 5.585938 8.070312 5.679688 8.21875 L 6.855469 10.183594 C 6.632812 10.617188 6.445312 11.070312 6.292969 11.542969 L 4.070312 12.097656 C 3.898438 12.140625 3.777344 12.296875 3.777344 12.472656 L 3.777344 16.550781 C 3.777344 16.730469 3.898438 16.882812 4.070312 16.925781 L 6.292969 17.480469 C 6.449219 17.953125 6.632812 18.410156 6.855469 18.84375 L 5.679688 20.804688 C 5.585938 20.953125 5.613281 21.152344 5.734375 21.277344 L 8.617188 24.160156 C 8.742188 24.28125 8.941406 24.308594 9.089844 24.21875 L 11.054688 23.039062 C 11.484375 23.261719 11.941406 23.449219 12.414062 23.601562 L 12.96875 25.824219 C 13.011719 25.996094 13.164062 26.117188 13.34375 26.117188 L 15.382812 26.117188 C 15.59375 26.117188 15.769531 25.941406 15.769531 25.730469 L 15.769531 21.472656 C 15.769531 21.261719 15.59375 21.085938 15.382812 21.085938 Z M 14.996094 25.351562 L 13.644531 25.351562 L 13.113281 23.210938 C 13.078125 23.078125 12.976562 22.976562 12.847656 22.933594 C 12.28125 22.761719 11.730469 22.539062 11.222656 22.261719 C 11.101562 22.195312 10.957031 22.199219 10.839844 22.269531 L 8.953125 23.40625 L 6.496094 20.949219 L 7.628906 19.058594 C 7.699219 18.941406 7.703125 18.796875 7.636719 18.675781 C 7.359375 18.167969 7.136719 17.621094 6.964844 17.050781 C 6.929688 16.917969 6.824219 16.820312 6.6875 16.789062 L 4.546875 16.253906 L 4.546875 12.777344 L 6.6875 12.246094 C 6.820312 12.210938 6.925781 12.109375 6.964844 11.980469 C 7.136719 11.414062 7.359375 10.863281 7.636719 10.355469 C 7.703125 10.238281 7.699219 10.089844 7.628906 9.972656 L 6.496094 8.085938 L 8.953125 5.628906 L 10.839844 6.761719 C 10.957031 6.832031 11.101562 6.835938 11.222656 6.769531 C 11.730469 6.496094 12.28125 6.269531 12.847656 6.101562 C 12.980469 6.0625 13.082031 5.957031 13.113281 5.820312 L 13.644531 3.679688 L 14.996094 3.679688 L 14.996094 7.175781 C 11.121094 7.375 8.03125 10.59375 8.03125 14.515625 C 8.03125 18.441406 11.121094 21.65625 14.996094 21.855469 Z M 14.996094 25.351562 " fill-opacity="1" fill-rule="nonzero"/></g><g clip-path="url(#7244a992e2)"><path fill="#935f3d" d="M 24.667969 12.96875 C 23.949219 12.96875 23.351562 13.464844 23.175781 14.128906 L 19.253906 14.128906 L 19.253906 12.582031 L 20.800781 12.582031 C 20.910156 12.582031 21.011719 12.535156 21.085938 12.453125 L 22.503906 10.902344 C 22.691406 10.984375 22.902344 11.035156 23.121094 11.035156 C 23.976562 11.035156 24.667969 10.339844 24.667969 9.484375 C 24.667969 8.628906 23.976562 7.9375 23.121094 7.9375 C 22.265625 7.9375 21.574219 8.628906 21.574219 9.484375 C 21.574219 9.835938 21.699219 10.160156 21.894531 10.417969 L 20.628906 11.808594 L 19.253906 11.808594 L 19.253906 11.035156 C 19.253906 10.820312 19.078125 10.648438 18.867188 10.648438 L 18.089844 10.648438 L 18.089844 9.871094 C 18.089844 9.660156 17.917969 9.484375 17.703125 9.484375 C 17.492188 9.484375 17.316406 9.660156 17.316406 9.871094 L 17.316406 10.648438 L 15.769531 10.648438 L 15.769531 9.871094 C 15.769531 9.660156 15.59375 9.484375 15.382812 9.484375 C 15.171875 9.484375 14.996094 9.660156 14.996094 9.871094 L 14.996094 10.648438 L 13.449219 10.648438 L 13.449219 9.871094 C 13.449219 9.660156 13.273438 9.484375 13.0625 9.484375 C 12.847656 9.484375 12.675781 9.660156 12.675781 9.871094 L 12.675781 10.648438 L 11.898438 10.648438 C 11.6875 10.648438 11.511719 10.820312 11.511719 11.035156 L 11.511719 11.808594 L 10.738281 11.808594 C 10.527344 11.808594 10.351562 11.980469 10.351562 12.195312 C 10.351562 12.40625 10.527344 12.582031 10.738281 12.582031 L 11.511719 12.582031 L 11.511719 14.128906 L 10.738281 14.128906 C 10.527344 14.128906 10.351562 14.304688 10.351562 14.515625 C 10.351562 14.730469 10.527344 14.902344 10.738281 14.902344 L 11.511719 14.902344 L 11.511719 16.449219 L 10.738281 16.449219 C 10.527344 16.449219 10.351562 16.625 10.351562 16.835938 C 10.351562 17.050781 10.527344 17.226562 10.738281 17.226562 L 11.511719 17.226562 L 11.511719 18 C 11.511719 18.210938 11.6875 18.386719 11.898438 18.386719 L 12.675781 18.386719 L 12.675781 19.160156 C 12.675781 19.371094 12.847656 19.546875 13.0625 19.546875 C 13.273438 19.546875 13.449219 19.371094 13.449219 19.160156 L 13.449219 18.386719 L 14.996094 18.386719 L 14.996094 19.160156 C 14.996094 19.371094 15.171875 19.546875 15.382812 19.546875 C 15.59375 19.546875 15.769531 19.371094 15.769531 19.160156 L 15.769531 18.386719 L 17.316406 18.386719 L 17.316406 19.160156 C 17.316406 19.371094 17.492188 19.546875 17.703125 19.546875 C 17.917969 19.546875 18.089844 19.371094 18.089844 19.160156 L 18.089844 18.386719 L 18.867188 18.386719 C 19.078125 18.386719 19.253906 18.210938 19.253906 18 L 19.253906 17.226562 L 20.628906 17.226562 L 21.894531 18.613281 C 21.699219 18.875 21.574219 19.195312 21.574219 19.546875 C 21.574219 20.402344 22.265625 21.09375 23.121094 21.09375 C 23.976562 21.09375 24.667969 20.402344 24.667969 19.546875 C 24.667969 18.691406 23.976562 18 23.121094 18 C 22.902344 18 22.691406 18.046875 22.503906 18.128906 L 21.085938 16.578125 C 21.011719 16.496094 20.910156 16.449219 20.800781 16.449219 L 19.253906 16.449219 L 19.253906 14.902344 L 23.175781 14.902344 C 23.351562 15.570312 23.949219 16.0625 24.667969 16.0625 C 25.523438 16.0625 26.21875 15.371094 26.21875 14.515625 C 26.21875 13.660156 25.523438 12.96875 24.667969 12.96875 Z M 23.121094 8.710938 C 23.546875 8.710938 23.894531 9.058594 23.894531 9.484375 C 23.894531 9.910156 23.546875 10.257812 23.121094 10.257812 C 22.695312 10.257812 22.347656 9.910156 22.347656 9.484375 C 22.347656 9.058594 22.695312 8.710938 23.121094 8.710938 Z M 23.894531 19.546875 C 23.894531 19.972656 23.546875 20.320312 23.121094 20.320312 C 22.695312 20.320312 22.347656 19.972656 22.347656 19.546875 C 22.347656 19.121094 22.695312 18.773438 23.121094 18.773438 C 23.546875 18.773438 23.894531 19.121094 23.894531 19.546875 Z M 18.476562 17.613281 L 12.289062 17.613281 L 12.289062 11.421875 L 18.476562 11.421875 Z M 24.667969 15.289062 C 24.242188 15.289062 23.894531 14.941406 23.894531 14.515625 C 23.894531 14.089844 24.242188 13.742188 24.667969 13.742188 C 25.09375 13.742188 25.445312 14.089844 25.445312 14.515625 C 25.445312 14.941406 25.09375 15.289062 24.667969 15.289062 Z M 24.667969 15.289062 " fill-opacity="1" fill-rule="nonzero"/></g></svg>