<svg xmlns="http://www.w3.org/2000/svg" xmlns:xlink="http://www.w3.org/1999/xlink" width="40" zoomAndPan="magnify" viewBox="0 0 30 30.000001" height="40" preserveAspectRatio="xMidYMid meet" version="1.0"><defs><clipPath id="c4900a4564"><path d="M 0.484375 0 L 29.515625 0 L 29.515625 29.03125 L 0.484375 29.03125 Z M 0.484375 0 " clip-rule="nonzero"/></clipPath><clipPath id="4eb03429b9"><path d="M 4.78125 2.902344 L 25.101562 2.902344 L 25.101562 26.128906 L 4.78125 26.128906 Z M 4.78125 2.902344 " clip-rule="nonzero"/></clipPath></defs><g clip-path="url(#c4900a4564)"><path fill="#ffffff" d="M 0.484375 0 L 29.515625 0 L 29.515625 29.03125 L 0.484375 29.03125 Z M 0.484375 0 " fill-opacity="1" fill-rule="nonzero"/><path fill="#ffffff" d="M 0.484375 0 L 29.515625 0 L 29.515625 29.03125 L 0.484375 29.03125 Z M 0.484375 0 " fill-opacity="1" fill-rule="nonzero"/></g><g clip-path="url(#4eb03429b9)"><path fill="#935f3d" d="M 15 6.335938 C 11.257812 6.335938 8.214844 9.378906 8.214844 13.121094 C 8.214844 15.777344 9.339844 17.191406 10.53125 18.683594 C 11.066406 19.351562 11.613281 20.039062 12.066406 20.859375 C 11.683594 20.992188 11.40625 21.355469 11.40625 21.785156 C 11.40625 22.078125 11.535156 22.339844 11.742188 22.519531 C 11.535156 22.730469 11.40625 23.015625 11.40625 23.335938 C 11.40625 23.875 11.78125 24.332031 12.289062 24.453125 C 12.414062 25.398438 13.222656 26.128906 14.199219 26.128906 L 15.800781 26.128906 C 16.777344 26.128906 17.589844 25.398438 17.714844 24.453125 C 18.21875 24.332031 18.597656 23.875 18.597656 23.335938 C 18.597656 23.015625 18.464844 22.730469 18.257812 22.519531 C 18.464844 22.339844 18.597656 22.078125 18.597656 21.785156 C 18.597656 21.355469 18.320312 20.992188 17.9375 20.859375 C 18.386719 20.039062 18.9375 19.351562 19.46875 18.683594 C 20.660156 17.191406 21.785156 15.777344 21.785156 13.121094 C 21.785156 9.378906 18.742188 6.335938 15 6.335938 Z M 15.800781 25.550781 L 14.199219 25.550781 C 13.554688 25.550781 13.011719 25.09375 12.878906 24.488281 L 17.121094 24.488281 C 16.988281 25.09375 16.449219 25.550781 15.800781 25.550781 Z M 17.441406 23.910156 L 12.558594 23.910156 C 12.242188 23.910156 11.984375 23.652344 11.984375 23.335938 C 11.984375 23.019531 12.242188 22.761719 12.558594 22.761719 L 17.441406 22.761719 C 17.757812 22.761719 18.015625 23.019531 18.015625 23.335938 C 18.015625 23.652344 17.757812 23.910156 17.441406 23.910156 Z M 17.617188 22.183594 L 17.617188 22.195312 C 17.5625 22.1875 17.503906 22.183594 17.441406 22.183594 L 12.558594 22.183594 C 12.5 22.183594 12.441406 22.1875 12.382812 22.195312 L 12.382812 22.183594 C 12.164062 22.183594 11.984375 22.003906 11.984375 21.785156 C 11.984375 21.5625 12.164062 21.386719 12.382812 21.386719 L 17.617188 21.386719 C 17.839844 21.386719 18.015625 21.5625 18.015625 21.785156 C 18.015625 22.003906 17.839844 22.183594 17.617188 22.183594 Z M 19.019531 18.324219 C 18.421875 19.070312 17.808594 19.839844 17.3125 20.808594 L 12.691406 20.808594 C 12.195312 19.839844 11.582031 19.070312 10.984375 18.324219 C 9.859375 16.910156 8.792969 15.578125 8.792969 13.121094 C 8.792969 9.699219 11.578125 6.914062 15 6.914062 C 18.425781 6.914062 21.207031 9.699219 21.207031 13.121094 C 21.207031 15.578125 20.144531 16.910156 19.019531 18.324219 Z M 16.582031 10.617188 L 13.417969 10.617188 C 12.910156 10.617188 12.496094 11.027344 12.496094 11.535156 L 12.496094 14.699219 C 12.496094 15.207031 12.910156 15.617188 13.417969 15.617188 L 16.582031 15.617188 C 17.089844 15.617188 17.5 15.207031 17.5 14.699219 L 17.5 11.535156 C 17.5 11.027344 17.089844 10.617188 16.582031 10.617188 Z M 16.921875 14.699219 C 16.921875 14.886719 16.769531 15.042969 16.582031 15.042969 L 13.417969 15.042969 C 13.230469 15.042969 13.074219 14.886719 13.074219 14.699219 L 13.074219 11.535156 C 13.074219 11.347656 13.230469 11.195312 13.417969 11.195312 L 16.582031 11.195312 C 16.769531 11.195312 16.921875 11.347656 16.921875 11.535156 Z M 18.699219 10.6875 C 18.699219 9.988281 18.128906 9.417969 17.429688 9.417969 L 16.90625 9.417969 L 16.90625 8.046875 C 16.90625 7.886719 16.777344 7.757812 16.617188 7.757812 C 16.457031 7.757812 16.328125 7.886719 16.328125 8.046875 L 16.328125 9.417969 L 15.289062 9.417969 L 15.289062 8.046875 C 15.289062 7.886719 15.160156 7.757812 15 7.757812 C 14.839844 7.757812 14.710938 7.886719 14.710938 8.046875 L 14.710938 9.417969 L 13.671875 9.417969 L 13.671875 8.046875 C 13.671875 7.886719 13.542969 7.757812 13.382812 7.757812 C 13.222656 7.757812 13.09375 7.886719 13.09375 8.046875 L 13.09375 9.417969 L 12.570312 9.417969 C 11.871094 9.417969 11.300781 9.988281 11.300781 10.6875 L 11.300781 11.210938 L 9.925781 11.210938 C 9.769531 11.210938 9.636719 11.339844 9.636719 11.5 C 9.636719 11.660156 9.769531 11.789062 9.925781 11.789062 L 11.300781 11.789062 L 11.300781 12.828125 L 9.925781 12.828125 C 9.769531 12.828125 9.636719 12.957031 9.636719 13.117188 C 9.636719 13.277344 9.769531 13.40625 9.925781 13.40625 L 11.300781 13.40625 L 11.300781 14.445312 L 9.925781 14.445312 C 9.769531 14.445312 9.636719 14.574219 9.636719 14.734375 C 9.636719 14.894531 9.769531 15.023438 9.925781 15.023438 L 11.300781 15.023438 L 11.300781 15.546875 C 11.300781 16.246094 11.871094 16.816406 12.570312 16.816406 L 13.09375 16.816406 L 13.09375 18.191406 C 13.09375 18.347656 13.222656 18.480469 13.382812 18.480469 C 13.542969 18.480469 13.671875 18.347656 13.671875 18.191406 L 13.671875 16.816406 L 14.710938 16.816406 L 14.710938 18.191406 C 14.710938 18.347656 14.839844 18.480469 15 18.480469 C 15.160156 18.480469 15.289062 18.347656 15.289062 18.191406 L 15.289062 16.816406 L 16.328125 16.816406 L 16.328125 18.191406 C 16.328125 18.347656 16.457031 18.480469 16.617188 18.480469 C 16.777344 18.480469 16.90625 18.347656 16.90625 18.191406 L 16.90625 16.816406 L 17.429688 16.816406 C 18.128906 16.816406 18.699219 16.246094 18.699219 15.546875 L 18.699219 15.023438 L 20.074219 15.023438 C 20.230469 15.023438 20.363281 14.894531 20.363281 14.734375 C 20.363281 14.574219 20.230469 14.445312 20.074219 14.445312 L 18.699219 14.445312 L 18.699219 13.40625 L 20.074219 13.40625 C 20.230469 13.40625 20.363281 13.277344 20.363281 13.117188 C 20.363281 12.957031 20.230469 12.828125 20.074219 12.828125 L 18.699219 12.828125 L 18.699219 11.789062 L 20.074219 11.789062 C 20.230469 11.789062 20.363281 11.660156 20.363281 11.5 C 20.363281 11.339844 20.230469 11.210938 20.074219 11.210938 L 18.699219 11.210938 Z M 18.121094 15.546875 C 18.121094 15.929688 17.8125 16.238281 17.429688 16.238281 L 12.566406 16.238281 C 12.1875 16.238281 11.878906 15.929688 11.878906 15.546875 L 11.878906 10.6875 C 11.878906 10.304688 12.1875 9.996094 12.566406 9.996094 L 17.429688 9.996094 C 17.8125 9.996094 18.121094 10.304688 18.121094 10.6875 Z M 14.859375 12.078125 C 14.808594 11.980469 14.710938 11.917969 14.601562 11.917969 C 14.492188 11.917969 14.390625 11.980469 14.339844 12.078125 L 13.417969 13.925781 C 13.347656 14.066406 13.40625 14.242188 13.546875 14.3125 C 13.691406 14.382812 13.863281 14.328125 13.9375 14.183594 L 14.105469 13.847656 L 15.09375 13.847656 L 15.261719 14.183594 C 15.3125 14.285156 15.417969 14.34375 15.523438 14.34375 C 15.566406 14.34375 15.609375 14.335938 15.652344 14.3125 C 15.792969 14.242188 15.851562 14.066406 15.78125 13.925781 Z M 14.394531 13.269531 L 14.601562 12.855469 L 14.808594 13.269531 Z M 16.609375 12.179688 L 16.609375 14.027344 C 16.609375 14.1875 16.480469 14.316406 16.320312 14.316406 C 16.160156 14.316406 16.03125 14.1875 16.03125 14.027344 L 16.03125 12.179688 C 16.03125 12.023438 16.160156 11.890625 16.320312 11.890625 C 16.480469 11.890625 16.609375 12.023438 16.609375 12.179688 Z M 14.710938 4.875 L 14.710938 3.191406 C 14.710938 3.03125 14.839844 2.902344 15 2.902344 C 15.160156 2.902344 15.289062 3.03125 15.289062 3.191406 L 15.289062 4.875 C 15.289062 5.035156 15.160156 5.164062 15 5.164062 C 14.839844 5.164062 14.710938 5.035156 14.710938 4.875 Z M 22.222656 5.894531 C 22.335938 6.007812 22.335938 6.191406 22.222656 6.304688 L 21.03125 7.496094 C 20.976562 7.550781 20.902344 7.582031 20.828125 7.582031 C 20.753906 7.582031 20.679688 7.550781 20.625 7.496094 C 20.511719 7.382812 20.511719 7.199219 20.625 7.085938 L 21.816406 5.894531 C 21.925781 5.78125 22.109375 5.785156 22.222656 5.894531 Z M 25.214844 13.117188 C 25.214844 13.277344 25.085938 13.40625 24.925781 13.40625 L 23.242188 13.40625 C 23.082031 13.40625 22.953125 13.277344 22.953125 13.117188 C 22.953125 12.960938 23.082031 12.828125 23.242188 12.828125 L 24.925781 12.828125 C 25.085938 12.828125 25.214844 12.960938 25.214844 13.117188 Z M 8.96875 7.496094 L 7.777344 6.304688 C 7.667969 6.191406 7.667969 6.007812 7.777344 5.894531 C 7.890625 5.785156 8.074219 5.785156 8.1875 5.894531 L 9.378906 7.085938 C 9.492188 7.199219 9.492188 7.382812 9.378906 7.496094 C 9.324219 7.550781 9.25 7.582031 9.175781 7.582031 C 9.101562 7.582031 9.027344 7.550781 8.96875 7.496094 Z M 7.050781 13.117188 C 7.050781 13.277344 6.921875 13.40625 6.761719 13.40625 L 5.078125 13.40625 C 4.917969 13.40625 4.789062 13.277344 4.789062 13.117188 C 4.789062 12.960938 4.917969 12.828125 5.078125 12.828125 L 6.761719 12.828125 C 6.921875 12.828125 7.050781 12.960938 7.050781 13.117188 Z M 7.050781 13.117188 " fill-opacity="1" fill-rule="nonzero"/></g></svg>