<svg xmlns="http://www.w3.org/2000/svg" xmlns:xlink="http://www.w3.org/1999/xlink" width="40" zoomAndPan="magnify" viewBox="0 0 30 30.000001" height="40" preserveAspectRatio="xMidYMid meet" version="1.0"><defs><clipPath id="c1fb7b032c"><path d="M 0.484375 0 L 29.515625 0 L 29.515625 29.03125 L 0.484375 29.03125 Z M 0.484375 0 " clip-rule="nonzero"/></clipPath><clipPath id="cdd752f477"><path d="M 3.386719 2.429688 L 27.339844 2.429688 L 27.339844 26.378906 L 3.386719 26.378906 Z M 3.386719 2.429688 " clip-rule="nonzero"/></clipPath></defs><g clip-path="url(#c1fb7b032c)"><path fill="#ffffff" d="M 0.484375 0 L 29.515625 0 L 29.515625 29.03125 L 0.484375 29.03125 Z M 0.484375 0 " fill-opacity="1" fill-rule="nonzero"/><path fill="#ffffff" d="M 0.484375 0 L 29.515625 0 L 29.515625 29.03125 L 0.484375 29.03125 Z M 0.484375 0 " fill-opacity="1" fill-rule="nonzero"/></g><g clip-path="url(#cdd752f477)"><path fill="#935f3d" d="M 5.214844 21.234375 L 4.496094 21.234375 C 3.886719 21.234375 3.386719 20.734375 3.386719 20.125 L 3.386719 17.96875 C 3.386719 17.359375 3.886719 16.859375 4.496094 16.859375 L 5.214844 16.859375 L 5.214844 15.453125 C 5.214844 15.320312 5.324219 15.210938 5.457031 15.210938 L 8.824219 15.210938 C 9.316406 13.910156 10.574219 12.984375 12.046875 12.984375 C 13.519531 12.984375 14.777344 13.910156 15.269531 15.210938 L 18.636719 15.210938 C 18.773438 15.210938 18.878906 15.320312 18.878906 15.453125 L 18.878906 16.859375 L 19.601562 16.859375 C 20.210938 16.859375 20.707031 17.359375 20.707031 17.96875 L 20.707031 20.125 C 20.707031 20.734375 20.210938 21.234375 19.601562 21.234375 L 18.878906 21.234375 L 18.878906 22.882812 C 18.878906 23.015625 18.773438 23.125 18.636719 23.125 L 17.171875 23.125 L 17.171875 24.425781 C 17.171875 25.359375 16.410156 26.121094 15.480469 26.121094 L 8.617188 26.121094 C 7.683594 26.121094 6.921875 25.359375 6.921875 24.425781 L 6.921875 23.125 L 5.457031 23.125 C 5.324219 23.125 5.214844 23.015625 5.214844 22.882812 Z M 5.214844 17.636719 L 4.496094 17.636719 C 4.3125 17.636719 4.164062 17.785156 4.164062 17.96875 L 4.164062 20.125 C 4.164062 20.308594 4.3125 20.457031 4.496094 20.457031 L 5.214844 20.457031 Z M 6.980469 16.347656 C 6.632812 16.347656 6.351562 16.628906 6.351562 16.980469 L 6.351562 21.355469 C 6.351562 21.707031 6.632812 21.988281 6.980469 21.988281 L 17.113281 21.988281 C 17.460938 21.988281 17.746094 21.707031 17.746094 21.355469 L 17.746094 16.980469 C 17.746094 16.628906 17.460938 16.347656 17.113281 16.347656 Z M 7.125 17.125 L 16.96875 17.125 L 16.96875 21.210938 L 7.125 21.210938 Z M 9.171875 18.035156 C 8.542969 18.035156 8.039062 18.542969 8.039062 19.167969 C 8.039062 19.792969 8.542969 20.300781 9.171875 20.300781 C 9.796875 20.300781 10.304688 19.792969 10.304688 19.167969 C 10.304688 18.542969 9.796875 18.035156 9.171875 18.035156 Z M 14.925781 18.035156 C 14.300781 18.035156 13.792969 18.542969 13.792969 19.167969 C 13.792969 19.792969 14.300781 20.300781 14.925781 20.300781 C 15.550781 20.300781 16.058594 19.792969 16.058594 19.167969 C 16.058594 18.542969 15.550781 18.035156 14.925781 18.035156 Z M 18.878906 17.636719 L 18.878906 20.457031 L 19.601562 20.457031 C 19.78125 20.457031 19.929688 20.308594 19.929688 20.125 L 19.929688 17.96875 C 19.929688 17.785156 19.78125 17.636719 19.601562 17.636719 Z M 16.394531 23.125 L 7.699219 23.125 L 7.699219 24.425781 C 7.699219 24.929688 8.113281 25.34375 8.617188 25.34375 L 15.480469 25.34375 C 15.984375 25.34375 16.394531 24.929688 16.394531 24.425781 Z M 9.675781 15.210938 L 14.421875 15.210938 C 13.980469 14.351562 13.082031 13.761719 12.046875 13.761719 C 11.011719 13.761719 10.117188 14.351562 9.675781 15.210938 Z M 27.078125 10.304688 C 27.078125 11.027344 26.488281 11.613281 25.765625 11.613281 L 19.84375 11.613281 L 17.089844 13.449219 C 17.039062 13.480469 16.976562 13.480469 16.929688 13.445312 C 16.878906 13.414062 16.855469 13.351562 16.871094 13.292969 L 17.28125 11.613281 L 16.171875 11.613281 C 15.449219 11.613281 14.863281 11.027344 14.863281 10.304688 L 14.863281 3.738281 C 14.863281 3.019531 15.449219 2.429688 16.171875 2.429688 L 25.765625 2.429688 C 26.488281 2.429688 27.078125 3.019531 27.078125 3.738281 Z M 25.871094 8.328125 L 22.304688 8.328125 C 22.089844 8.328125 21.914062 8.503906 21.914062 8.714844 C 21.914062 8.929688 22.089844 9.105469 22.304688 9.105469 L 25.871094 9.105469 C 26.085938 9.105469 26.257812 8.929688 26.257812 8.714844 C 26.257812 8.503906 26.085938 8.328125 25.871094 8.328125 Z M 25.871094 5.625 L 24.390625 5.625 C 24.179688 5.625 24.003906 5.800781 24.003906 6.011719 C 24.003906 6.226562 24.179688 6.402344 24.390625 6.402344 L 25.871094 6.402344 C 26.085938 6.402344 26.257812 6.226562 26.257812 6.011719 C 26.257812 5.800781 26.085938 5.625 25.871094 5.625 Z M 18.625 4.085938 C 16.972656 4.085938 15.628906 5.425781 15.628906 7.078125 C 15.628906 8.730469 16.972656 10.070312 18.625 10.070312 C 20.277344 10.070312 21.617188 8.730469 21.617188 7.078125 C 21.617188 5.425781 20.277344 4.085938 18.625 4.085938 Z M 16.414062 6.890625 L 18.292969 7.390625 L 18.703125 9.292969 C 18.675781 9.292969 18.652344 9.296875 18.625 9.296875 C 17.402344 9.296875 16.40625 8.300781 16.40625 7.078125 C 16.40625 7.015625 16.410156 6.953125 16.414062 6.890625 Z M 19.464844 9.128906 L 19.0625 7.273438 L 20.707031 6.324219 C 20.792969 6.558594 20.839844 6.8125 20.839844 7.078125 C 20.839844 8.003906 20.269531 8.800781 19.464844 9.128906 Z M 20.320312 5.652344 L 18.570312 6.660156 L 16.617188 6.136719 C 16.96875 5.386719 17.738281 4.863281 18.625 4.863281 C 19.304688 4.863281 19.914062 5.167969 20.320312 5.652344 Z M 25.871094 6.976562 L 23.390625 6.976562 C 23.175781 6.976562 23 7.152344 23 7.363281 C 23 7.578125 23.175781 7.753906 23.390625 7.753906 L 25.871094 7.753906 C 26.085938 7.753906 26.257812 7.578125 26.257812 7.363281 C 26.257812 7.152344 26.085938 6.976562 25.871094 6.976562 Z M 25.871094 6.976562 " fill-opacity="1" fill-rule="evenodd"/></g></svg>