<svg xmlns="http://www.w3.org/2000/svg" xmlns:xlink="http://www.w3.org/1999/xlink" width="40" zoomAndPan="magnify" viewBox="0 0 30 30.000001" height="40" preserveAspectRatio="xMidYMid meet" version="1.0"><defs><clipPath id="b1edfb1cd3"><path d="M 0.484375 0 L 29.515625 0 L 29.515625 29.03125 L 0.484375 29.03125 Z M 0.484375 0 " clip-rule="nonzero"/></clipPath><clipPath id="b5864d96b6"><path d="M 3.386719 3.019531 L 26.613281 3.019531 L 26.613281 26.246094 L 3.386719 26.246094 Z M 3.386719 3.019531 " clip-rule="nonzero"/></clipPath></defs><g clip-path="url(#b1edfb1cd3)"><path fill="#ffffff" d="M 0.484375 0 L 29.515625 0 L 29.515625 29.03125 L 0.484375 29.03125 Z M 0.484375 0 " fill-opacity="1" fill-rule="nonzero"/><path fill="#ffffff" d="M 0.484375 0 L 29.515625 0 L 29.515625 29.03125 L 0.484375 29.03125 Z M 0.484375 0 " fill-opacity="1" fill-rule="nonzero"/></g><g clip-path="url(#b5864d96b6)"><path fill="#935f3d" d="M 17.464844 11.996094 C 20.085938 11.996094 22.210938 14.121094 22.210938 16.742188 C 22.210938 19.363281 20.085938 21.488281 17.464844 21.488281 C 14.84375 21.488281 12.71875 19.363281 12.71875 16.742188 C 12.71875 14.121094 14.84375 11.996094 17.464844 11.996094 Z M 21.082031 20.867188 L 22.003906 21.773438 L 21.957031 21.824219 C 21.789062 21.992188 21.792969 22.269531 21.964844 22.433594 L 24.570312 24.960938 C 24.742188 25.128906 25.015625 25.125 25.183594 24.953125 L 26.121094 23.984375 C 26.289062 23.8125 26.285156 23.539062 26.113281 23.375 L 23.507812 20.84375 C 23.335938 20.679688 23.0625 20.683594 22.898438 20.851562 L 22.839844 20.914062 L 21.890625 19.980469 C 21.652344 20.304688 21.382812 20.601562 21.082031 20.867188 Z M 7.839844 3.164062 C 5.347656 3.351562 3.386719 5.429688 3.386719 7.96875 C 3.386719 10.632812 5.546875 12.789062 8.207031 12.789062 C 8.957031 12.789062 9.664062 12.621094 10.296875 12.316406 L 7.902344 8.175781 C 7.863281 8.117188 7.839844 8.046875 7.839844 7.96875 Z M 19 22.007812 L 19 25.542969 C 19 25.796875 18.792969 26.003906 18.539062 26.003906 C 18.03125 26.003906 17.519531 26.003906 17.007812 26.003906 C 16.753906 26.003906 16.546875 25.796875 16.546875 25.542969 L 16.546875 22.148438 C 16.847656 22.199219 17.152344 22.226562 17.464844 22.226562 C 18 22.226562 18.515625 22.148438 19 22.007812 Z M 19.113281 5.300781 C 18.910156 5.300781 18.742188 5.136719 18.742188 4.933594 C 18.742188 4.730469 18.910156 4.5625 19.113281 4.5625 L 22.679688 4.5625 C 22.882812 4.5625 23.046875 4.730469 23.046875 4.933594 C 23.046875 5.136719 22.882812 5.300781 22.679688 5.300781 Z M 15.832031 10.636719 L 17.074219 10.636719 C 17.359375 10.636719 17.59375 10.871094 17.59375 11.15625 L 17.59375 11.261719 C 17.550781 11.257812 17.507812 11.257812 17.464844 11.257812 C 16.703125 11.257812 15.972656 11.414062 15.3125 11.699219 L 15.3125 11.15625 C 15.3125 10.871094 15.542969 10.636719 15.832031 10.636719 Z M 20.507812 12.179688 C 20.828125 12.394531 21.125 12.640625 21.394531 12.917969 L 22.679688 12.917969 C 22.882812 12.917969 23.046875 12.75 23.046875 12.546875 C 23.046875 12.34375 22.882812 12.179688 22.679688 12.179688 Z M 19.113281 11.375 C 18.910156 11.375 18.742188 11.207031 18.742188 11.003906 C 18.742188 10.800781 18.910156 10.636719 19.113281 10.636719 L 26.246094 10.636719 C 26.449219 10.636719 26.613281 10.800781 26.613281 11.003906 C 26.613281 11.207031 26.449219 11.375 26.246094 11.375 Z M 15.832031 6.828125 L 17.074219 6.828125 C 17.359375 6.828125 17.59375 7.0625 17.59375 7.347656 L 17.59375 8.589844 C 17.59375 8.875 17.359375 9.109375 17.074219 9.109375 L 15.832031 9.109375 C 15.542969 9.109375 15.3125 8.875 15.3125 8.589844 L 15.3125 7.347656 C 15.3125 7.0625 15.542969 6.828125 15.832031 6.828125 Z M 19.113281 9.109375 C 18.910156 9.109375 18.742188 8.945312 18.742188 8.742188 C 18.742188 8.539062 18.910156 8.371094 19.113281 8.371094 L 22.679688 8.371094 C 22.882812 8.371094 23.046875 8.539062 23.046875 8.742188 C 23.046875 8.945312 22.882812 9.109375 22.679688 9.109375 Z M 19.113281 7.566406 C 18.910156 7.566406 18.742188 7.402344 18.742188 7.195312 C 18.742188 6.992188 18.910156 6.828125 19.113281 6.828125 L 26.246094 6.828125 C 26.449219 6.828125 26.613281 6.992188 26.613281 7.195312 C 26.613281 7.402344 26.449219 7.566406 26.246094 7.566406 Z M 15.832031 3.019531 L 17.074219 3.019531 C 17.359375 3.019531 17.59375 3.253906 17.59375 3.539062 L 17.59375 4.78125 C 17.59375 5.070312 17.359375 5.300781 17.074219 5.300781 L 15.832031 5.300781 C 15.542969 5.300781 15.3125 5.070312 15.3125 4.78125 L 15.3125 3.539062 C 15.3125 3.253906 15.542969 3.019531 15.832031 3.019531 Z M 19.113281 3.757812 C 18.910156 3.757812 18.742188 3.59375 18.742188 3.390625 C 18.742188 3.1875 18.910156 3.019531 19.113281 3.019531 L 26.246094 3.019531 C 26.449219 3.019531 26.613281 3.1875 26.613281 3.390625 C 26.613281 3.59375 26.449219 3.757812 26.246094 3.757812 Z M 14.550781 21.386719 C 13.597656 20.789062 12.84375 19.90625 12.40625 18.859375 C 12.226562 18.921875 12.097656 19.09375 12.097656 19.292969 C 12.097656 21.378906 12.097656 23.460938 12.097656 25.542969 C 12.097656 25.796875 12.304688 26.003906 12.558594 26.003906 C 13.070312 26.003906 13.578125 26.003906 14.089844 26.003906 C 14.34375 26.003906 14.550781 25.796875 14.550781 25.542969 Z M 8.105469 15.4375 C 8.617188 15.4375 9.128906 15.4375 9.636719 15.4375 C 9.890625 15.4375 10.097656 15.644531 10.097656 15.898438 C 10.097656 19.113281 10.097656 22.328125 10.097656 25.542969 C 10.097656 25.796875 9.890625 26.003906 9.636719 26.003906 C 9.128906 26.003906 8.617188 26.003906 8.105469 26.003906 C 7.851562 26.003906 7.644531 25.796875 7.644531 25.542969 C 7.644531 22.328125 7.644531 19.113281 7.644531 15.898438 C 7.644531 15.644531 7.851562 15.4375 8.105469 15.4375 Z M 3.847656 17.589844 C 4.359375 17.589844 4.867188 17.589844 5.378906 17.589844 C 5.632812 17.589844 5.839844 17.796875 5.839844 18.050781 C 5.839844 20.546875 5.839844 23.046875 5.839844 25.542969 C 5.839844 25.796875 5.632812 26.003906 5.378906 26.003906 C 4.867188 26.003906 4.359375 26.003906 3.847656 26.003906 C 3.59375 26.003906 3.386719 25.796875 3.386719 25.542969 C 3.386719 23.046875 3.386719 20.546875 3.386719 18.050781 C 3.386719 17.796875 3.59375 17.589844 3.847656 17.589844 Z M 10.929688 11.945312 L 8.84375 8.335938 L 13.015625 8.335938 C 12.902344 9.835938 12.101562 11.144531 10.929688 11.945312 Z M 13.015625 7.601562 L 8.578125 7.601562 L 8.578125 3.164062 C 10.945312 3.339844 12.835938 5.230469 13.015625 7.601562 Z M 17.464844 13.65625 C 16.613281 13.65625 15.839844 14 15.28125 14.558594 C 14.722656 15.117188 14.378906 15.890625 14.378906 16.742188 C 14.378906 17.527344 14.671875 18.246094 15.15625 18.789062 C 15.457031 17.796875 16.375 17.074219 17.464844 17.074219 C 18.554688 17.074219 19.476562 17.796875 19.777344 18.789062 C 20.261719 18.246094 20.554688 17.527344 20.554688 16.742188 C 20.554688 15.890625 20.207031 15.117188 19.648438 14.558594 C 19.089844 14 18.320312 13.65625 17.464844 13.65625 Z M 17.464844 14.453125 C 16.792969 14.453125 16.246094 15 16.246094 15.671875 C 16.246094 16.347656 16.792969 16.894531 17.464844 16.894531 C 18.140625 16.894531 18.6875 16.347656 18.6875 15.671875 C 18.6875 15 18.140625 14.453125 17.464844 14.453125 Z M 14.761719 14.039062 C 14.070312 14.730469 13.640625 15.6875 13.640625 16.742188 C 13.640625 17.796875 14.070312 18.753906 14.761719 19.445312 C 15.453125 20.140625 16.410156 20.566406 17.464844 20.566406 C 18.523438 20.566406 19.476562 20.140625 20.171875 19.445312 C 20.863281 18.753906 21.289062 17.796875 21.289062 16.742188 C 21.289062 15.6875 20.863281 14.730469 20.171875 14.039062 C 19.476562 13.347656 18.523438 12.917969 17.464844 12.917969 C 16.410156 12.917969 15.453125 13.347656 14.761719 14.039062 Z M 14.761719 14.039062 " fill-opacity="1" fill-rule="evenodd"/></g></svg>