<svg xmlns="http://www.w3.org/2000/svg" xmlns:xlink="http://www.w3.org/1999/xlink" width="40" zoomAndPan="magnify" viewBox="0 0 30 30.000001" height="40" preserveAspectRatio="xMidYMid meet" version="1.0"><defs><clipPath id="ac3198c752"><path d="M 0.484375 0 L 29.515625 0 L 29.515625 29.03125 L 0.484375 29.03125 Z M 0.484375 0 " clip-rule="nonzero"/></clipPath><clipPath id="780c4b40cf"><path d="M 15 2.902344 L 21 2.902344 L 21 7 L 15 7 Z M 15 2.902344 " clip-rule="nonzero"/></clipPath><clipPath id="1f9637b5c1"><path d="M 3.386719 2.902344 L 24.433594 2.902344 L 24.433594 23.953125 L 3.386719 23.953125 Z M 3.386719 2.902344 " clip-rule="nonzero"/></clipPath></defs><g clip-path="url(#ac3198c752)"><path fill="#ffffff" d="M 0.484375 0 L 29.515625 0 L 29.515625 29.03125 L 0.484375 29.03125 Z M 0.484375 0 " fill-opacity="1" fill-rule="nonzero"/><path fill="#ffffff" d="M 0.484375 0 L 29.515625 0 L 29.515625 29.03125 L 0.484375 29.03125 Z M 0.484375 0 " fill-opacity="1" fill-rule="nonzero"/></g><g clip-path="url(#780c4b40cf)"><path fill="#935f3d" d="M 19.894531 6.210938 C 19.984375 6.210938 20.054688 6.136719 20.054688 6.046875 L 20.054688 3.898438 C 20.054688 3.332031 19.597656 2.875 19.035156 2.875 L 15.183594 2.875 C 15.09375 2.875 15.019531 2.949219 15.019531 3.039062 C 15.019531 3.128906 15.09375 3.199219 15.183594 3.199219 L 19.035156 3.199219 C 19.417969 3.199219 19.730469 3.511719 19.730469 3.898438 L 19.730469 6.046875 C 19.730469 6.136719 19.804688 6.210938 19.894531 6.210938 Z M 19.894531 6.210938 " fill-opacity="1" fill-rule="nonzero"/></g><path fill="#935f3d" d="M 12.558594 21.988281 C 12.558594 22.078125 12.632812 22.148438 12.722656 22.148438 L 16.035156 22.148438 C 16.125 22.148438 16.199219 22.078125 16.199219 21.988281 C 16.199219 21.898438 16.125 21.824219 16.035156 21.824219 L 12.722656 21.824219 C 12.632812 21.824219 12.558594 21.898438 12.558594 21.988281 Z M 12.558594 21.988281 " fill-opacity="1" fill-rule="nonzero"/><path fill="#935f3d" d="M 15.898438 4.644531 C 15.898438 4.46875 15.753906 4.324219 15.578125 4.324219 L 12.554688 4.324219 C 12.378906 4.324219 12.234375 4.46875 12.234375 4.648438 C 12.234375 4.828125 12.378906 4.972656 12.554688 4.972656 L 15.578125 4.972656 C 15.753906 4.972656 15.898438 4.828125 15.898438 4.644531 Z M 15.898438 4.644531 " fill-opacity="1" fill-rule="nonzero"/><path fill="#935f3d" d="M 22.507812 9.109375 C 22.507812 9.199219 22.582031 9.269531 22.671875 9.269531 C 22.761719 9.269531 22.832031 9.199219 22.832031 9.109375 L 22.832031 7.109375 C 22.832031 7.019531 22.761719 6.945312 22.671875 6.945312 C 22.582031 6.945312 22.507812 7.019531 22.507812 7.109375 Z M 22.507812 9.109375 " fill-opacity="1" fill-rule="nonzero"/><path fill="#935f3d" d="M 20.917969 7.605469 L 20.917969 9.109375 C 20.917969 9.199219 20.992188 9.269531 21.082031 9.269531 C 21.171875 9.269531 21.242188 9.199219 21.242188 9.109375 L 21.242188 7.605469 C 21.242188 7.515625 21.171875 7.441406 21.082031 7.441406 C 20.992188 7.441406 20.917969 7.515625 20.917969 7.605469 Z M 20.917969 7.605469 " fill-opacity="1" fill-rule="nonzero"/><path fill="#935f3d" d="M 19.328125 8.253906 L 19.328125 9.109375 C 19.328125 9.199219 19.402344 9.269531 19.492188 9.269531 C 19.582031 9.269531 19.65625 9.199219 19.65625 9.109375 L 19.65625 8.253906 C 19.65625 8.164062 19.582031 8.09375 19.492188 8.09375 C 19.402344 8.09375 19.328125 8.164062 19.328125 8.253906 Z M 19.328125 8.253906 " fill-opacity="1" fill-rule="nonzero"/><path fill="#935f3d" d="M 16.898438 16.644531 C 16.636719 16.605469 16.386719 16.789062 16.347656 17.050781 C 16.308594 17.316406 16.492188 17.5625 16.753906 17.601562 C 17.136719 17.660156 17.457031 17.25 17.234375 16.878906 L 17.757812 16.296875 C 17.820312 16.320312 17.816406 16.332031 17.910156 16.332031 C 17.96875 16.332031 18.023438 16.320312 18.074219 16.300781 L 18.773438 16.921875 C 18.714844 17.34375 19.195312 17.625 19.535156 17.375 C 19.6875 17.261719 19.769531 17.0625 19.707031 16.851562 L 20.390625 16.082031 C 20.453125 16.109375 20.472656 16.128906 20.566406 16.128906 C 20.617188 16.128906 20.664062 16.117188 20.710938 16.105469 L 21.800781 17.085938 C 21.832031 17.113281 21.871094 17.125 21.90625 17.125 C 21.953125 17.125 21.996094 17.109375 22.027344 17.074219 C 22.089844 17.007812 22.082031 16.902344 22.015625 16.84375 L 20.972656 15.902344 C 21.164062 15.597656 20.972656 15.21875 20.636719 15.167969 C 20.28125 15.113281 19.945312 15.484375 20.148438 15.867188 L 19.507812 16.582031 C 19.328125 16.464844 19.117188 16.484375 18.960938 16.597656 C 18.949219 16.605469 18.945312 16.621094 18.933594 16.628906 L 18.328125 16.089844 C 18.355469 16.039062 18.378906 15.984375 18.386719 15.921875 C 18.425781 15.65625 18.246094 15.410156 17.980469 15.371094 C 17.605469 15.316406 17.28125 15.71875 17.503906 16.09375 L 16.976562 16.675781 C 16.949219 16.664062 16.925781 16.652344 16.898438 16.644531 Z M 16.980469 17.144531 C 16.960938 17.285156 16.78125 17.328125 16.699219 17.21875 C 16.648438 17.144531 16.664062 17.046875 16.734375 16.996094 C 16.84375 16.914062 17.003906 17.003906 16.980469 17.144531 Z M 20.691406 15.550781 C 20.71875 15.585938 20.726562 15.625 20.722656 15.667969 C 20.703125 15.804688 20.523438 15.851562 20.441406 15.738281 C 20.414062 15.703125 20.402344 15.664062 20.410156 15.621094 C 20.429688 15.484375 20.609375 15.4375 20.691406 15.550781 Z M 19.402344 17.007812 C 19.398438 17.050781 19.375 17.085938 19.34375 17.113281 C 19.230469 17.195312 19.070312 17.101562 19.09375 16.964844 C 19.097656 16.921875 19.121094 16.886719 19.15625 16.859375 C 19.265625 16.777344 19.425781 16.871094 19.402344 17.007812 Z M 17.910156 15.691406 C 18.007812 15.691406 18.082031 15.777344 18.066406 15.871094 C 18.054688 15.957031 17.972656 16.015625 17.886719 16.003906 C 17.800781 15.992188 17.742188 15.914062 17.753906 15.828125 C 17.765625 15.75 17.832031 15.691406 17.910156 15.691406 Z M 17.910156 15.691406 " fill-opacity="1" fill-rule="nonzero"/><path fill="#935f3d" d="M 14.570312 8.210938 C 14.570312 8.121094 14.496094 8.046875 14.40625 8.046875 L 10.382812 8.046875 C 10.292969 8.046875 10.21875 8.121094 10.21875 8.210938 C 10.21875 8.300781 10.292969 8.371094 10.382812 8.371094 L 14.40625 8.371094 C 14.496094 8.371094 14.570312 8.300781 14.570312 8.210938 Z M 14.570312 8.210938 " fill-opacity="1" fill-rule="nonzero"/><path fill="#935f3d" d="M 10.382812 9.347656 C 10.292969 9.347656 10.21875 9.417969 10.21875 9.507812 C 10.21875 9.597656 10.292969 9.671875 10.382812 9.671875 L 12.847656 9.671875 C 12.9375 9.671875 13.011719 9.597656 13.011719 9.507812 C 13.011719 9.417969 12.9375 9.347656 12.847656 9.347656 Z M 10.382812 9.347656 " fill-opacity="1" fill-rule="nonzero"/><g clip-path="url(#1f9637b5c1)"><path fill="#935f3d" d="M 3.445312 17.617188 L 4.007812 19.113281 C 4.039062 19.199219 4.101562 19.265625 4.183594 19.304688 C 4.265625 19.34375 4.359375 19.347656 4.449219 19.3125 L 5 19.105469 C 5.210938 19.390625 5.460938 19.652344 5.742188 19.875 L 5.496094 20.40625 C 5.421875 20.574219 5.496094 20.777344 5.667969 20.855469 L 7.121094 21.511719 C 7.292969 21.589844 7.492188 21.511719 7.570312 21.34375 L 7.832031 20.769531 C 8.117188 20.804688 8.410156 20.8125 8.710938 20.789062 C 8.710938 20.890625 8.710938 23.082031 8.710938 22.992188 C 8.710938 23.550781 9.167969 24.003906 9.730469 24.003906 L 19.035156 24.003906 C 19.59375 24.003906 20.046875 23.550781 20.046875 22.992188 C 20.058594 20.671875 20.054688 21.554688 20.054688 18.640625 L 21.59375 18.640625 C 22.417969 18.640625 23.085938 17.972656 23.085938 17.15625 L 23.085938 15.761719 C 23.085938 14.941406 22.417969 14.273438 21.59375 14.273438 L 20.054688 14.273438 L 20.054688 10.335938 L 23.144531 10.335938 C 23.917969 10.335938 24.546875 9.707031 24.546875 8.9375 L 24.546875 7.644531 C 24.546875 6.875 23.917969 6.246094 23.144531 6.246094 L 22.851562 6.246094 C 22.761719 6.246094 22.6875 6.316406 22.6875 6.40625 C 22.6875 6.496094 22.761719 6.570312 22.851562 6.570312 L 23.144531 6.570312 C 23.738281 6.570312 24.21875 7.050781 24.21875 7.644531 L 24.21875 8.9375 C 24.21875 9.53125 23.738281 10.011719 23.144531 10.011719 L 19.25 10.011719 C 19.078125 10.011719 18.914062 10.082031 18.792969 10.210938 L 17.941406 11.144531 L 17.941406 7.644531 C 17.941406 7.050781 18.421875 6.570312 19.015625 6.570312 L 21.992188 6.570312 C 22.082031 6.570312 22.152344 6.496094 22.152344 6.40625 C 22.152344 6.316406 22.082031 6.246094 21.992188 6.246094 L 19.015625 6.246094 C 18.242188 6.246094 17.617188 6.875 17.617188 7.644531 L 17.617188 11.253906 C 17.617188 11.511719 17.925781 11.632812 18.105469 11.445312 L 19.03125 10.433594 C 19.089844 10.371094 19.167969 10.335938 19.25 10.335938 L 19.730469 10.335938 L 19.730469 14.273438 L 17.152344 14.273438 C 16.332031 14.273438 15.664062 14.941406 15.664062 15.761719 L 15.664062 16.605469 C 15.664062 16.695312 15.734375 16.769531 15.824219 16.769531 C 15.914062 16.769531 15.988281 16.695312 15.988281 16.605469 L 15.988281 15.761719 C 15.988281 15.121094 16.511719 14.597656 17.152344 14.597656 L 19.890625 14.597656 C 19.894531 14.597656 19.894531 14.597656 19.894531 14.597656 L 21.59375 14.597656 C 22.238281 14.597656 22.757812 15.121094 22.757812 15.761719 L 22.757812 17.15625 C 22.757812 17.796875 22.238281 18.316406 21.59375 18.316406 L 17.402344 18.316406 C 17.222656 18.316406 17.046875 18.394531 16.941406 18.515625 L 15.988281 19.28125 L 15.988281 17.546875 C 15.988281 17.457031 15.914062 17.386719 15.824219 17.386719 C 15.734375 17.386719 15.664062 17.457031 15.664062 17.546875 L 15.664062 19.351562 C 15.664062 19.632812 16.015625 19.726562 16.152344 19.566406 L 17.164062 18.75 C 17.226562 18.679688 17.316406 18.640625 17.402344 18.640625 L 19.730469 18.640625 L 19.730469 22.273438 C 19.726562 22.285156 19.722656 22.296875 19.722656 22.3125 C 19.703125 22.664062 19.394531 22.953125 19.035156 22.953125 L 9.730469 22.953125 C 9.347656 22.953125 9.035156 22.644531 9.035156 22.261719 L 9.035156 21.46875 C 9.09375 21.519531 9.167969 21.554688 9.246094 21.554688 C 9.367188 21.554688 9.347656 21.535156 10.863281 20.972656 C 10.949219 20.941406 11.019531 20.878906 11.054688 20.792969 C 11.09375 20.710938 11.097656 20.617188 11.066406 20.535156 L 10.859375 19.984375 C 11.140625 19.777344 11.394531 19.535156 11.617188 19.265625 L 12.1875 19.519531 C 12.359375 19.597656 12.5625 19.523438 12.640625 19.351562 L 13.300781 17.898438 C 13.375 17.730469 13.300781 17.523438 13.128906 17.449219 L 12.53125 17.175781 C 12.570312 16.871094 12.578125 16.566406 12.554688 16.265625 L 13.132812 16.050781 C 13.21875 16.019531 13.285156 15.957031 13.320312 15.871094 C 13.359375 15.789062 13.363281 15.695312 13.332031 15.613281 L 12.769531 14.117188 C 12.703125 13.941406 12.503906 13.855469 12.332031 13.921875 L 11.765625 14.132812 C 11.585938 13.886719 11.382812 13.660156 11.152344 13.457031 L 11.414062 12.875 C 11.488281 12.707031 11.414062 12.503906 11.242188 12.425781 L 9.789062 11.769531 C 9.621094 11.691406 9.425781 11.765625 9.339844 11.9375 L 9.101562 12.46875 C 9.078125 12.464844 9.054688 12.464844 9.035156 12.460938 L 9.035156 3.894531 C 9.035156 3.511719 9.347656 3.199219 9.730469 3.199219 L 13.761719 3.199219 C 13.851562 3.199219 13.925781 3.128906 13.925781 3.039062 C 13.925781 2.949219 13.851562 2.875 13.761719 2.875 L 9.730469 2.875 C 9.167969 2.875 8.710938 3.332031 8.710938 3.894531 L 8.710938 6.257812 C 8.679688 6.253906 8.652344 6.242188 8.617188 6.242188 C 8.402344 6.242188 8.226562 6.417969 8.226562 6.632812 L 8.226562 9.1875 C 8.226562 9.40625 8.402344 9.582031 8.617188 9.582031 L 8.632812 9.582031 C 8.660156 9.582031 8.683594 9.570312 8.710938 9.566406 L 8.710938 12.421875 C 8.519531 12.410156 8.328125 12.402344 8.140625 12.414062 L 7.917969 11.824219 C 7.851562 11.648438 7.660156 11.5625 7.480469 11.628906 L 5.988281 12.191406 C 5.808594 12.257812 5.71875 12.449219 5.785156 12.625 L 5.984375 13.152344 C 5.691406 13.351562 5.429688 13.585938 5.203125 13.847656 L 4.664062 13.605469 C 4.582031 13.566406 4.488281 13.5625 4.402344 13.597656 C 4.316406 13.628906 4.25 13.691406 4.214844 13.773438 L 3.554688 15.230469 C 3.476562 15.398438 3.550781 15.601562 3.722656 15.679688 L 4.230469 15.910156 C 4.167969 16.257812 4.15625 16.617188 4.191406 16.980469 L 3.648438 17.183594 C 3.464844 17.25 3.382812 17.445312 3.445312 17.617188 Z M 4.421875 17.238281 C 4.492188 17.214844 4.535156 17.144531 4.527344 17.066406 C 4.476562 16.648438 4.492188 16.238281 4.570312 15.847656 C 4.585938 15.773438 4.550781 15.695312 4.480469 15.664062 L 3.847656 15.363281 L 4.527344 13.902344 L 5.179688 14.195312 C 5.246094 14.226562 5.324219 14.207031 5.371094 14.152344 C 5.625 13.839844 5.925781 13.574219 6.269531 13.351562 C 6.335938 13.3125 6.359375 13.230469 6.332031 13.160156 L 6.101562 12.492188 L 7.617188 11.9375 L 7.878906 12.640625 C 7.90625 12.710938 7.976562 12.753906 8.046875 12.746094 C 8.414062 12.714844 8.789062 12.734375 9.164062 12.808594 C 9.238281 12.828125 9.3125 12.785156 9.34375 12.71875 L 9.65625 12.066406 L 11.117188 12.742188 L 10.804688 13.433594 C 10.773438 13.5 10.792969 13.578125 10.847656 13.625 C 11.128906 13.859375 11.371094 14.128906 11.570312 14.421875 C 11.613281 14.484375 11.691406 14.507812 11.761719 14.484375 L 12.464844 14.230469 L 13.019531 15.746094 L 12.324219 16.007812 C 12.257812 16.03125 12.214844 16.101562 12.222656 16.175781 C 12.261719 16.53125 12.25 16.890625 12.191406 17.246094 C 12.179688 17.320312 12.21875 17.390625 12.285156 17.421875 L 13.003906 17.761719 L 12.324219 19.226562 L 11.636719 18.917969 C 11.566406 18.886719 11.488281 18.90625 11.441406 18.964844 C 11.195312 19.28125 10.902344 19.5625 10.570312 19.792969 C 10.507812 19.835938 10.484375 19.914062 10.511719 19.984375 L 10.761719 20.648438 C 10.761719 20.65625 10.757812 20.664062 10.75 20.667969 L 9.234375 21.21875 L 8.984375 20.554688 C 8.960938 20.492188 8.902344 20.449219 8.835938 20.449219 C 8.765625 20.449219 8.335938 20.519531 7.761719 20.429688 C 7.6875 20.417969 7.617188 20.457031 7.589844 20.523438 L 7.253906 21.214844 L 5.792969 20.539062 L 6.089844 19.894531 C 6.121094 19.824219 6.101562 19.742188 6.039062 19.695312 C 5.710938 19.449219 5.425781 19.152344 5.191406 18.816406 C 5.148438 18.757812 5.070312 18.730469 5 18.757812 L 4.3125 19 L 3.761719 17.488281 Z M 4.421875 17.238281 " fill-opacity="1" fill-rule="nonzero"/></g><path fill="#935f3d" d="M 8.460938 17.234375 C 8.550781 17.167969 8.960938 16.730469 9.675781 15.925781 C 9.820312 15.765625 9.632812 15.511719 9.433594 15.597656 C 7.953125 16.253906 7.851562 16.328125 7.816406 16.351562 C 7.601562 16.507812 7.570312 16.832031 7.75 17.078125 C 7.929688 17.328125 8.25 17.390625 8.460938 17.234375 Z M 8.460938 17.234375 " fill-opacity="1" fill-rule="nonzero"/><path fill="#935f3d" d="M 5.5625 16.761719 C 5.578125 17.039062 5.625 17.320312 5.726562 17.59375 C 5.992188 18.304688 6.519531 18.867188 7.210938 19.179688 C 9.097656 20.039062 11.292969 18.644531 11.207031 16.484375 C 11.207031 16.472656 11.21875 16.464844 11.21875 16.449219 C 11.21875 16.429688 11.207031 16.417969 11.199219 16.402344 C 11.179688 16.132812 11.136719 15.859375 11.039062 15.601562 C 10.773438 14.890625 10.246094 14.328125 9.554688 14.015625 C 7.695312 13.167969 5.5 14.53125 5.558594 16.679688 C 5.554688 16.695312 5.542969 16.703125 5.542969 16.714844 C 5.542969 16.734375 5.558594 16.746094 5.5625 16.761719 Z M 8.28125 14.09375 L 8.28125 14.507812 C 8.28125 14.597656 8.355469 14.671875 8.445312 14.671875 C 8.535156 14.671875 8.605469 14.597656 8.605469 14.507812 L 8.605469 14.109375 C 9.878906 14.222656 10.730469 15.167969 10.867188 16.289062 L 10.40625 16.289062 C 10.316406 16.289062 10.242188 16.359375 10.242188 16.449219 C 10.242188 16.539062 10.316406 16.613281 10.40625 16.613281 L 10.886719 16.613281 C 10.878906 17.824219 9.992188 18.964844 8.605469 19.089844 L 8.605469 18.617188 C 8.605469 18.527344 8.535156 18.453125 8.445312 18.453125 C 8.355469 18.453125 8.28125 18.527344 8.28125 18.617188 L 8.28125 19.105469 C 7.109375 19.058594 6.042969 18.1875 5.894531 16.878906 L 6.359375 16.878906 C 6.449219 16.878906 6.519531 16.804688 6.519531 16.714844 C 6.519531 16.625 6.449219 16.554688 6.359375 16.554688 L 5.875 16.554688 C 5.898438 15.28125 6.882812 14.152344 8.28125 14.09375 Z M 8.28125 14.09375 " fill-opacity="1" fill-rule="nonzero"/></svg>