<svg xmlns="http://www.w3.org/2000/svg" xmlns:xlink="http://www.w3.org/1999/xlink" width="40" zoomAndPan="magnify" viewBox="0 0 30 30.000001" height="40" preserveAspectRatio="xMidYMid meet" version="1.0"><defs><clipPath id="eb9e56cfca"><path d="M 0.484375 0 L 29.515625 0 L 29.515625 29.03125 L 0.484375 29.03125 Z M 0.484375 0 " clip-rule="nonzero"/></clipPath><clipPath id="13ab0ad69c"><path d="M 4.375 2.902344 L 25.421875 2.902344 L 25.421875 26.128906 L 4.375 26.128906 Z M 4.375 2.902344 " clip-rule="nonzero"/></clipPath></defs><g clip-path="url(#eb9e56cfca)"><path fill="#ffffff" d="M 0.484375 0 L 29.515625 0 L 29.515625 29.03125 L 0.484375 29.03125 Z M 0.484375 0 " fill-opacity="1" fill-rule="nonzero"/><path fill="#ffffff" d="M 0.484375 0 L 29.515625 0 L 29.515625 29.03125 L 0.484375 29.03125 Z M 0.484375 0 " fill-opacity="1" fill-rule="nonzero"/></g><g clip-path="url(#13ab0ad69c)"><path fill="#935f3d" d="M 25.242188 15.121094 L 4.757812 15.121094 C 4.550781 15.121094 4.382812 15.289062 4.382812 15.492188 L 4.382812 16.878906 C 4.382812 17.035156 4.480469 17.171875 4.625 17.230469 L 6.140625 17.8125 C 6.351562 18.621094 6.671875 19.394531 7.09375 20.117188 L 6.4375 21.605469 C 6.375 21.746094 6.402344 21.910156 6.511719 22.019531 L 8.472656 23.980469 C 8.582031 24.089844 8.75 24.121094 8.890625 24.058594 L 10.375 23.398438 C 11.097656 23.820312 11.871094 24.144531 12.679688 24.355469 L 13.265625 25.871094 C 13.320312 26.015625 13.457031 26.109375 13.613281 26.109375 L 16.386719 26.109375 C 16.539062 26.109375 16.679688 26.015625 16.734375 25.871094 L 17.316406 24.355469 C 18.128906 24.144531 18.902344 23.820312 19.625 23.398438 L 21.109375 24.058594 C 21.25 24.121094 21.414062 24.089844 21.523438 23.980469 L 23.484375 22.019531 C 23.59375 21.910156 23.625 21.746094 23.5625 21.605469 L 22.902344 20.117188 C 23.328125 19.394531 23.648438 18.621094 23.859375 17.8125 L 25.375 17.230469 C 25.519531 17.171875 25.613281 17.035156 25.613281 16.878906 L 25.613281 15.492188 C 25.613281 15.289062 25.445312 15.121094 25.242188 15.121094 Z M 19.671875 15.867188 C 19.484375 18.28125 17.460938 20.183594 15 20.183594 C 12.539062 20.183594 10.515625 18.28125 10.324219 15.867188 Z M 24.867188 16.625 L 23.410156 17.183594 C 23.292969 17.230469 23.207031 17.328125 23.179688 17.445312 C 22.972656 18.3125 22.632812 19.136719 22.164062 19.894531 C 22.097656 20 22.089844 20.132812 22.140625 20.246094 L 22.773438 21.671875 L 21.179688 23.269531 L 19.75 22.636719 C 19.636719 22.585938 19.507812 22.59375 19.402344 22.660156 C 18.640625 23.125 17.816406 23.46875 16.953125 23.675781 C 16.832031 23.703125 16.734375 23.789062 16.691406 23.902344 L 16.128906 25.359375 L 13.871094 25.359375 L 13.308594 23.902344 C 13.265625 23.789062 13.167969 23.703125 13.046875 23.675781 C 12.179688 23.46875 11.355469 23.125 10.597656 22.660156 C 10.492188 22.59375 10.363281 22.585938 10.25 22.636719 L 8.820312 23.269531 L 7.222656 21.671875 L 7.859375 20.246094 C 7.90625 20.132812 7.898438 20.003906 7.835938 19.898438 C 7.367188 19.136719 7.023438 18.3125 6.820312 17.445312 C 6.789062 17.328125 6.703125 17.226562 6.589844 17.183594 L 5.132812 16.625 L 5.132812 15.867188 L 9.574219 15.867188 C 9.769531 18.691406 12.128906 20.929688 15 20.929688 C 17.871094 20.929688 20.230469 18.691406 20.421875 15.867188 L 24.867188 15.867188 Z M 16.234375 7.558594 C 16.027344 7.558594 15.859375 7.726562 15.859375 7.933594 L 15.859375 14.109375 C 15.859375 14.316406 16.027344 14.480469 16.234375 14.480469 L 17.945312 14.480469 C 18.152344 14.480469 18.320312 14.316406 18.320312 14.109375 L 18.320312 7.933594 C 18.320312 7.726562 18.152344 7.558594 17.945312 7.558594 Z M 17.570312 13.734375 L 16.605469 13.734375 L 16.605469 8.308594 L 17.570312 8.308594 Z M 19.878906 8.726562 C 19.675781 8.726562 19.507812 8.894531 19.507812 9.101562 L 19.507812 14.109375 C 19.507812 14.316406 19.675781 14.480469 19.878906 14.480469 L 21.59375 14.480469 C 21.800781 14.480469 21.96875 14.316406 21.96875 14.109375 L 21.96875 9.101562 C 21.96875 8.894531 21.800781 8.726562 21.59375 8.726562 Z M 21.21875 13.734375 L 20.253906 13.734375 L 20.253906 9.476562 L 21.21875 9.476562 Z M 25.242188 5.3125 L 23.527344 5.3125 C 23.320312 5.3125 23.152344 5.480469 23.152344 5.6875 L 23.152344 14.109375 C 23.152344 14.316406 23.320312 14.480469 23.527344 14.480469 L 25.242188 14.480469 C 25.445312 14.480469 25.613281 14.316406 25.613281 14.109375 L 25.613281 5.6875 C 25.613281 5.480469 25.445312 5.3125 25.242188 5.3125 Z M 24.867188 13.734375 L 23.902344 13.734375 L 23.902344 6.0625 L 24.867188 6.0625 Z M 12.585938 14.480469 L 14.296875 14.480469 C 14.503906 14.480469 14.671875 14.316406 14.671875 14.109375 L 14.671875 10.824219 C 14.671875 10.617188 14.503906 10.449219 14.296875 10.449219 L 12.585938 10.449219 C 12.378906 10.449219 12.210938 10.617188 12.210938 10.824219 L 12.210938 14.109375 C 12.210938 14.316406 12.378906 14.480469 12.585938 14.480469 Z M 12.960938 11.195312 L 13.925781 11.195312 L 13.925781 13.734375 L 12.960938 13.734375 Z M 13.144531 7.734375 C 13.019531 7.570312 13.050781 7.335938 13.214844 7.210938 L 16.863281 4.441406 C 16.96875 4.359375 17.113281 4.339844 17.238281 4.394531 L 20.664062 5.867188 L 23.074219 3.675781 L 22.683594 3.675781 C 22.476562 3.675781 22.308594 3.507812 22.308594 3.304688 C 22.308594 3.097656 22.472656 2.929688 22.679688 2.929688 L 24.042969 2.921875 C 24.042969 2.921875 24.042969 2.921875 24.046875 2.921875 C 24.15625 2.921875 24.261719 2.972656 24.332031 3.058594 C 24.40625 3.144531 24.433594 3.257812 24.410156 3.371094 L 24.148438 4.707031 C 24.113281 4.886719 23.957031 5.007812 23.78125 5.007812 C 23.757812 5.007812 23.734375 5.003906 23.707031 5 C 23.503906 4.960938 23.375 4.765625 23.414062 4.5625 L 23.457031 4.335938 L 20.988281 6.582031 C 20.878906 6.683594 20.722656 6.707031 20.589844 6.652344 L 17.140625 5.167969 L 13.667969 7.804688 C 13.601562 7.855469 13.519531 7.882812 13.441406 7.882812 C 13.328125 7.882812 13.21875 7.832031 13.144531 7.734375 Z M 4.757812 14.480469 L 11.507812 14.480469 C 11.613281 14.480469 11.714844 14.4375 11.785156 14.359375 C 11.859375 14.277344 11.890625 14.175781 11.878906 14.070312 C 11.726562 12.625 10.773438 11.445312 9.484375 10.953125 C 9.9375 10.570312 10.222656 10 10.222656 9.363281 C 10.222656 8.210938 9.285156 7.273438 8.132812 7.273438 C 6.980469 7.273438 6.042969 8.210938 6.042969 9.363281 C 6.042969 10 6.328125 10.570312 6.78125 10.953125 C 5.496094 11.445312 4.542969 12.625 4.386719 14.070312 C 4.375 14.175781 4.410156 14.277344 4.480469 14.359375 C 4.550781 14.4375 4.652344 14.480469 4.757812 14.480469 Z M 6.792969 9.363281 C 6.792969 8.621094 7.394531 8.019531 8.132812 8.019531 C 8.875 8.019531 9.476562 8.621094 9.476562 9.363281 C 9.476562 10.101562 8.875 10.703125 8.132812 10.703125 C 7.394531 10.703125 6.792969 10.101562 6.792969 9.363281 Z M 8.132812 11.453125 C 9.539062 11.453125 10.734375 12.410156 11.0625 13.734375 L 5.203125 13.734375 C 5.535156 12.410156 6.726562 11.453125 8.132812 11.453125 Z M 8.132812 11.453125 " fill-opacity="1" fill-rule="nonzero"/></g></svg>