<svg xmlns="http://www.w3.org/2000/svg" xmlns:xlink="http://www.w3.org/1999/xlink" width="40" zoomAndPan="magnify" viewBox="0 0 30 30.000001" height="40" preserveAspectRatio="xMidYMid meet" version="1.0"><defs><clipPath id="5f9594f18d"><path d="M 0.484375 0 L 29.515625 0 L 29.515625 29.03125 L 0.484375 29.03125 Z M 0.484375 0 " clip-rule="nonzero"/></clipPath><clipPath id="3ade66800e"><path d="M 6.652344 2.902344 L 23.347656 2.902344 L 23.347656 26.128906 L 6.652344 26.128906 Z M 6.652344 2.902344 " clip-rule="nonzero"/></clipPath><clipPath id="d11aea4d7d"><path d="M 12 2.902344 L 23.347656 2.902344 L 23.347656 7 L 12 7 Z M 12 2.902344 " clip-rule="nonzero"/></clipPath></defs><g clip-path="url(#5f9594f18d)"><path fill="#ffffff" d="M 0.484375 0 L 29.515625 0 L 29.515625 29.03125 L 0.484375 29.03125 Z M 0.484375 0 " fill-opacity="1" fill-rule="nonzero"/><path fill="#ffffff" d="M 0.484375 0 L 29.515625 0 L 29.515625 29.03125 L 0.484375 29.03125 Z M 0.484375 0 " fill-opacity="1" fill-rule="nonzero"/></g><g clip-path="url(#3ade66800e)"><path fill="#935f3d" d="M 22.984375 26.128906 L 7.015625 26.128906 C 6.914062 26.128906 6.832031 26.09375 6.757812 26.023438 C 6.6875 25.953125 6.652344 25.867188 6.652344 25.765625 L 6.652344 3.992188 C 6.652344 3.847656 6.679688 3.707031 6.734375 3.574219 C 6.792969 3.441406 6.871094 3.324219 6.972656 3.222656 C 7.074219 3.121094 7.191406 3.042969 7.324219 2.984375 C 7.457031 2.929688 7.597656 2.902344 7.742188 2.902344 L 13.183594 2.902344 C 13.328125 2.902344 13.46875 2.929688 13.601562 2.984375 C 13.734375 3.042969 13.851562 3.121094 13.957031 3.222656 C 14.058594 3.324219 14.136719 3.441406 14.191406 3.574219 C 14.246094 3.707031 14.273438 3.847656 14.273438 3.992188 L 14.273438 4.355469 C 14.273438 4.453125 14.308594 4.539062 14.378906 4.613281 C 14.453125 4.683594 14.535156 4.71875 14.636719 4.71875 L 22.257812 4.71875 C 22.402344 4.71875 22.542969 4.746094 22.675781 4.800781 C 22.808594 4.855469 22.925781 4.933594 23.027344 5.035156 C 23.128906 5.140625 23.207031 5.257812 23.265625 5.390625 C 23.320312 5.523438 23.347656 5.660156 23.347656 5.804688 L 23.347656 25.765625 C 23.347656 25.867188 23.3125 25.953125 23.242188 26.023438 C 23.167969 26.09375 23.085938 26.128906 22.984375 26.128906 Z M 7.378906 25.402344 L 22.621094 25.402344 L 22.621094 5.804688 C 22.621094 5.707031 22.585938 5.621094 22.515625 5.550781 C 22.445312 5.480469 22.359375 5.445312 22.257812 5.445312 L 14.636719 5.445312 C 14.492188 5.445312 14.355469 5.414062 14.21875 5.359375 C 14.085938 5.304688 13.96875 5.226562 13.867188 5.125 C 13.765625 5.023438 13.6875 4.90625 13.632812 4.769531 C 13.574219 4.636719 13.546875 4.5 13.546875 4.355469 L 13.546875 3.992188 C 13.546875 3.890625 13.511719 3.804688 13.441406 3.734375 C 13.371094 3.664062 13.285156 3.628906 13.183594 3.628906 L 7.742188 3.628906 C 7.640625 3.628906 7.554688 3.664062 7.484375 3.734375 C 7.414062 3.804688 7.378906 3.890625 7.378906 3.992188 Z M 7.378906 25.402344 " fill-opacity="1" fill-rule="nonzero"/></g><g clip-path="url(#d11aea4d7d)"><path fill="#935f3d" d="M 23.347656 6.167969 L 22.621094 6.167969 L 22.621094 4.355469 C 22.621094 4.15625 22.550781 3.984375 22.410156 3.839844 C 22.265625 3.699219 22.09375 3.628906 21.894531 3.628906 L 12.824219 3.628906 L 12.824219 2.902344 L 21.894531 2.902344 C 22.085938 2.902344 22.273438 2.941406 22.449219 3.015625 C 22.628906 3.085938 22.785156 3.191406 22.921875 3.328125 C 23.058594 3.464844 23.164062 3.621094 23.234375 3.800781 C 23.308594 3.976562 23.347656 4.164062 23.347656 4.355469 Z M 23.347656 6.167969 " fill-opacity="1" fill-rule="nonzero"/></g><path fill="#935f3d" d="M 7.015625 6.167969 L 22.984375 6.167969 L 22.984375 6.894531 L 7.015625 6.894531 Z M 7.015625 6.167969 " fill-opacity="1" fill-rule="nonzero"/><path fill="#935f3d" d="M 21.53125 11.25 C 21.480469 11.25 21.429688 11.238281 21.382812 11.21875 L 18.265625 9.832031 L 15.148438 11.21875 C 15.050781 11.261719 14.949219 11.261719 14.851562 11.21875 L 11.734375 9.832031 L 8.617188 11.21875 C 8.523438 11.265625 8.429688 11.273438 8.328125 11.238281 C 8.230469 11.207031 8.160156 11.140625 8.117188 11.046875 C 8.074219 10.949219 8.070312 10.855469 8.113281 10.757812 C 8.152344 10.660156 8.222656 10.59375 8.320312 10.558594 L 11.585938 9.105469 C 11.683594 9.0625 11.785156 9.0625 11.882812 9.105469 L 15 10.492188 L 18.117188 9.105469 C 18.214844 9.0625 18.316406 9.0625 18.414062 9.105469 L 21.679688 10.558594 C 21.859375 10.636719 21.925781 10.773438 21.886719 10.964844 C 21.84375 11.152344 21.726562 11.25 21.53125 11.25 Z M 21.53125 11.25 " fill-opacity="1" fill-rule="nonzero"/><path fill="#935f3d" d="M 15 16.332031 C 14.757812 16.332031 14.527344 16.285156 14.304688 16.191406 C 14.082031 16.101562 13.886719 15.96875 13.71875 15.800781 C 13.546875 15.628906 13.414062 15.433594 13.324219 15.210938 C 13.230469 14.988281 13.183594 14.757812 13.183594 14.515625 C 13.183594 14.277344 13.230469 14.042969 13.324219 13.820312 C 13.414062 13.597656 13.546875 13.402344 13.71875 13.234375 C 13.886719 13.0625 14.082031 12.933594 14.304688 12.839844 C 14.527344 12.746094 14.757812 12.703125 15 12.703125 C 15.242188 12.703125 15.472656 12.746094 15.695312 12.839844 C 15.917969 12.933594 16.113281 13.0625 16.28125 13.234375 C 16.453125 13.402344 16.585938 13.597656 16.675781 13.820312 C 16.769531 14.042969 16.816406 14.277344 16.816406 14.515625 C 16.816406 14.757812 16.769531 14.988281 16.675781 15.210938 C 16.585938 15.433594 16.453125 15.628906 16.28125 15.800781 C 16.113281 15.96875 15.917969 16.101562 15.695312 16.191406 C 15.472656 16.285156 15.242188 16.332031 15 16.332031 Z M 15 13.425781 C 14.855469 13.425781 14.714844 13.453125 14.582031 13.511719 C 14.449219 13.566406 14.332031 13.644531 14.230469 13.746094 C 14.128906 13.847656 14.050781 13.964844 13.996094 14.097656 C 13.9375 14.234375 13.910156 14.371094 13.910156 14.515625 C 13.910156 14.660156 13.9375 14.800781 13.996094 14.933594 C 14.050781 15.066406 14.128906 15.183594 14.230469 15.285156 C 14.332031 15.386719 14.449219 15.464844 14.582031 15.523438 C 14.714844 15.578125 14.855469 15.605469 15 15.605469 C 15.144531 15.605469 15.285156 15.578125 15.417969 15.523438 C 15.550781 15.464844 15.667969 15.386719 15.769531 15.285156 C 15.871094 15.183594 15.949219 15.066406 16.003906 14.933594 C 16.0625 14.800781 16.089844 14.660156 16.089844 14.515625 C 16.089844 14.371094 16.0625 14.234375 16.003906 14.097656 C 15.949219 13.964844 15.871094 13.847656 15.769531 13.746094 C 15.667969 13.644531 15.550781 13.566406 15.417969 13.511719 C 15.285156 13.453125 15.144531 13.425781 15 13.425781 Z M 15 13.425781 " fill-opacity="1" fill-rule="nonzero"/><path fill="#935f3d" d="M 19.71875 16.332031 C 19.476562 16.332031 19.246094 16.285156 19.023438 16.191406 C 18.800781 16.101562 18.605469 15.96875 18.433594 15.800781 C 18.265625 15.628906 18.132812 15.433594 18.042969 15.210938 C 17.949219 14.988281 17.902344 14.757812 17.902344 14.515625 C 17.902344 14.277344 17.949219 14.042969 18.042969 13.820312 C 18.132812 13.597656 18.265625 13.402344 18.433594 13.234375 C 18.605469 13.0625 18.800781 12.933594 19.023438 12.839844 C 19.246094 12.746094 19.476562 12.703125 19.71875 12.703125 C 19.957031 12.703125 20.191406 12.746094 20.414062 12.839844 C 20.632812 12.933594 20.832031 13.0625 21 13.234375 C 21.171875 13.402344 21.300781 13.597656 21.394531 13.820312 C 21.484375 14.042969 21.53125 14.277344 21.53125 14.515625 C 21.53125 14.757812 21.484375 14.988281 21.394531 15.210938 C 21.300781 15.433594 21.171875 15.628906 21 15.800781 C 20.832031 15.96875 20.632812 16.101562 20.414062 16.191406 C 20.191406 16.285156 19.957031 16.332031 19.71875 16.332031 Z M 19.71875 13.425781 C 19.574219 13.425781 19.433594 13.453125 19.300781 13.511719 C 19.167969 13.566406 19.050781 13.644531 18.949219 13.746094 C 18.847656 13.847656 18.765625 13.964844 18.710938 14.097656 C 18.65625 14.234375 18.628906 14.371094 18.628906 14.515625 C 18.628906 14.660156 18.65625 14.800781 18.710938 14.933594 C 18.765625 15.066406 18.847656 15.183594 18.949219 15.285156 C 19.050781 15.386719 19.167969 15.464844 19.300781 15.523438 C 19.433594 15.578125 19.574219 15.605469 19.71875 15.605469 C 19.863281 15.605469 20 15.578125 20.132812 15.523438 C 20.269531 15.464844 20.386719 15.386719 20.488281 15.285156 C 20.589844 15.183594 20.667969 15.066406 20.722656 14.933594 C 20.777344 14.800781 20.804688 14.660156 20.804688 14.515625 C 20.804688 14.371094 20.777344 14.234375 20.722656 14.097656 C 20.667969 13.964844 20.589844 13.847656 20.488281 13.746094 C 20.386719 13.644531 20.269531 13.566406 20.132812 13.511719 C 20 13.453125 19.863281 13.425781 19.71875 13.425781 Z M 19.71875 13.425781 " fill-opacity="1" fill-rule="nonzero"/><path fill="#935f3d" d="M 10.28125 16.332031 C 10.042969 16.332031 9.808594 16.285156 9.585938 16.191406 C 9.367188 16.101562 9.167969 15.96875 9 15.800781 C 8.828125 15.628906 8.699219 15.433594 8.605469 15.210938 C 8.515625 14.988281 8.46875 14.757812 8.46875 14.515625 C 8.46875 14.277344 8.515625 14.042969 8.605469 13.820312 C 8.699219 13.597656 8.828125 13.402344 9 13.234375 C 9.167969 13.0625 9.367188 12.933594 9.585938 12.839844 C 9.808594 12.746094 10.042969 12.703125 10.28125 12.703125 C 10.523438 12.703125 10.753906 12.746094 10.976562 12.839844 C 11.199219 12.933594 11.394531 13.0625 11.566406 13.234375 C 11.734375 13.402344 11.867188 13.597656 11.957031 13.820312 C 12.050781 14.042969 12.097656 14.277344 12.097656 14.515625 C 12.097656 14.757812 12.050781 14.988281 11.957031 15.210938 C 11.867188 15.433594 11.734375 15.628906 11.566406 15.800781 C 11.394531 15.96875 11.199219 16.101562 10.976562 16.191406 C 10.753906 16.285156 10.523438 16.332031 10.28125 16.332031 Z M 10.28125 13.425781 C 10.136719 13.425781 10 13.453125 9.867188 13.511719 C 9.730469 13.566406 9.613281 13.644531 9.511719 13.746094 C 9.410156 13.847656 9.332031 13.964844 9.277344 14.097656 C 9.222656 14.234375 9.195312 14.371094 9.195312 14.515625 C 9.195312 14.660156 9.222656 14.800781 9.277344 14.933594 C 9.332031 15.066406 9.410156 15.183594 9.511719 15.285156 C 9.613281 15.386719 9.730469 15.464844 9.867188 15.523438 C 10 15.578125 10.136719 15.605469 10.28125 15.605469 C 10.425781 15.605469 10.566406 15.578125 10.699219 15.523438 C 10.832031 15.464844 10.949219 15.386719 11.050781 15.285156 C 11.152344 15.183594 11.234375 15.066406 11.289062 14.933594 C 11.34375 14.800781 11.371094 14.660156 11.371094 14.515625 C 11.371094 14.371094 11.34375 14.234375 11.289062 14.097656 C 11.234375 13.964844 11.152344 13.847656 11.050781 13.746094 C 10.949219 13.644531 10.832031 13.566406 10.699219 13.511719 C 10.566406 13.453125 10.425781 13.425781 10.28125 13.425781 Z M 10.28125 13.425781 " fill-opacity="1" fill-rule="nonzero"/><path fill="#935f3d" d="M 15.363281 17.78125 L 14.636719 17.78125 C 14.535156 17.78125 14.453125 17.746094 14.378906 17.675781 C 14.308594 17.605469 14.273438 17.519531 14.273438 17.417969 C 14.273438 17.320312 14.308594 17.234375 14.378906 17.164062 C 14.453125 17.09375 14.535156 17.054688 14.636719 17.054688 L 15.363281 17.054688 C 15.464844 17.054688 15.546875 17.09375 15.621094 17.164062 C 15.691406 17.234375 15.726562 17.320312 15.726562 17.417969 C 15.726562 17.519531 15.691406 17.605469 15.621094 17.675781 C 15.546875 17.746094 15.464844 17.78125 15.363281 17.78125 Z M 15.363281 17.78125 " fill-opacity="1" fill-rule="nonzero"/><path fill="#935f3d" d="M 15.726562 18.871094 L 14.273438 18.871094 C 14.175781 18.871094 14.089844 18.835938 14.019531 18.765625 C 13.945312 18.695312 13.910156 18.609375 13.910156 18.507812 C 13.910156 18.40625 13.945312 18.324219 14.019531 18.25 C 14.089844 18.179688 14.175781 18.144531 14.273438 18.144531 L 15.726562 18.144531 C 15.824219 18.144531 15.910156 18.179688 15.980469 18.25 C 16.054688 18.324219 16.089844 18.40625 16.089844 18.507812 C 16.089844 18.609375 16.054688 18.695312 15.980469 18.765625 C 15.910156 18.835938 15.824219 18.871094 15.726562 18.871094 Z M 15.726562 18.871094 " fill-opacity="1" fill-rule="nonzero"/><path fill="#935f3d" d="M 20.082031 17.78125 L 19.355469 17.78125 C 19.253906 17.78125 19.167969 17.746094 19.097656 17.675781 C 19.027344 17.605469 18.992188 17.519531 18.992188 17.417969 C 18.992188 17.320312 19.027344 17.234375 19.097656 17.164062 C 19.167969 17.09375 19.253906 17.054688 19.355469 17.054688 L 20.082031 17.054688 C 20.179688 17.054688 20.265625 17.09375 20.335938 17.164062 C 20.40625 17.234375 20.445312 17.320312 20.445312 17.417969 C 20.445312 17.519531 20.40625 17.605469 20.335938 17.675781 C 20.265625 17.746094 20.179688 17.78125 20.082031 17.78125 Z M 20.082031 17.78125 " fill-opacity="1" fill-rule="nonzero"/><path fill="#935f3d" d="M 20.445312 18.871094 L 18.992188 18.871094 C 18.890625 18.871094 18.804688 18.835938 18.734375 18.765625 C 18.664062 18.695312 18.628906 18.609375 18.628906 18.507812 C 18.628906 18.40625 18.664062 18.324219 18.734375 18.25 C 18.804688 18.179688 18.890625 18.144531 18.992188 18.144531 L 20.445312 18.144531 C 20.542969 18.144531 20.628906 18.179688 20.699219 18.25 C 20.769531 18.324219 20.804688 18.40625 20.804688 18.507812 C 20.804688 18.609375 20.769531 18.695312 20.699219 18.765625 C 20.628906 18.835938 20.542969 18.871094 20.445312 18.871094 Z M 20.445312 18.871094 " fill-opacity="1" fill-rule="nonzero"/><path fill="#935f3d" d="M 10.644531 17.78125 L 9.917969 17.78125 C 9.820312 17.78125 9.734375 17.746094 9.664062 17.675781 C 9.59375 17.605469 9.554688 17.519531 9.554688 17.417969 C 9.554688 17.320312 9.59375 17.234375 9.664062 17.164062 C 9.734375 17.09375 9.820312 17.054688 9.917969 17.054688 L 10.644531 17.054688 C 10.746094 17.054688 10.832031 17.09375 10.902344 17.164062 C 10.972656 17.234375 11.007812 17.320312 11.007812 17.417969 C 11.007812 17.519531 10.972656 17.605469 10.902344 17.675781 C 10.832031 17.746094 10.746094 17.78125 10.644531 17.78125 Z M 10.644531 17.78125 " fill-opacity="1" fill-rule="nonzero"/><path fill="#935f3d" d="M 11.007812 18.871094 L 9.554688 18.871094 C 9.457031 18.871094 9.371094 18.835938 9.300781 18.765625 C 9.230469 18.695312 9.195312 18.609375 9.195312 18.507812 C 9.195312 18.40625 9.230469 18.324219 9.300781 18.25 C 9.371094 18.179688 9.457031 18.144531 9.554688 18.144531 L 11.007812 18.144531 C 11.109375 18.144531 11.195312 18.179688 11.265625 18.25 C 11.335938 18.324219 11.371094 18.40625 11.371094 18.507812 C 11.371094 18.609375 11.335938 18.695312 11.265625 18.765625 C 11.195312 18.835938 11.109375 18.871094 11.007812 18.871094 Z M 11.007812 18.871094 " fill-opacity="1" fill-rule="nonzero"/><path fill="#935f3d" d="M 21.53125 20.324219 L 8.46875 20.324219 C 8.367188 20.324219 8.28125 20.289062 8.210938 20.214844 C 8.140625 20.144531 8.105469 20.058594 8.105469 19.960938 C 8.105469 19.859375 8.140625 19.773438 8.210938 19.703125 C 8.28125 19.632812 8.367188 19.597656 8.46875 19.597656 L 21.53125 19.597656 C 21.632812 19.597656 21.71875 19.632812 21.789062 19.703125 C 21.859375 19.773438 21.894531 19.859375 21.894531 19.960938 C 21.894531 20.058594 21.859375 20.144531 21.789062 20.214844 C 21.71875 20.289062 21.632812 20.324219 21.53125 20.324219 Z M 21.53125 20.324219 " fill-opacity="1" fill-rule="nonzero"/><path fill="#935f3d" d="M 10.28125 23.589844 C 10.183594 23.589844 10.097656 23.554688 10.023438 23.484375 L 9.660156 23.121094 C 9.589844 23.050781 9.554688 22.964844 9.554688 22.863281 C 9.554688 22.761719 9.589844 22.675781 9.660156 22.605469 C 9.734375 22.535156 9.820312 22.5 9.917969 22.5 C 10.019531 22.5 10.105469 22.535156 10.175781 22.605469 L 10.28125 22.714844 L 11.476562 21.515625 C 11.546875 21.445312 11.632812 21.410156 11.734375 21.410156 C 11.835938 21.410156 11.921875 21.445312 11.992188 21.515625 C 12.0625 21.589844 12.097656 21.671875 12.097656 21.773438 C 12.097656 21.875 12.0625 21.960938 11.992188 22.03125 L 10.539062 23.484375 C 10.46875 23.554688 10.382812 23.589844 10.28125 23.589844 Z M 10.28125 23.589844 " fill-opacity="1" fill-rule="nonzero"/><path fill="#935f3d" d="M 10.28125 24.675781 C 10.042969 24.675781 9.808594 24.632812 9.585938 24.539062 C 9.367188 24.445312 9.167969 24.316406 9 24.144531 C 8.828125 23.976562 8.699219 23.78125 8.605469 23.558594 C 8.515625 23.335938 8.46875 23.105469 8.46875 22.863281 C 8.46875 22.621094 8.515625 22.390625 8.605469 22.167969 C 8.699219 21.945312 8.828125 21.75 9 21.578125 C 9.167969 21.410156 9.367188 21.277344 9.585938 21.1875 C 9.808594 21.09375 10.042969 21.046875 10.28125 21.046875 C 10.523438 21.046875 10.753906 21.09375 10.976562 21.1875 C 11.199219 21.277344 11.394531 21.410156 11.566406 21.578125 C 11.734375 21.75 11.867188 21.945312 11.957031 22.167969 C 12.050781 22.390625 12.097656 22.621094 12.097656 22.863281 C 12.097656 23.105469 12.050781 23.335938 11.957031 23.558594 C 11.867188 23.78125 11.734375 23.976562 11.566406 24.144531 C 11.394531 24.316406 11.199219 24.445312 10.976562 24.539062 C 10.753906 24.632812 10.523438 24.675781 10.28125 24.675781 Z M 10.28125 21.773438 C 10.136719 21.773438 10 21.800781 9.867188 21.855469 C 9.730469 21.914062 9.613281 21.992188 9.511719 22.09375 C 9.410156 22.195312 9.332031 22.3125 9.277344 22.445312 C 9.222656 22.578125 9.195312 22.71875 9.195312 22.863281 C 9.195312 23.007812 9.222656 23.144531 9.277344 23.28125 C 9.332031 23.414062 9.410156 23.53125 9.511719 23.632812 C 9.613281 23.734375 9.730469 23.8125 9.867188 23.867188 C 10 23.925781 10.136719 23.953125 10.28125 23.953125 C 10.425781 23.953125 10.566406 23.925781 10.699219 23.867188 C 10.832031 23.8125 10.949219 23.734375 11.050781 23.632812 C 11.152344 23.53125 11.234375 23.414062 11.289062 23.28125 C 11.34375 23.144531 11.371094 23.007812 11.371094 22.863281 C 11.371094 22.71875 11.34375 22.578125 11.289062 22.445312 C 11.234375 22.3125 11.152344 22.195312 11.050781 22.09375 C 10.949219 21.992188 10.832031 21.914062 10.699219 21.855469 C 10.566406 21.800781 10.425781 21.773438 10.28125 21.773438 Z M 10.28125 21.773438 " fill-opacity="1" fill-rule="nonzero"/><path fill="#935f3d" d="M 18.992188 22.863281 L 13.183594 22.863281 C 13.085938 22.863281 13 22.828125 12.929688 22.757812 C 12.859375 22.6875 12.824219 22.601562 12.824219 22.5 C 12.824219 22.398438 12.859375 22.3125 12.929688 22.242188 C 13 22.171875 13.085938 22.136719 13.183594 22.136719 L 18.992188 22.136719 C 19.09375 22.136719 19.175781 22.171875 19.25 22.242188 C 19.320312 22.3125 19.355469 22.398438 19.355469 22.5 C 19.355469 22.601562 19.320312 22.6875 19.25 22.757812 C 19.175781 22.828125 19.09375 22.863281 18.992188 22.863281 Z M 18.992188 22.863281 " fill-opacity="1" fill-rule="nonzero"/><path fill="#935f3d" d="M 20.445312 24.316406 L 13.183594 24.316406 C 13.085938 24.316406 13 24.277344 12.929688 24.207031 C 12.859375 24.136719 12.824219 24.050781 12.824219 23.953125 C 12.824219 23.851562 12.859375 23.765625 12.929688 23.695312 C 13 23.625 13.085938 23.589844 13.183594 23.589844 L 20.445312 23.589844 C 20.542969 23.589844 20.628906 23.625 20.699219 23.695312 C 20.769531 23.765625 20.804688 23.851562 20.804688 23.953125 C 20.804688 24.050781 20.769531 24.136719 20.699219 24.207031 C 20.628906 24.277344 20.542969 24.316406 20.445312 24.316406 Z M 20.445312 24.316406 " fill-opacity="1" fill-rule="nonzero"/><path fill="#935f3d" d="M 21.53125 11.976562 L 8.46875 11.976562 C 8.367188 11.976562 8.28125 11.941406 8.210938 11.871094 C 8.140625 11.796875 8.105469 11.714844 8.105469 11.613281 L 8.105469 7.984375 C 8.105469 7.882812 8.140625 7.796875 8.210938 7.726562 C 8.28125 7.65625 8.367188 7.621094 8.46875 7.621094 L 21.53125 7.621094 C 21.632812 7.621094 21.71875 7.65625 21.789062 7.726562 C 21.859375 7.796875 21.894531 7.882812 21.894531 7.984375 L 21.894531 11.613281 C 21.894531 11.714844 21.859375 11.796875 21.789062 11.871094 C 21.71875 11.941406 21.632812 11.976562 21.53125 11.976562 Z M 8.832031 11.25 L 21.167969 11.25 L 21.167969 8.347656 L 8.832031 8.347656 Z M 8.832031 11.25 " fill-opacity="1" fill-rule="nonzero"/></svg>