<svg xmlns="http://www.w3.org/2000/svg" xmlns:xlink="http://www.w3.org/1999/xlink" width="40" zoomAndPan="magnify" viewBox="0 0 30 30.000001" height="40" preserveAspectRatio="xMidYMid meet" version="1.0"><defs><clipPath id="0a5aee1cce"><path d="M 0.484375 0 L 29.515625 0 L 29.515625 29.03125 L 0.484375 29.03125 Z M 0.484375 0 " clip-rule="nonzero"/></clipPath><clipPath id="f1f13be334"><path d="M 4.695312 3 L 25.015625 3 L 25.015625 26.128906 L 4.695312 26.128906 Z M 4.695312 3 " clip-rule="nonzero"/></clipPath></defs><g clip-path="url(#0a5aee1cce)"><path fill="#ffffff" d="M 0.484375 0 L 29.515625 0 L 29.515625 29.03125 L 0.484375 29.03125 Z M 0.484375 0 " fill-opacity="1" fill-rule="nonzero"/><path fill="#ffffff" d="M 0.484375 0 L 29.515625 0 L 29.515625 29.03125 L 0.484375 29.03125 Z M 0.484375 0 " fill-opacity="1" fill-rule="nonzero"/></g><g clip-path="url(#f1f13be334)"><path fill="#935f3d" d="M 24.230469 12.714844 L 7.898438 3.289062 C 7.230469 2.902344 6.433594 2.902344 5.765625 3.289062 C 5.757812 3.289062 5.753906 3.292969 5.75 3.296875 C 5.738281 3.300781 5.730469 3.308594 5.71875 3.316406 C 5.078125 3.703125 4.699219 4.378906 4.699219 5.132812 L 4.699219 23.992188 C 4.699219 24.765625 5.097656 25.453125 5.765625 25.839844 C 6.097656 26.03125 6.464844 26.128906 6.832031 26.128906 C 7.195312 26.128906 7.5625 26.03125 7.898438 25.839844 L 24.230469 16.410156 C 24.898438 16.023438 25.296875 15.335938 25.296875 14.5625 C 25.296875 13.792969 24.898438 13.101562 24.230469 12.714844 Z M 6.070312 24.152344 C 6.0625 24.105469 6.054688 24.050781 6.054688 23.992188 L 6.054688 5.132812 C 6.054688 5.03125 6.070312 4.945312 6.097656 4.867188 L 15.332031 14.496094 Z M 8.050781 4.941406 L 18.632812 11.050781 L 16.269531 13.515625 Z M 7.757812 24.355469 L 16.269531 15.476562 L 18.714844 18.027344 Z M 23.550781 15.234375 L 19.925781 17.328125 L 17.210938 14.496094 L 19.839844 11.75 L 23.550781 13.890625 C 23.902344 14.09375 23.9375 14.429688 23.9375 14.5625 C 23.9375 14.699219 23.902344 15.035156 23.550781 15.234375 Z M 23.550781 15.234375 " fill-opacity="1" fill-rule="nonzero"/></g></svg>