<svg xmlns="http://www.w3.org/2000/svg" xmlns:xlink="http://www.w3.org/1999/xlink" width="40" zoomAndPan="magnify" viewBox="0 0 30 30.000001" height="40" preserveAspectRatio="xMidYMid meet" version="1.0"><defs><clipPath id="bf7de12203"><path d="M 0.484375 0 L 29.515625 0 L 29.515625 29.03125 L 0.484375 29.03125 Z M 0.484375 0 " clip-rule="nonzero"/></clipPath><clipPath id="7ee24d977b"><path d="M 3.445312 2.84375 L 26.671875 2.84375 L 26.671875 26.070312 L 3.445312 26.070312 Z M 3.445312 2.84375 " clip-rule="nonzero"/></clipPath></defs><g clip-path="url(#bf7de12203)"><path fill="#ffffff" d="M 0.484375 0 L 29.515625 0 L 29.515625 29.03125 L 0.484375 29.03125 Z M 0.484375 0 " fill-opacity="1" fill-rule="nonzero"/><path fill="#ffffff" d="M 0.484375 0 L 29.515625 0 L 29.515625 29.03125 L 0.484375 29.03125 Z M 0.484375 0 " fill-opacity="1" fill-rule="nonzero"/></g><g clip-path="url(#7ee24d977b)"><path fill="#935f3d" d="M 18.011719 16.59375 L 13.0625 16.59375 L 13.304688 16.761719 C 13.589844 16.953125 13.449219 17.40625 13.105469 17.40625 C 13.039062 17.40625 12.96875 17.386719 12.90625 17.34375 L 11.679688 16.503906 C 11.519531 16.347656 11.53125 16.109375 11.6875 15.976562 L 11.71875 15.953125 L 11.71875 15.949219 L 12.90625 15.140625 C 13.070312 15.03125 13.289062 15.074219 13.398438 15.234375 C 13.507812 15.394531 13.464844 15.617188 13.304688 15.726562 L 13.0625 15.890625 L 18.011719 15.890625 C 18.207031 15.890625 18.367188 16.046875 18.367188 16.242188 C 18.367188 16.4375 18.207031 16.59375 18.011719 16.59375 Z M 18.296875 13.566406 L 18.210938 13.652344 L 17.019531 14.460938 C 16.863281 14.570312 16.640625 14.53125 16.53125 14.367188 C 16.421875 14.207031 16.464844 13.988281 16.625 13.878906 L 16.867188 13.714844 L 11.914062 13.714844 C 11.722656 13.714844 11.5625 13.554688 11.5625 13.359375 C 11.5625 13.164062 11.722656 13.007812 11.914062 13.007812 L 16.867188 13.007812 L 16.625 12.84375 C 16.464844 12.734375 16.421875 12.515625 16.53125 12.351562 C 16.640625 12.191406 16.859375 12.152344 17.019531 12.261719 L 18.25 13.101562 C 18.382812 13.222656 18.402344 13.421875 18.296875 13.566406 Z M 25.898438 18.417969 C 25.898438 18.507812 25.828125 18.578125 25.738281 18.578125 L 20.613281 18.578125 C 20.523438 18.578125 20.453125 18.507812 20.453125 18.417969 L 20.453125 16.597656 C 20.453125 15.097656 21.675781 13.875 23.175781 13.875 C 24.675781 13.875 25.898438 15.097656 25.898438 16.597656 Z M 23.175781 10.394531 C 23.855469 10.394531 24.40625 10.945312 24.40625 11.625 C 24.40625 12.304688 23.855469 12.855469 23.175781 12.855469 C 22.496094 12.855469 21.945312 12.304688 21.945312 11.625 C 21.945312 10.945312 22.496094 10.394531 23.175781 10.394531 Z M 18.144531 25.03125 C 18.144531 25.242188 17.972656 25.414062 17.761719 25.414062 L 12.285156 25.414062 C 12.074219 25.414062 11.902344 25.242188 11.902344 25.03125 L 11.902344 19.261719 C 11.902344 19.050781 12.074219 18.878906 12.285156 18.878906 L 17.761719 18.878906 C 17.972656 18.878906 18.144531 19.050781 18.144531 19.261719 Z M 24.128906 13.308594 C 24.714844 12.972656 25.109375 12.34375 25.109375 11.625 C 25.109375 10.558594 24.242188 9.691406 23.175781 9.691406 C 22.109375 9.691406 21.242188 10.558594 21.242188 11.625 C 21.242188 12.34375 21.636719 12.972656 22.222656 13.308594 C 20.796875 13.722656 19.75 15.039062 19.75 16.597656 L 19.75 18.417969 C 19.75 18.894531 20.136719 19.28125 20.613281 19.28125 L 22.824219 19.28125 L 22.824219 21.113281 L 18.851562 21.101562 L 18.851562 19.261719 C 18.851562 18.660156 18.363281 18.171875 17.761719 18.171875 L 12.285156 18.171875 C 11.683594 18.171875 11.199219 18.660156 11.199219 19.261719 L 11.199219 25.03125 C 11.199219 25.628906 11.683594 26.117188 12.285156 26.117188 L 17.761719 26.117188 C 18.363281 26.117188 18.851562 25.628906 18.851562 25.03125 L 18.851562 21.804688 L 23.175781 21.820312 C 23.371094 21.820312 23.527344 21.664062 23.527344 21.46875 L 23.527344 19.28125 L 25.738281 19.28125 C 26.214844 19.28125 26.601562 18.894531 26.601562 18.417969 L 26.601562 16.597656 C 26.601562 15.039062 25.554688 13.722656 24.128906 13.308594 Z M 13.726562 19.925781 C 13.570312 19.925781 13.441406 20.054688 13.441406 20.210938 C 13.441406 20.367188 13.570312 20.496094 13.726562 20.496094 C 13.882812 20.496094 14.007812 20.367188 14.007812 20.210938 C 14.007812 20.054688 13.882812 19.925781 13.726562 19.925781 Z M 13.726562 21.199219 C 14.269531 21.199219 14.714844 20.753906 14.714844 20.210938 C 14.714844 19.664062 14.269531 19.222656 13.726562 19.222656 C 13.179688 19.222656 12.734375 19.664062 12.734375 20.210938 C 12.734375 20.753906 13.179688 21.199219 13.726562 21.199219 Z M 17.3125 22.480469 C 17.3125 22.289062 17.152344 22.128906 16.960938 22.128906 L 15.46875 22.128906 C 15.273438 22.128906 15.117188 22.289062 15.117188 22.480469 C 15.117188 22.675781 15.273438 22.835938 15.46875 22.835938 L 16.960938 22.835938 C 17.152344 22.835938 17.3125 22.675781 17.3125 22.480469 Z M 17.3125 24.515625 C 17.3125 24.320312 17.152344 24.164062 16.960938 24.164062 L 15.46875 24.164062 C 15.273438 24.164062 15.117188 24.320312 15.117188 24.515625 C 15.117188 24.710938 15.273438 24.867188 15.46875 24.867188 L 16.960938 24.867188 C 17.152344 24.867188 17.3125 24.710938 17.3125 24.515625 Z M 14.839844 21.378906 C 14.699219 21.246094 14.476562 21.25 14.34375 21.386719 L 13.660156 22.09375 L 13.4375 21.753906 C 13.332031 21.59375 13.113281 21.546875 12.949219 21.652344 C 12.785156 21.761719 12.742188 21.980469 12.847656 22.140625 L 13.3125 22.851562 C 13.4375 23.039062 13.707031 23.0625 13.863281 22.902344 L 14.847656 21.878906 C 14.984375 21.738281 14.980469 21.515625 14.839844 21.378906 Z M 14.839844 23.414062 C 14.699219 23.277344 14.476562 23.28125 14.34375 23.421875 L 13.660156 24.128906 L 13.4375 23.789062 C 13.332031 23.625 13.113281 23.578125 12.949219 23.6875 C 12.785156 23.792969 12.742188 24.011719 12.847656 24.175781 L 13.3125 24.882812 C 13.4375 25.074219 13.703125 25.097656 13.863281 24.933594 L 14.847656 23.910156 C 14.984375 23.769531 14.980469 23.546875 14.839844 23.414062 Z M 17.3125 20.449219 C 17.3125 20.253906 17.152344 20.097656 16.960938 20.097656 L 15.46875 20.097656 C 15.273438 20.097656 15.117188 20.253906 15.117188 20.449219 C 15.117188 20.644531 15.273438 20.800781 15.46875 20.800781 L 16.960938 20.800781 C 17.152344 20.800781 17.3125 20.644531 17.3125 20.449219 Z M 15.089844 5.5 C 15.089844 5.304688 15.246094 5.144531 15.441406 5.144531 L 16.933594 5.144531 C 17.128906 5.144531 17.285156 5.304688 17.285156 5.5 C 17.285156 5.691406 17.128906 5.851562 16.933594 5.851562 L 15.441406 5.851562 C 15.246094 5.851562 15.089844 5.691406 15.089844 5.5 Z M 15.089844 7.53125 C 15.089844 7.335938 15.246094 7.179688 15.441406 7.179688 L 16.933594 7.179688 C 17.128906 7.179688 17.285156 7.335938 17.285156 7.53125 C 17.285156 7.726562 17.128906 7.882812 16.933594 7.882812 L 15.441406 7.882812 C 15.246094 7.882812 15.089844 7.726562 15.089844 7.53125 Z M 15.089844 9.566406 C 15.089844 9.371094 15.246094 9.210938 15.441406 9.210938 L 16.933594 9.210938 C 17.128906 9.210938 17.285156 9.371094 17.285156 9.566406 C 17.285156 9.761719 17.128906 9.917969 16.933594 9.917969 L 15.441406 9.917969 C 15.246094 9.917969 15.089844 9.761719 15.089844 9.566406 Z M 14.8125 8.460938 C 14.953125 8.597656 14.957031 8.820312 14.824219 8.960938 L 13.835938 9.984375 C 13.679688 10.144531 13.410156 10.121094 13.285156 9.933594 L 12.820312 9.222656 C 12.714844 9.0625 12.761719 8.84375 12.921875 8.734375 C 13.085938 8.628906 13.304688 8.675781 13.410156 8.835938 L 13.632812 9.175781 L 14.316406 8.472656 C 14.449219 8.332031 14.671875 8.328125 14.8125 8.460938 Z M 12.820312 5.15625 C 12.714844 4.996094 12.761719 4.777344 12.921875 4.667969 C 13.085938 4.5625 13.304688 4.609375 13.410156 4.769531 L 13.632812 5.113281 L 14.316406 4.40625 C 14.449219 4.265625 14.671875 4.261719 14.8125 4.394531 C 14.953125 4.53125 14.957031 4.753906 14.824219 4.894531 L 13.835938 5.917969 C 13.675781 6.082031 13.410156 6.054688 13.285156 5.867188 Z M 13.683594 6.988281 C 13.839844 6.988281 13.964844 7.117188 13.964844 7.273438 C 13.964844 7.429688 13.839844 7.554688 13.683594 7.554688 C 13.523438 7.554688 13.398438 7.429688 13.398438 7.273438 C 13.398438 7.117188 13.523438 6.988281 13.683594 6.988281 Z M 13.683594 8.261719 C 14.226562 8.261719 14.671875 7.816406 14.671875 7.273438 C 14.671875 6.726562 14.226562 6.285156 13.683594 6.285156 C 13.136719 6.285156 12.691406 6.726562 12.691406 7.273438 C 12.691406 7.816406 13.136719 8.261719 13.683594 8.261719 Z M 11.550781 10.371094 L 11.550781 4.015625 C 11.550781 3.765625 11.753906 3.558594 12.007812 3.558594 L 18.042969 3.558594 C 18.292969 3.558594 18.5 3.765625 18.5 4.015625 L 18.5 10.371094 C 18.5 10.625 18.292969 10.828125 18.042969 10.828125 L 12.007812 10.828125 C 11.753906 10.828125 11.550781 10.625 11.550781 10.371094 Z M 8.101562 11.625 C 8.101562 12.304688 7.550781 12.855469 6.871094 12.855469 C 6.195312 12.855469 5.640625 12.304688 5.640625 11.625 C 5.640625 10.945312 6.195312 10.394531 6.871094 10.394531 C 7.550781 10.394531 8.101562 10.945312 8.101562 11.625 Z M 9.59375 16.597656 L 9.59375 18.417969 C 9.59375 18.507812 9.523438 18.578125 9.4375 18.578125 L 4.308594 18.578125 C 4.222656 18.578125 4.152344 18.507812 4.152344 18.417969 L 4.152344 16.597656 C 4.152344 15.097656 5.371094 13.875 6.871094 13.875 C 8.375 13.875 9.59375 15.097656 9.59375 16.597656 Z M 18.042969 11.535156 C 18.683594 11.535156 19.203125 11.011719 19.203125 10.371094 L 19.203125 4.015625 C 19.203125 3.375 18.683594 2.855469 18.042969 2.855469 L 12.007812 2.855469 C 11.367188 2.855469 10.84375 3.375 10.84375 4.015625 L 10.84375 7.238281 L 6.851562 7.222656 C 6.65625 7.222656 6.5 7.382812 6.5 7.578125 L 6.5 9.726562 C 5.609375 9.898438 4.9375 10.683594 4.9375 11.625 C 4.9375 12.34375 5.332031 12.972656 5.917969 13.308594 C 4.492188 13.722656 3.445312 15.039062 3.445312 16.597656 L 3.445312 18.417969 C 3.445312 18.894531 3.832031 19.28125 4.308594 19.28125 L 9.4375 19.28125 C 9.910156 19.28125 10.300781 18.894531 10.300781 18.417969 L 10.300781 16.597656 C 10.300781 15.039062 9.253906 13.722656 7.828125 13.308594 C 8.414062 12.972656 8.808594 12.34375 8.808594 11.625 C 8.808594 10.671875 8.113281 9.875 7.203125 9.71875 L 7.203125 7.929688 L 10.84375 7.941406 L 10.84375 10.371094 C 10.84375 11.011719 11.367188 11.535156 12.007812 11.535156 Z M 18.042969 11.535156 " fill-opacity="1" fill-rule="evenodd"/></g></svg>