<svg xmlns="http://www.w3.org/2000/svg" xmlns:xlink="http://www.w3.org/1999/xlink" width="40" zoomAndPan="magnify" viewBox="0 0 30 30.000001" height="40" preserveAspectRatio="xMidYMid meet" version="1.0"><defs><clipPath id="d20fca7748"><path d="M 0.484375 0 L 29.515625 0 L 29.515625 29.03125 L 0.484375 29.03125 Z M 0.484375 0 " clip-rule="nonzero"/></clipPath><clipPath id="6c98e2fc82"><path d="M 3.386719 2.902344 L 22 2.902344 L 22 19 L 3.386719 19 Z M 3.386719 2.902344 " clip-rule="nonzero"/></clipPath><clipPath id="5e093f7b68"><path d="M 23 2.902344 L 26.613281 2.902344 L 26.613281 19 L 23 19 Z M 23 2.902344 " clip-rule="nonzero"/></clipPath><clipPath id="10f0bd9fe4"><path d="M 3.386719 18 L 15 18 L 15 26.128906 L 3.386719 26.128906 Z M 3.386719 18 " clip-rule="nonzero"/></clipPath><clipPath id="bcfaa62703"><path d="M 17 20 L 26 20 L 26 26.128906 L 17 26.128906 Z M 17 20 " clip-rule="nonzero"/></clipPath></defs><g clip-path="url(#d20fca7748)"><path fill="#ffffff" d="M 0.484375 0 L 29.515625 0 L 29.515625 29.03125 L 0.484375 29.03125 Z M 0.484375 0 " fill-opacity="1" fill-rule="nonzero"/><path fill="#ffffff" d="M 0.484375 0 L 29.515625 0 L 29.515625 29.03125 L 0.484375 29.03125 Z M 0.484375 0 " fill-opacity="1" fill-rule="nonzero"/></g><path fill="#935f3d" d="M 6.652344 5.804688 L 5.566406 5.804688 L 5.566406 9.433594 L 6.652344 9.433594 C 6.867188 9.4375 7.066406 9.378906 7.25 9.261719 C 7.429688 9.148438 7.566406 8.988281 7.652344 8.792969 C 7.738281 8.597656 7.765625 8.390625 7.730469 8.179688 C 7.695312 7.964844 7.605469 7.78125 7.457031 7.621094 C 7.605469 7.460938 7.695312 7.277344 7.730469 7.0625 C 7.765625 6.851562 7.738281 6.644531 7.652344 6.449219 C 7.566406 6.25 7.429688 6.09375 7.25 5.976562 C 7.066406 5.863281 6.867188 5.804688 6.652344 5.804688 Z M 6.652344 6.53125 C 6.753906 6.53125 6.839844 6.566406 6.910156 6.636719 C 6.980469 6.710938 7.015625 6.796875 7.015625 6.894531 C 7.015625 6.996094 6.980469 7.082031 6.910156 7.152344 C 6.839844 7.222656 6.753906 7.257812 6.652344 7.257812 L 6.289062 7.257812 L 6.289062 6.53125 Z M 6.652344 8.710938 L 6.289062 8.710938 L 6.289062 7.984375 L 6.652344 7.984375 C 6.753906 7.984375 6.839844 8.019531 6.910156 8.089844 C 6.980469 8.160156 7.015625 8.246094 7.015625 8.347656 C 7.015625 8.445312 6.980469 8.53125 6.910156 8.601562 C 6.839844 8.675781 6.753906 8.710938 6.652344 8.710938 Z M 6.652344 8.710938 " fill-opacity="1" fill-rule="nonzero"/><path fill="#935f3d" d="M 10.644531 6.894531 C 10.644531 6.75 10.617188 6.613281 10.5625 6.480469 C 10.507812 6.34375 10.429688 6.226562 10.328125 6.125 C 10.222656 6.023438 10.105469 5.945312 9.972656 5.890625 C 9.839844 5.835938 9.699219 5.804688 9.554688 5.804688 L 8.46875 5.804688 L 8.46875 9.433594 L 9.195312 9.433594 L 9.195312 8.5 L 10.210938 9.507812 L 10.71875 9 L 9.695312 7.984375 C 9.96875 7.949219 10.195312 7.828125 10.378906 7.621094 C 10.558594 7.414062 10.648438 7.171875 10.644531 6.894531 Z M 9.554688 7.257812 L 9.195312 7.257812 L 9.195312 6.53125 L 9.554688 6.53125 C 9.65625 6.53125 9.742188 6.566406 9.8125 6.636719 C 9.882812 6.710938 9.917969 6.796875 9.917969 6.894531 C 9.917969 6.996094 9.882812 7.082031 9.8125 7.152344 C 9.742188 7.222656 9.65625 7.257812 9.554688 7.257812 Z M 9.554688 7.257812 " fill-opacity="1" fill-rule="nonzero"/><path fill="#935f3d" d="M 13.546875 9.433594 L 13.546875 6.894531 C 13.546875 6.75 13.519531 6.613281 13.464844 6.480469 C 13.410156 6.34375 13.332031 6.226562 13.230469 6.125 C 13.128906 6.023438 13.007812 5.945312 12.875 5.890625 C 12.742188 5.835938 12.605469 5.804688 12.460938 5.804688 C 12.316406 5.804688 12.175781 5.835938 12.042969 5.890625 C 11.910156 5.945312 11.792969 6.023438 11.691406 6.125 C 11.585938 6.226562 11.507812 6.34375 11.453125 6.480469 C 11.398438 6.613281 11.371094 6.75 11.371094 6.894531 L 11.371094 9.433594 L 12.097656 9.433594 L 12.097656 8.347656 L 12.824219 8.347656 L 12.824219 9.433594 Z M 12.097656 7.621094 L 12.097656 6.894531 C 12.097656 6.796875 12.132812 6.710938 12.203125 6.636719 C 12.273438 6.566406 12.359375 6.53125 12.460938 6.53125 C 12.558594 6.53125 12.644531 6.566406 12.714844 6.636719 C 12.789062 6.710938 12.824219 6.796875 12.824219 6.894531 L 12.824219 7.621094 Z M 12.097656 7.621094 " fill-opacity="1" fill-rule="nonzero"/><path fill="#935f3d" d="M 16.148438 9.261719 C 16.214844 9.378906 16.316406 9.433594 16.453125 9.433594 L 16.554688 9.433594 C 16.726562 9.382812 16.816406 9.269531 16.816406 9.085938 L 16.816406 5.804688 L 16.089844 5.804688 L 16.089844 7.808594 L 14.941406 5.980469 C 14.851562 5.816406 14.71875 5.757812 14.535156 5.804688 C 14.355469 5.859375 14.265625 5.980469 14.273438 6.167969 L 14.273438 9.433594 L 15 9.433594 L 15 7.433594 Z M 16.148438 9.261719 " fill-opacity="1" fill-rule="nonzero"/><path fill="#935f3d" d="M 19.71875 8.347656 L 19.71875 6.894531 C 19.71875 6.75 19.691406 6.613281 19.636719 6.480469 C 19.578125 6.34375 19.5 6.226562 19.398438 6.125 C 19.296875 6.023438 19.179688 5.945312 19.046875 5.890625 C 18.914062 5.835938 18.773438 5.804688 18.628906 5.804688 L 17.539062 5.804688 L 17.539062 9.433594 L 18.628906 9.433594 C 18.773438 9.433594 18.914062 9.40625 19.046875 9.351562 C 19.179688 9.296875 19.296875 9.21875 19.398438 9.117188 C 19.5 9.015625 19.578125 8.898438 19.636719 8.761719 C 19.691406 8.628906 19.71875 8.492188 19.71875 8.347656 Z M 18.992188 8.347656 C 18.992188 8.445312 18.957031 8.53125 18.886719 8.601562 C 18.816406 8.675781 18.730469 8.710938 18.628906 8.710938 L 18.265625 8.710938 L 18.265625 6.53125 L 18.628906 6.53125 C 18.730469 6.53125 18.816406 6.566406 18.886719 6.636719 C 18.957031 6.710938 18.992188 6.796875 18.992188 6.894531 Z M 18.992188 8.347656 " fill-opacity="1" fill-rule="nonzero"/><g clip-path="url(#6c98e2fc82)"><path fill="#935f3d" d="M 4.113281 5.445312 C 4.113281 5.203125 4.160156 4.972656 4.25 4.75 C 4.34375 4.527344 4.472656 4.332031 4.644531 4.160156 C 4.816406 3.992188 5.011719 3.859375 5.234375 3.765625 C 5.457031 3.675781 5.6875 3.628906 5.925781 3.628906 L 19.355469 3.628906 C 19.59375 3.628906 19.828125 3.675781 20.050781 3.765625 C 20.273438 3.859375 20.46875 3.992188 20.636719 4.160156 C 20.808594 4.332031 20.9375 4.527344 21.03125 4.75 C 21.125 4.972656 21.167969 5.203125 21.167969 5.445312 L 21.167969 18.871094 L 21.894531 18.871094 L 21.894531 5.445312 C 21.894531 5.105469 21.832031 4.78125 21.703125 4.472656 C 21.574219 4.160156 21.390625 3.886719 21.152344 3.648438 C 20.914062 3.410156 20.636719 3.226562 20.328125 3.097656 C 20.015625 2.96875 19.691406 2.902344 19.355469 2.902344 L 5.925781 2.902344 C 5.589844 2.902344 5.265625 2.96875 4.957031 3.097656 C 4.644531 3.226562 4.371094 3.410156 4.132812 3.648438 C 3.894531 3.886719 3.710938 4.160156 3.582031 4.472656 C 3.453125 4.78125 3.386719 5.105469 3.386719 5.445312 L 3.386719 17.78125 L 4.113281 17.78125 Z M 4.113281 5.445312 " fill-opacity="1" fill-rule="nonzero"/></g><path fill="#935f3d" d="M 6.289062 11.613281 L 19.355469 11.613281 L 19.355469 12.339844 L 6.289062 12.339844 Z M 6.289062 11.613281 " fill-opacity="1" fill-rule="nonzero"/><path fill="#935f3d" d="M 6.289062 14.878906 L 19.355469 14.878906 L 19.355469 15.605469 L 6.289062 15.605469 Z M 6.289062 14.878906 " fill-opacity="1" fill-rule="nonzero"/><path fill="#935f3d" d="M 15 17.78125 L 19.355469 17.78125 L 19.355469 18.507812 L 15 18.507812 Z M 15 17.78125 " fill-opacity="1" fill-rule="nonzero"/><g clip-path="url(#5e093f7b68)"><path fill="#935f3d" d="M 26.613281 4.355469 C 26.613281 4.164062 26.574219 3.976562 26.503906 3.800781 C 26.429688 3.621094 26.324219 3.464844 26.1875 3.328125 C 26.050781 3.191406 25.894531 3.085938 25.714844 3.015625 C 25.539062 2.941406 25.355469 2.902344 25.160156 2.902344 C 24.96875 2.902344 24.785156 2.941406 24.605469 3.015625 C 24.429688 3.085938 24.269531 3.191406 24.136719 3.328125 C 24 3.464844 23.894531 3.621094 23.820312 3.800781 C 23.746094 3.976562 23.710938 4.164062 23.710938 4.355469 L 23.710938 15.96875 C 23.699219 16.015625 23.699219 16.066406 23.710938 16.113281 L 24.796875 18.652344 C 24.859375 18.800781 24.972656 18.875 25.132812 18.875 C 25.292969 18.875 25.402344 18.800781 25.464844 18.652344 L 26.613281 16.113281 C 26.625 16.066406 26.625 16.015625 26.613281 15.96875 Z M 24.433594 5.082031 L 25.886719 5.082031 L 25.886719 15.605469 L 24.433594 15.605469 Z M 25.160156 3.628906 C 25.363281 3.628906 25.53125 3.699219 25.675781 3.839844 C 25.816406 3.984375 25.886719 4.15625 25.886719 4.355469 L 24.433594 4.355469 C 24.433594 4.15625 24.507812 3.984375 24.648438 3.839844 C 24.789062 3.699219 24.960938 3.628906 25.160156 3.628906 Z M 25.160156 17.585938 L 24.625 16.332031 L 25.699219 16.332031 Z M 25.160156 17.585938 " fill-opacity="1" fill-rule="nonzero"/></g><g clip-path="url(#10f0bd9fe4)"><path fill="#935f3d" d="M 12.824219 18.871094 L 5.203125 18.871094 C 4.960938 18.871094 4.730469 18.917969 4.507812 19.007812 C 4.285156 19.101562 4.089844 19.230469 3.917969 19.402344 C 3.75 19.574219 3.617188 19.769531 3.523438 19.992188 C 3.433594 20.214844 3.386719 20.445312 3.386719 20.683594 L 3.386719 24.316406 C 3.386719 24.554688 3.433594 24.785156 3.523438 25.007812 C 3.617188 25.230469 3.75 25.425781 3.917969 25.597656 C 4.089844 25.769531 4.285156 25.898438 4.507812 25.992188 C 4.730469 26.082031 4.960938 26.128906 5.203125 26.128906 L 12.824219 26.128906 C 13.0625 26.128906 13.292969 26.082031 13.515625 25.992188 C 13.738281 25.898438 13.933594 25.769531 14.105469 25.597656 C 14.277344 25.425781 14.40625 25.230469 14.5 25.007812 C 14.589844 24.785156 14.636719 24.554688 14.636719 24.316406 L 14.636719 20.683594 C 14.636719 20.445312 14.589844 20.214844 14.5 19.992188 C 14.40625 19.769531 14.277344 19.574219 14.105469 19.402344 C 13.933594 19.230469 13.738281 19.101562 13.515625 19.007812 C 13.292969 18.917969 13.0625 18.871094 12.824219 18.871094 Z M 13.910156 24.316406 C 13.910156 24.457031 13.882812 24.597656 13.828125 24.730469 C 13.773438 24.863281 13.695312 24.980469 13.59375 25.085938 C 13.492188 25.1875 13.371094 25.265625 13.238281 25.320312 C 13.105469 25.375 12.96875 25.402344 12.824219 25.402344 L 5.203125 25.402344 C 5.058594 25.402344 4.917969 25.375 4.785156 25.320312 C 4.652344 25.265625 4.535156 25.1875 4.433594 25.085938 C 4.328125 24.980469 4.25 24.863281 4.195312 24.730469 C 4.140625 24.597656 4.113281 24.457031 4.113281 24.316406 L 4.113281 20.683594 C 4.113281 20.542969 4.140625 20.402344 4.195312 20.269531 C 4.25 20.136719 4.328125 20.019531 4.433594 19.914062 C 4.535156 19.8125 4.652344 19.734375 4.785156 19.679688 C 4.917969 19.625 5.058594 19.597656 5.203125 19.597656 L 12.824219 19.597656 C 12.96875 19.597656 13.105469 19.625 13.238281 19.679688 C 13.371094 19.734375 13.492188 19.8125 13.59375 19.914062 C 13.695312 20.019531 13.773438 20.136719 13.828125 20.269531 C 13.882812 20.402344 13.910156 20.542969 13.910156 20.683594 Z M 13.910156 24.316406 " fill-opacity="1" fill-rule="nonzero"/></g><path fill="#935f3d" d="M 7.378906 21.046875 L 5.925781 21.046875 C 5.828125 21.046875 5.742188 21.082031 5.671875 21.15625 C 5.601562 21.226562 5.566406 21.3125 5.566406 21.410156 L 5.566406 23.589844 C 5.566406 23.6875 5.601562 23.773438 5.671875 23.84375 C 5.742188 23.917969 5.828125 23.953125 5.925781 23.953125 L 7.378906 23.953125 C 7.480469 23.953125 7.566406 23.917969 7.636719 23.84375 C 7.707031 23.773438 7.742188 23.6875 7.742188 23.589844 L 7.742188 21.410156 C 7.742188 21.3125 7.707031 21.226562 7.636719 21.15625 C 7.566406 21.082031 7.480469 21.046875 7.378906 21.046875 Z M 7.015625 23.226562 L 6.289062 23.226562 L 6.289062 21.773438 L 7.015625 21.773438 Z M 7.015625 23.226562 " fill-opacity="1" fill-rule="nonzero"/><path fill="#935f3d" d="M 9.195312 21.046875 L 12.097656 21.046875 L 12.097656 21.773438 L 9.195312 21.773438 Z M 9.195312 21.046875 " fill-opacity="1" fill-rule="nonzero"/><path fill="#935f3d" d="M 8.832031 22.863281 L 12.460938 22.863281 L 12.460938 23.589844 L 8.832031 23.589844 Z M 8.832031 22.863281 " fill-opacity="1" fill-rule="nonzero"/><g clip-path="url(#bcfaa62703)"><path fill="#935f3d" d="M 24.074219 20.324219 L 18.992188 20.324219 C 18.75 20.324219 18.519531 20.367188 18.296875 20.460938 C 18.074219 20.554688 17.878906 20.683594 17.707031 20.855469 C 17.539062 21.023438 17.40625 21.21875 17.316406 21.441406 C 17.222656 21.664062 17.175781 21.894531 17.175781 22.136719 L 17.175781 24.316406 C 17.175781 24.554688 17.222656 24.785156 17.316406 25.007812 C 17.40625 25.230469 17.539062 25.425781 17.707031 25.597656 C 17.878906 25.769531 18.074219 25.898438 18.296875 25.992188 C 18.519531 26.082031 18.75 26.128906 18.992188 26.128906 L 24.074219 26.128906 C 24.3125 26.128906 24.542969 26.082031 24.765625 25.992188 C 24.988281 25.898438 25.183594 25.769531 25.355469 25.597656 C 25.527344 25.425781 25.65625 25.230469 25.75 25.007812 C 25.839844 24.785156 25.886719 24.554688 25.886719 24.316406 L 25.886719 22.136719 C 25.886719 21.894531 25.839844 21.664062 25.75 21.441406 C 25.65625 21.21875 25.527344 21.023438 25.355469 20.855469 C 25.183594 20.683594 24.988281 20.554688 24.765625 20.460938 C 24.542969 20.367188 24.3125 20.324219 24.074219 20.324219 Z M 24.074219 21.046875 L 24.246094 21.046875 L 21.53125 22.796875 L 18.816406 21.046875 Z M 25.160156 24.316406 C 25.160156 24.457031 25.132812 24.597656 25.078125 24.730469 C 25.023438 24.863281 24.945312 24.980469 24.84375 25.085938 C 24.742188 25.1875 24.621094 25.265625 24.488281 25.320312 C 24.355469 25.375 24.21875 25.402344 24.074219 25.402344 L 18.992188 25.402344 C 18.847656 25.402344 18.707031 25.375 18.574219 25.320312 C 18.441406 25.265625 18.324219 25.1875 18.222656 25.085938 C 18.121094 24.980469 18.042969 24.863281 17.984375 24.730469 C 17.929688 24.597656 17.902344 24.457031 17.902344 24.316406 L 17.902344 22.136719 C 17.902344 21.894531 17.980469 21.675781 18.128906 21.484375 L 21.335938 23.53125 C 21.46875 23.613281 21.597656 23.613281 21.726562 23.53125 L 24.9375 21.484375 C 25.085938 21.675781 25.160156 21.894531 25.160156 22.136719 Z M 25.160156 24.316406 " fill-opacity="1" fill-rule="nonzero"/></g></svg>