<svg xmlns="http://www.w3.org/2000/svg" xmlns:xlink="http://www.w3.org/1999/xlink" width="40" zoomAndPan="magnify" viewBox="0 0 30 30.000001" height="40" preserveAspectRatio="xMidYMid meet" version="1.0"><defs><clipPath id="170a91c43e"><path d="M 0.484375 0 L 29.515625 0 L 29.515625 29.03125 L 0.484375 29.03125 Z M 0.484375 0 " clip-rule="nonzero"/></clipPath><clipPath id="10d3eb31f4"><path d="M 3.621094 12 L 15 12 L 15 26.128906 L 3.621094 26.128906 Z M 3.621094 12 " clip-rule="nonzero"/></clipPath><clipPath id="c708215db2"><path d="M 15 12 L 26.121094 12 L 26.121094 26.128906 L 15 26.128906 Z M 15 12 " clip-rule="nonzero"/></clipPath><clipPath id="398a17e750"><path d="M 9 2.902344 L 17 2.902344 L 17 9 L 9 9 Z M 9 2.902344 " clip-rule="nonzero"/></clipPath></defs><g clip-path="url(#170a91c43e)"><path fill="#ffffff" d="M 0.484375 0 L 29.515625 0 L 29.515625 29.03125 L 0.484375 29.03125 Z M 0.484375 0 " fill-opacity="1" fill-rule="nonzero"/><path fill="#ffffff" d="M 0.484375 0 L 29.515625 0 L 29.515625 29.03125 L 0.484375 29.03125 Z M 0.484375 0 " fill-opacity="1" fill-rule="nonzero"/></g><path fill="#935f3d" d="M 10.433594 10.46875 C 10.433594 10.71875 10.386719 10.960938 10.289062 11.191406 C 10.195312 11.421875 10.058594 11.625 9.882812 11.800781 C 9.703125 11.980469 9.5 12.113281 9.269531 12.210938 C 9.039062 12.304688 8.796875 12.355469 8.546875 12.355469 C 8.296875 12.355469 8.058594 12.304688 7.828125 12.210938 C 7.597656 12.113281 7.390625 11.980469 7.214844 11.800781 C 7.039062 11.625 6.902344 11.421875 6.808594 11.191406 C 6.710938 10.960938 6.664062 10.71875 6.664062 10.46875 C 6.664062 10.21875 6.710938 9.980469 6.808594 9.746094 C 6.902344 9.515625 7.039062 9.3125 7.214844 9.136719 C 7.390625 8.960938 7.597656 8.824219 7.828125 8.726562 C 8.058594 8.632812 8.296875 8.585938 8.546875 8.585938 C 8.796875 8.585938 9.039062 8.632812 9.269531 8.726562 C 9.5 8.824219 9.703125 8.960938 9.882812 9.136719 C 10.058594 9.3125 10.195312 9.515625 10.289062 9.746094 C 10.386719 9.980469 10.433594 10.21875 10.433594 10.46875 Z M 10.433594 10.46875 " fill-opacity="1" fill-rule="nonzero"/><g clip-path="url(#10d3eb31f4)"><path fill="#935f3d" d="M 13.804688 15.710938 L 12.292969 15.222656 L 11.058594 13.699219 C 10.613281 13.15625 9.960938 12.84375 9.261719 12.84375 L 7.613281 12.84375 C 5.671875 12.84375 4.199219 16.167969 3.792969 17.1875 C 3.621094 17.625 3.832031 18.117188 4.269531 18.289062 C 4.371094 18.332031 4.476562 18.351562 4.582031 18.351562 C 4.917969 18.351562 5.234375 18.148438 5.367188 17.816406 C 5.714844 16.945312 6.191406 16.085938 6.628906 15.464844 L 6.511719 18.773438 L 5.175781 24.988281 C 5.066406 25.496094 5.390625 25.996094 5.898438 26.105469 C 5.964844 26.121094 6.03125 26.125 6.097656 26.125 C 6.53125 26.125 6.921875 25.824219 7.015625 25.382812 L 8.332031 19.246094 L 8.703125 19.246094 L 8.703125 25.1875 C 8.703125 25.707031 9.121094 26.128906 9.644531 26.128906 C 10.164062 26.128906 10.585938 25.707031 10.585938 25.1875 L 10.585938 18.855469 L 10.472656 15.671875 L 11.132812 16.488281 C 11.234375 16.613281 11.375 16.710938 11.527344 16.757812 L 13.277344 17.324219 C 13.722656 17.472656 14.203125 17.226562 14.347656 16.78125 C 14.492188 16.335938 14.25 15.855469 13.804688 15.710938 Z M 13.804688 15.710938 " fill-opacity="1" fill-rule="nonzero"/></g><path fill="#935f3d" d="M 23.335938 10.46875 C 23.335938 10.71875 23.289062 10.960938 23.191406 11.191406 C 23.097656 11.421875 22.960938 11.625 22.785156 11.800781 C 22.605469 11.980469 22.402344 12.113281 22.171875 12.210938 C 21.941406 12.304688 21.699219 12.355469 21.449219 12.355469 C 21.199219 12.355469 20.960938 12.304688 20.730469 12.210938 C 20.5 12.113281 20.296875 11.980469 20.117188 11.800781 C 19.941406 11.625 19.804688 11.421875 19.710938 11.191406 C 19.613281 10.960938 19.566406 10.71875 19.566406 10.46875 C 19.566406 10.21875 19.613281 9.980469 19.710938 9.746094 C 19.804688 9.515625 19.941406 9.3125 20.117188 9.136719 C 20.296875 8.960938 20.5 8.824219 20.730469 8.726562 C 20.960938 8.632812 21.199219 8.585938 21.449219 8.585938 C 21.699219 8.585938 21.941406 8.632812 22.171875 8.726562 C 22.402344 8.824219 22.605469 8.960938 22.785156 9.136719 C 22.960938 9.3125 23.097656 9.515625 23.191406 9.746094 C 23.289062 9.980469 23.335938 10.21875 23.335938 10.46875 Z M 23.335938 10.46875 " fill-opacity="1" fill-rule="nonzero"/><g clip-path="url(#c708215db2)"><path fill="#935f3d" d="M 26.207031 17.1875 C 25.800781 16.167969 24.324219 12.84375 22.386719 12.84375 L 20.738281 12.84375 C 20.039062 12.84375 19.382812 13.15625 18.941406 13.699219 L 17.707031 15.222656 L 16.195312 15.710938 C 15.75 15.855469 15.503906 16.332031 15.648438 16.78125 C 15.792969 17.226562 16.273438 17.472656 16.71875 17.324219 L 18.46875 16.757812 C 18.625 16.710938 18.761719 16.613281 18.863281 16.488281 L 19.523438 15.671875 L 19.414062 18.855469 L 19.414062 25.1875 C 19.414062 25.707031 19.832031 26.128906 20.351562 26.128906 C 20.875 26.128906 21.292969 25.707031 21.292969 25.1875 L 21.292969 19.242188 L 21.664062 19.242188 L 22.980469 25.382812 C 23.078125 25.824219 23.464844 26.125 23.902344 26.125 C 23.964844 26.125 24.03125 26.117188 24.097656 26.101562 C 24.605469 25.992188 24.929688 25.492188 24.820312 24.984375 L 23.488281 18.769531 L 23.371094 15.460938 C 23.808594 16.082031 24.28125 16.941406 24.628906 17.8125 C 24.761719 18.144531 25.078125 18.34375 25.417969 18.34375 C 25.519531 18.34375 25.625 18.324219 25.730469 18.285156 C 26.167969 18.117188 26.378906 17.625 26.207031 17.1875 Z M 26.207031 17.1875 " fill-opacity="1" fill-rule="nonzero"/></g><path fill="#935f3d" d="M 14.011719 8.355469 C 14.632812 8.820312 15.503906 9.109375 16.472656 9.109375 C 16.660156 9.109375 16.84375 9.09375 17.023438 9.074219 C 17.550781 9.328125 18.117188 9.585938 18.628906 9.789062 C 18.941406 9.910156 19.210938 9.539062 19 9.277344 C 18.777344 8.992188 18.660156 8.757812 18.601562 8.570312 C 19.375 8.128906 19.867188 7.445312 19.867188 6.683594 C 19.867188 5.382812 18.4375 4.324219 16.636719 4.261719 C 16.789062 4.59375 16.867188 4.949219 16.867188 5.324219 C 16.871094 6.761719 15.6875 7.945312 14.011719 8.355469 Z M 14.011719 8.355469 " fill-opacity="1" fill-rule="nonzero"/><g clip-path="url(#398a17e750)"><path fill="#935f3d" d="M 10.59375 7.214844 C 10.53125 7.40625 10.414062 7.640625 10.195312 7.921875 C 9.988281 8.1875 10.257812 8.554688 10.566406 8.433594 C 11.078125 8.230469 11.644531 7.972656 12.171875 7.714844 C 12.351562 7.738281 12.535156 7.75 12.722656 7.75 C 14.597656 7.75 16.121094 6.664062 16.121094 5.324219 C 16.121094 3.984375 14.597656 2.902344 12.722656 2.902344 C 10.847656 2.902344 9.328125 3.988281 9.328125 5.328125 C 9.328125 6.089844 9.820312 6.769531 10.59375 7.214844 Z M 14.414062 4.792969 C 14.707031 4.792969 14.949219 5.03125 14.949219 5.324219 C 14.949219 5.617188 14.710938 5.859375 14.414062 5.859375 C 14.121094 5.859375 13.882812 5.617188 13.882812 5.324219 C 13.886719 5.03125 14.121094 4.792969 14.414062 4.792969 Z M 12.722656 4.792969 C 13.015625 4.792969 13.257812 5.03125 13.257812 5.324219 C 13.257812 5.617188 13.019531 5.859375 12.722656 5.859375 C 12.429688 5.859375 12.191406 5.617188 12.191406 5.324219 C 12.191406 5.03125 12.429688 4.792969 12.722656 4.792969 Z M 11.03125 4.792969 C 11.324219 4.792969 11.5625 5.03125 11.5625 5.324219 C 11.5625 5.617188 11.324219 5.859375 11.03125 5.859375 C 10.738281 5.859375 10.496094 5.617188 10.496094 5.324219 C 10.496094 5.03125 10.738281 4.792969 11.03125 4.792969 Z M 11.03125 4.792969 " fill-opacity="1" fill-rule="nonzero"/></g></svg>