<svg xmlns="http://www.w3.org/2000/svg" xmlns:xlink="http://www.w3.org/1999/xlink" width="40" zoomAndPan="magnify" viewBox="0 0 30 30.000001" height="40" preserveAspectRatio="xMidYMid meet" version="1.0"><defs><clipPath id="1c3f598c19"><path d="M 0.484375 0 L 29.515625 0 L 29.515625 29.03125 L 0.484375 29.03125 Z M 0.484375 0 " clip-rule="nonzero"/></clipPath><clipPath id="4a462a993d"><path d="M 11 2.902344 L 19 2.902344 L 19 10 L 11 10 Z M 11 2.902344 " clip-rule="nonzero"/></clipPath><clipPath id="d0c88322fd"><path d="M 3.386719 10 L 12 10 L 12 19 L 3.386719 19 Z M 3.386719 10 " clip-rule="nonzero"/></clipPath><clipPath id="27a4be998b"><path d="M 19 10 L 26.613281 10 L 26.613281 19 L 19 19 Z M 19 10 " clip-rule="nonzero"/></clipPath><clipPath id="e792fd2c84"><path d="M 7 12 L 23 12 L 23 26.128906 L 7 26.128906 Z M 7 12 " clip-rule="nonzero"/></clipPath></defs><g clip-path="url(#1c3f598c19)"><path fill="#ffffff" d="M 0.484375 0 L 29.515625 0 L 29.515625 29.03125 L 0.484375 29.03125 Z M 0.484375 0 " fill-opacity="1" fill-rule="nonzero"/><path fill="#ffffff" d="M 0.484375 0 L 29.515625 0 L 29.515625 29.03125 L 0.484375 29.03125 Z M 0.484375 0 " fill-opacity="1" fill-rule="nonzero"/></g><g clip-path="url(#4a462a993d)"><path fill="#935f3d" d="M 12.570312 8.792969 C 12.570312 8.792969 12.585938 8.808594 12.585938 8.808594 C 13.203125 9.425781 14.054688 9.808594 15 9.808594 C 15.945312 9.808594 16.796875 9.425781 17.414062 8.808594 C 17.414062 8.808594 17.429688 8.792969 17.429688 8.792969 C 17.429688 8.792969 17.449219 8.773438 17.449219 8.773438 C 18.066406 8.15625 18.449219 7.304688 18.449219 6.359375 C 18.449219 5.417969 18.066406 4.5625 17.449219 3.945312 C 17.449219 3.945312 17.429688 3.929688 17.429688 3.929688 C 17.429688 3.929688 17.414062 3.910156 17.414062 3.910156 C 16.796875 3.292969 15.945312 2.914062 15 2.914062 C 14.054688 2.914062 13.203125 3.292969 12.585938 3.910156 C 12.585938 3.910156 12.570312 3.929688 12.570312 3.929688 C 12.570312 3.929688 12.550781 3.945312 12.550781 3.945312 C 11.933594 4.5625 11.550781 5.417969 11.550781 6.359375 C 11.550781 7.304688 11.933594 8.15625 12.550781 8.773438 C 12.550781 8.773438 12.550781 8.792969 12.570312 8.792969 Z M 12.640625 5.996094 L 12.296875 5.996094 C 12.367188 5.523438 12.550781 5.070312 12.824219 4.707031 L 13.058594 4.945312 C 13.132812 5.015625 13.222656 5.054688 13.3125 5.054688 C 13.402344 5.054688 13.492188 5.015625 13.566406 4.945312 C 13.710938 4.800781 13.710938 4.582031 13.566406 4.4375 L 13.332031 4.199219 C 13.695312 3.929688 14.128906 3.730469 14.617188 3.675781 L 14.617188 4 C 14.617188 4.199219 14.78125 4.363281 14.980469 4.363281 C 15.179688 4.363281 15.34375 4.199219 15.34375 4 L 15.34375 3.65625 C 15.816406 3.730469 16.269531 3.910156 16.632812 4.183594 L 16.398438 4.417969 C 16.253906 4.5625 16.253906 4.78125 16.398438 4.925781 C 16.46875 5 16.558594 5.035156 16.652344 5.035156 C 16.742188 5.035156 16.832031 5 16.90625 4.925781 L 17.140625 4.691406 C 17.414062 5.054688 17.613281 5.488281 17.667969 5.980469 L 17.359375 5.980469 C 17.160156 5.980469 16.996094 6.140625 16.996094 6.339844 C 16.996094 6.542969 17.160156 6.703125 17.359375 6.703125 L 17.703125 6.703125 C 17.632812 7.175781 17.449219 7.628906 17.175781 7.992188 L 16.941406 7.757812 C 16.796875 7.613281 16.578125 7.613281 16.433594 7.757812 C 16.289062 7.902344 16.289062 8.121094 16.433594 8.265625 L 16.667969 8.5 C 16.304688 8.773438 15.871094 8.972656 15.382812 9.027344 L 15.382812 8.71875 C 15.382812 8.519531 15.21875 8.355469 15.019531 8.355469 C 14.820312 8.355469 14.65625 8.519531 14.65625 8.71875 L 14.65625 9.0625 C 14.183594 8.992188 13.730469 8.808594 13.367188 8.539062 L 13.601562 8.300781 C 13.746094 8.15625 13.746094 7.9375 13.601562 7.792969 C 13.457031 7.648438 13.238281 7.648438 13.09375 7.792969 L 12.859375 8.027344 C 12.585938 7.667969 12.386719 7.230469 12.332031 6.742188 L 12.640625 6.742188 C 12.839844 6.742188 13.003906 6.578125 13.003906 6.378906 C 13.003906 6.179688 12.839844 5.996094 12.640625 5.996094 Z M 12.640625 5.996094 " fill-opacity="1" fill-rule="nonzero"/></g><path fill="#935f3d" d="M 14.09375 6.722656 L 15 6.722656 C 15.199219 6.722656 15.363281 6.558594 15.363281 6.359375 L 15.363281 5.269531 C 15.363281 5.070312 15.199219 4.910156 15 4.910156 C 14.800781 4.910156 14.636719 5.070312 14.636719 5.269531 L 14.636719 5.996094 L 14.09375 5.996094 C 13.894531 5.996094 13.730469 6.160156 13.730469 6.359375 C 13.730469 6.558594 13.894531 6.722656 14.09375 6.722656 Z M 14.09375 6.722656 " fill-opacity="1" fill-rule="nonzero"/><g clip-path="url(#d0c88322fd)"><path fill="#935f3d" d="M 3.894531 15.777344 C 3.96875 15.996094 4.058594 16.210938 4.167969 16.429688 C 4.058594 16.738281 4.113281 17.101562 4.367188 17.335938 L 4.765625 17.738281 C 4.929688 17.898438 5.148438 17.992188 5.382812 17.992188 C 5.492188 17.992188 5.582031 17.972656 5.691406 17.9375 C 5.890625 18.046875 6.109375 18.136719 6.34375 18.207031 C 6.488281 18.5 6.78125 18.714844 7.125 18.714844 L 7.6875 18.714844 C 8.03125 18.714844 8.339844 18.515625 8.46875 18.207031 C 8.683594 18.136719 8.902344 18.046875 9.121094 17.9375 C 9.210938 17.972656 9.320312 17.992188 9.429688 17.992188 C 9.664062 17.992188 9.882812 17.898438 10.046875 17.738281 L 10.445312 17.335938 C 10.699219 17.082031 10.753906 16.738281 10.644531 16.429688 C 10.753906 16.230469 10.84375 16.011719 10.917969 15.777344 C 11.207031 15.632812 11.425781 15.339844 11.425781 14.996094 L 11.425781 14.433594 C 11.425781 14.089844 11.226562 13.78125 10.917969 13.652344 C 10.84375 13.4375 10.753906 13.21875 10.644531 13 C 10.679688 12.910156 10.699219 12.800781 10.699219 12.691406 C 10.699219 12.457031 10.609375 12.238281 10.445312 12.074219 L 10.046875 11.675781 C 9.882812 11.511719 9.664062 11.421875 9.429688 11.421875 C 9.320312 11.421875 9.230469 11.441406 9.121094 11.476562 C 8.921875 11.367188 8.703125 11.277344 8.46875 11.203125 C 8.324219 10.914062 8.03125 10.695312 7.6875 10.695312 L 7.125 10.695312 C 6.78125 10.695312 6.472656 10.894531 6.34375 11.203125 C 6.128906 11.277344 5.910156 11.367188 5.691406 11.476562 C 5.566406 11.457031 5.472656 11.441406 5.363281 11.441406 C 5.128906 11.441406 4.910156 11.53125 4.746094 11.695312 L 4.347656 12.09375 C 4.203125 12.238281 4.113281 12.457031 4.113281 12.691406 C 4.113281 12.800781 4.132812 12.890625 4.167969 13 C 4.058594 13.199219 3.96875 13.417969 3.894531 13.652344 C 3.585938 13.78125 3.386719 14.070312 3.386719 14.433594 L 3.386719 14.996094 C 3.386719 15.339844 3.585938 15.632812 3.894531 15.777344 Z M 4.113281 14.433594 C 4.113281 14.363281 4.167969 14.289062 4.257812 14.289062 L 4.492188 14.289062 C 4.566406 13.800781 4.765625 13.347656 5.039062 12.964844 L 4.875 12.800781 C 4.820312 12.746094 4.820312 12.65625 4.875 12.601562 L 5.273438 12.203125 C 5.292969 12.183594 5.328125 12.167969 5.363281 12.167969 C 5.402344 12.167969 5.4375 12.183594 5.457031 12.203125 L 5.617188 12.367188 C 6 12.074219 6.453125 11.894531 6.945312 11.820312 L 6.945312 11.585938 C 6.945312 11.511719 6.996094 11.441406 7.089844 11.441406 L 7.652344 11.441406 C 7.722656 11.441406 7.796875 11.496094 7.796875 11.585938 L 7.796875 11.820312 C 8.285156 11.894531 8.738281 12.09375 9.121094 12.367188 L 9.285156 12.203125 C 9.300781 12.183594 9.339844 12.167969 9.375 12.167969 C 9.410156 12.167969 9.449219 12.183594 9.464844 12.203125 L 9.863281 12.601562 C 9.917969 12.65625 9.917969 12.746094 9.863281 12.800781 L 9.703125 12.964844 C 9.992188 13.347656 10.171875 13.800781 10.246094 14.289062 L 10.480469 14.289062 C 10.554688 14.289062 10.628906 14.34375 10.628906 14.433594 L 10.628906 14.996094 C 10.628906 15.070312 10.574219 15.140625 10.480469 15.140625 L 10.246094 15.140625 C 10.171875 15.632812 9.972656 16.085938 9.703125 16.464844 L 9.863281 16.628906 C 9.917969 16.683594 9.917969 16.773438 9.863281 16.828125 L 9.464844 17.230469 C 9.464844 17.246094 9.429688 17.246094 9.394531 17.246094 C 9.355469 17.246094 9.320312 17.230469 9.300781 17.210938 L 9.140625 17.046875 C 8.757812 17.335938 8.304688 17.519531 7.816406 17.589844 L 7.816406 17.828125 C 7.816406 17.898438 7.761719 17.972656 7.667969 17.972656 L 7.105469 17.972656 C 7.035156 17.972656 6.960938 17.917969 6.960938 17.828125 L 6.960938 17.589844 C 6.472656 17.519531 6.019531 17.320312 5.636719 17.046875 L 5.472656 17.210938 C 5.4375 17.246094 5.402344 17.246094 5.363281 17.246094 C 5.328125 17.246094 5.292969 17.230469 5.273438 17.210938 L 4.875 16.8125 C 4.820312 16.757812 4.820312 16.667969 4.875 16.613281 L 5.039062 16.449219 C 4.746094 16.066406 4.566406 15.613281 4.492188 15.125 L 4.257812 15.125 C 4.167969 15.125 4.113281 15.070312 4.113281 14.980469 Z M 4.113281 14.433594 " fill-opacity="1" fill-rule="nonzero"/></g><path fill="#935f3d" d="M 7.378906 16.882812 C 8.578125 16.882812 9.554688 15.902344 9.554688 14.707031 C 9.554688 13.507812 8.578125 12.527344 7.378906 12.527344 C 6.179688 12.527344 5.203125 13.507812 5.203125 14.707031 C 5.203125 15.902344 6.179688 16.882812 7.378906 16.882812 Z M 7.378906 13.253906 C 8.175781 13.253906 8.832031 13.910156 8.832031 14.707031 C 8.832031 15.503906 8.175781 16.160156 7.378906 16.160156 C 6.582031 16.160156 5.925781 15.503906 5.925781 14.707031 C 5.925781 13.910156 6.582031 13.253906 7.378906 13.253906 Z M 7.378906 13.253906 " fill-opacity="1" fill-rule="nonzero"/><path fill="#935f3d" d="M 22.09375 9.808594 L 22.949219 9.808594 C 22.039062 8.300781 20.734375 7.066406 19.15625 6.269531 C 19.15625 6.304688 19.15625 6.324219 19.15625 6.359375 C 19.15625 6.597656 19.136719 6.832031 19.101562 7.050781 C 20.316406 7.722656 21.351562 8.664062 22.09375 9.808594 Z M 22.09375 9.808594 " fill-opacity="1" fill-rule="nonzero"/><g clip-path="url(#27a4be998b)"><path fill="#935f3d" d="M 25.523438 11.257812 L 24.78125 11.257812 C 24.691406 10.839844 24.328125 10.535156 23.890625 10.535156 L 22.078125 10.535156 C 21.640625 10.535156 21.277344 10.839844 21.1875 11.257812 L 20.445312 11.257812 C 19.84375 11.257812 19.355469 11.75 19.355469 12.347656 L 19.355469 17.792969 C 19.355469 18.390625 19.84375 18.878906 20.445312 18.878906 L 25.523438 18.878906 C 26.121094 18.878906 26.613281 18.390625 26.613281 17.792969 L 26.613281 12.347656 C 26.613281 11.75 26.121094 11.257812 25.523438 11.257812 Z M 21.894531 11.441406 C 21.894531 11.332031 21.96875 11.257812 22.078125 11.257812 L 23.890625 11.257812 C 24 11.257812 24.074219 11.332031 24.074219 11.441406 L 24.074219 11.804688 C 24.074219 11.914062 24 11.984375 23.890625 11.984375 L 22.078125 11.984375 C 21.96875 11.984375 21.894531 11.914062 21.894531 11.804688 Z M 25.886719 17.792969 C 25.886719 17.992188 25.722656 18.152344 25.523438 18.152344 L 20.445312 18.152344 C 20.242188 18.152344 20.082031 17.992188 20.082031 17.792969 L 20.082031 12.347656 C 20.082031 12.148438 20.242188 11.984375 20.445312 11.984375 L 21.1875 11.984375 C 21.277344 12.402344 21.640625 12.710938 22.078125 12.710938 L 23.890625 12.710938 C 24.328125 12.710938 24.691406 12.402344 24.78125 11.984375 L 25.523438 11.984375 C 25.722656 11.984375 25.886719 12.148438 25.886719 12.347656 Z M 25.886719 17.792969 " fill-opacity="1" fill-rule="nonzero"/></g><path fill="#935f3d" d="M 24.433594 13.4375 L 21.53125 13.4375 C 21.332031 13.4375 21.167969 13.601562 21.167969 13.800781 C 21.167969 14 21.332031 14.164062 21.53125 14.164062 L 24.433594 14.164062 C 24.636719 14.164062 24.796875 14 24.796875 13.800781 C 24.796875 13.601562 24.636719 13.4375 24.433594 13.4375 Z M 24.433594 13.4375 " fill-opacity="1" fill-rule="nonzero"/><path fill="#935f3d" d="M 24.433594 14.886719 L 21.53125 14.886719 C 21.332031 14.886719 21.167969 15.050781 21.167969 15.25 C 21.167969 15.449219 21.332031 15.613281 21.53125 15.613281 L 24.433594 15.613281 C 24.636719 15.613281 24.796875 15.449219 24.796875 15.25 C 24.796875 15.050781 24.636719 14.886719 24.433594 14.886719 Z M 24.433594 14.886719 " fill-opacity="1" fill-rule="nonzero"/><path fill="#935f3d" d="M 24.433594 16.339844 L 21.53125 16.339844 C 21.332031 16.339844 21.167969 16.503906 21.167969 16.703125 C 21.167969 16.902344 21.332031 17.066406 21.53125 17.066406 L 24.433594 17.066406 C 24.636719 17.066406 24.796875 16.902344 24.796875 16.703125 C 24.796875 16.503906 24.636719 16.339844 24.433594 16.339844 Z M 24.433594 16.339844 " fill-opacity="1" fill-rule="nonzero"/><path fill="#935f3d" d="M 7.652344 9.988281 C 7.6875 9.988281 7.722656 9.988281 7.761719 9.988281 C 8.523438 8.773438 9.59375 7.757812 10.863281 7.050781 C 10.84375 6.832031 10.828125 6.597656 10.828125 6.359375 C 10.828125 6.324219 10.828125 6.304688 10.828125 6.269531 C 9.195312 7.105469 7.832031 8.410156 6.925781 10.007812 C 6.980469 10.007812 7.035156 9.988281 7.089844 9.988281 Z M 7.652344 9.988281 " fill-opacity="1" fill-rule="nonzero"/><g clip-path="url(#e792fd2c84)"><path fill="#935f3d" d="M 22.730469 19.605469 L 21.859375 19.605469 C 21.277344 20.402344 20.550781 21.074219 19.71875 21.636719 C 19.210938 21.421875 18.683594 21.183594 18.285156 21.019531 C 18.046875 20.914062 17.867188 20.839844 17.738281 20.785156 L 17.429688 19.789062 C 18.175781 18.84375 18.628906 17.519531 18.628906 16.304688 C 18.628906 14.125 17.085938 12.347656 15.179688 12.347656 C 13.277344 12.347656 11.734375 14.125 11.734375 16.304688 C 11.734375 17.519531 12.1875 18.84375 12.929688 19.789062 L 12.621094 20.765625 C 12.515625 20.820312 12.316406 20.894531 12.078125 21.003906 C 11.625 21.203125 11.007812 21.476562 10.425781 21.710938 C 9.464844 21.09375 8.632812 20.3125 7.996094 19.371094 C 7.886719 19.386719 7.777344 19.40625 7.652344 19.40625 L 7.144531 19.40625 C 7.796875 20.441406 8.632812 21.328125 9.628906 22.039062 C 9.195312 22.21875 8.867188 22.363281 8.8125 22.382812 C 8.703125 22.417969 8.613281 22.507812 8.59375 22.617188 L 7.742188 25.648438 C 7.707031 25.757812 7.742188 25.882812 7.796875 25.976562 C 7.851562 26.066406 7.976562 26.121094 8.085938 26.121094 L 22.238281 26.121094 C 22.347656 26.121094 22.457031 26.066406 22.53125 25.976562 C 22.601562 25.882812 22.621094 25.773438 22.585938 25.648438 L 21.730469 22.617188 C 21.695312 22.507812 21.621094 22.417969 21.515625 22.382812 C 21.460938 22.363281 21.023438 22.183594 20.480469 21.929688 C 21.367188 21.3125 22.132812 20.511719 22.730469 19.605469 Z M 12.460938 16.304688 C 12.460938 14.523438 13.675781 13.074219 15.179688 13.074219 C 16.6875 13.074219 17.902344 14.523438 17.902344 16.304688 C 17.902344 18.082031 16.6875 20.332031 15.179688 20.332031 C 13.675781 20.332031 12.460938 18.101562 12.460938 16.304688 Z M 21.097656 23.015625 L 21.769531 25.414062 L 8.578125 25.414062 L 9.246094 23.015625 C 9.574219 22.871094 10.371094 22.546875 12.351562 21.675781 C 13.078125 21.367188 13.078125 21.347656 13.132812 21.328125 C 13.183594 21.273438 13.238281 21.222656 13.257812 21.148438 L 13.492188 20.386719 C 13.984375 20.804688 14.566406 21.058594 15.164062 21.058594 C 15.761719 21.058594 16.34375 20.804688 16.832031 20.386719 L 17.070312 21.148438 C 17.085938 21.222656 17.140625 21.292969 17.195312 21.328125 C 17.230469 21.367188 17.25 21.367188 17.957031 21.675781 C 19.972656 22.527344 20.769531 22.871094 21.097656 23.015625 Z M 21.097656 23.015625 " fill-opacity="1" fill-rule="nonzero"/></g></svg>