<svg xmlns="http://www.w3.org/2000/svg" xmlns:xlink="http://www.w3.org/1999/xlink" width="40" zoomAndPan="magnify" viewBox="0 0 30 30.000001" height="40" preserveAspectRatio="xMidYMid meet" version="1.0"><defs><clipPath id="8834965087"><path d="M 0.484375 0 L 29.515625 0 L 29.515625 29.03125 L 0.484375 29.03125 Z M 0.484375 0 " clip-rule="nonzero"/></clipPath><clipPath id="afdcc4d947"><path d="M 3.386719 3.019531 L 26.613281 3.019531 L 26.613281 26.246094 L 3.386719 26.246094 Z M 3.386719 3.019531 " clip-rule="nonzero"/></clipPath></defs><g clip-path="url(#8834965087)"><path fill="#ffffff" d="M 0.484375 0 L 29.515625 0 L 29.515625 29.03125 L 0.484375 29.03125 Z M 0.484375 0 " fill-opacity="1" fill-rule="nonzero"/><path fill="#ffffff" d="M 0.484375 0 L 29.515625 0 L 29.515625 29.03125 L 0.484375 29.03125 Z M 0.484375 0 " fill-opacity="1" fill-rule="nonzero"/></g><g clip-path="url(#afdcc4d947)"><path fill="#935f3d" d="M 13.121094 19.515625 L 12.316406 21.234375 L 11.636719 20.066406 L 10.304688 20.300781 L 11.230469 18.308594 C 11.328125 18.398438 11.382812 18.535156 11.574219 18.828125 C 11.917969 19.351562 12.515625 19.613281 13.121094 19.515625 Z M 14.996094 19.539062 C 15.519531 19.539062 16.007812 19.285156 16.308594 18.828125 L 16.308594 18.824219 C 16.503906 18.53125 16.554688 18.390625 16.660156 18.304688 C 16.703125 18.265625 16.757812 18.238281 16.832031 18.207031 L 17.574219 19.941406 L 16.25 19.671875 L 15.539062 20.820312 Z M 14.429688 11.324219 C 15.191406 11.894531 15.019531 11.832031 15.972656 11.886719 C 16.339844 11.90625 16.636719 12.15625 16.71875 12.511719 C 16.9375 13.441406 16.84375 13.28125 17.539062 13.9375 C 17.804688 14.1875 17.875 14.566406 17.710938 14.894531 C 17.277344 15.746094 17.308594 15.566406 17.425781 16.511719 C 17.464844 16.878906 17.273438 17.214844 16.9375 17.355469 C 16.058594 17.734375 16.199219 17.613281 15.679688 18.414062 C 15.476562 18.71875 15.113281 18.851562 14.761719 18.746094 C 13.847656 18.472656 14.03125 18.472656 13.121094 18.746094 C 12.769531 18.851562 12.402344 18.71875 12.203125 18.414062 C 11.679688 17.613281 11.824219 17.734375 10.945312 17.355469 C 10.609375 17.214844 10.414062 16.878906 10.457031 16.511719 C 10.570312 15.566406 10.601562 15.746094 10.171875 14.894531 C 10.007812 14.566406 10.074219 14.1875 10.339844 13.9375 C 11.035156 13.28125 10.945312 13.441406 11.160156 12.511719 C 11.246094 12.15625 11.542969 11.90625 11.910156 11.886719 C 12.863281 11.832031 12.6875 11.894531 13.453125 11.324219 C 13.746094 11.105469 14.132812 11.105469 14.429688 11.324219 Z M 13.941406 17.246094 C 15.195312 17.246094 16.214844 16.222656 16.214844 14.972656 C 16.214844 13.71875 15.195312 12.695312 13.941406 12.695312 C 12.6875 12.695312 11.664062 13.71875 11.664062 14.972656 C 11.664062 16.222656 12.6875 17.246094 13.941406 17.246094 Z M 7.351562 14.460938 L 8.855469 14.460938 C 8.828125 14.683594 8.632812 14.859375 8.402344 14.859375 L 7.804688 14.859375 C 7.574219 14.859375 7.378906 14.683594 7.351562 14.460938 Z M 6.878906 13.304688 L 9.328125 13.304688 C 9.300781 13.53125 9.105469 13.707031 8.875 13.707031 L 7.335938 13.707031 C 7.101562 13.707031 6.910156 13.53125 6.878906 13.304688 Z M 6.417969 12.152344 L 9.789062 12.152344 C 9.757812 12.375 9.566406 12.550781 9.332031 12.550781 L 6.875 12.550781 C 6.640625 12.550781 6.449219 12.375 6.417969 12.152344 Z M 7.238281 11.398438 L 6.417969 11.398438 C 6.28125 9.085938 5.277344 9.414062 5.277344 7.84375 C 5.277344 6.285156 6.542969 5.019531 8.105469 5.019531 C 9.664062 5.019531 10.929688 6.285156 10.929688 7.84375 C 10.929688 9.414062 9.925781 9.085938 9.792969 11.398438 L 8.96875 11.398438 L 8.96875 8.898438 L 9.25 8.898438 C 9.816406 8.898438 10.28125 8.433594 10.28125 7.863281 C 10.28125 7.296875 9.816406 6.832031 9.25 6.832031 C 8.679688 6.832031 8.214844 7.296875 8.214844 7.863281 L 8.214844 8.144531 L 7.992188 8.144531 L 7.992188 7.863281 C 7.992188 7.296875 7.527344 6.832031 6.957031 6.832031 C 6.390625 6.832031 5.925781 7.296875 5.925781 7.863281 C 5.925781 8.433594 6.390625 8.898438 6.957031 8.898438 L 7.238281 8.898438 Z M 8.214844 11.398438 L 7.992188 11.398438 L 7.992188 8.898438 L 8.214844 8.898438 Z M 7.238281 8.144531 L 6.957031 8.144531 C 6.804688 8.144531 6.679688 8.019531 6.679688 7.863281 C 6.679688 7.710938 6.804688 7.585938 6.957031 7.585938 C 7.113281 7.585938 7.238281 7.710938 7.238281 7.863281 Z M 8.96875 8.144531 L 8.96875 7.863281 C 8.96875 7.710938 9.09375 7.585938 9.25 7.585938 C 9.402344 7.585938 9.527344 7.710938 9.527344 7.863281 C 9.527344 8.019531 9.402344 8.144531 9.25 8.144531 Z M 8.480469 4.0625 C 8.480469 4.269531 8.3125 4.4375 8.105469 4.4375 C 7.894531 4.4375 7.726562 4.269531 7.726562 4.0625 L 7.726562 3.394531 C 7.726562 3.1875 7.894531 3.019531 8.105469 3.019531 C 8.3125 3.019531 8.480469 3.1875 8.480469 3.394531 Z M 6.296875 4.445312 C 6.402344 4.625 6.339844 4.855469 6.160156 4.960938 C 5.980469 5.0625 5.75 5 5.644531 4.820312 L 5.3125 4.246094 C 5.210938 4.0625 5.269531 3.832031 5.453125 3.730469 C 5.632812 3.625 5.863281 3.6875 5.964844 3.867188 Z M 4.601562 5.867188 C 4.78125 5.972656 4.84375 6.203125 4.738281 6.382812 C 4.632812 6.5625 4.402344 6.625 4.222656 6.519531 L 3.644531 6.1875 C 3.464844 6.082031 3.40625 5.851562 3.507812 5.671875 C 3.613281 5.492188 3.84375 5.429688 4.023438 5.535156 Z M 10.5625 4.820312 C 10.457031 5 10.226562 5.0625 10.046875 4.960938 C 9.867188 4.855469 9.804688 4.625 9.910156 4.445312 L 10.242188 3.867188 C 10.347656 3.6875 10.578125 3.625 10.757812 3.730469 C 10.9375 3.835938 11 4.066406 10.894531 4.246094 Z M 11.984375 6.519531 C 11.804688 6.625 11.574219 6.5625 11.46875 6.382812 C 11.367188 6.203125 11.425781 5.972656 11.605469 5.867188 L 12.183594 5.535156 C 12.363281 5.429688 12.59375 5.492188 12.699219 5.671875 C 12.800781 5.851562 12.742188 6.082031 12.5625 6.1875 Z M 18.652344 13.328125 L 19.132812 11.535156 L 20.441406 12.847656 Z M 24.046875 6.621094 L 24.683594 5.980469 C 24.984375 5.679688 25.476562 5.679688 25.777344 5.980469 L 25.996094 6.199219 C 26.296875 6.5 26.296875 6.992188 25.996094 7.292969 L 25.359375 7.929688 Z M 24.824219 8.464844 L 20.976562 12.3125 L 19.664062 11 L 23.511719 7.152344 Z M 8.242188 19.398438 L 8.949219 21.261719 C 8.972656 21.320312 9.019531 21.355469 9.082031 21.359375 L 11.074219 21.457031 C 11.210938 21.460938 11.265625 21.632812 11.160156 21.71875 L 9.605469 22.96875 C 9.558594 23.007812 9.539062 23.0625 9.554688 23.121094 L 10.078125 25.046875 C 10.113281 25.179688 9.96875 25.285156 9.855469 25.210938 L 8.183594 24.117188 C 8.132812 24.085938 8.074219 24.085938 8.023438 24.117188 L 6.351562 25.210938 C 6.238281 25.285156 6.09375 25.179688 6.128906 25.046875 L 6.652344 23.121094 C 6.667969 23.0625 6.648438 23.007812 6.601562 22.96875 L 5.046875 21.71875 C 4.941406 21.632812 4.996094 21.460938 5.132812 21.457031 L 7.125 21.359375 C 7.1875 21.355469 7.234375 21.320312 7.257812 21.261719 L 7.964844 19.398438 C 8.011719 19.269531 8.195312 19.269531 8.242188 19.398438 Z M 25.21875 24.550781 C 25.21875 24.71875 25.136719 24.863281 24.988281 24.941406 C 24.84375 25.023438 24.675781 25.019531 24.535156 24.929688 C 24.367188 24.820312 24.195312 24.714844 24.023438 24.609375 L 24.023438 19.039062 C 24.207031 18.933594 24.382812 18.832031 24.554688 18.734375 C 24.699219 18.65625 24.859375 18.65625 25 18.738281 C 25.140625 18.820312 25.21875 18.960938 25.21875 19.121094 Z M 25.972656 22.667969 L 25.972656 21.003906 C 26.335938 21.109375 26.597656 21.441406 26.597656 21.835938 C 26.597656 22.230469 26.335938 22.566406 25.972656 22.667969 Z M 23.269531 24.441406 C 22.496094 23.988281 21.675781 23.585938 20.765625 23.386719 L 20.765625 20.335938 C 21.648438 20.101562 22.496094 19.644531 23.269531 19.203125 Z M 20.011719 23.332031 L 18.472656 23.332031 C 17.664062 23.332031 17.003906 22.671875 17.003906 21.867188 C 17.003906 21.0625 17.664062 20.402344 18.472656 20.402344 L 20.011719 20.402344 Z M 19.394531 24.085938 L 20.484375 24.085938 L 20.484375 26.007812 L 20.199219 26.007812 C 19.757812 26.007812 19.394531 25.644531 19.394531 25.203125 Z M 6.316406 19.410156 C 6.402344 19.601562 6.316406 19.824219 6.125 19.90625 C 5.933594 19.992188 5.710938 19.90625 5.628906 19.714844 C 5.132812 18.59375 4.855469 17.355469 4.855469 16.050781 C 4.855469 15.300781 4.949219 14.570312 5.121094 13.875 C 5.167969 13.671875 5.375 13.550781 5.574219 13.597656 C 5.777344 13.648438 5.902344 13.851562 5.851562 14.054688 C 5.695312 14.695312 5.609375 15.363281 5.609375 16.050781 C 5.609375 17.246094 5.863281 18.382812 6.316406 19.410156 Z M 16.753906 23.890625 C 16.949219 23.820312 17.164062 23.921875 17.234375 24.117188 C 17.304688 24.3125 17.203125 24.53125 17.007812 24.601562 C 16.050781 24.945312 15.015625 25.132812 13.941406 25.132812 C 13.117188 25.132812 12.320312 25.023438 11.566406 24.816406 C 11.363281 24.765625 11.246094 24.558594 11.300781 24.355469 C 11.355469 24.15625 11.5625 24.035156 11.761719 24.089844 C 12.457031 24.277344 13.1875 24.378906 13.941406 24.378906 C 14.925781 24.378906 15.875 24.207031 16.753906 23.890625 Z M 21.851562 13.445312 C 21.789062 13.246094 21.894531 13.035156 22.09375 12.96875 C 22.289062 12.902344 22.503906 13.011719 22.570312 13.210938 C 22.863281 14.101562 23.023438 15.058594 23.023438 16.050781 C 23.023438 16.472656 22.992188 16.890625 22.9375 17.300781 C 22.910156 17.503906 22.71875 17.648438 22.511719 17.621094 C 22.304688 17.59375 22.164062 17.402344 22.191406 17.195312 C 22.242188 16.820312 22.269531 16.4375 22.269531 16.050781 C 22.269531 15.140625 22.121094 14.265625 21.851562 13.445312 Z M 13.089844 7.761719 C 12.882812 7.785156 12.699219 7.632812 12.675781 7.425781 C 12.65625 7.21875 12.808594 7.035156 13.015625 7.011719 C 13.320312 6.984375 13.628906 6.96875 13.941406 6.96875 C 15.988281 6.96875 17.882812 7.648438 19.402344 8.792969 C 19.566406 8.917969 19.601562 9.15625 19.476562 9.320312 C 19.351562 9.488281 19.113281 9.519531 18.949219 9.394531 C 17.554688 8.34375 15.820312 7.71875 13.941406 7.71875 C 13.652344 7.71875 13.371094 7.734375 13.089844 7.761719 Z M 13.089844 7.761719 " fill-opacity="1" fill-rule="evenodd"/></g></svg>