<svg xmlns="http://www.w3.org/2000/svg" xmlns:xlink="http://www.w3.org/1999/xlink" width="40" zoomAndPan="magnify" viewBox="0 0 30 30.000001" height="40" preserveAspectRatio="xMidYMid meet" version="1.0"><defs><clipPath id="1bb676e9b5"><path d="M 0.484375 0 L 29.515625 0 L 29.515625 29.03125 L 0.484375 29.03125 Z M 0.484375 0 " clip-rule="nonzero"/></clipPath><clipPath id="8542cf232c"><path d="M 5.085938 2.902344 L 24.683594 2.902344 L 24.683594 26.128906 L 5.085938 26.128906 Z M 5.085938 2.902344 " clip-rule="nonzero"/></clipPath></defs><g clip-path="url(#1bb676e9b5)"><path fill="#ffffff" d="M 0.484375 0 L 29.515625 0 L 29.515625 29.03125 L 0.484375 29.03125 Z M 0.484375 0 " fill-opacity="1" fill-rule="nonzero"/><path fill="#ffffff" d="M 0.484375 0 L 29.515625 0 L 29.515625 29.03125 L 0.484375 29.03125 Z M 0.484375 0 " fill-opacity="1" fill-rule="nonzero"/></g><g clip-path="url(#8542cf232c)"><path fill="#935f3d" d="M 24.898438 18.746094 L 24.898438 7.683594 C 24.898438 6.96875 24.324219 6.386719 23.605469 6.386719 L 21.109375 6.386719 L 21.109375 4.113281 C 21.109375 3.445312 20.566406 2.902344 19.898438 2.902344 L 8.226562 2.902344 C 7.558594 2.902344 7.015625 3.445312 7.015625 4.113281 L 7.015625 6.386719 L 6.382812 6.386719 C 5.667969 6.390625 5.085938 6.972656 5.085938 7.683594 L 5.085938 20.183594 C 5.085938 20.894531 5.664062 21.476562 6.382812 21.476562 L 13.5 21.476562 L 13.5 23.824219 L 11.398438 23.824219 C 10.6875 23.824219 10.105469 24.402344 10.105469 25.113281 L 10.105469 25.875 C 10.105469 26.015625 10.21875 26.128906 10.359375 26.128906 L 19.621094 26.128906 C 19.761719 26.128906 19.878906 26.015625 19.878906 25.875 L 19.878906 25.113281 C 19.878906 24.402344 19.300781 23.824219 18.582031 23.824219 L 16.480469 23.824219 L 16.480469 21.476562 L 23.605469 21.476562 C 24.316406 21.476562 24.898438 20.894531 24.898438 20.183594 C 24.894531 20.179688 24.910156 18.75 24.898438 18.746094 Z M 19.75 15.035156 C 19.796875 14.085938 19.90625 11.933594 19.949219 11.003906 L 21.910156 11.003906 C 21.953125 11.925781 22.0625 14.09375 22.105469 15.035156 Z M 22.664062 15.550781 L 22.878906 16.492188 L 18.984375 16.492188 L 19.195312 15.550781 Z M 22.066406 10.492188 L 19.800781 10.492188 L 19.128906 9.953125 C 19.113281 9.863281 18.984375 9.140625 18.976562 9.066406 L 19.0625 9.066406 L 19.527344 9.898438 C 19.574219 9.980469 19.660156 10.03125 19.75 10.03125 C 19.929688 10.023438 20.253906 10.089844 20.316406 9.851562 C 20.316406 9.851562 20.554688 9.0625 20.554688 9.0625 L 21.3125 9.0625 L 21.554688 9.851562 C 21.617188 10.09375 21.9375 10.023438 22.121094 10.03125 C 22.21875 10.03125 22.300781 9.980469 22.351562 9.898438 L 22.808594 9.066406 L 22.894531 9.066406 C 22.878906 9.1875 22.769531 9.816406 22.746094 9.953125 Z M 7.527344 4.117188 C 7.527344 3.734375 7.839844 3.421875 8.222656 3.421875 L 19.894531 3.421875 C 20.28125 3.421875 20.589844 3.734375 20.589844 4.117188 L 20.589844 5.222656 L 7.527344 5.222656 Z M 7.527344 5.734375 L 20.59375 5.734375 L 20.59375 8.558594 C 20.425781 8.558594 20.167969 8.523438 20.113281 8.742188 C 20.113281 8.742188 19.882812 9.5 19.882812 9.5 L 19.429688 8.6875 C 19.386719 8.609375 19.300781 8.554688 19.207031 8.554688 L 18.664062 8.554688 C 18.507812 8.550781 18.382812 8.703125 18.414062 8.855469 C 18.464844 9.164062 18.578125 9.824219 18.632812 10.132812 C 18.640625 10.195312 18.675781 10.25 18.722656 10.285156 L 19.441406 10.859375 C 19.398438 11.683594 19.277344 14.167969 19.234375 15.03125 C 19.054688 15.03125 18.789062 14.996094 18.742188 15.230469 C 18.742188 15.230469 18.457031 16.488281 18.457031 16.488281 L 8.226562 16.488281 C 7.839844 16.488281 7.53125 16.171875 7.53125 15.792969 L 7.53125 5.734375 Z M 5.597656 7.683594 C 5.597656 7.25 5.949219 6.898438 6.382812 6.898438 L 7.011719 6.898438 L 7.011719 15.796875 C 7.011719 16.464844 7.558594 17.003906 8.222656 17.003906 L 23.195312 17.003906 C 23.355469 17.007812 23.484375 16.851562 23.445312 16.691406 L 23.117188 15.238281 C 23.0625 15 22.808594 15.035156 22.621094 15.035156 C 22.578125 14.160156 22.457031 11.710938 22.417969 10.863281 L 23.136719 10.289062 C 23.1875 10.253906 23.21875 10.195312 23.226562 10.136719 C 23.28125 9.816406 23.390625 9.175781 23.445312 8.859375 C 23.476562 8.710938 23.351562 8.554688 23.195312 8.558594 L 22.648438 8.558594 C 22.558594 8.558594 22.472656 8.609375 22.425781 8.691406 L 21.976562 9.503906 L 21.746094 8.746094 C 21.671875 8.476562 21.308594 8.582031 21.109375 8.5625 L 21.109375 6.898438 L 23.605469 6.898438 C 24.035156 6.898438 24.386719 7.25 24.386719 7.683594 L 24.386719 18.496094 L 5.597656 18.496094 Z M 18.585938 24.335938 C 19.019531 24.335938 19.367188 24.6875 19.367188 25.113281 L 19.367188 25.617188 L 10.617188 25.617188 L 10.617188 25.113281 C 10.617188 24.683594 10.96875 24.335938 11.398438 24.335938 Z M 14.011719 23.828125 L 14.011719 21.480469 L 15.972656 21.480469 L 15.972656 23.828125 Z M 24.386719 20.1875 C 24.386719 20.617188 24.035156 20.96875 23.605469 20.96875 L 6.382812 20.96875 C 5.949219 20.96875 5.597656 20.617188 5.597656 20.1875 L 5.597656 19.007812 L 24.386719 19.007812 Z M 9.609375 15.648438 L 11.300781 15.648438 C 11.71875 15.648438 12.054688 15.308594 12.054688 14.894531 L 12.054688 14.308594 L 14.480469 14.308594 L 14.480469 14.894531 C 14.480469 15.3125 14.824219 15.648438 15.234375 15.648438 L 16.925781 15.648438 C 17.34375 15.648438 17.679688 15.308594 17.679688 14.894531 L 17.679688 13.203125 C 17.679688 12.785156 17.339844 12.449219 16.925781 12.449219 L 15.234375 12.449219 C 14.816406 12.449219 14.480469 12.792969 14.480469 13.203125 L 14.480469 13.792969 L 12.054688 13.792969 L 12.054688 13.203125 C 12.054688 12.785156 11.714844 12.449219 11.300781 12.449219 L 10.714844 12.449219 L 10.714844 10.382812 L 11.300781 10.382812 C 11.71875 10.382812 12.054688 10.039062 12.054688 9.628906 L 12.054688 7.933594 C 12.054688 7.511719 11.714844 7.175781 11.300781 7.175781 L 9.609375 7.175781 C 9.191406 7.175781 8.855469 7.519531 8.855469 7.933594 L 8.855469 9.621094 C 8.855469 10.039062 9.195312 10.378906 9.609375 10.378906 L 10.195312 10.378906 L 10.195312 12.445312 L 9.609375 12.445312 C 9.191406 12.445312 8.855469 12.785156 8.855469 13.199219 L 8.855469 14.890625 C 8.847656 15.308594 9.191406 15.648438 9.609375 15.648438 Z M 14.996094 13.203125 C 14.996094 13.066406 15.105469 12.960938 15.242188 12.960938 L 16.929688 12.960938 C 17.066406 12.960938 17.175781 13.066406 17.175781 13.203125 L 17.175781 14.894531 C 17.175781 15.03125 17.066406 15.140625 16.929688 15.140625 L 15.242188 15.140625 C 15.105469 15.140625 14.996094 15.03125 14.996094 14.894531 Z M 9.609375 9.863281 C 9.472656 9.863281 9.363281 9.753906 9.363281 9.617188 L 9.363281 7.933594 C 9.363281 7.796875 9.472656 7.6875 9.609375 7.6875 L 11.300781 7.6875 C 11.4375 7.6875 11.542969 7.796875 11.542969 7.933594 L 11.542969 9.621094 C 11.542969 9.757812 11.4375 9.867188 11.300781 9.867188 L 9.609375 9.867188 Z M 9.363281 13.203125 C 9.363281 13.066406 9.472656 12.960938 9.609375 12.960938 L 11.300781 12.960938 C 11.4375 12.960938 11.542969 13.066406 11.542969 13.203125 L 11.542969 14.894531 C 11.542969 15.03125 11.4375 15.140625 11.300781 15.140625 L 9.609375 15.140625 C 9.472656 15.140625 9.363281 15.03125 9.363281 14.894531 Z M 17.484375 4.628906 C 17.074219 4.617188 17.074219 4.003906 17.484375 3.996094 C 17.898438 4.007812 17.898438 4.617188 17.484375 4.628906 Z M 18.441406 4.628906 C 18.027344 4.617188 18.027344 4.003906 18.441406 3.996094 C 18.855469 4.003906 18.855469 4.621094 18.441406 4.628906 Z M 19.394531 4.628906 C 18.984375 4.617188 18.984375 4.003906 19.394531 3.996094 C 19.808594 4.003906 19.808594 4.621094 19.394531 4.628906 Z M 19.394531 4.628906 " fill-opacity="1" fill-rule="nonzero"/></g></svg>