<svg xmlns="http://www.w3.org/2000/svg" xmlns:xlink="http://www.w3.org/1999/xlink" width="40" zoomAndPan="magnify" viewBox="0 0 30 30.000001" height="40" preserveAspectRatio="xMidYMid meet" version="1.0"><defs><clipPath id="ef163a5ebc"><path d="M 0.484375 0 L 29.515625 0 L 29.515625 29.03125 L 0.484375 29.03125 Z M 0.484375 0 " clip-rule="nonzero"/></clipPath><clipPath id="916bfb0d6e"><path d="M 9 2.902344 L 25.074219 2.902344 L 25.074219 17 L 9 17 Z M 9 2.902344 " clip-rule="nonzero"/></clipPath><clipPath id="826b3ae746"><path d="M 4.75 16 L 15 16 L 15 26.128906 L 4.75 26.128906 Z M 4.75 16 " clip-rule="nonzero"/></clipPath></defs><g clip-path="url(#ef163a5ebc)"><path fill="#ffffff" d="M 0.484375 0 L 29.515625 0 L 29.515625 29.03125 L 0.484375 29.03125 Z M 0.484375 0 " fill-opacity="1" fill-rule="nonzero"/><path fill="#ffffff" d="M 0.484375 0 L 29.515625 0 L 29.515625 29.03125 L 0.484375 29.03125 Z M 0.484375 0 " fill-opacity="1" fill-rule="nonzero"/></g><g clip-path="url(#916bfb0d6e)"><path fill="#935f3d" d="M 24.722656 9.339844 L 22.308594 10.292969 L 22.308594 8.382812 C 22.308594 7.914062 21.929688 7.535156 21.464844 7.535156 L 19.164062 7.535156 C 19.878906 7.097656 20.359375 6.308594 20.359375 5.40625 C 20.359375 4.027344 19.242188 2.914062 17.867188 2.914062 C 16.492188 2.914062 15.375 4.027344 15.375 5.40625 C 15.375 6.308594 15.855469 7.097656 16.574219 7.535156 L 14.453125 7.535156 C 15.007812 7.15625 15.375 6.519531 15.375 5.796875 C 15.375 4.636719 14.433594 3.695312 13.273438 3.695312 C 12.113281 3.695312 11.171875 4.636719 11.171875 5.796875 C 11.171875 6.519531 11.535156 7.15625 12.09375 7.535156 L 10.445312 7.535156 C 9.980469 7.535156 9.601562 7.914062 9.601562 8.382812 L 9.601562 15.410156 C 9.601562 15.878906 9.980469 16.257812 10.445312 16.257812 L 21.460938 16.257812 C 21.929688 16.257812 22.308594 15.878906 22.308594 15.410156 L 22.308594 13.03125 L 24.722656 13.984375 C 24.972656 14.085938 25.242188 13.902344 25.242188 13.632812 L 25.242188 9.691406 C 25.242188 9.421875 24.972656 9.238281 24.722656 9.335938 Z M 24.722656 9.339844 " fill-opacity="1" fill-rule="nonzero"/></g><path fill="#ffffff" d="M 18.429688 11.515625 C 18.710938 11.667969 18.710938 12.125 18.429688 12.277344 L 16.589844 13.257812 L 14.554688 14.34375 C 14.3125 14.472656 14.035156 14.269531 14.035156 13.960938 L 14.035156 9.832031 C 14.035156 9.523438 14.3125 9.320312 14.554688 9.449219 L 16.589844 10.535156 Z M 18.429688 11.515625 " fill-opacity="1" fill-rule="nonzero"/><path fill="#d49b6e" d="M 10.183594 8.402344 L 9.019531 8.402344 C 7.394531 8.402344 6.082031 9.71875 6.082031 11.34375 L 6.082031 16.261719 C 6.082031 17.882812 7.394531 19.199219 9.019531 19.199219 L 10.183594 19.199219 C 11.804688 19.199219 13.121094 17.882812 13.121094 16.261719 L 13.121094 11.34375 C 13.121094 9.71875 11.804688 8.402344 10.183594 8.402344 Z M 10.183594 8.402344 " fill-opacity="1" fill-rule="nonzero"/><path fill="#ffffff" d="M 6.082031 11.925781 L 9.238281 11.925781 C 9.425781 11.925781 9.574219 12.074219 9.574219 12.261719 L 9.574219 12.394531 C 9.574219 12.582031 9.425781 12.730469 9.238281 12.730469 L 6.082031 12.730469 Z M 6.082031 11.925781 " fill-opacity="1" fill-rule="nonzero"/><path fill="#ffffff" d="M 6.082031 13.398438 L 9.238281 13.398438 C 9.425781 13.398438 9.574219 13.550781 9.574219 13.734375 L 9.574219 13.867188 C 9.574219 14.054688 9.425781 14.207031 9.238281 14.207031 L 6.082031 14.207031 Z M 6.082031 13.398438 " fill-opacity="1" fill-rule="nonzero"/><path fill="#ffffff" d="M 6.082031 14.789062 L 9.238281 14.789062 C 9.425781 14.789062 9.574219 14.941406 9.574219 15.128906 L 9.574219 15.261719 C 9.574219 15.445312 9.425781 15.597656 9.238281 15.597656 L 6.082031 15.597656 Z M 6.082031 14.789062 " fill-opacity="1" fill-rule="nonzero"/><g clip-path="url(#826b3ae746)"><path fill="#935f3d" d="M 13.113281 16.394531 L 6.019531 16.394531 C 5.285156 16.394531 4.75 17.101562 4.964844 17.804688 C 5.152344 18.429688 5.507812 19.167969 6.167969 19.828125 C 6.363281 20.023438 7.261719 20.890625 8.679688 21.164062 L 8.679688 24.230469 L 8.1875 24.230469 C 7.664062 24.230469 7.242188 24.652344 7.242188 25.175781 C 7.242188 25.699219 7.664062 26.121094 8.1875 26.121094 L 11.011719 26.121094 C 11.535156 26.121094 11.960938 25.699219 11.960938 25.175781 C 11.960938 24.652344 11.535156 24.230469 11.011719 24.230469 L 10.523438 24.230469 L 10.523438 21.148438 C 11.429688 20.953125 12.097656 20.527344 12.453125 20.253906 C 13.398438 19.539062 13.894531 18.613281 14.160156 17.84375 C 14.402344 17.132812 13.867188 16.394531 13.113281 16.394531 Z M 13.113281 16.394531 " fill-opacity="1" fill-rule="nonzero"/></g></svg>