<svg xmlns="http://www.w3.org/2000/svg" xmlns:xlink="http://www.w3.org/1999/xlink" width="40" zoomAndPan="magnify" viewBox="0 0 30 30.000001" height="40" preserveAspectRatio="xMidYMid meet" version="1.0"><defs><clipPath id="3ecff25254"><path d="M 0.484375 0 L 29.515625 0 L 29.515625 29.03125 L 0.484375 29.03125 Z M 0.484375 0 " clip-rule="nonzero"/></clipPath><clipPath id="7e106db4b1"><path d="M 3.386719 14 L 11 14 L 11 22 L 3.386719 22 Z M 3.386719 14 " clip-rule="nonzero"/></clipPath><clipPath id="1974f0bf49"><path d="M 19 16 L 26.613281 16 L 26.613281 24 L 19 24 Z M 19 16 " clip-rule="nonzero"/></clipPath><clipPath id="132fce7391"><path d="M 8 22 L 22 22 L 22 26.128906 L 8 26.128906 Z M 8 22 " clip-rule="nonzero"/></clipPath><clipPath id="951786e8ff"><path d="M 8 2.902344 L 22 2.902344 L 22 14 L 8 14 Z M 8 2.902344 " clip-rule="nonzero"/></clipPath></defs><g clip-path="url(#3ecff25254)"><path fill="#ffffff" d="M 0.484375 0 L 29.515625 0 L 29.515625 29.03125 L 0.484375 29.03125 Z M 0.484375 0 " fill-opacity="1" fill-rule="nonzero"/><path fill="#ffffff" d="M 0.484375 0 L 29.515625 0 L 29.515625 29.03125 L 0.484375 29.03125 Z M 0.484375 0 " fill-opacity="1" fill-rule="nonzero"/></g><path fill="#935f3d" d="M 15.371094 4.898438 C 15.371094 5.050781 15.320312 5.179688 15.210938 5.285156 C 15.105469 5.390625 14.976562 5.445312 14.828125 5.445312 C 14.675781 5.445312 14.550781 5.390625 14.441406 5.285156 C 14.335938 5.179688 14.285156 5.050781 14.285156 4.898438 C 14.285156 4.75 14.335938 4.621094 14.441406 4.515625 C 14.550781 4.40625 14.675781 4.355469 14.828125 4.355469 C 14.976562 4.355469 15.105469 4.40625 15.210938 4.515625 C 15.320312 4.621094 15.371094 4.75 15.371094 4.898438 Z M 15.371094 4.898438 " fill-opacity="1" fill-rule="nonzero"/><path fill="#935f3d" d="M 13.195312 24.316406 C 13.195312 24.515625 13.359375 24.675781 13.558594 24.675781 L 16.097656 24.675781 C 16.296875 24.675781 16.460938 24.515625 16.460938 24.316406 C 16.460938 24.113281 16.296875 23.953125 16.097656 23.953125 L 13.558594 23.953125 C 13.359375 23.953125 13.195312 24.113281 13.195312 24.316406 Z M 13.195312 24.316406 " fill-opacity="1" fill-rule="nonzero"/><path fill="#935f3d" d="M 16.605469 15.660156 C 17.332031 15.097656 17.730469 14.242188 17.730469 13.320312 C 17.730469 12.484375 17.386719 11.683594 16.789062 11.121094 C 16.1875 10.578125 15.425781 10.304688 14.628906 10.359375 C 13.195312 10.46875 12.035156 11.648438 11.941406 13.117188 C 11.886719 14.117188 12.304688 15.058594 13.066406 15.660156 C 13.285156 15.839844 13.414062 16.078125 13.414062 16.347656 L 13.414062 16.894531 C 13.414062 17.21875 13.667969 17.601562 14.046875 17.601562 L 15.625 17.601562 C 16.007812 17.601562 16.242188 17.238281 16.242188 16.894531 L 16.242188 16.367188 C 16.242188 16.113281 16.371094 15.839844 16.605469 15.660156 Z M 16.152344 15.078125 C 15.753906 15.386719 15.515625 15.878906 15.515625 16.367188 L 15.515625 16.875 L 14.136719 16.875 L 14.136719 16.347656 C 14.136719 15.859375 13.921875 15.40625 13.519531 15.078125 C 12.941406 14.625 12.632812 13.898438 12.667969 13.15625 C 12.742188 12.046875 13.613281 11.140625 14.683594 11.070312 C 15.28125 11.03125 15.863281 11.230469 16.296875 11.648438 C 16.75 12.066406 17.003906 12.683594 17.003906 13.320312 C 17.003906 14.007812 16.695312 14.660156 16.152344 15.078125 Z M 16.152344 15.078125 " fill-opacity="1" fill-rule="nonzero"/><path fill="#935f3d" d="M 15.917969 18.507812 C 15.917969 18.308594 15.753906 18.144531 15.554688 18.144531 L 14.101562 18.144531 C 13.902344 18.144531 13.738281 18.308594 13.738281 18.507812 C 13.738281 18.707031 13.902344 18.871094 14.101562 18.871094 L 15.554688 18.871094 C 15.753906 18.871094 15.917969 18.707031 15.917969 18.507812 Z M 15.917969 18.507812 " fill-opacity="1" fill-rule="nonzero"/><path fill="#935f3d" d="M 14.285156 19.414062 C 14.082031 19.414062 13.921875 19.578125 13.921875 19.777344 C 13.921875 19.976562 14.082031 20.140625 14.285156 20.140625 L 15.371094 20.140625 C 15.570312 20.140625 15.734375 19.976562 15.734375 19.777344 C 15.734375 19.578125 15.570312 19.414062 15.371094 19.414062 Z M 14.285156 19.414062 " fill-opacity="1" fill-rule="nonzero"/><path fill="#935f3d" d="M 14.464844 8.527344 L 14.464844 9.417969 C 14.464844 9.617188 14.628906 9.78125 14.828125 9.78125 C 15.027344 9.78125 15.191406 9.617188 15.191406 9.417969 L 15.191406 8.527344 C 15.191406 8.328125 15.027344 8.164062 14.828125 8.164062 C 14.628906 8.164062 14.464844 8.328125 14.464844 8.527344 Z M 14.464844 8.527344 " fill-opacity="1" fill-rule="nonzero"/><path fill="#935f3d" d="M 19.183594 12.703125 L 18.492188 12.703125 C 18.292969 12.703125 18.128906 12.863281 18.128906 13.066406 C 18.128906 13.265625 18.292969 13.425781 18.492188 13.425781 L 19.183594 13.425781 C 19.382812 13.425781 19.546875 13.265625 19.546875 13.066406 C 19.546875 12.863281 19.382812 12.703125 19.183594 12.703125 Z M 19.183594 12.703125 " fill-opacity="1" fill-rule="nonzero"/><path fill="#935f3d" d="M 10.472656 13.425781 L 11.164062 13.425781 C 11.363281 13.425781 11.523438 13.265625 11.523438 13.066406 C 11.523438 12.863281 11.363281 12.703125 11.164062 12.703125 L 10.472656 12.703125 C 10.273438 12.703125 10.109375 12.863281 10.109375 13.066406 C 10.109375 13.265625 10.273438 13.425781 10.472656 13.425781 Z M 10.472656 13.425781 " fill-opacity="1" fill-rule="nonzero"/><path fill="#935f3d" d="M 12.433594 10.667969 C 12.578125 10.523438 12.578125 10.304688 12.433594 10.160156 L 11.941406 9.652344 C 11.796875 9.507812 11.578125 9.507812 11.433594 9.652344 C 11.289062 9.796875 11.289062 10.015625 11.433594 10.160156 L 11.925781 10.667969 C 11.996094 10.742188 12.085938 10.777344 12.179688 10.777344 C 12.269531 10.761719 12.359375 10.722656 12.433594 10.667969 Z M 12.433594 10.667969 " fill-opacity="1" fill-rule="nonzero"/><path fill="#935f3d" d="M 17.914062 10.414062 L 17.914062 9.597656 C 17.820312 9.597656 17.730469 9.636719 17.675781 9.707031 L 17.1875 10.214844 C 17.042969 10.359375 17.042969 10.597656 17.1875 10.722656 C 17.257812 10.796875 17.351562 10.832031 17.441406 10.832031 C 17.53125 10.832031 17.621094 10.796875 17.695312 10.722656 L 17.894531 10.507812 C 17.914062 10.46875 17.914062 10.453125 17.914062 10.414062 Z M 17.914062 10.414062 " fill-opacity="1" fill-rule="nonzero"/><path fill="#935f3d" d="M 18.636719 6.550781 L 18.636719 10.414062 C 18.636719 10.886719 19 11.25 19.472656 11.25 L 20.761719 11.25 L 20.324219 12.394531 C 20.269531 12.539062 20.308594 12.703125 20.433594 12.808594 C 20.507812 12.863281 20.578125 12.882812 20.652344 12.882812 C 20.726562 12.882812 20.796875 12.863281 20.851562 12.828125 L 23.191406 11.25 L 25.023438 11.25 C 25.496094 11.25 25.859375 10.867188 25.859375 10.398438 L 25.859375 6.550781 C 25.859375 6.058594 25.480469 5.625 25.007812 5.625 L 19.492188 5.625 C 19.019531 5.625 18.636719 6.042969 18.636719 6.550781 Z M 25.171875 6.550781 L 25.171875 10.398438 C 25.171875 10.46875 25.117188 10.523438 25.0625 10.523438 L 23.121094 10.523438 C 23.046875 10.523438 22.976562 10.542969 22.921875 10.578125 L 21.414062 11.578125 L 21.632812 10.996094 C 21.667969 10.886719 21.648438 10.761719 21.597656 10.667969 C 21.523438 10.578125 21.414062 10.507812 21.304688 10.507812 L 19.492188 10.507812 C 19.363281 10.523438 19.363281 10.433594 19.363281 10.414062 L 19.363281 6.550781 C 19.363281 6.441406 19.4375 6.351562 19.492188 6.351562 L 25.0625 6.351562 C 25.097656 6.351562 25.171875 6.441406 25.171875 6.550781 Z M 25.171875 6.550781 " fill-opacity="1" fill-rule="nonzero"/><g clip-path="url(#7e106db4b1)"><path fill="#935f3d" d="M 4.230469 20.324219 L 6.0625 20.324219 L 8.402344 21.902344 C 8.457031 21.9375 8.53125 21.957031 8.605469 21.957031 C 8.675781 21.957031 8.765625 21.9375 8.820312 21.882812 C 8.949219 21.792969 8.984375 21.609375 8.929688 21.464844 L 8.53125 20.324219 L 9.820312 20.324219 C 10.292969 20.324219 10.652344 19.960938 10.652344 19.488281 L 10.652344 15.621094 C 10.652344 15.132812 10.273438 14.699219 9.800781 14.699219 L 4.25 14.699219 C 3.777344 14.699219 3.394531 15.113281 3.394531 15.621094 L 3.394531 19.46875 C 3.394531 19.941406 3.757812 20.324219 4.230469 20.324219 Z M 4.121094 15.621094 C 4.121094 15.515625 4.195312 15.421875 4.25 15.421875 L 9.820312 15.421875 C 9.855469 15.421875 9.945312 15.515625 9.945312 15.621094 L 9.945312 19.488281 C 9.945312 19.507812 9.945312 19.597656 9.835938 19.597656 L 8.023438 19.597656 C 7.894531 19.597656 7.789062 19.652344 7.734375 19.761719 C 7.660156 19.851562 7.640625 19.976562 7.695312 20.085938 L 7.914062 20.667969 L 6.410156 19.667969 C 6.355469 19.632812 6.28125 19.613281 6.207031 19.613281 L 4.230469 19.613281 C 4.175781 19.597656 4.121094 19.542969 4.121094 19.46875 Z M 4.121094 15.621094 " fill-opacity="1" fill-rule="nonzero"/></g><path fill="#935f3d" d="M 20.453125 13.589844 L 20.453125 15.605469 L 21.179688 15.605469 L 21.179688 13.480469 C 21.015625 13.574219 20.851562 13.609375 20.671875 13.609375 C 20.597656 13.609375 20.523438 13.589844 20.453125 13.589844 Z M 20.453125 13.589844 " fill-opacity="1" fill-rule="nonzero"/><g clip-path="url(#1974f0bf49)"><path fill="#935f3d" d="M 21.394531 23.589844 C 21.46875 23.589844 21.542969 23.570312 21.597656 23.535156 L 23.9375 21.957031 L 25.769531 21.957031 C 26.242188 21.957031 26.605469 21.574219 26.605469 21.101562 L 26.605469 17.257812 C 26.605469 16.765625 26.222656 16.332031 25.75 16.332031 L 20.214844 16.332031 C 19.761719 16.332031 19.363281 16.746094 19.363281 17.257812 L 19.363281 21.121094 C 19.363281 21.59375 19.726562 21.957031 20.199219 21.957031 L 21.488281 21.957031 L 21.050781 23.097656 C 20.996094 23.242188 21.035156 23.40625 21.160156 23.515625 C 21.25 23.570312 21.324219 23.589844 21.394531 23.589844 Z M 25.789062 21.230469 L 24.933594 21.230469 C 24.917969 21.195312 24.878906 21.140625 24.84375 21.121094 L 23.753906 20.285156 L 24.699219 19.34375 L 25.914062 20.160156 L 25.914062 21.101562 C 25.894531 21.175781 25.839844 21.230469 25.789062 21.230469 Z M 20.214844 17.054688 L 25.789062 17.054688 C 25.824219 17.054688 25.914062 17.148438 25.914062 17.257812 L 25.914062 19.289062 L 24.84375 18.582031 C 24.824219 18.5625 24.808594 18.5625 24.789062 18.542969 C 24.714844 18.507812 24.644531 18.507812 24.570312 18.507812 C 24.554688 18.507812 24.535156 18.527344 24.515625 18.527344 C 24.480469 18.542969 24.425781 18.5625 24.390625 18.597656 L 23.175781 19.816406 L 22.140625 19.015625 C 22.066406 18.960938 21.996094 18.945312 21.902344 18.945312 C 21.832031 18.945312 21.742188 18.960938 21.6875 19.015625 L 20.089844 20.140625 L 20.089844 17.257812 C 20.089844 17.148438 20.164062 17.054688 20.214844 17.054688 Z M 20.199219 21.230469 C 20.089844 21.230469 20.089844 21.140625 20.089844 21.121094 L 20.089844 21.03125 L 21.886719 19.761719 L 23.792969 21.230469 C 23.738281 21.230469 23.683594 21.246094 23.644531 21.285156 L 22.140625 22.28125 L 22.359375 21.703125 C 22.394531 21.59375 22.375 21.464844 22.320312 21.375 C 22.25 21.285156 22.140625 21.210938 22.03125 21.210938 L 20.199219 21.210938 Z M 20.199219 21.230469 " fill-opacity="1" fill-rule="nonzero"/></g><path fill="#935f3d" d="M 21.523438 9.199219 C 21.578125 9.234375 21.648438 9.253906 21.722656 9.253906 C 21.777344 9.253906 21.832031 9.234375 21.886719 9.21875 L 22.976562 8.671875 C 23.101562 8.617188 23.175781 8.492188 23.175781 8.347656 C 23.175781 8.203125 23.101562 8.074219 22.976562 8.019531 L 21.886719 7.476562 C 21.777344 7.421875 21.632812 7.421875 21.542969 7.492188 C 21.433594 7.566406 21.378906 7.675781 21.378906 7.800781 L 21.378906 8.890625 C 21.359375 9.019531 21.433594 9.128906 21.523438 9.199219 Z M 21.523438 9.199219 " fill-opacity="1" fill-rule="nonzero"/><path fill="#935f3d" d="M 21.542969 17.964844 C 21.542969 18.0625 21.507812 18.148438 21.433594 18.21875 C 21.363281 18.292969 21.277344 18.328125 21.179688 18.328125 C 21.078125 18.328125 20.992188 18.292969 20.921875 18.21875 C 20.851562 18.148438 20.816406 18.0625 20.816406 17.964844 C 20.816406 17.863281 20.851562 17.777344 20.921875 17.707031 C 20.992188 17.636719 21.078125 17.601562 21.179688 17.601562 C 21.277344 17.601562 21.363281 17.636719 21.433594 17.707031 C 21.507812 17.777344 21.542969 17.863281 21.542969 17.964844 Z M 21.542969 17.964844 " fill-opacity="1" fill-rule="nonzero"/><path fill="#935f3d" d="M 5.664062 18.691406 C 5.699219 18.691406 5.738281 18.691406 5.773438 18.671875 C 6.570312 18.453125 6.664062 17.726562 6.664062 16.875 L 7.386719 16.875 C 7.386719 17.820312 7.332031 18.074219 7.023438 18.164062 C 6.824219 18.21875 6.714844 18.417969 6.769531 18.617188 C 6.824219 18.78125 6.972656 18.890625 7.117188 18.890625 C 7.152344 18.890625 7.1875 18.890625 7.226562 18.871094 C 8.132812 18.617188 8.132812 17.726562 8.132812 16.710938 C 8.132812 16.675781 8.132812 16.65625 8.113281 16.621094 C 8.113281 16.585938 8.132812 16.566406 8.132812 16.53125 C 8.132812 16.332031 7.96875 16.167969 7.769531 16.167969 L 6.316406 16.167969 C 6.117188 16.167969 5.953125 16.332031 5.953125 16.53125 C 5.953125 17.617188 5.917969 17.910156 5.589844 18 C 5.390625 18.054688 5.285156 18.253906 5.335938 18.453125 C 5.355469 18.582031 5.5 18.691406 5.664062 18.691406 Z M 5.664062 18.691406 " fill-opacity="1" fill-rule="nonzero"/><g clip-path="url(#132fce7391)"><path fill="#935f3d" d="M 8.621094 22.679688 C 8.566406 22.679688 8.53125 22.679688 8.476562 22.664062 L 8.476562 25.039062 C 8.476562 25.640625 8.964844 26.128906 9.566406 26.128906 L 20.089844 26.128906 C 20.6875 26.128906 21.179688 25.640625 21.179688 25.039062 L 21.179688 24.296875 C 21.015625 24.261719 20.871094 24.1875 20.726562 24.078125 C 20.617188 23.988281 20.523438 23.878906 20.453125 23.753906 L 20.453125 25.039062 C 20.453125 25.238281 20.289062 25.402344 20.089844 25.402344 L 9.566406 25.402344 C 9.367188 25.402344 9.203125 25.238281 9.203125 25.039062 L 9.203125 22.5 C 9.019531 22.628906 8.820312 22.679688 8.621094 22.679688 Z M 8.621094 22.679688 " fill-opacity="1" fill-rule="nonzero"/></g><g clip-path="url(#951786e8ff)"><path fill="#935f3d" d="M 20.089844 2.902344 L 9.566406 2.902344 C 8.964844 2.902344 8.476562 3.394531 8.476562 3.992188 L 8.476562 13.972656 L 9.203125 13.972656 L 9.203125 3.992188 C 9.203125 3.792969 9.367188 3.628906 9.566406 3.628906 L 20.089844 3.628906 C 20.289062 3.628906 20.453125 3.792969 20.453125 3.992188 L 20.453125 4.898438 L 21.179688 4.898438 L 21.179688 3.992188 C 21.179688 3.394531 20.6875 2.902344 20.089844 2.902344 Z M 20.089844 2.902344 " fill-opacity="1" fill-rule="nonzero"/></g></svg>