<svg xmlns="http://www.w3.org/2000/svg" xmlns:xlink="http://www.w3.org/1999/xlink" width="40" zoomAndPan="magnify" viewBox="0 0 30 30.000001" height="40" preserveAspectRatio="xMidYMid meet" version="1.0"><defs><clipPath id="59642bcb20"><path d="M 0.484375 0 L 29.515625 0 L 29.515625 29.03125 L 0.484375 29.03125 Z M 0.484375 0 " clip-rule="nonzero"/></clipPath><clipPath id="8aca83046c"><path d="M 10 16 L 20 16 L 20 26.476562 L 10 26.476562 Z M 10 16 " clip-rule="nonzero"/></clipPath><clipPath id="23d202333a"><path d="M 4.679688 13 L 13 13 L 13 22 L 4.679688 22 Z M 4.679688 13 " clip-rule="nonzero"/></clipPath><clipPath id="fbc156e046"><path d="M 6 3.25 L 19 3.25 L 19 14 L 6 14 Z M 6 3.25 " clip-rule="nonzero"/></clipPath><clipPath id="6611efcefb"><path d="M 8 3.25 L 24 3.25 L 24 16 L 8 16 Z M 8 3.25 " clip-rule="nonzero"/></clipPath></defs><g clip-path="url(#59642bcb20)"><path fill="#ffffff" d="M 0.484375 0 L 29.515625 0 L 29.515625 29.03125 L 0.484375 29.03125 Z M 0.484375 0 " fill-opacity="1" fill-rule="nonzero"/><path fill="#ffffff" d="M 0.484375 0 L 29.515625 0 L 29.515625 29.03125 L 0.484375 29.03125 Z M 0.484375 0 " fill-opacity="1" fill-rule="nonzero"/></g><g clip-path="url(#8aca83046c)"><path fill="#935f3d" d="M 16.570312 25.855469 L 14.96875 24.691406 C 14.882812 24.628906 14.796875 24.628906 14.714844 24.691406 L 13.109375 25.855469 C 12.929688 25.988281 12.726562 26.054688 12.503906 26.054688 C 12.28125 26.054688 12.078125 25.988281 11.898438 25.855469 C 11.71875 25.726562 11.59375 25.554688 11.523438 25.339844 C 11.457031 25.128906 11.453125 24.917969 11.523438 24.703125 L 12.136719 22.820312 C 12.171875 22.71875 12.144531 22.640625 12.058594 22.578125 L 10.457031 21.414062 C 10.277344 21.28125 10.152344 21.109375 10.082031 20.898438 C 10.015625 20.6875 10.015625 20.472656 10.085938 20.261719 C 10.152344 20.050781 10.277344 19.878906 10.457031 19.746094 C 10.636719 19.617188 10.839844 19.550781 11.0625 19.550781 L 13.046875 19.550781 C 13.152344 19.550781 13.21875 19.5 13.25 19.398438 L 13.863281 17.515625 C 13.933594 17.300781 14.058594 17.132812 14.238281 17 C 14.417969 16.871094 14.621094 16.804688 14.84375 16.804688 C 15.066406 16.804688 15.269531 16.871094 15.449219 17 C 15.628906 17.132812 15.753906 17.300781 15.824219 17.515625 L 16.4375 19.398438 C 16.46875 19.5 16.539062 19.550781 16.644531 19.550781 L 18.628906 19.550781 C 18.851562 19.550781 19.050781 19.617188 19.230469 19.746094 C 19.410156 19.878906 19.535156 20.050781 19.605469 20.261719 C 19.671875 20.472656 19.671875 20.6875 19.605469 20.898438 C 19.535156 21.109375 19.414062 21.28125 19.234375 21.414062 L 17.628906 22.578125 C 17.542969 22.640625 17.515625 22.71875 17.550781 22.820312 L 18.160156 24.703125 C 18.210938 24.863281 18.222656 25.019531 18.195312 25.183594 C 18.171875 25.34375 18.109375 25.492188 18.011719 25.625 C 17.914062 25.757812 17.792969 25.863281 17.648438 25.9375 C 17.5 26.015625 17.347656 26.050781 17.183594 26.054688 C 16.957031 26.054688 16.753906 25.988281 16.570312 25.855469 Z M 16.640625 20.363281 C 16.417969 20.363281 16.214844 20.296875 16.035156 20.164062 C 15.851562 20.03125 15.730469 19.859375 15.660156 19.648438 L 15.046875 17.761719 C 15.015625 17.664062 14.945312 17.613281 14.839844 17.613281 C 14.734375 17.613281 14.667969 17.664062 14.636719 17.761719 L 14.023438 19.648438 C 13.953125 19.859375 13.828125 20.03125 13.648438 20.164062 C 13.46875 20.296875 13.265625 20.363281 13.042969 20.363281 L 11.058594 20.363281 C 10.953125 20.363281 10.882812 20.414062 10.851562 20.511719 C 10.820312 20.613281 10.847656 20.691406 10.929688 20.753906 L 12.535156 21.917969 C 12.714844 22.050781 12.839844 22.222656 12.910156 22.433594 C 12.976562 22.648438 12.976562 22.859375 12.910156 23.070312 L 12.296875 24.957031 C 12.265625 25.054688 12.289062 25.136719 12.375 25.199219 C 12.460938 25.261719 12.546875 25.261719 12.628906 25.199219 L 14.234375 24.035156 C 14.414062 23.902344 14.617188 23.835938 14.839844 23.835938 C 15.0625 23.835938 15.265625 23.902344 15.445312 24.035156 L 17.046875 25.199219 C 17.132812 25.261719 17.21875 25.261719 17.304688 25.199219 C 17.390625 25.136719 17.414062 25.054688 17.382812 24.957031 L 16.769531 23.070312 C 16.703125 22.859375 16.703125 22.648438 16.769531 22.433594 C 16.839844 22.222656 16.964844 22.050781 17.144531 21.917969 L 18.746094 20.753906 C 18.832031 20.691406 18.859375 20.613281 18.824219 20.511719 C 18.792969 20.414062 18.726562 20.363281 18.621094 20.363281 Z M 16.640625 20.363281 " fill-opacity="1" fill-rule="nonzero"/></g><g clip-path="url(#23d202333a)"><path fill="#935f3d" d="M 6.339844 21.511719 C 6.175781 21.398438 6.066406 21.242188 6.003906 21.050781 C 5.941406 20.863281 5.941406 20.671875 6.003906 20.480469 L 6.511719 18.917969 C 6.53125 18.863281 6.515625 18.824219 6.472656 18.792969 L 5.140625 17.820312 C 4.980469 17.703125 4.867188 17.546875 4.804688 17.359375 C 4.742188 17.167969 4.742188 16.976562 4.804688 16.785156 C 4.867188 16.59375 4.980469 16.441406 5.140625 16.324219 C 5.304688 16.207031 5.484375 16.148438 5.683594 16.148438 L 7.332031 16.148438 C 7.386719 16.148438 7.421875 16.121094 7.4375 16.066406 L 7.945312 14.503906 C 8.007812 14.3125 8.117188 14.160156 8.28125 14.039062 C 8.441406 13.921875 8.625 13.863281 8.824219 13.863281 C 9.023438 13.863281 9.207031 13.921875 9.367188 14.039062 C 9.53125 14.160156 9.640625 14.3125 9.703125 14.503906 L 10.210938 16.066406 C 10.226562 16.121094 10.261719 16.148438 10.316406 16.148438 L 11.964844 16.148438 C 12.164062 16.148438 12.34375 16.207031 12.507812 16.324219 C 12.667969 16.441406 12.78125 16.59375 12.84375 16.785156 C 12.90625 16.976562 12.90625 17.167969 12.84375 17.359375 C 12.78125 17.546875 12.667969 17.703125 12.507812 17.820312 L 11.175781 18.785156 C 11.132812 18.816406 11.117188 18.859375 11.136719 18.910156 L 11.433594 19.832031 C 11.476562 19.960938 11.457031 20.082031 11.378906 20.191406 C 11.300781 20.304688 11.191406 20.359375 11.054688 20.363281 C 10.953125 20.367188 10.886719 20.417969 10.855469 20.515625 C 10.824219 20.613281 10.851562 20.695312 10.933594 20.753906 L 11.171875 20.925781 C 11.304688 21.019531 11.359375 21.152344 11.335938 21.316406 C 11.3125 21.476562 11.222656 21.585938 11.066406 21.640625 C 10.761719 21.746094 10.480469 21.703125 10.21875 21.511719 L 8.890625 20.542969 C 8.847656 20.511719 8.800781 20.511719 8.757812 20.542969 L 7.425781 21.511719 C 7.265625 21.632812 7.085938 21.691406 6.882812 21.691406 C 6.683594 21.691406 6.5 21.632812 6.339844 21.511719 Z M 9.367188 19.886719 L 10.050781 20.382812 C 10.058594 20.347656 10.066406 20.3125 10.078125 20.273438 C 10.152344 20.019531 10.304688 19.824219 10.53125 19.6875 L 10.363281 19.160156 C 10.300781 18.96875 10.300781 18.777344 10.363281 18.589844 C 10.421875 18.398438 10.535156 18.246094 10.695312 18.128906 L 12.027344 17.160156 C 12.070312 17.128906 12.085938 17.085938 12.070312 17.035156 C 12.050781 16.984375 12.015625 16.960938 11.964844 16.960938 L 10.316406 16.960938 C 10.117188 16.960938 9.9375 16.902344 9.773438 16.785156 C 9.613281 16.667969 9.5 16.515625 9.4375 16.324219 L 8.929688 14.761719 C 8.914062 14.707031 8.878906 14.683594 8.824219 14.683594 C 8.769531 14.683594 8.734375 14.707031 8.71875 14.761719 L 8.210938 16.324219 C 8.148438 16.515625 8.035156 16.667969 7.875 16.785156 C 7.710938 16.902344 7.53125 16.960938 7.332031 16.960938 L 5.683594 16.960938 C 5.632812 16.960938 5.597656 16.984375 5.578125 17.035156 C 5.5625 17.085938 5.574219 17.128906 5.621094 17.160156 L 6.949219 18.128906 C 7.113281 18.246094 7.226562 18.398438 7.285156 18.589844 C 7.347656 18.777344 7.347656 18.96875 7.285156 19.160156 L 6.777344 20.726562 C 6.761719 20.777344 6.773438 20.820312 6.816406 20.851562 C 6.863281 20.882812 6.90625 20.882812 6.949219 20.851562 L 8.28125 19.882812 C 8.441406 19.765625 8.625 19.707031 8.824219 19.707031 C 9.023438 19.707031 9.207031 19.765625 9.367188 19.882812 Z M 9.367188 19.886719 " fill-opacity="1" fill-rule="nonzero"/></g><path fill="#935f3d" d="M 22.253906 21.511719 L 20.921875 20.546875 C 20.878906 20.515625 20.835938 20.515625 20.792969 20.546875 L 19.460938 21.511719 C 19.203125 21.703125 18.925781 21.746094 18.621094 21.640625 C 18.464844 21.589844 18.375 21.480469 18.351562 21.316406 C 18.328125 21.152344 18.382812 21.023438 18.515625 20.925781 L 18.75 20.757812 C 18.832031 20.695312 18.859375 20.617188 18.828125 20.519531 C 18.796875 20.417969 18.730469 20.367188 18.628906 20.367188 C 18.492188 20.363281 18.382812 20.304688 18.304688 20.195312 C 18.222656 20.085938 18.207031 19.964844 18.25 19.832031 L 18.546875 18.914062 C 18.5625 18.863281 18.550781 18.820312 18.507812 18.789062 L 17.175781 17.824219 C 17.011719 17.703125 16.902344 17.550781 16.839844 17.359375 C 16.777344 17.167969 16.777344 16.980469 16.839844 16.789062 C 16.902344 16.597656 17.011719 16.445312 17.175781 16.324219 C 17.335938 16.207031 17.519531 16.148438 17.71875 16.148438 L 19.363281 16.148438 C 19.417969 16.148438 19.453125 16.121094 19.46875 16.070312 L 19.976562 14.503906 C 20.039062 14.316406 20.152344 14.160156 20.316406 14.042969 C 20.476562 13.925781 20.65625 13.867188 20.859375 13.867188 C 21.058594 13.867188 21.238281 13.925781 21.402344 14.042969 C 21.5625 14.160156 21.675781 14.316406 21.738281 14.503906 L 22.246094 16.070312 C 22.261719 16.121094 22.296875 16.148438 22.351562 16.148438 L 23.996094 16.148438 C 24.199219 16.148438 24.378906 16.207031 24.539062 16.324219 C 24.703125 16.445312 24.816406 16.597656 24.875 16.789062 C 24.9375 16.980469 24.9375 17.167969 24.875 17.359375 C 24.816406 17.550781 24.703125 17.703125 24.539062 17.824219 L 23.210938 18.789062 C 23.164062 18.820312 23.152344 18.863281 23.167969 18.914062 L 23.679688 20.476562 C 23.742188 20.667969 23.742188 20.859375 23.679688 21.050781 C 23.617188 21.242188 23.503906 21.394531 23.339844 21.511719 C 23.179688 21.628906 23 21.691406 22.796875 21.691406 C 22.597656 21.691406 22.417969 21.628906 22.253906 21.511719 Z M 22.351562 16.964844 C 22.152344 16.964844 21.96875 16.90625 21.808594 16.789062 C 21.644531 16.667969 21.535156 16.515625 21.472656 16.324219 L 20.964844 14.761719 C 20.949219 14.707031 20.914062 14.683594 20.859375 14.683594 C 20.804688 14.683594 20.769531 14.707031 20.753906 14.761719 L 20.246094 16.324219 C 20.183594 16.515625 20.070312 16.667969 19.910156 16.789062 C 19.746094 16.90625 19.566406 16.964844 19.363281 16.964844 L 17.71875 16.964844 C 17.664062 16.964844 17.628906 16.988281 17.613281 17.039062 C 17.597656 17.089844 17.609375 17.132812 17.652344 17.164062 L 18.984375 18.132812 C 19.148438 18.25 19.257812 18.402344 19.320312 18.59375 C 19.382812 18.78125 19.382812 18.972656 19.320312 19.164062 L 19.148438 19.6875 C 19.375 19.824219 19.527344 20.015625 19.605469 20.269531 C 19.617188 20.304688 19.625 20.339844 19.632812 20.375 L 20.316406 19.882812 C 20.476562 19.761719 20.65625 19.703125 20.859375 19.703125 C 21.058594 19.703125 21.238281 19.761719 21.402344 19.882812 L 22.734375 20.847656 C 22.777344 20.882812 22.820312 20.882812 22.863281 20.847656 C 22.90625 20.816406 22.921875 20.777344 22.902344 20.722656 L 22.394531 19.160156 C 22.332031 18.96875 22.332031 18.777344 22.394531 18.589844 C 22.457031 18.398438 22.570312 18.246094 22.730469 18.128906 L 24.0625 17.160156 C 24.105469 17.128906 24.121094 17.085938 24.101562 17.035156 C 24.085938 16.984375 24.050781 16.960938 23.996094 16.960938 Z M 22.351562 16.964844 " fill-opacity="1" fill-rule="nonzero"/><g clip-path="url(#fbc156e046)"><path fill="#935f3d" d="M 7.308594 13.101562 C 7.210938 13.101562 7.121094 13.066406 7.042969 13.003906 C 6.96875 12.9375 6.921875 12.851562 6.90625 12.753906 C 6.855469 12.375 6.828125 11.992188 6.828125 11.609375 C 6.828125 11.285156 6.847656 10.964844 6.886719 10.644531 C 6.929688 10.324219 6.988281 10.003906 7.066406 9.691406 C 7.144531 9.378906 7.242188 9.070312 7.359375 8.769531 C 7.476562 8.46875 7.613281 8.175781 7.765625 7.890625 C 7.917969 7.605469 8.085938 7.332031 8.273438 7.066406 C 8.460938 6.804688 8.664062 6.550781 8.882812 6.3125 C 9.097656 6.074219 9.332031 5.847656 9.574219 5.636719 C 9.820312 5.429688 10.078125 5.234375 10.347656 5.054688 C 10.617188 4.875 10.894531 4.714844 11.1875 4.570312 C 11.476562 4.425781 11.773438 4.300781 12.078125 4.191406 C 12.382812 4.085938 12.691406 3.996094 13.007812 3.925781 C 13.324219 3.855469 13.640625 3.808594 13.964844 3.777344 C 14.285156 3.746094 14.609375 3.734375 14.929688 3.746094 C 15.253906 3.753906 15.574219 3.785156 15.894531 3.832031 C 16.214844 3.882812 16.53125 3.953125 16.839844 4.039062 C 17.152344 4.128906 17.457031 4.234375 17.753906 4.359375 C 17.859375 4.402344 17.929688 4.476562 17.972656 4.582031 C 18.015625 4.6875 18.015625 4.789062 17.972656 4.894531 C 17.925781 4.996094 17.851562 5.070312 17.75 5.113281 C 17.644531 5.152344 17.539062 5.152344 17.4375 5.109375 C 17.171875 4.996094 16.898438 4.902344 16.617188 4.820312 C 16.339844 4.742188 16.058594 4.679688 15.769531 4.636719 C 15.484375 4.59375 15.195312 4.566406 14.90625 4.558594 C 14.617188 4.550781 14.328125 4.558594 14.039062 4.585938 C 13.75 4.613281 13.464844 4.65625 13.179688 4.71875 C 12.898438 4.78125 12.621094 4.863281 12.347656 4.957031 C 12.074219 5.054688 11.804688 5.167969 11.546875 5.296875 C 11.289062 5.425781 11.039062 5.570312 10.796875 5.730469 C 10.554688 5.890625 10.324219 6.066406 10.101562 6.253906 C 9.882812 6.445312 9.675781 6.644531 9.480469 6.859375 C 9.285156 7.074219 9.105469 7.300781 8.9375 7.535156 C 8.769531 7.773438 8.617188 8.019531 8.480469 8.273438 C 8.34375 8.527344 8.222656 8.792969 8.117188 9.0625 C 8.011719 9.332031 7.921875 9.609375 7.851562 9.890625 C 7.78125 10.171875 7.730469 10.453125 7.691406 10.742188 C 7.65625 11.03125 7.640625 11.320312 7.640625 11.609375 C 7.640625 11.953125 7.664062 12.292969 7.714844 12.636719 C 7.730469 12.746094 7.703125 12.847656 7.636719 12.9375 C 7.570312 13.027344 7.480469 13.078125 7.367188 13.097656 C 7.351562 13.097656 7.332031 13.101562 7.308594 13.101562 Z M 7.308594 13.101562 " fill-opacity="1" fill-rule="nonzero"/></g><path fill="#935f3d" d="M 22.074219 13.101562 C 22.054688 13.101562 22.035156 13.101562 22.015625 13.097656 C 21.90625 13.082031 21.816406 13.027344 21.75 12.9375 C 21.683594 12.847656 21.65625 12.746094 21.671875 12.636719 C 21.722656 12.296875 21.746094 11.953125 21.746094 11.609375 C 21.746094 10.894531 21.640625 10.195312 21.429688 9.511719 C 21.390625 9.402344 21.398438 9.296875 21.449219 9.191406 C 21.5 9.089844 21.582031 9.019531 21.691406 8.988281 C 21.804688 8.953125 21.910156 8.964844 22.011719 9.019531 C 22.109375 9.078125 22.175781 9.160156 22.207031 9.273438 C 22.441406 10.035156 22.558594 10.816406 22.558594 11.613281 C 22.558594 11.996094 22.535156 12.378906 22.480469 12.757812 C 22.464844 12.855469 22.417969 12.9375 22.339844 13.003906 C 22.265625 13.070312 22.175781 13.101562 22.074219 13.101562 Z M 22.074219 13.101562 " fill-opacity="1" fill-rule="nonzero"/><g clip-path="url(#6611efcefb)"><path fill="#935f3d" d="M 14.691406 15.414062 C 14.289062 15.414062 13.941406 15.277344 13.644531 15.007812 L 9.480469 11.152344 C 9.332031 11.015625 9.210938 10.851562 9.125 10.667969 C 9.039062 10.480469 8.992188 10.285156 8.980469 10.078125 C 8.972656 9.875 9.003906 9.675781 9.074219 9.480469 C 9.144531 9.289062 9.25 9.117188 9.390625 8.964844 C 9.53125 8.816406 9.691406 8.699219 9.878906 8.613281 C 10.066406 8.527344 10.261719 8.480469 10.46875 8.472656 C 10.671875 8.464844 10.871094 8.496094 11.0625 8.570312 C 11.257812 8.640625 11.429688 8.746094 11.578125 8.886719 L 14.503906 11.59375 L 20.367188 4.019531 C 20.496094 3.859375 20.648438 3.734375 20.824219 3.636719 C 21 3.539062 21.191406 3.476562 21.390625 3.453125 C 21.589844 3.429688 21.789062 3.445312 21.984375 3.5 C 22.179688 3.554688 22.355469 3.644531 22.515625 3.765625 C 22.675781 3.890625 22.804688 4.039062 22.90625 4.214844 C 23.007812 4.390625 23.074219 4.578125 23.101562 4.777344 C 23.128906 4.976562 23.117188 5.175781 23.066406 5.371094 C 23.015625 5.566406 22.929688 5.746094 22.808594 5.910156 L 15.914062 14.816406 C 15.636719 15.171875 15.269531 15.371094 14.820312 15.410156 C 14.777344 15.414062 14.734375 15.414062 14.691406 15.414062 Z M 10.53125 9.292969 L 10.5 9.292969 C 10.175781 9.304688 9.953125 9.460938 9.839844 9.769531 C 9.726562 10.078125 9.792969 10.339844 10.035156 10.5625 L 14.203125 14.40625 C 14.359375 14.550781 14.542969 14.617188 14.757812 14.597656 C 14.96875 14.578125 15.144531 14.484375 15.273438 14.316406 L 22.171875 5.410156 C 22.296875 5.25 22.347656 5.070312 22.324219 4.867188 C 22.300781 4.664062 22.207031 4.5 22.046875 4.378906 C 21.886719 4.253906 21.703125 4.203125 21.5 4.230469 C 21.300781 4.257812 21.136719 4.351562 21.015625 4.515625 L 14.878906 12.441406 C 14.804688 12.535156 14.710938 12.589844 14.589844 12.597656 C 14.472656 12.609375 14.371094 12.574219 14.28125 12.492188 L 11.027344 9.484375 C 10.886719 9.355469 10.722656 9.292969 10.53125 9.292969 Z M 10.53125 9.292969 " fill-opacity="1" fill-rule="nonzero"/></g></svg>