<svg xmlns="http://www.w3.org/2000/svg" xmlns:xlink="http://www.w3.org/1999/xlink" width="40" zoomAndPan="magnify" viewBox="0 0 30 30.000001" height="40" preserveAspectRatio="xMidYMid meet" version="1.0"><defs><clipPath id="1353de75bd"><path d="M 0.484375 0 L 29.515625 0 L 29.515625 29.03125 L 0.484375 29.03125 Z M 0.484375 0 " clip-rule="nonzero"/></clipPath><clipPath id="a272890d22"><path d="M 3.386719 2.902344 L 26.613281 2.902344 L 26.613281 26.128906 L 3.386719 26.128906 Z M 3.386719 2.902344 " clip-rule="nonzero"/></clipPath></defs><g clip-path="url(#1353de75bd)"><path fill="#ffffff" d="M 0.484375 0 L 29.515625 0 L 29.515625 29.03125 L 0.484375 29.03125 Z M 0.484375 0 " fill-opacity="1" fill-rule="nonzero"/><path fill="#ffffff" d="M 0.484375 0 L 29.515625 0 L 29.515625 29.03125 L 0.484375 29.03125 Z M 0.484375 0 " fill-opacity="1" fill-rule="nonzero"/></g><g clip-path="url(#a272890d22)"><path fill="#935f3d" d="M 25.527344 12.289062 C 25.097656 12.289062 24.703125 12.167969 24.34375 11.929688 C 23.984375 11.6875 23.722656 11.367188 23.558594 10.96875 C 23.394531 10.570312 23.355469 10.160156 23.4375 9.738281 C 23.523438 9.3125 23.71875 8.949219 24.023438 8.644531 C 24.125 8.542969 24.203125 8.425781 24.257812 8.292969 C 24.308594 8.160156 24.335938 8.023438 24.335938 7.878906 C 24.335938 7.734375 24.308594 7.597656 24.253906 7.464844 C 24.199219 7.332031 24.121094 7.214844 24.019531 7.113281 L 22.402344 5.496094 C 22.300781 5.394531 22.183594 5.316406 22.050781 5.261719 C 21.917969 5.207031 21.78125 5.179688 21.636719 5.179688 C 21.492188 5.179688 21.355469 5.207031 21.222656 5.261719 C 21.089844 5.316406 20.972656 5.394531 20.871094 5.496094 C 20.566406 5.800781 20.203125 5.996094 19.777344 6.078125 C 19.355469 6.164062 18.945312 6.121094 18.546875 5.957031 C 18.148438 5.792969 17.828125 5.53125 17.585938 5.171875 C 17.347656 4.8125 17.226562 4.417969 17.226562 3.988281 C 17.226562 3.84375 17.199219 3.707031 17.144531 3.574219 C 17.089844 3.441406 17.011719 3.324219 16.910156 3.222656 C 16.808594 3.121094 16.691406 3.042969 16.558594 2.984375 C 16.425781 2.929688 16.289062 2.902344 16.144531 2.902344 L 13.855469 2.902344 C 13.710938 2.902344 13.574219 2.929688 13.441406 2.984375 C 13.308594 3.042969 13.191406 3.121094 13.089844 3.222656 C 12.988281 3.324219 12.910156 3.441406 12.855469 3.574219 C 12.800781 3.707031 12.773438 3.84375 12.773438 3.988281 C 12.773438 4.417969 12.652344 4.8125 12.414062 5.171875 C 12.171875 5.53125 11.851562 5.792969 11.453125 5.957031 C 11.054688 6.121094 10.644531 6.164062 10.222656 6.078125 C 9.796875 5.996094 9.433594 5.800781 9.128906 5.496094 C 9.027344 5.394531 8.910156 5.316406 8.777344 5.261719 C 8.644531 5.207031 8.507812 5.179688 8.363281 5.179688 C 8.21875 5.179688 8.082031 5.207031 7.949219 5.261719 C 7.816406 5.316406 7.699219 5.394531 7.597656 5.496094 L 5.980469 7.113281 C 5.878906 7.214844 5.800781 7.332031 5.746094 7.464844 C 5.691406 7.597656 5.664062 7.734375 5.664062 7.878906 C 5.664062 8.023438 5.691406 8.160156 5.746094 8.292969 C 5.800781 8.425781 5.878906 8.542969 5.980469 8.644531 C 6.285156 8.949219 6.480469 9.3125 6.5625 9.738281 C 6.648438 10.160156 6.605469 10.570312 6.441406 10.96875 C 6.277344 11.367188 6.015625 11.6875 5.65625 11.929688 C 5.296875 12.167969 4.902344 12.289062 4.472656 12.289062 C 4.328125 12.289062 4.1875 12.316406 4.058594 12.371094 C 3.925781 12.425781 3.808594 12.503906 3.707031 12.605469 C 3.601562 12.707031 3.523438 12.824219 3.46875 12.957031 C 3.414062 13.089844 3.386719 13.226562 3.386719 13.371094 L 3.386719 15.660156 C 3.386719 15.804688 3.414062 15.945312 3.46875 16.074219 C 3.523438 16.207031 3.601562 16.324219 3.707031 16.425781 C 3.808594 16.527344 3.925781 16.605469 4.058594 16.660156 C 4.1875 16.714844 4.328125 16.742188 4.472656 16.742188 C 4.902344 16.742188 5.296875 16.863281 5.65625 17.101562 C 6.015625 17.34375 6.277344 17.664062 6.441406 18.0625 C 6.605469 18.460938 6.644531 18.871094 6.5625 19.296875 C 6.476562 19.71875 6.28125 20.082031 5.976562 20.386719 C 5.875 20.488281 5.796875 20.605469 5.742188 20.738281 C 5.691406 20.871094 5.664062 21.011719 5.664062 21.152344 C 5.664062 21.296875 5.691406 21.433594 5.746094 21.566406 C 5.800781 21.699219 5.878906 21.816406 5.980469 21.917969 L 7.597656 23.535156 C 7.699219 23.636719 7.816406 23.714844 7.949219 23.769531 C 8.082031 23.824219 8.21875 23.851562 8.363281 23.851562 C 8.507812 23.851562 8.644531 23.824219 8.777344 23.769531 C 8.910156 23.714844 9.027344 23.636719 9.128906 23.535156 C 9.433594 23.230469 9.796875 23.035156 10.222656 22.953125 C 10.644531 22.871094 11.054688 22.910156 11.453125 23.074219 C 11.851562 23.238281 12.171875 23.5 12.414062 23.859375 C 12.652344 24.21875 12.773438 24.613281 12.773438 25.046875 C 12.773438 25.1875 12.800781 25.328125 12.855469 25.460938 C 12.910156 25.59375 12.988281 25.710938 13.089844 25.8125 C 13.191406 25.914062 13.308594 25.992188 13.441406 26.046875 C 13.574219 26.101562 13.710938 26.128906 13.855469 26.128906 L 16.144531 26.128906 C 16.289062 26.128906 16.425781 26.101562 16.558594 26.046875 C 16.691406 25.992188 16.808594 25.914062 16.910156 25.8125 C 17.011719 25.710938 17.089844 25.59375 17.144531 25.460938 C 17.199219 25.328125 17.226562 25.1875 17.226562 25.046875 C 17.226562 24.613281 17.347656 24.21875 17.585938 23.859375 C 17.828125 23.5 18.148438 23.238281 18.546875 23.074219 C 18.945312 22.910156 19.355469 22.871094 19.777344 22.953125 C 20.203125 23.035156 20.566406 23.230469 20.871094 23.535156 C 20.972656 23.636719 21.089844 23.714844 21.222656 23.769531 C 21.355469 23.824219 21.492188 23.851562 21.636719 23.851562 C 21.78125 23.851562 21.917969 23.824219 22.050781 23.769531 C 22.183594 23.714844 22.300781 23.636719 22.402344 23.535156 L 24.023438 21.917969 C 24.125 21.816406 24.203125 21.699219 24.257812 21.566406 C 24.3125 21.433594 24.339844 21.296875 24.339844 21.152344 C 24.339844 21.007812 24.3125 20.871094 24.253906 20.738281 C 24.199219 20.605469 24.121094 20.488281 24.019531 20.386719 C 23.714844 20.082031 23.519531 19.71875 23.4375 19.292969 C 23.351562 18.871094 23.394531 18.460938 23.558594 18.0625 C 23.722656 17.664062 23.984375 17.34375 24.34375 17.105469 C 24.703125 16.863281 25.097656 16.742188 25.527344 16.742188 C 25.671875 16.742188 25.8125 16.714844 25.941406 16.660156 C 26.074219 16.605469 26.191406 16.527344 26.292969 16.425781 C 26.398438 16.324219 26.476562 16.207031 26.53125 16.074219 C 26.585938 15.945312 26.613281 15.804688 26.613281 15.660156 L 26.613281 13.371094 C 26.613281 13.226562 26.585938 13.089844 26.53125 12.957031 C 26.476562 12.824219 26.398438 12.707031 26.292969 12.605469 C 26.191406 12.503906 26.074219 12.425781 25.941406 12.371094 C 25.8125 12.316406 25.671875 12.289062 25.527344 12.289062 Z M 25.839844 15.660156 C 25.839844 15.746094 25.808594 15.820312 25.746094 15.878906 C 25.6875 15.9375 25.613281 15.96875 25.527344 15.96875 C 24.941406 15.96875 24.402344 16.132812 23.914062 16.457031 C 23.425781 16.785156 23.066406 17.222656 22.84375 17.765625 C 22.617188 18.308594 22.5625 18.867188 22.675781 19.445312 C 22.792969 20.023438 23.058594 20.519531 23.472656 20.933594 C 23.535156 20.996094 23.5625 21.066406 23.5625 21.152344 C 23.5625 21.238281 23.535156 21.3125 23.472656 21.371094 L 21.855469 22.988281 C 21.796875 23.050781 21.722656 23.082031 21.636719 23.082031 C 21.550781 23.082031 21.476562 23.050781 21.417969 22.988281 C 21.003906 22.574219 20.503906 22.308594 19.929688 22.191406 C 19.351562 22.078125 18.792969 22.132812 18.25 22.359375 C 17.703125 22.582031 17.269531 22.941406 16.941406 23.429688 C 16.617188 23.917969 16.453125 24.457031 16.453125 25.046875 C 16.453125 25.128906 16.421875 25.203125 16.363281 25.261719 C 16.304688 25.324219 16.230469 25.355469 16.144531 25.355469 L 13.855469 25.355469 C 13.769531 25.355469 13.695312 25.324219 13.636719 25.261719 C 13.578125 25.203125 13.546875 25.128906 13.546875 25.046875 C 13.554688 24.457031 13.390625 23.914062 13.066406 23.425781 C 12.738281 22.933594 12.300781 22.578125 11.753906 22.359375 C 11.390625 22.207031 11.011719 22.128906 10.617188 22.128906 C 9.820312 22.132812 9.140625 22.417969 8.582031 22.988281 C 8.519531 23.046875 8.449219 23.078125 8.363281 23.078125 C 8.277344 23.078125 8.207031 23.046875 8.144531 22.988281 L 6.527344 21.371094 C 6.464844 21.3125 6.4375 21.238281 6.4375 21.152344 C 6.4375 21.066406 6.464844 20.996094 6.527344 20.933594 C 6.949219 20.519531 7.214844 20.023438 7.332031 19.445312 C 7.445312 18.867188 7.386719 18.308594 7.15625 17.765625 C 6.9375 17.214844 6.582031 16.78125 6.089844 16.453125 C 5.601562 16.125 5.0625 15.960938 4.472656 15.96875 C 4.386719 15.96875 4.3125 15.9375 4.253906 15.878906 C 4.191406 15.820312 4.160156 15.746094 4.160156 15.660156 L 4.160156 13.371094 C 4.160156 13.285156 4.191406 13.214844 4.253906 13.152344 C 4.3125 13.09375 4.386719 13.0625 4.472656 13.066406 C 5.0625 13.070312 5.601562 12.910156 6.089844 12.582031 C 6.582031 12.253906 6.9375 11.816406 7.15625 11.269531 C 7.386719 10.726562 7.445312 10.164062 7.332031 9.585938 C 7.214844 9.007812 6.949219 8.511719 6.527344 8.097656 C 6.464844 8.039062 6.4375 7.964844 6.4375 7.878906 C 6.4375 7.792969 6.464844 7.722656 6.527344 7.660156 L 8.144531 6.042969 C 8.203125 5.980469 8.277344 5.953125 8.363281 5.953125 C 8.449219 5.953125 8.523438 5.980469 8.582031 6.042969 C 8.996094 6.464844 9.492188 6.730469 10.070312 6.847656 C 10.648438 6.960938 11.210938 6.90625 11.753906 6.671875 C 12.300781 6.453125 12.738281 6.097656 13.066406 5.605469 C 13.390625 5.117188 13.554688 4.578125 13.546875 3.988281 C 13.546875 3.902344 13.578125 3.828125 13.636719 3.769531 C 13.695312 3.707031 13.769531 3.679688 13.855469 3.675781 L 16.144531 3.675781 C 16.230469 3.679688 16.304688 3.707031 16.363281 3.769531 C 16.421875 3.828125 16.453125 3.902344 16.453125 3.988281 C 16.445312 4.578125 16.609375 5.117188 16.933594 5.605469 C 17.261719 6.097656 17.699219 6.453125 18.246094 6.671875 C 18.789062 6.90625 19.351562 6.960938 19.929688 6.847656 C 20.507812 6.730469 21.003906 6.464844 21.417969 6.042969 C 21.476562 5.980469 21.550781 5.953125 21.636719 5.953125 C 21.722656 5.953125 21.796875 5.980469 21.855469 6.042969 L 23.472656 7.660156 C 23.53125 7.722656 23.5625 7.792969 23.5625 7.878906 C 23.5625 7.964844 23.53125 8.039062 23.472656 8.097656 C 23.058594 8.515625 22.792969 9.011719 22.675781 9.585938 C 22.5625 10.164062 22.617188 10.722656 22.84375 11.269531 C 23.066406 11.8125 23.425781 12.246094 23.914062 12.574219 C 24.402344 12.902344 24.941406 13.0625 25.527344 13.066406 C 25.613281 13.0625 25.6875 13.09375 25.746094 13.152344 C 25.808594 13.214844 25.839844 13.285156 25.839844 13.371094 Z M 25.839844 15.660156 " fill-opacity="1" fill-rule="nonzero"/></g><path fill="#935f3d" d="M 15 7.507812 C 14.539062 7.507812 14.085938 7.554688 13.632812 7.644531 C 13.183594 7.734375 12.742188 7.867188 12.320312 8.042969 C 11.894531 8.21875 11.488281 8.433594 11.109375 8.691406 C 10.726562 8.945312 10.371094 9.238281 10.046875 9.5625 C 9.71875 9.886719 9.429688 10.242188 9.175781 10.625 C 8.917969 11.007812 8.703125 11.410156 8.527344 11.835938 C 8.351562 12.261719 8.21875 12.699219 8.128906 13.148438 C 8.039062 13.601562 7.992188 14.054688 7.992188 14.515625 C 7.992188 14.976562 8.039062 15.433594 8.128906 15.882812 C 8.21875 16.335938 8.351562 16.773438 8.527344 17.199219 C 8.703125 17.621094 8.917969 18.027344 9.175781 18.410156 C 9.429688 18.792969 9.71875 19.144531 10.046875 19.46875 C 10.371094 19.796875 10.726562 20.085938 11.109375 20.339844 C 11.488281 20.597656 11.894531 20.8125 12.320312 20.988281 C 12.742188 21.164062 13.183594 21.296875 13.632812 21.386719 C 14.085938 21.476562 14.539062 21.523438 15 21.523438 C 15.460938 21.523438 15.914062 21.476562 16.367188 21.386719 C 16.816406 21.296875 17.257812 21.164062 17.679688 20.988281 C 18.105469 20.8125 18.511719 20.597656 18.890625 20.339844 C 19.273438 20.085938 19.628906 19.796875 19.953125 19.46875 C 20.28125 19.144531 20.570312 18.792969 20.824219 18.410156 C 21.082031 18.027344 21.296875 17.621094 21.472656 17.199219 C 21.648438 16.773438 21.78125 16.335938 21.871094 15.882812 C 21.960938 15.433594 22.007812 14.976562 22.007812 14.515625 C 22.007812 14.054688 21.960938 13.601562 21.871094 13.148438 C 21.78125 12.699219 21.648438 12.261719 21.472656 11.835938 C 21.292969 11.410156 21.078125 11.007812 20.824219 10.625 C 20.566406 10.242188 20.277344 9.890625 19.953125 9.5625 C 19.625 9.238281 19.273438 8.949219 18.890625 8.691406 C 18.507812 8.4375 18.105469 8.222656 17.679688 8.046875 C 17.253906 7.867188 16.816406 7.734375 16.367188 7.644531 C 15.914062 7.554688 15.460938 7.511719 15 7.507812 Z M 19.582031 14.902344 L 18.859375 14.902344 C 18.753906 14.902344 18.660156 14.867188 18.585938 14.789062 C 18.511719 14.714844 18.472656 14.621094 18.472656 14.515625 C 18.472656 14.410156 18.511719 14.316406 18.585938 14.242188 C 18.660156 14.167969 18.753906 14.128906 18.859375 14.128906 L 19.175781 14.128906 C 19.097656 13.265625 18.78125 12.503906 18.222656 11.835938 L 18 12.0625 C 17.925781 12.136719 17.835938 12.175781 17.730469 12.175781 C 17.621094 12.175781 17.53125 12.136719 17.453125 12.0625 C 17.378906 11.988281 17.339844 11.894531 17.339844 11.789062 C 17.339844 11.683594 17.378906 11.589844 17.453125 11.515625 L 17.679688 11.292969 C 17.015625 10.734375 16.25 10.417969 15.386719 10.339844 L 15.386719 10.65625 C 15.386719 10.761719 15.347656 10.855469 15.273438 10.929688 C 15.199219 11.007812 15.105469 11.042969 15 11.042969 C 14.894531 11.042969 14.800781 11.007812 14.726562 10.929688 C 14.652344 10.855469 14.613281 10.761719 14.613281 10.65625 L 14.613281 10.339844 C 13.75 10.417969 12.984375 10.734375 12.320312 11.292969 L 12.546875 11.515625 C 12.621094 11.589844 12.660156 11.683594 12.660156 11.789062 C 12.660156 11.894531 12.621094 11.988281 12.546875 12.0625 C 12.46875 12.136719 12.378906 12.175781 12.269531 12.175781 C 12.164062 12.175781 12.074219 12.136719 12 12.0625 L 11.777344 11.835938 C 11.21875 12.503906 10.902344 13.265625 10.824219 14.128906 L 11.140625 14.128906 C 11.246094 14.128906 11.339844 14.167969 11.414062 14.242188 C 11.488281 14.316406 11.527344 14.410156 11.527344 14.515625 C 11.527344 14.621094 11.488281 14.714844 11.414062 14.789062 C 11.339844 14.867188 11.246094 14.902344 11.140625 14.902344 L 10.417969 14.902344 C 10.308594 14.902344 10.21875 14.867188 10.144531 14.789062 C 10.066406 14.714844 10.03125 14.621094 10.03125 14.515625 C 10.03125 13.859375 10.15625 13.226562 10.40625 12.621094 C 10.65625 12.015625 11.011719 11.476562 11.476562 11.011719 C 11.480469 11.007812 11.480469 11.003906 11.484375 11 C 11.488281 10.996094 11.492188 10.996094 11.496094 10.992188 C 11.726562 10.765625 11.976562 10.558594 12.25 10.378906 C 12.519531 10.199219 12.804688 10.046875 13.105469 9.921875 C 13.40625 9.796875 13.714844 9.703125 14.035156 9.640625 C 14.351562 9.578125 14.675781 9.546875 15 9.546875 C 15.324219 9.546875 15.648438 9.578125 15.964844 9.640625 C 16.285156 9.703125 16.59375 9.796875 16.894531 9.921875 C 17.195312 10.046875 17.480469 10.199219 17.75 10.378906 C 18.023438 10.558594 18.273438 10.765625 18.503906 10.992188 C 18.507812 10.996094 18.511719 10.996094 18.515625 11 C 18.519531 11.003906 18.519531 11.007812 18.523438 11.011719 C 18.988281 11.476562 19.34375 12.015625 19.59375 12.621094 C 19.84375 13.226562 19.96875 13.859375 19.96875 14.515625 C 19.96875 14.621094 19.933594 14.714844 19.855469 14.789062 C 19.78125 14.867188 19.691406 14.902344 19.582031 14.902344 Z M 11.554688 18.847656 L 11.554688 16.5 C 11.554688 16.394531 11.59375 16.304688 11.667969 16.226562 C 11.742188 16.152344 11.835938 16.113281 11.941406 16.113281 L 18.058594 16.113281 C 18.164062 16.113281 18.257812 16.152344 18.332031 16.226562 C 18.40625 16.304688 18.445312 16.394531 18.445312 16.5 L 18.445312 18.847656 C 18.445312 18.957031 18.410156 19.046875 18.332031 19.121094 C 18.257812 19.199219 18.164062 19.234375 18.058594 19.234375 L 11.941406 19.234375 C 11.835938 19.234375 11.742188 19.199219 11.667969 19.121094 C 11.589844 19.046875 11.554688 18.957031 11.554688 18.847656 Z M 16.257812 14.515625 C 16.257812 14.683594 16.226562 14.84375 16.164062 14.996094 C 16.097656 15.152344 16.007812 15.289062 15.890625 15.40625 C 15.773438 15.523438 15.636719 15.613281 15.480469 15.679688 C 15.328125 15.742188 15.167969 15.773438 15 15.773438 C 14.832031 15.773438 14.671875 15.742188 14.519531 15.679688 C 14.363281 15.613281 14.226562 15.523438 14.109375 15.40625 C 13.992188 15.289062 13.902344 15.152344 13.835938 14.996094 C 13.773438 14.84375 13.742188 14.683594 13.742188 14.515625 C 13.742188 14.347656 13.773438 14.1875 13.835938 14.035156 C 13.902344 13.878906 13.992188 13.746094 14.109375 13.625 C 14.226562 13.507812 14.363281 13.417969 14.519531 13.355469 C 14.671875 13.289062 14.832031 13.257812 15 13.257812 C 15.203125 13.257812 15.390625 13.308594 15.570312 13.402344 L 16.707031 12.257812 C 16.78125 12.183594 16.875 12.144531 16.980469 12.144531 C 17.089844 12.144531 17.179688 12.183594 17.257812 12.257812 C 17.332031 12.335938 17.371094 12.425781 17.371094 12.535156 C 17.371094 12.640625 17.332031 12.734375 17.257812 12.808594 L 16.113281 13.945312 C 16.210938 14.125 16.257812 14.316406 16.257812 14.515625 Z M 16.257812 14.515625 " fill-opacity="1" fill-rule="nonzero"/><path fill="#935f3d" d="M 15.484375 14.515625 C 15.484375 14.648438 15.4375 14.765625 15.34375 14.859375 C 15.246094 14.953125 15.132812 15 15 15 C 14.867188 15 14.753906 14.953125 14.65625 14.859375 C 14.5625 14.765625 14.515625 14.648438 14.515625 14.515625 C 14.515625 14.382812 14.5625 14.269531 14.65625 14.175781 C 14.753906 14.078125 14.867188 14.03125 15 14.03125 C 15.132812 14.03125 15.246094 14.078125 15.34375 14.175781 C 15.4375 14.269531 15.484375 14.382812 15.484375 14.515625 Z M 15.484375 14.515625 " fill-opacity="1" fill-rule="nonzero"/><path fill="#935f3d" d="M 12.328125 16.890625 L 17.671875 16.890625 L 17.671875 18.460938 L 12.328125 18.460938 Z M 12.328125 16.890625 " fill-opacity="1" fill-rule="nonzero"/></svg>