<svg xmlns="http://www.w3.org/2000/svg" xmlns:xlink="http://www.w3.org/1999/xlink" width="40" zoomAndPan="magnify" viewBox="0 0 30 30.000001" height="40" preserveAspectRatio="xMidYMid meet" version="1.0"><defs><clipPath id="cacc72cdc2"><path d="M 0.484375 0 L 29.515625 0 L 29.515625 29.03125 L 0.484375 29.03125 Z M 0.484375 0 " clip-rule="nonzero"/></clipPath><clipPath id="d30f0fe958"><path d="M 2.808594 3.453125 L 26.757812 3.453125 L 26.757812 25.953125 L 2.808594 25.953125 Z M 2.808594 3.453125 " clip-rule="nonzero"/></clipPath></defs><g clip-path="url(#cacc72cdc2)"><path fill="#ffffff" d="M 0.484375 0 L 29.515625 0 L 29.515625 29.03125 L 0.484375 29.03125 Z M 0.484375 0 " fill-opacity="1" fill-rule="nonzero"/><path fill="#ffffff" d="M 0.484375 0 L 29.515625 0 L 29.515625 29.03125 L 0.484375 29.03125 Z M 0.484375 0 " fill-opacity="1" fill-rule="nonzero"/></g><g clip-path="url(#d30f0fe958)"><path fill="#935f3d" d="M 22.421875 11.054688 L 23.644531 9.695312 C 23.753906 9.574219 23.769531 9.441406 23.6875 9.300781 L 22.492188 7.230469 C 22.410156 7.085938 22.289062 7.03125 22.128906 7.066406 L 20.339844 7.449219 L 18.566406 4.378906 C 18.476562 4.214844 18.355469 4.078125 18.210938 3.964844 C 18.066406 3.847656 17.902344 3.765625 17.726562 3.714844 C 17.546875 3.660156 17.367188 3.644531 17.179688 3.660156 C 16.996094 3.679688 16.820312 3.730469 16.65625 3.816406 C 16.492188 3.902344 16.347656 4.011719 16.226562 4.152344 C 16.105469 4.292969 16.015625 4.453125 15.957031 4.628906 C 15.894531 4.804688 15.871094 4.984375 15.878906 5.167969 C 15.890625 5.355469 15.933594 5.53125 16.011719 5.699219 L 13.867188 8.328125 L 4.355469 8.328125 C 4.15625 8.332031 3.960938 8.367188 3.777344 8.445312 C 3.59375 8.523438 3.429688 8.632812 3.285156 8.773438 C 3.144531 8.914062 3.035156 9.078125 2.957031 9.265625 C 2.882812 9.449219 2.84375 9.644531 2.84375 9.84375 L 2.84375 20.4375 C 2.84375 20.640625 2.882812 20.832031 2.957031 21.019531 C 3.035156 21.203125 3.144531 21.367188 3.285156 21.507812 C 3.429688 21.652344 3.59375 21.761719 3.777344 21.835938 C 3.964844 21.914062 4.15625 21.953125 4.355469 21.953125 L 9.265625 21.953125 L 8.402344 23.417969 L 7.296875 23.417969 C 7.117188 23.417969 6.945312 23.453125 6.78125 23.519531 C 6.613281 23.589844 6.46875 23.6875 6.34375 23.8125 C 6.214844 23.941406 6.117188 24.085938 6.050781 24.25 C 5.980469 24.417969 5.945312 24.589844 5.945312 24.769531 L 5.945312 25.78125 C 5.945312 25.875 5.980469 25.953125 6.042969 26.019531 C 6.109375 26.085938 6.191406 26.117188 6.28125 26.117188 L 18.109375 26.117188 C 18.203125 26.117188 18.28125 26.085938 18.347656 26.019531 C 18.414062 25.953125 18.445312 25.875 18.445312 25.78125 L 18.445312 24.769531 C 18.445312 24.589844 18.410156 24.417969 18.34375 24.253906 C 18.273438 24.085938 18.175781 23.941406 18.050781 23.8125 C 17.925781 23.6875 17.777344 23.589844 17.613281 23.523438 C 17.449219 23.453125 17.273438 23.417969 17.097656 23.417969 L 15.988281 23.417969 L 15.128906 21.953125 L 20.035156 21.953125 C 20.238281 21.953125 20.429688 21.914062 20.613281 21.839844 C 20.800781 21.761719 20.964844 21.652344 21.105469 21.507812 C 21.25 21.367188 21.359375 21.203125 21.433594 21.019531 C 21.511719 20.832031 21.550781 20.640625 21.550781 20.441406 L 21.550781 15.714844 L 21.769531 15.679688 C 21.875 15.828125 22.007812 15.957031 22.164062 16.054688 C 22.320312 16.15625 22.488281 16.226562 22.667969 16.261719 C 22.851562 16.296875 23.035156 16.296875 23.214844 16.261719 C 23.398438 16.226562 23.566406 16.160156 23.722656 16.0625 C 23.878906 15.960938 24.011719 15.835938 24.121094 15.683594 C 24.226562 15.53125 24.304688 15.367188 24.347656 15.1875 C 24.390625 15.007812 24.402344 14.824219 24.375 14.640625 C 24.347656 14.457031 24.289062 14.285156 24.195312 14.125 Z M 22.03125 7.777344 L 22.980469 9.425781 L 22.070312 10.4375 L 21.492188 9.441406 C 21.421875 9.191406 21.296875 8.972656 21.117188 8.789062 L 20.695312 8.0625 Z M 14.011719 16.25 L 11.636719 12.136719 L 16.363281 6.335938 L 21.398438 15.054688 Z M 11.066406 12.496094 L 11.523438 13.289062 L 13.414062 16.5625 L 11.699219 17.550781 C 11.472656 17.683594 11.226562 17.765625 10.96875 17.796875 C 10.707031 17.832031 10.453125 17.816406 10.199219 17.746094 C 9.945312 17.679688 9.714844 17.566406 9.507812 17.40625 C 9.296875 17.246094 9.128906 17.054688 8.996094 16.828125 L 8.628906 16.1875 C 8.496094 15.960938 8.414062 15.71875 8.378906 15.457031 C 8.347656 15.199219 8.363281 14.941406 8.429688 14.6875 C 8.5 14.433594 8.613281 14.203125 8.773438 13.996094 C 8.929688 13.789062 9.125 13.617188 9.351562 13.484375 Z M 17.097656 24.09375 C 17.28125 24.09375 17.441406 24.160156 17.574219 24.289062 C 17.707031 24.421875 17.773438 24.582031 17.773438 24.769531 L 17.773438 25.445312 L 6.617188 25.445312 L 6.617188 24.769531 C 6.621094 24.582031 6.683594 24.421875 6.816406 24.289062 C 6.949219 24.160156 7.109375 24.09375 7.296875 24.09375 Z M 15.207031 23.417969 L 9.183594 23.417969 L 10.046875 21.953125 L 14.347656 21.953125 Z M 20.035156 21.28125 L 4.355469 21.28125 C 4.125 21.277344 3.929688 21.195312 3.765625 21.035156 C 3.601562 20.871094 3.519531 20.671875 3.519531 20.441406 L 3.519531 19.914062 L 20.878906 19.914062 L 20.878906 20.441406 C 20.875 20.671875 20.792969 20.871094 20.628906 21.035156 C 20.464844 21.199219 20.269531 21.28125 20.035156 21.28125 Z M 20.875 19.238281 L 3.515625 19.238281 L 3.515625 9.84375 C 3.515625 9.613281 3.597656 9.414062 3.761719 9.25 C 3.925781 9.085938 4.125 9.003906 4.355469 9.003906 L 13.316406 9.003906 L 11.140625 11.671875 L 9.015625 12.902344 C 8.710938 13.078125 8.449219 13.308594 8.238281 13.585938 C 8.023438 13.863281 7.871094 14.175781 7.78125 14.515625 C 7.6875 14.851562 7.667969 15.199219 7.710938 15.546875 C 7.757812 15.894531 7.867188 16.222656 8.042969 16.527344 L 8.414062 17.164062 C 8.777344 17.800781 9.316406 18.210938 10.023438 18.398438 C 10.25 18.460938 10.484375 18.488281 10.71875 18.492188 C 11.191406 18.488281 11.628906 18.371094 12.035156 18.136719 L 14.164062 16.90625 L 20.875 15.820312 Z M 23.6875 15.046875 C 23.601562 15.375 23.386719 15.566406 23.046875 15.609375 C 22.707031 15.65625 22.449219 15.527344 22.277344 15.230469 L 16.648438 5.484375 C 16.542969 5.296875 16.519531 5.105469 16.574219 4.898438 C 16.628906 4.691406 16.75 4.539062 16.933594 4.429688 C 17.117188 4.324219 17.3125 4.300781 17.515625 4.355469 C 17.722656 4.410156 17.878906 4.53125 17.984375 4.714844 L 19.882812 7.996094 L 20.796875 9.585938 L 23.613281 14.460938 C 23.71875 14.644531 23.742188 14.839844 23.6875 15.046875 Z M 25.121094 7.480469 C 25.039062 7.527344 24.953125 7.539062 24.863281 7.515625 C 24.773438 7.492188 24.703125 7.441406 24.660156 7.359375 C 24.613281 7.277344 24.601562 7.191406 24.625 7.101562 C 24.648438 7.011719 24.703125 6.945312 24.78125 6.898438 L 25.628906 6.410156 C 25.707031 6.363281 25.792969 6.351562 25.882812 6.375 C 25.972656 6.402344 26.042969 6.453125 26.089844 6.535156 C 26.132812 6.613281 26.144531 6.699219 26.121094 6.789062 C 26.097656 6.878906 26.046875 6.949219 25.964844 6.996094 Z M 22.515625 5.484375 L 22.769531 4.542969 C 22.792969 4.453125 22.84375 4.382812 22.925781 4.335938 C 23.007812 4.292969 23.089844 4.28125 23.179688 4.304688 C 23.269531 4.328125 23.339844 4.378906 23.386719 4.460938 C 23.433594 4.542969 23.445312 4.628906 23.417969 4.71875 L 23.167969 5.660156 C 23.144531 5.75 23.09375 5.820312 23.011719 5.867188 C 22.929688 5.910156 22.84375 5.921875 22.753906 5.898438 C 22.664062 5.875 22.597656 5.824219 22.550781 5.742188 C 22.503906 5.660156 22.492188 5.574219 22.515625 5.484375 Z M 26.566406 10.164062 C 26.542969 10.253906 26.492188 10.324219 26.410156 10.371094 C 26.328125 10.417969 26.242188 10.429688 26.152344 10.402344 L 25.210938 10.152344 C 25.121094 10.128906 25.050781 10.074219 25.003906 9.996094 C 24.957031 9.914062 24.949219 9.828125 24.972656 9.738281 C 24.996094 9.648438 25.046875 9.582031 25.128906 9.535156 C 25.210938 9.488281 25.292969 9.476562 25.386719 9.5 L 26.328125 9.753906 C 26.417969 9.777344 26.484375 9.828125 26.53125 9.910156 C 26.578125 9.988281 26.589844 10.074219 26.566406 10.164062 Z M 26.566406 10.164062 " fill-opacity="1" fill-rule="nonzero"/></g></svg>