<svg xmlns="http://www.w3.org/2000/svg" xmlns:xlink="http://www.w3.org/1999/xlink" width="40" zoomAndPan="magnify" viewBox="0 0 30 30.000001" height="40" preserveAspectRatio="xMidYMid meet" version="1.0"><defs><clipPath id="dceae5f9d5"><path d="M 0.484375 0 L 29.515625 0 L 29.515625 29.03125 L 0.484375 29.03125 Z M 0.484375 0 " clip-rule="nonzero"/></clipPath><clipPath id="f221e4077d"><path d="M 5.171875 2.902344 L 24.769531 2.902344 L 24.769531 26.128906 L 5.171875 26.128906 Z M 5.171875 2.902344 " clip-rule="nonzero"/></clipPath></defs><g clip-path="url(#dceae5f9d5)"><path fill="#ffffff" d="M 0.484375 0 L 29.515625 0 L 29.515625 29.03125 L 0.484375 29.03125 Z M 0.484375 0 " fill-opacity="1" fill-rule="nonzero"/><path fill="#ffffff" d="M 0.484375 0 L 29.515625 0 L 29.515625 29.03125 L 0.484375 29.03125 Z M 0.484375 0 " fill-opacity="1" fill-rule="nonzero"/></g><g clip-path="url(#f221e4077d)"><path fill="#935f3d" d="M 23.101562 9.734375 L 22.398438 10.292969 L 20.023438 10.292969 L 19.320312 9.734375 C 19.300781 9.640625 19.167969 8.882812 19.160156 8.808594 L 19.246094 8.808594 L 19.726562 9.679688 C 19.777344 9.765625 19.863281 9.820312 19.960938 9.820312 C 20.148438 9.8125 20.484375 9.886719 20.554688 9.632812 C 20.554688 9.632812 20.804688 8.808594 20.804688 8.808594 L 21.601562 8.808594 L 21.855469 9.632812 C 21.925781 9.886719 22.257812 9.8125 22.453125 9.820312 C 22.550781 9.820312 22.636719 9.765625 22.6875 9.679688 L 23.167969 8.808594 L 23.257812 8.808594 C 23.238281 8.9375 23.125 9.597656 23.101562 9.734375 Z M 19.171875 16.574219 L 23.242188 16.574219 L 23.019531 15.585938 L 19.390625 15.585938 Z M 15.25 15.15625 L 17.015625 15.15625 C 17.15625 15.15625 17.273438 15.042969 17.273438 14.902344 L 17.273438 13.136719 C 17.273438 12.996094 17.15625 12.882812 17.015625 12.882812 L 15.25 12.882812 C 15.109375 12.882812 14.996094 12.996094 14.996094 13.136719 L 14.996094 14.902344 C 14.996094 15.042969 15.113281 15.15625 15.25 15.15625 Z M 20.179688 10.835938 C 20.132812 11.804688 20.023438 14.058594 19.972656 15.050781 L 22.4375 15.050781 C 22.390625 14.066406 22.277344 11.796875 22.234375 10.835938 Z M 20.859375 4.789062 L 7.1875 4.789062 L 7.1875 3.628906 C 7.1875 3.230469 7.515625 2.902344 7.917969 2.902344 L 20.132812 2.902344 C 20.535156 2.902344 20.863281 3.230469 20.863281 3.628906 L 20.863281 4.789062 Z M 17.601562 3.507812 C 17.167969 3.515625 17.171875 4.160156 17.601562 4.164062 C 18.039062 4.15625 18.039062 3.515625 17.601562 3.507812 Z M 18.601562 3.507812 C 18.164062 3.515625 18.171875 4.160156 18.601562 4.164062 C 19.039062 4.15625 19.039062 3.515625 18.601562 3.507812 Z M 19.601562 3.507812 C 19.167969 3.515625 19.167969 4.160156 19.601562 4.164062 C 20.03125 4.15625 20.03125 3.515625 19.601562 3.507812 Z M 18.757812 24.785156 L 11.238281 24.785156 C 10.789062 24.785156 10.421875 25.148438 10.421875 25.601562 L 10.421875 26.128906 L 19.574219 26.128906 L 19.574219 25.601562 C 19.574219 25.148438 19.207031 24.785156 18.757812 24.785156 Z M 13.972656 21.792969 L 13.972656 24.246094 L 16.019531 24.246094 L 16.019531 21.792969 Z M 11.382812 9.390625 L 11.382812 7.625 C 11.382812 7.484375 11.269531 7.367188 11.128906 7.367188 L 9.363281 7.367188 C 9.222656 7.367188 9.109375 7.480469 9.109375 7.625 L 9.109375 9.390625 C 9.109375 9.53125 9.222656 9.644531 9.363281 9.644531 L 11.128906 9.644531 C 11.269531 9.644531 11.382812 9.527344 11.382812 9.390625 Z M 5.171875 19.210938 L 5.171875 20.441406 C 5.171875 20.890625 5.539062 21.257812 5.988281 21.257812 L 24.007812 21.257812 C 24.457031 21.257812 24.824219 20.890625 24.824219 20.441406 L 24.824219 19.210938 Z M 24.820312 7.363281 C 24.820312 6.910156 24.457031 6.542969 24.003906 6.542969 L 21.394531 6.542969 L 21.394531 8.277344 C 21.601562 8.296875 21.984375 8.1875 22.0625 8.46875 L 22.304688 9.261719 L 22.773438 8.414062 C 22.820312 8.332031 22.910156 8.277344 23.003906 8.277344 L 23.578125 8.277344 C 23.742188 8.273438 23.871094 8.433594 23.839844 8.589844 C 23.785156 8.921875 23.667969 9.59375 23.613281 9.929688 C 23.605469 9.996094 23.566406 10.054688 23.519531 10.09375 L 22.769531 10.695312 C 22.808594 11.574219 22.9375 14.140625 22.984375 15.054688 C 23.179688 15.054688 23.445312 15.015625 23.5 15.265625 L 23.839844 16.785156 C 23.886719 16.949219 23.746094 17.117188 23.582031 17.113281 L 7.914062 17.113281 C 7.214844 17.113281 6.648438 16.546875 6.648438 15.851562 L 6.648438 6.542969 L 5.988281 6.542969 C 5.539062 6.542969 5.171875 6.910156 5.171875 7.363281 L 5.171875 18.671875 L 24.820312 18.671875 Z M 9.363281 15.15625 L 11.128906 15.15625 C 11.269531 15.15625 11.382812 15.042969 11.382812 14.902344 L 11.382812 13.136719 C 11.382812 12.996094 11.269531 12.882812 11.128906 12.882812 L 9.363281 12.882812 C 9.222656 12.882812 9.109375 12.996094 9.109375 13.136719 L 9.109375 14.902344 C 9.109375 15.042969 9.222656 15.15625 9.363281 15.15625 Z M 7.1875 15.847656 L 7.1875 5.324219 L 20.859375 5.324219 L 20.859375 8.273438 C 20.679688 8.273438 20.414062 8.234375 20.355469 8.464844 L 20.109375 9.257812 L 19.640625 8.410156 C 19.597656 8.328125 19.503906 8.273438 19.410156 8.273438 L 18.84375 8.273438 C 18.679688 8.269531 18.546875 8.429688 18.578125 8.585938 C 18.632812 8.910156 18.75 9.59375 18.804688 9.925781 C 18.816406 9.988281 18.851562 10.050781 18.902344 10.089844 L 19.648438 10.6875 C 19.609375 11.566406 19.480469 14.140625 19.4375 15.050781 C 19.246094 15.050781 18.972656 15.011719 18.917969 15.261719 L 18.625 16.574219 L 7.914062 16.574219 C 7.515625 16.574219 7.1875 16.246094 7.1875 15.847656 Z M 8.570312 14.902344 C 8.570312 15.335938 8.925781 15.691406 9.359375 15.691406 L 11.125 15.691406 C 11.558594 15.691406 11.914062 15.335938 11.914062 14.902344 L 11.914062 14.289062 L 14.457031 14.289062 L 14.457031 14.902344 C 14.457031 15.335938 14.8125 15.691406 15.246094 15.691406 L 17.011719 15.691406 C 17.449219 15.691406 17.800781 15.335938 17.800781 14.902344 L 17.800781 13.136719 C 17.800781 12.699219 17.449219 12.347656 17.011719 12.347656 L 15.246094 12.347656 C 14.8125 12.347656 14.457031 12.699219 14.457031 13.136719 L 14.457031 13.753906 L 11.914062 13.753906 L 11.914062 13.136719 C 11.914062 12.699219 11.558594 12.347656 11.125 12.347656 L 10.511719 12.347656 L 10.511719 10.179688 L 11.125 10.179688 C 11.558594 10.179688 11.914062 9.820312 11.914062 9.390625 L 11.914062 7.625 C 11.914062 7.1875 11.558594 6.832031 11.125 6.832031 L 9.359375 6.832031 C 8.921875 6.832031 8.570312 7.1875 8.570312 7.625 L 8.570312 9.390625 C 8.570312 9.828125 8.925781 10.179688 9.359375 10.179688 L 9.976562 10.179688 L 9.976562 12.347656 L 9.359375 12.347656 C 8.921875 12.347656 8.570312 12.699219 8.570312 13.136719 Z M 8.570312 14.902344 " fill-opacity="1" fill-rule="nonzero"/></g></svg>