<svg xmlns="http://www.w3.org/2000/svg" xmlns:xlink="http://www.w3.org/1999/xlink" width="40" zoomAndPan="magnify" viewBox="0 0 30 30.000001" height="40" preserveAspectRatio="xMidYMid meet" version="1.0"><defs><clipPath id="7f68c672bd"><path d="M 0.484375 0 L 29.515625 0 L 29.515625 29.03125 L 0.484375 29.03125 Z M 0.484375 0 " clip-rule="nonzero"/></clipPath><clipPath id="2cd593e79e"><path d="M 5.652344 7.039062 L 23.304688 7.039062 L 23.304688 26.128906 L 5.652344 26.128906 Z M 5.652344 7.039062 " clip-rule="nonzero"/></clipPath><clipPath id="4681e075e1"><path d="M 3.851562 2.902344 L 11 2.902344 L 11 10 L 3.851562 10 Z M 3.851562 2.902344 " clip-rule="nonzero"/></clipPath><clipPath id="e0431433cb"><path d="M 19.167969 13.085938 L 26.140625 13.085938 L 26.140625 20.0625 L 19.167969 20.0625 Z M 19.167969 13.085938 " clip-rule="nonzero"/></clipPath></defs><g clip-path="url(#7f68c672bd)"><path fill="#ffffff" d="M 0.484375 0 L 29.515625 0 L 29.515625 29.03125 L 0.484375 29.03125 Z M 0.484375 0 " fill-opacity="1" fill-rule="nonzero"/><path fill="#ffffff" d="M 0.484375 0 L 29.515625 0 L 29.515625 29.03125 L 0.484375 29.03125 Z M 0.484375 0 " fill-opacity="1" fill-rule="nonzero"/></g><g clip-path="url(#2cd593e79e)"><path fill="#935f3d" d="M 16.957031 26.128906 C 16.894531 26.128906 16.832031 26.105469 16.789062 26.0625 L 5.753906 15.039062 C 5.710938 14.996094 5.683594 14.933594 5.683594 14.871094 C 5.683594 14.808594 5.710938 14.75 5.753906 14.703125 L 13.308594 7.148438 C 13.398438 7.058594 13.550781 7.058594 13.644531 7.148438 L 20.308594 13.816406 C 20.402344 13.90625 20.402344 14.058594 20.308594 14.152344 C 20.21875 14.242188 20.066406 14.242188 19.972656 14.152344 L 13.476562 7.652344 L 6.253906 14.871094 L 16.957031 25.558594 L 22.875 19.621094 C 22.96875 19.53125 23.117188 19.53125 23.210938 19.621094 C 23.304688 19.714844 23.304688 19.867188 23.210938 19.957031 L 17.121094 26.0625 C 17.078125 26.105469 17.019531 26.128906 16.957031 26.128906 " fill-opacity="1" fill-rule="evenodd"/></g><path fill="#935f3d" d="M 5.921875 15.109375 C 5.796875 15.109375 5.691406 15.011719 5.683594 14.886719 L 5.136719 6.726562 C 5.132812 6.660156 5.15625 6.589844 5.207031 6.542969 C 5.257812 6.492188 5.324219 6.46875 5.390625 6.476562 L 13.496094 7.082031 C 13.625 7.09375 13.722656 7.203125 13.714844 7.335938 C 13.703125 7.46875 13.589844 7.566406 13.460938 7.554688 L 5.628906 6.96875 L 6.160156 14.859375 C 6.167969 14.988281 6.070312 15.101562 5.9375 15.109375 C 5.929688 15.109375 5.925781 15.109375 5.921875 15.109375 " fill-opacity="1" fill-rule="evenodd"/><path fill="#935f3d" d="M 6.558594 15.746094 C 6.496094 15.746094 6.4375 15.722656 6.390625 15.675781 C 6.296875 15.585938 6.296875 15.433594 6.390625 15.34375 L 13.945312 7.789062 C 14.035156 7.695312 14.1875 7.695312 14.28125 7.789062 C 14.371094 7.878906 14.371094 8.03125 14.28125 8.121094 L 6.726562 15.675781 C 6.679688 15.722656 6.617188 15.746094 6.558594 15.746094 " fill-opacity="1" fill-rule="evenodd"/><path fill="#935f3d" d="M 18.882812 24.203125 C 18.871094 24.203125 18.863281 24.203125 18.851562 24.203125 L 14.394531 23.609375 C 14.261719 23.59375 14.171875 23.472656 14.1875 23.34375 C 14.207031 23.214844 14.324219 23.125 14.453125 23.140625 L 18.914062 23.730469 C 19.042969 23.75 19.132812 23.867188 19.117188 24 C 19.101562 24.117188 19 24.203125 18.882812 24.203125 " fill-opacity="1" fill-rule="evenodd"/><path fill="#935f3d" d="M 7.519531 10.15625 C 7.207031 10.15625 6.890625 10.035156 6.644531 9.800781 C 6.644531 9.800781 6.644531 9.800781 6.640625 9.796875 C 6.402344 9.554688 6.269531 9.238281 6.273438 8.902344 C 6.277344 8.570312 6.410156 8.265625 6.644531 8.039062 C 7.136719 7.546875 7.90625 7.546875 8.398438 8.039062 C 8.632812 8.265625 8.765625 8.570312 8.769531 8.902344 C 8.769531 9.238281 8.640625 9.554688 8.398438 9.796875 C 8.398438 9.800781 8.398438 9.800781 8.394531 9.800781 C 8.148438 10.035156 7.835938 10.15625 7.519531 10.15625 Z M 6.976562 9.460938 C 7.28125 9.753906 7.757812 9.753906 8.066406 9.460938 C 8.214844 9.308594 8.296875 9.113281 8.296875 8.90625 C 8.292969 8.703125 8.210938 8.515625 8.070312 8.378906 C 8.066406 8.375 8.066406 8.375 8.066406 8.375 C 7.757812 8.066406 7.289062 8.066406 6.980469 8.375 C 6.976562 8.375 6.976562 8.375 6.976562 8.378906 C 6.832031 8.515625 6.75 8.707031 6.75 8.90625 C 6.746094 9.113281 6.824219 9.308594 6.976562 9.460938 Z M 6.976562 9.460938 " fill-opacity="1" fill-rule="evenodd"/><g clip-path="url(#4681e075e1)"><path fill="#935f3d" d="M 7.285156 9.253906 C 7.277344 9.253906 7.273438 9.253906 7.269531 9.253906 C 7.121094 9.25 6.988281 9.1875 6.890625 9.082031 L 4.507812 6.699219 C 4.089844 6.28125 3.863281 5.722656 3.863281 5.125 C 3.863281 4.527344 4.089844 3.96875 4.507812 3.550781 C 4.925781 3.132812 5.484375 2.902344 6.082031 2.902344 C 6.683594 2.902344 7.242188 3.132812 7.660156 3.550781 L 10.265625 6.171875 C 10.355469 6.265625 10.355469 6.414062 10.265625 6.507812 C 10.171875 6.597656 10.019531 6.597656 9.929688 6.503906 L 7.320312 3.882812 C 6.652344 3.210938 5.515625 3.210938 4.84375 3.882812 C 4.171875 4.554688 4.171875 5.691406 4.84375 6.363281 L 7.230469 8.75 C 7.230469 8.75 7.234375 8.753906 7.238281 8.757812 C 7.25 8.773438 7.265625 8.777344 7.28125 8.78125 C 7.296875 8.78125 7.324219 8.777344 7.351562 8.75 C 7.445312 8.65625 7.59375 8.65625 7.6875 8.75 C 7.777344 8.839844 7.777344 8.992188 7.6875 9.082031 C 7.578125 9.191406 7.433594 9.253906 7.285156 9.253906 " fill-opacity="1" fill-rule="evenodd"/></g><path fill="#935f3d" d="M 12.484375 13.832031 C 12.253906 13.832031 12.027344 13.746094 11.847656 13.578125 C 11.84375 13.578125 11.84375 13.574219 11.839844 13.570312 L 11.246094 12.960938 C 11.15625 12.871094 11.15625 12.71875 11.25 12.628906 L 12.195312 11.695312 C 12.289062 11.601562 12.4375 11.605469 12.53125 11.695312 L 13.121094 12.289062 C 13.125 12.289062 13.125 12.292969 13.128906 12.292969 C 13.464844 12.652344 13.464844 13.210938 13.128906 13.566406 C 13.125 13.570312 13.121094 13.574219 13.117188 13.578125 C 12.941406 13.746094 12.710938 13.832031 12.484375 13.832031 Z M 12.175781 13.238281 C 12.347656 13.398438 12.617188 13.398438 12.789062 13.238281 C 12.949219 13.066406 12.949219 12.796875 12.785156 12.625 L 12.363281 12.199219 L 11.75 12.804688 L 12.175781 13.238281 " fill-opacity="1" fill-rule="evenodd"/><path fill="#935f3d" d="M 11.546875 14.765625 C 11.3125 14.765625 11.085938 14.675781 10.914062 14.511719 C 10.910156 14.511719 10.910156 14.507812 10.910156 14.507812 L 10.316406 13.914062 C 10.222656 13.824219 10.222656 13.675781 10.3125 13.582031 L 11.246094 12.632812 C 11.292969 12.589844 11.351562 12.5625 11.417969 12.5625 C 11.480469 12.5625 11.539062 12.589844 11.585938 12.632812 L 12.175781 13.238281 C 12.34375 13.402344 12.441406 13.621094 12.445312 13.855469 C 12.449219 14.097656 12.355469 14.332031 12.175781 14.507812 C 12.011719 14.671875 11.785156 14.765625 11.546875 14.765625 Z M 11.242188 14.167969 C 11.414062 14.328125 11.683594 14.332031 11.84375 14.171875 C 11.925781 14.085938 11.972656 13.976562 11.972656 13.863281 C 11.96875 13.753906 11.925781 13.65625 11.847656 13.578125 C 11.84375 13.578125 11.84375 13.574219 11.839844 13.570312 L 11.414062 13.136719 L 10.816406 13.746094 L 11.242188 14.167969 " fill-opacity="1" fill-rule="evenodd"/><path fill="#935f3d" d="M 14.105469 15.445312 C 13.875 15.445312 13.644531 15.359375 13.472656 15.1875 L 12.863281 14.582031 C 12.820312 14.535156 12.792969 14.476562 12.792969 14.410156 C 12.792969 14.347656 12.820312 14.289062 12.867188 14.246094 L 13.8125 13.3125 C 13.90625 13.21875 14.054688 13.21875 14.148438 13.3125 L 14.738281 13.90625 C 15.097656 14.265625 15.097656 14.828125 14.738281 15.1875 C 14.566406 15.359375 14.335938 15.445312 14.105469 15.445312 Z M 13.367188 14.414062 L 13.804688 14.851562 C 13.964844 15.011719 14.246094 15.011719 14.40625 14.851562 C 14.488281 14.769531 14.535156 14.660156 14.535156 14.546875 C 14.535156 14.433594 14.488281 14.324219 14.40625 14.238281 L 13.976562 13.8125 L 13.367188 14.414062 " fill-opacity="1" fill-rule="evenodd"/><path fill="#935f3d" d="M 12.097656 15.597656 C 12.039062 15.597656 11.976562 15.574219 11.933594 15.53125 C 11.839844 15.4375 11.835938 15.289062 11.929688 15.195312 L 12.863281 14.246094 C 12.953125 14.152344 13.105469 14.152344 13.195312 14.242188 C 13.289062 14.335938 13.292969 14.484375 13.199219 14.578125 L 12.265625 15.527344 C 12.222656 15.574219 12.160156 15.597656 12.097656 15.597656 " fill-opacity="1" fill-rule="evenodd"/><path fill="#935f3d" d="M 13.179688 16.605469 C 13.152344 16.605469 13.128906 16.601562 13.101562 16.59375 C 12.976562 16.550781 12.914062 16.414062 12.953125 16.292969 L 13.414062 14.945312 C 13.453125 14.820312 13.589844 14.753906 13.714844 14.796875 C 13.839844 14.835938 13.902344 14.972656 13.863281 15.097656 L 13.402344 16.445312 C 13.371094 16.542969 13.277344 16.605469 13.179688 16.605469 " fill-opacity="1" fill-rule="evenodd"/><path fill="#935f3d" d="M 15.148438 18.648438 C 15.117188 18.648438 15.085938 18.644531 15.054688 18.628906 C 14.933594 18.574219 14.878906 18.433594 14.933594 18.316406 L 15.839844 16.285156 L 14.699219 16.792969 L 13.808594 17.191406 C 13.691406 17.246094 13.550781 17.191406 13.496094 17.074219 C 13.441406 16.953125 13.496094 16.8125 13.613281 16.757812 L 14.503906 16.359375 L 16.207031 15.605469 C 16.296875 15.5625 16.402344 15.582031 16.472656 15.652344 C 16.542969 15.722656 16.5625 15.828125 16.519531 15.917969 L 15.367188 18.507812 C 15.328125 18.597656 15.238281 18.648438 15.148438 18.648438 " fill-opacity="1" fill-rule="evenodd"/><path fill="#935f3d" d="M 15.550781 17.761719 C 15.488281 17.761719 15.429688 17.738281 15.382812 17.691406 L 14.433594 16.742188 C 14.34375 16.652344 14.34375 16.5 14.433594 16.410156 C 14.527344 16.316406 14.675781 16.316406 14.769531 16.410156 L 15.714844 17.355469 C 15.808594 17.449219 15.808594 17.597656 15.714844 17.691406 C 15.671875 17.738281 15.609375 17.761719 15.550781 17.761719 " fill-opacity="1" fill-rule="evenodd"/><path fill="#935f3d" d="M 16.824219 20.324219 C 16.785156 20.324219 16.742188 20.3125 16.707031 20.292969 C 16.613281 20.242188 16.566406 20.132812 16.59375 20.027344 L 17.140625 17.851562 L 15.863281 19.128906 C 15.773438 19.21875 15.621094 19.21875 15.53125 19.128906 C 15.4375 19.035156 15.4375 18.886719 15.53125 18.792969 L 17.410156 16.910156 C 17.488281 16.835938 17.601562 16.820312 17.695312 16.875 C 17.789062 16.925781 17.835938 17.035156 17.808594 17.136719 L 17.261719 19.3125 L 18.539062 18.039062 C 18.628906 17.945312 18.78125 17.945312 18.871094 18.039062 C 18.964844 18.128906 18.964844 18.28125 18.871094 18.371094 L 16.992188 20.253906 C 16.945312 20.300781 16.882812 20.324219 16.824219 20.324219 " fill-opacity="1" fill-rule="evenodd"/><path fill="#935f3d" d="M 18.519531 21.683594 C 18.25 21.683594 17.984375 21.582031 17.78125 21.378906 L 17.203125 20.800781 C 17.113281 20.710938 17.113281 20.558594 17.203125 20.46875 L 19.085938 18.585938 C 19.175781 18.496094 19.328125 18.496094 19.421875 18.585938 L 19.996094 19.164062 C 20.398438 19.566406 20.402344 20.230469 20.003906 20.652344 C 20 20.652344 20 20.652344 19.996094 20.65625 L 19.273438 21.382812 C 19.269531 21.382812 19.269531 21.382812 19.269531 21.386719 C 19.058594 21.582031 18.789062 21.683594 18.519531 21.683594 Z M 17.707031 20.632812 L 18.117188 21.046875 C 18.335938 21.265625 18.703125 21.265625 18.9375 21.042969 L 19.660156 20.320312 C 19.878906 20.089844 19.882812 19.71875 19.660156 19.5 L 19.25 19.089844 L 17.707031 20.632812 " fill-opacity="1" fill-rule="evenodd"/><g clip-path="url(#e0431433cb)"><path fill="#935f3d" d="M 23.046875 20.027344 C 22.976562 20.027344 22.90625 19.996094 22.863281 19.941406 L 21.535156 18.332031 L 19.445312 18.207031 C 19.363281 18.199219 19.285156 18.152344 19.25 18.078125 C 19.210938 18.003906 19.214844 17.914062 19.257812 17.84375 L 20.375 16.0625 L 19.851562 14.027344 C 19.832031 13.945312 19.855469 13.859375 19.914062 13.800781 C 19.972656 13.742188 20.058594 13.71875 20.140625 13.738281 L 22.175781 14.261719 L 23.941406 13.148438 C 24.011719 13.101562 24.101562 13.097656 24.175781 13.136719 C 24.25 13.175781 24.296875 13.25 24.304688 13.332031 L 24.445312 15.421875 L 26.054688 16.765625 C 26.117188 16.820312 26.148438 16.902344 26.136719 16.984375 C 26.125 17.066406 26.070312 17.136719 25.992188 17.167969 L 24.042969 17.945312 L 23.265625 19.878906 C 23.234375 19.957031 23.164062 20.011719 23.082031 20.023438 C 23.070312 20.027344 23.058594 20.027344 23.046875 20.027344 Z M 19.875 17.757812 L 21.667969 17.867188 C 21.734375 17.871094 21.792969 17.902344 21.835938 17.953125 L 22.976562 19.332031 L 23.640625 17.671875 C 23.664062 17.613281 23.714844 17.566406 23.773438 17.542969 L 25.449219 16.875 L 24.0625 15.722656 C 24.015625 15.679688 23.984375 15.621094 23.980469 15.554688 L 23.859375 13.761719 L 22.34375 14.71875 C 22.289062 14.753906 22.21875 14.765625 22.15625 14.75 L 20.414062 14.300781 L 20.863281 16.046875 C 20.878906 16.109375 20.867188 16.175781 20.832031 16.230469 L 19.875 17.757812 " fill-opacity="1" fill-rule="evenodd"/></g></svg>