<svg xmlns="http://www.w3.org/2000/svg" xmlns:xlink="http://www.w3.org/1999/xlink" width="40" zoomAndPan="magnify" viewBox="0 0 30 30.000001" height="40" preserveAspectRatio="xMidYMid meet" version="1.0"><defs><clipPath id="e147bb4560"><path d="M 0.484375 0 L 29.515625 0 L 29.515625 29.03125 L 0.484375 29.03125 Z M 0.484375 0 " clip-rule="nonzero"/></clipPath><clipPath id="942950746e"><path d="M 3.386719 2.902344 L 26.613281 2.902344 L 26.613281 26.128906 L 3.386719 26.128906 Z M 3.386719 2.902344 " clip-rule="nonzero"/></clipPath></defs><g clip-path="url(#e147bb4560)"><path fill="#ffffff" d="M 0.484375 0 L 29.515625 0 L 29.515625 29.03125 L 0.484375 29.03125 Z M 0.484375 0 " fill-opacity="1" fill-rule="nonzero"/><path fill="#ffffff" d="M 0.484375 0 L 29.515625 0 L 29.515625 29.03125 L 0.484375 29.03125 Z M 0.484375 0 " fill-opacity="1" fill-rule="nonzero"/></g><g clip-path="url(#942950746e)"><path fill="#935f3d" d="M 11.34375 12.433594 C 11.328125 12.242188 11.46875 12.074219 11.660156 12.054688 C 11.851562 12.039062 12.023438 12.179688 12.039062 12.371094 C 12.082031 12.832031 12.890625 13.078125 13.351562 12.699219 C 13.46875 12.601562 13.542969 12.472656 13.542969 12.332031 C 13.542969 11.394531 11.339844 12.238281 11.339844 10.53125 C 11.339844 9.910156 11.839844 9.445312 12.433594 9.316406 L 12.433594 9.03125 C 12.433594 8.835938 12.589844 8.679688 12.796875 8.679688 C 12.996094 8.683594 13.152344 8.84375 13.148438 9.035156 L 13.140625 9.316406 C 13.738281 9.441406 14.242188 9.90625 14.242188 10.53125 C 14.242188 10.722656 14.085938 10.882812 13.894531 10.882812 C 13.699219 10.882812 13.542969 10.722656 13.542969 10.53125 C 13.542969 10.046875 12.707031 9.777344 12.234375 10.164062 C 12.113281 10.261719 12.039062 10.390625 12.039062 10.53125 C 12.039062 11.472656 14.242188 10.628906 14.242188 12.332031 C 14.242188 12.957031 13.738281 13.421875 13.140625 13.546875 L 13.136719 13.835938 C 13.136719 14.027344 12.980469 14.183594 12.785156 14.183594 C 12.59375 14.183594 12.433594 14.027344 12.433594 13.835938 L 12.433594 13.546875 C 11.878906 13.425781 11.398438 13.011719 11.34375 12.433594 Z M 12.792969 6.859375 C 15.316406 6.859375 17.363281 8.90625 17.363281 11.433594 C 17.363281 13.957031 15.316406 16.003906 12.792969 16.003906 C 10.265625 16.003906 8.21875 13.957031 8.21875 11.433594 C 8.21875 8.90625 10.265625 6.859375 12.792969 6.859375 Z M 15.53125 8.695312 C 14.019531 7.179688 11.566406 7.179688 10.054688 8.695312 C 8.542969 10.207031 8.542969 12.65625 10.054688 14.171875 C 11.566406 15.683594 14.019531 15.683594 15.53125 14.171875 C 17.042969 12.65625 17.042969 10.207031 15.53125 8.695312 Z M 20.007812 9.160156 C 19.8125 9.160156 19.65625 9.003906 19.65625 8.8125 C 19.65625 8.617188 19.8125 8.460938 20.007812 8.460938 L 23.226562 8.460938 C 23.417969 8.460938 23.574219 8.617188 23.574219 8.8125 C 23.574219 9.003906 23.417969 9.160156 23.226562 9.160156 Z M 20.007812 16.734375 C 19.8125 16.734375 19.65625 16.578125 19.65625 16.382812 C 19.65625 16.191406 19.8125 16.035156 20.007812 16.035156 L 23.226562 16.035156 C 23.417969 16.035156 23.574219 16.191406 23.574219 16.382812 C 23.574219 16.578125 23.417969 16.734375 23.226562 16.734375 Z M 20.007812 14.210938 C 19.8125 14.210938 19.65625 14.050781 19.65625 13.859375 C 19.65625 13.667969 19.8125 13.507812 20.007812 13.507812 L 23.226562 13.507812 C 23.417969 13.507812 23.574219 13.667969 23.574219 13.859375 C 23.574219 14.054688 23.417969 14.210938 23.226562 14.210938 Z M 20.007812 11.6875 C 19.8125 11.6875 19.65625 11.527344 19.65625 11.335938 C 19.65625 11.140625 19.8125 10.984375 20.007812 10.984375 L 23.226562 10.984375 C 23.417969 10.984375 23.574219 11.140625 23.574219 11.335938 C 23.574219 11.527344 23.417969 11.6875 23.226562 11.6875 Z M 18.667969 6.300781 L 18.667969 18.699219 L 25.914062 18.699219 L 25.914062 6.882812 C 25.914062 6.566406 25.660156 6.300781 25.339844 6.300781 Z M 18.667969 19.402344 L 18.667969 20.914062 C 18.667969 21.230469 18.269531 21.398438 18.046875 21.132812 L 17.363281 20.371094 L 16.621094 21.207031 C 16.480469 21.363281 16.234375 21.359375 16.09375 21.199219 L 15.355469 20.371094 L 14.609375 21.207031 C 14.46875 21.363281 14.222656 21.359375 14.085938 21.199219 L 13.34375 20.371094 L 12.601562 21.207031 C 12.460938 21.363281 12.214844 21.359375 12.074219 21.199219 L 11.332031 20.371094 L 10.589844 21.207031 C 10.449219 21.363281 10.203125 21.359375 10.0625 21.199219 L 9.324219 20.371094 L 8.578125 21.207031 C 8.4375 21.363281 8.195312 21.359375 8.054688 21.199219 L 7.3125 20.371094 L 6.621094 21.148438 C 6.40625 21.386719 6.011719 21.230469 6.007812 20.914062 L 6.007812 19.402344 L 4.089844 19.402344 L 4.089844 21.347656 C 4.089844 21.664062 4.339844 21.929688 4.660156 21.929688 L 25.339844 21.929688 C 25.660156 21.929688 25.914062 21.664062 25.914062 21.347656 L 25.914062 19.402344 Z M 6.011719 18.699219 L 6.011719 6.300781 L 4.660156 6.300781 C 4.339844 6.300781 4.089844 6.566406 4.089844 6.882812 L 4.089844 18.699219 Z M 6.011719 5.601562 L 6.011719 4.722656 C 6.011719 3.761719 6.722656 2.902344 7.675781 2.902344 L 19.257812 2.902344 C 20.160156 2.902344 20.546875 3.847656 20.546875 4.714844 L 20.546875 5.601562 L 25.339844 5.601562 C 26.042969 5.601562 26.613281 6.179688 26.613281 6.882812 L 26.613281 21.347656 C 26.613281 22.050781 26.042969 22.628906 25.339844 22.628906 L 16.726562 22.628906 L 16.726562 23.398438 L 22 23.398438 C 22.800781 23.398438 23.453125 24.050781 23.453125 24.851562 L 23.453125 25.777344 C 23.453125 25.96875 23.296875 26.128906 23.105469 26.128906 L 6.898438 26.128906 C 6.707031 26.128906 6.546875 25.96875 6.546875 25.777344 L 6.546875 24.851562 C 6.546875 24.050781 7.199219 23.398438 8.003906 23.398438 L 13.277344 23.398438 L 13.277344 22.628906 L 4.660156 22.628906 C 3.960938 22.628906 3.386719 22.050781 3.386719 21.347656 L 3.386719 6.882812 C 3.386719 6.179688 3.960938 5.601562 4.660156 5.601562 Z M 19.246094 3.605469 C 19.089844 3.617188 18.976562 3.714844 18.875 3.886719 C 18.742188 4.113281 18.667969 4.4375 18.667969 4.796875 L 18.667969 5.539062 L 19.847656 5.539062 L 19.847656 4.714844 C 19.847656 4.269531 19.695312 3.589844 19.246094 3.605469 Z M 17.96875 19.992188 L 17.96875 4.636719 C 17.96875 4.253906 18.050781 3.894531 18.203125 3.605469 L 7.675781 3.605469 C 7.109375 3.605469 6.710938 4.144531 6.710938 4.722656 L 6.710938 19.992188 L 7.082031 19.582031 C 7.226562 19.453125 7.445312 19.464844 7.574219 19.609375 L 8.320312 20.445312 L 9.089844 19.582031 C 9.234375 19.453125 9.457031 19.464844 9.585938 19.609375 L 10.328125 20.445312 L 11.101562 19.582031 C 11.246094 19.453125 11.464844 19.46875 11.59375 19.613281 L 12.339844 20.449219 L 13.109375 19.582031 C 13.253906 19.453125 13.476562 19.46875 13.605469 19.613281 L 14.347656 20.449219 L 15.121094 19.585938 C 15.265625 19.457031 15.484375 19.46875 15.613281 19.613281 L 16.359375 20.449219 L 17.128906 19.585938 C 17.273438 19.457031 17.496094 19.46875 17.625 19.613281 Z M 22.53125 24.320312 C 22.394531 24.183594 22.207031 24.097656 22 24.097656 L 8.003906 24.097656 C 7.585938 24.097656 7.25 24.4375 7.25 24.851562 L 7.25 25.425781 L 22.753906 25.425781 L 22.753906 24.851562 C 22.753906 24.644531 22.667969 24.457031 22.53125 24.320312 Z M 16.027344 23.398438 L 16.027344 22.628906 L 13.976562 22.628906 L 13.976562 23.398438 Z M 16.027344 23.398438 " fill-opacity="1" fill-rule="nonzero"/></g></svg>