<svg xmlns="http://www.w3.org/2000/svg" xmlns:xlink="http://www.w3.org/1999/xlink" width="40" zoomAndPan="magnify" viewBox="0 0 30 30.000001" height="40" preserveAspectRatio="xMidYMid meet" version="1.0"><defs><clipPath id="b5b0a24f5c"><path d="M 0.484375 0 L 29.515625 0 L 29.515625 29.03125 L 0.484375 29.03125 Z M 0.484375 0 " clip-rule="nonzero"/></clipPath><clipPath id="d9ae1f56a8"><path d="M 3.386719 2.902344 L 26.613281 2.902344 L 26.613281 26.128906 L 3.386719 26.128906 Z M 3.386719 2.902344 " clip-rule="nonzero"/></clipPath></defs><g clip-path="url(#b5b0a24f5c)"><path fill="#ffffff" d="M 0.484375 0 L 29.515625 0 L 29.515625 29.03125 L 0.484375 29.03125 Z M 0.484375 0 " fill-opacity="1" fill-rule="nonzero"/><path fill="#ffffff" d="M 0.484375 0 L 29.515625 0 L 29.515625 29.03125 L 0.484375 29.03125 Z M 0.484375 0 " fill-opacity="1" fill-rule="nonzero"/></g><g clip-path="url(#d9ae1f56a8)"><path fill="#935f3d" d="M 24.445312 22.613281 C 23.964844 22.613281 23.570312 23.074219 23.570312 23.644531 C 23.570312 24.214844 23.964844 24.675781 24.445312 24.675781 C 24.929688 24.675781 25.320312 24.214844 25.320312 23.644531 C 25.320312 23.074219 24.929688 22.613281 24.445312 22.613281 Z M 24.445312 24.019531 C 24.347656 24.019531 24.230469 23.855469 24.230469 23.644531 C 24.230469 23.433594 24.347656 23.269531 24.445312 23.269531 C 24.546875 23.269531 24.664062 23.433594 24.664062 23.644531 C 24.664062 23.855469 24.546875 24.019531 24.445312 24.019531 Z M 18.871094 7.933594 C 18.871094 5.796875 17.136719 4.0625 15 4.0625 C 12.863281 4.0625 11.128906 5.796875 11.128906 7.933594 C 11.128906 10.070312 12.863281 11.808594 15 11.808594 C 17.136719 11.808594 18.871094 10.070312 18.871094 7.933594 Z M 11.785156 7.933594 C 11.785156 6.160156 13.226562 4.71875 15 4.71875 C 16.773438 4.71875 18.214844 6.160156 18.214844 7.933594 C 18.214844 9.707031 16.773438 11.148438 15 11.148438 C 13.226562 11.148438 11.785156 9.707031 11.785156 7.933594 Z M 15.011719 10.472656 C 14.832031 10.472656 14.6875 10.332031 14.683594 10.152344 L 14.675781 9.945312 C 14.371094 9.875 14.171875 9.707031 13.976562 9.523438 C 13.84375 9.398438 13.839844 9.191406 13.964844 9.058594 C 14.089844 8.925781 14.296875 8.921875 14.429688 9.046875 C 14.648438 9.253906 14.761719 9.320312 15 9.320312 C 15.34375 9.320312 15.625 9.089844 15.625 8.800781 C 15.625 8.511719 15.34375 8.277344 15 8.277344 C 14.292969 8.277344 13.71875 7.75 13.71875 7.097656 C 13.71875 6.554688 14.121094 6.09375 14.664062 5.960938 L 14.660156 5.730469 C 14.65625 5.550781 14.800781 5.398438 14.980469 5.394531 C 15.160156 5.390625 15.3125 5.535156 15.316406 5.714844 L 15.324219 5.96875 C 15.621094 6.046875 15.964844 6.222656 16.121094 6.460938 C 16.21875 6.613281 16.179688 6.816406 16.027344 6.917969 C 15.875 7.015625 15.671875 6.972656 15.570312 6.820312 C 15.507812 6.730469 15.179688 6.578125 15 6.578125 C 14.65625 6.578125 14.375 6.8125 14.375 7.097656 C 14.375 7.386719 14.65625 7.621094 15 7.621094 C 15.707031 7.621094 16.28125 8.148438 16.28125 8.800781 C 16.28125 9.34375 15.878906 9.804688 15.335938 9.9375 L 15.339844 10.136719 C 15.34375 10.316406 15.199219 10.46875 15.019531 10.472656 C 15.015625 10.472656 15.015625 10.472656 15.011719 10.472656 Z M 23.226562 19.359375 C 21.359375 19.359375 19.84375 20.878906 19.84375 22.742188 C 19.84375 24.609375 21.359375 26.128906 23.226562 26.128906 C 25.09375 26.128906 26.613281 24.609375 26.613281 22.742188 C 26.613281 20.878906 25.09375 19.359375 23.226562 19.359375 Z M 23.226562 25.472656 C 21.722656 25.472656 20.5 24.246094 20.5 22.742188 C 20.5 21.242188 21.722656 20.015625 23.226562 20.015625 C 24.730469 20.015625 25.953125 21.242188 25.953125 22.742188 C 25.953125 24.246094 24.730469 25.472656 23.226562 25.472656 Z M 17.855469 21.910156 C 17.640625 21.910156 17.554688 21.746094 17.535156 21.695312 C 17.515625 21.644531 17.457031 21.46875 17.609375 21.316406 C 17.710938 21.214844 17.765625 21.082031 17.765625 20.941406 C 17.765625 20.800781 17.710938 20.667969 17.609375 20.566406 L 17.175781 20.132812 C 17.078125 20.035156 16.945312 19.980469 16.804688 19.980469 C 16.660156 19.980469 16.527344 20.035156 16.429688 20.132812 C 16.277344 20.285156 16.101562 20.230469 16.050781 20.207031 C 16 20.1875 15.835938 20.101562 15.835938 19.886719 C 15.835938 19.597656 15.597656 19.359375 15.304688 19.359375 L 14.695312 19.359375 C 14.402344 19.359375 14.164062 19.597656 14.164062 19.886719 C 14.164062 20.101562 14 20.1875 13.949219 20.207031 C 13.898438 20.230469 13.722656 20.285156 13.570312 20.132812 C 13.367188 19.925781 13.027344 19.925781 12.824219 20.132812 L 12.390625 20.566406 C 12.289062 20.667969 12.234375 20.800781 12.234375 20.941406 C 12.234375 21.082031 12.289062 21.214844 12.390625 21.316406 C 12.542969 21.46875 12.484375 21.644531 12.464844 21.695312 C 12.445312 21.746094 12.359375 21.910156 12.144531 21.910156 C 11.851562 21.910156 11.613281 22.144531 11.613281 22.4375 L 11.613281 23.050781 C 11.613281 23.339844 11.851562 23.578125 12.144531 23.578125 C 12.359375 23.578125 12.445312 23.742188 12.464844 23.792969 C 12.484375 23.84375 12.542969 24.019531 12.390625 24.171875 C 12.289062 24.273438 12.234375 24.40625 12.234375 24.546875 C 12.234375 24.6875 12.289062 24.820312 12.390625 24.921875 L 12.824219 25.355469 C 13.027344 25.558594 13.363281 25.558594 13.570312 25.355469 C 13.722656 25.203125 13.898438 25.257812 13.949219 25.277344 C 14 25.300781 14.164062 25.382812 14.164062 25.597656 C 14.164062 25.890625 14.402344 26.128906 14.695312 26.128906 L 15.304688 26.128906 C 15.597656 26.128906 15.835938 25.890625 15.835938 25.597656 C 15.835938 25.382812 16 25.300781 16.050781 25.277344 C 16.101562 25.257812 16.277344 25.203125 16.429688 25.355469 C 16.527344 25.453125 16.660156 25.507812 16.804688 25.507812 C 16.945312 25.507812 17.078125 25.453125 17.175781 25.355469 L 17.609375 24.921875 C 17.710938 24.820312 17.765625 24.6875 17.765625 24.546875 C 17.765625 24.40625 17.710938 24.273438 17.609375 24.171875 C 17.457031 24.019531 17.515625 23.84375 17.535156 23.792969 C 17.554688 23.742188 17.640625 23.578125 17.855469 23.578125 C 18.148438 23.578125 18.386719 23.339844 18.386719 23.050781 L 18.386719 22.4375 C 18.386719 22.144531 18.148438 21.910156 17.855469 21.910156 Z M 17.726562 22.929688 C 17.367188 22.972656 17.070312 23.199219 16.925781 23.542969 C 16.785156 23.882812 16.835938 24.257812 17.058594 24.542969 L 16.796875 24.804688 C 16.511719 24.582031 16.140625 24.527344 15.796875 24.671875 C 15.457031 24.8125 15.230469 25.113281 15.183594 25.472656 L 14.816406 25.472656 C 14.769531 25.113281 14.542969 24.8125 14.203125 24.671875 C 13.859375 24.527344 13.488281 24.582031 13.203125 24.804688 L 12.941406 24.542969 C 13.164062 24.257812 13.214844 23.886719 13.074219 23.542969 C 12.929688 23.199219 12.632812 22.972656 12.273438 22.929688 L 12.273438 22.558594 C 12.632812 22.515625 12.929688 22.289062 13.074219 21.945312 C 13.214844 21.601562 13.164062 21.230469 12.941406 20.945312 L 13.203125 20.683594 C 13.488281 20.90625 13.859375 20.960938 14.203125 20.816406 C 14.542969 20.675781 14.769531 20.375 14.816406 20.015625 L 15.183594 20.015625 C 15.230469 20.375 15.457031 20.675781 15.796875 20.816406 C 16.140625 20.960938 16.511719 20.90625 16.796875 20.683594 L 17.058594 20.945312 C 16.835938 21.230469 16.785156 21.601562 16.925781 21.945312 C 17.070312 22.289062 17.367188 22.515625 17.726562 22.558594 Z M 22.882812 21.84375 C 22.882812 21.273438 22.492188 20.8125 22.007812 20.8125 C 21.527344 20.8125 21.132812 21.273438 21.132812 21.84375 C 21.132812 22.414062 21.527344 22.875 22.007812 22.875 C 22.492188 22.875 22.882812 22.414062 22.882812 21.84375 Z M 21.792969 21.84375 C 21.792969 21.632812 21.910156 21.46875 22.007812 21.46875 C 22.109375 21.46875 22.226562 21.632812 22.226562 21.84375 C 22.226562 22.054688 22.109375 22.21875 22.007812 22.21875 C 21.910156 22.21875 21.792969 22.054688 21.792969 21.84375 Z M 6.773438 19.359375 C 4.90625 19.359375 3.386719 20.878906 3.386719 22.742188 C 3.386719 24.609375 4.90625 26.128906 6.773438 26.128906 C 8.640625 26.128906 10.15625 24.609375 10.15625 22.742188 C 10.15625 20.878906 8.640625 19.359375 6.773438 19.359375 Z M 6.773438 25.472656 C 6.152344 25.472656 5.582031 25.261719 5.125 24.914062 C 5.542969 24.453125 6.140625 24.179688 6.773438 24.179688 C 7.40625 24.179688 8 24.453125 8.417969 24.914062 C 7.960938 25.261719 7.390625 25.472656 6.773438 25.472656 Z M 8.890625 24.457031 C 8.351562 23.867188 7.585938 23.523438 6.773438 23.523438 C 5.960938 23.523438 5.191406 23.867188 4.652344 24.457031 C 4.273438 23.988281 4.046875 23.390625 4.046875 22.742188 C 4.046875 21.242188 5.269531 20.015625 6.773438 20.015625 C 8.277344 20.015625 9.5 21.242188 9.5 22.742188 C 9.5 23.390625 9.269531 23.988281 8.890625 24.457031 Z M 15 20.921875 C 13.996094 20.921875 13.175781 21.738281 13.175781 22.742188 C 13.175781 23.75 13.996094 24.566406 15 24.566406 C 16.003906 24.566406 16.824219 23.75 16.824219 22.742188 C 16.824219 21.738281 16.003906 20.921875 15 20.921875 Z M 15 23.910156 C 14.359375 23.910156 13.835938 23.386719 13.835938 22.742188 C 13.835938 22.101562 14.359375 21.578125 15 21.578125 C 15.640625 21.578125 16.164062 22.101562 16.164062 22.742188 C 16.164062 23.386719 15.640625 23.910156 15 23.910156 Z M 6.773438 20.496094 C 5.941406 20.496094 5.269531 21.167969 5.269531 22 C 5.269531 22.828125 5.941406 23.503906 6.773438 23.503906 C 7.601562 23.503906 8.277344 22.828125 8.277344 22 C 8.277344 21.167969 7.601562 20.496094 6.773438 20.496094 Z M 6.773438 22.84375 C 6.304688 22.84375 5.925781 22.464844 5.925781 22 C 5.925781 21.53125 6.304688 21.152344 6.773438 21.152344 C 7.238281 21.152344 7.617188 21.53125 7.617188 22 C 7.617188 22.464844 7.238281 22.84375 6.773438 22.84375 Z M 7.070312 19.046875 L 9.054688 19.046875 C 9.238281 19.046875 9.386719 18.898438 9.386719 18.714844 C 9.386719 18.535156 9.238281 18.386719 9.054688 18.386719 L 7.875 18.386719 L 13.519531 12.742188 C 13.886719 12.855469 14.273438 12.929688 14.671875 12.953125 L 14.671875 17.921875 L 13.828125 17.078125 C 13.699219 16.949219 13.492188 16.949219 13.363281 17.078125 C 13.234375 17.207031 13.234375 17.417969 13.363281 17.542969 L 14.765625 18.949219 C 14.832031 19.011719 14.914062 19.046875 15 19.046875 C 15.085938 19.046875 15.167969 19.011719 15.234375 18.949219 L 16.636719 17.542969 C 16.765625 17.417969 16.765625 17.207031 16.636719 17.078125 C 16.507812 16.949219 16.300781 16.949219 16.171875 17.078125 L 15.328125 17.921875 L 15.328125 12.953125 C 15.726562 12.929688 16.113281 12.855469 16.480469 12.742188 L 22.125 18.386719 L 20.945312 18.386719 C 20.761719 18.386719 20.613281 18.535156 20.613281 18.714844 C 20.613281 18.898438 20.761719 19.046875 20.945312 19.046875 L 22.929688 19.046875 C 23.113281 19.046875 23.257812 18.898438 23.257812 18.714844 L 23.257812 16.730469 C 23.257812 16.546875 23.113281 16.402344 22.929688 16.402344 C 22.75 16.402344 22.601562 16.546875 22.601562 16.730469 L 22.601562 17.933594 L 17.148438 12.480469 C 18.851562 11.675781 20.03125 9.9375 20.03125 7.933594 C 20.03125 5.160156 17.773438 2.902344 15 2.902344 C 12.226562 2.902344 9.96875 5.160156 9.96875 7.933594 C 9.96875 9.9375 11.148438 11.675781 12.851562 12.480469 L 7.398438 17.933594 L 7.398438 16.730469 C 7.398438 16.546875 7.25 16.402344 7.070312 16.402344 C 6.886719 16.402344 6.742188 16.546875 6.742188 16.730469 L 6.742188 18.714844 C 6.742188 18.898438 6.886719 19.046875 7.070312 19.046875 Z M 22.601562 18.34375 L 22.601562 18.386719 L 22.558594 18.386719 Z M 10.628906 7.933594 C 10.628906 5.523438 12.589844 3.5625 15 3.5625 C 17.410156 3.5625 19.371094 5.523438 19.371094 7.933594 C 19.371094 10.34375 17.410156 12.304688 15 12.304688 C 12.589844 12.304688 10.628906 10.34375 10.628906 7.933594 Z M 7.398438 18.34375 L 7.441406 18.386719 L 7.398438 18.386719 Z M 24.585938 21.046875 L 22.4375 24.769531 C 22.378906 24.875 22.265625 24.933594 22.152344 24.933594 C 22.097656 24.933594 22.042969 24.917969 21.988281 24.890625 C 21.832031 24.796875 21.777344 24.597656 21.867188 24.441406 L 24.015625 20.71875 C 24.109375 20.5625 24.308594 20.507812 24.464844 20.597656 C 24.625 20.691406 24.675781 20.890625 24.585938 21.046875 Z M 24.585938 21.046875 " fill-opacity="1" fill-rule="nonzero"/></g></svg>