<svg xmlns="http://www.w3.org/2000/svg" xmlns:xlink="http://www.w3.org/1999/xlink" width="40" zoomAndPan="magnify" viewBox="0 0 30 30.000001" height="40" preserveAspectRatio="xMidYMid meet" version="1.0"><defs><clipPath id="06e2251468"><path d="M 0.484375 0 L 29.515625 0 L 29.515625 29.03125 L 0.484375 29.03125 Z M 0.484375 0 " clip-rule="nonzero"/></clipPath><clipPath id="af3c152f0c"><path d="M 3.386719 3.441406 L 26.613281 3.441406 L 26.613281 25.941406 L 3.386719 25.941406 Z M 3.386719 3.441406 " clip-rule="nonzero"/></clipPath></defs><g clip-path="url(#06e2251468)"><path fill="#ffffff" d="M 0.484375 0 L 29.515625 0 L 29.515625 29.03125 L 0.484375 29.03125 Z M 0.484375 0 " fill-opacity="1" fill-rule="nonzero"/><path fill="#ffffff" d="M 0.484375 0 L 29.515625 0 L 29.515625 29.03125 L 0.484375 29.03125 Z M 0.484375 0 " fill-opacity="1" fill-rule="nonzero"/></g><g clip-path="url(#af3c152f0c)"><path fill="#935f3d" d="M 17.53125 4.769531 C 17.53125 4.933594 17.398438 5.0625 17.234375 5.0625 C 17.074219 5.0625 16.941406 4.933594 16.941406 4.769531 L 16.941406 3.734375 C 16.941406 3.574219 17.074219 3.441406 17.234375 3.441406 C 17.398438 3.441406 17.53125 3.574219 17.53125 3.734375 Z M 20.492188 5.730469 C 20.367188 5.835938 20.179688 5.816406 20.078125 5.691406 C 19.976562 5.5625 19.996094 5.378906 20.121094 5.277344 L 21.019531 4.546875 C 21.144531 4.445312 21.332031 4.460938 21.433594 4.589844 C 21.535156 4.714844 21.515625 4.898438 21.390625 5.003906 Z M 14.351562 5.277344 C 14.476562 5.378906 14.496094 5.5625 14.394531 5.691406 C 14.292969 5.816406 14.105469 5.835938 13.980469 5.734375 L 13.082031 5.003906 C 12.957031 4.898438 12.9375 4.714844 13.039062 4.589844 C 13.144531 4.460938 13.328125 4.445312 13.453125 4.546875 Z M 17.234375 6.535156 C 18.5 6.535156 19.136719 8.066406 18.242188 8.960938 C 17.347656 9.855469 15.8125 9.21875 15.8125 7.957031 C 15.8125 7.171875 16.453125 6.535156 17.234375 6.535156 Z M 17.824219 7.367188 C 17.304688 6.84375 16.40625 7.21875 16.40625 7.957031 C 16.40625 8.695312 17.304688 9.066406 17.824219 8.542969 C 18.148438 8.21875 18.148438 7.695312 17.824219 7.367188 Z M 17.234375 5.472656 C 18.921875 5.472656 20.457031 6.375 21.285156 7.808594 C 21.335938 7.894531 21.335938 7.996094 21.296875 8.078125 L 21.5625 8.078125 C 22.5 8.078125 23.269531 8.84375 23.269531 9.78125 L 23.269531 21.882812 C 23.269531 22.820312 22.5 23.585938 21.5625 23.585938 L 17.136719 23.585938 C 17.363281 24.609375 16.578125 25.585938 15.53125 25.585938 L 5.558594 25.585938 C 4.179688 25.585938 3.394531 23.96875 4.292969 22.890625 C 4.460938 22.6875 4.675781 22.523438 4.921875 22.421875 C 4.535156 21.261719 4.613281 19.464844 5.203125 17.796875 C 5.6875 16.433594 6.511719 15.148438 7.707031 14.339844 C 7.207031 13.808594 7.304688 12.972656 7.902344 12.566406 C 7.542969 12.023438 7.347656 11.371094 7.3125 10.71875 C 7.273438 10.023438 7.730469 9.289062 8.453125 9.355469 C 8.746094 9.382812 9.027344 9.46875 9.289062 9.609375 C 9.390625 9.285156 9.535156 8.976562 9.71875 8.703125 C 10.144531 8.074219 10.941406 8.074219 11.367188 8.703125 C 11.535156 8.953125 11.667969 9.226562 11.769531 9.515625 C 11.882812 8.792969 12.457031 8.214844 13.183594 8.097656 C 13.132812 8.003906 13.136719 7.890625 13.191406 7.804688 C 13.601562 7.097656 14.191406 6.503906 14.902344 6.097656 C 15.589844 5.699219 16.386719 5.472656 17.234375 5.472656 Z M 20.902344 8.667969 C 19.027344 11.03125 15.445312 11.03125 13.570312 8.667969 L 13.453125 8.667969 C 12.984375 8.667969 12.574219 8.960938 12.410156 9.386719 C 12.65625 9.335938 12.875 9.324219 13.113281 9.441406 C 13.570312 9.660156 13.800781 10.207031 13.773438 10.714844 C 13.738281 11.371094 13.542969 12.023438 13.183594 12.566406 C 13.78125 12.96875 13.878906 13.808594 13.378906 14.339844 C 14.082031 14.816406 14.660156 15.457031 15.113281 16.183594 L 20.613281 16.183594 C 20.777344 16.183594 20.910156 16.316406 20.910156 16.476562 C 20.910156 16.640625 20.777344 16.773438 20.613281 16.773438 L 15.445312 16.773438 C 15.976562 17.820312 16.292969 19.007812 16.378906 20.136719 L 20.613281 20.136719 C 20.777344 20.136719 20.910156 20.265625 20.910156 20.429688 C 20.910156 20.59375 20.777344 20.722656 20.613281 20.722656 L 16.402344 20.722656 C 16.402344 21.363281 16.320312 21.945312 16.164062 22.421875 C 16.453125 22.542969 16.699219 22.742188 16.875 22.996094 L 21.5625 22.996094 C 22.175781 22.996094 22.679688 22.492188 22.679688 21.878906 L 22.679688 9.78125 C 22.679688 9.171875 22.175781 8.667969 21.5625 8.667969 Z M 19.277344 6.605469 C 17.386719 5.515625 14.960938 6.105469 13.785156 7.957031 C 14.960938 9.800781 17.382812 10.402344 19.277344 9.308594 C 19.847656 8.980469 20.332031 8.511719 20.6875 7.957031 C 20.332031 7.398438 19.847656 6.933594 19.277344 6.605469 Z M 9.328125 20.800781 C 9.328125 20.636719 9.457031 20.507812 9.621094 20.507812 C 9.785156 20.507812 9.914062 20.636719 9.914062 20.800781 C 9.914062 21.148438 10.621094 21.355469 11.019531 21.054688 C 11.113281 20.984375 11.171875 20.894531 11.171875 20.800781 C 11.171875 20.53125 10.859375 20.460938 10.535156 20.40625 C 10.503906 20.402344 10.472656 20.398438 10.445312 20.386719 C 9.878906 20.285156 9.328125 20.164062 9.328125 19.414062 C 9.328125 18.910156 9.765625 18.550781 10.25 18.453125 L 10.25 18.222656 C 10.25 18.058594 10.382812 17.925781 10.542969 17.925781 C 10.707031 17.925781 10.839844 18.058594 10.839844 18.222656 L 10.839844 18.453125 C 11.324219 18.550781 11.761719 18.910156 11.761719 19.414062 C 11.761719 19.574219 11.628906 19.707031 11.464844 19.707031 C 11.304688 19.707031 11.171875 19.574219 11.171875 19.414062 C 11.171875 19.066406 10.464844 18.859375 10.066406 19.15625 C 9.976562 19.226562 9.917969 19.320312 9.917969 19.414062 C 9.917969 19.730469 10.328125 19.753906 10.621094 19.820312 C 11.195312 19.925781 11.761719 20.039062 11.761719 20.800781 C 11.761719 21.304688 11.324219 21.664062 10.839844 21.757812 L 10.839844 21.992188 L 10.25 21.992188 L 10.25 21.757812 C 9.765625 21.664062 9.328125 21.304688 9.328125 20.800781 Z M 10.542969 16.101562 C 12.753906 16.101562 14.550781 17.894531 14.550781 20.105469 C 14.550781 22.320312 12.753906 24.113281 10.542969 24.113281 C 8.332031 24.113281 6.539062 22.320312 6.539062 20.105469 C 6.539062 17.894531 8.332031 16.101562 10.542969 16.101562 Z M 12.957031 17.691406 C 11.625 16.359375 9.460938 16.359375 8.128906 17.691406 C 6.792969 19.027344 6.792969 21.1875 8.128906 22.523438 C 9.460938 23.855469 11.625 23.855469 12.957031 22.523438 C 14.292969 21.1875 14.292969 19.027344 12.957031 17.691406 Z M 8.558594 12.363281 L 12.527344 12.363281 C 12.554688 12.363281 12.578125 12.367188 12.601562 12.367188 C 12.964844 11.890625 13.152344 11.285156 13.1875 10.6875 C 13.199219 10.472656 13.152344 10.28125 13.023438 10.117188 C 12.933594 10 12.828125 9.925781 12.6875 9.941406 C 12.378906 9.964844 12.046875 10.105469 11.808594 10.304688 C 11.628906 10.457031 11.367188 10.359375 11.324219 10.140625 C 11.25 9.742188 11.097656 9.359375 10.878906 9.035156 C 10.6875 8.75 10.398438 8.75 10.207031 9.035156 C 9.988281 9.359375 9.835938 9.742188 9.761719 10.140625 C 9.722656 10.351562 9.460938 10.453125 9.289062 10.3125 C 9.027344 10.105469 8.722656 9.96875 8.398438 9.941406 C 8.160156 9.917969 7.992188 10.164062 7.933594 10.367188 C 7.835938 10.703125 7.972656 11.300781 8.082031 11.617188 C 8.179688 11.886719 8.3125 12.140625 8.484375 12.367188 C 8.507812 12.367188 8.53125 12.363281 8.558594 12.363281 Z M 12.808594 14.671875 C 12.71875 14.695312 12.625 14.707031 12.527344 14.707031 L 8.558594 14.707031 C 8.460938 14.707031 8.367188 14.695312 8.277344 14.671875 C 7.066406 15.386719 6.238281 16.644531 5.757812 17.988281 C 5.160156 19.675781 5.117188 21.472656 5.574219 22.480469 C 5.65625 22.65625 5.558594 22.863281 5.363281 22.898438 C 4.539062 23.050781 4.199219 24.074219 4.808594 24.6875 C 5 24.878906 5.265625 24.996094 5.558594 24.996094 L 15.527344 24.996094 C 16.109375 24.996094 16.585938 24.523438 16.585938 23.9375 C 16.585938 23.433594 16.222656 22.992188 15.722656 22.898438 C 15.535156 22.863281 15.429688 22.664062 15.507812 22.488281 C 15.753906 21.953125 15.847656 21.214844 15.8125 20.402344 C 15.714844 18.3125 14.703125 15.789062 12.808594 14.671875 Z M 12.527344 12.957031 L 8.558594 12.957031 C 8.046875 12.957031 7.777344 13.574219 8.148438 13.945312 C 8.253906 14.050781 8.398438 14.117188 8.558594 14.117188 L 12.527344 14.117188 C 13.039062 14.117188 13.308594 13.496094 12.9375 13.125 C 12.835938 13.019531 12.6875 12.957031 12.527344 12.957031 Z M 25.167969 20.976562 L 25.863281 19.390625 L 24.476562 19.390625 Z M 26.011719 20.519531 L 25.4375 21.824219 C 25.339844 22.054688 25.003906 22.066406 24.898438 21.824219 L 23.765625 19.234375 L 23.730469 19.097656 L 23.730469 10.871094 C 23.730469 10.203125 24.273438 9.660156 24.9375 9.660156 L 25.398438 9.660156 C 26.066406 9.660156 26.609375 10.203125 26.609375 10.871094 L 26.609375 19.09375 C 26.609375 19.144531 26.59375 19.191406 26.574219 19.234375 Z M 26.019531 11.488281 L 26.019531 10.871094 C 26.019531 10.53125 25.738281 10.25 25.398438 10.25 L 24.9375 10.25 C 24.597656 10.25 24.320312 10.53125 24.320312 10.871094 L 24.320312 11.488281 Z M 26.019531 12.078125 L 24.320312 12.078125 L 24.320312 18.800781 L 26.019531 18.800781 Z M 20.613281 10.9375 C 20.777344 10.9375 20.910156 11.070312 20.910156 11.230469 C 20.910156 11.394531 20.777344 11.527344 20.613281 11.527344 L 17.3125 11.527344 C 17.152344 11.527344 17.019531 11.394531 17.019531 11.230469 C 17.019531 11.070312 17.152344 10.9375 17.3125 10.9375 Z M 20.613281 18.84375 C 20.777344 18.84375 20.910156 18.972656 20.910156 19.136719 C 20.910156 19.300781 20.777344 19.429688 20.613281 19.429688 L 17.3125 19.429688 C 17.152344 19.429688 17.019531 19.300781 17.019531 19.136719 C 17.019531 18.972656 17.152344 18.84375 17.3125 18.84375 Z M 20.613281 14.890625 C 20.777344 14.890625 20.910156 15.023438 20.910156 15.183594 C 20.910156 15.347656 20.777344 15.476562 20.613281 15.476562 L 17.3125 15.476562 C 17.152344 15.476562 17.019531 15.347656 17.019531 15.183594 C 17.019531 15.023438 17.152344 14.890625 17.3125 14.890625 Z M 20.613281 12.230469 C 20.777344 12.230469 20.910156 12.363281 20.910156 12.527344 C 20.910156 12.691406 20.777344 12.824219 20.613281 12.824219 L 14.402344 12.824219 C 14.238281 12.824219 14.105469 12.691406 14.105469 12.527344 C 14.105469 12.363281 14.238281 12.230469 14.402344 12.230469 Z M 20.613281 12.230469 " fill-opacity="1" fill-rule="nonzero"/></g></svg>