<svg xmlns="http://www.w3.org/2000/svg" xmlns:xlink="http://www.w3.org/1999/xlink" width="40" zoomAndPan="magnify" viewBox="0 0 30 30.000001" height="40" preserveAspectRatio="xMidYMid meet" version="1.0"><defs><clipPath id="bda7fd62f7"><path d="M 0.484375 0 L 29.515625 0 L 29.515625 29.03125 L 0.484375 29.03125 Z M 0.484375 0 " clip-rule="nonzero"/></clipPath><clipPath id="16eb33f903"><path d="M 3.574219 2.710938 L 26.800781 2.710938 L 26.800781 25.9375 L 3.574219 25.9375 Z M 3.574219 2.710938 " clip-rule="nonzero"/></clipPath></defs><g clip-path="url(#bda7fd62f7)"><path fill="#ffffff" d="M 0.484375 0 L 29.515625 0 L 29.515625 29.03125 L 0.484375 29.03125 Z M 0.484375 0 " fill-opacity="1" fill-rule="nonzero"/><path fill="#ffffff" d="M 0.484375 0 L 29.515625 0 L 29.515625 29.03125 L 0.484375 29.03125 Z M 0.484375 0 " fill-opacity="1" fill-rule="nonzero"/></g><path fill="#935f3d" d="M 23.535156 13.457031 C 22.898438 13.457031 22.382812 13.972656 22.382812 14.605469 C 22.382812 15.242188 22.898438 15.757812 23.535156 15.757812 C 24.167969 15.757812 24.683594 15.242188 24.683594 14.605469 C 24.683594 13.972656 24.167969 13.457031 23.535156 13.457031 " fill-opacity="1" fill-rule="nonzero"/><g clip-path="url(#16eb33f903)"><path fill="#935f3d" d="M 23.535156 16.527344 C 22.476562 16.527344 21.617188 15.664062 21.617188 14.605469 C 21.617188 13.546875 22.476562 12.6875 23.535156 12.6875 C 24.59375 12.6875 25.453125 13.546875 25.453125 14.605469 C 25.453125 15.664062 24.59375 16.527344 23.535156 16.527344 Z M 17.644531 23.851562 L 17.011719 20.363281 L 18.929688 19.210938 L 18.929688 17.292969 L 17.394531 17.292969 L 17.394531 18.058594 L 15.859375 18.058594 L 15.859375 17.292969 L 14.324219 17.292969 L 14.324219 18.058594 L 12.789062 18.058594 L 12.789062 17.292969 L 11.253906 17.292969 L 11.253906 19.210938 L 13.171875 20.363281 L 12.539062 23.855469 C 9.277344 22.953125 6.710938 20.363281 5.832031 17.089844 C 5.863281 17.035156 5.882812 16.976562 5.882812 16.910156 L 5.882812 14.992188 L 6.941406 14.992188 C 7.246094 14.992188 7.539062 15.113281 7.753906 15.328125 L 8.183594 15.757812 L 9.71875 15.757812 L 9.71875 14.992188 C 10.355469 14.992188 10.871094 14.476562 10.871094 13.839844 C 10.871094 13.203125 10.355469 12.6875 9.71875 12.6875 L 9.71875 11.921875 L 8.183594 11.921875 L 7.753906 12.351562 C 7.539062 12.566406 7.246094 12.6875 6.941406 12.6875 L 5.703125 12.6875 C 6.105469 10.71875 7.109375 8.972656 8.519531 7.640625 C 9.078125 8.808594 10.261719 9.617188 11.640625 9.617188 C 13.414062 9.617188 14.878906 8.273438 15.070312 6.546875 L 19.503906 6.546875 L 20.082031 7.699219 L 21.734375 7.699219 C 22.832031 8.753906 23.679688 10.066406 24.175781 11.535156 L 22.765625 11.535156 L 22.558594 12.105469 C 22.523438 12.121094 22.488281 12.132812 22.453125 12.148438 L 21.90625 11.894531 L 20.820312 12.980469 L 21.074219 13.527344 C 21.0625 13.5625 21.046875 13.597656 21.03125 13.632812 L 20.464844 13.839844 L 20.464844 15.375 L 21.03125 15.582031 C 21.046875 15.617188 21.0625 15.652344 21.074219 15.6875 L 20.820312 16.234375 L 21.90625 17.320312 L 22.453125 17.066406 C 22.488281 17.082031 22.523438 17.09375 22.558594 17.109375 L 22.765625 17.675781 L 24.175781 17.675781 C 23.164062 20.671875 20.710938 23.003906 17.644531 23.851562 Z M 12.71875 6.546875 C 12.5625 6.992188 12.136719 7.316406 11.640625 7.316406 C 11.003906 7.316406 10.488281 6.800781 10.488281 6.164062 C 10.488281 5.53125 11.003906 5.015625 11.640625 5.015625 C 12.136719 5.015625 12.5625 5.335938 12.71875 5.78125 L 11.253906 5.78125 L 11.253906 6.546875 Z M 11.640625 3.480469 C 12.988281 3.480469 14.109375 4.480469 14.292969 5.78125 L 13.519531 5.78125 C 13.339844 4.90625 12.566406 4.246094 11.640625 4.246094 C 10.582031 4.246094 9.71875 5.105469 9.71875 6.164062 C 9.71875 7.222656 10.582031 8.082031 11.640625 8.082031 C 12.566406 8.082031 13.339844 7.425781 13.519531 6.546875 L 14.292969 6.546875 C 14.109375 7.847656 12.988281 8.851562 11.640625 8.851562 C 10.15625 8.851562 8.953125 7.644531 8.953125 6.164062 C 8.953125 4.683594 10.15625 3.480469 11.640625 3.480469 Z M 26.605469 15.375 L 26.605469 13.839844 L 26.035156 13.632812 C 26.019531 13.597656 26.007812 13.5625 25.992188 13.527344 L 26.246094 12.980469 L 25.164062 11.894531 L 25.089844 11.925781 C 24.664062 10.332031 23.867188 8.894531 22.796875 7.699219 L 23.152344 7.699219 L 22.382812 6.164062 L 23.152344 4.628906 L 20.082031 4.628906 L 19.503906 5.78125 L 15.070312 5.78125 C 14.878906 4.058594 13.414062 2.710938 11.640625 2.710938 C 9.734375 2.710938 8.183594 4.261719 8.183594 6.164062 C 8.183594 6.394531 8.210938 6.617188 8.25 6.835938 C 6.554688 8.332031 5.347656 10.375 4.914062 12.6875 L 4.730469 12.6875 C 4.097656 12.6875 3.582031 13.203125 3.582031 13.839844 C 3.582031 14.339844 3.902344 14.761719 4.347656 14.921875 L 4.347656 16.910156 C 4.347656 17.121094 4.519531 17.292969 4.730469 17.292969 L 5.09375 17.292969 C 6.039062 20.816406 8.796875 23.601562 12.304688 24.582031 L 12.023438 24.582031 C 11.597656 24.582031 11.253906 24.925781 11.253906 25.351562 L 11.253906 26.117188 L 18.929688 26.117188 L 18.929688 25.351562 C 18.929688 24.925781 18.585938 24.582031 18.164062 24.582031 L 17.875 24.582031 C 21.386719 23.601562 24.144531 20.8125 25.089844 17.285156 L 25.164062 17.320312 L 26.246094 16.234375 L 25.992188 15.6875 C 26.007812 15.652344 26.019531 15.617188 26.035156 15.582031 L 26.605469 15.375 " fill-opacity="1" fill-rule="nonzero"/></g></svg>