<svg xmlns="http://www.w3.org/2000/svg" xmlns:xlink="http://www.w3.org/1999/xlink" width="40" zoomAndPan="magnify" viewBox="0 0 30 30.000001" height="40" preserveAspectRatio="xMidYMid meet" version="1.0"><defs><clipPath id="03d01ae944"><path d="M 0.484375 0 L 29.515625 0 L 29.515625 29.03125 L 0.484375 29.03125 Z M 0.484375 0 " clip-rule="nonzero"/></clipPath><clipPath id="49ecf0101a"><path d="M 3.460938 2.902344 L 26.683594 2.902344 L 26.683594 26.128906 L 3.460938 26.128906 Z M 3.460938 2.902344 " clip-rule="nonzero"/></clipPath></defs><g clip-path="url(#03d01ae944)"><path fill="#ffffff" d="M 0.484375 0 L 29.515625 0 L 29.515625 29.03125 L 0.484375 29.03125 Z M 0.484375 0 " fill-opacity="1" fill-rule="nonzero"/><path fill="#ffffff" d="M 0.484375 0 L 29.515625 0 L 29.515625 29.03125 L 0.484375 29.03125 Z M 0.484375 0 " fill-opacity="1" fill-rule="nonzero"/></g><g clip-path="url(#49ecf0101a)"><path fill="#935f3d" d="M 22.371094 17.097656 L 18.289062 19.476562 C 18.09375 19.589844 17.894531 19.671875 17.6875 19.722656 C 17.761719 19.597656 17.820312 19.460938 17.863281 19.308594 C 18.070312 18.523438 17.605469 17.703125 16.800781 17.441406 C 16.78125 17.433594 16.765625 17.429688 16.75 17.429688 C 15.578125 17.214844 14.417969 16.796875 13.488281 16.460938 C 13.164062 16.34375 12.859375 16.234375 12.597656 16.148438 C 11.546875 15.808594 10.597656 16.230469 9.808594 16.6875 L 6.78125 18.441406 L 6.570312 18.0625 C 6.441406 17.835938 6.230469 17.675781 5.980469 17.605469 C 5.726562 17.535156 5.464844 17.566406 5.238281 17.695312 L 4.09375 18.34375 C 3.625 18.609375 3.457031 19.207031 3.722656 19.675781 L 7.09375 25.628906 C 7.222656 25.855469 7.429688 26.015625 7.683594 26.085938 C 7.769531 26.113281 7.859375 26.125 7.945312 26.125 C 8.113281 26.125 8.277344 26.082031 8.421875 25.996094 L 9.570312 25.347656 C 9.796875 25.21875 9.957031 25.011719 10.027344 24.757812 C 10.097656 24.507812 10.066406 24.246094 9.9375 24.019531 L 9.53125 23.296875 L 10.207031 22.902344 L 15.433594 24.304688 C 15.730469 24.382812 16.023438 24.425781 16.308594 24.425781 C 16.875 24.425781 17.417969 24.265625 17.929688 23.953125 L 25.34375 19.386719 C 26.023438 18.96875 26.242188 17.910156 25.796875 17.167969 C 25.582031 16.808594 24.699219 15.742188 22.371094 17.097656 Z M 9.199219 24.695312 L 8.054688 25.34375 C 7.949219 25.40625 7.804688 25.367188 7.746094 25.257812 L 4.375 19.304688 C 4.316406 19.199219 4.355469 19.054688 4.460938 18.996094 L 5.605469 18.347656 C 5.640625 18.328125 5.679688 18.316406 5.71875 18.316406 C 5.738281 18.316406 5.757812 18.320312 5.78125 18.328125 C 5.839844 18.34375 5.886719 18.378906 5.917969 18.433594 L 9.285156 24.386719 C 9.347656 24.492188 9.308594 24.636719 9.199219 24.695312 Z M 24.949219 18.75 L 17.539062 23.3125 C 16.953125 23.675781 16.308594 23.765625 15.628906 23.582031 L 10.25 22.140625 C 10.15625 22.113281 10.054688 22.128906 9.96875 22.179688 L 9.160156 22.644531 L 7.152344 19.09375 L 10.1875 17.335938 C 10.863281 16.941406 11.597656 16.613281 12.367188 16.863281 C 12.617188 16.941406 12.902344 17.046875 13.234375 17.164062 C 14.183594 17.507812 15.363281 17.9375 16.589844 18.160156 C 17.011719 18.308594 17.246094 18.714844 17.136719 19.113281 C 17.007812 19.601562 16.621094 19.695312 16.289062 19.671875 C 15.621094 19.542969 15.019531 19.371094 14.390625 19.195312 C 14.117188 19.117188 13.835938 19.035156 13.542969 18.957031 C 13.34375 18.90625 13.136719 19.023438 13.082031 19.222656 C 13.03125 19.421875 13.148438 19.628906 13.347656 19.679688 C 13.636719 19.757812 13.914062 19.835938 14.183594 19.914062 C 14.785156 20.085938 15.359375 20.246094 15.996094 20.378906 C 16.027344 20.394531 16.0625 20.402344 16.101562 20.40625 C 16.132812 20.410156 16.160156 20.414062 16.1875 20.417969 C 16.320312 20.441406 16.457031 20.464844 16.597656 20.488281 C 17.359375 20.609375 18.035156 20.492188 18.664062 20.125 L 22.75 17.746094 C 23.917969 17.0625 24.820312 16.992188 25.15625 17.554688 C 25.386719 17.941406 25.285156 18.542969 24.949219 18.75 Z M 5.867188 19.367188 C 5.898438 19.589844 5.746094 19.800781 5.519531 19.832031 C 5.296875 19.863281 5.089844 19.710938 5.058594 19.484375 C 5.023438 19.261719 5.179688 19.054688 5.402344 19.023438 C 5.625 18.988281 5.832031 19.144531 5.867188 19.367188 Z M 26.296875 10.199219 L 25.6875 9.964844 C 25.597656 9.640625 25.46875 9.332031 25.304688 9.035156 L 25.570312 8.441406 C 25.632812 8.300781 25.601562 8.132812 25.492188 8.023438 L 24.582031 7.117188 C 24.472656 7.007812 24.308594 6.976562 24.167969 7.039062 L 23.570312 7.304688 C 23.277344 7.140625 22.964844 7.011719 22.644531 6.917969 L 22.410156 6.3125 C 22.351562 6.167969 22.214844 6.070312 22.058594 6.070312 L 20.773438 6.070312 C 20.621094 6.070312 20.480469 6.167969 20.425781 6.3125 L 20.191406 6.917969 C 19.867188 7.011719 19.558594 7.140625 19.261719 7.304688 L 18.667969 7.039062 C 18.527344 6.976562 18.359375 7.007812 18.25 7.117188 L 18.195312 7.171875 C 18.195312 7.054688 18.195312 6.886719 18.195312 6.632812 L 18.871094 6.632812 C 19.082031 6.632812 19.269531 6.515625 19.359375 6.324219 C 19.449219 6.128906 19.417969 5.910156 19.28125 5.75 L 17.03125 3.097656 C 16.929688 2.976562 16.777344 2.910156 16.621094 2.910156 C 16.460938 2.910156 16.3125 2.976562 16.210938 3.097656 L 13.960938 5.75 C 13.824219 5.910156 13.792969 6.128906 13.882812 6.324219 C 13.972656 6.515625 14.160156 6.632812 14.371094 6.632812 L 15.042969 6.632812 C 15.042969 7.882812 15.046875 8.820312 15.046875 9.753906 C 15.046875 10.691406 15.046875 11.628906 15.046875 12.875 L 14.210938 12.875 L 14.210938 8.324219 C 14.210938 8.117188 14.042969 7.953125 13.835938 7.953125 L 11.441406 7.953125 C 11.234375 7.953125 11.066406 8.117188 11.066406 8.324219 L 11.066406 12.875 L 10.230469 12.875 L 10.230469 9.625 C 10.230469 9.417969 10.0625 9.253906 9.855469 9.253906 L 7.460938 9.253906 C 7.253906 9.253906 7.085938 9.417969 7.085938 9.625 L 7.085938 12.875 L 6.273438 12.875 C 6.066406 12.875 5.898438 13.042969 5.898438 13.25 C 5.898438 13.457031 6.066406 13.625 6.273438 13.625 L 17.40625 13.625 L 17.265625 13.9375 C 17.203125 14.082031 17.234375 14.246094 17.34375 14.355469 L 18.25 15.265625 C 18.359375 15.375 18.527344 15.40625 18.667969 15.339844 L 19.261719 15.078125 C 19.558594 15.242188 19.867188 15.371094 20.191406 15.460938 L 20.425781 16.070312 C 20.480469 16.214844 20.621094 16.308594 20.773438 16.308594 L 22.058594 16.308594 C 22.214844 16.308594 22.351562 16.214844 22.410156 16.070312 L 22.640625 15.460938 C 22.964844 15.371094 23.277344 15.242188 23.570312 15.078125 L 24.167969 15.339844 C 24.308594 15.40625 24.472656 15.375 24.582031 15.265625 L 25.492188 14.355469 C 25.601562 14.246094 25.632812 14.082031 25.570312 13.941406 L 25.304688 13.34375 C 25.46875 13.050781 25.597656 12.738281 25.6875 12.414062 L 26.296875 12.183594 C 26.441406 12.125 26.535156 11.988281 26.535156 11.832031 L 26.535156 10.546875 C 26.535156 10.394531 26.441406 10.253906 26.296875 10.199219 Z M 15.796875 9.753906 C 15.792969 8.726562 15.792969 7.699219 15.792969 6.261719 C 15.792969 6.054688 15.625 5.886719 15.417969 5.886719 L 14.828125 5.886719 L 16.621094 3.773438 L 18.414062 5.886719 L 17.824219 5.886719 C 17.617188 5.886719 17.449219 6.054688 17.449219 6.261719 C 17.449219 7.425781 17.449219 7.183594 17.449219 7.921875 L 17.34375 8.023438 C 17.234375 8.132812 17.203125 8.300781 17.265625 8.441406 L 17.53125 9.035156 C 17.367188 9.332031 17.238281 9.640625 17.144531 9.964844 L 16.539062 10.199219 C 16.394531 10.253906 16.296875 10.394531 16.296875 10.546875 L 16.296875 11.832031 C 16.296875 11.988281 16.394531 12.125 16.539062 12.183594 L 17.144531 12.414062 C 17.191406 12.570312 17.242188 12.726562 17.304688 12.875 L 15.796875 12.875 C 15.796875 11.628906 15.796875 10.691406 15.796875 9.753906 Z M 11.816406 8.699219 L 13.464844 8.699219 L 13.464844 12.875 L 11.816406 12.875 Z M 7.835938 10 L 9.484375 10 L 9.484375 12.875 L 7.835938 12.875 Z M 25.789062 11.574219 L 25.242188 11.785156 C 25.125 11.832031 25.039062 11.929688 25.011719 12.046875 C 24.921875 12.429688 24.769531 12.789062 24.566406 13.125 C 24.5 13.230469 24.492188 13.359375 24.542969 13.472656 L 24.78125 14.007812 L 24.234375 14.554688 L 23.699219 14.316406 C 23.585938 14.265625 23.457031 14.273438 23.351562 14.339844 C 23.019531 14.542969 22.65625 14.695312 22.273438 14.785156 C 22.15625 14.8125 22.058594 14.898438 22.011719 15.015625 L 21.800781 15.5625 L 21.03125 15.5625 L 20.820312 15.015625 C 20.777344 14.898438 20.679688 14.8125 20.558594 14.785156 C 20.179688 14.695312 19.816406 14.542969 19.484375 14.339844 C 19.378906 14.273438 19.246094 14.265625 19.136719 14.316406 L 18.597656 14.554688 L 18.054688 14.007812 L 18.292969 13.472656 C 18.34375 13.359375 18.335938 13.230469 18.269531 13.125 C 18.0625 12.792969 17.914062 12.429688 17.824219 12.046875 C 17.792969 11.929688 17.707031 11.832031 17.59375 11.785156 L 17.046875 11.574219 L 17.046875 10.804688 L 17.59375 10.59375 C 17.707031 10.550781 17.792969 10.453125 17.824219 10.332031 C 17.914062 9.953125 18.0625 9.589844 18.269531 9.257812 C 18.335938 9.152344 18.34375 9.019531 18.292969 8.90625 L 18.054688 8.371094 L 18.597656 7.828125 L 19.136719 8.066406 C 19.246094 8.117188 19.378906 8.105469 19.484375 8.042969 C 19.816406 7.835938 20.179688 7.6875 20.558594 7.597656 C 20.679688 7.566406 20.777344 7.480469 20.820312 7.367188 L 21.03125 6.820312 L 21.800781 6.820312 L 22.011719 7.367188 C 22.058594 7.480469 22.15625 7.566406 22.277344 7.597656 C 22.65625 7.6875 23.015625 7.835938 23.351562 8.042969 C 23.457031 8.105469 23.585938 8.117188 23.699219 8.066406 L 24.234375 7.828125 L 24.78125 8.371094 L 24.542969 8.90625 C 24.492188 9.019531 24.5 9.152344 24.566406 9.257812 C 24.769531 9.589844 24.921875 9.953125 25.011719 10.332031 C 25.039062 10.453125 25.125 10.550781 25.242188 10.59375 L 25.789062 10.804688 Z M 21.417969 8.199219 C 19.765625 8.199219 18.425781 9.539062 18.425781 11.191406 C 18.425781 12.839844 19.765625 14.183594 21.417969 14.183594 C 23.066406 14.183594 24.410156 12.839844 24.410156 11.191406 C 24.410156 9.539062 23.066406 8.199219 21.417969 8.199219 Z M 21.417969 13.433594 C 20.179688 13.433594 19.171875 12.429688 19.171875 11.191406 C 19.171875 9.953125 20.179688 8.945312 21.417969 8.945312 C 22.65625 8.945312 23.660156 9.953125 23.660156 11.191406 C 23.660156 12.429688 22.65625 13.433594 21.417969 13.433594 Z M 22.832031 10.207031 C 22.96875 10.363281 22.957031 10.597656 22.804688 10.738281 L 21.195312 12.199219 C 21.125 12.261719 21.035156 12.296875 20.945312 12.296875 C 20.847656 12.296875 20.75 12.257812 20.679688 12.1875 L 20.015625 11.523438 C 19.871094 11.375 19.871094 11.140625 20.015625 10.992188 C 20.164062 10.847656 20.398438 10.847656 20.546875 10.992188 L 20.957031 11.402344 L 22.300781 10.183594 C 22.457031 10.042969 22.691406 10.054688 22.832031 10.207031 Z M 22.832031 10.207031 " fill-opacity="1" fill-rule="nonzero"/></g></svg>