<svg xmlns="http://www.w3.org/2000/svg" xmlns:xlink="http://www.w3.org/1999/xlink" width="40" zoomAndPan="magnify" viewBox="0 0 30 30.000001" height="40" preserveAspectRatio="xMidYMid meet" version="1.0"><defs><clipPath id="4056a110da"><path d="M 0.484375 0 L 29.515625 0 L 29.515625 29.03125 L 0.484375 29.03125 Z M 0.484375 0 " clip-rule="nonzero"/></clipPath><clipPath id="4cff56351a"><path d="M 13 17 L 25 17 L 25 26.15625 L 13 26.15625 Z M 13 17 " clip-rule="nonzero"/></clipPath><clipPath id="a434bcf118"><path d="M 5 2.933594 L 17 2.933594 L 17 12 L 5 12 Z M 5 2.933594 " clip-rule="nonzero"/></clipPath><clipPath id="718d669dcc"><path d="M 3.386719 13 L 13 13 L 13 24 L 3.386719 24 Z M 3.386719 13 " clip-rule="nonzero"/></clipPath><clipPath id="db461b2c53"><path d="M 17 5 L 26.613281 5 L 26.613281 16 L 17 16 Z M 17 5 " clip-rule="nonzero"/></clipPath></defs><g clip-path="url(#4056a110da)"><path fill="#ffffff" d="M 0.484375 0 L 29.515625 0 L 29.515625 29.03125 L 0.484375 29.03125 Z M 0.484375 0 " fill-opacity="1" fill-rule="nonzero"/><path fill="#ffffff" d="M 0.484375 0 L 29.515625 0 L 29.515625 29.03125 L 0.484375 29.03125 Z M 0.484375 0 " fill-opacity="1" fill-rule="nonzero"/></g><g clip-path="url(#4cff56351a)"><path fill="#935f3d" d="M 23.996094 17.410156 C 23.695312 17.296875 23.359375 17.445312 23.242188 17.746094 C 21.988281 20.972656 19.039062 23.125 15.625 23.355469 L 16.148438 22.832031 C 16.378906 22.601562 16.378906 22.234375 16.148438 22.007812 C 15.921875 21.777344 15.554688 21.777344 15.324219 22.007812 L 13.78125 23.550781 C 13.550781 23.78125 13.550781 24.148438 13.78125 24.375 L 15.324219 25.917969 C 15.4375 26.035156 15.585938 26.089844 15.734375 26.089844 C 15.882812 26.089844 16.035156 26.035156 16.144531 25.917969 C 16.375 25.695312 16.375 25.324219 16.144531 25.09375 L 15.574219 24.523438 C 19.492188 24.304688 22.890625 21.859375 24.324219 18.164062 C 24.449219 17.863281 24.296875 17.527344 23.996094 17.410156 Z M 23.996094 17.410156 " fill-opacity="1" fill-rule="nonzero"/></g><g clip-path="url(#a434bcf118)"><path fill="#935f3d" d="M 6.003906 11.667969 C 6.074219 11.695312 6.144531 11.707031 6.214844 11.707031 C 6.449219 11.707031 6.667969 11.566406 6.757812 11.335938 C 8.011719 8.105469 10.960938 5.957031 14.378906 5.722656 L 13.851562 6.25 C 13.621094 6.476562 13.621094 6.84375 13.851562 7.074219 C 13.964844 7.1875 14.113281 7.242188 14.261719 7.242188 C 14.410156 7.242188 14.5625 7.1875 14.671875 7.074219 L 16.21875 5.527344 C 16.445312 5.300781 16.445312 4.933594 16.21875 4.703125 L 14.675781 3.160156 C 14.445312 2.933594 14.078125 2.933594 13.851562 3.160156 C 13.621094 3.386719 13.621094 3.757812 13.851562 3.984375 L 14.421875 4.554688 C 10.503906 4.777344 7.109375 7.222656 5.671875 10.914062 C 5.554688 11.214844 5.707031 11.550781 6.003906 11.667969 Z M 6.003906 11.667969 " fill-opacity="1" fill-rule="nonzero"/></g><g clip-path="url(#718d669dcc)"><path fill="#935f3d" d="M 11.800781 22.78125 C 8.570312 21.527344 6.417969 18.578125 6.183594 15.164062 L 6.710938 15.6875 C 6.824219 15.800781 6.972656 15.859375 7.121094 15.859375 C 7.269531 15.859375 7.417969 15.800781 7.53125 15.6875 C 7.761719 15.460938 7.761719 15.09375 7.53125 14.863281 L 5.988281 13.320312 C 5.757812 13.089844 5.390625 13.089844 5.164062 13.320312 L 3.621094 14.867188 C 3.394531 15.09375 3.394531 15.460938 3.621094 15.691406 C 3.851562 15.917969 4.21875 15.917969 4.445312 15.691406 L 5.015625 15.117188 C 5.238281 19.035156 7.683594 22.433594 11.375 23.871094 C 11.445312 23.898438 11.515625 23.910156 11.585938 23.910156 C 11.820312 23.910156 12.042969 23.769531 12.128906 23.535156 C 12.246094 23.238281 12.097656 22.898438 11.800781 22.78125 Z M 11.800781 22.78125 " fill-opacity="1" fill-rule="nonzero"/></g><g clip-path="url(#db461b2c53)"><path fill="#935f3d" d="M 26.378906 13.390625 C 26.152344 13.160156 25.785156 13.160156 25.554688 13.390625 L 24.984375 13.960938 C 24.765625 10.042969 22.320312 6.648438 18.625 5.210938 C 18.324219 5.09375 17.988281 5.242188 17.871094 5.542969 C 17.757812 5.84375 17.90625 6.179688 18.207031 6.296875 C 21.433594 7.554688 23.585938 10.503906 23.816406 13.917969 L 23.292969 13.390625 C 23.0625 13.160156 22.695312 13.160156 22.46875 13.390625 C 22.238281 13.617188 22.238281 13.984375 22.46875 14.214844 L 24.011719 15.757812 C 24.125 15.871094 24.273438 15.929688 24.421875 15.929688 C 24.570312 15.929688 24.722656 15.871094 24.835938 15.757812 L 26.378906 14.214844 C 26.605469 13.988281 26.605469 13.617188 26.378906 13.390625 Z M 26.378906 13.390625 " fill-opacity="1" fill-rule="nonzero"/></g><path fill="#935f3d" d="M 13.773438 20.050781 C 13.816406 20.34375 14.066406 20.5625 14.363281 20.5625 L 15.636719 20.5625 C 15.933594 20.5625 16.183594 20.347656 16.222656 20.050781 L 16.382812 18.953125 C 16.71875 18.816406 16.804688 18.777344 17.136719 18.640625 L 18.027344 19.304688 C 18.265625 19.480469 18.597656 19.457031 18.804688 19.246094 L 19.707031 18.347656 C 19.917969 18.140625 19.941406 17.808594 19.765625 17.570312 L 19.101562 16.679688 C 19.238281 16.347656 19.277344 16.257812 19.410156 15.929688 L 20.511719 15.769531 C 20.804688 15.722656 21.023438 15.472656 21.023438 15.175781 L 21.023438 13.902344 C 21.023438 13.605469 20.808594 13.355469 20.511719 13.316406 L 19.414062 13.15625 C 19.277344 12.820312 19.238281 12.734375 19.101562 12.402344 L 19.765625 11.511719 C 19.941406 11.273438 19.917969 10.941406 19.707031 10.734375 L 18.804688 9.832031 C 18.597656 9.621094 18.265625 9.597656 18.027344 9.773438 L 17.136719 10.4375 C 16.804688 10.300781 16.71875 10.261719 16.382812 10.125 L 16.222656 9.027344 C 16.179688 8.734375 15.929688 8.515625 15.636719 8.515625 L 14.363281 8.515625 C 14.066406 8.515625 13.816406 8.730469 13.773438 9.027344 L 13.613281 10.125 C 13.28125 10.261719 13.191406 10.300781 12.855469 10.4375 L 11.972656 9.773438 C 11.734375 9.597656 11.402344 9.621094 11.195312 9.832031 L 10.292969 10.734375 C 10.082031 10.941406 10.058594 11.273438 10.234375 11.511719 L 10.898438 12.402344 C 10.761719 12.734375 10.722656 12.824219 10.585938 13.15625 L 9.488281 13.316406 C 9.195312 13.355469 8.976562 13.609375 8.976562 13.902344 L 8.976562 15.175781 C 8.976562 15.472656 9.191406 15.722656 9.488281 15.769531 L 10.585938 15.929688 C 10.722656 16.261719 10.761719 16.351562 10.898438 16.683594 L 10.234375 17.570312 C 10.058594 17.808594 10.082031 18.140625 10.292969 18.347656 L 11.195312 19.246094 C 11.402344 19.457031 11.734375 19.480469 11.972656 19.304688 L 12.863281 18.640625 C 13.195312 18.777344 13.285156 18.816406 13.617188 18.953125 Z M 12.171875 14.539062 C 12.171875 12.976562 13.4375 11.710938 15 11.710938 C 16.558594 11.710938 17.828125 12.976562 17.828125 14.539062 C 17.828125 16.105469 16.566406 17.367188 15 17.367188 C 13.4375 17.367188 12.171875 16.105469 12.171875 14.539062 Z M 12.171875 14.539062 " fill-opacity="1" fill-rule="nonzero"/><path fill="#935f3d" d="M 16.46875 14.382812 C 16.695312 14.15625 16.695312 13.789062 16.46875 13.558594 C 16.238281 13.332031 15.871094 13.332031 15.644531 13.558594 L 14.625 14.578125 L 14.226562 14.179688 C 13.996094 13.953125 13.628906 13.953125 13.402344 14.179688 C 13.171875 14.410156 13.171875 14.777344 13.402344 15.003906 L 14.210938 15.8125 C 14.324219 15.929688 14.472656 15.984375 14.621094 15.984375 C 14.769531 15.984375 14.921875 15.929688 15.03125 15.8125 Z M 16.46875 14.382812 " fill-opacity="1" fill-rule="nonzero"/></svg>