<svg xmlns="http://www.w3.org/2000/svg" xmlns:xlink="http://www.w3.org/1999/xlink" width="40" zoomAndPan="magnify" viewBox="0 0 30 30.000001" height="40" preserveAspectRatio="xMidYMid meet" version="1.0"><defs><clipPath id="9adf58ec2a"><path d="M 0.484375 0 L 29.515625 0 L 29.515625 29.03125 L 0.484375 29.03125 Z M 0.484375 0 " clip-rule="nonzero"/></clipPath><clipPath id="2050d69a35"><path d="M 3.386719 4.804688 L 26.613281 4.804688 L 26.613281 24.402344 L 3.386719 24.402344 Z M 3.386719 4.804688 " clip-rule="nonzero"/></clipPath></defs><g clip-path="url(#9adf58ec2a)"><path fill="#ffffff" d="M 0.484375 0 L 29.515625 0 L 29.515625 29.03125 L 0.484375 29.03125 Z M 0.484375 0 " fill-opacity="1" fill-rule="nonzero"/><path fill="#ffffff" d="M 0.484375 0 L 29.515625 0 L 29.515625 29.03125 L 0.484375 29.03125 Z M 0.484375 0 " fill-opacity="1" fill-rule="nonzero"/></g><g clip-path="url(#2050d69a35)"><path fill="#935f3d" d="M 26.21875 6.121094 L 24.484375 6.121094 L 24.484375 5.179688 C 24.484375 4.972656 24.316406 4.804688 24.109375 4.804688 C 19.804688 4.804688 18.425781 5.179688 15.671875 5.925781 C 15.457031 5.984375 15.234375 6.042969 15 6.105469 C 14.765625 6.042969 14.542969 5.984375 14.328125 5.925781 C 11.574219 5.179688 10.195312 4.804688 5.890625 4.804688 C 5.683594 4.804688 5.515625 4.972656 5.515625 5.179688 L 5.515625 6.121094 L 3.78125 6.121094 C 3.578125 6.121094 3.410156 6.289062 3.410156 6.496094 L 3.410156 22.632812 C 3.410156 22.839844 3.578125 23.007812 3.78125 23.007812 L 12.996094 23.007812 L 12.996094 23.015625 C 12.996094 23.679688 13.535156 24.21875 14.199219 24.21875 L 15.816406 24.21875 C 16.480469 24.21875 17.023438 23.679688 17.023438 23.015625 L 17.023438 23.007812 L 26.21875 23.007812 C 26.421875 23.007812 26.589844 22.839844 26.589844 22.632812 L 26.589844 6.496094 C 26.589844 6.289062 26.421875 6.121094 26.21875 6.121094 Z M 15.867188 6.648438 C 18.554688 5.917969 19.828125 5.574219 23.734375 5.554688 L 23.734375 20.421875 C 20.097656 20.453125 17.351562 20.9375 15.375 21.898438 L 15.375 6.78125 C 15.542969 6.734375 15.707031 6.691406 15.867188 6.648438 Z M 6.265625 5.554688 C 10.171875 5.574219 11.445312 5.917969 14.132812 6.648438 C 14.292969 6.691406 14.457031 6.734375 14.625 6.78125 L 14.625 21.898438 C 12.648438 20.9375 9.902344 20.453125 6.265625 20.421875 Z M 25.84375 22.257812 L 16.648438 22.257812 C 16.441406 22.257812 16.273438 22.425781 16.273438 22.632812 L 16.273438 23.015625 C 16.273438 23.265625 16.070312 23.472656 15.816406 23.472656 L 14.199219 23.472656 C 13.949219 23.472656 13.742188 23.265625 13.742188 23.015625 L 13.742188 22.632812 C 13.742188 22.425781 13.574219 22.257812 13.367188 22.257812 L 4.15625 22.257812 L 4.15625 6.867188 L 5.515625 6.867188 L 5.515625 20.792969 C 5.515625 21 5.683594 21.167969 5.890625 21.167969 C 9.945312 21.167969 12.863281 21.714844 14.8125 22.84375 C 14.871094 22.875 14.933594 22.890625 15 22.890625 C 15.066406 22.890625 15.128906 22.875 15.1875 22.84375 C 17.136719 21.714844 20.054688 21.167969 24.109375 21.167969 C 24.316406 21.167969 24.484375 21 24.484375 20.792969 L 24.484375 6.867188 L 25.84375 6.867188 Z M 13.957031 11.605469 L 10.632812 9.6875 C 10.515625 9.621094 10.375 9.621094 10.257812 9.6875 L 6.933594 11.605469 C 6.820312 11.671875 6.746094 11.796875 6.746094 11.929688 L 6.746094 15.769531 C 6.746094 15.902344 6.820312 16.023438 6.933594 16.089844 L 10.257812 18.011719 C 10.316406 18.042969 10.378906 18.0625 10.445312 18.0625 C 10.511719 18.0625 10.574219 18.042969 10.632812 18.011719 L 13.957031 16.089844 C 14.070312 16.023438 14.144531 15.902344 14.144531 15.769531 L 14.144531 11.929688 C 14.144531 11.796875 14.070312 11.671875 13.957031 11.605469 Z M 10.445312 13.417969 L 10.011719 13.167969 L 12.589844 11.679688 L 13.019531 11.929688 Z M 9.050781 12.609375 L 11.625 11.125 L 11.839844 11.25 L 9.265625 12.734375 Z M 8.675781 13.257812 L 8.890625 13.382812 L 8.890625 14.03125 L 8.675781 13.90625 Z M 10.445312 10.441406 L 10.878906 10.691406 L 8.300781 12.179688 L 7.871094 11.929688 Z M 7.496094 12.578125 L 7.925781 12.828125 L 7.925781 14.121094 C 7.925781 14.257812 8 14.378906 8.113281 14.445312 L 9.078125 15.003906 C 9.136719 15.035156 9.199219 15.054688 9.265625 15.054688 C 9.328125 15.054688 9.394531 15.035156 9.453125 15.003906 C 9.566406 14.9375 9.640625 14.8125 9.640625 14.679688 L 9.640625 13.816406 L 10.070312 14.066406 L 10.070312 17.039062 L 7.496094 15.550781 Z M 10.820312 17.039062 L 10.820312 14.066406 L 13.394531 12.578125 L 13.394531 15.550781 Z M 19.335938 11.125 C 19.335938 10.921875 19.503906 10.753906 19.710938 10.753906 L 22.550781 10.753906 C 22.757812 10.753906 22.921875 10.921875 22.921875 11.125 C 22.921875 11.332031 22.757812 11.5 22.550781 11.5 L 19.710938 11.5 C 19.503906 11.5 19.335938 11.332031 19.335938 11.125 Z M 19.335938 9.917969 C 19.335938 9.710938 19.503906 9.542969 19.710938 9.542969 L 22.550781 9.542969 C 22.757812 9.542969 22.921875 9.710938 22.921875 9.917969 C 22.921875 10.125 22.757812 10.292969 22.550781 10.292969 L 19.710938 10.292969 C 19.503906 10.292969 19.335938 10.125 19.335938 9.917969 Z M 19.335938 13.246094 C 19.335938 13.039062 19.503906 12.871094 19.710938 12.871094 L 22.550781 12.871094 C 22.757812 12.871094 22.921875 13.039062 22.921875 13.246094 C 22.921875 13.449219 22.757812 13.617188 22.550781 13.617188 L 19.710938 13.617188 C 19.503906 13.617188 19.335938 13.449219 19.335938 13.246094 Z M 19.335938 14.453125 C 19.335938 14.246094 19.503906 14.078125 19.710938 14.078125 L 22.550781 14.078125 C 22.757812 14.078125 22.921875 14.246094 22.921875 14.453125 C 22.921875 14.660156 22.757812 14.828125 22.550781 14.828125 L 19.710938 14.828125 C 19.503906 14.828125 19.335938 14.660156 19.335938 14.453125 Z M 19.335938 17.78125 C 19.335938 17.574219 19.503906 17.40625 19.710938 17.40625 L 22.550781 17.40625 C 22.757812 17.40625 22.921875 17.574219 22.921875 17.78125 C 22.921875 17.984375 22.757812 18.152344 22.550781 18.152344 L 19.710938 18.152344 C 19.503906 18.152344 19.335938 17.984375 19.335938 17.78125 Z M 19.335938 16.570312 C 19.335938 16.363281 19.503906 16.195312 19.710938 16.195312 L 22.550781 16.195312 C 22.757812 16.195312 22.921875 16.363281 22.921875 16.570312 C 22.921875 16.777344 22.757812 16.945312 22.550781 16.945312 L 19.710938 16.945312 C 19.503906 16.945312 19.335938 16.777344 19.335938 16.570312 Z M 16.894531 11.742188 L 17.914062 11.742188 C 18.308594 11.742188 18.625 11.425781 18.625 11.03125 L 18.625 10.011719 C 18.625 9.621094 18.308594 9.300781 17.914062 9.300781 L 16.894531 9.300781 C 16.503906 9.300781 16.1875 9.621094 16.1875 10.011719 L 16.1875 11.03125 C 16.1875 11.425781 16.503906 11.742188 16.894531 11.742188 Z M 16.933594 10.050781 L 17.878906 10.050781 L 17.878906 10.996094 L 16.933594 10.996094 Z M 16.894531 15.070312 L 17.914062 15.070312 C 18.308594 15.070312 18.625 14.75 18.625 14.359375 L 18.625 13.339844 C 18.625 12.949219 18.308594 12.628906 17.914062 12.628906 L 16.894531 12.628906 C 16.503906 12.628906 16.1875 12.949219 16.1875 13.339844 L 16.1875 14.359375 C 16.1875 14.75 16.503906 15.070312 16.894531 15.070312 Z M 16.933594 13.375 L 17.878906 13.375 L 17.878906 14.320312 L 16.933594 14.320312 Z M 16.894531 18.394531 L 17.914062 18.394531 C 18.308594 18.394531 18.625 18.078125 18.625 17.683594 L 18.625 16.664062 C 18.625 16.273438 18.308594 15.957031 17.914062 15.957031 L 16.894531 15.957031 C 16.503906 15.957031 16.1875 16.273438 16.1875 16.664062 L 16.1875 17.683594 C 16.1875 18.078125 16.503906 18.394531 16.894531 18.394531 Z M 16.933594 16.703125 L 17.878906 16.703125 L 17.878906 17.648438 L 16.933594 17.648438 Z M 16.933594 16.703125 " fill-opacity="1" fill-rule="nonzero"/></g></svg>