<svg xmlns="http://www.w3.org/2000/svg" xmlns:xlink="http://www.w3.org/1999/xlink" width="40" zoomAndPan="magnify" viewBox="0 0 30 30.000001" height="40" preserveAspectRatio="xMidYMid meet" version="1.0"><defs><clipPath id="39efea98db"><path d="M 0.484375 0 L 29.515625 0 L 29.515625 29.03125 L 0.484375 29.03125 Z M 0.484375 0 " clip-rule="nonzero"/></clipPath><clipPath id="b6dc1ea6d0"><path d="M 3.386719 2.902344 L 26.613281 2.902344 L 26.613281 26.128906 L 3.386719 26.128906 Z M 3.386719 2.902344 " clip-rule="nonzero"/></clipPath></defs><g clip-path="url(#39efea98db)"><path fill="#ffffff" d="M 0.484375 0 L 29.515625 0 L 29.515625 29.03125 L 0.484375 29.03125 Z M 0.484375 0 " fill-opacity="1" fill-rule="nonzero"/><path fill="#ffffff" d="M 0.484375 0 L 29.515625 0 L 29.515625 29.03125 L 0.484375 29.03125 Z M 0.484375 0 " fill-opacity="1" fill-rule="nonzero"/></g><path fill="#935f3d" d="M 21.300781 13.835938 C 21.160156 13.835938 21.042969 13.71875 21.042969 13.574219 L 21.042969 9.648438 C 21.042969 9.632812 21.027344 9.617188 21.007812 9.617188 L 20.699219 9.617188 L 20.699219 9.097656 L 21.007812 9.097656 C 21.316406 9.097656 21.5625 9.34375 21.5625 9.648438 L 21.5625 13.574219 C 21.5625 13.71875 21.445312 13.835938 21.300781 13.835938 Z M 21.300781 13.835938 " fill-opacity="1" fill-rule="evenodd"/><path fill="#935f3d" d="M 9.207031 9.039062 L 16.820312 9.039062 L 16.820312 8.4375 L 8.453125 8.4375 L 8.453125 19.730469 L 9.054688 19.730469 L 9.054688 9.191406 C 9.054688 9.109375 9.121094 9.039062 9.207031 9.039062 Z M 9.207031 9.039062 " fill-opacity="1" fill-rule="evenodd"/><path fill="#935f3d" d="M 9.359375 9.34375 L 9.359375 20.636719 L 17.726562 20.636719 L 17.726562 9.34375 Z M 9.917969 9.753906 L 17.167969 9.753906 C 17.25 9.753906 17.320312 9.820312 17.320312 9.90625 L 17.320312 20.078125 C 17.320312 20.164062 17.25 20.230469 17.167969 20.230469 L 9.917969 20.230469 C 9.835938 20.230469 9.765625 20.164062 9.765625 20.078125 L 9.765625 9.90625 C 9.765625 9.820312 9.832031 9.753906 9.917969 9.753906 Z M 9.917969 9.753906 " fill-opacity="1" fill-rule="evenodd"/><path fill="#935f3d" d="M 14.355469 11.003906 L 14.355469 11.195312 C 14.382812 11.195312 14.40625 11.191406 14.433594 11.191406 C 14.460938 11.191406 14.488281 11.195312 14.515625 11.195312 L 14.515625 11.003906 Z M 14.355469 11.003906 " fill-opacity="1" fill-rule="evenodd"/><path fill="#935f3d" d="M 15.929688 12.992188 L 12.835938 12.992188 L 12.769531 13.183594 L 16.101562 13.183594 L 16.03125 12.992188 Z M 15.929688 12.992188 " fill-opacity="1" fill-rule="evenodd"/><path fill="#935f3d" d="M 14.433594 11.496094 C 13.746094 11.496094 13.175781 12.019531 13.101562 12.6875 L 15.769531 12.6875 C 15.695312 12.019531 15.125 11.496094 14.433594 11.496094 Z M 14.433594 11.496094 " fill-opacity="1" fill-rule="evenodd"/><path fill="#935f3d" d="M 16.320312 13.484375 L 12.550781 13.484375 C 12.5 13.484375 12.453125 13.460938 12.425781 13.421875 C 12.398438 13.378906 12.390625 13.328125 12.40625 13.28125 L 12.585938 12.789062 C 12.609375 12.726562 12.667969 12.6875 12.730469 12.6875 L 12.792969 12.6875 C 12.859375 11.980469 13.375 11.398438 14.050781 11.238281 L 14.050781 10.851562 C 14.050781 10.769531 14.117188 10.699219 14.203125 10.699219 L 14.667969 10.699219 C 14.75 10.699219 14.820312 10.769531 14.820312 10.851562 L 14.820312 11.238281 C 15.496094 11.398438 16.011719 11.980469 16.074219 12.6875 L 16.140625 12.6875 C 16.203125 12.6875 16.261719 12.726562 16.28125 12.789062 L 16.460938 13.28125 C 16.480469 13.328125 16.472656 13.378906 16.445312 13.421875 C 16.414062 13.460938 16.371094 13.484375 16.320312 13.484375 Z M 12.410156 12.65625 C 12.496094 12.65625 12.5625 12.589844 12.5625 12.503906 C 12.5625 12.421875 12.496094 12.351562 12.410156 12.351562 L 10.765625 12.351562 C 10.679688 12.351562 10.613281 12.421875 10.613281 12.503906 C 10.613281 12.589844 10.679688 12.65625 10.765625 12.65625 Z M 10.070312 10.058594 L 10.070312 19.925781 L 17.015625 19.925781 L 17.015625 10.058594 Z M 10.765625 14.011719 L 16.320312 14.011719 C 16.402344 14.011719 16.472656 14.078125 16.472656 14.164062 C 16.472656 14.246094 16.402344 14.316406 16.320312 14.316406 L 10.765625 14.316406 C 10.679688 14.316406 10.613281 14.246094 10.613281 14.164062 C 10.613281 14.078125 10.679688 14.011719 10.765625 14.011719 Z M 10.765625 14.839844 L 16.320312 14.839844 C 16.402344 14.839844 16.472656 14.90625 16.472656 14.992188 C 16.472656 15.074219 16.402344 15.144531 16.320312 15.144531 L 10.765625 15.144531 C 10.679688 15.144531 10.613281 15.074219 10.613281 14.992188 C 10.613281 14.90625 10.679688 14.839844 10.765625 14.839844 Z M 10.765625 15.667969 L 16.320312 15.667969 C 16.402344 15.667969 16.472656 15.738281 16.472656 15.820312 C 16.472656 15.90625 16.402344 15.972656 16.320312 15.972656 L 10.765625 15.972656 C 10.679688 15.972656 10.613281 15.90625 10.613281 15.820312 C 10.613281 15.734375 10.679688 15.667969 10.765625 15.667969 Z M 10.765625 16.496094 L 16.320312 16.496094 C 16.402344 16.496094 16.472656 16.566406 16.472656 16.648438 C 16.472656 16.734375 16.402344 16.800781 16.320312 16.800781 L 10.765625 16.800781 C 10.679688 16.800781 10.613281 16.734375 10.613281 16.648438 C 10.613281 16.566406 10.679688 16.496094 10.765625 16.496094 Z M 10.765625 17.324219 L 16.320312 17.324219 C 16.402344 17.324219 16.472656 17.394531 16.472656 17.476562 C 16.472656 17.5625 16.402344 17.628906 16.320312 17.628906 L 10.765625 17.628906 C 10.679688 17.628906 10.613281 17.5625 10.613281 17.476562 C 10.613281 17.394531 10.679688 17.324219 10.765625 17.324219 Z M 11.574219 18.164062 C 11.898438 18.125 12.042969 18.226562 12.105469 18.316406 C 12.175781 18.414062 12.179688 18.539062 12.125 18.660156 C 12.113281 18.683594 12.101562 18.707031 12.085938 18.726562 L 12.300781 18.765625 L 12.652344 18.398438 C 12.707031 18.335938 12.800781 18.332031 12.863281 18.386719 L 13.21875 18.699219 L 13.382812 18.582031 C 13.40625 18.5625 13.4375 18.554688 13.46875 18.554688 L 14.304688 18.554688 C 14.390625 18.554688 14.457031 18.621094 14.457031 18.707031 C 14.457031 18.789062 14.390625 18.859375 14.304688 18.859375 L 13.515625 18.859375 L 13.292969 19.015625 C 13.234375 19.058594 13.160156 19.054688 13.105469 19.007812 L 12.773438 18.714844 L 12.46875 19.035156 C 12.433594 19.074219 12.382812 19.089844 12.332031 19.082031 L 11.808594 18.988281 C 11.570312 19.140625 11.222656 19.257812 10.773438 19.289062 C 10.773438 19.289062 10.769531 19.289062 10.765625 19.289062 C 10.6875 19.289062 10.617188 19.226562 10.613281 19.148438 C 10.609375 19.0625 10.671875 18.992188 10.753906 18.984375 C 10.976562 18.96875 11.171875 18.929688 11.332031 18.875 C 11.191406 18.800781 11.140625 18.675781 11.144531 18.570312 C 11.152344 18.363281 11.335938 18.191406 11.574219 18.164062 Z M 14.972656 18.15625 L 16.320312 18.15625 C 16.402344 18.15625 16.472656 18.222656 16.472656 18.308594 C 16.472656 18.390625 16.402344 18.460938 16.320312 18.460938 L 14.972656 18.460938 C 14.890625 18.460938 14.820312 18.390625 14.820312 18.308594 C 14.820312 18.222656 14.890625 18.15625 14.972656 18.15625 Z M 14.972656 18.984375 L 16.320312 18.984375 C 16.402344 18.984375 16.472656 19.050781 16.472656 19.136719 C 16.472656 19.21875 16.402344 19.289062 16.320312 19.289062 L 14.972656 19.289062 C 14.890625 19.289062 14.820312 19.21875 14.820312 19.136719 C 14.820312 19.050781 14.890625 18.984375 14.972656 18.984375 Z M 11.984375 13.484375 L 10.765625 13.484375 C 10.679688 13.484375 10.613281 13.417969 10.613281 13.332031 C 10.613281 13.25 10.679688 13.179688 10.765625 13.179688 L 11.984375 13.179688 C 12.070312 13.179688 12.136719 13.25 12.136719 13.332031 C 12.140625 13.417969 12.070312 13.484375 11.984375 13.484375 Z M 12.761719 11.828125 C 12.847656 11.828125 12.914062 11.761719 12.914062 11.675781 C 12.914062 11.59375 12.847656 11.523438 12.761719 11.523438 L 10.765625 11.523438 C 10.679688 11.523438 10.613281 11.589844 10.613281 11.675781 C 10.613281 11.761719 10.679688 11.828125 10.765625 11.828125 Z M 13.394531 11 C 13.480469 11 13.546875 10.933594 13.546875 10.847656 C 13.546875 10.761719 13.480469 10.695312 13.394531 10.695312 L 10.765625 10.695312 C 10.679688 10.695312 10.613281 10.761719 10.613281 10.847656 C 10.613281 10.929688 10.679688 11 10.765625 11 Z M 13.394531 11 " fill-opacity="1" fill-rule="evenodd"/><path fill="#935f3d" d="M 11.707031 18.460938 C 11.679688 18.460938 11.648438 18.460938 11.609375 18.464844 C 11.507812 18.476562 11.449219 18.542969 11.449219 18.578125 C 11.449219 18.59375 11.484375 18.621094 11.570312 18.636719 L 11.734375 18.664062 C 11.769531 18.636719 11.800781 18.605469 11.820312 18.574219 C 11.855469 18.527344 11.859375 18.496094 11.859375 18.492188 C 11.851562 18.484375 11.8125 18.460938 11.707031 18.460938 Z M 11.707031 18.460938 " fill-opacity="1" fill-rule="evenodd"/><path fill="#935f3d" d="M 19.121094 16.734375 L 20.351562 16.734375 L 20.351562 18.78125 L 19.121094 18.78125 Z M 19.121094 16.734375 " fill-opacity="1" fill-rule="evenodd"/><path fill="#935f3d" d="M 20.273438 19.085938 L 19.195312 19.085938 L 19.734375 20.390625 Z M 20.273438 19.085938 " fill-opacity="1" fill-rule="evenodd"/><path fill="#935f3d" d="M 19.121094 8.675781 L 19.121094 10.640625 L 20.351562 10.640625 L 20.351562 8.675781 C 20.351562 8.542969 20.246094 8.4375 20.113281 8.4375 L 19.355469 8.4375 C 19.226562 8.4375 19.121094 8.542969 19.121094 8.675781 Z M 19.121094 8.675781 " fill-opacity="1" fill-rule="evenodd"/><path fill="#935f3d" d="M 19.121094 10.945312 L 20.351562 10.945312 L 20.351562 12.992188 L 19.121094 12.992188 Z M 19.121094 10.945312 " fill-opacity="1" fill-rule="evenodd"/><path fill="#935f3d" d="M 19.121094 13.296875 L 20.351562 13.296875 L 20.351562 14.136719 L 19.121094 14.136719 Z M 19.121094 13.296875 " fill-opacity="1" fill-rule="evenodd"/><path fill="#935f3d" d="M 19.121094 14.441406 L 20.351562 14.441406 L 20.351562 15.285156 L 19.121094 15.285156 Z M 19.121094 14.441406 " fill-opacity="1" fill-rule="evenodd"/><path fill="#935f3d" d="M 19.121094 15.589844 L 20.351562 15.589844 L 20.351562 16.429688 L 19.121094 16.429688 Z M 19.121094 15.589844 " fill-opacity="1" fill-rule="evenodd"/><g clip-path="url(#b6dc1ea6d0)"><path fill="#935f3d" d="M 15 26.128906 C 11.898438 26.128906 8.980469 24.921875 6.789062 22.726562 C 4.59375 20.535156 3.386719 17.617188 3.386719 14.515625 C 3.386719 11.414062 4.59375 8.496094 6.789062 6.304688 C 8.980469 4.113281 11.898438 2.902344 15 2.902344 C 18.101562 2.902344 21.019531 4.109375 23.210938 6.304688 C 25.40625 8.5 26.613281 11.414062 26.613281 14.515625 C 26.613281 17.617188 25.40625 20.535156 23.210938 22.726562 C 21.019531 24.921875 18.101562 26.128906 15 26.128906 Z M 15 3.957031 C 9.179688 3.957031 4.441406 8.695312 4.441406 14.515625 C 4.441406 20.335938 9.179688 25.074219 15 25.074219 C 20.820312 25.074219 25.558594 20.335938 25.558594 14.515625 C 25.558594 8.695312 20.820312 3.957031 15 3.957031 Z M 15 3.957031 " fill-opacity="1" fill-rule="nonzero"/></g></svg>