<svg xmlns="http://www.w3.org/2000/svg" xmlns:xlink="http://www.w3.org/1999/xlink" width="40" zoomAndPan="magnify" viewBox="0 0 30 30.000001" height="40" preserveAspectRatio="xMidYMid meet" version="1.0"><defs><clipPath id="7d4a654cca"><path d="M 0.484375 0 L 29.515625 0 L 29.515625 29.03125 L 0.484375 29.03125 Z M 0.484375 0 " clip-rule="nonzero"/></clipPath><clipPath id="2b454f4ed7"><path d="M 3.035156 2.902344 L 26.988281 2.902344 L 26.988281 26.128906 L 3.035156 26.128906 Z M 3.035156 2.902344 " clip-rule="nonzero"/></clipPath></defs><g clip-path="url(#7d4a654cca)"><path fill="#ffffff" d="M 0.484375 0 L 29.515625 0 L 29.515625 29.03125 L 0.484375 29.03125 Z M 0.484375 0 " fill-opacity="1" fill-rule="nonzero"/><path fill="#ffffff" d="M 0.484375 0 L 29.515625 0 L 29.515625 29.03125 L 0.484375 29.03125 Z M 0.484375 0 " fill-opacity="1" fill-rule="nonzero"/></g><g clip-path="url(#2b454f4ed7)"><path fill="#935f3d" d="M 6.699219 10.074219 C 7.847656 10.074219 8.78125 9.140625 8.78125 7.992188 C 8.78125 6.847656 7.847656 5.910156 6.699219 5.910156 C 5.550781 5.910156 4.617188 6.847656 4.617188 7.992188 C 4.617188 9.140625 5.550781 10.074219 6.699219 10.074219 Z M 6.699219 6.496094 C 7.523438 6.496094 8.195312 7.167969 8.195312 7.992188 C 8.195312 8.816406 7.523438 9.488281 6.699219 9.488281 C 5.875 9.488281 5.203125 8.816406 5.203125 7.992188 C 5.203125 7.167969 5.875 6.496094 6.699219 6.496094 Z M 6.699219 19.4375 C 6.898438 19.625 7.183594 19.742188 7.5 19.742188 C 8.101562 19.742188 8.589844 19.3125 8.589844 18.789062 L 8.589844 14.585938 C 8.589844 14.585938 8.589844 14.582031 8.589844 14.578125 C 8.589844 14.574219 8.589844 14.574219 8.589844 14.570312 L 8.589844 12.59375 C 8.589844 12.480469 8.628906 12.390625 8.71875 12.300781 L 10.378906 10.636719 L 10.378906 14.054688 L 9.679688 14.054688 C 9.164062 14.054688 8.746094 14.472656 8.746094 14.984375 C 8.746094 15.5 9.164062 15.917969 9.679688 15.917969 L 22.351562 15.917969 C 22.863281 15.917969 23.28125 15.5 23.28125 14.984375 C 23.28125 14.472656 22.863281 14.054688 22.351562 14.054688 L 21.648438 14.054688 L 21.648438 4.773438 L 22.351562 4.773438 C 22.863281 4.773438 23.28125 4.355469 23.28125 3.839844 C 23.28125 3.328125 22.863281 2.910156 22.351562 2.910156 L 9.679688 2.910156 C 9.164062 2.910156 8.746094 3.328125 8.746094 3.839844 C 8.746094 4.355469 9.164062 4.773438 9.679688 4.773438 L 10.378906 4.773438 L 10.378906 8.5625 C 10.265625 8.609375 10.15625 8.679688 10.046875 8.78125 L 8.183594 10.445312 L 4.851562 10.445312 C 4.429688 10.445312 4.074219 10.734375 3.984375 11.148438 L 3.121094 15.238281 C 3.035156 15.628906 3.285156 16.015625 3.675781 16.101562 C 3.726562 16.113281 3.777344 16.117188 3.828125 16.117188 C 4.152344 16.117188 4.445312 15.894531 4.535156 15.558594 L 4.808594 14.507812 L 4.808594 18.789062 C 4.808594 19.316406 5.296875 19.742188 5.902344 19.742188 C 6.214844 19.742188 6.5 19.625 6.699219 19.4375 Z M 22.695312 14.984375 C 22.695312 15.175781 22.539062 15.332031 22.347656 15.332031 L 9.679688 15.332031 C 9.488281 15.332031 9.332031 15.175781 9.332031 14.984375 C 9.332031 14.792969 9.488281 14.636719 9.679688 14.636719 L 22.347656 14.636719 C 22.539062 14.636719 22.695312 14.792969 22.695312 14.984375 Z M 9.332031 3.839844 C 9.332031 3.648438 9.488281 3.496094 9.679688 3.496094 L 22.347656 3.496094 C 22.539062 3.496094 22.695312 3.648438 22.695312 3.839844 C 22.695312 4.03125 22.539062 4.1875 22.347656 4.1875 L 9.679688 4.1875 C 9.488281 4.1875 9.332031 4.03125 9.332031 3.839844 Z M 21.0625 4.773438 L 21.0625 14.050781 L 10.964844 14.050781 L 10.964844 10.046875 L 11.195312 9.816406 C 11.558594 9.449219 11.488281 8.980469 11.238281 8.722656 C 11.160156 8.644531 11.070312 8.585938 10.964844 8.546875 L 10.964844 4.773438 Z M 6.898438 12.574219 L 6.699219 12.941406 L 6.5 12.578125 L 6.652344 11.03125 L 6.742188 11.03125 Z M 3.96875 15.410156 C 3.949219 15.480469 3.886719 15.546875 3.804688 15.527344 C 3.726562 15.511719 3.675781 15.433594 3.691406 15.359375 L 4.558594 11.269531 C 4.589844 11.128906 4.707031 11.03125 4.851562 11.03125 L 6.066406 11.03125 L 5.910156 12.605469 C 5.902344 12.664062 5.914062 12.722656 5.941406 12.773438 L 6.4375 13.695312 C 6.488281 13.789062 6.585938 13.847656 6.695312 13.851562 C 6.804688 13.851562 6.902344 13.792969 6.953125 13.695312 L 7.457031 12.777344 C 7.484375 12.726562 7.496094 12.664062 7.488281 12.605469 L 7.328125 11.03125 L 8.296875 11.03125 C 8.371094 11.03125 8.4375 11.003906 8.492188 10.957031 L 10.441406 9.21875 C 10.445312 9.214844 10.445312 9.214844 10.449219 9.210938 C 10.589844 9.078125 10.734375 9.042969 10.820312 9.132812 C 10.875 9.1875 10.894531 9.289062 10.78125 9.402344 L 8.304688 11.890625 C 8.105469 12.089844 8.003906 12.328125 8.003906 12.59375 L 8.003906 14.277344 L 5.394531 14.277344 L 5.394531 12.226562 C 5.394531 12.082031 5.285156 11.957031 5.136719 11.9375 C 4.992188 11.917969 4.855469 12.011719 4.816406 12.15625 Z M 5.394531 18.789062 L 5.394531 14.863281 L 8.003906 14.863281 L 8.003906 18.789062 C 8.003906 18.988281 7.773438 19.15625 7.496094 19.15625 C 7.222656 19.15625 6.992188 18.988281 6.992188 18.789062 L 6.992188 15.882812 C 6.992188 15.722656 6.859375 15.589844 6.699219 15.589844 C 6.535156 15.589844 6.40625 15.722656 6.40625 15.882812 L 6.40625 18.789062 C 6.40625 18.988281 6.175781 19.15625 5.898438 19.15625 C 5.625 19.15625 5.394531 18.988281 5.394531 18.789062 Z M 26.558594 24.332031 L 24.160156 21.644531 C 24.105469 21.582031 24.027344 21.546875 23.945312 21.546875 L 23.925781 21.546875 C 24.046875 21.3125 24.117188 21.042969 24.117188 20.757812 C 24.117188 19.820312 23.355469 19.058594 22.417969 19.058594 C 21.480469 19.058594 20.71875 19.820312 20.71875 20.757812 C 20.71875 21.042969 20.789062 21.3125 20.910156 21.546875 L 17.667969 21.546875 C 17.789062 21.3125 17.859375 21.042969 17.859375 20.757812 C 17.859375 19.820312 17.097656 19.058594 16.160156 19.058594 C 15.222656 19.058594 14.460938 19.820312 14.460938 20.757812 C 14.460938 21.042969 14.53125 21.3125 14.652344 21.546875 L 11.410156 21.546875 C 11.53125 21.3125 11.601562 21.042969 11.601562 20.757812 C 11.601562 19.820312 10.839844 19.058594 9.902344 19.058594 C 8.964844 19.058594 8.203125 19.820312 8.203125 20.757812 C 8.203125 21.042969 8.273438 21.3125 8.398438 21.546875 L 8.378906 21.546875 C 8.292969 21.546875 8.214844 21.582031 8.160156 21.644531 L 5.757812 24.332031 C 5.714844 24.382812 5.683594 24.449219 5.683594 24.523438 L 5.683594 26.148438 C 5.683594 26.308594 5.816406 26.441406 5.976562 26.441406 L 26.34375 26.441406 C 26.503906 26.441406 26.636719 26.308594 26.636719 26.148438 L 26.636719 24.527344 C 26.636719 24.449219 26.605469 24.382812 26.558594 24.332031 Z M 22.417969 19.644531 C 23.03125 19.644531 23.53125 20.144531 23.53125 20.757812 C 23.53125 21.375 23.03125 21.875 22.417969 21.875 C 21.804688 21.875 21.304688 21.375 21.304688 20.757812 C 21.304688 20.144531 21.804688 19.644531 22.417969 19.644531 Z M 16.160156 19.644531 C 16.773438 19.644531 17.273438 20.144531 17.273438 20.757812 C 17.273438 21.375 16.773438 21.875 16.160156 21.875 C 15.546875 21.875 15.046875 21.375 15.046875 20.757812 C 15.046875 20.144531 15.546875 19.644531 16.160156 19.644531 Z M 9.902344 19.644531 C 10.515625 19.644531 11.015625 20.144531 11.015625 20.757812 C 11.015625 21.375 10.515625 21.875 9.902344 21.875 C 9.289062 21.875 8.789062 21.375 8.789062 20.757812 C 8.789062 20.144531 9.289062 19.644531 9.902344 19.644531 Z M 8.507812 22.132812 L 8.902344 22.132812 C 9.183594 22.335938 9.527344 22.460938 9.902344 22.460938 C 10.277344 22.460938 10.621094 22.335938 10.902344 22.132812 L 15.160156 22.132812 C 15.441406 22.335938 15.785156 22.460938 16.160156 22.460938 C 16.535156 22.460938 16.878906 22.335938 17.160156 22.132812 L 21.417969 22.132812 C 21.699219 22.335938 22.042969 22.460938 22.417969 22.460938 C 22.792969 22.460938 23.136719 22.335938 23.417969 22.132812 L 23.8125 22.132812 L 25.6875 24.234375 L 25.238281 24.234375 C 24.882812 23.441406 24.089844 22.890625 23.167969 22.890625 L 21.667969 22.890625 C 20.746094 22.890625 19.953125 23.441406 19.601562 24.234375 L 18.980469 24.234375 C 18.625 23.441406 17.832031 22.890625 16.910156 22.890625 L 15.410156 22.890625 C 14.488281 22.890625 13.695312 23.441406 13.34375 24.234375 L 12.722656 24.234375 C 12.367188 23.441406 11.574219 22.890625 10.652344 22.890625 L 9.152344 22.890625 C 8.230469 22.890625 7.4375 23.441406 7.082031 24.234375 L 6.632812 24.234375 Z M 7.472656 25.777344 L 7.472656 25.15625 C 7.472656 24.230469 8.226562 23.476562 9.152344 23.476562 L 10.652344 23.476562 C 11.578125 23.476562 12.332031 24.230469 12.332031 25.15625 L 12.332031 25.777344 Z M 12.894531 24.820312 L 13.167969 24.820312 C 13.152344 24.929688 13.144531 25.042969 13.144531 25.15625 L 13.144531 25.855469 L 12.917969 25.855469 L 12.917969 25.15625 C 12.917969 25.042969 12.910156 24.929688 12.894531 24.820312 Z M 13.730469 25.777344 L 13.730469 25.15625 C 13.730469 24.230469 14.484375 23.476562 15.410156 23.476562 L 16.910156 23.476562 C 17.835938 23.476562 18.589844 24.230469 18.589844 25.15625 L 18.589844 25.777344 Z M 19.152344 24.820312 L 19.429688 24.820312 C 19.410156 24.929688 19.402344 25.042969 19.402344 25.15625 L 19.402344 25.855469 L 19.175781 25.855469 L 19.175781 25.15625 C 19.175781 25.042969 19.167969 24.929688 19.152344 24.820312 Z M 19.988281 25.777344 L 19.988281 25.15625 C 19.988281 24.230469 20.742188 23.476562 21.667969 23.476562 L 23.167969 23.476562 C 24.09375 23.476562 24.847656 24.230469 24.847656 25.15625 L 24.847656 25.777344 Z M 6.269531 24.820312 L 6.910156 24.820312 C 6.894531 24.929688 6.886719 25.042969 6.886719 25.15625 L 6.886719 25.855469 L 6.269531 25.855469 Z M 26.050781 25.855469 L 25.433594 25.855469 L 25.433594 25.15625 C 25.433594 25.039062 25.425781 24.929688 25.40625 24.820312 L 26.050781 24.820312 Z M 13.339844 10.503906 L 13.730469 11.183594 C 13.800781 11.304688 13.945312 11.359375 14.078125 11.3125 L 14.648438 11.117188 C 14.820312 11.253906 15.015625 11.367188 15.222656 11.449219 L 15.335938 12.035156 C 15.363281 12.175781 15.484375 12.273438 15.625 12.273438 L 16.402344 12.273438 C 16.542969 12.273438 16.664062 12.175781 16.691406 12.035156 L 16.804688 11.449219 C 17.011719 11.367188 17.207031 11.253906 17.378906 11.117188 L 17.949219 11.3125 C 18.078125 11.359375 18.226562 11.304688 18.296875 11.183594 L 18.6875 10.503906 C 18.757812 10.382812 18.730469 10.230469 18.625 10.136719 L 18.171875 9.742188 C 18.1875 9.632812 18.195312 9.523438 18.195312 9.414062 C 18.195312 9.300781 18.1875 9.191406 18.171875 9.082031 L 18.625 8.6875 C 18.730469 8.59375 18.757812 8.441406 18.6875 8.320312 L 18.296875 7.644531 C 18.226562 7.523438 18.078125 7.46875 17.949219 7.511719 L 17.378906 7.710938 C 17.207031 7.570312 17.011719 7.457031 16.804688 7.378906 L 16.691406 6.789062 C 16.664062 6.648438 16.542969 6.550781 16.402344 6.550781 L 15.625 6.550781 C 15.484375 6.550781 15.363281 6.648438 15.335938 6.789062 L 15.222656 7.378906 C 15.015625 7.457031 14.820312 7.570312 14.648438 7.710938 L 14.078125 7.511719 C 13.945312 7.46875 13.800781 7.523438 13.730469 7.644531 L 13.339844 8.320312 C 13.269531 8.441406 13.296875 8.59375 13.402344 8.6875 L 13.855469 9.082031 C 13.839844 9.191406 13.832031 9.300781 13.832031 9.414062 C 13.832031 9.523438 13.839844 9.632812 13.855469 9.742188 L 13.402344 10.136719 C 13.296875 10.230469 13.269531 10.382812 13.339844 10.503906 Z M 14.460938 9.785156 C 14.429688 9.664062 14.417969 9.539062 14.417969 9.414062 C 14.417969 9.285156 14.429688 9.160156 14.460938 9.039062 C 14.484375 8.933594 14.449219 8.820312 14.367188 8.75 L 13.96875 8.402344 L 14.117188 8.144531 L 14.617188 8.316406 C 14.722656 8.355469 14.835938 8.328125 14.914062 8.253906 C 15.097656 8.082031 15.320312 7.953125 15.5625 7.878906 C 15.664062 7.847656 15.746094 7.761719 15.765625 7.65625 L 15.867188 7.136719 L 16.164062 7.136719 L 16.265625 7.65625 C 16.285156 7.761719 16.363281 7.847656 16.46875 7.878906 C 16.707031 7.949219 16.929688 8.082031 17.113281 8.253906 C 17.191406 8.328125 17.308594 8.355469 17.410156 8.316406 L 17.910156 8.144531 L 18.058594 8.402344 L 17.660156 8.75 C 17.578125 8.820312 17.542969 8.933594 17.570312 9.039062 C 17.597656 9.160156 17.613281 9.285156 17.613281 9.414062 C 17.613281 9.539062 17.597656 9.664062 17.570312 9.785156 C 17.542969 9.890625 17.578125 10.003906 17.660156 10.074219 L 18.058594 10.421875 L 17.910156 10.679688 L 17.410156 10.507812 C 17.308594 10.472656 17.195312 10.496094 17.113281 10.570312 C 16.929688 10.746094 16.707031 10.875 16.46875 10.945312 C 16.363281 10.976562 16.285156 11.0625 16.265625 11.171875 L 16.164062 11.691406 L 15.867188 11.691406 L 15.765625 11.171875 C 15.746094 11.0625 15.664062 10.976562 15.5625 10.945312 C 15.320312 10.875 15.097656 10.746094 14.914062 10.570312 C 14.835938 10.496094 14.722656 10.472656 14.617188 10.507812 L 14.117188 10.679688 L 13.96875 10.421875 L 14.367188 10.074219 C 14.449219 10.003906 14.484375 9.890625 14.460938 9.785156 Z M 16.015625 10.617188 C 16.679688 10.617188 17.21875 10.078125 17.21875 9.414062 C 17.21875 8.746094 16.679688 8.207031 16.015625 8.207031 C 15.347656 8.207031 14.808594 8.746094 14.808594 9.414062 C 14.808594 10.078125 15.347656 10.617188 16.015625 10.617188 Z M 16.015625 8.792969 C 16.355469 8.792969 16.632812 9.070312 16.632812 9.414062 C 16.632812 9.753906 16.355469 10.03125 16.015625 10.03125 C 15.671875 10.03125 15.394531 9.753906 15.394531 9.414062 C 15.394531 9.070312 15.671875 8.792969 16.015625 8.792969 Z M 19.527344 8.128906 C 19.472656 7.976562 19.550781 7.808594 19.703125 7.753906 C 19.855469 7.699219 20.023438 7.777344 20.078125 7.929688 C 20.25 8.402344 20.339844 8.902344 20.339844 9.414062 C 20.339844 11.796875 18.398438 13.738281 16.015625 13.738281 C 15.085938 13.738281 14.203125 13.449219 13.46875 12.910156 L 13.484375 13.160156 C 13.496094 13.320312 13.375 13.460938 13.214844 13.472656 C 13.207031 13.472656 13.199219 13.472656 13.191406 13.472656 C 13.042969 13.472656 12.914062 13.355469 12.902344 13.203125 L 12.832031 12.25 C 12.820312 12.085938 12.945312 11.945312 13.105469 11.9375 L 14.058594 11.867188 C 14.21875 11.855469 14.359375 11.976562 14.371094 12.140625 C 14.382812 12.300781 14.261719 12.441406 14.101562 12.453125 L 13.859375 12.46875 C 14.484375 12.914062 15.230469 13.152344 16.015625 13.152344 C 18.074219 13.152344 19.753906 11.476562 19.753906 9.414062 C 19.753906 8.972656 19.679688 8.539062 19.527344 8.128906 Z M 11.789062 10.34375 C 11.722656 10.039062 11.6875 9.726562 11.6875 9.414062 C 11.6875 7.027344 13.628906 5.085938 16.015625 5.085938 C 16.761719 5.085938 17.5 5.285156 18.144531 5.648438 L 18.101562 5.386719 C 18.074219 5.230469 18.179688 5.078125 18.339844 5.050781 C 18.5 5.023438 18.648438 5.128906 18.675781 5.289062 L 18.84375 6.230469 C 18.871094 6.386719 18.761719 6.539062 18.605469 6.566406 L 17.660156 6.734375 C 17.644531 6.734375 17.628906 6.738281 17.609375 6.738281 C 17.472656 6.738281 17.347656 6.636719 17.324219 6.496094 C 17.296875 6.335938 17.402344 6.183594 17.5625 6.15625 L 17.78125 6.117188 C 17.242188 5.828125 16.632812 5.671875 16.015625 5.671875 C 13.953125 5.671875 12.273438 7.351562 12.273438 9.414062 C 12.273438 9.683594 12.304688 9.953125 12.363281 10.21875 C 12.394531 10.375 12.296875 10.53125 12.136719 10.566406 C 12.117188 10.570312 12.09375 10.574219 12.074219 10.574219 C 11.941406 10.574219 11.820312 10.480469 11.789062 10.34375 Z M 11.789062 10.34375 " fill-opacity="1" fill-rule="nonzero"/></g></svg>