<svg xmlns="http://www.w3.org/2000/svg" xmlns:xlink="http://www.w3.org/1999/xlink" width="40" zoomAndPan="magnify" viewBox="0 0 30 30.000001" height="40" preserveAspectRatio="xMidYMid meet" version="1.0"><defs><clipPath id="a64d7b1677"><path d="M 0.484375 0 L 29.515625 0 L 29.515625 29.03125 L 0.484375 29.03125 Z M 0.484375 0 " clip-rule="nonzero"/></clipPath><clipPath id="1098514d24"><path d="M 3.386719 2.902344 L 26.613281 2.902344 L 26.613281 26.128906 L 3.386719 26.128906 Z M 3.386719 2.902344 " clip-rule="nonzero"/></clipPath></defs><g clip-path="url(#a64d7b1677)"><path fill="#ffffff" d="M 0.484375 0 L 29.515625 0 L 29.515625 29.03125 L 0.484375 29.03125 Z M 0.484375 0 " fill-opacity="1" fill-rule="nonzero"/><path fill="#ffffff" d="M 0.484375 0 L 29.515625 0 L 29.515625 29.03125 L 0.484375 29.03125 Z M 0.484375 0 " fill-opacity="1" fill-rule="nonzero"/></g><path fill="#935f3d" d="M 12.136719 9.65625 C 11.816406 9.550781 11.46875 9.722656 11.363281 10.042969 L 10.722656 11.972656 L 10.078125 10.042969 C 9.972656 9.722656 9.625 9.550781 9.304688 9.65625 C 8.984375 9.765625 8.8125 10.109375 8.917969 10.429688 L 10.140625 14.097656 C 10.226562 14.347656 10.457031 14.515625 10.722656 14.515625 C 10.984375 14.515625 11.21875 14.347656 11.300781 14.097656 L 12.523438 10.429688 C 12.628906 10.109375 12.457031 9.765625 12.136719 9.65625 Z M 12.136719 9.65625 " fill-opacity="1" fill-rule="nonzero"/><path fill="#935f3d" d="M 18.972656 10.847656 L 19.890625 10.847656 C 20.226562 10.847656 20.5 10.574219 20.5 10.238281 C 20.5 9.898438 20.226562 9.625 19.890625 9.625 L 18.972656 9.625 C 18.128906 9.625 17.445312 10.3125 17.445312 11.15625 C 17.445312 11.996094 18.128906 12.683594 18.972656 12.683594 C 19.140625 12.683594 19.277344 12.820312 19.277344 12.988281 C 19.277344 13.15625 19.140625 13.292969 18.972656 13.292969 L 18.054688 13.292969 C 17.71875 13.292969 17.445312 13.566406 17.445312 13.90625 C 17.445312 14.242188 17.71875 14.515625 18.054688 14.515625 L 18.972656 14.515625 C 19.816406 14.515625 20.5 13.832031 20.5 12.988281 C 20.5 12.144531 19.816406 11.460938 18.972656 11.460938 C 18.804688 11.460938 18.667969 11.324219 18.667969 11.15625 C 18.667969 10.984375 18.804688 10.847656 18.972656 10.847656 Z M 18.972656 10.847656 " fill-opacity="1" fill-rule="nonzero"/><g clip-path="url(#1098514d24)"><path fill="#935f3d" d="M 24.78125 20.015625 L 21.113281 20.015625 L 21.113281 16.960938 L 21.722656 16.960938 C 24.417969 16.960938 26.613281 14.765625 26.613281 12.070312 C 26.613281 9.375 24.417969 7.179688 21.722656 7.179688 L 19.277344 7.179688 C 19.277344 4.820312 17.359375 2.902344 15 2.902344 C 12.640625 2.902344 10.722656 4.820312 10.722656 7.179688 L 8.277344 7.179688 C 5.582031 7.179688 3.386719 9.375 3.386719 12.070312 C 3.386719 14.765625 5.582031 16.960938 8.277344 16.960938 L 8.886719 16.960938 L 8.886719 20.015625 L 5.21875 20.015625 C 4.210938 20.015625 3.386719 20.84375 3.386719 21.851562 L 3.386719 24.296875 C 3.386719 25.304688 4.210938 26.128906 5.21875 26.128906 L 24.78125 26.128906 C 25.789062 26.128906 26.613281 25.304688 26.613281 24.296875 L 26.613281 21.851562 C 26.613281 20.84375 25.789062 20.015625 24.78125 20.015625 Z M 8.277344 15.738281 C 6.253906 15.738281 4.609375 14.09375 4.609375 12.070312 C 4.609375 10.046875 6.253906 8.402344 8.277344 8.402344 L 11.332031 8.402344 C 11.667969 8.402344 11.945312 8.128906 11.945312 7.792969 L 11.945312 7.179688 C 11.945312 5.496094 13.3125 4.125 15 4.125 C 16.6875 4.125 18.054688 5.496094 18.054688 7.179688 L 18.054688 7.792969 C 18.054688 8.128906 18.332031 8.402344 18.667969 8.402344 L 21.722656 8.402344 C 23.746094 8.402344 25.390625 10.046875 25.390625 12.070312 C 25.390625 14.09375 23.746094 15.738281 21.722656 15.738281 Z M 19.890625 16.960938 L 19.890625 20.015625 L 10.109375 20.015625 L 10.109375 16.960938 Z M 25.390625 24.296875 C 25.390625 24.632812 25.117188 24.90625 24.78125 24.90625 L 5.21875 24.90625 C 4.882812 24.90625 4.609375 24.632812 4.609375 24.296875 L 4.609375 21.851562 C 4.609375 21.515625 4.882812 21.238281 5.21875 21.238281 L 24.78125 21.238281 C 25.117188 21.238281 25.390625 21.515625 25.390625 21.851562 Z M 25.390625 24.296875 " fill-opacity="1" fill-rule="nonzero"/></g><path fill="#935f3d" d="M 15 9.625 L 13.777344 9.625 C 13.441406 9.625 13.167969 9.902344 13.167969 10.238281 L 13.167969 13.90625 C 13.167969 14.242188 13.441406 14.515625 13.777344 14.515625 C 14.113281 14.515625 14.390625 14.242188 14.390625 13.90625 L 14.390625 13.292969 L 15 13.292969 C 16 13.292969 16.832031 12.457031 16.832031 11.460938 C 16.832031 10.453125 16.007812 9.625 15 9.625 Z M 15.421875 11.890625 C 15.308594 12 15.15625 12.070312 15 12.070312 L 14.390625 12.070312 L 14.390625 10.847656 L 15 10.847656 C 15.335938 10.847656 15.609375 11.125 15.609375 11.460938 C 15.613281 11.625 15.535156 11.777344 15.421875 11.890625 Z M 15.421875 11.890625 " fill-opacity="1" fill-rule="nonzero"/><path fill="#935f3d" d="M 7.054688 23.074219 C 7.054688 23.242188 6.996094 23.386719 6.875 23.503906 C 6.753906 23.625 6.613281 23.683594 6.441406 23.683594 C 6.273438 23.683594 6.128906 23.625 6.011719 23.503906 C 5.890625 23.386719 5.832031 23.242188 5.832031 23.074219 C 5.832031 22.90625 5.890625 22.761719 6.011719 22.640625 C 6.128906 22.523438 6.273438 22.460938 6.441406 22.460938 C 6.613281 22.460938 6.753906 22.523438 6.875 22.640625 C 6.996094 22.761719 7.054688 22.90625 7.054688 23.074219 Z M 7.054688 23.074219 " fill-opacity="1" fill-rule="nonzero"/><path fill="#935f3d" d="M 9.5 23.074219 C 9.5 23.242188 9.4375 23.386719 9.320312 23.503906 C 9.199219 23.625 9.054688 23.683594 8.886719 23.683594 C 8.71875 23.683594 8.574219 23.625 8.457031 23.503906 C 8.335938 23.386719 8.277344 23.242188 8.277344 23.074219 C 8.277344 22.90625 8.335938 22.761719 8.457031 22.640625 C 8.574219 22.523438 8.71875 22.460938 8.886719 22.460938 C 9.054688 22.460938 9.199219 22.523438 9.320312 22.640625 C 9.4375 22.761719 9.5 22.90625 9.5 23.074219 Z M 9.5 23.074219 " fill-opacity="1" fill-rule="nonzero"/><path fill="#935f3d" d="M 11.945312 23.074219 C 11.945312 23.242188 11.882812 23.386719 11.765625 23.503906 C 11.644531 23.625 11.5 23.683594 11.332031 23.683594 C 11.164062 23.683594 11.019531 23.625 10.902344 23.503906 C 10.78125 23.386719 10.722656 23.242188 10.722656 23.074219 C 10.722656 22.90625 10.78125 22.761719 10.902344 22.640625 C 11.019531 22.523438 11.164062 22.460938 11.332031 22.460938 C 11.5 22.460938 11.644531 22.523438 11.765625 22.640625 C 11.882812 22.761719 11.945312 22.90625 11.945312 23.074219 Z M 11.945312 23.074219 " fill-opacity="1" fill-rule="nonzero"/><path fill="#935f3d" d="M 23.558594 22.460938 L 16.222656 22.460938 C 15.882812 22.460938 15.609375 22.734375 15.609375 23.074219 C 15.609375 23.410156 15.882812 23.683594 16.222656 23.683594 L 23.558594 23.683594 C 23.894531 23.683594 24.167969 23.410156 24.167969 23.074219 C 24.167969 22.734375 23.894531 22.460938 23.558594 22.460938 Z M 23.558594 22.460938 " fill-opacity="1" fill-rule="nonzero"/></svg>