<svg xmlns="http://www.w3.org/2000/svg" xmlns:xlink="http://www.w3.org/1999/xlink" width="40" zoomAndPan="magnify" viewBox="0 0 30 30.000001" height="40" preserveAspectRatio="xMidYMid meet" version="1.0"><defs><clipPath id="54ea5d2446"><path d="M 0.484375 0 L 29.515625 0 L 29.515625 29.03125 L 0.484375 29.03125 Z M 0.484375 0 " clip-rule="nonzero"/></clipPath><clipPath id="d137748821"><path d="M 16 4.441406 L 21 4.441406 L 21 8 L 16 8 Z M 16 4.441406 " clip-rule="nonzero"/></clipPath><clipPath id="62db364310"><path d="M 5.636719 8 L 26.683594 8 L 26.683594 22.585938 L 5.636719 22.585938 Z M 5.636719 8 " clip-rule="nonzero"/></clipPath></defs><g clip-path="url(#54ea5d2446)"><path fill="#ffffff" d="M 0.484375 0 L 29.515625 0 L 29.515625 29.03125 L 0.484375 29.03125 Z M 0.484375 0 " fill-opacity="1" fill-rule="nonzero"/><path fill="#ffffff" d="M 0.484375 0 L 29.515625 0 L 29.515625 29.03125 L 0.484375 29.03125 Z M 0.484375 0 " fill-opacity="1" fill-rule="nonzero"/></g><g clip-path="url(#d137748821)"><path fill="#935f3d" d="M 18.53125 7.980469 C 19.503906 7.980469 20.289062 7.195312 20.289062 6.222656 C 20.289062 5.253906 19.503906 4.46875 18.53125 4.46875 C 17.5625 4.46875 16.777344 5.253906 16.777344 6.222656 C 16.777344 7.195312 17.5625 7.980469 18.53125 7.980469 Z M 18.53125 5.390625 C 18.992188 5.390625 19.367188 5.765625 19.367188 6.222656 C 19.367188 6.683594 18.992188 7.058594 18.53125 7.058594 C 18.074219 7.058594 17.699219 6.683594 17.699219 6.222656 C 17.699219 5.765625 18.074219 5.390625 18.53125 5.390625 Z M 18.53125 5.390625 " fill-opacity="1" fill-rule="nonzero"/></g><path fill="#935f3d" d="M 22.203125 9.085938 C 23.171875 9.085938 23.960938 8.296875 23.960938 7.328125 C 23.960938 6.359375 23.171875 5.570312 22.203125 5.570312 C 21.234375 5.570312 20.445312 6.359375 20.445312 7.328125 C 20.445312 8.296875 21.234375 9.085938 22.203125 9.085938 Z M 22.203125 6.496094 C 22.664062 6.496094 23.035156 6.867188 23.035156 7.328125 C 23.035156 7.785156 22.664062 8.160156 22.203125 8.160156 C 21.746094 8.160156 21.371094 7.785156 21.371094 7.328125 C 21.371094 6.867188 21.746094 6.496094 22.203125 6.496094 Z M 22.203125 6.496094 " fill-opacity="1" fill-rule="nonzero"/><path fill="#935f3d" d="M 14.863281 9.277344 C 15.832031 9.277344 16.621094 8.488281 16.621094 7.519531 C 16.621094 6.550781 15.832031 5.761719 14.863281 5.761719 C 13.894531 5.761719 13.105469 6.550781 13.105469 7.519531 C 13.105469 8.488281 13.894531 9.277344 14.863281 9.277344 Z M 14.863281 6.6875 C 15.320312 6.6875 15.695312 7.058594 15.695312 7.519531 C 15.695312 7.980469 15.320312 8.351562 14.863281 8.351562 C 14.402344 8.351562 14.03125 7.980469 14.03125 7.519531 C 14.03125 7.058594 14.402344 6.6875 14.863281 6.6875 Z M 14.863281 6.6875 " fill-opacity="1" fill-rule="nonzero"/><g clip-path="url(#62db364310)"><path fill="#935f3d" d="M 24.5 10.3125 C 24.484375 10.316406 24.46875 10.320312 24.457031 10.324219 C 24.15625 9.617188 23.453125 9.128906 22.648438 9.128906 L 21.757812 9.128906 C 21.433594 9.128906 21.117188 9.214844 20.835938 9.363281 C 20.574219 8.589844 19.839844 8.027344 18.976562 8.027344 L 18.089844 8.027344 C 17.164062 8.027344 16.386719 8.671875 16.179688 9.535156 C 15.914062 9.398438 15.613281 9.324219 15.308594 9.324219 L 14.417969 9.324219 C 13.335938 9.324219 12.457031 10.203125 12.457031 11.285156 L 12.457031 11.882812 C 12.273438 11.980469 12.105469 12.101562 11.953125 12.246094 L 10.332031 13.796875 C 10.113281 13.695312 9.875 13.636719 9.628906 13.632812 C 9.183594 13.625 8.757812 13.796875 8.4375 14.109375 L 6.304688 16.195312 C 5.644531 16.84375 5.632812 17.90625 6.28125 18.570312 L 9.742188 22.105469 C 10.070312 22.441406 10.507812 22.609375 10.941406 22.609375 C 11.363281 22.609375 11.789062 22.449219 12.113281 22.128906 L 14.246094 20.042969 C 14.566406 19.730469 14.742188 19.3125 14.75 18.863281 C 14.75 18.625 14.703125 18.394531 14.609375 18.179688 L 14.632812 18.164062 C 15.03125 17.871094 15.523438 17.707031 16.011719 17.707031 L 19.296875 17.707031 C 19.929688 17.707031 20.558594 17.542969 21.113281 17.234375 C 21.308594 17.125 21.476562 17.007812 21.632812 16.882812 L 23.449219 15.414062 C 23.519531 15.367188 23.589844 15.308594 23.664062 15.238281 L 23.675781 15.230469 C 23.679688 15.226562 23.679688 15.222656 23.683594 15.21875 C 23.695312 15.210938 23.707031 15.199219 23.71875 15.1875 L 26.296875 12.441406 C 26.496094 12.226562 26.605469 11.949219 26.605469 11.652344 C 26.605469 11.34375 26.476562 11.042969 26.246094 10.816406 C 25.78125 10.382812 25.132812 10.195312 24.5 10.3125 Z M 21.757812 10.054688 L 22.648438 10.054688 C 23.089844 10.054688 23.464844 10.328125 23.617188 10.722656 C 23.546875 10.78125 23.476562 10.839844 23.414062 10.90625 L 22.195312 12.210938 L 21.148438 12.839844 C 21.085938 12.777344 21.015625 12.722656 20.941406 12.671875 L 20.941406 10.457031 C 21.132812 10.207031 21.4375 10.054688 21.757812 10.054688 Z M 18.089844 8.953125 L 18.976562 8.953125 C 19.550781 8.953125 20.015625 9.417969 20.015625 9.992188 L 20.015625 12.429688 L 17.371094 12.429688 C 17.339844 12.429688 17.3125 12.421875 17.289062 12.40625 L 17.050781 12.238281 L 17.050781 9.992188 C 17.050781 9.417969 17.515625 8.953125 18.089844 8.953125 Z M 13.378906 11.285156 C 13.378906 10.710938 13.84375 10.246094 14.417969 10.246094 L 15.308594 10.246094 C 15.628906 10.246094 15.933594 10.398438 16.125 10.652344 L 16.125 11.722656 C 15.910156 11.65625 15.683594 11.621094 15.460938 11.621094 L 13.515625 11.621094 C 13.472656 11.621094 13.425781 11.625 13.378906 11.625 Z M 25.621094 11.808594 L 23.066406 14.53125 L 22.855469 14.707031 C 22.847656 14.710938 22.84375 14.710938 22.839844 14.714844 L 21.046875 16.164062 C 20.933594 16.261719 20.808594 16.347656 20.664062 16.425781 C 20.246094 16.660156 19.773438 16.78125 19.296875 16.78125 L 16.011719 16.78125 C 15.324219 16.78125 14.640625 17.007812 14.082031 17.421875 L 14.050781 17.445312 L 12.53125 15.894531 C 12.351562 15.710938 12.058594 15.707031 11.875 15.886719 C 11.695312 16.066406 11.691406 16.359375 11.867188 16.539062 L 13.609375 18.320312 C 13.75 18.460938 13.824219 18.652344 13.824219 18.855469 C 13.820312 19.054688 13.742188 19.242188 13.597656 19.382812 L 11.46875 21.46875 C 11.171875 21.761719 10.695312 21.753906 10.402344 21.457031 L 6.941406 17.921875 C 6.652344 17.625 6.65625 17.148438 6.953125 16.859375 L 9.085938 14.773438 C 9.226562 14.632812 9.417969 14.554688 9.621094 14.558594 C 9.820312 14.558594 10.007812 14.640625 10.148438 14.78125 L 10.949219 15.601562 C 11.128906 15.78125 11.421875 15.785156 11.601562 15.609375 C 11.785156 15.429688 11.789062 15.136719 11.609375 14.953125 L 11.054688 14.386719 L 12.589844 12.914062 C 12.839844 12.675781 13.167969 12.546875 13.515625 12.546875 L 15.460938 12.546875 C 15.734375 12.546875 16.007812 12.632812 16.234375 12.792969 L 16.757812 13.160156 C 16.9375 13.289062 17.148438 13.355469 17.371094 13.355469 L 20.132812 13.355469 C 20.277344 13.355469 20.417969 13.414062 20.519531 13.515625 C 20.625 13.621094 20.683594 13.757812 20.683594 13.90625 C 20.683594 14.207031 20.4375 14.457031 20.132812 14.457031 L 16.742188 14.457031 C 16.484375 14.457031 16.277344 14.660156 16.277344 14.917969 C 16.277344 15.171875 16.484375 15.378906 16.742188 15.378906 L 20.132812 15.378906 C 20.945312 15.378906 21.605469 14.71875 21.605469 13.90625 C 21.605469 13.820312 21.597656 13.738281 21.585938 13.65625 L 22.722656 12.96875 C 22.726562 12.96875 22.730469 12.964844 22.730469 12.964844 C 22.75 12.953125 22.765625 12.941406 22.78125 12.925781 C 22.789062 12.917969 22.800781 12.914062 22.808594 12.90625 C 22.8125 12.898438 22.816406 12.898438 22.824219 12.890625 L 24.089844 11.539062 C 24.242188 11.375 24.445312 11.265625 24.671875 11.21875 C 25.011719 11.15625 25.367188 11.257812 25.605469 11.484375 C 25.65625 11.53125 25.679688 11.589844 25.679688 11.652344 C 25.679688 11.714844 25.660156 11.765625 25.621094 11.808594 Z M 25.621094 11.808594 " fill-opacity="1" fill-rule="nonzero"/></g></svg>