<svg xmlns="http://www.w3.org/2000/svg" xmlns:xlink="http://www.w3.org/1999/xlink" width="40" zoomAndPan="magnify" viewBox="0 0 30 30.000001" height="40" preserveAspectRatio="xMidYMid meet" version="1.0"><defs><clipPath id="ceea180bb5"><path d="M 0.484375 0 L 29.515625 0 L 29.515625 29.03125 L 0.484375 29.03125 Z M 0.484375 0 " clip-rule="nonzero"/></clipPath><clipPath id="bbebbe48c0"><path d="M 14 17 L 26.683594 17 L 26.683594 26.128906 L 14 26.128906 Z M 14 17 " clip-rule="nonzero"/></clipPath><clipPath id="5c52858d5d"><path d="M 3.460938 15 L 12 15 L 12 26.128906 L 3.460938 26.128906 Z M 3.460938 15 " clip-rule="nonzero"/></clipPath></defs><g clip-path="url(#ceea180bb5)"><path fill="#ffffff" d="M 0.484375 0 L 29.515625 0 L 29.515625 29.03125 L 0.484375 29.03125 Z M 0.484375 0 " fill-opacity="1" fill-rule="nonzero"/><path fill="#ffffff" d="M 0.484375 0 L 29.515625 0 L 29.515625 29.03125 L 0.484375 29.03125 Z M 0.484375 0 " fill-opacity="1" fill-rule="nonzero"/></g><path fill="#935f3d" d="M 16.511719 14.804688 L 16.144531 14.296875 L 15.945312 14.441406 L 16.203125 14.796875 C 16.242188 14.792969 16.285156 14.789062 16.328125 14.789062 C 16.390625 14.789062 16.453125 14.792969 16.511719 14.804688 Z M 16.511719 14.804688 " fill-opacity="1" fill-rule="nonzero"/><path fill="#935f3d" d="M 17.515625 16.628906 L 17.585938 16.730469 L 17.402344 16.730469 C 17.242188 16.847656 17.042969 16.921875 16.835938 16.921875 C 16.699219 16.921875 16.566406 16.890625 16.441406 16.835938 L 16.210938 16.730469 L 16.191406 16.730469 L 15.832031 16.796875 L 15.832031 17.097656 L 21.082031 17.097656 L 21.082031 16.730469 L 17.890625 16.730469 L 17.667969 16.421875 C 17.628906 16.5 17.574219 16.570312 17.515625 16.628906 Z M 17.515625 16.628906 " fill-opacity="1" fill-rule="nonzero"/><g clip-path="url(#bbebbe48c0)"><path fill="#935f3d" d="M 25.363281 26.132812 L 25.363281 18.71875 L 25.863281 18.71875 L 25.863281 17.902344 L 26.539062 17.902344 L 26.539062 17.441406 L 14.683594 17.441406 L 14.683594 17.902344 L 15.363281 17.902344 L 15.363281 18.71875 L 15.863281 18.71875 L 15.863281 26.132812 L 16.460938 26.132812 L 16.460938 25.007812 L 24.761719 25.007812 L 24.761719 26.132812 Z M 25.363281 26.132812 " fill-opacity="1" fill-rule="nonzero"/></g><path fill="#935f3d" d="M 15.253906 10.480469 C 15.253906 10.753906 15.199219 11.019531 15.09375 11.273438 C 14.988281 11.53125 14.839844 11.753906 14.644531 11.949219 C 14.449219 12.144531 14.226562 12.292969 13.972656 12.398438 C 13.714844 12.503906 13.453125 12.558594 13.175781 12.558594 C 12.902344 12.558594 12.636719 12.503906 12.382812 12.398438 C 12.125 12.292969 11.902344 12.144531 11.707031 11.949219 C 11.511719 11.753906 11.363281 11.53125 11.257812 11.273438 C 11.152344 11.019531 11.097656 10.753906 11.097656 10.480469 C 11.097656 10.203125 11.152344 9.941406 11.257812 9.683594 C 11.363281 9.429688 11.511719 9.207031 11.707031 9.011719 C 11.902344 8.816406 12.125 8.667969 12.382812 8.5625 C 12.636719 8.457031 12.902344 8.402344 13.175781 8.402344 C 13.453125 8.402344 13.714844 8.457031 13.972656 8.5625 C 14.226562 8.667969 14.449219 8.816406 14.644531 9.011719 C 14.839844 9.207031 14.988281 9.429688 15.09375 9.683594 C 15.199219 9.941406 15.253906 10.203125 15.253906 10.480469 Z M 15.253906 10.480469 " fill-opacity="1" fill-rule="nonzero"/><path fill="#935f3d" d="M 8.199219 13.117188 C 7.273438 14.851562 6.941406 16.023438 6.839844 18.085938 C 6.878906 19.597656 7.859375 19.917969 8.695312 20.046875 C 8.9375 20.082031 9.140625 20.105469 9.3125 20.089844 C 9.359375 20.097656 9.40625 20.101562 9.449219 20.101562 L 12.128906 20.101562 L 12.742188 24.765625 C 12.820312 25.347656 13.316406 25.769531 13.886719 25.769531 C 13.9375 25.769531 13.988281 25.765625 14.039062 25.757812 C 14.667969 25.675781 15.113281 25.097656 15.03125 24.464844 L 14.285156 18.796875 C 14.207031 18.222656 13.71875 17.792969 13.140625 17.792969 L 10.179688 17.792969 C 10.308594 17.113281 10.519531 16.433594 10.746094 15.804688 L 9.195312 14.394531 C 8.808594 14.042969 8.78125 13.441406 9.132812 13.050781 C 9.3125 12.855469 9.570312 12.742188 9.835938 12.742188 C 10.074219 12.742188 10.300781 12.828125 10.476562 12.988281 L 13.089844 15.363281 L 14.769531 15.058594 C 15.207031 14.378906 15.53125 13.660156 15.449219 13.085938 C 15.398438 12.714844 15.195312 12.402344 14.875 12.210938 C 14.832031 12.1875 14.785156 12.164062 14.742188 12.148438 C 14.472656 12.402344 14.140625 12.589844 13.777344 12.6875 C 13.722656 12.933594 13.796875 13.195312 13.976562 13.371094 C 13.910156 13.699219 13.476562 14.386719 12.910156 15.09375 L 11.367188 12.421875 C 11.320312 12.339844 11.253906 12.265625 11.179688 12.210938 C 11.082031 12.097656 10.964844 12.011719 10.824219 11.949219 C 10.078125 11.625 8.882812 11.859375 8.199219 13.117188 Z M 8.199219 13.117188 " fill-opacity="1" fill-rule="nonzero"/><path fill="#935f3d" d="M 10.332031 13.144531 C 10.03125 12.871094 9.5625 12.894531 9.289062 13.195312 C 9.015625 13.496094 9.039062 13.964844 9.339844 14.238281 L 12.300781 16.929688 C 12.4375 17.054688 12.617188 17.121094 12.796875 17.121094 C 12.839844 17.121094 12.886719 17.117188 12.929688 17.109375 L 16.234375 16.507812 L 16.53125 16.640625 C 16.902344 16.808594 17.339844 16.644531 17.507812 16.273438 C 17.675781 15.902344 17.511719 15.464844 17.140625 15.296875 L 16.632812 15.066406 C 16.496094 15.003906 16.34375 14.984375 16.195312 15.011719 L 13.023438 15.59375 Z M 10.332031 13.144531 " fill-opacity="1" fill-rule="nonzero"/><g clip-path="url(#5c52858d5d)"><path fill="#935f3d" d="M 11.296875 20.722656 L 6.269531 20.703125 C 5.902344 20.699219 5.585938 20.464844 5.484375 20.113281 L 3.992188 15.085938 L 3.460938 15.246094 L 4.953125 20.269531 C 5.117188 20.820312 5.589844 21.199219 6.148438 21.25 C 5.898438 21.292969 5.6875 21.46875 5.609375 21.71875 L 4.300781 25.925781 L 4.652344 26.035156 L 5.960938 21.828125 C 6.003906 21.699219 6.125 21.609375 6.261719 21.609375 L 10.5 21.609375 C 10.652344 21.609375 10.78125 21.71875 10.808594 21.871094 L 11.492188 26.007812 L 11.855469 25.949219 L 11.171875 21.8125 C 11.128906 21.554688 10.945312 21.351562 10.710938 21.273438 L 11.292969 21.277344 Z M 11.296875 20.722656 " fill-opacity="1" fill-rule="nonzero"/></g><path fill="#935f3d" d="M 16.847656 9.867188 C 16.796875 10.066406 16.917969 10.261719 17.113281 10.3125 C 17.3125 10.359375 17.507812 10.238281 17.558594 10.042969 C 17.605469 9.847656 17.484375 9.648438 17.289062 9.601562 C 17.09375 9.550781 16.894531 9.671875 16.847656 9.867188 Z M 16.847656 9.867188 " fill-opacity="1" fill-rule="nonzero"/><path fill="#935f3d" d="M 15.90625 9.480469 C 15.871094 9.617188 15.957031 9.757812 16.089844 9.789062 C 16.226562 9.824219 16.367188 9.738281 16.398438 9.601562 C 16.433594 9.464844 16.347656 9.328125 16.210938 9.296875 C 16.074219 9.261719 15.9375 9.347656 15.90625 9.480469 Z M 15.90625 9.480469 " fill-opacity="1" fill-rule="nonzero"/><path fill="#935f3d" d="M 17.496094 6.035156 C 17.265625 6.964844 17.398438 7.902344 17.792969 8.703125 C 17.785156 8.730469 17.777344 8.753906 17.769531 8.78125 C 17.652344 9.265625 17.949219 9.75 18.429688 9.867188 C 18.523438 9.890625 18.613281 9.898438 18.703125 9.890625 C 19.164062 10.304688 19.730469 10.613281 20.375 10.769531 C 20.683594 10.84375 20.996094 10.882812 21.300781 10.882812 C 23.066406 10.882812 24.671875 9.679688 25.109375 7.890625 C 25.359375 6.875 25.195312 5.820312 24.652344 4.925781 C 24.109375 4.03125 23.25 3.402344 22.230469 3.15625 C 21.214844 2.90625 20.160156 3.070312 19.265625 3.613281 C 18.371094 4.15625 17.742188 5.015625 17.496094 6.035156 Z M 22.164062 3.425781 C 24.117188 3.898438 25.316406 5.875 24.839844 7.824219 C 24.363281 9.777344 22.390625 10.976562 20.4375 10.5 C 18.488281 10.023438 17.289062 8.050781 17.765625 6.097656 C 17.996094 5.152344 18.578125 4.355469 19.410156 3.851562 C 20.242188 3.34375 21.21875 3.195312 22.164062 3.425781 Z M 22.164062 3.425781 " fill-opacity="1" fill-rule="nonzero"/><path fill="#935f3d" d="M 19.050781 5.578125 L 19.050781 9 L 23.554688 9 L 23.554688 4.925781 L 19.050781 4.925781 Z M 22.34375 5.667969 L 21.941406 6.164062 L 21.398438 6.164062 L 21.800781 5.667969 Z M 21.207031 5.667969 L 20.804688 6.164062 L 20.261719 6.164062 L 20.664062 5.667969 Z M 19.121094 6.164062 L 19.527344 5.667969 L 20.066406 5.667969 L 19.664062 6.164062 Z M 22.75 7.894531 L 20.0625 7.894531 L 20.0625 7.636719 L 22.75 7.636719 Z M 22.75 7.234375 L 20.0625 7.234375 L 20.0625 6.976562 L 22.75 6.976562 Z M 23.078125 6.164062 L 22.535156 6.164062 L 22.9375 5.667969 L 23.480469 5.667969 Z M 23.078125 5.015625 L 23.480469 5.511719 L 22.9375 5.511719 L 22.535156 5.015625 Z M 21.941406 5.015625 L 22.34375 5.511719 L 21.800781 5.511719 L 21.398438 5.015625 Z M 20.804688 5.015625 L 21.207031 5.511719 L 20.664062 5.511719 L 20.261719 5.015625 Z M 19.664062 5.015625 L 20.066406 5.511719 L 19.527344 5.511719 L 19.125 5.015625 Z M 19.664062 5.015625 " fill-opacity="1" fill-rule="nonzero"/></svg>