<svg xmlns="http://www.w3.org/2000/svg" xmlns:xlink="http://www.w3.org/1999/xlink" width="40" zoomAndPan="magnify" viewBox="0 0 30 30.000001" height="40" preserveAspectRatio="xMidYMid meet" version="1.0"><defs><clipPath id="5e4ef89743"><path d="M 0.484375 0 L 29.515625 0 L 29.515625 29.03125 L 0.484375 29.03125 Z M 0.484375 0 " clip-rule="nonzero"/></clipPath><clipPath id="26f348fc0b"><path d="M 6.113281 3.246094 L 24.257812 3.246094 L 24.257812 26.472656 L 6.113281 26.472656 Z M 6.113281 3.246094 " clip-rule="nonzero"/></clipPath></defs><g clip-path="url(#5e4ef89743)"><path fill="#ffffff" d="M 0.484375 0 L 29.515625 0 L 29.515625 29.03125 L 0.484375 29.03125 Z M 0.484375 0 " fill-opacity="1" fill-rule="nonzero"/><path fill="#ffffff" d="M 0.484375 0 L 29.515625 0 L 29.515625 29.03125 L 0.484375 29.03125 Z M 0.484375 0 " fill-opacity="1" fill-rule="nonzero"/></g><g clip-path="url(#26f348fc0b)"><path fill="#935f3d" d="M 21.664062 3.246094 L 8.605469 3.246094 C 7.234375 3.246094 6.121094 4.363281 6.121094 5.730469 L 6.121094 13.082031 C 6.121094 14.449219 7.234375 15.5625 8.605469 15.5625 L 8.898438 15.5625 C 8.878906 15.683594 8.871094 15.804688 8.867188 15.933594 C 8.835938 16.832031 9.15625 17.699219 9.742188 18.304688 C 9.933594 18.503906 10.148438 18.664062 10.375 18.789062 C 9.433594 18.933594 8.632812 19.265625 8.019531 19.78125 C 7.226562 20.441406 6.789062 21.378906 6.789062 22.414062 L 6.789062 25.835938 C 6.789062 25.996094 6.917969 26.121094 7.074219 26.121094 L 15.855469 26.121094 C 16.011719 26.121094 16.136719 25.996094 16.136719 25.835938 L 16.136719 22.414062 C 16.136719 21.378906 15.703125 20.441406 14.910156 19.78125 C 14.296875 19.265625 13.496094 18.933594 12.554688 18.789062 C 12.78125 18.664062 12.992188 18.503906 13.183594 18.304688 C 13.773438 17.699219 14.09375 16.832031 14.0625 15.933594 C 14.058594 15.804688 14.046875 15.683594 14.03125 15.5625 L 16.4375 15.5625 L 16.4375 18.6875 C 16.4375 18.804688 16.503906 18.90625 16.609375 18.953125 C 16.648438 18.964844 16.683594 18.972656 16.722656 18.972656 C 16.792969 18.972656 16.867188 18.945312 16.921875 18.890625 L 20.300781 15.5625 L 21.664062 15.5625 C 23.03125 15.5625 24.144531 14.449219 24.144531 13.082031 L 24.144531 5.730469 C 24.144531 4.363281 23.03125 3.246094 21.664062 3.246094 Z M 15.570312 22.414062 L 15.570312 25.550781 L 13.832031 25.550781 L 13.832031 22.882812 C 13.832031 22.726562 13.707031 22.601562 13.546875 22.601562 C 13.390625 22.601562 13.265625 22.726562 13.265625 22.882812 L 13.265625 25.550781 L 9.664062 25.550781 L 9.664062 22.882812 C 9.664062 22.726562 9.539062 22.601562 9.378906 22.601562 C 9.222656 22.601562 9.09375 22.726562 9.09375 22.882812 L 9.09375 25.550781 L 7.359375 25.550781 L 7.359375 22.414062 C 7.359375 20.507812 8.972656 19.277344 11.464844 19.277344 C 13.957031 19.277344 15.570312 20.507812 15.570312 22.414062 Z M 12.777344 17.910156 C 12.40625 18.292969 11.9375 18.503906 11.464844 18.503906 C 10.992188 18.503906 10.523438 18.292969 10.152344 17.910156 C 9.671875 17.410156 9.410156 16.699219 9.4375 15.953125 C 9.476562 14.65625 10.21875 13.914062 11.464844 13.914062 C 12.710938 13.914062 13.449219 14.65625 13.492188 15.953125 C 13.519531 16.699219 13.257812 17.410156 12.777344 17.910156 Z M 23.578125 13.082031 C 23.578125 14.136719 22.71875 14.996094 21.664062 14.996094 L 20.183594 14.996094 C 20.109375 14.996094 20.039062 15.023438 19.984375 15.078125 L 17.007812 18.007812 L 17.007812 15.277344 C 17.007812 15.121094 16.878906 14.996094 16.722656 14.996094 L 13.902344 14.996094 C 13.558594 13.957031 12.683594 13.34375 11.464844 13.34375 C 10.246094 13.34375 9.371094 13.957031 9.027344 14.996094 L 8.605469 14.996094 C 7.550781 14.996094 6.691406 14.136719 6.691406 13.082031 L 6.691406 5.730469 C 6.691406 4.675781 7.550781 3.816406 8.605469 3.816406 L 21.664062 3.816406 C 22.71875 3.816406 23.574219 4.675781 23.574219 5.730469 L 23.574219 13.082031 Z M 20.421875 5.339844 C 20.523438 5.460938 20.507812 5.640625 20.386719 5.742188 L 18.667969 7.171875 C 18.617188 7.214844 18.550781 7.234375 18.484375 7.234375 C 18.476562 7.234375 18.464844 7.234375 18.457031 7.234375 C 18.382812 7.226562 18.3125 7.1875 18.265625 7.128906 L 17.511719 6.203125 C 17.414062 6.082031 17.429688 5.902344 17.554688 5.804688 C 17.675781 5.703125 17.855469 5.722656 17.953125 5.84375 L 18.523438 6.546875 L 20.023438 5.304688 C 20.144531 5.203125 20.320312 5.21875 20.421875 5.339844 Z M 12.710938 7.214844 C 12.597656 7.105469 12.597656 6.925781 12.707031 6.8125 C 12.816406 6.699219 12.996094 6.695312 13.109375 6.804688 L 13.5 7.1875 L 13.882812 6.796875 C 13.992188 6.683594 14.175781 6.679688 14.285156 6.789062 C 14.398438 6.898438 14.402344 7.078125 14.292969 7.191406 L 13.910156 7.585938 L 14.304688 7.96875 C 14.414062 8.078125 14.417969 8.257812 14.308594 8.371094 C 14.253906 8.429688 14.179688 8.457031 14.105469 8.457031 C 14.03125 8.457031 13.960938 8.429688 13.90625 8.375 L 13.511719 7.992188 L 13.128906 8.386719 C 13.074219 8.445312 13 8.472656 12.925781 8.472656 C 12.855469 8.472656 12.78125 8.445312 12.726562 8.394531 C 12.613281 8.285156 12.613281 8.101562 12.722656 7.992188 L 13.105469 7.597656 Z M 13.621094 11.378906 C 13.027344 11.378906 12.546875 11.859375 12.546875 12.449219 C 12.546875 13.039062 13.03125 13.519531 13.621094 13.519531 C 14.210938 13.519531 14.691406 13.039062 14.691406 12.449219 C 14.691406 11.859375 14.210938 11.378906 13.621094 11.378906 Z M 13.621094 12.953125 C 13.34375 12.953125 13.117188 12.726562 13.117188 12.449219 C 13.117188 12.171875 13.34375 11.949219 13.621094 11.949219 C 13.898438 11.949219 14.121094 12.171875 14.121094 12.449219 C 14.121094 12.726562 13.898438 12.953125 13.621094 12.953125 Z M 18.429688 7.734375 L 16.449219 8.3125 C 16.351562 8.339844 16.277344 8.421875 16.253906 8.519531 C 16.230469 8.617188 16.257812 8.722656 16.332031 8.792969 L 16.886719 9.316406 C 16.238281 9.933594 15.25 9.882812 14.117188 9.820312 C 12.6875 9.746094 11.0625 9.660156 9.851562 11.019531 C 9.746094 11.136719 9.757812 11.316406 9.875 11.421875 C 9.929688 11.46875 9.996094 11.492188 10.0625 11.492188 C 10.140625 11.492188 10.21875 11.460938 10.277344 11.398438 C 11.304688 10.242188 12.71875 10.316406 14.085938 10.390625 C 15.261719 10.453125 16.476562 10.515625 17.300781 9.707031 L 17.84375 10.222656 C 17.894531 10.273438 17.964844 10.300781 18.039062 10.300781 C 18.066406 10.300781 18.09375 10.296875 18.121094 10.289062 C 18.21875 10.261719 18.292969 10.179688 18.316406 10.082031 L 18.785156 8.074219 C 18.808594 7.976562 18.777344 7.871094 18.703125 7.800781 C 18.632812 7.730469 18.527344 7.707031 18.429688 7.734375 Z M 17.875 9.46875 L 17.085938 8.71875 L 18.121094 8.417969 Z M 17.875 9.46875 " fill-opacity="1" fill-rule="nonzero"/></g></svg>