<svg xmlns="http://www.w3.org/2000/svg" xmlns:xlink="http://www.w3.org/1999/xlink" width="40" zoomAndPan="magnify" viewBox="0 0 30 30.000001" height="40" preserveAspectRatio="xMidYMid meet" version="1.0"><defs><clipPath id="1d32cf2ce9"><path d="M 0.484375 0 L 29.515625 0 L 29.515625 29.03125 L 0.484375 29.03125 Z M 0.484375 0 " clip-rule="nonzero"/></clipPath><clipPath id="03ad000103"><path d="M 3.386719 3.035156 L 26.613281 3.035156 L 26.613281 26 L 3.386719 26 Z M 3.386719 3.035156 " clip-rule="nonzero"/></clipPath></defs><g clip-path="url(#1d32cf2ce9)"><path fill="#ffffff" d="M 0.484375 0 L 29.515625 0 L 29.515625 29.03125 L 0.484375 29.03125 Z M 0.484375 0 " fill-opacity="1" fill-rule="nonzero"/><path fill="#ffffff" d="M 0.484375 0 L 29.515625 0 L 29.515625 29.03125 L 0.484375 29.03125 Z M 0.484375 0 " fill-opacity="1" fill-rule="nonzero"/></g><g clip-path="url(#03ad000103)"><path fill="#935f3d" d="M 21.53125 10.121094 L 21.53125 9.351562 C 21.53125 9.171875 21.675781 9.027344 21.855469 9.027344 C 22.035156 9.027344 22.179688 9.171875 22.179688 9.351562 L 22.179688 10.121094 C 22.179688 10.300781 22.035156 10.445312 21.855469 10.445312 C 21.675781 10.445312 21.53125 10.300781 21.53125 10.121094 Z M 19.429688 10.855469 C 19.488281 10.960938 19.597656 11.019531 19.710938 11.019531 C 19.765625 11.019531 19.824219 11.003906 19.875 10.976562 C 20.03125 10.886719 20.082031 10.6875 19.992188 10.53125 L 19.609375 9.867188 C 19.519531 9.710938 19.320312 9.65625 19.164062 9.746094 C 19.007812 9.835938 18.957031 10.035156 19.046875 10.191406 Z M 17.3125 12.160156 L 17.980469 12.546875 C 18.03125 12.574219 18.085938 12.589844 18.140625 12.589844 C 18.253906 12.589844 18.363281 12.53125 18.421875 12.425781 C 18.511719 12.269531 18.460938 12.070312 18.304688 11.980469 L 17.640625 11.597656 C 17.484375 11.507812 17.285156 11.5625 17.195312 11.714844 C 17.105469 11.871094 17.15625 12.070312 17.3125 12.160156 Z M 24.546875 9.746094 C 24.390625 9.65625 24.191406 9.710938 24.101562 9.867188 L 23.714844 10.53125 C 23.625 10.6875 23.679688 10.886719 23.835938 10.976562 C 23.886719 11.003906 23.941406 11.019531 23.996094 11.019531 C 24.109375 11.019531 24.21875 10.960938 24.28125 10.855469 L 24.664062 10.191406 C 24.753906 10.035156 24.699219 9.835938 24.546875 9.746094 Z M 26.515625 11.714844 C 26.425781 11.5625 26.226562 11.507812 26.070312 11.597656 L 25.40625 11.980469 C 25.25 12.070312 25.195312 12.269531 25.285156 12.425781 C 25.347656 12.53125 25.457031 12.589844 25.566406 12.589844 C 25.621094 12.589844 25.679688 12.574219 25.730469 12.546875 L 26.394531 12.160156 C 26.550781 12.070312 26.605469 11.871094 26.515625 11.714844 Z M 24.570312 13.917969 C 24.570312 14.675781 24.324219 15.058594 24.082031 15.429688 C 23.847656 15.792969 23.605469 16.167969 23.503906 17.011719 C 23.734375 17.128906 23.894531 17.375 23.894531 17.652344 L 23.894531 18.503906 C 23.894531 18.902344 23.574219 19.226562 23.175781 19.226562 L 23.09375 19.226562 L 23.09375 19.296875 C 23.09375 19.683594 22.78125 19.996094 22.398438 19.996094 L 21.3125 19.996094 C 20.929688 19.996094 20.613281 19.683594 20.613281 19.296875 L 20.613281 19.226562 L 20.535156 19.226562 C 20.136719 19.226562 19.8125 18.902344 19.8125 18.503906 L 19.8125 17.652344 C 19.8125 17.375 19.972656 17.128906 20.207031 17.011719 C 20.105469 16.167969 19.863281 15.792969 19.625 15.429688 C 19.386719 15.058594 19.136719 14.675781 19.136719 13.917969 C 19.136719 12.417969 20.355469 11.199219 21.855469 11.199219 C 23.351562 11.199219 24.570312 12.417969 24.570312 13.917969 Z M 23.246094 17.652344 C 23.246094 17.613281 23.214844 17.582031 23.175781 17.582031 L 20.535156 17.582031 C 20.496094 17.582031 20.464844 17.613281 20.464844 17.652344 L 20.464844 18.503906 C 20.464844 18.542969 20.496094 18.574219 20.535156 18.574219 L 20.941406 18.574219 C 21.121094 18.574219 21.265625 18.722656 21.265625 18.902344 L 21.265625 19.296875 C 21.265625 19.324219 21.289062 19.34375 21.3125 19.34375 L 22.398438 19.34375 C 22.421875 19.34375 22.445312 19.324219 22.445312 19.296875 L 22.445312 18.902344 C 22.445312 18.722656 22.589844 18.574219 22.769531 18.574219 L 23.175781 18.574219 C 23.214844 18.574219 23.246094 18.542969 23.246094 18.503906 Z M 23.921875 13.917969 C 23.921875 12.777344 22.992188 11.851562 21.855469 11.851562 C 20.714844 11.851562 19.789062 12.777344 19.789062 13.917969 C 19.789062 14.484375 19.949219 14.730469 20.171875 15.078125 C 20.421875 15.464844 20.730469 15.9375 20.851562 16.933594 L 21.53125 16.933594 L 21.53125 14.550781 L 20.667969 14.050781 C 20.511719 13.960938 20.457031 13.761719 20.546875 13.605469 C 20.636719 13.453125 20.835938 13.398438 20.992188 13.488281 L 21.855469 13.988281 L 22.71875 13.488281 C 22.871094 13.398438 23.070312 13.453125 23.160156 13.605469 C 23.25 13.761719 23.199219 13.960938 23.042969 14.050781 L 22.179688 14.550781 L 22.179688 16.933594 L 22.855469 16.933594 C 22.980469 15.9375 23.285156 15.464844 23.535156 15.078125 C 23.757812 14.730469 23.921875 14.484375 23.921875 13.917969 Z M 19.730469 23.871094 C 19.730469 25.332031 17.394531 25.988281 15.082031 25.988281 C 13.910156 25.988281 12.816406 25.820312 11.996094 25.519531 C 10.703125 25.042969 10.429688 24.359375 10.429688 23.871094 C 10.429688 21.308594 12.515625 19.21875 15.082031 19.21875 C 17.644531 19.21875 19.730469 21.304688 19.730469 23.871094 Z M 19.082031 23.871094 C 19.082031 21.664062 17.289062 19.871094 15.082031 19.871094 C 12.875 19.871094 11.082031 21.664062 11.082031 23.871094 C 11.082031 24.382812 11.699219 24.71875 12.21875 24.910156 C 12.957031 25.179688 14 25.335938 15.082031 25.335938 C 16.160156 25.335938 17.203125 25.179688 17.941406 24.910156 C 18.460938 24.71875 19.082031 24.382812 19.082031 23.871094 Z M 17.40625 16.394531 C 17.40625 17.675781 16.363281 18.71875 15.082031 18.71875 C 13.800781 18.71875 12.757812 17.675781 12.757812 16.394531 C 12.757812 15.113281 13.800781 14.070312 15.082031 14.070312 C 16.363281 14.070312 17.40625 15.113281 17.40625 16.394531 Z M 16.753906 16.394531 C 16.753906 15.472656 16.003906 14.722656 15.082031 14.722656 C 14.160156 14.722656 13.40625 15.472656 13.40625 16.394531 C 13.40625 17.316406 14.160156 18.070312 15.082031 18.070312 C 16.003906 18.070312 16.753906 17.316406 16.753906 16.394531 Z M 7.703125 8.804688 L 7.703125 3.875 C 7.703125 3.410156 8.078125 3.035156 8.542969 3.035156 L 16.332031 3.035156 C 16.796875 3.035156 17.171875 3.410156 17.171875 3.875 L 17.171875 8.804688 C 17.171875 9.269531 16.796875 9.648438 16.332031 9.648438 L 13.96875 9.648438 C 13.8125 10.765625 14.367188 11.421875 14.390625 11.453125 C 14.480469 11.554688 14.496094 11.699219 14.433594 11.820312 C 14.375 11.925781 14.265625 11.992188 14.148438 11.992188 C 14.132812 11.992188 14.121094 11.992188 14.105469 11.988281 C 12.683594 11.8125 11.988281 11.105469 11.65625 10.542969 C 11.457031 10.203125 11.363281 9.878906 11.320312 9.648438 L 8.542969 9.648438 C 8.078125 9.648438 7.703125 9.269531 7.703125 8.804688 Z M 8.351562 8.804688 C 8.351562 8.910156 8.4375 8.996094 8.542969 8.996094 L 11.605469 8.996094 C 11.78125 8.996094 11.925781 9.140625 11.929688 9.316406 C 11.933594 9.378906 11.992188 10.699219 13.507812 11.195312 C 13.328125 10.742188 13.191406 10.082031 13.378906 9.25 C 13.414062 9.101562 13.546875 8.996094 13.699219 8.996094 L 16.332031 8.996094 C 16.4375 8.996094 16.523438 8.910156 16.523438 8.804688 L 16.523438 3.875 C 16.523438 3.769531 16.4375 3.683594 16.332031 3.683594 L 8.542969 3.683594 C 8.4375 3.683594 8.351562 3.769531 8.351562 3.875 Z M 9.6875 8.183594 L 15.1875 8.183594 C 15.367188 8.183594 15.511719 8.035156 15.511719 7.855469 C 15.511719 7.675781 15.367188 7.53125 15.1875 7.53125 L 9.6875 7.53125 C 9.507812 7.53125 9.363281 7.675781 9.363281 7.855469 C 9.363281 8.035156 9.507812 8.183594 9.6875 8.183594 Z M 9.6875 6.667969 L 15.1875 6.667969 C 15.367188 6.667969 15.511719 6.519531 15.511719 6.339844 C 15.511719 6.160156 15.367188 6.015625 15.1875 6.015625 L 9.6875 6.015625 C 9.507812 6.015625 9.363281 6.160156 9.363281 6.339844 C 9.363281 6.519531 9.507812 6.667969 9.6875 6.667969 Z M 9.6875 5.152344 L 15.1875 5.152344 C 15.367188 5.152344 15.511719 5.003906 15.511719 4.824219 C 15.511719 4.644531 15.367188 4.5 15.1875 4.5 L 9.6875 4.5 C 9.507812 4.5 9.363281 4.644531 9.363281 4.824219 C 9.363281 5.003906 9.507812 5.152344 9.6875 5.152344 Z M 10.753906 20.375 L 8.433594 18.773438 C 8.394531 18.746094 8.359375 18.710938 8.335938 18.671875 L 3.804688 10.816406 C 3.394531 10.109375 3.636719 9.199219 4.347656 8.789062 C 5.054688 8.378906 5.964844 8.625 6.375 9.332031 L 10.910156 17.183594 C 10.929688 17.222656 10.945312 17.265625 10.949219 17.3125 L 11.261719 20.070312 C 11.277344 20.195312 11.214844 20.320312 11.105469 20.382812 C 11.054688 20.414062 10.996094 20.429688 10.9375 20.429688 C 10.875 20.429688 10.808594 20.410156 10.753906 20.375 Z M 4.367188 10.492188 L 4.667969 11.011719 L 6.113281 10.179688 L 5.8125 9.65625 C 5.582031 9.257812 5.070312 9.121094 4.671875 9.351562 C 4.273438 9.582031 4.136719 10.09375 4.367188 10.492188 Z M 8.726562 18.046875 L 10.171875 17.210938 L 6.4375 10.742188 L 4.992188 11.578125 Z M 10.535156 19.433594 L 10.355469 17.855469 L 9.210938 18.519531 Z M 10.535156 19.433594 " fill-opacity="1" fill-rule="nonzero"/></g></svg>