<svg xmlns="http://www.w3.org/2000/svg" xmlns:xlink="http://www.w3.org/1999/xlink" width="40" zoomAndPan="magnify" viewBox="0 0 30 30.000001" height="40" preserveAspectRatio="xMidYMid meet" version="1.0"><defs><clipPath id="2758fd72ed"><path d="M 0.484375 0 L 29.515625 0 L 29.515625 29.03125 L 0.484375 29.03125 Z M 0.484375 0 " clip-rule="nonzero"/></clipPath><clipPath id="8d53cbaf89"><path d="M 5.15625 2.902344 L 24.753906 2.902344 L 24.753906 26.128906 L 5.15625 26.128906 Z M 5.15625 2.902344 " clip-rule="nonzero"/></clipPath></defs><g clip-path="url(#2758fd72ed)"><path fill="#ffffff" d="M 0.484375 0 L 29.515625 0 L 29.515625 29.03125 L 0.484375 29.03125 Z M 0.484375 0 " fill-opacity="1" fill-rule="nonzero"/><path fill="#ffffff" d="M 0.484375 0 L 29.515625 0 L 29.515625 29.03125 L 0.484375 29.03125 Z M 0.484375 0 " fill-opacity="1" fill-rule="nonzero"/></g><g clip-path="url(#8d53cbaf89)"><path fill="#935f3d" d="M 12.539062 12.433594 L 13.285156 11.6875 C 13.441406 11.53125 13.691406 11.53125 13.84375 11.6875 L 15.09375 12.933594 C 15.246094 13.089844 15.246094 13.339844 15.09375 13.492188 L 14.34375 14.238281 L 15.894531 15.792969 C 16.09375 15.988281 16.03125 16.316406 15.78125 16.433594 L 12.125 18.109375 L 11.949219 18.285156 L 13.542969 19.878906 C 13.695312 20.035156 13.695312 20.28125 13.542969 20.4375 L 12.496094 21.484375 C 12.34375 21.636719 12.089844 21.636719 11.9375 21.484375 L 10.34375 19.890625 L 10.121094 20.117188 C 9.964844 20.269531 9.714844 20.269531 9.5625 20.117188 L 6.664062 17.214844 C 6.507812 17.0625 6.507812 16.8125 6.664062 16.660156 L 8.667969 14.65625 L 10.347656 10.996094 C 10.464844 10.746094 10.789062 10.6875 10.988281 10.882812 Z M 5.160156 22.894531 L 5.160156 3.296875 C 5.160156 3.078125 5.335938 2.902344 5.554688 2.902344 L 20.199219 2.902344 C 20.417969 2.902344 20.59375 3.078125 20.59375 3.296875 L 20.59375 4.765625 L 24.4375 4.765625 C 24.65625 4.765625 24.832031 4.941406 24.832031 5.160156 L 24.832031 12.589844 C 24.832031 12.808594 24.65625 12.984375 24.4375 12.984375 L 20.59375 12.984375 L 20.59375 25.734375 C 20.59375 25.953125 20.417969 26.128906 20.199219 26.128906 L 5.554688 26.128906 C 5.335938 26.128906 5.160156 25.953125 5.160156 25.734375 Z M 20.203125 5.554688 L 17.402344 5.554688 L 17.402344 12.199219 L 24.042969 12.199219 L 24.042969 5.554688 Z M 19.804688 4.765625 L 19.804688 3.695312 L 5.949219 3.695312 L 5.949219 22.503906 L 19.804688 22.503906 L 19.804688 12.984375 L 17.007812 12.984375 C 16.789062 12.984375 16.609375 12.808594 16.609375 12.589844 L 16.609375 5.160156 C 16.609375 4.941406 16.789062 4.765625 17.007812 4.765625 Z M 5.949219 25.339844 L 19.804688 25.339844 L 19.804688 23.289062 L 5.949219 23.289062 Z M 13.996094 24.707031 L 11.757812 24.707031 C 11.539062 24.707031 11.363281 24.53125 11.363281 24.316406 C 11.363281 24.097656 11.539062 23.921875 11.757812 23.921875 L 13.996094 23.921875 C 14.214844 23.921875 14.390625 24.097656 14.390625 24.316406 C 14.390625 24.53125 14.214844 24.707031 13.996094 24.707031 Z M 18.953125 11.25 C 18.734375 11.25 18.558594 11.074219 18.558594 10.855469 L 18.558594 6.894531 C 18.558594 6.59375 18.882812 6.40625 19.140625 6.550781 L 22.683594 8.507812 C 22.949219 8.660156 22.953125 9.046875 22.6875 9.195312 L 19.144531 11.199219 C 19.085938 11.234375 19.019531 11.25 18.953125 11.25 Z M 19.34375 7.5625 L 19.34375 10.179688 L 21.683594 8.859375 Z M 13.574219 5.386719 L 8.984375 5.386719 C 8.769531 5.386719 8.589844 5.210938 8.589844 4.992188 C 8.589844 4.769531 8.769531 4.59375 8.984375 4.59375 L 13.574219 4.59375 C 13.792969 4.59375 13.96875 4.769531 13.96875 4.992188 C 13.96875 5.210938 13.792969 5.386719 13.574219 5.386719 Z M 15.316406 6.960938 L 7.242188 6.960938 C 7.023438 6.960938 6.847656 6.785156 6.847656 6.566406 C 6.847656 6.347656 7.023438 6.167969 7.242188 6.167969 L 15.316406 6.167969 C 15.535156 6.167969 15.714844 6.347656 15.714844 6.566406 C 15.714844 6.785156 15.535156 6.960938 15.316406 6.960938 Z M 15.316406 8.535156 L 7.242188 8.535156 C 7.023438 8.535156 6.847656 8.359375 6.847656 8.140625 C 6.847656 7.921875 7.023438 7.742188 7.242188 7.742188 L 15.316406 7.746094 C 15.535156 7.746094 15.714844 7.921875 15.714844 8.140625 C 15.714844 8.359375 15.535156 8.535156 15.316406 8.535156 Z M 15.316406 10.109375 L 7.242188 10.109375 C 7.023438 10.109375 6.847656 9.933594 6.847656 9.714844 C 6.847656 9.496094 7.023438 9.320312 7.242188 9.320312 L 15.316406 9.320312 C 15.535156 9.320312 15.714844 9.496094 15.714844 9.714844 C 15.714844 9.933594 15.535156 10.109375 15.316406 10.109375 Z M 10.0625 19.058594 L 11.335938 17.785156 L 8.996094 15.441406 L 7.5 16.9375 L 9.839844 19.28125 Z M 9.46875 14.796875 L 11.980469 17.308594 L 14.9375 15.953125 L 10.832031 11.839844 Z M 11.390625 18.84375 L 10.902344 19.332031 L 12.214844 20.648438 L 12.703125 20.160156 Z M 13.097656 12.992188 L 13.785156 13.679688 L 14.257812 13.214844 L 13.5625 12.527344 Z M 13.097656 12.992188 " fill-opacity="1" fill-rule="evenodd"/></g></svg>