<svg xmlns="http://www.w3.org/2000/svg" xmlns:xlink="http://www.w3.org/1999/xlink" width="40" zoomAndPan="magnify" viewBox="0 0 30 30.000001" height="40" preserveAspectRatio="xMidYMid meet" version="1.0"><defs><clipPath id="c8e45b0e29"><path d="M 0.484375 0 L 29.515625 0 L 29.515625 29.03125 L 0.484375 29.03125 Z M 0.484375 0 " clip-rule="nonzero"/></clipPath><clipPath id="edd808c0c5"><path d="M 3.386719 5.9375 L 26.613281 5.9375 L 26.613281 23.355469 L 3.386719 23.355469 Z M 3.386719 5.9375 " clip-rule="nonzero"/></clipPath></defs><g clip-path="url(#c8e45b0e29)"><path fill="#ffffff" d="M 0.484375 0 L 29.515625 0 L 29.515625 29.03125 L 0.484375 29.03125 Z M 0.484375 0 " fill-opacity="1" fill-rule="nonzero"/><path fill="#ffffff" d="M 0.484375 0 L 29.515625 0 L 29.515625 29.03125 L 0.484375 29.03125 Z M 0.484375 0 " fill-opacity="1" fill-rule="nonzero"/></g><g clip-path="url(#edd808c0c5)"><path fill="#935f3d" d="M 5.882812 8.636719 L 21.90625 8.636719 L 21.90625 7.195312 C 21.90625 6.503906 21.335938 5.933594 20.644531 5.933594 L 7.148438 5.933594 C 6.453125 5.933594 5.882812 6.503906 5.882812 7.195312 Z M 9.777344 7.542969 C 9.441406 7.542969 9.441406 7.03125 9.777344 7.03125 L 10.910156 7.03125 C 11.246094 7.03125 11.246094 7.542969 10.910156 7.542969 Z M 12.164062 7.542969 C 11.824219 7.542969 11.824219 7.03125 12.164062 7.03125 L 13.296875 7.03125 C 13.632812 7.03125 13.632812 7.542969 13.296875 7.542969 Z M 7.394531 7.542969 C 7.054688 7.542969 7.054688 7.03125 7.394531 7.03125 L 8.523438 7.03125 C 8.863281 7.03125 8.863281 7.542969 8.523438 7.542969 Z M 15.296875 12.367188 C 14.960938 12.367188 14.960938 11.851562 15.296875 11.851562 L 17.847656 11.851562 C 18.183594 11.851562 18.183594 12.367188 17.847656 12.367188 Z M 15.296875 10.351562 C 14.960938 10.351562 14.960938 9.839844 15.296875 9.839844 L 19.039062 9.839844 C 19.375 9.839844 19.375 10.351562 19.039062 10.351562 Z M 16.851562 18.273438 C 16.957031 18.273438 17.042969 18.191406 17.042969 18.085938 L 17.042969 16.691406 L 16.664062 16.691406 L 16.664062 18.085938 C 16.664062 18.191406 16.75 18.273438 16.851562 18.273438 Z M 17.363281 16.179688 L 17.363281 14.109375 L 16.460938 14.109375 C 15.960938 14.109375 15.554688 14.519531 15.554688 15.015625 C 15.554688 15.359375 15.535156 15.628906 15.820312 15.914062 C 15.984375 16.078125 16.210938 16.179688 16.460938 16.179688 Z M 19.351562 13.839844 L 19.351562 16.449219 L 21.90625 17.1875 L 21.90625 13.101562 Z M 18.832031 13.714844 L 17.878906 13.71875 L 17.878906 16.574219 L 18.835938 16.574219 L 18.835938 13.714844 C 18.835938 13.714844 18.835938 13.714844 18.832031 13.714844 Z M 23.929688 12.382812 C 23.742188 12.195312 23.425781 12.332031 23.425781 12.589844 L 23.425781 17.699219 C 23.425781 17.957031 23.742188 18.097656 23.929688 17.910156 C 23.984375 17.855469 24.015625 17.78125 24.015625 17.699219 L 24.015625 12.589844 C 24.015625 12.511719 23.984375 12.4375 23.929688 12.382812 Z M 22.914062 17.480469 L 22.914062 12.8125 L 22.417969 12.953125 L 22.417969 17.335938 Z M 24.90625 16.234375 C 24.800781 16.144531 24.785156 15.984375 24.875 15.875 C 24.964844 15.765625 25.128906 15.75 25.238281 15.84375 L 26.257812 16.699219 C 26.363281 16.789062 26.378906 16.949219 26.289062 17.058594 C 26.199219 17.167969 26.035156 17.183594 25.925781 17.089844 Z M 25.238281 13.949219 C 25.128906 14.039062 24.964844 14.023438 24.875 13.914062 C 24.785156 13.808594 24.800781 13.644531 24.90625 13.554688 L 25.925781 12.699219 C 26.035156 12.609375 26.199219 12.621094 26.289062 12.730469 C 26.378906 12.839844 26.363281 13 26.257812 13.09375 Z M 25.070312 15.152344 C 24.734375 15.152344 24.734375 14.636719 25.070312 14.636719 L 26.25 14.636719 C 26.585938 14.636719 26.585938 15.152344 26.25 15.152344 Z M 4.652344 19.25 C 4.3125 19.25 4.3125 18.734375 4.652344 18.734375 L 7.445312 18.734375 C 7.78125 18.734375 7.78125 19.25 7.445312 19.25 Z M 4.652344 21.210938 C 4.3125 21.210938 4.3125 20.695312 4.652344 20.695312 L 8.988281 20.695312 C 9.324219 20.695312 9.324219 21.210938 8.988281 21.210938 Z M 11.648438 11.917969 L 9.769531 14.09375 C 9.675781 14.199219 9.515625 14.210938 9.410156 14.117188 C 9.300781 14.027344 9.289062 13.863281 9.382812 13.757812 L 11.261719 11.582031 L 10.925781 11.296875 L 7.171875 15.644531 L 8.226562 16.554688 L 11.984375 12.207031 Z M 6.953125 16.132812 L 6.640625 17.324219 L 7.773438 16.84375 Z M 8.453125 17.074219 C 8.425781 17.105469 8.390625 17.132812 8.351562 17.152344 L 6.359375 17.996094 C 6.167969 18.078125 5.953125 17.90625 6.015625 17.6875 L 6.558594 15.613281 L 6.617188 15.503906 L 8.019531 13.875 L 3.917969 13.875 C 3.640625 13.875 3.410156 14.105469 3.410156 14.382812 L 3.410156 22.570312 C 3.410156 22.847656 3.640625 23.078125 3.917969 23.078125 L 9.722656 23.078125 C 10 23.078125 10.226562 22.847656 10.226562 22.570312 L 10.226562 15.019531 Z M 10.707031 10.765625 L 11.375 9.992188 C 12.074219 9.1875 13.417969 9.617188 13.496094 10.695312 C 13.519531 11.003906 13.421875 11.320312 13.203125 11.574219 L 10.742188 14.425781 L 10.742188 19.980469 L 20.644531 19.980469 C 21.335938 19.980469 21.90625 19.410156 21.90625 18.714844 L 21.90625 17.722656 L 19.195312 16.9375 C 19.105469 17.03125 18.972656 17.089844 18.832031 17.089844 L 17.882812 17.089844 C 17.757812 17.089844 17.644531 17.042969 17.554688 16.96875 L 17.554688 18.085938 C 17.554688 18.703125 16.800781 19.027344 16.355469 18.582031 C 16.230469 18.453125 16.148438 18.277344 16.148438 18.085938 L 16.148438 16.660156 C 15.511719 16.515625 15.042969 15.941406 15.042969 15.277344 L 15.042969 15.015625 C 15.042969 14.234375 15.679688 13.597656 16.457031 13.597656 L 17.378906 13.597656 C 17.433594 13.367188 17.640625 13.203125 17.882812 13.203125 L 18.832031 13.203125 C 18.972656 13.203125 19.101562 13.261719 19.195312 13.355469 L 21.90625 12.570312 L 21.90625 9.148438 L 5.882812 9.148438 L 5.882812 13.363281 L 8.464844 13.363281 Z M 12.316406 11.820312 L 12.820312 11.238281 C 13.214844 10.78125 12.871094 10.042969 12.242188 10.089844 C 12.0625 10.101562 11.886719 10.183594 11.761719 10.328125 L 11.261719 10.910156 Z M 12.316406 11.820312 " fill-opacity="1" fill-rule="nonzero"/></g></svg>