<svg xmlns="http://www.w3.org/2000/svg" xmlns:xlink="http://www.w3.org/1999/xlink" width="40" zoomAndPan="magnify" viewBox="0 0 30 30.000001" height="40" preserveAspectRatio="xMidYMid meet" version="1.0"><defs><clipPath id="982ab28cf3"><path d="M 0.484375 0 L 29.515625 0 L 29.515625 29.03125 L 0.484375 29.03125 Z M 0.484375 0 " clip-rule="nonzero"/></clipPath><clipPath id="ebe285d3d6"><path d="M 3.898438 2.902344 L 26.398438 2.902344 L 26.398438 25.402344 L 3.898438 25.402344 Z M 3.898438 2.902344 " clip-rule="nonzero"/></clipPath></defs><g clip-path="url(#982ab28cf3)"><path fill="#ffffff" d="M 0.484375 0 L 29.515625 0 L 29.515625 29.03125 L 0.484375 29.03125 Z M 0.484375 0 " fill-opacity="1" fill-rule="nonzero"/><path fill="#ffffff" d="M 0.484375 0 L 29.515625 0 L 29.515625 29.03125 L 0.484375 29.03125 Z M 0.484375 0 " fill-opacity="1" fill-rule="nonzero"/></g><path fill="#935f3d" d="M 6.125 10.921875 L 11.46875 10.921875 C 11.714844 10.921875 11.914062 10.722656 11.914062 10.476562 L 11.914062 6.464844 C 11.914062 6.21875 11.714844 6.019531 11.46875 6.019531 C 10.941406 6.019531 6.644531 6.019531 6.125 6.019531 C 5.878906 6.019531 5.679688 6.21875 5.679688 6.464844 L 5.679688 10.476562 C 5.679688 10.722656 5.878906 10.921875 6.125 10.921875 Z M 9.242188 6.910156 L 9.242188 7.355469 C 9.242188 7.601562 9.042969 7.800781 8.796875 7.800781 C 8.550781 7.800781 8.351562 7.601562 8.351562 7.355469 L 8.351562 6.910156 Z M 6.570312 6.910156 L 7.460938 6.910156 L 7.460938 7.355469 C 7.460938 8.09375 8.058594 8.695312 8.796875 8.695312 C 9.53125 8.695312 10.132812 8.09375 10.132812 7.355469 L 10.132812 6.910156 L 11.023438 6.910156 L 11.023438 10.03125 L 6.570312 10.03125 Z M 6.570312 6.910156 " fill-opacity="1" fill-rule="nonzero"/><path fill="#935f3d" d="M 13.25 7.578125 L 24.386719 7.578125 C 24.632812 7.578125 24.832031 7.378906 24.832031 7.132812 C 24.832031 6.886719 24.632812 6.6875 24.386719 6.6875 L 13.25 6.6875 C 13.003906 6.6875 12.804688 6.886719 12.804688 7.132812 C 12.804688 7.378906 13.003906 7.578125 13.25 7.578125 Z M 13.25 7.578125 " fill-opacity="1" fill-rule="nonzero"/><path fill="#935f3d" d="M 13.25 9.363281 L 24.386719 9.363281 C 24.632812 9.363281 24.832031 9.164062 24.832031 8.917969 C 24.832031 8.671875 24.632812 8.472656 24.386719 8.472656 L 13.25 8.472656 C 13.003906 8.472656 12.804688 8.671875 12.804688 8.917969 C 12.804688 9.164062 13.003906 9.363281 13.25 9.363281 Z M 13.25 9.363281 " fill-opacity="1" fill-rule="nonzero"/><path fill="#935f3d" d="M 13.25 11.144531 L 24.386719 11.144531 C 24.632812 11.144531 24.832031 10.945312 24.832031 10.699219 C 24.832031 10.453125 24.632812 10.253906 24.386719 10.253906 L 13.25 10.253906 C 13.003906 10.253906 12.804688 10.453125 12.804688 10.699219 C 12.804688 10.945312 13.003906 11.144531 13.25 11.144531 Z M 13.25 11.144531 " fill-opacity="1" fill-rule="nonzero"/><path fill="#935f3d" d="M 6.125 12.925781 L 24.386719 12.925781 C 24.632812 12.925781 24.832031 12.726562 24.832031 12.480469 C 24.832031 12.234375 24.632812 12.035156 24.386719 12.035156 L 6.125 12.035156 C 5.878906 12.035156 5.679688 12.234375 5.679688 12.480469 C 5.679688 12.726562 5.878906 12.925781 6.125 12.925781 Z M 6.125 12.925781 " fill-opacity="1" fill-rule="nonzero"/><path fill="#935f3d" d="M 6.125 14.707031 L 24.386719 14.707031 C 24.632812 14.707031 24.832031 14.507812 24.832031 14.261719 C 24.832031 14.015625 24.632812 13.816406 24.386719 13.816406 L 6.125 13.816406 C 5.878906 13.816406 5.679688 14.015625 5.679688 14.261719 C 5.679688 14.507812 5.878906 14.707031 6.125 14.707031 Z M 6.125 14.707031 " fill-opacity="1" fill-rule="nonzero"/><path fill="#935f3d" d="M 24.832031 19.828125 C 24.832031 19.953125 24.785156 20.054688 24.699219 20.144531 C 24.613281 20.230469 24.507812 20.273438 24.386719 20.273438 C 24.261719 20.273438 24.15625 20.230469 24.070312 20.144531 C 23.984375 20.054688 23.941406 19.953125 23.941406 19.828125 C 23.941406 19.707031 23.984375 19.601562 24.070312 19.511719 C 24.15625 19.425781 24.261719 19.382812 24.386719 19.382812 C 24.507812 19.382812 24.613281 19.425781 24.699219 19.511719 C 24.785156 19.601562 24.832031 19.707031 24.832031 19.828125 Z M 24.832031 19.828125 " fill-opacity="1" fill-rule="nonzero"/><path fill="#935f3d" d="M 22.601562 19.382812 L 22.15625 19.382812 C 21.910156 19.382812 21.710938 19.582031 21.710938 19.828125 C 21.710938 20.074219 21.910156 20.273438 22.15625 20.273438 L 22.601562 20.273438 C 22.847656 20.273438 23.050781 20.074219 23.050781 19.828125 C 23.050781 19.582031 22.847656 19.382812 22.601562 19.382812 Z M 22.601562 19.382812 " fill-opacity="1" fill-rule="nonzero"/><path fill="#935f3d" d="M 20.375 19.382812 L 19.929688 19.382812 C 19.683594 19.382812 19.484375 19.582031 19.484375 19.828125 C 19.484375 20.074219 19.683594 20.273438 19.929688 20.273438 L 20.375 20.273438 C 20.621094 20.273438 20.820312 20.074219 20.820312 19.828125 C 20.820312 19.582031 20.621094 19.382812 20.375 19.382812 Z M 20.375 19.382812 " fill-opacity="1" fill-rule="nonzero"/><g clip-path="url(#ebe285d3d6)"><path fill="#935f3d" d="M 24.164062 2.902344 L 6.34375 2.902344 C 4.992188 2.902344 3.898438 4 3.898438 5.347656 L 3.898438 19.609375 C 3.898438 20.957031 4.992188 22.054688 6.34375 22.054688 L 13.027344 22.054688 L 13.027344 22.945312 L 12.582031 22.945312 C 11.355469 22.945312 10.355469 23.945312 10.355469 25.171875 C 10.355469 25.417969 10.554688 25.617188 10.800781 25.617188 L 19.707031 25.617188 C 19.953125 25.617188 20.152344 25.417969 20.152344 25.171875 C 20.152344 23.945312 19.15625 22.945312 17.925781 22.945312 L 17.480469 22.945312 L 17.480469 22.054688 L 24.164062 22.054688 C 25.515625 22.054688 26.613281 20.957031 26.613281 19.609375 L 26.613281 5.347656 C 26.613281 4 25.515625 2.902344 24.164062 2.902344 Z M 6.34375 3.792969 L 24.164062 3.792969 C 25.023438 3.792969 25.722656 4.492188 25.722656 5.347656 L 25.722656 17.601562 L 4.789062 17.601562 L 4.789062 5.347656 C 4.789062 4.492188 5.484375 3.792969 6.34375 3.792969 Z M 19.1875 24.726562 L 11.320312 24.726562 C 11.507812 24.210938 12 23.835938 12.582031 23.835938 L 17.925781 23.835938 C 18.507812 23.835938 19.003906 24.210938 19.1875 24.726562 Z M 16.589844 22.945312 L 13.917969 22.945312 L 13.917969 22.054688 L 16.589844 22.054688 Z M 24.164062 21.164062 L 6.34375 21.164062 C 5.484375 21.164062 4.789062 20.46875 4.789062 19.609375 L 4.789062 18.492188 L 25.722656 18.492188 L 25.722656 19.609375 C 25.722656 20.46875 25.023438 21.164062 24.164062 21.164062 Z M 24.164062 21.164062 " fill-opacity="1" fill-rule="nonzero"/></g></svg>