<svg xmlns="http://www.w3.org/2000/svg" xmlns:xlink="http://www.w3.org/1999/xlink" width="40" zoomAndPan="magnify" viewBox="0 0 30 30.000001" height="40" preserveAspectRatio="xMidYMid meet" version="1.0"><defs><clipPath id="f0a0f234c5"><path d="M 0.484375 0 L 29.515625 0 L 29.515625 29.03125 L 0.484375 29.03125 Z M 0.484375 0 " clip-rule="nonzero"/></clipPath><clipPath id="1a62e5fe14"><path d="M 3.386719 4.484375 L 26.613281 4.484375 L 26.613281 24.808594 L 3.386719 24.808594 Z M 3.386719 4.484375 " clip-rule="nonzero"/></clipPath></defs><g clip-path="url(#f0a0f234c5)"><path fill="#ffffff" d="M 0.484375 0 L 29.515625 0 L 29.515625 29.03125 L 0.484375 29.03125 Z M 0.484375 0 " fill-opacity="1" fill-rule="nonzero"/><path fill="#ffffff" d="M 0.484375 0 L 29.515625 0 L 29.515625 29.03125 L 0.484375 29.03125 Z M 0.484375 0 " fill-opacity="1" fill-rule="nonzero"/></g><g clip-path="url(#1a62e5fe14)"><path fill="#935f3d" d="M 8.335938 16.335938 C 8.523438 16.335938 8.699219 16.417969 8.824219 16.554688 C 8.964844 16.71875 9.207031 16.71875 9.347656 16.554688 C 9.734375 16.117188 10.480469 16.382812 10.480469 16.980469 C 10.480469 17.660156 9.757812 18.507812 9.085938 18.875 C 8.414062 18.507812 7.691406 17.660156 7.691406 16.980469 C 7.691406 16.625 7.980469 16.335938 8.335938 16.335938 Z M 8.945312 19.585938 C 9.039062 19.625 9.132812 19.625 9.226562 19.585938 C 10.167969 19.171875 11.179688 18.023438 11.179688 16.980469 C 11.179688 15.914062 9.980469 15.261719 9.085938 15.867188 C 8.191406 15.261719 6.992188 15.914062 6.992188 16.980469 C 6.992188 18.023438 8 19.171875 8.945312 19.585938 Z M 17 7.972656 L 18.847656 9.039062 L 17 10.105469 Z M 16.476562 11.019531 C 16.582031 11.074219 16.71875 11.078125 16.824219 11.019531 L 19.722656 9.339844 C 19.957031 9.207031 19.957031 8.871094 19.722656 8.738281 L 16.824219 7.0625 C 16.59375 6.929688 16.300781 7.097656 16.300781 7.363281 L 16.300781 10.714844 C 16.300781 10.835938 16.367188 10.953125 16.476562 11.019531 Z M 15.832031 6.132812 C 14.226562 7.058594 13.675781 9.113281 14.601562 10.714844 C 15.527344 12.320312 17.585938 12.875 19.1875 11.945312 C 20.792969 11.019531 21.34375 8.96875 20.417969 7.363281 C 19.488281 5.757812 17.4375 5.203125 15.832031 6.132812 Z M 17.515625 13.09375 C 19.332031 13.09375 20.949219 11.878906 21.429688 10.089844 C 22.007812 7.925781 20.722656 5.699219 18.558594 5.121094 C 17.511719 4.839844 16.417969 4.984375 15.480469 5.527344 C 13.542969 6.644531 12.875 9.132812 13.996094 11.066406 C 14.746094 12.367188 16.113281 13.09375 17.515625 13.09375 Z M 25.703125 12.121094 L 25.035156 12.789062 L 23.410156 11.167969 L 24.082031 10.5 C 24.21875 10.363281 24.4375 10.363281 24.574219 10.5 L 25.703125 11.628906 C 25.839844 11.765625 25.839844 11.984375 25.703125 12.121094 Z M 24.105469 22.464844 L 20.457031 18.359375 L 18.222656 20.59375 C 18.171875 20.640625 18.113281 20.675781 18.042969 20.691406 L 15.394531 21.21875 C 15.132812 21.261719 14.9375 21.039062 14.984375 20.804688 L 15.5 18.226562 L 13.070312 18.226562 C 12.714844 20.097656 11.0625 21.523438 9.085938 21.523438 C 8.023438 21.523438 7.054688 21.109375 6.328125 20.4375 L 4.523438 22.464844 Z M 24.535156 23.839844 L 4.09375 23.839844 L 4.09375 23.164062 L 24.535156 23.164062 Z M 9.085938 14.105469 C 7.234375 14.105469 5.730469 15.613281 5.730469 17.460938 C 5.730469 19.316406 7.234375 20.820312 9.085938 20.820312 C 10.9375 20.820312 12.441406 19.316406 12.441406 17.460938 C 12.441406 15.613281 10.9375 14.105469 9.085938 14.105469 Z M 16.070312 18.9375 L 17.265625 20.128906 L 15.773438 20.425781 Z M 17.976562 19.847656 L 16.351562 18.226562 L 22.917969 11.664062 L 24.539062 13.285156 Z M 26.199219 11.132812 L 25.070312 10.003906 C 24.660156 9.59375 23.996094 9.59375 23.585938 10.003906 L 16.066406 17.523438 L 13.140625 17.523438 C 13.144531 17.503906 13.144531 17.484375 13.144531 17.460938 C 13.144531 15.226562 11.324219 13.40625 9.085938 13.40625 C 6.847656 13.40625 5.027344 15.226562 5.027344 17.460938 C 5.027344 18.382812 5.335938 19.230469 5.855469 19.917969 L 3.484375 22.585938 C 3.46875 22.585938 3.417969 22.683594 3.40625 22.730469 L 3.394531 22.816406 L 3.394531 24.1875 C 3.394531 24.382812 3.550781 24.539062 3.746094 24.539062 L 24.882812 24.539062 C 25.078125 24.539062 25.234375 24.382812 25.234375 24.1875 C 25.234375 24.003906 25.246094 22.832031 25.226562 22.75 C 25.214844 22.675781 25.191406 22.644531 25.152344 22.589844 C 25.148438 22.585938 25.148438 22.585938 25.144531 22.585938 L 20.949219 17.863281 L 26.199219 12.617188 C 26.609375 12.207031 26.609375 11.539062 26.199219 11.132812 Z M 8.398438 8.949219 C 8.398438 8.757812 8.554688 8.601562 8.75 8.601562 L 8.789062 8.601562 C 8.984375 8.601562 9.140625 8.757812 9.140625 8.949219 C 9.140625 9.144531 8.984375 9.300781 8.789062 9.300781 L 8.75 9.300781 C 8.554688 9.300781 8.398438 9.144531 8.398438 8.949219 Z M 6.5625 8.949219 C 6.5625 8.757812 6.71875 8.601562 6.910156 8.601562 L 6.953125 8.601562 C 7.144531 8.601562 7.304688 8.757812 7.304688 8.949219 C 7.304688 9.144531 7.144531 9.300781 6.953125 9.300781 L 6.910156 9.300781 C 6.71875 9.300781 6.5625 9.144531 6.5625 8.949219 Z M 10.238281 8.949219 C 10.238281 8.757812 10.394531 8.601562 10.589844 8.601562 L 10.628906 8.601562 C 10.820312 8.601562 10.980469 8.757812 10.980469 8.949219 C 10.980469 9.144531 10.820312 9.300781 10.628906 9.300781 L 10.589844 9.300781 C 10.394531 9.300781 10.238281 9.144531 10.238281 8.949219 Z M 8.359375 5.457031 C 10.191406 5.226562 11.859375 6.53125 12.085938 8.363281 C 12.179688 9.125 12.011719 9.898438 11.605469 10.546875 C 11.554688 10.628906 11.539062 10.726562 11.5625 10.816406 L 11.910156 12.199219 L 10.929688 11.597656 C 10.8125 11.523438 10.675781 11.527344 10.558594 11.597656 C 10.140625 11.863281 9.675781 12.03125 9.179688 12.089844 C 7.351562 12.320312 5.679688 11.015625 5.453125 9.183594 C 5.226562 7.355469 6.53125 5.683594 8.359375 5.457031 Z M 8.765625 12.816406 C 6.757812 12.816406 5.011719 11.316406 4.757812 9.269531 C 4.484375 7.058594 6.0625 5.035156 8.273438 4.761719 C 10.492188 4.488281 12.507812 6.058594 12.78125 8.277344 C 12.890625 9.148438 12.710938 10.03125 12.277344 10.789062 L 12.800781 12.867188 C 12.878906 13.171875 12.546875 13.417969 12.277344 13.25 L 10.742188 12.304688 C 10.148438 12.640625 9.453125 12.816406 8.765625 12.816406 Z M 8.765625 12.816406 " fill-opacity="1" fill-rule="evenodd"/></g></svg>