<svg xmlns="http://www.w3.org/2000/svg" xmlns:xlink="http://www.w3.org/1999/xlink" width="40" zoomAndPan="magnify" viewBox="0 0 30 30.000001" height="40" preserveAspectRatio="xMidYMid meet" version="1.0"><defs><clipPath id="464172d216"><path d="M 0.484375 0 L 29.515625 0 L 29.515625 29.03125 L 0.484375 29.03125 Z M 0.484375 0 " clip-rule="nonzero"/></clipPath><clipPath id="3ce52a9622"><path d="M 15 5 L 23.3125 5 L 23.3125 18 L 15 18 Z M 15 5 " clip-rule="nonzero"/></clipPath><clipPath id="0790d94cec"><path d="M 6.617188 2.902344 L 18 2.902344 L 18 26.128906 L 6.617188 26.128906 Z M 6.617188 2.902344 " clip-rule="nonzero"/></clipPath></defs><g clip-path="url(#464172d216)"><path fill="#ffffff" d="M 0.484375 0 L 29.515625 0 L 29.515625 29.03125 L 0.484375 29.03125 Z M 0.484375 0 " fill-opacity="1" fill-rule="nonzero"/><path fill="#ffffff" d="M 0.484375 0 L 29.515625 0 L 29.515625 29.03125 L 0.484375 29.03125 Z M 0.484375 0 " fill-opacity="1" fill-rule="nonzero"/></g><g clip-path="url(#3ce52a9622)"><path fill="#935f3d" d="M 23.195312 7.859375 C 23.339844 7.355469 23.28125 6.820312 23.023438 6.359375 C 22.769531 5.898438 22.347656 5.5625 21.839844 5.417969 C 21.335938 5.273438 20.800781 5.335938 20.339844 5.589844 C 19.878906 5.84375 19.542969 6.265625 19.398438 6.773438 C 19.253906 7.273438 19.320312 7.796875 19.554688 8.238281 C 19.144531 8.183594 18.742188 8.433594 18.625 8.84375 C 18.5 9.277344 18.742188 9.730469 19.164062 9.875 L 18.441406 11.863281 L 17.71875 12.238281 C 17.382812 12.414062 17.117188 12.703125 16.96875 13.050781 L 16.734375 13.589844 L 16.023438 13.75 C 15.675781 13.828125 15.410156 14.105469 15.347656 14.460938 L 15.160156 15.585938 C 15.136719 15.71875 15.214844 15.84375 15.339844 15.878906 L 21.8125 17.734375 C 21.835938 17.738281 21.859375 17.742188 21.882812 17.742188 C 21.984375 17.742188 22.082031 17.683594 22.121094 17.582031 L 22.558594 16.527344 C 22.695312 16.195312 22.617188 15.816406 22.363281 15.566406 L 21.84375 15.054688 L 21.929688 14.472656 C 21.988281 14.097656 21.914062 13.710938 21.722656 13.386719 L 21.3125 12.6875 L 21.75 10.621094 C 21.8125 10.632812 21.875 10.640625 21.9375 10.640625 C 22.308594 10.640625 22.648438 10.398438 22.753906 10.027344 C 22.816406 9.808594 22.792969 9.578125 22.679688 9.378906 C 22.589844 9.21875 22.453125 9.09375 22.289062 9.019531 C 22.71875 8.769531 23.050781 8.359375 23.195312 7.859375 Z M 19.660156 10.023438 L 20.457031 10.25 L 21.253906 10.480469 L 20.84375 12.40625 L 18.984375 11.875 Z M 22.082031 16.328125 L 21.734375 17.175781 L 15.707031 15.445312 L 15.859375 14.546875 C 15.882812 14.398438 15.992188 14.285156 16.136719 14.25 L 16.914062 14.078125 L 19.171875 14.726562 L 21.433594 15.375 L 22 15.933594 C 22.105469 16.035156 22.136719 16.191406 22.082031 16.328125 Z M 21.421875 14.394531 L 21.355469 14.816406 L 17.273438 13.644531 L 17.441406 13.253906 C 17.542969 13.015625 17.726562 12.816406 17.957031 12.695312 L 18.675781 12.320312 L 20.867188 12.949219 L 21.277344 13.648438 C 21.410156 13.871094 21.460938 14.136719 21.421875 14.394531 Z M 22.257812 9.886719 C 22.207031 10.0625 22.023438 10.164062 21.847656 10.113281 L 21.625 10.050781 L 19.570312 9.460938 L 19.351562 9.398438 C 19.171875 9.347656 19.070312 9.164062 19.121094 8.984375 C 19.144531 8.898438 19.203125 8.828125 19.28125 8.785156 C 19.359375 8.742188 19.449219 8.734375 19.535156 8.757812 L 22.03125 9.472656 C 22.117188 9.496094 22.1875 9.554688 22.230469 9.632812 C 22.273438 9.710938 22.285156 9.800781 22.257812 9.886719 Z M 22.699219 7.71875 C 22.535156 8.292969 22.035156 8.707031 21.445312 8.765625 L 20.523438 8.503906 L 20.40625 8.46875 C 19.933594 8.105469 19.730469 7.488281 19.894531 6.914062 C 20 6.539062 20.25 6.230469 20.589844 6.039062 C 20.929688 5.851562 21.324219 5.804688 21.699219 5.914062 C 22.074219 6.023438 22.382812 6.269531 22.574219 6.609375 C 22.761719 6.949219 22.808594 7.34375 22.699219 7.71875 Z M 22.699219 7.71875 " fill-opacity="1" fill-rule="nonzero"/></g><g clip-path="url(#0790d94cec)"><path fill="#935f3d" d="M 17.023438 22.101562 L 15.992188 21.273438 C 15.816406 21.132812 15.703125 20.9375 15.664062 20.71875 L 15.605469 20.371094 C 15.53125 19.933594 15.167969 19.605469 14.722656 19.574219 L 14.53125 19.5625 L 14.105469 18.828125 C 13.570312 17.894531 13.207031 16.886719 13.027344 15.828125 L 12.707031 13.941406 L 13.222656 13.851562 C 13.488281 13.804688 13.699219 13.613281 13.769531 13.351562 C 13.835938 13.089844 13.75 12.816406 13.539062 12.644531 L 12.667969 11.9375 L 12.511719 11.023438 L 13 8.121094 C 13.050781 7.804688 12.960938 7.476562 12.753906 7.230469 C 12.542969 6.984375 12.234375 6.851562 11.910156 6.847656 L 11.394531 6.851562 L 11.238281 6.742188 C 11.027344 6.59375 10.882812 6.375 10.832031 6.121094 L 11.253906 6.050781 C 11.390625 6.027344 11.488281 5.894531 11.460938 5.753906 L 11.214844 4.308594 C 11.191406 4.167969 11.058594 4.074219 10.917969 4.097656 L 10.195312 4.21875 L 10.074219 3.515625 C 10.0625 3.433594 10.003906 3.359375 9.929688 3.324219 L 9.105469 2.949219 C 9.007812 2.90625 8.894531 2.925781 8.820312 3 L 8.167969 3.625 C 8.105469 3.683594 8.078125 3.769531 8.089844 3.855469 L 8.210938 4.558594 L 7.488281 4.679688 C 7.347656 4.707031 7.253906 4.839844 7.277344 4.980469 L 7.523438 6.425781 C 7.546875 6.566406 7.679688 6.660156 7.820312 6.636719 L 8.242188 6.5625 C 8.277344 6.820312 8.214844 7.074219 8.066406 7.285156 L 7.953125 7.441406 L 7.464844 7.605469 C 7.15625 7.710938 6.914062 7.945312 6.796875 8.246094 C 6.679688 8.550781 6.703125 8.886719 6.859375 9.167969 L 8.28125 11.746094 L 8.4375 12.660156 L 7.851562 13.617188 C 7.707031 13.847656 7.714844 14.132812 7.867188 14.359375 C 7.996094 14.550781 8.207031 14.660156 8.429688 14.660156 C 8.46875 14.660156 8.507812 14.65625 8.550781 14.648438 L 9.066406 14.5625 L 9.386719 16.449219 C 9.566406 17.507812 9.558594 18.578125 9.363281 19.636719 L 9.207031 20.46875 L 9.03125 20.546875 C 8.621094 20.722656 8.386719 21.152344 8.460938 21.589844 L 8.519531 21.9375 C 8.558594 22.15625 8.515625 22.378906 8.394531 22.570312 L 7.695312 23.691406 C 7.539062 23.949219 7.542969 24.265625 7.710938 24.515625 C 7.828125 24.691406 8.007812 24.796875 8.203125 24.832031 L 8.285156 25.3125 C 8.367188 25.792969 8.785156 26.132812 9.257812 26.132812 C 9.3125 26.132812 9.367188 26.128906 9.421875 26.117188 L 16.199219 24.960938 C 16.734375 24.871094 17.097656 24.359375 17.003906 23.824219 L 16.925781 23.351562 C 17.101562 23.25 17.230469 23.085938 17.285156 22.882812 C 17.359375 22.589844 17.261719 22.289062 17.023438 22.101562 Z M 12.132812 11.867188 L 8.917969 12.414062 L 8.824219 11.871094 L 12.039062 11.324219 Z M 7.988281 6.082031 L 7.828125 5.144531 L 8.550781 5.023438 C 8.691406 4.996094 8.785156 4.863281 8.761719 4.722656 L 8.621094 3.902344 L 9.050781 3.492188 L 9.589844 3.738281 L 9.730469 4.558594 C 9.753906 4.699219 9.886719 4.792969 10.027344 4.769531 L 10.75 4.648438 L 10.910156 5.585938 L 10.488281 5.65625 C 10.347656 5.679688 10.253906 5.8125 10.277344 5.953125 L 10.316406 6.167969 C 10.367188 6.464844 10.5 6.738281 10.699219 6.953125 L 9.671875 7.128906 L 8.640625 7.304688 C 8.761719 7.035156 8.796875 6.734375 8.746094 6.4375 L 8.710938 6.222656 C 8.6875 6.097656 8.578125 6.007812 8.457031 6.007812 C 8.441406 6.007812 8.425781 6.007812 8.414062 6.011719 Z M 7.277344 8.433594 C 7.339844 8.273438 7.46875 8.148438 7.632812 8.09375 L 8.179688 7.90625 L 11.335938 7.367188 L 11.914062 7.363281 L 11.921875 7.363281 C 12.089844 7.363281 12.25 7.4375 12.359375 7.566406 C 12.472656 7.695312 12.519531 7.867188 12.492188 8.035156 L 12.027344 10.800781 L 8.667969 11.375 L 7.3125 8.921875 C 7.230469 8.769531 7.21875 8.59375 7.28125 8.433594 Z M 8.460938 14.140625 C 8.367188 14.15625 8.3125 14.09375 8.292969 14.070312 C 8.277344 14.042969 8.238281 13.96875 8.289062 13.886719 L 8.867188 12.945312 L 12.359375 12.351562 L 13.214844 13.046875 C 13.289062 13.109375 13.277344 13.1875 13.269531 13.21875 C 13.261719 13.25 13.230469 13.328125 13.136719 13.34375 Z M 13.660156 19.082031 L 13.96875 19.617188 L 9.757812 20.335938 L 9.871094 19.730469 C 10.078125 18.613281 10.085938 17.480469 9.894531 16.363281 L 9.574219 14.472656 L 12.199219 14.027344 L 12.519531 15.914062 C 12.710938 17.035156 13.09375 18.101562 13.660156 19.082031 Z M 8.140625 24.226562 C 8.117188 24.195312 8.058594 24.085938 8.132812 23.964844 L 8.832031 22.839844 C 9.019531 22.542969 9.085938 22.191406 9.027344 21.847656 L 8.96875 21.503906 C 8.933594 21.300781 9.042969 21.101562 9.234375 21.019531 L 9.507812 20.902344 L 14.386719 20.070312 L 14.6875 20.089844 C 14.894531 20.101562 15.0625 20.253906 15.097656 20.457031 L 15.15625 20.804688 C 15.214844 21.148438 15.398438 21.457031 15.667969 21.675781 L 16.703125 22.503906 C 16.8125 22.59375 16.792969 22.714844 16.785156 22.753906 C 16.773438 22.789062 16.734375 22.90625 16.589844 22.929688 L 8.378906 24.328125 C 8.238281 24.351562 8.160156 24.257812 8.140625 24.226562 Z M 16.113281 24.453125 L 9.335938 25.609375 C 9.082031 25.652344 8.839844 25.480469 8.792969 25.226562 L 8.722656 24.792969 L 16.421875 23.480469 L 16.496094 23.910156 C 16.539062 24.167969 16.367188 24.410156 16.113281 24.453125 Z M 16.113281 24.453125 " fill-opacity="1" fill-rule="nonzero"/></g><path fill="#935f3d" d="M 15.054688 12.371094 C 15.078125 12.378906 15.101562 12.382812 15.125 12.382812 C 15.234375 12.382812 15.339844 12.308594 15.371094 12.195312 L 15.789062 10.742188 C 15.828125 10.605469 15.75 10.460938 15.613281 10.421875 C 15.476562 10.382812 15.332031 10.460938 15.292969 10.601562 L 14.875 12.050781 C 14.835938 12.1875 14.917969 12.332031 15.054688 12.371094 Z M 15.054688 12.371094 " fill-opacity="1" fill-rule="nonzero"/><path fill="#935f3d" d="M 15.800781 12.78125 C 15.847656 12.863281 15.933594 12.90625 16.019531 12.90625 C 16.066406 12.90625 16.109375 12.894531 16.152344 12.867188 L 16.984375 12.367188 C 17.105469 12.292969 17.144531 12.132812 17.070312 12.011719 C 17 11.890625 16.839844 11.851562 16.71875 11.925781 L 15.886719 12.425781 C 15.765625 12.5 15.726562 12.660156 15.800781 12.78125 Z M 15.800781 12.78125 " fill-opacity="1" fill-rule="nonzero"/><path fill="#935f3d" d="M 13.789062 11.800781 C 13.828125 11.902344 13.925781 11.964844 14.03125 11.964844 C 14.0625 11.964844 14.089844 11.960938 14.121094 11.949219 C 14.253906 11.898438 14.320312 11.746094 14.269531 11.613281 L 13.972656 10.847656 C 13.921875 10.714844 13.773438 10.648438 13.640625 10.699219 C 13.507812 10.75 13.441406 10.898438 13.492188 11.03125 Z M 13.789062 11.800781 " fill-opacity="1" fill-rule="nonzero"/></svg>