<svg xmlns="http://www.w3.org/2000/svg" xmlns:xlink="http://www.w3.org/1999/xlink" width="40" zoomAndPan="magnify" viewBox="0 0 30 30.000001" height="40" preserveAspectRatio="xMidYMid meet" version="1.0"><defs><clipPath id="f4fb05bfa3"><path d="M 0.484375 0 L 29.515625 0 L 29.515625 29.03125 L 0.484375 29.03125 Z M 0.484375 0 " clip-rule="nonzero"/></clipPath><clipPath id="3c451bf62c"><path d="M 3.386719 3.644531 L 26.613281 3.644531 L 26.613281 25.417969 L 3.386719 25.417969 Z M 3.386719 3.644531 " clip-rule="nonzero"/></clipPath></defs><g clip-path="url(#f4fb05bfa3)"><path fill="#ffffff" d="M 0.484375 0 L 29.515625 0 L 29.515625 29.03125 L 0.484375 29.03125 Z M 0.484375 0 " fill-opacity="1" fill-rule="nonzero"/><path fill="#ffffff" d="M 0.484375 0 L 29.515625 0 L 29.515625 29.03125 L 0.484375 29.03125 Z M 0.484375 0 " fill-opacity="1" fill-rule="nonzero"/></g><g clip-path="url(#3c451bf62c)"><path fill="#935f3d" d="M 26.054688 3.644531 L 3.945312 3.644531 C 3.792969 3.644531 3.664062 3.699219 3.554688 3.804688 C 3.445312 3.914062 3.394531 4.042969 3.394531 4.195312 L 3.394531 24.832031 C 3.394531 24.984375 3.445312 25.113281 3.554688 25.222656 C 3.664062 25.328125 3.792969 25.382812 3.945312 25.382812 L 26.054688 25.382812 C 26.207031 25.382812 26.335938 25.328125 26.445312 25.222656 C 26.554688 25.113281 26.605469 24.984375 26.605469 24.832031 L 26.605469 4.195312 C 26.605469 4.042969 26.554688 3.914062 26.445312 3.804688 C 26.335938 3.699219 26.207031 3.644531 26.054688 3.644531 Z M 4.5 4.75 L 25.5 4.75 L 25.5 8.066406 L 4.5 8.066406 Z M 4.5 24.277344 L 4.5 9.171875 L 25.5 9.171875 L 25.5 24.277344 Z M 4.5 24.277344 " fill-opacity="1" fill-rule="nonzero"/></g><path fill="#935f3d" d="M 6.710938 6.40625 C 6.710938 6.558594 6.65625 6.691406 6.546875 6.796875 C 6.4375 6.90625 6.308594 6.960938 6.15625 6.960938 C 6.003906 6.960938 5.875 6.90625 5.765625 6.796875 C 5.65625 6.691406 5.605469 6.558594 5.605469 6.40625 C 5.605469 6.253906 5.65625 6.125 5.765625 6.015625 C 5.875 5.910156 6.003906 5.855469 6.15625 5.855469 C 6.308594 5.855469 6.4375 5.910156 6.546875 6.015625 C 6.65625 6.125 6.710938 6.253906 6.710938 6.40625 Z M 6.710938 6.40625 " fill-opacity="1" fill-rule="nonzero"/><path fill="#935f3d" d="M 8.921875 6.40625 C 8.921875 6.558594 8.867188 6.691406 8.757812 6.796875 C 8.648438 6.90625 8.519531 6.960938 8.367188 6.960938 C 8.214844 6.960938 8.085938 6.90625 7.976562 6.796875 C 7.867188 6.691406 7.816406 6.558594 7.816406 6.40625 C 7.816406 6.253906 7.867188 6.125 7.976562 6.015625 C 8.085938 5.910156 8.214844 5.855469 8.367188 5.855469 C 8.519531 5.855469 8.648438 5.910156 8.757812 6.015625 C 8.867188 6.125 8.921875 6.253906 8.921875 6.40625 Z M 8.921875 6.40625 " fill-opacity="1" fill-rule="nonzero"/><path fill="#935f3d" d="M 11.132812 6.40625 C 11.132812 6.558594 11.078125 6.691406 10.96875 6.796875 C 10.859375 6.90625 10.730469 6.960938 10.578125 6.960938 C 10.425781 6.960938 10.296875 6.90625 10.1875 6.796875 C 10.078125 6.691406 10.027344 6.558594 10.027344 6.40625 C 10.027344 6.253906 10.078125 6.125 10.1875 6.015625 C 10.296875 5.910156 10.425781 5.855469 10.578125 5.855469 C 10.730469 5.855469 10.859375 5.910156 10.96875 6.015625 C 11.078125 6.125 11.132812 6.253906 11.132812 6.40625 Z M 11.132812 6.40625 " fill-opacity="1" fill-rule="nonzero"/><path fill="#935f3d" d="M 24.019531 11.476562 C 23.996094 11.339844 23.933594 11.230469 23.832031 11.144531 C 23.730469 11.058594 23.609375 11.011719 23.476562 11.011719 L 21.632812 11.011719 C 21.480469 11.011719 21.351562 11.066406 21.242188 11.175781 C 21.132812 11.28125 21.078125 11.414062 21.078125 11.566406 C 21.078125 11.71875 21.132812 11.847656 21.242188 11.957031 C 21.351562 12.066406 21.480469 12.117188 21.632812 12.117188 L 22.492188 12.117188 L 20.195312 14.238281 C 19.9375 13.738281 19.597656 13.300781 19.179688 12.925781 C 18.757812 12.550781 18.289062 12.261719 17.761719 12.0625 C 17.238281 11.859375 16.695312 11.753906 16.132812 11.753906 C 15.570312 11.75 15.023438 11.847656 14.496094 12.042969 C 13.96875 12.238281 13.496094 12.523438 13.074219 12.890625 C 12.648438 13.261719 12.304688 13.695312 12.039062 14.191406 C 11.777344 14.6875 11.609375 15.214844 11.535156 15.773438 C 11.464844 16.332031 11.496094 16.882812 11.625 17.429688 L 9.859375 18.875 C 9.308594 19.351562 9.984375 20.179688 10.558594 19.730469 L 12.039062 18.519531 C 12.199219 18.816406 12.386719 19.09375 12.605469 19.351562 C 12.824219 19.605469 13.066406 19.835938 13.335938 20.035156 C 13.605469 20.238281 13.894531 20.410156 14.199219 20.550781 C 14.503906 20.6875 14.824219 20.792969 15.152344 20.863281 C 15.480469 20.933594 15.816406 20.964844 16.152344 20.960938 C 16.488281 20.957031 16.820312 20.917969 17.148438 20.84375 C 17.476562 20.765625 17.792969 20.65625 18.09375 20.507812 C 18.398438 20.363281 18.683594 20.1875 18.945312 19.980469 L 22.347656 23.378906 C 22.875 23.882812 23.632812 23.125 23.128906 22.597656 L 19.726562 19.199219 C 20.152344 18.65625 20.441406 18.050781 20.597656 17.378906 C 20.75 16.707031 20.75 16.039062 20.605469 15.363281 L 23.15625 13.011719 L 23.296875 13.867188 C 23.4375 14.585938 24.492188 14.40625 24.390625 13.6875 Z M 12.605469 16.355469 C 12.605469 15.949219 12.671875 15.558594 12.808594 15.175781 C 12.945312 14.792969 13.144531 14.445312 13.402344 14.132812 C 13.65625 13.820312 13.960938 13.558594 14.308594 13.351562 C 14.65625 13.144531 15.027344 13 15.425781 12.921875 C 15.824219 12.84375 16.222656 12.832031 16.625 12.894531 C 17.023438 12.953125 17.402344 13.082031 17.761719 13.273438 C 18.117188 13.464844 18.433594 13.710938 18.703125 14.011719 C 18.976562 14.3125 19.1875 14.648438 19.34375 15.023438 L 18.390625 15.902344 L 17.652344 14.917969 C 17.550781 14.785156 17.417969 14.710938 17.25 14.699219 C 17.082031 14.6875 16.9375 14.742188 16.820312 14.859375 L 15.367188 16.3125 L 14.652344 15.597656 C 14.554688 15.496094 14.433594 15.441406 14.289062 15.4375 C 14.148438 15.429688 14.023438 15.46875 13.914062 15.558594 L 12.617188 16.621094 C 12.609375 16.535156 12.605469 16.445312 12.605469 16.355469 Z M 19.605469 16.355469 C 19.605469 16.757812 19.539062 17.144531 19.40625 17.523438 C 19.273438 17.898438 19.082031 18.242188 18.832031 18.554688 C 18.578125 18.867188 18.28125 19.125 17.941406 19.335938 C 17.601562 19.546875 17.238281 19.691406 16.84375 19.777344 C 16.453125 19.863281 16.0625 19.878906 15.664062 19.828125 C 15.265625 19.777344 14.890625 19.664062 14.53125 19.484375 C 14.175781 19.304688 13.859375 19.070312 13.582031 18.78125 C 13.304688 18.492188 13.082031 18.164062 12.917969 17.800781 L 14.226562 16.730469 L 14.976562 17.484375 C 15.085938 17.589844 15.214844 17.644531 15.367188 17.644531 C 15.519531 17.644531 15.652344 17.589844 15.757812 17.484375 L 17.152344 16.09375 L 17.875 17.054688 C 17.972656 17.1875 18.101562 17.261719 18.265625 17.273438 C 18.429688 17.289062 18.570312 17.242188 18.691406 17.128906 L 19.605469 16.289062 C 19.605469 16.3125 19.605469 16.332031 19.605469 16.355469 Z M 19.605469 16.355469 " fill-opacity="1" fill-rule="nonzero"/><path fill="#935f3d" d="M 6.523438 11.75 L 12.789062 11.75 C 12.941406 11.75 13.070312 11.695312 13.179688 11.589844 C 13.289062 11.480469 13.34375 11.351562 13.34375 11.199219 C 13.34375 11.042969 13.289062 10.914062 13.179688 10.804688 C 13.070312 10.699219 12.941406 10.644531 12.789062 10.644531 L 6.523438 10.644531 C 6.371094 10.644531 6.242188 10.699219 6.132812 10.804688 C 6.027344 10.914062 5.972656 11.042969 5.972656 11.199219 C 5.972656 11.351562 6.027344 11.480469 6.132812 11.589844 C 6.242188 11.695312 6.371094 11.75 6.523438 11.75 Z M 6.523438 11.75 " fill-opacity="1" fill-rule="nonzero"/><path fill="#935f3d" d="M 6.523438 14.328125 L 10.945312 14.328125 C 11.097656 14.328125 11.230469 14.277344 11.335938 14.167969 C 11.445312 14.058594 11.5 13.929688 11.5 13.777344 C 11.5 13.625 11.445312 13.492188 11.335938 13.386719 C 11.230469 13.277344 11.097656 13.222656 10.945312 13.222656 L 6.523438 13.222656 C 6.371094 13.222656 6.242188 13.277344 6.132812 13.386719 C 6.027344 13.492188 5.972656 13.625 5.972656 13.777344 C 5.972656 13.929688 6.027344 14.058594 6.132812 14.167969 C 6.242188 14.277344 6.371094 14.328125 6.523438 14.328125 Z M 6.523438 14.328125 " fill-opacity="1" fill-rule="nonzero"/><path fill="#935f3d" d="M 6.523438 16.910156 L 9.472656 16.910156 C 9.625 16.910156 9.753906 16.855469 9.863281 16.746094 C 9.972656 16.640625 10.027344 16.507812 10.027344 16.355469 C 10.027344 16.203125 9.972656 16.074219 9.863281 15.964844 C 9.753906 15.855469 9.625 15.804688 9.472656 15.804688 L 6.523438 15.804688 C 6.371094 15.804688 6.242188 15.855469 6.132812 15.964844 C 6.027344 16.074219 5.972656 16.203125 5.972656 16.355469 C 5.972656 16.507812 6.027344 16.640625 6.132812 16.746094 C 6.242188 16.855469 6.371094 16.910156 6.523438 16.910156 Z M 6.523438 16.910156 " fill-opacity="1" fill-rule="nonzero"/><path fill="#935f3d" d="M 6.523438 19.488281 L 8 19.488281 C 8.152344 19.488281 8.28125 19.433594 8.390625 19.328125 C 8.496094 19.21875 8.550781 19.089844 8.550781 18.933594 C 8.550781 18.78125 8.496094 18.652344 8.390625 18.542969 C 8.28125 18.4375 8.152344 18.382812 8 18.382812 L 6.523438 18.382812 C 6.371094 18.382812 6.242188 18.4375 6.132812 18.542969 C 6.027344 18.652344 5.972656 18.78125 5.972656 18.933594 C 5.972656 19.089844 6.027344 19.21875 6.132812 19.328125 C 6.242188 19.433594 6.371094 19.488281 6.523438 19.488281 Z M 6.523438 19.488281 " fill-opacity="1" fill-rule="nonzero"/><path fill="#935f3d" d="M 12.835938 20.960938 L 6.523438 20.960938 C 6.371094 20.960938 6.242188 21.015625 6.132812 21.125 C 6.027344 21.230469 5.972656 21.363281 5.972656 21.515625 C 5.972656 21.667969 6.027344 21.796875 6.132812 21.90625 C 6.242188 22.011719 6.371094 22.066406 6.523438 22.066406 L 12.835938 22.066406 C 12.988281 22.066406 13.117188 22.011719 13.226562 21.90625 C 13.332031 21.796875 13.386719 21.667969 13.386719 21.515625 C 13.386719 21.363281 13.332031 21.230469 13.226562 21.125 C 13.117188 21.015625 12.988281 20.960938 12.835938 20.960938 Z M 12.835938 20.960938 " fill-opacity="1" fill-rule="nonzero"/></svg>