<svg xmlns="http://www.w3.org/2000/svg" xmlns:xlink="http://www.w3.org/1999/xlink" width="40" zoomAndPan="magnify" viewBox="0 0 30 30.000001" height="40" preserveAspectRatio="xMidYMid meet" version="1.0"><defs><clipPath id="0787312a2f"><path d="M 0.484375 0 L 29.515625 0 L 29.515625 29.03125 L 0.484375 29.03125 Z M 0.484375 0 " clip-rule="nonzero"/></clipPath><clipPath id="23ecf657f0"><path d="M 3.386719 4.339844 L 26.613281 4.339844 L 26.613281 24.664062 L 3.386719 24.664062 Z M 3.386719 4.339844 " clip-rule="nonzero"/></clipPath></defs><g clip-path="url(#0787312a2f)"><path fill="#ffffff" d="M 0.484375 0 L 29.515625 0 L 29.515625 29.03125 L 0.484375 29.03125 Z M 0.484375 0 " fill-opacity="1" fill-rule="nonzero"/><path fill="#ffffff" d="M 0.484375 0 L 29.515625 0 L 29.515625 29.03125 L 0.484375 29.03125 Z M 0.484375 0 " fill-opacity="1" fill-rule="nonzero"/></g><g clip-path="url(#23ecf657f0)"><path fill="#935f3d" d="M 4.46875 9.070312 C 4.734375 11.230469 6.703125 12.769531 8.867188 12.5 C 9.453125 12.425781 9.996094 12.226562 10.464844 11.933594 C 10.484375 11.925781 10.503906 11.925781 10.519531 11.933594 L 12.21875 12.984375 C 12.257812 13.007812 12.304688 12.972656 12.296875 12.929688 L 11.730469 10.699219 C 11.726562 10.683594 11.730469 10.671875 11.738281 10.660156 C 12.191406 9.921875 12.410156 9.027344 12.296875 8.101562 C 12.027344 5.9375 10.058594 4.402344 7.898438 4.671875 C 5.734375 4.9375 4.199219 6.910156 4.46875 9.070312 Z M 24.058594 11.175781 L 25.71875 12.839844 C 25.738281 12.859375 25.769531 12.859375 25.789062 12.839844 L 26.472656 12.160156 C 26.617188 12.015625 26.617188 11.777344 26.472656 11.632812 L 25.265625 10.425781 C 25.121094 10.28125 24.882812 10.28125 24.738281 10.425781 L 24.058594 11.105469 C 24.039062 11.125 24.039062 11.15625 24.058594 11.175781 Z M 16.515625 18.71875 C 16.496094 18.699219 16.496094 18.667969 16.515625 18.648438 L 23.457031 11.707031 C 23.476562 11.6875 23.507812 11.6875 23.527344 11.707031 L 25.191406 13.367188 C 25.210938 13.386719 25.210938 13.421875 25.191406 13.441406 L 18.25 20.382812 C 18.230469 20.402344 18.199219 20.402344 18.179688 20.382812 Z M 15.9375 21.019531 L 17.363281 20.734375 C 17.402344 20.726562 17.417969 20.679688 17.390625 20.648438 L 16.246094 19.507812 C 16.21875 19.480469 16.171875 19.492188 16.164062 19.53125 L 15.878906 20.960938 C 15.871094 20.996094 15.902344 21.027344 15.9375 21.019531 Z M 25.171875 23.960938 L 3.4375 23.960938 C 3.410156 23.960938 3.386719 23.980469 3.386719 24.007812 L 3.386719 24.628906 C 3.386719 24.65625 3.410156 24.675781 3.4375 24.675781 L 25.171875 24.675781 C 25.199219 24.675781 25.222656 24.65625 25.222656 24.628906 L 25.222656 24.007812 C 25.222656 23.980469 25.199219 23.960938 25.171875 23.960938 Z M 13.347656 18.722656 C 12.945312 20.9375 11.003906 22.574219 8.71875 22.574219 C 7.542969 22.574219 6.421875 22.140625 5.558594 21.359375 C 5.539062 21.339844 5.507812 21.339844 5.488281 21.363281 L 3.917969 23.128906 C 3.890625 23.160156 3.914062 23.210938 3.957031 23.210938 L 24.652344 23.210938 C 24.695312 23.210938 24.71875 23.160156 24.6875 23.128906 L 20.898438 18.863281 C 20.878906 18.84375 20.847656 18.839844 20.828125 18.863281 L 18.480469 21.210938 C 18.421875 21.265625 18.355469 21.296875 18.28125 21.3125 L 15.460938 21.878906 C 15.199219 21.929688 14.964844 21.699219 15.019531 21.429688 L 15.558594 18.738281 C 15.566406 18.710938 15.542969 18.679688 15.511719 18.679688 L 13.398438 18.679688 C 13.375 18.679688 13.355469 18.699219 13.347656 18.722656 Z M 12.679688 17.867188 C 12.679688 20.035156 10.925781 21.828125 8.71875 21.828125 C 6.527344 21.828125 4.757812 20.046875 4.757812 17.867188 C 4.757812 15.679688 6.53125 13.90625 8.71875 13.90625 C 10.90625 13.90625 12.679688 15.679688 12.679688 17.867188 Z M 9.519531 16.289062 C 10.105469 16.289062 10.582031 16.765625 10.582031 17.351562 C 10.582031 18.308594 9.585938 19.398438 8.738281 19.78125 C 8.726562 19.789062 8.710938 19.789062 8.699219 19.78125 C 7.851562 19.398438 6.855469 18.308594 6.855469 17.351562 C 6.855469 16.390625 8.03125 15.9375 8.683594 16.613281 C 8.703125 16.632812 8.734375 16.632812 8.753906 16.613281 C 8.949219 16.414062 9.21875 16.289062 9.519531 16.289062 Z M 16.863281 6.972656 L 19.957031 8.761719 C 20.039062 8.808594 20.039062 8.929688 19.957031 8.976562 L 16.863281 10.765625 C 16.777344 10.8125 16.675781 10.75 16.675781 10.65625 L 16.675781 7.082031 C 16.675781 6.984375 16.777344 6.925781 16.863281 6.972656 Z M 15.738281 5.4375 C 13.84375 6.53125 13.195312 8.953125 14.285156 10.847656 C 15.378906 12.742188 17.800781 13.390625 19.695312 12.296875 C 21.589844 11.203125 22.238281 8.78125 21.144531 6.886719 C 20.050781 4.996094 17.628906 4.34375 15.738281 5.4375 Z M 10.324219 9.148438 C 10.117188 9.148438 9.949219 8.980469 9.949219 8.773438 C 9.949219 8.566406 10.117188 8.398438 10.324219 8.398438 L 10.367188 8.398438 C 10.574219 8.398438 10.742188 8.566406 10.742188 8.773438 C 10.742188 8.980469 10.574219 9.148438 10.367188 9.148438 Z M 8.777344 8.773438 C 8.777344 8.980469 8.609375 9.148438 8.402344 9.148438 L 8.359375 9.148438 C 8.152344 9.148438 7.984375 8.980469 7.984375 8.773438 C 7.984375 8.566406 8.152344 8.398438 8.359375 8.398438 L 8.402344 8.398438 C 8.609375 8.398438 8.777344 8.566406 8.777344 8.773438 Z M 6.394531 9.148438 C 6.191406 9.148438 6.023438 8.980469 6.023438 8.773438 C 6.023438 8.566406 6.191406 8.398438 6.394531 8.398438 L 6.441406 8.398438 C 6.648438 8.398438 6.8125 8.566406 6.8125 8.773438 C 6.8125 8.980469 6.648438 9.148438 6.441406 9.148438 Z M 6.394531 9.148438 " fill-opacity="1" fill-rule="evenodd"/></g></svg>