<svg xmlns="http://www.w3.org/2000/svg" xmlns:xlink="http://www.w3.org/1999/xlink" width="40" zoomAndPan="magnify" viewBox="0 0 30 30.000001" height="40" preserveAspectRatio="xMidYMid meet" version="1.0"><defs><clipPath id="530ecac675"><path d="M 0.484375 0 L 29.515625 0 L 29.515625 29.03125 L 0.484375 29.03125 Z M 0.484375 0 " clip-rule="nonzero"/></clipPath><clipPath id="a3105397fb"><path d="M 4.292969 2.902344 L 23.890625 2.902344 L 23.890625 26.128906 L 4.292969 26.128906 Z M 4.292969 2.902344 " clip-rule="nonzero"/></clipPath></defs><g clip-path="url(#530ecac675)"><path fill="#ffffff" d="M 0.484375 0 L 29.515625 0 L 29.515625 29.03125 L 0.484375 29.03125 Z M 0.484375 0 " fill-opacity="1" fill-rule="nonzero"/><path fill="#ffffff" d="M 0.484375 0 L 29.515625 0 L 29.515625 29.03125 L 0.484375 29.03125 Z M 0.484375 0 " fill-opacity="1" fill-rule="nonzero"/></g><g clip-path="url(#a3105397fb)"><path fill="#935f3d" d="M 11.675781 12.433594 L 12.421875 11.6875 C 12.578125 11.53125 12.828125 11.53125 12.980469 11.6875 L 14.230469 12.933594 C 14.382812 13.089844 14.382812 13.339844 14.230469 13.492188 L 13.480469 14.238281 L 15.03125 15.792969 C 15.230469 15.988281 15.167969 16.316406 14.917969 16.433594 L 11.261719 18.109375 L 11.085938 18.285156 L 12.675781 19.878906 C 12.832031 20.035156 12.832031 20.28125 12.675781 20.4375 L 11.632812 21.484375 C 11.480469 21.636719 11.226562 21.636719 11.074219 21.484375 L 9.480469 19.890625 L 9.257812 20.117188 C 9.101562 20.269531 8.851562 20.269531 8.699219 20.117188 L 5.800781 17.214844 C 5.644531 17.0625 5.644531 16.8125 5.800781 16.660156 L 7.804688 14.65625 L 9.484375 10.996094 C 9.601562 10.746094 9.925781 10.6875 10.125 10.882812 Z M 4.296875 22.894531 L 4.296875 3.296875 C 4.296875 3.078125 4.472656 2.902344 4.691406 2.902344 L 19.335938 2.902344 C 19.554688 2.902344 19.730469 3.078125 19.730469 3.296875 L 19.730469 4.765625 L 23.574219 4.765625 C 23.792969 4.765625 23.96875 4.941406 23.96875 5.160156 L 23.96875 12.589844 C 23.96875 12.808594 23.792969 12.984375 23.574219 12.984375 L 19.730469 12.984375 L 19.730469 25.734375 C 19.730469 25.953125 19.554688 26.128906 19.335938 26.128906 L 4.691406 26.128906 C 4.472656 26.128906 4.296875 25.953125 4.296875 25.734375 Z M 19.339844 5.554688 L 16.539062 5.554688 L 16.539062 12.199219 L 23.179688 12.199219 L 23.179688 5.554688 Z M 18.941406 4.765625 L 18.941406 3.695312 L 5.085938 3.695312 L 5.085938 22.503906 L 18.941406 22.503906 L 18.941406 12.984375 L 16.144531 12.984375 C 15.925781 12.984375 15.746094 12.808594 15.746094 12.589844 L 15.746094 5.160156 C 15.746094 4.941406 15.925781 4.765625 16.144531 4.765625 Z M 5.085938 25.339844 L 18.941406 25.339844 L 18.941406 23.289062 L 5.085938 23.289062 Z M 13.132812 24.707031 L 10.894531 24.707031 C 10.675781 24.707031 10.5 24.53125 10.5 24.316406 C 10.5 24.097656 10.675781 23.921875 10.894531 23.921875 L 13.132812 23.921875 C 13.351562 23.921875 13.527344 24.097656 13.527344 24.316406 C 13.527344 24.53125 13.351562 24.707031 13.132812 24.707031 Z M 18.089844 11.25 C 17.871094 11.25 17.695312 11.074219 17.695312 10.855469 L 17.695312 6.894531 C 17.695312 6.59375 18.019531 6.40625 18.277344 6.550781 L 21.820312 8.507812 C 22.085938 8.660156 22.089844 9.046875 21.824219 9.195312 L 18.28125 11.199219 C 18.222656 11.234375 18.15625 11.25 18.089844 11.25 Z M 18.480469 7.5625 L 18.480469 10.179688 L 20.820312 8.859375 Z M 12.710938 5.386719 L 8.121094 5.386719 C 7.90625 5.386719 7.726562 5.210938 7.726562 4.992188 C 7.726562 4.769531 7.90625 4.59375 8.121094 4.59375 L 12.710938 4.59375 C 12.929688 4.59375 13.105469 4.769531 13.105469 4.992188 C 13.105469 5.210938 12.929688 5.386719 12.710938 5.386719 Z M 14.453125 6.960938 L 6.378906 6.960938 C 6.160156 6.960938 5.984375 6.785156 5.984375 6.566406 C 5.984375 6.347656 6.160156 6.167969 6.378906 6.167969 L 14.453125 6.167969 C 14.671875 6.167969 14.851562 6.347656 14.851562 6.566406 C 14.851562 6.785156 14.671875 6.960938 14.453125 6.960938 Z M 14.453125 8.535156 L 6.378906 8.535156 C 6.160156 8.535156 5.984375 8.359375 5.984375 8.140625 C 5.984375 7.921875 6.160156 7.742188 6.378906 7.742188 L 14.453125 7.746094 C 14.671875 7.746094 14.851562 7.921875 14.851562 8.140625 C 14.851562 8.359375 14.671875 8.535156 14.453125 8.535156 Z M 14.453125 10.109375 L 6.378906 10.109375 C 6.160156 10.109375 5.984375 9.933594 5.984375 9.714844 C 5.984375 9.496094 6.160156 9.320312 6.378906 9.320312 L 14.453125 9.320312 C 14.671875 9.320312 14.851562 9.496094 14.851562 9.714844 C 14.851562 9.933594 14.671875 10.109375 14.453125 10.109375 Z M 9.199219 19.058594 L 10.472656 17.785156 L 8.132812 15.441406 L 6.636719 16.9375 L 8.976562 19.28125 Z M 8.605469 14.796875 L 11.117188 17.308594 L 14.074219 15.953125 L 9.96875 11.839844 Z M 10.527344 18.84375 L 10.039062 19.332031 L 11.351562 20.648438 L 11.839844 20.160156 Z M 12.234375 12.992188 L 12.921875 13.679688 L 13.394531 13.214844 L 12.699219 12.527344 Z M 12.234375 12.992188 " fill-opacity="1" fill-rule="evenodd"/></g></svg>