<svg xmlns="http://www.w3.org/2000/svg" xmlns:xlink="http://www.w3.org/1999/xlink" width="40" zoomAndPan="magnify" viewBox="0 0 30 30.000001" height="40" preserveAspectRatio="xMidYMid meet" version="1.0"><defs><clipPath id="ec92a8f004"><path d="M 0.484375 0 L 29.515625 0 L 29.515625 29.03125 L 0.484375 29.03125 Z M 0.484375 0 " clip-rule="nonzero"/></clipPath><clipPath id="11ba023ae9"><path d="M 3.386719 4.789062 L 26.613281 4.789062 L 26.613281 24.386719 L 3.386719 24.386719 Z M 3.386719 4.789062 " clip-rule="nonzero"/></clipPath></defs><g clip-path="url(#ec92a8f004)"><path fill="#ffffff" d="M 0.484375 0 L 29.515625 0 L 29.515625 29.03125 L 0.484375 29.03125 Z M 0.484375 0 " fill-opacity="1" fill-rule="nonzero"/><path fill="#ffffff" d="M 0.484375 0 L 29.515625 0 L 29.515625 29.03125 L 0.484375 29.03125 Z M 0.484375 0 " fill-opacity="1" fill-rule="nonzero"/></g><g clip-path="url(#11ba023ae9)"><path fill="#935f3d" d="M 25.347656 4.789062 L 4.675781 4.789062 C 3.992188 4.789062 3.4375 5.34375 3.4375 6.027344 C 3.410156 5.433594 3.457031 22.835938 3.4375 23.003906 C 3.4375 23.6875 3.992188 24.238281 4.675781 24.238281 L 25.347656 24.238281 C 26.027344 24.238281 26.582031 23.6875 26.582031 23.003906 C 26.585938 22.496094 26.578125 5.941406 26.582031 6.023438 C 26.582031 5.34375 26.027344 4.789062 25.347656 4.789062 Z M 26.089844 23.003906 C 26.089844 23.414062 25.757812 23.746094 25.347656 23.746094 L 4.675781 23.746094 C 4.265625 23.746094 3.929688 23.414062 3.929688 23.003906 L 3.929688 7.742188 L 26.089844 7.742188 Z M 26.089844 7.25 L 3.929688 7.25 L 3.929688 6.027344 C 3.929688 5.617188 4.265625 5.28125 4.675781 5.28125 L 25.347656 5.28125 C 25.757812 5.28125 26.089844 5.617188 26.089844 6.027344 Z M 24.613281 6.390625 C 24.605469 6.875 23.882812 6.875 23.875 6.390625 C 23.882812 5.90625 24.605469 5.90625 24.613281 6.390625 Z M 22.890625 6.390625 C 22.882812 6.875 22.160156 6.875 22.152344 6.390625 C 22.160156 5.90625 22.882812 5.90625 22.890625 6.390625 Z M 21.164062 6.390625 C 21.15625 6.875 20.433594 6.875 20.425781 6.390625 C 20.433594 5.90625 21.15625 5.90625 21.164062 6.390625 Z M 9.101562 13.351562 C 9.953125 13.351562 10.644531 12.65625 10.644531 11.804688 C 10.574219 9.761719 7.628906 9.761719 7.558594 11.804688 C 7.558594 12.65625 8.25 13.351562 9.101562 13.351562 Z M 9.101562 10.753906 C 10.492188 10.800781 10.492188 12.816406 9.101562 12.859375 C 7.710938 12.8125 7.710938 10.800781 9.101562 10.753906 Z M 6.300781 12.769531 L 6.777344 12.769531 L 6.4375 13.109375 C 6.285156 13.265625 6.285156 13.511719 6.441406 13.671875 L 7.238281 14.472656 C 7.394531 14.625 7.640625 14.625 7.800781 14.46875 L 8.140625 14.132812 L 8.140625 14.609375 C 8.140625 14.828125 8.320312 15.007812 8.539062 15.007812 L 9.664062 15.007812 C 9.882812 15.007812 10.0625 14.828125 10.0625 14.609375 L 10.0625 14.132812 L 10.402344 14.46875 C 10.5625 14.625 10.808594 14.625 10.96875 14.46875 L 11.765625 13.671875 C 11.917969 13.511719 11.917969 13.265625 11.761719 13.105469 L 11.425781 12.769531 L 11.902344 12.769531 C 12.121094 12.769531 12.300781 12.589844 12.300781 12.367188 L 12.300781 11.246094 C 12.300781 11.023438 12.121094 10.84375 11.902344 10.84375 L 11.425781 10.84375 L 11.765625 10.503906 C 11.917969 10.347656 11.917969 10.101562 11.761719 9.941406 L 10.964844 9.144531 C 10.808594 8.992188 10.5625 8.992188 10.402344 9.144531 L 10.0625 9.484375 L 10.0625 9.007812 C 10.0625 8.785156 9.882812 8.605469 9.664062 8.605469 L 8.539062 8.605469 C 8.320312 8.605469 8.140625 8.785156 8.140625 9.007812 L 8.140625 9.484375 L 7.800781 9.144531 C 7.640625 8.992188 7.394531 8.992188 7.234375 9.144531 L 6.4375 9.941406 C 6.285156 10.101562 6.285156 10.347656 6.441406 10.507812 L 6.777344 10.84375 L 6.300781 10.84375 C 6.078125 10.84375 5.902344 11.023438 5.902344 11.246094 L 5.902344 12.367188 C 5.902344 12.589844 6.078125 12.769531 6.300781 12.769531 Z M 6.394531 11.335938 L 7.03125 11.335938 C 7.246094 11.339844 7.273438 11.105469 7.351562 10.957031 C 7.398438 10.859375 7.378906 10.75 7.304688 10.675781 L 6.851562 10.222656 L 7.519531 9.558594 L 7.96875 10.007812 C 8.117188 10.164062 8.304688 10.019531 8.46875 9.96875 C 8.566406 9.933594 8.632812 9.839844 8.632812 9.734375 L 8.632812 9.097656 L 9.570312 9.097656 L 9.570312 9.734375 C 9.566406 9.949219 9.800781 9.980469 9.953125 10.058594 C 10.046875 10.101562 10.160156 10.082031 10.234375 10.007812 L 10.683594 9.558594 L 11.351562 10.222656 L 10.898438 10.675781 C 10.742188 10.824219 10.886719 11.011719 10.941406 11.171875 C 10.976562 11.269531 11.070312 11.335938 11.171875 11.335938 L 11.808594 11.335938 L 11.808594 12.277344 L 11.171875 12.277344 C 10.957031 12.273438 10.925781 12.507812 10.851562 12.660156 C 10.804688 12.753906 10.824219 12.863281 10.898438 12.9375 L 11.347656 13.390625 L 10.683594 14.054688 L 10.234375 13.605469 C 10.085938 13.449219 9.898438 13.59375 9.734375 13.648438 C 9.636719 13.679688 9.570312 13.773438 9.570312 13.878906 L 9.570312 14.515625 L 8.628906 14.515625 L 8.628906 13.878906 C 8.636719 13.664062 8.402344 13.632812 8.25 13.554688 C 8.15625 13.511719 8.042969 13.53125 7.96875 13.605469 L 7.519531 14.054688 L 6.851562 13.390625 L 7.304688 12.9375 C 7.460938 12.789062 7.316406 12.601562 7.261719 12.441406 C 7.226562 12.34375 7.132812 12.277344 7.03125 12.277344 L 6.394531 12.277344 Z M 8.609375 19.933594 L 6.640625 19.933594 C 6.503906 19.933594 6.394531 20.042969 6.394531 20.179688 L 6.394531 22.640625 C 6.394531 22.777344 6.503906 22.886719 6.640625 22.886719 L 8.609375 22.886719 C 8.746094 22.886719 8.855469 22.777344 8.855469 22.640625 L 8.855469 20.179688 C 8.855469 20.042969 8.746094 19.933594 8.609375 19.933594 Z M 8.363281 22.394531 L 6.886719 22.394531 L 6.886719 20.421875 L 8.363281 20.421875 Z M 12.300781 18.453125 L 10.332031 18.453125 C 10.195312 18.453125 10.085938 18.566406 10.085938 18.699219 L 10.085938 22.640625 C 10.085938 22.777344 10.195312 22.886719 10.332031 22.886719 L 12.300781 22.886719 C 12.4375 22.886719 12.546875 22.777344 12.546875 22.640625 L 12.546875 18.699219 C 12.546875 18.566406 12.4375 18.453125 12.300781 18.453125 Z M 12.054688 22.394531 L 10.578125 22.394531 L 10.578125 18.945312 L 12.054688 18.945312 Z M 15.996094 16.730469 L 14.023438 16.730469 C 13.890625 16.730469 13.777344 16.839844 13.777344 16.976562 L 13.777344 22.640625 C 13.777344 22.777344 13.890625 22.886719 14.023438 22.886719 L 15.996094 22.886719 C 16.132812 22.886719 16.242188 22.777344 16.242188 22.640625 L 16.242188 16.976562 C 16.242188 16.839844 16.132812 16.730469 15.996094 16.730469 Z M 15.75 22.394531 L 14.273438 22.394531 L 14.273438 17.222656 L 15.75 17.222656 Z M 19.6875 14.515625 L 17.71875 14.515625 C 17.582031 14.515625 17.472656 14.625 17.472656 14.761719 L 17.472656 22.640625 C 17.472656 22.777344 17.582031 22.886719 17.71875 22.886719 L 19.6875 22.886719 C 19.824219 22.886719 19.933594 22.777344 19.933594 22.640625 L 19.933594 14.761719 C 19.933594 14.625 19.824219 14.515625 19.6875 14.515625 Z M 19.441406 22.394531 L 17.964844 22.394531 L 17.964844 15.007812 L 19.441406 15.007812 Z M 21.410156 22.886719 L 23.382812 22.886719 C 23.519531 22.886719 23.628906 22.777344 23.628906 22.640625 L 23.628906 12.546875 C 23.628906 12.410156 23.515625 12.300781 23.382812 12.300781 L 21.410156 12.300781 C 21.277344 12.300781 21.164062 12.410156 21.164062 12.546875 L 21.164062 22.640625 C 21.164062 22.777344 21.277344 22.886719 21.410156 22.886719 Z M 21.65625 12.792969 L 23.136719 12.792969 L 23.136719 22.394531 L 21.65625 22.394531 Z M 18.40625 11.007812 C 18.429688 10.875 18.550781 10.785156 18.691406 10.804688 L 20.039062 11.015625 C 20.199219 11.035156 20.300781 11.226562 20.21875 11.371094 C 20.21875 11.371094 19.59375 12.585938 19.59375 12.585938 C 19.445312 12.871094 19.011719 12.648438 19.15625 12.359375 C 19.15625 12.359375 19.433594 11.824219 19.433594 11.824219 L 7.054688 18.113281 C 7.015625 18.132812 6.980469 18.140625 6.941406 18.140625 C 6.695312 18.148438 6.597656 17.785156 6.832031 17.675781 C 6.832031 17.675781 19.210938 11.382812 19.210938 11.382812 L 18.613281 11.289062 C 18.480469 11.269531 18.386719 11.144531 18.40625 11.007812 Z M 10.332031 6.390625 C 10.332031 6.527344 10.222656 6.636719 10.085938 6.636719 L 5.410156 6.636719 C 5.273438 6.636719 5.164062 6.527344 5.164062 6.390625 C 5.164062 6.253906 5.273438 6.144531 5.410156 6.144531 L 10.085938 6.144531 C 10.222656 6.144531 10.332031 6.253906 10.332031 6.390625 Z M 10.332031 6.390625 " fill-opacity="1" fill-rule="nonzero"/></g></svg>