<svg xmlns="http://www.w3.org/2000/svg" xmlns:xlink="http://www.w3.org/1999/xlink" width="40" zoomAndPan="magnify" viewBox="0 0 30 30.000001" height="40" preserveAspectRatio="xMidYMid meet" version="1.0"><defs><clipPath id="5cc3ea3431"><path d="M 0.484375 0 L 29.515625 0 L 29.515625 29.03125 L 0.484375 29.03125 Z M 0.484375 0 " clip-rule="nonzero"/></clipPath><clipPath id="1bb4eb3f20"><path d="M 7 2.902344 L 25.871094 2.902344 L 25.871094 14 L 7 14 Z M 7 2.902344 " clip-rule="nonzero"/></clipPath><clipPath id="2de1d088c8"><path d="M 4.097656 11 L 21 11 L 21 21 L 4.097656 21 Z M 4.097656 11 " clip-rule="nonzero"/></clipPath><clipPath id="e2b77a2c6a"><path d="M 4.097656 10 L 21 10 L 21 26.128906 L 4.097656 26.128906 Z M 4.097656 10 " clip-rule="nonzero"/></clipPath></defs><g clip-path="url(#5cc3ea3431)"><path fill="#ffffff" d="M 0.484375 0 L 29.515625 0 L 29.515625 29.03125 L 0.484375 29.03125 Z M 0.484375 0 " fill-opacity="1" fill-rule="nonzero"/><path fill="#ffffff" d="M 0.484375 0 L 29.515625 0 L 29.515625 29.03125 L 0.484375 29.03125 Z M 0.484375 0 " fill-opacity="1" fill-rule="nonzero"/></g><g clip-path="url(#1bb4eb3f20)"><path fill="#935f3d" d="M 22.773438 7.621094 C 22.558594 7.621094 22.347656 7.640625 22.140625 7.683594 C 22.1875 7.4375 22.210938 7.1875 22.210938 6.929688 C 22.210938 4.730469 20.421875 2.9375 18.21875 2.9375 C 16.398438 2.9375 14.816406 4.175781 14.359375 5.917969 C 13.917969 5.652344 13.417969 5.507812 12.902344 5.507812 C 11.34375 5.507812 10.074219 6.777344 10.074219 8.335938 C 10.074219 8.519531 10.09375 8.695312 10.125 8.871094 C 9.886719 8.800781 9.640625 8.761719 9.382812 8.761719 C 8.355469 8.761719 7.433594 9.375 7.03125 10.320312 C 6.992188 10.410156 7.035156 10.515625 7.128906 10.554688 C 7.21875 10.59375 7.324219 10.550781 7.359375 10.460938 C 7.707031 9.644531 8.5 9.117188 9.382812 9.117188 C 9.707031 9.117188 10.019531 9.183594 10.308594 9.324219 C 10.375 9.355469 10.453125 9.339844 10.503906 9.292969 C 10.558594 9.25 10.578125 9.171875 10.554688 9.101562 C 10.472656 8.863281 10.429688 8.609375 10.429688 8.335938 C 10.429688 6.972656 11.539062 5.863281 12.902344 5.863281 C 13.433594 5.863281 13.9375 6.035156 14.371094 6.355469 C 14.417969 6.390625 14.484375 6.402344 14.539062 6.382812 C 14.597656 6.359375 14.640625 6.308594 14.652344 6.25 C 14.980469 4.539062 16.480469 3.296875 18.222656 3.296875 C 20.230469 3.296875 21.859375 4.929688 21.859375 6.933594 C 21.859375 7.265625 21.816406 7.585938 21.730469 7.886719 C 21.714844 7.953125 21.730469 8.019531 21.78125 8.0625 C 21.832031 8.105469 21.894531 8.125 21.960938 8.105469 C 22.214844 8.023438 22.492188 7.980469 22.777344 7.980469 C 24.304688 7.980469 25.546875 9.21875 25.546875 10.746094 C 25.546875 12.277344 24.308594 13.515625 22.777344 13.515625 L 21.519531 13.515625 C 21.417969 13.515625 21.339844 13.59375 21.339844 13.695312 C 21.339844 13.792969 21.417969 13.871094 21.519531 13.871094 L 22.777344 13.871094 C 24.5 13.871094 25.902344 12.472656 25.902344 10.746094 C 25.902344 9.023438 24.496094 7.621094 22.773438 7.621094 Z M 22.773438 7.621094 " fill-opacity="1" fill-rule="nonzero"/></g><path fill="#935f3d" d="M 5.640625 21.039062 L 5.640625 22.078125 C 5.640625 22.175781 5.71875 22.253906 5.820312 22.253906 C 5.917969 22.253906 5.996094 22.175781 5.996094 22.078125 L 5.996094 21.039062 C 5.996094 20.9375 5.917969 20.859375 5.820312 20.859375 C 5.71875 20.859375 5.640625 20.941406 5.640625 21.039062 Z M 5.640625 21.039062 " fill-opacity="1" fill-rule="nonzero"/><path fill="#935f3d" d="M 6.273438 21.039062 L 6.273438 22.078125 C 6.273438 22.175781 6.351562 22.253906 6.453125 22.253906 C 6.550781 22.253906 6.628906 22.175781 6.628906 22.078125 L 6.628906 21.039062 C 6.628906 20.9375 6.550781 20.859375 6.453125 20.859375 C 6.351562 20.859375 6.273438 20.941406 6.273438 21.039062 Z M 6.273438 21.039062 " fill-opacity="1" fill-rule="nonzero"/><path fill="#935f3d" d="M 6.910156 21.039062 L 6.910156 22.078125 C 6.910156 22.175781 6.988281 22.253906 7.085938 22.253906 C 7.1875 22.253906 7.265625 22.175781 7.265625 22.078125 L 7.265625 21.039062 C 7.265625 20.9375 7.1875 20.859375 7.085938 20.859375 C 6.988281 20.859375 6.910156 20.941406 6.910156 21.039062 Z M 6.910156 21.039062 " fill-opacity="1" fill-rule="nonzero"/><path fill="#935f3d" d="M 7.546875 21.039062 L 7.546875 22.078125 C 7.546875 22.175781 7.625 22.253906 7.722656 22.253906 C 7.824219 22.253906 7.902344 22.175781 7.902344 22.078125 L 7.902344 21.039062 C 7.902344 20.9375 7.824219 20.859375 7.722656 20.859375 C 7.625 20.859375 7.546875 20.941406 7.546875 21.039062 Z M 7.546875 21.039062 " fill-opacity="1" fill-rule="nonzero"/><path fill="#935f3d" d="M 8.179688 21.039062 L 8.179688 22.078125 C 8.179688 22.175781 8.257812 22.253906 8.359375 22.253906 C 8.457031 22.253906 8.535156 22.175781 8.535156 22.078125 L 8.535156 21.039062 C 8.535156 20.9375 8.457031 20.859375 8.359375 20.859375 C 8.257812 20.859375 8.179688 20.941406 8.179688 21.039062 Z M 8.179688 21.039062 " fill-opacity="1" fill-rule="nonzero"/><path fill="#935f3d" d="M 8.8125 21.039062 L 8.8125 22.078125 C 8.8125 22.175781 8.890625 22.253906 8.992188 22.253906 C 9.089844 22.253906 9.171875 22.175781 9.171875 22.078125 L 9.171875 21.039062 C 9.171875 20.9375 9.089844 20.859375 8.992188 20.859375 C 8.890625 20.859375 8.8125 20.941406 8.8125 21.039062 Z M 8.8125 21.039062 " fill-opacity="1" fill-rule="nonzero"/><path fill="#935f3d" d="M 9.449219 21.039062 L 9.449219 22.078125 C 9.449219 22.175781 9.527344 22.253906 9.625 22.253906 C 9.726562 22.253906 9.804688 22.175781 9.804688 22.078125 L 9.804688 21.039062 C 9.804688 20.9375 9.726562 20.859375 9.625 20.859375 C 9.527344 20.859375 9.449219 20.941406 9.449219 21.039062 Z M 9.449219 21.039062 " fill-opacity="1" fill-rule="nonzero"/><g clip-path="url(#2de1d088c8)"><path fill="#935f3d" d="M 5.289062 20.269531 L 5.289062 12.125 L 11.796875 12.125 C 11.890625 12.125 11.972656 12.046875 11.972656 11.949219 C 11.972656 11.847656 11.890625 11.769531 11.796875 11.769531 L 5.109375 11.769531 C 5.011719 11.769531 4.933594 11.847656 4.933594 11.949219 L 4.933594 20.445312 C 4.933594 20.546875 5.011719 20.625 5.109375 20.625 L 19.90625 20.625 C 20 20.625 20.082031 20.546875 20.082031 20.445312 L 20.082031 11.949219 C 20.082031 11.847656 20 11.769531 19.90625 11.769531 L 19.5 11.769531 C 19.398438 11.769531 19.320312 11.847656 19.320312 11.949219 C 19.320312 12.046875 19.398438 12.125 19.5 12.125 L 19.726562 12.125 L 19.726562 20.269531 Z M 5.289062 20.269531 " fill-opacity="1" fill-rule="nonzero"/></g><g clip-path="url(#e2b77a2c6a)"><path fill="#935f3d" d="M 20.257812 10.9375 L 19.285156 10.9375 C 19.183594 10.9375 19.105469 11.015625 19.105469 11.113281 C 19.105469 11.214844 19.183594 11.292969 19.285156 11.292969 L 20.257812 11.292969 C 20.425781 11.292969 20.558594 11.425781 20.558594 11.59375 L 20.558594 22.1875 C 20.558594 22.359375 20.425781 22.492188 20.257812 22.492188 L 4.757812 22.492188 C 4.585938 22.492188 4.453125 22.359375 4.453125 22.1875 L 4.453125 11.59375 C 4.453125 11.425781 4.585938 11.292969 4.757812 11.292969 L 12.011719 11.292969 C 12.109375 11.292969 12.191406 11.214844 12.191406 11.113281 C 12.191406 11.015625 12.109375 10.9375 12.011719 10.9375 L 4.757812 10.9375 C 4.394531 10.9375 4.097656 11.230469 4.097656 11.59375 L 4.097656 22.1875 C 4.097656 22.550781 4.394531 22.847656 4.757812 22.847656 L 10.070312 22.847656 L 10.070312 24.429688 L 9.035156 24.429688 C 8.933594 24.429688 8.855469 24.511719 8.855469 24.609375 L 8.855469 25.914062 C 8.855469 26.007812 8.933594 26.089844 9.035156 26.089844 L 15.980469 26.089844 C 16.078125 26.089844 16.15625 26.007812 16.15625 25.914062 L 16.15625 24.609375 C 16.15625 24.511719 16.078125 24.429688 15.980469 24.429688 L 14.941406 24.429688 L 14.941406 22.847656 L 20.257812 22.847656 C 20.621094 22.847656 20.917969 22.550781 20.917969 22.1875 L 20.917969 11.59375 C 20.917969 11.230469 20.621094 10.9375 20.257812 10.9375 Z M 20.257812 10.9375 " fill-opacity="1" fill-rule="nonzero"/></g><path fill="#935f3d" d="M 18.253906 21.554688 C 18.253906 21.902344 18.535156 22.1875 18.875 22.1875 C 19.222656 22.1875 19.507812 21.902344 19.507812 21.554688 C 19.507812 21.207031 19.222656 20.929688 18.875 20.929688 C 18.535156 20.929688 18.253906 21.207031 18.253906 21.554688 Z M 18.253906 21.554688 " fill-opacity="1" fill-rule="nonzero"/><path fill="#935f3d" d="M 16.898438 21.554688 C 16.898438 21.828125 17.121094 22.050781 17.386719 22.050781 C 17.660156 22.050781 17.882812 21.828125 17.882812 21.554688 C 17.882812 21.285156 17.660156 21.070312 17.386719 21.070312 C 17.121094 21.070312 16.898438 21.285156 16.898438 21.554688 Z M 16.898438 21.554688 " fill-opacity="1" fill-rule="nonzero"/><path fill="#935f3d" d="M 14.355469 18.828125 C 14.355469 18.511719 14.097656 18.253906 13.773438 18.253906 C 13.457031 18.253906 13.199219 18.511719 13.199219 18.828125 C 13.199219 19.148438 13.457031 19.410156 13.773438 19.410156 C 14.097656 19.410156 14.355469 19.148438 14.355469 18.828125 Z M 14.355469 18.828125 " fill-opacity="1" fill-rule="nonzero"/><path fill="#935f3d" d="M 17.191406 18.828125 C 17.191406 18.511719 16.929688 18.253906 16.609375 18.253906 C 16.289062 18.253906 16.035156 18.511719 16.035156 18.828125 C 16.035156 19.148438 16.289062 19.410156 16.609375 19.410156 C 16.929688 19.410156 17.191406 19.148438 17.191406 18.828125 Z M 17.191406 18.828125 " fill-opacity="1" fill-rule="nonzero"/><path fill="#935f3d" d="M 15.773438 18.828125 C 15.773438 18.511719 15.511719 18.253906 15.191406 18.253906 C 14.875 18.253906 14.617188 18.511719 14.617188 18.828125 C 14.617188 19.148438 14.875 19.410156 15.191406 19.410156 C 15.511719 19.410156 15.773438 19.148438 15.773438 18.828125 Z M 15.773438 18.828125 " fill-opacity="1" fill-rule="nonzero"/><path fill="#935f3d" d="M 18.609375 18.828125 C 18.609375 18.511719 18.34375 18.253906 18.023438 18.253906 C 17.707031 18.253906 17.449219 18.511719 17.449219 18.828125 C 17.449219 19.148438 17.707031 19.410156 18.023438 19.410156 C 18.34375 19.410156 18.609375 19.148438 18.609375 18.828125 Z M 18.609375 18.828125 " fill-opacity="1" fill-rule="nonzero"/><path fill="#935f3d" d="M 24.828125 10.746094 C 24.828125 10.644531 24.75 10.566406 24.648438 10.566406 C 24.550781 10.566406 24.46875 10.644531 24.46875 10.746094 C 24.46875 11.679688 23.707031 12.441406 22.773438 12.441406 C 22.671875 12.441406 22.59375 12.523438 22.59375 12.621094 C 22.59375 12.722656 22.671875 12.800781 22.773438 12.800781 C 23.90625 12.800781 24.828125 11.878906 24.828125 10.746094 Z M 24.828125 10.746094 " fill-opacity="1" fill-rule="nonzero"/><path fill="#935f3d" d="M 18.21875 4.007812 C 18.121094 4.007812 18.042969 4.085938 18.042969 4.1875 C 18.042969 4.289062 18.121094 4.367188 18.21875 4.367188 C 19.632812 4.367188 20.789062 5.515625 20.789062 6.933594 C 20.789062 7.035156 20.867188 7.113281 20.964844 7.113281 C 21.066406 7.113281 21.144531 7.035156 21.144531 6.933594 C 21.144531 5.320312 19.832031 4.007812 18.21875 4.007812 Z M 18.21875 4.007812 " fill-opacity="1" fill-rule="nonzero"/><path fill="#935f3d" d="M 12.902344 6.578125 C 11.933594 6.578125 11.144531 7.367188 11.144531 8.335938 C 11.144531 8.527344 11.171875 8.707031 11.230469 8.871094 C 11.253906 8.945312 11.324219 8.992188 11.394531 8.992188 C 11.414062 8.992188 11.433594 8.988281 11.453125 8.980469 C 11.546875 8.949219 11.59375 8.847656 11.5625 8.753906 C 11.519531 8.628906 11.5 8.488281 11.5 8.335938 C 11.5 7.5625 12.128906 6.933594 12.902344 6.933594 C 13.003906 6.933594 13.082031 6.855469 13.082031 6.753906 C 13.082031 6.65625 13.003906 6.578125 12.902344 6.578125 Z M 12.902344 6.578125 " fill-opacity="1" fill-rule="nonzero"/><path fill="#935f3d" d="M 8.457031 10.671875 C 8.773438 10.226562 9.363281 10.066406 9.859375 10.292969 C 9.945312 10.335938 10.054688 10.292969 10.09375 10.203125 C 10.132812 10.113281 10.09375 10.007812 10.003906 9.96875 C 9.355469 9.671875 8.582031 9.882812 8.164062 10.464844 C 8.109375 10.546875 8.125 10.660156 8.207031 10.714844 C 8.242188 10.738281 8.277344 10.746094 8.3125 10.746094 C 8.367188 10.746094 8.421875 10.71875 8.457031 10.671875 Z M 8.457031 10.671875 " fill-opacity="1" fill-rule="nonzero"/><path fill="#935f3d" d="M 17.949219 9.660156 C 17.972656 9.621094 17.960938 9.570312 17.921875 9.535156 L 17.535156 9.222656 C 17.511719 9.199219 17.484375 9.199219 17.464844 9.199219 C 17.445312 9.203125 17.425781 9.210938 17.40625 9.222656 L 17.171875 9.421875 C 17.09375 9.488281 17.003906 9.53125 16.90625 9.539062 C 16.832031 9.546875 16.753906 9.535156 16.667969 9.503906 C 16.480469 9.425781 16.296875 9.375 16.132812 9.34375 C 15.953125 9.316406 15.800781 9.183594 15.742188 8.984375 L 15.660156 8.707031 C 15.640625 8.65625 15.601562 8.628906 15.550781 8.636719 L 15.054688 8.6875 C 14.984375 8.695312 14.964844 8.769531 14.960938 8.8125 L 14.945312 9.054688 C 14.941406 9.253906 14.824219 9.421875 14.636719 9.5 C 14.476562 9.566406 14.308594 9.65625 14.140625 9.773438 C 14.078125 9.816406 14 9.847656 13.917969 9.855469 C 13.816406 9.863281 13.71875 9.84375 13.621094 9.792969 L 13.355469 9.644531 C 13.332031 9.632812 13.3125 9.632812 13.300781 9.632812 C 13.289062 9.632812 13.253906 9.644531 13.234375 9.671875 L 12.917969 10.0625 C 12.886719 10.097656 12.886719 10.144531 12.917969 10.1875 L 13.089844 10.390625 C 13.234375 10.527344 13.277344 10.746094 13.195312 10.929688 C 13.128906 11.09375 13.074219 11.277344 13.039062 11.457031 C 13.011719 11.636719 12.882812 11.792969 12.683594 11.859375 L 12.398438 11.9375 C 12.355469 11.949219 12.320312 12 12.328125 12.042969 L 12.382812 12.542969 C 12.386719 12.589844 12.429688 12.625 12.472656 12.628906 L 12.785156 12.652344 C 12.972656 12.675781 13.136719 12.800781 13.191406 12.957031 C 13.261719 13.132812 13.355469 13.296875 13.472656 13.464844 C 13.570312 13.613281 13.574219 13.792969 13.492188 13.976562 L 13.339844 14.234375 C 13.316406 14.277344 13.328125 14.328125 13.367188 14.359375 L 13.753906 14.675781 C 13.777344 14.703125 13.8125 14.703125 13.828125 14.703125 C 13.839844 14.703125 13.859375 14.695312 13.882812 14.675781 L 14.105469 14.480469 C 14.183594 14.417969 14.285156 14.375 14.378906 14.363281 C 14.460938 14.355469 14.539062 14.363281 14.621094 14.394531 C 14.792969 14.472656 14.984375 14.527344 15.1875 14.5625 C 15.375 14.609375 15.511719 14.746094 15.550781 14.90625 L 15.628906 15.1875 C 15.644531 15.238281 15.6875 15.273438 15.734375 15.269531 L 16.234375 15.21875 C 16.277344 15.214844 16.316406 15.171875 16.320312 15.125 L 16.34375 14.847656 C 16.347656 14.644531 16.472656 14.464844 16.644531 14.402344 C 16.824219 14.332031 16.984375 14.242188 17.152344 14.125 C 17.214844 14.082031 17.285156 14.058594 17.367188 14.050781 C 17.46875 14.039062 17.574219 14.058594 17.652344 14.101562 L 17.925781 14.25 C 17.945312 14.257812 17.96875 14.261719 17.984375 14.261719 C 18 14.261719 18.027344 14.257812 18.050781 14.222656 L 18.363281 13.839844 C 18.394531 13.800781 18.394531 13.746094 18.363281 13.710938 L 18.152344 13.46875 C 18.039062 13.328125 18.011719 13.128906 18.082031 12.976562 C 18.160156 12.78125 18.214844 12.601562 18.246094 12.425781 C 18.273438 12.25 18.402344 12.105469 18.597656 12.039062 L 18.886719 11.960938 C 18.933594 11.945312 18.964844 11.902344 18.957031 11.855469 L 18.902344 11.355469 C 18.898438 11.3125 18.859375 11.273438 18.816406 11.269531 L 18.507812 11.246094 C 18.332031 11.230469 18.179688 11.128906 18.089844 10.945312 C 18.023438 10.777344 17.929688 10.609375 17.808594 10.4375 C 17.710938 10.285156 17.707031 10.089844 17.792969 9.933594 Z M 15.792969 13.378906 C 15.003906 13.460938 14.296875 12.886719 14.214844 12.097656 C 14.132812 11.308594 14.703125 10.597656 15.496094 10.515625 C 16.285156 10.433594 16.996094 11.007812 17.078125 11.796875 C 17.160156 12.589844 16.585938 13.296875 15.792969 13.378906 Z M 15.792969 13.378906 " fill-opacity="1" fill-rule="nonzero"/><path fill="#935f3d" d="M 12.421875 14.058594 C 12.445312 14.019531 12.441406 13.976562 12.410156 13.949219 L 12.101562 13.640625 C 12.078125 13.617188 12.054688 13.613281 12.042969 13.613281 C 12.035156 13.613281 12.015625 13.617188 11.996094 13.628906 L 11.773438 13.785156 C 11.703125 13.835938 11.617188 13.859375 11.53125 13.859375 C 11.453125 13.859375 11.375 13.839844 11.328125 13.808594 C 11.167969 13.722656 11.011719 13.65625 10.863281 13.617188 C 10.699219 13.570312 10.578125 13.425781 10.5625 13.28125 L 10.507812 13.011719 C 10.503906 12.972656 10.46875 12.945312 10.429688 12.945312 L 9.992188 12.945312 C 9.929688 12.945312 9.90625 13.03125 9.902344 13.046875 L 9.863281 13.261719 C 9.839844 13.441406 9.707031 13.582031 9.5625 13.613281 C 9.398438 13.664062 9.242188 13.730469 9.082031 13.816406 L 8.972656 13.859375 L 8.890625 13.859375 C 8.792969 13.859375 8.699219 13.828125 8.648438 13.78125 L 8.421875 13.628906 C 8.40625 13.617188 8.394531 13.613281 8.375 13.613281 C 8.363281 13.613281 8.335938 13.617188 8.320312 13.636719 L 8.007812 13.945312 C 7.976562 13.976562 7.972656 14.015625 8 14.058594 L 8.148438 14.265625 C 8.246094 14.40625 8.257812 14.585938 8.175781 14.730469 C 8.09375 14.875 8.03125 15.03125 7.988281 15.1875 C 7.941406 15.347656 7.792969 15.472656 7.640625 15.492188 L 7.386719 15.539062 C 7.347656 15.546875 7.316406 15.582031 7.316406 15.625 L 7.316406 16.058594 C 7.316406 16.101562 7.34375 16.132812 7.386719 16.144531 L 7.65625 16.195312 C 7.820312 16.230469 7.941406 16.34375 7.984375 16.488281 C 8.03125 16.648438 8.09375 16.804688 8.171875 16.949219 C 8.253906 17.09375 8.242188 17.277344 8.152344 17.40625 L 8 17.632812 C 7.976562 17.664062 7.980469 17.707031 8.007812 17.734375 L 8.324219 18.050781 C 8.339844 18.066406 8.363281 18.070312 8.375 18.070312 C 8.386719 18.070312 8.40625 18.066406 8.425781 18.054688 L 8.640625 17.90625 C 8.714844 17.851562 8.808594 17.824219 8.898438 17.824219 L 9.019531 17.832031 L 9.101562 17.878906 C 9.25 17.957031 9.402344 18.023438 9.542969 18.066406 C 9.710938 18.105469 9.84375 18.246094 9.867188 18.414062 L 9.914062 18.671875 C 9.921875 18.710938 9.957031 18.742188 9.996094 18.742188 L 10.433594 18.742188 C 10.472656 18.742188 10.507812 18.714844 10.515625 18.667969 L 10.5625 18.4375 C 10.582031 18.261719 10.703125 18.117188 10.871094 18.066406 C 11.023438 18.027344 11.175781 17.964844 11.320312 17.886719 L 11.433594 17.824219 L 11.527344 17.824219 C 11.621094 17.824219 11.710938 17.851562 11.777344 17.902344 L 11.996094 18.054688 C 12.011719 18.066406 12.03125 18.066406 12.042969 18.066406 C 12.054688 18.066406 12.078125 18.0625 12.101562 18.042969 L 12.410156 17.734375 C 12.441406 17.707031 12.445312 17.664062 12.417969 17.628906 L 12.257812 17.398438 C 12.164062 17.246094 12.164062 17.070312 12.238281 16.957031 C 12.324219 16.800781 12.386719 16.648438 12.433594 16.488281 C 12.476562 16.339844 12.601562 16.230469 12.777344 16.191406 L 13.035156 16.144531 C 13.078125 16.136719 13.101562 16.101562 13.101562 16.058594 L 13.101562 15.625 C 13.101562 15.582031 13.074219 15.550781 13.035156 15.539062 L 12.796875 15.496094 C 12.621094 15.472656 12.472656 15.347656 12.433594 15.1875 C 12.386719 15.027344 12.324219 14.875 12.242188 14.734375 C 12.160156 14.585938 12.171875 14.40625 12.269531 14.269531 Z M 10.210938 17.109375 C 9.511719 17.109375 8.945312 16.539062 8.945312 15.839844 C 8.945312 15.144531 9.511719 14.578125 10.210938 14.578125 C 10.90625 14.578125 11.476562 15.144531 11.476562 15.839844 C 11.476562 16.539062 10.90625 17.109375 10.210938 17.109375 Z M 10.210938 17.109375 " fill-opacity="1" fill-rule="nonzero"/></svg>