<svg xmlns="http://www.w3.org/2000/svg" xmlns:xlink="http://www.w3.org/1999/xlink" width="40" zoomAndPan="magnify" viewBox="0 0 30 30.000001" height="40" preserveAspectRatio="xMidYMid meet" version="1.0"><defs><clipPath id="5c47d2fc94"><path d="M 0.484375 0 L 29.515625 0 L 29.515625 29.03125 L 0.484375 29.03125 Z M 0.484375 0 " clip-rule="nonzero"/></clipPath><clipPath id="8fd687cde7"><path d="M 8 15 L 25.726562 15 L 25.726562 25 L 8 25 Z M 8 15 " clip-rule="nonzero"/></clipPath><clipPath id="c8ee957eed"><path d="M 3.953125 18 L 10 18 L 10 26.128906 L 3.953125 26.128906 Z M 3.953125 18 " clip-rule="nonzero"/></clipPath><clipPath id="9ebd8d1bbb"><path d="M 16 2.902344 L 17 2.902344 L 17 5 L 16 5 Z M 16 2.902344 " clip-rule="nonzero"/></clipPath></defs><g clip-path="url(#5c47d2fc94)"><path fill="#ffffff" d="M 0.484375 0 L 29.515625 0 L 29.515625 29.03125 L 0.484375 29.03125 Z M 0.484375 0 " fill-opacity="1" fill-rule="nonzero"/><path fill="#ffffff" d="M 0.484375 0 L 29.515625 0 L 29.515625 29.03125 L 0.484375 29.03125 Z M 0.484375 0 " fill-opacity="1" fill-rule="nonzero"/></g><g clip-path="url(#8fd687cde7)"><path fill="#935f3d" d="M 8.851562 24.3125 C 8.703125 24.3125 8.566406 24.222656 8.511719 24.078125 C 8.441406 23.886719 8.539062 23.679688 8.726562 23.609375 L 9.542969 23.308594 C 9.808594 23.207031 10.089844 23.167969 10.375 23.191406 C 16.742188 23.65625 18.476562 23.015625 18.640625 22.949219 L 24.808594 18.765625 C 25.128906 18.546875 25.320312 18.1875 25.320312 17.800781 C 25.320312 17.574219 25.253906 17.355469 25.128906 17.164062 C 24.953125 16.894531 24.683594 16.710938 24.363281 16.652344 C 24.046875 16.59375 23.726562 16.667969 23.46875 16.855469 L 19.207031 19.949219 C 19.203125 19.953125 19.199219 19.957031 19.195312 19.960938 C 19.027344 20.070312 18.800781 20.023438 18.691406 19.855469 C 18.582031 19.691406 18.625 19.472656 18.789062 19.359375 L 23.039062 16.269531 C 23.464844 15.960938 23.980469 15.84375 24.496094 15.941406 C 25.011719 16.035156 25.453125 16.332031 25.738281 16.769531 C 25.9375 17.078125 26.042969 17.433594 26.042969 17.800781 C 26.042969 18.429688 25.734375 19.011719 25.214844 19.367188 L 19.023438 23.566406 C 19.015625 23.570312 19.003906 23.578125 18.992188 23.582031 C 18.875 23.648438 17.9375 24.085938 14.554688 24.085938 C 13.429688 24.085938 12.039062 24.039062 10.320312 23.914062 C 10.144531 23.902344 9.960938 23.925781 9.796875 23.988281 L 8.976562 24.289062 C 8.9375 24.304688 8.894531 24.3125 8.851562 24.3125 Z M 8.851562 24.3125 " fill-opacity="1" fill-rule="nonzero"/></g><path fill="#935f3d" d="M 17.457031 20.976562 L 13.867188 20.976562 C 13.667969 20.976562 13.503906 20.816406 13.503906 20.613281 C 13.503906 20.414062 13.667969 20.25 13.867188 20.25 L 17.457031 20.25 C 17.878906 20.25 18.277344 20.054688 18.527344 19.726562 C 18.585938 19.652344 18.632812 19.574219 18.667969 19.5 C 18.816406 19.199219 18.789062 18.933594 18.578125 18.660156 C 18.332031 18.34375 17.9375 18.152344 17.519531 18.152344 L 13.265625 18.152344 C 12.707031 18.152344 12.167969 18.039062 11.667969 17.820312 C 10.542969 17.320312 8.394531 16.839844 6.621094 19.203125 C 6.5 19.363281 6.273438 19.394531 6.113281 19.273438 C 5.953125 19.152344 5.917969 18.925781 6.039062 18.765625 C 8.191406 15.898438 10.898438 16.683594 11.960938 17.15625 C 12.367188 17.335938 12.808594 17.425781 13.265625 17.425781 L 17.519531 17.425781 C 18.160156 17.425781 18.773438 17.722656 19.152344 18.21875 C 19.535156 18.714844 19.59375 19.265625 19.320312 19.816406 C 19.265625 19.933594 19.191406 20.050781 19.105469 20.164062 C 18.722656 20.671875 18.105469 20.976562 17.457031 20.976562 Z M 17.457031 20.976562 " fill-opacity="1" fill-rule="nonzero"/><g clip-path="url(#c8ee957eed)"><path fill="#935f3d" d="M 7.769531 26.125 C 7.28125 26.125 6.8125 25.855469 6.585938 25.390625 L 4.128906 20.335938 C 3.972656 20.023438 3.953125 19.664062 4.066406 19.335938 C 4.179688 19.003906 4.417969 18.738281 4.734375 18.582031 L 5.097656 18.40625 C 5.746094 18.089844 6.535156 18.359375 6.851562 19.011719 L 9.308594 24.0625 C 9.464844 24.378906 9.484375 24.734375 9.371094 25.066406 C 9.257812 25.398438 9.019531 25.664062 8.707031 25.816406 L 8.339844 25.996094 C 8.15625 26.085938 7.960938 26.125 7.769531 26.125 Z M 5.671875 19 C 5.585938 19 5.496094 19.019531 5.414062 19.058594 L 5.050781 19.234375 C 4.910156 19.304688 4.804688 19.421875 4.753906 19.570312 C 4.703125 19.71875 4.710938 19.878906 4.78125 20.019531 L 7.238281 25.070312 C 7.382812 25.363281 7.734375 25.484375 8.023438 25.34375 L 8.386719 25.164062 C 8.527344 25.097656 8.632812 24.976562 8.683594 24.828125 C 8.734375 24.679688 8.726562 24.523438 8.65625 24.382812 L 6.199219 19.328125 C 6.097656 19.121094 5.886719 19 5.671875 19 Z M 5.671875 19 " fill-opacity="1" fill-rule="nonzero"/></g><path fill="#935f3d" d="M 19.671875 15.753906 C 19.617188 15.753906 19.558594 15.742188 19.503906 15.714844 L 16.539062 14.15625 L 13.574219 15.714844 C 13.453125 15.777344 13.304688 15.765625 13.191406 15.6875 C 13.082031 15.605469 13.027344 15.46875 13.046875 15.332031 L 13.613281 12.03125 L 11.214844 9.691406 C 11.117188 9.597656 11.082031 9.453125 11.125 9.320312 C 11.167969 9.1875 11.28125 9.09375 11.417969 9.074219 L 14.730469 8.59375 L 16.214844 5.589844 C 16.277344 5.464844 16.402344 5.386719 16.539062 5.386719 C 16.679688 5.386719 16.804688 5.464844 16.863281 5.589844 L 18.347656 8.59375 L 21.660156 9.074219 C 21.796875 9.09375 21.914062 9.1875 21.953125 9.320312 C 21.996094 9.453125 21.960938 9.597656 21.863281 9.691406 L 19.464844 12.03125 L 20.03125 15.332031 C 20.054688 15.46875 20 15.605469 19.886719 15.6875 C 19.824219 15.730469 19.75 15.753906 19.671875 15.753906 Z M 16.539062 13.382812 C 16.597656 13.382812 16.65625 13.394531 16.707031 13.425781 L 19.191406 14.730469 L 18.71875 11.964844 C 18.695312 11.847656 18.734375 11.726562 18.820312 11.644531 L 20.828125 9.6875 L 18.054688 9.28125 C 17.9375 9.265625 17.835938 9.191406 17.78125 9.085938 L 16.539062 6.570312 L 15.296875 9.085938 C 15.246094 9.191406 15.144531 9.265625 15.023438 9.28125 L 12.25 9.6875 L 14.257812 11.644531 C 14.34375 11.726562 14.382812 11.847656 14.363281 11.964844 L 13.886719 14.730469 L 16.371094 13.425781 C 16.425781 13.394531 16.480469 13.382812 16.539062 13.382812 Z M 16.539062 13.382812 " fill-opacity="1" fill-rule="nonzero"/><g clip-path="url(#9ebd8d1bbb)"><path fill="#935f3d" d="M 16.539062 4.9375 C 16.339844 4.9375 16.175781 4.773438 16.175781 4.574219 L 16.175781 3.273438 C 16.175781 3.070312 16.339844 2.910156 16.539062 2.910156 C 16.738281 2.910156 16.902344 3.070312 16.902344 3.273438 L 16.902344 4.574219 C 16.902344 4.773438 16.738281 4.9375 16.539062 4.9375 Z M 16.539062 4.9375 " fill-opacity="1" fill-rule="nonzero"/></g><path fill="#935f3d" d="M 13.914062 6.003906 C 13.824219 6.003906 13.730469 5.96875 13.660156 5.898438 L 12.738281 4.976562 C 12.597656 4.835938 12.597656 4.605469 12.738281 4.464844 C 12.878906 4.324219 13.109375 4.324219 13.253906 4.464844 L 14.171875 5.386719 C 14.3125 5.527344 14.3125 5.757812 14.171875 5.898438 C 14.101562 5.96875 14.007812 6.003906 13.914062 6.003906 Z M 13.914062 6.003906 " fill-opacity="1" fill-rule="nonzero"/><path fill="#935f3d" d="M 19.152344 6.035156 C 19.058594 6.035156 18.964844 6 18.894531 5.929688 C 18.753906 5.789062 18.753906 5.558594 18.894531 5.417969 L 19.8125 4.496094 C 19.957031 4.355469 20.1875 4.355469 20.328125 4.496094 C 20.46875 4.640625 20.46875 4.867188 20.328125 5.011719 L 19.40625 5.929688 C 19.335938 6 19.242188 6.035156 19.152344 6.035156 Z M 19.152344 6.035156 " fill-opacity="1" fill-rule="nonzero"/></svg>