<svg xmlns="http://www.w3.org/2000/svg" xmlns:xlink="http://www.w3.org/1999/xlink" width="40" zoomAndPan="magnify" viewBox="0 0 30 30.000001" height="40" preserveAspectRatio="xMidYMid meet" version="1.0"><defs><clipPath id="ebe97ce3f2"><path d="M 0.484375 0 L 29.515625 0 L 29.515625 29.03125 L 0.484375 29.03125 Z M 0.484375 0 " clip-rule="nonzero"/></clipPath><clipPath id="4b012b2fd5"><path d="M 3.386719 3.875 L 25 3.875 L 25 24.925781 L 3.386719 24.925781 Z M 3.386719 3.875 " clip-rule="nonzero"/></clipPath><clipPath id="a83a4316ca"><path d="M 15 14 L 26.613281 14 L 26.613281 24.925781 L 15 24.925781 Z M 15 14 " clip-rule="nonzero"/></clipPath></defs><g clip-path="url(#ebe97ce3f2)"><path fill="#ffffff" d="M 0.484375 0 L 29.515625 0 L 29.515625 29.03125 L 0.484375 29.03125 Z M 0.484375 0 " fill-opacity="1" fill-rule="nonzero"/><path fill="#ffffff" d="M 0.484375 0 L 29.515625 0 L 29.515625 29.03125 L 0.484375 29.03125 Z M 0.484375 0 " fill-opacity="1" fill-rule="nonzero"/></g><g clip-path="url(#4b012b2fd5)"><path fill="#935f3d" d="M 18.457031 20.457031 C 18.011719 20.457031 17.574219 20.371094 17.160156 20.207031 C 16.914062 20.105469 16.683594 19.980469 16.46875 19.828125 C 15.722656 20.171875 14.890625 20.367188 14.011719 20.367188 C 10.769531 20.367188 8.144531 17.738281 8.144531 14.496094 C 8.144531 11.253906 10.769531 8.625 14.011719 8.625 C 17.035156 8.625 19.523438 10.90625 19.847656 13.839844 C 20.242188 14.011719 20.59375 14.253906 20.902344 14.5625 C 21.371094 15.03125 21.691406 15.617188 21.832031 16.261719 C 21.945312 16.777344 21.9375 17.304688 21.816406 17.8125 L 22.105469 18.101562 L 24.171875 18.136719 C 24.417969 17.214844 24.386719 17.339844 24.632812 16.417969 L 22.609375 15.296875 C 22.609375 14.578125 22.609375 14.414062 22.609375 13.695312 L 24.632812 12.570312 C 24.386719 11.648438 24.417969 11.773438 24.171875 10.851562 L 21.859375 10.890625 C 21.5 10.269531 21.417969 10.125 21.058594 9.503906 L 22.246094 7.519531 C 21.574219 6.84375 21.664062 6.933594 20.992188 6.261719 L 19.003906 7.453125 C 18.382812 7.09375 18.242188 7.011719 17.617188 6.652344 L 17.65625 4.335938 C 16.734375 4.089844 16.859375 4.121094 15.9375 3.875 L 14.816406 5.898438 C 14.097656 5.898438 13.929688 5.898438 13.210938 5.898438 L 12.089844 3.875 C 11.167969 4.121094 11.292969 4.089844 10.371094 4.335938 L 10.410156 6.652344 C 9.785156 7.011719 9.644531 7.09375 9.023438 7.453125 L 7.035156 6.261719 C 6.363281 6.933594 6.453125 6.84375 5.78125 7.519531 L 6.96875 9.503906 C 6.609375 10.125 6.527344 10.269531 6.167969 10.890625 L 3.855469 10.851562 C 3.605469 11.773438 3.640625 11.648438 3.394531 12.570312 L 5.417969 13.695312 C 5.417969 14.414062 5.417969 14.578125 5.417969 15.296875 L 3.394531 16.421875 C 3.640625 17.339844 3.605469 17.214844 3.855469 18.136719 L 6.167969 18.097656 C 6.527344 18.722656 6.609375 18.863281 6.96875 19.488281 L 5.78125 21.472656 C 6.453125 22.144531 6.363281 22.054688 7.035156 22.730469 L 9.023438 21.539062 C 9.644531 21.898438 9.785156 21.980469 10.410156 22.339844 L 10.371094 24.65625 C 11.292969 24.902344 11.167969 24.867188 12.089844 25.113281 L 13.210938 23.089844 C 13.929688 23.089844 14.097656 23.089844 14.816406 23.089844 L 15.9375 25.113281 C 16.859375 24.867188 16.734375 24.902344 17.65625 24.65625 L 17.617188 22.339844 C 18.238281 21.980469 18.382812 21.898438 19.003906 21.539062 L 20.992188 22.730469 C 21.125 22.59375 21.226562 22.492188 21.3125 22.40625 L 19.269531 20.363281 C 19.003906 20.425781 18.734375 20.457031 18.457031 20.457031 Z M 18.457031 20.457031 " fill-opacity="1" fill-rule="nonzero"/></g><g clip-path="url(#a83a4316ca)"><path fill="#935f3d" d="M 26.113281 22.875 L 21.210938 17.96875 C 21.566406 16.945312 21.339844 15.761719 20.519531 14.941406 C 19.652344 14.074219 18.371094 13.867188 17.304688 14.328125 L 19.171875 16.191406 L 17.648438 17.714844 L 15.78125 15.851562 C 15.324219 16.914062 15.53125 18.195312 16.398438 19.066406 C 17.214844 19.882812 18.402344 20.113281 19.425781 19.753906 L 24.328125 24.660156 C 24.820312 25.152344 25.621094 25.152344 26.113281 24.660156 C 26.605469 24.164062 26.605469 23.367188 26.113281 22.875 Z M 26.113281 22.875 " fill-opacity="1" fill-rule="nonzero"/></g><path fill="#935f3d" d="M 10.359375 16.863281 L 10.359375 13.320312 L 11.164062 13.320312 L 11.164062 12.300781 L 10.359375 12.300781 L 10.359375 11.316406 L 9.765625 11.316406 L 9.765625 12.300781 L 8.957031 12.300781 L 8.957031 13.320312 L 9.765625 13.320312 L 9.765625 16.863281 Z M 10.359375 16.863281 " fill-opacity="1" fill-rule="nonzero"/><path fill="#935f3d" d="M 12.382812 16.863281 L 12.382812 16.027344 L 13.1875 16.027344 L 13.1875 15.007812 L 12.382812 15.007812 L 12.382812 11.316406 L 11.789062 11.316406 L 11.789062 15.007812 L 10.984375 15.007812 L 10.984375 16.027344 L 11.789062 16.027344 L 11.789062 16.863281 Z M 12.382812 16.863281 " fill-opacity="1" fill-rule="nonzero"/><path fill="#935f3d" d="M 14.414062 16.863281 L 14.414062 13.996094 L 15.21875 13.996094 L 15.21875 12.980469 L 14.414062 12.980469 L 14.414062 11.316406 L 13.820312 11.316406 L 13.820312 12.980469 L 13.015625 12.980469 L 13.015625 13.996094 L 13.820312 13.996094 L 13.820312 16.863281 Z M 14.414062 16.863281 " fill-opacity="1" fill-rule="nonzero"/></svg>