<svg xmlns="http://www.w3.org/2000/svg" xmlns:xlink="http://www.w3.org/1999/xlink" width="40" zoomAndPan="magnify" viewBox="0 0 30 30.000001" height="40" preserveAspectRatio="xMidYMid meet" version="1.0"><defs><clipPath id="6961c2f129"><path d="M 0.484375 0 L 29.515625 0 L 29.515625 29.03125 L 0.484375 29.03125 Z M 0.484375 0 " clip-rule="nonzero"/></clipPath><clipPath id="282ea9355d"><path d="M 3.386719 6.96875 L 26.613281 6.96875 L 26.613281 22.210938 L 3.386719 22.210938 Z M 3.386719 6.96875 " clip-rule="nonzero"/></clipPath></defs><g clip-path="url(#6961c2f129)"><path fill="#ffffff" d="M 0.484375 0 L 29.515625 0 L 29.515625 29.03125 L 0.484375 29.03125 Z M 0.484375 0 " fill-opacity="1" fill-rule="nonzero"/><path fill="#ffffff" d="M 0.484375 0 L 29.515625 0 L 29.515625 29.03125 L 0.484375 29.03125 Z M 0.484375 0 " fill-opacity="1" fill-rule="nonzero"/></g><g clip-path="url(#282ea9355d)"><path fill="#935f3d" d="M 3.777344 22.058594 L 26.222656 22.058594 C 26.332031 22.058594 26.421875 22.019531 26.496094 21.945312 C 26.574219 21.871094 26.609375 21.777344 26.609375 21.671875 L 26.609375 18.714844 C 26.609375 18.605469 26.574219 18.515625 26.496094 18.441406 C 26.421875 18.363281 26.332031 18.324219 26.222656 18.324219 L 25.675781 18.324219 L 25.675781 7.359375 C 25.675781 7.25 25.636719 7.160156 25.5625 7.085938 C 25.488281 7.007812 25.394531 6.972656 25.289062 6.972656 L 4.710938 6.972656 C 4.605469 6.972656 4.511719 7.007812 4.4375 7.085938 C 4.363281 7.160156 4.324219 7.25 4.324219 7.359375 L 4.324219 18.324219 L 3.777344 18.324219 C 3.667969 18.324219 3.578125 18.363281 3.503906 18.441406 C 3.425781 18.515625 3.390625 18.605469 3.390625 18.714844 L 3.390625 21.671875 C 3.390625 21.777344 3.425781 21.871094 3.503906 21.945312 C 3.578125 22.019531 3.667969 22.058594 3.777344 22.058594 Z M 5.097656 7.746094 L 24.902344 7.746094 L 24.902344 18.324219 L 5.097656 18.324219 Z M 4.164062 19.101562 L 25.835938 19.101562 L 25.835938 21.285156 L 4.164062 21.285156 Z M 4.164062 19.101562 " fill-opacity="1" fill-rule="nonzero"/></g><path fill="#935f3d" d="M 18.34375 12.390625 L 13.71875 9.71875 C 13.605469 9.652344 13.480469 9.617188 13.347656 9.617188 C 13.214844 9.617188 13.089844 9.652344 12.972656 9.71875 C 12.859375 9.785156 12.765625 9.875 12.699219 9.992188 C 12.632812 10.109375 12.601562 10.230469 12.601562 10.363281 L 12.601562 15.707031 C 12.597656 15.996094 12.722656 16.210938 12.972656 16.355469 C 13.222656 16.496094 13.472656 16.496094 13.71875 16.351562 L 18.34375 13.683594 C 18.59375 13.539062 18.71875 13.324219 18.71875 13.035156 C 18.71875 12.75 18.59375 12.53125 18.34375 12.390625 Z M 13.375 15.65625 L 13.375 10.414062 L 17.914062 13.035156 Z M 13.375 15.65625 " fill-opacity="1" fill-rule="nonzero"/></svg>