<svg xmlns="http://www.w3.org/2000/svg" xmlns:xlink="http://www.w3.org/1999/xlink" width="40" zoomAndPan="magnify" viewBox="0 0 30 30.000001" height="40" preserveAspectRatio="xMidYMid meet" version="1.0"><defs><clipPath id="4e9a78c82e"><path d="M 0.484375 0 L 29.515625 0 L 29.515625 29.03125 L 0.484375 29.03125 Z M 0.484375 0 " clip-rule="nonzero"/></clipPath><clipPath id="17f3823c17"><path d="M 4.679688 2.902344 L 25 2.902344 L 25 26.128906 L 4.679688 26.128906 Z M 4.679688 2.902344 " clip-rule="nonzero"/></clipPath></defs><g clip-path="url(#4e9a78c82e)"><path fill="#ffffff" d="M 0.484375 0 L 29.515625 0 L 29.515625 29.03125 L 0.484375 29.03125 Z M 0.484375 0 " fill-opacity="1" fill-rule="nonzero"/><path fill="#ffffff" d="M 0.484375 0 L 29.515625 0 L 29.515625 29.03125 L 0.484375 29.03125 Z M 0.484375 0 " fill-opacity="1" fill-rule="nonzero"/></g><g clip-path="url(#17f3823c17)"><path fill="#935f3d" d="M 6.398438 2.90625 C 5.449219 2.90625 4.679688 3.675781 4.679688 4.625 L 4.679688 21.828125 C 4.679688 22.777344 5.449219 23.546875 6.398438 23.546875 L 12.375 23.546875 C 11.976562 22.753906 11.710938 21.886719 11.609375 20.964844 L 8.550781 20.964844 C 7.835938 20.964844 7.257812 20.386719 7.257812 19.675781 C 7.257812 18.964844 7.835938 18.386719 8.550781 18.386719 L 11.757812 18.386719 C 11.902344 17.753906 12.125 17.148438 12.414062 16.585938 C 11.917969 16.40625 11.558594 15.933594 11.558594 15.375 C 11.558594 14.664062 12.136719 14.085938 12.847656 14.085938 C 13.265625 14.085938 13.632812 14.289062 13.867188 14.59375 C 15.265625 13.21875 17.183594 12.367188 19.300781 12.367188 C 19.890625 12.367188 20.464844 12.4375 21.019531 12.5625 L 21.019531 4.625 C 21.019531 3.675781 20.25 2.90625 19.300781 2.90625 Z M 7.257812 5.484375 L 18.4375 5.484375 L 18.4375 8.066406 L 7.257812 8.066406 Z M 8.550781 9.785156 C 9.261719 9.785156 9.839844 10.363281 9.839844 11.074219 C 9.839844 11.789062 9.261719 12.367188 8.550781 12.367188 C 7.835938 12.367188 7.257812 11.789062 7.257812 11.074219 C 7.257812 10.363281 7.835938 9.785156 8.550781 9.785156 Z M 12.847656 9.785156 C 13.5625 9.785156 14.140625 10.363281 14.140625 11.074219 C 14.140625 11.789062 13.5625 12.367188 12.847656 12.367188 C 12.136719 12.367188 11.558594 11.789062 11.558594 11.074219 C 11.558594 10.363281 12.136719 9.785156 12.847656 9.785156 Z M 17.148438 9.785156 C 17.859375 9.785156 18.4375 10.363281 18.4375 11.074219 C 18.4375 11.789062 17.859375 12.367188 17.148438 12.367188 C 16.4375 12.367188 15.859375 11.789062 15.859375 11.074219 C 15.859375 10.363281 16.4375 9.785156 17.148438 9.785156 Z M 8.550781 14.085938 C 9.261719 14.085938 9.839844 14.664062 9.839844 15.375 C 9.839844 16.089844 9.261719 16.667969 8.550781 16.667969 C 7.835938 16.667969 7.257812 16.089844 7.257812 15.375 C 7.257812 14.664062 7.835938 14.085938 8.550781 14.085938 Z M 19.300781 14.085938 C 15.972656 14.085938 13.277344 16.78125 13.277344 20.105469 C 13.277344 23.429688 15.972656 26.125 19.300781 26.125 C 22.625 26.125 25.320312 23.429688 25.320312 20.105469 C 25.320312 16.78125 22.625 14.085938 19.300781 14.085938 Z M 18.4375 15.804688 L 20.160156 15.804688 L 20.160156 17.027344 C 21.09375 17.277344 21.699219 17.929688 21.71875 18.800781 L 20.296875 18.800781 C 20.261719 18.375 19.855469 18.074219 19.3125 18.074219 C 18.773438 18.074219 18.414062 18.332031 18.414062 18.734375 C 18.414062 19.066406 18.683594 19.257812 19.324219 19.386719 L 20.105469 19.539062 C 21.300781 19.769531 21.835938 20.308594 21.835938 21.273438 C 21.835938 22.28125 21.214844 22.960938 20.160156 23.199219 L 20.160156 24.40625 L 18.4375 24.40625 L 18.4375 23.207031 C 17.410156 22.984375 16.78125 22.34375 16.761719 21.410156 L 18.230469 21.410156 C 18.269531 21.851562 18.710938 22.132812 19.347656 22.132812 C 19.921875 22.132812 20.316406 21.855469 20.316406 21.457031 C 20.316406 21.121094 20.050781 20.941406 19.359375 20.800781 L 18.5625 20.640625 C 17.453125 20.433594 16.882812 19.828125 16.882812 18.875 C 16.882812 17.941406 17.476562 17.269531 18.4375 17.019531 Z M 18.4375 15.804688 " fill-opacity="1" fill-rule="nonzero"/></g></svg>