<svg xmlns="http://www.w3.org/2000/svg" xmlns:xlink="http://www.w3.org/1999/xlink" width="40" zoomAndPan="magnify" viewBox="0 0 30 30.000001" height="40" preserveAspectRatio="xMidYMid meet" version="1.0"><defs><clipPath id="929abee13d"><path d="M 0.484375 0 L 29.515625 0 L 29.515625 29.03125 L 0.484375 29.03125 Z M 0.484375 0 " clip-rule="nonzero"/></clipPath><clipPath id="2dd0939900"><path d="M 22 3.714844 L 24 3.714844 L 24 6 L 22 6 Z M 22 3.714844 " clip-rule="nonzero"/></clipPath><clipPath id="91deb0119a"><path d="M 24 6 L 26.613281 6 L 26.613281 9 L 24 9 Z M 24 6 " clip-rule="nonzero"/></clipPath><clipPath id="5f673a9b05"><path d="M 25 9 L 26.613281 9 L 26.613281 10 L 25 10 Z M 25 9 " clip-rule="nonzero"/></clipPath><clipPath id="ff9d421a79"><path d="M 25 11 L 26.613281 11 L 26.613281 12 L 25 12 Z M 25 11 " clip-rule="nonzero"/></clipPath><clipPath id="d6b4dba8b0"><path d="M 3.386719 13 L 21 13 L 21 25.492188 L 3.386719 25.492188 Z M 3.386719 13 " clip-rule="nonzero"/></clipPath></defs><g clip-path="url(#929abee13d)"><path fill="#ffffff" d="M 0.484375 0 L 29.515625 0 L 29.515625 29.03125 L 0.484375 29.03125 Z M 0.484375 0 " fill-opacity="1" fill-rule="nonzero"/><path fill="#ffffff" d="M 0.484375 0 L 29.515625 0 L 29.515625 29.03125 L 0.484375 29.03125 Z M 0.484375 0 " fill-opacity="1" fill-rule="nonzero"/></g><path fill="#935f3d" d="M 22.753906 6.492188 C 22.222656 5.929688 21.664062 5.671875 21.199219 5.835938 C 21.101562 5.875 21.007812 5.929688 20.9375 6 C 20.9375 6 18.367188 9.058594 18.367188 9.058594 L 17.25 9.46875 C 17.085938 9.523438 16.921875 9.632812 16.785156 9.757812 C 16.648438 9.878906 16.539062 10.03125 16.46875 10.195312 C 16.402344 10.359375 16.347656 10.535156 16.347656 10.726562 C 16.347656 10.90625 16.375 11.097656 16.441406 11.261719 L 16.46875 11.328125 C 16.605469 11.667969 16.867188 11.957031 17.195312 12.105469 C 17.519531 12.257812 17.902344 12.269531 18.257812 12.148438 L 18.738281 13.445312 L 19.242188 14.785156 C 19.285156 14.882812 19.351562 14.976562 19.433594 15.074219 C 19.640625 15.292969 19.941406 15.457031 20.390625 15.320312 C 20.417969 15.320312 20.445312 15.292969 20.488281 15.277344 C 20.554688 15.238281 20.625 15.195312 20.691406 15.140625 C 20.691406 15.140625 20.707031 15.128906 20.71875 15.113281 C 20.800781 15.046875 20.855469 14.949219 20.898438 14.855469 C 20.953125 14.746094 20.980469 14.636719 20.980469 14.511719 C 20.980469 14.390625 20.964844 14.28125 20.925781 14.171875 L 20.0625 11.847656 C 20.0625 11.847656 23.316406 12.378906 23.34375 12.378906 C 23.453125 12.378906 23.546875 12.367188 23.65625 12.324219 C 24.109375 12.160156 24.367188 11.65625 24.410156 10.890625 C 24.464844 10.195312 24.3125 9.347656 24 8.511719 C 23.683594 7.679688 23.261719 6.980469 22.808594 6.503906 Z M 23.125 10.179688 C 22.753906 10.316406 22.25 9.878906 21.976562 9.210938 C 21.703125 8.527344 21.785156 7.855469 22.15625 7.71875 C 22.523438 7.582031 23.027344 8.019531 23.300781 8.691406 C 23.574219 9.375 23.492188 10.042969 23.125 10.179688 Z M 23.125 10.179688 " fill-opacity="1" fill-rule="nonzero"/><g clip-path="url(#2dd0939900)"><path fill="#935f3d" d="M 22.605469 5.191406 C 22.632812 5.207031 22.660156 5.21875 22.699219 5.21875 C 22.726562 5.21875 22.769531 5.21875 22.796875 5.21875 C 22.824219 5.21875 22.863281 5.191406 22.890625 5.179688 C 22.917969 5.152344 22.945312 5.136719 22.960938 5.109375 L 23.5625 4.125 C 23.628906 4.003906 23.601562 3.851562 23.480469 3.785156 C 23.355469 3.714844 23.207031 3.742188 23.136719 3.867188 L 22.535156 4.851562 C 22.46875 4.972656 22.507812 5.125 22.617188 5.191406 Z M 22.605469 5.191406 " fill-opacity="1" fill-rule="nonzero"/></g><g clip-path="url(#91deb0119a)"><path fill="#935f3d" d="M 26.378906 7.144531 C 26.378906 7.117188 26.378906 7.105469 26.363281 7.078125 C 26.308594 6.941406 26.171875 6.886719 26.035156 6.925781 L 24.449219 7.542969 C 24.3125 7.597656 24.257812 7.734375 24.300781 7.871094 C 24.355469 8.007812 24.492188 8.0625 24.628906 8.019531 L 26.214844 7.40625 C 26.324219 7.363281 26.390625 7.253906 26.378906 7.144531 Z M 26.378906 7.144531 " fill-opacity="1" fill-rule="nonzero"/></g><g clip-path="url(#5f673a9b05)"><path fill="#935f3d" d="M 25.324219 9.265625 C 25.257812 9.265625 25.203125 9.304688 25.160156 9.359375 C 25.121094 9.414062 25.105469 9.484375 25.105469 9.550781 C 25.105469 9.621094 25.148438 9.675781 25.203125 9.714844 C 25.257812 9.757812 25.324219 9.769531 25.394531 9.769531 L 26.390625 9.660156 C 26.460938 9.660156 26.515625 9.621094 26.554688 9.566406 C 26.597656 9.511719 26.609375 9.441406 26.609375 9.375 C 26.609375 9.304688 26.570312 9.25 26.515625 9.195312 C 26.460938 9.15625 26.390625 9.140625 26.324219 9.140625 L 25.324219 9.25 Z M 25.324219 9.265625 " fill-opacity="1" fill-rule="nonzero"/></g><path fill="#935f3d" d="M 23.917969 5.890625 C 23.863281 5.929688 23.835938 5.984375 23.820312 6.054688 C 23.820312 6.121094 23.820312 6.191406 23.875 6.246094 C 23.917969 6.300781 23.972656 6.328125 24.039062 6.339844 C 24.109375 6.339844 24.175781 6.339844 24.230469 6.285156 L 25.023438 5.671875 C 25.078125 5.628906 25.105469 5.574219 25.121094 5.507812 C 25.121094 5.4375 25.121094 5.371094 25.066406 5.316406 C 25.023438 5.261719 24.96875 5.234375 24.902344 5.21875 C 24.832031 5.21875 24.765625 5.21875 24.710938 5.273438 Z M 23.917969 5.890625 " fill-opacity="1" fill-rule="nonzero"/><g clip-path="url(#ff9d421a79)"><path fill="#935f3d" d="M 26.445312 11.355469 C 26.417969 11.34375 26.390625 11.328125 26.363281 11.316406 L 25.394531 11.054688 C 25.367188 11.054688 25.324219 11.054688 25.296875 11.054688 C 25.269531 11.054688 25.230469 11.070312 25.203125 11.082031 C 25.175781 11.097656 25.148438 11.125 25.132812 11.152344 C 25.121094 11.179688 25.105469 11.207031 25.09375 11.234375 C 25.09375 11.261719 25.09375 11.300781 25.09375 11.328125 C 25.09375 11.355469 25.105469 11.398438 25.121094 11.425781 C 25.132812 11.453125 25.160156 11.480469 25.1875 11.492188 C 25.214844 11.519531 25.242188 11.535156 25.269531 11.535156 L 26.242188 11.792969 C 26.269531 11.792969 26.308594 11.792969 26.335938 11.792969 C 26.363281 11.792969 26.40625 11.777344 26.433594 11.765625 C 26.460938 11.75 26.488281 11.722656 26.5 11.695312 C 26.527344 11.667969 26.542969 11.644531 26.542969 11.617188 C 26.542969 11.589844 26.542969 11.546875 26.542969 11.519531 C 26.542969 11.492188 26.527344 11.453125 26.515625 11.425781 C 26.5 11.398438 26.472656 11.371094 26.445312 11.355469 Z M 26.445312 11.355469 " fill-opacity="1" fill-rule="nonzero"/></g><path fill="#935f3d" d="M 8.078125 13.527344 C 8.679688 13.9375 9.390625 14.183594 10.167969 14.183594 C 10.949219 14.183594 11.671875 13.9375 12.273438 13.527344 C 13.242188 12.859375 13.886719 11.738281 13.886719 10.46875 C 13.886719 8.417969 12.21875 6.75 10.167969 6.75 C 8.117188 6.75 6.453125 8.417969 6.453125 10.46875 C 6.453125 12.515625 7.09375 12.859375 8.0625 13.527344 Z M 8.078125 13.527344 " fill-opacity="1" fill-rule="nonzero"/><g clip-path="url(#d6b4dba8b0)"><path fill="#935f3d" d="M 20.5 15.757812 C 20.351562 15.8125 20.1875 15.824219 20.035156 15.824219 C 19.652344 15.824219 19.3125 15.675781 19.050781 15.375 C 18.941406 15.25 18.859375 15.128906 18.792969 14.976562 C 18.792969 14.964844 18.300781 13.652344 18.300781 13.652344 C 18.230469 13.691406 18.175781 13.746094 18.121094 13.800781 C 17.917969 13.992188 17.78125 14.253906 17.699219 14.566406 C 17.589844 14.964844 17.480469 15.375 17.386719 15.785156 L 17.113281 16.835938 C 16.578125 16.304688 16.140625 15.90625 15.773438 15.59375 C 15.171875 15.113281 14.800781 14.921875 14.5 14.921875 C 13.925781 14.921875 13.679688 14.921875 13.296875 14.894531 L 13.230469 14.894531 C 13.039062 14.894531 12.820312 14.882812 12.519531 14.867188 L 12.480469 14.867188 L 12.316406 14.089844 C 11.714844 14.5 10.988281 14.746094 10.195312 14.746094 C 9.402344 14.746094 8.691406 14.5 8.089844 14.089844 L 7.859375 14.867188 L 7.804688 14.867188 C 6.273438 14.921875 5.179688 15.074219 4.457031 15.660156 C 3.703125 16.277344 3.390625 17.3125 3.390625 19.160156 L 3.390625 20.691406 C 3.390625 21.496094 3.390625 22.410156 3.390625 23.246094 C 3.390625 24.078125 3.390625 24.421875 3.390625 24.84375 L 3.390625 25.308594 L 5.578125 25.308594 L 5.578125 21.78125 C 5.578125 21.589844 5.726562 21.425781 5.933594 21.425781 C 6.136719 21.425781 6.289062 21.578125 6.289062 21.78125 L 6.289062 25.308594 L 14.871094 25.308594 L 14.871094 24.84375 C 14.871094 24.09375 14.871094 22.863281 14.871094 21.714844 C 14.871094 20.773438 14.871094 20.347656 14.871094 20.101562 C 14.871094 19.636719 14.980469 19.636719 15.074219 19.636719 C 15.335938 19.636719 15.839844 19.980469 16.292969 20.292969 C 16.824219 20.648438 17.410156 21.046875 17.957031 21.195312 C 18.3125 21.289062 19.175781 21.371094 19.503906 20.117188 L 20.691406 15.675781 C 20.652344 15.703125 20.597656 15.714844 20.554688 15.742188 L 20.527344 15.742188 Z M 20.5 15.757812 " fill-opacity="1" fill-rule="nonzero"/></g></svg>