<svg xmlns="http://www.w3.org/2000/svg" xmlns:xlink="http://www.w3.org/1999/xlink" width="40" zoomAndPan="magnify" viewBox="0 0 30 30.000001" height="40" preserveAspectRatio="xMidYMid meet" version="1.0"><defs><clipPath id="ccf410654a"><path d="M 0.484375 0 L 29.515625 0 L 29.515625 29.03125 L 0.484375 29.03125 Z M 0.484375 0 " clip-rule="nonzero"/></clipPath><clipPath id="4b549a6c7e"><path d="M 7 2.902344 L 23.507812 2.902344 L 23.507812 26.128906 L 7 26.128906 Z M 7 2.902344 " clip-rule="nonzero"/></clipPath></defs><g clip-path="url(#ccf410654a)"><path fill="#ffffff" d="M 0.484375 0 L 29.515625 0 L 29.515625 29.03125 L 0.484375 29.03125 Z M 0.484375 0 " fill-opacity="1" fill-rule="nonzero"/><path fill="#ffffff" d="M 0.484375 0 L 29.515625 0 L 29.515625 29.03125 L 0.484375 29.03125 Z M 0.484375 0 " fill-opacity="1" fill-rule="nonzero"/></g><g clip-path="url(#4b549a6c7e)"><path fill="#935f3d" d="M 12.695312 2.902344 C 12.457031 2.902344 12.253906 3.105469 12.253906 3.34375 L 12.253906 5.894531 C 12.253906 6.136719 12.457031 6.335938 12.695312 6.335938 C 12.9375 6.335938 13.140625 6.136719 13.140625 5.894531 L 13.140625 3.34375 C 13.140625 3.105469 12.9375 2.902344 12.695312 2.902344 Z M 8.53125 3.929688 C 8.421875 3.914062 8.300781 3.945312 8.207031 4.019531 C 8.015625 4.167969 7.980469 4.449219 8.128906 4.640625 L 9.699219 6.644531 C 9.851562 6.835938 10.132812 6.871094 10.320312 6.722656 C 10.511719 6.574219 10.546875 6.289062 10.398438 6.101562 L 8.824219 4.09375 C 8.75 4 8.644531 3.941406 8.53125 3.929688 Z M 16.785156 3.929688 C 16.675781 3.941406 16.566406 3.996094 16.492188 4.09375 L 14.917969 6.101562 C 14.769531 6.289062 14.804688 6.570312 14.996094 6.722656 C 15.1875 6.871094 15.46875 6.835938 15.617188 6.644531 L 17.1875 4.640625 C 17.335938 4.449219 17.300781 4.167969 17.113281 4.019531 C 17.015625 3.945312 16.898438 3.914062 16.785156 3.929688 Z M 12.726562 7.414062 L 12.726562 7.417969 C 11.820312 7.410156 10.933594 7.621094 10.128906 8.039062 C 9.300781 8.46875 8.582031 9.105469 8.0625 9.882812 C 7.207031 11.148438 6.914062 12.738281 7.132812 14.238281 C 7.351562 15.734375 8.0625 17.125 9.054688 18.253906 C 9.515625 18.777344 10.007812 19.234375 10.226562 19.800781 C 10.433594 20.332031 10.398438 20.976562 10.523438 21.648438 C 10.585938 21.988281 10.695312 22.332031 10.90625 22.636719 C 11.015625 22.792969 11.152344 22.933594 11.3125 23.046875 L 11.3125 23.621094 C 11.21875 23.628906 11.128906 23.667969 11.066406 23.742188 C 10.871094 23.960938 10.789062 24.261719 10.851562 24.554688 C 10.882812 24.703125 10.929688 24.804688 10.945312 24.835938 L 10.945312 24.839844 C 10.945312 24.839844 10.914062 24.902344 10.855469 25.078125 C 10.804688 25.246094 10.796875 25.429688 10.84375 25.597656 C 10.878906 25.75 10.953125 25.886719 11.054688 26 C 11.128906 26.082031 11.234375 26.128906 11.34375 26.128906 L 14.085938 26.128906 C 14.195312 26.128906 14.300781 26.082031 14.375 26 C 14.476562 25.886719 14.550781 25.753906 14.585938 25.601562 C 14.632812 25.429688 14.625 25.25 14.570312 25.078125 C 14.53125 24.953125 14.496094 24.867188 14.484375 24.847656 C 14.484375 24.84375 14.484375 24.839844 14.484375 24.835938 C 14.496094 24.800781 14.546875 24.703125 14.578125 24.554688 C 14.640625 24.265625 14.558594 23.964844 14.363281 23.742188 C 14.304688 23.671875 14.222656 23.636719 14.132812 23.621094 L 14.132812 23.007812 C 14.269531 22.902344 14.386719 22.777344 14.484375 22.636719 C 14.691406 22.332031 14.800781 21.988281 14.863281 21.648438 C 14.988281 20.976562 14.953125 20.332031 15.160156 19.800781 C 15.378906 19.234375 15.871094 18.777344 16.332031 18.253906 C 17.324219 17.125 18.035156 15.734375 18.253906 14.238281 C 18.289062 14.007812 18.308594 13.773438 18.316406 13.539062 C 18.132812 13.644531 17.949219 13.753906 17.746094 13.789062 C 17.5625 13.824219 17.390625 13.765625 17.308594 13.699219 L 17.304688 13.699219 C 17.207031 13.628906 17.199219 13.507812 17.230469 13.398438 C 17.054688 13.457031 16.894531 13.484375 16.734375 13.460938 C 16.734375 13.460938 16.730469 13.460938 16.730469 13.460938 C 16.652344 13.445312 16.585938 13.417969 16.527344 13.386719 C 16.476562 13.359375 16.449219 13.332031 16.417969 13.304688 C 16.355469 13.234375 16.328125 13.128906 16.359375 13.027344 C 16.359375 13.023438 16.363281 13.023438 16.363281 13.019531 C 16.363281 13.019531 16.371094 12.996094 16.371094 12.992188 L 16.375 12.988281 L 16.375 12.984375 C 16.382812 12.96875 16.40625 12.941406 16.414062 12.925781 C 16.429688 12.890625 16.464844 12.839844 16.488281 12.796875 C 16.410156 12.839844 16.332031 12.886719 16.253906 12.90625 C 16 12.96875 15.773438 12.910156 15.632812 12.855469 C 15.566406 12.832031 15.519531 12.804688 15.503906 12.792969 C 15.371094 12.71875 15.328125 12.566406 15.390625 12.433594 L 15.386719 12.433594 C 15.394531 12.425781 15.394531 12.425781 15.398438 12.417969 C 15.402344 12.414062 15.40625 12.40625 15.40625 12.402344 C 15.410156 12.402344 15.410156 12.398438 15.410156 12.394531 C 15.457031 12.316406 15.527344 12.214844 15.660156 12.046875 C 15.703125 11.992188 15.78125 11.898438 15.84375 11.820312 L 15.308594 12.078125 C 15.300781 12.082031 15.289062 12.085938 15.277344 12.089844 L 15.179688 12.132812 C 15.179688 12.132812 15.179688 12.132812 15.179688 12.136719 C 15.171875 12.140625 15.164062 12.144531 15.15625 12.148438 L 14.695312 12.367188 C 14.652344 12.386719 14.613281 12.351562 14.566406 12.347656 C 14.519531 12.386719 14.460938 12.410156 14.398438 12.410156 C 14.273438 12.40625 14.125 12.40625 13.984375 12.398438 L 13.511719 12.367188 C 13.351562 12.351562 13.226562 12.238281 13.226562 12.105469 C 13.226562 12.054688 13.246094 12.007812 13.277344 11.964844 L 13.558594 11.554688 C 13.664062 11.414062 13.773438 11.285156 13.867188 11.167969 C 13.902344 11.117188 13.957031 11.085938 14.015625 11.078125 C 14.039062 11.046875 14.054688 11.007812 14.085938 10.992188 C 14.085938 10.992188 14.089844 10.992188 14.089844 10.992188 L 14.46875 10.808594 L 14.5 10.792969 C 14.5 10.792969 14.503906 10.792969 14.503906 10.792969 L 14.886719 10.609375 C 14.898438 10.601562 14.910156 10.597656 14.921875 10.59375 L 15.285156 10.421875 C 15.238281 10.421875 15.183594 10.441406 15.132812 10.429688 C 15.132812 10.429688 15.128906 10.425781 15.128906 10.425781 C 15.085938 10.414062 15.023438 10.394531 14.972656 10.351562 C 14.96875 10.347656 14.964844 10.34375 14.960938 10.339844 C 14.921875 10.304688 14.894531 10.273438 14.871094 10.199219 C 14.851562 10.136719 14.847656 10.070312 14.859375 10.011719 C 14.867188 9.953125 14.886719 9.886719 14.921875 9.8125 C 15.058594 9.527344 15.355469 9.214844 15.5625 9.003906 C 15.757812 8.796875 15.882812 8.691406 16.09375 8.578125 C 15.828125 8.375 15.554688 8.1875 15.257812 8.035156 C 14.566406 7.675781 13.8125 7.464844 13.039062 7.417969 C 13.003906 7.414062 12.949219 7.410156 12.914062 7.410156 C 12.867188 7.414062 12.753906 7.414062 12.726562 7.414062 Z M 21.707031 7.707031 C 21.699219 7.707031 21.695312 7.710938 21.691406 7.710938 C 21.640625 7.707031 21.585938 7.710938 21.535156 7.722656 C 21.5 7.730469 21.46875 7.746094 21.4375 7.757812 L 20.835938 8.042969 C 20.816406 8.050781 20.808594 8.070312 20.816406 8.089844 L 21.226562 8.949219 C 21.234375 8.964844 21.253906 8.972656 21.273438 8.964844 L 21.875 8.675781 C 22.132812 8.554688 22.234375 8.253906 22.113281 7.996094 C 22.054688 7.871094 21.949219 7.78125 21.828125 7.738281 L 21.828125 7.734375 C 21.789062 7.722656 21.75 7.710938 21.707031 7.707031 Z M 20.550781 8.191406 C 20.546875 8.1875 20.539062 8.191406 20.535156 8.195312 L 20.226562 8.339844 L 18.679688 9.078125 L 18.242188 9.289062 C 18.242188 9.285156 18.238281 9.289062 18.234375 9.289062 L 17.355469 9.710938 C 17.335938 9.722656 17.328125 9.75 17.347656 9.765625 C 17.363281 9.78125 17.375 9.796875 17.390625 9.808594 C 17.390625 9.808594 17.390625 9.8125 17.394531 9.8125 L 17.414062 9.832031 C 17.414062 9.832031 17.417969 9.835938 17.417969 9.835938 C 17.589844 10.011719 17.765625 10.21875 17.957031 10.390625 C 17.992188 10.421875 18.03125 10.445312 18.066406 10.472656 C 18.074219 10.480469 18.089844 10.484375 18.101562 10.476562 L 19.570312 9.777344 L 20.257812 9.453125 L 20.429688 9.371094 L 20.429688 9.375 L 20.566406 9.308594 L 20.972656 9.117188 C 20.988281 9.109375 20.996094 9.085938 20.988281 9.070312 L 20.582031 8.214844 C 20.574219 8.203125 20.566406 8.195312 20.550781 8.195312 Z M 17.570312 8.339844 C 17.308594 8.339844 17.171875 8.386719 16.984375 8.457031 C 16.734375 8.550781 16.414062 8.683594 16.214844 8.789062 C 16.015625 8.898438 15.933594 8.96875 15.734375 9.175781 C 15.535156 9.382812 15.238281 9.714844 15.140625 9.921875 C 15.113281 9.972656 15.101562 10.015625 15.097656 10.050781 C 15.09375 10.082031 15.09375 10.105469 15.101562 10.125 C 15.105469 10.144531 15.117188 10.15625 15.125 10.164062 L 15.128906 10.167969 C 15.140625 10.179688 15.160156 10.1875 15.1875 10.195312 C 15.25 10.207031 15.347656 10.207031 15.464844 10.179688 C 15.558594 10.160156 15.660156 10.125 15.765625 10.082031 C 15.785156 10.074219 15.792969 10.046875 15.78125 10.03125 C 15.734375 9.957031 15.71875 9.867188 15.734375 9.808594 C 15.757812 9.699219 15.832031 9.546875 16 9.449219 C 16.042969 9.425781 16.085938 9.40625 16.132812 9.394531 L 16.136719 9.394531 C 16.277344 9.347656 16.445312 9.34375 16.605469 9.363281 C 16.753906 9.386719 16.902344 9.4375 17.054688 9.535156 C 17.066406 9.542969 17.082031 9.542969 17.09375 9.535156 L 19.019531 8.621094 L 19.039062 8.609375 C 19.074219 8.59375 19.066406 8.546875 19.03125 8.542969 C 18.636719 8.460938 18.199219 8.386719 17.882812 8.355469 C 17.761719 8.34375 17.667969 8.339844 17.582031 8.339844 Z M 16.320312 9.601562 C 16.242188 9.613281 16.171875 9.636719 16.121094 9.660156 C 16.03125 9.714844 15.984375 9.804688 15.972656 9.855469 C 15.96875 9.867188 15.972656 9.878906 15.980469 9.890625 C 15.976562 9.886719 15.984375 9.890625 15.984375 9.894531 L 15.988281 9.898438 C 16.019531 9.945312 16.089844 10.03125 16.222656 10.1875 C 16.496094 10.507812 17.007812 11.113281 17.425781 11.691406 C 17.839844 12.269531 18.144531 12.808594 18.46875 13.207031 C 18.792969 13.601562 19.152344 13.875 19.683594 14.285156 C 20.023438 14.546875 20.46875 14.890625 20.910156 15.234375 C 20.945312 15.269531 20.992188 15.292969 21.042969 15.308594 C 21.144531 15.332031 21.246094 15.300781 21.320312 15.230469 L 22.945312 14.019531 C 23.011719 13.976562 23.058594 13.910156 23.078125 13.835938 C 23.101562 13.746094 23.078125 13.648438 23.019531 13.578125 C 23.015625 13.574219 23.015625 13.574219 23.011719 13.570312 C 23.007812 13.5625 23 13.558594 22.992188 13.550781 C 22.566406 13.148438 22.128906 12.679688 21.730469 12.078125 C 21.222656 11.3125 20.761719 10.332031 20.464844 9.6875 C 20.460938 9.675781 20.449219 9.671875 20.441406 9.667969 C 20.4375 9.667969 20.433594 9.667969 20.429688 9.664062 C 20.421875 9.667969 20.417969 9.667969 20.414062 9.667969 L 19.230469 10.234375 L 18.789062 10.445312 L 18.382812 10.636719 C 18.359375 10.648438 18.355469 10.683594 18.378906 10.699219 C 18.503906 10.785156 18.625 10.867188 18.730469 10.941406 C 18.953125 11.101562 19.082031 11.222656 19.210938 11.28125 C 19.304688 11.320312 19.4375 11.332031 19.5625 11.339844 C 19.613281 11.34375 19.652344 11.378906 19.664062 11.421875 C 19.6875 11.488281 19.652344 11.554688 19.585938 11.578125 C 19.574219 11.582031 19.558594 11.585938 19.546875 11.585938 L 19.523438 11.582031 C 19.382812 11.578125 19.246094 11.5625 19.113281 11.503906 C 18.925781 11.425781 18.800781 11.289062 18.59375 11.140625 C 18.386719 10.992188 18.078125 10.8125 17.800781 10.570312 C 17.523438 10.328125 17.289062 10.035156 17.097656 9.863281 C 16.902344 9.695312 16.746094 9.625 16.574219 9.601562 C 16.488281 9.589844 16.402344 9.589844 16.320312 9.601562 Z M 15.792969 10.042969 C 15.792969 10.042969 15.792969 10.042969 15.796875 10.046875 C 15.792969 10.046875 15.796875 10.046875 15.796875 10.046875 C 15.796875 10.046875 15.792969 10.042969 15.792969 10.042969 Z M 16.019531 10.347656 L 16.019531 10.351562 C 16.011719 10.351562 16.007812 10.351562 16.003906 10.355469 L 15.984375 10.363281 L 15.917969 10.394531 L 15.914062 10.394531 L 14.988281 10.835938 L 14.988281 10.832031 L 14.605469 11.015625 L 14.574219 11.03125 L 14.191406 11.214844 C 14.175781 11.222656 14.167969 11.242188 14.175781 11.261719 C 14.179688 11.269531 14.179688 11.285156 14.175781 11.296875 C 14.175781 11.296875 14.175781 11.300781 14.171875 11.300781 L 14.171875 11.304688 L 14.085938 11.515625 C 14.074219 11.535156 14.085938 11.558594 14.105469 11.566406 L 14.332031 11.632812 C 14.335938 11.632812 14.335938 11.632812 14.335938 11.632812 C 14.347656 11.636719 14.355469 11.644531 14.363281 11.652344 C 14.367188 11.664062 14.367188 11.675781 14.363281 11.6875 L 14.269531 11.910156 C 14.261719 11.929688 14.273438 11.953125 14.292969 11.960938 L 14.515625 12.027344 C 14.53125 12.03125 14.542969 12.039062 14.546875 12.050781 C 14.554688 12.0625 14.554688 12.074219 14.546875 12.085938 L 14.539062 12.105469 C 14.527344 12.136719 14.558594 12.167969 14.585938 12.152344 L 15.046875 11.929688 L 15.203125 11.859375 L 16.171875 11.398438 C 16.175781 11.398438 16.179688 11.394531 16.183594 11.390625 C 16.304688 11.242188 16.386719 11.136719 16.523438 10.976562 C 16.53125 10.960938 16.53125 10.941406 16.519531 10.929688 C 16.339844 10.707031 16.167969 10.503906 16.046875 10.363281 C 16.042969 10.359375 16.035156 10.351562 16.027344 10.351562 L 16.027344 10.347656 C 16.023438 10.347656 16.023438 10.347656 16.019531 10.347656 Z M 14.054688 11.316406 C 13.957031 11.441406 13.859375 11.558594 13.761719 11.691406 C 13.761719 11.691406 13.757812 11.695312 13.757812 11.695312 L 13.472656 12.101562 C 13.472656 12.105469 13.472656 12.109375 13.472656 12.113281 C 13.472656 12.113281 13.472656 12.117188 13.476562 12.117188 C 13.476562 12.121094 13.480469 12.121094 13.484375 12.125 L 13.960938 12.160156 C 14.09375 12.167969 14.257812 12.164062 14.402344 12.167969 L 14.429688 12.105469 L 14.203125 12.035156 C 14.199219 12.035156 14.199219 12.035156 14.199219 12.035156 C 14.179688 12.027344 14.160156 12.011719 14.152344 11.996094 C 14.144531 11.972656 14.140625 11.953125 14.152344 11.933594 L 14.152344 11.929688 L 14.242188 11.710938 L 14.019531 11.640625 C 13.996094 11.636719 13.976562 11.621094 13.964844 11.601562 C 13.957031 11.578125 13.953125 11.558594 13.964844 11.535156 Z M 16.859375 11.371094 C 16.855469 11.371094 16.847656 11.371094 16.84375 11.371094 L 16.535156 11.519531 L 16.46875 11.550781 L 16.332031 11.621094 C 16.324219 11.621094 16.320312 11.625 16.316406 11.628906 C 16.15625 11.828125 15.953125 12.070312 15.851562 12.199219 C 15.722656 12.367188 15.640625 12.480469 15.609375 12.535156 C 15.601562 12.554688 15.609375 12.574219 15.625 12.582031 C 15.640625 12.59375 15.667969 12.609375 15.71875 12.628906 C 15.835938 12.671875 16.007812 12.71875 16.195312 12.671875 C 16.378906 12.625 16.609375 12.476562 16.855469 12.222656 C 16.921875 12.15625 16.988281 12.082031 17.054688 12.003906 L 17.054688 12 C 17.097656 11.945312 17.140625 11.886719 17.1875 11.828125 C 17.199219 11.816406 17.199219 11.796875 17.1875 11.785156 C 17.089844 11.652344 16.992188 11.515625 16.886719 11.382812 C 16.882812 11.375 16.871094 11.371094 16.859375 11.371094 Z M 17.359375 12.050781 C 17.347656 12.050781 17.335938 12.054688 17.328125 12.0625 C 17.320312 12.070312 17.320312 12.074219 17.316406 12.082031 L 17.3125 12.082031 C 17.308594 12.085938 17.308594 12.085938 17.304688 12.089844 C 17.097656 12.355469 16.898438 12.621094 16.78125 12.785156 C 16.671875 12.941406 16.617188 13.035156 16.597656 13.082031 C 16.59375 13.082031 16.597656 13.082031 16.59375 13.085938 C 16.589844 13.09375 16.589844 13.101562 16.589844 13.101562 C 16.585938 13.113281 16.589844 13.128906 16.597656 13.136719 C 16.605469 13.144531 16.621094 13.160156 16.648438 13.175781 C 16.683594 13.195312 16.722656 13.210938 16.769531 13.21875 L 16.773438 13.21875 C 16.871094 13.234375 17.003906 13.21875 17.152344 13.167969 C 17.300781 13.117188 17.453125 13.039062 17.691406 12.84375 C 17.722656 12.816406 17.761719 12.78125 17.800781 12.746094 C 17.8125 12.734375 17.816406 12.714844 17.804688 12.699219 C 17.675781 12.496094 17.535156 12.285156 17.386719 12.066406 C 17.378906 12.058594 17.371094 12.050781 17.359375 12.050781 Z M 17.976562 12.976562 C 17.964844 12.976562 17.953125 12.976562 17.949219 12.984375 C 17.800781 13.121094 17.632812 13.273438 17.546875 13.351562 C 17.484375 13.40625 17.46875 13.425781 17.445312 13.449219 C 17.429688 13.464844 17.433594 13.492188 17.449219 13.503906 C 17.496094 13.542969 17.570312 13.574219 17.699219 13.550781 C 17.835938 13.527344 18.023438 13.429688 18.203125 13.324219 C 18.21875 13.3125 18.226562 13.289062 18.210938 13.269531 C 18.140625 13.179688 18.070312 13.089844 18.003906 12.992188 C 18 12.984375 17.992188 12.980469 17.984375 12.976562 C 17.980469 12.976562 17.980469 12.976562 17.976562 12.976562 Z M 12.710938 14.429688 L 12.714844 14.429688 C 12.75 14.429688 12.789062 14.429688 12.824219 14.433594 C 12.867188 14.433594 12.910156 14.4375 12.953125 14.445312 C 13.171875 14.484375 13.375 14.59375 13.535156 14.75 C 13.695312 14.902344 13.804688 15.097656 13.867188 15.304688 C 13.988281 15.722656 13.902344 16.167969 13.691406 16.535156 C 13.511719 16.847656 13.246094 17.085938 12.957031 17.285156 C 13.183594 17.410156 13.417969 17.515625 13.667969 17.554688 C 13.675781 17.558594 13.6875 17.5625 13.695312 17.566406 C 13.933594 16.640625 14.253906 16.09375 14.648438 15.941406 C 14.734375 15.910156 14.820312 15.894531 14.902344 15.894531 C 15.257812 15.894531 15.5625 16.167969 15.597656 16.519531 C 15.636719 16.949219 15.304688 17.375 14.902344 17.648438 C 14.632812 17.835938 14.304688 17.890625 13.960938 17.882812 C 13.734375 19.074219 13.550781 21.085938 13.425781 22.9375 L 13.117188 22.9375 C 13.242188 21.046875 13.390625 19.148438 13.605469 17.996094 C 13.609375 17.964844 13.621094 17.914062 13.628906 17.863281 C 13.625 17.863281 13.621094 17.863281 13.617188 17.863281 C 13.265625 17.804688 12.945312 17.660156 12.652344 17.472656 C 12.386719 17.625 12.109375 17.746094 11.828125 17.855469 C 11.84375 17.933594 11.863281 18.015625 11.871094 18.0625 C 12.078125 19.199219 12.226562 21.070312 12.355469 22.9375 L 12.042969 22.9375 C 11.917969 21.105469 11.738281 19.128906 11.511719 17.953125 C 11.171875 17.960938 10.84375 17.902344 10.570312 17.714844 C 10.171875 17.441406 9.835938 17.015625 9.878906 16.589844 C 9.910156 16.238281 10.214844 15.960938 10.574219 15.960938 C 10.65625 15.960938 10.738281 15.976562 10.824219 16.011719 C 11.207031 16.160156 11.519531 16.679688 11.753906 17.546875 C 11.964844 17.460938 12.160156 17.371094 12.359375 17.269531 C 12.296875 17.222656 12.234375 17.183594 12.175781 17.125 C 11.871094 16.816406 11.628906 16.417969 11.570312 15.96875 C 11.542969 15.746094 11.558594 15.511719 11.632812 15.292969 C 11.703125 15.074219 11.832031 14.871094 12.007812 14.71875 C 12.203125 14.550781 12.453125 14.445312 12.710938 14.429688 Z M 12.730469 14.742188 C 12.542969 14.75 12.355469 14.828125 12.210938 14.953125 C 12.082031 15.066406 11.980469 15.222656 11.925781 15.390625 C 11.871094 15.5625 11.855469 15.746094 11.878906 15.925781 C 11.925781 16.289062 12.125 16.632812 12.394531 16.902344 C 12.472656 16.980469 12.574219 17.042969 12.675781 17.113281 C 12.984375 16.921875 13.25 16.683594 13.421875 16.378906 C 13.59375 16.078125 13.664062 15.710938 13.570312 15.390625 C 13.523438 15.234375 13.4375 15.085938 13.320312 14.972656 C 13.203125 14.859375 13.054688 14.78125 12.898438 14.75 C 12.867188 14.746094 12.835938 14.742188 12.808594 14.742188 C 12.78125 14.738281 12.753906 14.738281 12.730469 14.742188 Z M 14.902344 16.203125 C 14.859375 16.203125 14.8125 16.214844 14.761719 16.230469 C 14.65625 16.273438 14.519531 16.402344 14.386719 16.648438 C 14.265625 16.863281 14.152344 17.183594 14.046875 17.574219 C 14.300781 17.570312 14.535156 17.523438 14.730469 17.390625 C 14.898438 17.277344 15.046875 17.125 15.148438 16.96875 C 15.25 16.816406 15.296875 16.660156 15.289062 16.550781 C 15.269531 16.363281 15.101562 16.203125 14.902344 16.203125 Z M 10.570312 16.273438 C 10.375 16.273438 10.203125 16.433594 10.1875 16.617188 C 10.175781 16.730469 10.226562 16.882812 10.328125 17.035156 C 10.429688 17.1875 10.578125 17.339844 10.746094 17.453125 C 10.941406 17.585938 11.171875 17.625 11.429688 17.628906 C 11.324219 17.234375 11.207031 16.921875 11.089844 16.707031 C 10.957031 16.46875 10.820312 16.34375 10.710938 16.300781 C 10.664062 16.28125 10.617188 16.273438 10.570312 16.273438 Z M 10.570312 16.273438 " fill-opacity="1" fill-rule="nonzero"/></g></svg>