<svg xmlns="http://www.w3.org/2000/svg" xmlns:xlink="http://www.w3.org/1999/xlink" width="40" zoomAndPan="magnify" viewBox="0 0 30 30.000001" height="40" preserveAspectRatio="xMidYMid meet" version="1.0"><defs><clipPath id="84df8c8041"><path d="M 0.484375 0 L 29.515625 0 L 29.515625 29.03125 L 0.484375 29.03125 Z M 0.484375 0 " clip-rule="nonzero"/></clipPath><clipPath id="ad1a269e40"><path d="M 9 16 L 24.84375 16 L 24.84375 26.128906 L 9 26.128906 Z M 9 16 " clip-rule="nonzero"/></clipPath><clipPath id="56518054e2"><path d="M 5.246094 2.902344 L 23 2.902344 L 23 14 L 5.246094 14 Z M 5.246094 2.902344 " clip-rule="nonzero"/></clipPath></defs><g clip-path="url(#84df8c8041)"><path fill="#ffffff" d="M 0.484375 0 L 29.515625 0 L 29.515625 29.03125 L 0.484375 29.03125 Z M 0.484375 0 " fill-opacity="1" fill-rule="nonzero"/><path fill="#ffffff" d="M 0.484375 0 L 29.515625 0 L 29.515625 29.03125 L 0.484375 29.03125 Z M 0.484375 0 " fill-opacity="1" fill-rule="nonzero"/></g><g clip-path="url(#ad1a269e40)"><path fill="#935f3d" d="M 24.75 19.695312 C 24.75 17.910156 22.46875 16.886719 20.75 16.273438 L 20.5 16.980469 C 22.855469 17.824219 24 18.710938 24 19.695312 C 24 20.757812 22.742188 21.671875 20.039062 22.578125 C 18.519531 23.085938 16.695312 23.535156 14.929688 23.972656 C 13.136719 24.414062 11.28125 24.875 9.722656 25.398438 L 9.960938 26.109375 C 11.492188 25.597656 13.332031 25.144531 15.109375 24.703125 C 16.890625 24.261719 18.726562 23.808594 20.273438 23.292969 C 22.359375 22.59375 24.75 21.550781 24.75 19.695312 Z M 24.75 19.695312 " fill-opacity="1" fill-rule="nonzero"/></g><path fill="#935f3d" d="M 18.941406 9.523438 L 19.683594 8.78125 L 20.214844 9.3125 L 19.472656 10.054688 Z M 18.941406 9.523438 " fill-opacity="1" fill-rule="nonzero"/><path fill="#935f3d" d="M 14.625 6.996094 L 15.375 6.996094 L 15.375 8.046875 L 14.625 8.046875 Z M 14.625 6.996094 " fill-opacity="1" fill-rule="nonzero"/><path fill="#935f3d" d="M 11.84375 14.726562 C 11.796875 14.898438 11.820312 15.0625 11.914062 15.21875 L 12.363281 15.964844 C 12.457031 16.117188 12.589844 16.214844 12.761719 16.261719 C 12.933594 16.304688 13.097656 16.285156 13.25 16.199219 L 13.367188 16.132812 C 13.53125 16.25 13.707031 16.34375 13.890625 16.425781 L 13.890625 16.53125 C 13.890625 16.707031 13.957031 16.859375 14.085938 16.988281 C 14.214844 17.113281 14.367188 17.175781 14.546875 17.171875 L 15.449219 17.171875 C 15.628906 17.175781 15.78125 17.113281 15.910156 16.988281 C 16.039062 16.859375 16.101562 16.707031 16.105469 16.53125 L 16.105469 16.425781 C 16.289062 16.34375 16.460938 16.25 16.625 16.132812 L 16.742188 16.199219 C 16.898438 16.285156 17.0625 16.304688 17.234375 16.261719 C 17.40625 16.214844 17.539062 16.117188 17.628906 15.964844 L 18.082031 15.21875 C 18.175781 15.0625 18.199219 14.898438 18.152344 14.726562 C 18.101562 14.550781 18 14.417969 17.835938 14.328125 L 17.738281 14.273438 C 17.757812 14.089844 17.757812 13.90625 17.738281 13.722656 L 17.835938 13.667969 C 17.996094 13.578125 18.101562 13.445312 18.152344 13.269531 C 18.199219 13.09375 18.175781 12.929688 18.082031 12.777344 L 17.628906 12.027344 C 17.535156 11.878906 17.40625 11.78125 17.234375 11.738281 C 17.0625 11.691406 16.898438 11.710938 16.742188 11.796875 L 16.625 11.863281 C 16.460938 11.746094 16.289062 11.648438 16.105469 11.570312 L 16.105469 11.464844 C 16.101562 11.285156 16.039062 11.132812 15.910156 11.007812 C 15.78125 10.882812 15.628906 10.820312 15.449219 10.820312 L 14.546875 10.820312 C 14.367188 10.820312 14.214844 10.882812 14.085938 11.007812 C 13.957031 11.132812 13.894531 11.285156 13.890625 11.464844 L 13.890625 11.570312 C 13.707031 11.648438 13.535156 11.746094 13.371094 11.863281 L 13.253906 11.796875 C 13.097656 11.710938 12.933594 11.691406 12.761719 11.738281 C 12.59375 11.78125 12.460938 11.878906 12.367188 12.03125 L 11.914062 12.777344 C 11.820312 12.929688 11.796875 13.09375 11.847656 13.269531 C 11.894531 13.445312 11.996094 13.578125 12.15625 13.667969 L 12.257812 13.722656 C 12.238281 13.90625 12.238281 14.089844 12.257812 14.273438 L 12.160156 14.328125 C 11.996094 14.417969 11.894531 14.550781 11.84375 14.726562 Z M 12.992188 13.996094 C 12.992188 13.910156 13 13.828125 13.011719 13.742188 C 13.046875 13.453125 12.9375 13.238281 12.683594 13.097656 L 12.617188 13.0625 L 12.960938 12.492188 L 13.054688 12.542969 C 13.304688 12.679688 13.546875 12.660156 13.777344 12.492188 C 13.914062 12.390625 14.0625 12.308594 14.222656 12.246094 C 14.496094 12.140625 14.636719 11.941406 14.640625 11.648438 L 14.640625 11.570312 L 15.355469 11.570312 L 15.355469 11.648438 C 15.359375 11.941406 15.5 12.140625 15.773438 12.246094 C 15.933594 12.308594 16.082031 12.390625 16.21875 12.492188 C 16.449219 12.664062 16.691406 12.679688 16.941406 12.546875 L 17.035156 12.496094 L 17.378906 13.0625 L 17.316406 13.101562 C 17.058594 13.238281 16.949219 13.453125 16.984375 13.742188 C 17.011719 13.914062 17.011719 14.082031 16.984375 14.253906 C 16.949219 14.542969 17.058594 14.757812 17.3125 14.898438 L 17.378906 14.933594 L 17.035156 15.503906 L 16.941406 15.453125 C 16.691406 15.316406 16.449219 15.332031 16.21875 15.503906 C 16.082031 15.605469 15.933594 15.6875 15.773438 15.75 C 15.5 15.855469 15.359375 16.054688 15.355469 16.351562 L 15.355469 16.425781 L 14.640625 16.425781 L 14.640625 16.351562 C 14.636719 16.054688 14.496094 15.855469 14.222656 15.75 C 14.0625 15.6875 13.914062 15.605469 13.777344 15.503906 C 13.546875 15.332031 13.304688 15.316406 13.054688 15.453125 L 12.960938 15.503906 L 12.617188 14.933594 L 12.683594 14.898438 C 12.9375 14.757812 13.050781 14.542969 13.011719 14.253906 C 13 14.167969 12.992188 14.082031 12.992188 13.996094 Z M 12.992188 13.996094 " fill-opacity="1" fill-rule="nonzero"/><path fill="#935f3d" d="M 15 15.246094 C 15.164062 15.246094 15.324219 15.214844 15.476562 15.152344 C 15.628906 15.089844 15.765625 15 15.882812 14.882812 C 16 14.765625 16.089844 14.628906 16.152344 14.476562 C 16.21875 14.324219 16.25 14.164062 16.25 13.996094 C 16.25 13.832031 16.21875 13.671875 16.152344 13.519531 C 16.089844 13.363281 16 13.230469 15.882812 13.113281 C 15.765625 12.996094 15.628906 12.90625 15.476562 12.839844 C 15.324219 12.777344 15.164062 12.746094 15 12.746094 C 14.832031 12.746094 14.671875 12.777344 14.519531 12.839844 C 14.367188 12.90625 14.230469 12.996094 14.113281 13.113281 C 13.996094 13.230469 13.90625 13.367188 13.84375 13.519531 C 13.78125 13.671875 13.746094 13.832031 13.746094 13.996094 C 13.75 14.164062 13.78125 14.324219 13.84375 14.476562 C 13.90625 14.628906 13.996094 14.765625 14.113281 14.882812 C 14.230469 15 14.367188 15.089844 14.519531 15.152344 C 14.671875 15.214844 14.832031 15.246094 15 15.246094 Z M 15 13.496094 C 15.136719 13.496094 15.253906 13.546875 15.351562 13.644531 C 15.449219 13.742188 15.5 13.859375 15.5 13.996094 C 15.5 14.136719 15.449219 14.253906 15.351562 14.351562 C 15.253906 14.449219 15.136719 14.496094 15 14.496094 C 14.859375 14.496094 14.742188 14.449219 14.644531 14.351562 C 14.546875 14.253906 14.5 14.136719 14.5 13.996094 C 14.5 13.859375 14.546875 13.742188 14.644531 13.644531 C 14.742188 13.546875 14.859375 13.496094 15 13.496094 Z M 15 13.496094 " fill-opacity="1" fill-rule="nonzero"/><path fill="#935f3d" d="M 12.523438 18.652344 L 12.523438 20.648438 C 12.523438 20.976562 12.585938 21.292969 12.710938 21.597656 C 12.835938 21.898438 13.015625 22.167969 13.246094 22.398438 C 13.480469 22.632812 13.746094 22.8125 14.050781 22.9375 C 14.355469 23.0625 14.667969 23.125 15 23.125 C 15.328125 23.125 15.640625 23.0625 15.945312 22.9375 C 16.25 22.8125 16.515625 22.632812 16.75 22.398438 C 16.980469 22.167969 17.160156 21.898438 17.285156 21.597656 C 17.410156 21.292969 17.472656 20.976562 17.472656 20.648438 L 17.472656 18.652344 C 17.894531 18.425781 18.28125 18.148438 18.625 17.820312 C 18.972656 17.488281 19.269531 17.121094 19.515625 16.710938 C 19.761719 16.300781 19.949219 15.867188 20.078125 15.40625 C 20.207031 14.945312 20.273438 14.476562 20.273438 13.996094 C 20.273438 13.640625 20.238281 13.285156 20.167969 12.9375 C 20.09375 12.585938 19.988281 12.246094 19.847656 11.917969 C 19.707031 11.589844 19.535156 11.28125 19.332031 10.988281 C 19.128906 10.695312 18.898438 10.421875 18.636719 10.175781 C 18.378906 9.929688 18.097656 9.714844 17.796875 9.523438 C 17.492188 9.335938 17.175781 9.175781 16.839844 9.050781 C 16.503906 8.929688 16.160156 8.839844 15.808594 8.78125 C 15.457031 8.726562 15.101562 8.710938 14.742188 8.726562 C 14.167969 8.753906 13.609375 8.875 13.070312 9.082031 C 12.535156 9.292969 12.042969 9.585938 11.601562 9.957031 C 11.160156 10.328125 10.789062 10.761719 10.488281 11.257812 C 10.1875 11.75 9.976562 12.277344 9.847656 12.84375 C 9.722656 13.40625 9.691406 13.976562 9.75 14.550781 C 9.8125 15.125 9.964844 15.671875 10.203125 16.199219 C 10.445312 16.722656 10.765625 17.195312 11.160156 17.617188 C 11.558594 18.035156 12.011719 18.382812 12.523438 18.652344 Z M 15 22.375 C 14.636719 22.375 14.3125 22.269531 14.015625 22.0625 C 13.71875 21.859375 13.511719 21.585938 13.386719 21.25 L 16.609375 21.25 C 16.484375 21.585938 16.277344 21.859375 15.980469 22.0625 C 15.6875 22.269531 15.359375 22.375 15 22.375 Z M 16.722656 20.5 L 13.273438 20.5 L 13.273438 19.625 L 16.722656 19.625 Z M 10.492188 13.582031 C 10.542969 13.039062 10.683594 12.519531 10.921875 12.03125 C 11.160156 11.539062 11.476562 11.105469 11.871094 10.730469 C 12.261719 10.351562 12.710938 10.054688 13.210938 9.839844 C 13.710938 9.625 14.234375 9.503906 14.777344 9.476562 C 14.855469 9.472656 14.925781 9.472656 15 9.472656 C 15.296875 9.472656 15.589844 9.5 15.882812 9.558594 C 16.175781 9.617188 16.457031 9.703125 16.730469 9.816406 C 17.007812 9.929688 17.265625 10.070312 17.515625 10.234375 C 17.761719 10.398438 17.988281 10.585938 18.199219 10.796875 C 18.410156 11.007812 18.597656 11.234375 18.761719 11.484375 C 18.925781 11.730469 19.066406 11.992188 19.179688 12.265625 C 19.292969 12.539062 19.378906 12.824219 19.4375 13.113281 C 19.496094 13.40625 19.523438 13.699219 19.523438 13.996094 C 19.523438 14.425781 19.460938 14.84375 19.339844 15.253906 C 19.222656 15.664062 19.046875 16.050781 18.816406 16.410156 C 18.589844 16.773438 18.316406 17.097656 17.996094 17.378906 C 17.675781 17.664062 17.324219 17.898438 16.9375 18.082031 C 16.792969 18.148438 16.722656 18.261719 16.722656 18.417969 L 16.722656 18.871094 L 13.273438 18.871094 L 13.273438 18.421875 C 13.273438 18.261719 13.199219 18.152344 13.058594 18.082031 C 12.640625 17.886719 12.257812 17.628906 11.917969 17.316406 C 11.578125 17 11.289062 16.640625 11.0625 16.238281 C 10.832031 15.835938 10.667969 15.40625 10.570312 14.953125 C 10.472656 14.5 10.445312 14.042969 10.492188 13.582031 Z M 10.492188 13.582031 " fill-opacity="1" fill-rule="nonzero"/><path fill="#935f3d" d="M 9.78125 9.3125 L 10.3125 8.78125 L 11.054688 9.523438 L 10.523438 10.054688 Z M 9.78125 9.3125 " fill-opacity="1" fill-rule="nonzero"/><g clip-path="url(#56518054e2)"><path fill="#935f3d" d="M 21.84375 3.527344 L 19.722656 2.992188 C 19.582031 2.957031 19.460938 2.992188 19.359375 3.097656 C 19.257812 3.203125 19.230469 3.324219 19.273438 3.464844 L 19.492188 4.1875 C 18.089844 4.625 16.488281 5.019531 14.933594 5.40625 C 13.136719 5.847656 11.285156 6.308594 9.722656 6.832031 C 7.636719 7.523438 5.246094 8.558594 5.246094 10.414062 C 5.246094 12.128906 7.308594 13.109375 8.863281 13.699219 L 9.128906 12.996094 C 7.019531 12.199219 5.996094 11.351562 5.996094 10.414062 C 5.996094 9.371094 7.292969 8.429688 9.960938 7.542969 C 11.492188 7.027344 13.332031 6.574219 15.109375 6.132812 C 16.675781 5.746094 18.285156 5.34375 19.707031 4.90625 L 19.921875 5.617188 C 19.960938 5.757812 20.054688 5.84375 20.195312 5.875 C 20.222656 5.882812 20.25 5.886719 20.28125 5.886719 C 20.390625 5.886719 20.484375 5.84375 20.558594 5.761719 L 22.027344 4.144531 C 22.074219 4.09375 22.101562 4.039062 22.117188 3.972656 C 22.132812 3.910156 22.128906 3.847656 22.109375 3.78125 C 22.089844 3.71875 22.058594 3.664062 22.007812 3.621094 C 21.960938 3.574219 21.90625 3.542969 21.839844 3.527344 Z M 20.449219 4.769531 L 20.179688 3.882812 L 21.054688 4.101562 Z M 20.449219 4.769531 " fill-opacity="1" fill-rule="nonzero"/></g></svg>