<svg xmlns="http://www.w3.org/2000/svg" xmlns:xlink="http://www.w3.org/1999/xlink" width="40" zoomAndPan="magnify" viewBox="0 0 30 30.000001" height="40" preserveAspectRatio="xMidYMid meet" version="1.0"><defs><clipPath id="765884e06f"><path d="M 0.484375 0 L 29.515625 0 L 29.515625 29.03125 L 0.484375 29.03125 Z M 0.484375 0 " clip-rule="nonzero"/></clipPath><clipPath id="02def207d8"><path d="M 6.230469 2.902344 L 23.652344 2.902344 L 23.652344 26.128906 L 6.230469 26.128906 Z M 6.230469 2.902344 " clip-rule="nonzero"/></clipPath></defs><g clip-path="url(#765884e06f)"><path fill="#ffffff" d="M 0.484375 0 L 29.515625 0 L 29.515625 29.03125 L 0.484375 29.03125 Z M 0.484375 0 " fill-opacity="1" fill-rule="nonzero"/><path fill="#ffffff" d="M 0.484375 0 L 29.515625 0 L 29.515625 29.03125 L 0.484375 29.03125 Z M 0.484375 0 " fill-opacity="1" fill-rule="nonzero"/></g><g clip-path="url(#02def207d8)"><path fill="#935f3d" d="M 14.550781 4.289062 L 14.550781 3.257812 C 14.550781 3.171875 14.582031 3.097656 14.640625 3.039062 C 14.699219 2.976562 14.773438 2.949219 14.859375 2.949219 C 14.945312 2.949219 15.015625 2.976562 15.078125 3.039062 C 15.136719 3.097656 15.167969 3.171875 15.167969 3.257812 L 15.167969 4.289062 C 15.167969 4.375 15.136719 4.445312 15.078125 4.507812 C 15.015625 4.566406 14.945312 4.597656 14.859375 4.597656 C 14.773438 4.597656 14.699219 4.566406 14.640625 4.507812 C 14.582031 4.445312 14.550781 4.375 14.550781 4.289062 Z M 12.269531 5.152344 C 12.308594 5.230469 12.371094 5.285156 12.457031 5.308594 C 12.539062 5.332031 12.621094 5.324219 12.695312 5.28125 C 12.773438 5.234375 12.820312 5.171875 12.84375 5.085938 C 12.863281 5 12.847656 4.917969 12.800781 4.84375 L 12.285156 3.949219 C 12.242188 3.882812 12.179688 3.839844 12.097656 3.820312 C 12.019531 3.800781 11.945312 3.8125 11.871094 3.851562 C 11.800781 3.894531 11.753906 3.953125 11.730469 4.03125 C 11.707031 4.109375 11.714844 4.1875 11.753906 4.257812 Z M 9.832031 6.527344 L 10.726562 7.042969 C 10.800781 7.09375 10.878906 7.105469 10.964844 7.085938 C 11.050781 7.066406 11.117188 7.019531 11.164062 6.941406 C 11.207031 6.863281 11.214844 6.785156 11.191406 6.699219 C 11.164062 6.613281 11.113281 6.550781 11.035156 6.511719 L 10.140625 5.996094 C 10.066406 5.945312 9.984375 5.933594 9.898438 5.953125 C 9.8125 5.972656 9.746094 6.019531 9.703125 6.097656 C 9.660156 6.175781 9.648438 6.253906 9.675781 6.339844 C 9.699219 6.425781 9.753906 6.488281 9.832031 6.527344 Z M 9.300781 9.453125 L 10.335938 9.453125 C 10.421875 9.460938 10.5 9.429688 10.566406 9.371094 C 10.628906 9.308594 10.664062 9.234375 10.664062 9.144531 C 10.664062 9.054688 10.628906 8.980469 10.566406 8.921875 C 10.5 8.859375 10.421875 8.832031 10.335938 8.835938 L 9.300781 8.835938 C 9.210938 8.832031 9.132812 8.859375 9.070312 8.921875 C 9.003906 8.980469 8.972656 9.054688 8.972656 9.144531 C 8.972656 9.234375 9.003906 9.308594 9.070312 9.371094 C 9.132812 9.429688 9.210938 9.460938 9.300781 9.453125 Z M 19.410156 8.8125 C 19.410156 8.898438 19.4375 8.972656 19.5 9.03125 C 19.558594 9.089844 19.632812 9.121094 19.71875 9.121094 L 20.75 9.121094 C 20.839844 9.128906 20.914062 9.101562 20.980469 9.039062 C 21.046875 8.976562 21.078125 8.902344 21.078125 8.8125 C 21.078125 8.726562 21.046875 8.648438 20.980469 8.589844 C 20.914062 8.527344 20.839844 8.5 20.75 8.507812 L 19.714844 8.507812 C 19.628906 8.507812 19.558594 8.535156 19.5 8.597656 C 19.4375 8.65625 19.40625 8.730469 19.40625 8.8125 Z M 19.003906 6.796875 C 19.058594 6.796875 19.113281 6.785156 19.160156 6.757812 L 20.054688 6.242188 C 20.132812 6.199219 20.183594 6.136719 20.210938 6.054688 C 20.234375 5.96875 20.226562 5.886719 20.183594 5.808594 C 20.136719 5.734375 20.070312 5.683594 19.984375 5.664062 C 19.898438 5.644531 19.820312 5.660156 19.746094 5.707031 L 18.851562 6.222656 C 18.714844 6.304688 18.667969 6.417969 18.707031 6.570312 C 18.75 6.722656 18.847656 6.796875 19.003906 6.796875 Z M 17.074219 5.101562 C 17.148438 5.144531 17.226562 5.152344 17.308594 5.132812 C 17.390625 5.109375 17.453125 5.0625 17.492188 4.988281 L 18.011719 4.09375 C 18.046875 4.019531 18.054688 3.945312 18.03125 3.867188 C 18.007812 3.789062 17.960938 3.726562 17.890625 3.6875 C 17.820312 3.644531 17.742188 3.632812 17.664062 3.652344 C 17.582031 3.671875 17.523438 3.714844 17.476562 3.785156 L 16.960938 4.679688 C 16.917969 4.753906 16.90625 4.832031 16.929688 4.914062 C 16.953125 4.996094 17 5.058594 17.070312 5.101562 Z M 23.757812 15.703125 C 23.738281 15.785156 23.6875 15.847656 23.617188 15.890625 L 22.484375 16.542969 L 22.484375 21.648438 C 22.484375 21.765625 22.429688 21.855469 22.328125 21.914062 L 15.179688 26.042969 L 15.175781 26.042969 C 15.164062 26.050781 15.152344 26.054688 15.140625 26.058594 C 15.128906 26.0625 15.117188 26.066406 15.105469 26.070312 L 15.097656 26.074219 C 15.089844 26.074219 15.082031 26.078125 15.070312 26.078125 L 15.0625 26.082031 C 15.035156 26.082031 15.011719 26.082031 14.988281 26.082031 L 14.980469 26.078125 C 14.96875 26.078125 14.960938 26.074219 14.949219 26.074219 L 14.941406 26.070312 C 14.929688 26.066406 14.917969 26.0625 14.910156 26.058594 L 14.90625 26.058594 C 14.894531 26.054688 14.882812 26.050781 14.871094 26.042969 L 7.722656 21.914062 C 7.617188 21.855469 7.566406 21.765625 7.566406 21.648438 L 7.566406 16.542969 L 6.433594 15.890625 C 6.359375 15.847656 6.3125 15.785156 6.289062 15.703125 C 6.269531 15.621094 6.277344 15.542969 6.320312 15.46875 L 7.609375 13.238281 C 7.613281 13.230469 7.617188 13.226562 7.621094 13.222656 C 7.621094 13.21875 7.625 13.214844 7.625 13.210938 C 7.628906 13.207031 7.632812 13.203125 7.636719 13.195312 C 7.640625 13.191406 7.644531 13.191406 7.644531 13.1875 C 7.648438 13.1875 7.652344 13.179688 7.65625 13.175781 L 7.667969 13.167969 C 7.671875 13.164062 7.675781 13.160156 7.679688 13.15625 L 7.691406 13.148438 C 7.695312 13.144531 7.699219 13.140625 7.703125 13.140625 L 7.714844 13.128906 L 7.71875 13.128906 L 12.003906 10.652344 C 11.578125 10.082031 11.363281 9.4375 11.359375 8.722656 C 11.359375 6.84375 13 5.3125 15.015625 5.3125 C 17.03125 5.3125 18.667969 6.84375 18.667969 8.722656 C 18.667969 9.433594 18.457031 10.074219 18.03125 10.644531 L 22.328125 13.128906 L 22.332031 13.128906 C 22.335938 13.132812 22.34375 13.136719 22.347656 13.140625 L 22.355469 13.144531 L 22.371094 13.160156 L 22.378906 13.164062 C 22.382812 13.167969 22.386719 13.171875 22.390625 13.175781 L 22.402344 13.1875 L 22.410156 13.199219 C 22.414062 13.203125 22.417969 13.207031 22.421875 13.210938 C 22.425781 13.21875 22.425781 13.21875 22.429688 13.222656 C 22.429688 13.222656 22.433594 13.230469 22.4375 13.238281 L 22.441406 13.242188 L 23.726562 15.46875 C 23.769531 15.542969 23.78125 15.621094 23.757812 15.703125 Z M 21.558594 13.394531 L 17.703125 11.167969 C 17.410156 11.746094 17.390625 12.269531 17.390625 13.023438 L 17.390625 13.746094 C 17.390625 14.003906 17.304688 14.234375 17.132812 14.429688 C 16.957031 14.625 16.742188 14.738281 16.484375 14.769531 L 16.484375 15.023438 C 16.484375 15.265625 16.398438 15.46875 16.230469 15.636719 C 16.0625 15.804688 15.855469 15.890625 15.617188 15.890625 L 14.414062 15.890625 C 14.175781 15.890625 13.972656 15.804688 13.800781 15.636719 C 13.632812 15.46875 13.546875 15.265625 13.546875 15.023438 L 13.546875 14.769531 C 13.289062 14.738281 13.074219 14.625 12.902344 14.429688 C 12.726562 14.234375 12.640625 14.003906 12.640625 13.746094 L 12.640625 13.023438 C 12.640625 12.273438 12.621094 11.75 12.332031 11.175781 L 8.492188 13.394531 L 15.023438 17.164062 Z M 14.164062 15.027344 C 14.164062 15.097656 14.1875 15.15625 14.238281 15.203125 C 14.285156 15.253906 14.34375 15.277344 14.414062 15.277344 L 15.617188 15.277344 C 15.683594 15.277344 15.742188 15.253906 15.792969 15.203125 C 15.839844 15.15625 15.867188 15.097656 15.867188 15.027344 L 15.867188 14.777344 L 14.164062 14.777344 Z M 16.773438 13.746094 L 16.773438 13.332031 L 13.257812 13.332031 L 13.257812 13.746094 C 13.257812 13.859375 13.296875 13.957031 13.378906 14.039062 C 13.460938 14.117188 13.558594 14.160156 13.671875 14.160156 L 16.359375 14.160156 C 16.472656 14.160156 16.570312 14.117188 16.652344 14.039062 C 16.734375 13.957031 16.773438 13.859375 16.773438 13.746094 Z M 11.976562 8.722656 C 11.976562 9.300781 12.152344 9.824219 12.503906 10.289062 C 13.136719 11.144531 13.238281 11.808594 13.253906 12.714844 L 16.777344 12.714844 C 16.738281 11.949219 16.917969 11.242188 17.320312 10.59375 C 17.382812 10.492188 17.449219 10.394531 17.527344 10.292969 C 17.875 9.828125 18.050781 9.304688 18.050781 8.722656 C 18.050781 7.183594 16.691406 5.929688 15.015625 5.929688 C 13.339844 5.929688 11.976562 7.183594 11.976562 8.722656 Z M 7.007812 15.511719 L 13.625 19.328125 L 14.605469 17.632812 L 7.988281 13.8125 Z M 8.183594 21.472656 L 14.714844 25.242188 L 14.714844 18.671875 L 14.003906 19.90625 C 13.960938 19.976562 13.898438 20.027344 13.816406 20.046875 C 13.789062 20.054688 13.765625 20.058594 13.738281 20.058594 C 13.683594 20.058594 13.628906 20.042969 13.582031 20.015625 L 8.183594 16.898438 Z M 21.867188 16.898438 L 16.464844 20.019531 C 16.390625 20.058594 16.3125 20.070312 16.230469 20.046875 C 16.148438 20.027344 16.085938 19.976562 16.042969 19.90625 L 15.332031 18.671875 L 15.332031 25.242188 L 21.867188 21.472656 Z M 23.039062 15.511719 L 22.0625 13.8125 L 15.445312 17.632812 L 16.425781 19.332031 Z M 23.039062 15.511719 " fill-opacity="1" fill-rule="nonzero"/></g></svg>