<svg xmlns="http://www.w3.org/2000/svg" xmlns:xlink="http://www.w3.org/1999/xlink" width="40" zoomAndPan="magnify" viewBox="0 0 30 30.000001" height="40" preserveAspectRatio="xMidYMid meet" version="1.0"><defs><clipPath id="1c338140b6"><path d="M 0.484375 0 L 29.515625 0 L 29.515625 29.03125 L 0.484375 29.03125 Z M 0.484375 0 " clip-rule="nonzero"/></clipPath><clipPath id="22c5ae7b4b"><path d="M 4.097656 2.902344 L 25.871094 2.902344 L 25.871094 26.128906 L 4.097656 26.128906 Z M 4.097656 2.902344 " clip-rule="nonzero"/></clipPath></defs><g clip-path="url(#1c338140b6)"><path fill="#ffffff" d="M 0.484375 0 L 29.515625 0 L 29.515625 29.03125 L 0.484375 29.03125 Z M 0.484375 0 " fill-opacity="1" fill-rule="nonzero"/><path fill="#ffffff" d="M 0.484375 0 L 29.515625 0 L 29.515625 29.03125 L 0.484375 29.03125 Z M 0.484375 0 " fill-opacity="1" fill-rule="nonzero"/></g><g clip-path="url(#22c5ae7b4b)"><path fill="#935f3d" d="M 25.65625 12.027344 L 24.097656 11.425781 C 23.878906 10.59375 23.546875 9.796875 23.109375 9.050781 L 23.789062 7.519531 C 23.851562 7.378906 23.824219 7.210938 23.714844 7.101562 L 21.699219 5.089844 C 21.589844 4.980469 21.421875 4.949219 21.28125 5.011719 L 19.75 5.691406 C 19.007812 5.253906 18.207031 4.921875 17.375 4.707031 L 16.773438 3.144531 C 16.71875 3 16.578125 2.902344 16.421875 2.902344 L 13.574219 2.902344 C 13.421875 2.902344 13.28125 3 13.226562 3.144531 L 12.625 4.707031 C 11.789062 4.921875 10.992188 5.253906 10.246094 5.691406 L 8.714844 5.011719 C 8.574219 4.949219 8.410156 4.980469 8.300781 5.089844 L 6.285156 7.101562 C 6.175781 7.210938 6.144531 7.378906 6.207031 7.519531 L 6.886719 9.050781 C 6.449219 9.796875 6.121094 10.59375 5.902344 11.425781 L 4.339844 12.027344 C 4.195312 12.085938 4.101562 12.222656 4.101562 12.378906 L 4.101562 15.226562 C 4.101562 15.382812 4.195312 15.519531 4.339844 15.578125 L 5.902344 16.175781 C 6.121094 17.011719 6.449219 17.808594 6.886719 18.554688 L 6.207031 20.085938 C 6.144531 20.226562 6.175781 20.390625 6.285156 20.5 L 8.300781 22.515625 C 8.410156 22.625 8.574219 22.65625 8.714844 22.59375 L 10.246094 21.914062 C 10.265625 21.925781 10.285156 21.933594 10.300781 21.945312 L 9.636719 23.09375 C 9.273438 23.726562 9.273438 24.484375 9.636719 25.117188 C 10.003906 25.75 10.660156 26.128906 11.390625 26.128906 L 18.609375 26.128906 C 19.339844 26.128906 19.996094 25.75 20.359375 25.117188 C 20.726562 24.484375 20.726562 23.726562 20.359375 23.09375 L 19.695312 21.945312 C 19.714844 21.933594 19.734375 21.925781 19.75 21.914062 L 21.28125 22.59375 C 21.332031 22.617188 21.382812 22.625 21.433594 22.625 C 21.53125 22.625 21.625 22.585938 21.699219 22.515625 L 23.714844 20.5 C 23.824219 20.390625 23.851562 20.226562 23.789062 20.085938 L 23.109375 18.554688 C 23.546875 17.808594 23.878906 17.011719 24.09375 16.175781 L 25.65625 15.578125 C 25.800781 15.519531 25.898438 15.382812 25.898438 15.226562 L 25.898438 12.378906 C 25.898438 12.222656 25.800781 12.085938 25.65625 12.027344 Z M 19.710938 24.742188 C 19.480469 25.140625 19.070312 25.378906 18.609375 25.378906 L 11.390625 25.378906 C 10.929688 25.378906 10.515625 25.140625 10.285156 24.742188 C 10.054688 24.34375 10.054688 23.867188 10.285156 23.46875 L 13.894531 17.21875 C 14.125 16.820312 14.539062 16.582031 15 16.582031 C 15.460938 16.582031 15.871094 16.820312 16.101562 17.21875 L 19.710938 23.46875 C 19.941406 23.867188 19.941406 24.34375 19.710938 24.742188 Z M 17.210938 17.640625 L 19.113281 17.640625 C 19.222656 17.640625 19.320312 17.597656 19.394531 17.519531 C 19.464844 17.4375 19.5 17.332031 19.488281 17.226562 C 19.296875 15.445312 18.09375 14.007812 16.484375 13.449219 C 17.082031 12.996094 17.464844 12.285156 17.464844 11.480469 C 17.464844 10.121094 16.359375 9.011719 15 9.011719 C 13.640625 9.011719 12.53125 10.121094 12.53125 11.480469 C 12.53125 12.285156 12.917969 12.996094 13.511719 13.449219 C 11.90625 14.007812 10.703125 15.445312 10.511719 17.226562 C 10.5 17.332031 10.535156 17.4375 10.605469 17.519531 C 10.675781 17.597656 10.777344 17.640625 10.882812 17.640625 L 12.785156 17.640625 L 11.90625 19.167969 C 9.984375 18.0625 8.808594 16.035156 8.808594 13.800781 C 8.808594 10.386719 11.585938 7.609375 15 7.609375 C 18.414062 7.609375 21.191406 10.386719 21.191406 13.800781 C 21.191406 16.035156 20.011719 18.0625 18.09375 19.167969 Z M 13.246094 16.84375 L 13.21875 16.894531 L 11.324219 16.894531 C 11.640625 15.460938 12.753906 14.359375 14.160156 14.042969 L 13.628906 15.710938 C 13.589844 15.835938 13.621094 15.976562 13.707031 16.074219 L 13.824219 16.207031 C 13.59375 16.371094 13.394531 16.585938 13.246094 16.84375 Z M 15 13.199219 C 14.050781 13.199219 13.28125 12.429688 13.28125 11.480469 C 13.28125 10.535156 14.050781 9.761719 15 9.761719 C 15.945312 9.761719 16.71875 10.535156 16.71875 11.480469 C 16.71875 12.429688 15.945312 13.199219 15 13.199219 Z M 14.539062 15.882812 L 14.410156 15.734375 L 14.976562 13.949219 C 14.984375 13.949219 14.992188 13.949219 15 13.949219 C 15.007812 13.949219 15.011719 13.949219 15.019531 13.949219 L 15.589844 15.734375 L 15.457031 15.882812 C 15.308594 15.851562 15.15625 15.832031 15 15.832031 C 14.839844 15.832031 14.6875 15.851562 14.539062 15.882812 Z M 16.367188 15.710938 L 15.835938 14.042969 C 17.242188 14.359375 18.359375 15.460938 18.675781 16.894531 L 16.78125 16.894531 L 16.75 16.84375 C 16.601562 16.585938 16.40625 16.371094 16.175781 16.207031 L 16.292969 16.074219 C 16.378906 15.976562 16.40625 15.835938 16.367188 15.710938 Z M 25.148438 14.96875 L 23.644531 15.546875 C 23.53125 15.59375 23.445312 15.691406 23.414062 15.8125 C 23.203125 16.703125 22.851562 17.550781 22.371094 18.332031 C 22.304688 18.4375 22.296875 18.566406 22.347656 18.679688 L 23 20.152344 L 21.351562 21.804688 L 19.878906 21.148438 C 19.765625 21.101562 19.632812 21.109375 19.527344 21.171875 C 19.460938 21.214844 19.390625 21.257812 19.320312 21.296875 L 18.46875 19.816406 C 19.445312 19.25 20.273438 18.453125 20.878906 17.492188 C 21.574219 16.386719 21.941406 15.113281 21.941406 13.800781 C 21.941406 9.976562 18.828125 6.859375 15 6.859375 C 11.171875 6.859375 8.058594 9.976562 8.058594 13.800781 C 8.058594 15.113281 8.425781 16.386719 9.117188 17.492188 C 9.722656 18.453125 10.550781 19.25 11.53125 19.816406 L 10.675781 21.296875 C 10.605469 21.257812 10.539062 21.214844 10.46875 21.171875 C 10.363281 21.109375 10.234375 21.101562 10.121094 21.148438 L 8.648438 21.804688 L 6.996094 20.152344 L 7.652344 18.679688 C 7.703125 18.566406 7.691406 18.4375 7.628906 18.332031 C 7.148438 17.550781 6.796875 16.703125 6.582031 15.8125 C 6.554688 15.691406 6.46875 15.59375 6.351562 15.546875 L 4.851562 14.96875 L 4.851562 12.636719 L 6.351562 12.054688 C 6.46875 12.011719 6.554688 11.914062 6.582031 11.792969 C 6.796875 10.902344 7.148438 10.054688 7.628906 9.273438 C 7.691406 9.167969 7.703125 9.039062 7.652344 8.925781 L 6.996094 7.449219 L 8.648438 5.800781 L 10.121094 6.453125 C 10.234375 6.503906 10.363281 6.496094 10.46875 6.429688 C 11.25 5.949219 12.101562 5.597656 12.992188 5.386719 C 13.109375 5.359375 13.207031 5.273438 13.253906 5.15625 L 13.832031 3.652344 L 16.167969 3.652344 L 16.746094 5.15625 C 16.789062 5.273438 16.886719 5.359375 17.007812 5.386719 C 17.898438 5.597656 18.746094 5.949219 19.527344 6.429688 C 19.632812 6.496094 19.765625 6.503906 19.875 6.453125 L 21.351562 5.800781 L 23 7.449219 L 22.347656 8.925781 C 22.296875 9.039062 22.304688 9.167969 22.371094 9.273438 C 22.851562 10.054688 23.203125 10.902344 23.414062 11.792969 C 23.445312 11.914062 23.53125 12.011719 23.644531 12.054688 L 25.148438 12.636719 Z M 15 23.078125 C 14.488281 23.078125 14.070312 23.496094 14.070312 24.007812 C 14.070312 24.515625 14.488281 24.933594 15 24.933594 C 15.511719 24.933594 15.925781 24.515625 15.925781 24.007812 C 15.925781 23.496094 15.511719 23.078125 15 23.078125 Z M 15 24.183594 C 14.902344 24.183594 14.820312 24.105469 14.820312 24.007812 C 14.820312 23.90625 14.902344 23.828125 15 23.828125 C 15.097656 23.828125 15.175781 23.90625 15.175781 24.007812 C 15.175781 24.105469 15.097656 24.183594 15 24.183594 Z M 15 22.839844 C 15.433594 22.839844 15.789062 22.5 15.804688 22.0625 L 15.914062 19.042969 C 15.921875 18.820312 15.84375 18.617188 15.6875 18.453125 C 15.53125 18.292969 15.332031 18.207031 15.109375 18.207031 L 14.890625 18.207031 C 14.667969 18.207031 14.464844 18.292969 14.308594 18.453125 C 14.15625 18.617188 14.078125 18.820312 14.085938 19.042969 L 14.195312 22.0625 C 14.210938 22.5 14.5625 22.839844 15 22.839844 Z M 14.847656 18.976562 C 14.863281 18.960938 14.871094 18.957031 14.890625 18.957031 L 15.109375 18.957031 C 15.128906 18.957031 15.136719 18.960938 15.148438 18.976562 C 15.164062 18.988281 15.164062 18.996094 15.164062 19.015625 L 15.054688 22.035156 C 15.054688 22.066406 15.03125 22.09375 15 22.09375 C 14.96875 22.09375 14.945312 22.066406 14.941406 22.035156 L 14.832031 19.015625 C 14.832031 18.996094 14.835938 18.988281 14.847656 18.976562 Z M 14.847656 18.976562 " fill-opacity="1" fill-rule="nonzero"/></g></svg>