<svg xmlns="http://www.w3.org/2000/svg" xmlns:xlink="http://www.w3.org/1999/xlink" width="40" zoomAndPan="magnify" viewBox="0 0 30 30.000001" height="40" preserveAspectRatio="xMidYMid meet" version="1.0"><defs><clipPath id="0f2b504ee2"><path d="M 0.484375 0 L 29.515625 0 L 29.515625 29.03125 L 0.484375 29.03125 Z M 0.484375 0 " clip-rule="nonzero"/></clipPath><clipPath id="146a0289e4"><path d="M 3.386719 4.441406 L 26.613281 4.441406 L 26.613281 24.765625 L 3.386719 24.765625 Z M 3.386719 4.441406 " clip-rule="nonzero"/></clipPath></defs><g clip-path="url(#0f2b504ee2)"><path fill="#ffffff" d="M 0.484375 0 L 29.515625 0 L 29.515625 29.03125 L 0.484375 29.03125 Z M 0.484375 0 " fill-opacity="1" fill-rule="nonzero"/><path fill="#ffffff" d="M 0.484375 0 L 29.515625 0 L 29.515625 29.03125 L 0.484375 29.03125 Z M 0.484375 0 " fill-opacity="1" fill-rule="nonzero"/></g><g clip-path="url(#146a0289e4)"><path fill="#935f3d" d="M 26.367188 22.570312 L 19.234375 10.214844 C 18.988281 9.789062 18.566406 9.546875 18.074219 9.546875 C 17.625 9.546875 17.230469 9.75 16.980469 10.113281 C 16.933594 10.007812 16.886719 9.90625 16.835938 9.804688 C 16.785156 9.707031 16.804688 9.597656 16.882812 9.519531 L 17.792969 8.609375 C 17.949219 8.453125 18.035156 8.246094 18.035156 8.027344 C 18.035156 7.808594 17.949219 7.601562 17.792969 7.449219 L 16.527344 6.183594 C 16.375 6.03125 16.167969 5.945312 15.949219 5.945312 C 15.730469 5.945312 15.523438 6.03125 15.371094 6.183594 L 14.457031 7.097656 C 14.378906 7.171875 14.273438 7.191406 14.175781 7.140625 C 13.90625 7.003906 13.625 6.890625 13.335938 6.792969 C 13.234375 6.761719 13.171875 6.671875 13.171875 6.5625 L 13.171875 5.273438 C 13.171875 4.820312 12.804688 4.453125 12.351562 4.453125 L 10.5625 4.453125 C 10.109375 4.453125 9.742188 4.820312 9.742188 5.273438 L 9.742188 6.5625 C 9.742188 6.671875 9.675781 6.761719 9.574219 6.792969 C 9.289062 6.886719 9.007812 7.003906 8.738281 7.140625 C 8.640625 7.191406 8.53125 7.171875 8.457031 7.097656 L 7.542969 6.183594 C 7.386719 6.027344 7.183594 5.945312 6.964844 5.945312 C 6.742188 5.945312 6.539062 6.027344 6.382812 6.183594 L 5.117188 7.449219 C 4.964844 7.601562 4.878906 7.808594 4.878906 8.027344 C 4.878906 8.246094 4.964844 8.453125 5.117188 8.609375 L 6.03125 9.519531 C 6.109375 9.597656 6.125 9.707031 6.078125 9.800781 C 5.941406 10.070312 5.824219 10.351562 5.730469 10.640625 C 5.695312 10.742188 5.605469 10.808594 5.496094 10.808594 L 4.207031 10.808594 C 3.753906 10.808594 3.386719 11.175781 3.386719 11.625 L 3.386719 13.414062 C 3.386719 13.867188 3.753906 14.234375 4.207031 14.234375 L 5.496094 14.234375 C 5.605469 14.234375 5.695312 14.300781 5.726562 14.402344 C 5.824219 14.6875 5.9375 14.96875 6.074219 15.238281 C 6.125 15.335938 6.109375 15.445312 6.03125 15.523438 L 5.117188 16.433594 C 4.964844 16.589844 4.878906 16.796875 4.878906 17.015625 C 4.878906 17.234375 4.964844 17.441406 5.117188 17.59375 L 6.382812 18.859375 C 6.539062 19.011719 6.742188 19.097656 6.960938 19.097656 C 7.183594 19.097656 7.386719 19.011719 7.542969 18.859375 L 8.453125 17.945312 C 8.53125 17.871094 8.640625 17.851562 8.738281 17.902344 C 9.007812 18.039062 9.289062 18.152344 9.574219 18.25 C 9.675781 18.28125 9.742188 18.371094 9.742188 18.480469 L 9.742188 19.769531 C 9.742188 20.222656 10.109375 20.589844 10.5625 20.589844 L 10.925781 20.589844 L 9.78125 22.570312 C 9.535156 22.992188 9.535156 23.480469 9.78125 23.90625 C 10.027344 24.332031 10.449219 24.574219 10.941406 24.574219 L 25.207031 24.574219 C 25.699219 24.574219 26.121094 24.332031 26.367188 23.90625 C 26.613281 23.484375 26.613281 22.996094 26.367188 22.570312 Z M 10.5625 20.015625 C 10.425781 20.015625 10.316406 19.90625 10.316406 19.769531 L 10.316406 18.480469 C 10.316406 18.121094 10.097656 17.8125 9.753906 17.703125 C 9.496094 17.617188 9.242188 17.511719 8.996094 17.386719 C 8.675781 17.226562 8.304688 17.285156 8.046875 17.539062 L 7.136719 18.453125 C 7.089844 18.496094 7.027344 18.523438 6.964844 18.523438 C 6.898438 18.523438 6.835938 18.496094 6.789062 18.453125 L 5.527344 17.1875 C 5.480469 17.140625 5.453125 17.082031 5.453125 17.015625 C 5.453125 16.949219 5.480469 16.886719 5.527344 16.84375 L 6.4375 15.929688 C 6.695312 15.675781 6.753906 15.300781 6.589844 14.980469 C 6.464844 14.738281 6.359375 14.480469 6.277344 14.222656 C 6.164062 13.882812 5.859375 13.660156 5.496094 13.660156 L 4.207031 13.660156 C 4.074219 13.660156 3.964844 13.550781 3.964844 13.417969 L 3.964844 11.628906 C 3.964844 11.492188 4.074219 11.382812 4.207031 11.382812 L 5.496094 11.382812 C 5.859375 11.382812 6.164062 11.164062 6.277344 10.820312 C 6.359375 10.5625 6.46875 10.308594 6.589844 10.0625 C 6.753906 9.742188 6.695312 9.367188 6.4375 9.113281 L 5.527344 8.199219 C 5.480469 8.15625 5.453125 8.09375 5.453125 8.027344 C 5.453125 7.960938 5.480469 7.902344 5.527344 7.855469 L 6.789062 6.589844 C 6.835938 6.546875 6.898438 6.519531 6.960938 6.519531 C 7.027344 6.519531 7.089844 6.546875 7.132812 6.589844 L 8.046875 7.503906 C 8.300781 7.757812 8.675781 7.820312 8.996094 7.65625 C 9.242188 7.53125 9.496094 7.425781 9.753906 7.34375 C 10.097656 7.230469 10.316406 6.925781 10.316406 6.5625 L 10.316406 5.273438 C 10.316406 5.136719 10.425781 5.03125 10.5625 5.03125 L 12.351562 5.03125 C 12.484375 5.03125 12.59375 5.136719 12.59375 5.273438 L 12.59375 6.5625 C 12.59375 6.921875 12.816406 7.230469 13.15625 7.34375 C 13.417969 7.425781 13.671875 7.53125 13.914062 7.65625 C 14.238281 7.820312 14.609375 7.757812 14.863281 7.503906 L 15.777344 6.589844 C 15.824219 6.546875 15.882812 6.519531 15.949219 6.519531 C 16.015625 6.519531 16.074219 6.546875 16.121094 6.589844 L 17.386719 7.855469 C 17.433594 7.902344 17.457031 7.960938 17.457031 8.027344 C 17.457031 8.09375 17.433594 8.15625 17.386719 8.199219 L 16.472656 9.113281 C 16.21875 9.367188 16.160156 9.742188 16.320312 10.0625 C 16.433594 10.28125 16.527344 10.511719 16.609375 10.746094 L 15.34375 12.9375 C 15.359375 12.800781 15.367188 12.660156 15.367188 12.523438 C 15.367188 10.363281 13.613281 8.609375 11.457031 8.609375 C 9.300781 8.609375 7.542969 10.363281 7.542969 12.523438 C 7.542969 14.679688 9.300781 16.433594 11.457031 16.433594 C 12.316406 16.433594 13.113281 16.152344 13.761719 15.675781 L 11.257812 20.011719 L 10.5625 20.011719 Z M 11.457031 15.855469 C 9.617188 15.855469 8.121094 14.359375 8.121094 12.523438 C 8.121094 10.683594 9.617188 9.1875 11.457031 9.1875 C 13.292969 9.1875 14.789062 10.683594 14.789062 12.523438 C 14.789062 14.359375 13.292969 15.855469 11.457031 15.855469 Z M 25.867188 23.621094 C 25.726562 23.867188 25.492188 24 25.207031 24 L 10.941406 24 C 10.660156 24 10.425781 23.867188 10.28125 23.621094 C 10.140625 23.375 10.140625 23.105469 10.28125 22.859375 L 17.414062 10.503906 C 17.558594 10.257812 17.792969 10.121094 18.074219 10.121094 C 18.359375 10.121094 18.59375 10.257812 18.734375 10.503906 L 25.867188 22.859375 C 26.011719 23.105469 26.011719 23.375 25.867188 23.621094 Z M 18.074219 13.710938 C 17.746094 13.710938 17.429688 13.851562 17.203125 14.089844 C 16.988281 14.316406 16.878906 14.605469 16.894531 14.910156 L 17.121094 19.015625 C 17.152344 19.585938 17.625 19.882812 18.074219 19.882812 C 18.527344 19.882812 19 19.585938 19.03125 19.015625 L 19.257812 14.910156 C 19.273438 14.605469 19.164062 14.316406 18.949219 14.089844 C 18.722656 13.851562 18.402344 13.710938 18.074219 13.710938 Z M 18.679688 14.878906 L 18.457031 18.984375 C 18.4375 19.296875 18.113281 19.304688 18.074219 19.304688 C 18.039062 19.304688 17.710938 19.296875 17.695312 18.984375 L 17.46875 14.878906 C 17.460938 14.734375 17.515625 14.597656 17.621094 14.484375 C 17.738281 14.359375 17.90625 14.289062 18.074219 14.289062 C 18.246094 14.289062 18.410156 14.359375 18.53125 14.484375 C 18.632812 14.597656 18.6875 14.734375 18.679688 14.878906 Z M 18.074219 20.96875 C 17.472656 20.96875 16.984375 21.457031 16.984375 22.058594 C 16.984375 22.660156 17.472656 23.148438 18.074219 23.148438 C 18.675781 23.148438 19.164062 22.660156 19.164062 22.058594 C 19.164062 21.457031 18.675781 20.96875 18.074219 20.96875 Z M 18.074219 22.570312 C 17.792969 22.570312 17.5625 22.339844 17.5625 22.058594 C 17.5625 21.773438 17.792969 21.546875 18.074219 21.546875 C 18.359375 21.546875 18.589844 21.773438 18.589844 22.058594 C 18.589844 22.339844 18.359375 22.570312 18.074219 22.570312 Z M 18.074219 22.570312 " fill-opacity="1" fill-rule="nonzero"/></g></svg>