<svg xmlns="http://www.w3.org/2000/svg" xmlns:xlink="http://www.w3.org/1999/xlink" width="40" zoomAndPan="magnify" viewBox="0 0 30 30.000001" height="40" preserveAspectRatio="xMidYMid meet" version="1.0"><defs><clipPath id="782d65eb97"><path d="M 0.484375 0 L 29.515625 0 L 29.515625 29.03125 L 0.484375 29.03125 Z M 0.484375 0 " clip-rule="nonzero"/></clipPath><clipPath id="fa2c07af74"><path d="M 3.386719 5.589844 L 26.613281 5.589844 L 26.613281 23.734375 L 3.386719 23.734375 Z M 3.386719 5.589844 " clip-rule="nonzero"/></clipPath></defs><g clip-path="url(#782d65eb97)"><path fill="#ffffff" d="M 0.484375 0 L 29.515625 0 L 29.515625 29.03125 L 0.484375 29.03125 Z M 0.484375 0 " fill-opacity="1" fill-rule="nonzero"/><path fill="#ffffff" d="M 0.484375 0 L 29.515625 0 L 29.515625 29.03125 L 0.484375 29.03125 Z M 0.484375 0 " fill-opacity="1" fill-rule="nonzero"/></g><g clip-path="url(#fa2c07af74)"><path fill="#935f3d" d="M 9.203125 11.007812 L 10.230469 11.652344 C 10.464844 12.507812 10.8125 13.332031 11.265625 14.101562 C 12.144531 15.597656 13.40625 16.847656 14.90625 17.714844 C 14.9375 17.730469 14.96875 17.742188 15 17.742188 C 15.03125 17.742188 15.0625 17.730469 15.09375 17.714844 C 16.050781 17.160156 16.910156 16.449219 17.636719 15.621094 L 21.28125 17.949219 C 21.3125 17.972656 21.34375 18 21.375 18.023438 C 21.375 18.023438 21.375 18.027344 21.375 18.027344 C 21.675781 18.300781 21.746094 18.730469 21.539062 19.027344 C 21.410156 19.210938 21.195312 19.316406 20.949219 19.316406 C 20.765625 19.316406 20.589844 19.257812 20.433594 19.152344 L 20.433594 19.148438 C 20.433594 19.148438 20.433594 19.148438 20.429688 19.148438 C 20.429688 19.148438 20.429688 19.144531 20.425781 19.144531 L 17.730469 17.4375 C 17.644531 17.382812 17.527344 17.40625 17.472656 17.496094 C 17.417969 17.582031 17.445312 17.695312 17.53125 17.75 L 20.222656 19.457031 L 20.46875 19.628906 C 20.84375 19.890625 20.960938 20.375 20.730469 20.707031 C 20.601562 20.890625 20.386719 20.996094 20.140625 20.996094 C 19.957031 20.996094 19.78125 20.941406 19.625 20.832031 L 19.179688 20.519531 C 19.179688 20.519531 19.179688 20.519531 19.175781 20.519531 C 19.175781 20.519531 19.175781 20.515625 19.175781 20.515625 L 16.78125 18.859375 C 16.695312 18.804688 16.582031 18.824219 16.523438 18.910156 C 16.464844 18.992188 16.484375 19.109375 16.570312 19.167969 L 18.964844 20.824219 C 19.339844 21.085938 19.457031 21.570312 19.226562 21.902344 C 19.097656 22.085938 18.882812 22.191406 18.636719 22.191406 C 18.453125 22.191406 18.277344 22.136719 18.121094 22.027344 L 17.566406 21.636719 L 15.507812 20.074219 C 15.425781 20.011719 15.308594 20.027344 15.246094 20.109375 C 15.183594 20.191406 15.199219 20.304688 15.28125 20.367188 L 17.34375 21.9375 C 17.34375 21.9375 17.34375 21.9375 17.347656 21.9375 C 17.347656 21.9375 17.347656 21.941406 17.347656 21.941406 L 17.351562 21.941406 C 17.535156 22.070312 17.660156 22.257812 17.710938 22.464844 C 17.757812 22.664062 17.722656 22.863281 17.609375 23.019531 C 17.484375 23.203125 17.265625 23.308594 17.019531 23.308594 C 16.839844 23.308594 16.660156 23.253906 16.507812 23.144531 C 16.503906 23.140625 16.5 23.136719 16.496094 23.136719 L 15.332031 22.460938 C 15.707031 22.089844 15.816406 21.53125 15.5625 21.09375 C 15.273438 20.601562 14.625 20.429688 14.074219 20.6875 C 14.144531 20.410156 14.109375 20.132812 13.96875 19.894531 C 13.691406 19.417969 13.082031 19.242188 12.542969 19.460938 C 12.617188 19.179688 12.582031 18.894531 12.441406 18.65625 C 12.261719 18.347656 11.945312 18.167969 11.597656 18.136719 C 11.824219 17.785156 11.855469 17.347656 11.648438 16.988281 C 11.457031 16.660156 11.097656 16.464844 10.691406 16.464844 C 10.46875 16.464844 10.246094 16.527344 10.050781 16.640625 L 8.546875 17.515625 C 8.546875 17.515625 8.542969 17.519531 8.539062 17.519531 C 8.523438 17.472656 8.507812 17.425781 8.492188 17.378906 C 8.320312 16.808594 8.445312 16.417969 8.445312 16.414062 C 8.472656 16.332031 8.441406 16.242188 8.367188 16.195312 L 6.628906 15.105469 Z M 18.734375 14.101562 C 18.554688 14.410156 18.359375 14.703125 18.144531 14.988281 C 18.507812 14.9375 18.921875 14.785156 19.378906 14.496094 C 19.464844 14.441406 19.582031 14.46875 19.636719 14.554688 C 19.691406 14.640625 19.664062 14.757812 19.578125 14.8125 C 18.96875 15.195312 18.425781 15.359375 17.953125 15.378906 L 21.425781 17.601562 C 21.710938 16.917969 21.5625 16.4375 21.554688 16.414062 C 21.527344 16.332031 21.558594 16.242188 21.632812 16.195312 L 23.371094 15.105469 L 20.796875 11.007812 L 19.769531 11.652344 C 19.535156 12.507812 19.1875 13.332031 18.734375 14.101562 Z M 5.867188 15.617188 C 5.800781 15.726562 5.679688 15.792969 5.546875 15.792969 C 5.476562 15.792969 5.40625 15.773438 5.347656 15.734375 L 3.628906 14.65625 C 3.453125 14.546875 3.398438 14.3125 3.507812 14.132812 L 6.972656 8.617188 C 7.042969 8.507812 7.164062 8.441406 7.296875 8.441406 C 7.367188 8.441406 7.4375 8.460938 7.496094 8.5 L 9.210938 9.578125 C 9.296875 9.628906 9.355469 9.714844 9.378906 9.8125 C 9.402344 9.914062 9.386719 10.015625 9.332031 10.101562 Z M 8.023438 9.5625 C 7.882812 9.472656 7.714844 9.425781 7.546875 9.425781 C 7.234375 9.425781 6.945312 9.582031 6.78125 9.847656 C 6.515625 10.269531 6.644531 10.828125 7.066406 11.089844 C 7.210938 11.179688 7.375 11.230469 7.542969 11.230469 C 7.855469 11.230469 8.144531 11.070312 8.308594 10.804688 C 8.574219 10.386719 8.445312 9.828125 8.023438 9.5625 Z M 14.890625 22.332031 C 15.285156 22.101562 15.441406 21.628906 15.238281 21.28125 C 15.035156 20.933594 14.546875 20.835938 14.152344 21.066406 L 13.484375 21.453125 L 12.648438 21.941406 C 12.457031 22.054688 12.3125 22.230469 12.25 22.433594 C 12.1875 22.628906 12.203125 22.828125 12.300781 22.996094 C 12.503906 23.34375 12.992188 23.441406 13.386719 23.207031 Z M 11.796875 22.007812 L 13.296875 21.132812 C 13.492188 21.019531 13.632812 20.84375 13.699219 20.640625 C 13.761719 20.445312 13.742188 20.246094 13.648438 20.082031 C 13.445312 19.730469 12.957031 19.636719 12.558594 19.867188 L 11.957031 20.214844 L 11.058594 20.742188 C 10.863281 20.855469 10.722656 21.027344 10.65625 21.234375 C 10.59375 21.429688 10.613281 21.628906 10.707031 21.792969 C 10.910156 22.144531 11.398438 22.238281 11.796875 22.007812 Z M 10.269531 20.769531 L 11.769531 19.894531 C 11.964844 19.78125 12.109375 19.605469 12.171875 19.402344 C 12.234375 19.207031 12.214844 19.007812 12.121094 18.84375 C 11.917969 18.492188 11.429688 18.398438 11.035156 18.628906 L 9.664062 19.425781 C 9.628906 19.445312 9.597656 19.460938 9.5625 19.476562 C 9.554688 19.488281 9.542969 19.496094 9.53125 19.503906 C 9.335938 19.617188 9.195312 19.789062 9.128906 19.996094 C 9.066406 20.191406 9.085938 20.390625 9.179688 20.554688 C 9.386719 20.90625 9.871094 21 10.269531 20.769531 Z M 9.476562 19.105469 L 10.84375 18.304688 C 10.84375 18.304688 10.84375 18.304688 10.847656 18.304688 L 10.976562 18.230469 C 11.375 18 11.53125 17.527344 11.324219 17.175781 C 11.203125 16.964844 10.964844 16.835938 10.691406 16.835938 C 10.535156 16.835938 10.378906 16.878906 10.238281 16.960938 L 8.738281 17.839844 C 8.339844 18.070312 8.183594 18.539062 8.386719 18.890625 C 8.511719 19.101562 8.746094 19.230469 9.019531 19.230469 C 9.175781 19.230469 9.335938 19.1875 9.476562 19.105469 Z M 20.667969 10.101562 C 20.613281 10.015625 20.597656 9.914062 20.621094 9.8125 C 20.644531 9.714844 20.703125 9.628906 20.789062 9.578125 L 22.503906 8.5 C 22.5625 8.460938 22.632812 8.441406 22.703125 8.441406 C 22.835938 8.441406 22.957031 8.507812 23.027344 8.617188 L 26.492188 14.132812 C 26.601562 14.3125 26.546875 14.546875 26.371094 14.65625 L 24.652344 15.734375 C 24.59375 15.773438 24.523438 15.792969 24.453125 15.792969 C 24.320312 15.792969 24.199219 15.726562 24.132812 15.617188 Z M 21.691406 10.804688 C 21.855469 11.070312 22.144531 11.230469 22.457031 11.230469 C 22.625 11.230469 22.789062 11.179688 22.933594 11.089844 C 23.355469 10.828125 23.484375 10.269531 23.21875 9.847656 C 23.054688 9.582031 22.765625 9.425781 22.453125 9.425781 C 22.285156 9.425781 22.117188 9.472656 21.976562 9.5625 C 21.554688 9.828125 21.425781 10.386719 21.691406 10.804688 Z M 10.25 9 C 10.25 8.761719 10.257812 8.511719 10.277344 8.253906 L 15 5.589844 L 19.722656 8.253906 C 19.742188 8.511719 19.75 8.761719 19.75 9 C 19.75 12.414062 17.933594 15.597656 15 17.339844 C 12.066406 15.597656 10.25 12.414062 10.25 9 Z M 12.191406 11.304688 C 12.191406 11.484375 12.261719 11.652344 12.386719 11.78125 L 14.023438 13.417969 C 14.152344 13.542969 14.320312 13.613281 14.5 13.613281 C 14.519531 13.613281 14.539062 13.613281 14.554688 13.613281 C 14.753906 13.59375 14.933594 13.492188 15.046875 13.332031 L 17.683594 9.640625 C 17.898438 9.339844 17.828125 8.917969 17.527344 8.703125 C 17.410156 8.621094 17.277344 8.578125 17.136719 8.578125 C 16.917969 8.578125 16.714844 8.683594 16.585938 8.859375 L 14.414062 11.902344 L 13.339844 10.828125 C 13.214844 10.699219 13.042969 10.628906 12.863281 10.628906 C 12.683594 10.628906 12.515625 10.699219 12.386719 10.828125 C 12.261719 10.957031 12.191406 11.125 12.191406 11.304688 Z M 12.191406 11.304688 " fill-opacity="1" fill-rule="nonzero"/></g></svg>