<svg xmlns="http://www.w3.org/2000/svg" xmlns:xlink="http://www.w3.org/1999/xlink" width="40" zoomAndPan="magnify" viewBox="0 0 30 30.000001" height="40" preserveAspectRatio="xMidYMid meet" version="1.0"><defs><clipPath id="d4ce8c3492"><path d="M 0.484375 0 L 29.515625 0 L 29.515625 29.03125 L 0.484375 29.03125 Z M 0.484375 0 " clip-rule="nonzero"/></clipPath><clipPath id="99ea7c7504"><path d="M 3.386719 2.933594 L 26.613281 2.933594 L 26.613281 26.15625 L 3.386719 26.15625 Z M 3.386719 2.933594 " clip-rule="nonzero"/></clipPath></defs><g clip-path="url(#d4ce8c3492)"><path fill="#ffffff" d="M 0.484375 0 L 29.515625 0 L 29.515625 29.03125 L 0.484375 29.03125 Z M 0.484375 0 " fill-opacity="1" fill-rule="nonzero"/><path fill="#ffffff" d="M 0.484375 0 L 29.515625 0 L 29.515625 29.03125 L 0.484375 29.03125 Z M 0.484375 0 " fill-opacity="1" fill-rule="nonzero"/></g><g clip-path="url(#99ea7c7504)"><path fill="#935f3d" d="M 21.308594 4.78125 C 19.324219 4.78125 17.710938 6.398438 17.710938 8.382812 C 17.710938 9.316406 18.003906 9.816406 18.289062 10.304688 C 18.605469 10.84375 18.929688 11.402344 19.007812 12.71875 L 19.007812 13.230469 C 19.007812 13.597656 19.234375 13.914062 19.550781 14.054688 L 19.550781 14.277344 C 19.550781 14.644531 19.773438 14.960938 20.089844 15.097656 L 20.089844 15.324219 C 20.089844 15.820312 20.492188 16.222656 20.984375 16.222656 L 21.667969 16.222656 C 22.160156 16.222656 22.5625 15.820312 22.5625 15.324219 L 22.5625 15.097656 C 22.878906 14.960938 23.101562 14.644531 23.101562 14.277344 L 23.101562 14.035156 C 23.402344 13.890625 23.609375 13.585938 23.609375 13.230469 L 23.609375 12.71875 C 23.6875 11.402344 24.011719 10.84375 24.328125 10.304688 C 24.613281 9.816406 24.90625 9.316406 24.90625 8.382812 C 24.90625 6.398438 23.292969 4.78125 21.308594 4.78125 Z M 20.378906 8.78125 L 20.003906 8.78125 C 19.792969 8.78125 19.625 8.613281 19.625 8.40625 C 19.625 8.199219 19.792969 8.027344 20.003906 8.027344 C 20.210938 8.027344 20.378906 8.199219 20.378906 8.40625 Z M 21.492188 12.332031 L 21.125 12.332031 L 21.125 9.527344 L 21.492188 9.527344 Z M 22.859375 13.078125 L 22.859375 13.230469 C 22.859375 13.3125 22.792969 13.378906 22.710938 13.378906 L 19.90625 13.378906 C 19.824219 13.378906 19.757812 13.3125 19.757812 13.230469 L 19.757812 13.078125 Z M 22.203125 14.429688 L 20.449219 14.429688 C 20.367188 14.429688 20.296875 14.359375 20.296875 14.277344 L 20.296875 14.128906 L 22.355469 14.128906 L 22.355469 14.277344 C 22.355469 14.359375 22.285156 14.429688 22.203125 14.429688 Z M 21.667969 15.476562 L 20.984375 15.476562 C 20.90625 15.476562 20.835938 15.40625 20.835938 15.324219 L 20.835938 15.175781 L 21.816406 15.175781 L 21.816406 15.324219 C 21.816406 15.40625 21.746094 15.476562 21.667969 15.476562 Z M 23.683594 9.925781 C 23.382812 10.441406 23.015625 11.070312 22.890625 12.332031 L 22.238281 12.332031 L 22.238281 9.527344 L 22.613281 9.527344 C 23.234375 9.527344 23.738281 9.023438 23.738281 8.40625 C 23.738281 7.785156 23.234375 7.28125 22.613281 7.28125 C 21.996094 7.28125 21.492188 7.785156 21.492188 8.40625 L 21.492188 8.78125 L 21.125 8.78125 L 21.125 8.40625 C 21.125 7.785156 20.621094 7.28125 20.003906 7.28125 C 19.382812 7.28125 18.878906 7.785156 18.878906 8.40625 C 18.878906 9.023438 19.382812 9.527344 20.003906 9.527344 L 20.378906 9.527344 L 20.378906 12.332031 L 19.726562 12.332031 C 19.601562 11.070312 19.234375 10.441406 18.933594 9.925781 C 18.667969 9.472656 18.457031 9.113281 18.457031 8.382812 C 18.457031 6.808594 19.734375 5.527344 21.308594 5.527344 C 22.882812 5.527344 24.160156 6.808594 24.160156 8.382812 C 24.160156 9.113281 23.949219 9.472656 23.683594 9.925781 Z M 22.238281 8.78125 L 22.238281 8.40625 C 22.238281 8.199219 22.40625 8.027344 22.613281 8.027344 C 22.824219 8.027344 22.992188 8.199219 22.992188 8.40625 C 22.992188 8.613281 22.824219 8.78125 22.613281 8.78125 Z M 20.933594 4.066406 L 20.933594 3.304688 C 20.933594 3.097656 21.101562 2.933594 21.308594 2.933594 C 21.515625 2.933594 21.683594 3.097656 21.683594 3.304688 L 21.683594 4.066406 C 21.683594 4.273438 21.515625 4.4375 21.308594 4.4375 C 21.101562 4.4375 20.933594 4.273438 20.933594 4.066406 Z M 18.171875 4.246094 C 18.070312 4.066406 18.128906 3.839844 18.308594 3.734375 C 18.488281 3.632812 18.714844 3.695312 18.820312 3.871094 L 19.199219 4.53125 C 19.300781 4.710938 19.242188 4.9375 19.0625 5.039062 C 19.003906 5.074219 18.941406 5.089844 18.875 5.089844 C 18.746094 5.089844 18.621094 5.023438 18.550781 4.902344 Z M 16.113281 5.929688 C 16.21875 5.753906 16.445312 5.691406 16.625 5.792969 L 17.28125 6.175781 C 17.460938 6.277344 17.523438 6.507812 17.417969 6.683594 C 17.347656 6.804688 17.222656 6.871094 17.09375 6.871094 C 17.03125 6.871094 16.96875 6.855469 16.910156 6.820312 L 16.25 6.441406 C 16.070312 6.339844 16.011719 6.109375 16.113281 5.929688 Z M 23.417969 4.53125 L 23.796875 3.871094 C 23.902344 3.695312 24.128906 3.632812 24.308594 3.734375 C 24.484375 3.839844 24.546875 4.066406 24.445312 4.246094 L 24.066406 4.902344 C 23.996094 5.023438 23.871094 5.089844 23.742188 5.089844 C 23.675781 5.089844 23.613281 5.074219 23.554688 5.039062 C 23.375 4.9375 23.3125 4.710938 23.417969 4.53125 Z M 26.367188 6.441406 L 25.707031 6.820312 C 25.648438 6.855469 25.585938 6.871094 25.523438 6.871094 C 25.394531 6.871094 25.265625 6.804688 25.199219 6.683594 C 25.09375 6.507812 25.15625 6.277344 25.335938 6.175781 L 25.992188 5.792969 C 26.171875 5.691406 26.398438 5.753906 26.503906 5.929688 C 26.605469 6.109375 26.546875 6.339844 26.367188 6.441406 Z M 13.242188 20.234375 L 12.644531 20.003906 C 12.542969 19.582031 12.375 19.183594 12.152344 18.8125 L 12.410156 18.226562 C 12.472656 18.085938 12.441406 17.921875 12.332031 17.8125 L 11.671875 17.152344 C 11.5625 17.042969 11.398438 17.011719 11.257812 17.074219 L 10.675781 17.335938 C 10.300781 17.109375 9.902344 16.945312 9.480469 16.839844 L 9.253906 16.246094 C 9.199219 16.101562 9.058594 16.003906 8.90625 16.003906 L 7.972656 16.003906 C 7.816406 16.003906 7.679688 16.101562 7.621094 16.246094 L 7.394531 16.839844 C 6.972656 16.945312 6.574219 17.109375 6.203125 17.335938 L 5.617188 17.074219 C 5.476562 17.011719 5.3125 17.042969 5.203125 17.152344 L 4.542969 17.8125 C 4.433594 17.921875 4.402344 18.085938 4.464844 18.226562 L 4.722656 18.8125 C 4.5 19.183594 4.332031 19.582031 4.230469 20.003906 L 3.636719 20.234375 C 3.492188 20.289062 3.394531 20.425781 3.394531 20.582031 L 3.394531 21.515625 C 3.394531 21.667969 3.492188 21.808594 3.636719 21.863281 L 4.230469 22.09375 C 4.332031 22.511719 4.5 22.914062 4.722656 23.285156 L 4.464844 23.867188 C 4.402344 24.007812 4.433594 24.175781 4.542969 24.285156 L 5.203125 24.941406 C 5.3125 25.050781 5.476562 25.082031 5.617188 25.019531 L 6.203125 24.761719 C 6.574219 24.984375 6.972656 25.152344 7.394531 25.253906 L 7.621094 25.851562 C 7.679688 25.996094 7.816406 26.089844 7.972656 26.089844 L 8.90625 26.089844 C 9.058594 26.089844 9.199219 25.996094 9.253906 25.851562 L 9.480469 25.253906 C 9.902344 25.152344 10.300781 24.984375 10.675781 24.761719 L 11.257812 25.019531 C 11.398438 25.082031 11.5625 25.050781 11.671875 24.941406 L 12.332031 24.285156 C 12.441406 24.175781 12.472656 24.007812 12.410156 23.867188 L 12.152344 23.285156 C 12.375 22.914062 12.542969 22.511719 12.644531 22.09375 L 13.242188 21.863281 C 13.386719 21.808594 13.480469 21.667969 13.480469 21.515625 L 13.480469 20.582031 C 13.480469 20.425781 13.386719 20.289062 13.242188 20.234375 Z M 12.734375 21.257812 L 12.191406 21.464844 C 12.070312 21.511719 11.984375 21.617188 11.957031 21.742188 C 11.867188 22.210938 11.683594 22.648438 11.417969 23.042969 C 11.347656 23.152344 11.335938 23.285156 11.386719 23.402344 L 11.625 23.9375 L 11.328125 24.234375 L 10.792969 23.996094 C 10.675781 23.945312 10.542969 23.957031 10.433594 24.027344 C 10.039062 24.292969 9.601562 24.476562 9.132812 24.566406 C 9.007812 24.59375 8.902344 24.679688 8.855469 24.800781 L 8.648438 25.34375 L 8.226562 25.34375 L 8.019531 24.800781 C 7.972656 24.679688 7.867188 24.59375 7.742188 24.566406 C 7.277344 24.476562 6.835938 24.292969 6.441406 24.027344 C 6.335938 23.957031 6.199219 23.945312 6.082031 23.996094 L 5.550781 24.234375 L 5.253906 23.9375 L 5.488281 23.40625 C 5.539062 23.289062 5.527344 23.152344 5.457031 23.042969 C 5.191406 22.648438 5.007812 22.210938 4.917969 21.742188 C 4.894531 21.617188 4.804688 21.511719 4.683594 21.464844 L 4.140625 21.257812 L 4.140625 20.835938 L 4.683594 20.628906 C 4.804688 20.582031 4.894531 20.476562 4.917969 20.351562 C 5.007812 19.886719 5.191406 19.449219 5.457031 19.050781 C 5.527344 18.945312 5.539062 18.808594 5.488281 18.691406 L 5.253906 18.160156 L 5.550781 17.863281 L 6.082031 18.097656 C 6.199219 18.148438 6.335938 18.136719 6.441406 18.066406 C 6.835938 17.800781 7.277344 17.617188 7.742188 17.527344 C 7.867188 17.503906 7.972656 17.414062 8.019531 17.296875 L 8.226562 16.753906 L 8.648438 16.753906 L 8.855469 17.296875 C 8.902344 17.414062 9.007812 17.503906 9.132812 17.527344 C 9.601562 17.617188 10.039062 17.800781 10.433594 18.066406 C 10.542969 18.136719 10.675781 18.148438 10.792969 18.097656 L 11.328125 17.863281 L 11.625 18.160156 L 11.386719 18.691406 C 11.335938 18.808594 11.347656 18.945312 11.417969 19.050781 C 11.683594 19.445312 11.867188 19.886719 11.957031 20.351562 C 11.984375 20.476562 12.070312 20.582031 12.191406 20.628906 L 12.734375 20.835938 Z M 8.4375 18.339844 C 6.945312 18.339844 5.730469 19.554688 5.730469 21.046875 C 5.730469 22.539062 6.945312 23.753906 8.4375 23.753906 C 9.929688 23.753906 11.144531 22.539062 11.144531 21.046875 C 11.144531 19.554688 9.929688 18.339844 8.4375 18.339844 Z M 8.4375 23.007812 C 7.355469 23.007812 6.476562 22.128906 6.476562 21.046875 C 6.476562 19.964844 7.355469 19.085938 8.4375 19.085938 C 9.519531 19.085938 10.398438 19.964844 10.398438 21.046875 C 10.398438 22.128906 9.519531 23.007812 8.4375 23.007812 Z M 11.234375 16.296875 C 11.222656 16.402344 11.257812 16.507812 11.328125 16.585938 C 11.398438 16.664062 11.5 16.707031 11.605469 16.707031 L 18.34375 16.707031 C 18.449219 16.707031 18.550781 16.664062 18.621094 16.585938 C 18.691406 16.507812 18.726562 16.402344 18.714844 16.296875 C 18.558594 14.851562 17.609375 13.679688 16.324219 13.1875 C 16.773438 12.804688 17.0625 12.234375 17.0625 11.597656 C 17.0625 10.449219 16.125 9.511719 14.972656 9.511719 C 13.824219 9.511719 12.886719 10.449219 12.886719 11.597656 C 12.886719 12.234375 13.175781 12.804688 13.625 13.1875 C 12.339844 13.679688 11.386719 14.851562 11.234375 16.296875 Z M 13.632812 11.597656 C 13.632812 10.859375 14.234375 10.257812 14.972656 10.257812 C 15.714844 10.257812 16.3125 10.859375 16.3125 11.597656 C 16.3125 12.335938 15.714844 12.9375 14.972656 12.9375 C 14.234375 12.9375 13.632812 12.335938 13.632812 11.597656 Z M 14.972656 13.683594 C 16.375 13.683594 17.566406 14.636719 17.898438 15.960938 L 12.050781 15.960938 C 12.378906 14.636719 13.570312 13.683594 14.972656 13.683594 Z M 21.71875 17.40625 L 21.71875 21.046875 C 21.71875 21.253906 21.550781 21.421875 21.347656 21.421875 L 15.8125 21.421875 L 16.710938 22.167969 C 16.867188 22.300781 16.890625 22.535156 16.757812 22.695312 C 16.683594 22.78125 16.578125 22.828125 16.472656 22.828125 C 16.386719 22.828125 16.300781 22.800781 16.230469 22.742188 L 14.542969 21.335938 C 14.457031 21.261719 14.410156 21.160156 14.410156 21.046875 C 14.410156 20.9375 14.457031 20.832031 14.542969 20.761719 L 16.230469 19.355469 C 16.390625 19.222656 16.625 19.242188 16.757812 19.402344 C 16.890625 19.558594 16.867188 19.796875 16.710938 19.925781 L 15.8125 20.675781 L 20.972656 20.675781 L 20.972656 17.40625 C 20.972656 17.199219 21.140625 17.03125 21.347656 17.03125 C 21.550781 17.03125 21.71875 17.199219 21.71875 17.40625 Z M 8.0625 14.886719 L 8.0625 7.132812 C 8.0625 6.929688 8.230469 6.761719 8.4375 6.761719 L 13.96875 6.761719 L 13.074219 6.015625 C 12.914062 5.882812 12.894531 5.648438 13.027344 5.488281 C 13.160156 5.328125 13.394531 5.308594 13.550781 5.441406 L 15.242188 6.847656 C 15.324219 6.917969 15.375 7.023438 15.375 7.132812 C 15.375 7.246094 15.324219 7.351562 15.242188 7.421875 L 13.550781 8.828125 C 13.484375 8.886719 13.398438 8.914062 13.3125 8.914062 C 13.207031 8.914062 13.101562 8.871094 13.027344 8.78125 C 12.894531 8.621094 12.914062 8.386719 13.074219 8.253906 L 13.96875 7.507812 L 8.8125 7.507812 L 8.8125 14.886719 C 8.8125 15.09375 8.644531 15.261719 8.4375 15.261719 C 8.230469 15.261719 8.0625 15.09375 8.0625 14.886719 Z M 8.0625 14.886719 " fill-opacity="1" fill-rule="nonzero"/></g></svg>