<svg xmlns="http://www.w3.org/2000/svg" xmlns:xlink="http://www.w3.org/1999/xlink" width="40" zoomAndPan="magnify" viewBox="0 0 30 30.000001" height="40" preserveAspectRatio="xMidYMid meet" version="1.0"><defs><clipPath id="cbd08ea546"><path d="M 0.484375 0 L 29.515625 0 L 29.515625 29.03125 L 0.484375 29.03125 Z M 0.484375 0 " clip-rule="nonzero"/></clipPath><clipPath id="25200b34ce"><path d="M 8.132812 2.902344 L 21.925781 2.902344 L 21.925781 26.128906 L 8.132812 26.128906 Z M 8.132812 2.902344 " clip-rule="nonzero"/></clipPath></defs><g clip-path="url(#cbd08ea546)"><path fill="#ffffff" d="M 0.484375 0 L 29.515625 0 L 29.515625 29.03125 L 0.484375 29.03125 Z M 0.484375 0 " fill-opacity="1" fill-rule="nonzero"/><path fill="#ffffff" d="M 0.484375 0 L 29.515625 0 L 29.515625 29.03125 L 0.484375 29.03125 Z M 0.484375 0 " fill-opacity="1" fill-rule="nonzero"/></g><g clip-path="url(#25200b34ce)"><path fill="#935f3d" d="M 21.855469 15.902344 C 21.855469 15.425781 21.632812 15.003906 21.257812 14.753906 C 21.429688 14.527344 21.507812 14.253906 21.507812 13.953125 L 21.507812 13.832031 C 21.507812 13.082031 20.90625 12.484375 20.160156 12.484375 L 19.585938 12.484375 C 19.558594 12.484375 19.535156 12.484375 19.511719 12.484375 L 18.011719 12.484375 L 18.011719 9.515625 C 18.011719 9.515625 18.011719 9.488281 18.011719 9.488281 C 19.285156 8.890625 20.109375 7.59375 20.109375 6.195312 C 20.109375 4.847656 19.359375 3.625 18.1875 2.976562 C 18.0625 2.929688 17.9375 2.929688 17.8125 2.976562 C 17.714844 3.054688 17.640625 3.175781 17.640625 3.300781 L 17.640625 5.046875 C 17.640625 5.699219 17.117188 6.222656 16.46875 6.222656 C 15.816406 6.222656 15.292969 5.699219 15.292969 5.046875 L 15.292969 3.300781 C 15.292969 3.175781 15.21875 3.054688 15.121094 2.976562 C 14.996094 2.902344 14.871094 2.902344 14.746094 2.976562 C 13.546875 3.601562 12.824219 4.847656 12.824219 6.195312 C 12.824219 7.59375 13.648438 8.890625 14.921875 9.488281 C 14.921875 9.488281 14.921875 9.515625 14.921875 9.515625 L 14.921875 10.4375 C 14.371094 10.511719 13.871094 10.738281 13.5 11.136719 C 13.050781 11.585938 12.800781 12.207031 12.800781 12.855469 L 12.800781 13.753906 L 11.453125 13.753906 L 11.453125 13.355469 C 11.453125 13.15625 11.277344 12.980469 11.078125 12.980469 L 8.507812 12.980469 C 8.308594 12.980469 8.132812 13.15625 8.132812 13.355469 L 8.132812 20.566406 C 8.132812 20.765625 8.308594 20.941406 8.507812 20.941406 L 11.101562 20.941406 C 11.304688 20.941406 11.476562 20.765625 11.476562 20.566406 L 11.476562 20.167969 L 12.875 20.167969 C 12.972656 20.589844 13.273438 20.941406 13.648438 21.164062 C 13.898438 21.289062 14.148438 21.363281 14.421875 21.363281 L 14.921875 21.363281 L 14.921875 24.582031 C 14.921875 25.429688 15.617188 26.128906 16.46875 26.128906 C 17.316406 26.128906 18.011719 25.429688 18.011719 24.582031 L 18.011719 21.363281 L 19.761719 21.363281 C 20.507812 21.363281 21.105469 20.765625 21.105469 20.015625 L 21.105469 19.992188 C 21.105469 19.691406 21.007812 19.417969 20.832031 19.195312 C 21.207031 18.945312 21.429688 18.546875 21.429688 18.070312 L 21.429688 17.945312 C 21.429688 17.648438 21.332031 17.371094 21.183594 17.148438 C 21.554688 16.921875 21.832031 16.472656 21.832031 16 C 21.832031 15.976562 21.832031 15.976562 21.832031 15.949219 C 21.855469 15.925781 21.855469 15.902344 21.855469 15.902344 Z M 13.574219 6.195312 C 13.574219 5.347656 13.945312 4.574219 14.546875 4.027344 L 14.546875 5.046875 C 14.546875 6.097656 15.394531 6.96875 16.46875 6.96875 C 17.539062 6.96875 18.386719 6.121094 18.386719 5.046875 L 18.386719 4.027344 C 19.011719 4.574219 19.359375 5.347656 19.359375 6.195312 C 19.359375 7.394531 18.613281 8.492188 17.488281 8.914062 C 17.316406 8.992188 17.214844 9.164062 17.265625 9.339844 C 17.289062 9.414062 17.289062 9.464844 17.289062 9.515625 L 17.289062 12.484375 L 15.695312 12.484375 C 15.695312 12.484375 15.695312 12.457031 15.695312 12.457031 L 15.695312 9.515625 C 15.695312 9.464844 15.695312 9.390625 15.71875 9.339844 C 15.769531 9.164062 15.667969 8.964844 15.492188 8.914062 C 14.347656 8.492188 13.574219 7.394531 13.574219 6.195312 Z M 10.730469 20.167969 L 8.882812 20.167969 L 8.882812 13.707031 L 10.730469 13.707031 Z M 16.492188 25.378906 C 16.042969 25.378906 15.695312 25.03125 15.695312 24.582031 L 15.695312 21.363281 L 17.289062 21.363281 L 17.289062 24.582031 C 17.289062 25.007812 16.914062 25.378906 16.492188 25.378906 Z M 21.105469 15.949219 L 21.105469 15.976562 C 21.105469 16.300781 20.832031 16.574219 20.507812 16.574219 L 20.207031 16.574219 C 20.007812 16.574219 19.859375 16.722656 19.835938 16.921875 C 19.808594 17.125 19.960938 17.296875 20.160156 17.324219 C 20.234375 17.324219 20.285156 17.347656 20.332031 17.371094 C 20.558594 17.472656 20.707031 17.671875 20.707031 17.921875 L 20.707031 18.046875 C 20.707031 18.371094 20.433594 18.644531 20.109375 18.644531 L 20.007812 18.644531 C 19.835938 18.644531 19.660156 18.769531 19.636719 18.96875 C 19.609375 19.144531 19.710938 19.320312 19.910156 19.394531 C 20.183594 19.46875 20.359375 19.71875 20.359375 19.992188 C 20.359375 19.992188 20.359375 19.992188 20.359375 20.015625 C 20.359375 20.339844 20.085938 20.617188 19.761719 20.617188 L 14.445312 20.617188 C 14.296875 20.617188 14.148438 20.589844 14.023438 20.515625 C 13.746094 20.367188 13.574219 20.09375 13.574219 19.792969 C 13.574219 19.59375 13.398438 19.417969 13.199219 19.417969 L 11.476562 19.417969 L 11.476562 14.480469 L 13.199219 14.480469 C 13.222656 14.480469 13.222656 14.480469 13.222656 14.480469 C 13.222656 14.480469 13.25 14.480469 13.25 14.480469 C 13.25 14.480469 13.273438 14.480469 13.273438 14.480469 C 13.273438 14.480469 13.296875 14.480469 13.296875 14.480469 C 13.296875 14.480469 13.324219 14.480469 13.324219 14.453125 C 13.324219 14.453125 13.347656 14.453125 13.347656 14.429688 C 13.347656 14.429688 13.375 14.402344 13.375 14.402344 C 13.375 14.402344 13.398438 14.378906 13.398438 14.378906 C 13.398438 14.378906 13.421875 14.355469 13.421875 14.355469 C 13.421875 14.355469 13.449219 14.328125 13.449219 14.328125 C 13.449219 14.328125 13.449219 14.304688 13.472656 14.304688 C 13.472656 14.304688 13.5 14.277344 13.5 14.277344 C 13.5 14.277344 13.5 14.253906 13.5 14.253906 C 13.5 14.253906 13.5 14.230469 13.5 14.230469 C 13.5 14.203125 13.5 14.203125 13.5 14.179688 C 13.5 14.179688 13.5 14.15625 13.5 14.15625 L 13.472656 12.882812 C 13.472656 12.433594 13.648438 12.007812 13.945312 11.710938 C 14.171875 11.484375 14.445312 11.335938 14.746094 11.261719 L 14.746094 12.90625 C 14.746094 12.90625 14.746094 12.933594 14.746094 12.933594 C 14.746094 12.957031 14.746094 12.957031 14.746094 12.980469 C 14.746094 12.980469 14.746094 13.007812 14.746094 13.007812 C 14.746094 13.03125 14.746094 13.03125 14.746094 13.058594 C 14.746094 13.058594 14.746094 13.082031 14.769531 13.082031 C 14.769531 13.082031 14.769531 13.105469 14.796875 13.105469 C 14.796875 13.105469 14.820312 13.132812 14.820312 13.132812 C 14.820312 13.132812 14.84375 13.15625 14.84375 13.15625 C 14.84375 13.15625 14.871094 13.179688 14.871094 13.179688 C 14.871094 13.179688 14.894531 13.207031 14.894531 13.207031 C 14.894531 13.207031 14.921875 13.207031 14.921875 13.230469 C 14.921875 13.230469 14.945312 13.257812 14.945312 13.257812 C 14.945312 13.257812 14.96875 13.257812 14.96875 13.257812 C 14.96875 13.257812 14.996094 13.257812 14.996094 13.257812 C 14.996094 13.257812 15.019531 13.257812 15.019531 13.257812 C 15.042969 13.257812 15.042969 13.257812 15.070312 13.257812 L 17.515625 13.28125 L 17.839844 13.28125 C 17.863281 13.28125 17.890625 13.28125 17.914062 13.28125 L 20.035156 13.28125 C 20.359375 13.28125 20.632812 13.554688 20.632812 13.878906 L 20.632812 14.003906 C 20.632812 14.277344 20.457031 14.503906 20.183594 14.578125 C 20.007812 14.628906 19.882812 14.804688 19.910156 14.976562 C 19.933594 15.152344 20.234375 15.277344 20.410156 15.277344 L 20.507812 15.277344 C 20.832031 15.277344 21.105469 15.550781 21.105469 15.875 L 21.105469 15.925781 C 21.105469 15.925781 21.105469 15.925781 21.105469 15.949219 Z M 21.105469 15.949219 " fill-opacity="1" fill-rule="nonzero"/></g><path fill="#935f3d" d="M 9.804688 17.945312 C 9.605469 17.945312 9.433594 18.121094 9.433594 18.320312 L 9.433594 19.21875 C 9.433594 19.417969 9.605469 19.59375 9.804688 19.59375 C 10.003906 19.59375 10.179688 19.417969 10.179688 19.21875 L 10.179688 18.320312 C 10.179688 18.121094 10.003906 17.945312 9.804688 17.945312 Z M 9.804688 17.945312 " fill-opacity="1" fill-rule="nonzero"/></svg>