<svg xmlns="http://www.w3.org/2000/svg" xmlns:xlink="http://www.w3.org/1999/xlink" width="40" zoomAndPan="magnify" viewBox="0 0 30 30.000001" height="40" preserveAspectRatio="xMidYMid meet" version="1.0"><defs><clipPath id="eb6f7febc9"><path d="M 0.484375 0 L 29.515625 0 L 29.515625 29.03125 L 0.484375 29.03125 Z M 0.484375 0 " clip-rule="nonzero"/></clipPath><clipPath id="0e66508e86"><path d="M 5.390625 3 L 24.261719 3 L 24.261719 26.128906 L 5.390625 26.128906 Z M 5.390625 3 " clip-rule="nonzero"/></clipPath></defs><g clip-path="url(#eb6f7febc9)"><path fill="#ffffff" d="M 0.484375 0 L 29.515625 0 L 29.515625 29.03125 L 0.484375 29.03125 Z M 0.484375 0 " fill-opacity="1" fill-rule="nonzero"/><path fill="#ffffff" d="M 0.484375 0 L 29.515625 0 L 29.515625 29.03125 L 0.484375 29.03125 Z M 0.484375 0 " fill-opacity="1" fill-rule="nonzero"/></g><g clip-path="url(#0e66508e86)"><path fill="#935f3d" d="M 18.203125 12.804688 L 21 12.804688 C 21.109375 12.804688 21.195312 12.761719 21.257812 12.675781 C 21.320312 12.585938 21.335938 12.492188 21.304688 12.390625 C 21.1875 12.015625 20.988281 11.699219 20.699219 11.433594 C 20.410156 11.167969 20.074219 10.996094 19.691406 10.914062 C 19.308594 10.828125 18.933594 10.847656 18.558594 10.96875 C 18.1875 11.089844 17.871094 11.296875 17.609375 11.585938 C 17.894531 11.949219 18.089844 12.355469 18.203125 12.804688 Z M 12.203125 18.453125 C 13.054688 19.320312 14.035156 18.921875 14.972656 18.542969 C 15.722656 18.238281 16.445312 17.945312 17.148438 18.136719 C 17.285156 18.175781 17.417969 18.234375 17.546875 18.304688 L 20.683594 20.09375 C 20.808594 20.164062 20.917969 20.253906 21.011719 20.359375 L 21.292969 20.246094 L 19.730469 16.214844 C 19.105469 16.496094 18.546875 16.269531 17.917969 16.011719 C 17.257812 15.742188 16.5 15.429688 15.515625 15.910156 C 15.066406 16.128906 14.652344 16.472656 14.304688 16.824219 C 13.960938 17.167969 13.597656 17.484375 13.210938 17.773438 C 12.890625 18.011719 12.554688 18.238281 12.203125 18.453125 Z M 8.117188 13.679688 L 5.59375 19.390625 C 5.53125 19.527344 5.53125 19.667969 5.585938 19.808594 C 5.640625 19.953125 5.734375 20.050781 5.875 20.113281 L 6.972656 20.601562 C 7.113281 20.660156 7.25 20.664062 7.394531 20.609375 C 7.535156 20.554688 7.636719 20.457031 7.695312 20.320312 L 10.222656 14.609375 C 10.28125 14.472656 10.285156 14.332031 10.230469 14.191406 C 10.175781 14.050781 10.078125 13.949219 9.941406 13.886719 L 8.839844 13.398438 C 8.703125 13.339844 8.5625 13.335938 8.421875 13.390625 C 8.28125 13.445312 8.179688 13.542969 8.117188 13.679688 Z M 22.152344 14.085938 L 24.40625 19.90625 C 24.460938 20.046875 24.457031 20.1875 24.398438 20.328125 C 24.335938 20.464844 24.234375 20.5625 24.09375 20.617188 L 22.972656 21.050781 C 22.832031 21.105469 22.691406 21.101562 22.554688 21.042969 C 22.414062 20.980469 22.320312 20.878906 22.261719 20.738281 L 20.007812 14.917969 C 19.953125 14.777344 19.957031 14.636719 20.015625 14.496094 C 20.078125 14.359375 20.179688 14.261719 20.320312 14.207031 L 21.441406 13.773438 C 21.582031 13.71875 21.722656 13.722656 21.859375 13.78125 C 22 13.84375 22.097656 13.945312 22.152344 14.085938 Z M 21.289062 14.671875 C 21.1875 14.671875 21.097656 14.710938 21.027344 14.78125 C 20.953125 14.855469 20.917969 14.945312 20.917969 15.046875 C 20.917969 15.148438 20.953125 15.238281 21.027344 15.3125 C 21.097656 15.382812 21.1875 15.421875 21.289062 15.421875 C 21.394531 15.421875 21.480469 15.382812 21.554688 15.3125 C 21.628906 15.238281 21.664062 15.148438 21.664062 15.046875 C 21.664062 14.945312 21.628906 14.855469 21.554688 14.78125 C 21.480469 14.710938 21.394531 14.671875 21.289062 14.671875 Z M 8.949219 14.308594 C 9.054688 14.3125 9.140625 14.351562 9.207031 14.429688 C 9.277344 14.503906 9.308594 14.59375 9.304688 14.699219 C 9.300781 14.800781 9.261719 14.886719 9.183594 14.957031 C 9.109375 15.027344 9.019531 15.058594 8.914062 15.054688 C 8.8125 15.046875 8.726562 15.007812 8.65625 14.929688 C 8.585938 14.855469 8.554688 14.765625 8.558594 14.664062 C 8.5625 14.558594 8.605469 14.472656 8.679688 14.402344 C 8.757812 14.335938 8.847656 14.300781 8.949219 14.308594 Z M 16.175781 24.636719 C 16.152344 24.792969 16.105469 24.941406 16.03125 25.078125 L 15.730469 25.644531 C 15.835938 25.703125 15.945312 25.765625 16.046875 25.824219 C 16.175781 25.890625 16.308594 25.902344 16.449219 25.863281 C 16.589844 25.820312 16.695312 25.738281 16.765625 25.609375 C 16.84375 25.476562 16.859375 25.339844 16.816406 25.191406 C 16.777344 25.042969 16.6875 24.933594 16.554688 24.859375 Z M 12.09375 24.707031 C 12.074219 24.835938 12.097656 24.960938 12.164062 25.074219 C 12.226562 25.1875 12.320312 25.269531 12.441406 25.320312 C 12.566406 25.371094 12.6875 25.378906 12.816406 25.339844 C 12.941406 25.304688 13.042969 25.230469 13.121094 25.125 L 13.839844 23.753906 C 13.875 23.628906 13.863281 23.503906 13.8125 23.382812 C 13.757812 23.261719 13.671875 23.171875 13.558594 23.109375 C 13.441406 23.046875 13.320312 23.027344 13.191406 23.050781 C 13.0625 23.074219 12.953125 23.132812 12.863281 23.234375 Z M 12.222656 22.96875 L 11.414062 24.480469 C 11.339844 24.625 11.230469 24.71875 11.078125 24.765625 C 10.925781 24.816406 10.777344 24.800781 10.636719 24.726562 C 10.496094 24.652344 10.402344 24.539062 10.359375 24.386719 C 10.3125 24.234375 10.328125 24.085938 10.40625 23.949219 L 11.234375 22.402344 C 11.445312 22.210938 11.679688 22.105469 11.957031 22.253906 C 12.238281 22.40625 12.296875 22.683594 12.222656 22.96875 Z M 10.726562 21.917969 C 10.789062 21.777344 10.796875 21.636719 10.742188 21.492188 C 10.691406 21.347656 10.597656 21.238281 10.460938 21.171875 C 10.320312 21.101562 10.179688 21.09375 10.03125 21.140625 C 9.886719 21.1875 9.777344 21.277344 9.703125 21.414062 L 9.128906 22.492188 C 9.0625 22.613281 9.042969 22.742188 9.074219 22.878906 C 9.101562 23.015625 9.171875 23.125 9.28125 23.210938 C 9.390625 23.296875 9.515625 23.335938 9.652344 23.328125 C 9.792969 23.324219 9.914062 23.273438 10.015625 23.179688 Z M 13.777344 25.402344 L 14.464844 24.089844 C 14.558594 23.980469 14.679688 23.917969 14.824219 23.902344 C 14.964844 23.886719 15.097656 23.917969 15.214844 24 C 15.332031 24.085938 15.410156 24.195312 15.441406 24.335938 C 15.476562 24.476562 15.460938 24.609375 15.390625 24.738281 L 14.839844 25.769531 C 14.773438 25.894531 14.675781 25.980469 14.542969 26.03125 C 14.414062 26.082031 14.28125 26.085938 14.148438 26.039062 C 14.015625 25.992188 13.914062 25.910156 13.84375 25.789062 C 13.773438 25.667969 13.75 25.539062 13.777344 25.402344 Z M 8.71875 19.8125 L 10.480469 15.828125 L 10.53125 15.851562 C 11.175781 16.210938 11.769531 16.070312 12.410156 15.921875 C 12.957031 15.792969 13.546875 15.652344 14.210938 15.921875 C 13.710938 16.34375 13.316406 16.785156 12.773438 17.191406 C 12.386719 17.480469 11.988281 17.742188 11.574219 17.984375 C 11.449219 18.054688 11.375 18.160156 11.347656 18.300781 C 11.320312 18.441406 11.351562 18.566406 11.4375 18.679688 C 12.667969 20.261719 13.992188 19.726562 15.246094 19.21875 C 15.972656 18.921875 16.667969 18.640625 17.1875 18.9375 L 20.324219 20.726562 C 20.457031 20.800781 20.542969 20.910156 20.585938 21.054688 C 20.625 21.199219 20.613281 21.335938 20.539062 21.46875 C 20.46875 21.597656 20.363281 21.683594 20.222656 21.726562 C 20.078125 21.765625 19.945312 21.753906 19.8125 21.683594 C 19.101562 21.269531 18.367188 20.875 17.652344 20.464844 C 17.5625 20.414062 17.472656 20.402344 17.375 20.429688 C 17.277344 20.457031 17.203125 20.511719 17.152344 20.601562 C 17.105469 20.6875 17.09375 20.777344 17.117188 20.875 C 17.144531 20.972656 17.203125 21.046875 17.289062 21.097656 C 18.007812 21.507812 18.730469 21.910156 19.453125 22.316406 C 19.582031 22.386719 19.667969 22.496094 19.710938 22.636719 C 19.75 22.78125 19.738281 22.917969 19.667969 23.050781 C 19.597656 23.179688 19.488281 23.265625 19.347656 23.3125 C 19.207031 23.355469 19.070312 23.34375 18.9375 23.273438 C 18.003906 22.726562 17.035156 22.203125 16.089844 21.671875 C 16.003906 21.625 15.910156 21.613281 15.816406 21.640625 C 15.71875 21.667969 15.648438 21.726562 15.597656 21.8125 C 15.550781 21.902344 15.539062 21.992188 15.566406 22.089844 C 15.59375 22.183594 15.648438 22.257812 15.734375 22.308594 C 16.507812 22.742188 17.28125 23.183594 18.054688 23.617188 C 18.183594 23.6875 18.273438 23.796875 18.316406 23.941406 C 18.359375 24.085938 18.34375 24.222656 18.273438 24.355469 C 18.199219 24.488281 18.09375 24.574219 17.949219 24.617188 C 17.804688 24.660156 17.667969 24.644531 17.535156 24.574219 L 15.886719 23.640625 C 15.722656 23.441406 15.515625 23.304688 15.269531 23.230469 C 15.023438 23.152344 14.773438 23.152344 14.527344 23.222656 C 14.476562 23.0625 14.394531 22.914062 14.285156 22.785156 C 14.179688 22.65625 14.050781 22.550781 13.902344 22.46875 C 13.75 22.390625 13.589844 22.339844 13.421875 22.324219 C 13.253906 22.304688 13.089844 22.320312 12.925781 22.367188 C 12.828125 22.0625 12.644531 21.824219 12.371094 21.65625 C 12.097656 21.484375 11.804688 21.425781 11.484375 21.476562 C 11.449219 21.242188 11.355469 21.035156 11.203125 20.851562 C 11.050781 20.667969 10.863281 20.539062 10.636719 20.460938 C 10.414062 20.378906 10.1875 20.363281 9.953125 20.410156 C 9.71875 20.457031 9.515625 20.558594 9.339844 20.71875 C 9.261719 20.34375 9.140625 19.988281 8.71875 19.8125 Z M 22.667969 9.0625 C 23.46875 10.441406 23.871094 11.929688 23.867188 13.523438 C 23.867188 13.625 23.902344 13.710938 23.972656 13.78125 C 24.046875 13.851562 24.132812 13.886719 24.230469 13.886719 C 24.332031 13.886719 24.417969 13.851562 24.488281 13.78125 C 24.5625 13.710938 24.597656 13.625 24.597656 13.523438 C 24.597656 11.796875 24.164062 10.1875 23.296875 8.699219 C 23.246094 8.613281 23.171875 8.554688 23.074219 8.53125 C 22.980469 8.503906 22.886719 8.515625 22.800781 8.566406 C 22.714844 8.617188 22.65625 8.691406 22.628906 8.789062 C 22.605469 8.882812 22.617188 8.976562 22.667969 9.0625 Z M 6.613281 8.140625 C 6.515625 8.164062 6.425781 8.152344 6.339844 8.105469 C 6.25 8.054688 6.195312 7.984375 6.167969 7.886719 C 6.140625 7.792969 6.152344 7.699219 6.199219 7.613281 C 6.246094 7.527344 6.316406 7.46875 6.414062 7.4375 L 7.953125 7 C 8.34375 6.578125 8.769531 6.191406 9.234375 5.84375 C 9.695312 5.5 10.183594 5.195312 10.699219 4.9375 C 11.214844 4.679688 11.75 4.46875 12.304688 4.308594 C 12.859375 4.144531 13.421875 4.035156 13.996094 3.976562 C 14.570312 3.914062 15.144531 3.90625 15.71875 3.949219 C 16.296875 3.992188 16.863281 4.089844 17.421875 4.234375 C 17.980469 4.378906 18.519531 4.574219 19.042969 4.816406 C 19.566406 5.0625 20.0625 5.347656 20.535156 5.683594 L 20.378906 5.140625 C 20.351562 5.042969 20.363281 4.953125 20.414062 4.863281 C 20.460938 4.777344 20.535156 4.71875 20.632812 4.691406 C 20.726562 4.664062 20.820312 4.675781 20.90625 4.722656 C 20.992188 4.773438 21.050781 4.84375 21.078125 4.941406 L 21.546875 6.578125 C 21.582031 6.699219 21.558594 6.804688 21.484375 6.902344 C 21.40625 7 21.308594 7.046875 21.183594 7.042969 L 19.507812 7.101562 C 19.40625 7.105469 19.320312 7.074219 19.246094 7.003906 C 19.171875 6.9375 19.136719 6.851562 19.132812 6.753906 C 19.128906 6.652344 19.160156 6.566406 19.230469 6.492188 C 19.296875 6.417969 19.382812 6.378906 19.480469 6.375 L 20.21875 6.351562 C 19.785156 6.035156 19.324219 5.761719 18.84375 5.527344 C 18.359375 5.296875 17.859375 5.109375 17.339844 4.964844 C 16.824219 4.824219 16.296875 4.730469 15.761719 4.683594 C 15.226562 4.636719 14.691406 4.640625 14.160156 4.691406 C 13.625 4.742188 13.097656 4.839844 12.582031 4.984375 C 12.066406 5.132812 11.566406 5.324219 11.085938 5.558594 C 10.605469 5.796875 10.148438 6.074219 9.714844 6.394531 C 9.285156 6.710938 8.886719 7.066406 8.519531 7.460938 L 8.574219 9.011719 C 8.578125 9.113281 8.546875 9.199219 8.476562 9.273438 C 8.410156 9.347656 8.324219 9.386719 8.226562 9.386719 C 8.125 9.390625 8.039062 9.359375 7.964844 9.289062 C 7.890625 9.222656 7.851562 9.136719 7.847656 9.039062 L 7.824219 8.300781 C 6.6875 9.855469 6.121094 11.597656 6.125 13.523438 C 6.125 13.625 6.089844 13.710938 6.015625 13.78125 C 5.945312 13.851562 5.859375 13.886719 5.757812 13.886719 C 5.660156 13.886719 5.574219 13.851562 5.503906 13.78125 C 5.429688 13.710938 5.394531 13.625 5.394531 13.523438 C 5.390625 11.488281 5.976562 9.644531 7.152344 7.984375 Z M 14.996094 7.972656 C 14.824219 7.972656 14.65625 8.003906 14.496094 8.070312 C 14.335938 8.136719 14.195312 8.230469 14.074219 8.351562 C 13.953125 8.476562 13.855469 8.617188 13.792969 8.777344 C 13.726562 8.9375 13.691406 9.101562 13.691406 9.277344 C 13.691406 9.449219 13.726562 9.613281 13.789062 9.773438 C 13.855469 9.933594 13.953125 10.074219 14.074219 10.199219 C 14.195312 10.320312 14.335938 10.414062 14.496094 10.480469 C 14.65625 10.546875 14.824219 10.578125 14.996094 10.578125 C 15.167969 10.578125 15.335938 10.546875 15.496094 10.480469 C 15.65625 10.414062 15.796875 10.320312 15.917969 10.199219 C 16.039062 10.074219 16.132812 9.933594 16.199219 9.773438 C 16.265625 9.613281 16.300781 9.449219 16.300781 9.277344 C 16.300781 9.101562 16.265625 8.9375 16.199219 8.777344 C 16.132812 8.617188 16.039062 8.476562 15.917969 8.351562 C 15.796875 8.230469 15.65625 8.136719 15.496094 8.070312 C 15.335938 8.003906 15.167969 7.972656 14.996094 7.972656 Z M 12.816406 13.335938 L 17.175781 13.335938 C 17.28125 13.335938 17.367188 13.296875 17.429688 13.210938 C 17.492188 13.128906 17.511719 13.035156 17.484375 12.933594 C 17.410156 12.660156 17.292969 12.40625 17.136719 12.171875 C 16.976562 11.9375 16.785156 11.734375 16.5625 11.5625 C 16.335938 11.390625 16.089844 11.261719 15.820312 11.171875 C 15.554688 11.082031 15.277344 11.035156 14.996094 11.035156 C 14.714844 11.035156 14.4375 11.082031 14.167969 11.171875 C 13.902344 11.261719 13.65625 11.390625 13.429688 11.5625 C 13.207031 11.734375 13.015625 11.9375 12.855469 12.171875 C 12.699219 12.40625 12.582031 12.660156 12.507812 12.933594 C 12.480469 13.035156 12.496094 13.128906 12.5625 13.210938 C 12.625 13.296875 12.710938 13.335938 12.816406 13.335938 Z M 10.761719 8.210938 C 10.617188 8.210938 10.476562 8.238281 10.339844 8.292969 C 10.207031 8.347656 10.089844 8.429688 9.984375 8.53125 C 9.882812 8.632812 9.800781 8.753906 9.746094 8.886719 C 9.691406 9.023438 9.664062 9.164062 9.664062 9.308594 C 9.664062 9.453125 9.691406 9.59375 9.746094 9.730469 C 9.800781 9.863281 9.882812 9.984375 9.984375 10.085938 C 10.089844 10.1875 10.207031 10.269531 10.339844 10.324219 C 10.476562 10.378906 10.617188 10.40625 10.761719 10.40625 C 10.90625 10.40625 11.046875 10.378906 11.183594 10.324219 C 11.316406 10.269531 11.4375 10.1875 11.539062 10.085938 C 11.644531 9.984375 11.722656 9.863281 11.777344 9.730469 C 11.832031 9.59375 11.863281 9.453125 11.863281 9.308594 C 11.863281 9.164062 11.832031 9.023438 11.777344 8.886719 C 11.722656 8.753906 11.644531 8.632812 11.539062 8.53125 C 11.4375 8.429688 11.316406 8.347656 11.183594 8.292969 C 11.046875 8.238281 10.90625 8.210938 10.761719 8.210938 Z M 19.230469 8.210938 C 19.082031 8.210938 18.945312 8.238281 18.808594 8.292969 C 18.675781 8.347656 18.554688 8.429688 18.453125 8.53125 C 18.347656 8.632812 18.269531 8.753906 18.214844 8.886719 C 18.15625 9.023438 18.128906 9.164062 18.128906 9.308594 C 18.128906 9.453125 18.15625 9.59375 18.214844 9.730469 C 18.269531 9.863281 18.347656 9.984375 18.453125 10.085938 C 18.554688 10.1875 18.675781 10.269531 18.808594 10.324219 C 18.945312 10.378906 19.082031 10.40625 19.230469 10.40625 C 19.375 10.40625 19.515625 10.378906 19.648438 10.324219 C 19.785156 10.269531 19.902344 10.1875 20.007812 10.085938 C 20.109375 9.984375 20.191406 9.863281 20.246094 9.730469 C 20.300781 9.59375 20.328125 9.453125 20.328125 9.308594 C 20.328125 9.164062 20.300781 9.023438 20.246094 8.886719 C 20.191406 8.753906 20.109375 8.632812 20.007812 8.53125 C 19.902344 8.429688 19.785156 8.347656 19.648438 8.292969 C 19.515625 8.238281 19.375 8.210938 19.230469 8.210938 Z M 8.992188 12.804688 L 11.789062 12.804688 C 11.902344 12.355469 12.097656 11.949219 12.382812 11.585938 C 12.121094 11.296875 11.804688 11.089844 11.433594 10.96875 C 11.058594 10.847656 10.683594 10.828125 10.300781 10.914062 C 9.917969 10.996094 9.582031 11.167969 9.292969 11.433594 C 9.003906 11.699219 8.800781 12.015625 8.6875 12.390625 C 8.652344 12.492188 8.667969 12.585938 8.734375 12.675781 C 8.796875 12.761719 8.882812 12.804688 8.992188 12.804688 Z M 8.992188 12.804688 " fill-opacity="1" fill-rule="evenodd"/></g></svg>