<svg xmlns="http://www.w3.org/2000/svg" xmlns:xlink="http://www.w3.org/1999/xlink" width="40" zoomAndPan="magnify" viewBox="0 0 30 30.000001" height="40" preserveAspectRatio="xMidYMid meet" version="1.0"><defs><clipPath id="faf7d82f87"><path d="M 0.484375 0 L 29.515625 0 L 29.515625 29.03125 L 0.484375 29.03125 Z M 0.484375 0 " clip-rule="nonzero"/></clipPath><clipPath id="52e060ecc8"><path d="M 4 7.082031 L 8 7.082031 L 8 10 L 4 10 Z M 4 7.082031 " clip-rule="nonzero"/></clipPath><clipPath id="b30c017ed2"><path d="M 22 7.082031 L 26 7.082031 L 26 10 L 22 10 Z M 22 7.082031 " clip-rule="nonzero"/></clipPath><clipPath id="ceaf0520ba"><path d="M 3.386719 9 L 26.613281 9 L 26.613281 21.601562 L 3.386719 21.601562 Z M 3.386719 9 " clip-rule="nonzero"/></clipPath><clipPath id="fbc53be46d"><path d="M 13 7.082031 L 17 7.082031 L 17 10 L 13 10 Z M 13 7.082031 " clip-rule="nonzero"/></clipPath></defs><g clip-path="url(#faf7d82f87)"><path fill="#ffffff" d="M 0.484375 0 L 29.515625 0 L 29.515625 29.03125 L 0.484375 29.03125 Z M 0.484375 0 " fill-opacity="1" fill-rule="nonzero"/><path fill="#ffffff" d="M 0.484375 0 L 29.515625 0 L 29.515625 29.03125 L 0.484375 29.03125 Z M 0.484375 0 " fill-opacity="1" fill-rule="nonzero"/></g><path fill="#935f3d" d="M 14.882812 16.367188 L 14.304688 16.367188 L 14.304688 17.53125 L 14.882812 17.53125 C 15.203125 17.53125 15.464844 17.269531 15.464844 16.949219 C 15.464844 16.628906 15.203125 16.367188 14.882812 16.367188 Z M 14.882812 16.367188 " fill-opacity="1" fill-rule="nonzero"/><g clip-path="url(#52e060ecc8)"><path fill="#935f3d" d="M 7.570312 8.476562 C 7.570312 8.660156 7.535156 8.839844 7.464844 9.007812 C 7.394531 9.179688 7.292969 9.332031 7.164062 9.460938 C 7.035156 9.59375 6.882812 9.691406 6.710938 9.761719 C 6.542969 9.835938 6.363281 9.871094 6.179688 9.871094 C 5.996094 9.871094 5.816406 9.835938 5.644531 9.761719 C 5.476562 9.691406 5.324219 9.59375 5.195312 9.460938 C 5.0625 9.332031 4.964844 9.179688 4.890625 9.007812 C 4.820312 8.839844 4.785156 8.660156 4.785156 8.476562 C 4.785156 8.292969 4.820312 8.113281 4.890625 7.945312 C 4.964844 7.773438 5.0625 7.621094 5.195312 7.492188 C 5.324219 7.359375 5.476562 7.261719 5.644531 7.191406 C 5.816406 7.121094 5.996094 7.082031 6.179688 7.082031 C 6.363281 7.082031 6.542969 7.121094 6.710938 7.191406 C 6.882812 7.261719 7.035156 7.359375 7.164062 7.492188 C 7.292969 7.621094 7.394531 7.773438 7.464844 7.945312 C 7.535156 8.113281 7.570312 8.292969 7.570312 8.476562 Z M 7.570312 8.476562 " fill-opacity="1" fill-rule="nonzero"/></g><g clip-path="url(#b30c017ed2)"><path fill="#935f3d" d="M 25.214844 8.476562 C 25.214844 8.660156 25.179688 8.839844 25.109375 9.007812 C 25.035156 9.179688 24.9375 9.332031 24.804688 9.460938 C 24.675781 9.59375 24.523438 9.691406 24.355469 9.761719 C 24.183594 9.835938 24.003906 9.871094 23.820312 9.871094 C 23.636719 9.871094 23.457031 9.835938 23.289062 9.761719 C 23.117188 9.691406 22.964844 9.59375 22.835938 9.460938 C 22.707031 9.332031 22.605469 9.179688 22.535156 9.007812 C 22.464844 8.839844 22.429688 8.660156 22.429688 8.476562 C 22.429688 8.292969 22.464844 8.113281 22.535156 7.945312 C 22.605469 7.773438 22.707031 7.621094 22.835938 7.492188 C 22.964844 7.359375 23.117188 7.261719 23.289062 7.191406 C 23.457031 7.121094 23.636719 7.082031 23.820312 7.082031 C 24.003906 7.082031 24.183594 7.121094 24.355469 7.191406 C 24.523438 7.261719 24.675781 7.359375 24.804688 7.492188 C 24.9375 7.621094 25.035156 7.773438 25.109375 7.945312 C 25.179688 8.113281 25.214844 8.292969 25.214844 8.476562 Z M 25.214844 8.476562 " fill-opacity="1" fill-rule="nonzero"/></g><g clip-path="url(#ceaf0520ba)"><path fill="#935f3d" d="M 25.742188 9.824219 C 25.734375 9.820312 25.730469 9.820312 25.71875 9.8125 C 25.296875 10.40625 24.605469 10.796875 23.820312 10.796875 C 23.035156 10.796875 22.34375 10.40625 21.921875 9.8125 C 21.914062 9.820312 21.910156 9.820312 21.898438 9.824219 C 21.375 10.058594 21.035156 10.59375 21.035156 11.1875 L 21.035156 12.191406 C 21.035156 12.445312 21.246094 12.65625 21.5 12.65625 L 24.285156 12.65625 L 24.285156 16.832031 C 24.285156 17.089844 24.078125 17.296875 23.820312 17.296875 L 22.890625 17.296875 L 22.890625 14.976562 C 22.890625 14.207031 22.269531 13.582031 21.5 13.582031 L 15.464844 13.582031 L 15.464844 12.65625 L 17.320312 12.65625 C 17.578125 12.65625 17.785156 12.445312 17.785156 12.191406 L 17.785156 11.1875 C 17.785156 10.59375 17.445312 10.058594 16.921875 9.824219 C 16.914062 9.820312 16.90625 9.820312 16.898438 9.8125 C 16.476562 10.40625 15.785156 10.796875 15 10.796875 C 14.214844 10.796875 13.523438 10.40625 13.101562 9.8125 C 13.09375 9.820312 13.085938 9.820312 13.078125 9.824219 C 12.554688 10.058594 12.214844 10.59375 12.214844 11.1875 L 12.214844 12.191406 C 12.214844 12.445312 12.421875 12.65625 12.679688 12.65625 L 14.535156 12.65625 L 14.535156 13.582031 L 8.5 13.582031 C 7.730469 13.582031 7.109375 14.207031 7.109375 14.976562 L 7.109375 17.296875 L 6.179688 17.296875 C 5.921875 17.296875 5.714844 17.089844 5.714844 16.832031 L 5.714844 12.65625 L 8.5 12.65625 C 8.753906 12.65625 8.964844 12.445312 8.964844 12.191406 L 8.964844 11.1875 C 8.964844 10.59375 8.625 10.058594 8.101562 9.824219 C 8.089844 9.820312 8.085938 9.820312 8.078125 9.8125 C 7.65625 10.40625 6.964844 10.796875 6.179688 10.796875 C 5.394531 10.796875 4.703125 10.40625 4.28125 9.8125 C 4.269531 9.820312 4.265625 9.820312 4.257812 9.824219 C 3.730469 10.058594 3.394531 10.59375 3.394531 11.1875 L 3.394531 12.191406 C 3.394531 12.445312 3.601562 12.65625 3.859375 12.65625 L 4.785156 12.65625 L 4.785156 16.832031 C 4.785156 17.601562 5.410156 18.226562 6.179688 18.226562 L 7.109375 18.226562 L 7.109375 20.546875 C 7.109375 21.316406 7.730469 21.941406 8.5 21.941406 L 21.5 21.941406 C 22.269531 21.941406 22.890625 21.316406 22.890625 20.546875 L 22.890625 18.226562 L 23.820312 18.226562 C 24.589844 18.226562 25.214844 17.601562 25.214844 16.832031 L 25.214844 12.65625 L 26.140625 12.65625 C 26.398438 12.65625 26.605469 12.445312 26.605469 12.191406 L 26.605469 11.1875 C 26.605469 10.59375 26.269531 10.058594 25.742188 9.824219 Z M 11.285156 19.15625 C 11.53125 19.15625 11.765625 19.089844 11.984375 18.964844 C 12.203125 18.839844 12.488281 18.914062 12.617188 19.136719 C 12.746094 19.359375 12.667969 19.640625 12.445312 19.769531 C 12.089844 19.976562 11.691406 20.082031 11.285156 20.082031 C 10.007812 20.082031 8.964844 19.042969 8.964844 17.761719 C 8.964844 16.480469 10.007812 15.441406 11.285156 15.441406 C 11.691406 15.441406 12.089844 15.546875 12.445312 15.753906 C 12.667969 15.882812 12.746094 16.164062 12.617188 16.386719 C 12.488281 16.609375 12.203125 16.683594 11.984375 16.558594 C 11.765625 16.433594 11.53125 16.367188 11.285156 16.367188 C 10.519531 16.367188 9.894531 16.992188 9.894531 17.761719 C 9.894531 18.53125 10.519531 19.15625 11.285156 19.15625 Z M 16.320312 19.367188 C 16.457031 19.582031 16.394531 19.871094 16.179688 20.007812 C 15.960938 20.152344 15.667969 20.074219 15.539062 19.871094 C 15.535156 19.867188 14.628906 18.457031 14.628906 18.457031 L 14.304688 18.457031 L 14.304688 19.617188 C 14.304688 19.875 14.097656 20.082031 13.839844 20.082031 C 13.582031 20.082031 13.375 19.875 13.375 19.617188 L 13.375 15.90625 C 13.375 15.648438 13.582031 15.441406 13.839844 15.441406 L 14.882812 15.441406 C 15.714844 15.441406 16.394531 16.117188 16.394531 16.949219 C 16.394531 17.515625 16.074219 18.007812 15.609375 18.265625 Z M 21.035156 19.617188 C 21.035156 19.875 20.828125 20.082031 20.570312 20.082031 C 20.316406 20.082031 20.105469 19.875 20.105469 19.617188 L 20.105469 17.210938 L 19.421875 18.054688 C 19.246094 18.273438 18.878906 18.273438 18.703125 18.054688 L 18.019531 17.210938 L 18.019531 19.617188 C 18.019531 19.875 17.808594 20.082031 17.554688 20.082031 C 17.296875 20.082031 17.089844 19.875 17.089844 19.617188 L 17.089844 15.90625 C 17.089844 15.707031 17.214844 15.53125 17.398438 15.46875 C 17.582031 15.402344 17.789062 15.460938 17.914062 15.613281 L 19.0625 17.027344 L 20.210938 15.613281 C 20.335938 15.460938 20.542969 15.402344 20.726562 15.46875 C 20.910156 15.53125 21.035156 15.707031 21.035156 15.90625 Z M 21.035156 19.617188 " fill-opacity="1" fill-rule="nonzero"/></g><g clip-path="url(#fbc53be46d)"><path fill="#935f3d" d="M 16.394531 8.476562 C 16.394531 8.660156 16.359375 8.839844 16.285156 9.007812 C 16.214844 9.179688 16.117188 9.332031 15.984375 9.460938 C 15.855469 9.59375 15.703125 9.691406 15.53125 9.761719 C 15.363281 9.835938 15.183594 9.871094 15 9.871094 C 14.816406 9.871094 14.636719 9.835938 14.46875 9.761719 C 14.296875 9.691406 14.144531 9.59375 14.015625 9.460938 C 13.882812 9.332031 13.785156 9.179688 13.714844 9.007812 C 13.640625 8.839844 13.605469 8.660156 13.605469 8.476562 C 13.605469 8.292969 13.640625 8.113281 13.714844 7.945312 C 13.785156 7.773438 13.882812 7.621094 14.015625 7.492188 C 14.144531 7.359375 14.296875 7.261719 14.46875 7.191406 C 14.636719 7.121094 14.816406 7.082031 15 7.082031 C 15.183594 7.082031 15.363281 7.121094 15.53125 7.191406 C 15.703125 7.261719 15.855469 7.359375 15.984375 7.492188 C 16.117188 7.621094 16.214844 7.773438 16.285156 7.945312 C 16.359375 8.113281 16.394531 8.292969 16.394531 8.476562 Z M 16.394531 8.476562 " fill-opacity="1" fill-rule="nonzero"/></g></svg>