<svg xmlns="http://www.w3.org/2000/svg" xmlns:xlink="http://www.w3.org/1999/xlink" width="40" zoomAndPan="magnify" viewBox="0 0 30 30.000001" height="40" preserveAspectRatio="xMidYMid meet" version="1.0"><defs><clipPath id="1e5f66d728"><path d="M 0.484375 0 L 29.515625 0 L 29.515625 29.03125 L 0.484375 29.03125 Z M 0.484375 0 " clip-rule="nonzero"/></clipPath><clipPath id="106b743b8f"><path d="M 3.429688 2.859375 L 26.65625 2.859375 L 26.65625 26.085938 L 3.429688 26.085938 Z M 3.429688 2.859375 " clip-rule="nonzero"/></clipPath></defs><g clip-path="url(#1e5f66d728)"><path fill="#ffffff" d="M 0.484375 0 L 29.515625 0 L 29.515625 29.03125 L 0.484375 29.03125 Z M 0.484375 0 " fill-opacity="1" fill-rule="nonzero"/><path fill="#ffffff" d="M 0.484375 0 L 29.515625 0 L 29.515625 29.03125 L 0.484375 29.03125 Z M 0.484375 0 " fill-opacity="1" fill-rule="nonzero"/></g><g clip-path="url(#106b743b8f)"><path fill="#935f3d" d="M 24.769531 12.847656 L 26.125 12.371094 C 26.355469 12.292969 26.589844 12.464844 26.589844 12.703125 L 26.589844 16.4375 C 26.589844 16.671875 26.363281 16.859375 26.101562 16.757812 L 24.769531 16.292969 L 24.195312 16.292969 L 24.195312 18.089844 C 24.195312 18.492188 23.863281 18.820312 23.460938 18.820312 L 23.046875 18.820312 C 22.644531 18.820312 22.316406 18.492188 22.316406 18.089844 L 22.316406 16.289062 C 21.421875 16.222656 20.71875 15.472656 20.71875 14.570312 C 20.71875 13.621094 21.496094 12.847656 22.445312 12.847656 Z M 25.175781 15.695312 L 25.894531 15.945312 L 25.894531 13.191406 L 25.175781 13.441406 Z M 22.972656 13.546875 L 22.972656 15.59375 L 24.476562 15.59375 L 24.476562 13.546875 Z M 22.269531 15.578125 L 22.269531 13.558594 C 21.46875 13.699219 21.125 14.695312 21.722656 15.292969 C 21.867188 15.4375 22.058594 15.542969 22.269531 15.578125 Z M 23.492188 16.292969 L 23.015625 16.292969 L 23.015625 18.089844 L 23.046875 18.121094 L 23.460938 18.121094 L 23.492188 18.089844 Z M 6.277344 13.621094 C 6.589844 13.238281 6.980469 13.050781 7.523438 13.050781 C 8.375 13.050781 9.113281 13.695312 9.113281 14.542969 C 9.113281 15.832031 7.820312 17.023438 6.527344 18.214844 C 6.390625 18.351562 6.175781 18.355469 6.027344 18.210938 C 4.734375 17.019531 3.445312 15.832031 3.445312 14.542969 C 3.445312 13.695312 4.1875 13.050781 5.035156 13.050781 C 5.578125 13.054688 5.964844 13.238281 6.277344 13.621094 Z M 6.988281 13.898438 C 6.84375 14.007812 6.71875 14.183594 6.585938 14.421875 C 6.453125 14.667969 6.105469 14.667969 5.972656 14.425781 C 5.730469 13.980469 5.53125 13.753906 5.035156 13.753906 C 4.566406 13.753906 4.144531 14.085938 4.144531 14.542969 C 4.144531 15.464844 5.175781 16.476562 6.277344 17.492188 C 7.382812 16.476562 8.414062 15.464844 8.414062 14.542969 C 8.414062 14.085938 7.992188 13.753906 7.523438 13.753906 C 7.289062 13.753906 7.121094 13.800781 6.988281 13.898438 Z M 14.785156 3.121094 L 15.511719 4.585938 L 17.132812 4.824219 C 17.429688 4.867188 17.53125 5.230469 17.3125 5.433594 L 16.15625 6.566406 L 16.429688 8.179688 C 16.476562 8.457031 16.183594 8.695312 15.902344 8.535156 L 14.472656 7.789062 L 13.023438 8.546875 C 12.765625 8.679688 12.46875 8.460938 12.515625 8.179688 L 12.789062 6.566406 L 11.621094 5.421875 C 11.414062 5.21875 11.53125 4.867188 11.8125 4.824219 L 13.433594 4.585938 L 14.160156 3.121094 C 14.289062 2.859375 14.660156 2.867188 14.785156 3.121094 Z M 14.96875 5.058594 L 14.472656 4.0625 L 13.984375 5.046875 C 13.9375 5.152344 13.839844 5.234375 13.714844 5.253906 L 12.613281 5.414062 L 13.398438 6.183594 C 13.484375 6.261719 13.53125 6.378906 13.507812 6.5 L 13.324219 7.601562 L 14.3125 7.085938 C 14.410156 7.035156 14.53125 7.03125 14.636719 7.085938 L 15.625 7.601562 L 15.4375 6.5 C 15.421875 6.394531 15.453125 6.277344 15.539062 6.195312 L 16.335938 5.414062 L 15.230469 5.253906 L 15.230469 5.25 C 15.121094 5.234375 15.019531 5.167969 14.96875 5.058594 Z M 6.628906 21.90625 C 6.628906 22.097656 6.472656 22.253906 6.277344 22.253906 C 6.085938 22.253906 5.929688 22.097656 5.929688 21.90625 L 5.929688 19.191406 C 5.929688 18.996094 6.085938 18.839844 6.277344 18.839844 C 6.472656 18.839844 6.628906 18.996094 6.628906 19.191406 Z M 6.808594 12.261719 C 6.761719 12.449219 6.570312 12.5625 6.382812 12.515625 C 6.195312 12.46875 6.082031 12.277344 6.128906 12.089844 C 6.789062 9.453125 8.96875 7.449219 11.546875 6.535156 C 11.726562 6.472656 11.925781 6.566406 11.992188 6.75 C 12.054688 6.929688 11.960938 7.128906 11.777344 7.191406 C 9.421875 8.03125 7.410156 9.855469 6.808594 12.261719 Z M 17.742188 7.027344 C 17.558594 6.976562 17.453125 6.78125 17.507812 6.597656 C 17.558594 6.414062 17.753906 6.304688 17.9375 6.359375 C 20.773438 7.183594 23.230469 9.300781 23.914062 12.152344 C 23.957031 12.339844 23.84375 12.527344 23.65625 12.574219 C 23.46875 12.617188 23.28125 12.5 23.234375 12.3125 C 22.613281 9.707031 20.335938 7.785156 17.742188 7.027344 Z M 23.402344 19.53125 C 23.402344 19.335938 23.554688 19.179688 23.75 19.179688 C 23.945312 19.179688 24.101562 19.335938 24.101562 19.53125 L 24.101562 21.90625 C 24.101562 22.097656 23.941406 22.253906 23.75 22.253906 C 23.554688 22.253906 23.402344 22.097656 23.402344 21.90625 Z M 15.574219 16.207031 C 15.660156 16.03125 15.871094 15.960938 16.042969 16.046875 C 16.214844 16.128906 16.289062 16.339844 16.203125 16.511719 C 15.714844 17.515625 14.125 17.699219 13.566406 16.507812 C 13.484375 16.332031 13.5625 16.125 13.734375 16.042969 C 13.910156 15.960938 14.117188 16.035156 14.199219 16.210938 C 14.5 16.855469 15.332031 16.703125 15.574219 16.207031 Z M 13.375 14.550781 C 13.246094 14.695312 13.023438 14.703125 12.882812 14.574219 C 12.738281 14.445312 12.730469 14.222656 12.859375 14.082031 C 13.28125 13.617188 14.007812 13.617188 14.429688 14.082031 C 14.558594 14.222656 14.546875 14.445312 14.40625 14.574219 C 14.261719 14.703125 14.042969 14.695312 13.914062 14.550781 C 13.769531 14.394531 13.519531 14.394531 13.375 14.550781 Z M 15.804688 14.550781 C 15.675781 14.695312 15.453125 14.703125 15.3125 14.574219 C 15.167969 14.445312 15.15625 14.222656 15.289062 14.082031 C 15.710938 13.617188 16.4375 13.617188 16.859375 14.082031 C 16.988281 14.222656 16.980469 14.445312 16.835938 14.574219 C 16.691406 14.703125 16.472656 14.695312 16.34375 14.550781 C 16.199219 14.394531 15.949219 14.394531 15.804688 14.550781 Z M 10.601562 25.421875 C 10.296875 24.773438 10.21875 24.316406 10.371094 23.546875 C 10.40625 23.359375 10.589844 23.234375 10.78125 23.273438 C 10.96875 23.308594 11.09375 23.492188 11.058594 23.679688 C 10.90625 24.433594 11.03125 24.75 11.382812 25.421875 L 14.015625 25.421875 C 12.835938 24.226562 12.015625 23.183594 11.71875 19.914062 C 10.253906 20.15625 9.148438 21.4375 9.148438 22.945312 L 9.148438 25.421875 Z M 18.335938 25.421875 C 18.683594 24.75 18.808594 24.433594 18.660156 23.679688 C 18.625 23.492188 18.746094 23.308594 18.9375 23.273438 C 19.125 23.234375 19.308594 23.359375 19.347656 23.546875 C 19.496094 24.316406 19.421875 24.777344 19.113281 25.421875 L 20.566406 25.421875 L 20.566406 22.945312 C 20.566406 20.800781 18.816406 20.164062 18.050781 19.988281 C 17.917969 21.3125 17.625 22.488281 17.066406 23.539062 C 16.679688 24.269531 16.214844 24.863281 15.691406 25.421875 Z M 13.601562 11.320312 C 13.648438 10.699219 13.644531 10.109375 13.210938 9.648438 C 11.972656 10.183594 11.058594 11.351562 10.640625 12.960938 C 10.101562 15.03125 11.148438 17.148438 10.492188 19.597656 C 10.9375 19.363281 11.433594 19.21875 11.960938 19.183594 C 11.964844 19.183594 11.96875 19.183594 11.972656 19.179688 C 12.746094 19.035156 13.042969 18.785156 13.191406 17.894531 C 12.910156 17.664062 12.648438 17.367188 12.421875 17.007812 C 12.171875 16.695312 11.953125 16.222656 11.800781 15.671875 C 11.648438 15.132812 11.550781 14.507812 11.53125 13.867188 C 11.515625 13.421875 11.75 13.027344 12.148438 12.824219 L 12.148438 12.820312 C 12.78125 12.496094 13.292969 11.972656 13.601562 11.320312 Z M 13.925781 9.421875 C 14.308594 9.976562 14.347656 10.617188 14.304688 11.28125 C 15.117188 12.085938 16.144531 12.625 17.265625 12.839844 C 17.828125 12.949219 18.21875 13.457031 18.183594 14.03125 C 18.132812 14.792969 17.957031 15.546875 17.683594 16.25 C 17.398438 16.941406 17.015625 17.476562 16.578125 17.851562 C 16.6875 18.535156 17 19.175781 17.753906 19.230469 C 17.890625 19.238281 18.417969 19.328125 18.957031 19.546875 C 18.820312 18.460938 18.886719 17.25 18.953125 16.101562 C 19.023438 14.847656 19.089844 13.671875 18.871094 12.894531 C 18.484375 11.519531 17.714844 10.53125 16.789062 9.953125 C 15.921875 9.410156 14.902344 9.214844 13.925781 9.421875 Z M 15.949219 18.265625 C 15.269531 18.59375 14.515625 18.609375 13.824219 18.292969 C 13.617188 19.148438 13.1875 19.597656 12.410156 19.796875 C 12.5 20.789062 12.636719 21.5625 12.820312 22.191406 C 14.054688 22.652344 15.667969 22.625 16.898438 22.164062 C 17.113281 21.519531 17.273438 20.769531 17.359375 19.867188 C 16.574219 19.664062 16.140625 19.027344 15.949219 18.265625 Z M 17.113281 15.777344 C 17.320312 15.207031 17.445312 14.601562 17.484375 13.988281 C 17.5 13.761719 17.351562 13.570312 17.132812 13.527344 C 15.980469 13.308594 14.910156 12.773438 14.035156 11.984375 C 13.65625 12.609375 13.109375 13.113281 12.464844 13.445312 C 12.308594 13.527344 12.222656 13.667969 12.226562 13.847656 C 12.257812 14.703125 12.480469 15.976562 12.976562 16.582031 L 12.976562 16.585938 C 12.988281 16.597656 12.996094 16.605469 13.003906 16.621094 C 13.445312 17.328125 14.15625 17.898438 15.019531 17.816406 C 15.375 17.785156 15.695312 17.644531 16 17.421875 C 16.492188 17.054688 16.863281 16.46875 17.113281 15.777344 Z M 21.265625 22.945312 L 21.265625 25.769531 C 21.265625 25.964844 21.113281 26.121094 20.917969 26.121094 L 8.796875 26.121094 C 8.605469 26.121094 8.449219 25.964844 8.449219 25.769531 L 8.449219 22.945312 C 8.449219 21.945312 8.84375 21.03125 9.488281 20.355469 C 9.582031 20.253906 9.542969 20.320312 9.582031 20.160156 C 9.601562 20.085938 9.628906 20.003906 9.660156 19.917969 C 10.589844 17.417969 9.34375 15.1875 9.964844 12.789062 C 11.429688 7.15625 18.050781 7.402344 19.542969 12.707031 C 19.792969 13.59375 19.722656 14.828125 19.648438 16.140625 C 19.578125 17.441406 19.5 18.824219 19.730469 19.957031 C 20.53125 20.484375 21.265625 21.394531 21.265625 22.945312 Z M 13.121094 23.015625 C 13.554688 23.988281 14.148438 24.570312 14.859375 25.277344 C 15.539062 24.589844 16.121094 23.902344 16.554688 23 C 15.464844 23.285156 14.210938 23.296875 13.121094 23.015625 Z M 13.121094 23.015625 " fill-opacity="1" fill-rule="nonzero"/></g></svg>