<svg xmlns="http://www.w3.org/2000/svg" xmlns:xlink="http://www.w3.org/1999/xlink" width="40" zoomAndPan="magnify" viewBox="0 0 30 30.000001" height="40" preserveAspectRatio="xMidYMid meet" version="1.0"><defs><clipPath id="55ef9292f3"><path d="M 0.484375 0 L 29.515625 0 L 29.515625 29.03125 L 0.484375 29.03125 Z M 0.484375 0 " clip-rule="nonzero"/></clipPath><clipPath id="7da55719ca"><path d="M 19 20 L 26.933594 20 L 26.933594 26.449219 L 19 26.449219 Z M 19 20 " clip-rule="nonzero"/></clipPath><clipPath id="008fc3c17a"><path d="M 10 20 L 20 20 L 20 26.449219 L 10 26.449219 Z M 10 20 " clip-rule="nonzero"/></clipPath><clipPath id="3f307b5ef7"><path d="M 3.707031 20 L 11 20 L 11 26.449219 L 3.707031 26.449219 Z M 3.707031 20 " clip-rule="nonzero"/></clipPath><clipPath id="167f4d10bb"><path d="M 10 3.222656 L 20 3.222656 L 20 21 L 10 21 Z M 10 3.222656 " clip-rule="nonzero"/></clipPath><clipPath id="2094313c64"><path d="M 3.707031 14 L 6 14 L 6 21 L 3.707031 21 Z M 3.707031 14 " clip-rule="nonzero"/></clipPath></defs><g clip-path="url(#55ef9292f3)"><path fill="#ffffff" d="M 0.484375 0 L 29.515625 0 L 29.515625 29.03125 L 0.484375 29.03125 Z M 0.484375 0 " fill-opacity="1" fill-rule="nonzero"/><path fill="#ffffff" d="M 0.484375 0 L 29.515625 0 L 29.515625 29.03125 L 0.484375 29.03125 Z M 0.484375 0 " fill-opacity="1" fill-rule="nonzero"/></g><path fill="#935f3d" d="M 9.785156 11.453125 C 9.785156 11.253906 9.625 11.09375 9.425781 11.09375 C 9.230469 11.09375 9.070312 11.253906 9.070312 11.453125 L 9.070312 12.167969 C 9.070312 12.367188 9.230469 12.527344 9.425781 12.527344 C 9.625 12.527344 9.785156 12.367188 9.785156 12.167969 Z M 9.785156 11.453125 " fill-opacity="1" fill-rule="nonzero"/><path fill="#935f3d" d="M 8.355469 11.453125 C 8.355469 11.253906 8.195312 11.09375 7.996094 11.09375 C 7.800781 11.09375 7.636719 11.253906 7.636719 11.453125 L 7.636719 12.167969 C 7.636719 12.367188 7.800781 12.527344 7.996094 12.527344 C 8.195312 12.527344 8.355469 12.367188 8.355469 12.167969 Z M 8.355469 11.453125 " fill-opacity="1" fill-rule="nonzero"/><path fill="#935f3d" d="M 9.785156 13.597656 C 9.785156 13.402344 9.625 13.242188 9.425781 13.242188 C 9.230469 13.242188 9.070312 13.402344 9.070312 13.597656 L 9.070312 14.3125 C 9.070312 14.511719 9.230469 14.671875 9.425781 14.671875 C 9.625 14.671875 9.785156 14.511719 9.785156 14.3125 Z M 9.785156 13.597656 " fill-opacity="1" fill-rule="nonzero"/><path fill="#935f3d" d="M 8.355469 13.597656 C 8.355469 13.402344 8.195312 13.242188 7.996094 13.242188 C 7.800781 13.242188 7.636719 13.402344 7.636719 13.597656 L 7.636719 14.3125 C 7.636719 14.511719 7.800781 14.671875 7.996094 14.671875 C 8.195312 14.671875 8.355469 14.511719 8.355469 14.3125 Z M 8.355469 13.597656 " fill-opacity="1" fill-rule="nonzero"/><path fill="#935f3d" d="M 22.671875 11.453125 C 22.671875 11.253906 22.511719 11.09375 22.316406 11.09375 C 22.117188 11.09375 21.957031 11.253906 21.957031 11.453125 L 21.957031 12.167969 C 21.957031 12.367188 22.117188 12.527344 22.316406 12.527344 C 22.511719 12.527344 22.671875 12.367188 22.671875 12.167969 Z M 22.671875 11.453125 " fill-opacity="1" fill-rule="nonzero"/><path fill="#935f3d" d="M 21.242188 11.453125 C 21.242188 11.253906 21.082031 11.09375 20.882812 11.09375 C 20.6875 11.09375 20.527344 11.253906 20.527344 11.453125 L 20.527344 12.167969 C 20.527344 12.367188 20.6875 12.527344 20.882812 12.527344 C 21.082031 12.527344 21.242188 12.367188 21.242188 12.167969 Z M 21.242188 11.453125 " fill-opacity="1" fill-rule="nonzero"/><path fill="#935f3d" d="M 22.671875 13.597656 C 22.671875 13.402344 22.511719 13.242188 22.316406 13.242188 C 22.117188 13.242188 21.957031 13.402344 21.957031 13.597656 L 21.957031 14.3125 C 21.957031 14.511719 22.117188 14.671875 22.316406 14.671875 C 22.511719 14.671875 22.671875 14.511719 22.671875 14.3125 Z M 22.671875 13.597656 " fill-opacity="1" fill-rule="nonzero"/><path fill="#935f3d" d="M 21.242188 13.597656 C 21.242188 13.402344 21.082031 13.242188 20.882812 13.242188 C 20.6875 13.242188 20.527344 13.402344 20.527344 13.597656 L 20.527344 14.3125 C 20.527344 14.511719 20.6875 14.671875 20.882812 14.671875 C 21.082031 14.671875 21.242188 14.511719 21.242188 14.3125 Z M 21.242188 13.597656 " fill-opacity="1" fill-rule="nonzero"/><path fill="#935f3d" d="M 12.648438 7.875 C 12.648438 8.070312 12.808594 8.230469 13.003906 8.230469 C 13.203125 8.230469 13.363281 8.070312 13.363281 7.875 L 13.363281 7.160156 C 13.363281 6.960938 13.203125 6.800781 13.003906 6.800781 C 12.808594 6.800781 12.648438 6.960938 12.648438 7.160156 Z M 12.648438 7.875 " fill-opacity="1" fill-rule="nonzero"/><path fill="#935f3d" d="M 14.078125 7.875 C 14.078125 8.070312 14.238281 8.230469 14.4375 8.230469 C 14.632812 8.230469 14.792969 8.070312 14.792969 7.875 L 14.792969 7.160156 C 14.792969 6.960938 14.632812 6.800781 14.4375 6.800781 C 14.238281 6.800781 14.078125 6.960938 14.078125 7.160156 Z M 14.078125 7.875 " fill-opacity="1" fill-rule="nonzero"/><path fill="#935f3d" d="M 15.507812 7.875 C 15.507812 8.070312 15.667969 8.230469 15.867188 8.230469 C 16.066406 8.230469 16.226562 8.070312 16.226562 7.875 L 16.226562 7.160156 C 16.226562 6.960938 16.066406 6.800781 15.867188 6.800781 C 15.667969 6.800781 15.507812 6.960938 15.507812 7.160156 Z M 15.507812 7.875 " fill-opacity="1" fill-rule="nonzero"/><path fill="#935f3d" d="M 17.65625 7.160156 C 17.65625 6.960938 17.496094 6.800781 17.296875 6.800781 C 17.101562 6.800781 16.941406 6.960938 16.941406 7.160156 L 16.941406 7.875 C 16.941406 8.070312 17.101562 8.230469 17.296875 8.230469 C 17.496094 8.230469 17.65625 8.070312 17.65625 7.875 Z M 17.65625 7.160156 " fill-opacity="1" fill-rule="nonzero"/><path fill="#935f3d" d="M 12.648438 10.019531 C 12.648438 10.21875 12.808594 10.378906 13.003906 10.378906 C 13.203125 10.378906 13.363281 10.21875 13.363281 10.019531 L 13.363281 9.304688 C 13.363281 9.109375 13.203125 8.949219 13.003906 8.949219 C 12.808594 8.949219 12.648438 9.109375 12.648438 9.304688 Z M 12.648438 10.019531 " fill-opacity="1" fill-rule="nonzero"/><path fill="#935f3d" d="M 14.078125 10.019531 C 14.078125 10.21875 14.238281 10.378906 14.4375 10.378906 C 14.632812 10.378906 14.792969 10.21875 14.792969 10.019531 L 14.792969 9.304688 C 14.792969 9.109375 14.632812 8.949219 14.4375 8.949219 C 14.238281 8.949219 14.078125 9.109375 14.078125 9.304688 Z M 14.078125 10.019531 " fill-opacity="1" fill-rule="nonzero"/><path fill="#935f3d" d="M 15.507812 10.019531 C 15.507812 10.21875 15.667969 10.378906 15.867188 10.378906 C 16.066406 10.378906 16.226562 10.21875 16.226562 10.019531 L 16.226562 9.304688 C 16.226562 9.109375 16.066406 8.949219 15.867188 8.949219 C 15.667969 8.949219 15.507812 9.109375 15.507812 9.304688 Z M 15.507812 10.019531 " fill-opacity="1" fill-rule="nonzero"/><path fill="#935f3d" d="M 17.65625 9.304688 C 17.65625 9.109375 17.496094 8.949219 17.296875 8.949219 C 17.101562 8.949219 16.941406 9.109375 16.941406 9.304688 L 16.941406 10.019531 C 16.941406 10.21875 17.101562 10.378906 17.296875 10.378906 C 17.496094 10.378906 17.65625 10.21875 17.65625 10.019531 Z M 17.65625 9.304688 " fill-opacity="1" fill-rule="nonzero"/><path fill="#935f3d" d="M 12.648438 12.167969 C 12.648438 12.367188 12.808594 12.527344 13.003906 12.527344 C 13.203125 12.527344 13.363281 12.367188 13.363281 12.167969 L 13.363281 11.453125 C 13.363281 11.253906 13.203125 11.09375 13.003906 11.09375 C 12.808594 11.09375 12.648438 11.253906 12.648438 11.453125 Z M 12.648438 12.167969 " fill-opacity="1" fill-rule="nonzero"/><path fill="#935f3d" d="M 14.078125 12.167969 C 14.078125 12.367188 14.238281 12.527344 14.4375 12.527344 C 14.632812 12.527344 14.792969 12.367188 14.792969 12.167969 L 14.792969 11.453125 C 14.792969 11.253906 14.632812 11.09375 14.4375 11.09375 C 14.238281 11.09375 14.078125 11.253906 14.078125 11.453125 Z M 14.078125 12.167969 " fill-opacity="1" fill-rule="nonzero"/><path fill="#935f3d" d="M 15.507812 12.167969 C 15.507812 12.367188 15.667969 12.527344 15.867188 12.527344 C 16.066406 12.527344 16.226562 12.367188 16.226562 12.167969 L 16.226562 11.453125 C 16.226562 11.253906 16.066406 11.09375 15.867188 11.09375 C 15.667969 11.09375 15.507812 11.253906 15.507812 11.453125 Z M 15.507812 12.167969 " fill-opacity="1" fill-rule="nonzero"/><path fill="#935f3d" d="M 17.65625 11.453125 C 17.65625 11.253906 17.496094 11.09375 17.296875 11.09375 C 17.101562 11.09375 16.941406 11.253906 16.941406 11.453125 L 16.941406 12.167969 C 16.941406 12.367188 17.101562 12.527344 17.296875 12.527344 C 17.496094 12.527344 17.65625 12.367188 17.65625 12.167969 Z M 17.65625 11.453125 " fill-opacity="1" fill-rule="nonzero"/><path fill="#935f3d" d="M 12.648438 14.3125 C 12.648438 14.511719 12.808594 14.671875 13.003906 14.671875 C 13.203125 14.671875 13.363281 14.511719 13.363281 14.3125 L 13.363281 13.597656 C 13.363281 13.402344 13.203125 13.242188 13.003906 13.242188 C 12.808594 13.242188 12.648438 13.402344 12.648438 13.597656 Z M 12.648438 14.3125 " fill-opacity="1" fill-rule="nonzero"/><path fill="#935f3d" d="M 14.078125 14.3125 C 14.078125 14.511719 14.238281 14.671875 14.4375 14.671875 C 14.632812 14.671875 14.792969 14.511719 14.792969 14.3125 L 14.792969 13.597656 C 14.792969 13.402344 14.632812 13.242188 14.4375 13.242188 C 14.238281 13.242188 14.078125 13.402344 14.078125 13.597656 Z M 14.078125 14.3125 " fill-opacity="1" fill-rule="nonzero"/><path fill="#935f3d" d="M 15.507812 14.3125 C 15.507812 14.511719 15.667969 14.671875 15.867188 14.671875 C 16.066406 14.671875 16.226562 14.511719 16.226562 14.3125 L 16.226562 13.597656 C 16.226562 13.402344 16.066406 13.242188 15.867188 13.242188 C 15.667969 13.242188 15.507812 13.402344 15.507812 13.597656 Z M 15.507812 14.3125 " fill-opacity="1" fill-rule="nonzero"/><path fill="#935f3d" d="M 17.65625 13.597656 C 17.65625 13.402344 17.496094 13.242188 17.296875 13.242188 C 17.101562 13.242188 16.941406 13.402344 16.941406 13.597656 L 16.941406 14.3125 C 16.941406 14.511719 17.101562 14.671875 17.296875 14.671875 C 17.496094 14.671875 17.65625 14.511719 17.65625 14.3125 Z M 17.65625 13.597656 " fill-opacity="1" fill-rule="nonzero"/><path fill="#935f3d" d="M 13.007812 6.085938 C 13.207031 6.085938 13.367188 5.925781 13.367188 5.726562 L 13.367188 5.011719 C 13.367188 4.816406 13.207031 4.65625 13.007812 4.65625 C 12.8125 4.65625 12.652344 4.816406 12.652344 5.011719 L 12.652344 5.726562 C 12.652344 5.925781 12.8125 6.085938 13.007812 6.085938 Z M 13.007812 6.085938 " fill-opacity="1" fill-rule="nonzero"/><path fill="#935f3d" d="M 14.441406 6.085938 C 14.636719 6.085938 14.796875 5.925781 14.796875 5.726562 L 14.796875 5.011719 C 14.796875 4.816406 14.636719 4.65625 14.441406 4.65625 C 14.242188 4.65625 14.082031 4.816406 14.082031 5.011719 L 14.082031 5.726562 C 14.082031 5.925781 14.242188 6.085938 14.441406 6.085938 Z M 14.441406 6.085938 " fill-opacity="1" fill-rule="nonzero"/><path fill="#935f3d" d="M 15.871094 6.085938 C 16.070312 6.085938 16.230469 5.925781 16.230469 5.726562 L 16.230469 5.011719 C 16.230469 4.816406 16.070312 4.65625 15.871094 4.65625 C 15.675781 4.65625 15.511719 4.816406 15.511719 5.011719 L 15.511719 5.726562 C 15.511719 5.925781 15.671875 6.085938 15.871094 6.085938 Z M 15.871094 6.085938 " fill-opacity="1" fill-rule="nonzero"/><path fill="#935f3d" d="M 17.660156 5.011719 C 17.660156 4.816406 17.5 4.65625 17.300781 4.65625 C 17.105469 4.65625 16.945312 4.816406 16.945312 5.011719 L 16.945312 5.726562 C 16.945312 5.925781 17.105469 6.085938 17.300781 6.085938 C 17.5 6.085938 17.660156 5.925781 17.660156 5.726562 Z M 17.660156 5.011719 " fill-opacity="1" fill-rule="nonzero"/><path fill="#935f3d" d="M 22.671875 15.746094 C 22.671875 15.546875 22.511719 15.386719 22.316406 15.386719 C 22.117188 15.386719 21.957031 15.546875 21.957031 15.746094 L 21.957031 15.769531 C 22.074219 15.753906 22.191406 15.746094 22.3125 15.746094 C 22.433594 15.746094 22.554688 15.753906 22.671875 15.769531 Z M 22.671875 15.746094 " fill-opacity="1" fill-rule="nonzero"/><path fill="#935f3d" d="M 21.242188 15.746094 C 21.242188 15.546875 21.082031 15.386719 20.882812 15.386719 C 20.6875 15.386719 20.527344 15.546875 20.527344 15.746094 L 20.527344 16.375 C 20.742188 16.203125 20.980469 16.058594 21.242188 15.953125 Z M 21.242188 15.746094 " fill-opacity="1" fill-rule="nonzero"/><path fill="#935f3d" d="M 23.730469 10.378906 C 23.734375 10.398438 23.742188 10.425781 23.742188 10.46875 L 23.742188 16.132812 C 24.011719 16.289062 24.253906 16.488281 24.457031 16.722656 L 24.457031 10.46875 C 24.457031 10.023438 24.195312 9.664062 23.742188 9.664062 L 21.953125 9.664062 L 21.953125 9.304688 C 21.953125 9.109375 21.792969 8.949219 21.597656 8.949219 C 21.398438 8.949219 21.238281 9.109375 21.238281 9.304688 L 21.238281 9.664062 L 20.164062 9.664062 L 20.164062 10.378906 Z M 23.730469 10.378906 " fill-opacity="1" fill-rule="nonzero"/><path fill="#935f3d" d="M 22.3125 20.753906 C 23.496094 20.753906 24.457031 19.792969 24.457031 18.609375 C 24.457031 17.425781 23.496094 16.460938 22.3125 16.460938 C 21.128906 16.460938 20.164062 17.425781 20.164062 18.609375 C 20.164062 19.792969 21.128906 20.753906 22.3125 20.753906 Z M 22.3125 17.175781 C 23.101562 17.175781 23.742188 17.820312 23.742188 18.609375 C 23.742188 19.398438 23.101562 20.039062 22.3125 20.039062 C 21.523438 20.039062 20.878906 19.398438 20.878906 18.609375 C 20.878906 17.820312 21.523438 17.175781 22.3125 17.175781 Z M 22.3125 17.175781 " fill-opacity="1" fill-rule="nonzero"/><path fill="#935f3d" d="M 8 20.753906 C 9.183594 20.753906 10.148438 19.792969 10.148438 18.609375 C 10.148438 17.425781 9.183594 16.460938 8 16.460938 C 6.816406 16.460938 5.855469 17.425781 5.855469 18.609375 C 5.855469 19.792969 6.816406 20.753906 8 20.753906 Z M 8 17.175781 C 8.789062 17.175781 9.433594 17.820312 9.433594 18.609375 C 9.433594 19.398438 8.789062 20.039062 8 20.039062 C 7.210938 20.039062 6.570312 19.398438 6.570312 18.609375 C 6.570312 17.820312 7.210938 17.175781 8 17.175781 Z M 8 17.175781 " fill-opacity="1" fill-rule="nonzero"/><path fill="#935f3d" d="M 20.929688 21.113281 C 20.621094 20.941406 20.351562 20.71875 20.125 20.449219 C 19.820312 20.515625 19.539062 20.632812 19.28125 20.789062 C 19.441406 20.96875 19.585938 21.164062 19.707031 21.371094 C 19.984375 21.207031 20.308594 21.113281 20.65625 21.113281 Z M 20.929688 21.113281 " fill-opacity="1" fill-rule="nonzero"/><g clip-path="url(#7da55719ca)"><path fill="#935f3d" d="M 24.496094 20.449219 C 24.273438 20.71875 24 20.941406 23.695312 21.113281 L 23.964844 21.113281 C 25.027344 21.113281 25.890625 21.996094 25.890625 23.082031 L 25.890625 25.09375 C 25.890625 25.265625 25.753906 25.40625 25.589844 25.40625 L 20.136719 25.40625 C 20.089844 25.667969 19.980469 25.910156 19.828125 26.121094 L 25.589844 26.121094 C 26.148438 26.121094 26.605469 25.660156 26.605469 25.09375 L 26.605469 23.082031 C 26.605469 21.785156 25.699219 20.703125 24.496094 20.449219 Z M 24.496094 20.449219 " fill-opacity="1" fill-rule="nonzero"/></g><path fill="#935f3d" d="M 14.351562 21.351562 L 13.914062 23.367188 C 13.914062 23.375 13.914062 23.378906 13.910156 23.386719 C 13.878906 23.578125 13.945312 23.773438 14.089844 23.914062 C 14.089844 23.914062 14.71875 24.511719 14.71875 24.511719 C 14.957031 24.738281 15.347656 24.746094 15.589844 24.523438 L 16.214844 23.945312 C 16.363281 23.808594 16.429688 23.609375 16.402344 23.417969 C 16.402344 23.410156 16.398438 23.402344 16.398438 23.398438 L 15.976562 21.347656 C 15.75 21.414062 15.515625 21.453125 15.269531 21.464844 L 15.679688 23.464844 L 15.160156 23.945312 L 14.632812 23.441406 L 15.058594 21.464844 C 14.8125 21.457031 14.574219 21.417969 14.351562 21.351562 Z M 14.351562 21.351562 " fill-opacity="1" fill-rule="nonzero"/><g clip-path="url(#008fc3c17a)"><path fill="#935f3d" d="M 17.34375 20.449219 C 17.117188 20.71875 16.84375 20.941406 16.539062 21.113281 L 16.8125 21.113281 C 17.871094 21.113281 18.734375 21.996094 18.734375 23.082031 L 18.734375 25.09375 C 18.734375 25.265625 18.601562 25.40625 18.433594 25.40625 L 11.875 25.40625 C 11.710938 25.40625 11.578125 25.265625 11.578125 25.09375 L 11.578125 23.082031 C 11.578125 21.996094 12.441406 21.113281 13.5 21.113281 L 13.773438 21.113281 C 13.46875 20.941406 13.195312 20.71875 12.96875 20.449219 C 11.769531 20.703125 10.863281 21.785156 10.863281 23.082031 L 10.863281 25.09375 C 10.863281 25.660156 11.316406 26.121094 11.875 26.121094 L 18.4375 26.121094 C 18.996094 26.121094 19.449219 25.660156 19.449219 25.09375 L 19.449219 23.082031 C 19.449219 21.785156 18.542969 20.703125 17.34375 20.449219 Z M 17.34375 20.449219 " fill-opacity="1" fill-rule="nonzero"/></g><path fill="#935f3d" d="M 17.300781 18.609375 C 17.300781 17.425781 16.339844 16.460938 15.15625 16.460938 C 13.972656 16.460938 13.007812 17.425781 13.007812 18.609375 C 13.007812 19.792969 13.972656 20.753906 15.15625 20.753906 C 16.339844 20.753906 17.300781 19.792969 17.300781 18.609375 Z M 15.15625 20.039062 C 14.367188 20.039062 13.726562 19.398438 13.726562 18.609375 C 13.726562 17.820312 14.367188 17.175781 15.15625 17.175781 C 15.945312 17.175781 16.585938 17.820312 16.585938 18.609375 C 16.585938 19.398438 15.945312 20.039062 15.15625 20.039062 Z M 15.15625 20.039062 " fill-opacity="1" fill-rule="nonzero"/><path fill="#935f3d" d="M 21.503906 21.351562 L 21.070312 23.367188 C 21.070312 23.375 21.066406 23.378906 21.066406 23.386719 C 21.035156 23.578125 21.101562 23.773438 21.246094 23.914062 C 21.246094 23.914062 21.875 24.511719 21.875 24.511719 C 22.109375 24.734375 22.503906 24.746094 22.746094 24.523438 L 23.371094 23.945312 C 23.515625 23.808594 23.585938 23.609375 23.558594 23.417969 C 23.554688 23.410156 23.554688 23.402344 23.554688 23.398438 L 23.132812 21.347656 C 22.90625 21.414062 22.667969 21.453125 22.425781 21.464844 L 22.835938 23.464844 L 22.316406 23.945312 L 21.785156 23.441406 L 22.214844 21.464844 C 21.96875 21.457031 21.730469 21.417969 21.503906 21.351562 Z M 21.503906 21.351562 " fill-opacity="1" fill-rule="nonzero"/><path fill="#935f3d" d="M 14.078125 15.957031 C 14.304688 15.867188 14.542969 15.800781 14.792969 15.769531 L 14.792969 15.746094 C 14.792969 15.546875 14.632812 15.386719 14.4375 15.386719 C 14.238281 15.386719 14.078125 15.546875 14.078125 15.746094 Z M 14.078125 15.957031 " fill-opacity="1" fill-rule="nonzero"/><path fill="#935f3d" d="M 15.507812 15.769531 C 15.757812 15.800781 16 15.863281 16.226562 15.953125 L 16.226562 15.746094 C 16.226562 15.546875 16.066406 15.386719 15.867188 15.386719 C 15.667969 15.386719 15.507812 15.546875 15.507812 15.746094 Z M 15.507812 15.769531 " fill-opacity="1" fill-rule="nonzero"/><path fill="#935f3d" d="M 17.65625 16.460938 L 17.65625 15.746094 C 17.65625 15.546875 17.496094 15.386719 17.296875 15.386719 C 17.101562 15.386719 16.941406 15.546875 16.941406 15.746094 L 16.941406 16.375 C 17.101562 16.503906 17.25 16.648438 17.378906 16.808594 C 17.539062 16.773438 17.65625 16.628906 17.65625 16.460938 Z M 17.65625 16.460938 " fill-opacity="1" fill-rule="nonzero"/><path fill="#935f3d" d="M 12.648438 16.460938 C 12.648438 16.632812 12.769531 16.777344 12.929688 16.8125 C 13.058594 16.652344 13.203125 16.507812 13.363281 16.378906 L 13.363281 15.746094 C 13.363281 15.546875 13.203125 15.386719 13.003906 15.386719 C 12.808594 15.386719 12.648438 15.546875 12.648438 15.746094 Z M 12.648438 16.460938 " fill-opacity="1" fill-rule="nonzero"/><path fill="#935f3d" d="M 7.195312 21.351562 L 6.757812 23.367188 C 6.757812 23.375 6.757812 23.378906 6.757812 23.386719 C 6.726562 23.578125 6.789062 23.773438 6.933594 23.914062 C 6.933594 23.914062 7.5625 24.511719 7.5625 24.511719 C 7.796875 24.734375 8.191406 24.746094 8.433594 24.523438 L 9.058594 23.945312 C 9.207031 23.808594 9.277344 23.609375 9.246094 23.417969 C 9.246094 23.410156 9.242188 23.402344 9.242188 23.398438 L 8.820312 21.347656 C 8.59375 21.414062 8.359375 21.453125 8.113281 21.464844 L 8.527344 23.464844 L 8.003906 23.945312 L 7.476562 23.441406 L 7.902344 21.464844 C 7.65625 21.457031 7.421875 21.417969 7.195312 21.351562 Z M 7.195312 21.351562 " fill-opacity="1" fill-rule="nonzero"/><g clip-path="url(#3f307b5ef7)"><path fill="#935f3d" d="M 4.722656 25.40625 C 4.558594 25.40625 4.421875 25.265625 4.421875 25.09375 L 4.421875 23.082031 C 4.421875 21.996094 5.285156 21.113281 6.347656 21.113281 L 6.617188 21.113281 C 6.3125 20.941406 6.039062 20.71875 5.816406 20.449219 C 4.613281 20.703125 3.707031 21.785156 3.707031 23.082031 L 3.707031 25.09375 C 3.707031 25.660156 4.164062 26.121094 4.722656 26.121094 L 10.480469 26.121094 C 10.332031 25.910156 10.222656 25.667969 10.175781 25.40625 Z M 4.722656 25.40625 " fill-opacity="1" fill-rule="nonzero"/></g><path fill="#935f3d" d="M 10.183594 20.453125 C 9.960938 20.71875 9.6875 20.941406 9.382812 21.113281 L 9.65625 21.113281 C 10 21.113281 10.324219 21.207031 10.605469 21.371094 C 10.726562 21.164062 10.867188 20.96875 11.027344 20.792969 C 10.773438 20.632812 10.488281 20.515625 10.183594 20.453125 Z M 10.183594 20.453125 " fill-opacity="1" fill-rule="nonzero"/><path fill="#935f3d" d="M 6.570312 16.132812 C 6.570312 16.132812 6.558594 10.398438 6.566406 10.378906 L 10.148438 10.378906 L 10.148438 9.664062 L 8.714844 9.664062 L 8.714844 9.304688 C 8.714844 9.109375 8.554688 8.949219 8.359375 8.949219 C 8.160156 8.949219 8 9.109375 8 9.304688 L 8 9.664062 L 6.570312 9.664062 C 6.117188 9.664062 5.855469 10.039062 5.855469 10.480469 L 5.855469 16.71875 C 6.058594 16.488281 6.300781 16.289062 6.570312 16.132812 Z M 6.570312 16.132812 " fill-opacity="1" fill-rule="nonzero"/><path fill="#935f3d" d="M 8.355469 15.769531 L 8.355469 15.746094 C 8.355469 15.546875 8.195312 15.386719 7.996094 15.386719 C 7.800781 15.386719 7.636719 15.546875 7.636719 15.746094 L 7.636719 15.769531 C 7.757812 15.753906 7.878906 15.746094 8 15.746094 C 8.121094 15.746094 8.238281 15.753906 8.355469 15.769531 Z M 8.355469 15.769531 " fill-opacity="1" fill-rule="nonzero"/><path fill="#935f3d" d="M 9.785156 15.746094 C 9.785156 15.546875 9.625 15.386719 9.425781 15.386719 C 9.230469 15.386719 9.070312 15.546875 9.070312 15.746094 L 9.070312 15.953125 C 9.328125 16.058594 9.570312 16.203125 9.785156 16.375 Z M 9.785156 15.746094 " fill-opacity="1" fill-rule="nonzero"/><g clip-path="url(#167f4d10bb)"><path fill="#935f3d" d="M 11.578125 3.9375 L 18.734375 3.9375 L 18.734375 20.300781 C 18.953125 20.140625 19.195312 20.011719 19.449219 19.914062 L 19.449219 3.9375 C 19.449219 3.542969 19.128906 3.222656 18.734375 3.222656 L 11.578125 3.222656 C 11.183594 3.222656 10.863281 3.542969 10.863281 3.9375 L 10.863281 19.914062 C 11.117188 20.011719 11.359375 20.140625 11.578125 20.300781 Z M 11.578125 3.9375 " fill-opacity="1" fill-rule="nonzero"/></g><g clip-path="url(#2094313c64)"><path fill="#935f3d" d="M 4.421875 20.300781 L 4.421875 15.371094 C 4.421875 15.183594 4.582031 15.03125 4.78125 15.03125 L 5.136719 15.03125 L 5.136719 14.3125 L 4.78125 14.3125 C 4.1875 14.3125 3.707031 14.789062 3.707031 15.371094 L 3.707031 20.988281 C 3.910156 20.726562 4.152344 20.492188 4.421875 20.300781 Z M 4.421875 20.300781 " fill-opacity="1" fill-rule="nonzero"/></g></svg>