<svg xmlns="http://www.w3.org/2000/svg" xmlns:xlink="http://www.w3.org/1999/xlink" width="40" zoomAndPan="magnify" viewBox="0 0 30 30.000001" height="40" preserveAspectRatio="xMidYMid meet" version="1.0"><defs><clipPath id="f3cb4fcf3b"><path d="M 0.484375 0 L 29.515625 0 L 29.515625 29.03125 L 0.484375 29.03125 Z M 0.484375 0 " clip-rule="nonzero"/></clipPath><clipPath id="fa3523c952"><path d="M 24 13 L 26.160156 13 L 26.160156 26.128906 L 24 26.128906 Z M 24 13 " clip-rule="nonzero"/></clipPath><clipPath id="0931e8d379"><path d="M 6 24 L 9 24 L 9 26.128906 L 6 26.128906 Z M 6 24 " clip-rule="nonzero"/></clipPath><clipPath id="51933685cb"><path d="M 10 24 L 13 24 L 13 26.128906 L 10 26.128906 Z M 10 24 " clip-rule="nonzero"/></clipPath><clipPath id="81333f686b"><path d="M 21 19 L 23 19 L 23 26.128906 L 21 26.128906 Z M 21 19 " clip-rule="nonzero"/></clipPath><clipPath id="b0bbaf2418"><path d="M 14 23 L 16 23 L 16 26.128906 L 14 26.128906 Z M 14 23 " clip-rule="nonzero"/></clipPath><clipPath id="c71cba450c"><path d="M 17 22 L 20 22 L 20 26.128906 L 17 26.128906 Z M 17 22 " clip-rule="nonzero"/></clipPath><clipPath id="a6da92f13a"><path d="M 3.660156 15 L 9 15 L 9 21 L 3.660156 21 Z M 3.660156 15 " clip-rule="nonzero"/></clipPath><clipPath id="e6ec0fb870"><path d="M 3.660156 7 L 24 7 L 24 24 L 3.660156 24 Z M 3.660156 7 " clip-rule="nonzero"/></clipPath></defs><g clip-path="url(#f3cb4fcf3b)"><path fill="#ffffff" d="M 0.484375 0 L 29.515625 0 L 29.515625 29.03125 L 0.484375 29.03125 Z M 0.484375 0 " fill-opacity="1" fill-rule="nonzero"/><path fill="#ffffff" d="M 0.484375 0 L 29.515625 0 L 29.515625 29.03125 L 0.484375 29.03125 Z M 0.484375 0 " fill-opacity="1" fill-rule="nonzero"/></g><g clip-path="url(#fa3523c952)"><path fill="#935f3d" d="M 24.742188 13.019531 L 26.332031 13.019531 L 26.332031 26.125 L 24.742188 26.125 Z M 24.742188 13.019531 " fill-opacity="1" fill-rule="nonzero"/></g><path fill="#935f3d" d="M 14.425781 14.078125 C 16.785156 14.121094 18.84375 12.066406 18.800781 9.710938 C 18.875 7.359375 16.722656 5.265625 14.429688 5.335938 C 12.132812 5.265625 9.984375 7.359375 10.054688 9.710938 C 10.011719 12.066406 12.066406 14.121094 14.425781 14.078125 Z M 16.226562 7.910156 C 16.132812 7.816406 16.132812 7.722656 16.226562 7.625 C 16.320312 7.53125 16.414062 7.53125 16.507812 7.628906 C 16.785156 7.902344 16.996094 8.222656 17.144531 8.582031 C 17.292969 8.941406 17.367188 9.316406 17.367188 9.707031 C 17.367188 10.097656 17.292969 10.472656 17.144531 10.832031 C 16.996094 11.195312 16.785156 11.511719 16.507812 11.789062 C 16.414062 11.878906 16.320312 11.878906 16.230469 11.785156 C 16.136719 11.695312 16.136719 11.601562 16.226562 11.507812 C 16.464844 11.269531 16.648438 10.992188 16.777344 10.683594 C 16.90625 10.371094 16.972656 10.046875 16.972656 9.707031 C 16.972656 9.371094 16.90625 9.046875 16.777344 8.734375 C 16.648438 8.421875 16.464844 8.148438 16.226562 7.910156 Z M 16.226562 7.910156 " fill-opacity="1" fill-rule="nonzero"/><g clip-path="url(#0931e8d379)"><path fill="#935f3d" d="M 6.867188 24.933594 L 8.457031 24.933594 L 8.457031 26.125 L 6.867188 26.125 Z M 6.867188 24.933594 " fill-opacity="1" fill-rule="nonzero"/></g><g clip-path="url(#51933685cb)"><path fill="#935f3d" d="M 10.445312 24.140625 L 12.03125 24.140625 L 12.03125 26.125 L 10.445312 26.125 Z M 10.445312 24.140625 " fill-opacity="1" fill-rule="nonzero"/></g><g clip-path="url(#81333f686b)"><path fill="#935f3d" d="M 21.167969 19.375 L 22.757812 19.375 L 22.757812 26.125 L 21.167969 26.125 Z M 21.167969 19.375 " fill-opacity="1" fill-rule="nonzero"/></g><g clip-path="url(#b0bbaf2418)"><path fill="#935f3d" d="M 14.019531 23.347656 L 15.605469 23.347656 L 15.605469 26.125 L 14.019531 26.125 Z M 14.019531 23.347656 " fill-opacity="1" fill-rule="nonzero"/></g><g clip-path="url(#c71cba450c)"><path fill="#935f3d" d="M 17.59375 22.15625 L 19.183594 22.15625 L 19.183594 26.125 L 17.59375 26.125 Z M 17.59375 22.15625 " fill-opacity="1" fill-rule="nonzero"/></g><path fill="#935f3d" d="M 18.816406 14.09375 C 21.21875 11.789062 21.21875 7.628906 18.816406 5.324219 C 16.398438 2.90625 12.460938 2.90625 10.042969 5.324219 C 7.625 7.707031 7.628906 11.714844 10.042969 14.09375 C 12.429688 16.503906 16.429688 16.503906 18.816406 14.09375 Z M 11.054688 6.332031 C 11.277344 6.113281 11.515625 5.914062 11.777344 5.742188 C 12.039062 5.566406 12.3125 5.421875 12.601562 5.300781 C 12.890625 5.183594 13.191406 5.09375 13.496094 5.03125 C 13.804688 4.972656 14.113281 4.941406 14.425781 4.941406 C 14.742188 4.941406 15.050781 4.972656 15.359375 5.03125 C 15.664062 5.09375 15.964844 5.183594 16.253906 5.300781 C 16.542969 5.421875 16.816406 5.566406 17.078125 5.742188 C 17.335938 5.914062 17.578125 6.113281 17.800781 6.332031 C 19.648438 8.105469 19.652344 11.308594 17.800781 13.082031 C 16.039062 14.925781 12.816406 14.929688 11.054688 13.082031 C 9.203125 11.308594 9.207031 8.105469 11.054688 6.332031 Z M 11.054688 6.332031 " fill-opacity="1" fill-rule="nonzero"/><path fill="#935f3d" d="M 10.214844 14.785156 C 9.902344 14.523438 9.613281 14.234375 9.351562 13.925781 L 7.597656 15.679688 L 8.460938 16.539062 Z M 10.214844 14.785156 " fill-opacity="1" fill-rule="nonzero"/><g clip-path="url(#a6da92f13a)"><path fill="#935f3d" d="M 5.628906 19.929688 L 8.441406 17.117188 C 8.226562 16.8125 7.1875 15.863281 6.929688 15.574219 L 4.089844 18.386719 C 3.988281 18.492188 3.910156 18.609375 3.855469 18.746094 C 3.800781 18.878906 3.777344 19.019531 3.78125 19.167969 C 3.785156 19.3125 3.816406 19.449219 3.875 19.582031 C 3.9375 19.714844 4.023438 19.832031 4.128906 19.929688 C 4.230469 20.027344 4.34375 20.105469 4.472656 20.15625 C 4.605469 20.210938 4.738281 20.238281 4.878906 20.238281 C 5.019531 20.238281 5.15625 20.210938 5.285156 20.15625 C 5.414062 20.105469 5.527344 20.027344 5.628906 19.929688 Z M 5.628906 19.929688 " fill-opacity="1" fill-rule="nonzero"/></g><g clip-path="url(#e6ec0fb870)"><path fill="#935f3d" d="M 4.289062 23.347656 C 4.558594 23.347656 4.742188 23.21875 4.839844 22.964844 C 5.125 22.992188 5.734375 23.039062 6.570312 23.039062 C 9.238281 23.039062 14.171875 22.570312 18.035156 19.515625 C 21.15625 17.046875 23.003906 13.378906 23.53125 8.621094 C 23.621094 8.589844 23.703125 8.542969 23.769531 8.476562 C 23.835938 8.414062 23.886719 8.335938 23.917969 8.246094 C 23.949219 8.15625 23.960938 8.0625 23.945312 7.96875 C 23.933594 7.875 23.902344 7.789062 23.847656 7.710938 C 23.792969 7.632812 23.726562 7.570312 23.644531 7.527344 C 23.5625 7.480469 23.472656 7.457031 23.378906 7.453125 C 23.28125 7.449219 23.191406 7.464844 23.105469 7.503906 C 23.019531 7.542969 22.945312 7.601562 22.886719 7.675781 C 22.828125 7.75 22.789062 7.832031 22.769531 7.925781 C 22.75 8.019531 22.753906 8.109375 22.777344 8.203125 C 22.800781 8.292969 22.84375 8.375 22.90625 8.445312 C 22.96875 8.515625 23.046875 8.570312 23.132812 8.605469 C 22.613281 13.238281 20.820312 16.804688 17.792969 19.199219 C 12.78125 23.164062 5.90625 22.671875 4.851562 22.570312 C 4.804688 22.421875 4.714844 22.3125 4.582031 22.238281 C 4.453125 22.160156 4.3125 22.136719 4.164062 22.171875 C 4.011719 22.203125 3.894531 22.28125 3.804688 22.402344 C 3.714844 22.527344 3.679688 22.664062 3.695312 22.816406 C 3.710938 22.964844 3.777344 23.09375 3.890625 23.195312 C 4.003906 23.296875 4.136719 23.347656 4.289062 23.347656 Z M 4.289062 23.347656 " fill-opacity="1" fill-rule="nonzero"/></g></svg>