<svg xmlns="http://www.w3.org/2000/svg" xmlns:xlink="http://www.w3.org/1999/xlink" width="40" zoomAndPan="magnify" viewBox="0 0 30 30.000001" height="40" preserveAspectRatio="xMidYMid meet" version="1.0"><defs><clipPath id="f4f53325ad"><path d="M 0.484375 0 L 29.515625 0 L 29.515625 29.03125 L 0.484375 29.03125 Z M 0.484375 0 " clip-rule="nonzero"/></clipPath><clipPath id="6f72027d87"><path d="M 10 10 L 26 10 L 26 26.128906 L 10 26.128906 Z M 10 10 " clip-rule="nonzero"/></clipPath></defs><g clip-path="url(#f4f53325ad)"><path fill="#ffffff" d="M 0.484375 0 L 29.515625 0 L 29.515625 29.03125 L 0.484375 29.03125 Z M 0.484375 0 " fill-opacity="1" fill-rule="nonzero"/><path fill="#ffffff" d="M 0.484375 0 L 29.515625 0 L 29.515625 29.03125 L 0.484375 29.03125 Z M 0.484375 0 " fill-opacity="1" fill-rule="nonzero"/></g><path fill="#935f3d" d="M 14.339844 9.425781 C 14.261719 9.296875 14.09375 9.25 13.964844 9.324219 L 13.296875 9.703125 C 13.078125 9.535156 12.839844 9.398438 12.585938 9.296875 L 12.585938 8.546875 C 12.585938 8.394531 12.460938 8.273438 12.308594 8.273438 L 10.695312 8.273438 C 10.542969 8.273438 10.417969 8.394531 10.417969 8.546875 L 10.417969 9.296875 C 10.164062 9.398438 9.921875 9.535156 9.703125 9.703125 L 9.039062 9.324219 C 8.90625 9.25 8.742188 9.296875 8.664062 9.425781 L 7.855469 10.800781 C 7.820312 10.863281 7.808594 10.941406 7.828125 11.011719 C 7.847656 11.085938 7.894531 11.144531 7.957031 11.179688 L 8.617188 11.554688 C 8.578125 11.828125 8.578125 12.089844 8.617188 12.359375 C 8.617188 12.359375 7.957031 12.734375 7.957031 12.734375 C 7.828125 12.808594 7.777344 12.988281 7.855469 13.117188 C 7.855469 13.117188 8.664062 14.492188 8.664062 14.492188 C 8.742188 14.621094 8.90625 14.664062 9.039062 14.59375 C 9.039062 14.59375 9.703125 14.214844 9.703125 14.214844 C 9.921875 14.382812 10.164062 14.519531 10.417969 14.621094 L 10.417969 15.371094 C 10.417969 15.523438 10.542969 15.644531 10.695312 15.644531 L 12.308594 15.644531 C 12.460938 15.644531 12.585938 15.523438 12.585938 15.371094 L 12.585938 14.621094 C 12.839844 14.519531 13.078125 14.382812 13.296875 14.214844 L 13.964844 14.59375 C 14.09375 14.664062 14.261719 14.621094 14.339844 14.492188 L 15.144531 13.117188 C 15.183594 13.050781 15.191406 12.976562 15.175781 12.90625 C 15.15625 12.832031 15.109375 12.773438 15.042969 12.734375 C 15.042969 12.734375 14.382812 12.359375 14.382812 12.359375 C 14.421875 12.09375 14.421875 11.824219 14.382812 11.554688 C 14.382812 11.554688 15.042969 11.179688 15.042969 11.179688 C 15.175781 11.109375 15.222656 10.929688 15.144531 10.800781 C 15.144531 10.800781 14.339844 9.425781 14.339844 9.425781 Z M 13.941406 11.171875 C 13.664062 11.34375 13.902344 11.703125 13.859375 11.957031 C 13.902344 12.214844 13.664062 12.574219 13.941406 12.746094 C 13.941406 12.746094 14.527344 13.078125 14.527344 13.078125 C 14.527344 13.078125 14 13.976562 14 13.976562 L 13.402344 13.640625 C 13.300781 13.582031 13.171875 13.59375 13.085938 13.671875 C 12.832031 13.898438 12.542969 14.0625 12.226562 14.164062 C 12.109375 14.199219 12.03125 14.304688 12.03125 14.425781 L 12.03125 15.09375 L 10.96875 15.09375 L 10.96875 14.425781 C 10.96875 14.304688 10.890625 14.199219 10.777344 14.164062 C 10.460938 14.0625 10.171875 13.898438 9.917969 13.671875 C 9.828125 13.59375 9.699219 13.582031 9.597656 13.640625 L 9.003906 13.976562 L 8.472656 13.078125 L 9.0625 12.746094 C 9.167969 12.683594 9.21875 12.5625 9.195312 12.445312 C 9.125 12.117188 9.125 11.800781 9.195312 11.472656 C 9.21875 11.351562 9.167969 11.230469 9.0625 11.171875 L 8.472656 10.839844 C 8.472656 10.839844 9.003906 9.941406 9.003906 9.941406 L 9.597656 10.277344 C 9.699219 10.335938 9.828125 10.324219 9.917969 10.242188 C 10.171875 10.019531 10.460938 9.855469 10.777344 9.753906 C 10.890625 9.71875 10.96875 9.609375 10.96875 9.492188 L 10.96875 8.824219 L 12.03125 8.824219 L 12.03125 9.492188 C 12.03125 9.609375 12.109375 9.71875 12.226562 9.753906 C 12.542969 9.855469 12.832031 10.019531 13.085938 10.242188 C 13.171875 10.324219 13.300781 10.335938 13.402344 10.277344 C 13.402344 10.277344 14 9.941406 14 9.941406 C 14 9.941406 14.527344 10.839844 14.527344 10.839844 Z M 13.941406 11.171875 " fill-opacity="1" fill-rule="nonzero"/><path fill="#935f3d" d="M 11.5 10.453125 C 9.492188 10.515625 9.496094 13.398438 11.5 13.464844 C 13.507812 13.398438 13.507812 10.515625 11.5 10.453125 Z M 11.5 12.910156 C 10.226562 12.878906 10.226562 11.039062 11.5 11.007812 C 12.777344 11.039062 12.777344 12.878906 11.5 12.910156 Z M 11.5 12.910156 " fill-opacity="1" fill-rule="nonzero"/><path fill="#935f3d" d="M 14.167969 22.328125 C 14.082031 22.394531 13.976562 22.429688 13.871094 22.429688 L 8.460938 22.429688 C 8.179688 22.429688 7.953125 22.203125 7.953125 21.925781 C 7.910156 21.585938 8.09375 21.257812 8.464844 21.253906 C 8.464844 21.253906 11.765625 21.253906 11.765625 21.253906 C 11.917969 21.253906 12.039062 21.132812 12.039062 20.980469 C 12.039062 20.828125 11.917969 20.703125 11.765625 20.703125 L 8.464844 20.703125 C 8.097656 20.699219 7.910156 20.375 7.953125 20.042969 C 7.953125 19.761719 8.179688 19.53125 8.460938 19.53125 L 10.523438 19.53125 C 10.886719 19.53125 10.886719 18.984375 10.523438 18.980469 C 10.523438 18.980469 8.734375 18.980469 8.734375 18.980469 C 8.734375 18.980469 8.734375 18.203125 8.734375 18.203125 C 8.734375 16.980469 8.253906 15.847656 7.414062 15.089844 C 3.75 11.808594 6.101562 5.820312 10.992188 5.667969 C 13.703125 5.585938 16.058594 7.40625 16.597656 9.988281 C 16.675781 10.347656 17.207031 10.230469 17.136719 9.878906 C 15.503906 2.90625 5.320312 3.910156 5.066406 11.058594 C 5.054688 12.742188 5.777344 14.359375 7.046875 15.5 C 7.769531 16.152344 8.183594 17.136719 8.183594 18.203125 L 8.183594 19.023438 C 7.671875 19.152344 7.347656 19.660156 7.398438 20.195312 C 7.398438 20.507812 7.539062 20.785156 7.753906 20.980469 C 7.488281 21.203125 7.371094 21.570312 7.398438 21.925781 C 7.398438 22.507812 7.875 22.980469 8.460938 22.980469 L 9.121094 22.980469 L 9.3125 23.941406 C 9.484375 24.808594 10.265625 25.441406 11.164062 25.441406 C 12.066406 25.441406 12.847656 24.808594 13.019531 23.941406 L 13.210938 22.980469 C 13.59375 22.964844 14.183594 23.054688 14.5 22.773438 C 14.785156 22.554688 14.460938 22.117188 14.167969 22.328125 Z M 12.480469 23.832031 C 12.191406 25.226562 10.140625 25.226562 9.851562 23.832031 C 9.851562 23.832031 9.683594 22.984375 9.683594 22.984375 L 12.648438 22.984375 Z M 12.480469 23.832031 " fill-opacity="1" fill-rule="nonzero"/><path fill="#935f3d" d="M 11.921875 16.015625 C 11.757812 16.003906 11.644531 16.128906 11.640625 16.285156 C 11.605469 17.585938 12.097656 18.808594 13.019531 19.726562 C 15.960938 22.671875 21.109375 20.570312 21.09375 16.398438 C 21.164062 13.375 18.074219 11.027344 15.171875 11.839844 C 14.820312 11.933594 14.957031 12.460938 15.308594 12.371094 C 16.738281 12.003906 18.277344 12.414062 19.320312 13.453125 C 20.9375 15 20.941406 17.785156 19.320312 19.332031 C 17.691406 20.957031 15.039062 20.957031 13.410156 19.332031 C 12.59375 18.527344 12.164062 17.449219 12.191406 16.296875 C 12.195312 16.144531 12.074219 16.019531 11.921875 16.015625 Z M 11.921875 16.015625 " fill-opacity="1" fill-rule="nonzero"/><g clip-path="url(#6f72027d87)"><path fill="#935f3d" d="M 25.523438 24.179688 L 21.121094 19.792969 C 22.792969 17.488281 22.550781 14.296875 20.507812 12.265625 C 19.292969 11.054688 17.613281 10.4375 15.898438 10.574219 C 15.746094 10.585938 15.632812 10.71875 15.644531 10.871094 C 15.65625 11.023438 15.792969 11.132812 15.941406 11.125 C 17.492188 11 19.015625 11.558594 20.121094 12.65625 C 22.464844 14.917969 22.082031 18.957031 19.367188 20.753906 C 15.882812 23.179688 10.9375 20.566406 11.058594 16.296875 C 11.0625 15.9375 10.527344 15.921875 10.503906 16.285156 C 10.375 20.894531 15.621094 23.808594 19.484375 21.328125 C 19.484375 21.328125 23.9375 25.761719 23.9375 25.761719 C 24.15625 25.980469 24.445312 26.089844 24.734375 26.089844 C 25.699219 26.117188 26.242188 24.851562 25.523438 24.179688 Z M 25.136719 25.375 C 24.914062 25.59375 24.550781 25.59375 24.328125 25.371094 L 19.945312 21.007812 C 20.140625 20.859375 20.332031 20.699219 20.511719 20.523438 C 20.613281 20.421875 20.703125 20.324219 20.78125 20.234375 L 25.136719 24.570312 C 25.359375 24.78125 25.359375 25.160156 25.136719 25.375 Z M 25.136719 25.375 " fill-opacity="1" fill-rule="nonzero"/></g><path fill="#935f3d" d="M 14.90625 16.316406 L 13.921875 16.316406 C 13.769531 16.316406 13.644531 16.441406 13.644531 16.59375 L 13.644531 17.804688 L 13.398438 17.804688 C 13.039062 17.804688 13.035156 18.355469 13.398438 18.355469 C 14.808594 18.355469 16.410156 18.355469 17.824219 18.355469 C 18.15625 18.355469 19.007812 18.359375 19.332031 18.355469 C 19.691406 18.355469 19.695312 17.808594 19.332031 17.804688 C 19.332031 17.804688 19.085938 17.804688 19.085938 17.804688 L 19.085938 14.707031 C 19.085938 14.554688 18.960938 14.429688 18.808594 14.429688 L 17.824219 14.429688 C 17.671875 14.429688 17.546875 14.554688 17.546875 14.707031 L 17.546875 17.804688 L 17.132812 17.804688 L 17.132812 15.632812 C 17.132812 15.480469 17.011719 15.355469 16.859375 15.355469 L 15.871094 15.355469 C 15.71875 15.355469 15.597656 15.480469 15.597656 15.632812 L 15.597656 17.804688 L 15.183594 17.804688 L 15.183594 16.59375 C 15.183594 16.441406 15.058594 16.316406 14.90625 16.316406 Z M 14.199219 17.804688 L 14.199219 16.867188 L 14.632812 16.867188 L 14.632812 17.804688 Z M 18.097656 14.984375 L 18.53125 14.984375 L 18.53125 17.804688 L 18.097656 17.804688 Z M 16.148438 15.910156 L 16.582031 15.910156 L 16.582031 17.804688 L 16.148438 17.804688 Z M 16.148438 15.910156 " fill-opacity="1" fill-rule="nonzero"/></svg>