<svg xmlns="http://www.w3.org/2000/svg" xmlns:xlink="http://www.w3.org/1999/xlink" width="40" zoomAndPan="magnify" viewBox="0 0 30 30.000001" height="40" preserveAspectRatio="xMidYMid meet" version="1.0"><defs><clipPath id="1f137e7525"><path d="M 0.484375 0 L 29.515625 0 L 29.515625 29.03125 L 0.484375 29.03125 Z M 0.484375 0 " clip-rule="nonzero"/></clipPath><clipPath id="443570f346"><path d="M 5 2.902344 L 25 2.902344 L 25 26.128906 L 5 26.128906 Z M 5 2.902344 " clip-rule="nonzero"/></clipPath><clipPath id="fd106c1c86"><path d="M 3.386719 2.902344 L 13 2.902344 L 13 18 L 3.386719 18 Z M 3.386719 2.902344 " clip-rule="nonzero"/></clipPath><clipPath id="0778fb2ea8"><path d="M 17 2.902344 L 26.613281 2.902344 L 26.613281 18 L 17 18 Z M 17 2.902344 " clip-rule="nonzero"/></clipPath></defs><g clip-path="url(#1f137e7525)"><path fill="#ffffff" d="M 0.484375 0 L 29.515625 0 L 29.515625 29.03125 L 0.484375 29.03125 Z M 0.484375 0 " fill-opacity="1" fill-rule="nonzero"/><path fill="#ffffff" d="M 0.484375 0 L 29.515625 0 L 29.515625 29.03125 L 0.484375 29.03125 Z M 0.484375 0 " fill-opacity="1" fill-rule="nonzero"/></g><path fill="#935f3d" d="M 13.066406 6.773438 L 16.933594 6.773438 L 16.933594 7.546875 L 13.066406 7.546875 Z M 13.066406 6.773438 " fill-opacity="1" fill-rule="nonzero"/><path fill="#935f3d" d="M 13.066406 8.324219 L 16.933594 8.324219 L 16.933594 9.097656 L 13.066406 9.097656 Z M 13.066406 8.324219 " fill-opacity="1" fill-rule="nonzero"/><g clip-path="url(#443570f346)"><path fill="#935f3d" d="M 24.675781 23.03125 L 24.675781 19.933594 C 24.675781 19.761719 24.5625 19.613281 24.398438 19.5625 L 15.386719 16.933594 L 15.386719 12.195312 L 18.097656 12.195312 C 18.3125 12.195312 18.484375 12.019531 18.484375 11.804688 L 18.484375 5.613281 C 18.484375 5.511719 18.441406 5.410156 18.371094 5.339844 L 16.046875 3.015625 C 15.976562 2.945312 15.878906 2.902344 15.773438 2.902344 L 11.902344 2.902344 C 11.6875 2.902344 11.515625 3.078125 11.515625 3.289062 L 11.515625 11.804688 C 11.515625 12.019531 11.6875 12.195312 11.902344 12.195312 L 14.613281 12.195312 L 14.613281 16.933594 L 5.601562 19.5625 C 5.4375 19.613281 5.324219 19.761719 5.324219 19.933594 L 5.324219 23.03125 C 5.324219 23.203125 5.4375 23.355469 5.601562 23.402344 L 14.890625 26.113281 C 14.925781 26.125 14.964844 26.128906 15 26.128906 C 15.035156 26.128906 15.074219 26.125 15.109375 26.113281 L 24.398438 23.402344 C 24.5625 23.355469 24.675781 23.203125 24.675781 23.03125 Z M 16.160156 4.226562 L 17.164062 5.226562 L 16.160156 5.226562 Z M 12.289062 3.675781 L 15.386719 3.675781 L 15.386719 5.613281 C 15.386719 5.828125 15.558594 6 15.773438 6 L 17.710938 6 L 17.710938 11.417969 L 12.289062 11.417969 Z M 14.613281 17.742188 L 14.613281 19.773438 L 13.726562 18.886719 L 13.179688 19.433594 L 14.726562 20.984375 C 14.800781 21.058594 14.902344 21.097656 15 21.097656 C 15.097656 21.097656 15.199219 21.058594 15.273438 20.984375 L 16.820312 19.433594 L 16.273438 18.886719 L 15.386719 19.773438 L 15.386719 17.742188 L 22.90625 19.933594 L 15 22.242188 L 7.09375 19.933594 Z M 6.097656 20.453125 L 14.613281 22.933594 L 14.613281 25.226562 L 6.097656 22.742188 Z M 15.386719 25.226562 L 15.386719 22.933594 L 23.902344 20.453125 L 23.902344 22.742188 Z M 15.386719 25.226562 " fill-opacity="1" fill-rule="nonzero"/></g><path fill="#935f3d" d="M 13.066406 5.226562 L 14.613281 5.226562 L 14.613281 6 L 13.066406 6 Z M 13.066406 5.226562 " fill-opacity="1" fill-rule="nonzero"/><g clip-path="url(#fd106c1c86)"><path fill="#935f3d" d="M 3.773438 12.195312 L 6.484375 12.195312 C 6.484375 13.261719 7.351562 14.128906 8.417969 14.128906 L 9.582031 14.128906 C 10.222656 14.128906 10.742188 14.648438 10.742188 15.289062 L 10.742188 15.902344 L 9.855469 15.015625 L 9.308594 15.5625 L 10.855469 17.113281 C 10.929688 17.1875 11.03125 17.226562 11.128906 17.226562 C 11.226562 17.226562 11.328125 17.1875 11.402344 17.113281 L 12.949219 15.5625 L 12.402344 15.015625 L 11.515625 15.902344 L 11.515625 15.289062 C 11.515625 14.222656 10.648438 13.355469 9.582031 13.355469 L 8.417969 13.355469 C 7.777344 13.355469 7.257812 12.832031 7.257812 12.195312 L 9.96875 12.195312 C 10.183594 12.195312 10.355469 12.019531 10.355469 11.804688 L 10.355469 5.613281 C 10.355469 5.511719 10.3125 5.410156 10.242188 5.339844 L 7.917969 3.015625 C 7.847656 2.945312 7.75 2.902344 7.644531 2.902344 L 3.773438 2.902344 C 3.558594 2.902344 3.386719 3.078125 3.386719 3.289062 L 3.386719 11.804688 C 3.386719 12.019531 3.558594 12.195312 3.773438 12.195312 Z M 8.03125 4.226562 L 9.035156 5.226562 L 8.03125 5.226562 Z M 4.160156 3.675781 L 7.257812 3.675781 L 7.257812 5.613281 C 7.257812 5.828125 7.429688 6 7.644531 6 L 9.582031 6 L 9.582031 11.417969 L 4.160156 11.417969 Z M 4.160156 3.675781 " fill-opacity="1" fill-rule="nonzero"/></g><path fill="#935f3d" d="M 4.933594 6.773438 L 8.804688 6.773438 L 8.804688 7.546875 L 4.933594 7.546875 Z M 4.933594 6.773438 " fill-opacity="1" fill-rule="nonzero"/><path fill="#935f3d" d="M 4.933594 8.324219 L 8.804688 8.324219 L 8.804688 9.097656 L 4.933594 9.097656 Z M 4.933594 8.324219 " fill-opacity="1" fill-rule="nonzero"/><path fill="#935f3d" d="M 4.933594 9.871094 L 8.804688 9.871094 L 8.804688 10.644531 L 4.933594 10.644531 Z M 4.933594 9.871094 " fill-opacity="1" fill-rule="nonzero"/><path fill="#935f3d" d="M 4.933594 5.226562 L 6.484375 5.226562 L 6.484375 6 L 4.933594 6 Z M 4.933594 5.226562 " fill-opacity="1" fill-rule="nonzero"/><g clip-path="url(#0778fb2ea8)"><path fill="#935f3d" d="M 26.613281 11.804688 L 26.613281 5.613281 C 26.613281 5.511719 26.570312 5.410156 26.5 5.339844 L 24.175781 3.015625 C 24.105469 2.945312 24.007812 2.902344 23.902344 2.902344 L 20.03125 2.902344 C 19.816406 2.902344 19.644531 3.078125 19.644531 3.289062 L 19.644531 11.804688 C 19.644531 12.019531 19.816406 12.195312 20.03125 12.195312 L 22.742188 12.195312 C 22.742188 12.832031 22.222656 13.355469 21.582031 13.355469 L 20.417969 13.355469 C 19.351562 13.355469 18.484375 14.222656 18.484375 15.289062 L 18.484375 15.902344 L 17.597656 15.015625 L 17.050781 15.5625 L 18.597656 17.113281 C 18.671875 17.1875 18.773438 17.226562 18.871094 17.226562 C 18.96875 17.226562 19.070312 17.1875 19.144531 17.113281 L 20.691406 15.5625 L 20.144531 15.015625 L 19.257812 15.902344 L 19.257812 15.289062 C 19.257812 14.648438 19.777344 14.128906 20.417969 14.128906 L 21.582031 14.128906 C 22.648438 14.128906 23.515625 13.261719 23.515625 12.195312 L 26.226562 12.195312 C 26.441406 12.195312 26.613281 12.019531 26.613281 11.804688 Z M 24.289062 4.226562 L 25.292969 5.226562 L 24.289062 5.226562 Z M 20.417969 11.417969 L 20.417969 3.675781 L 23.515625 3.675781 L 23.515625 5.613281 C 23.515625 5.828125 23.6875 6 23.902344 6 L 25.839844 6 L 25.839844 11.417969 Z M 20.417969 11.417969 " fill-opacity="1" fill-rule="nonzero"/></g><path fill="#935f3d" d="M 21.195312 6.773438 L 25.066406 6.773438 L 25.066406 7.546875 L 21.195312 7.546875 Z M 21.195312 6.773438 " fill-opacity="1" fill-rule="nonzero"/><path fill="#935f3d" d="M 21.195312 8.324219 L 25.066406 8.324219 L 25.066406 9.097656 L 21.195312 9.097656 Z M 21.195312 8.324219 " fill-opacity="1" fill-rule="nonzero"/><path fill="#935f3d" d="M 21.195312 9.871094 L 25.066406 9.871094 L 25.066406 10.644531 L 21.195312 10.644531 Z M 21.195312 9.871094 " fill-opacity="1" fill-rule="nonzero"/><path fill="#935f3d" d="M 21.195312 5.226562 L 22.742188 5.226562 L 22.742188 6 L 21.195312 6 Z M 21.195312 5.226562 " fill-opacity="1" fill-rule="nonzero"/><path fill="#935f3d" d="M 13.066406 9.871094 L 13.839844 9.871094 L 13.839844 10.644531 L 13.066406 10.644531 Z M 13.066406 9.871094 " fill-opacity="1" fill-rule="nonzero"/><path fill="#935f3d" d="M 14.613281 9.871094 L 15.386719 9.871094 L 15.386719 10.644531 L 14.613281 10.644531 Z M 14.613281 9.871094 " fill-opacity="1" fill-rule="nonzero"/><path fill="#935f3d" d="M 16.160156 9.871094 L 16.933594 9.871094 L 16.933594 10.644531 L 16.160156 10.644531 Z M 16.160156 9.871094 " fill-opacity="1" fill-rule="nonzero"/></svg>