<svg xmlns="http://www.w3.org/2000/svg" xmlns:xlink="http://www.w3.org/1999/xlink" width="40" zoomAndPan="magnify" viewBox="0 0 30 30.000001" height="40" preserveAspectRatio="xMidYMid meet" version="1.0"><defs><clipPath id="617f5fff9f"><path d="M 0.484375 0 L 29.515625 0 L 29.515625 29.03125 L 0.484375 29.03125 Z M 0.484375 0 " clip-rule="nonzero"/></clipPath><clipPath id="6d1046998b"><path d="M 3.386719 15 L 12 15 L 12 20 L 3.386719 20 Z M 3.386719 15 " clip-rule="nonzero"/></clipPath><clipPath id="024d96e7c5"><path d="M 3.386719 11 L 10 11 L 10 16 L 3.386719 16 Z M 3.386719 11 " clip-rule="nonzero"/></clipPath><clipPath id="114e50eaf0"><path d="M 18 5 L 26.613281 5 L 26.613281 15 L 18 15 Z M 18 5 " clip-rule="nonzero"/></clipPath></defs><g clip-path="url(#617f5fff9f)"><path fill="#ffffff" d="M 0.484375 0 L 29.515625 0 L 29.515625 29.03125 L 0.484375 29.03125 Z M 0.484375 0 " fill-opacity="1" fill-rule="nonzero"/><path fill="#ffffff" d="M 0.484375 0 L 29.515625 0 L 29.515625 29.03125 L 0.484375 29.03125 Z M 0.484375 0 " fill-opacity="1" fill-rule="nonzero"/></g><g clip-path="url(#6d1046998b)"><path fill="#935f3d" d="M 9.355469 19.328125 C 9.34375 19.328125 9.328125 19.328125 9.328125 19.328125 C 9.316406 19.328125 9.300781 19.328125 9.289062 19.328125 L 3.605469 17.984375 C 3.523438 17.96875 3.441406 17.902344 3.414062 17.808594 C 3.386719 17.726562 3.402344 17.628906 3.46875 17.546875 L 5.195312 15.425781 C 5.210938 15.414062 5.222656 15.398438 5.222656 15.386719 C 5.261719 15.359375 5.289062 15.34375 5.332031 15.332031 C 5.359375 15.320312 5.398438 15.320312 5.441406 15.320312 C 5.453125 15.320312 5.46875 15.320312 5.480469 15.332031 L 11.152344 16.664062 C 11.246094 16.679688 11.328125 16.746094 11.355469 16.839844 C 11.382812 16.921875 11.371094 17.03125 11.300781 17.101562 L 9.574219 19.234375 C 9.5625 19.234375 9.546875 19.25 9.546875 19.261719 C 9.507812 19.289062 9.480469 19.300781 9.4375 19.316406 C 9.410156 19.328125 9.382812 19.328125 9.355469 19.328125 Z M 8.988281 17.96875 C 8.960938 17.96875 8.949219 17.96875 8.921875 17.96875 L 5.710938 17.207031 C 5.578125 17.179688 5.480469 17.03125 5.523438 16.882812 C 5.550781 16.734375 5.699219 16.652344 5.847656 16.679688 L 9.042969 17.441406 C 9.195312 17.46875 9.289062 17.617188 9.246094 17.765625 C 9.222656 17.886719 9.113281 17.96875 8.988281 17.96875 Z M 8.988281 17.96875 " fill-opacity="1" fill-rule="evenodd"/></g><path fill="#935f3d" d="M 12.835938 19.328125 C 12.8125 19.328125 12.785156 19.328125 12.742188 19.316406 C 12.714844 19.300781 12.675781 19.289062 12.648438 19.261719 C 12.648438 19.25 12.632812 19.234375 12.621094 19.234375 L 10.878906 17.101562 C 10.824219 17.03125 10.8125 16.921875 10.839844 16.839844 C 10.867188 16.746094 10.949219 16.679688 11.03125 16.664062 L 16.714844 15.332031 C 16.726562 15.320312 16.742188 15.320312 16.753906 15.320312 C 16.78125 15.320312 16.820312 15.320312 16.863281 15.332031 C 16.902344 15.34375 16.929688 15.359375 16.957031 15.386719 C 16.972656 15.398438 16.984375 15.414062 16.984375 15.425781 L 18.726562 17.546875 C 18.78125 17.628906 18.808594 17.726562 18.78125 17.808594 C 18.738281 17.902344 18.671875 17.96875 18.578125 17.984375 L 12.90625 19.328125 C 12.890625 19.328125 12.878906 19.328125 12.863281 19.328125 C 12.851562 19.328125 12.851562 19.328125 12.835938 19.328125 Z M 13.203125 17.96875 C 13.082031 17.96875 12.960938 17.886719 12.933594 17.765625 C 12.90625 17.617188 12.988281 17.46875 13.136719 17.441406 L 16.347656 16.679688 C 16.496094 16.652344 16.644531 16.734375 16.671875 16.882812 C 16.714844 17.03125 16.617188 17.179688 16.46875 17.207031 L 13.257812 17.96875 C 13.246094 17.96875 13.21875 17.96875 13.203125 17.96875 Z M 13.203125 17.96875 " fill-opacity="1" fill-rule="evenodd"/><g clip-path="url(#024d96e7c5)"><path fill="#935f3d" d="M 5.414062 15.863281 C 5.386719 15.863281 5.359375 15.863281 5.332031 15.847656 C 5.289062 15.835938 5.261719 15.820312 5.222656 15.792969 C 5.222656 15.78125 5.210938 15.765625 5.195312 15.753906 L 3.46875 13.632812 C 3.402344 13.550781 3.386719 13.457031 3.414062 13.375 C 3.441406 13.277344 3.523438 13.210938 3.605469 13.195312 L 9.289062 11.851562 C 9.300781 11.851562 9.316406 11.851562 9.328125 11.851562 C 9.34375 11.851562 9.355469 11.851562 9.371094 11.851562 L 9.371094 13.074219 L 9.042969 13.074219 C 8.71875 13.074219 8.417969 13.265625 8.296875 13.578125 C 8.171875 13.878906 8.242188 14.230469 8.472656 14.460938 L 9.03125 15.019531 L 5.480469 15.847656 C 5.46875 15.863281 5.453125 15.863281 5.441406 15.863281 C 5.441406 15.863281 5.425781 15.863281 5.414062 15.863281 Z M 5.414062 15.863281 " fill-opacity="1" fill-rule="evenodd"/></g><path fill="#935f3d" d="M 16.78125 15.863281 C 16.769531 15.863281 16.753906 15.863281 16.753906 15.863281 C 16.742188 15.863281 16.714844 15.863281 16.714844 15.847656 L 13.164062 15.019531 L 13.722656 14.460938 C 13.953125 14.230469 14.019531 13.878906 13.898438 13.578125 C 13.761719 13.265625 13.476562 13.074219 13.136719 13.074219 L 12.8125 13.074219 L 12.8125 11.851562 C 12.835938 11.851562 12.851562 11.851562 12.863281 11.851562 C 12.878906 11.851562 12.890625 11.851562 12.90625 11.851562 L 18.578125 13.195312 C 18.671875 13.210938 18.738281 13.277344 18.78125 13.375 C 18.808594 13.457031 18.78125 13.550781 18.726562 13.632812 L 16.984375 15.753906 C 16.984375 15.765625 16.972656 15.78125 16.957031 15.78125 C 16.929688 15.820312 16.902344 15.835938 16.863281 15.847656 C 16.835938 15.863281 16.808594 15.863281 16.78125 15.863281 Z M 16.78125 15.863281 " fill-opacity="1" fill-rule="evenodd"/><path fill="#935f3d" d="M 10.824219 24.578125 L 5.441406 22.714844 C 5.332031 22.675781 5.25 22.566406 5.25 22.457031 L 5.25 18.9375 L 9.167969 19.859375 C 9.207031 19.859375 9.195312 19.859375 9.273438 19.875 C 9.316406 19.875 9.300781 19.875 9.355469 19.875 C 9.4375 19.875 9.535156 19.859375 9.613281 19.832031 C 9.722656 19.792969 9.832031 19.738281 9.914062 19.65625 C 9.96875 19.601562 9.953125 19.617188 9.980469 19.574219 L 10.824219 18.554688 Z M 16.929688 18.9375 L 16.929688 22.457031 C 16.929688 22.566406 16.863281 22.675781 16.753906 22.714844 L 11.371094 24.578125 L 11.371094 18.554688 L 12.199219 19.574219 C 12.238281 19.617188 12.226562 19.601562 12.28125 19.65625 C 12.363281 19.738281 12.457031 19.792969 12.578125 19.832031 C 12.660156 19.859375 12.742188 19.875 12.835938 19.875 C 12.878906 19.875 12.878906 19.875 12.917969 19.875 C 13 19.859375 12.972656 19.859375 13.027344 19.859375 Z M 16.929688 18.9375 " fill-opacity="1" fill-rule="evenodd"/><path fill="#935f3d" d="M 11.097656 16.203125 C 11.03125 16.203125 10.960938 16.175781 10.90625 16.121094 L 8.855469 14.082031 C 8.773438 14 8.757812 13.890625 8.800781 13.78125 C 8.839844 13.6875 8.933594 13.617188 9.042969 13.617188 L 9.914062 13.617188 L 9.914062 10.519531 C 9.914062 10.367188 10.035156 10.246094 10.1875 10.246094 L 11.996094 10.246094 C 12.15625 10.246094 12.265625 10.367188 12.265625 10.519531 L 12.265625 13.617188 L 13.136719 13.617188 C 13.246094 13.617188 13.355469 13.6875 13.394531 13.78125 C 13.4375 13.890625 13.410156 14 13.328125 14.082031 L 11.289062 16.121094 C 11.234375 16.175781 11.164062 16.203125 11.097656 16.203125 Z M 11.097656 16.203125 " fill-opacity="1" fill-rule="evenodd"/><path fill="#935f3d" d="M 12.550781 9.605469 C 12.511719 9.605469 12.472656 9.59375 12.429688 9.578125 C 12.335938 9.527344 12.28125 9.417969 12.28125 9.308594 C 12.390625 8.03125 13.191406 6.957031 14.578125 6.207031 C 15.40625 5.757812 16.210938 5.542969 16.617188 5.445312 L 16.617188 4.738281 C 16.617188 4.628906 16.6875 4.535156 16.78125 4.496094 C 16.890625 4.453125 17 4.46875 17.082031 4.546875 L 19.011719 6.480469 C 19.105469 6.574219 19.105469 6.75 19.011719 6.859375 L 17.082031 8.792969 C 17 8.859375 16.890625 8.886719 16.78125 8.84375 C 16.6875 8.804688 16.617188 8.695312 16.617188 8.585938 L 16.617188 7.933594 C 14.402344 8.058594 12.757812 9.511719 12.742188 9.527344 C 12.6875 9.578125 12.621094 9.605469 12.550781 9.605469 Z M 12.550781 9.605469 " fill-opacity="1" fill-rule="evenodd"/><g clip-path="url(#114e50eaf0)"><path fill="#935f3d" d="M 22.425781 14.3125 C 20.113281 14.3125 18.25 12.4375 18.25 10.136719 C 18.25 7.824219 20.113281 5.949219 22.425781 5.949219 C 24.738281 5.949219 26.613281 7.824219 26.613281 10.136719 C 26.613281 12.4375 24.738281 14.3125 22.425781 14.3125 Z M 22.152344 11.796875 C 21.648438 11.703125 21.269531 11.308594 21.269531 10.84375 C 21.269531 10.695312 21.390625 10.574219 21.539062 10.574219 C 21.691406 10.574219 21.8125 10.695312 21.8125 10.84375 C 21.8125 11.007812 21.949219 11.15625 22.152344 11.238281 L 22.152344 10.382812 C 21.648438 10.273438 21.269531 9.878906 21.269531 9.417969 C 21.269531 8.953125 21.648438 8.574219 22.152344 8.464844 L 22.152344 8.300781 C 22.152344 8.152344 22.273438 8.03125 22.425781 8.03125 C 22.574219 8.03125 22.695312 8.152344 22.695312 8.300781 L 22.695312 8.464844 C 23.199219 8.574219 23.582031 8.953125 23.582031 9.417969 C 23.582031 9.566406 23.457031 9.6875 23.308594 9.6875 C 23.160156 9.6875 23.035156 9.566406 23.035156 9.417969 C 23.035156 9.253906 22.902344 9.105469 22.695312 9.035156 L 22.695312 9.894531 C 23.199219 9.988281 23.582031 10.382812 23.582031 10.84375 C 23.582031 11.308594 23.199219 11.703125 22.695312 11.796875 L 22.695312 11.972656 C 22.695312 12.121094 22.574219 12.246094 22.425781 12.246094 C 22.273438 12.246094 22.152344 12.121094 22.152344 11.972656 Z M 22.425781 13.183594 C 20.753906 13.183594 19.378906 11.808594 19.378906 10.136719 C 19.378906 8.453125 20.753906 7.089844 22.425781 7.089844 C 24.109375 7.089844 25.46875 8.453125 25.46875 10.136719 C 25.46875 11.808594 24.109375 13.183594 22.425781 13.183594 Z M 22.425781 7.636719 C 21.050781 7.636719 19.921875 8.75 19.921875 10.136719 C 19.921875 11.511719 21.050781 12.640625 22.425781 12.640625 C 23.796875 12.640625 24.925781 11.511719 24.925781 10.136719 C 24.925781 8.75 23.796875 7.636719 22.425781 7.636719 Z M 22.695312 11.238281 C 22.902344 11.15625 23.035156 11.007812 23.035156 10.84375 C 23.035156 10.679688 22.902344 10.53125 22.695312 10.449219 Z M 22.152344 9.035156 C 21.949219 9.105469 21.8125 9.253906 21.8125 9.417969 C 21.8125 9.59375 21.949219 9.742188 22.152344 9.8125 Z M 22.152344 9.035156 " fill-opacity="1" fill-rule="evenodd"/></g></svg>