<svg xmlns="http://www.w3.org/2000/svg" xmlns:xlink="http://www.w3.org/1999/xlink" width="40" zoomAndPan="magnify" viewBox="0 0 30 30.000001" height="40" preserveAspectRatio="xMidYMid meet" version="1.0"><defs><clipPath id="831ec50518"><path d="M 0.484375 0 L 29.515625 0 L 29.515625 29.03125 L 0.484375 29.03125 Z M 0.484375 0 " clip-rule="nonzero"/></clipPath><clipPath id="9b99476037"><path d="M 12 19 L 20 19 L 20 26.128906 L 12 26.128906 Z M 12 19 " clip-rule="nonzero"/></clipPath><clipPath id="e83e32a833"><path d="M 18 12 L 26.613281 12 L 26.613281 21 L 18 21 Z M 18 12 " clip-rule="nonzero"/></clipPath><clipPath id="03ba8880d2"><path d="M 3.386719 2.902344 L 24 2.902344 L 24 23 L 3.386719 23 Z M 3.386719 2.902344 " clip-rule="nonzero"/></clipPath></defs><g clip-path="url(#831ec50518)"><path fill="#ffffff" d="M 0.484375 0 L 29.515625 0 L 29.515625 29.03125 L 0.484375 29.03125 Z M 0.484375 0 " fill-opacity="1" fill-rule="nonzero"/><path fill="#ffffff" d="M 0.484375 0 L 29.515625 0 L 29.515625 29.03125 L 0.484375 29.03125 Z M 0.484375 0 " fill-opacity="1" fill-rule="nonzero"/></g><g clip-path="url(#9b99476037)"><path fill="#935f3d" d="M 12.933594 24.296875 L 12.925781 26.113281 L 14.753906 26.128906 L 15.21875 25.664062 L 15.140625 24.699219 C 15.113281 24.457031 15.199219 24.210938 15.375 24.035156 C 15.550781 23.859375 15.796875 23.765625 16.046875 23.785156 L 17 23.875 L 17.632812 23.246094 L 17.546875 22.289062 C 17.527344 22.035156 17.621094 21.789062 17.796875 21.617188 C 17.972656 21.441406 18.21875 21.355469 18.464844 21.378906 L 19.410156 21.460938 L 19.953125 20.925781 L 18.125 19.097656 L 12.933594 24.296875 " fill-opacity="1" fill-rule="nonzero"/></g><g clip-path="url(#e83e32a833)"><path fill="#935f3d" d="M 25.523438 13.53125 C 24.824219 12.828125 23.894531 12.441406 22.902344 12.441406 C 21.910156 12.441406 20.980469 12.828125 20.28125 13.53125 C 19.398438 14.40625 19.019531 15.65625 19.265625 16.875 C 19.292969 17.011719 19.25 17.152344 19.152344 17.25 L 18.332031 18.070312 L 18.332031 18.128906 L 20.925781 20.722656 C 20.925781 20.722656 20.929688 20.722656 20.933594 20.722656 C 20.949219 20.722656 20.984375 20.726562 20.984375 20.722656 L 21.804688 19.90625 C 21.90625 19.804688 22.042969 19.761719 22.179688 19.792969 C 23.398438 20.039062 24.648438 19.65625 25.523438 18.777344 C 25.523438 18.777344 25.523438 18.777344 25.523438 18.773438 C 26.226562 18.074219 26.613281 17.144531 26.613281 16.152344 C 26.613281 15.164062 26.226562 14.230469 25.523438 13.53125 " fill-opacity="1" fill-rule="nonzero"/></g><g clip-path="url(#03ba8880d2)"><path fill="#935f3d" d="M 5.875 14.929688 L 10.851562 14.929688 C 11.082031 14.929688 11.265625 15.117188 11.265625 15.34375 C 11.265625 15.574219 11.082031 15.761719 10.851562 15.761719 L 5.875 15.761719 C 5.648438 15.761719 5.460938 15.574219 5.460938 15.34375 C 5.460938 15.117188 5.648438 14.929688 5.875 14.929688 Z M 5.875 12.027344 L 15 12.027344 C 15.226562 12.027344 15.414062 12.214844 15.414062 12.441406 C 15.414062 12.671875 15.226562 12.855469 15 12.855469 L 5.875 12.855469 C 5.648438 12.855469 5.460938 12.671875 5.460938 12.441406 C 5.460938 12.214844 5.648438 12.027344 5.875 12.027344 Z M 5.875 9.125 L 18.316406 9.125 C 18.546875 9.125 18.734375 9.3125 18.734375 9.539062 C 18.734375 9.769531 18.546875 9.953125 18.316406 9.953125 L 5.875 9.953125 C 5.648438 9.953125 5.460938 9.769531 5.460938 9.539062 C 5.460938 9.3125 5.648438 9.125 5.875 9.125 Z M 5.875 6.222656 L 20.804688 6.222656 C 21.035156 6.222656 21.222656 6.40625 21.222656 6.636719 C 21.222656 6.863281 21.035156 7.050781 20.804688 7.050781 L 5.875 7.050781 C 5.648438 7.050781 5.460938 6.863281 5.460938 6.636719 C 5.460938 6.40625 5.648438 6.222656 5.875 6.222656 Z M 3.386719 16.589844 C 3.386719 18.191406 4.691406 19.492188 6.289062 19.492188 L 7.121094 19.492188 C 7.347656 19.492188 7.535156 19.679688 7.535156 19.90625 L 7.535156 22.382812 C 7.535156 22.550781 7.625 22.695312 7.769531 22.765625 C 7.839844 22.800781 8.019531 22.867188 8.207031 22.722656 L 12.257812 19.582031 C 12.328125 19.523438 12.417969 19.492188 12.511719 19.492188 L 16.5625 19.492188 L 17.578125 18.476562 C 17.519531 18.359375 17.488281 18.230469 17.488281 18.089844 C 17.488281 17.859375 17.582031 17.640625 17.746094 17.480469 L 18.410156 16.816406 C 18.199219 15.394531 18.667969 13.960938 19.695312 12.945312 C 20.550781 12.085938 21.6875 11.613281 22.902344 11.613281 C 23.035156 11.613281 23.164062 11.621094 23.296875 11.632812 L 23.296875 5.804688 C 23.296875 4.207031 21.992188 2.902344 20.390625 2.902344 L 6.289062 2.902344 C 4.691406 2.902344 3.386719 4.207031 3.386719 5.804688 L 3.386719 16.589844 " fill-opacity="1" fill-rule="nonzero"/></g></svg>