<svg xmlns="http://www.w3.org/2000/svg" xmlns:xlink="http://www.w3.org/1999/xlink" width="40" zoomAndPan="magnify" viewBox="0 0 30 30.000001" height="40" preserveAspectRatio="xMidYMid meet" version="1.0"><defs><clipPath id="fd68b6264e"><path d="M 0.484375 0 L 29.515625 0 L 29.515625 29.03125 L 0.484375 29.03125 Z M 0.484375 0 " clip-rule="nonzero"/></clipPath><clipPath id="8943b81333"><path d="M 3.386719 3.65625 L 26.613281 3.65625 L 26.613281 25.433594 L 3.386719 25.433594 Z M 3.386719 3.65625 " clip-rule="nonzero"/></clipPath></defs><g clip-path="url(#fd68b6264e)"><path fill="#ffffff" d="M 0.484375 0 L 29.515625 0 L 29.515625 29.03125 L 0.484375 29.03125 Z M 0.484375 0 " fill-opacity="1" fill-rule="nonzero"/><path fill="#ffffff" d="M 0.484375 0 L 29.515625 0 L 29.515625 29.03125 L 0.484375 29.03125 Z M 0.484375 0 " fill-opacity="1" fill-rule="nonzero"/></g><g clip-path="url(#8943b81333)"><path fill="#935f3d" d="M 16.355469 23.625 C 16.355469 23.820312 16.195312 23.980469 16.003906 23.980469 L 13.992188 23.980469 C 13.796875 23.980469 13.640625 23.820312 13.640625 23.625 C 13.640625 23.433594 13.796875 23.273438 13.992188 23.273438 L 16.003906 23.273438 C 16.195312 23.273438 16.355469 23.433594 16.355469 23.625 Z M 18.132812 24.253906 L 18.132812 13.53125 C 18.132812 13.308594 17.953125 13.125 17.730469 13.125 L 12.265625 13.125 C 12.042969 13.125 11.859375 13.308594 11.859375 13.53125 L 11.859375 24.253906 C 11.859375 24.480469 12.042969 24.660156 12.265625 24.660156 L 17.730469 24.660156 C 17.953125 24.660156 18.132812 24.476562 18.132812 24.253906 Z M 17.730469 12.421875 L 12.265625 12.421875 C 11.652344 12.421875 11.15625 12.917969 11.15625 13.53125 L 11.15625 24.253906 C 11.15625 24.867188 11.652344 25.363281 12.265625 25.363281 L 17.730469 25.363281 C 18.339844 25.363281 18.839844 24.867188 18.839844 24.253906 L 18.839844 13.53125 C 18.839844 12.917969 18.339844 12.421875 17.730469 12.421875 Z M 12.945312 6.523438 L 13.492188 6.523438 L 13.492188 8.367188 L 12.945312 8.367188 Z M 14.789062 6.523438 C 14.957031 6.523438 15.097656 6.410156 15.132812 6.246094 L 15.289062 5.539062 C 15.328125 5.363281 15.59375 5.421875 15.554688 5.597656 L 15.445312 6.097656 C 15.398438 6.3125 15.566406 6.523438 15.789062 6.523438 L 16.125 6.523438 C 16.636719 6.523438 17.050781 6.9375 17.050781 7.445312 C 17.050781 7.953125 16.636719 8.367188 16.125 8.367188 L 14.195312 8.367188 L 14.195312 6.523438 Z M 12.824219 9.070312 L 16.125 9.070312 C 17.023438 9.070312 17.753906 8.34375 17.753906 7.445312 C 17.753906 6.582031 17.078125 5.875 16.226562 5.824219 L 16.242188 5.75 C 16.34375 5.296875 16.058594 4.847656 15.605469 4.746094 C 15.152344 4.648438 14.703125 4.933594 14.601562 5.386719 L 14.507812 5.820312 L 12.824219 5.820312 C 12.503906 5.820312 12.242188 6.082031 12.242188 6.402344 L 12.242188 8.492188 C 12.242188 8.8125 12.503906 9.070312 12.824219 9.070312 Z M 10.542969 5.175781 L 10.542969 8.625 C 10.542969 9.070312 10.90625 9.433594 11.351562 9.433594 L 13.558594 9.433594 C 13.960938 9.433594 14.3125 9.648438 14.496094 10.003906 L 14.996094 10.980469 L 15.496094 10.003906 C 15.683594 9.648438 16.03125 9.433594 16.433594 9.433594 L 18.644531 9.433594 C 19.089844 9.433594 19.453125 9.070312 19.453125 8.625 L 19.453125 5.175781 C 19.453125 4.730469 19.089844 4.367188 18.644531 4.367188 L 11.351562 4.367188 C 10.90625 4.367188 10.542969 4.730469 10.542969 5.175781 Z M 11.351562 10.136719 L 13.558594 10.136719 C 13.699219 10.136719 13.808594 10.203125 13.871094 10.328125 L 14.683594 11.914062 C 14.816406 12.167969 15.179688 12.167969 15.308594 11.914062 L 16.125 10.328125 C 16.1875 10.203125 16.296875 10.136719 16.433594 10.136719 L 18.644531 10.136719 C 19.476562 10.136719 20.15625 9.457031 20.15625 8.625 L 20.15625 5.175781 C 20.15625 4.34375 19.476562 3.664062 18.644531 3.664062 L 11.351562 3.664062 C 10.515625 3.664062 9.839844 4.34375 9.839844 5.175781 L 9.839844 8.625 C 9.839844 9.457031 10.515625 10.136719 11.351562 10.136719 Z M 23.632812 18.308594 C 23.460938 18.308594 23.320312 18.175781 23.308594 18.003906 L 23.957031 18.003906 C 23.945312 18.175781 23.804688 18.308594 23.632812 18.308594 Z M 22.671875 16.449219 C 22.671875 15.917969 23.105469 15.488281 23.632812 15.488281 C 24.164062 15.488281 24.59375 15.917969 24.59375 16.449219 L 24.59375 17.300781 L 22.671875 17.300781 Z M 23.984375 14.824219 L 23.984375 14.546875 C 23.984375 14.351562 23.828125 14.195312 23.632812 14.195312 C 23.4375 14.195312 23.28125 14.351562 23.28125 14.546875 L 23.28125 14.824219 C 22.53125 14.984375 21.96875 15.652344 21.96875 16.449219 L 21.96875 17.652344 C 21.96875 17.847656 22.125 18.003906 22.320312 18.003906 L 22.605469 18.003906 C 22.617188 18.5625 23.074219 19.011719 23.632812 19.011719 C 24.191406 19.011719 24.648438 18.5625 24.660156 18.003906 L 24.945312 18.003906 C 25.140625 18.003906 25.296875 17.847656 25.296875 17.652344 L 25.296875 16.449219 C 25.296875 15.652344 24.734375 14.984375 23.984375 14.824219 Z M 25.90625 18.992188 L 25.90625 14.214844 C 25.90625 13.992188 25.726562 13.8125 25.503906 13.8125 L 21.761719 13.8125 C 21.542969 13.8125 21.359375 13.992188 21.359375 14.214844 L 21.359375 15.726562 C 21.359375 16.050781 21.164062 16.335938 20.863281 16.453125 L 20.472656 16.605469 L 20.863281 16.753906 C 21.164062 16.871094 21.359375 17.15625 21.359375 17.480469 L 21.359375 18.992188 C 21.359375 19.214844 21.542969 19.394531 21.761719 19.394531 L 25.503906 19.394531 C 25.726562 19.394531 25.90625 19.214844 25.90625 18.992188 Z M 25.503906 13.109375 L 21.761719 13.109375 C 21.152344 13.109375 20.65625 13.605469 20.65625 14.214844 L 20.65625 15.726562 C 20.65625 15.757812 20.640625 15.78125 20.609375 15.796875 L 19.371094 16.273438 C 19.070312 16.390625 19.074219 16.816406 19.371094 16.929688 L 20.609375 17.410156 C 20.640625 17.425781 20.65625 17.445312 20.65625 17.480469 L 20.65625 18.992188 C 20.65625 19.601562 21.152344 20.097656 21.761719 20.097656 L 25.503906 20.097656 C 26.113281 20.097656 26.609375 19.601562 26.609375 18.992188 L 26.609375 14.214844 C 26.609375 13.605469 26.113281 13.109375 25.503906 13.109375 Z M 6.363281 17.789062 C 5.71875 17.4375 5.035156 16.628906 5.035156 15.984375 C 5.035156 15.425781 5.734375 15.167969 6.097656 15.585938 C 6.238281 15.746094 6.488281 15.746094 6.625 15.585938 C 6.988281 15.167969 7.6875 15.421875 7.6875 15.984375 C 7.6875 16.628906 7.003906 17.4375 6.363281 17.789062 Z M 7.082031 14.675781 C 6.824219 14.675781 6.574219 14.75 6.363281 14.890625 C 5.496094 14.320312 4.332031 14.941406 4.332031 15.984375 C 4.332031 16.992188 5.308594 18.101562 6.21875 18.503906 C 6.308594 18.542969 6.414062 18.542969 6.503906 18.503906 C 7.414062 18.101562 8.390625 16.992188 8.390625 15.984375 C 8.390625 15.261719 7.804688 14.675781 7.082031 14.675781 Z M 9.132812 16.753906 L 9.523438 16.605469 L 9.132812 16.453125 C 8.828125 16.335938 8.632812 16.050781 8.632812 15.726562 L 8.632812 14.214844 C 8.632812 13.992188 8.453125 13.8125 8.230469 13.8125 L 4.492188 13.8125 C 4.269531 13.8125 4.089844 13.992188 4.089844 14.214844 L 4.089844 18.992188 C 4.089844 19.214844 4.269531 19.394531 4.492188 19.394531 L 8.230469 19.394531 C 8.453125 19.394531 8.632812 19.214844 8.632812 18.992188 L 8.632812 17.480469 C 8.632812 17.15625 8.828125 16.871094 9.132812 16.753906 Z M 10.625 16.273438 L 9.386719 15.796875 C 9.355469 15.78125 9.339844 15.757812 9.339844 15.726562 L 9.339844 14.214844 C 9.339844 13.605469 8.84375 13.109375 8.230469 13.109375 L 4.492188 13.109375 C 3.882812 13.109375 3.386719 13.605469 3.386719 14.214844 L 3.386719 18.992188 C 3.386719 19.601562 3.882812 20.097656 4.492188 20.097656 L 8.230469 20.097656 C 8.84375 20.097656 9.339844 19.601562 9.339844 18.992188 L 9.339844 17.480469 C 9.339844 17.449219 9.355469 17.425781 9.386719 17.410156 L 10.625 16.929688 C 10.921875 16.816406 10.921875 16.390625 10.625 16.273438 Z M 10.625 16.273438 " fill-opacity="1" fill-rule="evenodd"/></g></svg>