<svg xmlns="http://www.w3.org/2000/svg" xmlns:xlink="http://www.w3.org/1999/xlink" width="40" zoomAndPan="magnify" viewBox="0 0 30 30.000001" height="40" preserveAspectRatio="xMidYMid meet" version="1.0"><defs><clipPath id="c3a197f59b"><path d="M 0.484375 0 L 29.515625 0 L 29.515625 29.03125 L 0.484375 29.03125 Z M 0.484375 0 " clip-rule="nonzero"/></clipPath><clipPath id="fad0ad77b7"><path d="M 3.386719 4.910156 L 26.613281 4.910156 L 26.613281 23.78125 L 3.386719 23.78125 Z M 3.386719 4.910156 " clip-rule="nonzero"/></clipPath></defs><g clip-path="url(#c3a197f59b)"><path fill="#ffffff" d="M 0.484375 0 L 29.515625 0 L 29.515625 29.03125 L 0.484375 29.03125 Z M 0.484375 0 " fill-opacity="1" fill-rule="nonzero"/><path fill="#ffffff" d="M 0.484375 0 L 29.515625 0 L 29.515625 29.03125 L 0.484375 29.03125 Z M 0.484375 0 " fill-opacity="1" fill-rule="nonzero"/></g><g clip-path="url(#fad0ad77b7)"><path fill="#935f3d" d="M 26.0625 4.941406 L 3.9375 4.941406 C 3.828125 4.941406 3.734375 4.980469 3.65625 5.054688 C 3.582031 5.132812 3.542969 5.226562 3.542969 5.335938 L 3.542969 23.773438 C 3.542969 23.882812 3.582031 23.976562 3.65625 24.050781 C 3.734375 24.128906 3.828125 24.167969 3.9375 24.167969 L 26.0625 24.167969 C 26.171875 24.167969 26.265625 24.128906 26.34375 24.050781 C 26.417969 23.976562 26.457031 23.882812 26.457031 23.773438 L 26.457031 5.335938 C 26.457031 5.226562 26.417969 5.132812 26.34375 5.054688 C 26.265625 4.980469 26.171875 4.941406 26.0625 4.941406 Z M 25.667969 23.378906 L 4.332031 23.378906 L 4.332031 5.730469 L 25.667969 5.730469 Z M 25.667969 23.378906 " fill-opacity="1" fill-rule="nonzero"/></g><path fill="#935f3d" d="M 5.5 22.585938 L 24.5 22.585938 C 24.609375 22.585938 24.703125 22.546875 24.78125 22.46875 C 24.859375 22.390625 24.898438 22.300781 24.898438 22.191406 L 24.898438 6.917969 C 24.898438 6.808594 24.859375 6.714844 24.78125 6.640625 C 24.703125 6.5625 24.609375 6.523438 24.5 6.523438 L 5.5 6.523438 C 5.390625 6.523438 5.296875 6.5625 5.21875 6.640625 C 5.140625 6.714844 5.101562 6.808594 5.101562 6.917969 L 5.101562 22.191406 C 5.101562 22.300781 5.140625 22.390625 5.21875 22.46875 C 5.296875 22.546875 5.390625 22.585938 5.5 22.585938 Z M 5.894531 7.3125 L 24.105469 7.3125 L 24.105469 21.792969 L 5.894531 21.792969 Z M 5.894531 7.3125 " fill-opacity="1" fill-rule="nonzero"/><path fill="#935f3d" d="M 11.734375 9.992188 C 11.765625 9.972656 15.015625 8.21875 18.144531 9.992188 C 18.238281 10.042969 18.339844 10.058594 18.445312 10.027344 C 18.550781 10 18.628906 9.9375 18.683594 9.839844 C 18.738281 9.746094 18.75 9.644531 18.71875 9.539062 C 18.691406 9.433594 18.628906 9.355469 18.535156 9.300781 C 17.410156 8.714844 16.210938 8.421875 14.941406 8.421875 C 13.671875 8.421875 12.476562 8.714844 11.347656 9.300781 C 11.253906 9.355469 11.191406 9.433594 11.160156 9.539062 C 11.132812 9.644531 11.140625 9.742188 11.195312 9.839844 C 11.25 9.933594 11.328125 9.996094 11.433594 10.027344 C 11.535156 10.058594 11.636719 10.046875 11.734375 9.992188 Z M 11.734375 9.992188 " fill-opacity="1" fill-rule="nonzero"/><path fill="#935f3d" d="M 14.953125 9.851562 C 11.835938 9.757812 9.78125 12.628906 9.695312 12.75 C 9.628906 12.839844 9.605469 12.941406 9.625 13.046875 C 9.644531 13.15625 9.699219 13.242188 9.789062 13.304688 C 9.875 13.367188 9.976562 13.390625 10.082031 13.375 C 10.191406 13.355469 10.277344 13.300781 10.339844 13.210938 C 10.359375 13.1875 12.261719 10.558594 14.925781 10.648438 C 15.839844 10.664062 16.703125 10.882812 17.515625 11.300781 C 18.328125 11.71875 19.003906 12.296875 19.546875 13.03125 C 19.613281 13.125 19.699219 13.179688 19.8125 13.195312 C 19.921875 13.214844 20.023438 13.1875 20.113281 13.121094 C 20.203125 13.050781 20.253906 12.960938 20.265625 12.851562 C 20.277344 12.738281 20.25 12.640625 20.175781 12.554688 C 19.5625 11.722656 18.796875 11.070312 17.878906 10.59375 C 16.960938 10.121094 15.988281 9.871094 14.953125 9.851562 Z M 14.953125 9.851562 " fill-opacity="1" fill-rule="nonzero"/><path fill="#935f3d" d="M 16.859375 11.742188 C 14.484375 11.058594 12.699219 11.554688 11.238281 13.296875 C 9.828125 14.984375 10.398438 17.59375 10.425781 17.707031 C 10.449219 17.808594 10.511719 17.890625 10.601562 17.945312 C 10.691406 18.003906 10.789062 18.019531 10.894531 17.996094 C 11 17.972656 11.082031 17.914062 11.140625 17.824219 C 11.199219 17.734375 11.21875 17.636719 11.195312 17.53125 C 11.191406 17.507812 10.6875 15.191406 11.84375 13.804688 C 13.09375 12.308594 14.574219 11.910156 16.640625 12.5 C 17.023438 12.632812 17.378906 12.820312 17.695312 13.070312 C 18.015625 13.320312 18.285156 13.617188 18.503906 13.960938 C 18.71875 14.300781 18.875 14.671875 18.964844 15.066406 C 19.054688 15.460938 19.078125 15.863281 19.03125 16.265625 C 18.953125 16.476562 18.820312 16.648438 18.636719 16.78125 C 18.457031 16.917969 18.253906 16.988281 18.027344 17 C 17.867188 17.035156 17.714844 17.015625 17.570312 16.945312 C 17.425781 16.878906 17.3125 16.773438 17.234375 16.632812 C 17.179688 16.507812 17.125 16.375 17.070312 16.238281 C 16.667969 15.261719 16.0625 13.785156 14.398438 14.351562 C 13.878906 14.515625 13.53125 14.855469 13.355469 15.371094 C 13.117188 16.5 13.308594 17.550781 13.933594 18.523438 C 14.574219 19.390625 15.382812 20.042969 16.363281 20.484375 C 16.414062 20.507812 16.46875 20.519531 16.523438 20.519531 C 16.734375 20.519531 16.863281 20.414062 16.90625 20.203125 C 16.949219 19.996094 16.875 19.847656 16.679688 19.761719 C 15.84375 19.390625 15.148438 18.835938 14.597656 18.101562 C 14.113281 17.34375 13.945312 16.523438 14.09375 15.632812 C 14.183594 15.359375 14.367188 15.179688 14.644531 15.101562 C 15.515625 14.808594 15.832031 15.3125 16.335938 16.539062 C 16.390625 16.675781 16.449219 16.816406 16.507812 16.949219 C 16.648438 17.25 16.867188 17.476562 17.164062 17.632812 C 17.457031 17.789062 17.769531 17.839844 18.101562 17.785156 C 18.496094 17.757812 18.851562 17.617188 19.160156 17.371094 C 19.46875 17.121094 19.683594 16.804688 19.796875 16.425781 C 19.863281 15.925781 19.84375 15.429688 19.738281 14.933594 C 19.632812 14.441406 19.445312 13.980469 19.175781 13.550781 C 18.910156 13.125 18.574219 12.753906 18.175781 12.445312 C 17.78125 12.132812 17.339844 11.898438 16.859375 11.742188 Z M 16.859375 11.742188 " fill-opacity="1" fill-rule="nonzero"/><path fill="#935f3d" d="M 18.339844 18.492188 C 17.484375 18.554688 16.738281 18.296875 16.101562 17.722656 C 15.652344 17.234375 15.414062 16.65625 15.394531 15.992188 C 15.398438 15.882812 15.359375 15.789062 15.285156 15.710938 C 15.207031 15.632812 15.117188 15.59375 15.007812 15.589844 C 14.902344 15.59375 14.808594 15.632812 14.734375 15.707031 C 14.65625 15.78125 14.613281 15.871094 14.605469 15.976562 C 14.617188 16.859375 14.925781 17.625 15.53125 18.269531 C 16.320312 19.011719 17.257812 19.347656 18.339844 19.28125 C 18.449219 19.28125 18.542969 19.242188 18.617188 19.167969 C 18.695312 19.089844 18.734375 18.996094 18.734375 18.886719 C 18.734375 18.777344 18.695312 18.683594 18.617188 18.609375 C 18.542969 18.53125 18.449219 18.492188 18.339844 18.492188 Z M 18.339844 18.492188 " fill-opacity="1" fill-rule="nonzero"/><path fill="#935f3d" d="M 12.628906 17.085938 C 12.496094 16.609375 12.472656 16.132812 12.554688 15.648438 C 12.632812 15.164062 12.8125 14.722656 13.09375 14.316406 C 13.34375 14.050781 13.640625 13.855469 13.988281 13.734375 C 14.335938 13.609375 14.691406 13.578125 15.054688 13.628906 C 15.375 13.632812 15.6875 13.699219 15.984375 13.820312 C 16.28125 13.941406 16.550781 14.109375 16.785156 14.332031 C 17.019531 14.550781 17.207031 14.808594 17.347656 15.097656 C 17.488281 15.386719 17.570312 15.691406 17.597656 16.011719 C 17.605469 16.121094 17.648438 16.214844 17.734375 16.285156 C 17.816406 16.355469 17.910156 16.386719 18.019531 16.378906 C 18.128906 16.371094 18.21875 16.328125 18.292969 16.246094 C 18.363281 16.164062 18.394531 16.066406 18.386719 15.957031 C 18.355469 15.539062 18.253906 15.140625 18.074219 14.761719 C 17.894531 14.382812 17.652344 14.050781 17.347656 13.761719 C 17.042969 13.472656 16.699219 13.25 16.3125 13.089844 C 15.921875 12.933594 15.519531 12.847656 15.101562 12.839844 C 14.613281 12.777344 14.140625 12.832031 13.679688 13.003906 C 13.214844 13.171875 12.820312 13.441406 12.492188 13.804688 C 12.132812 14.304688 11.898438 14.859375 11.789062 15.460938 C 11.679688 16.066406 11.703125 16.667969 11.859375 17.261719 C 12.226562 18.535156 12.863281 19.65625 13.769531 20.621094 C 13.847656 20.703125 13.9375 20.742188 14.046875 20.746094 C 14.15625 20.746094 14.25 20.710938 14.328125 20.636719 C 14.410156 20.558594 14.449219 20.46875 14.453125 20.359375 C 14.453125 20.25 14.417969 20.15625 14.34375 20.074219 C 13.539062 19.210938 12.96875 18.214844 12.628906 17.085938 Z M 12.628906 17.085938 " fill-opacity="1" fill-rule="nonzero"/></svg>