<svg xmlns="http://www.w3.org/2000/svg" xmlns:xlink="http://www.w3.org/1999/xlink" width="40" zoomAndPan="magnify" viewBox="0 0 30 30.000001" height="40" preserveAspectRatio="xMidYMid meet" version="1.0"><defs><clipPath id="2afc07da89"><path d="M 0.484375 0 L 29.515625 0 L 29.515625 29.03125 L 0.484375 29.03125 Z M 0.484375 0 " clip-rule="nonzero"/></clipPath><clipPath id="1ed22b49b5"><path d="M 3.386719 3.105469 L 26.613281 3.105469 L 26.613281 25.605469 L 3.386719 25.605469 Z M 3.386719 3.105469 " clip-rule="nonzero"/></clipPath></defs><g clip-path="url(#2afc07da89)"><path fill="#ffffff" d="M 0.484375 0 L 29.515625 0 L 29.515625 29.03125 L 0.484375 29.03125 Z M 0.484375 0 " fill-opacity="1" fill-rule="nonzero"/><path fill="#ffffff" d="M 0.484375 0 L 29.515625 0 L 29.515625 29.03125 L 0.484375 29.03125 Z M 0.484375 0 " fill-opacity="1" fill-rule="nonzero"/></g><g clip-path="url(#1ed22b49b5)"><path fill="#935f3d" d="M 25.902344 20.515625 C 25.902344 18.84375 24.542969 17.484375 22.871094 17.484375 C 21.203125 17.484375 19.84375 18.84375 19.84375 20.515625 C 19.84375 21.519531 20.335938 22.40625 21.085938 22.960938 L 21.085938 22.167969 C 21.085938 21.519531 21.433594 20.949219 21.953125 20.636719 C 21.347656 19.867188 21.902344 18.742188 22.871094 18.742188 C 23.855469 18.742188 24.390625 19.882812 23.792969 20.636719 C 24.3125 20.949219 24.660156 21.519531 24.660156 22.167969 L 24.660156 22.960938 C 25.414062 22.40625 25.902344 21.519531 25.902344 20.515625 Z M 22.871094 20.378906 C 22.613281 20.378906 22.40625 20.171875 22.40625 19.914062 C 22.40625 19.65625 22.613281 19.445312 22.871094 19.445312 C 23.128906 19.445312 23.339844 19.65625 23.339844 19.914062 C 23.339844 20.171875 23.128906 20.378906 22.871094 20.378906 Z M 22.871094 23.542969 C 22.492188 23.542969 22.128906 23.472656 21.789062 23.34375 L 21.789062 22.167969 C 21.789062 21.570312 22.277344 21.082031 22.871094 21.082031 C 23.472656 21.082031 23.957031 21.570312 23.957031 22.167969 L 23.957031 23.34375 C 23.621094 23.472656 23.253906 23.542969 22.871094 23.542969 Z M 13.328125 22.640625 C 13.828125 22.640625 14.230469 22.238281 14.230469 21.742188 L 14.230469 12.691406 C 14.230469 12.195312 13.828125 11.792969 13.328125 11.792969 C 12.828125 11.792969 12.425781 12.195312 12.425781 12.691406 L 12.425781 21.742188 C 12.425781 22.238281 12.828125 22.640625 13.328125 22.640625 Z M 20.003906 22.898438 C 19.867188 22.988281 19.734375 23.070312 19.59375 23.152344 C 15.191406 25.691406 9.578125 24.011719 7.289062 19.449219 C 8.597656 19.589844 10.058594 20.152344 11.722656 21.15625 L 11.722656 21.742188 C 11.722656 22.625 12.445312 23.347656 13.328125 23.347656 C 14.210938 23.347656 14.933594 22.625 14.933594 21.742188 L 14.933594 12.691406 C 14.933594 11.808594 14.210938 11.089844 13.328125 11.089844 C 12.445312 11.089844 11.722656 11.808594 11.722656 12.691406 L 11.722656 13.246094 C 10.039062 14.261719 8.570312 14.824219 7.242188 14.957031 C 7.238281 14.515625 6.910156 14.144531 6.476562 14.09375 C 6.789062 12.152344 7.734375 10.386719 9.167969 9.054688 C 9.851562 9.976562 10.945312 10.574219 12.175781 10.574219 C 14.230469 10.574219 15.90625 8.902344 15.90625 6.84375 C 15.90625 6.800781 15.90625 6.757812 15.90625 6.71875 C 17.285156 6.832031 18.621094 7.269531 19.800781 7.992188 C 19.300781 8.628906 19 9.429688 19 10.300781 C 19 12.828125 21.464844 14.613281 23.851562 13.863281 C 24.039062 14.867188 24.054688 15.910156 23.890625 16.921875 C 21.515625 16.25 19.140625 18.035156 19.140625 20.515625 C 19.140625 21.421875 19.464844 22.25 20.003906 22.898438 Z M 7.242188 18.738281 C 8.59375 18.863281 10.070312 19.390625 11.722656 20.339844 L 11.722656 14.0625 C 10.070312 15.015625 8.597656 15.539062 7.242188 15.664062 Z M 5.878906 24.65625 L 5.878906 20.347656 L 4.75 20.347656 L 4.75 24.65625 C 4.75 24.964844 5.003906 25.21875 5.3125 25.21875 C 5.625 25.21875 5.878906 24.964844 5.878906 24.65625 Z M 4.089844 19.472656 C 4.089844 19.566406 4.167969 19.644531 4.261719 19.644531 L 6.367188 19.644531 C 6.460938 19.644531 6.539062 19.566406 6.539062 19.472656 L 6.539062 14.960938 C 6.539062 14.871094 6.460938 14.789062 6.367188 14.789062 L 4.261719 14.789062 C 4.167969 14.789062 4.089844 14.867188 4.089844 14.960938 Z M 11.09375 8.492188 L 11.09375 9.671875 C 11.785156 9.9375 12.5625 9.9375 13.257812 9.671875 L 13.257812 8.492188 C 13.257812 7.898438 12.769531 7.410156 12.175781 7.410156 C 11.578125 7.410156 11.09375 7.898438 11.09375 8.492188 Z M 12.175781 6.707031 C 12.433594 6.707031 12.644531 6.496094 12.644531 6.238281 C 12.644531 5.980469 12.433594 5.773438 12.175781 5.773438 C 11.917969 5.773438 11.707031 5.980469 11.707031 6.238281 C 11.707031 6.496094 11.917969 6.707031 12.175781 6.707031 Z M 9.144531 6.84375 C 9.144531 7.84375 9.636719 8.734375 10.390625 9.289062 L 10.390625 8.492188 C 10.390625 7.847656 10.738281 7.277344 11.253906 6.964844 C 10.652344 6.199219 11.199219 5.070312 12.175781 5.070312 C 13.152344 5.070312 13.695312 6.199219 13.09375 6.964844 C 13.613281 7.277344 13.960938 7.847656 13.960938 8.492188 L 13.960938 9.289062 C 14.710938 8.734375 15.203125 7.84375 15.203125 6.84375 C 15.203125 5.171875 13.84375 3.8125 12.175781 3.8125 C 10.503906 3.8125 9.144531 5.171875 9.144531 6.84375 Z M 19.703125 10.300781 C 19.703125 11.300781 20.195312 12.191406 20.945312 12.746094 L 20.945312 11.953125 C 20.945312 11.304688 21.296875 10.734375 21.8125 10.421875 C 21.210938 9.65625 21.757812 8.527344 22.734375 8.527344 C 23.707031 8.527344 24.257812 9.65625 23.652344 10.421875 C 24.171875 10.734375 24.519531 11.304688 24.519531 11.953125 L 24.519531 12.746094 C 25.269531 12.191406 25.761719 11.300781 25.761719 10.300781 C 25.761719 8.628906 24.402344 7.269531 22.734375 7.269531 C 21.0625 7.269531 19.703125 8.628906 19.703125 10.300781 Z M 21.652344 11.953125 L 21.652344 13.128906 C 22.34375 13.394531 23.121094 13.394531 23.816406 13.128906 L 23.816406 11.953125 C 23.816406 11.355469 23.328125 10.871094 22.734375 10.871094 C 22.136719 10.871094 21.652344 11.355469 21.652344 11.953125 Z M 22.734375 10.164062 C 22.992188 10.164062 23.203125 9.957031 23.203125 9.699219 C 23.203125 9.4375 22.992188 9.230469 22.734375 9.230469 C 22.476562 9.230469 22.265625 9.4375 22.265625 9.699219 C 22.265625 9.957031 22.476562 10.164062 22.734375 10.164062 Z M 26.609375 20.515625 C 26.609375 22.574219 24.933594 24.25 22.871094 24.25 C 21.980469 24.25 21.160156 23.929688 20.515625 23.40625 C 18.183594 24.964844 15.402344 25.429688 12.71875 24.710938 C 10.257812 24.054688 8.203125 22.476562 6.933594 20.273438 C 6.914062 20.242188 6.898438 20.210938 6.878906 20.179688 C 6.792969 20.246094 6.691406 20.292969 6.582031 20.320312 L 6.582031 24.65625 C 6.582031 25.355469 6.011719 25.921875 5.3125 25.921875 C 4.617188 25.921875 4.046875 25.355469 4.046875 24.65625 L 4.046875 20.320312 C 3.667969 20.226562 3.386719 19.882812 3.386719 19.472656 L 3.386719 14.960938 C 3.386719 14.480469 3.777344 14.085938 4.261719 14.085938 L 5.765625 14.085938 C 6.097656 11.898438 7.164062 9.910156 8.800781 8.4375 C 8.570312 7.953125 8.441406 7.414062 8.441406 6.84375 C 8.441406 4.785156 10.117188 3.109375 12.175781 3.109375 C 13.945312 3.109375 15.429688 4.347656 15.8125 6.003906 C 17.40625 6.113281 18.949219 6.617188 20.300781 7.472656 C 20.953125 6.910156 21.800781 6.566406 22.734375 6.566406 C 24.789062 6.566406 26.464844 8.242188 26.464844 10.300781 C 26.464844 11.714844 25.675781 12.949219 24.511719 13.582031 C 24.753906 14.761719 24.773438 15.996094 24.558594 17.183594 C 25.773438 17.800781 26.609375 19.0625 26.609375 20.515625 Z M 16.066406 15.503906 C 16.113281 15.503906 16.15625 15.496094 16.199219 15.476562 L 17.398438 14.984375 C 17.578125 14.910156 17.664062 14.703125 17.589844 14.523438 C 17.515625 14.34375 17.308594 14.257812 17.128906 14.332031 L 15.929688 14.828125 C 15.578125 14.972656 15.683594 15.503906 16.066406 15.503906 Z M 17.398438 18.644531 L 16.199219 18.148438 C 16.019531 18.074219 15.816406 18.160156 15.742188 18.339844 C 15.667969 18.519531 15.753906 18.726562 15.929688 18.800781 L 17.128906 19.296875 C 17.304688 19.367188 17.511719 19.285156 17.589844 19.105469 C 17.664062 18.925781 17.578125 18.71875 17.398438 18.644531 Z M 18.003906 16.816406 C 18.003906 16.621094 17.847656 16.460938 17.652344 16.460938 L 16.355469 16.460938 C 16.164062 16.460938 16.003906 16.621094 16.003906 16.816406 C 16.003906 17.007812 16.164062 17.167969 16.355469 17.167969 L 17.652344 17.167969 C 17.847656 17.167969 18.003906 17.007812 18.003906 16.816406 Z M 18.003906 16.816406 " fill-opacity="1" fill-rule="evenodd"/></g></svg>