<svg xmlns="http://www.w3.org/2000/svg" xmlns:xlink="http://www.w3.org/1999/xlink" width="40" zoomAndPan="magnify" viewBox="0 0 30 30.000001" height="40" preserveAspectRatio="xMidYMid meet" version="1.0"><defs><clipPath id="f4ffd4b905"><path d="M 0.484375 0 L 29.515625 0 L 29.515625 29.03125 L 0.484375 29.03125 Z M 0.484375 0 " clip-rule="nonzero"/></clipPath><clipPath id="7a02d59a3a"><path d="M 3.386719 3.351562 L 26.613281 3.351562 L 26.613281 22 L 3.386719 22 Z M 3.386719 3.351562 " clip-rule="nonzero"/></clipPath><clipPath id="0bbe8d8154"><path d="M 9 20 L 21 20 L 21 25.851562 L 9 25.851562 Z M 9 20 " clip-rule="nonzero"/></clipPath><clipPath id="06dcde9e88"><path d="M 18 16 L 26.613281 16 L 26.613281 25 L 18 25 Z M 18 16 " clip-rule="nonzero"/></clipPath></defs><g clip-path="url(#f4ffd4b905)"><path fill="#ffffff" d="M 0.484375 0 L 29.515625 0 L 29.515625 29.03125 L 0.484375 29.03125 Z M 0.484375 0 " fill-opacity="1" fill-rule="nonzero"/><path fill="#ffffff" d="M 0.484375 0 L 29.515625 0 L 29.515625 29.03125 L 0.484375 29.03125 Z M 0.484375 0 " fill-opacity="1" fill-rule="nonzero"/></g><g clip-path="url(#7a02d59a3a)"><path fill="#935f3d" d="M 21.507812 21.671875 L 5.09375 21.671875 C 4.867188 21.671875 4.652344 21.628906 4.441406 21.542969 C 4.234375 21.457031 4.050781 21.335938 3.890625 21.175781 C 3.730469 21.015625 3.609375 20.832031 3.523438 20.625 C 3.4375 20.414062 3.394531 20.199219 3.394531 19.972656 L 3.394531 5.054688 C 3.394531 4.828125 3.4375 4.613281 3.523438 4.402344 C 3.609375 4.195312 3.730469 4.011719 3.890625 3.851562 C 4.050781 3.691406 4.234375 3.570312 4.441406 3.484375 C 4.652344 3.398438 4.867188 3.351562 5.09375 3.351562 L 24.417969 3.351562 C 24.644531 3.351562 24.863281 3.398438 25.070312 3.484375 C 25.277344 3.570312 25.460938 3.691406 25.621094 3.851562 C 25.78125 4.011719 25.902344 4.195312 25.988281 4.402344 C 26.078125 4.613281 26.121094 4.828125 26.121094 5.054688 L 26.121094 19.972656 C 26.121094 20.550781 25.886719 21.007812 25.421875 21.347656 C 25.335938 21.410156 25.238281 21.433594 25.132812 21.417969 C 25.027344 21.398438 24.945312 21.347656 24.882812 21.261719 C 24.820312 21.175781 24.796875 21.078125 24.8125 20.972656 C 24.828125 20.871094 24.878906 20.785156 24.964844 20.722656 C 25.21875 20.535156 25.347656 20.289062 25.347656 19.972656 L 25.347656 5.054688 C 25.347656 4.796875 25.257812 4.578125 25.074219 4.398438 C 24.894531 4.21875 24.675781 4.128906 24.417969 4.128906 L 5.09375 4.128906 C 4.839844 4.128906 4.621094 4.21875 4.4375 4.398438 C 4.257812 4.582031 4.167969 4.796875 4.167969 5.054688 L 4.167969 19.972656 C 4.167969 20.230469 4.257812 20.445312 4.4375 20.628906 C 4.621094 20.808594 4.839844 20.898438 5.09375 20.898438 L 21.507812 20.898438 C 21.617188 20.898438 21.707031 20.9375 21.785156 21.011719 C 21.859375 21.085938 21.898438 21.179688 21.898438 21.285156 C 21.898438 21.394531 21.859375 21.484375 21.785156 21.558594 C 21.707031 21.636719 21.617188 21.671875 21.507812 21.671875 Z M 21.507812 21.671875 " fill-opacity="1" fill-rule="nonzero"/></g><path fill="#935f3d" d="M 24.011719 19.953125 L 23.746094 19.953125 C 23.652344 19.953125 23.566406 19.921875 23.496094 19.859375 C 23.421875 19.800781 23.378906 19.722656 23.363281 19.628906 C 23.347656 19.535156 23.367188 19.445312 23.414062 19.363281 C 23.464844 19.285156 23.535156 19.226562 23.625 19.199219 L 23.625 5.847656 L 5.886719 5.847656 L 5.886719 19.179688 L 18.0625 19.179688 C 18.167969 19.179688 18.261719 19.21875 18.335938 19.292969 C 18.410156 19.367188 18.449219 19.460938 18.449219 19.566406 C 18.449219 19.671875 18.410156 19.765625 18.335938 19.839844 C 18.261719 19.914062 18.167969 19.953125 18.0625 19.953125 L 5.5 19.953125 C 5.394531 19.953125 5.300781 19.914062 5.226562 19.839844 C 5.152344 19.765625 5.113281 19.671875 5.113281 19.566406 L 5.113281 5.460938 C 5.113281 5.351562 5.152344 5.261719 5.226562 5.183594 C 5.300781 5.109375 5.394531 5.070312 5.5 5.070312 L 24.011719 5.070312 C 24.121094 5.070312 24.210938 5.109375 24.285156 5.183594 C 24.363281 5.261719 24.398438 5.351562 24.398438 5.460938 L 24.398438 19.566406 C 24.398438 19.671875 24.363281 19.765625 24.285156 19.839844 C 24.210938 19.914062 24.121094 19.953125 24.011719 19.953125 Z M 24.011719 19.953125 " fill-opacity="1" fill-rule="nonzero"/><g clip-path="url(#0bbe8d8154)"><path fill="#935f3d" d="M 19.71875 25.671875 L 15.785156 25.671875 C 15.703125 25.671875 15.628906 25.648438 15.5625 25.597656 L 14.757812 25.023438 L 13.953125 25.597656 C 13.886719 25.648438 13.808594 25.671875 13.726562 25.671875 L 9.796875 25.671875 C 9.605469 25.671875 9.484375 25.582031 9.425781 25.402344 C 9.367188 25.222656 9.417969 25.078125 9.570312 24.96875 L 11.589844 23.515625 L 11.589844 21.285156 C 11.589844 21.179688 11.625 21.085938 11.703125 21.011719 C 11.777344 20.9375 11.867188 20.898438 11.976562 20.898438 L 17.535156 20.898438 C 17.644531 20.898438 17.734375 20.9375 17.8125 21.011719 C 17.886719 21.085938 17.925781 21.179688 17.925781 21.285156 L 17.925781 23.515625 L 19.945312 24.96875 C 20.097656 25.078125 20.144531 25.222656 20.085938 25.402344 C 20.027344 25.582031 19.90625 25.671875 19.71875 25.671875 Z M 15.910156 24.898438 L 18.515625 24.898438 L 17.3125 24.03125 C 17.203125 23.957031 17.148438 23.851562 17.148438 23.71875 L 17.148438 21.671875 L 12.363281 21.671875 L 12.363281 23.71875 C 12.363281 23.851562 12.308594 23.957031 12.203125 24.03125 L 11 24.898438 L 13.601562 24.898438 L 14.53125 24.230469 C 14.679688 24.121094 14.832031 24.121094 14.984375 24.230469 Z M 15.910156 24.898438 " fill-opacity="1" fill-rule="nonzero"/></g><path fill="#935f3d" d="M 14.796875 17.339844 C 14.15625 17.34375 13.542969 17.21875 12.953125 16.96875 C 12.363281 16.722656 11.84375 16.371094 11.398438 15.910156 C 9.527344 14.011719 9.527344 10.917969 11.398438 9.019531 C 11.617188 8.792969 11.859375 8.589844 12.121094 8.410156 C 12.382812 8.234375 12.660156 8.082031 12.953125 7.960938 C 13.246094 7.839844 13.546875 7.746094 13.855469 7.683594 C 14.167969 7.621094 14.480469 7.589844 14.796875 7.589844 C 15.113281 7.589844 15.425781 7.621094 15.738281 7.683594 C 16.046875 7.746094 16.347656 7.839844 16.640625 7.960938 C 16.933594 8.082031 17.210938 8.234375 17.472656 8.410156 C 17.734375 8.589844 17.976562 8.792969 18.195312 9.019531 C 20.066406 10.917969 20.066406 14.011719 18.195312 15.910156 C 17.75 16.371094 17.230469 16.722656 16.640625 16.96875 C 16.050781 17.21875 15.4375 17.34375 14.796875 17.339844 Z M 14.796875 8.363281 C 13.679688 8.363281 12.730469 8.761719 11.949219 9.5625 C 10.375 11.164062 10.375 13.765625 11.949219 15.371094 C 12.136719 15.558594 12.335938 15.730469 12.554688 15.878906 C 12.777344 16.027344 13.007812 16.152344 13.253906 16.257812 C 13.496094 16.359375 13.75 16.4375 14.007812 16.488281 C 14.269531 16.542969 14.53125 16.566406 14.796875 16.566406 C 15.0625 16.566406 15.324219 16.542969 15.585938 16.488281 C 15.84375 16.4375 16.097656 16.359375 16.339844 16.257812 C 16.585938 16.152344 16.816406 16.027344 17.035156 15.878906 C 17.257812 15.730469 17.457031 15.558594 17.644531 15.371094 C 19.21875 13.769531 19.21875 11.164062 17.644531 9.5625 C 16.863281 8.761719 15.914062 8.363281 14.796875 8.363281 Z M 17.921875 15.640625 Z M 17.921875 15.640625 " fill-opacity="1" fill-rule="nonzero"/><path fill="#935f3d" d="M 18.121094 20.011719 C 18.015625 20.011719 17.921875 19.976562 17.847656 19.898438 L 16.242188 18.265625 C 16.164062 18.1875 16.128906 18.097656 16.128906 17.992188 C 16.128906 17.882812 16.167969 17.792969 16.246094 17.71875 C 16.320312 17.644531 16.414062 17.605469 16.519531 17.605469 C 16.628906 17.609375 16.71875 17.644531 16.792969 17.722656 L 18.121094 19.074219 L 21.296875 15.847656 L 19.960938 14.484375 C 19.882812 14.410156 19.84375 14.316406 19.839844 14.207031 C 19.839844 14.101562 19.878906 14.007812 19.957031 13.929688 C 20.035156 13.855469 20.128906 13.816406 20.238281 13.820312 C 20.34375 13.820312 20.4375 13.863281 20.511719 13.941406 L 22.117188 15.574219 C 22.191406 15.648438 22.226562 15.738281 22.226562 15.847656 C 22.226562 15.953125 22.191406 16.042969 22.117188 16.117188 L 18.402344 19.898438 C 18.324219 19.976562 18.230469 20.015625 18.121094 20.011719 Z M 18.121094 20.011719 " fill-opacity="1" fill-rule="nonzero"/><g clip-path="url(#06dcde9e88)"><path fill="#935f3d" d="M 24.660156 24.292969 C 24.167969 24.292969 23.746094 24.117188 23.402344 23.761719 L 18.722656 19.003906 C 18.648438 18.929688 18.609375 18.835938 18.613281 18.730469 C 18.613281 18.621094 18.652344 18.53125 18.726562 18.457031 C 18.804688 18.382812 18.894531 18.34375 19 18.347656 C 19.109375 18.347656 19.199219 18.386719 19.273438 18.460938 L 23.953125 23.21875 C 24.046875 23.316406 24.15625 23.386719 24.277344 23.441406 C 24.398438 23.492188 24.527344 23.515625 24.660156 23.515625 C 24.792969 23.515625 24.921875 23.492188 25.042969 23.441406 C 25.164062 23.386719 25.273438 23.316406 25.367188 23.21875 C 25.460938 23.121094 25.535156 23.011719 25.585938 22.886719 C 25.636719 22.757812 25.660156 22.628906 25.660156 22.492188 C 25.660156 22.359375 25.636719 22.226562 25.585938 22.101562 C 25.535156 21.976562 25.460938 21.863281 25.367188 21.765625 L 20.6875 17.007812 C 20.613281 16.933594 20.578125 16.839844 20.582031 16.738281 C 20.585938 16.632812 20.621094 16.542969 20.699219 16.46875 C 20.773438 16.394531 20.863281 16.359375 20.96875 16.355469 C 21.074219 16.355469 21.164062 16.394531 21.238281 16.464844 L 25.917969 21.222656 C 26.085938 21.394531 26.210938 21.589844 26.300781 21.808594 C 26.390625 22.027344 26.433594 22.257812 26.433594 22.492188 C 26.433594 22.730469 26.390625 22.960938 26.300781 23.179688 C 26.210938 23.398438 26.085938 23.59375 25.917969 23.765625 C 25.574219 24.117188 25.15625 24.292969 24.660156 24.292969 Z M 24.660156 24.292969 " fill-opacity="1" fill-rule="nonzero"/></g><path fill="#935f3d" d="M 14.796875 18.648438 C 13.984375 18.652344 13.207031 18.496094 12.457031 18.179688 C 11.710938 17.863281 11.054688 17.417969 10.488281 16.835938 C 8.117188 14.425781 8.117188 10.503906 10.488281 8.09375 C 10.769531 7.804688 11.074219 7.550781 11.40625 7.324219 C 11.738281 7.097656 12.089844 6.90625 12.460938 6.75 C 12.828125 6.59375 13.210938 6.476562 13.605469 6.398438 C 13.996094 6.320312 14.394531 6.277344 14.796875 6.277344 C 15.199219 6.277344 15.59375 6.320312 15.988281 6.398438 C 16.382812 6.476562 16.765625 6.59375 17.132812 6.75 C 17.503906 6.90625 17.855469 7.097656 18.1875 7.324219 C 18.519531 7.550781 18.824219 7.804688 19.105469 8.09375 C 21.476562 10.503906 21.476562 14.425781 19.105469 16.835938 C 18.539062 17.417969 17.882812 17.863281 17.136719 18.179688 C 16.386719 18.496094 15.609375 18.652344 14.796875 18.648438 Z M 14.796875 7.054688 C 14.089844 7.054688 13.410156 7.191406 12.757812 7.464844 C 12.109375 7.738281 11.535156 8.128906 11.042969 8.636719 C 8.964844 10.746094 8.964844 14.183594 11.042969 16.292969 C 11.285156 16.542969 11.554688 16.765625 11.84375 16.964844 C 12.132812 17.160156 12.4375 17.328125 12.761719 17.464844 C 13.082031 17.597656 13.417969 17.703125 13.757812 17.769531 C 14.101562 17.839844 14.449219 17.875 14.800781 17.875 C 15.148438 17.875 15.496094 17.839844 15.839844 17.769531 C 16.179688 17.703125 16.515625 17.597656 16.835938 17.464844 C 17.160156 17.328125 17.464844 17.160156 17.753906 16.964844 C 18.042969 16.765625 18.3125 16.542969 18.554688 16.292969 C 20.632812 14.183594 20.632812 10.746094 18.554688 8.636719 C 18.0625 8.128906 17.488281 7.738281 16.835938 7.464844 C 16.183594 7.191406 15.503906 7.054688 14.796875 7.054688 Z M 14.796875 7.054688 " fill-opacity="1" fill-rule="nonzero"/><path fill="#935f3d" d="M 11.488281 13.976562 C 11.4375 13.976562 11.394531 13.96875 11.347656 13.949219 C 11.25 13.910156 11.175781 13.84375 11.132812 13.746094 C 11.089844 13.648438 11.085938 13.550781 11.125 13.449219 L 11.980469 11.203125 C 12.042969 11.039062 12.164062 10.953125 12.34375 10.953125 C 12.519531 10.953125 12.640625 11.035156 12.703125 11.203125 L 13.566406 13.449219 C 13.601562 13.546875 13.601562 13.644531 13.558594 13.742188 C 13.515625 13.839844 13.441406 13.910156 13.34375 13.949219 C 13.242188 13.988281 13.144531 13.984375 13.046875 13.941406 C 12.949219 13.898438 12.878906 13.824219 12.839844 13.726562 L 12.34375 12.425781 L 11.847656 13.722656 C 11.785156 13.890625 11.664062 13.976562 11.488281 13.976562 Z M 11.488281 13.976562 " fill-opacity="1" fill-rule="nonzero"/><path fill="#935f3d" d="M 12.9375 13.28125 L 11.75 13.28125 C 11.644531 13.28125 11.554688 13.242188 11.476562 13.167969 C 11.402344 13.09375 11.363281 13 11.363281 12.894531 C 11.363281 12.785156 11.402344 12.695312 11.476562 12.621094 C 11.554688 12.542969 11.644531 12.507812 11.75 12.507812 L 12.9375 12.507812 C 13.046875 12.507812 13.136719 12.542969 13.210938 12.621094 C 13.289062 12.695312 13.324219 12.785156 13.324219 12.894531 C 13.324219 13 13.289062 13.09375 13.210938 13.167969 C 13.136719 13.242188 13.046875 13.28125 12.9375 13.28125 Z M 12.9375 13.28125 " fill-opacity="1" fill-rule="nonzero"/><path fill="#935f3d" d="M 14.839844 13.976562 L 14.082031 13.976562 C 13.972656 13.976562 13.882812 13.9375 13.804688 13.863281 C 13.730469 13.785156 13.691406 13.695312 13.691406 13.589844 L 13.691406 11.339844 C 13.691406 11.234375 13.730469 11.144531 13.804688 11.066406 C 13.882812 10.992188 13.972656 10.953125 14.082031 10.953125 L 14.839844 10.953125 C 15.527344 10.953125 16.023438 11.589844 16.023438 12.464844 C 16.03125 12.816406 15.945312 13.140625 15.765625 13.445312 C 15.550781 13.785156 15.222656 13.976562 14.839844 13.976562 Z M 14.46875 13.199219 L 14.839844 13.199219 C 14.910156 13.199219 15.015625 13.183594 15.109375 13.03125 C 15.207031 12.855469 15.253906 12.667969 15.25 12.464844 C 15.25 12.179688 15.140625 11.730469 14.839844 11.730469 L 14.46875 11.730469 Z M 14.46875 13.199219 " fill-opacity="1" fill-rule="nonzero"/><path fill="#935f3d" d="M 17.371094 13.976562 C 16.742188 13.976562 16.25 13.570312 16.25 13.054688 C 16.25 12.949219 16.289062 12.859375 16.363281 12.78125 C 16.441406 12.707031 16.53125 12.667969 16.636719 12.667969 C 16.746094 12.667969 16.835938 12.707031 16.910156 12.78125 C 16.988281 12.859375 17.023438 12.949219 17.023438 13.054688 C 17.023438 13.089844 17.152344 13.199219 17.371094 13.199219 C 17.59375 13.199219 17.71875 13.089844 17.71875 13.054688 C 17.71875 13.054688 17.71875 13.050781 17.71875 13.050781 C 17.679688 12.980469 17.390625 12.875 17.234375 12.820312 C 16.820312 12.675781 16.25 12.472656 16.25 11.875 C 16.25 11.359375 16.742188 10.957031 17.371094 10.957031 C 18 10.957031 18.496094 11.363281 18.496094 11.875 C 18.496094 11.984375 18.457031 12.074219 18.382812 12.152344 C 18.304688 12.226562 18.214844 12.265625 18.105469 12.265625 C 18 12.265625 17.910156 12.226562 17.832031 12.152344 C 17.757812 12.074219 17.71875 11.984375 17.71875 11.875 C 17.71875 11.839844 17.59375 11.730469 17.371094 11.730469 C 17.152344 11.730469 17.03125 11.839844 17.027344 11.875 C 17.078125 11.945312 17.347656 12.042969 17.496094 12.09375 C 17.894531 12.234375 18.496094 12.449219 18.496094 13.058594 C 18.492188 13.570312 18 13.976562 17.371094 13.976562 Z M 17.371094 13.976562 " fill-opacity="1" fill-rule="nonzero"/></svg>