<svg xmlns="http://www.w3.org/2000/svg" xmlns:xlink="http://www.w3.org/1999/xlink" width="40" zoomAndPan="magnify" viewBox="0 0 30 30.000001" height="40" preserveAspectRatio="xMidYMid meet" version="1.0"><defs><clipPath id="605271ec4b"><path d="M 0.484375 0 L 29.515625 0 L 29.515625 29.03125 L 0.484375 29.03125 Z M 0.484375 0 " clip-rule="nonzero"/></clipPath><clipPath id="c185ddf0e7"><path d="M 4 16 L 24 16 L 24 26.128906 L 4 26.128906 Z M 4 16 " clip-rule="nonzero"/></clipPath><clipPath id="3f430c6b4c"><path d="M 3.386719 4 L 14 4 L 14 15 L 3.386719 15 Z M 3.386719 4 " clip-rule="nonzero"/></clipPath><clipPath id="90848aa5cd"><path d="M 22 10 L 26.613281 10 L 26.613281 14 L 22 14 Z M 22 10 " clip-rule="nonzero"/></clipPath><clipPath id="686ec2e721"><path d="M 22 2.902344 L 26.613281 2.902344 L 26.613281 6 L 22 6 Z M 22 2.902344 " clip-rule="nonzero"/></clipPath></defs><g clip-path="url(#605271ec4b)"><path fill="#ffffff" d="M 0.484375 0 L 29.515625 0 L 29.515625 29.03125 L 0.484375 29.03125 Z M 0.484375 0 " fill-opacity="1" fill-rule="nonzero"/><path fill="#ffffff" d="M 0.484375 0 L 29.515625 0 L 29.515625 29.03125 L 0.484375 29.03125 Z M 0.484375 0 " fill-opacity="1" fill-rule="nonzero"/></g><g clip-path="url(#c185ddf0e7)"><path fill="#935f3d" d="M 20.609375 16.40625 L 11.632812 16.40625 C 11.425781 16.40625 11.261719 16.574219 11.261719 16.777344 L 11.261719 20.894531 L 4.902344 20.894531 C 4.695312 20.894531 4.527344 21.058594 4.527344 21.265625 L 4.527344 25.753906 C 4.527344 25.960938 4.695312 26.128906 4.902344 26.128906 L 22.855469 26.128906 C 23.0625 26.128906 23.226562 25.960938 23.226562 25.753906 L 23.226562 21.265625 C 23.226562 21.058594 23.0625 20.894531 22.855469 20.894531 L 20.984375 20.894531 L 20.984375 16.777344 C 20.984375 16.574219 20.816406 16.40625 20.609375 16.40625 Z M 20.984375 21.640625 L 20.984375 22.761719 L 20.234375 22.761719 L 20.234375 21.640625 Z M 17.992188 17.152344 L 18.738281 17.152344 L 18.738281 18.273438 L 17.992188 18.273438 Z M 16.496094 17.152344 L 17.242188 17.152344 L 17.242188 18.648438 C 17.242188 18.855469 17.410156 19.023438 17.617188 19.023438 L 19.113281 19.023438 C 19.320312 19.023438 19.488281 18.855469 19.488281 18.648438 L 19.488281 17.152344 L 20.234375 17.152344 L 20.234375 20.894531 L 16.496094 20.894531 Z M 13.503906 17.152344 L 14.253906 17.152344 L 14.253906 18.273438 L 13.503906 18.273438 Z M 12.007812 17.152344 L 12.757812 17.152344 L 12.757812 18.648438 C 12.757812 18.855469 12.921875 19.023438 13.128906 19.023438 L 14.625 19.023438 C 14.832031 19.023438 15 18.855469 15 18.648438 L 15 17.152344 L 15.746094 17.152344 L 15.746094 20.894531 L 12.007812 20.894531 Z M 16.496094 21.640625 L 16.496094 22.761719 L 15.746094 22.761719 L 15.746094 21.640625 Z M 11.261719 21.640625 L 12.007812 21.640625 L 12.007812 22.761719 L 11.261719 22.761719 Z M 6.773438 21.640625 L 7.519531 21.640625 L 7.519531 22.761719 L 6.773438 22.761719 Z M 9.015625 25.382812 L 5.277344 25.382812 L 5.277344 21.640625 L 6.023438 21.640625 L 6.023438 23.136719 C 6.023438 23.34375 6.191406 23.511719 6.398438 23.511719 L 7.894531 23.511719 C 8.101562 23.511719 8.269531 23.34375 8.269531 23.136719 L 8.269531 21.640625 L 9.015625 21.640625 Z M 13.503906 25.382812 L 9.765625 25.382812 L 9.765625 21.640625 L 10.511719 21.640625 L 10.511719 23.136719 C 10.511719 23.34375 10.679688 23.511719 10.886719 23.511719 L 12.382812 23.511719 C 12.589844 23.511719 12.757812 23.34375 12.757812 23.136719 L 12.757812 21.640625 L 13.503906 21.640625 Z M 17.992188 25.382812 L 14.253906 25.382812 L 14.253906 21.640625 L 15 21.640625 L 15 23.136719 C 15 23.34375 15.167969 23.511719 15.375 23.511719 L 16.871094 23.511719 C 17.078125 23.511719 17.242188 23.34375 17.242188 23.136719 L 17.242188 21.640625 L 17.992188 21.640625 Z M 21.359375 23.511719 C 21.566406 23.511719 21.730469 23.34375 21.730469 23.136719 L 21.730469 21.640625 L 22.480469 21.640625 L 22.480469 25.382812 L 18.738281 25.382812 L 18.738281 21.640625 L 19.488281 21.640625 L 19.488281 23.136719 C 19.488281 23.34375 19.65625 23.511719 19.863281 23.511719 Z M 21.359375 23.511719 " fill-opacity="1" fill-rule="nonzero"/></g><g clip-path="url(#3f430c6b4c)"><path fill="#935f3d" d="M 4.527344 11.09375 L 4.527344 14.535156 C 4.527344 14.742188 4.695312 14.910156 4.902344 14.910156 L 7.144531 14.910156 C 7.269531 14.910156 7.386719 14.847656 7.457031 14.746094 C 7.523438 14.640625 7.539062 14.511719 7.492188 14.394531 L 7.398438 14.160156 C 7.011719 13.195312 7.003906 12.128906 7.378906 11.15625 L 7.402344 11.09375 L 9.015625 11.09375 C 9.511719 11.09375 9.996094 11.183594 10.457031 11.355469 L 12.621094 12.191406 C 12.664062 12.207031 12.710938 12.214844 12.757812 12.214844 C 12.832031 12.214844 12.902344 12.195312 12.96875 12.152344 C 13.070312 12.082031 13.128906 11.964844 13.128906 11.84375 L 13.128906 4.8125 C 13.128906 4.6875 13.070312 4.570312 12.96875 4.503906 C 12.867188 4.433594 12.734375 4.417969 12.621094 4.460938 L 10.460938 5.296875 C 9.996094 5.46875 9.511719 5.558594 9.015625 5.558594 L 4.527344 5.558594 C 3.898438 5.558594 3.40625 6.183594 3.40625 6.980469 L 3.40625 9.671875 C 3.40625 10.46875 3.898438 11.09375 4.527344 11.09375 Z M 6.601562 14.160156 L 5.277344 14.160156 L 5.277344 11.09375 L 6.609375 11.09375 C 6.277344 12.09375 6.273438 13.164062 6.601562 14.160156 Z M 6.398438 6.308594 L 9.015625 6.308594 C 9.601562 6.308594 10.175781 6.203125 10.726562 5.996094 L 12.382812 5.355469 L 12.382812 11.296875 L 10.722656 10.65625 C 10.175781 10.449219 9.601562 10.347656 9.015625 10.347656 L 6.398438 10.347656 Z M 4.152344 6.980469 C 4.152344 6.59375 4.351562 6.308594 4.527344 6.308594 L 5.648438 6.308594 L 5.648438 10.347656 L 4.527344 10.347656 C 4.351562 10.347656 4.152344 10.058594 4.152344 9.671875 Z M 4.152344 6.980469 " fill-opacity="1" fill-rule="nonzero"/></g><path fill="#935f3d" d="M 6.398438 20.144531 L 6.398438 17.902344 L 7.144531 17.902344 C 7.289062 17.902344 7.417969 17.820312 7.480469 17.695312 C 7.542969 17.566406 7.53125 17.414062 7.445312 17.300781 L 6.324219 15.804688 C 6.183594 15.617188 5.867188 15.617188 5.726562 15.804688 L 4.601562 17.300781 C 4.515625 17.414062 4.503906 17.566406 4.566406 17.695312 C 4.628906 17.820312 4.761719 17.902344 4.902344 17.902344 L 5.648438 17.902344 L 5.648438 20.144531 Z M 6.023438 16.65625 L 6.398438 17.152344 L 5.648438 17.152344 Z M 6.023438 16.65625 " fill-opacity="1" fill-rule="nonzero"/><g clip-path="url(#90848aa5cd)"><path fill="#935f3d" d="M 24.949219 10.871094 C 24.835938 10.785156 24.683594 10.769531 24.558594 10.835938 C 24.429688 10.898438 24.351562 11.027344 24.351562 11.167969 L 24.351562 11.917969 L 22.105469 11.917969 L 22.105469 12.664062 L 24.351562 12.664062 L 24.351562 13.414062 C 24.351562 13.554688 24.429688 13.683594 24.558594 13.746094 C 24.609375 13.773438 24.667969 13.785156 24.722656 13.785156 C 24.804688 13.785156 24.882812 13.761719 24.949219 13.710938 L 26.445312 12.589844 C 26.539062 12.519531 26.59375 12.410156 26.59375 12.289062 C 26.59375 12.171875 26.539062 12.0625 26.445312 11.992188 Z M 25.097656 12.664062 L 25.097656 11.917969 L 25.597656 12.289062 Z M 25.097656 12.664062 " fill-opacity="1" fill-rule="nonzero"/></g><g clip-path="url(#686ec2e721)"><path fill="#935f3d" d="M 24.949219 3.015625 C 24.835938 2.929688 24.683594 2.917969 24.558594 2.980469 C 24.429688 3.042969 24.351562 3.171875 24.351562 3.316406 L 24.351562 4.0625 L 22.105469 4.0625 L 22.105469 4.8125 L 24.351562 4.8125 L 24.351562 5.558594 C 24.351562 5.699219 24.429688 5.828125 24.558594 5.894531 C 24.609375 5.917969 24.667969 5.933594 24.722656 5.933594 C 24.804688 5.933594 24.882812 5.90625 24.949219 5.859375 L 26.445312 4.734375 C 26.539062 4.664062 26.59375 4.554688 26.59375 4.4375 C 26.59375 4.320312 26.539062 4.207031 26.445312 4.136719 Z M 25.097656 4.8125 L 25.097656 4.0625 L 25.597656 4.4375 Z M 25.097656 4.8125 " fill-opacity="1" fill-rule="nonzero"/></g><path fill="#935f3d" d="M 22.480469 10.421875 L 22.480469 6.308594 C 22.480469 6.101562 22.3125 5.933594 22.105469 5.933594 L 17.992188 5.933594 C 17.785156 5.933594 17.617188 6.101562 17.617188 6.308594 L 17.617188 10.421875 C 17.617188 10.628906 17.785156 10.792969 17.992188 10.792969 L 22.105469 10.792969 C 22.3125 10.792969 22.480469 10.628906 22.480469 10.421875 Z M 19.863281 6.679688 L 20.234375 6.679688 L 20.234375 7.429688 L 19.863281 7.429688 Z M 21.730469 10.046875 L 18.367188 10.046875 L 18.367188 6.679688 L 19.113281 6.679688 L 19.113281 7.800781 C 19.113281 8.007812 19.28125 8.175781 19.488281 8.175781 L 20.609375 8.175781 C 20.816406 8.175781 20.984375 8.007812 20.984375 7.800781 L 20.984375 6.679688 L 21.730469 6.679688 Z M 21.730469 10.046875 " fill-opacity="1" fill-rule="nonzero"/><path fill="#935f3d" d="M 14.625 7.800781 L 16.496094 7.800781 L 16.496094 8.550781 L 14.625 8.550781 Z M 14.625 7.800781 " fill-opacity="1" fill-rule="nonzero"/><path fill="#935f3d" d="M 13.816406 6.160156 L 15.4375 5.234375 L 15.808594 5.882812 L 14.1875 6.808594 Z M 13.816406 6.160156 " fill-opacity="1" fill-rule="nonzero"/><path fill="#935f3d" d="M 13.816406 10.191406 L 14.1875 9.542969 L 15.808594 10.46875 L 15.4375 11.121094 Z M 13.816406 10.191406 " fill-opacity="1" fill-rule="nonzero"/></svg>