<svg xmlns="http://www.w3.org/2000/svg" xmlns:xlink="http://www.w3.org/1999/xlink" width="40" zoomAndPan="magnify" viewBox="0 0 30 30.000001" height="40" preserveAspectRatio="xMidYMid meet" version="1.0"><defs><clipPath id="1d978b3437"><path d="M 0.484375 0 L 29.515625 0 L 29.515625 29.03125 L 0.484375 29.03125 Z M 0.484375 0 " clip-rule="nonzero"/></clipPath><clipPath id="f0632efcd4"><path d="M 13 2.902344 L 26.683594 2.902344 L 26.683594 13 L 13 13 Z M 13 2.902344 " clip-rule="nonzero"/></clipPath><clipPath id="2e4661f9cc"><path d="M 3.460938 6 L 20 6 L 20 26.128906 L 3.460938 26.128906 Z M 3.460938 6 " clip-rule="nonzero"/></clipPath></defs><g clip-path="url(#1d978b3437)"><path fill="#ffffff" d="M 0.484375 0 L 29.515625 0 L 29.515625 29.03125 L 0.484375 29.03125 Z M 0.484375 0 " fill-opacity="1" fill-rule="nonzero"/><path fill="#ffffff" d="M 0.484375 0 L 29.515625 0 L 29.515625 29.03125 L 0.484375 29.03125 Z M 0.484375 0 " fill-opacity="1" fill-rule="nonzero"/></g><path fill="#935f3d" d="M 20.273438 12.699219 L 19.160156 12.699219 L 20.679688 24.980469 L 21.800781 24.980469 Z M 17.476562 12.699219 L 18.589844 12.699219 L 17.070312 24.980469 L 15.957031 24.527344 Z M 17.476562 12.699219 " fill-opacity="1" fill-rule="evenodd"/><g clip-path="url(#f0632efcd4)"><path fill="#935f3d" d="M 18.074219 5.90625 C 18.527344 7.140625 19.800781 7.867188 21.089844 7.625 C 20.460938 7.832031 19.78125 7.765625 19.207031 7.429688 C 18.632812 7.105469 18.222656 6.554688 18.074219 5.90625 Z M 15.351562 10.90625 L 15.460938 10.90625 C 15.472656 10.90625 15.492188 10.886719 15.492188 10.875 L 15.492188 10.867188 C 15.492188 10.855469 15.472656 10.835938 15.460938 10.835938 L 15.351562 10.835938 C 15.332031 10.835938 15.320312 10.855469 15.320312 10.867188 L 15.320312 10.875 C 15.320312 10.886719 15.332031 10.90625 15.351562 10.90625 Z M 15.332031 12.128906 L 15.414062 12.128906 C 15.453125 12.128906 15.480469 12.109375 15.492188 12.054688 L 15.546875 11.738281 L 15.546875 12.347656 L 15.8125 12.347656 L 15.8125 12.882812 L 20.730469 12.882812 L 20.730469 12.871094 L 21.894531 12.871094 L 22.058594 12.472656 L 22.058594 11.25 L 22.664062 11.25 L 22.664062 11.035156 L 23.769531 11.035156 L 23.769531 9.585938 L 22.667969 9.585938 L 22.667969 9.464844 L 23.769531 9.464844 L 23.769531 9.136719 L 22.667969 9.136719 L 22.667969 8.914062 L 22.074219 8.914062 L 22.074219 8.792969 L 22.667969 8.792969 L 22.667969 8.691406 L 21.964844 8.691406 L 21.964844 9.027344 L 21.886719 9.027344 L 21.886719 8.144531 L 21.859375 8.125 L 21.765625 8.421875 L 18.859375 8.375 L 21.675781 8.320312 L 21.722656 8.125 L 21.757812 8.011719 L 21.738281 8.003906 L 20.5 8.003906 L 20.5 7.882812 C 21.738281 7.789062 22.695312 6.765625 22.703125 5.523438 C 22.714844 4.289062 21.765625 3.242188 20.527344 3.132812 C 19.300781 3.023438 18.183594 3.878906 17.972656 5.09375 C 17.710938 3.8125 16.464844 2.988281 15.183594 3.230469 C 14.710938 3.316406 14.292969 3.546875 13.964844 3.855469 C 12.617188 5.238281 13.6875 7.3125 15.21875 7.710938 C 14.238281 7.441406 13.566406 6.828125 13.277344 6.058594 C 13.492188 7.15625 14.421875 7.941406 15.5 7.980469 C 15.777344 8.003906 15.898438 7.992188 16.078125 8.003906 L 15.84375 8.308594 L 15.84375 8.617188 L 15.753906 8.617188 L 15.753906 8.328125 L 15.636719 8.328125 L 15.636719 8.960938 L 15.757812 8.960938 L 15.757812 8.707031 L 15.84375 8.707031 L 15.84375 9.554688 L 15.257812 9.554688 L 15.082031 9.6875 L 14.46875 9.6875 L 14.328125 9.796875 L 13.898438 9.507812 C 13.8125 9.453125 13.777344 9.433594 13.730469 9.519531 C 13.546875 9.828125 13.554688 10.226562 13.742188 10.542969 C 13.789062 10.628906 13.808594 10.632812 13.917969 10.542969 L 14.328125 10.210938 L 14.484375 10.320312 L 15.078125 10.320312 L 15.078125 10.496094 L 15.488281 10.496094 L 15.488281 10.757812 L 15.332031 10.757812 C 15.285156 10.757812 15.246094 10.789062 15.246094 10.835938 L 15.246094 12.058594 C 15.25 12.09375 15.285156 12.128906 15.332031 12.128906 Z M 26.605469 11.761719 L 26.605469 8.964844 L 24.558594 9.496094 C 25.164062 9.230469 25.9375 8.992188 26.597656 8.757812 L 26.441406 8.304688 C 26.441406 8.269531 26.410156 8.230469 26.382812 8.214844 C 26.347656 8.195312 26.296875 8.195312 26.273438 8.214844 L 24.5 9.085938 C 24.289062 9.175781 24.15625 9.382812 24.167969 9.617188 L 24.1875 10.574219 C 24.167969 10.785156 24.273438 10.992188 24.453125 11.082031 L 26.285156 11.9375 C 26.476562 12.03125 26.597656 11.972656 26.605469 11.761719 Z M 19.492188 9.972656 C 19.40625 10.125 19.449219 10.304688 19.59375 10.402344 C 19.734375 10.492188 19.925781 10.46875 20.03125 10.324219 C 19.914062 10.417969 19.757812 10.425781 19.636719 10.347656 C 19.503906 10.265625 19.449219 10.113281 19.492188 9.972656 Z M 14.476562 9.75 L 15.074219 9.75 L 15.074219 9.828125 L 14.394531 9.828125 Z M 16.605469 7.824219 C 16.714844 7.714844 16.726562 7.527344 16.605469 7.40625 C 16.496094 7.285156 16.308594 7.277344 16.1875 7.386719 C 16.261719 7.300781 16.375 7.265625 16.484375 7.296875 C 16.59375 7.328125 16.679688 7.40625 16.707031 7.519531 C 16.738281 7.632812 16.695312 7.746094 16.605469 7.824219 Z M 15.898438 5.90625 C 16.03125 5.773438 16.03125 5.5625 15.898438 5.421875 C 15.769531 5.28125 15.558594 5.269531 15.414062 5.402344 C 15.5 5.300781 15.628906 5.261719 15.757812 5.289062 C 15.878906 5.324219 15.980469 5.421875 16.011719 5.550781 C 16.046875 5.671875 16 5.808594 15.898438 5.90625 Z M 20.574219 2.9375 C 21.761719 3.113281 22.691406 4.039062 22.859375 5.226562 C 22.894531 4.609375 22.675781 4.003906 22.234375 3.570312 C 21.800781 3.132812 21.199219 2.910156 20.574219 2.9375 Z M 17.972656 4.6875 C 18.027344 4.542969 18.074219 4.472656 18.113281 4.410156 C 17.660156 3.515625 16.714844 3.023438 15.667969 3.050781 C 16.714844 3.113281 17.617188 3.71875 17.972656 4.6875 Z M 15.140625 9.738281 L 16.601562 9.738281 L 16.601562 9.585938 L 20.488281 9.585938 L 16.703125 9.675781 L 16.703125 9.84375 L 15.214844 9.851562 L 15.140625 10.179688 Z M 19.886719 5.203125 C 20.039062 5.039062 20.269531 4.972656 20.480469 5.019531 C 20.695312 5.074219 20.863281 5.238281 20.921875 5.46875 C 20.976562 5.679688 20.886719 5.929688 20.714844 6.082031 C 20.945312 5.851562 20.945312 5.476562 20.722656 5.246094 C 20.5 5.011719 20.128906 4.992188 19.886719 5.203125 Z M 18.269531 10.011719 C 18.324219 9.871094 18.464844 9.792969 18.613281 9.792969 C 18.761719 9.800781 18.890625 9.894531 18.9375 10.035156 C 18.996094 10.175781 18.949219 10.332031 18.839844 10.421875 C 18.925781 10.320312 18.949219 10.179688 18.894531 10.058594 C 18.847656 9.9375 18.726562 9.851562 18.597656 9.847656 C 18.464844 9.835938 18.34375 9.902344 18.269531 10.011719 Z M 18.378906 10.035156 C 18.34375 10.144531 18.390625 10.265625 18.480469 10.332031 C 18.582031 10.398438 18.703125 10.386719 18.796875 10.320312 C 18.710938 10.421875 18.566406 10.453125 18.457031 10.375 C 18.34375 10.300781 18.304688 10.148438 18.378906 10.035156 Z M 16.519531 12.261719 L 21.1875 12.261719 L 21.1875 11.082031 L 21.429688 10.832031 L 21.429688 12.484375 L 16.273438 12.484375 L 16.273438 10.664062 L 16.496094 10.664062 Z M 16.894531 9.9375 C 16.957031 9.785156 17.105469 9.714844 17.265625 9.730469 C 17.421875 9.75 17.554688 9.863281 17.582031 10.019531 C 17.617188 10.167969 17.554688 10.324219 17.417969 10.40625 C 17.519531 10.316406 17.546875 10.183594 17.507812 10.054688 C 17.472656 9.921875 17.367188 9.832031 17.242188 9.800781 C 17.109375 9.78125 16.980469 9.835938 16.894531 9.9375 Z M 16.355469 5.410156 L 16.894531 6.933594 L 16.296875 5.445312 C 16.140625 5.0625 15.601562 4.898438 15.296875 5.179688 C 15.59375 4.847656 16.207031 4.992188 16.355469 5.410156 Z M 16.472656 6.972656 C 16.75 6.964844 16.992188 7.179688 17.023438 7.457031 C 17.058594 7.734375 16.867188 7.996094 16.585938 8.054688 C 16.828125 7.976562 16.972656 7.734375 16.9375 7.492188 C 16.902344 7.242188 16.695312 7.066406 16.445312 7.054688 C 16.191406 7.054688 15.980469 7.230469 15.941406 7.472656 C 15.964844 7.195312 16.199219 6.972656 16.472656 6.972656 Z M 19.359375 10.050781 C 19.386719 9.828125 19.589844 9.660156 19.8125 9.664062 C 20.042969 9.664062 20.230469 9.851562 20.25 10.074219 C 20.261719 10.304688 20.097656 10.511719 19.875 10.546875 C 20.082031 10.503906 20.21875 10.304688 20.203125 10.09375 C 20.183594 9.882812 20.007812 9.710938 19.804688 9.707031 C 19.589844 9.695312 19.402344 9.847656 19.359375 10.050781 Z M 14.28125 9.851562 L 14.28125 10.105469 L 14.246094 9.871094 L 13.816406 9.554688 Z M 19.613281 4.785156 C 19.882812 4.5 20.296875 4.367188 20.671875 4.46875 C 21.0625 4.558594 21.359375 4.855469 21.464844 5.25 C 21.554688 5.632812 21.390625 6.085938 21.089844 6.347656 C 21.5 5.941406 21.511719 5.28125 21.113281 4.863281 C 20.714844 4.433594 20.054688 4.410156 19.613281 4.785156 Z M 16.980469 9.972656 C 17.035156 9.898438 17.136719 9.863281 17.230469 9.882812 C 17.320312 9.902344 17.398438 9.972656 17.417969 10.070312 C 17.4375 10.160156 17.398438 10.265625 17.328125 10.320312 C 17.410156 10.230469 17.410156 10.078125 17.316406 9.988281 C 17.21875 9.894531 17.078125 9.894531 16.980469 9.972656 Z M 17.015625 10.035156 C 17.15625 10.121094 17.253906 10.199219 17.3125 10.285156 C 17.191406 10.210938 17.089844 10.125 17.015625 10.035156 Z M 17.015625 10.035156 " fill-opacity="1" fill-rule="evenodd"/></g><g clip-path="url(#2e4661f9cc)"><path fill="#935f3d" d="M 9.800781 14.054688 C 9.679688 13.671875 9.546875 13.339844 9.414062 13.074219 C 9.449219 13.027344 9.644531 13.40625 9.996094 14.21875 L 9.597656 14.105469 C 9.753906 14.160156 9.953125 14.367188 10.171875 14.738281 C 9.886719 14.847656 9.726562 15.042969 9.691406 15.339844 C 9.78125 15.042969 10.03125 14.886719 10.441406 14.878906 C 10.597656 14.765625 10.925781 14.601562 11.417969 14.382812 C 11.628906 13.945312 11.949219 13.558594 12.355469 13.214844 C 12.367188 13.203125 12.507812 13.367188 12.785156 13.699219 L 12.488281 13.09375 C 12.738281 12.828125 12.972656 12.589844 13.171875 12.40625 L 12.632812 13.101562 C 12.789062 13.402344 12.886719 13.707031 12.921875 14.015625 L 12.390625 13.488281 L 11.644531 14.519531 L 10.546875 15.097656 C 10.230469 15.199219 10.007812 15.488281 9.996094 15.824219 C 9.953125 15.5625 10.015625 15.296875 10.171875 15.089844 C 9.90625 15.109375 9.691406 15.339844 9.691406 15.617188 C 9.597656 15.46875 9.570312 15.292969 9.613281 15.125 C 9.648438 14.957031 9.753906 14.808594 9.902344 14.714844 C 9.855469 14.410156 9.648438 14.15625 9.351562 14.046875 C 9.503906 14 9.660156 14 9.800781 14.054688 Z M 7.578125 10.609375 C 8.570312 10.617188 9.472656 11.464844 9.363281 12.515625 C 9.296875 11.675781 8.34375 10.839844 7.578125 10.609375 Z M 11.195312 9.675781 C 11.800781 9.609375 12 10.652344 11.21875 10.652344 C 10.472656 10.664062 10.546875 9.742188 11.195312 9.675781 Z M 4.996094 17.382812 L 5.414062 17.382812 C 5.460938 17.382812 5.5 17.429688 5.5 17.472656 L 5.5 17.503906 C 5.53125 17.296875 5.566406 17.09375 5.621094 16.875 C 6.414062 17.324219 7.097656 17.621094 7.695312 17.785156 C 6.382812 17.136719 4.523438 16.144531 4.179688 15.816406 C 4.078125 14.121094 4.246094 13.230469 4.691406 12.136719 C 4.847656 11.746094 5.535156 11.03125 6.550781 10.964844 C 6.484375 11.117188 6.398438 11.582031 6.429688 11.53125 C 6.679688 11.113281 7.054688 10.757812 7.738281 10.902344 C 7.5625 10.769531 7.339844 10.714844 7.113281 10.734375 C 7.609375 10.351562 8.277344 10.269531 8.851562 10.523438 C 8.527344 9.722656 9.09375 9.6875 9.613281 9.730469 C 9.734375 9.628906 9.746094 9.246094 9.492188 8.96875 C 9.226562 8.691406 9.042969 8.542969 9.230469 8.265625 C 11.050781 4.984375 14.34375 7.578125 14.109375 9.027344 C 14.046875 9.410156 13.859375 9.601562 13.550781 9.601562 C 13.417969 9.941406 13.382812 10.226562 13.429688 10.417969 C 13.355469 10.453125 13.277344 10.460938 13.199219 10.453125 C 13.058594 10.433594 13.046875 10.582031 12.992188 10.738281 C 12.878906 11.035156 12.878906 11.101562 12.386719 11.136719 L 12.398438 11.480469 C 12.496094 11.746094 13.15625 11.824219 13.363281 12.128906 C 14.378906 12.109375 15.019531 12.109375 15.421875 12.128906 C 15.53125 12.160156 15.871094 12.449219 15.457031 12.484375 C 15.101562 12.515625 14.707031 12.585938 14.433594 12.558594 C 14.730469 12.820312 14.832031 13.117188 14.71875 13.320312 L 14.488281 13.179688 L 14.609375 13.496094 C 14.488281 13.664062 14.347656 13.757812 14.179688 13.785156 L 14.160156 13.644531 C 14.085938 13.894531 13.984375 14.027344 13.863281 14.03125 C 13.6875 14.152344 13.519531 14.152344 13.371094 14.042969 C 13.390625 13.800781 13.304688 13.566406 13.15625 13.390625 C 13.242188 13.800781 13.234375 14.078125 13.121094 14.226562 C 12.9375 14.28125 12.648438 14.730469 12.277344 15.566406 L 12.125 15.867188 C 12.058594 15.578125 12.011719 15.335938 11.984375 15.140625 L 12.011719 16.601562 C 13.34375 16.394531 14.570312 16.109375 15.667969 15.734375 C 16.117188 15.632812 16.570312 15.703125 16.949219 15.945312 C 17.332031 16.1875 17.597656 16.570312 17.699219 17.003906 L 17.789062 19.253906 C 17.457031 19.914062 17.054688 20.519531 16.570312 21.046875 C 17.199219 20.59375 17.617188 20.179688 17.816406 19.835938 C 17.703125 20.925781 17.703125 21.699219 17.835938 22.152344 C 17.824219 22.613281 17.613281 23 17.207031 23.296875 C 17.457031 23.265625 17.679688 23.140625 17.832031 22.941406 C 19 22.988281 19.648438 23.0625 19.648438 24.222656 C 19.707031 24.214844 19.78125 24.242188 19.78125 24.3125 C 19.8125 24.519531 19.816406 24.710938 19.800781 24.910156 C 18.148438 25.050781 17.148438 24.996094 16.730469 24.710938 L 16.191406 24.703125 L 15.992188 24.914062 C 14.945312 24.960938 14.417969 24.847656 14.402344 24.597656 C 14.347656 24.214844 14.359375 23.789062 14.414062 23.316406 C 14.597656 22.691406 14.753906 21.863281 14.875 20.839844 C 15.03125 20.335938 15.109375 19.742188 15.097656 19.078125 L 15.980469 18.417969 L 12.789062 19.992188 L 11.273438 20.679688 L 13.066406 23.589844 C 13.449219 24.304688 13.78125 25.578125 12.460938 25.882812 C 11.496094 26.101562 9.785156 26.1875 9.113281 25.613281 C 7.476562 24.988281 6.402344 24.546875 5.636719 24.632812 C 5.207031 25.328125 4.699219 25.710938 4.121094 25.765625 C 4.027344 25.777344 3.921875 25.753906 3.832031 25.730469 C 3.789062 25.710938 3.742188 25.71875 3.679688 25.710938 C 3.460938 25.65625 3.503906 25.414062 3.652344 25.003906 C 3.847656 24.453125 3.773438 24.214844 3.9375 23.9375 C 4.003906 23.824219 4.269531 23.546875 4.3125 23.417969 C 4.488281 22.867188 4.136719 23.164062 4.210938 22.734375 C 4.285156 21.757812 4.980469 21.59375 5.445312 21.988281 L 7.296875 22.835938 L 6.109375 22.179688 L 7.753906 22.675781 L 9.398438 23.753906 L 5.859375 20.703125 C 5.769531 20.628906 5.683594 20.546875 5.617188 20.453125 L 4.691406 20.453125 C 4.570312 20.453125 4.476562 20.363281 4.476562 20.246094 L 4.476562 18.054688 C 4.476562 17.933594 4.570312 17.839844 4.691406 17.839844 L 4.910156 17.839844 L 4.910156 17.480469 C 4.910156 17.429688 4.945312 17.382812 4.996094 17.382812 Z M 6.972656 14.835938 C 7.820312 15.953125 8.691406 16.832031 9.574219 17.480469 C 8.894531 17.214844 7.910156 16.707031 6.621094 15.945312 C 6.871094 16.023438 7.445312 16.273438 8.359375 16.683594 C 7.828125 16.117188 7.375 15.507812 6.972656 14.835938 Z M 10.414062 11.390625 C 10.015625 11.179688 8.609375 9.867188 9.46875 9.8125 C 9.175781 10.039062 9.484375 10.5625 10.414062 11.390625 Z M 11.140625 9.53125 C 10.898438 9.558594 10.691406 9.695312 10.566406 9.894531 C 10.652344 9.640625 10.875 9.464844 11.125 9.4375 C 11.386719 9.402344 11.644531 9.523438 11.785156 9.746094 C 11.605469 9.574219 11.375 9.5 11.140625 9.53125 Z M 13.640625 9.417969 C 12.859375 9.640625 11.8125 8.550781 10.722656 9.207031 C 10.535156 9.316406 9.367188 8.824219 9.355469 8.269531 C 9.5625 8.828125 10.558594 9.246094 10.796875 9.105469 C 11.359375 8.777344 12.0625 8.777344 12.703125 9.117188 C 13.390625 9.328125 13.804688 9.28125 13.929688 8.984375 C 13.910156 9.15625 13.816406 9.296875 13.640625 9.417969 Z M 13.640625 9.417969 " fill-opacity="1" fill-rule="evenodd"/></g><path fill="#935f3d" d="M 14.699219 13.320312 C 12.683594 13.40625 12.167969 13.945312 13.179688 14.949219 C 13.519531 15.210938 13.960938 15.28125 14.476562 15.160156 C 15.875 14.894531 16.746094 14.695312 17.109375 14.554688 C 18.03125 14.566406 18.570312 14.535156 18.726562 14.46875 C 19.332031 14.433594 19.640625 14.414062 19.640625 14.414062 C 19.804688 14.3125 19.804688 14.203125 19.628906 14.070312 C 19.78125 14.089844 19.851562 14.101562 19.851562 14.101562 C 19.9375 14.082031 19.984375 14.011719 19.984375 13.933594 C 19.984375 13.859375 19.917969 13.792969 19.839844 13.777344 C 19.925781 13.742188 19.972656 13.667969 19.972656 13.574219 C 19.972656 13.488281 19.925781 13.40625 19.839844 13.367188 C 19.765625 13.355469 19.730469 13.34375 19.730469 13.34375 C 19.996094 13.160156 19.992188 12.992188 19.699219 12.851562 C 19.085938 12.765625 18.480469 12.765625 17.886719 12.871094 C 17.867188 12.769531 17.839844 12.675781 17.808594 12.605469 L 17.25 12.605469 L 17.269531 12.640625 C 17.335938 12.78125 17.355469 12.972656 17.335938 13.234375 C 16.796875 13.386719 16.359375 13.578125 16.027344 13.808594 C 16.210938 13.601562 16.425781 13.425781 16.675781 13.300781 C 15.871094 13.367188 15.464844 13.402344 15.464844 13.402344 C 14.960938 13.351562 14.699219 13.320312 14.699219 13.320312 Z M 14.699219 13.320312 " fill-opacity="1" fill-rule="evenodd"/><path fill="#fefefe" d="M 7.265625 11.214844 C 6.585938 11.257812 6.242188 12.421875 6.230469 14.703125 C 6.507812 12.492188 6.851562 11.335938 7.265625 11.214844 Z M 7.265625 11.214844 " fill-opacity="1" fill-rule="evenodd"/></svg>