<svg xmlns="http://www.w3.org/2000/svg" xmlns:xlink="http://www.w3.org/1999/xlink" width="40" zoomAndPan="magnify" viewBox="0 0 30 30.000001" height="40" preserveAspectRatio="xMidYMid meet" version="1.0"><defs><clipPath id="d757a9cce4"><path d="M 0.484375 0 L 29.515625 0 L 29.515625 29.03125 L 0.484375 29.03125 Z M 0.484375 0 " clip-rule="nonzero"/></clipPath><clipPath id="34b6498609"><path d="M 3.4375 9.566406 L 26.5625 9.566406 L 26.5625 19.453125 L 3.4375 19.453125 Z M 3.4375 9.566406 " clip-rule="nonzero"/></clipPath></defs><g clip-path="url(#d757a9cce4)"><path fill="#ffffff" d="M 0.484375 0 L 29.515625 0 L 29.515625 29.03125 L 0.484375 29.03125 Z M 0.484375 0 " fill-opacity="1" fill-rule="nonzero"/><path fill="#ffffff" d="M 0.484375 0 L 29.515625 0 L 29.515625 29.03125 L 0.484375 29.03125 Z M 0.484375 0 " fill-opacity="1" fill-rule="nonzero"/></g><g clip-path="url(#34b6498609)"><path fill="#935f3d" d="M 15.78125 17.636719 C 15.640625 17.519531 15.441406 17.445312 15.21875 17.445312 C 14.996094 17.445312 14.800781 17.519531 14.65625 17.636719 C 14.523438 17.746094 14.441406 17.898438 14.441406 18.0625 C 14.441406 18.230469 14.523438 18.378906 14.65625 18.488281 C 14.800781 18.609375 14.996094 18.683594 15.21875 18.683594 C 15.441406 18.683594 15.640625 18.609375 15.78125 18.488281 C 15.914062 18.378906 15.996094 18.230469 15.996094 18.0625 C 15.996094 17.898438 15.914062 17.746094 15.78125 17.636719 Z M 14.085938 17.582031 C 14.148438 17.472656 14.234375 17.371094 14.335938 17.285156 C 14.5625 17.097656 14.875 16.980469 15.21875 16.980469 C 15.5625 16.980469 15.875 17.097656 16.105469 17.285156 C 16.242188 17.402344 16.351562 17.546875 16.417969 17.707031 L 16.417969 17.703125 C 16.382812 17.324219 16.164062 16.996094 15.800781 16.839844 C 15.097656 16.535156 14.078125 16.765625 14.085938 17.582031 Z M 6.421875 15.613281 C 7.074219 15.441406 7.394531 15.320312 7.46875 15.359375 C 7.546875 15.394531 5.675781 15.894531 5.261719 16.605469 C 4.847656 17.3125 5.148438 17.886719 5.609375 18.140625 C 6.074219 18.398438 6.601562 18.445312 6.601562 18.445312 C 6.601562 18.445312 6.453125 18.515625 6.25 18.5625 C 8.667969 19.128906 12.429688 18.46875 12.4375 16.714844 C 12.46875 16.824219 12.484375 16.9375 12.484375 17.054688 C 12.484375 18.378906 10.460938 19.453125 7.960938 19.453125 C 5.464844 19.453125 3.4375 18.378906 3.4375 17.054688 C 3.4375 15.726562 5.464844 14.648438 7.960938 14.648438 C 11.496094 14.648438 4.222656 14.527344 4.269531 16.945312 C 4.277344 17.3125 4.449219 17.621094 4.738281 17.875 C 4.675781 17.761719 4.625 17.640625 4.59375 17.519531 C 4.363281 16.558594 5.65625 15.8125 6.421875 15.613281 Z M 7.066406 11.574219 C 7.035156 11.535156 7.011719 11.496094 6.988281 11.453125 C 6.800781 11.0625 7.015625 10.699219 7.617188 10.457031 C 8.21875 10.21875 8.859375 10.203125 8.890625 10.234375 C 8.921875 10.269531 7.570312 10.5625 7.382812 10.941406 C 7.308594 11.097656 7.273438 11.269531 7.390625 11.425781 C 7.605469 11.707031 8.164062 11.855469 8.347656 11.945312 C 8.996094 12.039062 9.726562 12.058594 10.359375 12.035156 C 10.230469 11.988281 10.132812 11.949219 10.085938 11.921875 C 10.003906 11.875 9.933594 11.808594 9.875 11.734375 C 9.640625 11.832031 9.304688 11.757812 9.222656 11.507812 C 9.1875 11.398438 9.324219 10.625 9.371094 10.601562 C 9.433594 10.566406 9.890625 10.566406 9.949219 10.601562 C 9.984375 10.621094 10.082031 11.109375 10.101562 11.363281 C 10.789062 11.511719 12.359375 11.9375 12.910156 11.96875 C 13.289062 11.988281 13.664062 11.921875 13.925781 11.859375 C 14.171875 11.3125 14.375 10.90625 14.457031 10.824219 C 14.53125 10.746094 14.6875 10.707031 14.839844 10.695312 C 14.980469 10.683594 15.152344 10.691406 15.238281 10.710938 C 15.328125 10.691406 15.5 10.683594 15.640625 10.695312 C 15.792969 10.707031 15.949219 10.746094 16.023438 10.824219 C 16.105469 10.90625 16.308594 11.308594 16.550781 11.855469 C 16.789062 11.894531 17.074219 11.925781 17.355469 11.914062 C 17.890625 11.882812 19.324219 11.519531 20.109375 11.347656 C 20.125 11.097656 20.222656 10.585938 20.261719 10.5625 C 20.320312 10.527344 20.777344 10.527344 20.839844 10.5625 C 20.886719 10.589844 21.023438 11.359375 20.988281 11.46875 C 20.921875 11.671875 20.6875 11.761719 20.472656 11.734375 C 20.421875 11.785156 20.363281 11.828125 20.300781 11.863281 C 20.234375 11.902344 20.066406 11.964844 19.835938 12.035156 C 20.492188 12.058594 21.238281 12.03125 21.886719 11.929688 C 22.097656 11.835938 22.605469 11.691406 22.808594 11.425781 C 22.925781 11.269531 22.894531 11.097656 22.816406 10.941406 C 22.628906 10.5625 21.277344 10.269531 21.308594 10.234375 C 21.339844 10.203125 21.980469 10.21875 22.582031 10.457031 C 23.183594 10.699219 23.402344 11.0625 23.210938 11.453125 C 23.203125 11.46875 23.195312 11.480469 23.1875 11.496094 C 23.394531 11.347656 23.519531 11.167969 23.519531 10.945312 C 23.519531 9.570312 17.105469 9.394531 17.003906 10.945312 C 17.003906 10.96875 17.007812 10.992188 17.011719 11.019531 C 16.859375 10.53125 17.019531 10.351562 17.398438 10.121094 C 18.898438 9.214844 24.09375 9.363281 24.09375 10.980469 C 24.09375 12.34375 20.863281 12.511719 18.980469 12.285156 C 18.300781 12.46875 17.535156 12.644531 17.132812 12.675781 C 17.050781 12.683594 16.976562 12.6875 16.910156 12.691406 C 17.011719 12.9375 17.117188 13.1875 17.214844 13.441406 C 17.34375 13.765625 17.46875 14.089844 17.578125 14.390625 L 20.558594 16.066406 C 20.558594 16.066406 20.617188 16.214844 20.710938 16.480469 C 20.753906 16.601562 20.929688 16.792969 21.105469 16.972656 C 21.164062 16.710938 21.257812 16.421875 21.296875 16.40625 C 21.394531 16.367188 22.125 16.367188 22.21875 16.40625 C 22.292969 16.433594 22.511719 17.261719 22.457031 17.378906 C 22.273438 17.761719 21.246094 17.761719 21.0625 17.378906 C 21.054688 17.359375 21.050781 17.320312 21.054688 17.273438 C 20.828125 17.195312 20.597656 17.113281 20.597656 17.113281 L 17.988281 15.734375 C 17.988281 15.75 17.992188 15.765625 17.992188 15.78125 C 18.003906 15.882812 17.90625 16.4375 17.757812 16.933594 C 17.734375 17.011719 17.710938 17.089844 17.6875 17.164062 C 18.351562 18.523438 21.589844 19 23.753906 18.492188 C 23.550781 18.445312 23.402344 18.375 23.402344 18.375 C 23.402344 18.375 23.929688 18.328125 24.390625 18.074219 C 24.855469 17.816406 25.15625 17.242188 24.742188 16.535156 C 24.324219 15.824219 22.457031 15.324219 22.53125 15.289062 C 22.609375 15.25 22.929688 15.375 23.578125 15.542969 C 24.347656 15.742188 25.640625 16.488281 25.40625 17.449219 C 25.378906 17.570312 25.328125 17.691406 25.261719 17.804688 C 25.550781 17.550781 25.722656 17.242188 25.730469 16.878906 C 25.773438 14.910156 21.265625 14.617188 21.21875 14.621094 C 22.796875 14.464844 26.5625 14.941406 26.5625 16.980469 C 26.5625 18.308594 24.539062 19.386719 22.042969 19.386719 C 19.820312 19.386719 17.976562 18.535156 17.59375 17.414062 C 17.535156 17.554688 17.476562 17.675781 17.414062 17.765625 C 17.3125 17.917969 17.148438 18.023438 16.964844 18.101562 C 16.808594 18.164062 16.636719 18.207031 16.472656 18.238281 C 16.425781 18.472656 16.296875 18.679688 16.105469 18.839844 C 15.875 19.03125 15.5625 19.148438 15.21875 19.148438 C 14.875 19.148438 14.5625 19.03125 14.335938 18.839844 C 14.148438 18.683594 14.015625 18.480469 13.96875 18.25 C 13.824219 18.222656 13.714844 18.179688 13.539062 18.109375 C 13.53125 18.109375 13.527344 18.105469 13.523438 18.105469 C 13.335938 18.027344 13.167969 17.917969 13.066406 17.765625 C 12.9375 17.578125 12.820312 17.261719 12.722656 16.933594 C 12.574219 16.4375 12.476562 15.882812 12.488281 15.78125 C 12.492188 15.714844 12.511719 15.625 12.539062 15.515625 L 9.519531 17.113281 C 9.519531 17.113281 9.289062 17.195312 9.0625 17.273438 C 9.0625 17.316406 9.0625 17.347656 9.054688 17.363281 C 8.871094 17.765625 7.84375 17.765625 7.660156 17.363281 C 7.605469 17.242188 7.824219 16.378906 7.894531 16.351562 C 7.992188 16.3125 8.722656 16.3125 8.816406 16.351562 C 8.859375 16.367188 8.957031 16.6875 9.015625 16.964844 C 9.1875 16.789062 9.363281 16.601562 9.40625 16.480469 C 9.5 16.214844 9.558594 16.066406 9.558594 16.066406 L 13 14.132812 C 13.082031 13.90625 13.171875 13.675781 13.265625 13.441406 C 13.355469 13.210938 13.449219 12.980469 13.542969 12.753906 C 13.4375 12.753906 13.300781 12.75 13.125 12.734375 C 12.699219 12.695312 11.851562 12.488281 11.152344 12.285156 C 9.273438 12.511719 6.035156 12.34375 6.035156 10.980469 C 6.035156 9.363281 11.230469 9.214844 12.730469 10.121094 C 13.109375 10.351562 13.269531 10.53125 13.117188 11.019531 C 13.121094 10.992188 13.125 10.96875 13.125 10.945312 C 13.023438 9.394531 6.609375 9.570312 6.609375 10.945312 C 6.609375 11.207031 6.785156 11.414062 7.066406 11.574219 Z M 9.128906 18.351562 C 10.136719 18.214844 11.613281 17.433594 11.65625 16.308594 C 12.335938 17.878906 10.265625 18.425781 9.128906 18.351562 Z M 21.332031 18.351562 C 20.324219 18.214844 18.847656 17.433594 18.804688 16.308594 C 18.121094 17.878906 20.195312 18.425781 21.332031 18.351562 Z M 14.976562 11.21875 C 14.949219 11.222656 14.917969 11.222656 14.882812 11.226562 C 14.835938 11.230469 14.851562 11.183594 14.828125 11.203125 C 14.726562 11.308594 14.21875 12.476562 13.761719 13.636719 C 13.382812 14.601562 13.042969 15.542969 13.019531 15.832031 C 13.015625 15.855469 13.03125 15.953125 13.058594 16.089844 C 13.285156 16.214844 13.722656 16.394531 14.496094 16.460938 C 15.75 16.574219 16.890625 16.265625 16.902344 16.160156 C 16.910156 16.054688 14.75 16.3125 14.210938 15.765625 C 13.726562 15.269531 14.695312 12.023438 14.976562 11.21875 " fill-opacity="1" fill-rule="nonzero"/></g></svg>