<svg xmlns="http://www.w3.org/2000/svg" xmlns:xlink="http://www.w3.org/1999/xlink" width="40" zoomAndPan="magnify" viewBox="0 0 30 30.000001" height="40" preserveAspectRatio="xMidYMid meet" version="1.0"><defs><clipPath id="e11576b954"><path d="M 0.484375 0 L 29.515625 0 L 29.515625 29.03125 L 0.484375 29.03125 Z M 0.484375 0 " clip-rule="nonzero"/></clipPath><clipPath id="adee5195ff"><path d="M 3.386719 4 L 26.613281 4 L 26.613281 25.839844 L 3.386719 25.839844 Z M 3.386719 4 " clip-rule="nonzero"/></clipPath></defs><g clip-path="url(#e11576b954)"><path fill="#ffffff" d="M 0.484375 0 L 29.515625 0 L 29.515625 29.03125 L 0.484375 29.03125 Z M 0.484375 0 " fill-opacity="1" fill-rule="nonzero"/><path fill="#ffffff" d="M 0.484375 0 L 29.515625 0 L 29.515625 29.03125 L 0.484375 29.03125 Z M 0.484375 0 " fill-opacity="1" fill-rule="nonzero"/></g><g clip-path="url(#adee5195ff)"><path fill="#935f3d" d="M 7.109375 18.21875 C 7.542969 18.609375 7.816406 19.175781 7.816406 19.808594 C 7.816406 20.992188 6.855469 21.953125 5.671875 21.953125 C 4.488281 21.953125 3.527344 20.992188 3.527344 19.808594 C 3.527344 18.625 4.488281 17.664062 5.671875 17.664062 C 5.917969 17.664062 6.160156 17.703125 6.378906 17.78125 L 6.875 16.953125 C 4.089844 13.953125 4.160156 9.257812 7.074219 6.34375 C 10.058594 3.355469 14.90625 3.355469 17.894531 6.34375 C 18.671875 7.121094 19.246094 8.023438 19.617188 8.988281 L 20.921875 7.542969 C 20.648438 7.183594 20.484375 6.734375 20.484375 6.246094 C 20.484375 5.066406 21.445312 4.105469 22.628906 4.105469 C 23.8125 4.105469 24.773438 5.066406 24.773438 6.246094 C 24.773438 7.433594 23.8125 8.394531 22.628906 8.394531 C 22.238281 8.394531 21.875 8.289062 21.558594 8.105469 L 19.914062 9.929688 C 20.363281 11.773438 20.117188 13.75 19.183594 15.445312 L 25.824219 22.085938 C 26.222656 22.484375 26.445312 23.023438 26.445312 23.589844 C 26.445312 24.152344 26.222656 24.691406 25.824219 25.089844 C 25.425781 25.488281 24.886719 25.714844 24.320312 25.714844 C 23.757812 25.714844 23.21875 25.488281 22.820312 25.089844 L 16.179688 18.449219 C 13.433594 19.964844 9.957031 19.667969 7.503906 17.558594 Z M 18.96875 9.707031 C 18.652344 8.695312 18.09375 7.746094 17.292969 6.941406 C 14.640625 4.289062 10.328125 4.289062 7.675781 6.941406 C 5.144531 9.476562 5.027344 13.515625 7.328125 16.1875 L 9.210938 13.019531 C 8.722656 12.628906 8.40625 12.023438 8.40625 11.347656 C 8.40625 10.164062 9.367188 9.203125 10.550781 9.203125 C 11.738281 9.203125 12.699219 10.164062 12.699219 11.347656 C 12.699219 11.425781 12.691406 11.5 12.6875 11.574219 L 14.234375 12.472656 C 14.625 12.007812 15.214844 11.710938 15.871094 11.710938 C 16.25 11.710938 16.605469 11.8125 16.914062 11.984375 Z M 18.71875 16.183594 C 18.476562 16.527344 18.199219 16.851562 17.894531 17.160156 C 17.585938 17.46875 17.257812 17.742188 16.917969 17.988281 L 18.066406 19.136719 L 19.867188 17.332031 Z M 7.945312 16.8125 C 10.613281 19.210938 14.726562 19.125 17.292969 16.558594 C 18.882812 14.96875 19.519531 12.785156 19.203125 10.71875 L 17.5625 12.539062 C 17.84375 12.902344 18.015625 13.359375 18.015625 13.859375 C 18.015625 15.042969 17.054688 16.003906 15.871094 16.003906 C 14.6875 16.003906 13.726562 15.042969 13.726562 13.859375 C 13.726562 13.632812 13.757812 13.417969 13.824219 13.21875 L 12.421875 12.402344 C 12.050781 13.050781 11.351562 13.492188 10.550781 13.492188 C 10.351562 13.492188 10.152344 13.464844 9.96875 13.410156 Z M 18.667969 19.734375 L 23.421875 24.492188 C 23.660156 24.730469 23.984375 24.863281 24.320312 24.863281 C 24.660156 24.863281 24.984375 24.730469 25.222656 24.492188 C 25.460938 24.25 25.597656 23.925781 25.597656 23.589844 C 25.597656 23.25 25.460938 22.925781 25.222656 22.6875 L 20.46875 17.933594 Z M 4.375 19.808594 C 4.375 20.519531 4.957031 21.101562 5.671875 21.101562 C 6.386719 21.101562 6.964844 20.519531 6.964844 19.808594 C 6.964844 19.09375 6.386719 18.511719 5.671875 18.511719 C 4.957031 18.511719 4.375 19.09375 4.375 19.808594 Z M 21.335938 6.246094 C 21.335938 6.960938 21.914062 7.542969 22.628906 7.542969 C 23.34375 7.542969 23.925781 6.960938 23.925781 6.246094 C 23.925781 5.535156 23.34375 4.953125 22.628906 4.953125 C 21.914062 4.953125 21.335938 5.535156 21.335938 6.246094 Z M 12.214844 6.65625 C 11.980469 6.667969 11.78125 6.488281 11.769531 6.253906 C 11.757812 6.019531 11.9375 5.820312 12.171875 5.808594 C 13.796875 5.722656 15.453125 6.300781 16.695312 7.542969 C 16.859375 7.707031 16.859375 7.976562 16.695312 8.144531 C 16.527344 8.308594 16.257812 8.308594 16.09375 8.144531 C 15.027344 7.078125 13.609375 6.582031 12.214844 6.65625 Z M 9.257812 11.347656 C 9.257812 12.0625 9.835938 12.644531 10.550781 12.644531 C 11.265625 12.644531 11.847656 12.0625 11.847656 11.347656 C 11.847656 10.632812 11.265625 10.054688 10.550781 10.054688 C 9.835938 10.054688 9.257812 10.632812 9.257812 11.347656 Z M 14.574219 13.859375 C 14.574219 14.570312 15.15625 15.152344 15.871094 15.152344 C 16.585938 15.152344 17.164062 14.570312 17.164062 13.859375 C 17.164062 13.144531 16.585938 12.5625 15.871094 12.5625 C 15.15625 12.5625 14.574219 13.144531 14.574219 13.859375 Z M 14.574219 13.859375 " fill-opacity="1" fill-rule="evenodd"/></g></svg>