<svg xmlns="http://www.w3.org/2000/svg" xmlns:xlink="http://www.w3.org/1999/xlink" width="40" zoomAndPan="magnify" viewBox="0 0 30 30.000001" height="40" preserveAspectRatio="xMidYMid meet" version="1.0"><defs><clipPath id="4cdfd20c7d"><path d="M 0.484375 0 L 29.515625 0 L 29.515625 29.03125 L 0.484375 29.03125 Z M 0.484375 0 " clip-rule="nonzero"/></clipPath><clipPath id="b8567355d2"><path d="M 3.386719 7.257812 L 23 7.257812 L 23 21.773438 L 3.386719 21.773438 Z M 3.386719 7.257812 " clip-rule="nonzero"/></clipPath><clipPath id="b7d14a4d3d"><path d="M 19 10 L 26.613281 10 L 26.613281 19 L 19 19 Z M 19 10 " clip-rule="nonzero"/></clipPath></defs><g clip-path="url(#4cdfd20c7d)"><path fill="#ffffff" d="M 0.484375 0 L 29.515625 0 L 29.515625 29.03125 L 0.484375 29.03125 Z M 0.484375 0 " fill-opacity="1" fill-rule="nonzero"/><path fill="#ffffff" d="M 0.484375 0 L 29.515625 0 L 29.515625 29.03125 L 0.484375 29.03125 Z M 0.484375 0 " fill-opacity="1" fill-rule="nonzero"/></g><path fill="#935f3d" d="M 11.734375 18.144531 C 11.535156 18.144531 11.371094 18.308594 11.371094 18.507812 C 11.371094 18.707031 11.535156 18.871094 11.734375 18.871094 L 14.636719 18.871094 C 14.835938 18.871094 15 18.707031 15 18.507812 C 15 18.308594 14.835938 18.144531 14.636719 18.144531 Z M 11.734375 18.144531 " fill-opacity="1" fill-rule="nonzero"/><path fill="#935f3d" d="M 6.671875 18.398438 C 6.671875 18.484375 6.640625 18.558594 6.582031 18.617188 C 6.519531 18.675781 6.449219 18.707031 6.363281 18.707031 C 6.277344 18.707031 6.203125 18.675781 6.144531 18.617188 C 6.085938 18.558594 6.054688 18.484375 6.054688 18.398438 C 6.054688 18.3125 6.085938 18.242188 6.144531 18.179688 C 6.203125 18.121094 6.277344 18.089844 6.363281 18.089844 C 6.449219 18.089844 6.519531 18.121094 6.582031 18.179688 C 6.640625 18.242188 6.671875 18.3125 6.671875 18.398438 Z M 6.671875 18.398438 " fill-opacity="1" fill-rule="nonzero"/><path fill="#935f3d" d="M 5.457031 18.398438 C 5.457031 18.484375 5.425781 18.558594 5.367188 18.617188 C 5.304688 18.675781 5.230469 18.707031 5.148438 18.707031 C 5.0625 18.707031 4.988281 18.675781 4.929688 18.617188 C 4.867188 18.558594 4.839844 18.484375 4.839844 18.398438 C 4.839844 18.3125 4.867188 18.242188 4.929688 18.179688 C 4.988281 18.121094 5.0625 18.089844 5.148438 18.089844 C 5.230469 18.089844 5.304688 18.121094 5.367188 18.179688 C 5.425781 18.242188 5.457031 18.3125 5.457031 18.398438 Z M 5.457031 18.398438 " fill-opacity="1" fill-rule="nonzero"/><path fill="#935f3d" d="M 11.496094 10.144531 C 11.390625 9.980469 11.152344 9.925781 10.988281 10.035156 L 7.722656 12.210938 C 7.613281 12.285156 7.558594 12.394531 7.558594 12.519531 C 7.558594 12.648438 7.613281 12.757812 7.722656 12.828125 C 7.722656 12.828125 10.988281 15.007812 10.988281 15.007812 C 11.152344 15.113281 11.390625 15.078125 11.496094 14.898438 C 11.605469 14.734375 11.570312 14.496094 11.390625 14.390625 L 8.578125 12.519531 L 11.390625 10.652344 C 11.550781 10.542969 11.605469 10.304688 11.496094 10.144531 Z M 11.496094 10.144531 " fill-opacity="1" fill-rule="nonzero"/><path fill="#935f3d" d="M 14.871094 14.898438 C 14.980469 15.058594 15.21875 15.113281 15.382812 15.007812 L 18.648438 12.828125 C 18.757812 12.757812 18.808594 12.648438 18.808594 12.519531 C 18.808594 12.394531 18.757812 12.285156 18.648438 12.210938 L 15.382812 10.035156 C 15.21875 9.925781 14.980469 9.960938 14.871094 10.144531 C 14.765625 10.304688 14.800781 10.542969 14.980469 10.652344 L 17.792969 12.519531 L 14.980469 14.390625 C 14.820312 14.496094 14.765625 14.734375 14.871094 14.898438 Z M 14.871094 14.898438 " fill-opacity="1" fill-rule="nonzero"/><path fill="#935f3d" d="M 13.566406 9.707031 L 12.113281 15.152344 C 12.058594 15.351562 12.1875 15.550781 12.367188 15.585938 C 12.40625 15.585938 12.421875 15.605469 12.460938 15.605469 C 12.621094 15.605469 12.769531 15.496094 12.804688 15.332031 L 14.257812 9.890625 C 14.308594 9.691406 14.183594 9.488281 14.003906 9.453125 C 13.820312 9.398438 13.621094 9.507812 13.566406 9.707031 Z M 13.566406 9.707031 " fill-opacity="1" fill-rule="nonzero"/><g clip-path="url(#b8567355d2)"><path fill="#935f3d" d="M 11.734375 21.046875 L 10.644531 21.046875 C 10.445312 21.046875 10.28125 21.210938 10.28125 21.410156 C 10.28125 21.609375 10.445312 21.773438 10.644531 21.773438 L 15.726562 21.773438 C 15.925781 21.773438 16.089844 21.609375 16.089844 21.410156 C 16.089844 21.210938 15.925781 21.046875 15.726562 21.046875 L 14.636719 21.046875 L 14.636719 19.960938 L 21.894531 19.960938 C 22.367188 19.960938 22.765625 19.652344 22.910156 19.234375 L 22.53125 19.234375 C 22.367188 19.234375 22.222656 19.214844 22.078125 19.160156 C 22.023438 19.199219 21.949219 19.234375 21.878906 19.234375 L 4.476562 19.234375 C 4.277344 19.234375 4.113281 19.070312 4.113281 18.871094 L 4.113281 17.78125 L 19.464844 17.78125 L 19.410156 17.726562 C 19.226562 17.546875 19.082031 17.308594 19.011719 17.054688 L 4.113281 17.054688 L 4.113281 8.347656 C 4.113281 8.148438 4.277344 7.984375 4.476562 7.984375 L 21.894531 7.984375 C 22.09375 7.984375 22.257812 8.148438 22.257812 8.347656 L 22.257812 10.199219 C 22.347656 10.179688 22.441406 10.160156 22.546875 10.160156 L 22.984375 10.160156 L 22.984375 8.347656 C 22.984375 7.746094 22.492188 7.257812 21.894531 7.257812 L 4.476562 7.257812 C 3.878906 7.257812 3.386719 7.746094 3.386719 8.347656 L 3.386719 18.871094 C 3.386719 19.46875 3.878906 19.960938 4.476562 19.960938 L 11.734375 19.960938 Z M 12.460938 19.960938 L 13.910156 19.960938 L 13.910156 21.046875 L 12.460938 21.046875 Z M 12.460938 19.960938 " fill-opacity="1" fill-rule="nonzero"/></g><g clip-path="url(#b7d14a4d3d)"><path fill="#935f3d" d="M 25.90625 13.554688 C 25.867188 13.464844 25.832031 13.390625 25.796875 13.300781 C 26.03125 12.957031 25.996094 12.484375 25.6875 12.175781 L 25.324219 11.8125 C 25.160156 11.648438 24.925781 11.558594 24.691406 11.558594 C 24.507812 11.558594 24.34375 11.613281 24.199219 11.703125 C 24.128906 11.667969 24.035156 11.632812 23.945312 11.59375 C 23.855469 11.175781 23.492188 10.886719 23.074219 10.886719 L 22.566406 10.886719 C 22.132812 10.886719 21.769531 11.195312 21.695312 11.59375 C 21.605469 11.632812 21.53125 11.667969 21.441406 11.703125 C 21.296875 11.613281 21.132812 11.558594 20.953125 11.558594 C 20.714844 11.558594 20.480469 11.648438 20.316406 11.8125 L 19.953125 12.175781 C 19.644531 12.484375 19.609375 12.957031 19.84375 13.300781 C 19.808594 13.371094 19.773438 13.464844 19.734375 13.554688 C 19.320312 13.644531 19.027344 14.007812 19.027344 14.425781 L 19.027344 14.933594 C 19.027344 15.367188 19.335938 15.730469 19.734375 15.804688 C 19.773438 15.894531 19.808594 15.96875 19.84375 16.058594 C 19.753906 16.203125 19.699219 16.367188 19.699219 16.546875 C 19.699219 16.785156 19.789062 17.019531 19.953125 17.183594 L 20.316406 17.546875 C 20.480469 17.710938 20.714844 17.800781 20.953125 17.800781 C 21.132812 17.800781 21.296875 17.746094 21.441406 17.65625 C 21.515625 17.691406 21.605469 17.726562 21.695312 17.765625 C 21.785156 18.179688 22.148438 18.472656 22.566406 18.472656 L 23.074219 18.472656 C 23.511719 18.472656 23.871094 18.164062 23.945312 17.765625 C 24.035156 17.726562 24.109375 17.691406 24.199219 17.65625 C 24.34375 17.746094 24.507812 17.800781 24.691406 17.800781 C 24.925781 17.800781 25.160156 17.710938 25.324219 17.546875 L 25.6875 17.183594 C 25.851562 17.019531 25.941406 16.785156 25.941406 16.546875 C 25.941406 16.367188 25.886719 16.203125 25.796875 16.058594 C 25.832031 15.984375 25.867188 15.894531 25.90625 15.804688 C 26.324219 15.714844 26.613281 15.351562 26.613281 14.933594 L 26.613281 14.425781 C 26.613281 14.007812 26.304688 13.644531 25.90625 13.554688 Z M 25.886719 14.953125 C 25.886719 15.042969 25.816406 15.113281 25.722656 15.113281 L 25.34375 15.113281 C 25.269531 15.515625 25.125 15.859375 24.90625 16.167969 L 25.179688 16.441406 C 25.253906 16.511719 25.253906 16.621094 25.179688 16.675781 L 24.816406 17.039062 C 24.78125 17.074219 24.742188 17.09375 24.691406 17.09375 C 24.636719 17.09375 24.597656 17.074219 24.5625 17.039062 L 24.289062 16.765625 C 23.980469 16.984375 23.617188 17.148438 23.238281 17.203125 L 23.238281 17.582031 C 23.238281 17.671875 23.164062 17.746094 23.074219 17.746094 L 22.566406 17.746094 C 22.476562 17.746094 22.402344 17.671875 22.402344 17.582031 L 22.402344 17.238281 C 22.003906 17.164062 21.660156 17.019531 21.351562 16.800781 L 21.042969 17.054688 C 21.007812 17.09375 20.96875 17.109375 20.914062 17.109375 C 20.859375 17.109375 20.84375 17.09375 20.804688 17.054688 L 20.445312 16.695312 C 20.371094 16.621094 20.371094 16.511719 20.445312 16.457031 L 20.714844 16.183594 C 20.496094 15.878906 20.335938 15.515625 20.28125 15.132812 L 19.898438 15.132812 C 19.808594 15.132812 19.734375 15.058594 19.734375 14.96875 L 19.734375 14.460938 C 19.734375 14.371094 19.808594 14.296875 19.898438 14.296875 L 20.261719 14.296875 C 20.335938 13.898438 20.480469 13.554688 20.699219 13.246094 L 20.445312 12.9375 C 20.371094 12.863281 20.371094 12.757812 20.445312 12.703125 L 20.804688 12.339844 C 20.84375 12.300781 20.878906 12.285156 20.933594 12.285156 C 20.988281 12.285156 21.023438 12.300781 21.058594 12.339844 L 21.332031 12.609375 C 21.640625 12.394531 22.003906 12.230469 22.386719 12.175781 L 22.386719 11.792969 C 22.386719 11.703125 22.457031 11.632812 22.546875 11.632812 L 23.054688 11.632812 C 23.148438 11.632812 23.21875 11.703125 23.21875 11.792969 L 23.21875 12.15625 C 23.617188 12.230469 23.964844 12.375 24.273438 12.59375 L 24.542969 12.320312 C 24.582031 12.285156 24.617188 12.265625 24.671875 12.265625 C 24.726562 12.265625 24.761719 12.285156 24.796875 12.320312 L 25.160156 12.683594 C 25.234375 12.757812 25.234375 12.863281 25.160156 12.917969 L 24.890625 13.191406 C 25.105469 13.5 25.269531 13.863281 25.324219 14.242188 L 25.707031 14.242188 C 25.796875 14.242188 25.867188 14.316406 25.867188 14.40625 L 25.867188 14.953125 Z M 25.886719 14.953125 " fill-opacity="1" fill-rule="nonzero"/></g><path fill="#935f3d" d="M 22.800781 13.246094 C 22.003906 13.246094 21.351562 13.898438 21.351562 14.699219 C 21.351562 15.496094 22.003906 16.148438 22.800781 16.148438 C 23.601562 16.148438 24.253906 15.496094 24.253906 14.699219 C 24.253906 13.898438 23.601562 13.246094 22.800781 13.246094 Z M 22.800781 15.421875 C 22.402344 15.421875 22.078125 15.097656 22.078125 14.699219 C 22.078125 14.296875 22.402344 13.972656 22.800781 13.972656 C 23.203125 13.972656 23.527344 14.296875 23.527344 14.699219 C 23.527344 15.097656 23.203125 15.421875 22.800781 15.421875 Z M 22.800781 15.421875 " fill-opacity="1" fill-rule="nonzero"/></svg>