<svg xmlns="http://www.w3.org/2000/svg" xmlns:xlink="http://www.w3.org/1999/xlink" width="40" zoomAndPan="magnify" viewBox="0 0 30 30.000001" height="40" preserveAspectRatio="xMidYMid meet" version="1.0"><defs><clipPath id="fadf4322f4"><path d="M 0.484375 0 L 29.515625 0 L 29.515625 29.03125 L 0.484375 29.03125 Z M 0.484375 0 " clip-rule="nonzero"/></clipPath><clipPath id="5d61d95b5c"><path d="M 5.839844 2.902344 L 23.984375 2.902344 L 23.984375 26.128906 L 5.839844 26.128906 Z M 5.839844 2.902344 " clip-rule="nonzero"/></clipPath></defs><g clip-path="url(#fadf4322f4)"><path fill="#ffffff" d="M 0.484375 0 L 29.515625 0 L 29.515625 29.03125 L 0.484375 29.03125 Z M 0.484375 0 " fill-opacity="1" fill-rule="nonzero"/><path fill="#ffffff" d="M 0.484375 0 L 29.515625 0 L 29.515625 29.03125 L 0.484375 29.03125 Z M 0.484375 0 " fill-opacity="1" fill-rule="nonzero"/></g><g clip-path="url(#5d61d95b5c)"><path fill="#935f3d" d="M 21.628906 2.902344 L 8.367188 2.902344 C 6.976562 2.902344 5.847656 4.035156 5.847656 5.425781 L 5.847656 12.886719 C 5.847656 14.277344 6.976562 15.410156 8.367188 15.410156 L 8.664062 15.410156 C 8.648438 15.53125 8.636719 15.652344 8.632812 15.785156 C 8.605469 16.695312 8.929688 17.574219 9.523438 18.191406 C 9.71875 18.394531 9.9375 18.558594 10.167969 18.683594 C 9.210938 18.828125 8.394531 19.167969 7.773438 19.6875 C 6.96875 20.363281 6.527344 21.3125 6.527344 22.363281 L 6.527344 25.839844 C 6.527344 26 6.65625 26.128906 6.816406 26.128906 L 15.730469 26.128906 C 15.886719 26.128906 16.019531 26 16.019531 25.839844 L 16.019531 22.363281 C 16.019531 21.3125 15.574219 20.363281 14.769531 19.6875 C 14.148438 19.167969 13.332031 18.828125 12.378906 18.683594 C 12.609375 18.558594 12.824219 18.394531 13.019531 18.191406 C 13.617188 17.574219 13.941406 16.695312 13.910156 15.785156 C 13.90625 15.652344 13.894531 15.53125 13.878906 15.410156 L 16.320312 15.410156 L 16.320312 18.582031 C 16.320312 18.699219 16.390625 18.804688 16.496094 18.847656 C 16.535156 18.863281 16.570312 18.871094 16.609375 18.871094 C 16.683594 18.871094 16.757812 18.84375 16.8125 18.789062 L 20.242188 15.410156 L 21.628906 15.410156 C 23.015625 15.410156 24.148438 14.277344 24.148438 12.886719 L 24.148438 5.425781 C 24.148438 4.035156 23.019531 2.902344 21.628906 2.902344 Z M 15.441406 22.363281 L 15.441406 25.550781 L 13.675781 25.550781 L 13.675781 22.839844 C 13.675781 22.683594 13.546875 22.550781 13.386719 22.550781 C 13.230469 22.550781 13.097656 22.683594 13.097656 22.839844 L 13.097656 25.550781 L 9.445312 25.550781 L 9.445312 22.839844 C 9.445312 22.683594 9.316406 22.550781 9.15625 22.550781 C 8.996094 22.550781 8.867188 22.683594 8.867188 22.839844 L 8.867188 25.550781 L 7.105469 25.550781 L 7.105469 22.363281 C 7.105469 20.429688 8.742188 19.179688 11.273438 19.179688 C 13.804688 19.179688 15.441406 20.429688 15.441406 22.363281 Z M 12.605469 17.789062 C 12.226562 18.179688 11.753906 18.394531 11.273438 18.394531 C 10.789062 18.394531 10.316406 18.179688 9.941406 17.789062 C 9.453125 17.285156 9.1875 16.5625 9.210938 15.800781 C 9.253906 14.488281 10.007812 13.730469 11.273438 13.730469 C 12.539062 13.730469 13.289062 14.488281 13.332031 15.800781 C 13.359375 16.5625 13.09375 17.285156 12.605469 17.789062 Z M 23.570312 12.886719 C 23.570312 13.960938 22.699219 14.832031 21.628906 14.832031 L 20.125 14.832031 C 20.050781 14.832031 19.976562 14.859375 19.921875 14.914062 L 16.898438 17.890625 L 16.898438 15.121094 C 16.898438 14.960938 16.769531 14.832031 16.609375 14.832031 L 13.746094 14.832031 C 13.398438 13.777344 12.507812 13.152344 11.273438 13.152344 C 10.035156 13.152344 9.148438 13.777344 8.796875 14.832031 L 8.367188 14.832031 C 7.296875 14.832031 6.425781 13.960938 6.425781 12.886719 L 6.425781 5.425781 C 6.425781 4.351562 7.296875 3.480469 8.367188 3.480469 L 21.628906 3.480469 C 22.699219 3.480469 23.570312 4.351562 23.570312 5.425781 Z M 20.367188 5.027344 C 20.46875 5.152344 20.453125 5.335938 20.332031 5.4375 L 18.585938 6.886719 C 18.535156 6.929688 18.46875 6.953125 18.402344 6.953125 C 18.390625 6.953125 18.382812 6.953125 18.371094 6.949219 C 18.296875 6.941406 18.226562 6.90625 18.175781 6.84375 L 17.414062 5.90625 C 17.3125 5.78125 17.332031 5.597656 17.453125 5.5 C 17.578125 5.398438 17.761719 5.417969 17.863281 5.539062 L 18.441406 6.253906 L 19.960938 4.992188 C 20.085938 4.890625 20.265625 4.90625 20.367188 5.027344 Z M 12.539062 6.929688 C 12.425781 6.820312 12.421875 6.636719 12.53125 6.523438 C 12.644531 6.40625 12.828125 6.40625 12.941406 6.515625 L 13.339844 6.90625 L 13.730469 6.503906 C 13.839844 6.390625 14.023438 6.386719 14.136719 6.5 C 14.253906 6.609375 14.253906 6.792969 14.144531 6.910156 L 13.753906 7.308594 L 14.152344 7.695312 C 14.269531 7.808594 14.269531 7.992188 14.160156 8.105469 C 14.101562 8.164062 14.027344 8.191406 13.953125 8.191406 C 13.878906 8.191406 13.808594 8.164062 13.75 8.109375 L 13.351562 7.722656 L 12.964844 8.121094 C 12.90625 8.179688 12.832031 8.210938 12.757812 8.210938 C 12.683594 8.210938 12.609375 8.183594 12.554688 8.128906 C 12.441406 8.015625 12.4375 7.832031 12.550781 7.71875 L 12.9375 7.320312 Z M 13.460938 11.160156 C 12.859375 11.160156 12.375 11.648438 12.375 12.246094 C 12.375 12.847656 12.863281 13.335938 13.460938 13.335938 C 14.058594 13.335938 14.546875 12.847656 14.546875 12.246094 C 14.546875 11.648438 14.0625 11.160156 13.460938 11.160156 Z M 13.460938 12.757812 C 13.179688 12.757812 12.953125 12.527344 12.953125 12.246094 C 12.953125 11.964844 13.179688 11.738281 13.460938 11.738281 C 13.742188 11.738281 13.96875 11.964844 13.96875 12.246094 C 13.96875 12.527344 13.742188 12.757812 13.460938 12.757812 Z M 18.34375 7.460938 L 16.332031 8.046875 C 16.234375 8.074219 16.15625 8.15625 16.132812 8.253906 C 16.109375 8.355469 16.140625 8.460938 16.214844 8.535156 L 16.777344 9.066406 C 16.121094 9.691406 15.113281 9.640625 13.964844 9.578125 C 12.511719 9.5 10.867188 9.414062 9.632812 10.792969 C 9.527344 10.914062 9.539062 11.097656 9.65625 11.203125 C 9.710938 11.25 9.78125 11.277344 9.851562 11.277344 C 9.929688 11.277344 10.007812 11.242188 10.066406 11.179688 C 11.113281 10.007812 12.546875 10.082031 13.933594 10.15625 C 15.128906 10.21875 16.359375 10.285156 17.195312 9.464844 L 17.746094 9.984375 C 17.800781 10.039062 17.875 10.066406 17.945312 10.066406 C 17.972656 10.066406 18.003906 10.0625 18.03125 10.054688 C 18.128906 10.023438 18.203125 9.941406 18.226562 9.84375 L 18.707031 7.804688 C 18.730469 7.703125 18.699219 7.597656 18.625 7.527344 C 18.550781 7.457031 18.441406 7.429688 18.34375 7.460938 Z M 17.78125 9.21875 L 16.980469 8.460938 L 18.03125 8.152344 Z M 17.78125 9.21875 " fill-opacity="1" fill-rule="nonzero"/></g></svg>