<svg xmlns="http://www.w3.org/2000/svg" xmlns:xlink="http://www.w3.org/1999/xlink" width="40" zoomAndPan="magnify" viewBox="0 0 30 30.000001" height="40" preserveAspectRatio="xMidYMid meet" version="1.0"><defs><clipPath id="5f86cb4f6b"><path d="M 0.484375 0 L 29.515625 0 L 29.515625 29.03125 L 0.484375 29.03125 Z M 0.484375 0 " clip-rule="nonzero"/></clipPath><clipPath id="2b4329576a"><path d="M 4 7.082031 L 22 7.082031 L 22 21.601562 L 4 21.601562 Z M 4 7.082031 " clip-rule="nonzero"/></clipPath><clipPath id="1801ed8bef"><path d="M 3.386719 18 L 8 18 L 8 21.601562 L 3.386719 21.601562 Z M 3.386719 18 " clip-rule="nonzero"/></clipPath><clipPath id="a4c87bee2b"><path d="M 22 14 L 26.613281 14 L 26.613281 15 L 22 15 Z M 22 14 " clip-rule="nonzero"/></clipPath></defs><g clip-path="url(#5f86cb4f6b)"><path fill="#ffffff" d="M 0.484375 0 L 29.515625 0 L 29.515625 29.03125 L 0.484375 29.03125 Z M 0.484375 0 " fill-opacity="1" fill-rule="nonzero"/><path fill="#ffffff" d="M 0.484375 0 L 29.515625 0 L 29.515625 29.03125 L 0.484375 29.03125 Z M 0.484375 0 " fill-opacity="1" fill-rule="nonzero"/></g><g clip-path="url(#2b4329576a)"><path fill="#935f3d" d="M 18.789062 13.039062 L 17.839844 12.875 C 17.964844 9.296875 18.492188 7.441406 18.789062 7.441406 C 19.097656 7.441406 19.644531 9.414062 19.75 13.207031 Z M 18.789062 21.585938 C 18.492188 21.585938 17.964844 19.722656 17.839844 16.148438 L 18.789062 15.984375 L 19.75 15.816406 C 19.644531 19.609375 19.097656 21.585938 18.789062 21.585938 Z M 20.035156 13.257812 C 19.953125 10.453125 19.59375 7.152344 18.789062 7.152344 C 18.761719 7.152344 18.734375 7.15625 18.707031 7.160156 C 18.535156 7.210938 18.382812 7.425781 18.25 7.75 C 17.125 9.09375 14.179688 11.929688 9.046875 12.542969 L 9.046875 12.128906 L 5.425781 12.128906 C 4.792969 12.128906 4.28125 12.640625 4.28125 13.273438 L 4.28125 15.753906 C 4.28125 16.382812 4.792969 16.894531 5.425781 16.894531 L 9.046875 16.894531 L 9.046875 16.480469 C 14.175781 17.089844 17.121094 19.925781 18.25 21.269531 C 18.382812 21.601562 18.535156 21.8125 18.707031 21.863281 C 18.734375 21.871094 18.761719 21.875 18.789062 21.875 C 19.59375 21.875 19.953125 18.570312 20.035156 15.765625 C 20.613281 15.628906 21.027344 15.113281 21.027344 14.511719 C 21.027344 13.910156 20.613281 13.394531 20.035156 13.257812 " fill-opacity="1" fill-rule="nonzero"/></g><g clip-path="url(#1801ed8bef)"><path fill="#935f3d" d="M 3.382812 21.875 L 5.472656 21.875 L 7.773438 18.214844 L 5.679688 18.214844 L 3.382812 21.875 " fill-opacity="1" fill-rule="nonzero"/></g><g clip-path="url(#a4c87bee2b)"><path fill="#935f3d" d="M 26.398438 14.730469 L 22.9375 14.730469 C 22.816406 14.730469 22.71875 14.632812 22.71875 14.511719 C 22.71875 14.394531 22.816406 14.296875 22.9375 14.296875 L 26.398438 14.296875 C 26.519531 14.296875 26.617188 14.394531 26.617188 14.511719 C 26.617188 14.632812 26.519531 14.730469 26.398438 14.730469 " fill-opacity="1" fill-rule="nonzero"/></g><path fill="#935f3d" d="M 22.9375 12.992188 C 22.878906 12.992188 22.824219 12.972656 22.78125 12.929688 C 22.699219 12.847656 22.699219 12.707031 22.78125 12.625 L 25.230469 10.175781 C 25.316406 10.089844 25.453125 10.089844 25.539062 10.175781 C 25.625 10.257812 25.625 10.398438 25.539062 10.480469 L 23.089844 12.929688 C 23.046875 12.972656 22.992188 12.992188 22.9375 12.992188 " fill-opacity="1" fill-rule="nonzero"/><path fill="#935f3d" d="M 25.386719 18.914062 C 25.328125 18.914062 25.273438 18.890625 25.230469 18.847656 L 22.78125 16.398438 C 22.699219 16.316406 22.699219 16.175781 22.78125 16.09375 C 22.867188 16.007812 23.003906 16.007812 23.089844 16.09375 L 25.539062 18.542969 C 25.625 18.628906 25.625 18.765625 25.539062 18.847656 C 25.496094 18.890625 25.441406 18.914062 25.386719 18.914062 " fill-opacity="1" fill-rule="nonzero"/></svg>