<svg xmlns="http://www.w3.org/2000/svg" xmlns:xlink="http://www.w3.org/1999/xlink" width="40" zoomAndPan="magnify" viewBox="0 0 30 30.000001" height="40" preserveAspectRatio="xMidYMid meet" version="1.0"><defs><clipPath id="881da3dfa9"><path d="M 0.484375 0 L 29.515625 0 L 29.515625 29.03125 L 0.484375 29.03125 Z M 0.484375 0 " clip-rule="nonzero"/></clipPath><clipPath id="996bcfd236"><path d="M 3.386719 2.902344 L 26.613281 2.902344 L 26.613281 26.128906 L 3.386719 26.128906 Z M 3.386719 2.902344 " clip-rule="nonzero"/></clipPath></defs><g clip-path="url(#881da3dfa9)"><path fill="#ffffff" d="M 0.484375 0 L 29.515625 0 L 29.515625 29.03125 L 0.484375 29.03125 Z M 0.484375 0 " fill-opacity="1" fill-rule="nonzero"/><path fill="#ffffff" d="M 0.484375 0 L 29.515625 0 L 29.515625 29.03125 L 0.484375 29.03125 Z M 0.484375 0 " fill-opacity="1" fill-rule="nonzero"/></g><g clip-path="url(#996bcfd236)"><path fill="#935f3d" d="M 26.5625 11.363281 C 26.300781 10.355469 24.753906 7.996094 24.578125 7.734375 C 24.5 7.617188 24.394531 7.558594 24.253906 7.558594 L 16.527344 7.558594 L 16.527344 4.082031 C 16.527344 3.929688 16.496094 3.78125 16.4375 3.640625 C 16.378906 3.496094 16.292969 3.371094 16.1875 3.261719 C 16.078125 3.15625 15.953125 3.070312 15.808594 3.011719 C 15.667969 2.953125 15.519531 2.921875 15.367188 2.921875 L 4.546875 2.921875 C 4.394531 2.921875 4.246094 2.953125 4.101562 3.011719 C 3.960938 3.070312 3.835938 3.15625 3.726562 3.261719 C 3.617188 3.371094 3.535156 3.496094 3.476562 3.640625 C 3.417969 3.78125 3.386719 3.929688 3.386719 4.082031 L 3.386719 24.949219 C 3.386719 25.105469 3.417969 25.25 3.476562 25.394531 C 3.535156 25.535156 3.617188 25.660156 3.726562 25.769531 C 3.835938 25.878906 3.960938 25.960938 4.101562 26.019531 C 4.246094 26.078125 4.394531 26.109375 4.546875 26.109375 L 15.367188 26.109375 C 15.519531 26.109375 15.667969 26.078125 15.808594 26.019531 C 15.953125 25.960938 16.078125 25.878906 16.1875 25.769531 C 16.292969 25.660156 16.378906 25.535156 16.4375 25.394531 C 16.496094 25.25 16.527344 25.105469 16.527344 24.949219 L 16.527344 21.085938 L 24.253906 21.085938 C 24.410156 21.085938 24.558594 21.054688 24.699219 20.996094 C 24.839844 20.9375 24.964844 20.855469 25.074219 20.746094 C 25.183594 20.636719 25.265625 20.511719 25.324219 20.371094 C 25.382812 20.226562 25.414062 20.078125 25.414062 19.925781 L 25.414062 14.019531 C 26.101562 13.804688 26.5625 13.3125 26.574219 12.753906 C 26.625 12.289062 26.621094 11.824219 26.5625 11.363281 Z M 10.730469 24.5625 L 9.183594 24.5625 C 9.078125 24.5625 8.984375 24.527344 8.910156 24.449219 C 8.835938 24.375 8.796875 24.285156 8.796875 24.175781 C 8.796875 24.070312 8.835938 23.980469 8.910156 23.902344 C 8.984375 23.828125 9.078125 23.789062 9.183594 23.789062 L 10.730469 23.789062 C 10.835938 23.789062 10.925781 23.828125 11.003906 23.902344 C 11.078125 23.980469 11.117188 24.070312 11.117188 24.175781 C 11.117188 24.285156 11.078125 24.375 11.003906 24.449219 C 10.925781 24.527344 10.835938 24.5625 10.730469 24.5625 Z M 15.753906 22.246094 L 4.160156 22.246094 L 4.160156 6.402344 L 15.753906 6.402344 L 15.753906 7.558594 L 14.980469 7.558594 C 14.804688 7.558594 14.683594 7.640625 14.621094 7.808594 C 14.578125 7.914062 13.59375 10.449219 13.4375 11.398438 C 13.40625 11.84375 13.40625 12.289062 13.433594 12.734375 C 13.433594 13.300781 13.898438 13.800781 14.59375 14.019531 L 14.59375 19.925781 C 14.59375 20.078125 14.625 20.226562 14.683594 20.371094 C 14.742188 20.511719 14.824219 20.636719 14.933594 20.746094 C 15.042969 20.855469 15.167969 20.9375 15.308594 20.996094 C 15.453125 21.054688 15.601562 21.085938 15.753906 21.085938 Z M 16.535156 11.378906 C 16.53125 11.40625 16.527344 11.433594 16.527344 11.460938 L 16.527344 12.734375 C 16.507812 12.890625 16.433594 13.011719 16.296875 13.09375 C 15.914062 13.339844 15.496094 13.417969 15.046875 13.328125 C 14.566406 13.253906 14.207031 12.992188 14.207031 12.714844 C 14.179688 12.316406 14.179688 11.917969 14.203125 11.519531 C 14.480469 10.433594 14.828125 9.371094 15.246094 8.332031 L 17.207031 8.332031 Z M 17.300781 12.734375 L 17.300781 11.566406 L 17.480469 10.734375 L 17.480469 10.730469 L 18 8.332031 L 19.617188 8.332031 L 19.617188 12.734375 C 19.617188 13.027344 19.144531 13.355469 18.457031 13.355469 C 17.773438 13.355469 17.300781 13.027344 17.300781 12.734375 Z M 21.550781 20.3125 L 18.84375 20.3125 L 18.84375 17.414062 C 18.84375 17.234375 18.878906 17.0625 18.949219 16.898438 C 19.015625 16.730469 19.113281 16.585938 19.242188 16.457031 C 19.367188 16.332031 19.515625 16.234375 19.679688 16.164062 C 19.847656 16.097656 20.019531 16.0625 20.199219 16.0625 C 20.378906 16.0625 20.550781 16.097656 20.714844 16.164062 C 20.882812 16.234375 21.027344 16.332031 21.152344 16.457031 C 21.28125 16.585938 21.378906 16.730469 21.449219 16.898438 C 21.515625 17.0625 21.550781 17.234375 21.550781 17.414062 Z M 22.710938 12.734375 C 22.710938 13.027344 22.234375 13.355469 21.550781 13.355469 C 20.867188 13.355469 20.390625 13.027344 20.390625 12.734375 L 20.390625 8.332031 L 22.011719 8.332031 L 22.527344 10.730469 L 22.527344 10.734375 L 22.710938 11.566406 Z M 25.800781 12.703125 L 25.800781 12.734375 C 25.800781 12.992188 25.441406 13.253906 24.96875 13.328125 C 24.117188 13.460938 23.484375 13.074219 23.484375 12.734375 L 23.484375 11.476562 C 23.480469 11.445312 23.480469 11.417969 23.476562 11.390625 L 22.800781 8.332031 L 24.046875 8.332031 C 24.570312 9.132812 25.636719 10.863281 25.8125 11.554688 C 25.851562 11.9375 25.847656 12.320312 25.800781 12.703125 Z M 11.851562 7.785156 C 11.773438 7.710938 11.679688 7.675781 11.574219 7.679688 C 11.46875 7.683594 11.378906 7.722656 11.304688 7.800781 L 7.703125 11.644531 C 7.628906 11.722656 7.59375 11.816406 7.597656 11.921875 C 7.601562 12.03125 7.640625 12.121094 7.71875 12.195312 C 7.796875 12.269531 7.890625 12.300781 7.996094 12.296875 C 8.105469 12.292969 8.195312 12.253906 8.269531 12.175781 L 11.871094 8.328125 C 11.941406 8.25 11.976562 8.160156 11.972656 8.050781 C 11.96875 7.945312 11.929688 7.855469 11.851562 7.785156 Z M 13.046875 15.675781 L 5.707031 15.675781 C 5.597656 15.675781 5.507812 15.714844 5.433594 15.789062 C 5.355469 15.863281 5.320312 15.957031 5.320312 16.0625 C 5.320312 16.167969 5.355469 16.257812 5.433594 16.335938 C 5.507812 16.410156 5.597656 16.449219 5.707031 16.449219 L 13.046875 16.449219 C 13.15625 16.449219 13.246094 16.410156 13.320312 16.335938 C 13.398438 16.257812 13.433594 16.167969 13.433594 16.0625 C 13.433594 15.957031 13.398438 15.863281 13.320312 15.789062 C 13.246094 15.714844 13.15625 15.675781 13.046875 15.675781 Z M 13.046875 13.742188 L 6.480469 13.742188 C 6.371094 13.742188 6.28125 13.78125 6.207031 13.855469 C 6.128906 13.933594 6.09375 14.023438 6.09375 14.128906 C 6.09375 14.238281 6.128906 14.328125 6.207031 14.402344 C 6.28125 14.476562 6.371094 14.515625 6.480469 14.515625 L 13.046875 14.515625 C 13.15625 14.515625 13.246094 14.476562 13.320312 14.402344 C 13.398438 14.328125 13.433594 14.238281 13.433594 14.128906 C 13.433594 14.023438 13.398438 13.933594 13.320312 13.855469 C 13.246094 13.78125 13.15625 13.742188 13.046875 13.742188 Z M 11.929688 10.5 C 11.710938 10.292969 11.449219 10.191406 11.144531 10.199219 C 10.835938 10.207031 10.578125 10.324219 10.371094 10.546875 C 10.269531 10.65625 10.195312 10.777344 10.144531 10.914062 C 10.09375 11.050781 10.070312 11.191406 10.074219 11.339844 C 10.078125 11.484375 10.109375 11.625 10.167969 11.757812 C 10.226562 11.894531 10.3125 12.011719 10.417969 12.113281 C 10.628906 12.316406 10.882812 12.414062 11.175781 12.414062 L 11.203125 12.414062 C 11.511719 12.40625 11.765625 12.289062 11.972656 12.066406 C 12.074219 11.960938 12.152344 11.835938 12.203125 11.699219 C 12.253906 11.5625 12.277344 11.421875 12.273438 11.273438 C 12.269531 11.128906 12.238281 10.988281 12.179688 10.855469 C 12.121094 10.71875 12.039062 10.601562 11.929688 10.5 Z M 11.410156 11.601562 C 11.347656 11.667969 11.273438 11.703125 11.183594 11.707031 C 11.09375 11.707031 11.015625 11.679688 10.949219 11.617188 C 10.882812 11.554688 10.847656 11.476562 10.84375 11.382812 C 10.84375 11.289062 10.871094 11.210938 10.933594 11.140625 C 10.996094 11.078125 11.070312 11.042969 11.164062 11.039062 L 11.175781 11.039062 C 11.261719 11.039062 11.335938 11.066406 11.398438 11.125 C 11.464844 11.191406 11.5 11.269531 11.503906 11.363281 C 11.503906 11.453125 11.472656 11.535156 11.410156 11.601562 Z M 9.15625 7.863281 C 8.9375 7.652344 8.671875 7.550781 8.367188 7.558594 C 8.0625 7.566406 7.804688 7.683594 7.59375 7.90625 C 7.496094 8.015625 7.421875 8.136719 7.371094 8.273438 C 7.316406 8.410156 7.292969 8.554688 7.296875 8.699219 C 7.304688 8.847656 7.335938 8.984375 7.394531 9.121094 C 7.453125 9.253906 7.535156 9.371094 7.640625 9.472656 C 7.855469 9.675781 8.105469 9.777344 8.398438 9.773438 L 8.429688 9.773438 C 8.738281 9.765625 8.992188 9.648438 9.203125 9.425781 C 9.300781 9.320312 9.378906 9.195312 9.429688 9.058594 C 9.480469 8.921875 9.503906 8.78125 9.5 8.632812 C 9.496094 8.488281 9.464844 8.347656 9.40625 8.214844 C 9.34375 8.082031 9.261719 7.960938 9.15625 7.863281 Z M 8.640625 8.898438 C 8.578125 8.964844 8.5 9 8.410156 9 C 8.320312 9.003906 8.242188 8.976562 8.175781 8.914062 C 8.109375 8.847656 8.074219 8.769531 8.070312 8.679688 C 8.066406 8.585938 8.097656 8.503906 8.160156 8.4375 C 8.222656 8.371094 8.300781 8.335938 8.390625 8.332031 L 8.398438 8.332031 C 8.484375 8.332031 8.5625 8.363281 8.625 8.421875 C 8.691406 8.484375 8.726562 8.5625 8.726562 8.65625 C 8.730469 8.75 8.703125 8.828125 8.640625 8.898438 Z M 11.851562 7.785156 C 11.773438 7.710938 11.679688 7.675781 11.574219 7.679688 C 11.46875 7.683594 11.378906 7.722656 11.304688 7.800781 L 7.703125 11.644531 C 7.628906 11.722656 7.59375 11.816406 7.597656 11.921875 C 7.601562 12.03125 7.640625 12.121094 7.71875 12.195312 C 7.796875 12.269531 7.890625 12.300781 7.996094 12.296875 C 8.105469 12.292969 8.195312 12.253906 8.269531 12.175781 L 11.871094 8.328125 C 11.941406 8.25 11.976562 8.160156 11.972656 8.050781 C 11.96875 7.945312 11.929688 7.855469 11.851562 7.785156 Z M 11.929688 10.5 C 11.710938 10.292969 11.449219 10.191406 11.144531 10.199219 C 10.835938 10.207031 10.578125 10.324219 10.371094 10.546875 C 10.269531 10.65625 10.195312 10.777344 10.144531 10.914062 C 10.09375 11.050781 10.070312 11.191406 10.074219 11.339844 C 10.078125 11.484375 10.109375 11.625 10.167969 11.757812 C 10.226562 11.894531 10.3125 12.011719 10.417969 12.113281 C 10.628906 12.316406 10.882812 12.414062 11.175781 12.414062 L 11.203125 12.414062 C 11.511719 12.40625 11.765625 12.289062 11.972656 12.066406 C 12.074219 11.960938 12.152344 11.835938 12.203125 11.699219 C 12.253906 11.5625 12.277344 11.421875 12.273438 11.273438 C 12.269531 11.128906 12.238281 10.988281 12.179688 10.855469 C 12.121094 10.71875 12.039062 10.601562 11.929688 10.5 Z M 11.410156 11.601562 C 11.347656 11.667969 11.273438 11.703125 11.183594 11.707031 C 11.09375 11.707031 11.015625 11.679688 10.949219 11.617188 C 10.882812 11.554688 10.847656 11.476562 10.84375 11.382812 C 10.84375 11.289062 10.871094 11.210938 10.933594 11.140625 C 10.996094 11.078125 11.070312 11.042969 11.164062 11.039062 L 11.175781 11.039062 C 11.261719 11.039062 11.335938 11.066406 11.398438 11.125 C 11.464844 11.191406 11.5 11.269531 11.503906 11.363281 C 11.503906 11.453125 11.472656 11.535156 11.410156 11.601562 Z M 13.046875 19.539062 L 5.707031 19.539062 C 5.597656 19.539062 5.507812 19.578125 5.433594 19.652344 C 5.355469 19.730469 5.320312 19.820312 5.320312 19.925781 C 5.320312 20.03125 5.355469 20.125 5.433594 20.199219 C 5.507812 20.273438 5.597656 20.3125 5.707031 20.3125 L 13.046875 20.3125 C 13.15625 20.3125 13.246094 20.273438 13.320312 20.199219 C 13.398438 20.125 13.433594 20.03125 13.433594 19.925781 C 13.433594 19.820312 13.398438 19.730469 13.320312 19.652344 C 13.246094 19.578125 13.15625 19.539062 13.046875 19.539062 Z M 13.046875 17.609375 L 5.707031 17.609375 C 5.597656 17.609375 5.507812 17.644531 5.433594 17.722656 C 5.355469 17.796875 5.320312 17.886719 5.320312 17.996094 C 5.320312 18.101562 5.355469 18.191406 5.433594 18.265625 C 5.507812 18.34375 5.597656 18.378906 5.707031 18.378906 L 13.046875 18.378906 C 13.15625 18.378906 13.246094 18.34375 13.320312 18.265625 C 13.398438 18.191406 13.433594 18.101562 13.433594 17.996094 C 13.433594 17.886719 13.398438 17.796875 13.320312 17.722656 C 13.246094 17.644531 13.15625 17.609375 13.046875 17.609375 Z M 13.046875 15.675781 L 5.707031 15.675781 C 5.597656 15.675781 5.507812 15.714844 5.433594 15.789062 C 5.355469 15.863281 5.320312 15.957031 5.320312 16.0625 C 5.320312 16.167969 5.355469 16.257812 5.433594 16.335938 C 5.507812 16.410156 5.597656 16.449219 5.707031 16.449219 L 13.046875 16.449219 C 13.15625 16.449219 13.246094 16.410156 13.320312 16.335938 C 13.398438 16.257812 13.433594 16.167969 13.433594 16.0625 C 13.433594 15.957031 13.398438 15.863281 13.320312 15.789062 C 13.246094 15.714844 13.15625 15.675781 13.046875 15.675781 Z M 13.046875 13.742188 L 6.480469 13.742188 C 6.371094 13.742188 6.28125 13.78125 6.207031 13.855469 C 6.128906 13.933594 6.09375 14.023438 6.09375 14.128906 C 6.09375 14.238281 6.128906 14.328125 6.207031 14.402344 C 6.28125 14.476562 6.371094 14.515625 6.480469 14.515625 L 13.046875 14.515625 C 13.15625 14.515625 13.246094 14.476562 13.320312 14.402344 C 13.398438 14.328125 13.433594 14.238281 13.433594 14.128906 C 13.433594 14.023438 13.398438 13.933594 13.320312 13.855469 C 13.246094 13.78125 13.15625 13.742188 13.046875 13.742188 Z M 9.15625 7.863281 C 8.9375 7.652344 8.671875 7.550781 8.367188 7.558594 C 8.0625 7.566406 7.804688 7.683594 7.59375 7.90625 C 7.496094 8.015625 7.421875 8.136719 7.371094 8.273438 C 7.316406 8.410156 7.292969 8.554688 7.296875 8.699219 C 7.304688 8.847656 7.335938 8.984375 7.394531 9.121094 C 7.453125 9.253906 7.535156 9.371094 7.640625 9.472656 C 7.855469 9.675781 8.105469 9.777344 8.398438 9.773438 L 8.429688 9.773438 C 8.738281 9.765625 8.992188 9.648438 9.203125 9.425781 C 9.300781 9.320312 9.378906 9.195312 9.429688 9.058594 C 9.480469 8.921875 9.503906 8.78125 9.5 8.632812 C 9.496094 8.488281 9.464844 8.347656 9.40625 8.214844 C 9.34375 8.082031 9.261719 7.960938 9.15625 7.863281 Z M 8.640625 8.898438 C 8.578125 8.964844 8.5 9 8.410156 9 C 8.320312 9.003906 8.242188 8.976562 8.175781 8.914062 C 8.109375 8.847656 8.074219 8.769531 8.070312 8.679688 C 8.066406 8.585938 8.097656 8.503906 8.160156 8.4375 C 8.222656 8.371094 8.300781 8.335938 8.390625 8.332031 L 8.398438 8.332031 C 8.484375 8.332031 8.5625 8.363281 8.625 8.421875 C 8.691406 8.484375 8.726562 8.5625 8.726562 8.65625 C 8.730469 8.75 8.703125 8.828125 8.640625 8.898438 Z M 11.851562 7.785156 C 11.773438 7.710938 11.679688 7.675781 11.574219 7.679688 C 11.46875 7.683594 11.378906 7.722656 11.304688 7.800781 L 7.703125 11.644531 C 7.628906 11.722656 7.59375 11.816406 7.597656 11.921875 C 7.601562 12.03125 7.640625 12.121094 7.71875 12.195312 C 7.796875 12.269531 7.890625 12.300781 7.996094 12.296875 C 8.105469 12.292969 8.195312 12.253906 8.269531 12.175781 L 11.871094 8.328125 C 11.941406 8.25 11.976562 8.160156 11.972656 8.050781 C 11.96875 7.945312 11.929688 7.855469 11.851562 7.785156 Z M 11.929688 10.5 C 11.710938 10.292969 11.449219 10.191406 11.144531 10.199219 C 10.835938 10.207031 10.578125 10.324219 10.371094 10.546875 C 10.269531 10.65625 10.195312 10.777344 10.144531 10.914062 C 10.09375 11.050781 10.070312 11.191406 10.074219 11.339844 C 10.078125 11.484375 10.109375 11.625 10.167969 11.757812 C 10.226562 11.894531 10.3125 12.011719 10.417969 12.113281 C 10.628906 12.316406 10.882812 12.414062 11.175781 12.414062 L 11.203125 12.414062 C 11.511719 12.40625 11.765625 12.289062 11.972656 12.066406 C 12.074219 11.960938 12.152344 11.835938 12.203125 11.699219 C 12.253906 11.5625 12.277344 11.421875 12.273438 11.273438 C 12.269531 11.128906 12.238281 10.988281 12.179688 10.855469 C 12.121094 10.71875 12.039062 10.601562 11.929688 10.5 Z M 11.410156 11.601562 C 11.347656 11.667969 11.273438 11.703125 11.183594 11.707031 C 11.09375 11.707031 11.015625 11.679688 10.949219 11.617188 C 10.882812 11.554688 10.847656 11.476562 10.84375 11.382812 C 10.84375 11.289062 10.871094 11.210938 10.933594 11.140625 C 10.996094 11.078125 11.070312 11.042969 11.164062 11.039062 L 11.175781 11.039062 C 11.261719 11.039062 11.335938 11.066406 11.398438 11.125 C 11.464844 11.191406 11.5 11.269531 11.503906 11.363281 C 11.503906 11.453125 11.472656 11.535156 11.410156 11.601562 Z M 13.046875 19.539062 L 5.707031 19.539062 C 5.597656 19.539062 5.507812 19.578125 5.433594 19.652344 C 5.355469 19.730469 5.320312 19.820312 5.320312 19.925781 C 5.320312 20.03125 5.355469 20.125 5.433594 20.199219 C 5.507812 20.273438 5.597656 20.3125 5.707031 20.3125 L 13.046875 20.3125 C 13.15625 20.3125 13.246094 20.273438 13.320312 20.199219 C 13.398438 20.125 13.433594 20.03125 13.433594 19.925781 C 13.433594 19.820312 13.398438 19.730469 13.320312 19.652344 C 13.246094 19.578125 13.15625 19.539062 13.046875 19.539062 Z M 13.046875 17.609375 L 5.707031 17.609375 C 5.597656 17.609375 5.507812 17.644531 5.433594 17.722656 C 5.355469 17.796875 5.320312 17.886719 5.320312 17.996094 C 5.320312 18.101562 5.355469 18.191406 5.433594 18.265625 C 5.507812 18.34375 5.597656 18.378906 5.707031 18.378906 L 13.046875 18.378906 C 13.15625 18.378906 13.246094 18.34375 13.320312 18.265625 C 13.398438 18.191406 13.433594 18.101562 13.433594 17.996094 C 13.433594 17.886719 13.398438 17.796875 13.320312 17.722656 C 13.246094 17.644531 13.15625 17.609375 13.046875 17.609375 Z M 13.046875 15.675781 L 5.707031 15.675781 C 5.597656 15.675781 5.507812 15.714844 5.433594 15.789062 C 5.355469 15.863281 5.320312 15.957031 5.320312 16.0625 C 5.320312 16.167969 5.355469 16.257812 5.433594 16.335938 C 5.507812 16.410156 5.597656 16.449219 5.707031 16.449219 L 13.046875 16.449219 C 13.15625 16.449219 13.246094 16.410156 13.320312 16.335938 C 13.398438 16.257812 13.433594 16.167969 13.433594 16.0625 C 13.433594 15.957031 13.398438 15.863281 13.320312 15.789062 C 13.246094 15.714844 13.15625 15.675781 13.046875 15.675781 Z M 13.046875 13.742188 L 6.480469 13.742188 C 6.371094 13.742188 6.28125 13.78125 6.207031 13.855469 C 6.128906 13.933594 6.09375 14.023438 6.09375 14.128906 C 6.09375 14.238281 6.128906 14.328125 6.207031 14.402344 C 6.28125 14.476562 6.371094 14.515625 6.480469 14.515625 L 13.046875 14.515625 C 13.15625 14.515625 13.246094 14.476562 13.320312 14.402344 C 13.398438 14.328125 13.433594 14.238281 13.433594 14.128906 C 13.433594 14.023438 13.398438 13.933594 13.320312 13.855469 C 13.246094 13.78125 13.15625 13.742188 13.046875 13.742188 Z M 9.15625 7.863281 C 8.9375 7.652344 8.671875 7.550781 8.367188 7.558594 C 8.0625 7.566406 7.804688 7.683594 7.59375 7.90625 C 7.496094 8.015625 7.421875 8.136719 7.371094 8.273438 C 7.316406 8.410156 7.292969 8.554688 7.296875 8.699219 C 7.304688 8.847656 7.335938 8.984375 7.394531 9.121094 C 7.453125 9.253906 7.535156 9.371094 7.640625 9.472656 C 7.855469 9.675781 8.105469 9.777344 8.398438 9.773438 L 8.429688 9.773438 C 8.738281 9.765625 8.992188 9.648438 9.203125 9.425781 C 9.300781 9.320312 9.378906 9.195312 9.429688 9.058594 C 9.480469 8.921875 9.503906 8.78125 9.5 8.632812 C 9.496094 8.488281 9.464844 8.347656 9.40625 8.214844 C 9.34375 8.082031 9.261719 7.960938 9.15625 7.863281 Z M 8.640625 8.898438 C 8.578125 8.964844 8.5 9 8.410156 9 C 8.320312 9.003906 8.242188 8.976562 8.175781 8.914062 C 8.109375 8.847656 8.074219 8.769531 8.070312 8.679688 C 8.066406 8.585938 8.097656 8.503906 8.160156 8.4375 C 8.222656 8.371094 8.300781 8.335938 8.390625 8.332031 L 8.398438 8.332031 C 8.484375 8.332031 8.5625 8.363281 8.625 8.421875 C 8.691406 8.484375 8.726562 8.5625 8.726562 8.65625 C 8.730469 8.75 8.703125 8.828125 8.640625 8.898438 Z M 13.046875 17.609375 L 5.707031 17.609375 C 5.597656 17.609375 5.507812 17.644531 5.433594 17.722656 C 5.355469 17.796875 5.320312 17.886719 5.320312 17.996094 C 5.320312 18.101562 5.355469 18.191406 5.433594 18.265625 C 5.507812 18.34375 5.597656 18.378906 5.707031 18.378906 L 13.046875 18.378906 C 13.15625 18.378906 13.246094 18.34375 13.320312 18.265625 C 13.398438 18.191406 13.433594 18.101562 13.433594 17.996094 C 13.433594 17.886719 13.398438 17.796875 13.320312 17.722656 C 13.246094 17.644531 13.15625 17.609375 13.046875 17.609375 Z M 13.046875 19.539062 L 5.707031 19.539062 C 5.597656 19.539062 5.507812 19.578125 5.433594 19.652344 C 5.355469 19.730469 5.320312 19.820312 5.320312 19.925781 C 5.320312 20.03125 5.355469 20.125 5.433594 20.199219 C 5.507812 20.273438 5.597656 20.3125 5.707031 20.3125 L 13.046875 20.3125 C 13.15625 20.3125 13.246094 20.273438 13.320312 20.199219 C 13.398438 20.125 13.433594 20.03125 13.433594 19.925781 C 13.433594 19.820312 13.398438 19.730469 13.320312 19.652344 C 13.246094 19.578125 13.15625 19.539062 13.046875 19.539062 Z M 13.046875 19.539062 " fill-opacity="1" fill-rule="nonzero"/></g></svg>