<svg xmlns="http://www.w3.org/2000/svg" xmlns:xlink="http://www.w3.org/1999/xlink" width="40" zoomAndPan="magnify" viewBox="0 0 30 30.000001" height="40" preserveAspectRatio="xMidYMid meet" version="1.0"><defs><clipPath id="8609f19c58"><path d="M 0.484375 0 L 29.515625 0 L 29.515625 29.03125 L 0.484375 29.03125 Z M 0.484375 0 " clip-rule="nonzero"/></clipPath><clipPath id="eb564e974c"><path d="M 4.285156 2.902344 L 21 2.902344 L 21 26.128906 L 4.285156 26.128906 Z M 4.285156 2.902344 " clip-rule="nonzero"/></clipPath></defs><g clip-path="url(#8609f19c58)"><path fill="#ffffff" d="M 0.484375 0 L 29.515625 0 L 29.515625 29.03125 L 0.484375 29.03125 Z M 0.484375 0 " fill-opacity="1" fill-rule="nonzero"/><path fill="#ffffff" d="M 0.484375 0 L 29.515625 0 L 29.515625 29.03125 L 0.484375 29.03125 Z M 0.484375 0 " fill-opacity="1" fill-rule="nonzero"/></g><g clip-path="url(#eb564e974c)"><path fill="#935f3d" d="M 20.363281 24.65625 L 20.363281 16.917969 L 20.359375 16.921875 C 20.164062 17.070312 19.929688 17.144531 19.699219 17.144531 C 19.554688 17.144531 19.410156 17.113281 19.277344 17.058594 C 18.902344 17.636719 18.511719 18.648438 18.546875 20.332031 C 18.5625 21.011719 18.09375 21.667969 17.457031 21.867188 L 17.167969 21.953125 C 17.320312 21.996094 17.4375 22.136719 17.4375 22.304688 C 17.4375 22.503906 17.273438 22.664062 17.074219 22.664062 L 14.855469 22.664062 L 11.316406 23.75 L 17.074219 23.75 C 17.273438 23.75 17.4375 23.914062 17.4375 24.113281 C 17.4375 24.3125 17.273438 24.476562 17.074219 24.476562 L 7.574219 24.476562 C 7.375 24.476562 7.210938 24.3125 7.210938 24.113281 C 7.210938 23.914062 7.375 23.75 7.574219 23.75 L 7.800781 23.75 C 7.746094 23.550781 7.753906 23.324219 7.820312 23.09375 L 7.949219 22.664062 L 7.574219 22.664062 C 7.375 22.664062 7.210938 22.503906 7.210938 22.304688 C 7.210938 22.101562 7.375 21.941406 7.574219 21.941406 L 8.167969 21.941406 L 8.492188 20.855469 L 7.574219 20.855469 C 7.375 20.855469 7.210938 20.691406 7.210938 20.492188 C 7.210938 20.292969 7.375 20.128906 7.574219 20.128906 L 8.710938 20.128906 L 9.035156 19.042969 L 7.574219 19.042969 C 7.375 19.042969 7.210938 18.882812 7.210938 18.679688 C 7.210938 18.480469 7.375 18.320312 7.574219 18.320312 L 9.253906 18.320312 L 9.582031 17.234375 L 7.574219 17.234375 C 7.375 17.234375 7.210938 17.070312 7.210938 16.871094 C 7.210938 16.671875 7.375 16.507812 7.574219 16.507812 L 9.796875 16.507812 L 10.125 15.421875 L 7.574219 15.421875 C 7.375 15.421875 7.210938 15.257812 7.210938 15.058594 C 7.210938 14.859375 7.375 14.695312 7.574219 14.695312 L 10.34375 14.695312 C 10.554688 14.105469 11.160156 13.679688 11.8125 13.679688 L 11.863281 13.679688 C 11.945312 13.683594 12.039062 13.683594 12.140625 13.683594 C 12.433594 13.683594 12.820312 13.667969 13.238281 13.609375 L 7.574219 13.609375 C 7.375 13.609375 7.210938 13.449219 7.210938 13.25 C 7.210938 13.046875 7.375 12.886719 7.574219 12.886719 L 15.1875 12.886719 C 15.140625 12.585938 15.214844 12.265625 15.421875 12.015625 L 15.605469 11.800781 L 7.574219 11.800781 C 7.375 11.800781 7.210938 11.636719 7.210938 11.4375 C 7.210938 11.238281 7.375 11.074219 7.574219 11.074219 L 16.207031 11.074219 L 17.117188 9.984375 C 17.101562 9.984375 17.089844 9.988281 17.074219 9.988281 L 7.574219 9.988281 C 7.375 9.988281 7.210938 9.828125 7.210938 9.625 C 7.210938 9.425781 7.375 9.265625 7.574219 9.265625 L 17.074219 9.265625 C 17.265625 9.265625 17.421875 9.414062 17.433594 9.605469 L 18.597656 8.207031 C 18.984375 7.746094 19.667969 7.683594 20.128906 8.066406 C 20.222656 8.148438 20.300781 8.238281 20.363281 8.339844 L 20.363281 7.6875 L 14.425781 2.925781 L 5.75 2.925781 C 4.941406 2.925781 4.285156 3.574219 4.285156 4.375 L 4.285156 24.65625 C 4.285156 25.457031 4.941406 26.105469 5.75 26.105469 L 18.898438 26.105469 C 19.707031 26.105469 20.363281 25.457031 20.363281 24.65625 Z M 14.875 4.296875 L 18.765625 7.453125 L 15.609375 7.453125 C 15.203125 7.453125 14.875 7.144531 14.875 6.765625 Z M 14.875 4.296875 " fill-opacity="1" fill-rule="nonzero"/></g><path fill="#935f3d" d="M 20.269531 9.597656 L 20.363281 9.625 L 20.363281 9.464844 C 20.332031 9.511719 20.304688 9.554688 20.269531 9.597656 Z M 20.269531 9.597656 " fill-opacity="1" fill-rule="nonzero"/><path fill="#935f3d" d="M 19.726562 15.582031 L 16.75 12.6875 L 19.710938 9.132812 C 19.839844 8.980469 19.820312 8.753906 19.664062 8.625 C 19.511719 8.496094 19.285156 8.515625 19.15625 8.671875 L 15.980469 12.480469 C 15.859375 12.625 15.871094 12.839844 16.007812 12.972656 L 16.210938 13.171875 C 16.199219 13.179688 16.1875 13.1875 16.179688 13.195312 C 14.941406 14.230469 13.199219 14.410156 12.140625 14.410156 C 12.03125 14.410156 11.929688 14.40625 11.839844 14.402344 C 11.832031 14.402344 11.824219 14.402344 11.8125 14.402344 C 11.46875 14.402344 11.113281 14.640625 11.015625 14.96875 L 8.515625 23.300781 C 8.433594 23.574219 8.546875 23.75 8.773438 23.75 C 8.824219 23.75 8.882812 23.742188 8.945312 23.722656 L 17.242188 21.175781 C 17.582031 21.070312 17.832031 20.703125 17.824219 20.347656 C 17.769531 17.882812 18.566406 16.65625 19.117188 16.101562 C 19.132812 16.082031 19.148438 16.0625 19.164062 16.046875 L 19.445312 16.316406 C 19.515625 16.386719 19.605469 16.421875 19.699219 16.421875 C 19.777344 16.421875 19.855469 16.394531 19.917969 16.347656 L 25.515625 12.050781 C 25.671875 11.929688 25.703125 11.703125 25.582031 11.542969 C 25.457031 11.386719 25.230469 11.355469 25.074219 11.476562 Z M 17.101562 20.367188 C 17.101562 20.398438 17.058594 20.46875 17.03125 20.480469 L 10.21875 22.574219 L 14.441406 18.542969 C 14.503906 18.554688 14.566406 18.5625 14.632812 18.5625 C 15.128906 18.5625 15.535156 18.164062 15.535156 17.667969 C 15.535156 17.175781 15.128906 16.773438 14.632812 16.773438 C 14.132812 16.773438 13.730469 17.175781 13.730469 17.667969 C 13.730469 17.828125 13.773438 17.976562 13.847656 18.105469 L 9.617188 22.148438 L 11.707031 15.183594 C 11.71875 15.164062 11.773438 15.128906 11.816406 15.128906 C 11.914062 15.132812 12.023438 15.132812 12.140625 15.132812 C 13.433594 15.132812 15.261719 14.894531 16.628906 13.761719 L 18.539062 15.65625 C 17.835938 16.398438 17.042969 17.804688 17.101562 20.367188 Z M 17.101562 20.367188 " fill-opacity="1" fill-rule="nonzero"/><path fill="#935f3d" d="M 18.714844 12.042969 C 18.570312 12.183594 18.570312 12.414062 18.710938 12.554688 C 18.78125 12.628906 18.875 12.664062 18.96875 12.664062 C 19.0625 12.664062 19.152344 12.628906 19.222656 12.558594 L 20.667969 11.128906 C 20.8125 10.988281 20.8125 10.757812 20.671875 10.617188 C 20.53125 10.472656 20.300781 10.472656 20.160156 10.613281 Z M 18.714844 12.042969 " fill-opacity="1" fill-rule="nonzero"/><path fill="#935f3d" d="M 19.871094 13.738281 C 19.964844 13.738281 20.054688 13.703125 20.128906 13.632812 L 21.574219 12.199219 C 21.714844 12.058594 21.714844 11.832031 21.574219 11.6875 C 21.433594 11.546875 21.207031 11.546875 21.0625 11.6875 L 19.617188 13.117188 C 19.476562 13.257812 19.472656 13.488281 19.613281 13.628906 C 19.6875 13.703125 19.777344 13.738281 19.871094 13.738281 Z M 19.871094 13.738281 " fill-opacity="1" fill-rule="nonzero"/></svg>