<svg xmlns="http://www.w3.org/2000/svg" xmlns:xlink="http://www.w3.org/1999/xlink" width="40" zoomAndPan="magnify" viewBox="0 0 30 30.000001" height="40" preserveAspectRatio="xMidYMid meet" version="1.0"><defs><clipPath id="207eb936f4"><path d="M 0.484375 0 L 29.515625 0 L 29.515625 29.03125 L 0.484375 29.03125 Z M 0.484375 0 " clip-rule="nonzero"/></clipPath><clipPath id="865e123b07"><path d="M 8 7 L 26.613281 7 L 26.613281 25.738281 L 8 25.738281 Z M 8 7 " clip-rule="nonzero"/></clipPath><clipPath id="008c5af268"><path d="M 11 3.238281 L 19 3.238281 L 19 5 L 11 5 Z M 11 3.238281 " clip-rule="nonzero"/></clipPath><clipPath id="d5c059c343"><path d="M 18 3.238281 L 21 3.238281 L 21 7 L 18 7 Z M 18 3.238281 " clip-rule="nonzero"/></clipPath><clipPath id="e6acab0324"><path d="M 4 3.238281 L 12 3.238281 L 12 9 L 4 9 Z M 4 3.238281 " clip-rule="nonzero"/></clipPath><clipPath id="ead7827885"><path d="M 4 3.238281 L 12 3.238281 L 12 7 L 4 7 Z M 4 3.238281 " clip-rule="nonzero"/></clipPath></defs><g clip-path="url(#207eb936f4)"><path fill="#ffffff" d="M 0.484375 0 L 29.515625 0 L 29.515625 29.03125 L 0.484375 29.03125 Z M 0.484375 0 " fill-opacity="1" fill-rule="nonzero"/><path fill="#ffffff" d="M 0.484375 0 L 29.515625 0 L 29.515625 29.03125 L 0.484375 29.03125 Z M 0.484375 0 " fill-opacity="1" fill-rule="nonzero"/></g><g clip-path="url(#865e123b07)"><path fill="#935f3d" d="M 25.203125 15.09375 C 25.144531 15.074219 25.109375 15.035156 25.09375 14.972656 C 24.902344 14.1875 24.59375 13.449219 24.171875 12.757812 C 24.136719 12.703125 24.136719 12.648438 24.164062 12.59375 L 24.792969 11.308594 L 23.011719 9.574219 L 21.746094 10.191406 C 21.6875 10.21875 21.632812 10.21875 21.582031 10.183594 C 20.914062 9.78125 20.203125 9.484375 19.445312 9.300781 C 19.386719 9.285156 19.34375 9.246094 19.324219 9.1875 L 18.914062 7.914062 L 16.425781 7.914062 L 15.976562 9.160156 C 15.957031 9.214844 15.917969 9.253906 15.855469 9.265625 C 15.039062 9.453125 14.273438 9.761719 13.558594 10.199219 C 13.503906 10.230469 13.449219 10.234375 13.390625 10.203125 L 12.273438 9.625 L 10.503906 11.375 L 11.042969 12.53125 C 11.066406 12.589844 11.0625 12.644531 11.03125 12.695312 C 10.5625 13.441406 10.230469 14.246094 10.035156 15.105469 C 10.023438 15.167969 9.984375 15.210938 9.921875 15.230469 L 8.738281 15.617188 L 8.738281 18.101562 L 9.96875 18.542969 C 10.023438 18.566406 10.058594 18.605469 10.074219 18.664062 C 10.285156 19.523438 10.636719 20.320312 11.121094 21.054688 C 11.160156 21.109375 11.160156 21.167969 11.132812 21.222656 L 10.558594 22.394531 L 12.339844 24.128906 L 13.59375 23.515625 C 13.648438 23.492188 13.703125 23.492188 13.753906 23.523438 C 14.421875 23.902344 15.132812 24.179688 15.882812 24.347656 C 15.945312 24.363281 15.988281 24.398438 16.007812 24.460938 L 16.4375 25.789062 L 18.925781 25.789062 L 19.429688 24.390625 C 19.449219 24.335938 19.488281 24.300781 19.546875 24.285156 C 20.273438 24.09375 20.960938 23.800781 21.605469 23.410156 C 21.65625 23.375 21.714844 23.375 21.769531 23.402344 L 23.078125 24.078125 L 24.847656 22.332031 L 24.203125 20.941406 C 24.179688 20.886719 24.179688 20.835938 24.210938 20.78125 C 24.609375 20.121094 24.898438 19.417969 25.085938 18.667969 C 25.101562 18.609375 25.136719 18.566406 25.199219 18.546875 L 26.613281 18.089844 L 26.613281 15.601562 Z M 22.1875 21.367188 C 21.84375 21.710938 21.460938 22.015625 21.046875 22.273438 C 20.628906 22.535156 20.1875 22.742188 19.722656 22.902344 C 19.261719 23.058594 18.785156 23.160156 18.296875 23.210938 C 17.808594 23.257812 17.320312 23.25 16.835938 23.1875 C 16.347656 23.121094 15.875 23.003906 15.417969 22.832031 C 14.957031 22.660156 14.523438 22.4375 14.117188 22.164062 C 13.710938 21.890625 13.335938 21.578125 13.003906 21.21875 C 12.667969 20.863281 12.375 20.46875 12.132812 20.046875 C 11.886719 19.621094 11.691406 19.175781 11.550781 18.707031 C 11.40625 18.234375 11.320312 17.757812 11.289062 17.265625 C 11.257812 16.777344 11.28125 16.292969 11.359375 15.808594 C 11.441406 15.324219 11.574219 14.855469 11.761719 14.402344 C 11.949219 13.949219 12.183594 13.523438 12.472656 13.125 C 12.757812 12.726562 13.082031 12.367188 13.453125 12.042969 C 13.820312 11.71875 14.222656 11.441406 14.652344 11.210938 C 15.085938 10.980469 15.539062 10.800781 16.011719 10.675781 C 16.488281 10.546875 16.96875 10.476562 17.460938 10.460938 C 17.949219 10.445312 18.433594 10.484375 18.914062 10.578125 C 19.394531 10.675781 19.859375 10.824219 20.308594 11.027344 C 20.753906 11.230469 21.171875 11.480469 21.558594 11.777344 C 21.949219 12.078125 22.296875 12.417969 22.609375 12.796875 C 22.921875 13.175781 23.183594 13.585938 23.402344 14.023438 C 23.617188 14.464844 23.78125 14.921875 23.890625 15.402344 C 24.003906 15.878906 24.058594 16.363281 24.058594 16.851562 C 24.0625 17.699219 23.898438 18.515625 23.574219 19.296875 C 23.25 20.078125 22.789062 20.769531 22.1875 21.367188 Z M 22.1875 21.367188 " fill-opacity="1" fill-rule="nonzero"/></g><path fill="#935f3d" d="M 18.183594 20.484375 L 17.285156 20.847656 L 16.21875 18.097656 C 16.484375 18.035156 16.746094 17.976562 17.011719 17.921875 C 17.070312 17.910156 17.132812 17.894531 17.191406 17.882812 C 17.222656 17.878906 17.253906 17.871094 17.28125 17.867188 C 17.339844 17.855469 17.394531 17.84375 17.449219 17.832031 C 17.464844 17.828125 17.476562 17.828125 17.492188 17.824219 Z M 18.183594 20.484375 " fill-opacity="1" fill-rule="nonzero"/><path fill="#935f3d" d="M 19.878906 17.125 C 19.179688 17.191406 18.414062 17.304688 17.589844 17.460938 C 17.589844 17.460938 17.585938 17.460938 17.585938 17.460938 C 17.519531 17.472656 17.453125 17.484375 17.386719 17.5 C 17.183594 17.539062 16.976562 17.582031 16.769531 17.625 C 16.703125 17.640625 16.632812 17.65625 16.566406 17.667969 C 16.484375 17.6875 16.40625 17.703125 16.324219 17.722656 C 16.210938 17.75 16.09375 17.777344 15.972656 17.804688 C 15.972656 17.804688 15.96875 17.804688 15.96875 17.804688 C 15.96875 17.808594 15.964844 17.808594 15.964844 17.808594 C 15.957031 17.808594 15.953125 17.808594 15.945312 17.8125 C 15.691406 17.875 15.453125 17.933594 15.246094 17.988281 C 15.171875 18.007812 15.097656 18.015625 15.023438 18.011719 C 14.671875 18.007812 14.429688 17.839844 14.289062 17.519531 C 14.289062 17.515625 14.289062 17.511719 14.285156 17.511719 C 14.285156 17.507812 14.28125 17.5 14.28125 17.496094 C 14.195312 17.304688 14.1875 17.109375 14.257812 16.910156 C 14.324219 16.710938 14.449219 16.5625 14.636719 16.460938 C 14.789062 16.378906 14.945312 16.289062 15.109375 16.191406 C 15.429688 15.992188 15.769531 15.765625 16.113281 15.511719 C 17 14.859375 17.777344 14.160156 18.316406 13.636719 Z M 19.878906 17.125 " fill-opacity="1" fill-rule="nonzero"/><path fill="#935f3d" d="M 21.066406 16.929688 L 20.550781 17.191406 L 20.425781 17.25 C 20.398438 17.265625 20.371094 17.265625 20.34375 17.257812 C 20.316406 17.246094 20.296875 17.230469 20.285156 17.203125 L 18.535156 13.296875 C 18.535156 13.292969 18.53125 13.289062 18.53125 13.285156 C 18.503906 13.210938 18.527344 13.15625 18.597656 13.125 L 19.296875 12.8125 C 19.332031 12.800781 19.363281 12.796875 19.398438 12.8125 C 19.429688 12.824219 19.453125 12.847656 19.46875 12.878906 L 21.125 16.765625 C 21.15625 16.839844 21.136719 16.894531 21.066406 16.929688 Z M 21.066406 16.929688 " fill-opacity="1" fill-rule="nonzero"/><path fill="#935f3d" d="M 9.867188 22.554688 C 9.824219 22.632812 9.761719 22.683594 9.675781 22.707031 C 9.589844 22.734375 9.507812 22.726562 9.429688 22.683594 C 8.902344 22.394531 8.402344 22.066406 7.933594 21.691406 C 8.121094 21.566406 8.261719 21.40625 8.359375 21.207031 C 8.792969 21.546875 9.253906 21.851562 9.738281 22.117188 C 9.816406 22.160156 9.867188 22.222656 9.894531 22.308594 C 9.917969 22.394531 9.910156 22.476562 9.867188 22.554688 Z M 9.867188 22.554688 " fill-opacity="1" fill-rule="nonzero"/><path fill="#935f3d" d="M 4.730469 13.699219 C 4.730469 14.765625 4.902344 15.800781 5.25 16.808594 C 5.59375 17.816406 6.09375 18.738281 6.75 19.578125 C 6.546875 19.675781 6.382812 19.816406 6.257812 20 C 5.652344 19.226562 5.164062 18.378906 4.800781 17.460938 C 4.441406 16.546875 4.214844 15.597656 4.125 14.613281 C 4.039062 13.632812 4.089844 12.660156 4.285156 11.691406 C 4.480469 10.726562 4.808594 9.808594 5.269531 8.933594 L 6.003906 8.933594 C 5.152344 10.410156 4.730469 12 4.730469 13.699219 Z M 4.730469 13.699219 " fill-opacity="1" fill-rule="nonzero"/><g clip-path="url(#008c5af268)"><path fill="#935f3d" d="M 18.179688 4.25 C 18.035156 4.425781 17.945312 4.625 17.910156 4.847656 C 16.859375 4.414062 15.761719 4.175781 14.621094 4.136719 C 13.484375 4.097656 12.375 4.257812 11.292969 4.617188 L 11.292969 3.9375 C 12.425781 3.589844 13.582031 3.441406 14.761719 3.496094 C 15.945312 3.550781 17.085938 3.800781 18.179688 4.25 Z M 18.179688 4.25 " fill-opacity="1" fill-rule="nonzero"/></g><path fill="#935f3d" d="M 22.960938 8.90625 C 22.882812 8.949219 22.800781 8.960938 22.714844 8.941406 C 22.628906 8.917969 22.5625 8.871094 22.515625 8.792969 C 21.839844 7.664062 20.96875 6.71875 19.902344 5.949219 C 20.074219 5.804688 20.195312 5.621094 20.265625 5.40625 C 21.410156 6.234375 22.34375 7.25 23.070312 8.460938 C 23.117188 8.539062 23.128906 8.621094 23.105469 8.707031 C 23.085938 8.792969 23.035156 8.859375 22.960938 8.90625 Z M 22.960938 8.90625 " fill-opacity="1" fill-rule="nonzero"/><path fill="#935f3d" d="M 8.3125 20.675781 C 8.3125 20.835938 8.277344 20.988281 8.207031 21.132812 C 8.125 21.304688 8 21.441406 7.839844 21.546875 C 7.632812 21.683594 7.40625 21.738281 7.160156 21.714844 C 6.914062 21.6875 6.703125 21.585938 6.527344 21.410156 C 6.355469 21.234375 6.253906 21.023438 6.230469 20.777344 C 6.207031 20.53125 6.261719 20.304688 6.398438 20.097656 C 6.507812 19.9375 6.648438 19.816406 6.824219 19.734375 C 6.964844 19.664062 7.113281 19.632812 7.269531 19.632812 C 7.40625 19.632812 7.539062 19.660156 7.667969 19.710938 C 7.796875 19.765625 7.90625 19.839844 8.003906 19.9375 C 8.105469 20.035156 8.179688 20.148438 8.230469 20.277344 C 8.285156 20.40625 8.3125 20.539062 8.3125 20.675781 Z M 8.3125 20.675781 " fill-opacity="1" fill-rule="nonzero"/><g clip-path="url(#d5c059c343)"><path fill="#935f3d" d="M 20.15625 5.03125 C 20.15625 5.167969 20.128906 5.300781 20.074219 5.429688 C 20.023438 5.558594 19.945312 5.671875 19.847656 5.769531 C 19.75 5.867188 19.636719 5.941406 19.511719 5.992188 C 19.382812 6.046875 19.25 6.074219 19.109375 6.074219 C 18.972656 6.074219 18.839844 6.046875 18.710938 5.992188 C 18.585938 5.941406 18.472656 5.867188 18.375 5.769531 C 18.277344 5.671875 18.199219 5.558594 18.148438 5.429688 C 18.09375 5.300781 18.066406 5.167969 18.066406 5.03125 C 18.066406 4.976562 18.070312 4.925781 18.078125 4.871094 C 18.121094 4.601562 18.25 4.382812 18.460938 4.214844 C 18.675781 4.042969 18.917969 3.96875 19.191406 3.988281 C 19.460938 4.011719 19.691406 4.121094 19.875 4.320312 C 20.0625 4.519531 20.15625 4.757812 20.15625 5.03125 Z M 20.15625 5.03125 " fill-opacity="1" fill-rule="nonzero"/></g><g clip-path="url(#e6acab0324)"><path fill="#935f3d" d="M 11.121094 3.878906 L 11.121094 8.484375 C 11.121094 8.5625 11.09375 8.628906 11.039062 8.683594 C 10.984375 8.738281 10.921875 8.765625 10.84375 8.765625 L 4.554688 8.765625 C 4.476562 8.765625 4.410156 8.738281 4.355469 8.683594 C 4.300781 8.628906 4.273438 8.5625 4.273438 8.484375 L 4.273438 3.753906 L 4.585938 4.144531 L 6.550781 6.613281 C 6.757812 6.878906 7.03125 7.007812 7.367188 7.007812 L 7.957031 7.007812 C 8.277344 7.007812 8.542969 6.886719 8.75 6.644531 Z M 11.121094 3.878906 " fill-opacity="1" fill-rule="nonzero"/></g><g clip-path="url(#ead7827885)"><path fill="#935f3d" d="M 11.03125 3.464844 L 8.492188 6.421875 C 8.351562 6.585938 8.171875 6.667969 7.957031 6.667969 L 7.367188 6.667969 C 7.140625 6.667969 6.957031 6.582031 6.816406 6.402344 L 4.441406 3.414062 C 4.457031 3.40625 4.476562 3.402344 4.496094 3.398438 C 4.5 3.394531 4.503906 3.394531 4.507812 3.394531 C 4.523438 3.390625 4.539062 3.390625 4.554688 3.390625 L 10.84375 3.390625 C 10.851562 3.390625 10.855469 3.390625 10.863281 3.390625 C 10.871094 3.390625 10.875 3.394531 10.882812 3.394531 C 10.890625 3.394531 10.894531 3.394531 10.902344 3.398438 C 10.914062 3.398438 10.925781 3.402344 10.9375 3.40625 C 10.9375 3.40625 10.941406 3.40625 10.941406 3.410156 C 10.945312 3.410156 10.953125 3.414062 10.957031 3.414062 C 10.964844 3.417969 10.96875 3.421875 10.976562 3.421875 C 10.980469 3.425781 10.984375 3.429688 10.992188 3.433594 C 10.996094 3.4375 11.003906 3.441406 11.007812 3.445312 C 11.011719 3.445312 11.015625 3.449219 11.023438 3.453125 L 11.023438 3.457031 C 11.023438 3.457031 11.027344 3.457031 11.027344 3.460938 C 11.027344 3.460938 11.03125 3.460938 11.03125 3.464844 Z M 11.03125 3.464844 " fill-opacity="1" fill-rule="nonzero"/></g></svg>