<svg xmlns="http://www.w3.org/2000/svg" xmlns:xlink="http://www.w3.org/1999/xlink" width="40" zoomAndPan="magnify" viewBox="0 0 30 30.000001" height="40" preserveAspectRatio="xMidYMid meet" version="1.0"><defs><clipPath id="ad0ce2e4aa"><path d="M 0.484375 0 L 29.515625 0 L 29.515625 29.03125 L 0.484375 29.03125 Z M 0.484375 0 " clip-rule="nonzero"/></clipPath><clipPath id="6498654c6a"><path d="M 3.675781 2.902344 L 26.175781 2.902344 L 26.175781 26.128906 L 3.675781 26.128906 Z M 3.675781 2.902344 " clip-rule="nonzero"/></clipPath></defs><g clip-path="url(#ad0ce2e4aa)"><path fill="#ffffff" d="M 0.484375 0 L 29.515625 0 L 29.515625 29.03125 L 0.484375 29.03125 Z M 0.484375 0 " fill-opacity="1" fill-rule="nonzero"/><path fill="#ffffff" d="M 0.484375 0 L 29.515625 0 L 29.515625 29.03125 L 0.484375 29.03125 Z M 0.484375 0 " fill-opacity="1" fill-rule="nonzero"/></g><g clip-path="url(#6498654c6a)"><path fill="#935f3d" d="M 24.488281 10.007812 C 24.433594 10.210938 24.25 10.34375 24.050781 10.34375 C 24.011719 10.34375 23.972656 10.335938 23.933594 10.328125 L 22.511719 9.945312 C 22.269531 9.882812 22.125 9.632812 22.191406 9.390625 C 22.253906 9.148438 22.503906 9.007812 22.742188 9.070312 L 24.167969 9.453125 C 24.410156 9.515625 24.550781 9.765625 24.488281 10.007812 Z M 21.210938 5.742188 C 21.035156 5.5625 21.035156 5.277344 21.210938 5.101562 L 22.253906 4.058594 C 22.429688 3.882812 22.714844 3.882812 22.894531 4.058594 C 23.070312 4.234375 23.070312 4.523438 22.894531 4.699219 L 21.851562 5.742188 C 21.761719 5.828125 21.648438 5.875 21.53125 5.875 C 21.414062 5.875 21.300781 5.828125 21.210938 5.742188 Z M 22.855469 6.789062 L 24.203125 6.425781 C 24.445312 6.363281 24.691406 6.503906 24.757812 6.746094 C 24.824219 6.988281 24.679688 7.238281 24.4375 7.300781 L 23.089844 7.664062 C 23.050781 7.671875 23.011719 7.679688 22.972656 7.679688 C 22.773438 7.679688 22.589844 7.542969 22.535156 7.34375 C 22.46875 7.101562 22.613281 6.851562 22.855469 6.789062 Z M 5.488281 25.222656 L 12.371094 19.183594 L 14.722656 21.238281 C 14.808594 21.3125 14.914062 21.347656 15.019531 21.347656 C 15.125 21.347656 15.230469 21.3125 15.316406 21.238281 L 17.707031 19.179688 L 24.664062 25.207031 C 24.609375 25.21875 24.554688 25.222656 24.5 25.222656 Z M 4.683594 24.726562 L 11.679688 18.582031 L 4.679688 12.472656 C 4.621094 12.59375 4.585938 12.730469 4.585938 12.875 L 4.585938 24.320312 C 4.585938 24.464844 4.621094 24.601562 4.683594 24.726562 Z M 8.617188 11.972656 L 5.488281 11.972656 C 5.488281 11.972656 5.488281 11.972656 5.484375 11.972656 L 15.023438 20.296875 L 24.664062 11.988281 C 24.613281 11.976562 24.558594 11.972656 24.5 11.972656 L 21.648438 11.972656 C 21.710938 12.648438 21.277344 13.292969 20.597656 13.472656 C 20.476562 13.507812 20.351562 13.523438 20.230469 13.523438 C 19.707031 13.523438 19.226562 13.234375 18.976562 12.777344 C 17.566406 12.183594 15.648438 11.984375 13.628906 12.21875 L 14.617188 14.628906 C 14.789062 15.050781 14.613281 15.523438 14.210938 15.730469 L 13.613281 16.035156 C 13.492188 16.101562 13.355469 16.132812 13.21875 16.132812 C 13.121094 16.132812 13.019531 16.117188 12.921875 16.078125 C 12.691406 15.996094 12.511719 15.824219 12.417969 15.597656 L 11.335938 12.972656 C 11.125 13.027344 10.914062 13.054688 10.699219 13.054688 C 10.261719 13.054688 9.824219 12.941406 9.429688 12.710938 C 9.105469 12.523438 8.828125 12.269531 8.617188 11.972656 Z M 10.277344 8.933594 L 11.667969 8.5625 L 12.515625 11.722656 L 11.125 12.09375 C 10.253906 12.328125 9.355469 11.808594 9.121094 10.9375 C 8.886719 10.066406 9.40625 9.167969 10.277344 8.933594 Z M 12.800781 12.582031 L 13.765625 14.941406 L 13.238281 15.210938 L 12.21875 12.738281 Z M 16.992188 5.523438 L 18.644531 11.691406 C 17.140625 11.214844 15.300781 11.089844 13.347656 11.339844 L 12.582031 8.472656 C 14.398438 7.714844 15.925781 6.6875 16.992188 5.523438 Z M 17.710938 4.121094 C 17.78125 4 17.894531 3.910156 18.027344 3.875 C 18.070312 3.863281 18.113281 3.859375 18.160156 3.859375 C 18.25 3.859375 18.339844 3.882812 18.421875 3.929688 C 18.542969 4 18.628906 4.109375 18.664062 4.246094 L 20.730469 11.960938 C 20.808594 12.238281 20.640625 12.523438 20.363281 12.597656 C 20.085938 12.671875 19.800781 12.507812 19.726562 12.230469 L 17.65625 4.515625 C 17.621094 4.378906 17.640625 4.242188 17.710938 4.121094 Z M 20.710938 7.335938 C 20.617188 7.28125 20.511719 7.253906 20.40625 7.246094 L 20.738281 8.488281 C 20.828125 8.433594 20.902344 8.355469 20.957031 8.257812 C 21.046875 8.105469 21.070312 7.921875 21.023438 7.746094 C 20.976562 7.574219 20.867188 7.425781 20.710938 7.335938 Z M 25.40625 12.875 C 25.40625 12.773438 25.390625 12.675781 25.359375 12.585938 L 18.398438 18.582031 L 25.355469 24.613281 C 25.386719 24.519531 25.40625 24.421875 25.40625 24.320312 Z M 24.5 11.066406 L 21.429688 11.066406 L 20.976562 9.382812 C 21.296875 9.25 21.566406 9.015625 21.742188 8.710938 C 21.953125 8.347656 22.007812 7.921875 21.898438 7.511719 C 21.691406 6.738281 20.941406 6.253906 20.167969 6.355469 L 19.539062 4.011719 C 19.441406 3.644531 19.203125 3.335938 18.875 3.144531 C 18.542969 2.953125 18.160156 2.902344 17.792969 3 C 17.425781 3.101562 17.117188 3.335938 16.925781 3.667969 C 16.792969 3.898438 16.726562 4.15625 16.734375 4.417969 C 15.789062 5.667969 14.167969 6.824219 12.242188 7.632812 C 12.136719 7.5625 12.003906 7.535156 11.871094 7.570312 L 10.042969 8.058594 C 8.726562 8.410156 7.925781 9.746094 8.21875 11.066406 L 5.488281 11.066406 C 4.492188 11.066406 3.679688 11.878906 3.679688 12.875 L 3.679688 24.320312 C 3.679688 25.316406 4.492188 26.128906 5.488281 26.128906 L 24.5 26.128906 C 25.5 26.128906 26.3125 25.316406 26.3125 24.320312 L 26.3125 12.875 C 26.3125 11.878906 25.5 11.066406 24.5 11.066406 Z M 24.5 11.066406 " fill-opacity="1" fill-rule="evenodd"/></g></svg>