<svg xmlns="http://www.w3.org/2000/svg" xmlns:xlink="http://www.w3.org/1999/xlink" width="40" zoomAndPan="magnify" viewBox="0 0 30 30.000001" height="40" preserveAspectRatio="xMidYMid meet" version="1.0"><defs><clipPath id="a44008d27d"><path d="M 0.484375 0 L 29.515625 0 L 29.515625 29.03125 L 0.484375 29.03125 Z M 0.484375 0 " clip-rule="nonzero"/></clipPath><clipPath id="783c46ec6b"><path d="M 20 12 L 26.460938 12 L 26.460938 25 L 20 25 Z M 20 12 " clip-rule="nonzero"/></clipPath><clipPath id="5441f5cfed"><path d="M 4 19 L 26.460938 19 L 26.460938 25.402344 L 4 25.402344 Z M 4 19 " clip-rule="nonzero"/></clipPath><clipPath id="1a5c38c847"><path d="M 4 2.902344 L 26 2.902344 L 26 23 L 4 23 Z M 4 2.902344 " clip-rule="nonzero"/></clipPath><clipPath id="04cf5f92b2"><path d="M 3.960938 12 L 11 12 L 11 25 L 3.960938 25 Z M 3.960938 12 " clip-rule="nonzero"/></clipPath></defs><g clip-path="url(#a44008d27d)"><path fill="#ffffff" d="M 0.484375 0 L 29.515625 0 L 29.515625 29.03125 L 0.484375 29.03125 Z M 0.484375 0 " fill-opacity="1" fill-rule="nonzero"/><path fill="#ffffff" d="M 0.484375 0 L 29.515625 0 L 29.515625 29.03125 L 0.484375 29.03125 Z M 0.484375 0 " fill-opacity="1" fill-rule="nonzero"/></g><g clip-path="url(#783c46ec6b)"><path fill="#935f3d" d="M 25.300781 23.582031 L 25.660156 23.945312 C 25.730469 24.050781 25.804688 24.160156 25.875 24.265625 C 25.875 24.230469 25.875 24.195312 25.875 24.160156 L 26.308594 24.589844 C 26.378906 24.410156 26.414062 24.195312 26.414062 24.015625 L 26.414062 13.542969 C 26.414062 13.21875 26.308594 12.859375 26.164062 12.574219 L 26.019531 12.714844 C 25.984375 12.789062 25.910156 12.824219 25.875 12.894531 L 25.765625 13.003906 L 20.152344 18.652344 Z M 25.300781 23.582031 " fill-opacity="1" fill-rule="nonzero"/></g><g clip-path="url(#5441f5cfed)"><path fill="#935f3d" d="M 26.019531 25.132812 C 26.019531 25.132812 26.019531 25.09375 26.054688 25.09375 L 25.226562 24.265625 C 25.226562 24.230469 25.191406 24.230469 25.15625 24.195312 L 25.011719 24.050781 L 24.9375 23.980469 L 19.757812 19.050781 L 16.519531 22.289062 C 16.339844 22.46875 16.121094 22.613281 15.90625 22.71875 C 15.691406 22.828125 15.4375 22.863281 15.1875 22.863281 C 14.933594 22.863281 14.683594 22.828125 14.46875 22.71875 C 14.394531 22.683594 14.359375 22.683594 14.289062 22.648438 C 14.179688 22.578125 14.070312 22.539062 13.964844 22.433594 C 13.929688 22.394531 13.855469 22.359375 13.820312 22.289062 L 10.582031 19.050781 L 5.183594 24.195312 L 4.320312 25.058594 C 4.320312 25.058594 4.320312 25.09375 4.355469 25.09375 C 4.679688 25.453125 5.113281 25.636719 5.578125 25.636719 L 24.757812 25.636719 C 25.261719 25.671875 25.695312 25.453125 26.019531 25.132812 Z M 26.019531 25.132812 " fill-opacity="1" fill-rule="nonzero"/></g><g clip-path="url(#1a5c38c847)"><path fill="#935f3d" d="M 25.480469 12.535156 C 25.515625 12.5 25.550781 12.429688 25.585938 12.390625 C 25.585938 12.390625 25.621094 12.355469 25.621094 12.355469 L 25.804688 12.175781 L 16.519531 3.539062 C 16.160156 3.179688 15.691406 2.964844 15.1875 2.964844 C 14.683594 2.964844 14.214844 3.179688 13.855469 3.503906 L 4.535156 12.175781 L 4.714844 12.355469 C 4.714844 12.355469 4.75 12.390625 4.75 12.390625 C 4.789062 12.429688 4.824219 12.464844 4.859375 12.535156 L 4.894531 12.574219 L 10.796875 18.472656 L 14.214844 21.929688 C 14.71875 22.433594 15.621094 22.433594 16.121094 21.929688 L 19.578125 18.472656 Z M 21.234375 14.082031 C 21.234375 14.226562 21.125 14.371094 20.945312 14.371094 L 19.648438 14.371094 C 19.578125 14.585938 19.46875 14.804688 19.363281 15.019531 L 20.296875 15.953125 C 20.40625 16.0625 20.40625 16.242188 20.296875 16.351562 L 18.605469 18.042969 C 18.570312 18.078125 18.496094 18.113281 18.425781 18.113281 C 18.355469 18.113281 18.28125 18.078125 18.246094 18.042969 L 17.238281 17.035156 C 17.058594 17.105469 16.878906 17.214844 16.664062 17.25 L 16.664062 18.691406 C 16.664062 18.832031 16.554688 18.976562 16.375 18.976562 L 13.964844 18.976562 C 13.820312 18.976562 13.675781 18.871094 13.675781 18.691406 L 13.675781 17.25 C 13.460938 17.179688 13.28125 17.105469 13.101562 17.035156 L 12.09375 18.042969 C 12.058594 18.078125 11.984375 18.113281 11.914062 18.113281 C 11.839844 18.113281 11.769531 18.078125 11.734375 18.042969 L 10.042969 16.351562 C 10.003906 16.316406 9.96875 16.242188 9.96875 16.171875 C 9.96875 16.097656 10.003906 16.027344 10.042969 15.992188 L 10.976562 15.054688 C 10.871094 14.839844 10.761719 14.625 10.6875 14.40625 L 9.394531 14.40625 C 9.25 14.40625 9.105469 14.300781 9.105469 14.121094 L 9.105469 11.707031 C 9.105469 11.566406 9.214844 11.421875 9.394531 11.421875 L 10.582031 11.421875 C 10.652344 11.167969 10.761719 10.917969 10.871094 10.664062 L 10.042969 9.835938 C 9.933594 9.730469 9.933594 9.550781 10.042969 9.441406 L 11.734375 7.75 C 11.769531 7.714844 11.875 7.679688 11.914062 7.679688 C 11.984375 7.679688 12.058594 7.714844 12.09375 7.75 L 12.847656 8.507812 C 13.101562 8.363281 13.386719 8.253906 13.675781 8.144531 L 13.675781 7.101562 C 13.675781 6.957031 13.785156 6.816406 13.964844 6.816406 L 16.375 6.816406 C 16.519531 6.816406 16.664062 6.921875 16.664062 7.101562 L 16.664062 8.144531 C 16.949219 8.253906 17.203125 8.363281 17.492188 8.507812 L 18.246094 7.75 C 18.28125 7.714844 18.355469 7.679688 18.425781 7.679688 C 18.496094 7.679688 18.570312 7.714844 18.605469 7.75 L 20.296875 9.441406 C 20.40625 9.550781 20.40625 9.730469 20.296875 9.835938 L 19.503906 10.664062 C 19.613281 10.917969 19.722656 11.167969 19.792969 11.421875 L 20.980469 11.421875 C 21.125 11.421875 21.269531 11.527344 21.269531 11.707031 L 21.269531 14.082031 Z M 21.234375 14.082031 " fill-opacity="1" fill-rule="nonzero"/></g><path fill="#935f3d" d="M 15.1875 9.695312 C 13.425781 9.695312 12.019531 11.132812 12.019531 12.859375 C 12.019531 14.625 13.460938 16.027344 15.1875 16.027344 C 16.949219 16.027344 18.355469 14.585938 18.355469 12.859375 C 18.355469 11.132812 16.949219 9.695312 15.1875 9.695312 Z M 15.1875 9.695312 " fill-opacity="1" fill-rule="nonzero"/><g clip-path="url(#04cf5f92b2)"><path fill="#935f3d" d="M 4.5 24.160156 C 4.5 24.195312 4.5 24.230469 4.535156 24.265625 C 4.609375 24.125 4.714844 23.980469 4.859375 23.835938 L 10.257812 18.691406 L 4.609375 13.003906 L 4.5 12.894531 C 4.464844 12.859375 4.464844 12.859375 4.429688 12.824219 C 4.429688 12.824219 4.429688 12.824219 4.390625 12.789062 C 4.355469 12.753906 4.355469 12.753906 4.320312 12.714844 L 4.175781 12.574219 C 4.03125 12.894531 3.960938 13.21875 3.960938 13.542969 L 3.960938 24.015625 C 3.960938 24.230469 3.996094 24.410156 4.066406 24.589844 Z M 4.5 24.160156 " fill-opacity="1" fill-rule="nonzero"/></g></svg>