<svg xmlns="http://www.w3.org/2000/svg" xmlns:xlink="http://www.w3.org/1999/xlink" width="40" zoomAndPan="magnify" viewBox="0 0 30 30.000001" height="40" preserveAspectRatio="xMidYMid meet" version="1.0"><defs><clipPath id="f0c2da7a58"><path d="M 0.484375 0 L 29.515625 0 L 29.515625 29.03125 L 0.484375 29.03125 Z M 0.484375 0 " clip-rule="nonzero"/></clipPath><clipPath id="6d5567a6d4"><path d="M 8 2.902344 L 20 2.902344 L 20 11 L 8 11 Z M 8 2.902344 " clip-rule="nonzero"/></clipPath><clipPath id="054b560828"><path d="M 16 7 L 26.613281 7 L 26.613281 19 L 16 19 Z M 16 7 " clip-rule="nonzero"/></clipPath><clipPath id="6c3c34a1cc"><path d="M 7 24 L 14 24 L 14 26.128906 L 7 26.128906 Z M 7 24 " clip-rule="nonzero"/></clipPath><clipPath id="0bd0ba603e"><path d="M 3.386719 16 L 5 16 L 5 22 L 3.386719 22 Z M 3.386719 16 " clip-rule="nonzero"/></clipPath><clipPath id="ec2c08ebbe"><path d="M 3.386719 11 L 9 11 L 9 16 L 3.386719 16 Z M 3.386719 11 " clip-rule="nonzero"/></clipPath></defs><g clip-path="url(#f0c2da7a58)"><path fill="#ffffff" d="M 0.484375 0 L 29.515625 0 L 29.515625 29.03125 L 0.484375 29.03125 Z M 0.484375 0 " fill-opacity="1" fill-rule="nonzero"/><path fill="#ffffff" d="M 0.484375 0 L 29.515625 0 L 29.515625 29.03125 L 0.484375 29.03125 Z M 0.484375 0 " fill-opacity="1" fill-rule="nonzero"/></g><g clip-path="url(#6d5567a6d4)"><path fill="#935f3d" d="M 8.90625 10.398438 C 8.792969 10.398438 8.695312 10.359375 8.613281 10.277344 C 8.535156 10.195312 8.492188 10.101562 8.492188 9.984375 L 8.492188 8.339844 C 8.492188 8.175781 8.523438 8.023438 8.585938 7.871094 C 8.644531 7.722656 8.734375 7.589844 8.847656 7.472656 C 8.960938 7.359375 9.089844 7.269531 9.238281 7.203125 C 9.386719 7.140625 9.542969 7.105469 9.703125 7.105469 C 9.589844 6.988281 9.503906 6.855469 9.441406 6.707031 C 9.382812 6.554688 9.351562 6.402344 9.351562 6.238281 C 9.351562 6.078125 9.382812 5.921875 9.441406 5.773438 C 9.503906 5.621094 9.589844 5.488281 9.703125 5.375 L 10.882812 4.222656 C 11.128906 3.984375 11.421875 3.863281 11.761719 3.863281 C 12.089844 3.859375 12.375 3.96875 12.613281 4.195312 C 12.613281 4.035156 12.648438 3.878906 12.710938 3.730469 C 12.777344 3.582031 12.867188 3.453125 12.980469 3.339844 C 13.097656 3.226562 13.230469 3.136719 13.378906 3.078125 C 13.53125 3.015625 13.683594 2.984375 13.847656 2.984375 L 15.496094 2.984375 C 15.65625 2.984375 15.8125 3.015625 15.960938 3.078125 C 16.109375 3.136719 16.242188 3.226562 16.359375 3.339844 C 16.476562 3.453125 16.5625 3.582031 16.628906 3.730469 C 16.691406 3.878906 16.726562 4.035156 16.730469 4.195312 C 16.96875 3.96875 17.25 3.855469 17.578125 3.855469 C 17.921875 3.855469 18.214844 3.976562 18.460938 4.222656 L 19.613281 5.375 C 19.730469 5.488281 19.816406 5.625 19.882812 5.773438 C 19.945312 5.925781 19.976562 6.085938 19.976562 6.25 C 19.976562 6.414062 19.945312 6.570312 19.882812 6.722656 C 19.816406 6.875 19.730469 7.007812 19.613281 7.125 L 18.9375 7.808594 C 18.746094 7.933594 18.570312 7.914062 18.414062 7.75 C 18.257812 7.582031 18.242188 7.410156 18.375 7.222656 L 19.054688 6.539062 C 19.136719 6.460938 19.175781 6.363281 19.175781 6.25 C 19.175781 6.136719 19.136719 6.039062 19.054688 5.957031 L 17.875 4.796875 C 17.792969 4.71875 17.695312 4.675781 17.582031 4.679688 C 17.46875 4.675781 17.375 4.714844 17.292969 4.792969 L 16.609375 5.476562 C 16.480469 5.605469 16.332031 5.632812 16.160156 5.5625 C 15.992188 5.492188 15.90625 5.367188 15.90625 5.183594 L 15.90625 4.222656 C 15.90625 4.105469 15.867188 4.011719 15.785156 3.929688 C 15.703125 3.847656 15.609375 3.808594 15.496094 3.808594 L 13.847656 3.808594 C 13.734375 3.808594 13.636719 3.847656 13.554688 3.929688 C 13.476562 4.011719 13.433594 4.105469 13.433594 4.222656 L 13.433594 5.183594 C 13.433594 5.367188 13.347656 5.492188 13.179688 5.5625 C 13.011719 5.632812 12.863281 5.605469 12.730469 5.476562 L 12.046875 4.796875 C 11.96875 4.71875 11.871094 4.679688 11.757812 4.679688 C 11.644531 4.675781 11.546875 4.71875 11.464844 4.796875 L 10.304688 5.957031 C 10.226562 6.039062 10.183594 6.136719 10.1875 6.25 C 10.183594 6.363281 10.222656 6.460938 10.300781 6.539062 L 10.984375 7.222656 C 11.113281 7.351562 11.140625 7.503906 11.070312 7.671875 C 11 7.839844 10.875 7.925781 10.691406 7.925781 L 9.730469 7.925781 C 9.613281 7.925781 9.519531 7.96875 9.4375 8.046875 C 9.355469 8.128906 9.316406 8.226562 9.316406 8.339844 L 9.316406 9.984375 C 9.316406 10.101562 9.277344 10.195312 9.195312 10.277344 C 9.117188 10.359375 9.019531 10.398438 8.90625 10.398438 Z M 8.90625 10.398438 " fill-opacity="1" fill-rule="nonzero"/></g><path fill="#935f3d" d="M 13.246094 10.398438 C 13.089844 10.398438 12.972656 10.332031 12.890625 10.195312 C 12.707031 9.878906 12.613281 9.535156 12.613281 9.167969 C 12.613281 8.796875 12.703125 8.453125 12.886719 8.136719 C 13.070312 7.816406 13.320312 7.566406 13.640625 7.378906 C 13.960938 7.195312 14.300781 7.105469 14.671875 7.105469 C 14.898438 7.105469 15.125 7.140625 15.339844 7.214844 C 15.558594 7.289062 15.753906 7.398438 15.9375 7.539062 C 16.117188 7.679688 16.269531 7.847656 16.394531 8.039062 C 16.519531 8.230469 16.613281 8.4375 16.667969 8.660156 C 16.695312 8.769531 16.679688 8.875 16.621094 8.972656 C 16.5625 9.070312 16.480469 9.132812 16.371094 9.160156 C 16.257812 9.1875 16.15625 9.171875 16.058594 9.113281 C 15.960938 9.054688 15.898438 8.972656 15.867188 8.863281 C 15.824219 8.6875 15.75 8.53125 15.636719 8.390625 C 15.523438 8.25 15.390625 8.140625 15.230469 8.058594 C 15.070312 7.976562 14.902344 7.933594 14.722656 7.925781 C 14.542969 7.917969 14.371094 7.949219 14.203125 8.015625 C 14.039062 8.082031 13.894531 8.183594 13.769531 8.3125 C 13.648438 8.445312 13.558594 8.59375 13.5 8.761719 C 13.441406 8.933594 13.421875 9.105469 13.441406 9.285156 C 13.460938 9.464844 13.511719 9.628906 13.605469 9.785156 C 13.660156 9.882812 13.675781 9.988281 13.648438 10.097656 C 13.617188 10.207031 13.554688 10.292969 13.457031 10.347656 C 13.390625 10.382812 13.320312 10.402344 13.246094 10.398438 Z M 13.246094 10.398438 " fill-opacity="1" fill-rule="nonzero"/><g clip-path="url(#054b560828)"><path fill="#935f3d" d="M 21.964844 18.632812 L 20.554688 18.632812 C 20.40625 18.632812 20.265625 18.605469 20.128906 18.550781 C 19.992188 18.492188 19.871094 18.414062 19.765625 18.308594 C 19.660156 18.203125 19.578125 18.082031 19.523438 17.945312 C 19.464844 17.808594 19.4375 17.667969 19.433594 17.519531 L 19.433594 16.695312 C 19.433594 16.582031 19.476562 16.484375 19.554688 16.402344 C 19.636719 16.324219 19.734375 16.28125 19.847656 16.28125 C 19.960938 16.28125 20.058594 16.324219 20.136719 16.402344 C 20.21875 16.484375 20.257812 16.582031 20.257812 16.695312 L 20.257812 17.519531 C 20.257812 17.601562 20.289062 17.667969 20.347656 17.726562 C 20.402344 17.785156 20.472656 17.8125 20.554688 17.8125 L 21.964844 17.8125 C 22.046875 17.8125 22.113281 17.785156 22.171875 17.726562 C 22.230469 17.667969 22.261719 17.601562 22.261719 17.519531 L 22.261719 16.695312 C 22.261719 16.511719 22.347656 16.386719 22.515625 16.316406 C 22.683594 16.246094 22.832031 16.273438 22.964844 16.402344 L 23.550781 16.988281 C 23.605469 17.042969 23.675781 17.070312 23.753906 17.070312 C 23.835938 17.070312 23.902344 17.042969 23.960938 16.988281 L 24.964844 15.980469 C 25.019531 15.925781 25.046875 15.855469 25.046875 15.777344 C 25.046875 15.695312 25.019531 15.628906 24.964844 15.570312 L 24.382812 14.988281 C 24.253906 14.859375 24.222656 14.710938 24.292969 14.539062 C 24.363281 14.371094 24.492188 14.285156 24.671875 14.285156 L 25.496094 14.285156 C 25.578125 14.285156 25.648438 14.257812 25.707031 14.199219 C 25.761719 14.140625 25.789062 14.070312 25.789062 13.988281 L 25.789062 12.578125 C 25.789062 12.496094 25.761719 12.425781 25.707031 12.367188 C 25.648438 12.308594 25.578125 12.28125 25.496094 12.28125 L 24.671875 12.28125 C 24.492188 12.277344 24.363281 12.195312 24.292969 12.023438 C 24.222656 11.855469 24.253906 11.707031 24.382812 11.574219 L 24.964844 10.992188 C 25.019531 10.933594 25.050781 10.863281 25.050781 10.785156 C 25.050781 10.707031 25.019531 10.636719 24.964844 10.578125 L 23.960938 9.574219 C 23.902344 9.519531 23.835938 9.492188 23.753906 9.492188 C 23.675781 9.492188 23.605469 9.519531 23.550781 9.574219 L 22.96875 10.160156 C 22.839844 10.289062 22.6875 10.316406 22.519531 10.246094 C 22.351562 10.175781 22.265625 10.050781 22.265625 9.867188 L 22.265625 9.042969 C 22.265625 8.960938 22.234375 8.890625 22.175781 8.835938 C 22.117188 8.777344 22.050781 8.75 21.96875 8.75 L 20.554688 8.75 C 20.472656 8.75 20.402344 8.777344 20.347656 8.835938 C 20.289062 8.890625 20.257812 8.960938 20.257812 9.042969 L 20.257812 9.867188 C 20.257812 10.050781 20.171875 10.175781 20.003906 10.246094 C 19.835938 10.316406 19.683594 10.289062 19.554688 10.160156 L 18.96875 9.574219 C 18.914062 9.519531 18.84375 9.492188 18.765625 9.492188 C 18.683594 9.492188 18.617188 9.519531 18.558594 9.574219 L 17.554688 10.578125 C 17.5 10.636719 17.472656 10.707031 17.472656 10.785156 C 17.472656 10.863281 17.5 10.933594 17.554688 10.992188 L 18.136719 11.570312 C 18.21875 11.652344 18.261719 11.75 18.261719 11.863281 C 18.261719 11.980469 18.21875 12.078125 18.140625 12.160156 C 18.058594 12.238281 17.960938 12.28125 17.847656 12.28125 C 17.734375 12.28125 17.632812 12.242188 17.554688 12.160156 L 16.96875 11.574219 C 16.863281 11.46875 16.785156 11.347656 16.726562 11.210938 C 16.671875 11.074219 16.644531 10.933594 16.644531 10.785156 C 16.644531 10.636719 16.671875 10.496094 16.726562 10.359375 C 16.785156 10.222656 16.863281 10.101562 16.96875 9.996094 L 17.964844 8.992188 C 18.164062 8.796875 18.402344 8.6875 18.683594 8.671875 C 18.960938 8.652344 19.210938 8.730469 19.433594 8.898438 C 19.472656 8.617188 19.597656 8.386719 19.8125 8.203125 C 20.023438 8.015625 20.273438 7.925781 20.554688 7.925781 L 21.964844 7.925781 C 22.246094 7.925781 22.492188 8.019531 22.703125 8.203125 C 22.914062 8.390625 23.039062 8.621094 23.074219 8.898438 C 23.296875 8.730469 23.550781 8.65625 23.828125 8.671875 C 24.105469 8.691406 24.347656 8.796875 24.546875 8.992188 L 25.546875 9.984375 C 25.742188 10.183594 25.851562 10.425781 25.867188 10.703125 C 25.886719 10.984375 25.808594 11.234375 25.640625 11.457031 C 25.921875 11.492188 26.152344 11.621094 26.339844 11.832031 C 26.523438 12.046875 26.617188 12.292969 26.613281 12.578125 L 26.613281 13.984375 C 26.613281 14.265625 26.519531 14.511719 26.335938 14.722656 C 26.152344 14.933594 25.917969 15.058594 25.640625 15.097656 C 25.8125 15.320312 25.886719 15.574219 25.871094 15.855469 C 25.851562 16.132812 25.746094 16.375 25.546875 16.574219 L 24.554688 17.566406 C 24.355469 17.765625 24.117188 17.871094 23.835938 17.890625 C 23.558594 17.90625 23.304688 17.832031 23.082031 17.664062 C 23.046875 17.941406 22.921875 18.175781 22.707031 18.359375 C 22.492188 18.546875 22.246094 18.636719 21.964844 18.632812 Z M 21.964844 18.632812 " fill-opacity="1" fill-rule="nonzero"/></g><path fill="#935f3d" d="M 21.257812 15.105469 C 21.015625 15.105469 20.785156 15.058594 20.5625 14.964844 C 20.335938 14.875 20.140625 14.742188 19.96875 14.570312 C 19.796875 14.398438 19.667969 14.203125 19.574219 13.980469 C 19.480469 13.753906 19.433594 13.523438 19.433594 13.28125 C 19.433594 13.039062 19.480469 12.804688 19.574219 12.582031 C 19.667969 12.359375 19.796875 12.160156 19.96875 11.992188 C 20.140625 11.820312 20.335938 11.6875 20.5625 11.59375 C 20.785156 11.503906 21.015625 11.457031 21.257812 11.457031 C 21.5 11.457031 21.734375 11.503906 21.957031 11.59375 C 22.179688 11.6875 22.378906 11.820312 22.550781 11.992188 C 22.71875 12.160156 22.851562 12.359375 22.945312 12.582031 C 23.039062 12.804688 23.082031 13.039062 23.082031 13.28125 C 23.082031 13.523438 23.035156 13.753906 22.945312 13.976562 C 22.851562 14.203125 22.71875 14.398438 22.546875 14.570312 C 22.378906 14.742188 22.179688 14.871094 21.957031 14.964844 C 21.734375 15.058594 21.5 15.105469 21.257812 15.105469 Z M 21.257812 12.28125 C 21.125 12.28125 21 12.304688 20.875 12.355469 C 20.753906 12.40625 20.644531 12.480469 20.550781 12.574219 C 20.457031 12.667969 20.386719 12.773438 20.335938 12.898438 C 20.285156 13.019531 20.257812 13.148438 20.257812 13.28125 C 20.257812 13.414062 20.285156 13.542969 20.335938 13.664062 C 20.386719 13.785156 20.457031 13.894531 20.550781 13.988281 C 20.644531 14.082031 20.753906 14.15625 20.875 14.207031 C 21 14.257812 21.125 14.28125 21.257812 14.28125 C 21.390625 14.28125 21.519531 14.257812 21.640625 14.207031 C 21.765625 14.15625 21.875 14.082031 21.96875 13.988281 C 22.0625 13.894531 22.132812 13.785156 22.183594 13.664062 C 22.234375 13.542969 22.261719 13.414062 22.261719 13.28125 C 22.261719 13.148438 22.234375 13.019531 22.183594 12.898438 C 22.132812 12.773438 22.0625 12.667969 21.96875 12.574219 C 21.875 12.480469 21.765625 12.40625 21.640625 12.355469 C 21.519531 12.304688 21.390625 12.28125 21.257812 12.28125 Z M 21.257812 12.28125 " fill-opacity="1" fill-rule="nonzero"/><path fill="#935f3d" d="M 8.90625 12.347656 C 8.792969 12.363281 8.6875 12.335938 8.597656 12.265625 C 8.503906 12.199219 8.449219 12.109375 8.433594 11.992188 C 8.417969 11.878906 8.445312 11.777344 8.511719 11.683594 C 8.582031 11.59375 8.671875 11.539062 8.785156 11.523438 C 9.777344 11.226562 10.785156 11.136719 11.8125 11.253906 C 11.925781 11.269531 12.019531 11.320312 12.089844 11.410156 C 12.160156 11.5 12.191406 11.601562 12.175781 11.714844 C 12.164062 11.828125 12.113281 11.917969 12.023438 11.992188 C 11.933594 12.0625 11.832031 12.089844 11.71875 12.078125 C 10.804688 11.972656 9.90625 12.050781 9.023438 12.316406 C 8.988281 12.332031 8.945312 12.34375 8.90625 12.347656 Z M 8.90625 12.347656 " fill-opacity="1" fill-rule="nonzero"/><path fill="#935f3d" d="M 17.65625 21.105469 C 17.621094 21.109375 17.585938 21.109375 17.554688 21.105469 C 17.445312 21.070312 17.363281 21.003906 17.3125 20.902344 C 17.257812 20.804688 17.246094 20.699219 17.28125 20.589844 C 17.46875 19.953125 17.558594 19.300781 17.554688 18.632812 C 17.550781 18.378906 17.539062 18.121094 17.507812 17.867188 C 17.492188 17.753906 17.519531 17.648438 17.589844 17.554688 C 17.660156 17.464844 17.753906 17.410156 17.871094 17.398438 C 17.984375 17.386719 18.085938 17.414062 18.175781 17.484375 C 18.261719 17.554688 18.316406 17.648438 18.328125 17.761719 C 18.445312 18.792969 18.355469 19.808594 18.050781 20.804688 C 17.996094 21.003906 17.863281 21.105469 17.65625 21.105469 Z M 17.65625 21.105469 " fill-opacity="1" fill-rule="nonzero"/><g clip-path="url(#6c3c34a1cc)"><path fill="#935f3d" d="M 10.964844 26.046875 C 9.902344 26.050781 8.886719 25.832031 7.921875 25.394531 C 7.816406 25.347656 7.746094 25.273438 7.703125 25.167969 C 7.664062 25.058594 7.667969 24.953125 7.714844 24.851562 C 7.761719 24.746094 7.835938 24.675781 7.941406 24.632812 C 8.050781 24.59375 8.15625 24.597656 8.257812 24.640625 C 9.117188 25.03125 10.019531 25.226562 10.964844 25.222656 C 11.617188 25.222656 12.257812 25.128906 12.882812 24.941406 C 12.992188 24.910156 13.097656 24.921875 13.195312 24.976562 C 13.296875 25.03125 13.363281 25.113281 13.394531 25.222656 C 13.425781 25.332031 13.417969 25.4375 13.363281 25.535156 C 13.3125 25.636719 13.230469 25.703125 13.121094 25.738281 C 12.417969 25.945312 11.699219 26.050781 10.964844 26.046875 Z M 10.964844 26.046875 " fill-opacity="1" fill-rule="nonzero"/></g><g clip-path="url(#0bd0ba603e)"><path fill="#935f3d" d="M 4.421875 21.546875 C 4.234375 21.546875 4.105469 21.457031 4.039062 21.28125 C 3.433594 19.691406 3.378906 18.082031 3.878906 16.457031 C 3.910156 16.351562 3.976562 16.273438 4.070312 16.21875 C 4.167969 16.167969 4.269531 16.15625 4.375 16.183594 C 4.488281 16.214844 4.570312 16.28125 4.628906 16.378906 C 4.683594 16.480469 4.695312 16.585938 4.664062 16.699219 C 4.472656 17.328125 4.375 17.976562 4.375 18.632812 C 4.367188 19.445312 4.503906 20.226562 4.789062 20.984375 C 4.828125 21.089844 4.828125 21.191406 4.785156 21.296875 C 4.742188 21.398438 4.671875 21.472656 4.570312 21.515625 C 4.523438 21.535156 4.472656 21.546875 4.421875 21.546875 Z M 4.421875 21.546875 " fill-opacity="1" fill-rule="nonzero"/></g><g clip-path="url(#ec2c08ebbe)"><path fill="#935f3d" d="M 6.023438 15.75 C 5.75 15.75 5.488281 15.699219 5.234375 15.59375 C 4.984375 15.492188 4.761719 15.339844 4.566406 15.148438 C 4.375 14.957031 4.226562 14.734375 4.121094 14.480469 C 4.015625 14.226562 3.964844 13.964844 3.964844 13.691406 C 3.964844 13.417969 4.015625 13.15625 4.121094 12.90625 C 4.226562 12.652344 4.375 12.429688 4.566406 12.238281 C 4.761719 12.042969 4.984375 11.894531 5.234375 11.789062 C 5.488281 11.6875 5.75 11.632812 6.023438 11.632812 C 6.296875 11.632812 6.558594 11.6875 6.8125 11.789062 C 7.0625 11.894531 7.285156 12.042969 7.480469 12.238281 C 7.671875 12.429688 7.820312 12.652344 7.925781 12.90625 C 8.03125 13.15625 8.082031 13.417969 8.082031 13.691406 C 8.082031 13.964844 8.03125 14.226562 7.925781 14.480469 C 7.820312 14.734375 7.671875 14.957031 7.480469 15.148438 C 7.285156 15.339844 7.0625 15.492188 6.8125 15.59375 C 6.558594 15.699219 6.296875 15.75 6.023438 15.75 Z M 6.023438 12.457031 C 5.859375 12.457031 5.703125 12.488281 5.550781 12.550781 C 5.398438 12.613281 5.265625 12.703125 5.148438 12.820312 C 5.035156 12.933594 4.945312 13.070312 4.882812 13.21875 C 4.820312 13.371094 4.789062 13.527344 4.789062 13.691406 C 4.789062 13.855469 4.820312 14.015625 4.882812 14.164062 C 4.945312 14.316406 5.035156 14.449219 5.148438 14.566406 C 5.265625 14.683594 5.398438 14.769531 5.550781 14.832031 C 5.703125 14.898438 5.859375 14.929688 6.023438 14.929688 C 6.1875 14.929688 6.34375 14.898438 6.496094 14.832031 C 6.648438 14.769531 6.78125 14.683594 6.894531 14.566406 C 7.011719 14.449219 7.101562 14.316406 7.164062 14.164062 C 7.226562 14.015625 7.257812 13.855469 7.257812 13.691406 C 7.257812 13.527344 7.226562 13.371094 7.164062 13.21875 C 7.101562 13.070312 7.011719 12.933594 6.894531 12.820312 C 6.78125 12.703125 6.648438 12.613281 6.496094 12.550781 C 6.34375 12.488281 6.1875 12.457031 6.023438 12.457031 Z M 6.023438 12.457031 " fill-opacity="1" fill-rule="nonzero"/></g><path fill="#935f3d" d="M 15.90625 25.636719 C 15.632812 25.636719 15.371094 25.582031 15.117188 25.476562 C 14.867188 25.375 14.644531 25.226562 14.449219 25.03125 C 14.257812 24.839844 14.109375 24.617188 14.003906 24.363281 C 13.898438 24.113281 13.847656 23.847656 13.847656 23.574219 C 13.847656 23.304688 13.898438 23.039062 14.003906 22.789062 C 14.109375 22.535156 14.257812 22.3125 14.449219 22.121094 C 14.644531 21.925781 14.867188 21.777344 15.117188 21.671875 C 15.371094 21.570312 15.632812 21.515625 15.90625 21.515625 C 16.179688 21.515625 16.441406 21.570312 16.695312 21.671875 C 16.945312 21.777344 17.167969 21.925781 17.363281 22.121094 C 17.554688 22.3125 17.703125 22.535156 17.808594 22.789062 C 17.914062 23.039062 17.964844 23.304688 17.964844 23.574219 C 17.964844 23.847656 17.914062 24.113281 17.808594 24.363281 C 17.703125 24.617188 17.554688 24.839844 17.363281 25.03125 C 17.167969 25.226562 16.945312 25.375 16.695312 25.476562 C 16.441406 25.582031 16.179688 25.636719 15.90625 25.636719 Z M 15.90625 22.339844 C 15.742188 22.339844 15.585938 22.371094 15.433594 22.433594 C 15.28125 22.496094 15.148438 22.585938 15.03125 22.703125 C 14.917969 22.816406 14.828125 22.953125 14.765625 23.101562 C 14.703125 23.253906 14.671875 23.410156 14.671875 23.574219 C 14.671875 23.738281 14.703125 23.898438 14.765625 24.046875 C 14.828125 24.199219 14.917969 24.332031 15.03125 24.449219 C 15.148438 24.566406 15.28125 24.65625 15.433594 24.71875 C 15.585938 24.78125 15.742188 24.8125 15.90625 24.8125 C 16.070312 24.8125 16.226562 24.78125 16.378906 24.71875 C 16.53125 24.65625 16.664062 24.566406 16.78125 24.449219 C 16.894531 24.332031 16.984375 24.199219 17.046875 24.046875 C 17.109375 23.898438 17.140625 23.738281 17.140625 23.574219 C 17.140625 23.410156 17.109375 23.253906 17.046875 23.101562 C 16.984375 22.953125 16.894531 22.816406 16.78125 22.703125 C 16.664062 22.585938 16.53125 22.496094 16.378906 22.433594 C 16.226562 22.371094 16.070312 22.339844 15.90625 22.339844 Z M 15.90625 22.339844 " fill-opacity="1" fill-rule="nonzero"/><path fill="#935f3d" d="M 10.878906 22.894531 C 10.761719 22.894531 10.664062 22.855469 10.585938 22.773438 L 6.511719 18.695312 C 6.433594 18.617188 6.394531 18.519531 6.394531 18.40625 C 6.394531 18.292969 6.433594 18.195312 6.511719 18.117188 L 12.335938 12.292969 C 12.414062 12.210938 12.511719 12.171875 12.625 12.171875 C 12.738281 12.171875 12.835938 12.210938 12.917969 12.292969 L 16.992188 16.371094 C 17.074219 16.449219 17.113281 16.546875 17.113281 16.65625 C 17.113281 16.773438 17.074219 16.867188 16.992188 16.949219 L 11.171875 22.773438 C 11.089844 22.855469 10.992188 22.894531 10.878906 22.894531 Z M 7.386719 18.40625 L 10.878906 21.898438 L 16.121094 16.65625 L 12.613281 13.164062 Z M 7.386719 18.40625 " fill-opacity="1" fill-rule="nonzero"/><path fill="#935f3d" d="M 4.691406 25.003906 C 4.625 25.003906 4.5625 24.988281 4.503906 24.957031 C 4.445312 24.925781 4.394531 24.886719 4.359375 24.832031 C 4.320312 24.777344 4.296875 24.714844 4.285156 24.648438 C 4.277344 24.585938 4.285156 24.519531 4.304688 24.457031 L 6.414062 18.28125 C 6.4375 18.214844 6.476562 18.15625 6.527344 18.109375 C 6.582031 18.0625 6.640625 18.03125 6.710938 18.015625 C 6.78125 18 6.847656 18 6.914062 18.019531 C 6.984375 18.039062 7.042969 18.074219 7.09375 18.125 L 11.171875 22.199219 C 11.277344 22.308594 11.316406 22.433594 11.28125 22.582031 C 11.246094 22.730469 11.15625 22.832031 11.015625 22.878906 L 4.835938 24.988281 C 4.789062 25.003906 4.742188 25.007812 4.691406 25.003906 Z M 6.976562 19.164062 L 5.355469 23.929688 L 10.140625 22.308594 Z M 6.976562 19.164062 " fill-opacity="1" fill-rule="nonzero"/><path fill="#935f3d" d="M 4.691406 25.003906 C 4.625 25.003906 4.5625 24.988281 4.503906 24.957031 C 4.445312 24.925781 4.394531 24.886719 4.359375 24.832031 C 4.320312 24.777344 4.296875 24.714844 4.285156 24.648438 C 4.277344 24.585938 4.285156 24.519531 4.304688 24.457031 L 5.21875 21.765625 C 5.292969 21.550781 5.441406 21.457031 5.664062 21.488281 C 6.222656 21.558594 6.699219 21.792969 7.09375 22.191406 C 7.488281 22.589844 7.722656 23.066406 7.796875 23.621094 C 7.824219 23.84375 7.734375 23.988281 7.523438 24.0625 L 4.828125 24.980469 C 4.785156 24.996094 4.738281 25.003906 4.691406 25.003906 Z M 5.882812 22.382812 L 5.355469 23.929688 L 6.902344 23.402344 C 6.730469 22.894531 6.390625 22.554688 5.882812 22.382812 Z M 5.882812 22.382812 " fill-opacity="1" fill-rule="nonzero"/><path fill="#935f3d" d="M 16.699219 17.242188 L 12.042969 12.582031 L 13.5 11.128906 C 13.617188 11.015625 13.753906 10.929688 13.902344 10.867188 C 14.054688 10.808594 14.210938 10.777344 14.375 10.777344 C 14.535156 10.777344 14.691406 10.808594 14.84375 10.867188 C 14.996094 10.929688 15.128906 11.015625 15.246094 11.128906 L 18.160156 14.039062 C 18.273438 14.152344 18.363281 14.289062 18.425781 14.4375 C 18.488281 14.589844 18.519531 14.746094 18.519531 14.910156 C 18.519531 15.074219 18.488281 15.234375 18.425781 15.382812 C 18.363281 15.535156 18.273438 15.667969 18.160156 15.785156 Z M 13.207031 12.582031 L 16.699219 16.078125 L 17.578125 15.203125 C 17.660156 15.125 17.699219 15.027344 17.699219 14.910156 C 17.699219 14.796875 17.660156 14.699219 17.578125 14.617188 L 14.671875 11.707031 C 14.589844 11.628906 14.492188 11.585938 14.378906 11.585938 C 14.265625 11.585938 14.171875 11.628906 14.089844 11.707031 Z M 13.207031 12.582031 " fill-opacity="1" fill-rule="nonzero"/><path fill="#935f3d" d="M 10.878906 22.894531 C 10.761719 22.894531 10.664062 22.855469 10.585938 22.773438 L 9.425781 21.605469 C 9.34375 21.527344 9.304688 21.429688 9.304688 21.316406 C 9.304688 21.203125 9.34375 21.105469 9.425781 21.027344 L 15.246094 15.203125 C 15.328125 15.125 15.425781 15.085938 15.539062 15.085938 C 15.652344 15.085938 15.746094 15.125 15.828125 15.203125 L 16.992188 16.371094 C 17.074219 16.449219 17.113281 16.546875 17.113281 16.65625 C 17.113281 16.773438 17.074219 16.867188 16.992188 16.949219 L 11.171875 22.773438 C 11.089844 22.855469 10.992188 22.894531 10.878906 22.894531 Z M 10.296875 21.320312 L 10.878906 21.898438 L 16.121094 16.65625 L 15.539062 16.078125 Z M 10.296875 21.320312 " fill-opacity="1" fill-rule="nonzero"/><path fill="#935f3d" d="M 7.964844 19.984375 C 7.851562 19.988281 7.753906 19.949219 7.667969 19.871094 L 6.507812 18.703125 C 6.429688 18.625 6.390625 18.527344 6.390625 18.414062 C 6.390625 18.300781 6.429688 18.203125 6.507812 18.125 L 12.335938 12.292969 C 12.414062 12.210938 12.511719 12.171875 12.625 12.171875 C 12.738281 12.171875 12.835938 12.210938 12.917969 12.292969 L 14.082031 13.457031 C 14.160156 13.539062 14.199219 13.632812 14.199219 13.746094 C 14.203125 13.859375 14.160156 13.957031 14.082031 14.039062 L 8.257812 19.871094 C 8.175781 19.949219 8.078125 19.988281 7.964844 19.984375 Z M 7.386719 18.40625 L 7.964844 18.988281 L 13.207031 13.746094 L 12.613281 13.164062 Z M 7.386719 18.40625 " fill-opacity="1" fill-rule="nonzero"/></svg>