<svg xmlns="http://www.w3.org/2000/svg" xmlns:xlink="http://www.w3.org/1999/xlink" width="40" zoomAndPan="magnify" viewBox="0 0 30 30.000001" height="40" preserveAspectRatio="xMidYMid meet" version="1.0"><defs><clipPath id="a606b8056f"><path d="M 0.484375 0 L 29.515625 0 L 29.515625 29.03125 L 0.484375 29.03125 Z M 0.484375 0 " clip-rule="nonzero"/></clipPath><clipPath id="6fe07719f1"><path d="M 3.824219 2.449219 L 26.324219 2.449219 L 26.324219 26.402344 L 3.824219 26.402344 Z M 3.824219 2.449219 " clip-rule="nonzero"/></clipPath></defs><g clip-path="url(#a606b8056f)"><path fill="#ffffff" d="M 0.484375 0 L 29.515625 0 L 29.515625 29.03125 L 0.484375 29.03125 Z M 0.484375 0 " fill-opacity="1" fill-rule="nonzero"/><path fill="#ffffff" d="M 0.484375 0 L 29.515625 0 L 29.515625 29.03125 L 0.484375 29.03125 Z M 0.484375 0 " fill-opacity="1" fill-rule="nonzero"/></g><g clip-path="url(#6fe07719f1)"><path fill="#935f3d" d="M 18.953125 7.761719 C 18.90625 7.671875 18.855469 7.582031 18.804688 7.496094 L 21.140625 4.773438 C 21.207031 4.84375 21.277344 4.90625 21.355469 4.960938 Z M 9.308594 8.660156 L 6.378906 10.179688 C 6.429688 10.261719 6.476562 10.34375 6.511719 10.433594 L 9.441406 8.914062 C 9.390625 8.835938 9.347656 8.75 9.308594 8.660156 Z M 15.113281 9.640625 L 12.3125 8.515625 C 12.285156 8.605469 12.25 8.695312 12.203125 8.78125 L 15.007812 9.902344 C 15.035156 9.8125 15.070312 9.722656 15.113281 9.640625 Z M 6.25 17.320312 C 6.207031 17.277344 6.164062 17.234375 6.121094 17.195312 C 5.460938 16.535156 4.929688 15.78125 4.542969 14.964844 L 3.824219 14.964844 L 3.824219 21.066406 L 6.25 21.066406 Z M 11.996094 17.203125 L 11.996094 12.625 L 9.570312 12.625 L 9.570312 16.75 C 10.273438 17.046875 11.03125 17.203125 11.816406 17.203125 C 11.875 17.203125 11.9375 17.203125 11.996094 17.203125 Z M 9.570312 19.238281 L 9.570312 21.066406 L 11.996094 21.066406 L 11.996094 19.550781 C 11.9375 19.550781 11.875 19.550781 11.816406 19.550781 C 11.046875 19.550781 10.292969 19.445312 9.570312 19.238281 Z M 17.214844 13.359375 L 15.320312 13.359375 L 15.320312 16.003906 C 15.503906 15.859375 15.683594 15.703125 15.851562 15.535156 C 16.472656 14.910156 16.933594 14.167969 17.214844 13.359375 Z M 15.320312 18.753906 L 15.320312 21.066406 L 17.746094 21.066406 L 17.746094 19.976562 L 16.097656 18.324219 C 15.84375 18.484375 15.585938 18.625 15.320312 18.753906 Z M 21.070312 18.203125 L 23.496094 20.628906 L 23.496094 8.246094 L 21.070312 8.246094 Z M 20.90625 23.136719 L 3.824219 23.136719 L 3.824219 24.179688 L 21.953125 24.179688 Z M 6.113281 11.597656 C 6.199219 11.429688 6.25 11.238281 6.25 11.039062 C 6.25 10.894531 6.222656 10.757812 6.179688 10.628906 C 6.128906 10.949219 6.105469 11.273438 6.113281 11.597656 Z M 10.785156 9.269531 C 11.453125 9.269531 11.996094 8.726562 11.996094 8.058594 C 11.996094 7.386719 11.453125 6.84375 10.785156 6.84375 C 10.117188 6.84375 9.570312 7.386719 9.570312 8.058594 C 9.570312 8.726562 10.117188 9.269531 10.785156 9.269531 Z M 16.535156 11.574219 C 16.933594 11.574219 17.289062 11.382812 17.507812 11.082031 C 17.464844 10.457031 17.316406 9.847656 17.078125 9.277344 C 16.914062 9.195312 16.730469 9.148438 16.535156 9.148438 C 15.863281 9.148438 15.320312 9.695312 15.320312 10.363281 C 15.320312 11.03125 15.863281 11.574219 16.535156 11.574219 Z M 22.28125 2.449219 C 21.613281 2.449219 21.070312 2.996094 21.070312 3.664062 C 21.070312 4.332031 21.613281 4.875 22.28125 4.875 C 22.949219 4.875 23.496094 4.332031 23.496094 3.664062 C 23.496094 2.996094 22.949219 2.449219 22.28125 2.449219 Z M 18.425781 16.101562 C 18.160156 16.484375 17.855469 16.851562 17.511719 17.195312 C 17.171875 17.535156 16.804688 17.839844 16.421875 18.109375 L 17.621094 19.308594 L 19.628906 17.300781 Z M 17.890625 19.578125 L 23.941406 25.628906 C 24.25 25.941406 24.671875 26.117188 25.09375 26.117188 C 25.460938 26.117188 25.804688 25.980469 26.050781 25.734375 C 26.605469 25.179688 26.558594 24.234375 25.949219 23.625 L 19.898438 17.570312 Z M 6.390625 16.921875 C 4.941406 15.472656 4.144531 13.546875 4.144531 11.496094 C 4.144531 9.449219 4.941406 7.519531 6.390625 6.070312 C 7.839844 4.621094 9.765625 3.824219 11.816406 3.824219 C 13.867188 3.824219 15.792969 4.621094 17.242188 6.070312 C 20.234375 9.0625 20.234375 13.933594 17.242188 16.921875 C 15.792969 18.371094 13.867188 19.171875 11.816406 19.171875 C 9.765625 19.171875 7.839844 18.371094 6.390625 16.921875 Z M 7.511719 15.804688 C 8.660156 16.953125 10.191406 17.585938 11.816406 17.585938 C 13.441406 17.585938 14.972656 16.953125 16.121094 15.804688 C 17.273438 14.652344 17.90625 13.125 17.90625 11.496094 C 17.90625 9.871094 17.273438 8.34375 16.121094 7.191406 C 14.972656 6.042969 13.441406 5.410156 11.816406 5.410156 C 10.191406 5.410156 8.660156 6.042969 7.511719 7.191406 C 5.136719 9.566406 5.136719 13.429688 7.511719 15.804688 Z M 7.511719 15.804688 " fill-opacity="1" fill-rule="nonzero"/></g></svg>