<svg xmlns="http://www.w3.org/2000/svg" xmlns:xlink="http://www.w3.org/1999/xlink" width="40" zoomAndPan="magnify" viewBox="0 0 30 30.000001" height="40" preserveAspectRatio="xMidYMid meet" version="1.0"><defs><clipPath id="55f7aaad24"><path d="M 0.484375 0 L 29.515625 0 L 29.515625 29.03125 L 0.484375 29.03125 Z M 0.484375 0 " clip-rule="nonzero"/></clipPath><clipPath id="7195889027"><path d="M 5.566406 2.902344 L 24.433594 2.902344 L 24.433594 26.128906 L 5.566406 26.128906 Z M 5.566406 2.902344 " clip-rule="nonzero"/></clipPath></defs><g clip-path="url(#55f7aaad24)"><path fill="#ffffff" d="M 0.484375 0 L 29.515625 0 L 29.515625 29.03125 L 0.484375 29.03125 Z M 0.484375 0 " fill-opacity="1" fill-rule="nonzero"/><path fill="#ffffff" d="M 0.484375 0 L 29.515625 0 L 29.515625 29.03125 L 0.484375 29.03125 Z M 0.484375 0 " fill-opacity="1" fill-rule="nonzero"/></g><g clip-path="url(#7195889027)"><path fill="#935f3d" d="M 15.449219 19.40625 C 15.324219 19.492188 15.273438 19.652344 15.320312 19.796875 L 15.34375 19.871094 L 15.28125 19.824219 C 15.160156 19.734375 14.992188 19.734375 14.867188 19.824219 L 14.804688 19.871094 L 14.832031 19.796875 C 14.878906 19.652344 14.828125 19.492188 14.703125 19.40625 L 14.640625 19.359375 L 14.71875 19.359375 C 14.871094 19.359375 15.003906 19.261719 15.050781 19.117188 L 15.074219 19.042969 L 15.101562 19.117188 C 15.148438 19.261719 15.28125 19.359375 15.433594 19.359375 L 15.511719 19.359375 Z M 16.59375 18.65625 L 15.6875 18.660156 L 15.410156 17.792969 C 15.304688 17.472656 14.847656 17.472656 14.742188 17.792969 L 14.464844 18.660156 L 13.554688 18.65625 C 13.21875 18.65625 13.074219 19.09375 13.351562 19.289062 L 14.085938 19.820312 L 13.804688 20.6875 C 13.699219 21.007812 14.070312 21.277344 14.34375 21.078125 L 15.074219 20.542969 L 15.808594 21.078125 C 16.074219 21.273438 16.453125 21.011719 16.347656 20.6875 L 16.066406 19.820312 L 16.800781 19.289062 C 17.074219 19.09375 16.933594 18.65625 16.59375 18.65625 Z M 21.324219 19.40625 C 21.199219 19.492188 21.148438 19.652344 21.195312 19.796875 L 21.21875 19.871094 L 21.15625 19.824219 C 21.035156 19.734375 20.867188 19.734375 20.746094 19.824219 L 20.679688 19.871094 L 20.707031 19.796875 C 20.753906 19.652344 20.703125 19.492188 20.578125 19.40625 L 20.515625 19.359375 L 20.59375 19.359375 C 20.746094 19.359375 20.878906 19.261719 20.925781 19.117188 L 20.949219 19.042969 L 20.976562 19.117188 C 21.023438 19.261719 21.15625 19.359375 21.308594 19.359375 L 21.386719 19.359375 Z M 22.472656 18.65625 L 21.5625 18.660156 L 21.285156 17.792969 C 21.179688 17.472656 20.722656 17.472656 20.617188 17.792969 L 20.339844 18.660156 L 19.429688 18.65625 C 19.09375 18.65625 18.953125 19.09375 19.226562 19.289062 L 19.960938 19.820312 L 19.679688 20.6875 C 19.574219 21.007812 19.945312 21.277344 20.21875 21.078125 L 20.949219 20.542969 L 21.683594 21.078125 C 21.953125 21.273438 22.328125 21.011719 22.222656 20.6875 L 21.941406 19.820312 L 22.675781 19.289062 C 22.949219 19.09375 22.808594 18.65625 22.472656 18.65625 Z M 9.421875 19.40625 C 9.296875 19.492188 9.246094 19.652344 9.292969 19.796875 L 9.320312 19.871094 L 9.253906 19.824219 C 9.132812 19.734375 8.964844 19.734375 8.84375 19.824219 L 8.78125 19.871094 L 8.804688 19.796875 C 8.851562 19.652344 8.800781 19.492188 8.675781 19.40625 L 8.613281 19.359375 L 8.691406 19.359375 C 8.84375 19.359375 8.976562 19.261719 9.023438 19.117188 L 9.050781 19.042969 L 9.074219 19.117188 C 9.121094 19.261719 9.253906 19.359375 9.40625 19.359375 L 9.484375 19.359375 Z M 10.570312 18.65625 L 9.660156 18.660156 L 9.382812 17.792969 C 9.277344 17.472656 8.820312 17.472656 8.714844 17.792969 L 8.4375 18.660156 L 7.527344 18.65625 C 7.191406 18.65625 7.050781 19.09375 7.324219 19.289062 L 8.058594 19.820312 L 7.777344 20.6875 C 7.671875 21.007812 8.042969 21.277344 8.316406 21.078125 L 9.050781 20.542969 L 9.78125 21.078125 C 10.050781 21.273438 10.425781 21.011719 10.320312 20.6875 L 10.039062 19.820312 L 10.773438 19.289062 C 11.046875 19.09375 10.90625 18.65625 10.570312 18.65625 Z M 20.949219 22.242188 C 22.480469 22.242188 23.726562 21 23.726562 19.46875 C 23.726562 17.9375 22.480469 16.695312 20.949219 16.695312 C 19.828125 16.695312 18.8125 17.382812 18.386719 18.414062 C 18.492188 18.746094 18.550781 19.101562 18.550781 19.46875 C 18.550781 19.839844 18.492188 20.191406 18.386719 20.527344 C 18.8125 21.558594 19.828125 22.242188 20.949219 22.242188 Z M 21.90625 24.816406 L 21.199219 24.109375 C 21.0625 23.972656 20.835938 23.976562 20.703125 24.109375 L 19.996094 24.816406 L 19.996094 22.808594 C 20.628906 22.992188 21.273438 22.988281 21.90625 22.808594 Z M 15.074219 22.242188 C 16.605469 22.242188 17.847656 21 17.847656 19.46875 C 17.847656 17.9375 16.605469 16.695312 15.074219 16.695312 C 13.546875 16.695312 12.300781 17.9375 12.300781 19.46875 C 12.300781 21 13.546875 22.242188 15.074219 22.242188 Z M 16.03125 24.816406 L 15.324219 24.109375 C 15.1875 23.976562 14.960938 23.976562 14.828125 24.109375 L 14.121094 24.816406 L 14.121094 22.808594 C 14.761719 22.992188 15.390625 22.992188 16.03125 22.808594 Z M 9.050781 22.242188 C 10.265625 22.242188 11.34375 21.445312 11.699219 20.289062 C 11.636719 20.027344 11.601562 19.753906 11.601562 19.46875 C 11.601562 19.1875 11.636719 18.914062 11.699219 18.648438 C 11.34375 17.5 10.257812 16.695312 9.050781 16.695312 C 7.519531 16.695312 6.273438 17.9375 6.273438 19.46875 C 6.273438 21 7.519531 22.242188 9.050781 22.242188 Z M 10.003906 24.816406 L 9.296875 24.109375 C 9.164062 23.976562 8.9375 23.972656 8.800781 24.109375 L 8.09375 24.816406 L 8.09375 22.808594 C 8.726562 22.988281 9.371094 22.992188 10.003906 22.808594 Z M 6.496094 15.644531 C 6.496094 14.007812 7.824219 12.683594 9.457031 12.683594 C 10.382812 12.683594 11.25 13.117188 11.808594 13.851562 C 11.511719 14.382812 11.339844 14.992188 11.339844 15.644531 L 11.339844 16.855469 C 9.910156 15.605469 7.773438 15.734375 6.496094 17.117188 Z M 9.457031 8.894531 C 10.308594 8.894531 11 9.589844 11 10.441406 C 11 11.289062 10.308594 11.984375 9.457031 11.984375 C 8.605469 11.984375 7.914062 11.289062 7.914062 10.441406 C 7.914062 9.589844 8.605469 8.894531 9.457031 8.894531 Z M 15 12.683594 C 16.632812 12.683594 17.960938 14.007812 17.960938 15.644531 L 17.960938 17.539062 C 17.335938 16.609375 16.277344 15.996094 15.074219 15.996094 C 13.789062 15.996094 12.664062 16.699219 12.0625 17.746094 C 12.054688 17.730469 12.046875 17.714844 12.039062 17.703125 L 12.039062 15.644531 C 12.039062 14.007812 13.367188 12.683594 15 12.683594 Z M 15 8.894531 C 15.851562 8.894531 16.542969 9.589844 16.542969 10.441406 C 16.542969 11.289062 15.851562 11.984375 15 11.984375 C 14.148438 11.984375 13.457031 11.289062 13.457031 10.441406 C 13.457031 9.589844 14.148438 8.894531 15 8.894531 Z M 20.847656 3.605469 L 19.8125 4.640625 C 19.675781 4.78125 19.675781 5.003906 19.8125 5.136719 L 20.847656 6.175781 L 15.351562 6.175781 L 15.351562 3.605469 Z M 20.542969 12.683594 C 22.175781 12.683594 23.503906 14.007812 23.503906 15.644531 L 23.503906 17.117188 C 22.222656 15.730469 20.089844 15.613281 18.660156 16.859375 L 18.660156 15.644531 C 18.660156 14.992188 18.488281 14.382812 18.191406 13.851562 C 18.75 13.117188 19.617188 12.683594 20.542969 12.683594 Z M 20.542969 8.894531 C 21.390625 8.894531 22.085938 9.589844 22.085938 10.441406 C 22.085938 11.289062 21.390625 11.984375 20.542969 11.984375 C 19.691406 11.984375 19 11.289062 19 10.441406 C 19 9.589844 19.691406 8.894531 20.542969 8.894531 Z M 24.425781 19.46875 C 24.425781 19.039062 24.347656 18.628906 24.203125 18.25 L 24.203125 15.644531 C 24.203125 14.09375 23.238281 12.773438 21.882812 12.234375 C 22.429688 11.824219 22.785156 11.175781 22.785156 10.4375 C 22.785156 9.203125 21.777344 8.195312 20.542969 8.195312 C 19.304688 8.195312 18.300781 9.203125 18.300781 10.4375 C 18.300781 11.175781 18.65625 11.824219 19.203125 12.234375 C 18.65625 12.453125 18.164062 12.800781 17.773438 13.253906 C 17.386719 12.808594 16.898438 12.457031 16.339844 12.234375 C 16.886719 11.824219 17.242188 11.175781 17.242188 10.4375 C 17.242188 9.320312 16.421875 8.394531 15.351562 8.222656 L 15.351562 6.875 L 21.695312 6.875 C 22.007812 6.875 22.160156 6.496094 21.941406 6.28125 L 20.554688 4.890625 L 21.941406 3.5 C 22.164062 3.28125 22.003906 2.902344 21.695312 2.902344 L 15 2.902344 C 14.804688 2.902344 14.648438 3.0625 14.648438 3.253906 L 14.648438 8.222656 C 13.578125 8.394531 12.757812 9.320312 12.757812 10.4375 C 12.757812 11.175781 13.113281 11.824219 13.660156 12.234375 C 13.101562 12.457031 12.613281 12.808594 12.226562 13.253906 C 11.835938 12.800781 11.34375 12.453125 10.796875 12.234375 C 11.34375 11.824219 11.699219 11.175781 11.699219 10.4375 C 11.699219 9.203125 10.695312 8.195312 9.457031 8.195312 C 8.222656 8.195312 7.214844 9.203125 7.214844 10.4375 C 7.214844 11.175781 7.570312 11.824219 8.117188 12.234375 C 6.761719 12.773438 5.796875 14.09375 5.796875 15.644531 L 5.796875 18.25 C 5.652344 18.628906 5.574219 19.039062 5.574219 19.46875 C 5.574219 20.785156 6.3125 21.933594 7.394531 22.523438 L 7.394531 25.664062 C 7.394531 25.972656 7.773438 26.128906 7.992188 25.910156 L 9.050781 24.851562 L 10.105469 25.910156 C 10.324219 26.125 10.703125 25.976562 10.703125 25.664062 L 10.703125 22.523438 C 11.265625 22.21875 11.742188 21.757812 12.0625 21.199219 C 12.382812 21.753906 12.855469 22.21875 13.421875 22.523438 L 13.421875 25.664062 C 13.421875 25.976562 13.800781 26.125 14.019531 25.910156 L 15.074219 24.851562 L 16.132812 25.910156 C 16.351562 26.128906 16.730469 25.972656 16.730469 25.664062 L 16.730469 22.523438 C 17.253906 22.242188 17.695312 21.824219 18.011719 21.324219 C 18.332031 21.828125 18.777344 22.242188 19.296875 22.523438 L 19.296875 25.664062 C 19.296875 25.972656 19.675781 26.128906 19.894531 25.910156 L 20.949219 24.851562 L 22.007812 25.910156 C 22.226562 26.125 22.605469 25.976562 22.605469 25.664062 L 22.605469 22.523438 C 23.6875 21.933594 24.425781 20.785156 24.425781 19.46875 Z M 24.425781 19.46875 " fill-opacity="1" fill-rule="evenodd"/></g></svg>