<svg xmlns="http://www.w3.org/2000/svg" xmlns:xlink="http://www.w3.org/1999/xlink" width="40" zoomAndPan="magnify" viewBox="0 0 30 30.000001" height="40" preserveAspectRatio="xMidYMid meet" version="1.0"><defs><clipPath id="509b89a7d4"><path d="M 0.484375 0 L 29.515625 0 L 29.515625 29.03125 L 0.484375 29.03125 Z M 0.484375 0 " clip-rule="nonzero"/></clipPath><clipPath id="5bfc4e38f8"><path d="M 13 2.902344 L 24 2.902344 L 24 8 L 13 8 Z M 13 2.902344 " clip-rule="nonzero"/></clipPath><clipPath id="36b12f6793"><path d="M 12.132812 14 L 25 14 L 25 22.546875 L 12.132812 22.546875 Z M 12.132812 14 " clip-rule="nonzero"/></clipPath><clipPath id="804d089377"><path d="M 8.601562 16 L 18.753906 16 L 18.753906 26.128906 L 8.601562 26.128906 Z M 8.601562 16 " clip-rule="nonzero"/></clipPath><clipPath id="77f6e11db6"><path d="M 4.679688 16 L 13 16 L 13 25 L 4.679688 25 Z M 4.679688 16 " clip-rule="nonzero"/></clipPath></defs><g clip-path="url(#509b89a7d4)"><path fill="#ffffff" d="M 0.484375 0 L 29.515625 0 L 29.515625 29.03125 L 0.484375 29.03125 Z M 0.484375 0 " fill-opacity="1" fill-rule="nonzero"/><path fill="#ffffff" d="M 0.484375 0 L 29.515625 0 L 29.515625 29.03125 L 0.484375 29.03125 Z M 0.484375 0 " fill-opacity="1" fill-rule="nonzero"/></g><g clip-path="url(#5bfc4e38f8)"><path fill="#373435" d="M 13.808594 7.496094 C 13.800781 7.628906 13.683594 7.730469 13.550781 7.71875 C 13.417969 7.707031 13.316406 7.59375 13.328125 7.460938 C 13.371094 6.910156 13.496094 6.378906 13.710938 5.886719 C 13.921875 5.402344 14.214844 4.957031 14.59375 4.5625 C 15.566406 3.542969 16.910156 3.015625 18.277344 2.945312 C 19.054688 2.902344 19.84375 3.007812 20.574219 3.253906 C 21.308594 3.503906 21.984375 3.894531 22.535156 4.421875 C 23.34375 5.191406 23.882812 6.246094 23.953125 7.566406 C 23.960938 7.699219 23.859375 7.8125 23.726562 7.820312 C 23.59375 7.828125 23.480469 7.722656 23.472656 7.589844 C 23.410156 6.40625 22.925781 5.460938 22.203125 4.773438 C 21.703125 4.296875 21.089844 3.941406 20.417969 3.714844 C 19.746094 3.484375 19.019531 3.386719 18.300781 3.425781 C 17.050781 3.492188 15.824219 3.972656 14.941406 4.894531 C 14.605469 5.25 14.34375 5.648438 14.15625 6.078125 C 13.960938 6.519531 13.847656 6.996094 13.808594 7.496094 " fill-opacity="1" fill-rule="nonzero"/></g><path fill="#935f3d" d="M 14.675781 9.058594 L 14.675781 7.851562 C 14.675781 6.195312 15.710938 5.136719 17.035156 4.675781 C 17.542969 4.5 18.09375 4.410156 18.636719 4.410156 C 19.183594 4.410156 19.734375 4.5 20.238281 4.675781 C 21.566406 5.136719 22.601562 6.195312 22.601562 7.851562 L 22.601562 9.058594 C 22.601562 9.0625 22.601562 9.085938 22.601562 9.148438 C 22.578125 10.425781 22.074219 11.484375 21.335938 12.222656 C 20.59375 12.96875 19.605469 13.390625 18.621094 13.390625 C 18.609375 13.390625 18.613281 13.386719 18.558594 13.386719 C 17.535156 13.367188 16.515625 12.886719 15.78125 12.0625 C 15.113281 11.3125 14.675781 10.28125 14.675781 9.058594 Z M 15.160156 7.851562 L 15.160156 9.058594 C 15.160156 10.152344 15.546875 11.074219 16.140625 11.742188 C 16.789062 12.464844 17.675781 12.890625 18.566406 12.90625 C 18.585938 12.90625 18.570312 12.90625 18.621094 12.90625 C 19.480469 12.90625 20.34375 12.535156 20.996094 11.882812 C 21.652344 11.226562 22.097656 10.28125 22.117188 9.140625 C 22.117188 9.132812 22.117188 9.117188 22.117188 9.058594 L 22.117188 7.851562 C 22.117188 6.4375 21.222656 5.53125 20.082031 5.132812 C 19.628906 4.972656 19.132812 4.894531 18.636719 4.894531 C 18.144531 4.894531 17.648438 4.972656 17.195312 5.132812 C 16.050781 5.53125 15.160156 6.4375 15.160156 7.851562 " fill-opacity="1" fill-rule="nonzero"/><g clip-path="url(#36b12f6793)"><path fill="#935f3d" d="M 15.992188 22.492188 C 15.859375 22.492188 15.75 22.386719 15.75 22.253906 C 15.75 22.117188 15.859375 22.011719 15.992188 22.011719 L 24.808594 22.011719 L 24.488281 17.230469 C 24.390625 15.824219 23.5 15.605469 22.3125 15.3125 C 21.777344 15.183594 21.191406 15.039062 20.574219 14.777344 L 20.007812 14.539062 C 19.964844 14.566406 19.925781 14.59375 19.886719 14.625 C 19.8125 14.679688 19.738281 14.746094 19.660156 14.824219 L 18.820312 15.667969 C 18.730469 15.761719 18.578125 15.765625 18.480469 15.671875 L 17.617188 14.824219 C 17.542969 14.753906 17.46875 14.6875 17.390625 14.632812 C 17.351562 14.601562 17.308594 14.570312 17.269531 14.542969 L 16.699219 14.777344 C 16.097656 15.027344 15.519531 15.167969 14.996094 15.296875 C 13.789062 15.589844 12.886719 15.8125 12.789062 17.230469 L 12.671875 18.984375 C 12.664062 19.117188 12.546875 19.21875 12.414062 19.207031 C 12.28125 19.199219 12.179688 19.085938 12.191406 18.949219 L 12.308594 17.199219 C 12.425781 15.425781 13.476562 15.167969 14.882812 14.828125 C 15.390625 14.703125 15.949219 14.566406 16.515625 14.332031 L 17.191406 14.054688 C 17.261719 14.019531 17.351562 14.023438 17.421875 14.066406 C 17.507812 14.121094 17.59375 14.179688 17.683594 14.246094 C 17.769531 14.3125 17.863281 14.390625 17.957031 14.480469 L 18.648438 15.160156 L 19.320312 14.484375 C 19.410156 14.390625 19.503906 14.3125 19.59375 14.242188 C 19.683594 14.171875 19.769531 14.113281 19.851562 14.058594 L 19.851562 14.0625 C 19.914062 14.019531 20 14.011719 20.074219 14.042969 L 20.761719 14.332031 C 21.339844 14.578125 21.910156 14.71875 22.425781 14.84375 C 23.8125 15.183594 24.851562 15.441406 24.96875 17.199219 L 25.304688 22.222656 C 25.308594 22.230469 25.308594 22.242188 25.308594 22.253906 C 25.308594 22.386719 25.199219 22.492188 25.066406 22.492188 L 15.992188 22.492188 " fill-opacity="1" fill-rule="nonzero"/></g><path fill="#935f3d" d="M 14.015625 7.820312 L 13.550781 7.820312 C 13.425781 7.820312 13.308594 7.871094 13.222656 7.957031 C 13.140625 8.042969 13.085938 8.15625 13.085938 8.285156 L 13.085938 9.371094 C 13.085938 9.441406 13.117188 9.507812 13.164062 9.554688 C 13.210938 9.601562 13.277344 9.628906 13.347656 9.628906 L 14.015625 9.628906 Z M 13.550781 7.335938 L 14.257812 7.335938 C 14.390625 7.335938 14.5 7.445312 14.5 7.578125 L 14.5 9.871094 C 14.5 10.003906 14.390625 10.113281 14.257812 10.113281 L 13.347656 10.113281 C 13.140625 10.113281 12.957031 10.03125 12.820312 9.894531 C 12.6875 9.761719 12.601562 9.574219 12.601562 9.371094 L 12.601562 8.285156 C 12.601562 8.023438 12.710938 7.785156 12.882812 7.613281 C 13.054688 7.441406 13.289062 7.335938 13.550781 7.335938 " fill-opacity="1" fill-rule="nonzero"/><path fill="#935f3d" d="M 23.019531 7.335938 L 23.726562 7.335938 C 23.988281 7.335938 24.222656 7.441406 24.394531 7.613281 C 24.566406 7.785156 24.675781 8.023438 24.675781 8.285156 L 24.675781 9.371094 C 24.675781 9.574219 24.589844 9.761719 24.457031 9.894531 C 24.320312 10.03125 24.136719 10.113281 23.929688 10.113281 L 23.019531 10.113281 C 22.886719 10.113281 22.777344 10.003906 22.777344 9.871094 L 22.777344 7.578125 C 22.777344 7.445312 22.886719 7.335938 23.019531 7.335938 Z M 23.726562 7.820312 L 23.261719 7.820312 L 23.261719 9.628906 L 23.929688 9.628906 C 24 9.628906 24.066406 9.601562 24.113281 9.554688 C 24.160156 9.507812 24.191406 9.441406 24.191406 9.371094 L 24.191406 8.285156 C 24.191406 8.15625 24.136719 8.042969 24.054688 7.957031 C 23.96875 7.871094 23.851562 7.820312 23.726562 7.820312 " fill-opacity="1" fill-rule="nonzero"/><path fill="#935f3d" d="M 19.207031 11.914062 C 19.074219 11.914062 18.964844 11.804688 18.964844 11.671875 C 18.964844 11.539062 19.074219 11.429688 19.207031 11.429688 L 22.113281 11.429688 C 22.710938 11.429688 23.027344 11.335938 23.175781 11.121094 C 23.335938 10.890625 23.359375 10.476562 23.359375 9.871094 C 23.359375 9.738281 23.46875 9.628906 23.601562 9.628906 C 23.734375 9.628906 23.84375 9.738281 23.84375 9.871094 C 23.84375 10.570312 23.808594 11.054688 23.570312 11.398438 C 23.320312 11.757812 22.890625 11.914062 22.113281 11.914062 L 19.207031 11.914062 " fill-opacity="1" fill-rule="nonzero"/><path fill="#935f3d" d="M 18.835938 11.609375 L 18.441406 11.609375 C 18.417969 11.609375 18.394531 11.617188 18.382812 11.632812 L 18.378906 11.632812 C 18.367188 11.648438 18.355469 11.671875 18.355469 11.695312 C 18.355469 11.71875 18.367188 11.738281 18.378906 11.753906 L 18.382812 11.753906 C 18.394531 11.769531 18.417969 11.777344 18.441406 11.777344 L 18.835938 11.777344 C 18.859375 11.777344 18.882812 11.769531 18.894531 11.753906 L 18.898438 11.753906 C 18.910156 11.738281 18.921875 11.71875 18.921875 11.695312 C 18.921875 11.671875 18.910156 11.648438 18.898438 11.632812 L 18.894531 11.632812 C 18.882812 11.617188 18.859375 11.609375 18.835938 11.609375 Z M 18.441406 11.125 L 18.835938 11.125 C 18.992188 11.125 19.132812 11.1875 19.238281 11.292969 C 19.339844 11.398438 19.40625 11.539062 19.40625 11.695312 C 19.40625 11.847656 19.339844 11.992188 19.238281 12.09375 L 19.238281 12.097656 C 19.132812 12.199219 18.992188 12.261719 18.835938 12.261719 L 18.441406 12.261719 C 18.285156 12.261719 18.144531 12.199219 18.039062 12.097656 L 18.039062 12.09375 C 17.9375 11.992188 17.871094 11.847656 17.871094 11.695312 C 17.871094 11.539062 17.9375 11.394531 18.039062 11.292969 C 18.144531 11.1875 18.285156 11.125 18.441406 11.125 " fill-opacity="1" fill-rule="nonzero"/><g clip-path="url(#804d089377)"><path fill="#935f3d" d="M 15.121094 16.097656 C 15.617188 15.96875 16.140625 15.976562 16.632812 16.113281 C 16.675781 16.125 16.714844 16.144531 16.75 16.179688 C 16.84375 16.273438 16.84375 16.425781 16.75 16.519531 L 14.816406 18.453125 L 16.289062 19.925781 L 18.222656 17.992188 C 18.25 17.964844 18.285156 17.941406 18.328125 17.929688 C 18.453125 17.894531 18.589844 17.96875 18.625 18.097656 C 18.765625 18.59375 18.773438 19.121094 18.644531 19.621094 C 18.519531 20.101562 18.269531 20.558594 17.890625 20.933594 C 17.527344 21.300781 17.085938 21.546875 16.621094 21.675781 C 16.179688 21.796875 15.722656 21.8125 15.277344 21.722656 L 11.339844 25.664062 C 11.027344 25.972656 10.617188 26.128906 10.210938 26.128906 C 9.800781 26.128906 9.390625 25.972656 9.078125 25.664062 C 8.769531 25.351562 8.613281 24.941406 8.613281 24.53125 C 8.613281 24.121094 8.769531 23.714844 9.078125 23.402344 L 13.019531 19.464844 C 12.929688 19.019531 12.945312 18.558594 13.066406 18.121094 C 13.195312 17.65625 13.441406 17.214844 13.804688 16.851562 C 14.183594 16.472656 14.640625 16.222656 15.121094 16.097656 Z M 16.082031 16.5 C 15.804688 16.472656 15.519531 16.496094 15.242188 16.566406 C 14.84375 16.667969 14.464844 16.878906 14.148438 17.191406 C 13.84375 17.5 13.636719 17.863281 13.53125 18.25 C 13.421875 18.652344 13.414062 19.078125 13.515625 19.480469 C 13.539062 19.566406 13.511719 19.652344 13.453125 19.710938 L 9.421875 23.746094 C 9.207031 23.960938 9.097656 24.246094 9.097656 24.53125 C 9.097656 24.816406 9.207031 25.105469 9.421875 25.320312 C 9.636719 25.535156 9.921875 25.644531 10.210938 25.644531 C 10.496094 25.644531 10.78125 25.535156 10.996094 25.320312 L 15.03125 21.289062 C 15.09375 21.222656 15.1875 21.203125 15.273438 21.226562 C 15.671875 21.324219 16.09375 21.320312 16.492188 21.210938 C 16.878906 21.105469 17.242188 20.898438 17.546875 20.59375 C 17.863281 20.277344 18.074219 19.898438 18.175781 19.5 C 18.246094 19.222656 18.269531 18.9375 18.242188 18.65625 L 16.574219 20.324219 C 16.496094 20.402344 16.390625 20.445312 16.289062 20.445312 C 16.1875 20.445312 16.082031 20.402344 16.003906 20.324219 L 14.417969 18.738281 C 14.410156 18.730469 14.402344 18.722656 14.398438 18.71875 C 14.332031 18.640625 14.296875 18.546875 14.296875 18.453125 C 14.296875 18.351562 14.335938 18.246094 14.417969 18.167969 L 16.082031 16.5 " fill-opacity="1" fill-rule="nonzero"/></g><path fill="#935f3d" d="M 13.15625 21.242188 C 13.25 21.148438 13.40625 21.148438 13.5 21.242188 C 13.59375 21.335938 13.59375 21.492188 13.5 21.585938 L 10.378906 24.707031 C 10.28125 24.800781 10.128906 24.800781 10.035156 24.707031 C 9.941406 24.613281 9.941406 24.457031 10.035156 24.363281 L 13.15625 21.242188 " fill-opacity="1" fill-rule="nonzero"/><path fill="#935f3d" d="M 9.664062 19.617188 C 9.445312 19.394531 9.140625 19.261719 8.804688 19.261719 C 8.464844 19.261719 8.160156 19.394531 7.941406 19.617188 C 7.722656 19.835938 7.585938 20.140625 7.585938 20.476562 C 7.585938 20.816406 7.722656 21.121094 7.941406 21.339844 C 8.160156 21.558594 8.464844 21.695312 8.804688 21.695312 C 9.140625 21.695312 9.445312 21.558594 9.664062 21.339844 C 9.886719 21.121094 10.019531 20.816406 10.019531 20.476562 C 10.019531 20.140625 9.886719 19.835938 9.664062 19.617188 Z M 8.804688 18.777344 C 9.273438 18.777344 9.699219 18.964844 10.007812 19.273438 C 10.316406 19.582031 10.503906 20.007812 10.503906 20.476562 C 10.503906 20.949219 10.316406 21.375 10.007812 21.683594 C 9.699219 21.992188 9.273438 22.179688 8.804688 22.179688 C 8.332031 22.179688 7.90625 21.992188 7.597656 21.683594 C 7.289062 21.375 7.101562 20.949219 7.101562 20.476562 C 7.101562 20.007812 7.289062 19.582031 7.597656 19.273438 C 7.90625 18.964844 8.332031 18.777344 8.804688 18.777344 " fill-opacity="1" fill-rule="nonzero"/><g clip-path="url(#77f6e11db6)"><path fill="#935f3d" d="M 8.867188 24.105469 C 9 24.105469 9.109375 24.214844 9.109375 24.347656 C 9.109375 24.480469 9 24.589844 8.867188 24.589844 L 8.367188 24.589844 C 8.238281 24.589844 8.136719 24.492188 8.125 24.367188 L 7.992188 23.535156 C 7.855469 23.5 7.722656 23.453125 7.59375 23.402344 C 7.460938 23.347656 7.335938 23.285156 7.214844 23.214844 L 6.515625 23.71875 C 6.417969 23.789062 6.285156 23.777344 6.203125 23.691406 L 6.203125 23.695312 L 5.589844 23.078125 C 5.5 22.988281 5.492188 22.847656 5.570312 22.753906 L 6.066406 22.066406 C 5.996094 21.945312 5.933594 21.820312 5.878906 21.6875 C 5.828125 21.558594 5.78125 21.425781 5.746094 21.289062 L 4.894531 21.152344 C 4.777344 21.132812 4.691406 21.03125 4.691406 20.914062 L 4.691406 20.042969 C 4.691406 19.914062 4.789062 19.8125 4.914062 19.800781 L 5.746094 19.667969 C 5.78125 19.53125 5.828125 19.398438 5.878906 19.269531 C 5.933594 19.136719 5.996094 19.011719 6.066406 18.890625 L 5.5625 18.191406 C 5.492188 18.09375 5.503906 17.960938 5.589844 17.878906 L 6.203125 17.261719 C 6.292969 17.175781 6.433594 17.167969 6.527344 17.246094 L 7.214844 17.742188 C 7.335938 17.671875 7.460938 17.609375 7.59375 17.554688 C 7.722656 17.503906 7.855469 17.457031 7.992188 17.421875 L 8.128906 16.570312 C 8.148438 16.453125 8.25 16.367188 8.367188 16.367188 L 9.238281 16.367188 C 9.367188 16.367188 9.46875 16.464844 9.480469 16.589844 L 9.613281 17.421875 C 9.75 17.457031 9.882812 17.503906 10.011719 17.554688 C 10.144531 17.609375 10.269531 17.671875 10.390625 17.742188 L 11.089844 17.238281 C 11.1875 17.167969 11.320312 17.179688 11.402344 17.261719 L 12.019531 17.878906 C 12.105469 17.96875 12.113281 18.109375 12.035156 18.203125 L 11.539062 18.890625 C 11.609375 19.011719 11.671875 19.136719 11.726562 19.269531 C 11.777344 19.398438 11.824219 19.53125 11.859375 19.667969 L 12.710938 19.804688 C 12.839844 19.824219 12.929688 19.949219 12.910156 20.082031 C 12.890625 20.210938 12.765625 20.300781 12.632812 20.28125 L 11.636719 20.121094 C 11.535156 20.109375 11.449219 20.035156 11.425781 19.929688 C 11.390625 19.765625 11.34375 19.605469 11.277344 19.453125 C 11.214844 19.300781 11.136719 19.152344 11.042969 19.011719 C 10.992188 18.929688 10.992188 18.820312 11.050781 18.738281 L 11.53125 18.074219 L 11.207031 17.75 L 10.550781 18.226562 C 10.472656 18.285156 10.359375 18.292969 10.269531 18.238281 C 10.128906 18.144531 9.980469 18.066406 9.828125 18.003906 C 9.675781 17.9375 9.515625 17.890625 9.351562 17.855469 C 9.253906 17.835938 9.179688 17.757812 9.160156 17.65625 L 9.03125 16.851562 L 8.574219 16.851562 L 8.445312 17.644531 C 8.433594 17.746094 8.359375 17.832031 8.253906 17.855469 C 8.089844 17.890625 7.929688 17.9375 7.777344 18.003906 C 7.625 18.066406 7.476562 18.144531 7.335938 18.238281 C 7.253906 18.289062 7.144531 18.289062 7.0625 18.230469 L 6.402344 17.75 L 6.074219 18.074219 L 6.550781 18.730469 C 6.613281 18.808594 6.621094 18.921875 6.5625 19.011719 C 6.46875 19.152344 6.390625 19.300781 6.328125 19.453125 C 6.261719 19.605469 6.214844 19.765625 6.179688 19.929688 C 6.160156 20.027344 6.082031 20.105469 5.980469 20.121094 L 5.175781 20.25 L 5.175781 20.707031 L 5.972656 20.835938 C 6.070312 20.847656 6.15625 20.921875 6.179688 21.027344 C 6.214844 21.191406 6.261719 21.351562 6.328125 21.503906 C 6.390625 21.65625 6.46875 21.804688 6.5625 21.945312 C 6.613281 22.027344 6.613281 22.136719 6.554688 22.21875 L 6.074219 22.882812 L 6.402344 23.207031 L 7.054688 22.730469 C 7.132812 22.671875 7.246094 22.664062 7.335938 22.71875 C 7.476562 22.8125 7.625 22.890625 7.777344 22.953125 C 7.929688 23.019531 8.089844 23.066406 8.253906 23.101562 C 8.351562 23.121094 8.429688 23.199219 8.445312 23.300781 L 8.574219 24.105469 L 8.867188 24.105469 " fill-opacity="1" fill-rule="nonzero"/></g></svg>