<svg xmlns="http://www.w3.org/2000/svg" xmlns:xlink="http://www.w3.org/1999/xlink" width="40" zoomAndPan="magnify" viewBox="0 0 30 30.000001" height="40" preserveAspectRatio="xMidYMid meet" version="1.0"><defs><clipPath id="7b8ec3aebe"><path d="M 0.484375 0 L 29.515625 0 L 29.515625 29.03125 L 0.484375 29.03125 Z M 0.484375 0 " clip-rule="nonzero"/></clipPath><clipPath id="86b1f59b8f"><path d="M 4.867188 2.902344 L 25.191406 2.902344 L 25.191406 26.128906 L 4.867188 26.128906 Z M 4.867188 2.902344 " clip-rule="nonzero"/></clipPath></defs><g clip-path="url(#7b8ec3aebe)"><path fill="#ffffff" d="M 0.484375 0 L 29.515625 0 L 29.515625 29.03125 L 0.484375 29.03125 Z M 0.484375 0 " fill-opacity="1" fill-rule="nonzero"/><path fill="#ffffff" d="M 0.484375 0 L 29.515625 0 L 29.515625 29.03125 L 0.484375 29.03125 Z M 0.484375 0 " fill-opacity="1" fill-rule="nonzero"/></g><g clip-path="url(#86b1f59b8f)"><path fill="#935f3d" d="M 17.4375 25.1875 L 10.773438 25.1875 C 10.660156 25.1875 10.570312 25.097656 10.570312 24.984375 L 10.570312 20.976562 C 10.570312 20.265625 11.007812 19.628906 11.667969 19.371094 L 13.820312 18.535156 C 13.863281 18.519531 13.90625 18.519531 13.949219 18.53125 C 14.734375 18.753906 15.519531 18.757812 16.304688 18.53125 C 16.347656 18.519531 16.394531 18.519531 16.433594 18.535156 L 17.703125 19.027344 C 18.429688 18.417969 19.363281 18.054688 20.386719 18.054688 C 21.574219 18.054688 22.644531 18.550781 23.40625 19.347656 C 23.78125 18.996094 24.125 18.683594 24.402344 18.457031 C 24.648438 18.257812 24.84375 18.121094 24.960938 18.078125 C 25.09375 18.027344 25.191406 18.0625 25.242188 18.109375 C 25.289062 18.148438 25.332031 18.214844 25.320312 18.320312 C 25.3125 18.441406 25.1875 18.707031 24.972656 19.0625 C 24.757812 19.414062 24.453125 19.859375 24.113281 20.34375 C 24.398438 20.910156 24.5625 21.550781 24.5625 22.230469 C 24.5625 24.535156 22.691406 26.40625 20.386719 26.40625 C 19.234375 26.40625 18.195312 25.941406 17.4375 25.1875 Z M 17.375 19.335938 C 17.246094 19.289062 17.09375 19.230469 16.945312 19.171875 L 16.230469 20.796875 C 16.203125 20.855469 16.148438 20.898438 16.082031 20.90625 C 16.015625 20.914062 15.953125 20.886719 15.914062 20.832031 C 15.664062 20.5 15.457031 20.316406 15.3125 20.214844 L 15.3125 24.78125 L 17.078125 24.78125 C 16.535156 24.074219 16.207031 23.1875 16.207031 22.230469 C 16.207031 21.109375 16.652344 20.089844 17.375 19.335938 Z M 16.601562 19.039062 C 16.507812 19 16.429688 18.972656 16.386719 18.953125 C 16.125 19.207031 15.445312 19.863281 15.445312 19.863281 C 15.589844 19.957031 15.789062 20.109375 16.015625 20.371094 Z M 15.746094 19.066406 C 15.332031 19.121094 14.921875 19.121094 14.507812 19.0625 L 15.128906 19.660156 Z M 13.867188 18.953125 L 13.652344 19.039062 C 13.835938 19.449219 14.242188 20.371094 14.242188 20.371094 C 14.46875 20.109375 14.664062 19.957031 14.808594 19.863281 Z M 13.3125 19.171875 L 11.816406 19.75 C 11.308594 19.949219 10.976562 20.433594 10.976562 20.976562 L 10.976562 24.78125 L 12.617188 24.78125 L 12.617188 21.855469 C 12.617188 21.742188 12.707031 21.652344 12.820312 21.652344 C 12.933594 21.652344 13.023438 21.742188 13.023438 21.855469 L 13.023438 24.78125 L 14.945312 24.78125 L 14.945312 20.214844 C 14.796875 20.316406 14.589844 20.5 14.339844 20.832031 C 14.300781 20.886719 14.238281 20.914062 14.171875 20.90625 C 14.109375 20.898438 14.050781 20.855469 14.027344 20.796875 Z M 23.140625 19.601562 C 22.449219 18.875 21.46875 18.417969 20.386719 18.417969 C 19.441406 18.417969 18.578125 18.765625 17.910156 19.332031 C 17.886719 19.390625 17.835938 19.433594 17.78125 19.449219 C 17.039062 20.144531 16.574219 21.132812 16.574219 22.230469 C 16.574219 23.1875 16.929688 24.0625 17.511719 24.730469 C 17.554688 24.746094 17.589844 24.777344 17.609375 24.816406 C 17.648438 24.839844 17.675781 24.878906 17.6875 24.917969 C 18.378906 25.609375 19.332031 26.039062 20.386719 26.039062 C 22.488281 26.039062 24.195312 24.332031 24.195312 22.230469 C 24.195312 21.679688 24.078125 21.160156 23.867188 20.6875 C 22.671875 22.359375 21.152344 24.308594 21.152344 24.308594 C 21.152344 24.3125 21.148438 24.3125 21.148438 24.316406 C 20.976562 24.515625 20.726562 24.632812 20.460938 24.636719 C 20.199219 24.640625 19.945312 24.53125 19.765625 24.335938 L 17.777344 22.152344 C 17.4375 21.777344 17.464844 21.191406 17.839844 20.851562 C 18.214844 20.507812 18.800781 20.535156 19.140625 20.910156 L 20.433594 22.332031 C 20.835938 21.914062 22.058594 20.640625 23.140625 19.601562 Z M 23.753906 20.21875 C 24.113281 19.707031 24.433594 19.234375 24.660156 18.871094 C 24.722656 18.769531 24.777344 18.675781 24.820312 18.59375 C 24.761719 18.636719 24.699219 18.6875 24.632812 18.742188 C 24.332031 18.988281 23.945312 19.339844 23.53125 19.734375 C 23.527344 19.738281 23.523438 19.742188 23.519531 19.746094 C 23.519531 19.75 23.515625 19.75 23.515625 19.75 C 22.179688 21.023438 20.5625 22.726562 20.5625 22.726562 C 20.527344 22.765625 20.480469 22.785156 20.429688 22.785156 C 20.429688 22.785156 20.363281 22.796875 20.296875 22.726562 L 20.253906 22.679688 C 20.023438 22.429688 18.871094 21.160156 18.871094 21.160156 C 18.664062 20.933594 18.3125 20.917969 18.085938 21.121094 C 17.859375 21.328125 17.84375 21.679688 18.050781 21.90625 L 20.039062 24.089844 C 20.144531 24.207031 20.296875 24.273438 20.457031 24.269531 C 20.613281 24.269531 20.761719 24.199219 20.867188 24.078125 C 20.941406 23.980469 22.558594 21.902344 23.742188 20.230469 C 23.746094 20.226562 23.75 20.222656 23.753906 20.21875 Z M 12.628906 16.308594 C 12.023438 16.195312 11.65625 15.621094 11.558594 15.199219 C 11.53125 15.070312 11.523438 14.957031 11.539062 14.867188 C 11.554688 14.773438 11.59375 14.703125 11.644531 14.65625 C 11.742188 14.558594 11.84375 14.511719 11.9375 14.5 C 11.816406 14.09375 11.71875 13.652344 11.714844 13.289062 C 11.710938 12.839844 11.855469 12.503906 12.1875 12.390625 C 12.230469 12.214844 12.320312 11.886719 12.488281 11.546875 C 12.714844 11.074219 13.089844 10.578125 13.648438 10.386719 C 14.027344 10.257812 14.492188 10.261719 15.066406 10.507812 C 16.734375 11.234375 18.179688 11.386719 18.179688 11.386719 C 18.253906 11.394531 18.320312 11.445312 18.347656 11.515625 C 18.375 11.585938 18.359375 11.667969 18.308594 11.726562 C 18.308594 11.726562 18.101562 11.957031 17.78125 12.117188 C 17.84375 12.175781 17.917969 12.238281 18.003906 12.296875 C 18.152344 12.402344 18.328125 12.492188 18.515625 12.484375 C 18.589844 12.484375 18.664062 12.523438 18.699219 12.59375 C 18.738281 12.660156 18.730469 12.742188 18.6875 12.804688 C 18.6875 12.804688 18.453125 13.136719 18.222656 13.371094 C 18.171875 13.421875 18.117188 13.472656 18.066406 13.511719 C 18.121094 13.699219 18.164062 14.03125 18.058594 14.511719 C 18.140625 14.523438 18.234375 14.566406 18.324219 14.65625 C 18.375 14.703125 18.414062 14.773438 18.429688 14.867188 C 18.445312 14.957031 18.4375 15.070312 18.410156 15.203125 C 18.3125 15.621094 17.945312 16.199219 17.339844 16.308594 C 17.082031 16.84375 16.730469 17.347656 16.320312 17.707031 C 15.921875 18.054688 15.464844 18.269531 14.984375 18.269531 C 14.503906 18.269531 14.046875 18.054688 13.648438 17.707031 C 13.238281 17.347656 12.886719 16.84375 12.628906 16.308594 Z M 12.078125 14.925781 C 12.046875 14.910156 11.996094 14.894531 11.941406 14.933594 C 11.941406 14.945312 11.9375 14.972656 11.941406 14.992188 C 11.941406 15.066406 11.964844 15.160156 12 15.253906 C 12.074219 15.445312 12.210938 15.65625 12.410156 15.789062 C 12.402344 15.757812 12.390625 15.726562 12.378906 15.695312 C 12.355469 15.636719 12.21875 15.328125 12.078125 14.925781 Z M 17.582031 14.703125 C 17.839844 13.90625 17.640625 13.53125 17.640625 13.53125 C 17.609375 13.480469 17.605469 13.417969 17.625 13.359375 C 17.644531 13.304688 17.6875 13.257812 17.746094 13.238281 C 17.800781 13.21875 17.863281 13.152344 17.933594 13.082031 C 18.011719 13.003906 18.089844 12.914062 18.15625 12.832031 C 18.015625 12.785156 17.886719 12.714844 17.769531 12.632812 C 17.472656 12.425781 17.265625 12.160156 17.265625 12.160156 C 17.222656 12.105469 17.210938 12.035156 17.234375 11.96875 C 17.257812 11.902344 17.308594 11.855469 17.378906 11.835938 C 17.480469 11.8125 17.578125 11.765625 17.664062 11.71875 C 17.085938 11.617188 16.046875 11.378906 14.902344 10.882812 C 14.449219 10.6875 14.082031 10.671875 13.78125 10.773438 C 13.328125 10.929688 13.039062 11.339844 12.851562 11.722656 C 12.636719 12.171875 12.5625 12.59375 12.5625 12.59375 C 12.546875 12.679688 12.476562 12.746094 12.390625 12.757812 C 12.160156 12.789062 12.121094 13.015625 12.121094 13.285156 C 12.125 13.6875 12.257812 14.195312 12.402344 14.625 C 12.460938 14.355469 12.554688 14.117188 12.65625 13.914062 C 12.917969 13.394531 13.492188 13.105469 14.066406 13.203125 C 14.445312 13.269531 14.863281 13.339844 14.984375 13.363281 L 15.902344 13.203125 C 16.476562 13.105469 17.050781 13.394531 17.3125 13.914062 C 17.425781 14.136719 17.527344 14.402344 17.582031 14.703125 Z M 17.554688 15.789062 C 17.757812 15.65625 17.890625 15.445312 17.96875 15.253906 C 18.003906 15.160156 18.027344 15.066406 18.027344 14.992188 C 18.03125 14.972656 18.027344 14.945312 18.027344 14.933594 C 18.015625 14.925781 18.007812 14.921875 18 14.917969 C 17.980469 14.917969 17.964844 14.933594 17.953125 14.941406 C 17.941406 14.953125 17.929688 14.960938 17.921875 14.96875 C 17.84375 15.191406 17.734375 15.4375 17.585938 15.707031 C 17.574219 15.734375 17.566406 15.761719 17.554688 15.789062 Z M 12.953125 16.042969 C 13.191406 16.5625 13.523438 17.054688 13.917969 17.398438 C 14.238281 17.679688 14.597656 17.863281 14.984375 17.863281 C 15.371094 17.863281 15.730469 17.679688 16.050781 17.398438 C 16.445312 17.054688 16.777344 16.5625 17.011719 16.046875 C 17.015625 16.039062 17.015625 16.035156 17.019531 16.03125 C 17.089844 15.878906 17.148438 15.726562 17.199219 15.574219 C 17.285156 14.972656 17.132812 14.464844 16.949219 14.097656 C 16.765625 13.738281 16.371094 13.535156 15.96875 13.605469 L 15.019531 13.769531 C 14.996094 13.773438 14.972656 13.773438 14.949219 13.769531 C 14.949219 13.769531 14.445312 13.683594 14 13.605469 C 13.597656 13.539062 13.203125 13.738281 13.019531 14.097656 L 13.019531 14.101562 C 12.835938 14.46875 12.683594 14.972656 12.769531 15.574219 C 12.820312 15.726562 12.878906 15.878906 12.949219 16.027344 C 12.949219 16.035156 12.953125 16.039062 12.953125 16.042969 Z M 15.128906 2.921875 C 16.621094 2.921875 17.835938 4.136719 17.835938 5.628906 C 17.835938 7.125 16.621094 8.339844 15.128906 8.339844 C 13.632812 8.339844 12.421875 7.125 12.421875 5.628906 C 12.421875 4.136719 13.632812 2.921875 15.128906 2.921875 Z M 15.128906 3.289062 C 13.835938 3.289062 12.785156 4.339844 12.785156 5.628906 C 12.785156 6.921875 13.835938 7.972656 15.128906 7.972656 C 16.417969 7.972656 17.46875 6.921875 17.46875 5.628906 C 17.46875 4.339844 16.417969 3.289062 15.128906 3.289062 Z M 15.128906 6.785156 C 15.394531 6.785156 15.613281 6.566406 15.613281 6.300781 C 15.613281 6.03125 15.394531 5.8125 15.128906 5.8125 C 14.65625 5.8125 14.273438 5.433594 14.273438 4.960938 C 14.273438 4.554688 14.5625 4.214844 14.945312 4.128906 L 14.945312 3.914062 C 14.945312 3.8125 15.027344 3.730469 15.128906 3.730469 C 15.230469 3.730469 15.3125 3.8125 15.3125 3.914062 L 15.3125 4.128906 C 15.691406 4.214844 15.980469 4.554688 15.980469 4.960938 C 15.980469 5.0625 15.898438 5.144531 15.796875 5.144531 C 15.695312 5.144531 15.613281 5.0625 15.613281 4.960938 C 15.613281 4.695312 15.394531 4.476562 15.128906 4.476562 C 14.859375 4.476562 14.640625 4.695312 14.640625 4.960938 C 14.640625 5.230469 14.859375 5.449219 15.128906 5.449219 C 15.597656 5.449219 15.980469 5.828125 15.980469 6.300781 C 15.980469 6.707031 15.691406 7.046875 15.3125 7.132812 L 15.3125 7.347656 C 15.3125 7.449219 15.230469 7.53125 15.128906 7.53125 C 15.027344 7.53125 14.945312 7.449219 14.945312 7.347656 L 14.945312 7.132812 C 14.5625 7.046875 14.273438 6.707031 14.273438 6.300781 C 14.273438 6.199219 14.359375 6.117188 14.457031 6.117188 C 14.558594 6.117188 14.640625 6.199219 14.640625 6.300781 C 14.640625 6.566406 14.859375 6.785156 15.128906 6.785156 Z M 22.679688 11.082031 C 24.171875 11.082031 25.386719 12.296875 25.386719 13.792969 C 25.386719 15.285156 24.171875 16.5 22.679688 16.5 C 21.183594 16.5 19.972656 15.285156 19.972656 13.792969 C 19.972656 12.296875 21.183594 11.082031 22.679688 11.082031 Z M 22.679688 11.449219 C 21.386719 11.449219 20.335938 12.5 20.335938 13.792969 C 20.335938 15.082031 21.386719 16.132812 22.679688 16.132812 C 23.96875 16.132812 25.019531 15.082031 25.019531 13.792969 C 25.019531 12.5 23.96875 11.449219 22.679688 11.449219 Z M 22.679688 12.867188 C 23.128906 12.40625 23.839844 12.445312 24.214844 12.738281 C 24.636719 13.0625 24.675781 13.714844 24.257812 14.367188 C 23.996094 14.808594 23.324219 15.414062 22.761719 15.707031 C 22.710938 15.734375 22.648438 15.734375 22.59375 15.707031 C 22.03125 15.414062 21.359375 14.808594 21.097656 14.371094 C 20.679688 13.714844 20.722656 13.0625 21.140625 12.738281 C 21.515625 12.445312 22.226562 12.40625 22.679688 12.867188 Z M 22.523438 13.257812 C 22.234375 12.804688 21.65625 12.800781 21.367188 13.027344 C 21.070312 13.253906 21.113281 13.714844 21.40625 14.171875 C 21.410156 14.175781 21.410156 14.175781 21.410156 14.179688 C 21.632812 14.550781 22.191406 15.058594 22.679688 15.335938 C 23.167969 15.058594 23.722656 14.550781 23.945312 14.179688 C 23.945312 14.175781 23.949219 14.175781 23.949219 14.171875 C 24.242188 13.714844 24.285156 13.253906 23.992188 13.027344 C 23.699219 12.800781 23.121094 12.804688 22.832031 13.257812 C 22.800781 13.3125 22.742188 13.34375 22.679688 13.34375 C 22.617188 13.34375 22.558594 13.3125 22.523438 13.257812 Z M 7.578125 11.082031 C 9.070312 11.082031 10.285156 12.296875 10.285156 13.792969 C 10.285156 15.285156 9.070312 16.5 7.578125 16.5 C 6.082031 16.5 4.867188 15.285156 4.867188 13.792969 C 4.867188 12.296875 6.082031 11.082031 7.578125 11.082031 Z M 9.40625 15.253906 C 9.726562 14.851562 9.917969 14.34375 9.917969 13.792969 C 9.917969 12.5 8.867188 11.449219 7.578125 11.449219 C 6.285156 11.449219 5.234375 12.5 5.234375 13.792969 C 5.234375 15.082031 6.285156 16.132812 7.578125 16.132812 C 8.222656 16.132812 8.804688 15.871094 9.226562 15.449219 C 9.226562 15.449219 9.222656 15.449219 9.222656 15.449219 L 6.910156 15.449219 C 6.828125 15.449219 6.757812 15.394531 6.734375 15.320312 L 6.042969 15.320312 C 5.941406 15.320312 5.859375 15.238281 5.859375 15.136719 C 5.859375 15.136719 5.859375 13.703125 5.859375 13.703125 L 5.648438 13.703125 C 5.570312 13.703125 5.503906 13.65625 5.476562 13.585938 C 5.449219 13.515625 5.46875 13.433594 5.523438 13.382812 L 7.074219 11.992188 C 7.144531 11.929688 7.25 11.929688 7.320312 11.992188 L 7.703125 12.335938 L 7.941406 12.121094 C 8.011719 12.058594 8.117188 12.058594 8.1875 12.121094 L 9.738281 13.515625 C 9.796875 13.566406 9.816406 13.644531 9.789062 13.71875 C 9.761719 13.789062 9.691406 13.835938 9.617188 13.835938 C 9.617188 13.835938 9.40625 13.835938 9.40625 13.835938 Z M 6.726562 14.953125 C 6.726562 14.53125 6.726562 13.835938 6.726562 13.835938 L 6.515625 13.835938 C 6.4375 13.835938 6.371094 13.789062 6.34375 13.71875 C 6.316406 13.644531 6.335938 13.566406 6.390625 13.515625 L 7.429688 12.582031 L 7.199219 12.375 L 6.109375 13.351562 C 6.175781 13.378906 6.226562 13.445312 6.226562 13.519531 C 6.226562 13.519531 6.226562 14.953125 6.226562 14.953125 Z M 7.824219 12.71875 L 6.980469 13.480469 C 7.046875 13.507812 7.09375 13.574219 7.09375 13.652344 L 7.09375 15.082031 L 8.066406 15.082031 C 8.066406 15.082031 9.039062 15.082031 9.039062 15.082031 L 9.039062 13.652344 C 9.039062 13.574219 9.085938 13.507812 9.152344 13.480469 L 8.066406 12.503906 L 7.828125 12.71875 C 7.828125 12.71875 7.828125 12.71875 7.824219 12.71875 Z M 7.824219 12.71875 " fill-opacity="1" fill-rule="evenodd"/></g></svg>