<svg xmlns="http://www.w3.org/2000/svg" xmlns:xlink="http://www.w3.org/1999/xlink" width="40" zoomAndPan="magnify" viewBox="0 0 30 30.000001" height="40" preserveAspectRatio="xMidYMid meet" version="1.0"><defs><clipPath id="5ac361d33b"><path d="M 0.484375 0 L 29.515625 0 L 29.515625 29.03125 L 0.484375 29.03125 Z M 0.484375 0 " clip-rule="nonzero"/></clipPath><clipPath id="d6a023e8a6"><path d="M 3.386719 2.902344 L 26.613281 2.902344 L 26.613281 26.128906 L 3.386719 26.128906 Z M 3.386719 2.902344 " clip-rule="nonzero"/></clipPath></defs><g clip-path="url(#5ac361d33b)"><path fill="#ffffff" d="M 0.484375 0 L 29.515625 0 L 29.515625 29.03125 L 0.484375 29.03125 Z M 0.484375 0 " fill-opacity="1" fill-rule="nonzero"/><path fill="#ffffff" d="M 0.484375 0 L 29.515625 0 L 29.515625 29.03125 L 0.484375 29.03125 Z M 0.484375 0 " fill-opacity="1" fill-rule="nonzero"/></g><g clip-path="url(#d6a023e8a6)"><path fill="#935f3d" d="M 26.613281 14.515625 C 26.613281 13.566406 25.875 12.792969 24.957031 12.6875 C 24.710938 11.277344 24.148438 9.941406 23.304688 8.746094 C 23.9375 7.96875 23.867188 6.914062 23.199219 6.28125 C 22.53125 5.613281 21.476562 5.542969 20.734375 6.175781 C 19.574219 5.402344 18.203125 4.839844 16.828125 4.59375 C 16.722656 3.640625 15.949219 2.902344 15 2.902344 C 14.050781 2.902344 13.277344 3.640625 13.171875 4.59375 C 11.761719 4.839844 10.425781 5.402344 9.265625 6.210938 C 8.488281 5.542969 7.433594 5.648438 6.800781 6.316406 C 6.167969 6.949219 6.0625 8.042969 6.695312 8.78125 C 5.886719 9.941406 5.324219 11.277344 5.042969 12.6875 C 4.125 12.792969 3.386719 13.566406 3.386719 14.515625 C 3.386719 15.464844 4.125 16.242188 5.042969 16.347656 C 5.289062 17.753906 5.851562 19.125 6.660156 20.289062 C 6.027344 21.0625 6.132812 22.082031 6.765625 22.75 C 7.398438 23.382812 8.453125 23.488281 9.230469 22.855469 C 10.425781 23.664062 11.761719 24.230469 13.171875 24.511719 C 13.277344 25.425781 14.050781 26.128906 15 26.128906 C 15.949219 26.128906 16.722656 25.390625 16.792969 24.476562 C 18.203125 24.230469 19.574219 23.664062 20.734375 22.820312 C 21.511719 23.453125 22.53125 23.347656 23.199219 22.714844 C 23.832031 22.082031 23.9375 21.027344 23.304688 20.253906 C 24.113281 19.054688 24.675781 17.71875 24.921875 16.3125 C 25.875 16.242188 26.613281 15.464844 26.613281 14.515625 Z M 20.628906 20.148438 C 20.101562 20.675781 19.925781 21.554688 20.3125 22.292969 C 19.257812 23.03125 18.027344 23.523438 16.757812 23.769531 C 16.546875 23.03125 15.84375 22.46875 15 22.46875 C 14.15625 22.46875 13.488281 23.03125 13.242188 23.769531 C 11.972656 23.523438 10.742188 23.03125 9.6875 22.292969 C 10.109375 21.519531 9.933594 20.675781 9.371094 20.148438 C 8.839844 19.617188 7.960938 19.441406 7.222656 19.828125 C 6.484375 18.773438 5.992188 17.542969 5.746094 16.277344 C 6.484375 16.03125 7.046875 15.359375 7.046875 14.550781 C 7.046875 13.742188 6.519531 13.039062 5.746094 12.828125 C 5.992188 11.488281 6.519531 10.292969 7.257812 9.203125 C 7.996094 9.589844 8.839844 9.414062 9.40625 8.886719 C 9.933594 8.359375 10.109375 7.511719 9.722656 6.773438 C 10.777344 6.035156 12.007812 5.542969 13.277344 5.296875 C 13.523438 6.035156 14.191406 6.5625 15 6.5625 C 15.808594 6.5625 16.511719 6.035156 16.722656 5.296875 C 17.992188 5.542969 19.222656 6.035156 20.3125 6.773438 C 19.925781 7.511719 20.101562 8.359375 20.628906 8.886719 C 21.160156 9.414062 22.003906 9.589844 22.777344 9.203125 C 23.515625 10.257812 24.007812 11.488281 24.253906 12.757812 C 23.515625 13.003906 22.953125 13.671875 22.953125 14.480469 C 22.953125 15.289062 23.515625 15.992188 24.253906 16.207031 C 24.007812 17.472656 23.515625 18.703125 22.777344 19.757812 C 22.003906 19.40625 21.160156 19.582031 20.628906 20.148438 Z M 25.910156 14.515625 C 25.910156 15.148438 25.417969 15.640625 24.78125 15.640625 C 24.148438 15.640625 23.65625 15.148438 23.65625 14.515625 C 23.65625 13.882812 24.148438 13.390625 24.78125 13.390625 C 25.417969 13.390625 25.910156 13.882812 25.910156 14.515625 Z M 22.707031 6.808594 C 23.164062 7.265625 23.164062 7.96875 22.707031 8.394531 C 22.285156 8.816406 21.546875 8.816406 21.125 8.394531 C 20.664062 7.933594 20.664062 7.230469 21.125 6.808594 C 21.546875 6.351562 22.285156 6.351562 22.707031 6.808594 Z M 15 3.605469 C 15.632812 3.605469 16.125 4.101562 16.125 4.734375 C 16.125 5.367188 15.632812 5.859375 15 5.859375 C 14.367188 5.859375 13.875 5.367188 13.875 4.734375 C 13.875 4.101562 14.367188 3.605469 15 3.605469 Z M 7.292969 6.808594 C 7.75 6.351562 8.453125 6.351562 8.875 6.808594 C 9.335938 7.265625 9.335938 7.96875 8.875 8.394531 C 8.453125 8.816406 7.714844 8.816406 7.292969 8.394531 C 6.835938 7.96875 6.835938 7.230469 7.292969 6.808594 Z M 4.089844 14.515625 C 4.089844 13.882812 4.582031 13.390625 5.21875 13.390625 C 5.851562 13.390625 6.34375 13.882812 6.34375 14.515625 C 6.34375 15.148438 5.851562 15.640625 5.21875 15.640625 C 4.582031 15.640625 4.089844 15.148438 4.089844 14.515625 Z M 7.292969 22.222656 C 6.835938 21.765625 6.835938 21.0625 7.292969 20.640625 C 7.75 20.183594 8.453125 20.183594 8.875 20.640625 C 9.335938 21.097656 9.335938 21.800781 8.875 22.222656 C 8.453125 22.644531 7.714844 22.644531 7.292969 22.222656 Z M 15 25.425781 C 14.367188 25.425781 13.875 24.933594 13.875 24.300781 C 13.875 23.664062 14.367188 23.171875 15 23.171875 C 15.632812 23.171875 16.125 23.664062 16.125 24.300781 C 16.125 24.933594 15.632812 25.425781 15 25.425781 Z M 22.707031 22.222656 C 22.285156 22.644531 21.546875 22.644531 21.125 22.222656 C 20.664062 21.765625 20.664062 21.0625 21.125 20.640625 C 21.582031 20.183594 22.285156 20.183594 22.707031 20.640625 C 23.164062 21.0625 23.164062 21.800781 22.707031 22.222656 Z M 22.707031 22.222656 " fill-opacity="1" fill-rule="nonzero"/></g><path fill="#935f3d" d="M 21.898438 13.390625 L 20.488281 13.214844 C 20.347656 12.617188 20.101562 12.054688 19.785156 11.523438 L 20.628906 10.398438 C 20.734375 10.257812 20.734375 10.046875 20.59375 9.90625 L 19.574219 8.816406 C 19.433594 8.675781 19.257812 8.675781 19.117188 8.78125 L 17.992188 9.660156 C 17.464844 9.34375 16.933594 9.097656 16.335938 8.957031 L 16.160156 7.546875 C 16.125 7.371094 15.984375 7.230469 15.808594 7.230469 L 14.261719 7.230469 C 14.085938 7.230469 13.945312 7.371094 13.910156 7.546875 L 13.734375 8.957031 C 13.136719 9.097656 12.570312 9.34375 12.078125 9.660156 L 10.953125 8.78125 C 10.8125 8.675781 10.601562 8.675781 10.496094 8.816406 L 9.335938 9.941406 C 9.195312 10.082031 9.195312 10.257812 9.300781 10.398438 L 10.144531 11.523438 C 9.828125 12.054688 9.582031 12.617188 9.441406 13.214844 L 8.03125 13.390625 C 7.855469 13.425781 7.714844 13.566406 7.714844 13.742188 L 7.714844 15.289062 C 7.714844 15.464844 7.855469 15.605469 8.03125 15.640625 L 9.441406 15.816406 C 9.582031 16.417969 9.792969 16.980469 10.144531 17.507812 L 9.300781 18.632812 C 9.195312 18.773438 9.195312 18.984375 9.335938 19.089844 L 10.425781 20.183594 C 10.566406 20.324219 10.742188 20.324219 10.882812 20.21875 L 12.007812 19.335938 C 12.535156 19.652344 13.066406 19.898438 13.664062 20.042969 L 13.839844 21.449219 C 13.875 21.625 14.015625 21.765625 14.191406 21.765625 L 15.738281 21.765625 C 15.914062 21.765625 16.054688 21.625 16.089844 21.449219 L 16.265625 20.042969 C 16.863281 19.898438 17.429688 19.652344 17.921875 19.335938 L 19.011719 20.183594 C 19.082031 20.21875 19.152344 20.253906 19.257812 20.253906 C 19.363281 20.253906 19.46875 20.21875 19.539062 20.148438 L 20.628906 19.054688 C 20.769531 18.914062 20.769531 18.738281 20.664062 18.597656 L 19.820312 17.472656 C 20.136719 16.945312 20.382812 16.382812 20.523438 15.78125 L 21.933594 15.605469 C 22.109375 15.570312 22.25 15.429688 22.25 15.253906 L 22.25 13.707031 C 22.214844 13.566406 22.074219 13.425781 21.898438 13.390625 Z M 21.511719 14.972656 L 20.171875 15.148438 C 20.03125 15.183594 19.890625 15.289062 19.890625 15.429688 C 19.75 16.101562 19.503906 16.734375 19.117188 17.296875 C 19.046875 17.4375 19.046875 17.578125 19.117188 17.71875 L 19.925781 18.808594 L 19.257812 19.476562 L 18.203125 18.667969 C 18.097656 18.5625 17.921875 18.5625 17.78125 18.667969 C 17.21875 19.054688 16.582031 19.300781 15.914062 19.441406 C 15.773438 19.476562 15.667969 19.582031 15.632812 19.757812 L 15.457031 21.097656 L 14.507812 21.097656 L 14.332031 19.757812 C 14.296875 19.617188 14.191406 19.476562 14.050781 19.441406 C 13.382812 19.300781 12.746094 19.054688 12.183594 18.667969 C 12.042969 18.597656 11.902344 18.597656 11.761719 18.667969 L 10.707031 19.476562 L 10.074219 18.808594 L 10.882812 17.753906 C 10.988281 17.648438 10.988281 17.4375 10.882812 17.296875 C 10.496094 16.734375 10.25 16.101562 10.109375 15.429688 C 10.074219 15.289062 9.96875 15.183594 9.828125 15.148438 L 8.488281 14.972656 L 8.488281 14.023438 L 9.828125 13.847656 C 9.96875 13.8125 10.109375 13.707031 10.109375 13.566406 C 10.25 12.898438 10.496094 12.265625 10.882812 11.699219 C 10.953125 11.558594 10.953125 11.417969 10.882812 11.277344 L 10.074219 10.222656 L 10.742188 9.554688 L 11.796875 10.363281 C 11.902344 10.46875 12.113281 10.46875 12.253906 10.363281 C 12.816406 9.976562 13.417969 9.730469 14.085938 9.589844 C 14.226562 9.554688 14.332031 9.449219 14.367188 9.273438 L 14.542969 7.933594 L 15.492188 7.933594 L 15.667969 9.273438 C 15.703125 9.414062 15.808594 9.554688 15.949219 9.589844 C 16.617188 9.730469 17.253906 9.976562 17.816406 10.363281 C 17.957031 10.433594 18.097656 10.433594 18.238281 10.363281 L 19.292969 9.554688 L 19.960938 10.222656 L 19.152344 11.3125 C 19.046875 11.417969 19.046875 11.59375 19.152344 11.734375 C 19.539062 12.300781 19.785156 12.933594 19.925781 13.601562 C 19.960938 13.742188 20.066406 13.847656 20.207031 13.882812 L 21.546875 14.058594 L 21.546875 14.972656 Z M 21.511719 14.972656 " fill-opacity="1" fill-rule="nonzero"/><path fill="#935f3d" d="M 15 11.3125 C 13.242188 11.3125 11.796875 12.757812 11.796875 14.515625 C 11.796875 16.277344 13.242188 17.71875 15 17.71875 C 16.757812 17.71875 18.203125 16.277344 18.203125 14.515625 C 18.203125 12.757812 16.757812 11.3125 15 11.3125 Z M 15 17.015625 C 13.628906 17.015625 12.5 15.886719 12.5 14.515625 C 12.5 13.144531 13.628906 12.019531 15 12.019531 C 16.371094 12.019531 17.5 13.144531 17.5 14.515625 C 17.5 15.886719 16.371094 17.015625 15 17.015625 Z M 15 17.015625 " fill-opacity="1" fill-rule="nonzero"/></svg>