<svg xmlns="http://www.w3.org/2000/svg" xmlns:xlink="http://www.w3.org/1999/xlink" width="40" zoomAndPan="magnify" viewBox="0 0 30 30.000001" height="40" preserveAspectRatio="xMidYMid meet" version="1.0"><defs><clipPath id="57b7aa22eb"><path d="M 0.484375 0 L 29.515625 0 L 29.515625 29.03125 L 0.484375 29.03125 Z M 0.484375 0 " clip-rule="nonzero"/></clipPath><clipPath id="fb40ef0e49"><path d="M 14 2.902344 L 16 2.902344 L 16 5 L 14 5 Z M 14 2.902344 " clip-rule="nonzero"/></clipPath><clipPath id="e190154826"><path d="M 14 24 L 16 24 L 16 26.128906 L 14 26.128906 Z M 14 24 " clip-rule="nonzero"/></clipPath><clipPath id="ad20e9d7a1"><path d="M 24 13 L 26.613281 13 L 26.613281 16 L 24 16 Z M 24 13 " clip-rule="nonzero"/></clipPath><clipPath id="0a04667987"><path d="M 3.386719 13 L 6 13 L 6 16 L 3.386719 16 Z M 3.386719 13 " clip-rule="nonzero"/></clipPath></defs><g clip-path="url(#57b7aa22eb)"><path fill="#ffffff" d="M 0.484375 0 L 29.515625 0 L 29.515625 29.03125 L 0.484375 29.03125 Z M 0.484375 0 " fill-opacity="1" fill-rule="nonzero"/><path fill="#ffffff" d="M 0.484375 0 L 29.515625 0 L 29.515625 29.03125 L 0.484375 29.03125 Z M 0.484375 0 " fill-opacity="1" fill-rule="nonzero"/></g><path fill="#935f3d" d="M 16.027344 22.957031 L 13.960938 22.957031 C 13.6875 22.957031 13.457031 22.726562 13.457031 22.441406 L 13.457031 21.039062 C 12.75 20.878906 12.09375 20.605469 11.484375 20.222656 L 10.488281 21.21875 C 10.285156 21.40625 9.945312 21.40625 9.753906 21.21875 L 8.300781 19.761719 C 8.09375 19.558594 8.09375 19.230469 8.300781 19.027344 L 9.292969 18.035156 C 8.910156 17.421875 8.640625 16.753906 8.476562 16.058594 L 7.0625 16.058594 C 6.789062 16.058594 6.558594 15.828125 6.558594 15.542969 L 6.558594 13.476562 C 6.558594 13.203125 6.789062 12.972656 7.0625 12.972656 L 8.476562 12.972656 C 8.640625 12.265625 8.910156 11.609375 9.292969 11 L 8.300781 10.003906 C 8.09375 9.800781 8.09375 9.476562 8.300781 9.269531 L 9.753906 7.816406 C 9.945312 7.609375 10.285156 7.609375 10.488281 7.816406 L 11.484375 8.808594 C 12.09375 8.425781 12.75 8.15625 13.457031 7.992188 L 13.457031 6.578125 C 13.457031 6.304688 13.6875 6.074219 13.960938 6.074219 L 16.027344 6.074219 C 16.3125 6.074219 16.542969 6.304688 16.542969 6.578125 L 16.542969 7.992188 C 17.238281 8.15625 17.90625 8.425781 18.515625 8.808594 L 19.511719 7.816406 C 19.699219 7.609375 20.042969 7.609375 20.246094 7.816406 L 21.699219 9.269531 C 21.90625 9.476562 21.90625 9.800781 21.699219 10.003906 L 20.707031 11 C 21.089844 11.609375 21.359375 12.265625 21.523438 12.972656 L 22.925781 12.972656 C 23.210938 12.972656 23.441406 13.203125 23.441406 13.476562 L 23.441406 15.542969 C 23.441406 15.828125 23.210938 16.058594 22.925781 16.058594 L 21.523438 16.058594 C 21.359375 16.753906 21.089844 17.421875 20.707031 18.035156 L 21.699219 19.027344 C 21.796875 19.121094 21.851562 19.257812 21.851562 19.394531 C 21.851562 19.53125 21.796875 19.667969 21.699219 19.761719 L 20.246094 21.21875 C 20.042969 21.40625 19.699219 21.40625 19.511719 21.21875 L 18.515625 20.222656 C 17.90625 20.605469 17.238281 20.878906 16.542969 21.039062 L 16.542969 22.441406 C 16.542969 22.726562 16.3125 22.957031 16.027344 22.957031 Z M 14 22.414062 L 16 22.414062 L 16 20.824219 C 16 20.6875 16.09375 20.578125 16.21875 20.550781 C 17.007812 20.402344 17.742188 20.085938 18.410156 19.652344 C 18.515625 19.570312 18.652344 19.585938 18.75 19.679688 L 19.878906 20.808594 L 21.292969 19.394531 L 20.164062 18.265625 C 20.066406 18.167969 20.054688 18.035156 20.136719 17.925781 C 20.570312 17.257812 20.882812 16.523438 21.035156 15.734375 C 21.0625 15.613281 21.171875 15.515625 21.304688 15.515625 L 22.898438 15.515625 L 22.898438 13.515625 L 21.304688 13.515625 C 21.171875 13.515625 21.0625 13.421875 21.035156 13.296875 C 20.882812 12.507812 20.570312 11.773438 20.136719 11.109375 C 20.054688 11 20.066406 10.863281 20.164062 10.769531 L 21.292969 9.636719 L 19.878906 8.210938 L 18.75 9.351562 C 18.652344 9.433594 18.515625 9.449219 18.410156 9.378906 C 17.742188 8.929688 17.007812 8.632812 16.21875 8.480469 C 16.09375 8.453125 16 8.332031 16 8.210938 L 16 6.617188 L 14 6.617188 L 14 8.210938 C 14 8.332031 13.90625 8.453125 13.78125 8.480469 C 12.992188 8.632812 12.257812 8.929688 11.589844 9.378906 C 11.484375 9.449219 11.347656 9.433594 11.25 9.351562 L 10.121094 8.222656 L 8.695312 9.636719 L 9.835938 10.769531 C 9.917969 10.863281 9.933594 11 9.863281 11.109375 C 9.414062 11.773438 9.117188 12.507812 8.953125 13.296875 C 8.9375 13.421875 8.816406 13.515625 8.695312 13.515625 L 7.101562 13.515625 L 7.101562 15.515625 L 8.695312 15.515625 C 8.816406 15.515625 8.9375 15.613281 8.964844 15.734375 C 9.117188 16.523438 9.414062 17.257812 9.863281 17.925781 C 9.933594 18.035156 9.917969 18.167969 9.835938 18.265625 L 8.695312 19.394531 L 10.121094 20.808594 L 11.25 19.679688 C 11.347656 19.585938 11.484375 19.570312 11.589844 19.652344 C 12.257812 20.085938 12.992188 20.402344 13.78125 20.550781 C 13.90625 20.578125 14 20.6875 14 20.824219 Z M 14 22.414062 " fill-opacity="1" fill-rule="evenodd"/><path fill="#935f3d" d="M 14.992188 19.421875 C 12.285156 19.421875 10.066406 17.21875 10.066406 14.496094 C 10.066406 12.074219 11.808594 10.03125 14.191406 9.636719 C 14.339844 9.609375 14.476562 9.707031 14.503906 9.855469 C 14.53125 10.003906 14.421875 10.140625 14.285156 10.167969 C 12.164062 10.523438 10.613281 12.332031 10.613281 14.496094 C 10.613281 16.917969 12.585938 18.875 14.992188 18.875 C 17.414062 18.875 19.375 16.917969 19.375 14.496094 C 19.375 12.292969 17.742188 10.425781 15.566406 10.140625 C 15.414062 10.128906 15.304688 9.992188 15.332031 9.84375 C 15.347656 9.691406 15.484375 9.582031 15.632812 9.609375 C 18.082031 9.925781 19.917969 12.019531 19.917969 14.496094 C 19.917969 17.21875 17.714844 19.421875 14.992188 19.421875 Z M 14.992188 19.421875 " fill-opacity="1" fill-rule="evenodd"/><path fill="#935f3d" d="M 16.273438 7.652344 L 13.726562 7.652344 C 13.578125 7.652344 13.457031 7.53125 13.457031 7.378906 C 13.457031 7.230469 13.578125 7.109375 13.726562 7.109375 L 16.273438 7.109375 C 16.421875 7.109375 16.542969 7.230469 16.542969 7.378906 C 16.542969 7.53125 16.421875 7.652344 16.273438 7.652344 Z M 16.273438 7.652344 " fill-opacity="1" fill-rule="evenodd"/><path fill="#935f3d" d="M 20.953125 10.644531 C 20.871094 10.644531 20.804688 10.617188 20.75 10.5625 L 18.953125 8.753906 C 18.84375 8.644531 18.84375 8.480469 18.953125 8.371094 C 19.0625 8.265625 19.226562 8.265625 19.332031 8.371094 L 21.144531 10.183594 C 21.238281 10.277344 21.238281 10.453125 21.144531 10.5625 C 21.089844 10.617188 21.019531 10.644531 20.953125 10.644531 Z M 20.953125 10.644531 " fill-opacity="1" fill-rule="evenodd"/><path fill="#935f3d" d="M 22.136719 16.058594 C 21.988281 16.058594 21.863281 15.9375 21.863281 15.789062 L 21.863281 13.242188 C 21.863281 13.09375 21.988281 12.972656 22.136719 12.972656 C 22.285156 12.972656 22.410156 13.09375 22.410156 13.242188 L 22.410156 15.789062 C 22.410156 15.9375 22.285156 16.058594 22.136719 16.058594 Z M 22.136719 16.058594 " fill-opacity="1" fill-rule="evenodd"/><path fill="#935f3d" d="M 19.144531 20.742188 C 19.074219 20.742188 19.007812 20.714844 18.953125 20.660156 C 18.84375 20.550781 18.84375 20.375 18.953125 20.265625 L 20.75 18.46875 C 20.859375 18.359375 21.035156 18.359375 21.144531 18.46875 C 21.238281 18.578125 21.238281 18.742188 21.144531 18.851562 L 19.332031 20.660156 C 19.277344 20.714844 19.210938 20.742188 19.144531 20.742188 Z M 19.144531 20.742188 " fill-opacity="1" fill-rule="evenodd"/><path fill="#935f3d" d="M 16.273438 21.925781 L 13.726562 21.925781 C 13.578125 21.925781 13.457031 21.800781 13.457031 21.652344 C 13.457031 21.503906 13.578125 21.378906 13.726562 21.378906 L 16.273438 21.378906 C 16.421875 21.378906 16.542969 21.503906 16.542969 21.652344 C 16.542969 21.800781 16.421875 21.925781 16.273438 21.925781 Z M 16.273438 21.925781 " fill-opacity="1" fill-rule="evenodd"/><path fill="#935f3d" d="M 10.855469 20.742188 C 10.789062 20.742188 10.707031 20.714844 10.667969 20.660156 L 8.855469 18.851562 C 8.746094 18.742188 8.746094 18.578125 8.855469 18.46875 C 8.964844 18.359375 9.128906 18.359375 9.238281 18.46875 L 11.046875 20.265625 C 11.15625 20.375 11.15625 20.550781 11.046875 20.660156 C 10.992188 20.714844 10.925781 20.742188 10.855469 20.742188 Z M 10.855469 20.742188 " fill-opacity="1" fill-rule="evenodd"/><path fill="#935f3d" d="M 7.863281 16.058594 C 7.714844 16.058594 7.589844 15.9375 7.589844 15.789062 L 7.589844 13.242188 C 7.589844 13.09375 7.714844 12.972656 7.863281 12.972656 C 8.011719 12.972656 8.136719 13.09375 8.136719 13.242188 L 8.136719 15.789062 C 8.136719 15.9375 8.011719 16.058594 7.863281 16.058594 Z M 7.863281 16.058594 " fill-opacity="1" fill-rule="evenodd"/><path fill="#935f3d" d="M 9.046875 10.644531 C 8.980469 10.644531 8.910156 10.617188 8.855469 10.5625 C 8.746094 10.453125 8.746094 10.277344 8.855469 10.183594 L 10.667969 8.371094 C 10.761719 8.265625 10.9375 8.265625 11.046875 8.371094 C 11.15625 8.480469 11.15625 8.644531 11.046875 8.753906 L 9.238281 10.5625 C 9.183594 10.617188 9.117188 10.644531 9.046875 10.644531 Z M 9.046875 10.644531 " fill-opacity="1" fill-rule="evenodd"/><path fill="#935f3d" d="M 14.992188 6.617188 C 14.84375 6.617188 14.722656 6.496094 14.722656 6.34375 L 14.722656 4.292969 C 14.722656 4.140625 14.84375 4.019531 14.992188 4.019531 C 15.144531 4.019531 15.265625 4.140625 15.265625 4.292969 L 15.265625 6.34375 C 15.265625 6.496094 15.144531 6.617188 14.992188 6.617188 Z M 14.992188 6.617188 " fill-opacity="1" fill-rule="evenodd"/><g clip-path="url(#fb40ef0e49)"><path fill="#935f3d" d="M 14.992188 4.5625 C 14.542969 4.5625 14.164062 4.183594 14.164062 3.734375 C 14.164062 3.269531 14.542969 2.902344 14.992188 2.902344 C 15.457031 2.902344 15.824219 3.269531 15.824219 3.734375 C 15.824219 4.183594 15.457031 4.5625 14.992188 4.5625 Z M 14.992188 3.449219 C 14.84375 3.449219 14.707031 3.570312 14.707031 3.734375 C 14.707031 3.882812 14.84375 4.019531 14.992188 4.019531 C 15.15625 4.019531 15.277344 3.882812 15.277344 3.734375 C 15.277344 3.570312 15.15625 3.449219 14.992188 3.449219 Z M 14.992188 3.449219 " fill-opacity="1" fill-rule="evenodd"/></g><path fill="#935f3d" d="M 9.222656 9 C 9.15625 9 9.089844 8.972656 9.035156 8.917969 L 7.238281 7.121094 C 7.128906 7.011719 7.128906 6.847656 7.238281 6.738281 L 8.285156 5.679688 C 8.394531 5.570312 8.570312 5.570312 8.679688 5.679688 C 8.789062 5.789062 8.789062 5.964844 8.679688 6.074219 L 7.808594 6.929688 L 9.414062 8.535156 C 9.523438 8.644531 9.523438 8.808594 9.414062 8.917969 C 9.359375 8.972656 9.292969 9 9.222656 9 Z M 9.222656 9 " fill-opacity="1" fill-rule="evenodd"/><path fill="#935f3d" d="M 8.910156 6.34375 C 8.460938 6.34375 8.082031 5.976562 8.082031 5.515625 C 8.082031 5.066406 8.460938 4.6875 8.910156 4.6875 C 9.375 4.6875 9.742188 5.066406 9.742188 5.515625 C 9.742188 5.976562 9.375 6.34375 8.910156 6.34375 Z M 8.910156 5.230469 C 8.761719 5.230469 8.625 5.367188 8.625 5.515625 C 8.625 5.679688 8.761719 5.800781 8.910156 5.800781 C 9.074219 5.800781 9.195312 5.679688 9.195312 5.515625 C 9.195312 5.367188 9.074219 5.230469 8.910156 5.230469 Z M 8.910156 5.230469 " fill-opacity="1" fill-rule="evenodd"/><path fill="#935f3d" d="M 14.992188 25.011719 C 14.84375 25.011719 14.722656 24.890625 14.722656 24.742188 L 14.722656 22.6875 C 14.722656 22.535156 14.84375 22.414062 14.992188 22.414062 C 15.144531 22.414062 15.265625 22.535156 15.265625 22.6875 L 15.265625 24.742188 C 15.265625 24.890625 15.144531 25.011719 14.992188 25.011719 Z M 14.992188 25.011719 " fill-opacity="1" fill-rule="evenodd"/><g clip-path="url(#e190154826)"><path fill="#935f3d" d="M 14.992188 26.128906 C 14.542969 26.128906 14.164062 25.75 14.164062 25.300781 C 14.164062 24.835938 14.542969 24.46875 14.992188 24.46875 C 15.457031 24.46875 15.824219 24.835938 15.824219 25.300781 C 15.824219 25.75 15.457031 26.128906 14.992188 26.128906 Z M 14.992188 25.011719 C 14.84375 25.011719 14.707031 25.136719 14.707031 25.300781 C 14.707031 25.449219 14.84375 25.585938 14.992188 25.585938 C 15.15625 25.585938 15.277344 25.449219 15.277344 25.300781 C 15.277344 25.136719 15.15625 25.011719 14.992188 25.011719 Z M 14.992188 25.011719 " fill-opacity="1" fill-rule="evenodd"/></g><path fill="#935f3d" d="M 20.777344 9.011719 C 20.707031 9.011719 20.640625 8.984375 20.585938 8.929688 C 20.476562 8.820312 20.476562 8.644531 20.585938 8.535156 L 22.191406 6.929688 L 21.320312 6.074219 C 21.210938 5.964844 21.210938 5.789062 21.320312 5.691406 C 21.429688 5.582031 21.605469 5.582031 21.714844 5.691406 L 22.761719 6.738281 C 22.816406 6.792969 22.84375 6.863281 22.84375 6.929688 C 22.84375 7.011719 22.816406 7.082031 22.761719 7.132812 L 20.964844 8.929688 C 20.910156 8.984375 20.84375 9.011719 20.777344 9.011719 Z M 20.777344 9.011719 " fill-opacity="1" fill-rule="evenodd"/><path fill="#935f3d" d="M 21.089844 6.359375 C 20.625 6.359375 20.257812 5.976562 20.257812 5.527344 C 20.257812 5.066406 20.625 4.699219 21.089844 4.699219 C 21.550781 4.699219 21.917969 5.066406 21.917969 5.527344 C 21.917969 5.976562 21.539062 6.359375 21.089844 6.359375 Z M 21.089844 5.242188 C 20.925781 5.242188 20.804688 5.367188 20.804688 5.527344 C 20.804688 5.679688 20.925781 5.816406 21.089844 5.816406 C 21.238281 5.816406 21.375 5.679688 21.375 5.527344 C 21.375 5.367188 21.238281 5.242188 21.089844 5.242188 Z M 21.089844 5.242188 " fill-opacity="1" fill-rule="evenodd"/><path fill="#935f3d" d="M 25.226562 14.78125 L 23.171875 14.78125 C 23.019531 14.78125 22.898438 14.660156 22.898438 14.507812 C 22.898438 14.359375 23.019531 14.238281 23.171875 14.238281 L 25.226562 14.238281 C 25.375 14.238281 25.496094 14.359375 25.496094 14.507812 C 25.496094 14.660156 25.375 14.78125 25.226562 14.78125 Z M 25.226562 14.78125 " fill-opacity="1" fill-rule="evenodd"/><g clip-path="url(#ad20e9d7a1)"><path fill="#935f3d" d="M 25.78125 15.339844 C 25.320312 15.339844 24.953125 14.972656 24.953125 14.507812 C 24.953125 14.058594 25.320312 13.679688 25.78125 13.679688 C 26.230469 13.679688 26.613281 14.058594 26.613281 14.507812 C 26.613281 14.972656 26.230469 15.339844 25.78125 15.339844 Z M 25.78125 14.222656 C 25.621094 14.222656 25.496094 14.359375 25.496094 14.507812 C 25.496094 14.671875 25.621094 14.796875 25.78125 14.796875 C 25.933594 14.796875 26.070312 14.671875 26.070312 14.507812 C 26.070312 14.359375 25.933594 14.222656 25.78125 14.222656 Z M 25.78125 14.222656 " fill-opacity="1" fill-rule="evenodd"/></g><path fill="#935f3d" d="M 6.828125 14.78125 L 4.773438 14.78125 C 4.625 14.78125 4.503906 14.660156 4.503906 14.507812 C 4.503906 14.359375 4.625 14.238281 4.773438 14.238281 L 6.828125 14.238281 C 6.980469 14.238281 7.101562 14.359375 7.101562 14.507812 C 7.101562 14.660156 6.980469 14.78125 6.828125 14.78125 Z M 6.828125 14.78125 " fill-opacity="1" fill-rule="evenodd"/><g clip-path="url(#0a04667987)"><path fill="#935f3d" d="M 4.21875 15.339844 C 3.753906 15.339844 3.386719 14.972656 3.386719 14.507812 C 3.386719 14.058594 3.753906 13.679688 4.21875 13.679688 C 4.667969 13.679688 5.046875 14.058594 5.046875 14.507812 C 5.046875 14.972656 4.667969 15.339844 4.21875 15.339844 Z M 4.21875 14.222656 C 4.054688 14.222656 3.929688 14.359375 3.929688 14.507812 C 3.929688 14.671875 4.054688 14.796875 4.21875 14.796875 C 4.367188 14.796875 4.503906 14.671875 4.503906 14.507812 C 4.503906 14.359375 4.367188 14.222656 4.21875 14.222656 Z M 4.21875 14.222656 " fill-opacity="1" fill-rule="evenodd"/></g><path fill="#935f3d" d="M 8.476562 23.421875 C 8.40625 23.421875 8.339844 23.394531 8.285156 23.339844 L 7.222656 22.277344 C 7.183594 22.238281 7.15625 22.15625 7.15625 22.089844 C 7.15625 22.019531 7.183594 21.953125 7.222656 21.898438 L 9.019531 20.101562 C 9.128906 19.992188 9.304688 19.992188 9.414062 20.101562 C 9.511719 20.210938 9.511719 20.375 9.414062 20.484375 L 7.808594 22.089844 L 8.667969 22.957031 C 8.773438 23.066406 8.773438 23.230469 8.667969 23.339844 C 8.625 23.394531 8.542969 23.421875 8.476562 23.421875 Z M 8.476562 23.421875 " fill-opacity="1" fill-rule="evenodd"/><path fill="#935f3d" d="M 8.910156 24.332031 C 8.449219 24.332031 8.082031 23.964844 8.082031 23.503906 C 8.082031 23.039062 8.449219 22.671875 8.910156 22.671875 C 9.359375 22.671875 9.742188 23.039062 9.742188 23.503906 C 9.742188 23.964844 9.359375 24.332031 8.910156 24.332031 Z M 8.910156 23.21875 C 8.746094 23.21875 8.625 23.339844 8.625 23.503906 C 8.625 23.652344 8.746094 23.789062 8.910156 23.789062 C 9.0625 23.789062 9.195312 23.652344 9.195312 23.503906 C 9.195312 23.339844 9.0625 23.21875 8.910156 23.21875 Z M 8.910156 23.21875 " fill-opacity="1" fill-rule="evenodd"/><path fill="#935f3d" d="M 21.511719 23.421875 C 21.441406 23.421875 21.375 23.394531 21.320312 23.339844 C 21.210938 23.230469 21.210938 23.066406 21.320312 22.957031 L 22.191406 22.089844 L 20.585938 20.484375 C 20.476562 20.375 20.476562 20.210938 20.585938 20.101562 C 20.695312 19.992188 20.871094 19.992188 20.964844 20.101562 L 22.761719 21.898438 C 22.871094 22.007812 22.871094 22.183594 22.761719 22.277344 L 21.714844 23.339844 C 21.660156 23.394531 21.59375 23.421875 21.511719 23.421875 Z M 21.511719 23.421875 " fill-opacity="1" fill-rule="evenodd"/><path fill="#935f3d" d="M 21.089844 24.332031 C 20.625 24.332031 20.257812 23.964844 20.257812 23.503906 C 20.257812 23.039062 20.625 22.671875 21.089844 22.671875 C 21.539062 22.671875 21.917969 23.039062 21.917969 23.503906 C 21.917969 23.964844 21.539062 24.332031 21.089844 24.332031 Z M 21.089844 23.21875 C 20.925781 23.21875 20.804688 23.339844 20.804688 23.503906 C 20.804688 23.652344 20.925781 23.789062 21.089844 23.789062 C 21.238281 23.789062 21.375 23.652344 21.375 23.503906 C 21.375 23.339844 21.238281 23.21875 21.089844 23.21875 Z M 21.089844 23.21875 " fill-opacity="1" fill-rule="evenodd"/><path fill="#935f3d" d="M 13.128906 15.925781 L 12.082031 15.925781 C 11.933594 15.925781 11.808594 15.800781 11.808594 15.652344 L 11.808594 13.378906 C 11.808594 13.230469 11.933594 13.109375 12.082031 13.109375 L 13.128906 13.109375 C 13.277344 13.109375 13.402344 13.230469 13.402344 13.378906 C 13.402344 13.53125 13.277344 13.652344 13.128906 13.652344 L 12.355469 13.652344 L 12.355469 14.238281 L 13.128906 14.238281 C 13.277344 14.238281 13.402344 14.359375 13.402344 14.507812 C 13.402344 14.660156 13.277344 14.78125 13.128906 14.78125 L 12.355469 14.78125 L 12.355469 15.378906 L 13.128906 15.378906 C 13.277344 15.378906 13.402344 15.503906 13.402344 15.652344 C 13.402344 15.800781 13.277344 15.925781 13.128906 15.925781 Z M 13.128906 15.925781 " fill-opacity="1" fill-rule="evenodd"/><path fill="#935f3d" d="M 15.511719 15.925781 C 15.496094 15.925781 15.484375 15.925781 15.46875 15.925781 C 15.320312 15.898438 15.222656 15.761719 15.238281 15.613281 C 15.292969 15.191406 15.199219 14.984375 15.117188 14.890625 C 15.046875 14.808594 14.953125 14.78125 14.9375 14.78125 L 14.652344 14.78125 L 14.652344 15.652344 C 14.652344 15.800781 14.53125 15.925781 14.382812 15.925781 C 14.230469 15.925781 14.109375 15.800781 14.109375 15.652344 L 14.109375 13.378906 C 14.109375 13.230469 14.230469 13.109375 14.382812 13.109375 L 14.953125 13.109375 C 15.414062 13.109375 15.78125 13.488281 15.78125 13.953125 C 15.78125 14.183594 15.6875 14.386719 15.539062 14.550781 C 15.753906 14.796875 15.835938 15.191406 15.78125 15.679688 C 15.753906 15.816406 15.644531 15.925781 15.511719 15.925781 Z M 14.652344 14.238281 L 14.953125 14.238281 C 15.117188 14.238281 15.238281 14.113281 15.238281 13.953125 C 15.238281 13.789062 15.117188 13.652344 14.953125 13.652344 L 14.652344 13.652344 Z M 14.652344 14.238281 " fill-opacity="1" fill-rule="evenodd"/><path fill="#935f3d" d="M 16.777344 15.925781 C 16.625 15.925781 16.503906 15.800781 16.503906 15.652344 L 16.503906 13.378906 C 16.503906 13.230469 16.625 13.109375 16.777344 13.109375 L 17.347656 13.109375 C 17.808594 13.109375 18.191406 13.488281 18.191406 13.953125 C 18.191406 14.414062 17.808594 14.78125 17.347656 14.78125 L 17.046875 14.78125 L 17.046875 15.652344 C 17.046875 15.800781 16.925781 15.925781 16.777344 15.925781 Z M 17.046875 14.238281 L 17.347656 14.238281 C 17.511719 14.238281 17.644531 14.113281 17.644531 13.953125 C 17.644531 13.789062 17.511719 13.652344 17.347656 13.652344 L 17.046875 13.652344 Z M 17.046875 14.238281 " fill-opacity="1" fill-rule="evenodd"/></svg>