<svg xmlns="http://www.w3.org/2000/svg" xmlns:xlink="http://www.w3.org/1999/xlink" width="40" zoomAndPan="magnify" viewBox="0 0 30 30.000001" height="40" preserveAspectRatio="xMidYMid meet" version="1.0"><defs><clipPath id="eda0656950"><path d="M 0.484375 0 L 29.515625 0 L 29.515625 29.03125 L 0.484375 29.03125 Z M 0.484375 0 " clip-rule="nonzero"/></clipPath><clipPath id="368633b540"><path d="M 3.359375 2.902344 L 26.582031 2.902344 L 26.582031 26.128906 L 3.359375 26.128906 Z M 3.359375 2.902344 " clip-rule="nonzero"/></clipPath></defs><g clip-path="url(#eda0656950)"><path fill="#ffffff" d="M 0.484375 0 L 29.515625 0 L 29.515625 29.03125 L 0.484375 29.03125 Z M 0.484375 0 " fill-opacity="1" fill-rule="nonzero"/><path fill="#ffffff" d="M 0.484375 0 L 29.515625 0 L 29.515625 29.03125 L 0.484375 29.03125 Z M 0.484375 0 " fill-opacity="1" fill-rule="nonzero"/></g><g clip-path="url(#368633b540)"><path fill="#935f3d" d="M 9.285156 11.324219 L 10.910156 11.324219 C 11.089844 11.324219 11.238281 11.179688 11.238281 10.996094 L 11.238281 9.371094 C 11.238281 9.191406 11.089844 9.042969 10.910156 9.042969 L 9.285156 9.042969 C 9.101562 9.042969 8.953125 9.191406 8.953125 9.371094 L 8.953125 10.996094 C 8.953125 11.179688 9.101562 11.324219 9.285156 11.324219 Z M 9.613281 9.699219 L 10.578125 9.699219 L 10.578125 10.667969 L 9.613281 10.667969 Z M 12.476562 11.324219 L 14.101562 11.324219 C 14.285156 11.324219 14.429688 11.179688 14.429688 10.996094 L 14.429688 9.371094 C 14.429688 9.191406 14.285156 9.042969 14.101562 9.042969 L 12.476562 9.042969 C 12.296875 9.042969 12.148438 9.191406 12.148438 9.371094 L 12.148438 10.996094 C 12.148438 11.179688 12.296875 11.324219 12.476562 11.324219 Z M 12.804688 9.699219 L 13.773438 9.699219 L 13.773438 10.667969 L 12.804688 10.667969 Z M 15.671875 11.324219 L 17.296875 11.324219 C 17.476562 11.324219 17.625 11.179688 17.625 10.996094 L 17.625 9.371094 C 17.625 9.191406 17.476562 9.042969 17.296875 9.042969 L 15.671875 9.042969 C 15.488281 9.042969 15.339844 9.191406 15.339844 9.371094 L 15.339844 10.996094 C 15.339844 11.179688 15.488281 11.324219 15.671875 11.324219 Z M 16 9.699219 L 16.964844 9.699219 L 16.964844 10.667969 L 16 10.667969 Z M 7.714844 12.234375 L 6.089844 12.234375 C 5.90625 12.234375 5.761719 12.382812 5.761719 12.566406 L 5.761719 14.191406 C 5.761719 14.371094 5.90625 14.519531 6.089844 14.519531 L 7.714844 14.519531 C 7.898438 14.519531 8.042969 14.371094 8.042969 14.191406 L 8.042969 12.566406 C 8.042969 12.382812 7.898438 12.234375 7.714844 12.234375 Z M 7.386719 13.863281 L 6.417969 13.863281 L 6.417969 12.894531 L 7.386719 12.894531 Z M 9.285156 14.519531 L 10.910156 14.519531 C 11.089844 14.519531 11.238281 14.371094 11.238281 14.191406 L 11.238281 12.566406 C 11.238281 12.382812 11.089844 12.234375 10.910156 12.234375 L 9.285156 12.234375 C 9.101562 12.234375 8.953125 12.382812 8.953125 12.566406 L 8.953125 14.191406 C 8.953125 14.371094 9.101562 14.519531 9.285156 14.519531 Z M 9.613281 12.894531 L 10.578125 12.894531 L 10.578125 13.863281 L 9.613281 13.863281 Z M 7.714844 15.429688 L 6.089844 15.429688 C 5.90625 15.429688 5.761719 15.578125 5.761719 15.757812 L 5.761719 17.382812 C 5.761719 17.566406 5.90625 17.714844 6.089844 17.714844 L 7.714844 17.714844 C 7.898438 17.714844 8.042969 17.566406 8.042969 17.382812 L 8.042969 15.757812 C 8.042969 15.578125 7.898438 15.429688 7.714844 15.429688 Z M 7.386719 17.054688 L 6.417969 17.054688 L 6.417969 16.089844 L 7.386719 16.089844 Z M 7.714844 9.042969 L 6.089844 9.042969 C 5.90625 9.042969 5.761719 9.191406 5.761719 9.371094 L 5.761719 10.996094 C 5.761719 11.179688 5.90625 11.324219 6.089844 11.324219 L 7.714844 11.324219 C 7.898438 11.324219 8.042969 11.179688 8.042969 10.996094 L 8.042969 9.371094 C 8.042969 9.191406 7.898438 9.042969 7.714844 9.042969 Z M 7.386719 10.667969 L 6.417969 10.667969 L 6.417969 9.699219 L 7.386719 9.699219 Z M 12.476562 14.519531 L 14.101562 14.519531 C 14.285156 14.519531 14.429688 14.371094 14.429688 14.191406 L 14.429688 12.566406 C 14.429688 12.382812 14.285156 12.234375 14.101562 12.234375 L 12.476562 12.234375 C 12.296875 12.234375 12.148438 12.382812 12.148438 12.566406 L 12.148438 14.191406 C 12.148438 14.371094 12.296875 14.519531 12.476562 14.519531 Z M 12.804688 12.894531 L 13.773438 12.894531 L 13.773438 13.863281 L 12.804688 13.863281 Z M 22.621094 14.628906 C 22.265625 14.425781 21.855469 14.363281 21.457031 14.457031 L 20.707031 11.65625 C 20.609375 11.289062 20.375 10.984375 20.042969 10.792969 C 20.035156 10.789062 20.027344 10.785156 20.019531 10.777344 L 20.019531 6.117188 C 20.019531 5.195312 19.269531 4.445312 18.347656 4.445312 L 17.304688 4.445312 L 17.304688 3.234375 C 17.304688 3.050781 17.15625 2.902344 16.972656 2.902344 L 15.25 2.902344 C 15.070312 2.902344 14.921875 3.050781 14.921875 3.234375 L 14.921875 4.445312 L 12.882812 4.445312 L 12.882812 3.234375 C 12.882812 3.050781 12.734375 2.902344 12.554688 2.902344 L 10.832031 2.902344 C 10.648438 2.902344 10.503906 3.050781 10.503906 3.234375 L 10.503906 4.445312 L 8.460938 4.445312 L 8.460938 3.234375 C 8.460938 3.050781 8.316406 2.902344 8.132812 2.902344 L 6.410156 2.902344 C 6.230469 2.902344 6.082031 3.050781 6.082031 3.234375 L 6.082031 4.445312 L 5.039062 4.445312 C 4.117188 4.445312 3.367188 5.195312 3.367188 6.117188 L 3.367188 17.671875 C 3.367188 18.589844 4.117188 19.339844 5.039062 19.339844 L 8.289062 19.339844 C 8.300781 19.433594 8.320312 19.527344 8.347656 19.621094 C 8.667969 20.820312 9.753906 21.609375 10.9375 21.609375 C 11.164062 21.609375 11.398438 21.582031 11.628906 21.519531 L 11.753906 21.484375 L 13.410156 25.632812 C 13.492188 25.839844 13.65625 26 13.867188 26.078125 C 13.957031 26.113281 14.050781 26.128906 14.144531 26.128906 C 14.269531 26.128906 14.394531 26.097656 14.507812 26.039062 L 15.179688 25.695312 C 15.546875 25.507812 15.707031 25.074219 15.554688 24.691406 L 13.972656 20.695312 C 16.3125 20.363281 18.523438 20.472656 20.261719 21.003906 L 20.28125 21.078125 C 20.378906 21.445312 20.617188 21.753906 20.945312 21.941406 C 21.167969 22.070312 21.410156 22.136719 21.660156 22.136719 C 21.78125 22.136719 21.90625 22.121094 22.027344 22.085938 C 22.394531 21.988281 22.699219 21.753906 22.890625 21.421875 C 23.082031 21.089844 23.132812 20.707031 23.035156 20.339844 L 22.285156 17.542969 C 22.675781 17.421875 23 17.167969 23.203125 16.8125 C 23.417969 16.441406 23.476562 16.011719 23.363281 15.597656 C 23.253906 15.1875 22.988281 14.84375 22.621094 14.628906 Z M 15.582031 3.5625 L 16.644531 3.5625 L 16.644531 5.960938 L 15.582031 5.960938 Z M 11.160156 3.5625 L 12.226562 3.5625 L 12.226562 5.960938 L 11.160156 5.960938 Z M 6.738281 3.5625 L 7.804688 3.5625 L 7.804688 5.960938 L 6.738281 5.960938 Z M 5.039062 5.105469 L 6.082031 5.105469 L 6.082031 6.289062 C 6.082031 6.46875 6.230469 6.617188 6.410156 6.617188 L 8.132812 6.617188 C 8.316406 6.617188 8.460938 6.46875 8.460938 6.289062 L 8.460938 5.105469 L 10.503906 5.105469 L 10.503906 6.289062 C 10.503906 6.46875 10.648438 6.617188 10.832031 6.617188 L 12.554688 6.617188 C 12.734375 6.617188 12.882812 6.46875 12.882812 6.289062 L 12.882812 5.105469 L 14.921875 5.105469 L 14.921875 6.289062 C 14.921875 6.46875 15.070312 6.617188 15.25 6.617188 L 16.972656 6.617188 C 17.15625 6.617188 17.304688 6.46875 17.304688 6.289062 L 17.304688 5.105469 L 18.347656 5.105469 C 18.90625 5.105469 19.359375 5.558594 19.359375 6.117188 L 19.359375 7.417969 L 4.027344 7.417969 L 4.027344 6.117188 C 4.027344 5.558594 4.480469 5.105469 5.039062 5.105469 Z M 8.269531 18.679688 L 5.039062 18.679688 C 4.480469 18.679688 4.027344 18.226562 4.027344 17.671875 L 4.027344 8.074219 L 19.359375 8.074219 L 19.359375 10.601562 C 19.226562 10.597656 19.09375 10.613281 18.964844 10.648438 C 18.597656 10.746094 18.289062 10.984375 18.097656 11.3125 C 17.910156 11.644531 17.859375 12.027344 17.957031 12.394531 L 17.976562 12.46875 C 16.726562 13.808594 14.847656 15.015625 12.636719 15.898438 C 12.613281 15.867188 12.582031 15.84375 12.546875 15.824219 C 12.472656 15.777344 12.382812 15.765625 12.296875 15.789062 L 10.242188 16.339844 C 9.554688 16.523438 8.976562 16.96875 8.617188 17.589844 C 8.421875 17.929688 8.304688 18.300781 8.269531 18.679688 Z M 11.460938 20.882812 C 11.285156 20.929688 11.109375 20.953125 10.9375 20.953125 C 10.042969 20.953125 9.226562 20.355469 8.984375 19.453125 C 8.84375 18.933594 8.917969 18.390625 9.1875 17.917969 C 9.457031 17.449219 9.894531 17.117188 10.414062 16.976562 L 12.152344 16.511719 L 13.195312 20.417969 Z M 14.878906 25.109375 L 14.207031 25.453125 C 14.160156 25.480469 14.117188 25.46875 14.097656 25.460938 C 14.078125 25.453125 14.039062 25.433594 14.019531 25.390625 L 12.394531 21.3125 L 13.402344 21.042969 L 14.941406 24.933594 C 14.96875 25.003906 14.945312 25.078125 14.878906 25.109375 Z M 13.78125 20.058594 L 12.835938 16.527344 C 14.996094 15.671875 16.859375 14.511719 18.175781 13.210938 L 20.0625 20.261719 C 18.277344 19.792969 16.082031 19.722656 13.78125 20.058594 Z M 22.320312 21.09375 C 22.21875 21.269531 22.054688 21.398438 21.859375 21.449219 C 21.660156 21.503906 21.453125 21.476562 21.277344 21.371094 C 21.097656 21.269531 20.972656 21.105469 20.917969 20.910156 L 18.589844 12.222656 C 18.539062 12.027344 18.566406 11.820312 18.667969 11.644531 C 18.773438 11.464844 18.9375 11.335938 19.132812 11.285156 C 19.199219 11.269531 19.265625 11.257812 19.332031 11.257812 C 19.464844 11.257812 19.597656 11.292969 19.714844 11.363281 C 19.894531 11.464844 20.019531 11.628906 20.074219 11.828125 L 22.398438 20.511719 C 22.453125 20.707031 22.425781 20.914062 22.320312 21.09375 Z M 22.636719 16.484375 C 22.519531 16.683594 22.335938 16.832031 22.113281 16.90625 L 21.628906 15.09375 C 21.855469 15.046875 22.089844 15.082031 22.292969 15.199219 C 22.507812 15.324219 22.664062 15.527344 22.730469 15.769531 C 22.792969 16.011719 22.761719 16.265625 22.636719 16.484375 Z M 26.347656 15.140625 L 24.832031 15.546875 C 24.804688 15.554688 24.773438 15.558594 24.746094 15.558594 C 24.601562 15.558594 24.46875 15.460938 24.429688 15.3125 C 24.382812 15.136719 24.484375 14.957031 24.660156 14.910156 L 26.179688 14.503906 C 26.355469 14.457031 26.535156 14.5625 26.582031 14.738281 C 26.628906 14.914062 26.523438 15.09375 26.347656 15.140625 Z M 22.890625 13.429688 C 22.765625 13.300781 22.765625 13.09375 22.890625 12.964844 L 24.066406 11.792969 C 24.191406 11.664062 24.402344 11.664062 24.53125 11.792969 C 24.660156 11.921875 24.660156 12.128906 24.53125 12.257812 L 23.359375 13.429688 C 23.292969 13.496094 23.210938 13.527344 23.125 13.527344 C 23.039062 13.527344 22.957031 13.496094 22.890625 13.429688 Z M 26.277344 18.3125 C 26.238281 18.460938 26.105469 18.558594 25.960938 18.558594 C 25.929688 18.558594 25.902344 18.554688 25.875 18.546875 L 24.273438 18.117188 C 24.097656 18.070312 23.992188 17.890625 24.039062 17.714844 C 24.085938 17.539062 24.269531 17.433594 24.441406 17.480469 L 26.042969 17.910156 C 26.21875 17.957031 26.324219 18.136719 26.277344 18.3125 Z M 26.277344 18.3125 " fill-opacity="1" fill-rule="nonzero"/></g></svg>