<svg xmlns="http://www.w3.org/2000/svg" xmlns:xlink="http://www.w3.org/1999/xlink" width="40" zoomAndPan="magnify" viewBox="0 0 30 30.000001" height="40" preserveAspectRatio="xMidYMid meet" version="1.0"><defs><clipPath id="8d71da7696"><path d="M 0.484375 0 L 29.515625 0 L 29.515625 29.03125 L 0.484375 29.03125 Z M 0.484375 0 " clip-rule="nonzero"/></clipPath><clipPath id="c4ad12c625"><path d="M 3.386719 2.902344 L 25.886719 2.902344 L 25.886719 25.402344 L 3.386719 25.402344 Z M 3.386719 2.902344 " clip-rule="nonzero"/></clipPath><clipPath id="58a6f6f9a4"><path d="M 3.386719 20 L 6 20 L 6 25.402344 L 3.386719 25.402344 Z M 3.386719 20 " clip-rule="nonzero"/></clipPath></defs><g clip-path="url(#8d71da7696)"><path fill="#ffffff" d="M 0.484375 0 L 29.515625 0 L 29.515625 29.03125 L 0.484375 29.03125 Z M 0.484375 0 " fill-opacity="1" fill-rule="nonzero"/><path fill="#ffffff" d="M 0.484375 0 L 29.515625 0 L 29.515625 29.03125 L 0.484375 29.03125 Z M 0.484375 0 " fill-opacity="1" fill-rule="nonzero"/></g><g clip-path="url(#c4ad12c625)"><path fill="#935f3d" d="M 25.742188 6.664062 L 24.238281 6.664062 L 24.238281 4.410156 C 24.238281 4.203125 24.070312 4.035156 23.863281 4.035156 L 15.601562 4.035156 C 15.394531 4.035156 15.226562 4.203125 15.226562 4.410156 L 15.226562 9.667969 C 15.226562 9.875 15.394531 10.042969 15.601562 10.042969 L 18.605469 10.042969 L 18.605469 10.824219 C 18.179688 10.917969 17.832031 11.261719 17.742188 11.703125 L 17.550781 12.671875 L 15.976562 12.671875 C 15.355469 12.671875 14.851562 13.179688 14.851562 13.800781 L 14.851562 16.484375 C 14.59375 16.355469 14.320312 16.25 14.03125 16.171875 L 11.09375 15.390625 L 11.09375 13.984375 C 11.84375 13.363281 12.347656 12.496094 12.527344 11.546875 L 13.355469 11.546875 C 13.972656 11.546875 14.472656 11.042969 14.472656 10.429688 L 14.472656 8.902344 C 14.472656 8.570312 14.328125 8.273438 14.097656 8.066406 L 14.097656 7.035156 C 14.097656 4.757812 12.246094 2.902344 9.96875 2.902344 L 8.464844 2.902344 C 6.1875 2.902344 4.332031 4.757812 4.332031 7.035156 L 4.332031 8.066406 C 4.101562 8.273438 3.957031 8.570312 3.957031 8.902344 L 3.957031 10.429688 C 3.957031 11.042969 4.460938 11.546875 5.074219 11.546875 L 5.90625 11.546875 C 6.085938 12.496094 6.585938 13.363281 7.339844 13.984375 L 7.339844 15.390625 L 4.398438 16.175781 C 4.046875 16.269531 3.707031 16.410156 3.394531 16.59375 L 3.769531 17.242188 C 4.027344 17.089844 4.304688 16.980469 4.589844 16.902344 L 7.761719 16.058594 L 10.671875 16.058594 L 13.839844 16.902344 C 15.160156 17.257812 16.136719 18.359375 16.320312 19.710938 L 16.75 22.878906 L 13.722656 23.480469 L 13.722656 20.1875 L 12.972656 20.1875 L 12.972656 25.445312 L 13.722656 25.445312 L 13.722656 24.25 L 16.851562 23.628906 L 17.105469 25.5 L 17.851562 25.398438 L 17.796875 25.03125 L 18.601562 23.726562 L 18.601562 25.445312 L 19.351562 25.445312 L 19.351562 20.9375 L 20.105469 20.9375 L 20.105469 25.445312 L 20.855469 25.445312 L 20.855469 23.722656 L 22.039062 25.640625 L 22.675781 25.246094 L 20.859375 22.285156 L 20.859375 20.9375 L 21.023438 20.9375 L 23.921875 25.640625 L 24.558594 25.246094 L 21.609375 20.453125 L 21.609375 19.433594 L 23.488281 19.433594 C 24.109375 19.433594 24.617188 18.925781 24.617188 18.308594 L 24.617188 17.933594 L 25.742188 17.933594 C 25.949219 17.933594 26.117188 17.761719 26.117188 17.554688 L 26.117188 7.039062 C 26.117188 6.832031 25.949219 6.664062 25.742188 6.664062 Z M 13.722656 8.910156 L 13.722656 10.433594 C 13.722656 10.636719 13.558594 10.800781 13.355469 10.800781 L 12.597656 10.800781 L 12.597656 8.546875 L 13.355469 8.546875 C 13.558594 8.542969 13.722656 8.707031 13.722656 8.910156 Z M 5.835938 10.796875 L 5.074219 10.796875 C 4.875 10.796875 4.707031 10.632812 4.707031 10.429688 L 4.707031 8.902344 C 4.707031 8.703125 4.875 8.539062 5.074219 8.539062 L 5.835938 8.539062 Z M 5.835938 7.503906 L 5.835938 7.789062 L 5.085938 7.789062 L 5.085938 7.039062 C 5.085938 5.175781 6.601562 3.660156 8.464844 3.660156 L 9.96875 3.660156 C 11.832031 3.660156 13.347656 5.175781 13.347656 7.039062 L 13.347656 7.789062 L 12.597656 7.789062 L 12.597656 7.503906 C 12.597656 5.800781 11.207031 4.410156 9.503906 4.410156 L 8.929688 4.410156 C 7.226562 4.410156 5.835938 5.800781 5.835938 7.503906 Z M 10.34375 15.304688 L 8.089844 15.304688 L 8.089844 14.175781 L 10.34375 14.175781 Z M 10.585938 13.425781 L 7.839844 13.425781 C 7.054688 12.785156 6.585938 11.8125 6.585938 10.796875 L 6.585938 7.503906 C 6.585938 6.214844 7.636719 5.160156 8.929688 5.160156 L 9.503906 5.160156 C 10.792969 5.160156 11.84375 6.214844 11.84375 7.503906 L 11.84375 10.796875 C 11.84375 11.8125 11.375 12.785156 10.585938 13.425781 Z M 15.976562 9.292969 L 15.976562 4.785156 L 23.488281 4.785156 L 23.488281 9.292969 Z M 20.109375 10.042969 L 20.109375 10.796875 L 19.355469 10.796875 L 19.355469 10.042969 Z M 17.0625 19.609375 C 17.050781 19.550781 17.042969 19.492188 17.035156 19.433594 L 17.855469 19.433594 L 17.855469 20.453125 L 17.300781 21.355469 Z M 18.605469 22.285156 L 17.644531 23.851562 L 17.464844 22.527344 L 18.445312 20.9375 L 18.609375 20.9375 L 18.609375 22.285156 Z M 20.859375 20.1875 L 18.605469 20.1875 L 18.605469 19.433594 L 20.859375 19.433594 Z M 23.863281 18.308594 C 23.863281 18.515625 23.695312 18.683594 23.488281 18.683594 L 16.828125 18.683594 C 16.570312 18.015625 16.144531 17.429688 15.601562 16.980469 L 15.601562 13.800781 C 15.601562 13.59375 15.769531 13.425781 15.976562 13.425781 L 17.855469 13.425781 C 18.035156 13.425781 18.1875 13.296875 18.222656 13.125 L 18.476562 11.851562 C 18.507812 11.679688 18.664062 11.550781 18.839844 11.550781 L 20.617188 11.550781 C 20.792969 11.550781 20.949219 11.679688 20.980469 11.851562 L 21.234375 13.125 C 21.269531 13.296875 21.421875 13.425781 21.601562 13.425781 L 23.480469 13.429688 C 23.6875 13.429688 23.855469 13.597656 23.855469 13.804688 L 23.855469 18.308594 Z M 25.367188 17.179688 L 24.617188 17.179688 L 24.617188 13.804688 C 24.617188 13.316406 24.300781 12.898438 23.863281 12.742188 L 23.863281 12.296875 L 23.113281 12.296875 L 23.113281 12.679688 L 21.921875 12.671875 L 21.726562 11.703125 C 21.640625 11.253906 21.292969 10.917969 20.863281 10.824219 L 20.863281 10.042969 L 23.871094 10.042969 C 24.074219 10.042969 24.246094 9.875 24.246094 9.667969 L 24.246094 7.414062 L 25.371094 7.414062 L 25.371094 17.179688 Z M 25.367188 17.179688 " fill-opacity="1" fill-rule="nonzero"/></g><path fill="#935f3d" d="M 20.96875 5.804688 L 21.5 5.273438 L 23.003906 6.777344 L 22.472656 7.308594 Z M 20.96875 5.804688 " fill-opacity="1" fill-rule="nonzero"/><path fill="#935f3d" d="M 19.089844 5.800781 L 19.621094 5.269531 L 22.625 8.273438 L 22.09375 8.804688 Z M 19.089844 5.800781 " fill-opacity="1" fill-rule="nonzero"/><path fill="#935f3d" d="M 18.980469 12.296875 L 20.484375 12.296875 L 20.484375 13.050781 L 18.980469 13.050781 Z M 18.980469 12.296875 " fill-opacity="1" fill-rule="nonzero"/><path fill="#935f3d" d="M 21.234375 14.175781 L 16.726562 14.175781 C 16.523438 14.175781 16.351562 14.34375 16.351562 14.550781 L 16.351562 17.554688 C 16.351562 17.761719 16.523438 17.933594 16.726562 17.933594 L 21.234375 17.933594 C 21.441406 17.933594 21.609375 17.761719 21.609375 17.554688 L 21.609375 14.550781 C 21.609375 14.34375 21.441406 14.175781 21.234375 14.175781 Z M 20.859375 17.179688 L 17.105469 17.179688 L 17.105469 14.925781 L 20.859375 14.925781 Z M 20.859375 17.179688 " fill-opacity="1" fill-rule="nonzero"/><path fill="#935f3d" d="M 22.363281 14.175781 L 23.113281 14.175781 L 23.113281 14.925781 L 22.363281 14.925781 Z M 22.363281 14.175781 " fill-opacity="1" fill-rule="nonzero"/><path fill="#935f3d" d="M 22.363281 15.679688 L 23.113281 15.679688 L 23.113281 16.429688 L 22.363281 16.429688 Z M 22.363281 15.679688 " fill-opacity="1" fill-rule="nonzero"/><path fill="#935f3d" d="M 22.363281 17.179688 L 23.113281 17.179688 L 23.113281 17.933594 L 22.363281 17.933594 Z M 22.363281 17.179688 " fill-opacity="1" fill-rule="nonzero"/><g clip-path="url(#58a6f6f9a4)"><path fill="#935f3d" d="M 4.707031 23.480469 L 3.65625 23.273438 L 3.507812 24.007812 L 4.707031 24.25 L 4.707031 25.445312 L 5.460938 25.445312 L 5.460938 20.1875 L 4.707031 20.1875 Z M 4.707031 23.480469 " fill-opacity="1" fill-rule="nonzero"/></g></svg>