<svg xmlns="http://www.w3.org/2000/svg" xmlns:xlink="http://www.w3.org/1999/xlink" width="40" zoomAndPan="magnify" viewBox="0 0 30 30.000001" height="40" preserveAspectRatio="xMidYMid meet" version="1.0"><defs><clipPath id="cd65568f34"><path d="M 0.484375 0 L 29.515625 0 L 29.515625 29.03125 L 0.484375 29.03125 Z M 0.484375 0 " clip-rule="nonzero"/></clipPath><clipPath id="8b1fa5dac0"><path d="M 6.304688 9 L 23.722656 9 L 23.722656 26.128906 L 6.304688 26.128906 Z M 6.304688 9 " clip-rule="nonzero"/></clipPath><clipPath id="1886dd90cb"><path d="M 12 2.902344 L 18 2.902344 L 18 9 L 12 9 Z M 12 2.902344 " clip-rule="nonzero"/></clipPath></defs><g clip-path="url(#cd65568f34)"><path fill="#ffffff" d="M 0.484375 0 L 29.515625 0 L 29.515625 29.03125 L 0.484375 29.03125 Z M 0.484375 0 " fill-opacity="1" fill-rule="nonzero"/><path fill="#ffffff" d="M 0.484375 0 L 29.515625 0 L 29.515625 29.03125 L 0.484375 29.03125 Z M 0.484375 0 " fill-opacity="1" fill-rule="nonzero"/></g><g clip-path="url(#8b1fa5dac0)"><path fill="#935f3d" d="M 21.839844 13.304688 C 22.113281 12.96875 22.261719 12.554688 22.261719 12.121094 C 22.261719 11.621094 22.070312 11.15625 21.71875 10.800781 C 21.367188 10.449219 20.898438 10.257812 20.402344 10.257812 C 19.902344 10.257812 19.433594 10.449219 19.082031 10.800781 C 18.730469 11.15625 18.539062 11.621094 18.539062 12.121094 C 18.539062 12.554688 18.6875 12.96875 18.960938 13.304688 C 18.613281 13.472656 18.296875 13.703125 18.027344 13.984375 C 18.019531 13.976562 18.011719 13.964844 18.003906 13.957031 C 17.777344 13.644531 17.503906 13.371094 17.195312 13.140625 C 16.992188 12.996094 16.78125 12.867188 16.554688 12.765625 C 16.890625 12.378906 17.078125 11.890625 17.078125 11.375 C 17.078125 10.8125 16.859375 10.285156 16.460938 9.886719 C 16.0625 9.488281 15.535156 9.269531 14.972656 9.269531 C 14.410156 9.269531 13.878906 9.488281 13.480469 9.886719 C 13.085938 10.285156 12.863281 10.8125 12.863281 11.375 C 12.863281 11.890625 13.050781 12.378906 13.386719 12.765625 C 12.800781 13.035156 12.304688 13.449219 11.9375 13.953125 C 11.675781 13.6875 11.367188 13.464844 11.03125 13.304688 C 11.308594 12.96875 11.457031 12.554688 11.457031 12.121094 C 11.457031 11.621094 11.261719 11.15625 10.910156 10.800781 C 10.558594 10.449219 10.089844 10.257812 9.59375 10.257812 C 9.097656 10.257812 8.628906 10.449219 8.277344 10.800781 C 7.925781 11.15625 7.730469 11.621094 7.730469 12.121094 C 7.730469 12.554688 7.882812 12.96875 8.15625 13.304688 C 7.035156 13.847656 6.304688 14.992188 6.304688 16.261719 L 6.304688 18.5 C 6.304688 18.652344 6.414062 18.78125 6.5625 18.808594 L 7.882812 19.054688 L 8.324219 20.410156 L 7.398438 21.382812 C 7.292969 21.496094 7.285156 21.664062 7.371094 21.785156 L 8.558594 23.417969 C 8.644531 23.539062 8.8125 23.582031 8.949219 23.515625 L 10.160156 22.9375 L 11.3125 23.773438 L 11.136719 25.105469 C 11.117188 25.257812 11.207031 25.402344 11.351562 25.449219 L 13.269531 26.070312 C 13.414062 26.117188 13.570312 26.054688 13.644531 25.921875 L 14.285156 24.742188 L 15.710938 24.742188 L 16.351562 25.921875 C 16.40625 26.023438 16.515625 26.085938 16.628906 26.085938 C 16.660156 26.085938 16.695312 26.082031 16.726562 26.070312 L 18.640625 25.449219 C 18.785156 25.402344 18.875 25.257812 18.855469 25.105469 L 18.679688 23.773438 L 19.835938 22.9375 L 21.046875 23.515625 C 21.183594 23.582031 21.347656 23.539062 21.4375 23.417969 L 22.621094 21.785156 C 22.710938 21.664062 22.699219 21.496094 22.59375 21.382812 L 21.671875 20.410156 L 22.113281 19.054688 L 23.433594 18.808594 C 23.582031 18.78125 23.691406 18.652344 23.691406 18.5 L 23.691406 16.261719 C 23.691406 14.992188 22.960938 13.847656 21.839844 13.304688 Z M 20.402344 10.886719 C 21.078125 10.886719 21.632812 11.441406 21.632812 12.121094 C 21.632812 12.796875 21.078125 13.351562 20.402344 13.351562 C 19.722656 13.351562 19.167969 12.796875 19.167969 12.121094 C 19.167969 11.441406 19.722656 10.886719 20.402344 10.886719 Z M 19.511719 13.757812 C 19.78125 13.902344 20.085938 13.980469 20.402344 13.980469 C 20.714844 13.980469 21.019531 13.902344 21.289062 13.757812 C 22.347656 14.132812 23.058594 15.136719 23.058594 16.261719 L 23.058594 16.496094 L 18.796875 16.496094 C 18.773438 16.496094 18.75 16.5 18.726562 16.503906 L 18.726562 16.171875 C 18.726562 15.605469 18.605469 15.054688 18.363281 14.554688 C 18.667969 14.191406 19.066406 13.914062 19.511719 13.757812 Z M 18.164062 17.648438 C 18.164062 18.492188 17.835938 19.289062 17.238281 19.886719 C 16.640625 20.484375 15.84375 20.816406 14.996094 20.816406 C 14.152344 20.816406 13.355469 20.484375 12.757812 19.886719 C 12.160156 19.289062 11.832031 18.492188 11.832031 17.648438 C 11.832031 17.484375 11.84375 17.316406 11.867188 17.15625 L 18.125 17.15625 C 18.152344 17.316406 18.164062 17.484375 18.164062 17.648438 Z M 14.972656 9.902344 C 15.785156 9.902344 16.445312 10.5625 16.445312 11.375 C 16.445312 12.191406 15.785156 12.851562 14.972656 12.851562 C 14.15625 12.851562 13.496094 12.191406 13.496094 11.375 C 13.496094 10.5625 14.15625 9.902344 14.972656 9.902344 Z M 13.945312 13.21875 C 14.253906 13.390625 14.605469 13.484375 14.972656 13.484375 C 15.335938 13.484375 15.6875 13.390625 15.996094 13.21875 C 16.289062 13.320312 16.566406 13.464844 16.820312 13.652344 C 17.078125 13.839844 17.304688 14.070312 17.496094 14.328125 C 17.890625 14.867188 18.097656 15.503906 18.097656 16.171875 L 18.097656 16.523438 L 11.84375 16.523438 L 11.84375 16.171875 C 11.84375 14.839844 12.6875 13.652344 13.945312 13.21875 Z M 9.59375 10.886719 C 10.273438 10.886719 10.824219 11.441406 10.824219 12.121094 C 10.824219 12.796875 10.273438 13.351562 9.59375 13.351562 C 8.914062 13.351562 8.363281 12.796875 8.363281 12.121094 C 8.363281 11.441406 8.914062 10.886719 9.59375 10.886719 Z M 8.703125 13.757812 C 8.976562 13.902344 9.277344 13.980469 9.59375 13.980469 C 9.910156 13.980469 10.214844 13.902344 10.484375 13.757812 C 10.914062 13.910156 11.296875 14.171875 11.597656 14.515625 C 11.351562 15.019531 11.214844 15.582031 11.214844 16.171875 L 11.214844 16.496094 C 11.207031 16.496094 11.203125 16.496094 11.199219 16.496094 L 6.9375 16.496094 L 6.9375 16.261719 C 6.9375 15.136719 7.644531 14.132812 8.703125 13.757812 Z M 21.8125 18.46875 C 21.699219 18.488281 21.605469 18.570312 21.570312 18.679688 L 21.011719 20.394531 C 20.976562 20.503906 21.003906 20.625 21.085938 20.707031 L 21.957031 21.628906 L 21.082031 22.832031 L 19.9375 22.289062 C 19.832031 22.238281 19.710938 22.25 19.617188 22.316406 L 18.160156 23.375 C 18.066406 23.441406 18.015625 23.558594 18.03125 23.671875 L 18.195312 24.929688 L 16.78125 25.390625 L 16.175781 24.273438 C 16.121094 24.171875 16.011719 24.109375 15.898438 24.109375 L 14.097656 24.109375 C 13.980469 24.109375 13.875 24.171875 13.820312 24.273438 L 13.214844 25.390625 L 11.796875 24.929688 L 11.964844 23.671875 C 11.980469 23.558594 11.929688 23.441406 11.835938 23.375 L 10.378906 22.316406 C 10.285156 22.25 10.164062 22.238281 10.058594 22.289062 L 8.914062 22.832031 L 8.039062 21.628906 L 8.910156 20.707031 C 8.992188 20.625 9.019531 20.503906 8.980469 20.394531 L 8.425781 18.679688 C 8.390625 18.570312 8.296875 18.488281 8.183594 18.46875 L 6.9375 18.238281 L 6.9375 17.15625 L 11.230469 17.15625 C 11.210938 17.316406 11.199219 17.484375 11.199219 17.648438 C 11.199219 18.160156 11.300781 18.65625 11.5 19.125 C 11.6875 19.578125 11.964844 19.984375 12.3125 20.332031 C 12.660156 20.683594 13.066406 20.957031 13.519531 21.148438 C 13.988281 21.34375 14.484375 21.445312 14.996094 21.445312 C 15.511719 21.445312 16.007812 21.34375 16.476562 21.148438 C 16.929688 20.957031 17.335938 20.683594 17.683594 20.332031 C 18.03125 19.984375 18.304688 19.578125 18.496094 19.125 C 18.695312 18.65625 18.796875 18.160156 18.796875 17.648438 C 18.796875 17.484375 18.785156 17.316406 18.765625 17.15625 L 23.058594 17.15625 L 23.058594 18.238281 Z M 21.8125 18.46875 " fill-opacity="1" fill-rule="nonzero"/></g><g clip-path="url(#1886dd90cb)"><path fill="#935f3d" d="M 12.964844 7.820312 C 13.230469 8.082031 13.539062 8.289062 13.878906 8.433594 C 14.234375 8.585938 14.609375 8.660156 14.996094 8.660156 C 15.386719 8.660156 15.761719 8.585938 16.117188 8.433594 C 16.457031 8.289062 16.765625 8.082031 17.027344 7.820312 C 17.292969 7.554688 17.5 7.246094 17.644531 6.90625 C 17.792969 6.550781 17.871094 6.175781 17.871094 5.789062 C 17.871094 5.398438 17.792969 5.023438 17.644531 4.667969 C 17.5 4.328125 17.292969 4.019531 17.027344 3.757812 C 16.765625 3.492188 16.457031 3.285156 16.117188 3.140625 C 15.761719 2.992188 15.386719 2.914062 14.996094 2.914062 C 14.609375 2.914062 14.234375 2.992188 13.878906 3.140625 C 13.539062 3.285156 13.230469 3.492188 12.964844 3.757812 C 12.703125 4.019531 12.496094 4.328125 12.351562 4.667969 C 12.199219 5.023438 12.125 5.398438 12.125 5.789062 C 12.125 6.175781 12.199219 6.550781 12.351562 6.90625 C 12.496094 7.246094 12.703125 7.554688 12.964844 7.820312 Z M 13.414062 4.203125 C 13.835938 3.777344 14.398438 3.546875 14.996094 3.546875 C 15.597656 3.546875 16.160156 3.777344 16.582031 4.203125 C 17.007812 4.625 17.238281 5.1875 17.238281 5.789062 C 17.238281 6.386719 17.007812 6.949219 16.582031 7.371094 C 16.160156 7.796875 15.597656 8.027344 14.996094 8.027344 C 14.398438 8.027344 13.835938 7.796875 13.414062 7.371094 C 12.988281 6.949219 12.757812 6.386719 12.757812 5.789062 C 12.757812 5.1875 12.988281 4.625 13.414062 4.203125 Z M 13.414062 4.203125 " fill-opacity="1" fill-rule="nonzero"/></g><path fill="#935f3d" d="M 14.414062 7.050781 C 14.492188 7.050781 14.574219 7.019531 14.636719 6.957031 L 16.324219 5.269531 C 16.445312 5.148438 16.445312 4.949219 16.324219 4.824219 C 16.199219 4.703125 16 4.703125 15.878906 4.824219 L 14.414062 6.289062 L 13.855469 5.734375 C 13.734375 5.609375 13.535156 5.609375 13.410156 5.734375 C 13.289062 5.855469 13.289062 6.054688 13.410156 6.179688 L 14.191406 6.957031 C 14.25 7.019531 14.332031 7.050781 14.414062 7.050781 Z M 14.414062 7.050781 " fill-opacity="1" fill-rule="nonzero"/></svg>