<svg xmlns="http://www.w3.org/2000/svg" xmlns:xlink="http://www.w3.org/1999/xlink" width="40" zoomAndPan="magnify" viewBox="0 0 30 30.000001" height="40" preserveAspectRatio="xMidYMid meet" version="1.0"><defs><clipPath id="98c24be8f0"><path d="M 0.484375 0 L 29.515625 0 L 29.515625 29.03125 L 0.484375 29.03125 Z M 0.484375 0 " clip-rule="nonzero"/></clipPath><clipPath id="5661b79b40"><path d="M 3.386719 2.902344 L 26.613281 2.902344 L 26.613281 26.128906 L 3.386719 26.128906 Z M 3.386719 2.902344 " clip-rule="nonzero"/></clipPath></defs><g clip-path="url(#98c24be8f0)"><path fill="#ffffff" d="M 0.484375 0 L 29.515625 0 L 29.515625 29.03125 L 0.484375 29.03125 Z M 0.484375 0 " fill-opacity="1" fill-rule="nonzero"/><path fill="#ffffff" d="M 0.484375 0 L 29.515625 0 L 29.515625 29.03125 L 0.484375 29.03125 Z M 0.484375 0 " fill-opacity="1" fill-rule="nonzero"/></g><g clip-path="url(#5661b79b40)"><path fill="#935f3d" d="M 21.582031 25.355469 C 19.230469 25.355469 17.324219 23.445312 17.324219 21.097656 C 17.324219 18.75 19.230469 16.839844 21.582031 16.839844 C 23.929688 16.839844 25.839844 18.75 25.839844 21.097656 C 25.839844 23.445312 23.929688 25.355469 21.582031 25.355469 Z M 16.160156 20.710938 C 15.734375 20.710938 15.386719 20.363281 15.386719 19.933594 C 15.386719 19.507812 15.734375 19.160156 16.160156 19.160156 C 16.429688 19.160156 16.667969 19.300781 16.804688 19.519531 C 16.691406 19.863281 16.613281 20.21875 16.574219 20.589844 C 16.453125 20.667969 16.3125 20.710938 16.160156 20.710938 Z M 20.070312 16.296875 C 20.046875 16.222656 20.03125 16.144531 20.03125 16.066406 C 20.03125 15.636719 20.378906 15.289062 20.804688 15.289062 C 21.234375 15.289062 21.582031 15.636719 21.582031 16.066406 C 21.054688 16.066406 20.546875 16.144531 20.070312 16.296875 Z M 5.324219 22.644531 C 4.679688 22.644531 4.160156 22.125 4.160156 21.484375 L 4.160156 9.484375 L 23.515625 9.484375 L 23.515625 16.453125 C 23.148438 16.300781 22.753906 16.191406 22.347656 16.128906 C 22.351562 16.109375 22.355469 16.085938 22.355469 16.066406 C 22.355469 15.210938 21.660156 14.515625 20.804688 14.515625 C 19.953125 14.515625 19.257812 15.210938 19.257812 16.066406 C 19.257812 16.246094 19.292969 16.425781 19.351562 16.59375 C 18.410156 17.058594 17.632812 17.8125 17.140625 18.738281 C 16.867188 18.515625 16.527344 18.386719 16.160156 18.386719 C 15.308594 18.386719 14.613281 19.082031 14.613281 19.933594 C 14.613281 20.789062 15.308594 21.484375 16.160156 21.484375 C 16.300781 21.484375 16.433594 21.460938 16.566406 21.421875 C 16.59375 21.847656 16.667969 22.257812 16.792969 22.644531 Z M 5.324219 5.613281 L 5.710938 5.613281 L 5.710938 6.386719 C 5.710938 7.027344 6.230469 7.546875 6.871094 7.546875 C 7.511719 7.546875 8.03125 7.027344 8.03125 6.386719 L 8.03125 5.613281 L 10.355469 5.613281 L 10.355469 6.386719 C 10.355469 7.027344 10.875 7.546875 11.515625 7.546875 C 12.15625 7.546875 12.675781 7.027344 12.675781 6.386719 L 12.675781 5.613281 L 15 5.613281 L 15 6.386719 C 15 7.027344 15.519531 7.546875 16.160156 7.546875 C 16.800781 7.546875 17.324219 7.027344 17.324219 6.386719 L 17.324219 5.613281 L 19.644531 5.613281 L 19.644531 6.386719 C 19.644531 7.027344 20.164062 7.546875 20.804688 7.546875 C 21.449219 7.546875 21.96875 7.027344 21.96875 6.386719 L 21.96875 5.613281 L 22.355469 5.613281 C 22.996094 5.613281 23.515625 6.132812 23.515625 6.773438 L 23.515625 8.710938 L 4.160156 8.710938 L 4.160156 6.773438 C 4.160156 6.132812 4.679688 5.613281 5.324219 5.613281 Z M 6.484375 4.066406 C 6.484375 3.851562 6.65625 3.675781 6.871094 3.675781 C 7.085938 3.675781 7.257812 3.851562 7.257812 4.066406 L 7.257812 6.386719 C 7.257812 6.601562 7.085938 6.773438 6.871094 6.773438 C 6.65625 6.773438 6.484375 6.601562 6.484375 6.386719 Z M 11.128906 4.066406 C 11.128906 3.851562 11.304688 3.675781 11.515625 3.675781 C 11.730469 3.675781 11.902344 3.851562 11.902344 4.066406 L 11.902344 6.386719 C 11.902344 6.601562 11.730469 6.773438 11.515625 6.773438 C 11.304688 6.773438 11.128906 6.601562 11.128906 6.386719 Z M 15.773438 4.066406 C 15.773438 3.851562 15.949219 3.675781 16.160156 3.675781 C 16.375 3.675781 16.546875 3.851562 16.546875 4.066406 L 16.546875 6.386719 C 16.546875 6.601562 16.375 6.773438 16.160156 6.773438 C 15.949219 6.773438 15.773438 6.601562 15.773438 6.386719 Z M 20.417969 4.066406 C 20.417969 3.851562 20.59375 3.675781 20.804688 3.675781 C 21.019531 3.675781 21.195312 3.851562 21.195312 4.066406 L 21.195312 6.386719 C 21.195312 6.601562 21.019531 6.773438 20.804688 6.773438 C 20.59375 6.773438 20.417969 6.601562 20.417969 6.386719 Z M 24.289062 16.863281 L 24.289062 6.773438 C 24.289062 5.707031 23.421875 4.839844 22.355469 4.839844 L 21.96875 4.839844 L 21.96875 4.066406 C 21.96875 3.421875 21.449219 2.902344 20.804688 2.902344 C 20.164062 2.902344 19.644531 3.421875 19.644531 4.066406 L 19.644531 4.839844 L 17.324219 4.839844 L 17.324219 4.066406 C 17.324219 3.421875 16.800781 2.902344 16.160156 2.902344 C 15.519531 2.902344 15 3.421875 15 4.066406 L 15 4.839844 L 12.675781 4.839844 L 12.675781 4.066406 C 12.675781 3.421875 12.15625 2.902344 11.515625 2.902344 C 10.875 2.902344 10.355469 3.421875 10.355469 4.066406 L 10.355469 4.839844 L 8.03125 4.839844 L 8.03125 4.066406 C 8.03125 3.421875 7.511719 2.902344 6.871094 2.902344 C 6.230469 2.902344 5.710938 3.421875 5.710938 4.066406 L 5.710938 4.839844 L 5.324219 4.839844 C 4.253906 4.839844 3.386719 5.707031 3.386719 6.773438 L 3.386719 21.484375 C 3.386719 22.550781 4.253906 23.417969 5.324219 23.417969 L 17.121094 23.417969 C 17.960938 25.027344 19.644531 26.128906 21.582031 26.128906 C 24.355469 26.128906 26.613281 23.871094 26.613281 21.097656 C 26.613281 19.320312 25.683594 17.757812 24.289062 16.863281 " fill-opacity="1" fill-rule="nonzero"/></g><path fill="#935f3d" d="M 16.160156 11.417969 C 16.585938 11.417969 16.933594 11.765625 16.933594 12.195312 C 16.933594 12.621094 16.585938 12.96875 16.160156 12.96875 C 15.734375 12.96875 15.386719 12.621094 15.386719 12.195312 C 15.386719 11.765625 15.734375 11.417969 16.160156 11.417969 Z M 16.160156 13.742188 C 17.015625 13.742188 17.710938 13.046875 17.710938 12.195312 C 17.710938 11.339844 17.015625 10.644531 16.160156 10.644531 C 15.308594 10.644531 14.613281 11.339844 14.613281 12.195312 C 14.613281 13.046875 15.308594 13.742188 16.160156 13.742188 " fill-opacity="1" fill-rule="nonzero"/><path fill="#935f3d" d="M 11.515625 12.96875 C 11.089844 12.96875 10.742188 12.621094 10.742188 12.195312 C 10.742188 11.765625 11.089844 11.417969 11.515625 11.417969 C 11.941406 11.417969 12.289062 11.765625 12.289062 12.195312 C 12.289062 12.621094 11.941406 12.96875 11.515625 12.96875 Z M 11.515625 10.644531 C 10.660156 10.644531 9.96875 11.339844 9.96875 12.195312 C 9.96875 13.046875 10.660156 13.742188 11.515625 13.742188 C 12.371094 13.742188 13.066406 13.046875 13.066406 12.195312 C 13.066406 11.339844 12.371094 10.644531 11.515625 10.644531 " fill-opacity="1" fill-rule="nonzero"/><path fill="#935f3d" d="M 20.804688 11.417969 C 21.234375 11.417969 21.582031 11.765625 21.582031 12.195312 C 21.582031 12.621094 21.234375 12.96875 20.804688 12.96875 C 20.378906 12.96875 20.03125 12.621094 20.03125 12.195312 C 20.03125 11.765625 20.378906 11.417969 20.804688 11.417969 Z M 20.804688 13.742188 C 21.660156 13.742188 22.355469 13.046875 22.355469 12.195312 C 22.355469 11.339844 21.660156 10.644531 20.804688 10.644531 C 19.953125 10.644531 19.257812 11.339844 19.257812 12.195312 C 19.257812 13.046875 19.953125 13.742188 20.804688 13.742188 " fill-opacity="1" fill-rule="nonzero"/><path fill="#935f3d" d="M 6.871094 16.839844 C 6.445312 16.839844 6.097656 16.492188 6.097656 16.066406 C 6.097656 15.636719 6.445312 15.289062 6.871094 15.289062 C 7.296875 15.289062 7.644531 15.636719 7.644531 16.066406 C 7.644531 16.492188 7.296875 16.839844 6.871094 16.839844 Z M 6.871094 14.515625 C 6.015625 14.515625 5.324219 15.210938 5.324219 16.066406 C 5.324219 16.917969 6.015625 17.613281 6.871094 17.613281 C 7.726562 17.613281 8.417969 16.917969 8.417969 16.066406 C 8.417969 15.210938 7.726562 14.515625 6.871094 14.515625 " fill-opacity="1" fill-rule="nonzero"/><path fill="#935f3d" d="M 11.515625 16.839844 C 11.089844 16.839844 10.742188 16.492188 10.742188 16.066406 C 10.742188 15.636719 11.089844 15.289062 11.515625 15.289062 C 11.941406 15.289062 12.289062 15.636719 12.289062 16.066406 C 12.289062 16.492188 11.941406 16.839844 11.515625 16.839844 Z M 11.515625 14.515625 C 10.660156 14.515625 9.96875 15.210938 9.96875 16.066406 C 9.96875 16.917969 10.660156 17.613281 11.515625 17.613281 C 12.371094 17.613281 13.066406 16.917969 13.066406 16.066406 C 13.066406 15.210938 12.371094 14.515625 11.515625 14.515625 " fill-opacity="1" fill-rule="nonzero"/><path fill="#935f3d" d="M 16.160156 15.289062 C 16.585938 15.289062 16.933594 15.636719 16.933594 16.066406 C 16.933594 16.492188 16.585938 16.839844 16.160156 16.839844 C 15.734375 16.839844 15.386719 16.492188 15.386719 16.066406 C 15.386719 15.636719 15.734375 15.289062 16.160156 15.289062 Z M 16.160156 17.613281 C 17.015625 17.613281 17.710938 16.917969 17.710938 16.066406 C 17.710938 15.210938 17.015625 14.515625 16.160156 14.515625 C 15.308594 14.515625 14.613281 15.210938 14.613281 16.066406 C 14.613281 16.917969 15.308594 17.613281 16.160156 17.613281 " fill-opacity="1" fill-rule="nonzero"/><path fill="#935f3d" d="M 6.871094 20.710938 C 6.445312 20.710938 6.097656 20.363281 6.097656 19.933594 C 6.097656 19.507812 6.445312 19.160156 6.871094 19.160156 C 7.296875 19.160156 7.644531 19.507812 7.644531 19.933594 C 7.644531 20.363281 7.296875 20.710938 6.871094 20.710938 Z M 6.871094 18.386719 C 6.015625 18.386719 5.324219 19.082031 5.324219 19.933594 C 5.324219 20.789062 6.015625 21.484375 6.871094 21.484375 C 7.726562 21.484375 8.417969 20.789062 8.417969 19.933594 C 8.417969 19.082031 7.726562 18.386719 6.871094 18.386719 " fill-opacity="1" fill-rule="nonzero"/><path fill="#935f3d" d="M 11.515625 20.710938 C 11.089844 20.710938 10.742188 20.363281 10.742188 19.933594 C 10.742188 19.507812 11.089844 19.160156 11.515625 19.160156 C 11.941406 19.160156 12.289062 19.507812 12.289062 19.933594 C 12.289062 20.363281 11.941406 20.710938 11.515625 20.710938 Z M 11.515625 18.386719 C 10.660156 18.386719 9.96875 19.082031 9.96875 19.933594 C 9.96875 20.789062 10.660156 21.484375 11.515625 21.484375 C 12.371094 21.484375 13.066406 20.789062 13.066406 19.933594 C 13.066406 19.082031 12.371094 18.386719 11.515625 18.386719 " fill-opacity="1" fill-rule="nonzero"/><path fill="#935f3d" d="M 23.515625 20.710938 L 21.96875 20.710938 L 21.96875 19.160156 C 21.96875 18.949219 21.792969 18.773438 21.582031 18.773438 C 21.367188 18.773438 21.195312 18.949219 21.195312 19.160156 L 21.195312 20.710938 L 19.644531 20.710938 C 19.433594 20.710938 19.257812 20.882812 19.257812 21.097656 C 19.257812 21.308594 19.433594 21.484375 19.644531 21.484375 L 21.195312 21.484375 L 21.195312 23.03125 C 21.195312 23.246094 21.367188 23.417969 21.582031 23.417969 C 21.792969 23.417969 21.96875 23.246094 21.96875 23.03125 L 21.96875 21.484375 L 23.515625 21.484375 C 23.730469 21.484375 23.902344 21.308594 23.902344 21.097656 C 23.902344 20.882812 23.730469 20.710938 23.515625 20.710938 " fill-opacity="1" fill-rule="nonzero"/></svg>