<svg xmlns="http://www.w3.org/2000/svg" xmlns:xlink="http://www.w3.org/1999/xlink" width="40" zoomAndPan="magnify" viewBox="0 0 30 30.000001" height="40" preserveAspectRatio="xMidYMid meet" version="1.0"><defs><clipPath id="72c27f9667"><path d="M 0.484375 0 L 29.515625 0 L 29.515625 29.03125 L 0.484375 29.03125 Z M 0.484375 0 " clip-rule="nonzero"/></clipPath><clipPath id="37fea31f35"><path d="M 3.386719 3.296875 L 27.339844 3.296875 L 27.339844 25.796875 L 3.386719 25.796875 Z M 3.386719 3.296875 " clip-rule="nonzero"/></clipPath></defs><g clip-path="url(#72c27f9667)"><path fill="#ffffff" d="M 0.484375 0 L 29.515625 0 L 29.515625 29.03125 L 0.484375 29.03125 Z M 0.484375 0 " fill-opacity="1" fill-rule="nonzero"/><path fill="#ffffff" d="M 0.484375 0 L 29.515625 0 L 29.515625 29.03125 L 0.484375 29.03125 Z M 0.484375 0 " fill-opacity="1" fill-rule="nonzero"/></g><g clip-path="url(#37fea31f35)"><path fill="#935f3d" d="M 25.824219 25.335938 L 4.570312 25.335938 C 4.355469 25.335938 4.175781 25.160156 4.175781 24.941406 L 4.175781 7.230469 L 26.21875 7.230469 L 26.21875 24.941406 C 26.21875 25.160156 26.042969 25.335938 25.824219 25.335938 Z M 4.570312 4.082031 L 25.824219 4.082031 C 26.042969 4.082031 26.21875 4.257812 26.21875 4.476562 L 26.21875 6.445312 L 4.175781 6.445312 L 4.175781 4.476562 C 4.175781 4.257812 4.355469 4.082031 4.570312 4.082031 Z M 25.824219 3.296875 L 4.570312 3.296875 C 3.921875 3.296875 3.390625 3.824219 3.390625 4.476562 L 3.390625 24.941406 C 3.390625 25.59375 3.921875 26.125 4.570312 26.125 L 25.824219 26.125 C 26.476562 26.125 27.007812 25.59375 27.007812 24.941406 L 27.007812 4.476562 C 27.007812 3.824219 26.476562 3.296875 25.824219 3.296875 " fill-opacity="1" fill-rule="nonzero"/></g><path fill="#935f3d" d="M 8.507812 5.65625 C 8.722656 5.65625 8.902344 5.480469 8.902344 5.261719 C 8.902344 5.046875 8.722656 4.871094 8.507812 4.871094 C 8.289062 4.871094 8.113281 5.046875 8.113281 5.261719 C 8.113281 5.480469 8.289062 5.65625 8.507812 5.65625 " fill-opacity="1" fill-rule="nonzero"/><path fill="#935f3d" d="M 6.933594 5.65625 C 7.148438 5.65625 7.328125 5.480469 7.328125 5.261719 C 7.328125 5.046875 7.148438 4.871094 6.933594 4.871094 C 6.714844 4.871094 6.539062 5.046875 6.539062 5.261719 C 6.539062 5.480469 6.714844 5.65625 6.933594 5.65625 " fill-opacity="1" fill-rule="nonzero"/><path fill="#935f3d" d="M 5.359375 5.65625 C 5.574219 5.65625 5.753906 5.480469 5.753906 5.261719 C 5.753906 5.046875 5.574219 4.871094 5.359375 4.871094 C 5.140625 4.871094 4.964844 5.046875 4.964844 5.261719 C 4.964844 5.480469 5.140625 5.65625 5.359375 5.65625 " fill-opacity="1" fill-rule="nonzero"/><path fill="#935f3d" d="M 6.144531 15.890625 L 8.902344 15.890625 C 9.117188 15.890625 9.292969 15.714844 9.292969 15.496094 C 9.292969 15.28125 9.117188 15.101562 8.902344 15.101562 L 6.144531 15.101562 C 5.929688 15.101562 5.753906 15.28125 5.753906 15.496094 C 5.753906 15.714844 5.929688 15.890625 6.144531 15.890625 " fill-opacity="1" fill-rule="nonzero"/><path fill="#935f3d" d="M 10.476562 13.527344 L 9.503906 13.527344 L 8.046875 11.34375 C 7.972656 11.234375 7.851562 11.167969 7.71875 11.167969 C 7.589844 11.167969 7.464844 11.234375 7.390625 11.34375 L 6.539062 12.621094 L 6.539062 9.59375 L 10.476562 9.59375 Z M 6.882812 13.527344 L 7.71875 12.269531 L 8.558594 13.527344 Z M 10.867188 8.804688 L 6.144531 8.804688 C 5.929688 8.804688 5.753906 8.980469 5.753906 9.199219 L 5.753906 13.921875 C 5.753906 14.140625 5.929688 14.316406 6.144531 14.316406 L 10.867188 14.316406 C 11.085938 14.316406 11.261719 14.140625 11.261719 13.921875 L 11.261719 9.199219 C 11.261719 8.980469 11.085938 8.804688 10.867188 8.804688 " fill-opacity="1" fill-rule="nonzero"/><path fill="#935f3d" d="M 9.292969 11.167969 C 9.511719 11.167969 9.6875 10.992188 9.6875 10.773438 C 9.6875 10.554688 9.511719 10.378906 9.292969 10.378906 C 9.078125 10.378906 8.902344 10.554688 8.902344 10.773438 C 8.902344 10.992188 9.078125 11.167969 9.292969 11.167969 " fill-opacity="1" fill-rule="nonzero"/><path fill="#935f3d" d="M 17.167969 13.527344 L 16.195312 13.527344 L 14.738281 11.34375 C 14.664062 11.234375 14.542969 11.167969 14.410156 11.167969 C 14.28125 11.167969 14.15625 11.234375 14.082031 11.34375 L 13.230469 12.621094 L 13.230469 9.59375 L 17.167969 9.59375 Z M 13.574219 13.527344 L 14.410156 12.269531 L 15.25 13.527344 Z M 17.558594 8.804688 L 12.835938 8.804688 C 12.621094 8.804688 12.441406 8.980469 12.441406 9.199219 L 12.441406 13.921875 C 12.441406 14.140625 12.621094 14.316406 12.835938 14.316406 L 17.558594 14.316406 C 17.777344 14.316406 17.953125 14.140625 17.953125 13.921875 L 17.953125 9.199219 C 17.953125 8.980469 17.777344 8.804688 17.558594 8.804688 " fill-opacity="1" fill-rule="nonzero"/><path fill="#935f3d" d="M 15.984375 11.167969 C 16.203125 11.167969 16.378906 10.992188 16.378906 10.773438 C 16.378906 10.554688 16.203125 10.378906 15.984375 10.378906 C 15.769531 10.378906 15.59375 10.554688 15.59375 10.773438 C 15.59375 10.992188 15.769531 11.167969 15.984375 11.167969 " fill-opacity="1" fill-rule="nonzero"/><path fill="#935f3d" d="M 23.859375 13.527344 L 22.886719 13.527344 L 21.429688 11.34375 C 21.355469 11.234375 21.234375 11.167969 21.101562 11.167969 C 20.972656 11.167969 20.847656 11.234375 20.773438 11.34375 L 19.921875 12.621094 L 19.921875 9.59375 L 23.859375 9.59375 Z M 20.261719 13.527344 L 21.101562 12.269531 L 21.941406 13.527344 Z M 24.25 8.804688 L 19.527344 8.804688 C 19.3125 8.804688 19.132812 8.980469 19.132812 9.199219 L 19.132812 13.921875 C 19.132812 14.140625 19.3125 14.316406 19.527344 14.316406 L 24.25 14.316406 C 24.46875 14.316406 24.644531 14.140625 24.644531 13.921875 L 24.644531 9.199219 C 24.644531 8.980469 24.46875 8.804688 24.25 8.804688 " fill-opacity="1" fill-rule="nonzero"/><path fill="#935f3d" d="M 22.675781 11.167969 C 22.894531 11.167969 23.070312 10.992188 23.070312 10.773438 C 23.070312 10.554688 22.894531 10.378906 22.675781 10.378906 C 22.460938 10.378906 22.285156 10.554688 22.285156 10.773438 C 22.285156 10.992188 22.460938 11.167969 22.675781 11.167969 " fill-opacity="1" fill-rule="nonzero"/><path fill="#935f3d" d="M 10.476562 21.402344 L 9.503906 21.402344 L 8.046875 19.214844 C 7.972656 19.105469 7.851562 19.039062 7.71875 19.039062 C 7.589844 19.039062 7.464844 19.105469 7.390625 19.214844 L 6.539062 20.496094 L 6.539062 17.464844 L 10.476562 17.464844 Z M 6.882812 21.402344 L 7.71875 20.140625 L 8.558594 21.402344 Z M 10.867188 16.675781 L 6.144531 16.675781 C 5.929688 16.675781 5.753906 16.855469 5.753906 17.070312 L 5.753906 21.792969 C 5.753906 22.011719 5.929688 22.1875 6.144531 22.1875 L 10.867188 22.1875 C 11.085938 22.1875 11.261719 22.011719 11.261719 21.792969 L 11.261719 17.070312 C 11.261719 16.855469 11.085938 16.675781 10.867188 16.675781 " fill-opacity="1" fill-rule="nonzero"/><path fill="#935f3d" d="M 9.292969 19.039062 C 9.511719 19.039062 9.6875 18.863281 9.6875 18.644531 C 9.6875 18.429688 9.511719 18.253906 9.292969 18.253906 C 9.078125 18.253906 8.902344 18.429688 8.902344 18.644531 C 8.902344 18.863281 9.078125 19.039062 9.292969 19.039062 " fill-opacity="1" fill-rule="nonzero"/><path fill="#935f3d" d="M 17.167969 21.402344 L 16.195312 21.402344 L 14.738281 19.214844 C 14.664062 19.105469 14.542969 19.039062 14.410156 19.039062 C 14.28125 19.039062 14.15625 19.105469 14.082031 19.214844 L 13.230469 20.496094 L 13.230469 17.464844 L 17.167969 17.464844 Z M 13.574219 21.402344 L 14.410156 20.140625 L 15.25 21.402344 Z M 17.558594 16.675781 L 12.835938 16.675781 C 12.621094 16.675781 12.441406 16.855469 12.441406 17.070312 L 12.441406 21.792969 C 12.441406 22.011719 12.621094 22.1875 12.835938 22.1875 L 17.558594 22.1875 C 17.777344 22.1875 17.953125 22.011719 17.953125 21.792969 L 17.953125 17.070312 C 17.953125 16.855469 17.777344 16.675781 17.558594 16.675781 " fill-opacity="1" fill-rule="nonzero"/><path fill="#935f3d" d="M 15.984375 19.039062 C 16.203125 19.039062 16.378906 18.863281 16.378906 18.644531 C 16.378906 18.429688 16.203125 18.253906 15.984375 18.253906 C 15.769531 18.253906 15.59375 18.429688 15.59375 18.644531 C 15.59375 18.863281 15.769531 19.039062 15.984375 19.039062 " fill-opacity="1" fill-rule="nonzero"/><path fill="#935f3d" d="M 23.859375 21.402344 L 22.886719 21.402344 L 21.429688 19.214844 C 21.355469 19.105469 21.234375 19.039062 21.101562 19.039062 C 20.972656 19.039062 20.847656 19.105469 20.773438 19.214844 L 19.921875 20.496094 L 19.921875 17.464844 L 23.859375 17.464844 Z M 20.261719 21.402344 L 21.101562 20.140625 L 21.941406 21.402344 Z M 24.25 16.675781 L 19.527344 16.675781 C 19.3125 16.675781 19.132812 16.855469 19.132812 17.070312 L 19.132812 21.792969 C 19.132812 22.011719 19.3125 22.1875 19.527344 22.1875 L 24.25 22.1875 C 24.46875 22.1875 24.644531 22.011719 24.644531 21.792969 L 24.644531 17.070312 C 24.644531 16.855469 24.46875 16.675781 24.25 16.675781 " fill-opacity="1" fill-rule="nonzero"/><path fill="#935f3d" d="M 22.675781 19.039062 C 22.894531 19.039062 23.070312 18.863281 23.070312 18.644531 C 23.070312 18.429688 22.894531 18.253906 22.675781 18.253906 C 22.460938 18.253906 22.285156 18.429688 22.285156 18.644531 C 22.285156 18.863281 22.460938 19.039062 22.675781 19.039062 " fill-opacity="1" fill-rule="nonzero"/><path fill="#935f3d" d="M 10.867188 15.101562 C 10.652344 15.101562 10.476562 15.28125 10.476562 15.496094 C 10.476562 15.714844 10.652344 15.890625 10.867188 15.890625 C 11.085938 15.890625 11.261719 15.714844 11.261719 15.496094 C 11.261719 15.28125 11.085938 15.101562 10.867188 15.101562 " fill-opacity="1" fill-rule="nonzero"/><path fill="#935f3d" d="M 12.835938 15.890625 L 15.59375 15.890625 C 15.808594 15.890625 15.984375 15.714844 15.984375 15.496094 C 15.984375 15.28125 15.808594 15.101562 15.59375 15.101562 L 12.835938 15.101562 C 12.621094 15.101562 12.441406 15.28125 12.441406 15.496094 C 12.441406 15.714844 12.621094 15.890625 12.835938 15.890625 " fill-opacity="1" fill-rule="nonzero"/><path fill="#935f3d" d="M 17.558594 15.101562 C 17.34375 15.101562 17.167969 15.28125 17.167969 15.496094 C 17.167969 15.714844 17.34375 15.890625 17.558594 15.890625 C 17.777344 15.890625 17.953125 15.714844 17.953125 15.496094 C 17.953125 15.28125 17.777344 15.101562 17.558594 15.101562 " fill-opacity="1" fill-rule="nonzero"/><path fill="#935f3d" d="M 19.527344 15.890625 L 22.285156 15.890625 C 22.5 15.890625 22.675781 15.714844 22.675781 15.496094 C 22.675781 15.28125 22.5 15.101562 22.285156 15.101562 L 19.527344 15.101562 C 19.3125 15.101562 19.132812 15.28125 19.132812 15.496094 C 19.132812 15.714844 19.3125 15.890625 19.527344 15.890625 " fill-opacity="1" fill-rule="nonzero"/><path fill="#935f3d" d="M 24.25 15.101562 C 24.035156 15.101562 23.859375 15.28125 23.859375 15.496094 C 23.859375 15.714844 24.035156 15.890625 24.25 15.890625 C 24.46875 15.890625 24.644531 15.714844 24.644531 15.496094 C 24.644531 15.28125 24.46875 15.101562 24.25 15.101562 " fill-opacity="1" fill-rule="nonzero"/><path fill="#935f3d" d="M 8.902344 22.976562 L 6.144531 22.976562 C 5.929688 22.976562 5.753906 23.152344 5.753906 23.367188 C 5.753906 23.585938 5.929688 23.761719 6.144531 23.761719 L 8.902344 23.761719 C 9.117188 23.761719 9.292969 23.585938 9.292969 23.367188 C 9.292969 23.152344 9.117188 22.976562 8.902344 22.976562 " fill-opacity="1" fill-rule="nonzero"/><path fill="#935f3d" d="M 10.867188 22.976562 C 10.652344 22.976562 10.476562 23.152344 10.476562 23.367188 C 10.476562 23.585938 10.652344 23.761719 10.867188 23.761719 C 11.085938 23.761719 11.261719 23.585938 11.261719 23.367188 C 11.261719 23.152344 11.085938 22.976562 10.867188 22.976562 " fill-opacity="1" fill-rule="nonzero"/><path fill="#935f3d" d="M 15.59375 22.976562 L 12.835938 22.976562 C 12.621094 22.976562 12.441406 23.152344 12.441406 23.367188 C 12.441406 23.585938 12.621094 23.761719 12.835938 23.761719 L 15.59375 23.761719 C 15.808594 23.761719 15.984375 23.585938 15.984375 23.367188 C 15.984375 23.152344 15.808594 22.976562 15.59375 22.976562 " fill-opacity="1" fill-rule="nonzero"/><path fill="#935f3d" d="M 17.558594 22.976562 C 17.34375 22.976562 17.167969 23.152344 17.167969 23.367188 C 17.167969 23.585938 17.34375 23.761719 17.558594 23.761719 C 17.777344 23.761719 17.953125 23.585938 17.953125 23.367188 C 17.953125 23.152344 17.777344 22.976562 17.558594 22.976562 " fill-opacity="1" fill-rule="nonzero"/><path fill="#935f3d" d="M 22.285156 22.976562 L 19.527344 22.976562 C 19.3125 22.976562 19.132812 23.152344 19.132812 23.367188 C 19.132812 23.585938 19.3125 23.761719 19.527344 23.761719 L 22.285156 23.761719 C 22.5 23.761719 22.675781 23.585938 22.675781 23.367188 C 22.675781 23.152344 22.5 22.976562 22.285156 22.976562 " fill-opacity="1" fill-rule="nonzero"/><path fill="#935f3d" d="M 24.25 22.976562 C 24.035156 22.976562 23.859375 23.152344 23.859375 23.367188 C 23.859375 23.585938 24.035156 23.761719 24.25 23.761719 C 24.46875 23.761719 24.644531 23.585938 24.644531 23.367188 C 24.644531 23.152344 24.46875 22.976562 24.25 22.976562 " fill-opacity="1" fill-rule="nonzero"/></svg>