<svg xmlns="http://www.w3.org/2000/svg" xmlns:xlink="http://www.w3.org/1999/xlink" width="40" zoomAndPan="magnify" viewBox="0 0 30 30.000001" height="40" preserveAspectRatio="xMidYMid meet" version="1.0"><defs><clipPath id="e3cf2082a8"><path d="M 0.484375 0 L 29.515625 0 L 29.515625 29.03125 L 0.484375 29.03125 Z M 0.484375 0 " clip-rule="nonzero"/></clipPath><clipPath id="ed95ac84b1"><path d="M 7 19 L 26.613281 19 L 26.613281 26.128906 L 7 26.128906 Z M 7 19 " clip-rule="nonzero"/></clipPath><clipPath id="784d5739e7"><path d="M 3.386719 2.902344 L 23 2.902344 L 23 10 L 3.386719 10 Z M 3.386719 2.902344 " clip-rule="nonzero"/></clipPath></defs><g clip-path="url(#e3cf2082a8)"><path fill="#ffffff" d="M 0.484375 0 L 29.515625 0 L 29.515625 29.03125 L 0.484375 29.03125 Z M 0.484375 0 " fill-opacity="1" fill-rule="nonzero"/><path fill="#ffffff" d="M 0.484375 0 L 29.515625 0 L 29.515625 29.03125 L 0.484375 29.03125 Z M 0.484375 0 " fill-opacity="1" fill-rule="nonzero"/></g><g clip-path="url(#ed95ac84b1)"><path fill="#935f3d" d="M 26.25 21.410156 L 22.769531 21.410156 L 21.425781 20.066406 C 21.359375 19.996094 21.265625 19.960938 21.167969 19.960938 L 16.269531 19.960938 C 15.371094 19.960938 14.636719 20.691406 14.636719 21.59375 C 14.636719 21.929688 14.738281 22.242188 14.914062 22.5 L 13.628906 22.5 L 9.210938 20.460938 C 9.015625 20.371094 8.796875 20.324219 8.578125 20.324219 L 8.523438 20.324219 C 7.691406 20.324219 7.015625 21 7.015625 21.832031 C 7.015625 22.375 7.3125 22.878906 7.785156 23.144531 L 13.007812 26.082031 C 13.0625 26.113281 13.125 26.128906 13.1875 26.128906 L 26.25 26.128906 C 26.449219 26.128906 26.613281 25.964844 26.613281 25.765625 L 26.613281 21.773438 C 26.613281 21.574219 26.449219 21.410156 26.25 21.410156 Z M 25.886719 25.402344 L 13.28125 25.402344 L 8.140625 22.511719 C 7.894531 22.375 7.742188 22.113281 7.742188 21.832031 C 7.742188 21.398438 8.09375 21.046875 8.523438 21.046875 L 8.578125 21.046875 C 8.691406 21.046875 8.804688 21.074219 8.90625 21.121094 L 13.394531 23.191406 C 13.445312 23.214844 13.496094 23.226562 13.546875 23.226562 L 19.71875 23.226562 L 19.71875 22.5 L 16.269531 22.5 C 15.769531 22.5 15.363281 22.09375 15.363281 21.59375 C 15.363281 21.09375 15.769531 20.683594 16.269531 20.683594 L 21.019531 20.683594 L 22.363281 22.03125 C 22.433594 22.097656 22.523438 22.136719 22.621094 22.136719 L 25.886719 22.136719 Z M 25.886719 25.402344 " fill-opacity="1" fill-rule="nonzero"/></g><g clip-path="url(#784d5739e7)"><path fill="#935f3d" d="M 8.574219 8.964844 C 8.640625 9.035156 8.734375 9.074219 8.832031 9.074219 L 13.730469 9.074219 C 14.628906 9.074219 15.363281 8.339844 15.363281 7.441406 C 15.363281 7.105469 15.261719 6.792969 15.085938 6.53125 L 16.371094 6.53125 L 20.789062 8.570312 C 20.984375 8.660156 21.203125 8.710938 21.421875 8.710938 L 21.476562 8.710938 C 22.308594 8.710938 22.984375 8.03125 22.984375 7.203125 C 22.984375 6.65625 22.6875 6.15625 22.214844 5.886719 L 16.992188 2.949219 C 16.9375 2.917969 16.875 2.902344 16.816406 2.902344 L 3.75 2.902344 C 3.550781 2.902344 3.386719 3.066406 3.386719 3.265625 L 3.386719 7.257812 C 3.386719 7.457031 3.550781 7.621094 3.75 7.621094 L 7.230469 7.621094 Z M 4.113281 3.628906 L 16.71875 3.628906 L 21.859375 6.519531 C 22.105469 6.660156 22.257812 6.917969 22.257812 7.203125 C 22.257812 7.632812 21.90625 7.984375 21.476562 7.984375 L 21.421875 7.984375 C 21.308594 7.984375 21.195312 7.960938 21.09375 7.910156 L 16.605469 5.839844 C 16.554688 5.816406 16.503906 5.804688 16.453125 5.804688 L 10.28125 5.804688 L 10.28125 6.53125 L 13.730469 6.53125 C 14.230469 6.53125 14.636719 6.9375 14.636719 7.441406 C 14.636719 7.941406 14.230469 8.347656 13.730469 8.347656 L 8.980469 8.347656 L 7.636719 7 C 7.566406 6.933594 7.476562 6.894531 7.378906 6.894531 L 4.113281 6.894531 Z M 4.113281 3.628906 " fill-opacity="1" fill-rule="nonzero"/></g><path fill="#935f3d" d="M 15 9.476562 C 14.597656 9.476562 14.242188 9.6875 14.046875 10.039062 L 9.839844 17.617188 C 9.648438 17.957031 9.652344 18.363281 9.851562 18.699219 C 10.050781 19.035156 10.398438 19.234375 10.789062 19.234375 L 19.210938 19.234375 C 19.601562 19.234375 19.949219 19.035156 20.148438 18.699219 C 20.347656 18.363281 20.351562 17.957031 20.160156 17.617188 L 15.953125 10.039062 C 15.757812 9.6875 15.402344 9.476562 15 9.476562 Z M 19.523438 18.328125 C 19.492188 18.382812 19.398438 18.507812 19.210938 18.507812 L 10.789062 18.507812 C 10.601562 18.507812 10.507812 18.382812 10.476562 18.328125 C 10.445312 18.273438 10.382812 18.132812 10.472656 17.96875 L 14.683594 10.390625 C 14.777344 10.222656 14.9375 10.203125 15 10.203125 C 15.0625 10.203125 15.222656 10.222656 15.316406 10.390625 L 19.527344 17.96875 C 19.617188 18.132812 19.554688 18.273438 19.523438 18.328125 Z M 19.523438 18.328125 " fill-opacity="1" fill-rule="nonzero"/><path fill="#935f3d" d="M 15 15.96875 C 14.398438 15.96875 13.910156 16.457031 13.910156 17.054688 C 13.910156 17.65625 14.398438 18.144531 15 18.144531 C 15.601562 18.144531 16.089844 17.65625 16.089844 17.054688 C 16.089844 16.457031 15.601562 15.96875 15 15.96875 Z M 15 17.417969 C 14.800781 17.417969 14.636719 17.257812 14.636719 17.054688 C 14.636719 16.855469 14.800781 16.695312 15 16.695312 C 15.199219 16.695312 15.363281 16.855469 15.363281 17.054688 C 15.363281 17.257812 15.199219 17.417969 15 17.417969 Z M 15 17.417969 " fill-opacity="1" fill-rule="nonzero"/><path fill="#935f3d" d="M 13.910156 13.066406 L 13.910156 14.515625 C 13.910156 15.117188 14.398438 15.605469 15 15.605469 C 15.601562 15.605469 16.089844 15.117188 16.089844 14.515625 L 16.089844 13.066406 C 16.089844 12.464844 15.601562 11.976562 15 11.976562 C 14.398438 11.976562 13.910156 12.464844 13.910156 13.066406 Z M 15.363281 13.066406 L 15.363281 14.515625 C 15.363281 14.714844 15.199219 14.878906 15 14.878906 C 14.800781 14.878906 14.636719 14.714844 14.636719 14.515625 L 14.636719 13.066406 C 14.636719 12.863281 14.800781 12.703125 15 12.703125 C 15.199219 12.703125 15.363281 12.863281 15.363281 13.066406 Z M 15.363281 13.066406 " fill-opacity="1" fill-rule="nonzero"/><path fill="#935f3d" d="M 23.402344 12.214844 L 24.101562 12.023438 C 24.039062 11.792969 23.964844 11.558594 23.886719 11.335938 L 23.203125 11.582031 C 23.277344 11.789062 23.34375 12 23.402344 12.214844 Z M 23.402344 12.214844 " fill-opacity="1" fill-rule="nonzero"/><path fill="#935f3d" d="M 22.507812 20.226562 C 22.652344 20.039062 22.792969 19.839844 22.921875 19.636719 L 22.316406 19.242188 C 22.195312 19.429688 22.066406 19.613281 21.929688 19.789062 Z M 22.507812 20.226562 " fill-opacity="1" fill-rule="nonzero"/><path fill="#935f3d" d="M 22.953125 10.964844 L 23.617188 10.667969 C 23.519531 10.449219 23.410156 10.230469 23.296875 10.019531 L 22.65625 10.367188 C 22.765625 10.5625 22.863281 10.761719 22.953125 10.964844 Z M 22.953125 10.964844 " fill-opacity="1" fill-rule="nonzero"/><path fill="#935f3d" d="M 22.925781 9.398438 C 22.796875 9.199219 22.660156 9 22.511719 8.808594 L 21.933594 9.25 C 22.070312 9.425781 22.199219 9.609375 22.316406 9.792969 Z M 22.925781 9.398438 " fill-opacity="1" fill-rule="nonzero"/><path fill="#935f3d" d="M 23.710938 14.515625 C 23.710938 14.628906 23.707031 14.742188 23.703125 14.851562 L 24.429688 14.878906 C 24.433594 14.757812 24.433594 14.636719 24.433594 14.515625 C 24.433594 14.398438 24.433594 14.277344 24.429688 14.160156 L 23.703125 14.1875 C 23.707031 14.296875 23.710938 14.40625 23.710938 14.515625 Z M 23.710938 14.515625 " fill-opacity="1" fill-rule="nonzero"/><path fill="#935f3d" d="M 24.375 15.601562 L 23.652344 15.519531 C 23.628906 15.738281 23.59375 15.957031 23.550781 16.175781 L 24.265625 16.3125 C 24.308594 16.078125 24.347656 15.835938 24.375 15.601562 Z M 24.375 15.601562 " fill-opacity="1" fill-rule="nonzero"/><path fill="#935f3d" d="M 23.652344 13.523438 L 24.375 13.441406 C 24.347656 13.203125 24.3125 12.960938 24.265625 12.726562 L 23.554688 12.863281 C 23.59375 13.082031 23.628906 13.304688 23.652344 13.523438 Z M 23.652344 13.523438 " fill-opacity="1" fill-rule="nonzero"/><path fill="#935f3d" d="M 23.613281 18.371094 L 22.949219 18.074219 C 22.859375 18.277344 22.761719 18.476562 22.65625 18.671875 L 23.292969 19.019531 C 23.40625 18.808594 23.515625 18.589844 23.613281 18.371094 Z M 23.613281 18.371094 " fill-opacity="1" fill-rule="nonzero"/><path fill="#935f3d" d="M 24.101562 17.015625 L 23.402344 16.824219 C 23.34375 17.035156 23.273438 17.25 23.199219 17.457031 L 23.882812 17.703125 C 23.964844 17.476562 24.035156 17.246094 24.101562 17.015625 Z M 24.101562 17.015625 " fill-opacity="1" fill-rule="nonzero"/><path fill="#935f3d" d="M 7.074219 19.632812 C 7.203125 19.832031 7.339844 20.03125 7.488281 20.222656 L 8.066406 19.785156 C 7.929688 19.605469 7.800781 19.421875 7.683594 19.238281 Z M 7.074219 19.632812 " fill-opacity="1" fill-rule="nonzero"/><path fill="#935f3d" d="M 7.492188 8.804688 C 7.347656 8.996094 7.207031 9.195312 7.078125 9.394531 L 7.683594 9.789062 C 7.804688 9.601562 7.933594 9.421875 8.070312 9.246094 Z M 7.492188 8.804688 " fill-opacity="1" fill-rule="nonzero"/><path fill="#935f3d" d="M 6.289062 14.515625 C 6.289062 14.402344 6.292969 14.292969 6.296875 14.179688 L 5.570312 14.152344 C 5.566406 14.273438 5.566406 14.394531 5.566406 14.515625 C 5.566406 14.636719 5.566406 14.753906 5.570312 14.871094 L 6.296875 14.847656 C 6.292969 14.734375 6.289062 14.625 6.289062 14.515625 Z M 6.289062 14.515625 " fill-opacity="1" fill-rule="nonzero"/><path fill="#935f3d" d="M 6.597656 16.816406 L 5.898438 17.007812 C 5.960938 17.242188 6.035156 17.472656 6.113281 17.695312 L 6.796875 17.453125 C 6.722656 17.246094 6.65625 17.03125 6.597656 16.816406 Z M 6.597656 16.816406 " fill-opacity="1" fill-rule="nonzero"/><path fill="#935f3d" d="M 7.046875 18.070312 L 6.382812 18.367188 C 6.480469 18.582031 6.589844 18.800781 6.703125 19.011719 L 7.34375 18.664062 C 7.234375 18.46875 7.136719 18.269531 7.046875 18.070312 Z M 7.046875 18.070312 " fill-opacity="1" fill-rule="nonzero"/><path fill="#935f3d" d="M 6.347656 15.511719 L 5.625 15.59375 C 5.652344 15.828125 5.6875 16.070312 5.734375 16.304688 L 6.445312 16.167969 C 6.40625 15.949219 6.371094 15.730469 6.347656 15.511719 Z M 6.347656 15.511719 " fill-opacity="1" fill-rule="nonzero"/><path fill="#935f3d" d="M 6.800781 11.574219 L 6.117188 11.328125 C 6.035156 11.554688 5.964844 11.785156 5.898438 12.015625 L 6.597656 12.210938 C 6.65625 11.996094 6.726562 11.78125 6.800781 11.574219 Z M 6.800781 11.574219 " fill-opacity="1" fill-rule="nonzero"/><path fill="#935f3d" d="M 5.625 13.433594 L 6.347656 13.515625 C 6.371094 13.296875 6.40625 13.074219 6.449219 12.855469 L 5.734375 12.71875 C 5.691406 12.953125 5.652344 13.195312 5.625 13.433594 Z M 5.625 13.433594 " fill-opacity="1" fill-rule="nonzero"/><path fill="#935f3d" d="M 7.34375 10.363281 L 6.707031 10.015625 C 6.59375 10.222656 6.484375 10.441406 6.386719 10.660156 L 7.050781 10.957031 C 7.140625 10.753906 7.238281 10.554688 7.34375 10.363281 Z M 7.34375 10.363281 " fill-opacity="1" fill-rule="nonzero"/></svg>