<svg xmlns="http://www.w3.org/2000/svg" xmlns:xlink="http://www.w3.org/1999/xlink" width="40" zoomAndPan="magnify" viewBox="0 0 30 30.000001" height="40" preserveAspectRatio="xMidYMid meet" version="1.0"><defs><clipPath id="72bea2b269"><path d="M 0.484375 0 L 29.515625 0 L 29.515625 29.03125 L 0.484375 29.03125 Z M 0.484375 0 " clip-rule="nonzero"/></clipPath><clipPath id="467fb31f43"><path d="M 3.359375 2.902344 L 26.582031 2.902344 L 26.582031 26.128906 L 3.359375 26.128906 Z M 3.359375 2.902344 " clip-rule="nonzero"/></clipPath></defs><g clip-path="url(#72bea2b269)"><path fill="#ffffff" d="M 0.484375 0 L 29.515625 0 L 29.515625 29.03125 L 0.484375 29.03125 Z M 0.484375 0 " fill-opacity="1" fill-rule="nonzero"/><path fill="#ffffff" d="M 0.484375 0 L 29.515625 0 L 29.515625 29.03125 L 0.484375 29.03125 Z M 0.484375 0 " fill-opacity="1" fill-rule="nonzero"/></g><g clip-path="url(#467fb31f43)"><path fill="#935f3d" d="M 9.273438 11.3125 L 10.898438 11.3125 C 11.078125 11.3125 11.226562 11.167969 11.226562 10.984375 L 11.226562 9.363281 C 11.226562 9.179688 11.078125 9.035156 10.898438 9.035156 L 9.273438 9.035156 C 9.09375 9.035156 8.945312 9.179688 8.945312 9.363281 L 8.945312 10.984375 C 8.945312 11.167969 9.09375 11.3125 9.273438 11.3125 Z M 9.601562 9.691406 L 10.570312 9.691406 L 10.570312 10.65625 L 9.601562 10.65625 Z M 12.464844 11.3125 L 14.085938 11.3125 C 14.269531 11.3125 14.414062 11.167969 14.414062 10.984375 L 14.414062 9.363281 C 14.414062 9.179688 14.269531 9.035156 14.085938 9.035156 L 12.464844 9.035156 C 12.28125 9.035156 12.136719 9.179688 12.136719 9.363281 L 12.136719 10.984375 C 12.136719 11.167969 12.28125 11.3125 12.464844 11.3125 Z M 12.792969 9.691406 L 13.757812 9.691406 L 13.757812 10.65625 L 12.792969 10.65625 Z M 15.652344 11.3125 L 17.273438 11.3125 C 17.457031 11.3125 17.605469 11.167969 17.605469 10.984375 L 17.605469 9.363281 C 17.605469 9.179688 17.457031 9.035156 17.273438 9.035156 L 15.652344 9.035156 C 15.472656 9.035156 15.324219 9.179688 15.324219 9.363281 L 15.324219 10.984375 C 15.324219 11.167969 15.472656 11.3125 15.652344 11.3125 Z M 15.980469 9.691406 L 16.945312 9.691406 L 16.945312 10.65625 L 15.980469 10.65625 Z M 7.707031 12.222656 L 6.085938 12.222656 C 5.902344 12.222656 5.757812 12.371094 5.757812 12.550781 L 5.757812 14.175781 C 5.757812 14.355469 5.902344 14.503906 6.085938 14.503906 L 7.707031 14.503906 C 7.890625 14.503906 8.039062 14.355469 8.039062 14.175781 L 8.039062 12.550781 C 8.039062 12.371094 7.890625 12.222656 7.707031 12.222656 Z M 7.378906 13.84375 L 6.414062 13.84375 L 6.414062 12.878906 L 7.378906 12.878906 Z M 9.273438 14.503906 L 10.898438 14.503906 C 11.078125 14.503906 11.226562 14.355469 11.226562 14.175781 L 11.226562 12.550781 C 11.226562 12.371094 11.078125 12.222656 10.898438 12.222656 L 9.273438 12.222656 C 9.09375 12.222656 8.945312 12.371094 8.945312 12.550781 L 8.945312 14.175781 C 8.945312 14.355469 9.09375 14.503906 9.273438 14.503906 Z M 9.601562 12.878906 L 10.570312 12.878906 L 10.570312 13.84375 L 9.601562 13.84375 Z M 7.707031 15.410156 L 6.085938 15.410156 C 5.902344 15.410156 5.757812 15.558594 5.757812 15.738281 L 5.757812 17.363281 C 5.757812 17.542969 5.902344 17.691406 6.085938 17.691406 L 7.707031 17.691406 C 7.890625 17.691406 8.039062 17.542969 8.039062 17.363281 L 8.039062 15.738281 C 8.039062 15.558594 7.890625 15.410156 7.707031 15.410156 Z M 7.378906 17.035156 L 6.414062 17.035156 L 6.414062 16.070312 L 7.378906 16.070312 Z M 7.707031 9.035156 L 6.085938 9.035156 C 5.902344 9.035156 5.757812 9.179688 5.757812 9.363281 L 5.757812 10.984375 C 5.757812 11.167969 5.902344 11.3125 6.085938 11.3125 L 7.707031 11.3125 C 7.890625 11.3125 8.039062 11.167969 8.039062 10.984375 L 8.039062 9.363281 C 8.039062 9.179688 7.890625 9.035156 7.707031 9.035156 Z M 7.378906 10.65625 L 6.414062 10.65625 L 6.414062 9.691406 L 7.378906 9.691406 Z M 12.464844 14.503906 L 14.085938 14.503906 C 14.269531 14.503906 14.414062 14.355469 14.414062 14.175781 L 14.414062 12.550781 C 14.414062 12.371094 14.269531 12.222656 14.085938 12.222656 L 12.464844 12.222656 C 12.28125 12.222656 12.136719 12.371094 12.136719 12.550781 L 12.136719 14.175781 C 12.136719 14.355469 12.28125 14.503906 12.464844 14.503906 Z M 12.792969 12.878906 L 13.757812 12.878906 L 13.757812 13.84375 L 12.792969 13.84375 Z M 22.59375 14.613281 C 22.238281 14.40625 21.828125 14.347656 21.433594 14.441406 L 20.683594 11.644531 C 20.585938 11.277344 20.347656 10.972656 20.019531 10.78125 C 20.011719 10.777344 20.003906 10.773438 19.992188 10.765625 L 19.992188 6.109375 C 19.992188 5.191406 19.246094 4.445312 18.328125 4.445312 L 17.285156 4.445312 L 17.285156 3.230469 C 17.285156 3.050781 17.136719 2.902344 16.953125 2.902344 L 15.234375 2.902344 C 15.054688 2.902344 14.90625 3.050781 14.90625 3.230469 L 14.90625 4.445312 L 12.871094 4.445312 L 12.871094 3.230469 C 12.871094 3.050781 12.722656 2.902344 12.539062 2.902344 L 10.820312 2.902344 C 10.640625 2.902344 10.492188 3.050781 10.492188 3.230469 L 10.492188 4.445312 L 8.457031 4.445312 L 8.457031 3.230469 C 8.457031 3.050781 8.308594 2.902344 8.125 2.902344 L 6.40625 2.902344 C 6.226562 2.902344 6.078125 3.050781 6.078125 3.230469 L 6.078125 4.445312 L 5.035156 4.445312 C 4.117188 4.445312 3.367188 5.191406 3.367188 6.109375 L 3.367188 17.648438 C 3.367188 18.566406 4.117188 19.316406 5.035156 19.316406 L 8.28125 19.316406 C 8.296875 19.410156 8.316406 19.503906 8.339844 19.597656 C 8.660156 20.792969 9.742188 21.582031 10.925781 21.582031 C 11.15625 21.582031 11.386719 21.554688 11.617188 21.492188 L 11.742188 21.457031 L 13.394531 25.601562 C 13.476562 25.804688 13.644531 25.964844 13.851562 26.042969 C 13.941406 26.078125 14.035156 26.09375 14.128906 26.09375 C 14.253906 26.09375 14.378906 26.066406 14.492188 26.007812 L 15.164062 25.660156 C 15.527344 25.472656 15.6875 25.042969 15.535156 24.660156 L 13.957031 20.671875 C 16.292969 20.339844 18.503906 20.445312 20.238281 20.976562 L 20.257812 21.050781 C 20.355469 21.417969 20.589844 21.726562 20.921875 21.914062 C 21.140625 22.042969 21.386719 22.105469 21.632812 22.105469 C 21.753906 22.105469 21.878906 22.089844 22 22.058594 C 22.367188 21.960938 22.671875 21.726562 22.863281 21.394531 C 23.054688 21.066406 23.105469 20.683594 23.007812 20.316406 L 22.257812 17.519531 C 22.648438 17.402344 22.972656 17.144531 23.175781 16.792969 C 23.390625 16.421875 23.445312 15.992188 23.335938 15.582031 C 23.226562 15.167969 22.960938 14.824219 22.59375 14.613281 Z M 15.5625 3.5625 L 16.625 3.5625 L 16.625 5.953125 L 15.5625 5.953125 Z M 11.148438 3.5625 L 12.210938 3.5625 L 12.210938 5.953125 L 11.148438 5.953125 Z M 6.734375 3.5625 L 7.796875 3.5625 L 7.796875 5.953125 L 6.734375 5.953125 Z M 5.035156 5.101562 L 6.078125 5.101562 L 6.078125 6.285156 C 6.078125 6.464844 6.226562 6.613281 6.40625 6.613281 L 8.125 6.613281 C 8.308594 6.613281 8.457031 6.464844 8.457031 6.285156 L 8.457031 5.101562 L 10.492188 5.101562 L 10.492188 6.285156 C 10.492188 6.464844 10.640625 6.613281 10.820312 6.613281 L 12.539062 6.613281 C 12.722656 6.613281 12.871094 6.464844 12.871094 6.285156 L 12.871094 5.101562 L 14.90625 5.101562 L 14.90625 6.285156 C 14.90625 6.464844 15.054688 6.613281 15.234375 6.613281 L 16.953125 6.613281 C 17.136719 6.613281 17.285156 6.464844 17.285156 6.285156 L 17.285156 5.101562 L 18.328125 5.101562 C 18.882812 5.101562 19.335938 5.554688 19.335938 6.109375 L 19.335938 7.410156 L 4.023438 7.410156 L 4.023438 6.109375 C 4.023438 5.554688 4.476562 5.101562 5.035156 5.101562 Z M 8.261719 18.660156 L 5.035156 18.660156 C 4.476562 18.660156 4.023438 18.207031 4.023438 17.648438 L 4.023438 8.066406 L 19.335938 8.066406 L 19.335938 10.589844 C 19.203125 10.585938 19.070312 10.601562 18.941406 10.636719 C 18.574219 10.734375 18.269531 10.972656 18.078125 11.300781 C 17.886719 11.632812 17.835938 12.015625 17.933594 12.378906 L 17.953125 12.457031 C 16.707031 13.792969 14.832031 15 12.625 15.878906 C 12.597656 15.847656 12.570312 15.824219 12.535156 15.804688 C 12.457031 15.761719 12.371094 15.75 12.285156 15.769531 L 10.234375 16.320312 C 9.542969 16.503906 8.96875 16.949219 8.609375 17.570312 C 8.414062 17.910156 8.296875 18.28125 8.261719 18.660156 Z M 11.449219 20.855469 C 11.273438 20.902344 11.097656 20.925781 10.925781 20.925781 C 10.035156 20.925781 9.214844 20.328125 8.976562 19.429688 C 8.835938 18.910156 8.910156 18.367188 9.179688 17.898438 C 9.449219 17.429688 9.882812 17.09375 10.402344 16.957031 L 12.136719 16.492188 L 13.183594 20.390625 Z M 14.863281 25.078125 L 14.191406 25.421875 C 14.144531 25.445312 14.101562 25.4375 14.082031 25.429688 C 14.058594 25.421875 14.023438 25.402344 14.003906 25.355469 L 12.378906 21.285156 L 13.386719 21.015625 L 14.925781 24.898438 C 14.953125 24.96875 14.925781 25.042969 14.863281 25.078125 Z M 13.765625 20.035156 L 12.824219 16.507812 C 14.980469 15.652344 16.839844 14.492188 18.152344 13.195312 L 20.039062 20.238281 C 18.253906 19.769531 16.0625 19.695312 13.765625 20.035156 Z M 22.292969 21.066406 C 22.191406 21.242188 22.027344 21.371094 21.832031 21.421875 C 21.632812 21.476562 21.429688 21.449219 21.25 21.347656 C 21.070312 21.242188 20.945312 21.078125 20.894531 20.882812 L 18.570312 12.210938 C 18.515625 12.015625 18.542969 11.808594 18.648438 11.628906 C 18.75 11.453125 18.914062 11.324219 19.109375 11.273438 C 19.175781 11.253906 19.242188 11.246094 19.308594 11.246094 C 19.441406 11.246094 19.570312 11.28125 19.691406 11.351562 C 19.867188 11.453125 19.996094 11.617188 20.046875 11.8125 L 22.371094 20.484375 C 22.425781 20.683594 22.398438 20.886719 22.292969 21.066406 Z M 22.605469 16.464844 C 22.492188 16.664062 22.308594 16.8125 22.085938 16.882812 L 21.601562 15.074219 C 21.828125 15.027344 22.0625 15.0625 22.261719 15.179688 C 22.480469 15.304688 22.636719 15.507812 22.699219 15.75 C 22.765625 15.992188 22.730469 16.246094 22.605469 16.464844 Z M 26.316406 15.121094 L 24.800781 15.527344 C 24.773438 15.535156 24.742188 15.539062 24.714844 15.539062 C 24.570312 15.539062 24.4375 15.441406 24.398438 15.296875 C 24.351562 15.121094 24.453125 14.941406 24.628906 14.894531 L 26.144531 14.488281 C 26.320312 14.441406 26.5 14.542969 26.546875 14.71875 C 26.59375 14.894531 26.492188 15.074219 26.316406 15.121094 Z M 22.863281 13.414062 C 22.734375 13.285156 22.734375 13.078125 22.863281 12.949219 L 24.035156 11.78125 C 24.164062 11.652344 24.371094 11.652344 24.5 11.78125 C 24.628906 11.90625 24.628906 12.117188 24.5 12.246094 L 23.328125 13.414062 C 23.265625 13.480469 23.179688 13.511719 23.097656 13.511719 C 23.011719 13.511719 22.929688 13.480469 22.863281 13.414062 Z M 26.242188 18.289062 C 26.203125 18.4375 26.070312 18.535156 25.925781 18.535156 C 25.898438 18.535156 25.871094 18.53125 25.839844 18.523438 L 24.242188 18.09375 C 24.066406 18.046875 23.960938 17.867188 24.011719 17.691406 C 24.058594 17.515625 24.238281 17.414062 24.414062 17.460938 L 26.011719 17.886719 C 26.1875 17.933594 26.289062 18.113281 26.242188 18.289062 Z M 26.242188 18.289062 " fill-opacity="1" fill-rule="nonzero"/></g></svg>