<svg xmlns="http://www.w3.org/2000/svg" xmlns:xlink="http://www.w3.org/1999/xlink" width="40" zoomAndPan="magnify" viewBox="0 0 30 30.000001" height="40" preserveAspectRatio="xMidYMid meet" version="1.0"><defs><clipPath id="d398f8e7ed"><path d="M 0.484375 0 L 29.515625 0 L 29.515625 29.03125 L 0.484375 29.03125 Z M 0.484375 0 " clip-rule="nonzero"/></clipPath><clipPath id="5589d9248d"><path d="M 5.203125 3 L 24.796875 3 L 24.796875 26.128906 L 5.203125 26.128906 Z M 5.203125 3 " clip-rule="nonzero"/></clipPath></defs><g clip-path="url(#d398f8e7ed)"><path fill="#ffffff" d="M 0.484375 0 L 29.515625 0 L 29.515625 29.03125 L 0.484375 29.03125 Z M 0.484375 0 " fill-opacity="1" fill-rule="nonzero"/><path fill="#ffffff" d="M 0.484375 0 L 29.515625 0 L 29.515625 29.03125 L 0.484375 29.03125 Z M 0.484375 0 " fill-opacity="1" fill-rule="nonzero"/></g><g clip-path="url(#5589d9248d)"><path fill="#935f3d" d="M 5.46875 14.605469 C 5.730469 14.992188 6.265625 15.09375 6.652344 14.832031 L 7.90625 13.980469 C 7.847656 13.335938 7.785156 12.6875 7.722656 12.042969 L 5.695312 13.417969 C 5.304688 13.683594 5.203125 14.214844 5.46875 14.605469 Z M 24.320312 17.019531 C 24.582031 17.019531 24.792969 17.230469 24.792969 17.488281 C 24.792969 17.75 24.582031 17.957031 24.320312 17.957031 L 20.4375 17.957031 L 20.4375 20.210938 C 20.4375 20.472656 20.226562 20.683594 19.964844 20.683594 L 16.082031 20.683594 L 16.082031 22.933594 C 16.082031 23.195312 15.871094 23.40625 15.609375 23.40625 L 11.722656 23.40625 L 11.722656 25.660156 C 11.722656 25.917969 11.515625 26.128906 11.253906 26.128906 L 6.898438 26.128906 C 6.640625 26.128906 6.429688 25.917969 6.429688 25.660156 C 6.429688 25.398438 6.640625 25.1875 6.898438 25.1875 L 10.785156 25.1875 L 10.785156 22.933594 C 10.785156 22.675781 10.996094 22.464844 11.253906 22.464844 L 15.140625 22.464844 L 15.140625 20.210938 C 15.140625 19.953125 15.351562 19.742188 15.609375 19.742188 L 19.496094 19.742188 L 19.496094 17.488281 C 19.496094 17.230469 19.707031 17.019531 19.964844 17.019531 Z M 20.925781 6.503906 L 19.484375 7.363281 L 17.457031 6.828125 C 16.878906 6.671875 16.332031 7.148438 16.390625 7.734375 C 16.539062 9.265625 16.707031 11.039062 16.855469 12.574219 L 15.035156 15.992188 C 14.8125 16.40625 14.96875 16.921875 15.382812 17.144531 C 15.800781 17.363281 16.316406 17.207031 16.535156 16.792969 L 18.464844 13.171875 C 18.554688 13.023438 18.597656 12.847656 18.578125 12.660156 L 18.554688 12.445312 L 19.460938 12.753906 L 19.835938 15.378906 C 19.90625 15.847656 20.335938 16.171875 20.804688 16.101562 C 21.269531 16.035156 21.59375 15.601562 21.523438 15.136719 L 21.074219 11.992188 C 21.03125 11.683594 20.816406 11.410156 20.503906 11.304688 L 18.375 10.585938 L 18.207031 8.785156 L 19.382812 9.097656 C 19.597656 9.160156 19.839844 9.136719 20.050781 9.011719 L 21.796875 7.964844 C 22.203125 7.726562 22.335938 7.203125 22.09375 6.796875 C 21.851562 6.394531 21.332031 6.261719 20.925781 6.503906 Z M 17.125 3.191406 C 17.863281 2.902344 18.691406 3.265625 18.980469 4 C 19.265625 4.738281 18.902344 5.566406 18.167969 5.851562 C 17.429688 6.140625 16.601562 5.777344 16.316406 5.042969 C 16.027344 4.304688 16.390625 3.476562 17.125 3.191406 Z M 13.523438 10.78125 C 13.257812 10.390625 13.363281 9.859375 13.75 9.59375 L 15.777344 8.21875 C 15.839844 8.863281 15.902344 9.511719 15.960938 10.15625 L 14.707031 11.007812 C 14.320312 11.269531 13.785156 11.167969 13.523438 10.78125 Z M 13.804688 11.75 C 13.785156 11.765625 13.765625 11.777344 13.742188 11.789062 L 11.996094 12.835938 C 11.785156 12.960938 11.542969 12.984375 11.328125 12.921875 L 10.152344 12.609375 L 10.320312 14.410156 L 12.449219 15.128906 C 12.761719 15.234375 12.976562 15.507812 13.019531 15.816406 L 13.46875 18.960938 C 13.539062 19.425781 13.214844 19.859375 12.75 19.925781 C 12.28125 19.996094 11.851562 19.671875 11.78125 19.203125 L 11.40625 16.578125 L 10.5 16.269531 L 10.523438 16.484375 C 10.539062 16.671875 10.5 16.847656 10.410156 16.996094 L 8.480469 20.617188 C 8.261719 21.03125 7.746094 21.1875 7.328125 20.96875 C 6.914062 20.746094 6.757812 20.230469 6.980469 19.816406 L 8.800781 16.398438 C 8.652344 14.863281 8.484375 13.089844 8.335938 11.558594 C 8.277344 10.972656 8.824219 10.496094 9.402344 10.652344 L 11.429688 11.1875 L 12.722656 10.417969 C 12.742188 10.671875 12.824219 10.925781 12.976562 11.148438 C 13.183594 11.453125 13.480469 11.65625 13.804688 11.75 Z M 9.070312 7.015625 C 9.808594 6.726562 10.636719 7.089844 10.921875 7.824219 C 11.210938 8.5625 10.847656 9.390625 10.113281 9.679688 C 9.375 9.964844 8.546875 9.601562 8.261719 8.867188 C 7.972656 8.128906 8.335938 7.300781 9.070312 7.015625 Z M 9.070312 7.015625 " fill-opacity="1" fill-rule="evenodd"/></g></svg>