<svg xmlns="http://www.w3.org/2000/svg" xmlns:xlink="http://www.w3.org/1999/xlink" width="40" zoomAndPan="magnify" viewBox="0 0 30 30.000001" height="40" preserveAspectRatio="xMidYMid meet" version="1.0"><defs><clipPath id="48bc427e1b"><path d="M 0.484375 0 L 29.515625 0 L 29.515625 29.03125 L 0.484375 29.03125 Z M 0.484375 0 " clip-rule="nonzero"/></clipPath><clipPath id="6c2fa58092"><path d="M 3.386719 8.085938 L 15 8.085938 L 15 21 L 3.386719 21 Z M 3.386719 8.085938 " clip-rule="nonzero"/></clipPath><clipPath id="aa75c3c15d"><path d="M 15 8.085938 L 26.613281 8.085938 L 26.613281 21.148438 L 15 21.148438 Z M 15 8.085938 " clip-rule="nonzero"/></clipPath></defs><g clip-path="url(#48bc427e1b)"><path fill="#ffffff" d="M 0.484375 0 L 29.515625 0 L 29.515625 29.03125 L 0.484375 29.03125 Z M 0.484375 0 " fill-opacity="1" fill-rule="nonzero"/><path fill="#ffffff" d="M 0.484375 0 L 29.515625 0 L 29.515625 29.03125 L 0.484375 29.03125 Z M 0.484375 0 " fill-opacity="1" fill-rule="nonzero"/></g><g clip-path="url(#6c2fa58092)"><path fill="#393536" d="M 11.320312 20.253906 C 11.105469 20.253906 10.921875 20.132812 10.8125 19.90625 L 10.507812 19.230469 L 10.742188 19.871094 C 10.753906 19.902344 10.75 19.933594 10.730469 19.957031 C 10.714844 19.984375 10.6875 20 10.660156 20 C 10.25 20.015625 9.863281 19.808594 9.648438 19.457031 L 9.152344 18.648438 C 9.152344 18.644531 9.152344 18.644531 9.148438 18.640625 L 8.800781 17.960938 L 9.09375 18.660156 C 9.105469 18.683594 9.105469 18.714844 9.09375 18.738281 C 9.082031 18.761719 9.058594 18.78125 9.035156 18.789062 C 8.695312 18.878906 8.335938 18.757812 8.117188 18.476562 C 8.09375 18.449219 7.535156 17.765625 7.367188 17.507812 C 7.222656 17.289062 7.039062 16.929688 6.863281 16.585938 C 6.699219 16.273438 6.546875 15.976562 6.425781 15.785156 C 6.304688 15.585938 6.089844 15.320312 5.863281 15.042969 C 5.59375 14.714844 5.320312 14.375 5.175781 14.121094 C 5.003906 13.8125 4.859375 13.328125 4.703125 12.816406 C 4.546875 12.285156 4.382812 11.738281 4.191406 11.433594 C 4.085938 11.257812 3.617188 10.859375 3.445312 10.722656 C 3.402344 10.6875 3.398438 10.628906 3.429688 10.589844 C 3.460938 10.546875 3.519531 10.542969 3.558594 10.574219 C 3.585938 10.59375 4.203125 11.09375 4.351562 11.332031 C 4.550781 11.660156 4.71875 12.21875 4.882812 12.757812 C 5.027344 13.242188 5.175781 13.738281 5.339844 14.027344 C 5.472656 14.265625 5.742188 14.597656 6.003906 14.921875 C 6.234375 15.207031 6.453125 15.476562 6.582031 15.683594 C 6.707031 15.882812 6.863281 16.183594 7.027344 16.5 C 7.203125 16.839844 7.382812 17.191406 7.523438 17.402344 C 7.683594 17.652344 8.257812 18.351562 8.261719 18.359375 C 8.410156 18.550781 8.644531 18.652344 8.878906 18.625 L 7.683594 15.777344 C 7.664062 15.730469 7.683594 15.675781 7.730469 15.652344 C 7.773438 15.632812 7.828125 15.652344 7.851562 15.695312 L 9.3125 18.550781 L 9.804688 19.359375 C 9.964844 19.613281 10.230469 19.777344 10.519531 19.808594 L 9.472656 16.941406 C 9.457031 16.890625 9.476562 16.839844 9.523438 16.820312 C 9.570312 16.800781 9.621094 16.820312 9.644531 16.867188 L 10.980469 19.828125 C 11.132812 20.144531 11.410156 20.0625 11.488281 20.03125 C 11.703125 19.945312 11.875 19.714844 11.800781 19.476562 C 11.800781 19.472656 11.800781 19.46875 11.800781 19.46875 L 11.683594 18.9375 L 10.644531 15.984375 C 10.628906 15.9375 10.652344 15.882812 10.699219 15.863281 C 10.746094 15.84375 10.796875 15.867188 10.816406 15.914062 L 12.023438 18.585938 C 12.238281 18.328125 12.320312 17.980469 12.234375 17.652344 L 11.441406 14.558594 C 11.394531 14.445312 10.855469 13.023438 10.792969 12.371094 C 10.734375 11.738281 10.914062 11.054688 12.71875 10.800781 C 12.859375 10.78125 13.121094 10.703125 13.375 10.625 C 13.527344 10.578125 13.6875 10.53125 13.824219 10.492188 C 14.125 10.410156 14.242188 10.082031 14.199219 9.816406 C 14.15625 9.546875 13.949219 9.273438 13.5 9.300781 C 13.441406 9.316406 13.066406 9.402344 12.929688 9.425781 C 12.523438 9.492188 11.71875 9.570312 11.300781 9.582031 C 10.878906 9.59375 10.070312 9.53125 9.679688 9.472656 C 9.15625 9.390625 7.667969 8.988281 7.605469 8.96875 L 5.203125 8.28125 C 5.152344 8.265625 5.125 8.214844 5.136719 8.164062 C 5.152344 8.113281 5.203125 8.085938 5.253906 8.097656 L 7.65625 8.789062 C 7.667969 8.792969 9.195312 9.207031 9.707031 9.285156 C 10.085938 9.34375 10.890625 9.40625 11.292969 9.394531 C 11.699219 9.382812 12.507812 9.304688 12.898438 9.238281 C 13.039062 9.214844 13.464844 9.117188 13.46875 9.117188 C 13.472656 9.117188 13.476562 9.113281 13.480469 9.113281 C 14.058594 9.074219 14.328125 9.449219 14.378906 9.785156 C 14.4375 10.132812 14.277344 10.566406 13.875 10.675781 C 13.738281 10.710938 13.578125 10.757812 13.425781 10.804688 C 13.15625 10.886719 12.902344 10.964844 12.746094 10.988281 C 10.875 11.25 10.941406 11.96875 10.976562 12.351562 C 11.039062 12.992188 11.609375 14.480469 11.613281 14.496094 C 11.617188 14.496094 11.617188 14.5 11.617188 14.503906 L 12.414062 17.605469 C 12.527344 18.046875 12.390625 18.511719 12.058594 18.820312 C 12.039062 18.839844 12.007812 18.847656 11.980469 18.84375 C 11.949219 18.835938 11.925781 18.816406 11.914062 18.789062 L 11.539062 17.957031 L 11.863281 18.878906 C 11.863281 18.882812 11.863281 18.886719 11.863281 18.890625 L 11.980469 19.421875 C 12.082031 19.765625 11.847656 20.089844 11.558594 20.207031 C 11.476562 20.238281 11.398438 20.253906 11.320312 20.253906 " fill-opacity="1" fill-rule="nonzero"/></g><g clip-path="url(#aa75c3c15d)"><path fill="#393536" d="M 24.773438 21.152344 C 24.761719 21.152344 24.753906 21.148438 24.746094 21.148438 L 22.34375 20.457031 C 22.328125 20.453125 20.804688 20.039062 20.289062 19.960938 C 19.910156 19.902344 19.105469 19.839844 18.703125 19.851562 C 18.300781 19.863281 17.492188 19.941406 17.097656 20.007812 C 16.957031 20.03125 16.535156 20.128906 16.53125 20.128906 C 16.527344 20.128906 16.519531 20.132812 16.515625 20.132812 C 15.9375 20.171875 15.671875 19.796875 15.617188 19.460938 C 15.5625 19.113281 15.71875 18.679688 16.125 18.570312 C 16.261719 18.535156 16.417969 18.488281 16.570312 18.441406 C 16.84375 18.359375 17.097656 18.28125 17.253906 18.257812 C 19.125 17.996094 19.054688 17.277344 19.019531 16.894531 C 18.957031 16.253906 18.390625 14.765625 18.382812 14.75 C 18.382812 14.75 18.382812 14.746094 18.378906 14.742188 L 17.585938 11.640625 C 17.472656 11.199219 17.605469 10.734375 17.9375 10.425781 C 17.960938 10.40625 17.992188 10.398438 18.019531 10.402344 C 18.046875 10.410156 18.074219 10.429688 18.085938 10.457031 L 18.460938 11.289062 L 18.136719 10.367188 C 18.136719 10.363281 18.132812 10.359375 18.132812 10.355469 L 18.019531 9.824219 C 17.914062 9.480469 18.152344 9.15625 18.441406 9.039062 C 18.746094 8.914062 19.039062 9.03125 19.183594 9.339844 L 19.492188 10.015625 L 19.257812 9.375 C 19.246094 9.34375 19.25 9.3125 19.265625 9.289062 C 19.28125 9.261719 19.308594 9.246094 19.339844 9.246094 C 19.746094 9.230469 20.132812 9.4375 20.351562 9.789062 L 20.84375 10.597656 C 20.847656 10.601562 20.847656 10.601562 20.847656 10.605469 L 21.195312 11.285156 L 20.902344 10.585938 C 20.890625 10.5625 20.894531 10.53125 20.90625 10.507812 C 20.917969 10.484375 20.9375 10.464844 20.964844 10.457031 C 21.304688 10.367188 21.664062 10.488281 21.878906 10.769531 C 21.902344 10.796875 22.460938 11.484375 22.628906 11.738281 C 22.773438 11.960938 22.957031 12.316406 23.136719 12.660156 C 23.296875 12.972656 23.449219 13.269531 23.570312 13.460938 C 23.695312 13.660156 23.910156 13.925781 24.136719 14.203125 C 24.402344 14.53125 24.679688 14.871094 24.820312 15.125 C 24.996094 15.433594 25.140625 15.917969 25.292969 16.433594 C 25.453125 16.960938 25.617188 17.507812 25.804688 17.8125 C 25.914062 17.988281 26.382812 18.386719 26.554688 18.523438 C 26.59375 18.558594 26.601562 18.617188 26.570312 18.65625 C 26.539062 18.699219 26.480469 18.707031 26.4375 18.671875 C 26.414062 18.652344 25.796875 18.152344 25.648438 17.914062 C 25.445312 17.585938 25.277344 17.027344 25.117188 16.488281 C 24.972656 16.003906 24.824219 15.507812 24.660156 15.21875 C 24.527344 14.980469 24.253906 14.648438 23.992188 14.324219 C 23.761719 14.039062 23.542969 13.769531 23.414062 13.5625 C 23.289062 13.363281 23.136719 13.0625 22.972656 12.746094 C 22.796875 12.40625 22.613281 12.054688 22.476562 11.84375 C 22.3125 11.59375 21.742188 10.894531 21.734375 10.886719 C 21.585938 10.695312 21.351562 10.59375 21.117188 10.621094 L 22.3125 13.46875 C 22.332031 13.515625 22.3125 13.570312 22.269531 13.59375 C 22.222656 13.613281 22.167969 13.597656 22.148438 13.550781 L 20.683594 10.695312 L 20.191406 9.886719 C 20.035156 9.632812 19.769531 9.46875 19.476562 9.4375 L 20.527344 12.304688 C 20.542969 12.351562 20.519531 12.40625 20.472656 12.425781 C 20.429688 12.445312 20.375 12.425781 20.355469 12.378906 L 19.019531 9.417969 C 18.863281 9.101562 18.589844 9.183594 18.507812 9.214844 C 18.296875 9.300781 18.121094 9.53125 18.195312 9.769531 C 18.199219 9.773438 18.199219 9.777344 18.199219 9.777344 L 18.3125 10.308594 L 19.351562 13.261719 C 19.367188 13.3125 19.347656 13.363281 19.300781 13.382812 C 19.253906 13.402344 19.203125 13.378906 19.179688 13.332031 L 17.972656 10.660156 C 17.757812 10.917969 17.679688 11.265625 17.765625 11.59375 L 18.558594 14.6875 C 18.601562 14.800781 19.140625 16.222656 19.203125 16.875 C 19.265625 17.507812 19.082031 18.191406 17.277344 18.445312 C 17.136719 18.464844 16.875 18.542969 16.625 18.621094 C 16.472656 18.667969 16.3125 18.714844 16.171875 18.753906 C 15.871094 18.835938 15.757812 19.164062 15.800781 19.429688 C 15.84375 19.699219 16.050781 19.96875 16.496094 19.945312 C 16.554688 19.929688 16.929688 19.84375 17.070312 19.820312 C 17.472656 19.753906 18.28125 19.675781 18.699219 19.664062 C 19.121094 19.652344 19.929688 19.714844 20.316406 19.773438 C 20.839844 19.855469 22.328125 20.257812 22.390625 20.277344 L 24.796875 20.964844 C 24.847656 20.980469 24.875 21.03125 24.859375 21.082031 C 24.847656 21.125 24.8125 21.152344 24.773438 21.152344 " fill-opacity="1" fill-rule="nonzero"/></g><path fill="#393536" d="M 13.058594 13.839844 L 12.800781 13.839844 L 12.800781 12.507812 L 14.113281 12.507812 L 14.113281 12.769531 L 13.058594 12.769531 L 13.058594 13.839844 " fill-opacity="1" fill-rule="nonzero"/><path fill="#393536" d="M 14.113281 16.738281 L 12.800781 16.738281 L 12.800781 15.40625 L 13.058594 15.40625 L 13.058594 16.476562 L 14.113281 16.476562 L 14.113281 16.738281 " fill-opacity="1" fill-rule="nonzero"/><path fill="#393536" d="M 17.199219 13.839844 L 16.9375 13.839844 L 16.9375 12.769531 L 15.886719 12.769531 L 15.886719 12.507812 L 17.199219 12.507812 L 17.199219 13.839844 " fill-opacity="1" fill-rule="nonzero"/><path fill="#393536" d="M 17.199219 16.738281 L 15.886719 16.738281 L 15.886719 16.476562 L 16.9375 16.476562 L 16.9375 15.40625 L 17.199219 15.40625 L 17.199219 16.738281 " fill-opacity="1" fill-rule="nonzero"/><path fill="#393536" d="M 15.417969 14.625 C 15.417969 14.859375 15.230469 15.050781 15 15.050781 C 14.765625 15.050781 14.578125 14.859375 14.578125 14.625 C 14.578125 14.386719 14.765625 14.195312 15 14.195312 C 15.230469 14.195312 15.417969 14.386719 15.417969 14.625 " fill-opacity="1" fill-rule="nonzero"/><path fill="#393536" d="M 15 13.371094 C 14.320312 13.371094 13.765625 13.933594 13.765625 14.625 C 13.765625 15.3125 14.320312 15.875 15 15.875 C 15.679688 15.875 16.230469 15.3125 16.230469 14.625 C 16.230469 13.933594 15.679688 13.371094 15 13.371094 Z M 15 16.136719 C 14.175781 16.136719 13.507812 15.457031 13.507812 14.625 C 13.507812 13.789062 14.175781 13.109375 15 13.109375 C 15.820312 13.109375 16.492188 13.789062 16.492188 14.625 C 16.492188 15.457031 15.820312 16.136719 15 16.136719 " fill-opacity="1" fill-rule="nonzero"/></svg>