<svg xmlns="http://www.w3.org/2000/svg" xmlns:xlink="http://www.w3.org/1999/xlink" width="40" zoomAndPan="magnify" viewBox="0 0 30 30.000001" height="40" preserveAspectRatio="xMidYMid meet" version="1.0"><defs><clipPath id="561974b569"><path d="M 0.484375 0 L 29.515625 0 L 29.515625 29.03125 L 0.484375 29.03125 Z M 0.484375 0 " clip-rule="nonzero"/></clipPath><clipPath id="fdcb3d1317"><path d="M 5.171875 2.902344 L 24.769531 2.902344 L 24.769531 26.128906 L 5.171875 26.128906 Z M 5.171875 2.902344 " clip-rule="nonzero"/></clipPath><clipPath id="f1e9853140"><path d="M 20 2.902344 L 24.769531 2.902344 L 24.769531 8 L 20 8 Z M 20 2.902344 " clip-rule="nonzero"/></clipPath></defs><g clip-path="url(#561974b569)"><path fill="#ffffff" d="M 0.484375 0 L 29.515625 0 L 29.515625 29.03125 L 0.484375 29.03125 Z M 0.484375 0 " fill-opacity="1" fill-rule="nonzero"/><path fill="#ffffff" d="M 0.484375 0 L 29.515625 0 L 29.515625 29.03125 L 0.484375 29.03125 Z M 0.484375 0 " fill-opacity="1" fill-rule="nonzero"/></g><g clip-path="url(#fdcb3d1317)"><path fill="#935f3d" d="M 24.472656 26.128906 L 5.503906 26.128906 C 5.328125 26.128906 5.183594 25.988281 5.183594 25.8125 L 5.183594 3.246094 C 5.183594 3.070312 5.328125 2.929688 5.503906 2.929688 L 21.03125 2.929688 C 21.207031 2.929688 21.347656 3.070312 21.347656 3.246094 C 21.347656 3.421875 21.207031 3.566406 21.03125 3.566406 L 5.820312 3.566406 L 5.820312 25.492188 L 24.15625 25.492188 L 24.152344 6.859375 C 24.152344 6.683594 24.296875 6.539062 24.472656 6.539062 C 24.648438 6.539062 24.789062 6.683594 24.789062 6.859375 L 24.792969 25.8125 C 24.792969 25.894531 24.757812 25.976562 24.699219 26.035156 C 24.640625 26.09375 24.558594 26.128906 24.472656 26.128906 " fill-opacity="1" fill-rule="nonzero"/></g><g clip-path="url(#f1e9853140)"><path fill="#935f3d" d="M 21.347656 6.539062 L 23.726562 6.539062 L 21.347656 4.042969 Z M 24.472656 7.175781 L 21.03125 7.175781 C 20.855469 7.175781 20.710938 7.035156 20.710938 6.859375 L 20.710938 3.246094 C 20.710938 3.117188 20.789062 3 20.910156 2.953125 C 21.03125 2.902344 21.171875 2.933594 21.261719 3.027344 L 24.703125 6.636719 C 24.789062 6.730469 24.8125 6.867188 24.765625 6.984375 C 24.714844 7.101562 24.597656 7.175781 24.472656 7.175781 " fill-opacity="1" fill-rule="nonzero"/></g><path fill="#935f3d" d="M 8.667969 23.132812 L 9.792969 23.132812 L 9.792969 20.871094 L 8.667969 20.871094 Z M 10.109375 23.769531 L 8.351562 23.769531 C 8.175781 23.769531 8.03125 23.628906 8.03125 23.453125 L 8.03125 20.550781 C 8.03125 20.375 8.175781 20.234375 8.351562 20.234375 L 10.109375 20.234375 C 10.285156 20.234375 10.429688 20.375 10.429688 20.550781 L 10.429688 23.453125 C 10.429688 23.628906 10.285156 23.769531 10.109375 23.769531 " fill-opacity="1" fill-rule="nonzero"/><path fill="#935f3d" d="M 12.507812 23.132812 L 13.628906 23.132812 L 13.628906 19.070312 L 12.507812 19.070312 Z M 13.949219 23.769531 L 12.1875 23.769531 C 12.011719 23.769531 11.871094 23.628906 11.871094 23.453125 L 11.871094 18.75 C 11.871094 18.574219 12.011719 18.433594 12.1875 18.433594 L 13.949219 18.433594 C 14.125 18.433594 14.265625 18.574219 14.265625 18.75 L 14.265625 23.453125 C 14.265625 23.628906 14.125 23.769531 13.949219 23.769531 " fill-opacity="1" fill-rule="nonzero"/><path fill="#935f3d" d="M 16.347656 23.132812 L 17.46875 23.132812 L 17.46875 16.167969 L 16.347656 16.167969 Z M 17.789062 23.769531 L 16.027344 23.769531 C 15.851562 23.769531 15.710938 23.628906 15.710938 23.453125 L 15.710938 15.847656 C 15.710938 15.671875 15.851562 15.53125 16.027344 15.53125 L 17.789062 15.53125 C 17.964844 15.53125 18.105469 15.671875 18.105469 15.847656 L 18.105469 23.453125 C 18.105469 23.628906 17.964844 23.769531 17.789062 23.769531 " fill-opacity="1" fill-rule="nonzero"/><path fill="#935f3d" d="M 20.183594 23.132812 L 21.308594 23.132812 L 21.308594 18.460938 L 20.183594 18.460938 Z M 21.625 23.769531 L 19.867188 23.769531 C 19.691406 23.769531 19.546875 23.628906 19.546875 23.453125 L 19.546875 18.144531 C 19.546875 17.96875 19.691406 17.824219 19.867188 17.824219 L 21.625 17.824219 C 21.804688 17.824219 21.945312 17.96875 21.945312 18.144531 L 21.945312 23.453125 C 21.945312 23.628906 21.804688 23.769531 21.625 23.769531 " fill-opacity="1" fill-rule="nonzero"/><path fill="#935f3d" d="M 21.257812 15.722656 C 21.105469 15.722656 20.972656 15.613281 20.945312 15.460938 C 20.910156 15.289062 21.023438 15.121094 21.199219 15.089844 C 21.347656 15.0625 21.472656 15.003906 21.578125 14.917969 C 21.710938 14.804688 21.914062 14.820312 22.027344 14.957031 C 22.140625 15.089844 22.121094 15.289062 21.988281 15.402344 C 21.800781 15.5625 21.574219 15.667969 21.316406 15.714844 C 21.296875 15.71875 21.277344 15.722656 21.257812 15.722656 " fill-opacity="1" fill-rule="nonzero"/><path fill="#935f3d" d="M 20.253906 15.578125 C 20.210938 15.578125 20.167969 15.570312 20.125 15.550781 C 19.632812 15.324219 19.25 14.964844 18.878906 14.617188 L 18.8125 14.554688 C 18.441406 14.207031 18.074219 13.882812 17.636719 13.738281 C 17.550781 13.710938 17.460938 13.691406 17.371094 13.679688 C 17.195312 13.652344 17.078125 13.492188 17.101562 13.316406 C 17.128906 13.144531 17.289062 13.023438 17.464844 13.046875 C 17.589844 13.066406 17.714844 13.097656 17.832031 13.132812 C 18.394531 13.316406 18.839844 13.707031 19.25 14.089844 L 19.316406 14.152344 C 19.664062 14.480469 19.996094 14.789062 20.390625 14.972656 C 20.546875 15.042969 20.617188 15.234375 20.546875 15.394531 C 20.492188 15.511719 20.375 15.578125 20.253906 15.578125 " fill-opacity="1" fill-rule="nonzero"/><path fill="#935f3d" d="M 13.453125 16.0625 C 13.363281 16.0625 13.273438 16.023438 13.210938 15.949219 C 13.09375 15.816406 13.109375 15.617188 13.246094 15.503906 C 13.503906 15.277344 13.75 15.03125 14.007812 14.773438 C 14.546875 14.234375 15.101562 13.675781 15.820312 13.332031 C 15.980469 13.253906 16.148438 13.1875 16.320312 13.140625 C 16.488281 13.089844 16.664062 13.1875 16.714844 13.355469 C 16.761719 13.523438 16.667969 13.703125 16.496094 13.75 C 16.359375 13.789062 16.226562 13.84375 16.09375 13.90625 C 15.476562 14.203125 14.980469 14.699219 14.460938 15.222656 C 14.203125 15.480469 13.9375 15.746094 13.65625 15.984375 C 13.597656 16.039062 13.523438 16.0625 13.453125 16.0625 " fill-opacity="1" fill-rule="nonzero"/><path fill="#935f3d" d="M 9.738281 18.121094 C 9.585938 18.121094 9.453125 18.015625 9.425781 17.863281 C 9.390625 17.691406 9.503906 17.523438 9.675781 17.488281 C 9.730469 17.480469 9.78125 17.464844 9.835938 17.453125 C 10.675781 17.234375 11.507812 16.808594 12.460938 16.113281 C 12.601562 16.007812 12.800781 16.039062 12.90625 16.183594 C 13.007812 16.324219 12.976562 16.523438 12.835938 16.625 C 11.816406 17.371094 10.914062 17.828125 9.996094 18.070312 C 9.929688 18.085938 9.863281 18.101562 9.796875 18.113281 C 9.777344 18.117188 9.757812 18.121094 9.738281 18.121094 " fill-opacity="1" fill-rule="nonzero"/><path fill="#935f3d" d="M 8.722656 18.097656 C 8.691406 18.097656 8.660156 18.09375 8.628906 18.082031 C 8.386719 18.011719 8.171875 17.894531 7.988281 17.738281 C 7.855469 17.625 7.835938 17.421875 7.953125 17.289062 C 8.066406 17.15625 8.265625 17.140625 8.402344 17.253906 C 8.515625 17.351562 8.65625 17.425781 8.8125 17.472656 C 8.980469 17.523438 9.074219 17.699219 9.027344 17.867188 C 8.984375 18.007812 8.859375 18.097656 8.722656 18.097656 " fill-opacity="1" fill-rule="nonzero"/><path fill="#935f3d" d="M 9.230469 17.5625 C 9.125 17.5625 9.039062 17.648438 9.039062 17.753906 C 9.039062 17.859375 9.125 17.945312 9.230469 17.945312 C 9.335938 17.945312 9.421875 17.859375 9.421875 17.753906 C 9.421875 17.648438 9.335938 17.5625 9.230469 17.5625 Z M 9.230469 18.582031 C 8.773438 18.582031 8.402344 18.210938 8.402344 17.753906 C 8.402344 17.296875 8.773438 16.925781 9.230469 16.925781 C 9.6875 16.925781 10.058594 17.296875 10.058594 17.753906 C 10.058594 18.210938 9.6875 18.582031 9.230469 18.582031 " fill-opacity="1" fill-rule="nonzero"/><path fill="#935f3d" d="M 13.070312 15.890625 C 12.964844 15.890625 12.878906 15.976562 12.878906 16.082031 C 12.878906 16.1875 12.964844 16.273438 13.070312 16.273438 C 13.175781 16.273438 13.261719 16.1875 13.261719 16.082031 C 13.261719 15.976562 13.175781 15.890625 13.070312 15.890625 Z M 13.070312 16.910156 C 12.613281 16.910156 12.242188 16.539062 12.242188 16.082031 C 12.242188 15.625 12.613281 15.253906 13.070312 15.253906 C 13.527344 15.253906 13.898438 15.625 13.898438 16.082031 C 13.898438 16.539062 13.527344 16.910156 13.070312 16.910156 " fill-opacity="1" fill-rule="nonzero"/><path fill="#935f3d" d="M 16.90625 13.148438 C 16.800781 13.148438 16.714844 13.234375 16.714844 13.339844 C 16.714844 13.445312 16.800781 13.53125 16.90625 13.53125 C 17.011719 13.53125 17.097656 13.445312 17.097656 13.339844 C 17.097656 13.234375 17.011719 13.148438 16.90625 13.148438 Z M 16.90625 14.167969 C 16.453125 14.167969 16.078125 13.796875 16.078125 13.339844 C 16.078125 12.886719 16.453125 12.511719 16.90625 12.511719 C 17.363281 12.511719 17.734375 12.886719 17.734375 13.339844 C 17.734375 13.796875 17.363281 14.167969 16.90625 14.167969 " fill-opacity="1" fill-rule="nonzero"/><path fill="#935f3d" d="M 20.746094 15.207031 C 20.640625 15.207031 20.554688 15.292969 20.554688 15.398438 C 20.554688 15.503906 20.640625 15.589844 20.746094 15.589844 C 20.851562 15.589844 20.9375 15.503906 20.9375 15.398438 C 20.9375 15.292969 20.851562 15.207031 20.746094 15.207031 Z M 20.746094 16.226562 C 20.289062 16.226562 19.917969 15.855469 19.917969 15.398438 C 19.917969 14.941406 20.289062 14.570312 20.746094 14.570312 C 21.203125 14.570312 21.574219 14.941406 21.574219 15.398438 C 21.574219 15.855469 21.203125 16.226562 20.746094 16.226562 " fill-opacity="1" fill-rule="nonzero"/><path fill="#935f3d" d="M 11.707031 8.820312 C 11.574219 8.628906 11.371094 8.464844 11.097656 8.339844 C 10.910156 8.253906 10.5625 8.15625 10.0625 8.042969 L 10.035156 8.035156 C 9.5625 7.925781 9.261719 7.820312 9.148438 7.714844 C 9.035156 7.613281 8.980469 7.480469 8.980469 7.324219 C 8.980469 7.140625 9.0625 6.980469 9.222656 6.851562 C 9.386719 6.71875 9.65625 6.652344 10.019531 6.652344 L 10.03125 6.652344 C 10.375 6.65625 10.636719 6.726562 10.8125 6.871094 C 10.9375 6.976562 11.027344 7.113281 11.078125 7.289062 C 11.121094 7.429688 11.246094 7.523438 11.390625 7.523438 C 11.398438 7.523438 11.410156 7.523438 11.417969 7.523438 C 11.515625 7.515625 11.605469 7.464844 11.660156 7.382812 C 11.71875 7.300781 11.734375 7.199219 11.707031 7.105469 C 11.667969 6.972656 11.609375 6.84375 11.53125 6.726562 C 11.386719 6.511719 11.179688 6.34375 10.914062 6.230469 C 10.660156 6.121094 10.363281 6.066406 10.035156 6.0625 L 10.03125 6.0625 C 10.019531 6.0625 10.007812 6.0625 9.996094 6.0625 C 9.679688 6.0625 9.390625 6.117188 9.132812 6.222656 C 8.875 6.328125 8.675781 6.488281 8.539062 6.695312 C 8.40625 6.902344 8.335938 7.128906 8.335938 7.367188 C 8.335938 7.582031 8.394531 7.78125 8.503906 7.957031 C 8.613281 8.132812 8.785156 8.28125 9.007812 8.398438 C 9.179688 8.488281 9.484375 8.585938 9.910156 8.6875 C 9.957031 8.699219 9.992188 8.710938 10.027344 8.71875 C 10.382812 8.804688 10.621094 8.871094 10.734375 8.914062 C 10.921875 8.984375 11.058594 9.074219 11.140625 9.179688 C 11.21875 9.285156 11.261719 9.40625 11.261719 9.546875 C 11.261719 9.683594 11.21875 9.8125 11.132812 9.929688 C 11.050781 10.046875 10.917969 10.136719 10.746094 10.207031 C 10.570312 10.273438 10.363281 10.308594 10.132812 10.308594 C 10.097656 10.308594 10.066406 10.308594 10.03125 10.304688 C 9.8125 10.296875 9.613281 10.25 9.433594 10.171875 C 9.226562 10.082031 9.074219 9.964844 8.976562 9.820312 C 8.914062 9.730469 8.867188 9.621094 8.835938 9.5 C 8.796875 9.359375 8.667969 9.261719 8.523438 9.261719 C 8.511719 9.261719 8.5 9.261719 8.492188 9.261719 C 8.398438 9.269531 8.3125 9.320312 8.257812 9.398438 C 8.199219 9.472656 8.179688 9.566406 8.203125 9.660156 C 8.246094 9.839844 8.316406 10.007812 8.417969 10.164062 C 8.582031 10.410156 8.8125 10.601562 9.097656 10.722656 C 9.351562 10.835938 9.667969 10.894531 10.03125 10.90625 C 10.074219 10.910156 10.117188 10.910156 10.164062 10.910156 C 10.496094 10.910156 10.800781 10.847656 11.066406 10.726562 C 11.335938 10.601562 11.542969 10.429688 11.6875 10.207031 C 11.832031 9.984375 11.902344 9.746094 11.902344 9.496094 C 11.902344 9.242188 11.835938 9.015625 11.707031 8.820312 " fill-opacity="1" fill-rule="nonzero"/><path fill="#935f3d" d="M 10.046875 6.402344 C 9.871094 6.402344 9.730469 6.261719 9.730469 6.082031 L 9.730469 5.605469 C 9.730469 5.429688 9.871094 5.285156 10.046875 5.285156 C 10.222656 5.285156 10.367188 5.429688 10.367188 5.605469 L 10.367188 6.082031 C 10.367188 6.261719 10.222656 6.402344 10.046875 6.402344 " fill-opacity="1" fill-rule="nonzero"/><path fill="#935f3d" d="M 10.046875 11.683594 C 9.871094 11.683594 9.730469 11.542969 9.730469 11.367188 L 9.730469 10.886719 C 9.730469 10.710938 9.871094 10.570312 10.046875 10.570312 C 10.222656 10.570312 10.367188 10.710938 10.367188 10.886719 L 10.367188 11.367188 C 10.367188 11.542969 10.222656 11.683594 10.046875 11.683594 " fill-opacity="1" fill-rule="nonzero"/><path fill="#935f3d" d="M 19.164062 6.773438 L 13.550781 6.773438 C 13.375 6.773438 13.234375 6.632812 13.234375 6.457031 C 13.234375 6.28125 13.375 6.136719 13.550781 6.136719 L 19.164062 6.136719 C 19.339844 6.136719 19.484375 6.28125 19.484375 6.457031 C 19.484375 6.632812 19.339844 6.773438 19.164062 6.773438 " fill-opacity="1" fill-rule="nonzero"/><path fill="#935f3d" d="M 16.136719 8.804688 L 13.550781 8.804688 C 13.375 8.804688 13.234375 8.660156 13.234375 8.484375 C 13.234375 8.308594 13.375 8.167969 13.550781 8.167969 L 16.136719 8.167969 C 16.3125 8.167969 16.457031 8.308594 16.457031 8.484375 C 16.457031 8.660156 16.3125 8.804688 16.136719 8.804688 " fill-opacity="1" fill-rule="nonzero"/><path fill="#935f3d" d="M 21.78125 8.804688 L 17.335938 8.804688 C 17.160156 8.804688 17.019531 8.660156 17.019531 8.484375 C 17.019531 8.308594 17.160156 8.167969 17.335938 8.167969 L 21.78125 8.167969 C 21.957031 8.167969 22.101562 8.308594 22.101562 8.484375 C 22.101562 8.660156 21.957031 8.804688 21.78125 8.804688 " fill-opacity="1" fill-rule="nonzero"/><path fill="#935f3d" d="M 19.582031 10.832031 L 13.550781 10.832031 C 13.375 10.832031 13.234375 10.691406 13.234375 10.515625 C 13.234375 10.339844 13.375 10.195312 13.550781 10.195312 L 19.582031 10.195312 C 19.757812 10.195312 19.902344 10.339844 19.902344 10.515625 C 19.902344 10.691406 19.757812 10.832031 19.582031 10.832031 " fill-opacity="1" fill-rule="nonzero"/><path fill="#935f3d" d="M 21.78125 10.832031 L 20.566406 10.832031 C 20.390625 10.832031 20.25 10.691406 20.25 10.515625 C 20.25 10.339844 20.390625 10.195312 20.566406 10.195312 L 21.78125 10.195312 C 21.957031 10.195312 22.101562 10.339844 22.101562 10.515625 C 22.101562 10.691406 21.957031 10.832031 21.78125 10.832031 " fill-opacity="1" fill-rule="nonzero"/></svg>