<svg xmlns="http://www.w3.org/2000/svg" xmlns:xlink="http://www.w3.org/1999/xlink" width="40" zoomAndPan="magnify" viewBox="0 0 30 30.000001" height="40" preserveAspectRatio="xMidYMid meet" version="1.0"><defs><clipPath id="37f3b4345b"><path d="M 0.484375 0 L 29.515625 0 L 29.515625 29.03125 L 0.484375 29.03125 Z M 0.484375 0 " clip-rule="nonzero"/></clipPath><clipPath id="9809f6f2a1"><path d="M 17 12 L 26.613281 12 L 26.613281 22.25 L 17 22.25 Z M 17 12 " clip-rule="nonzero"/></clipPath><clipPath id="69aec2c2ae"><path d="M 3.386719 9 L 6 9 L 6 11 L 3.386719 11 Z M 3.386719 9 " clip-rule="nonzero"/></clipPath><clipPath id="c274b0bca9"><path d="M 8 20 L 13 20 L 13 22.25 L 8 22.25 Z M 8 20 " clip-rule="nonzero"/></clipPath><clipPath id="ca234e5cf9"><path d="M 9 4.105469 L 23 4.105469 L 23 12 L 9 12 Z M 9 4.105469 " clip-rule="nonzero"/></clipPath></defs><g clip-path="url(#37f3b4345b)"><path fill="#ffffff" d="M 0.484375 0 L 29.515625 0 L 29.515625 29.03125 L 0.484375 29.03125 Z M 0.484375 0 " fill-opacity="1" fill-rule="nonzero"/><path fill="#ffffff" d="M 0.484375 0 L 29.515625 0 L 29.515625 29.03125 L 0.484375 29.03125 Z M 0.484375 0 " fill-opacity="1" fill-rule="nonzero"/></g><path fill="#935f3d" d="M 21.800781 19.648438 C 20.675781 19.648438 19.75 18.738281 19.75 17.582031 C 19.75 16.445312 20.675781 15.519531 21.800781 15.519531 C 22.929688 15.519531 23.878906 16.445312 23.878906 17.582031 C 23.878906 18.738281 22.953125 19.648438 21.800781 19.648438 Z M 21.800781 16.199219 C 21.039062 16.199219 20.417969 16.808594 20.417969 17.597656 C 20.417969 18.398438 21.039062 19.007812 21.800781 19.007812 C 22.574219 19.007812 23.214844 18.398438 23.214844 17.597656 C 23.214844 16.808594 22.574219 16.199219 21.800781 16.199219 Z M 21.800781 16.199219 " fill-opacity="1" fill-rule="evenodd"/><g clip-path="url(#9809f6f2a1)"><path fill="#935f3d" d="M 22.617188 22.363281 L 21 22.363281 C 20.808594 22.363281 20.660156 22.214844 20.660156 22.023438 L 20.660156 21.234375 C 20.429688 21.152344 20.226562 21.058594 20.023438 20.964844 L 19.480469 21.519531 C 19.34375 21.644531 19.140625 21.644531 19.003906 21.519531 L 17.851562 20.394531 C 17.796875 20.324219 17.753906 20.230469 17.753906 20.164062 C 17.753906 20.082031 17.796875 19.988281 17.851562 19.933594 L 18.40625 19.390625 C 18.285156 19.1875 18.21875 18.953125 18.136719 18.75 L 17.347656 18.75 C 17.160156 18.75 17.007812 18.601562 17.007812 18.410156 L 17.007812 16.796875 C 17.007812 16.605469 17.160156 16.457031 17.347656 16.457031 L 18.164062 16.457031 C 18.21875 16.253906 18.3125 16.023438 18.421875 15.820312 L 17.851562 15.25 C 17.796875 15.195312 17.753906 15.097656 17.753906 15.03125 C 17.753906 14.949219 17.796875 14.855469 17.851562 14.800781 L 19.003906 13.675781 C 19.140625 13.539062 19.34375 13.539062 19.480469 13.675781 L 20.035156 14.203125 C 20.238281 14.082031 20.457031 13.988281 20.675781 13.933594 L 20.675781 13.160156 C 20.675781 12.980469 20.824219 12.832031 21.015625 12.832031 L 22.628906 12.832031 C 22.820312 12.832031 22.96875 12.980469 22.96875 13.160156 L 22.96875 13.960938 C 23.199219 14.027344 23.402344 14.121094 23.605469 14.21875 L 24.164062 13.675781 C 24.285156 13.539062 24.488281 13.539062 24.625 13.675781 L 25.75 14.800781 C 25.804688 14.855469 25.847656 14.949219 25.847656 15.03125 C 25.847656 15.097656 25.804688 15.195312 25.75 15.25 L 25.207031 15.792969 C 25.316406 16.007812 25.414062 16.226562 25.492188 16.445312 L 26.265625 16.445312 C 26.457031 16.445312 26.605469 16.59375 26.605469 16.78125 L 26.605469 18.398438 C 26.605469 18.589844 26.457031 18.738281 26.265625 18.738281 L 25.492188 18.738281 C 25.414062 18.953125 25.316406 19.1875 25.234375 19.375 L 25.777344 19.917969 C 25.832031 19.972656 25.875 20.066406 25.875 20.148438 C 25.875 20.21875 25.832031 20.3125 25.777344 20.367188 L 24.652344 21.492188 C 24.515625 21.628906 24.3125 21.628906 24.175781 21.492188 L 23.632812 20.949219 C 23.445312 21.058594 23.214844 21.140625 22.996094 21.207031 L 22.996094 22.007812 C 22.953125 22.214844 22.804688 22.363281 22.617188 22.363281 Z M 21.339844 21.710938 L 22.289062 21.710938 L 22.289062 21.003906 C 22.289062 20.855469 22.386719 20.71875 22.535156 20.691406 C 22.914062 20.597656 23.214844 20.460938 23.484375 20.300781 C 23.605469 20.203125 23.78125 20.21875 23.890625 20.324219 L 24.40625 20.816406 L 25.074219 20.148438 L 24.570312 19.648438 C 24.460938 19.539062 24.433594 19.375 24.53125 19.238281 C 24.71875 18.953125 24.855469 18.644531 24.921875 18.316406 C 24.964844 18.167969 25.101562 18.058594 25.25 18.058594 L 25.941406 18.058594 L 25.941406 17.09375 L 25.25 17.09375 C 25.101562 17.09375 24.964844 16.988281 24.921875 16.835938 C 24.855469 16.511719 24.71875 16.210938 24.53125 15.914062 C 24.460938 15.777344 24.476562 15.617188 24.570312 15.492188 L 25.074219 14.992188 L 24.40625 14.3125 L 23.890625 14.800781 C 23.78125 14.910156 23.605469 14.9375 23.496094 14.855469 C 23.214844 14.691406 22.902344 14.554688 22.5625 14.460938 C 22.410156 14.421875 22.316406 14.296875 22.316406 14.148438 L 22.316406 13.445312 L 21.351562 13.445312 L 21.351562 14.148438 C 21.351562 14.296875 21.257812 14.421875 21.109375 14.460938 C 20.769531 14.542969 20.472656 14.664062 20.171875 14.855469 C 20.035156 14.9375 19.875 14.910156 19.777344 14.800781 L 19.261719 14.296875 L 18.582031 14.964844 L 19.074219 15.464844 C 19.195312 15.574219 19.207031 15.722656 19.140625 15.859375 C 18.949219 16.171875 18.816406 16.496094 18.761719 16.796875 C 18.71875 16.945312 18.582031 17.054688 18.433594 17.054688 L 17.730469 17.054688 L 17.730469 18.019531 L 18.433594 18.019531 C 18.582031 18.019531 18.71875 18.125 18.761719 18.277344 C 18.828125 18.601562 18.964844 18.914062 19.140625 19.199219 C 19.207031 19.335938 19.195312 19.496094 19.074219 19.59375 L 18.582031 20.082031 L 19.261719 20.761719 L 19.777344 20.257812 C 19.886719 20.148438 20.050781 20.121094 20.171875 20.203125 C 20.472656 20.394531 20.769531 20.515625 21.109375 20.597656 C 21.257812 20.636719 21.351562 20.761719 21.351562 20.910156 L 21.351562 21.710938 Z M 21.339844 21.710938 " fill-opacity="1" fill-rule="evenodd"/></g><path fill="#935f3d" d="M 12.433594 18.832031 C 12.246094 18.832031 12.09375 18.667969 12.09375 18.492188 C 12.09375 15.953125 12.71875 15.125 13.261719 14.394531 C 13.683594 13.835938 13.996094 13.402344 13.996094 12.277344 C 13.996094 10.253906 12.339844 8.597656 10.316406 8.597656 C 8.28125 8.597656 6.625 10.253906 6.625 12.277344 C 6.625 13.402344 6.949219 13.835938 7.355469 14.394531 C 7.898438 15.125 8.523438 15.953125 8.523438 18.492188 C 8.523438 18.667969 8.375 18.832031 8.183594 18.832031 C 7.996094 18.832031 7.847656 18.667969 7.847656 18.492188 C 7.847656 16.171875 7.316406 15.464844 6.8125 14.789062 C 6.40625 14.21875 5.945312 13.632812 5.945312 12.277344 C 5.945312 9.886719 7.886719 7.933594 10.289062 7.933594 C 12.707031 7.933594 14.632812 9.875 14.632812 12.277344 C 14.632812 13.632812 14.210938 14.21875 13.777344 14.789062 C 13.261719 15.464844 12.746094 16.171875 12.746094 18.492188 C 12.773438 18.667969 12.625 18.832031 12.433594 18.832031 Z M 12.433594 18.832031 " fill-opacity="1" fill-rule="evenodd"/><path fill="#935f3d" d="M 7.777344 13.226562 C 7.589844 13.226562 7.4375 13.078125 7.4375 12.886719 C 7.4375 10.984375 8.972656 9.4375 10.875 9.4375 C 11.0625 9.4375 11.210938 9.589844 11.210938 9.777344 C 11.210938 9.96875 11.0625 10.117188 10.875 10.117188 C 9.339844 10.117188 8.089844 11.351562 8.089844 12.902344 C 8.089844 13.078125 7.941406 13.226562 7.777344 13.226562 Z M 7.777344 13.226562 " fill-opacity="1" fill-rule="evenodd"/><path fill="#935f3d" d="M 13.535156 8.148438 C 13.480469 8.148438 13.410156 8.121094 13.355469 8.109375 C 13.207031 8.011719 13.152344 7.824219 13.234375 7.660156 L 13.792969 6.667969 C 13.886719 6.519531 14.078125 6.464844 14.238281 6.546875 C 14.390625 6.640625 14.457031 6.832031 14.375 6.996094 L 13.804688 7.972656 C 13.75 8.082031 13.640625 8.148438 13.535156 8.148438 Z M 13.535156 8.148438 " fill-opacity="1" fill-rule="evenodd"/><path fill="#935f3d" d="M 15.894531 10.511719 C 15.789062 10.511719 15.679688 10.457031 15.625 10.347656 C 15.53125 10.199219 15.582031 9.980469 15.746094 9.886719 L 16.722656 9.332031 C 16.875 9.234375 17.089844 9.289062 17.1875 9.464844 C 17.265625 9.613281 17.210938 9.820312 17.050781 9.914062 L 16.074219 10.46875 C 16.019531 10.496094 15.949219 10.511719 15.894531 10.511719 Z M 15.894531 10.511719 " fill-opacity="1" fill-rule="evenodd"/><path fill="#935f3d" d="M 7.097656 8.148438 C 6.992188 8.148438 6.867188 8.082031 6.8125 7.972656 L 6.257812 6.996094 C 6.164062 6.847656 6.21875 6.640625 6.378906 6.546875 C 6.527344 6.453125 6.746094 6.507812 6.828125 6.667969 L 7.398438 7.660156 C 7.492188 7.808594 7.4375 8.011719 7.261719 8.109375 C 7.207031 8.148438 7.152344 8.148438 7.097656 8.148438 Z M 7.097656 8.148438 " fill-opacity="1" fill-rule="evenodd"/><g clip-path="url(#69aec2c2ae)"><path fill="#935f3d" d="M 4.75 10.511719 C 4.695312 10.511719 4.628906 10.496094 4.574219 10.46875 L 3.597656 9.914062 C 3.449219 9.820312 3.394531 9.628906 3.460938 9.464844 C 3.554688 9.304688 3.746094 9.25 3.921875 9.332031 L 4.898438 9.886719 C 5.050781 9.980469 5.105469 10.171875 5.023438 10.347656 C 4.96875 10.441406 4.859375 10.511719 4.75 10.511719 Z M 4.75 10.511719 " fill-opacity="1" fill-rule="evenodd"/></g><path fill="#935f3d" d="M 13.097656 20.015625 C 12.910156 20.015625 12.761719 19.863281 12.761719 19.675781 C 12.761719 19.484375 12.910156 19.335938 13.097656 19.335938 C 13.234375 19.335938 13.34375 19.226562 13.34375 19.078125 C 13.34375 18.914062 13.234375 18.832031 13.097656 18.832031 L 7.535156 18.832031 C 7.382812 18.832031 7.289062 18.941406 7.289062 19.078125 C 7.289062 19.226562 7.398438 19.335938 7.535156 19.335938 C 7.722656 19.335938 7.875 19.484375 7.875 19.675781 C 7.875 19.863281 7.722656 20.015625 7.535156 20.015625 C 7.019531 20.015625 6.625 19.59375 6.625 19.089844 C 6.625 18.589844 7.046875 18.179688 7.535156 18.179688 L 13.097656 18.179688 C 13.601562 18.179688 13.996094 18.601562 13.996094 19.089844 C 14.023438 19.59375 13.601562 20.015625 13.097656 20.015625 Z M 13.097656 20.015625 " fill-opacity="1" fill-rule="evenodd"/><path fill="#935f3d" d="M 13.097656 21.195312 L 7.535156 21.195312 C 7.019531 21.195312 6.625 20.789062 6.625 20.273438 C 6.625 19.769531 7.046875 19.375 7.535156 19.375 L 13.097656 19.375 C 13.601562 19.375 13.996094 19.78125 13.996094 20.273438 C 14.023438 20.761719 13.601562 21.195312 13.097656 21.195312 Z M 7.535156 20.015625 C 7.382812 20.015625 7.289062 20.121094 7.289062 20.257812 C 7.289062 20.40625 7.398438 20.515625 7.535156 20.515625 L 13.097656 20.515625 C 13.234375 20.515625 13.34375 20.40625 13.34375 20.257812 C 13.34375 20.109375 13.234375 20.015625 13.097656 20.015625 Z M 7.535156 20.015625 " fill-opacity="1" fill-rule="evenodd"/><g clip-path="url(#c274b0bca9)"><path fill="#935f3d" d="M 10.75 22.363281 L 9.894531 22.363281 C 9.066406 22.363281 8.390625 21.683594 8.390625 20.855469 C 8.390625 20.664062 8.550781 20.515625 8.726562 20.515625 C 8.917969 20.515625 9.066406 20.664062 9.066406 20.855469 C 9.066406 21.332031 9.449219 21.710938 9.921875 21.710938 L 10.765625 21.710938 C 11.238281 21.710938 11.605469 21.332031 11.605469 20.855469 C 11.605469 20.664062 11.753906 20.515625 11.945312 20.515625 C 12.136719 20.515625 12.285156 20.664062 12.285156 20.855469 C 12.246094 21.683594 11.578125 22.363281 10.75 22.363281 Z M 10.75 22.363281 " fill-opacity="1" fill-rule="evenodd"/></g><path fill="#935f3d" d="M 10.316406 18.832031 C 10.125 18.832031 9.976562 18.667969 9.976562 18.492188 L 9.976562 15.140625 C 9.976562 15.03125 10.03125 14.910156 10.140625 14.855469 L 11.457031 14.109375 C 11.605469 14.011719 11.824219 14.066406 11.917969 14.21875 C 12 14.367188 11.945312 14.570312 11.796875 14.664062 L 10.65625 15.332031 L 10.65625 18.507812 C 10.65625 18.667969 10.507812 18.832031 10.316406 18.832031 Z M 10.316406 18.832031 " fill-opacity="1" fill-rule="evenodd"/><path fill="#935f3d" d="M 10.316406 15.464844 C 10.261719 15.464844 10.195312 15.4375 10.140625 15.425781 L 8.851562 14.664062 C 8.699219 14.570312 8.632812 14.367188 8.726562 14.21875 C 8.824219 14.066406 9.039062 14.011719 9.191406 14.109375 L 10.480469 14.855469 C 10.628906 14.949219 10.683594 15.152344 10.601562 15.304688 C 10.535156 15.398438 10.425781 15.464844 10.316406 15.464844 Z M 10.316406 15.464844 " fill-opacity="1" fill-rule="evenodd"/><g clip-path="url(#ca234e5cf9)"><path fill="#935f3d" d="M 21.800781 11.109375 C 21.609375 11.109375 21.460938 10.960938 21.460938 10.78125 L 21.460938 5.761719 C 21.460938 5.203125 21.015625 4.753906 20.472656 4.753906 L 11.648438 4.753906 C 11.089844 4.753906 10.628906 5.203125 10.628906 5.761719 L 10.628906 8.296875 C 10.628906 8.476562 10.480469 8.636719 10.289062 8.636719 C 10.113281 8.636719 9.949219 8.476562 9.949219 8.296875 L 9.949219 5.761719 C 9.949219 4.835938 10.710938 4.105469 11.632812 4.105469 L 20.457031 4.105469 C 21.367188 4.105469 22.113281 4.835938 22.113281 5.761719 L 22.113281 10.796875 C 22.140625 10.960938 21.992188 11.109375 21.800781 11.109375 Z M 21.800781 11.109375 " fill-opacity="1" fill-rule="evenodd"/></g><path fill="#935f3d" d="M 21.800781 11.109375 C 21.734375 11.109375 21.636719 11.082031 21.582031 11.027344 L 19.96875 9.398438 C 19.832031 9.277344 19.832031 9.058594 19.96875 8.9375 C 20.089844 8.800781 20.308594 8.800781 20.429688 8.9375 L 21.800781 10.308594 L 23.171875 8.9375 C 23.308594 8.800781 23.511719 8.800781 23.648438 8.9375 C 23.78125 9.058594 23.78125 9.277344 23.648438 9.398438 L 22.03125 11.027344 C 21.976562 11.082031 21.894531 11.109375 21.800781 11.109375 Z M 21.800781 11.109375 " fill-opacity="1" fill-rule="evenodd"/></svg>