<svg xmlns="http://www.w3.org/2000/svg" xmlns:xlink="http://www.w3.org/1999/xlink" width="40" zoomAndPan="magnify" viewBox="0 0 30 30.000001" height="40" preserveAspectRatio="xMidYMid meet" version="1.0"><defs><clipPath id="e5e3db9809"><path d="M 0.484375 0 L 29.515625 0 L 29.515625 29.03125 L 0.484375 29.03125 Z M 0.484375 0 " clip-rule="nonzero"/></clipPath><clipPath id="7095641f9b"><path d="M 7 3.078125 L 17 3.078125 L 17 13 L 7 13 Z M 7 3.078125 " clip-rule="nonzero"/></clipPath><clipPath id="b1878575a1"><path d="M 3.210938 14 L 21 14 L 21 26.304688 L 3.210938 26.304688 Z M 3.210938 14 " clip-rule="nonzero"/></clipPath><clipPath id="ce15ae2239"><path d="M 21 23 L 26.4375 23 L 26.4375 26.304688 L 21 26.304688 Z M 21 23 " clip-rule="nonzero"/></clipPath></defs><g clip-path="url(#e5e3db9809)"><path fill="#ffffff" d="M 0.484375 0 L 29.515625 0 L 29.515625 29.03125 L 0.484375 29.03125 Z M 0.484375 0 " fill-opacity="1" fill-rule="nonzero"/><path fill="#ffffff" d="M 0.484375 0 L 29.515625 0 L 29.515625 29.03125 L 0.484375 29.03125 Z M 0.484375 0 " fill-opacity="1" fill-rule="nonzero"/></g><g clip-path="url(#7095641f9b)"><path fill="#935f3d" d="M 7.265625 7.710938 C 7.265625 5.164062 9.308594 3.117188 11.859375 3.117188 C 14.40625 3.117188 16.453125 5.199219 16.453125 7.710938 C 16.453125 10.222656 14.40625 12.304688 11.859375 12.304688 C 9.308594 12.304688 7.265625 10.257812 7.265625 7.710938 Z M 7.265625 7.710938 " fill-opacity="1" fill-rule="nonzero"/></g><g clip-path="url(#b1878575a1)"><path fill="#935f3d" d="M 20.507812 19.15625 L 20.507812 25.722656 C 20.507812 25.902344 20.363281 26.082031 20.148438 26.082031 L 3.570312 26.082031 C 3.390625 26.082031 3.210938 25.902344 3.210938 25.722656 L 3.210938 19.15625 C 3.210938 16.359375 5.507812 14.0625 8.304688 14.0625 L 9.382812 14.0625 C 9.527344 14.0625 9.632812 14.132812 9.707031 14.277344 L 11.820312 18.796875 L 13.976562 14.242188 C 14.046875 14.097656 14.15625 14.027344 14.296875 14.027344 L 15.375 14.027344 C 18.210938 14.027344 20.507812 16.320312 20.507812 19.15625 Z M 20.507812 19.15625 " fill-opacity="1" fill-rule="nonzero"/></g><path fill="#935f3d" d="M 23.914062 13.128906 C 23.519531 13.59375 23.089844 15.066406 23.089844 17.183594 C 23.089844 19.230469 23.484375 20.699219 23.878906 21.203125 L 21.1875 21.203125 L 21.1875 19.15625 C 21.1875 17.148438 20.183594 15.390625 18.605469 14.347656 C 18.496094 13.808594 18.351562 13.378906 18.171875 13.09375 L 23.914062 13.128906 C 23.914062 13.09375 23.914062 13.09375 23.914062 13.128906 Z M 23.914062 13.128906 " fill-opacity="1" fill-rule="nonzero"/><g clip-path="url(#ce15ae2239)"><path fill="#935f3d" d="M 26.605469 24.648438 C 26.605469 25.4375 25.960938 26.082031 25.171875 26.082031 L 21.152344 26.082031 C 21.1875 25.972656 21.222656 25.832031 21.222656 25.722656 L 21.222656 23.246094 L 25.171875 23.246094 C 25.960938 23.246094 26.605469 23.859375 26.605469 24.648438 Z M 26.605469 24.648438 " fill-opacity="1" fill-rule="nonzero"/></g><path fill="#935f3d" d="M 25.027344 22.277344 L 25.027344 22.53125 L 21.222656 22.53125 L 21.222656 21.917969 L 24.667969 21.917969 C 24.882812 21.917969 25.027344 22.0625 25.027344 22.277344 Z M 25.027344 22.277344 " fill-opacity="1" fill-rule="nonzero"/><path fill="#935f3d" d="M 25.457031 11.191406 C 25.457031 11.835938 24.917969 12.375 24.273438 12.375 L 17.382812 12.375 C 16.738281 12.375 16.199219 11.835938 16.199219 11.191406 C 16.199219 10.542969 16.738281 10.007812 17.382812 10.007812 L 24.273438 10.007812 C 24.917969 10.007812 25.457031 10.542969 25.457031 11.191406 Z M 25.457031 11.191406 " fill-opacity="1" fill-rule="nonzero"/><path fill="#935f3d" d="M 22.800781 9.289062 L 18.855469 9.289062 C 18.425781 7.925781 19.429688 6.597656 20.828125 6.597656 C 22.226562 6.597656 23.234375 7.960938 22.800781 9.289062 Z M 22.800781 9.289062 " fill-opacity="1" fill-rule="nonzero"/></svg>