<svg xmlns="http://www.w3.org/2000/svg" xmlns:xlink="http://www.w3.org/1999/xlink" width="40" zoomAndPan="magnify" viewBox="0 0 30 30.000001" height="40" preserveAspectRatio="xMidYMid meet" version="1.0"><defs><clipPath id="00d4b53e8b"><path d="M 0.484375 0 L 29.515625 0 L 29.515625 29.03125 L 0.484375 29.03125 Z M 0.484375 0 " clip-rule="nonzero"/></clipPath><clipPath id="6704253309"><path d="M 3.488281 2.902344 L 26.714844 2.902344 L 26.714844 26.128906 L 3.488281 26.128906 Z M 3.488281 2.902344 " clip-rule="nonzero"/></clipPath></defs><g clip-path="url(#00d4b53e8b)"><path fill="#ffffff" d="M 0.484375 0 L 29.515625 0 L 29.515625 29.03125 L 0.484375 29.03125 Z M 0.484375 0 " fill-opacity="1" fill-rule="nonzero"/><path fill="#ffffff" d="M 0.484375 0 L 29.515625 0 L 29.515625 29.03125 L 0.484375 29.03125 Z M 0.484375 0 " fill-opacity="1" fill-rule="nonzero"/></g><g clip-path="url(#6704253309)"><path fill="#935f3d" d="M 21.148438 17.695312 C 21.148438 17.925781 21.191406 18.148438 21.28125 18.359375 C 21.367188 18.570312 21.492188 18.757812 21.65625 18.917969 C 21.816406 19.082031 22.003906 19.207031 22.214844 19.292969 C 22.425781 19.378906 22.648438 19.425781 22.875 19.425781 C 23.105469 19.425781 23.324219 19.378906 23.535156 19.292969 C 23.75 19.207031 23.933594 19.082031 24.097656 18.917969 C 24.257812 18.757812 24.382812 18.570312 24.472656 18.359375 C 24.558594 18.148438 24.601562 17.925781 24.601562 17.699219 C 24.601562 17.46875 24.558594 17.246094 24.472656 17.035156 C 24.382812 16.824219 24.257812 16.636719 24.097656 16.476562 C 23.933594 16.3125 23.75 16.1875 23.535156 16.101562 C 23.324219 16.015625 23.105469 15.96875 22.875 15.96875 C 22.648438 15.96875 22.425781 16.015625 22.214844 16.101562 C 22.003906 16.1875 21.816406 16.3125 21.65625 16.476562 C 21.492188 16.636719 21.367188 16.824219 21.28125 17.035156 C 21.191406 17.246094 21.148438 17.46875 21.148438 17.695312 Z M 20.394531 9.375 C 19.304688 9.375 18.757812 10.695312 19.527344 11.46875 C 19.597656 11.539062 19.632812 11.625 19.632812 11.726562 C 19.632812 11.824219 19.597656 11.910156 19.527344 11.984375 L 18.746094 12.765625 C 18.671875 12.835938 18.585938 12.875 18.488281 12.875 C 18.386719 12.875 18.300781 12.835938 18.230469 12.765625 C 17.457031 11.996094 16.136719 12.542969 16.136719 13.632812 C 16.136719 13.734375 16.097656 13.820312 16.027344 13.890625 C 15.957031 13.960938 15.871094 14 15.769531 14 L 14.664062 14 C 14.5625 14 14.476562 13.960938 14.40625 13.890625 C 14.332031 13.820312 14.296875 13.734375 14.296875 13.632812 C 14.296875 12.542969 12.976562 11.992188 12.203125 12.765625 C 12.132812 12.835938 12.046875 12.875 11.945312 12.875 C 11.847656 12.875 11.761719 12.835938 11.6875 12.765625 L 10.90625 11.984375 C 10.835938 11.910156 10.796875 11.824219 10.796875 11.726562 C 10.796875 11.625 10.835938 11.539062 10.90625 11.46875 C 11.675781 10.695312 11.128906 9.375 10.039062 9.375 C 9.9375 9.375 9.851562 9.339844 9.78125 9.265625 C 9.710938 9.195312 9.675781 9.109375 9.675781 9.011719 L 9.675781 7.902344 C 9.675781 7.800781 9.710938 7.714844 9.78125 7.644531 C 9.851562 7.574219 9.9375 7.539062 10.039062 7.539062 C 11.128906 7.539062 11.675781 6.214844 10.90625 5.441406 C 10.835938 5.371094 10.796875 5.285156 10.796875 5.1875 C 10.796875 5.085938 10.835938 5 10.90625 4.929688 L 11.6875 4.144531 C 11.761719 4.074219 11.847656 4.039062 11.945312 4.039062 C 12.046875 4.039062 12.132812 4.074219 12.203125 4.144531 C 12.976562 4.917969 14.296875 4.367188 14.296875 3.277344 C 14.296875 3.175781 14.332031 3.089844 14.40625 3.019531 C 14.476562 2.949219 14.5625 2.914062 14.664062 2.914062 L 15.769531 2.914062 C 15.871094 2.914062 15.957031 2.949219 16.027344 3.019531 C 16.097656 3.089844 16.136719 3.175781 16.136719 3.277344 C 16.136719 4.367188 17.457031 4.917969 18.230469 4.144531 C 18.300781 4.074219 18.386719 4.039062 18.488281 4.039062 C 18.585938 4.039062 18.671875 4.074219 18.746094 4.144531 L 19.527344 4.929688 C 19.597656 5 19.632812 5.085938 19.632812 5.1875 C 19.632812 5.285156 19.597656 5.371094 19.527344 5.441406 C 18.757812 6.214844 19.304688 7.535156 20.394531 7.535156 C 20.496094 7.535156 20.582031 7.574219 20.652344 7.644531 C 20.722656 7.714844 20.757812 7.800781 20.757812 7.902344 L 20.757812 9.011719 C 20.757812 9.109375 20.722656 9.195312 20.652344 9.265625 C 20.582031 9.339844 20.496094 9.375 20.394531 9.375 Z M 13.441406 8.449219 L 14.558594 9.566406 C 14.621094 9.628906 14.699219 9.664062 14.792969 9.664062 C 14.882812 9.664062 14.960938 9.628906 15.027344 9.566406 L 16.777344 7.816406 C 16.839844 7.75 16.875 7.671875 16.875 7.582031 C 16.875 7.488281 16.839844 7.410156 16.777344 7.34375 C 16.710938 7.28125 16.632812 7.25 16.542969 7.25 C 16.449219 7.25 16.371094 7.28125 16.304688 7.34375 L 14.792969 8.859375 L 13.910156 7.980469 C 13.847656 7.914062 13.769531 7.882812 13.675781 7.882812 C 13.585938 7.882812 13.503906 7.914062 13.441406 7.980469 C 13.375 8.042969 13.34375 8.121094 13.34375 8.214844 C 13.34375 8.304688 13.375 8.382812 13.441406 8.449219 Z M 15.214844 5.75 C 14.859375 5.75 14.511719 5.816406 14.179688 5.957031 C 13.847656 6.09375 13.558594 6.289062 13.304688 6.542969 C 13.050781 6.796875 12.855469 7.089844 12.714844 7.417969 C 12.578125 7.75 12.511719 8.097656 12.511719 8.457031 C 12.511719 8.816406 12.578125 9.160156 12.714844 9.492188 C 12.855469 9.824219 13.050781 10.117188 13.304688 10.371094 C 13.558594 10.625 13.847656 10.820312 14.179688 10.957031 C 14.511719 11.09375 14.859375 11.160156 15.214844 11.160156 C 15.574219 11.160156 15.921875 11.09375 16.253906 10.957031 C 16.585938 10.820312 16.875 10.625 17.128906 10.371094 C 17.382812 10.117188 17.578125 9.824219 17.71875 9.492188 C 17.855469 9.160156 17.921875 8.816406 17.921875 8.457031 C 17.921875 8.097656 17.855469 7.75 17.71875 7.417969 C 17.578125 7.089844 17.382812 6.796875 17.128906 6.542969 C 16.875 6.289062 16.585938 6.09375 16.253906 5.957031 C 15.921875 5.816406 15.574219 5.75 15.214844 5.75 Z M 23.375 14.851562 C 23.371094 14.941406 23.332031 15.019531 23.265625 15.078125 C 23.195312 15.140625 23.117188 15.167969 23.023438 15.160156 C 22.933594 15.15625 22.859375 15.117188 22.796875 15.050781 C 22.734375 14.980469 22.707031 14.902344 22.714844 14.808594 C 22.738281 14.484375 22.738281 14.164062 22.714844 13.839844 C 22.710938 13.746094 22.738281 13.664062 22.796875 13.597656 C 22.859375 13.527344 22.9375 13.488281 23.027344 13.484375 C 23.121094 13.480469 23.199219 13.507812 23.269531 13.570312 C 23.339844 13.628906 23.375 13.707031 23.378906 13.800781 C 23.398438 14.148438 23.398438 14.5 23.375 14.851562 Z M 7.71875 14.808594 C 7.722656 14.902344 7.695312 14.980469 7.636719 15.046875 C 7.574219 15.117188 7.5 15.152344 7.410156 15.160156 C 7.316406 15.164062 7.238281 15.136719 7.167969 15.078125 C 7.101562 15.015625 7.0625 14.941406 7.058594 14.851562 C 7.035156 14.5 7.035156 14.148438 7.054688 13.800781 C 7.0625 13.707031 7.097656 13.632812 7.167969 13.574219 C 7.234375 13.511719 7.3125 13.488281 7.40625 13.492188 C 7.496094 13.496094 7.570312 13.535156 7.632812 13.601562 C 7.691406 13.667969 7.722656 13.746094 7.71875 13.839844 C 7.695312 14.164062 7.695312 14.484375 7.71875 14.808594 Z M 8.59375 10.757812 C 8.550781 10.839844 8.484375 10.890625 8.394531 10.917969 C 8.308594 10.941406 8.226562 10.933594 8.144531 10.890625 C 8.066406 10.847656 8.011719 10.78125 7.984375 10.695312 C 7.957031 10.609375 7.964844 10.523438 8.007812 10.445312 C 8.15625 10.164062 8.324219 9.898438 8.503906 9.636719 C 8.554688 9.5625 8.628906 9.515625 8.71875 9.5 C 8.808594 9.484375 8.890625 9.503906 8.964844 9.554688 C 9.039062 9.605469 9.085938 9.679688 9.101562 9.769531 C 9.121094 9.859375 9.101562 9.941406 9.046875 10.015625 C 8.882812 10.253906 8.730469 10.503906 8.59375 10.757812 Z M 7.851562 12.804688 C 7.835938 12.894531 7.789062 12.964844 7.710938 13.015625 C 7.632812 13.066406 7.550781 13.082031 7.460938 13.0625 C 7.371094 13.042969 7.300781 12.996094 7.25 12.921875 C 7.203125 12.84375 7.183594 12.761719 7.203125 12.671875 C 7.28125 12.285156 7.386719 11.902344 7.523438 11.53125 C 7.554688 11.445312 7.613281 11.386719 7.695312 11.347656 C 7.777344 11.308594 7.859375 11.304688 7.945312 11.335938 C 8.03125 11.367188 8.09375 11.421875 8.132812 11.503906 C 8.171875 11.585938 8.175781 11.667969 8.148438 11.753906 C 8.023438 12.097656 7.925781 12.445312 7.851562 12.804688 Z M 13.535156 22.3125 C 13.445312 22.292969 13.375 22.246094 13.324219 22.167969 C 13.277344 22.09375 13.261719 22.007812 13.277344 21.917969 C 13.296875 21.828125 13.347656 21.761719 13.421875 21.710938 C 13.5 21.660156 13.582031 21.644531 13.671875 21.664062 C 13.988281 21.730469 14.308594 21.777344 14.628906 21.804688 C 14.722656 21.808594 14.796875 21.847656 14.859375 21.917969 C 14.917969 21.988281 14.945312 22.070312 14.9375 22.160156 C 14.929688 22.253906 14.890625 22.328125 14.820312 22.386719 C 14.75 22.445312 14.671875 22.472656 14.578125 22.464844 C 14.226562 22.4375 13.878906 22.386719 13.535156 22.3125 Z M 18.03125 21.996094 C 17.945312 22.027344 17.863281 22.023438 17.777344 21.988281 C 17.695312 21.949219 17.640625 21.886719 17.609375 21.800781 C 17.578125 21.714844 17.582031 21.628906 17.621094 21.546875 C 17.65625 21.460938 17.71875 21.40625 17.804688 21.375 C 18.078125 21.277344 18.34375 21.160156 18.605469 21.03125 C 18.683594 20.988281 18.769531 20.984375 18.855469 21.011719 C 18.941406 21.042969 19.003906 21.097656 19.046875 21.179688 C 19.085938 21.257812 19.09375 21.34375 19.066406 21.429688 C 19.039062 21.515625 18.984375 21.578125 18.902344 21.621094 C 18.621094 21.761719 18.328125 21.886719 18.03125 21.996094 Z M 15.714844 22.476562 C 15.621094 22.484375 15.542969 22.457031 15.472656 22.394531 C 15.40625 22.332031 15.367188 22.257812 15.363281 22.164062 C 15.359375 22.074219 15.386719 21.992188 15.449219 21.925781 C 15.507812 21.855469 15.585938 21.820312 15.675781 21.816406 C 16.039062 21.796875 16.398438 21.746094 16.753906 21.675781 C 16.84375 21.65625 16.925781 21.671875 17.003906 21.722656 C 17.078125 21.773438 17.125 21.84375 17.144531 21.933594 C 17.164062 22.023438 17.148438 22.105469 17.097656 22.179688 C 17.046875 22.257812 16.976562 22.304688 16.886719 22.324219 C 16.5 22.402344 16.109375 22.453125 15.714844 22.476562 Z M 22.425781 10.445312 C 22.46875 10.523438 22.480469 10.609375 22.453125 10.699219 C 22.425781 10.785156 22.371094 10.851562 22.292969 10.894531 C 22.210938 10.941406 22.125 10.949219 22.039062 10.921875 C 21.949219 10.894531 21.882812 10.839844 21.839844 10.757812 C 21.703125 10.503906 21.550781 10.253906 21.386719 10.015625 C 21.332031 9.941406 21.3125 9.859375 21.332031 9.769531 C 21.347656 9.679688 21.390625 9.605469 21.46875 9.554688 C 21.542969 9.503906 21.625 9.484375 21.714844 9.5 C 21.808594 9.515625 21.878906 9.5625 21.929688 9.636719 C 22.109375 9.898438 22.277344 10.164062 22.425781 10.445312 Z M 23.230469 12.671875 C 23.25 12.761719 23.234375 12.84375 23.183594 12.921875 C 23.132812 13 23.0625 13.046875 22.972656 13.066406 C 22.882812 13.082031 22.796875 13.066406 22.722656 13.015625 C 22.644531 12.964844 22.597656 12.894531 22.582031 12.804688 C 22.507812 12.449219 22.410156 12.097656 22.285156 11.753906 C 22.253906 11.667969 22.257812 11.582031 22.296875 11.5 C 22.335938 11.417969 22.398438 11.359375 22.484375 11.328125 C 22.574219 11.296875 22.65625 11.300781 22.742188 11.339844 C 22.824219 11.382812 22.878906 11.445312 22.910156 11.53125 C 23.046875 11.902344 23.152344 12.285156 23.230469 12.671875 Z M 10.496094 17.175781 L 10.496094 16.207031 C 10.492188 16.050781 10.414062 15.96875 10.257812 15.96875 L 6.746094 15.96875 C 6.585938 15.96875 6.507812 16.050781 6.507812 16.207031 L 6.507812 17.175781 Z M 4.777344 17.839844 L 12.226562 17.839844 C 12.382812 17.839844 12.464844 17.917969 12.464844 18.074219 L 12.464844 24.707031 L 10.980469 24.707031 L 10.980469 22.078125 C 10.980469 21.984375 10.949219 21.90625 10.882812 21.84375 C 10.816406 21.777344 10.738281 21.746094 10.648438 21.746094 L 6.355469 21.746094 C 6.261719 21.746094 6.183594 21.777344 6.121094 21.84375 C 6.054688 21.90625 6.023438 21.984375 6.023438 22.078125 L 6.023438 24.707031 L 4.539062 24.707031 L 4.539062 18.074219 C 4.539062 17.917969 4.617188 17.839844 4.777344 17.839844 Z M 3.820312 26.035156 C 3.730469 26.035156 3.652344 26.003906 3.585938 25.9375 C 3.519531 25.875 3.488281 25.796875 3.488281 25.703125 C 3.488281 25.613281 3.519531 25.535156 3.585938 25.46875 C 3.652344 25.402344 3.730469 25.371094 3.820312 25.371094 L 13.179688 25.371094 C 13.273438 25.371094 13.351562 25.402344 13.417969 25.46875 C 13.480469 25.535156 13.511719 25.613281 13.511719 25.703125 C 13.511719 25.796875 13.480469 25.875 13.417969 25.9375 C 13.351562 26.003906 13.273438 26.035156 13.179688 26.035156 Z M 6.6875 20.433594 L 10.316406 20.433594 L 10.316406 19.320312 L 6.6875 19.320312 Z M 10.648438 21.097656 C 10.738281 21.097656 10.816406 21.066406 10.882812 21 C 10.949219 20.9375 10.980469 20.859375 10.980469 20.765625 L 10.980469 18.988281 C 10.980469 18.894531 10.949219 18.816406 10.882812 18.753906 C 10.816406 18.6875 10.738281 18.65625 10.648438 18.65625 L 6.355469 18.65625 C 6.261719 18.65625 6.183594 18.6875 6.121094 18.753906 C 6.054688 18.816406 6.023438 18.894531 6.023438 18.988281 L 6.023438 20.765625 C 6.023438 20.859375 6.054688 20.9375 6.121094 21 C 6.183594 21.066406 6.261719 21.097656 6.355469 21.097656 Z M 10.316406 24.707031 L 10.316406 22.410156 L 8.832031 22.410156 L 8.832031 24.707031 Z M 8.167969 24.707031 L 8.167969 22.410156 L 6.6875 22.410156 L 6.6875 24.707031 Z M 26.613281 24.15625 C 26.613281 26.21875 19.140625 26.21875 19.140625 24.15625 C 19.140625 23.660156 19.234375 23.183594 19.421875 22.726562 C 19.613281 22.269531 19.882812 21.863281 20.234375 21.515625 C 20.582031 21.164062 20.988281 20.894531 21.445312 20.703125 C 21.902344 20.515625 22.378906 20.417969 22.875 20.417969 C 23.371094 20.417969 23.847656 20.515625 24.304688 20.703125 C 24.761719 20.894531 25.167969 21.164062 25.519531 21.515625 C 25.867188 21.863281 26.136719 22.269531 26.328125 22.726562 C 26.519531 23.183594 26.613281 23.660156 26.613281 24.15625 Z M 26.613281 24.15625 " fill-opacity="1" fill-rule="evenodd"/></g></svg>