<svg xmlns="http://www.w3.org/2000/svg" xmlns:xlink="http://www.w3.org/1999/xlink" width="40" zoomAndPan="magnify" viewBox="0 0 30 30.000001" height="40" preserveAspectRatio="xMidYMid meet" version="1.0"><defs><clipPath id="4d805cb0b7"><path d="M 0.484375 0 L 29.515625 0 L 29.515625 29.03125 L 0.484375 29.03125 Z M 0.484375 0 " clip-rule="nonzero"/></clipPath><clipPath id="2b2e959fd4"><path d="M 3.386719 4.210938 L 26.613281 4.210938 L 26.613281 24.53125 L 3.386719 24.53125 Z M 3.386719 4.210938 " clip-rule="nonzero"/></clipPath></defs><g clip-path="url(#4d805cb0b7)"><path fill="#ffffff" d="M 0.484375 0 L 29.515625 0 L 29.515625 29.03125 L 0.484375 29.03125 Z M 0.484375 0 " fill-opacity="1" fill-rule="nonzero"/><path fill="#ffffff" d="M 0.484375 0 L 29.515625 0 L 29.515625 29.03125 L 0.484375 29.03125 Z M 0.484375 0 " fill-opacity="1" fill-rule="nonzero"/></g><g clip-path="url(#2b2e959fd4)"><path fill="#935f3d" d="M 15.054688 4.3125 L 15.640625 5.855469 C 15.65625 5.902344 15.699219 5.929688 15.75 5.933594 L 17.394531 6.011719 C 17.507812 6.019531 17.554688 6.160156 17.464844 6.230469 L 16.179688 7.261719 C 16.140625 7.292969 16.125 7.339844 16.140625 7.390625 L 16.570312 8.980469 C 16.601562 9.089844 16.480469 9.175781 16.386719 9.113281 L 15.007812 8.210938 C 14.964844 8.183594 14.917969 8.183594 14.875 8.210938 L 13.496094 9.113281 C 13.402344 9.175781 13.28125 9.089844 13.3125 8.980469 L 13.742188 7.390625 C 13.757812 7.339844 13.742188 7.292969 13.703125 7.261719 L 12.417969 6.230469 C 12.328125 6.160156 12.375 6.019531 12.488281 6.011719 L 14.132812 5.933594 C 14.183594 5.929688 14.226562 5.902344 14.242188 5.855469 L 14.828125 4.3125 C 14.867188 4.207031 15.015625 4.207031 15.054688 4.3125 Z M 22.695312 16.996094 C 24.855469 16.996094 26.605469 18.746094 26.605469 20.90625 C 26.605469 23.0625 24.855469 24.816406 22.695312 24.816406 C 20.535156 24.816406 18.785156 23.0625 18.785156 20.90625 C 18.785156 18.746094 20.535156 16.996094 22.695312 16.996094 Z M 22.183594 21.25 L 21.308594 20.375 C 21.082031 20.148438 20.714844 20.148438 20.488281 20.375 C 20.261719 20.601562 20.261719 20.96875 20.488281 21.195312 L 21.773438 22.480469 C 22 22.707031 22.367188 22.707031 22.59375 22.480469 C 23.367188 21.707031 24.132812 20.921875 24.90625 20.144531 C 25.128906 19.917969 25.128906 19.550781 24.902344 19.328125 C 24.675781 19.101562 24.308594 19.101562 24.082031 19.328125 Z M 14.941406 10.519531 C 16.546875 10.519531 17.84375 11.820312 17.84375 13.425781 C 17.84375 15.027344 16.546875 16.328125 14.941406 16.328125 C 13.335938 16.328125 12.039062 15.027344 12.039062 13.425781 C 12.039062 11.820312 13.335938 10.519531 14.941406 10.519531 Z M 9.796875 21.9375 L 18.128906 21.9375 C 18.054688 21.605469 18.011719 21.257812 18.011719 20.90625 C 18.011719 19.941406 18.304688 19.046875 18.800781 18.304688 C 17.78125 17.375 16.429688 16.8125 14.941406 16.8125 C 12.179688 16.8125 9.875 18.757812 9.324219 21.355469 C 9.257812 21.65625 9.488281 21.9375 9.796875 21.9375 Z M 26.417969 11.003906 L 25.375 12.28125 C 25.34375 12.320312 25.339844 12.371094 25.363281 12.414062 L 26.117188 13.882812 C 26.167969 13.980469 26.066406 14.089844 25.964844 14.050781 L 24.425781 13.453125 C 24.378906 13.4375 24.332031 13.445312 24.296875 13.480469 L 23.132812 14.652344 C 23.054688 14.730469 22.917969 14.671875 22.925781 14.558594 L 23.019531 12.914062 C 23.019531 12.863281 22.996094 12.820312 22.953125 12.796875 L 21.480469 12.054688 C 21.378906 12.003906 21.394531 11.855469 21.503906 11.828125 L 23.097656 11.40625 C 23.144531 11.394531 23.179688 11.355469 23.1875 11.308594 L 23.4375 9.679688 C 23.457031 9.566406 23.601562 9.535156 23.660156 9.632812 L 24.554688 11.015625 C 24.582031 11.058594 24.628906 11.078125 24.675781 11.070312 L 26.304688 10.808594 C 26.414062 10.789062 26.488281 10.917969 26.417969 11.003906 Z M 21.632812 6.136719 C 21.652344 6.027344 21.523438 5.953125 21.4375 6.023438 L 20.160156 7.066406 C 20.121094 7.097656 20.070312 7.101562 20.027344 7.078125 L 18.558594 6.324219 C 18.460938 6.273438 18.351562 6.371094 18.390625 6.476562 L 18.988281 8.015625 C 19.003906 8.058594 18.992188 8.109375 18.957031 8.144531 L 17.789062 9.304688 C 17.710938 9.386719 17.769531 9.519531 17.882812 9.515625 L 19.527344 9.421875 C 19.578125 9.417969 19.621094 9.445312 19.644531 9.488281 L 20.386719 10.960938 C 20.4375 11.0625 20.585938 11.046875 20.613281 10.9375 L 21.035156 9.34375 C 21.046875 9.296875 21.085938 9.261719 21.132812 9.253906 L 22.761719 9 C 22.871094 8.984375 22.902344 8.839844 22.808594 8.777344 L 21.421875 7.886719 C 21.382812 7.859375 21.363281 7.8125 21.371094 7.765625 Z M 3.578125 10.808594 L 5.207031 11.070312 C 5.253906 11.078125 5.300781 11.058594 5.328125 11.015625 L 6.222656 9.632812 C 6.28125 9.535156 6.425781 9.566406 6.445312 9.679688 L 6.695312 11.308594 C 6.703125 11.355469 6.738281 11.394531 6.785156 11.40625 L 8.378906 11.828125 C 8.488281 11.855469 8.503906 12.003906 8.402344 12.054688 L 6.929688 12.796875 C 6.886719 12.820312 6.863281 12.863281 6.863281 12.914062 L 6.957031 14.558594 C 6.964844 14.671875 6.828125 14.730469 6.75 14.652344 L 5.585938 13.480469 C 5.550781 13.445312 5.503906 13.4375 5.457031 13.453125 L 3.917969 14.050781 C 3.816406 14.089844 3.714844 13.980469 3.765625 13.882812 L 4.519531 12.414062 C 4.542969 12.371094 4.539062 12.320312 4.507812 12.28125 L 3.464844 11.003906 C 3.394531 10.917969 3.46875 10.789062 3.578125 10.808594 Z M 8.445312 6.023438 C 8.359375 5.953125 8.230469 6.027344 8.25 6.136719 L 8.511719 7.765625 C 8.519531 7.8125 8.5 7.859375 8.460938 7.886719 L 7.074219 8.777344 C 6.980469 8.839844 7.011719 8.984375 7.121094 9 L 8.75 9.253906 C 8.796875 9.261719 8.835938 9.292969 8.847656 9.34375 L 9.269531 10.9375 C 9.296875 11.046875 9.445312 11.058594 9.496094 10.960938 L 10.238281 9.488281 C 10.261719 9.445312 10.304688 9.417969 10.355469 9.421875 L 12 9.515625 C 12.113281 9.519531 12.171875 9.386719 12.09375 9.304688 L 10.925781 8.144531 C 10.890625 8.109375 10.878906 8.058594 10.894531 8.015625 L 11.492188 6.476562 C 11.53125 6.371094 11.421875 6.273438 11.324219 6.324219 L 9.855469 7.078125 C 9.8125 7.101562 9.761719 7.097656 9.722656 7.066406 Z M 8.445312 6.023438 " fill-opacity="1" fill-rule="evenodd"/></g></svg>