<svg xmlns="http://www.w3.org/2000/svg" xmlns:xlink="http://www.w3.org/1999/xlink" width="40" zoomAndPan="magnify" viewBox="0 0 30 30.000001" height="40" preserveAspectRatio="xMidYMid meet" version="1.0"><defs><clipPath id="fc5f8f1e6e"><path d="M 0.484375 0 L 29.515625 0 L 29.515625 29.03125 L 0.484375 29.03125 Z M 0.484375 0 " clip-rule="nonzero"/></clipPath><clipPath id="063efa808b"><path d="M 18 18 L 26.757812 18 L 26.757812 25.953125 L 18 25.953125 Z M 18 18 " clip-rule="nonzero"/></clipPath><clipPath id="be7f3183f9"><path d="M 2.808594 3.453125 L 11 3.453125 L 11 12 L 2.808594 12 Z M 2.808594 3.453125 " clip-rule="nonzero"/></clipPath></defs><g clip-path="url(#fc5f8f1e6e)"><path fill="#ffffff" d="M 0.484375 0 L 29.515625 0 L 29.515625 29.03125 L 0.484375 29.03125 Z M 0.484375 0 " fill-opacity="1" fill-rule="nonzero"/><path fill="#ffffff" d="M 0.484375 0 L 29.515625 0 L 29.515625 29.03125 L 0.484375 29.03125 Z M 0.484375 0 " fill-opacity="1" fill-rule="nonzero"/></g><path fill="#935f3d" d="M 21.511719 9.449219 L 21.511719 12.765625 C 21.511719 13.148438 21.4375 13.519531 21.289062 13.875 C 21.144531 14.226562 20.933594 14.539062 20.664062 14.8125 C 20.390625 15.082031 20.078125 15.289062 19.726562 15.4375 C 19.371094 15.585938 19.003906 15.65625 18.621094 15.660156 L 10.773438 15.660156 C 10.628906 15.660156 10.488281 15.6875 10.355469 15.742188 C 10.21875 15.796875 10.101562 15.878906 10 15.980469 C 9.894531 16.085938 9.816406 16.203125 9.761719 16.335938 C 9.707031 16.472656 9.675781 16.613281 9.675781 16.757812 L 9.675781 20.074219 C 9.675781 20.222656 9.707031 20.359375 9.761719 20.496094 C 9.816406 20.628906 9.894531 20.75 10 20.851562 C 10.101562 20.953125 10.21875 21.035156 10.355469 21.089844 C 10.488281 21.144531 10.628906 21.175781 10.773438 21.175781 L 18.070312 21.175781 C 18.023438 21.410156 17.996094 21.648438 17.984375 21.890625 C 17.984375 21.945312 17.980469 22.007812 17.980469 22.066406 C 17.980469 22.128906 17.980469 22.191406 17.984375 22.246094 C 17.992188 22.488281 18.023438 22.726562 18.070312 22.964844 L 10.773438 22.964844 C 10.390625 22.964844 10.023438 22.890625 9.667969 22.746094 C 9.316406 22.597656 9.003906 22.390625 8.730469 22.117188 C 8.460938 21.847656 8.25 21.535156 8.105469 21.179688 C 7.957031 20.828125 7.882812 20.457031 7.882812 20.074219 L 7.882812 16.757812 C 7.882812 16.371094 7.957031 16.003906 8.105469 15.648438 C 8.25 15.296875 8.460938 14.984375 8.730469 14.710938 C 9.003906 14.441406 9.316406 14.234375 9.667969 14.085938 C 10.023438 13.9375 10.390625 13.863281 10.773438 13.863281 L 18.621094 13.863281 C 18.765625 13.863281 18.90625 13.835938 19.039062 13.78125 C 19.175781 13.726562 19.292969 13.644531 19.398438 13.542969 C 19.5 13.441406 19.578125 13.320312 19.632812 13.1875 C 19.691406 13.050781 19.71875 12.910156 19.71875 12.765625 L 19.71875 9.449219 C 19.71875 9.300781 19.691406 9.164062 19.632812 9.027344 C 19.578125 8.894531 19.5 8.773438 19.394531 8.671875 C 19.292969 8.570312 19.175781 8.488281 19.039062 8.433594 C 18.90625 8.378906 18.765625 8.351562 18.621094 8.351562 L 11.410156 8.351562 L 11.410156 6.558594 L 18.621094 6.558594 C 19.003906 6.558594 19.371094 6.628906 19.726562 6.777344 C 20.078125 6.925781 20.390625 7.132812 20.664062 7.40625 C 20.933594 7.675781 21.144531 7.988281 21.289062 8.34375 C 21.4375 8.695312 21.511719 9.066406 21.511719 9.449219 Z M 21.511719 9.449219 " fill-opacity="1" fill-rule="nonzero"/><g clip-path="url(#063efa808b)"><path fill="#935f3d" d="M 22.574219 18.070312 C 22.058594 18.070312 21.558594 18.164062 21.078125 18.359375 C 20.601562 18.550781 20.171875 18.828125 19.800781 19.1875 C 19.429688 19.542969 19.136719 19.960938 18.925781 20.433594 C 18.714844 20.902344 18.597656 21.398438 18.578125 21.914062 C 18.578125 21.964844 18.574219 22.019531 18.574219 22.070312 C 18.574219 22.121094 18.574219 22.171875 18.578125 22.222656 C 18.589844 22.484375 18.625 22.742188 18.683594 22.996094 C 18.746094 23.25 18.828125 23.492188 18.9375 23.730469 C 19.042969 23.96875 19.175781 24.191406 19.328125 24.402344 C 19.480469 24.613281 19.648438 24.808594 19.839844 24.988281 C 20.03125 25.164062 20.234375 25.324219 20.457031 25.460938 C 20.675781 25.601562 20.910156 25.714844 21.152344 25.808594 C 21.394531 25.902344 21.644531 25.96875 21.902344 26.011719 C 22.160156 26.054688 22.417969 26.074219 22.679688 26.070312 C 22.9375 26.0625 23.195312 26.03125 23.449219 25.972656 C 23.703125 25.914062 23.949219 25.835938 24.1875 25.730469 C 24.425781 25.625 24.652344 25.496094 24.867188 25.347656 C 25.082031 25.199219 25.277344 25.03125 25.457031 24.84375 C 25.640625 24.65625 25.800781 24.453125 25.941406 24.234375 C 26.082031 24.011719 26.199219 23.78125 26.296875 23.539062 C 26.390625 23.296875 26.460938 23.050781 26.507812 22.792969 C 26.558594 22.535156 26.578125 22.277344 26.574219 22.019531 C 26.570312 21.757812 26.542969 21.5 26.488281 21.246094 C 26.4375 20.988281 26.359375 20.742188 26.257812 20.503906 C 26.152344 20.261719 26.03125 20.035156 25.882812 19.820312 C 25.738281 19.605469 25.570312 19.40625 25.386719 19.222656 C 25.199219 19.039062 25 18.875 24.78125 18.734375 C 24.5625 18.589844 24.335938 18.46875 24.09375 18.371094 C 23.851562 18.269531 23.605469 18.195312 23.347656 18.144531 C 23.09375 18.09375 22.835938 18.070312 22.574219 18.070312 Z M 25.054688 21.101562 L 22.386719 23.769531 C 22.285156 23.871094 22.160156 23.921875 22.019531 23.921875 C 21.875 23.921875 21.75 23.871094 21.648438 23.769531 L 20.097656 22.21875 C 19.996094 22.117188 19.945312 21.996094 19.945312 21.851562 C 19.945312 21.707031 19.996094 21.585938 20.097656 21.484375 C 20.199219 21.382812 20.320312 21.332031 20.464844 21.332031 C 20.609375 21.332031 20.730469 21.382812 20.832031 21.484375 L 22.015625 22.667969 L 24.316406 20.367188 C 24.417969 20.265625 24.542969 20.214844 24.683594 20.214844 C 24.828125 20.214844 24.953125 20.265625 25.054688 20.367188 C 25.152344 20.46875 25.203125 20.59375 25.207031 20.734375 C 25.207031 20.878906 25.15625 21 25.054688 21.101562 Z M 25.054688 21.101562 " fill-opacity="1" fill-rule="nonzero"/></g><g clip-path="url(#be7f3183f9)"><path fill="#935f3d" d="M 10.085938 3.453125 L 3.546875 3.453125 C 3.34375 3.453125 3.171875 3.523438 3.027344 3.667969 C 2.886719 3.808594 2.816406 3.980469 2.816406 4.183594 L 2.816406 10.722656 C 2.816406 10.925781 2.886719 11.097656 3.027344 11.238281 C 3.171875 11.382812 3.34375 11.453125 3.546875 11.453125 L 10.085938 11.453125 C 10.285156 11.453125 10.457031 11.382812 10.601562 11.238281 C 10.742188 11.097656 10.816406 10.925781 10.816406 10.722656 L 10.816406 4.183594 C 10.816406 3.980469 10.742188 3.808594 10.601562 3.667969 C 10.457031 3.523438 10.285156 3.453125 10.085938 3.453125 Z M 5.730469 5.636719 C 5.730469 5.488281 5.757812 5.347656 5.8125 5.210938 C 5.871094 5.078125 5.949219 4.957031 6.050781 4.855469 C 6.15625 4.75 6.277344 4.671875 6.410156 4.613281 C 6.546875 4.558594 6.6875 4.53125 6.832031 4.53125 L 6.839844 4.53125 C 6.988281 4.53125 7.128906 4.558594 7.261719 4.613281 C 7.398438 4.671875 7.519531 4.75 7.621094 4.855469 C 7.726562 4.957031 7.804688 5.078125 7.859375 5.210938 C 7.917969 5.347656 7.945312 5.488281 7.945312 5.636719 L 7.945312 5.800781 C 7.945312 5.945312 7.917969 6.085938 7.859375 6.222656 C 7.804688 6.359375 7.726562 6.476562 7.621094 6.582031 C 7.519531 6.683594 7.398438 6.765625 7.261719 6.820312 C 7.128906 6.875 6.988281 6.902344 6.839844 6.902344 L 6.832031 6.902344 C 6.6875 6.902344 6.546875 6.875 6.410156 6.820312 C 6.277344 6.765625 6.15625 6.683594 6.054688 6.582031 C 5.949219 6.476562 5.871094 6.359375 5.8125 6.222656 C 5.757812 6.085938 5.730469 5.945312 5.730469 5.800781 Z M 4.34375 10.5625 L 4.488281 8.964844 C 4.558594 8.171875 5.320312 7.5625 6.230469 7.5625 L 7.398438 7.5625 C 8.3125 7.5625 9.070312 8.171875 9.140625 8.964844 L 9.289062 10.5625 Z M 4.34375 10.5625 " fill-opacity="1" fill-rule="nonzero"/></g></svg>