<svg xmlns="http://www.w3.org/2000/svg" xmlns:xlink="http://www.w3.org/1999/xlink" width="40" zoomAndPan="magnify" viewBox="0 0 30 30.000001" height="40" preserveAspectRatio="xMidYMid meet" version="1.0"><defs><clipPath id="596305d159"><path d="M 0.484375 0 L 29.515625 0 L 29.515625 29.03125 L 0.484375 29.03125 Z M 0.484375 0 " clip-rule="nonzero"/></clipPath><clipPath id="6ce6cb54f4"><path d="M 3.386719 4.398438 L 20 4.398438 L 20 21 L 3.386719 21 Z M 3.386719 4.398438 " clip-rule="nonzero"/></clipPath><clipPath id="67aee10c81"><path d="M 7 16 L 16 16 L 16 24.722656 L 7 24.722656 Z M 7 16 " clip-rule="nonzero"/></clipPath><clipPath id="83e321edcc"><path d="M 19 9 L 26.613281 9 L 26.613281 17 L 19 17 Z M 19 9 " clip-rule="nonzero"/></clipPath></defs><g clip-path="url(#596305d159)"><path fill="#ffffff" d="M 0.484375 0 L 29.515625 0 L 29.515625 29.03125 L 0.484375 29.03125 Z M 0.484375 0 " fill-opacity="1" fill-rule="nonzero"/><path fill="#ffffff" d="M 0.484375 0 L 29.515625 0 L 29.515625 29.03125 L 0.484375 29.03125 Z M 0.484375 0 " fill-opacity="1" fill-rule="nonzero"/></g><g clip-path="url(#6ce6cb54f4)"><path fill="#935f3d" d="M 17.519531 14.007812 C 19.578125 11.925781 19.578125 8.554688 17.519531 6.480469 C 15.457031 4.398438 12.117188 4.398438 10.066406 6.480469 C 8.175781 8.382812 8.019531 11.367188 9.585938 13.453125 L 3.734375 19.363281 C 3.417969 19.679688 3.417969 20.203125 3.734375 20.523438 C 4.050781 20.839844 4.566406 20.839844 4.882812 20.523438 L 10.753906 14.59375 C 12.804688 16.0625 15.671875 15.871094 17.519531 14.007812 Z M 9.359375 10.246094 C 9.359375 7.769531 11.339844 5.769531 13.792969 5.769531 C 16.234375 5.769531 18.222656 7.769531 18.222656 10.246094 C 18.222656 12.71875 16.234375 14.722656 13.792969 14.722656 C 11.339844 14.722656 9.359375 12.71875 9.359375 10.246094 Z M 9.359375 10.246094 " fill-opacity="1" fill-rule="nonzero"/></g><path fill="#935f3d" d="M 17.28125 12.363281 C 16.9375 11.789062 16.460938 11.304688 15.898438 10.957031 C 15.429688 11.613281 14.660156 12.042969 13.792969 12.042969 C 12.921875 12.042969 12.15625 11.613281 11.683594 10.957031 C 11.113281 11.304688 10.636719 11.789062 10.292969 12.363281 C 11.003906 13.5625 12.308594 14.363281 13.792969 14.363281 C 15.273438 14.363281 16.566406 13.5625 17.28125 12.363281 Z M 17.28125 12.363281 " fill-opacity="1" fill-rule="nonzero"/><path fill="#935f3d" d="M 13.792969 11.769531 C 15.074219 11.769531 16.105469 10.730469 16.105469 9.433594 C 16.105469 8.132812 15.074219 7.085938 13.792969 7.085938 C 12.507812 7.085938 11.46875 8.132812 11.46875 9.433594 C 11.46875 10.730469 12.507812 11.769531 13.792969 11.769531 Z M 13.792969 11.769531 " fill-opacity="1" fill-rule="nonzero"/><g clip-path="url(#67aee10c81)"><path fill="#935f3d" d="M 11.53125 16.355469 C 9.269531 16.355469 7.433594 18.210938 7.433594 20.496094 C 7.433594 22.777344 9.269531 24.632812 11.53125 24.632812 C 13.800781 24.632812 15.636719 22.777344 15.636719 20.496094 C 15.636719 18.210938 13.800781 16.355469 11.53125 16.355469 Z M 11.53125 17.527344 C 12.734375 17.527344 13.710938 18.511719 13.710938 19.726562 C 13.710938 20.941406 12.734375 21.929688 11.53125 21.929688 C 10.328125 21.929688 9.351562 20.941406 9.351562 19.726562 C 9.351562 18.511719 10.328125 17.527344 11.53125 17.527344 Z M 11.53125 24.359375 C 10.136719 24.359375 8.925781 23.609375 8.257812 22.484375 C 8.574219 21.945312 9.015625 21.5 9.539062 21.171875 C 9.984375 21.800781 10.714844 22.203125 11.53125 22.203125 C 12.351562 22.203125 13.078125 21.800781 13.527344 21.171875 C 14.054688 21.5 14.496094 21.945312 14.8125 22.484375 C 14.144531 23.609375 12.921875 24.359375 11.53125 24.359375 Z M 11.53125 24.359375 " fill-opacity="1" fill-rule="nonzero"/></g><g clip-path="url(#83e321edcc)"><path fill="#935f3d" d="M 23.199219 9.257812 C 21.335938 9.257812 19.824219 10.785156 19.824219 12.675781 C 19.824219 14.558594 21.335938 16.082031 23.199219 16.082031 C 25.0625 16.082031 26.582031 14.558594 26.582031 12.675781 C 26.582031 10.785156 25.0625 9.257812 23.199219 9.257812 Z M 23.199219 10.261719 C 24.175781 10.261719 24.96875 11.066406 24.96875 12.054688 C 24.96875 13.039062 24.175781 13.835938 23.199219 13.835938 C 22.222656 13.835938 21.433594 13.039062 21.433594 12.054688 C 21.433594 11.066406 22.222656 10.261719 23.199219 10.261719 Z M 23.199219 15.808594 C 22.066406 15.808594 21.082031 15.195312 20.539062 14.28125 C 20.78125 13.871094 21.125 13.515625 21.542969 13.25 C 21.914062 13.769531 22.519531 14.109375 23.199219 14.109375 C 23.886719 14.109375 24.492188 13.769531 24.863281 13.25 C 25.269531 13.515625 25.613281 13.871094 25.867188 14.28125 C 25.324219 15.195312 24.328125 15.808594 23.199219 15.808594 Z M 23.199219 15.808594 " fill-opacity="1" fill-rule="nonzero"/></g><path fill="#935f3d" d="M 19.335938 15.542969 C 17.734375 15.542969 16.441406 16.847656 16.441406 18.457031 C 16.441406 20.066406 17.734375 21.371094 19.335938 21.371094 C 20.925781 21.371094 22.222656 20.066406 22.222656 18.457031 C 22.222656 16.847656 20.925781 15.542969 19.335938 15.542969 Z M 19.335938 16.429688 C 20.160156 16.429688 20.828125 17.105469 20.828125 17.9375 C 20.828125 18.769531 20.160156 19.445312 19.335938 19.445312 C 18.511719 19.445312 17.84375 18.769531 17.84375 17.9375 C 17.84375 17.105469 18.511719 16.429688 19.335938 16.429688 Z M 19.335938 21.097656 C 18.386719 21.097656 17.546875 20.585938 17.09375 19.820312 C 17.292969 19.480469 17.570312 19.1875 17.898438 18.96875 C 18.222656 19.417969 18.738281 19.71875 19.335938 19.71875 C 19.921875 19.71875 20.449219 19.417969 20.765625 18.96875 C 21.097656 19.1875 21.371094 19.480469 21.578125 19.820312 C 21.117188 20.585938 20.285156 21.097656 19.335938 21.097656 Z M 19.335938 21.097656 " fill-opacity="1" fill-rule="nonzero"/></svg>