<svg xmlns="http://www.w3.org/2000/svg" xmlns:xlink="http://www.w3.org/1999/xlink" width="40" zoomAndPan="magnify" viewBox="0 0 30 30.000001" height="40" preserveAspectRatio="xMidYMid meet" version="1.0"><defs><clipPath id="d11bcfd403"><path d="M 0.484375 0 L 29.515625 0 L 29.515625 29.03125 L 0.484375 29.03125 Z M 0.484375 0 " clip-rule="nonzero"/></clipPath><clipPath id="73ddac15fc"><path d="M 4.375 2.902344 L 25.421875 2.902344 L 25.421875 26.128906 L 4.375 26.128906 Z M 4.375 2.902344 " clip-rule="nonzero"/></clipPath></defs><g clip-path="url(#d11bcfd403)"><path fill="#ffffff" d="M 0.484375 0 L 29.515625 0 L 29.515625 29.03125 L 0.484375 29.03125 Z M 0.484375 0 " fill-opacity="1" fill-rule="nonzero"/><path fill="#ffffff" d="M 0.484375 0 L 29.515625 0 L 29.515625 29.03125 L 0.484375 29.03125 Z M 0.484375 0 " fill-opacity="1" fill-rule="nonzero"/></g><g clip-path="url(#73ddac15fc)"><path fill="#935f3d" d="M 8.40625 9.496094 L 8.40625 8.457031 C 8.40625 8.402344 8.449219 8.351562 8.503906 8.347656 L 10.003906 8.191406 C 10.109375 8.183594 10.195312 8.109375 10.222656 8.011719 C 10.316406 7.6875 10.445312 7.378906 10.597656 7.09375 C 10.648438 7 10.640625 6.886719 10.570312 6.804688 L 9.621094 5.644531 C 9.589844 5.597656 9.589844 5.53125 9.625 5.492188 L 11.003906 4.125 C 11.039062 4.089844 11.097656 4.089844 11.148438 4.121094 L 12.3125 5.066406 C 12.394531 5.132812 12.503906 5.144531 12.597656 5.09375 C 12.882812 4.9375 13.191406 4.8125 13.515625 4.714844 C 13.617188 4.683594 13.6875 4.597656 13.699219 4.496094 L 13.851562 3 C 13.855469 2.945312 13.90625 2.902344 13.960938 2.902344 L 15.886719 2.902344 C 15.941406 2.902344 15.992188 2.945312 15.996094 3 L 16.152344 4.496094 C 16.160156 4.601562 16.234375 4.6875 16.332031 4.714844 C 16.652344 4.8125 16.964844 4.9375 17.25 5.09375 C 17.339844 5.144531 17.453125 5.128906 17.535156 5.066406 L 18.710938 4.121094 C 18.753906 4.085938 18.8125 4.089844 18.855469 4.128906 L 20.21875 5.492188 C 20.253906 5.53125 20.261719 5.597656 20.226562 5.636719 L 19.273438 6.800781 C 19.207031 6.882812 19.199219 6.996094 19.246094 7.085938 C 19.398438 7.371094 19.527344 7.679688 19.632812 8.003906 C 19.664062 8.101562 19.746094 8.171875 19.847656 8.183594 L 21.34375 8.335938 C 21.398438 8.347656 21.445312 8.390625 21.445312 8.445312 L 21.445312 9.320312 C 21.042969 9.480469 20.617188 9.542969 20.1875 9.519531 C 19.671875 9.492188 19.136719 9.324219 18.664062 9.609375 C 17.960938 10.039062 17.851562 10.953125 18.050781 11.695312 C 17.714844 11.996094 17.859375 12.589844 18.296875 12.707031 C 18.4375 13.226562 18.785156 13.6875 19.261719 13.949219 L 19.21875 14.101562 C 18.871094 14.097656 18.535156 14.183594 18.222656 14.3125 L 17.527344 13.765625 C 17.460938 13.707031 17.363281 13.695312 17.277344 13.722656 C 16.855469 13.503906 16.378906 13.363281 15.902344 13.371094 L 15.832031 13.128906 C 16.261719 12.902344 16.613281 12.53125 16.820312 12.089844 C 16.863281 11.945312 16.886719 11.757812 17.023438 11.671875 C 17.414062 11.523438 17.496094 11.054688 17.710938 10.734375 C 18.691406 8.757812 17.128906 6.289062 14.914062 6.332031 C 12.480469 6.300781 10.972656 9.15625 12.367188 11.148438 C 12.417969 11.46875 12.625 11.570312 12.867188 11.726562 C 13.039062 12.320312 13.433594 12.84375 13.988281 13.128906 L 13.921875 13.371094 C 13.410156 13.351562 12.984375 13.511719 12.542969 13.714844 C 12.464844 13.6875 12.371094 13.707031 12.308594 13.761719 L 11.617188 14.320312 C 11.296875 14.183594 10.957031 14.101562 10.613281 14.105469 C 10.605469 14.066406 10.582031 13.988281 10.566406 13.953125 C 11.050781 13.695312 11.386719 13.230469 11.539062 12.710938 C 11.976562 12.59375 12.117188 12 11.785156 11.699219 C 12.410156 9.640625 10.011719 8.558594 8.40625 9.496094 Z M 11.097656 12.203125 C 11.0625 12.140625 11.011719 12.085938 10.96875 12.027344 C 10.960938 12.027344 10.960938 12.023438 10.960938 12.023438 C 10.832031 11.871094 10.671875 11.753906 10.484375 11.671875 C 9.992188 11.808594 9.46875 11.789062 8.972656 11.667969 C 8.71875 11.765625 8.5 11.957031 8.363281 12.199219 C 8.476562 14.140625 10.996094 14.117188 11.097656 12.203125 Z M 8.882812 11.152344 C 8.929688 11.136719 8.984375 11.136719 9.035156 11.148438 C 9.414062 11.261719 9.816406 11.277344 10.199219 11.199219 C 10.332031 11.1875 10.46875 11.105469 10.59375 11.152344 C 10.847656 11.246094 11.089844 11.414062 11.277344 11.605469 C 11.816406 10.101562 10.167969 9.339844 8.894531 9.804688 C 8.144531 10.0625 8.078125 11.078125 8.195312 11.570312 C 8.390625 11.386719 8.628906 11.242188 8.882812 11.152344 Z M 19.273438 9.949219 C 18.710938 9.992188 18.425781 10.605469 18.464844 11.113281 C 18.46875 11.175781 18.5625 11.589844 18.550781 11.609375 C 18.816406 11.382812 19.167969 11.050781 19.546875 11.191406 C 19.992188 11.320312 20.445312 11.226562 20.886719 11.152344 C 21.171875 11.195312 21.425781 11.390625 21.640625 11.582031 C 21.816406 11 21.847656 10.371094 21.738281 9.773438 C 20.953125 10.117188 20.09375 10 19.273438 9.949219 Z M 14.898438 10.078125 C 15.25 10.101562 15.621094 9.941406 15.882812 9.960938 C 16.199219 10.0625 16.488281 10.253906 16.714844 10.496094 C 17.28125 8.792969 15.023438 7.230469 14.019531 8.804688 C 13.988281 8.878906 13.929688 8.9375 13.847656 8.953125 C 13.15625 9.136719 12.933594 9.789062 13.113281 10.523438 C 13.328125 10.300781 13.679688 9.96875 14.011719 9.945312 C 14.304688 10.003906 14.59375 10.085938 14.898438 10.078125 Z M 16.53125 11.121094 C 16.375 10.824219 16.105469 10.59375 15.792969 10.472656 C 15.222656 10.628906 14.605469 10.628906 14.039062 10.476562 C 13.71875 10.648438 13.175781 10.953125 13.316406 11.386719 C 13.734375 13.5 16.40625 13.226562 16.53125 11.121094 Z M 21.460938 12.199219 C 21.332031 11.957031 21.109375 11.773438 20.851562 11.667969 C 20.363281 11.800781 19.835938 11.804688 19.339844 11.671875 C 19.085938 11.78125 18.871094 11.976562 18.726562 12.203125 C 18.832031 14.117188 21.34375 14.140625 21.460938 12.199219 Z M 19.734375 14.132812 L 19.675781 14.34375 C 19.746094 14.382812 19.886719 14.457031 19.949219 14.496094 C 20.152344 14.59375 20.335938 14.429688 20.507812 14.34375 L 20.445312 14.132812 C 20.210938 14.175781 19.972656 14.175781 19.734375 14.132812 Z M 14.234375 14.121094 L 14.269531 14.316406 C 14.320312 14.285156 14.367188 14.253906 14.414062 14.222656 Z M 15.59375 14.121094 L 15.414062 14.214844 C 15.460938 14.25 15.507812 14.28125 15.554688 14.308594 Z M 15.4375 13.617188 L 15.351562 13.3125 C 15.0625 13.378906 14.761719 13.371094 14.46875 13.316406 L 14.382812 13.617188 L 14.910156 13.910156 Z M 9.371094 14.132812 L 9.3125 14.34375 C 9.457031 14.417969 9.660156 14.585938 9.832031 14.511719 C 9.921875 14.480469 10.058594 14.390625 10.144531 14.34375 L 10.085938 14.132812 C 9.847656 14.175781 9.609375 14.175781 9.371094 14.132812 Z M 13.375 15.949219 L 14.386719 17.707031 L 13.675781 13.902344 C 13.421875 13.921875 13.160156 13.992188 12.933594 14.101562 L 13.800781 15.503906 C 13.84375 15.574219 13.851562 15.65625 13.820312 15.734375 C 13.765625 15.898438 13.511719 15.90625 13.375 15.949219 Z M 10.507812 18.882812 C 10.683594 18.011719 10.863281 17.101562 11.035156 16.222656 C 11.128906 15.738281 11.210938 15.257812 11.453125 14.816406 C 11.21875 14.699219 10.953125 14.640625 10.691406 14.625 C 10.664062 14.640625 10.605469 14.675781 10.578125 14.6875 C 10.402344 14.734375 10.230469 14.882812 10.058594 14.949219 C 9.855469 15.019531 9.640625 15.035156 9.429688 14.960938 C 9.175781 14.890625 8.953125 14.675781 8.777344 14.621094 C 7.898438 14.644531 7.101562 15.324219 6.945312 16.183594 L 6.671875 17.546875 C 6.8125 17.875 7.113281 18.554688 7.253906 18.878906 L 10.507812 18.878906 Z M 12.925781 15.53125 L 13.179688 15.464844 L 12.5 14.367188 C 12.128906 14.652344 11.859375 15.050781 11.714844 15.492188 C 11.664062 15.652344 11.539062 16.339844 11.503906 16.515625 L 11.03125 18.882812 L 14.46875 18.882812 L 12.761719 15.90625 C 12.675781 15.765625 12.761719 15.566406 12.925781 15.53125 Z M 14.914062 14.507812 C 14.734375 14.625 14.554688 14.742188 14.375 14.855469 L 14.914062 17.746094 L 15.457031 14.847656 C 15.273438 14.738281 15.097656 14.621094 14.914062 14.507812 Z M 16.890625 14.101562 C 16.660156 13.992188 16.40625 13.921875 16.152344 13.902344 L 15.988281 14.773438 C 15.984375 14.773438 15.4375 17.707031 15.4375 17.710938 L 16.449219 15.953125 L 16.183594 15.886719 C 16.015625 15.855469 15.9375 15.648438 16.023438 15.503906 Z M 18.167969 15.726562 C 18.058594 15.203125 17.757812 14.691406 17.328125 14.367188 L 16.644531 15.464844 L 16.902344 15.53125 C 17.0625 15.5625 17.152344 15.761719 17.058594 15.90625 L 15.355469 18.882812 L 18.796875 18.882812 Z M 20.542969 14.90625 C 20.0625 15.207031 19.554688 14.871094 19.136719 14.625 C 18.867188 14.632812 18.609375 14.703125 18.371094 14.816406 C 18.722656 15.316406 19.152344 18.265625 19.316406 18.882812 L 22.726562 18.882812 L 23.199219 17.804688 C 23.199219 17.804688 22.878906 16.183594 22.878906 16.183594 C 22.722656 15.324219 21.921875 14.644531 21.050781 14.621094 C 21.050781 14.625 20.542969 14.90625 20.542969 14.90625 Z M 24.683594 15.707031 C 24.320312 16.527344 23.484375 18.449219 23.125 19.25 C 22.925781 19.648438 22.597656 20.609375 22.289062 20.929688 C 22.15625 21.066406 22.007812 21.175781 21.839844 21.25 C 21.839844 21.25 20.164062 21.980469 20.164062 21.980469 C 19.859375 22.117188 19.648438 21.644531 19.957031 21.511719 L 21.636719 20.78125 C 21.839844 20.695312 22.03125 20.492188 22.101562 20.28125 C 22.242188 19.925781 21.992188 19.671875 21.625 19.839844 C 21.625 19.839844 18.800781 21.066406 18.800781 21.066406 C 18.199219 21.273438 17.863281 22.054688 17.5625 22.566406 L 19.753906 24.632812 C 20.710938 23.898438 22.6875 22.335938 23.597656 21.558594 C 23.886719 21.320312 24.097656 21 24.1875 20.664062 L 25.472656 15.625 C 25.609375 15.007812 24.8125 15.3125 24.683594 15.707031 Z M 19.636719 25.226562 C 19.636719 25.226562 16.9375 22.675781 16.9375 22.675781 C 16.890625 22.644531 16.859375 22.640625 16.8125 22.679688 L 16.152344 23.386719 C 16.121094 23.421875 16.121094 23.476562 16.15625 23.507812 L 18.859375 26.054688 C 18.90625 26.09375 18.9375 26.089844 18.976562 26.050781 C 18.976562 26.039062 19.730469 25.292969 19.667969 25.289062 C 19.667969 25.269531 19.664062 25.242188 19.636719 25.226562 Z M 11.957031 21.765625 C 11.671875 21.167969 10.832031 20.929688 10.285156 20.679688 L 8.355469 19.839844 C 8.210938 19.777344 8.070312 19.773438 7.96875 19.828125 C 7.628906 20.105469 8.023438 20.652344 8.339844 20.78125 L 10.023438 21.511719 C 10.332031 21.652344 10.125 22.117188 9.816406 21.980469 C 9.816406 21.980469 8.136719 21.25 8.136719 21.25 C 7.765625 21.097656 7.503906 20.742188 7.355469 20.386719 L 6.644531 18.765625 C 6.34375 18.082031 5.609375 16.410156 5.300781 15.703125 C 5.167969 15.300781 4.378906 15.011719 4.5 15.621094 L 5.792969 20.664062 C 5.878906 20.996094 6.09375 21.316406 6.378906 21.554688 C 7.292969 22.335938 9.253906 23.890625 10.222656 24.628906 L 12.410156 22.5625 C 12.417969 22.566406 11.957031 21.765625 11.957031 21.765625 Z M 13.113281 22.652344 C 13.097656 22.652344 13.070312 22.652344 13.046875 22.675781 L 10.34375 25.226562 C 10.308594 25.265625 10.308594 25.300781 10.339844 25.34375 C 10.363281 25.347656 11.039062 26.128906 11.0625 26.074219 C 11.074219 26.078125 11.097656 26.070312 11.125 26.050781 L 13.828125 23.503906 C 13.859375 23.472656 13.867188 23.417969 13.832031 23.378906 C 13.78125 23.339844 13.132812 22.597656 13.113281 22.652344 Z M 13.113281 22.652344 " fill-opacity="1" fill-rule="nonzero"/></g></svg>