<svg xmlns="http://www.w3.org/2000/svg" xmlns:xlink="http://www.w3.org/1999/xlink" width="40" zoomAndPan="magnify" viewBox="0 0 30 30.000001" height="40" preserveAspectRatio="xMidYMid meet" version="1.0"><defs><clipPath id="fe1576ec44"><path d="M 0.484375 0 L 29.515625 0 L 29.515625 29.03125 L 0.484375 29.03125 Z M 0.484375 0 " clip-rule="nonzero"/></clipPath><clipPath id="0a15b644dd"><path d="M 4.738281 5 L 20 5 L 20 24 L 4.738281 24 Z M 4.738281 5 " clip-rule="nonzero"/></clipPath><clipPath id="f2fd9b0e50"><path d="M 4.738281 2.902344 L 20 2.902344 L 20 7 L 4.738281 7 Z M 4.738281 2.902344 " clip-rule="nonzero"/></clipPath><clipPath id="092cb86461"><path d="M 4.738281 23 L 20 23 L 20 26.128906 L 4.738281 26.128906 Z M 4.738281 23 " clip-rule="nonzero"/></clipPath><clipPath id="077d84989b"><path d="M 23 10 L 25.058594 10 L 25.058594 14 L 23 14 Z M 23 10 " clip-rule="nonzero"/></clipPath></defs><g clip-path="url(#fe1576ec44)"><path fill="#ffffff" d="M 0.484375 0 L 29.515625 0 L 29.515625 29.03125 L 0.484375 29.03125 Z M 0.484375 0 " fill-opacity="1" fill-rule="nonzero"/><path fill="#ffffff" d="M 0.484375 0 L 29.515625 0 L 29.515625 29.03125 L 0.484375 29.03125 Z M 0.484375 0 " fill-opacity="1" fill-rule="nonzero"/></g><g clip-path="url(#0a15b644dd)"><path fill="#935f3d" d="M 19.003906 23.769531 L 5.121094 23.769531 C 4.890625 23.769531 4.738281 23.617188 4.738281 23.386719 L 4.738281 5.648438 C 4.738281 5.414062 4.890625 5.261719 5.121094 5.261719 L 19.003906 5.261719 C 19.238281 5.261719 19.390625 5.414062 19.390625 5.648438 L 19.390625 8.730469 C 19.390625 8.964844 19.238281 9.117188 19.003906 9.117188 C 18.773438 9.117188 18.621094 8.964844 18.621094 8.730469 L 18.621094 6.03125 L 5.507812 6.03125 L 5.507812 23 L 18.621094 23 L 18.621094 22.230469 C 18.621094 21.996094 18.773438 21.84375 19.003906 21.84375 C 19.238281 21.84375 19.390625 21.996094 19.390625 22.230469 L 19.390625 23.386719 C 19.390625 23.617188 19.238281 23.769531 19.003906 23.769531 Z M 19.003906 23.769531 " fill-opacity="1" fill-rule="nonzero"/></g><g clip-path="url(#f2fd9b0e50)"><path fill="#935f3d" d="M 19.003906 6.03125 L 5.121094 6.03125 C 4.890625 6.03125 4.738281 5.878906 4.738281 5.648438 L 4.738281 4.105469 C 4.738281 3.449219 5.238281 2.949219 5.894531 2.949219 L 18.234375 2.949219 C 18.890625 2.949219 19.390625 3.449219 19.390625 4.105469 L 19.390625 5.648438 C 19.390625 5.878906 19.238281 6.03125 19.003906 6.03125 Z M 5.507812 5.261719 L 18.621094 5.261719 L 18.621094 4.105469 C 18.621094 3.871094 18.464844 3.71875 18.234375 3.71875 L 5.894531 3.71875 C 5.664062 3.71875 5.507812 3.871094 5.507812 4.105469 Z M 5.507812 5.261719 " fill-opacity="1" fill-rule="nonzero"/></g><path fill="#935f3d" d="M 12.835938 4.875 L 11.292969 4.875 C 11.0625 4.875 10.90625 4.722656 10.90625 4.488281 C 10.90625 4.257812 11.0625 4.105469 11.292969 4.105469 L 12.835938 4.105469 C 13.066406 4.105469 13.222656 4.257812 13.222656 4.488281 C 13.222656 4.722656 13.066406 4.875 12.835938 4.875 Z M 12.835938 4.875 " fill-opacity="1" fill-rule="nonzero"/><g clip-path="url(#092cb86461)"><path fill="#935f3d" d="M 18.234375 26.085938 L 5.894531 26.085938 C 5.238281 26.085938 4.738281 25.582031 4.738281 24.929688 L 4.738281 23.386719 C 4.738281 23.152344 4.890625 23 5.121094 23 L 19.003906 23 C 19.238281 23 19.390625 23.152344 19.390625 23.386719 L 19.390625 24.929688 C 19.390625 25.582031 18.890625 26.085938 18.234375 26.085938 Z M 5.507812 23.769531 L 5.507812 24.929688 C 5.507812 25.160156 5.664062 25.3125 5.894531 25.3125 L 18.234375 25.3125 C 18.464844 25.3125 18.621094 25.160156 18.621094 24.929688 L 18.621094 23.769531 Z M 5.507812 23.769531 " fill-opacity="1" fill-rule="nonzero"/></g><path fill="#935f3d" d="M 12.835938 24.929688 L 11.292969 24.929688 C 11.0625 24.929688 10.90625 24.773438 10.90625 24.542969 C 10.90625 24.3125 11.0625 24.15625 11.292969 24.15625 L 12.835938 24.15625 C 13.066406 24.15625 13.222656 24.3125 13.222656 24.542969 C 13.222656 24.773438 13.066406 24.929688 12.835938 24.929688 Z M 12.835938 24.929688 " fill-opacity="1" fill-rule="nonzero"/><path fill="#935f3d" d="M 16.808594 14.632812 C 16.230469 14.632812 15.726562 14.167969 15.648438 13.589844 L 15.496094 12.046875 C 15.417969 11.429688 15.882812 10.851562 16.539062 10.777344 L 18.464844 10.582031 L 18.851562 14.4375 L 16.921875 14.632812 C 16.882812 14.632812 16.847656 14.632812 16.808594 14.632812 Z M 17.769531 11.429688 L 16.613281 11.546875 C 16.421875 11.585938 16.230469 11.738281 16.265625 11.972656 L 16.421875 13.511719 C 16.460938 13.707031 16.652344 13.859375 16.847656 13.859375 L 18.003906 13.746094 Z M 17.769531 11.429688 " fill-opacity="1" fill-rule="nonzero"/><path fill="#935f3d" d="M 23.132812 15.941406 C 23.015625 15.941406 22.898438 15.941406 22.785156 15.90625 L 18.042969 14.402344 L 17.695312 10.8125 L 22.050781 8.421875 C 22.398438 8.230469 22.824219 8.230469 23.132812 8.421875 C 23.480469 8.617188 23.710938 8.964844 23.75 9.347656 L 24.289062 14.707031 C 24.328125 15.09375 24.171875 15.480469 23.863281 15.710938 C 23.632812 15.828125 23.402344 15.941406 23.132812 15.941406 Z M 23.015625 15.132812 C 23.132812 15.171875 23.285156 15.132812 23.363281 15.054688 C 23.480469 14.980469 23.515625 14.863281 23.515625 14.707031 L 22.976562 9.347656 C 22.976562 9.234375 22.898438 9.117188 22.785156 9.039062 C 22.667969 8.964844 22.554688 8.964844 22.4375 9.039062 L 18.542969 11.199219 L 18.8125 13.746094 Z M 23.015625 15.132812 " fill-opacity="1" fill-rule="nonzero"/><g clip-path="url(#077d84989b)"><path fill="#935f3d" d="M 23.402344 13.589844 L 23.09375 10.503906 L 23.480469 10.46875 C 24.328125 10.390625 25.097656 11.007812 25.175781 11.855469 C 25.253906 12.703125 24.636719 13.476562 23.785156 13.550781 Z M 23.941406 11.316406 L 24.058594 12.625 C 24.289062 12.472656 24.402344 12.203125 24.367188 11.933594 C 24.367188 11.664062 24.171875 11.429688 23.941406 11.316406 Z M 23.941406 11.316406 " fill-opacity="1" fill-rule="nonzero"/></g><path fill="#935f3d" d="M 18.035156 14.132812 L 18.804688 14.058594 L 18.972656 15.785156 L 18.207031 15.859375 Z M 18.035156 14.132812 " fill-opacity="1" fill-rule="nonzero"/><path fill="#935f3d" d="M 19.609375 14.632812 L 20.375 14.558594 L 20.480469 15.632812 L 19.714844 15.710938 Z M 19.609375 14.632812 " fill-opacity="1" fill-rule="nonzero"/><path fill="#935f3d" d="M 11.292969 16.058594 C 9.171875 16.058594 7.4375 14.324219 7.4375 12.203125 C 7.4375 10.082031 9.171875 8.347656 11.292969 8.347656 C 13.414062 8.347656 15.148438 10.082031 15.148438 12.203125 C 15.148438 14.324219 13.414062 16.058594 11.292969 16.058594 Z M 11.292969 9.117188 C 9.597656 9.117188 8.207031 10.503906 8.207031 12.203125 C 8.207031 13.898438 9.597656 15.289062 11.292969 15.289062 C 12.988281 15.289062 14.378906 13.898438 14.378906 12.203125 C 14.378906 10.503906 12.988281 9.117188 11.292969 9.117188 Z M 11.292969 9.117188 " fill-opacity="1" fill-rule="nonzero"/><path fill="#935f3d" d="M 16.304688 23.769531 L 7.4375 23.769531 C 7.207031 23.769531 7.050781 23.617188 7.050781 23.386719 L 7.050781 18.757812 C 7.050781 17.253906 8.246094 16.058594 9.75 16.058594 L 11.679688 16.058594 C 13.296875 16.058594 14.800781 16.828125 15.765625 18.140625 C 15.882812 18.296875 15.84375 18.566406 15.6875 18.679688 C 15.535156 18.796875 15.265625 18.757812 15.148438 18.605469 C 14.339844 17.484375 13.027344 16.828125 11.679688 16.828125 L 9.75 16.828125 C 8.671875 16.828125 7.820312 17.679688 7.820312 18.757812 L 7.820312 23 L 15.921875 23 L 15.921875 21.070312 C 15.921875 20.957031 15.921875 20.839844 15.921875 20.726562 C 15.921875 20.492188 16.074219 20.339844 16.265625 20.300781 C 16.5 20.261719 16.652344 20.453125 16.691406 20.648438 C 16.691406 20.800781 16.691406 20.917969 16.691406 21.070312 L 16.691406 23.386719 C 16.691406 23.617188 16.539062 23.769531 16.304688 23.769531 Z M 16.304688 23.769531 " fill-opacity="1" fill-rule="nonzero"/><path fill="#935f3d" d="M 18.234375 21.070312 L 11.679688 21.070312 C 10.828125 21.070312 10.136719 20.378906 10.136719 19.527344 C 10.136719 18.679688 10.828125 17.988281 11.679688 17.988281 L 17.460938 17.988281 C 17.695312 17.988281 17.847656 17.832031 17.847656 17.601562 L 17.847656 16.445312 C 17.847656 15.789062 18.351562 15.289062 19.003906 15.289062 L 19.777344 15.289062 C 20.433594 15.289062 20.933594 15.789062 20.933594 16.445312 L 20.933594 18.371094 C 20.933594 19.875 19.738281 21.070312 18.234375 21.070312 Z M 11.679688 18.757812 C 11.253906 18.757812 10.90625 19.105469 10.90625 19.527344 C 10.90625 19.953125 11.253906 20.300781 11.679688 20.300781 L 18.234375 20.300781 C 19.3125 20.300781 20.164062 19.453125 20.164062 18.371094 L 20.164062 16.445312 C 20.164062 16.214844 20.007812 16.058594 19.777344 16.058594 L 19.003906 16.058594 C 18.773438 16.058594 18.621094 16.214844 18.621094 16.445312 L 18.621094 17.601562 C 18.621094 18.257812 18.117188 18.757812 17.460938 18.757812 Z M 11.679688 18.757812 " fill-opacity="1" fill-rule="nonzero"/></svg>