<svg xmlns="http://www.w3.org/2000/svg" xmlns:xlink="http://www.w3.org/1999/xlink" width="40" zoomAndPan="magnify" viewBox="0 0 30 30.000001" height="40" preserveAspectRatio="xMidYMid meet" version="1.0"><defs><clipPath id="98b9afe855"><path d="M 0.484375 0 L 29.515625 0 L 29.515625 29.03125 L 0.484375 29.03125 Z M 0.484375 0 " clip-rule="nonzero"/></clipPath><clipPath id="f8be80c4dc"><path d="M 4.984375 2.902344 L 25 2.902344 L 25 26.128906 L 4.984375 26.128906 Z M 4.984375 2.902344 " clip-rule="nonzero"/></clipPath></defs><g clip-path="url(#98b9afe855)"><path fill="#ffffff" d="M 0.484375 0 L 29.515625 0 L 29.515625 29.03125 L 0.484375 29.03125 Z M 0.484375 0 " fill-opacity="1" fill-rule="nonzero"/><path fill="#ffffff" d="M 0.484375 0 L 29.515625 0 L 29.515625 29.03125 L 0.484375 29.03125 Z M 0.484375 0 " fill-opacity="1" fill-rule="nonzero"/></g><g clip-path="url(#f8be80c4dc)"><path fill="#935f3d" d="M 24.742188 23.753906 L 21.925781 18.875 C 21.863281 18.769531 21.761719 18.691406 21.640625 18.660156 C 21.519531 18.625 21.394531 18.640625 21.285156 18.703125 L 21.230469 18.734375 L 20.761719 17.921875 C 22.109375 16.792969 22.964844 15.101562 22.964844 13.214844 C 22.964844 9.828125 20.210938 7.074219 16.828125 7.074219 C 15.164062 7.074219 13.574219 7.75 12.421875 8.9375 C 12.152344 8.8125 11.867188 8.714844 11.574219 8.636719 C 12.582031 8.148438 13.277344 7.113281 13.277344 5.921875 C 13.277344 4.257812 11.921875 2.902344 10.257812 2.902344 C 8.59375 2.902344 7.238281 4.257812 7.238281 5.921875 C 7.238281 7.113281 7.933594 8.148438 8.941406 8.636719 C 6.808594 9.191406 5.167969 11.0625 4.996094 13.347656 C 4.984375 13.542969 5.050781 13.738281 5.183594 13.882812 C 5.316406 14.027344 5.503906 14.109375 5.703125 14.109375 L 10.753906 14.109375 C 10.957031 15.5 11.628906 16.777344 12.675781 17.738281 C 13.8125 18.78125 15.285156 19.351562 16.828125 19.351562 C 17.570312 19.351562 18.28125 19.222656 18.9375 18.980469 L 19.40625 19.789062 L 19.351562 19.820312 C 19.242188 19.882812 19.167969 19.984375 19.132812 20.105469 C 19.101562 20.226562 19.117188 20.351562 19.179688 20.460938 L 21.996094 25.335938 C 22.207031 25.703125 22.550781 25.964844 22.960938 26.074219 C 23.097656 26.109375 23.234375 26.128906 23.375 26.128906 C 23.648438 26.128906 23.917969 26.058594 24.160156 25.917969 C 24.527344 25.707031 24.789062 25.363281 24.898438 24.953125 C 25.007812 24.546875 24.953125 24.117188 24.742188 23.753906 Z M 7.96875 5.921875 C 7.96875 4.660156 8.996094 3.632812 10.257812 3.632812 C 11.523438 3.632812 12.550781 4.660156 12.550781 5.921875 C 12.550781 7.183594 11.523438 8.210938 10.257812 8.210938 C 8.996094 8.210938 7.96875 7.183594 7.96875 5.921875 Z M 10.257812 9.195312 C 12.617188 9.195312 14.601562 11.03125 14.789062 13.378906 L 5.726562 13.378906 C 5.914062 11.03125 7.902344 9.195312 10.257812 9.195312 Z M 15.519531 13.347656 C 15.433594 12.1875 14.964844 11.128906 14.246094 10.300781 C 14.957031 9.667969 15.863281 9.320312 16.828125 9.320312 C 18.972656 9.320312 20.71875 11.066406 20.71875 13.214844 C 20.71875 15.359375 18.972656 17.105469 16.828125 17.105469 C 15.007812 17.105469 13.445312 15.84375 13.039062 14.109375 L 14.8125 14.109375 C 15.011719 14.109375 15.199219 14.023438 15.332031 13.882812 C 15.464844 13.738281 15.535156 13.542969 15.519531 13.347656 Z M 11.488281 14.109375 L 12.292969 14.109375 C 12.714844 16.253906 14.609375 17.835938 16.828125 17.835938 C 19.375 17.835938 21.449219 15.761719 21.449219 13.214844 C 21.449219 10.664062 19.375 8.59375 16.828125 8.59375 C 15.667969 8.59375 14.582031 9.011719 13.730469 9.785156 C 13.53125 9.605469 13.316406 9.445312 13.089844 9.300781 C 14.09375 8.34375 15.433594 7.804688 16.828125 7.804688 C 19.8125 7.804688 22.238281 10.230469 22.238281 13.214844 C 22.238281 16.199219 19.8125 18.625 16.828125 18.625 C 14.144531 18.625 11.917969 16.710938 11.488281 14.109375 Z M 19.609375 18.683594 C 19.804688 18.585938 19.992188 18.476562 20.171875 18.359375 L 20.601562 19.101562 L 20.039062 19.425781 Z M 21.425781 19.464844 L 21.847656 20.195312 L 20.363281 21.050781 L 19.945312 20.320312 Z M 24.195312 24.765625 C 24.136719 24.988281 23.996094 25.171875 23.796875 25.285156 C 23.601562 25.398438 23.371094 25.429688 23.148438 25.371094 C 22.925781 25.3125 22.742188 25.167969 22.628906 24.972656 L 20.730469 21.683594 L 22.210938 20.828125 L 24.109375 24.117188 C 24.222656 24.3125 24.253906 24.542969 24.195312 24.765625 Z M 24.195312 24.765625 " fill-opacity="1" fill-rule="nonzero"/></g></svg>