<svg xmlns="http://www.w3.org/2000/svg" xmlns:xlink="http://www.w3.org/1999/xlink" width="40" zoomAndPan="magnify" viewBox="0 0 30 30.000001" height="40" preserveAspectRatio="xMidYMid meet" version="1.0"><defs><clipPath id="833260e28c"><path d="M 0.484375 0 L 29.515625 0 L 29.515625 29.03125 L 0.484375 29.03125 Z M 0.484375 0 " clip-rule="nonzero"/></clipPath><clipPath id="bcf4dc2ba2"><path d="M 4.15625 2.902344 L 25.929688 2.902344 L 25.929688 26.128906 L 4.15625 26.128906 Z M 4.15625 2.902344 " clip-rule="nonzero"/></clipPath></defs><g clip-path="url(#833260e28c)"><path fill="#ffffff" d="M 0.484375 0 L 29.515625 0 L 29.515625 29.03125 L 0.484375 29.03125 Z M 0.484375 0 " fill-opacity="1" fill-rule="nonzero"/><path fill="#ffffff" d="M 0.484375 0 L 29.515625 0 L 29.515625 29.03125 L 0.484375 29.03125 Z M 0.484375 0 " fill-opacity="1" fill-rule="nonzero"/></g><g clip-path="url(#bcf4dc2ba2)"><path fill="#935f3d" d="M 22.449219 20.808594 C 22.054688 21.039062 21.5 21.402344 20.859375 21.820312 C 19.277344 22.847656 16.578125 24.613281 15.746094 24.578125 C 13.753906 24.484375 11.789062 24.109375 9.738281 24.40625 L 9.738281 20.988281 C 10.203125 20.964844 10.753906 20.917969 11.304688 20.800781 C 11.683594 20.722656 12.296875 20.433594 12.980469 20.128906 C 14.277344 19.539062 14.347656 19.554688 15.578125 19.808594 C 15.992188 19.894531 16.414062 19.972656 16.863281 20.101562 C 17.90625 20.398438 18.019531 20.6875 18.019531 20.796875 C 18.019531 21.0625 17.914062 21.144531 17.894531 21.203125 C 17.738281 21.363281 17.480469 21.519531 17.21875 21.472656 L 14.988281 21.046875 C 14.941406 21.039062 14.902344 21.039062 14.855469 21.046875 L 13.867188 21.226562 C 13.679688 21.261719 13.550781 21.445312 13.585938 21.636719 C 13.621094 21.828125 13.804688 21.953125 13.996094 21.917969 L 14.917969 21.75 L 17.089844 22.164062 C 17.164062 22.175781 17.242188 22.183594 17.320312 22.183594 C 17.648438 22.183594 17.984375 22.054688 18.265625 21.816406 C 18.296875 21.808594 18.324219 21.796875 18.355469 21.78125 L 22.367188 19.582031 C 22.828125 19.363281 23.234375 19.453125 23.347656 19.664062 C 23.46875 19.890625 23.238281 20.347656 22.449219 20.808594 Z M 9.03125 25.148438 C 9.03125 25.300781 8.910156 25.421875 8.757812 25.421875 L 6.832031 25.421875 C 6.683594 25.421875 6.558594 25.300781 6.558594 25.148438 L 6.558594 20.585938 C 6.558594 20.433594 6.683594 20.3125 6.832031 20.3125 L 8.757812 20.3125 C 8.910156 20.3125 9.03125 20.433594 9.03125 20.585938 Z M 22.035156 18.90625 L 18.765625 20.699219 C 18.691406 19.929688 17.769531 19.578125 17.070312 19.378906 C 16.59375 19.242188 16.160156 19.160156 15.730469 19.074219 C 14.363281 18.792969 14.132812 18.78125 12.667969 19.445312 C 12.121094 19.695312 11.425781 20.011719 11.15625 20.066406 C 10.640625 20.175781 10.113281 20.21875 9.671875 20.242188 C 9.535156 19.871094 9.175781 19.609375 8.757812 19.609375 L 6.832031 19.609375 C 6.296875 19.609375 5.855469 20.046875 5.855469 20.585938 L 5.855469 25.148438 C 5.855469 25.6875 6.296875 26.125 6.832031 26.125 L 8.757812 26.125 C 9.292969 26.125 9.730469 25.695312 9.734375 25.164062 C 11.675781 24.855469 13.703125 25.230469 15.703125 25.328125 C 16.699219 25.378906 18.773438 24.078125 21.269531 22.449219 C 21.902344 22.035156 22.449219 21.679688 22.828125 21.457031 C 24.132812 20.695312 24.292969 19.847656 24.011719 19.3125 C 23.6875 18.699219 22.839844 18.527344 22.035156 18.90625 Z M 14.996094 15.921875 C 14.378906 15.921875 13.878906 15.421875 13.878906 14.804688 C 13.878906 14.191406 14.378906 13.691406 14.996094 13.691406 C 15.609375 13.691406 16.109375 14.191406 16.109375 14.804688 C 16.109375 15.421875 15.609375 15.921875 14.996094 15.921875 Z M 14.996094 12.988281 C 13.992188 12.988281 13.179688 13.804688 13.179688 14.804688 C 13.179688 15.808594 13.992188 16.625 14.996094 16.625 C 15.996094 16.625 16.8125 15.808594 16.8125 14.804688 C 16.8125 13.804688 15.996094 12.988281 14.996094 12.988281 Z M 24.109375 12.582031 L 24.109375 11.96875 C 24.109375 11.398438 23.816406 10.894531 23.367188 10.605469 C 23.871094 9.910156 23.378906 8.90625 22.496094 8.90625 C 21.625 8.90625 21.109375 9.894531 21.625 10.605469 C 21.175781 10.894531 20.878906 11.398438 20.878906 11.96875 L 20.878906 12.582031 C 20.261719 12.101562 19.863281 11.351562 19.863281 10.511719 C 19.863281 9.0625 21.046875 7.882812 22.496094 7.882812 C 23.945312 7.882812 25.121094 9.0625 25.121094 10.511719 C 25.121094 11.351562 24.726562 12.101562 24.109375 12.582031 Z M 22.125 9.980469 C 22.125 10.183594 22.289062 10.351562 22.496094 10.351562 C 22.699219 10.351562 22.867188 10.183594 22.867188 9.980469 C 22.867188 9.777344 22.699219 9.609375 22.496094 9.609375 C 22.289062 9.609375 22.125 9.777344 22.125 9.980469 Z M 21.582031 12.976562 C 22.167969 13.195312 22.820312 13.195312 23.40625 12.976562 L 23.40625 11.96875 C 23.40625 11.464844 22.996094 11.054688 22.496094 11.054688 C 21.992188 11.054688 21.582031 11.464844 21.582031 11.96875 Z M 18.125 12.789062 L 17.917969 12.4375 C 17.828125 12.277344 17.644531 12.195312 17.460938 12.234375 L 16.761719 12.382812 C 16.589844 12.257812 16.402344 12.148438 16.207031 12.0625 L 15.984375 11.382812 C 15.929688 11.207031 15.765625 11.089844 15.582031 11.089844 L 15.34375 11.089844 L 15.34375 9.546875 C 16.253906 9.453125 17.054688 8.992188 17.597656 8.3125 L 19.378906 9.332031 C 19.046875 10.203125 19.097656 11.167969 19.515625 12 Z M 17.257812 14.429688 C 17.242188 14.324219 17.273438 14.214844 17.34375 14.136719 L 17.796875 13.632812 L 17.414062 12.964844 L 16.75 13.105469 C 16.644531 13.128906 16.535156 13.101562 16.453125 13.035156 C 16.253906 12.871094 16.035156 12.746094 15.800781 12.65625 C 15.703125 12.621094 15.621094 12.539062 15.589844 12.4375 L 15.382812 11.792969 L 14.609375 11.792969 L 14.398438 12.4375 C 14.367188 12.539062 14.289062 12.621094 14.1875 12.65625 C 13.953125 12.746094 13.730469 12.871094 13.535156 13.035156 C 13.453125 13.101562 13.347656 13.128906 13.238281 13.105469 L 12.578125 12.964844 L 12.191406 13.632812 L 12.644531 14.136719 C 12.71875 14.214844 12.746094 14.324219 12.730469 14.429688 C 12.691406 14.664062 12.691406 14.945312 12.730469 15.183594 C 12.746094 15.289062 12.71875 15.394531 12.644531 15.476562 L 12.191406 15.980469 L 12.578125 16.648438 L 13.238281 16.503906 C 13.347656 16.484375 13.453125 16.511719 13.535156 16.578125 C 13.730469 16.738281 13.953125 16.867188 14.1875 16.957031 C 14.289062 16.992188 14.367188 17.074219 14.398438 17.175781 L 14.609375 17.820312 L 15.382812 17.820312 L 15.589844 17.175781 C 15.621094 17.074219 15.703125 16.992188 15.800781 16.957031 C 16.035156 16.867188 16.253906 16.738281 16.453125 16.578125 C 16.535156 16.511719 16.644531 16.484375 16.75 16.503906 L 17.414062 16.648438 L 17.796875 15.980469 L 17.34375 15.476562 C 17.273438 15.394531 17.242188 15.289062 17.257812 15.183594 C 17.300781 14.925781 17.300781 14.6875 17.257812 14.429688 Z M 10.546875 12.039062 C 10.917969 11.195312 10.917969 10.207031 10.546875 9.367188 L 12.394531 8.3125 C 12.933594 8.992188 13.734375 9.453125 14.644531 9.546875 L 14.644531 11.089844 L 14.410156 11.089844 C 14.222656 11.089844 14.058594 11.207031 14.003906 11.382812 L 13.78125 12.0625 C 13.585938 12.148438 13.398438 12.257812 13.226562 12.382812 L 12.527344 12.234375 C 12.34375 12.195312 12.160156 12.277344 12.070312 12.4375 L 11.867188 12.789062 Z M 9.113281 12.773438 L 9.113281 12.160156 C 9.113281 11.589844 8.816406 11.085938 8.367188 10.796875 C 8.875 10.097656 8.375 9.097656 7.496094 9.097656 C 6.625 9.097656 6.109375 10.085938 6.625 10.796875 C 6.175781 11.085938 5.878906 11.589844 5.878906 12.160156 L 5.878906 12.773438 C 5.261719 12.292969 4.867188 11.542969 4.867188 10.703125 C 4.867188 9.253906 6.046875 8.074219 7.496094 8.074219 C 8.945312 8.074219 10.125 9.253906 10.125 10.703125 C 10.125 11.542969 9.726562 12.292969 9.113281 12.773438 Z M 7.125 10.171875 C 7.125 10.375 7.292969 10.542969 7.496094 10.542969 C 7.699219 10.542969 7.867188 10.375 7.867188 10.171875 C 7.867188 9.96875 7.699219 9.800781 7.496094 9.800781 C 7.292969 9.800781 7.125 9.96875 7.125 10.171875 Z M 6.582031 13.167969 C 7.171875 13.386719 7.816406 13.386719 8.40625 13.167969 L 8.40625 12.160156 C 8.40625 11.65625 7.996094 11.246094 7.496094 11.246094 C 6.992188 11.246094 6.582031 11.65625 6.582031 12.160156 Z M 14.625 5.703125 C 14.625 5.5 14.789062 5.332031 14.996094 5.332031 C 15.199219 5.332031 15.367188 5.5 15.367188 5.703125 C 15.367188 5.90625 15.199219 6.074219 14.996094 6.074219 C 14.789062 6.074219 14.625 5.90625 14.625 5.703125 Z M 14.996094 8.863281 C 15.316406 8.863281 15.625 8.804688 15.90625 8.699219 L 15.90625 7.691406 C 15.90625 7.1875 15.496094 6.777344 14.996094 6.777344 C 14.492188 6.777344 14.082031 7.1875 14.082031 7.691406 L 14.082031 8.699219 C 14.367188 8.804688 14.675781 8.863281 14.996094 8.863281 Z M 14.996094 3.605469 C 13.546875 3.605469 12.367188 4.785156 12.367188 6.234375 C 12.367188 7.074219 12.761719 7.824219 13.378906 8.304688 L 13.378906 7.691406 C 13.378906 7.121094 13.675781 6.617188 14.125 6.328125 C 13.609375 5.617188 14.125 4.628906 14.996094 4.628906 C 15.878906 4.628906 16.371094 5.632812 15.867188 6.328125 C 16.3125 6.617188 16.613281 7.121094 16.613281 7.691406 L 16.613281 8.304688 C 17.226562 7.824219 17.621094 7.074219 17.621094 6.234375 C 17.621094 4.785156 16.441406 3.605469 14.996094 3.605469 Z M 22.496094 7.179688 C 21.324219 7.179688 20.292969 7.785156 19.699219 8.703125 L 17.976562 7.722656 C 18.199219 7.273438 18.328125 6.769531 18.328125 6.234375 C 18.328125 4.398438 16.832031 2.902344 14.996094 2.902344 C 13.15625 2.902344 11.664062 4.398438 11.664062 6.234375 C 11.664062 6.769531 11.789062 7.273438 12.011719 7.722656 L 10.199219 8.757812 C 9.59375 7.917969 8.605469 7.371094 7.496094 7.371094 C 5.65625 7.371094 4.164062 8.867188 4.164062 10.703125 C 4.164062 12.539062 5.65625 14.035156 7.496094 14.035156 C 8.605469 14.035156 9.59375 13.488281 10.199219 12.648438 L 11.515625 13.398438 L 11.480469 13.457031 C 11.390625 13.617188 11.410156 13.816406 11.535156 13.953125 L 12.011719 14.484375 C 11.992188 14.664062 11.992188 14.945312 12.011719 15.125 L 11.535156 15.65625 C 11.410156 15.796875 11.390625 15.996094 11.480469 16.15625 L 12.070312 17.171875 C 12.160156 17.332031 12.34375 17.414062 12.527344 17.378906 L 13.226562 17.226562 C 13.398438 17.355469 13.585938 17.460938 13.78125 17.546875 L 14.003906 18.230469 C 14.058594 18.40625 14.222656 18.523438 14.410156 18.523438 L 15.582031 18.523438 C 15.765625 18.523438 15.929688 18.40625 15.984375 18.230469 L 16.207031 17.546875 C 16.402344 17.460938 16.589844 17.355469 16.761719 17.226562 L 17.460938 17.378906 C 17.644531 17.414062 17.828125 17.332031 17.917969 17.171875 L 18.507812 16.15625 C 18.597656 15.996094 18.582031 15.796875 18.457031 15.65625 L 17.976562 15.125 C 18 14.914062 18 14.699219 17.976562 14.484375 L 18.457031 13.953125 C 18.582031 13.816406 18.597656 13.617188 18.507812 13.457031 L 18.476562 13.402344 L 19.894531 12.589844 C 20.503906 13.355469 21.441406 13.84375 22.496094 13.84375 C 24.332031 13.84375 25.828125 12.347656 25.828125 10.511719 C 25.828125 8.675781 24.332031 7.179688 22.496094 7.179688 Z M 22.496094 7.179688 " fill-opacity="1" fill-rule="evenodd"/></g></svg>