<svg xmlns="http://www.w3.org/2000/svg" xmlns:xlink="http://www.w3.org/1999/xlink" width="40" zoomAndPan="magnify" viewBox="0 0 30 30.000001" height="40" preserveAspectRatio="xMidYMid meet" version="1.0"><defs><clipPath id="cdfa5baa43"><path d="M 0.484375 0 L 29.515625 0 L 29.515625 29.03125 L 0.484375 29.03125 Z M 0.484375 0 " clip-rule="nonzero"/></clipPath><clipPath id="a713e469c1"><path d="M 3.589844 4 L 26.089844 4 L 26.089844 20 L 3.589844 20 Z M 3.589844 4 " clip-rule="nonzero"/></clipPath><clipPath id="575b09d52a"><path d="M 6 2.902344 L 10 2.902344 L 10 6 L 6 6 Z M 6 2.902344 " clip-rule="nonzero"/></clipPath><clipPath id="02757afec6"><path d="M 13 2.902344 L 17 2.902344 L 17 6 L 13 6 Z M 13 2.902344 " clip-rule="nonzero"/></clipPath><clipPath id="2772a9bc34"><path d="M 20 2.902344 L 24 2.902344 L 24 6 L 20 6 Z M 20 2.902344 " clip-rule="nonzero"/></clipPath><clipPath id="5cf0f9d1e8"><path d="M 9 25 L 21 25 L 21 26.128906 L 9 26.128906 Z M 9 25 " clip-rule="nonzero"/></clipPath></defs><g clip-path="url(#cdfa5baa43)"><path fill="#ffffff" d="M 0.484375 0 L 29.515625 0 L 29.515625 29.03125 L 0.484375 29.03125 Z M 0.484375 0 " fill-opacity="1" fill-rule="nonzero"/><path fill="#ffffff" d="M 0.484375 0 L 29.515625 0 L 29.515625 29.03125 L 0.484375 29.03125 Z M 0.484375 0 " fill-opacity="1" fill-rule="nonzero"/></g><path fill="#935f3d" d="M 13.511719 19.125 L 16.492188 19.125 L 16.492188 25.769531 L 13.511719 25.769531 Z M 13.511719 19.125 " fill-opacity="1" fill-rule="evenodd"/><g clip-path="url(#a713e469c1)"><path fill="#935f3d" d="M 4.835938 4.746094 L 25.167969 4.746094 C 25.847656 4.746094 26.402344 5.300781 26.402344 5.980469 L 26.402344 18.761719 C 26.402344 19.441406 25.847656 19.996094 25.167969 19.996094 L 4.835938 19.996094 C 4.15625 19.996094 3.601562 19.441406 3.601562 18.761719 L 3.601562 5.980469 C 3.601562 5.300781 4.15625 4.746094 4.835938 4.746094 Z M 4.835938 4.746094 " fill-opacity="1" fill-rule="evenodd"/></g><g clip-path="url(#575b09d52a)"><path fill="#935f3d" d="M 8.15625 2.902344 C 9.125 2.902344 9.917969 3.695312 9.917969 4.664062 L 9.917969 5.496094 L 6.394531 5.496094 L 6.394531 4.664062 C 6.394531 3.695312 7.1875 2.902344 8.15625 2.902344 Z M 8.15625 2.902344 " fill-opacity="1" fill-rule="evenodd"/></g><path fill="#ffffff" d="M 7.089844 6.601562 C 7.140625 6.410156 7.335938 6.296875 7.527344 6.347656 C 7.71875 6.398438 7.828125 6.59375 7.777344 6.785156 L 7.433594 8.0625 C 7.382812 8.253906 7.1875 8.367188 7 8.316406 C 6.808594 8.265625 6.695312 8.070312 6.746094 7.878906 Z M 22.222656 6.785156 C 22.171875 6.59375 22.285156 6.398438 22.476562 6.347656 C 22.664062 6.296875 22.859375 6.410156 22.910156 6.601562 L 23.257812 7.878906 C 23.308594 8.070312 23.195312 8.265625 23.003906 8.316406 C 22.816406 8.367188 22.621094 8.253906 22.570312 8.0625 Z M 20.78125 6.601562 C 20.832031 6.410156 21.027344 6.296875 21.214844 6.347656 C 21.40625 6.398438 21.519531 6.59375 21.46875 6.785156 L 21.125 8.0625 C 21.074219 8.253906 20.878906 8.367188 20.6875 8.316406 C 20.496094 8.265625 20.386719 8.070312 20.4375 7.878906 Z M 15.378906 6.785156 C 15.328125 6.59375 15.441406 6.398438 15.632812 6.347656 C 15.820312 6.296875 16.015625 6.410156 16.066406 6.601562 L 16.410156 7.878906 C 16.460938 8.070312 16.351562 8.265625 16.160156 8.316406 C 15.96875 8.367188 15.773438 8.253906 15.722656 8.0625 Z M 13.9375 6.601562 C 13.988281 6.410156 14.183594 6.296875 14.371094 6.347656 C 14.5625 6.398438 14.675781 6.59375 14.625 6.785156 L 14.277344 8.0625 C 14.226562 8.253906 14.03125 8.367188 13.84375 8.316406 C 13.652344 8.265625 13.539062 8.070312 13.589844 7.878906 Z M 8.535156 6.785156 C 8.484375 6.59375 8.597656 6.398438 8.785156 6.347656 C 8.976562 6.296875 9.171875 6.410156 9.222656 6.601562 L 9.566406 7.878906 C 9.617188 8.070312 9.503906 8.265625 9.316406 8.316406 C 9.125 8.367188 8.929688 8.253906 8.878906 8.0625 Z M 8.535156 6.785156 " fill-opacity="1" fill-rule="evenodd"/><g clip-path="url(#02757afec6)"><path fill="#935f3d" d="M 15 2.902344 C 15.96875 2.902344 16.761719 3.695312 16.761719 4.664062 L 16.761719 5.496094 L 13.242188 5.496094 L 13.242188 4.664062 C 13.242188 3.695312 14.03125 2.902344 15 2.902344 Z M 15 2.902344 " fill-opacity="1" fill-rule="evenodd"/></g><g clip-path="url(#2772a9bc34)"><path fill="#935f3d" d="M 21.847656 2.902344 C 22.816406 2.902344 23.605469 3.695312 23.605469 4.664062 L 23.605469 5.496094 L 20.085938 5.496094 L 20.085938 4.664062 C 20.085938 3.695312 20.878906 2.902344 21.847656 2.902344 Z M 21.847656 2.902344 " fill-opacity="1" fill-rule="evenodd"/></g><g clip-path="url(#5cf0f9d1e8)"><path fill="#935f3d" d="M 9.738281 26.125 C 9.539062 26.125 9.378906 25.964844 9.378906 25.769531 C 9.378906 25.574219 9.539062 25.414062 9.738281 25.414062 L 20.265625 25.414062 C 20.464844 25.414062 20.621094 25.574219 20.621094 25.769531 C 20.621094 25.964844 20.464844 26.125 20.265625 26.125 Z M 9.738281 26.125 " fill-opacity="1" fill-rule="evenodd"/></g><path fill="#ffffff" d="M 10.9375 13.6875 L 13.179688 14.0625 L 12.5625 17.621094 L 10.9375 17.621094 Z M 10.9375 13.6875 " fill-opacity="1" fill-rule="evenodd"/><path fill="#ffffff" d="M 19.398438 17.183594 C 17.246094 15.601562 13.832031 14.402344 9.773438 13.855469 C 9.351562 13.796875 9.042969 13.441406 9.042969 13.015625 L 9.042969 12.46875 C 9.042969 12.042969 9.351562 11.6875 9.773438 11.628906 C 13.832031 11.082031 17.246094 9.882812 19.398438 8.300781 Z M 19.398438 17.183594 " fill-opacity="1" fill-rule="evenodd"/><path fill="#ffffff" d="M 19.398438 17.183594 C 18.832031 16.769531 18.183594 16.382812 17.457031 16.023438 L 17.457031 9.460938 C 18.183594 9.101562 18.832031 8.714844 19.398438 8.300781 Z M 19.398438 17.183594 " fill-opacity="1" fill-rule="evenodd"/></svg>