<svg xmlns="http://www.w3.org/2000/svg" xmlns:xlink="http://www.w3.org/1999/xlink" width="40" zoomAndPan="magnify" viewBox="0 0 30 30.000001" height="40" preserveAspectRatio="xMidYMid meet" version="1.0"><defs><clipPath id="0cda02fbf2"><path d="M 0.484375 0 L 29.515625 0 L 29.515625 29.03125 L 0.484375 29.03125 Z M 0.484375 0 " clip-rule="nonzero"/></clipPath><clipPath id="9c483e6921"><path d="M 5.40625 2.902344 L 24.277344 2.902344 L 24.277344 26.128906 L 5.40625 26.128906 Z M 5.40625 2.902344 " clip-rule="nonzero"/></clipPath></defs><g clip-path="url(#0cda02fbf2)"><path fill="#ffffff" d="M 0.484375 0 L 29.515625 0 L 29.515625 29.03125 L 0.484375 29.03125 Z M 0.484375 0 " fill-opacity="1" fill-rule="nonzero"/><path fill="#ffffff" d="M 0.484375 0 L 29.515625 0 L 29.515625 29.03125 L 0.484375 29.03125 Z M 0.484375 0 " fill-opacity="1" fill-rule="nonzero"/></g><g clip-path="url(#9c483e6921)"><path fill="#935f3d" d="M 9.714844 9.003906 C 9.898438 9.003906 10.054688 8.847656 10.054688 8.652344 C 10.054688 7.34375 10.5625 6.113281 11.484375 5.183594 C 11.628906 5.046875 11.617188 4.820312 11.484375 4.683594 C 11.34375 4.550781 11.121094 4.550781 10.992188 4.691406 C 9.9375 5.753906 9.363281 7.15625 9.363281 8.652344 C 9.363281 8.847656 9.503906 9.003906 9.714844 9.003906 Z M 7.863281 9.003906 C 7.667969 9.003906 7.511719 8.847656 7.511719 8.652344 C 7.511719 6.503906 8.4375 4.457031 10.054688 3.03125 C 10.195312 2.90625 10.417969 2.921875 10.546875 3.066406 C 10.679688 3.210938 10.664062 3.4375 10.507812 3.5625 C 9.050781 4.847656 8.203125 6.703125 8.203125 8.652344 C 8.203125 8.847656 8.058594 9.003906 7.863281 9.003906 Z M 14.078125 14.46875 C 14.078125 14.558594 14.164062 14.597656 14.234375 14.5625 L 15.863281 13.617188 C 15.933594 13.578125 15.933594 13.476562 15.863281 13.4375 L 14.234375 12.492188 C 14.144531 12.453125 14.078125 12.511719 14.078125 12.582031 Z M 13.375 14.46875 L 13.375 12.582031 C 13.375 11.960938 14.039062 11.574219 14.585938 11.882812 L 16.214844 12.828125 C 16.753906 13.136719 16.753906 13.917969 16.214844 14.226562 L 14.585938 15.171875 C 14.042969 15.476562 13.375 15.101562 13.375 14.46875 Z M 23.886719 12.269531 C 23.886719 11.878906 23.5625 11.554688 23.171875 11.554688 L 18.492188 11.554688 C 19.144531 12.34375 19.535156 13.347656 19.535156 14.441406 L 19.535156 16.84375 L 23.886719 16.84375 Z M 23.886719 17.546875 L 15.339844 17.546875 L 15.339844 22.828125 L 17.515625 22.828125 L 17.515625 22.15625 C 17.515625 21.363281 17.960938 20.667969 18.613281 20.3125 C 18.390625 20.074219 18.257812 19.753906 18.257812 19.410156 C 18.257812 18.664062 18.871094 18.058594 19.613281 18.058594 C 20.355469 18.058594 20.96875 18.664062 20.96875 19.410156 C 20.96875 19.753906 20.839844 20.074219 20.617188 20.3125 C 21.269531 20.667969 21.710938 21.363281 21.710938 22.15625 L 21.710938 22.828125 L 23.171875 22.828125 C 23.5625 22.828125 23.886719 22.507812 23.886719 22.113281 Z M 19.613281 20.058594 C 19.261719 20.058594 18.964844 19.769531 18.964844 19.410156 C 18.964844 19.054688 19.261719 18.761719 19.613281 18.761719 C 19.980469 18.761719 20.265625 19.054688 20.265625 19.410156 C 20.265625 19.769531 19.980469 20.058594 19.613281 20.058594 Z M 21.007812 22.15625 L 21.007812 22.828125 L 18.21875 22.828125 L 18.21875 22.15625 C 18.21875 21.390625 18.847656 20.761719 19.613281 20.761719 C 20.382812 20.761719 21.007812 21.390625 21.007812 22.15625 Z M 15.707031 23.53125 L 14.285156 23.53125 C 14 24.25 13.621094 24.890625 13.179688 25.425781 L 16.8125 25.425781 C 16.371094 24.890625 15.992188 24.25 15.707031 23.53125 Z M 14.636719 22.828125 L 14.636719 17.546875 L 6.105469 17.546875 L 6.105469 22.113281 C 6.105469 22.507812 6.429688 22.828125 6.820312 22.828125 L 8.28125 22.828125 L 8.28125 22.15625 C 8.28125 21.363281 8.722656 20.667969 9.375 20.3125 C 9.152344 20.074219 9.023438 19.757812 9.023438 19.410156 C 9.023438 18.664062 9.636719 18.058594 10.378906 18.058594 C 11.121094 18.058594 11.71875 18.664062 11.71875 19.410156 C 11.71875 19.757812 11.589844 20.074219 11.382812 20.3125 C 12.03125 20.667969 12.476562 21.363281 12.476562 22.15625 L 12.476562 22.828125 Z M 10.378906 20.058594 C 10.015625 20.058594 9.726562 19.769531 9.726562 19.410156 C 9.726562 19.054688 10.015625 18.761719 10.378906 18.761719 C 10.730469 18.761719 11.03125 19.054688 11.03125 19.410156 C 11.03125 19.769531 10.730469 20.058594 10.378906 20.058594 Z M 11.773438 22.15625 L 11.773438 22.828125 L 8.972656 22.828125 L 8.972656 22.15625 C 8.972656 21.390625 9.609375 20.761719 10.378906 20.761719 C 11.148438 20.761719 11.773438 21.390625 11.773438 22.15625 Z M 6.105469 16.84375 L 10.457031 16.84375 L 10.457031 14.441406 C 10.457031 13.347656 10.847656 12.34375 11.484375 11.554688 L 6.820312 11.554688 C 6.429688 11.554688 6.105469 11.878906 6.105469 12.269531 Z M 11.160156 14.441406 C 11.160156 12.324219 12.878906 10.605469 14.988281 10.605469 C 17.113281 10.605469 18.832031 12.324219 18.832031 14.441406 L 18.832031 16.84375 L 11.160156 16.84375 Z M 13.753906 8.652344 C 13.753906 9.339844 14.3125 9.902344 14.988281 9.902344 C 15.679688 9.902344 16.242188 9.339844 16.242188 8.652344 C 16.242188 7.96875 15.679688 7.40625 14.988281 7.40625 C 14.3125 7.40625 13.753906 7.96875 13.753906 8.652344 Z M 24.589844 12.269531 L 24.589844 22.113281 C 24.589844 22.894531 23.953125 23.53125 23.171875 23.53125 L 16.460938 23.53125 C 16.800781 24.292969 17.257812 24.9375 17.789062 25.425781 L 21.320312 25.425781 C 21.503906 25.425781 21.671875 25.582031 21.671875 25.777344 C 21.671875 25.96875 21.503906 26.128906 21.320312 26.128906 L 8.671875 26.128906 C 8.476562 26.128906 8.320312 25.96875 8.320312 25.777344 C 8.320312 25.582031 8.476562 25.425781 8.671875 25.425781 L 12.203125 25.425781 C 12.734375 24.9375 13.191406 24.292969 13.53125 23.53125 L 6.820312 23.53125 C 6.039062 23.53125 5.402344 22.894531 5.402344 22.113281 L 5.402344 12.269531 C 5.402344 11.492188 6.039062 10.851562 6.820312 10.851562 L 12.214844 10.851562 C 12.644531 10.515625 13.140625 10.257812 13.6875 10.09375 C 13.296875 9.738281 13.050781 9.222656 13.050781 8.652344 C 13.050781 7.578125 13.921875 6.703125 14.988281 6.703125 C 16.070312 6.703125 16.945312 7.578125 16.945312 8.652344 C 16.945312 9.222656 16.695312 9.738281 16.304688 10.09375 C 16.839844 10.257812 17.347656 10.515625 17.777344 10.851562 L 23.171875 10.851562 C 23.953125 10.851562 24.589844 11.492188 24.589844 12.269531 Z M 19.472656 3.5625 C 20.941406 4.847656 21.777344 6.703125 21.777344 8.652344 C 21.777344 8.847656 21.933594 9.003906 22.128906 9.003906 C 22.324219 9.003906 22.480469 8.847656 22.480469 8.652344 C 22.480469 6.503906 21.554688 4.457031 19.941406 3.03125 C 19.796875 2.90625 19.574219 2.921875 19.445312 3.066406 C 19.316406 3.210938 19.328125 3.4375 19.472656 3.5625 Z M 11.550781 9.003906 C 11.355469 9.003906 11.199219 8.847656 11.199219 8.652344 C 11.199219 7.839844 11.460938 7.070312 11.929688 6.414062 C 12.046875 6.257812 12.265625 6.226562 12.421875 6.339844 C 12.578125 6.457031 12.617188 6.671875 12.5 6.832031 C 12.109375 7.363281 11.902344 7.992188 11.902344 8.652344 C 11.902344 8.847656 11.746094 9.003906 11.550781 9.003906 Z M 19.925781 8.652344 C 19.925781 8.847656 20.097656 9.003906 20.277344 9.003906 C 20.472656 9.003906 20.628906 8.847656 20.628906 8.652344 C 20.628906 7.15625 20.058594 5.753906 19.003906 4.691406 C 18.871094 4.550781 18.636719 4.550781 18.507812 4.683594 C 18.375 4.820312 18.363281 5.046875 18.507812 5.183594 C 19.417969 6.113281 19.925781 7.34375 19.925781 8.652344 Z M 17.492188 6.832031 C 17.882812 7.363281 18.089844 7.992188 18.089844 8.652344 C 18.089844 8.847656 18.246094 9.003906 18.441406 9.003906 C 18.625 9.003906 18.792969 8.847656 18.792969 8.652344 C 18.792969 7.839844 18.53125 7.070312 18.0625 6.414062 C 17.945312 6.257812 17.726562 6.226562 17.570312 6.339844 C 17.414062 6.457031 17.375 6.671875 17.492188 6.832031 Z M 17.492188 6.832031 " fill-opacity="1" fill-rule="evenodd"/></g></svg>