<svg xmlns="http://www.w3.org/2000/svg" xmlns:xlink="http://www.w3.org/1999/xlink" width="40" zoomAndPan="magnify" viewBox="0 0 30 30.000001" height="40" preserveAspectRatio="xMidYMid meet" version="1.0"><defs><clipPath id="3e458e4000"><path d="M 0.484375 0 L 29.515625 0 L 29.515625 29.03125 L 0.484375 29.03125 Z M 0.484375 0 " clip-rule="nonzero"/></clipPath><clipPath id="88d5af3300"><path d="M 3.386719 21 L 8 21 L 8 26.128906 L 3.386719 26.128906 Z M 3.386719 21 " clip-rule="nonzero"/></clipPath><clipPath id="4b4768f54b"><path d="M 4 2.902344 L 26.613281 2.902344 L 26.613281 25 L 4 25 Z M 4 2.902344 " clip-rule="nonzero"/></clipPath></defs><g clip-path="url(#3e458e4000)"><path fill="#ffffff" d="M 0.484375 0 L 29.515625 0 L 29.515625 29.03125 L 0.484375 29.03125 Z M 0.484375 0 " fill-opacity="1" fill-rule="nonzero"/><path fill="#ffffff" d="M 0.484375 0 L 29.515625 0 L 29.515625 29.03125 L 0.484375 29.03125 Z M 0.484375 0 " fill-opacity="1" fill-rule="nonzero"/></g><g clip-path="url(#88d5af3300)"><path fill="#935f3d" d="M 5.632812 25.378906 C 4.808594 25.378906 4.136719 24.707031 4.136719 23.882812 C 4.136719 23.054688 4.808594 22.382812 5.632812 22.382812 C 6.460938 22.382812 7.132812 23.054688 7.132812 23.882812 C 7.132812 24.707031 6.460938 25.378906 5.632812 25.378906 Z M 5.632812 21.632812 C 4.394531 21.632812 3.386719 22.640625 3.386719 23.882812 C 3.386719 25.121094 4.394531 26.128906 5.632812 26.128906 C 6.875 26.128906 7.882812 25.121094 7.882812 23.882812 C 7.882812 22.640625 6.875 21.632812 5.632812 21.632812 " fill-opacity="1" fill-rule="nonzero"/></g><g clip-path="url(#4b4768f54b)"><path fill="#935f3d" d="M 25.863281 17.886719 C 25.863281 18.300781 25.527344 18.636719 25.113281 18.636719 L 14.652344 18.636719 C 14.34375 18.105469 13.988281 17.605469 13.597656 17.136719 L 23.617188 17.136719 C 24.027344 17.136719 24.367188 16.800781 24.367188 16.390625 L 24.367188 5.898438 C 24.367188 5.488281 24.027344 5.152344 23.617188 5.152344 L 10.128906 5.152344 C 9.71875 5.152344 9.378906 5.488281 9.378906 5.898438 L 9.378906 14.148438 C 8.898438 13.960938 8.398438 13.804688 7.882812 13.6875 L 7.882812 4.402344 C 7.882812 3.988281 8.21875 3.652344 8.632812 3.652344 L 24.738281 3.652344 C 25.359375 3.652344 25.863281 4.15625 25.863281 4.777344 Z M 19.726562 20.882812 L 15.628906 20.882812 C 15.472656 20.363281 15.277344 19.863281 15.046875 19.386719 L 19.226562 19.386719 Z M 22.117188 22.757812 L 22.117188 23.132812 L 16.070312 23.132812 C 16.023438 22.617188 15.941406 22.121094 15.828125 21.632812 L 20.992188 21.632812 C 21.613281 21.632812 22.117188 22.136719 22.117188 22.757812 Z M 12.894531 16.390625 C 12.09375 15.609375 11.160156 14.960938 10.128906 14.46875 L 10.128906 5.898438 L 23.617188 5.898438 L 23.617188 16.390625 Z M 13.867188 23.882812 C 13.675781 19.429688 10.089844 15.839844 5.632812 15.648438 L 5.632812 14.148438 C 11.089844 14.328125 15.1875 18.425781 15.367188 23.882812 Z M 5.632812 20.148438 L 5.632812 18.65625 C 8.433594 18.839844 10.675781 21.082031 10.859375 23.882812 L 9.367188 23.882812 C 9.21875 21.746094 7.769531 20.300781 5.632812 20.148438 Z M 5.632812 16.40625 C 9.671875 16.601562 12.917969 19.84375 13.109375 23.882812 L 11.609375 23.882812 C 11.421875 20.667969 8.847656 18.09375 5.632812 17.90625 Z M 24.738281 2.902344 L 8.632812 2.902344 C 7.804688 2.902344 7.132812 3.574219 7.132812 4.402344 L 7.132812 13.542969 C 6.527344 13.445312 5.902344 13.390625 5.261719 13.390625 L 4.886719 13.390625 L 4.886719 20.882812 L 5.261719 20.882812 C 7.339844 20.882812 8.632812 22.175781 8.632812 24.257812 L 8.632812 24.628906 L 16.125 24.628906 L 16.125 24.257812 C 16.125 24.128906 16.117188 24.003906 16.113281 23.882812 L 22.867188 23.882812 L 22.867188 22.757812 C 22.867188 21.722656 22.027344 20.882812 20.992188 20.882812 L 20.515625 20.882812 L 20.015625 19.386719 L 25.113281 19.386719 C 25.941406 19.386719 26.613281 18.714844 26.613281 17.886719 L 26.613281 4.777344 C 26.613281 3.742188 25.773438 2.902344 24.738281 2.902344 " fill-opacity="1" fill-rule="nonzero"/></g><path fill="#935f3d" d="M 22.117188 15.640625 L 22.867188 15.640625 L 22.867188 14.890625 L 22.117188 14.890625 L 22.117188 15.640625 " fill-opacity="1" fill-rule="nonzero"/><path fill="#935f3d" d="M 20.621094 15.640625 L 21.367188 15.640625 L 21.367188 14.890625 L 20.621094 14.890625 L 20.621094 15.640625 " fill-opacity="1" fill-rule="nonzero"/><path fill="#935f3d" d="M 19.121094 15.640625 L 19.871094 15.640625 L 19.871094 14.890625 L 19.121094 14.890625 L 19.121094 15.640625 " fill-opacity="1" fill-rule="nonzero"/><path fill="#935f3d" d="M 14.625 8.777344 L 18.40625 10.808594 L 14.625 13.425781 Z M 13.875 7.519531 L 13.875 14.855469 L 19.835938 10.730469 L 13.875 7.519531 " fill-opacity="1" fill-rule="nonzero"/></svg>