<svg xmlns="http://www.w3.org/2000/svg" xmlns:xlink="http://www.w3.org/1999/xlink" width="40" zoomAndPan="magnify" viewBox="0 0 30 30.000001" height="40" preserveAspectRatio="xMidYMid meet" version="1.0"><defs><clipPath id="03d0950ce3"><path d="M 0.484375 0 L 29.515625 0 L 29.515625 29.03125 L 0.484375 29.03125 Z M 0.484375 0 " clip-rule="nonzero"/></clipPath><clipPath id="5cb28f25d7"><path d="M 3.386719 19 L 13 19 L 13 24.359375 L 3.386719 24.359375 Z M 3.386719 19 " clip-rule="nonzero"/></clipPath><clipPath id="8bfd695d3b"><path d="M 17 19 L 26.613281 19 L 26.613281 24.359375 L 17 24.359375 Z M 17 19 " clip-rule="nonzero"/></clipPath><clipPath id="867fdfd720"><path d="M 12 4.761719 L 18 4.761719 L 18 10 L 12 10 Z M 12 4.761719 " clip-rule="nonzero"/></clipPath></defs><g clip-path="url(#03d0950ce3)"><path fill="#ffffff" d="M 0.484375 0 L 29.515625 0 L 29.515625 29.03125 L 0.484375 29.03125 Z M 0.484375 0 " fill-opacity="1" fill-rule="nonzero"/><path fill="#ffffff" d="M 0.484375 0 L 29.515625 0 L 29.515625 29.03125 L 0.484375 29.03125 Z M 0.484375 0 " fill-opacity="1" fill-rule="nonzero"/></g><path fill="#935f3d" d="M 19.796875 11.894531 C 19.796875 10.960938 19.246094 10.125 18.398438 9.757812 C 18.132812 9.644531 17.855469 9.546875 17.574219 9.460938 C 16.949219 10.183594 16.027344 10.644531 15 10.644531 C 13.972656 10.644531 13.046875 10.183594 12.421875 9.460938 C 12.144531 9.546875 11.867188 9.644531 11.601562 9.757812 C 10.75 10.125 10.199219 10.960938 10.199219 11.894531 L 10.199219 13.738281 L 19.796875 13.738281 Z M 19.796875 11.894531 " fill-opacity="1" fill-rule="nonzero"/><g clip-path="url(#5cb28f25d7)"><path fill="#935f3d" d="M 11.585938 20.285156 C 11.320312 20.171875 11.042969 20.074219 10.765625 19.988281 C 10.136719 20.710938 9.214844 21.171875 8.1875 21.171875 C 7.160156 21.171875 6.238281 20.710938 5.613281 19.988281 C 5.332031 20.074219 5.054688 20.171875 4.789062 20.285156 C 3.941406 20.648438 3.386719 21.484375 3.386719 22.421875 L 3.386719 24.265625 L 12.988281 24.265625 L 12.988281 22.421875 C 12.988281 21.484375 12.4375 20.648438 11.585938 20.285156 Z M 11.585938 20.285156 " fill-opacity="1" fill-rule="nonzero"/></g><g clip-path="url(#8bfd695d3b)"><path fill="#935f3d" d="M 25.210938 20.285156 C 24.945312 20.171875 24.664062 20.074219 24.386719 19.988281 C 23.761719 20.710938 22.839844 21.171875 21.8125 21.171875 C 20.78125 21.171875 19.859375 20.710938 19.234375 19.988281 C 18.957031 20.074219 18.675781 20.171875 18.410156 20.285156 C 17.5625 20.648438 17.011719 21.484375 17.011719 22.421875 L 17.011719 24.265625 L 26.609375 24.265625 L 26.609375 22.421875 C 26.609375 21.484375 26.058594 20.648438 25.210938 20.285156 Z M 25.210938 20.285156 " fill-opacity="1" fill-rule="nonzero"/></g><g clip-path="url(#867fdfd720)"><path fill="#935f3d" d="M 17.476562 7.238281 C 17.476562 7.566406 17.414062 7.882812 17.289062 8.183594 C 17.160156 8.488281 16.984375 8.757812 16.75 8.988281 C 16.519531 9.222656 16.25 9.398438 15.945312 9.527344 C 15.644531 9.652344 15.328125 9.714844 15 9.714844 C 14.671875 9.714844 14.355469 9.652344 14.050781 9.527344 C 13.746094 9.398438 13.480469 9.222656 13.246094 8.988281 C 13.015625 8.757812 12.835938 8.488281 12.710938 8.183594 C 12.585938 7.882812 12.523438 7.566406 12.523438 7.238281 C 12.523438 6.910156 12.585938 6.59375 12.710938 6.289062 C 12.835938 5.984375 13.015625 5.71875 13.246094 5.484375 C 13.480469 5.253906 13.746094 5.074219 14.050781 4.949219 C 14.355469 4.824219 14.671875 4.761719 15 4.761719 C 15.328125 4.761719 15.644531 4.824219 15.945312 4.949219 C 16.25 5.074219 16.519531 5.253906 16.75 5.484375 C 16.984375 5.71875 17.160156 5.984375 17.289062 6.289062 C 17.414062 6.59375 17.476562 6.910156 17.476562 7.238281 Z M 17.476562 7.238281 " fill-opacity="1" fill-rule="nonzero"/></g><path fill="#935f3d" d="M 10.664062 17.765625 C 10.664062 18.09375 10.601562 18.410156 10.476562 18.710938 C 10.351562 19.015625 10.171875 19.285156 9.9375 19.515625 C 9.707031 19.75 9.4375 19.925781 9.136719 20.054688 C 8.832031 20.179688 8.515625 20.242188 8.1875 20.242188 C 7.859375 20.242188 7.542969 20.179688 7.238281 20.054688 C 6.9375 19.925781 6.667969 19.75 6.4375 19.515625 C 6.203125 19.285156 6.023438 19.015625 5.898438 18.710938 C 5.773438 18.410156 5.710938 18.09375 5.710938 17.765625 C 5.710938 17.4375 5.773438 17.121094 5.898438 16.816406 C 6.023438 16.511719 6.203125 16.246094 6.4375 16.011719 C 6.667969 15.78125 6.9375 15.601562 7.238281 15.476562 C 7.542969 15.351562 7.859375 15.289062 8.1875 15.289062 C 8.515625 15.289062 8.832031 15.351562 9.136719 15.476562 C 9.4375 15.601562 9.707031 15.78125 9.9375 16.011719 C 10.171875 16.246094 10.351562 16.511719 10.476562 16.816406 C 10.601562 17.121094 10.664062 17.4375 10.664062 17.765625 Z M 10.664062 17.765625 " fill-opacity="1" fill-rule="nonzero"/><path fill="#935f3d" d="M 24.289062 17.765625 C 24.289062 18.09375 24.226562 18.410156 24.097656 18.710938 C 23.972656 19.015625 23.792969 19.285156 23.5625 19.515625 C 23.332031 19.75 23.0625 19.925781 22.757812 20.054688 C 22.457031 20.179688 22.140625 20.242188 21.8125 20.242188 C 21.484375 20.242188 21.167969 20.179688 20.863281 20.054688 C 20.558594 19.925781 20.292969 19.75 20.058594 19.515625 C 19.828125 19.285156 19.648438 19.015625 19.523438 18.710938 C 19.398438 18.410156 19.335938 18.09375 19.335938 17.765625 C 19.335938 17.4375 19.398438 17.121094 19.523438 16.816406 C 19.648438 16.511719 19.828125 16.246094 20.058594 16.011719 C 20.292969 15.78125 20.558594 15.601562 20.863281 15.476562 C 21.167969 15.351562 21.484375 15.289062 21.8125 15.289062 C 22.140625 15.289062 22.457031 15.351562 22.757812 15.476562 C 23.0625 15.601562 23.332031 15.78125 23.5625 16.011719 C 23.792969 16.246094 23.972656 16.511719 24.097656 16.816406 C 24.226562 17.121094 24.289062 17.4375 24.289062 17.765625 Z M 24.289062 17.765625 " fill-opacity="1" fill-rule="nonzero"/><path fill="#935f3d" d="M 17.753906 18.476562 L 15.464844 16.757812 L 15.464844 14.511719 L 14.535156 14.511719 L 14.535156 16.757812 L 12.242188 18.476562 L 12.800781 19.21875 L 15 17.570312 L 17.199219 19.21875 Z M 17.753906 18.476562 " fill-opacity="1" fill-rule="nonzero"/></svg>