<svg xmlns="http://www.w3.org/2000/svg" xmlns:xlink="http://www.w3.org/1999/xlink" width="40" zoomAndPan="magnify" viewBox="0 0 30 30.000001" height="40" preserveAspectRatio="xMidYMid meet" version="1.0"><defs><clipPath id="ee087612ac"><path d="M 0.484375 0 L 29.515625 0 L 29.515625 29.03125 L 0.484375 29.03125 Z M 0.484375 0 " clip-rule="nonzero"/></clipPath><clipPath id="dd169d5a07"><path d="M 3.386719 2.902344 L 26.613281 2.902344 L 26.613281 26.128906 L 3.386719 26.128906 Z M 3.386719 2.902344 " clip-rule="nonzero"/></clipPath></defs><g clip-path="url(#ee087612ac)"><path fill="#ffffff" d="M 0.484375 0 L 29.515625 0 L 29.515625 29.03125 L 0.484375 29.03125 Z M 0.484375 0 " fill-opacity="1" fill-rule="nonzero"/><path fill="#ffffff" d="M 0.484375 0 L 29.515625 0 L 29.515625 29.03125 L 0.484375 29.03125 Z M 0.484375 0 " fill-opacity="1" fill-rule="nonzero"/></g><g clip-path="url(#dd169d5a07)"><path fill="#935f3d" d="M 17.535156 11.925781 C 20.167969 11.925781 22.304688 14.058594 22.304688 16.695312 C 22.304688 19.328125 20.167969 21.464844 17.535156 21.464844 C 14.902344 21.464844 12.765625 19.328125 12.765625 16.695312 C 12.765625 14.058594 14.902344 11.925781 17.535156 11.925781 Z M 21.167969 20.835938 L 22.097656 21.746094 L 22.046875 21.800781 C 21.878906 21.96875 21.882812 22.246094 22.054688 22.414062 L 24.675781 24.953125 C 24.847656 25.121094 25.121094 25.117188 25.289062 24.945312 L 26.234375 23.96875 C 26.398438 23.800781 26.394531 23.523438 26.226562 23.355469 L 23.605469 20.816406 C 23.433594 20.648438 23.15625 20.652344 22.992188 20.824219 L 22.933594 20.882812 L 21.980469 19.949219 C 21.742188 20.273438 21.46875 20.570312 21.167969 20.835938 Z M 7.859375 3.046875 C 5.359375 3.238281 3.386719 5.328125 3.386719 7.878906 C 3.386719 10.554688 5.554688 12.722656 8.230469 12.722656 C 8.984375 12.722656 9.695312 12.550781 10.328125 12.246094 L 7.925781 8.085938 C 7.882812 8.027344 7.859375 7.953125 7.859375 7.878906 Z M 19.078125 21.984375 L 19.078125 25.539062 C 19.078125 25.792969 18.867188 26.003906 18.613281 26.003906 C 18.101562 26.003906 17.589844 26.003906 17.074219 26.003906 C 16.820312 26.003906 16.613281 25.792969 16.613281 25.539062 L 16.613281 22.128906 C 16.914062 22.179688 17.21875 22.203125 17.535156 22.203125 C 18.070312 22.203125 18.585938 22.128906 19.078125 21.984375 Z M 19.1875 5.199219 C 18.984375 5.199219 18.820312 5.03125 18.820312 4.828125 C 18.820312 4.621094 18.984375 4.457031 19.1875 4.457031 L 22.773438 4.457031 C 22.976562 4.457031 23.144531 4.621094 23.144531 4.828125 C 23.144531 5.03125 22.976562 5.199219 22.773438 5.199219 Z M 15.890625 10.558594 L 17.140625 10.558594 C 17.425781 10.558594 17.660156 10.792969 17.660156 11.078125 L 17.660156 11.183594 C 17.621094 11.183594 17.578125 11.183594 17.535156 11.183594 C 16.765625 11.183594 16.035156 11.339844 15.371094 11.625 L 15.371094 11.078125 C 15.371094 10.792969 15.605469 10.558594 15.890625 10.558594 Z M 20.59375 12.109375 C 20.914062 12.324219 21.214844 12.574219 21.484375 12.851562 L 22.773438 12.851562 C 22.976562 12.851562 23.144531 12.683594 23.144531 12.480469 C 23.144531 12.273438 22.976562 12.109375 22.773438 12.109375 Z M 19.1875 11.296875 C 18.984375 11.296875 18.820312 11.132812 18.820312 10.929688 C 18.820312 10.722656 18.984375 10.558594 19.1875 10.558594 L 26.355469 10.558594 C 26.558594 10.558594 26.726562 10.722656 26.726562 10.929688 C 26.726562 11.132812 26.558594 11.296875 26.355469 11.296875 Z M 15.890625 6.730469 L 17.140625 6.730469 C 17.425781 6.730469 17.660156 6.964844 17.660156 7.253906 L 17.660156 8.503906 C 17.660156 8.789062 17.425781 9.023438 17.140625 9.023438 L 15.890625 9.023438 C 15.605469 9.023438 15.371094 8.789062 15.371094 8.503906 L 15.371094 7.253906 C 15.371094 6.964844 15.605469 6.730469 15.890625 6.730469 Z M 19.1875 9.023438 C 18.984375 9.023438 18.820312 8.859375 18.820312 8.652344 C 18.820312 8.449219 18.984375 8.28125 19.1875 8.28125 L 22.773438 8.28125 C 22.976562 8.28125 23.144531 8.449219 23.144531 8.652344 C 23.144531 8.859375 22.976562 9.023438 22.773438 9.023438 Z M 19.1875 7.472656 C 18.984375 7.472656 18.820312 7.304688 18.820312 7.101562 C 18.820312 6.898438 18.984375 6.730469 19.1875 6.730469 L 26.355469 6.730469 C 26.558594 6.730469 26.726562 6.898438 26.726562 7.101562 C 26.726562 7.304688 26.558594 7.472656 26.355469 7.472656 Z M 15.890625 2.90625 L 17.140625 2.90625 C 17.425781 2.90625 17.660156 3.140625 17.660156 3.425781 L 17.660156 4.675781 C 17.660156 4.964844 17.425781 5.199219 17.140625 5.199219 L 15.890625 5.199219 C 15.605469 5.199219 15.371094 4.964844 15.371094 4.675781 L 15.371094 3.425781 C 15.371094 3.140625 15.605469 2.90625 15.890625 2.90625 Z M 19.1875 3.644531 C 18.984375 3.644531 18.820312 3.480469 18.820312 3.277344 C 18.820312 3.070312 18.984375 2.90625 19.1875 2.90625 L 26.355469 2.90625 C 26.558594 2.90625 26.726562 3.070312 26.726562 3.277344 C 26.726562 3.480469 26.558594 3.644531 26.355469 3.644531 Z M 14.605469 21.363281 C 13.648438 20.761719 12.890625 19.875 12.449219 18.820312 C 12.269531 18.882812 12.140625 19.054688 12.140625 19.257812 C 12.140625 21.351562 12.140625 23.445312 12.140625 25.539062 C 12.140625 25.792969 12.347656 26.003906 12.601562 26.003906 C 13.117188 26.003906 13.628906 26.003906 14.140625 26.003906 C 14.394531 26.003906 14.605469 25.792969 14.605469 25.539062 Z M 8.128906 15.382812 C 8.644531 15.382812 9.15625 15.382812 9.667969 15.382812 C 9.921875 15.382812 10.132812 15.589844 10.132812 15.84375 C 10.132812 19.074219 10.132812 22.308594 10.132812 25.539062 C 10.132812 25.792969 9.921875 26.003906 9.667969 26.003906 C 9.15625 26.003906 8.644531 26.003906 8.128906 26.003906 C 7.875 26.003906 7.667969 25.792969 7.667969 25.539062 C 7.667969 22.308594 7.667969 19.074219 7.667969 15.84375 C 7.667969 15.589844 7.875 15.382812 8.128906 15.382812 Z M 3.851562 17.542969 C 4.363281 17.542969 4.875 17.542969 5.386719 17.542969 C 5.644531 17.542969 5.851562 17.753906 5.851562 18.007812 C 5.851562 20.519531 5.851562 23.027344 5.851562 25.539062 C 5.851562 25.792969 5.644531 26.003906 5.386719 26.003906 C 4.875 26.003906 4.363281 26.003906 3.851562 26.003906 C 3.59375 26.003906 3.386719 25.792969 3.386719 25.539062 C 3.386719 23.027344 3.386719 20.519531 3.386719 18.007812 C 3.386719 17.753906 3.59375 17.542969 3.851562 17.542969 Z M 10.96875 11.875 L 8.871094 8.25 L 13.0625 8.25 C 12.949219 9.753906 12.144531 11.066406 10.96875 11.875 Z M 13.0625 7.507812 L 8.601562 7.507812 L 8.601562 3.046875 C 10.980469 3.226562 12.882812 5.128906 13.0625 7.507812 Z M 17.535156 13.589844 C 16.679688 13.589844 15.902344 13.9375 15.339844 14.5 C 14.78125 15.0625 14.433594 15.835938 14.433594 16.695312 C 14.433594 17.484375 14.726562 18.203125 15.210938 18.75 C 15.515625 17.753906 16.441406 17.027344 17.535156 17.027344 C 18.628906 17.027344 19.554688 17.753906 19.855469 18.75 C 20.34375 18.203125 20.636719 17.484375 20.636719 16.695312 C 20.636719 15.835938 20.289062 15.0625 19.730469 14.5 C 19.167969 13.9375 18.390625 13.589844 17.535156 13.589844 Z M 17.535156 14.394531 C 16.859375 14.394531 16.308594 14.941406 16.308594 15.621094 C 16.308594 16.296875 16.859375 16.84375 17.535156 16.84375 C 18.210938 16.84375 18.761719 16.296875 18.761719 15.621094 C 18.761719 14.941406 18.210938 14.394531 17.535156 14.394531 Z M 14.816406 13.976562 C 14.121094 14.671875 13.691406 15.632812 13.691406 16.695312 C 13.691406 17.753906 14.121094 18.714844 14.816406 19.410156 C 15.511719 20.105469 16.472656 20.539062 17.535156 20.539062 C 18.597656 20.539062 19.558594 20.105469 20.253906 19.410156 C 20.949219 18.714844 21.378906 17.753906 21.378906 16.695312 C 21.378906 15.632812 20.949219 14.671875 20.253906 13.976562 C 19.558594 13.28125 18.597656 12.851562 17.535156 12.851562 C 16.472656 12.851562 15.511719 13.28125 14.816406 13.976562 Z M 14.816406 13.976562 " fill-opacity="1" fill-rule="evenodd"/></g></svg>