<svg xmlns="http://www.w3.org/2000/svg" xmlns:xlink="http://www.w3.org/1999/xlink" width="40" zoomAndPan="magnify" viewBox="0 0 30 30.000001" height="40" preserveAspectRatio="xMidYMid meet" version="1.0"><defs><clipPath id="5c0985a7f3"><path d="M 0.484375 0 L 29.515625 0 L 29.515625 29.03125 L 0.484375 29.03125 Z M 0.484375 0 " clip-rule="nonzero"/></clipPath><clipPath id="7c08886ab8"><path d="M 10 10 L 26 10 L 26 26.480469 L 10 26.480469 Z M 10 10 " clip-rule="nonzero"/></clipPath></defs><g clip-path="url(#5c0985a7f3)"><path fill="#ffffff" d="M 0.484375 0 L 29.515625 0 L 29.515625 29.03125 L 0.484375 29.03125 Z M 0.484375 0 " fill-opacity="1" fill-rule="nonzero"/><path fill="#ffffff" d="M 0.484375 0 L 29.515625 0 L 29.515625 29.03125 L 0.484375 29.03125 Z M 0.484375 0 " fill-opacity="1" fill-rule="nonzero"/></g><path fill="#935f3d" d="M 14.144531 9.15625 C 14.066406 9.023438 13.898438 8.976562 13.765625 9.054688 L 13.089844 9.4375 C 12.867188 9.265625 12.625 9.125 12.363281 9.023438 L 12.363281 8.265625 C 12.363281 8.109375 12.238281 7.984375 12.082031 7.984375 L 10.441406 7.984375 C 10.289062 7.984375 10.164062 8.109375 10.164062 8.265625 L 10.164062 9.023438 C 9.902344 9.125 9.660156 9.265625 9.4375 9.4375 L 8.761719 9.054688 C 8.628906 8.976562 8.457031 9.023438 8.378906 9.15625 L 7.558594 10.554688 C 7.523438 10.617188 7.511719 10.695312 7.53125 10.769531 C 7.550781 10.839844 7.597656 10.902344 7.664062 10.941406 L 8.335938 11.320312 C 8.292969 11.59375 8.292969 11.863281 8.335938 12.140625 C 8.335938 12.140625 7.664062 12.519531 7.664062 12.519531 C 7.53125 12.59375 7.480469 12.777344 7.558594 12.90625 C 7.558594 12.90625 8.378906 14.304688 8.378906 14.304688 C 8.457031 14.4375 8.628906 14.480469 8.761719 14.40625 C 8.761719 14.40625 9.4375 14.019531 9.4375 14.019531 C 9.660156 14.195312 9.902344 14.332031 10.164062 14.4375 L 10.164062 15.195312 C 10.164062 15.351562 10.289062 15.476562 10.441406 15.476562 L 12.082031 15.476562 C 12.238281 15.476562 12.363281 15.351562 12.363281 15.195312 L 12.363281 14.4375 C 12.625 14.332031 12.867188 14.195312 13.089844 14.019531 L 13.765625 14.40625 C 13.898438 14.480469 14.066406 14.4375 14.144531 14.304688 L 14.964844 12.90625 C 15.003906 12.839844 15.015625 12.765625 14.996094 12.691406 C 14.976562 12.617188 14.929688 12.558594 14.863281 12.519531 C 14.863281 12.519531 14.191406 12.140625 14.191406 12.140625 C 14.230469 11.867188 14.230469 11.59375 14.191406 11.320312 C 14.191406 11.320312 14.863281 10.941406 14.863281 10.941406 C 14.996094 10.867188 15.046875 10.683594 14.964844 10.554688 C 14.964844 10.554688 14.144531 9.15625 14.144531 9.15625 Z M 13.742188 10.929688 C 13.460938 11.105469 13.703125 11.472656 13.660156 11.730469 C 13.703125 11.988281 13.460938 12.355469 13.742188 12.527344 C 13.742188 12.527344 14.339844 12.867188 14.339844 12.867188 C 14.339844 12.867188 13.800781 13.78125 13.800781 13.78125 L 13.195312 13.4375 C 13.09375 13.378906 12.960938 13.390625 12.871094 13.472656 C 12.613281 13.699219 12.320312 13.867188 12 13.96875 C 11.882812 14.007812 11.804688 14.117188 11.804688 14.238281 L 11.804688 14.914062 L 10.722656 14.914062 L 10.722656 14.238281 C 10.722656 14.117188 10.644531 14.007812 10.527344 13.96875 C 10.207031 13.867188 9.910156 13.699219 9.65625 13.472656 C 9.566406 13.390625 9.433594 13.378906 9.328125 13.4375 L 8.722656 13.78125 L 8.1875 12.867188 L 8.785156 12.527344 C 8.890625 12.46875 8.945312 12.34375 8.917969 12.226562 C 8.847656 11.890625 8.847656 11.566406 8.917969 11.234375 C 8.945312 11.113281 8.890625 10.992188 8.785156 10.929688 L 8.1875 10.59375 C 8.1875 10.59375 8.722656 9.679688 8.722656 9.679688 L 9.328125 10.023438 C 9.433594 10.082031 9.566406 10.066406 9.65625 9.988281 C 9.910156 9.757812 10.207031 9.589844 10.527344 9.488281 C 10.644531 9.453125 10.722656 9.34375 10.722656 9.222656 L 10.722656 8.542969 L 11.804688 8.542969 L 11.804688 9.222656 C 11.804688 9.34375 11.882812 9.453125 12 9.488281 C 12.320312 9.589844 12.613281 9.757812 12.871094 9.988281 C 12.960938 10.066406 13.09375 10.082031 13.195312 10.023438 C 13.195312 10.023438 13.800781 9.679688 13.800781 9.679688 C 13.800781 9.679688 14.339844 10.59375 14.339844 10.59375 Z M 13.742188 10.929688 " fill-opacity="1" fill-rule="nonzero"/><path fill="#935f3d" d="M 11.261719 10.199219 C 9.222656 10.265625 9.222656 13.195312 11.261719 13.257812 C 13.304688 13.195312 13.304688 10.265625 11.261719 10.199219 Z M 11.261719 12.699219 C 9.96875 12.664062 9.96875 10.796875 11.261719 10.761719 C 12.558594 10.796875 12.558594 12.664062 11.261719 12.699219 Z M 11.261719 12.699219 " fill-opacity="1" fill-rule="nonzero"/><path fill="#935f3d" d="M 13.972656 22.269531 C 13.886719 22.332031 13.777344 22.371094 13.671875 22.371094 L 8.171875 22.371094 C 7.886719 22.371094 7.65625 22.140625 7.65625 21.859375 C 7.613281 21.511719 7.800781 21.179688 8.175781 21.175781 C 8.175781 21.175781 11.53125 21.175781 11.53125 21.175781 C 11.6875 21.175781 11.8125 21.050781 11.8125 20.894531 C 11.8125 20.742188 11.6875 20.617188 11.53125 20.617188 L 8.175781 20.617188 C 7.804688 20.613281 7.613281 20.285156 7.65625 19.941406 C 7.65625 19.65625 7.886719 19.425781 8.171875 19.425781 L 10.269531 19.425781 C 10.636719 19.425781 10.636719 18.867188 10.269531 18.867188 C 10.269531 18.867188 8.453125 18.867188 8.453125 18.867188 C 8.453125 18.867188 8.453125 18.074219 8.453125 18.074219 C 8.453125 16.835938 7.964844 15.679688 7.109375 14.914062 C 3.386719 11.578125 5.777344 5.496094 10.746094 5.335938 C 13.503906 5.253906 15.894531 7.105469 16.441406 9.730469 C 16.523438 10.09375 17.058594 9.972656 16.988281 9.613281 C 15.332031 2.53125 4.984375 3.550781 4.722656 10.816406 C 4.710938 12.523438 5.445312 14.171875 6.734375 15.328125 C 7.46875 15.992188 7.890625 16.992188 7.890625 18.074219 L 7.890625 18.90625 C 7.371094 19.039062 7.042969 19.554688 7.09375 20.101562 C 7.09375 20.417969 7.234375 20.699219 7.457031 20.894531 C 7.1875 21.125 7.066406 21.496094 7.09375 21.859375 C 7.09375 22.449219 7.578125 22.929688 8.171875 22.929688 L 8.84375 22.929688 L 9.039062 23.90625 C 9.214844 24.789062 10.007812 25.429688 10.921875 25.429688 C 11.839844 25.429688 12.628906 24.789062 12.808594 23.90625 L 13 22.929688 C 13.390625 22.914062 13.988281 23.007812 14.308594 22.71875 C 14.601562 22.496094 14.269531 22.050781 13.972656 22.269531 Z M 12.257812 23.792969 C 11.964844 25.210938 9.878906 25.210938 9.589844 23.792969 C 9.589844 23.792969 9.417969 22.933594 9.417969 22.933594 L 12.429688 22.933594 Z M 12.257812 23.792969 " fill-opacity="1" fill-rule="nonzero"/><path fill="#935f3d" d="M 11.691406 15.851562 C 11.523438 15.839844 11.40625 15.96875 11.402344 16.125 C 11.371094 17.449219 11.867188 18.691406 12.804688 19.621094 C 15.796875 22.613281 21.027344 20.480469 21.011719 16.238281 C 21.082031 13.167969 17.941406 10.78125 14.992188 11.605469 C 14.636719 11.703125 14.777344 12.238281 15.132812 12.152344 C 16.585938 11.773438 18.148438 12.195312 19.210938 13.246094 C 20.851562 14.820312 20.855469 17.652344 19.210938 19.222656 C 17.554688 20.871094 14.859375 20.875 13.203125 19.222656 C 12.375 18.402344 11.933594 17.308594 11.964844 16.136719 C 11.96875 15.984375 11.847656 15.855469 11.691406 15.851562 Z M 11.691406 15.851562 " fill-opacity="1" fill-rule="nonzero"/><g clip-path="url(#7c08886ab8)"><path fill="#935f3d" d="M 25.511719 24.148438 L 21.039062 19.691406 C 22.734375 17.347656 22.488281 14.105469 20.417969 12.042969 C 19.179688 10.8125 17.472656 10.1875 15.730469 10.324219 C 15.578125 10.335938 15.460938 10.472656 15.472656 10.625 C 15.484375 10.78125 15.625 10.894531 15.777344 10.882812 C 17.351562 10.757812 18.898438 11.324219 20.019531 12.441406 C 22.402344 14.738281 22.015625 18.839844 19.257812 20.664062 C 15.714844 23.128906 10.691406 20.476562 10.8125 16.136719 C 10.816406 15.773438 10.273438 15.753906 10.25 16.125 C 10.121094 20.808594 15.449219 23.769531 19.375 21.253906 C 19.375 21.253906 23.898438 25.757812 23.898438 25.757812 C 24.125 25.980469 24.417969 26.089844 24.710938 26.089844 C 25.691406 26.117188 26.242188 24.832031 25.511719 24.148438 Z M 25.117188 25.363281 C 24.890625 25.585938 24.523438 25.585938 24.296875 25.359375 L 19.84375 20.925781 C 20.042969 20.773438 20.238281 20.613281 20.417969 20.433594 C 20.519531 20.328125 20.613281 20.230469 20.691406 20.140625 L 25.117188 24.542969 C 25.34375 24.761719 25.34375 25.144531 25.117188 25.363281 Z M 25.117188 25.363281 " fill-opacity="1" fill-rule="nonzero"/></g><path fill="#935f3d" d="M 14.722656 16.160156 L 13.722656 16.160156 C 13.566406 16.160156 13.441406 16.285156 13.441406 16.4375 L 13.441406 17.671875 L 13.191406 17.671875 C 12.824219 17.671875 12.820312 18.230469 13.191406 18.230469 C 14.625 18.230469 16.25 18.230469 17.6875 18.230469 C 18.027344 18.226562 18.890625 18.234375 19.222656 18.230469 C 19.585938 18.230469 19.589844 17.671875 19.222656 17.671875 C 19.222656 17.671875 18.96875 17.671875 18.96875 17.671875 L 18.96875 14.523438 C 18.96875 14.367188 18.84375 14.242188 18.6875 14.242188 L 17.6875 14.242188 C 17.53125 14.242188 17.40625 14.367188 17.40625 14.523438 L 17.40625 17.671875 L 16.988281 17.671875 L 16.988281 15.464844 C 16.988281 15.308594 16.863281 15.183594 16.707031 15.183594 L 15.703125 15.183594 C 15.550781 15.183594 15.425781 15.308594 15.425781 15.464844 L 15.425781 17.671875 L 15.003906 17.671875 L 15.003906 16.4375 C 15.003906 16.285156 14.878906 16.160156 14.722656 16.160156 Z M 14.003906 17.671875 L 14.003906 16.71875 L 14.445312 16.71875 L 14.445312 17.671875 Z M 17.96875 14.804688 L 18.40625 14.804688 L 18.40625 17.671875 L 17.96875 17.671875 Z M 15.984375 15.746094 L 16.425781 15.746094 L 16.425781 17.671875 L 15.984375 17.671875 Z M 15.984375 15.746094 " fill-opacity="1" fill-rule="nonzero"/></svg>