<svg xmlns="http://www.w3.org/2000/svg" xmlns:xlink="http://www.w3.org/1999/xlink" width="40" zoomAndPan="magnify" viewBox="0 0 30 30.000001" height="40" preserveAspectRatio="xMidYMid meet" version="1.0"><defs><clipPath id="8eed327aba"><path d="M 0.484375 0 L 29.515625 0 L 29.515625 29.03125 L 0.484375 29.03125 Z M 0.484375 0 " clip-rule="nonzero"/></clipPath><clipPath id="0bc677df97"><path d="M 3.386719 6.316406 L 13 6.316406 L 13 16 L 3.386719 16 Z M 3.386719 6.316406 " clip-rule="nonzero"/></clipPath><clipPath id="a0143a2c05"><path d="M 7 6.316406 L 9 6.316406 L 9 10 L 7 10 Z M 7 6.316406 " clip-rule="nonzero"/></clipPath><clipPath id="ba6071d9f7"><path d="M 3.386719 11 L 7 11 L 7 14 L 3.386719 14 Z M 3.386719 11 " clip-rule="nonzero"/></clipPath><clipPath id="9af70abab6"><path d="M 24 6.316406 L 26.613281 6.316406 L 26.613281 9 L 24 9 Z M 24 6.316406 " clip-rule="nonzero"/></clipPath></defs><g clip-path="url(#8eed327aba)"><path fill="#ffffff" d="M 0.484375 0 L 29.515625 0 L 29.515625 29.03125 L 0.484375 29.03125 Z M 0.484375 0 " fill-opacity="1" fill-rule="nonzero"/><path fill="#ffffff" d="M 0.484375 0 L 29.515625 0 L 29.515625 29.03125 L 0.484375 29.03125 Z M 0.484375 0 " fill-opacity="1" fill-rule="nonzero"/></g><path fill="#935f3d" d="M 24.398438 22.707031 L 7.175781 22.707031 C 6.5625 22.707031 6.066406 22.207031 6.066406 21.59375 L 6.066406 15.09375 C 6.066406 14.949219 6.183594 14.832031 6.328125 14.832031 C 6.472656 14.832031 6.589844 14.949219 6.589844 15.09375 L 6.589844 21.59375 C 6.589844 21.917969 6.851562 22.179688 7.175781 22.179688 L 24.398438 22.179688 C 24.71875 22.179688 24.984375 21.917969 24.984375 21.59375 L 24.984375 10.886719 C 24.984375 10.5625 24.71875 10.300781 24.398438 10.300781 L 20.167969 10.300781 C 20.023438 10.300781 19.90625 10.183594 19.90625 10.039062 C 19.90625 9.894531 20.023438 9.777344 20.167969 9.777344 L 24.398438 9.777344 C 25.011719 9.777344 25.507812 10.273438 25.507812 10.886719 L 25.507812 21.59375 C 25.507812 22.207031 25.011719 22.707031 24.398438 22.707031 Z M 18.632812 10.300781 L 11.679688 10.300781 C 11.535156 10.300781 11.417969 10.183594 11.417969 10.039062 C 11.417969 9.894531 11.535156 9.777344 11.679688 9.777344 L 18.632812 9.777344 C 18.777344 9.777344 18.894531 9.894531 18.894531 10.039062 C 18.894531 10.183594 18.777344 10.300781 18.632812 10.300781 Z M 18.632812 10.300781 " fill-opacity="1" fill-rule="nonzero"/><g clip-path="url(#0bc677df97)"><path fill="#935f3d" d="M 7.753906 15.613281 C 5.347656 15.613281 3.386719 13.652344 3.386719 11.242188 C 3.386719 8.835938 5.347656 6.875 7.753906 6.875 C 10.164062 6.875 12.125 8.835938 12.125 11.242188 C 12.125 13.652344 10.164062 15.613281 7.753906 15.613281 Z M 7.753906 7.402344 C 5.636719 7.402344 3.914062 9.125 3.914062 11.242188 C 3.914062 13.363281 5.636719 15.085938 7.753906 15.085938 C 9.875 15.085938 11.597656 13.363281 11.597656 11.242188 C 11.597656 9.125 9.875 7.402344 7.753906 7.402344 Z M 7.753906 7.402344 " fill-opacity="1" fill-rule="nonzero"/></g><path fill="#935f3d" d="M 7.753906 13.203125 C 6.675781 13.203125 5.796875 12.324219 5.796875 11.242188 C 5.796875 10.164062 6.675781 9.285156 7.753906 9.285156 C 8.835938 9.285156 9.714844 10.164062 9.714844 11.242188 C 9.714844 12.324219 8.835938 13.203125 7.753906 13.203125 Z M 7.753906 9.8125 C 6.964844 9.8125 6.324219 10.453125 6.324219 11.242188 C 6.324219 12.035156 6.964844 12.675781 7.753906 12.675781 C 8.546875 12.675781 9.1875 12.035156 9.1875 11.242188 C 9.1875 10.453125 8.546875 9.8125 7.753906 9.8125 Z M 7.753906 9.8125 " fill-opacity="1" fill-rule="nonzero"/><g clip-path="url(#a0143a2c05)"><path fill="#935f3d" d="M 7.753906 9.8125 C 7.609375 9.8125 7.492188 9.691406 7.492188 9.546875 L 7.492188 7.140625 C 7.492188 6.992188 7.609375 6.875 7.753906 6.875 C 7.898438 6.875 8.019531 6.992188 8.019531 7.140625 L 8.019531 9.546875 C 8.019531 9.695312 7.898438 9.8125 7.753906 9.8125 Z M 7.753906 9.8125 " fill-opacity="1" fill-rule="nonzero"/></g><path fill="#935f3d" d="M 11.308594 13.558594 C 11.265625 13.558594 11.21875 13.546875 11.179688 13.523438 L 9.09375 12.320312 C 8.964844 12.246094 8.921875 12.085938 8.996094 11.960938 C 9.070312 11.835938 9.230469 11.792969 9.355469 11.863281 L 11.441406 13.070312 C 11.566406 13.140625 11.609375 13.300781 11.539062 13.425781 C 11.488281 13.511719 11.402344 13.558594 11.308594 13.558594 Z M 11.308594 13.558594 " fill-opacity="1" fill-rule="nonzero"/><g clip-path="url(#ba6071d9f7)"><path fill="#935f3d" d="M 4.199219 13.558594 C 4.109375 13.558594 4.023438 13.511719 3.972656 13.425781 C 3.902344 13.300781 3.945312 13.140625 4.070312 13.070312 L 6.15625 11.863281 C 6.28125 11.792969 6.441406 11.835938 6.515625 11.960938 C 6.585938 12.085938 6.542969 12.246094 6.417969 12.320312 L 4.332031 13.523438 C 4.289062 13.546875 4.246094 13.558594 4.199219 13.558594 Z M 4.199219 13.558594 " fill-opacity="1" fill-rule="nonzero"/></g><path fill="#935f3d" d="M 9.285156 21.753906 L 7.484375 21.753906 C 7.339844 21.753906 7.222656 21.636719 7.222656 21.488281 L 7.222656 17.214844 C 7.222656 16.890625 7.488281 16.628906 7.808594 16.628906 L 8.960938 16.628906 C 9.285156 16.628906 9.546875 16.890625 9.546875 17.214844 L 9.546875 21.488281 C 9.546875 21.636719 9.429688 21.753906 9.285156 21.753906 Z M 7.75 21.226562 L 9.023438 21.226562 L 9.023438 17.214844 C 9.023438 17.183594 8.996094 17.152344 8.960938 17.152344 L 7.8125 17.152344 C 7.777344 17.152344 7.75 17.183594 7.75 17.214844 Z M 7.75 21.226562 " fill-opacity="1" fill-rule="nonzero"/><path fill="#935f3d" d="M 11.933594 21.753906 L 10.136719 21.753906 C 9.988281 21.753906 9.871094 21.636719 9.871094 21.488281 L 9.871094 16.367188 C 9.871094 16.042969 10.136719 15.777344 10.460938 15.777344 L 11.609375 15.777344 C 11.933594 15.777344 12.195312 16.042969 12.195312 16.367188 L 12.195312 21.488281 C 12.199219 21.636719 12.078125 21.753906 11.933594 21.753906 Z M 10.398438 21.226562 L 11.671875 21.226562 L 11.671875 16.367188 C 11.671875 16.332031 11.644531 16.304688 11.609375 16.304688 L 10.460938 16.304688 C 10.425781 16.304688 10.398438 16.332031 10.398438 16.367188 Z M 10.398438 21.226562 " fill-opacity="1" fill-rule="nonzero"/><path fill="#935f3d" d="M 14.585938 21.753906 L 12.785156 21.753906 C 12.640625 21.753906 12.523438 21.636719 12.523438 21.488281 L 12.523438 15.359375 C 12.523438 15.035156 12.785156 14.773438 13.109375 14.773438 L 14.257812 14.773438 C 14.582031 14.773438 14.847656 15.035156 14.847656 15.359375 L 14.847656 21.488281 C 14.847656 21.636719 14.730469 21.753906 14.585938 21.753906 Z M 13.046875 21.226562 L 14.320312 21.226562 L 14.320312 15.359375 C 14.320312 15.324219 14.292969 15.296875 14.257812 15.296875 L 13.109375 15.296875 C 13.078125 15.296875 13.046875 15.324219 13.046875 15.359375 Z M 13.046875 21.226562 " fill-opacity="1" fill-rule="nonzero"/><path fill="#935f3d" d="M 24.28125 21.222656 L 21.832031 21.222656 C 21.6875 21.222656 21.570312 21.105469 21.570312 20.960938 C 21.570312 20.816406 21.6875 20.699219 21.832031 20.699219 L 24.28125 20.699219 C 24.425781 20.699219 24.542969 20.816406 24.542969 20.960938 C 24.542969 21.105469 24.425781 21.222656 24.28125 21.222656 Z M 20.234375 21.222656 L 15.835938 21.222656 C 15.6875 21.222656 15.570312 21.105469 15.570312 20.960938 C 15.570312 20.816406 15.6875 20.699219 15.835938 20.699219 L 20.234375 20.699219 C 20.378906 20.699219 20.496094 20.816406 20.496094 20.960938 C 20.496094 21.105469 20.378906 21.222656 20.234375 21.222656 Z M 20.234375 21.222656 " fill-opacity="1" fill-rule="nonzero"/><path fill="#935f3d" d="M 24.28125 19.425781 L 19.332031 19.425781 C 19.1875 19.425781 19.070312 19.308594 19.070312 19.160156 C 19.070312 19.015625 19.1875 18.898438 19.332031 18.898438 L 24.28125 18.898438 C 24.425781 18.898438 24.542969 19.015625 24.542969 19.160156 C 24.542969 19.308594 24.425781 19.425781 24.28125 19.425781 Z M 17.234375 19.425781 L 15.832031 19.425781 C 15.6875 19.425781 15.570312 19.308594 15.570312 19.160156 C 15.570312 19.015625 15.6875 18.898438 15.832031 18.898438 L 17.234375 18.898438 C 17.378906 18.898438 17.496094 19.015625 17.496094 19.160156 C 17.496094 19.308594 17.378906 19.425781 17.234375 19.425781 Z M 17.234375 19.425781 " fill-opacity="1" fill-rule="nonzero"/><path fill="#935f3d" d="M 24.28125 17.625 L 22.234375 17.625 C 22.085938 17.625 21.96875 17.507812 21.96875 17.363281 C 21.96875 17.21875 22.085938 17.097656 22.234375 17.097656 L 24.28125 17.097656 C 24.425781 17.097656 24.542969 17.21875 24.542969 17.363281 C 24.542969 17.507812 24.425781 17.625 24.28125 17.625 Z M 20.132812 17.625 L 15.835938 17.625 C 15.6875 17.625 15.570312 17.507812 15.570312 17.363281 C 15.570312 17.21875 15.6875 17.097656 15.835938 17.097656 L 20.132812 17.097656 C 20.277344 17.097656 20.394531 17.21875 20.394531 17.363281 C 20.394531 17.507812 20.277344 17.625 20.132812 17.625 Z M 20.132812 17.625 " fill-opacity="1" fill-rule="nonzero"/><path fill="#935f3d" d="M 24.28125 15.824219 L 19.582031 15.824219 C 19.4375 15.824219 19.320312 15.707031 19.320312 15.5625 C 19.320312 15.417969 19.4375 15.300781 19.582031 15.300781 L 24.28125 15.300781 C 24.425781 15.300781 24.542969 15.417969 24.542969 15.5625 C 24.542969 15.707031 24.425781 15.824219 24.28125 15.824219 Z M 17.484375 15.824219 L 15.835938 15.824219 C 15.6875 15.824219 15.570312 15.707031 15.570312 15.5625 C 15.570312 15.417969 15.6875 15.300781 15.835938 15.300781 L 17.484375 15.300781 C 17.628906 15.300781 17.746094 15.417969 17.746094 15.5625 C 17.746094 15.707031 17.628906 15.824219 17.484375 15.824219 Z M 17.484375 15.824219 " fill-opacity="1" fill-rule="nonzero"/><path fill="#935f3d" d="M 16.886719 12.84375 C 16.820312 12.84375 16.757812 12.820312 16.707031 12.769531 C 16.601562 12.671875 16.597656 12.503906 16.695312 12.398438 L 18.675781 10.3125 C 18.777344 10.210938 18.945312 10.203125 19.046875 10.304688 C 19.152344 10.40625 19.15625 10.570312 19.058594 10.675781 L 17.078125 12.761719 C 17.027344 12.816406 16.957031 12.84375 16.886719 12.84375 Z M 21.695312 11.796875 C 21.628906 11.796875 21.566406 11.773438 21.515625 11.726562 C 21.40625 11.625 21.402344 11.460938 21.5 11.355469 L 24.855469 7.753906 C 24.953125 7.648438 25.121094 7.644531 25.226562 7.742188 C 25.332031 7.839844 25.339844 8.007812 25.238281 8.113281 L 21.886719 11.710938 C 21.832031 11.765625 21.765625 11.796875 21.695312 11.796875 Z M 20.675781 11.761719 C 20.601562 11.761719 20.523438 11.726562 20.472656 11.664062 L 19.6875 10.699219 C 19.59375 10.589844 19.613281 10.421875 19.722656 10.332031 C 19.835938 10.238281 20.003906 10.257812 20.09375 10.367188 L 20.878906 11.332031 C 20.972656 11.445312 20.953125 11.609375 20.839844 11.703125 C 20.792969 11.742188 20.734375 11.761719 20.675781 11.761719 Z M 20.675781 11.761719 " fill-opacity="1" fill-rule="nonzero"/><path fill="#935f3d" d="M 16.351562 14.179688 C 15.78125 14.179688 15.316406 13.714844 15.316406 13.140625 C 15.316406 12.570312 15.78125 12.105469 16.351562 12.105469 C 16.925781 12.105469 17.390625 12.570312 17.390625 13.140625 C 17.390625 13.714844 16.925781 14.179688 16.351562 14.179688 Z M 16.351562 12.628906 C 16.070312 12.628906 15.839844 12.859375 15.839844 13.140625 C 15.839844 13.425781 16.070312 13.65625 16.351562 13.65625 C 16.636719 13.65625 16.867188 13.425781 16.867188 13.140625 C 16.867188 12.859375 16.636719 12.628906 16.351562 12.628906 Z M 16.351562 12.628906 " fill-opacity="1" fill-rule="nonzero"/><path fill="#935f3d" d="M 19.402344 10.972656 C 18.828125 10.972656 18.363281 10.507812 18.363281 9.933594 C 18.363281 9.363281 18.828125 8.894531 19.402344 8.894531 C 19.972656 8.894531 20.4375 9.363281 20.4375 9.933594 C 20.4375 10.507812 19.972656 10.972656 19.402344 10.972656 Z M 19.402344 9.421875 C 19.117188 9.421875 18.886719 9.652344 18.886719 9.933594 C 18.886719 10.21875 19.117188 10.445312 19.402344 10.445312 C 19.683594 10.445312 19.914062 10.21875 19.914062 9.933594 C 19.914062 9.652344 19.683594 9.421875 19.402344 9.421875 Z M 19.402344 9.421875 " fill-opacity="1" fill-rule="nonzero"/><path fill="#935f3d" d="M 21.164062 13.136719 C 20.59375 13.136719 20.128906 12.671875 20.128906 12.097656 C 20.128906 11.527344 20.59375 11.0625 21.164062 11.0625 C 21.738281 11.0625 22.203125 11.527344 22.203125 12.097656 C 22.203125 12.671875 21.738281 13.136719 21.164062 13.136719 Z M 21.164062 11.585938 C 20.882812 11.585938 20.652344 11.816406 20.652344 12.101562 C 20.652344 12.382812 20.882812 12.613281 21.164062 12.613281 C 21.449219 12.613281 21.675781 12.382812 21.675781 12.101562 C 21.675781 11.816406 21.449219 11.585938 21.164062 11.585938 Z M 21.164062 11.585938 " fill-opacity="1" fill-rule="nonzero"/><g clip-path="url(#9af70abab6)"><path fill="#935f3d" d="M 25.574219 8.40625 C 25.003906 8.40625 24.539062 7.941406 24.539062 7.367188 C 24.539062 6.796875 25.003906 6.328125 25.574219 6.328125 C 26.148438 6.328125 26.613281 6.796875 26.613281 7.367188 C 26.613281 7.941406 26.148438 8.40625 25.574219 8.40625 Z M 25.574219 6.855469 C 25.292969 6.855469 25.0625 7.085938 25.0625 7.367188 C 25.0625 7.652344 25.292969 7.878906 25.574219 7.878906 C 25.859375 7.878906 26.089844 7.652344 26.089844 7.367188 C 26.089844 7.085938 25.859375 6.855469 25.574219 6.855469 Z M 25.574219 6.855469 " fill-opacity="1" fill-rule="nonzero"/></g></svg>