<svg xmlns="http://www.w3.org/2000/svg" xmlns:xlink="http://www.w3.org/1999/xlink" width="40" zoomAndPan="magnify" viewBox="0 0 30 30.000001" height="40" preserveAspectRatio="xMidYMid meet" version="1.0"><defs><clipPath id="4060ef0034"><path d="M 0.484375 0 L 29.515625 0 L 29.515625 29.03125 L 0.484375 29.03125 Z M 0.484375 0 " clip-rule="nonzero"/></clipPath><clipPath id="67172dfeb0"><path d="M 3.386719 2.902344 L 26.613281 2.902344 L 26.613281 26.128906 L 3.386719 26.128906 Z M 3.386719 2.902344 " clip-rule="nonzero"/></clipPath></defs><g clip-path="url(#4060ef0034)"><path fill="#ffffff" d="M 0.484375 0 L 29.515625 0 L 29.515625 29.03125 L 0.484375 29.03125 Z M 0.484375 0 " fill-opacity="1" fill-rule="nonzero"/><path fill="#ffffff" d="M 0.484375 0 L 29.515625 0 L 29.515625 29.03125 L 0.484375 29.03125 Z M 0.484375 0 " fill-opacity="1" fill-rule="nonzero"/></g><path fill="#935f3d" d="M 15 7.839844 C 14.5625 7.839844 14.128906 7.882812 13.699219 7.96875 C 13.265625 8.050781 12.851562 8.179688 12.445312 8.347656 C 12.039062 8.515625 11.65625 8.71875 11.289062 8.964844 C 10.925781 9.207031 10.589844 9.484375 10.277344 9.792969 C 9.96875 10.105469 9.691406 10.441406 9.449219 10.804688 C 9.203125 11.171875 9 11.554688 8.832031 11.960938 C 8.664062 12.367188 8.535156 12.785156 8.449219 13.214844 C 8.367188 13.644531 8.324219 14.078125 8.324219 14.515625 C 8.324219 14.953125 8.367188 15.390625 8.449219 15.820312 C 8.535156 16.25 8.664062 16.667969 8.832031 17.070312 C 9 17.476562 9.203125 17.863281 9.449219 18.226562 C 9.691406 18.589844 9.96875 18.929688 10.277344 19.238281 C 10.589844 19.546875 10.925781 19.824219 11.289062 20.066406 C 11.65625 20.3125 12.039062 20.515625 12.445312 20.683594 C 12.851562 20.851562 13.265625 20.980469 13.699219 21.066406 C 14.128906 21.152344 14.5625 21.195312 15 21.195312 C 15.4375 21.195312 15.871094 21.152344 16.300781 21.066406 C 16.734375 20.980469 17.148438 20.851562 17.554688 20.683594 C 17.960938 20.515625 18.34375 20.3125 18.710938 20.066406 C 19.074219 19.824219 19.410156 19.546875 19.722656 19.238281 C 20.03125 18.929688 20.308594 18.589844 20.550781 18.226562 C 20.796875 17.863281 21 17.476562 21.167969 17.070312 C 21.335938 16.667969 21.464844 16.25 21.550781 15.820312 C 21.632812 15.390625 21.675781 14.953125 21.675781 14.515625 C 21.675781 14.078125 21.632812 13.644531 21.546875 13.214844 C 21.460938 12.785156 21.335938 12.367188 21.167969 11.960938 C 21 11.558594 20.792969 11.171875 20.550781 10.808594 C 20.304688 10.445312 20.03125 10.105469 19.71875 9.796875 C 19.410156 9.488281 19.074219 9.210938 18.707031 8.964844 C 18.34375 8.722656 17.960938 8.515625 17.554688 8.347656 C 17.148438 8.179688 16.730469 8.054688 16.300781 7.96875 C 15.871094 7.882812 15.4375 7.839844 15 7.839844 Z M 18.691406 19.15625 C 18.691406 19.273438 18.652344 19.371094 18.570312 19.449219 C 18.488281 19.53125 18.390625 19.570312 18.277344 19.570312 L 11.722656 19.570312 C 11.609375 19.570312 11.511719 19.53125 11.429688 19.449219 C 11.347656 19.371094 11.308594 19.273438 11.308594 19.15625 L 11.308594 16.644531 C 11.308594 16.527344 11.347656 16.429688 11.429688 16.351562 C 11.511719 16.269531 11.609375 16.230469 11.722656 16.230469 L 18.277344 16.230469 C 18.390625 16.230469 18.488281 16.269531 18.570312 16.351562 C 18.652344 16.429688 18.691406 16.527344 18.691406 16.644531 Z M 16.347656 14.515625 C 16.347656 14.695312 16.3125 14.867188 16.246094 15.03125 C 16.175781 15.199219 16.078125 15.34375 15.953125 15.46875 C 15.828125 15.597656 15.679688 15.695312 15.515625 15.761719 C 15.351562 15.832031 15.179688 15.863281 15 15.863281 C 14.820312 15.863281 14.648438 15.832031 14.484375 15.761719 C 14.320312 15.695312 14.171875 15.597656 14.046875 15.46875 C 13.921875 15.34375 13.824219 15.199219 13.753906 15.03125 C 13.6875 14.867188 13.652344 14.695312 13.652344 14.515625 C 13.652344 14.335938 13.6875 14.164062 13.753906 14 C 13.824219 13.835938 13.921875 13.6875 14.046875 13.5625 C 14.171875 13.4375 14.320312 13.339844 14.484375 13.269531 C 14.648438 13.203125 14.820312 13.167969 15 13.167969 C 15.214844 13.167969 15.417969 13.21875 15.609375 13.320312 L 16.828125 12.101562 C 16.910156 12.019531 17.007812 11.980469 17.121094 11.984375 C 17.234375 11.984375 17.332031 12.023438 17.410156 12.105469 C 17.492188 12.183594 17.53125 12.28125 17.53125 12.394531 C 17.535156 12.507812 17.496094 12.605469 17.417969 12.6875 L 16.195312 13.90625 C 16.296875 14.097656 16.347656 14.300781 16.347656 14.515625 Z M 19.910156 14.929688 L 19.132812 14.929688 C 19.019531 14.929688 18.921875 14.890625 18.839844 14.808594 C 18.757812 14.726562 18.71875 14.628906 18.71875 14.515625 C 18.71875 14.402344 18.757812 14.304688 18.839844 14.222656 C 18.921875 14.140625 19.019531 14.101562 19.132812 14.101562 L 19.472656 14.101562 C 19.390625 13.175781 19.050781 12.359375 18.457031 11.644531 L 18.214844 11.886719 C 18.136719 11.96875 18.039062 12.011719 17.921875 12.011719 C 17.804688 12.015625 17.707031 11.972656 17.625 11.890625 C 17.542969 11.808594 17.5 11.710938 17.503906 11.59375 C 17.503906 11.480469 17.546875 11.378906 17.628906 11.300781 L 17.871094 11.058594 C 17.15625 10.464844 16.339844 10.125 15.414062 10.042969 L 15.414062 10.382812 C 15.414062 10.496094 15.375 10.59375 15.292969 10.675781 C 15.210938 10.757812 15.113281 10.796875 15 10.796875 C 14.886719 10.796875 14.789062 10.757812 14.707031 10.675781 C 14.625 10.59375 14.585938 10.496094 14.585938 10.382812 L 14.585938 10.042969 C 13.660156 10.125 12.84375 10.464844 12.128906 11.058594 L 12.371094 11.300781 C 12.453125 11.378906 12.496094 11.480469 12.496094 11.59375 C 12.5 11.710938 12.457031 11.808594 12.375 11.890625 C 12.292969 11.972656 12.195312 12.015625 12.078125 12.011719 C 11.960938 12.011719 11.863281 11.96875 11.785156 11.886719 L 11.542969 11.644531 C 10.949219 12.359375 10.609375 13.175781 10.527344 14.101562 L 10.867188 14.101562 C 10.980469 14.101562 11.078125 14.140625 11.160156 14.222656 C 11.242188 14.304688 11.28125 14.402344 11.28125 14.515625 C 11.28125 14.628906 11.242188 14.726562 11.160156 14.808594 C 11.078125 14.890625 10.980469 14.929688 10.867188 14.929688 L 10.089844 14.929688 C 9.976562 14.929688 9.878906 14.890625 9.796875 14.808594 C 9.714844 14.726562 9.675781 14.628906 9.675781 14.515625 C 9.675781 13.8125 9.808594 13.136719 10.078125 12.484375 C 10.347656 11.835938 10.730469 11.261719 11.226562 10.765625 C 11.230469 10.761719 11.230469 10.753906 11.234375 10.75 C 11.238281 10.746094 11.242188 10.746094 11.246094 10.742188 C 11.496094 10.496094 11.761719 10.277344 12.050781 10.082031 C 12.34375 9.890625 12.648438 9.726562 12.96875 9.59375 C 13.292969 9.460938 13.625 9.359375 13.964844 9.292969 C 14.308594 9.226562 14.652344 9.191406 15 9.191406 C 15.347656 9.191406 15.691406 9.226562 16.035156 9.292969 C 16.375 9.359375 16.707031 9.460938 17.03125 9.59375 C 17.351562 9.726562 17.65625 9.890625 17.949219 10.082031 C 18.238281 10.277344 18.503906 10.496094 18.753906 10.742188 C 18.757812 10.746094 18.761719 10.746094 18.765625 10.75 C 18.769531 10.753906 18.769531 10.761719 18.773438 10.765625 C 19.269531 11.261719 19.652344 11.835938 19.921875 12.484375 C 20.191406 13.136719 20.324219 13.8125 20.324219 14.515625 C 20.324219 14.628906 20.285156 14.726562 20.203125 14.808594 C 20.121094 14.890625 20.023438 14.929688 19.910156 14.929688 Z M 19.910156 14.929688 " fill-opacity="1" fill-rule="nonzero"/><path fill="#935f3d" d="M 12.136719 17.058594 L 17.863281 17.058594 L 17.863281 18.742188 L 12.136719 18.742188 Z M 12.136719 17.058594 " fill-opacity="1" fill-rule="nonzero"/><g clip-path="url(#67172dfeb0)"><path fill="#935f3d" d="M 26.28125 12.960938 C 25.652344 12.960938 25.074219 12.785156 24.550781 12.433594 C 24.027344 12.082031 23.644531 11.617188 23.402344 11.035156 C 23.160156 10.453125 23.101562 9.851562 23.226562 9.234375 C 23.347656 8.617188 23.632812 8.085938 24.078125 7.640625 C 24.140625 7.574219 24.171875 7.496094 24.171875 7.40625 C 24.171875 7.316406 24.140625 7.238281 24.078125 7.171875 L 22.34375 5.4375 C 22.277344 5.371094 22.199219 5.339844 22.109375 5.339844 C 22.019531 5.339844 21.941406 5.371094 21.875 5.4375 C 21.433594 5.890625 20.902344 6.175781 20.28125 6.300781 C 19.660156 6.421875 19.0625 6.359375 18.480469 6.113281 C 17.894531 5.875 17.425781 5.496094 17.074219 4.96875 C 16.722656 4.445312 16.550781 3.867188 16.558594 3.234375 C 16.558594 3.144531 16.523438 3.066406 16.460938 3 C 16.394531 2.9375 16.316406 2.902344 16.226562 2.902344 L 13.773438 2.902344 C 13.679688 2.902344 13.601562 2.9375 13.539062 3 C 13.472656 3.066406 13.441406 3.144531 13.441406 3.234375 C 13.449219 3.867188 13.277344 4.445312 12.925781 4.972656 C 12.574219 5.496094 12.105469 5.878906 11.515625 6.113281 C 10.9375 6.363281 10.335938 6.425781 9.714844 6.300781 C 9.09375 6.179688 8.5625 5.890625 8.121094 5.4375 C 8.058594 5.375 7.980469 5.34375 7.886719 5.34375 C 7.796875 5.34375 7.71875 5.375 7.65625 5.4375 L 5.917969 7.175781 C 5.855469 7.238281 5.824219 7.316406 5.824219 7.40625 C 5.824219 7.5 5.855469 7.578125 5.917969 7.640625 C 6.371094 8.082031 6.65625 8.613281 6.78125 9.234375 C 6.90625 9.855469 6.84375 10.457031 6.59375 11.035156 C 6.359375 11.621094 5.976562 12.089844 5.453125 12.441406 C 4.929688 12.792969 4.351562 12.964844 3.71875 12.960938 C 3.628906 12.960938 3.550781 12.992188 3.484375 13.054688 C 3.417969 13.121094 3.386719 13.199219 3.386719 13.289062 L 3.386719 15.746094 C 3.386719 15.835938 3.417969 15.914062 3.484375 15.980469 C 3.550781 16.042969 3.628906 16.078125 3.71875 16.078125 C 4.351562 16.070312 4.929688 16.242188 5.457031 16.59375 C 5.980469 16.945312 6.363281 17.414062 6.597656 18 C 6.847656 18.582031 6.910156 19.183594 6.785156 19.804688 C 6.660156 20.421875 6.375 20.953125 5.921875 21.394531 C 5.859375 21.460938 5.828125 21.539062 5.828125 21.628906 C 5.828125 21.722656 5.859375 21.796875 5.921875 21.863281 L 7.65625 23.597656 C 7.722656 23.660156 7.800781 23.691406 7.890625 23.691406 C 7.980469 23.691406 8.058594 23.660156 8.125 23.597656 C 8.722656 22.988281 9.453125 22.679688 10.308594 22.679688 C 10.730469 22.679688 11.132812 22.761719 11.519531 22.921875 C 12.105469 23.160156 12.574219 23.539062 12.925781 24.0625 C 13.277344 24.589844 13.449219 25.167969 13.441406 25.796875 C 13.441406 25.890625 13.476562 25.96875 13.539062 26.03125 C 13.605469 26.097656 13.683594 26.128906 13.773438 26.128906 L 16.226562 26.128906 C 16.320312 26.128906 16.398438 26.097656 16.464844 26.03125 C 16.527344 25.96875 16.558594 25.890625 16.558594 25.796875 C 16.558594 25.167969 16.734375 24.589844 17.085938 24.066406 C 17.4375 23.542969 17.902344 23.160156 18.484375 22.917969 C 19.066406 22.675781 19.667969 22.617188 20.285156 22.742188 C 20.902344 22.863281 21.433594 23.148438 21.878906 23.59375 C 21.945312 23.65625 22.023438 23.691406 22.113281 23.691406 C 22.207031 23.691406 22.28125 23.65625 22.347656 23.59375 L 24.082031 21.859375 C 24.148438 21.792969 24.179688 21.714844 24.179688 21.625 C 24.179688 21.535156 24.148438 21.457031 24.082031 21.390625 C 23.636719 20.945312 23.355469 20.414062 23.230469 19.796875 C 23.109375 19.179688 23.167969 18.582031 23.40625 18 C 23.648438 17.417969 24.03125 16.953125 24.554688 16.601562 C 25.074219 16.25 25.652344 16.074219 26.28125 16.074219 C 26.371094 16.074219 26.449219 16.039062 26.515625 15.976562 C 26.582031 15.910156 26.613281 15.832031 26.613281 15.742188 L 26.613281 13.289062 C 26.613281 13.199219 26.578125 13.121094 26.515625 13.054688 C 26.449219 12.992188 26.371094 12.960938 26.28125 12.960938 Z M 15 22.023438 C 14.507812 22.023438 14.019531 21.976562 13.535156 21.878906 C 13.050781 21.78125 12.582031 21.640625 12.128906 21.453125 C 11.671875 21.261719 11.238281 21.03125 10.828125 20.757812 C 10.417969 20.484375 10.039062 20.171875 9.691406 19.824219 C 9.34375 19.476562 9.03125 19.097656 8.757812 18.6875 C 8.484375 18.277344 8.253906 17.84375 8.066406 17.390625 C 7.875 16.933594 7.734375 16.464844 7.636719 15.980469 C 7.542969 15.496094 7.492188 15.007812 7.492188 14.515625 C 7.492188 14.023438 7.542969 13.535156 7.636719 13.050781 C 7.734375 12.566406 7.875 12.097656 8.066406 11.644531 C 8.253906 11.1875 8.484375 10.753906 8.757812 10.34375 C 9.03125 9.9375 9.34375 9.554688 9.691406 9.207031 C 10.039062 8.859375 10.417969 8.546875 10.828125 8.273438 C 11.238281 8 11.671875 7.769531 12.128906 7.582031 C 12.582031 7.390625 13.050781 7.25 13.535156 7.152344 C 14.019531 7.058594 14.507812 7.007812 15 7.007812 C 15.492188 7.007812 15.980469 7.058594 16.464844 7.152344 C 16.949219 7.25 17.417969 7.390625 17.871094 7.582031 C 18.328125 7.769531 18.761719 8 19.171875 8.273438 C 19.582031 8.546875 19.960938 8.859375 20.308594 9.207031 C 20.65625 9.554688 20.96875 9.9375 21.242188 10.34375 C 21.515625 10.753906 21.746094 11.1875 21.933594 11.644531 C 22.125 12.097656 22.265625 12.566406 22.363281 13.050781 C 22.457031 13.535156 22.507812 14.023438 22.507812 14.515625 C 22.507812 15.007812 22.457031 15.496094 22.363281 15.980469 C 22.265625 16.464844 22.121094 16.933594 21.933594 17.386719 C 21.746094 17.84375 21.511719 18.277344 21.238281 18.683594 C 20.964844 19.09375 20.65625 19.472656 20.304688 19.820312 C 19.957031 20.171875 19.578125 20.480469 19.167969 20.753906 C 18.757812 21.03125 18.328125 21.261719 17.871094 21.449219 C 17.417969 21.636719 16.949219 21.78125 16.464844 21.878906 C 15.980469 21.972656 15.492188 22.023438 15 22.023438 Z M 15 22.023438 " fill-opacity="1" fill-rule="nonzero"/></g><path fill="#935f3d" d="M 15.519531 14.515625 C 15.519531 14.660156 15.46875 14.78125 15.367188 14.882812 C 15.265625 14.984375 15.144531 15.035156 15 15.035156 C 14.855469 15.035156 14.734375 14.984375 14.632812 14.882812 C 14.53125 14.78125 14.480469 14.660156 14.480469 14.515625 C 14.480469 14.371094 14.53125 14.25 14.632812 14.148438 C 14.734375 14.046875 14.855469 13.996094 15 13.996094 C 15.144531 13.996094 15.265625 14.046875 15.367188 14.148438 C 15.46875 14.25 15.519531 14.371094 15.519531 14.515625 Z M 15.519531 14.515625 " fill-opacity="1" fill-rule="nonzero"/></svg>