<svg xmlns="http://www.w3.org/2000/svg" xmlns:xlink="http://www.w3.org/1999/xlink" width="40" zoomAndPan="magnify" viewBox="0 0 30 30.000001" height="40" preserveAspectRatio="xMidYMid meet" version="1.0"><defs><clipPath id="569af2f6ac"><path d="M 0.484375 0 L 29.515625 0 L 29.515625 29.03125 L 0.484375 29.03125 Z M 0.484375 0 " clip-rule="nonzero"/></clipPath><clipPath id="6b55e56f53"><path d="M 3.386719 4.238281 L 24 4.238281 L 24 24.5625 L 3.386719 24.5625 Z M 3.386719 4.238281 " clip-rule="nonzero"/></clipPath></defs><g clip-path="url(#569af2f6ac)"><path fill="#ffffff" d="M 0.484375 0 L 29.515625 0 L 29.515625 29.03125 L 0.484375 29.03125 Z M 0.484375 0 " fill-opacity="1" fill-rule="nonzero"/><path fill="#ffffff" d="M 0.484375 0 L 29.515625 0 L 29.515625 29.03125 L 0.484375 29.03125 Z M 0.484375 0 " fill-opacity="1" fill-rule="nonzero"/></g><path fill="#935f3d" d="M 10.21875 21.152344 C 10.886719 19.605469 9.65625 17.761719 7.960938 17.796875 C 6.617188 17.796875 5.519531 18.890625 5.519531 20.234375 C 5.554688 22.917969 9.207031 23.597656 10.21875 21.152344 Z M 7.960938 21.941406 C 5.707031 21.871094 5.707031 18.601562 7.960938 18.53125 C 10.214844 18.601562 10.214844 21.871094 7.960938 21.941406 Z M 7.960938 21.941406 " fill-opacity="1" fill-rule="nonzero"/><g clip-path="url(#6b55e56f53)"><path fill="#935f3d" d="M 21.910156 9.96875 L 22.546875 9.296875 C 22.851562 9.625 23.359375 9.617188 23.671875 9.285156 C 23.953125 9 23.941406 8.496094 23.644531 8.226562 C 23.644531 8.226562 22.355469 7.003906 22.355469 7.003906 C 22.058594 6.71875 21.582031 6.730469 21.273438 7.058594 C 20.972656 7.371094 21.011719 7.878906 21.34375 8.15625 C 21.34375 8.15625 20.710938 8.824219 20.710938 8.824219 C 19.539062 7.910156 18.160156 7.328125 16.675781 7.132812 L 16.675781 6.242188 L 16.984375 6.242188 C 18.273438 6.21875 18.277344 4.265625 16.984375 4.238281 C 16.984375 4.238281 14.164062 4.238281 14.164062 4.238281 C 12.871094 4.269531 12.878906 6.210938 14.164062 6.242188 C 14.164062 6.242188 14.476562 6.242188 14.476562 6.242188 L 14.476562 7.132812 C 12.992188 7.328125 11.609375 7.910156 10.433594 8.832031 L 9.792969 8.15625 C 10.125 7.875 10.164062 7.375 9.835938 7.03125 C 9.554688 6.730469 9.078125 6.71875 8.777344 7.003906 L 7.492188 8.226562 C 7.183594 8.515625 7.175781 8.996094 7.488281 9.308594 C 7.785156 9.628906 8.292969 9.613281 8.585938 9.296875 C 8.585938 9.296875 9.234375 9.980469 9.234375 9.980469 C 7.867188 11.566406 7.132812 13.609375 7.207031 15.714844 C 7.023438 15.78125 6.878906 15.941406 6.855469 16.144531 L 6.761719 16.941406 C 6.667969 16.976562 6.570312 17.015625 6.480469 17.0625 L 5.851562 16.566406 C 5.644531 16.398438 5.34375 16.414062 5.15625 16.601562 L 4.328125 17.433594 C 4.140625 17.621094 4.121094 17.917969 4.289062 18.125 L 4.785156 18.753906 C 4.742188 18.847656 4.703125 18.941406 4.667969 19.039062 L 3.871094 19.132812 C 3.605469 19.164062 3.410156 19.386719 3.410156 19.652344 L 3.410156 20.820312 C 3.410156 21.085938 3.605469 21.308594 3.871094 21.339844 L 4.667969 21.433594 C 4.703125 21.53125 4.742188 21.625 4.785156 21.71875 L 4.289062 22.34375 C 4.121094 22.554688 4.140625 22.851562 4.328125 23.039062 L 5.15625 23.871094 C 5.34375 24.058594 5.640625 24.074219 5.851562 23.910156 L 6.480469 23.410156 C 6.574219 23.457031 6.667969 23.496094 6.761719 23.53125 L 6.855469 24.328125 C 6.886719 24.589844 7.109375 24.789062 7.375 24.789062 L 8.546875 24.789062 C 8.8125 24.789062 9.035156 24.589844 9.066406 24.328125 L 9.160156 23.53125 C 9.253906 23.496094 9.347656 23.457031 9.441406 23.410156 L 10.070312 23.910156 C 10.277344 24.074219 10.578125 24.058594 10.765625 23.871094 L 11.59375 23.042969 C 11.648438 22.988281 11.683594 22.925781 11.707031 22.859375 C 12.894531 23.480469 14.207031 23.804688 15.574219 23.804688 C 22.683594 23.828125 26.589844 15.316406 21.910156 9.96875 Z M 13.925781 5.269531 C 13.90625 5.121094 14.007812 4.972656 14.164062 4.972656 C 14.164062 4.972656 16.984375 4.972656 16.984375 4.972656 C 17.304688 4.96875 17.304688 5.507812 16.984375 5.507812 C 16.984375 5.507812 14.164062 5.507812 14.164062 5.507812 C 14.035156 5.507812 13.925781 5.398438 13.925781 5.269531 Z M 23.144531 8.769531 C 23.132812 8.773438 23.113281 8.824219 23.097656 8.804688 C 22.90625 8.617188 21.691406 7.476562 21.566406 7.285156 C 21.566406 7.285156 23.144531 8.769531 23.144531 8.769531 Z M 22.011719 8.789062 L 21.410156 9.429688 C 21.363281 9.382812 21.320312 9.339844 21.273438 9.296875 L 21.875 8.660156 Z M 15.210938 7.074219 L 15.210938 6.242188 L 15.941406 6.242188 L 15.941406 7.074219 C 15.699219 7.0625 15.453125 7.0625 15.210938 7.074219 Z M 8.019531 8.804688 C 8.019531 8.804688 7.996094 8.757812 7.996094 8.757812 L 9.304688 7.535156 C 9.304688 7.535156 9.328125 7.582031 9.328125 7.582031 L 9.023438 7.871094 C 9.015625 7.878906 8.351562 8.503906 8.347656 8.515625 C 8.347656 8.515625 8.039062 8.804688 8.039062 8.804688 Z M 9.257812 8.660156 L 9.871094 9.308594 C 9.824219 9.351562 9.777344 9.394531 9.734375 9.4375 L 9.121094 8.792969 Z M 10.378906 23.21875 L 9.792969 22.753906 C 9.472656 22.484375 9.128906 22.78125 8.804688 22.875 C 8.609375 22.9375 8.46875 23.109375 8.445312 23.3125 L 8.359375 24.054688 L 7.5625 24.054688 L 7.476562 23.308594 C 7.453125 23.109375 7.3125 22.9375 7.113281 22.875 C 6.792969 22.78125 6.445312 22.484375 6.128906 22.753906 C 6.128906 22.753906 5.542969 23.21875 5.542969 23.21875 L 4.980469 22.65625 L 5.445312 22.066406 C 5.714844 21.75 5.417969 21.40625 5.324219 21.082031 C 5.261719 20.886719 5.089844 20.746094 4.886719 20.71875 L 4.144531 20.632812 L 4.144531 19.839844 L 4.886719 19.753906 C 5.089844 19.726562 5.261719 19.585938 5.324219 19.390625 C 5.417969 19.070312 5.714844 18.71875 5.445312 18.40625 C 5.445312 18.40625 4.980469 17.816406 4.980469 17.816406 L 5.542969 17.253906 L 6.128906 17.71875 C 6.445312 17.992188 6.792969 17.691406 7.113281 17.597656 C 7.308594 17.539062 7.453125 17.367188 7.476562 17.160156 L 7.5625 16.417969 L 8.359375 16.417969 L 8.445312 17.164062 C 8.46875 17.367188 8.613281 17.539062 8.808594 17.597656 C 9.128906 17.691406 9.476562 17.988281 9.792969 17.71875 C 9.792969 17.71875 10.378906 17.253906 10.378906 17.253906 L 10.941406 17.816406 L 10.476562 18.402344 C 10.207031 18.71875 10.507812 19.070312 10.597656 19.390625 C 10.660156 19.585938 10.832031 19.726562 11.035156 19.753906 L 11.777344 19.839844 L 11.777344 20.632812 L 11.035156 20.71875 C 10.832031 20.742188 10.660156 20.886719 10.597656 21.082031 C 10.5 21.40625 10.21875 21.746094 10.476562 22.066406 C 10.476562 22.066406 10.941406 22.65625 10.941406 22.65625 Z M 11.222656 11.648438 L 12.148438 12.5625 C 12.492188 12.898438 13.003906 12.378906 12.664062 12.039062 C 12.664062 12.039062 11.738281 11.125 11.738281 11.125 C 12.707031 10.261719 13.914062 9.757812 15.210938 9.675781 L 15.210938 10.976562 C 15.210938 11.179688 15.375 11.34375 15.574219 11.34375 C 15.777344 11.34375 15.941406 11.179688 15.941406 10.976562 L 15.941406 9.675781 C 17.222656 9.757812 18.417969 10.25 19.382812 11.097656 L 18.460938 12.019531 C 18.226562 12.238281 18.410156 12.65625 18.722656 12.644531 C 18.816406 12.644531 18.910156 12.609375 18.980469 12.535156 L 19.902344 11.617188 C 20.746094 12.574219 21.246094 13.769531 21.328125 15.054688 L 20.03125 15.054688 C 19.546875 15.066406 19.550781 15.78125 20.03125 15.789062 C 20.03125 15.789062 21.332031 15.785156 21.332031 15.785156 C 21.253906 17.066406 20.761719 18.265625 19.914062 19.226562 L 18.992188 18.3125 C 18.648438 17.972656 18.136719 18.492188 18.476562 18.832031 C 18.476562 18.832031 19.398438 19.75 19.398438 19.75 C 18.441406 20.59375 17.25 21.09375 15.964844 21.183594 L 15.960938 19.882812 C 15.949219 19.398438 15.230469 19.40625 15.226562 19.886719 C 15.226562 19.886719 15.230469 21.191406 15.230469 21.191406 C 14.261719 21.132812 13.332031 20.832031 12.511719 20.316406 L 12.511719 19.652344 C 12.511719 19.488281 12.429688 19.34375 12.308594 19.25 C 12.527344 19 13.035156 18.695312 12.699219 18.332031 C 12.554688 18.191406 12.324219 18.191406 12.183594 18.335938 L 11.460938 19.0625 L 11.253906 19.039062 C 11.21875 18.941406 11.179688 18.847656 11.136719 18.753906 L 11.632812 18.128906 C 11.75 17.980469 11.769531 17.792969 11.710938 17.628906 C 12.101562 17.628906 13.242188 17.628906 13.652344 17.628906 C 15.269531 17.628906 17.203125 17.628906 18.820312 17.628906 L 20.03125 17.628906 C 20.507812 17.621094 20.515625 16.902344 20.03125 16.894531 C 20.03125 16.894531 19.1875 16.894531 19.1875 16.894531 L 19.1875 13.878906 C 19.1875 13.675781 19.023438 13.511719 18.820312 13.511719 L 17.5 13.511719 C 17.296875 13.511719 17.132812 13.675781 17.132812 13.878906 L 17.132812 16.894531 L 16.601562 16.894531 L 16.601562 12.085938 C 16.601562 11.886719 16.4375 11.722656 16.234375 11.722656 L 14.914062 11.722656 C 14.714844 11.722656 14.550781 11.886719 14.550781 12.085938 L 14.550781 16.894531 L 14.019531 16.894531 L 14.019531 13.878906 C 14.019531 13.675781 13.855469 13.511719 13.652344 13.511719 L 12.332031 13.511719 C 12.128906 13.511719 11.964844 13.675781 11.964844 13.878906 L 11.964844 16.894531 L 11.058594 16.894531 L 10.765625 16.601562 C 10.578125 16.414062 10.277344 16.398438 10.070312 16.5625 L 9.941406 16.667969 C 9.882812 16.394531 9.839844 16.117188 9.820312 15.828125 L 11.125 15.820312 C 11.328125 15.820312 11.488281 15.65625 11.488281 15.453125 C 11.488281 15.25 11.324219 15.085938 11.121094 15.085938 L 9.820312 15.09375 C 9.894531 13.816406 10.382812 12.613281 11.222656 11.648438 Z M 13.285156 16.894531 L 12.699219 16.894531 L 12.699219 14.246094 L 13.285156 14.246094 Z M 15.871094 16.894531 L 15.28125 16.894531 L 15.28125 12.453125 L 15.871094 12.453125 Z M 18.453125 16.894531 L 17.867188 16.894531 L 17.867188 14.246094 L 18.453125 14.246094 Z M 15.574219 23.070312 C 13.972656 23.070312 12.453125 22.582031 11.160156 21.660156 C 11.195312 21.585938 11.226562 21.511719 11.253906 21.433594 L 12.050781 21.339844 C 12.207031 21.324219 12.332031 21.234375 12.414062 21.113281 C 13.378906 21.652344 14.460938 21.9375 15.601562 21.9375 C 17.335938 21.929688 18.964844 21.25 20.1875 20.019531 C 22.699219 17.601562 22.695312 13.238281 20.171875 10.828125 C 17.734375 8.292969 13.359375 8.308594 10.945312 10.863281 C 9.734375 12.085938 9.070312 13.707031 9.070312 15.464844 C 9.074219 15.980469 9.140625 16.488281 9.261719 16.984375 C 9.226562 16.972656 9.195312 16.957031 9.160156 16.941406 L 9.066406 16.144531 C 9.035156 15.882812 8.8125 15.683594 8.546875 15.683594 L 7.941406 15.683594 C 7.871094 13.660156 8.609375 11.695312 9.996094 10.214844 C 12.898438 6.996094 18.28125 7.007812 21.171875 10.230469 C 25.699219 15.054688 22.199219 23.089844 15.574219 23.070312 Z M 15.574219 23.070312 " fill-opacity="1" fill-rule="nonzero"/></g></svg>