<svg xmlns="http://www.w3.org/2000/svg" xmlns:xlink="http://www.w3.org/1999/xlink" width="40" zoomAndPan="magnify" viewBox="0 0 30 30.000001" height="40" preserveAspectRatio="xMidYMid meet" version="1.0"><defs><clipPath id="5e6ad4e083"><path d="M 0.484375 0 L 29.515625 0 L 29.515625 29.03125 L 0.484375 29.03125 Z M 0.484375 0 " clip-rule="nonzero"/></clipPath><clipPath id="408a6f457f"><path d="M 16 10 L 25.886719 10 L 25.886719 21 L 16 21 Z M 16 10 " clip-rule="nonzero"/></clipPath><clipPath id="27259475b2"><path d="M 3.386719 8 L 22 8 L 22 22.339844 L 3.386719 22.339844 Z M 3.386719 8 " clip-rule="nonzero"/></clipPath><clipPath id="23572fd36c"><path d="M 12 6.371094 L 22 6.371094 L 22 10 L 12 10 Z M 12 6.371094 " clip-rule="nonzero"/></clipPath><clipPath id="0db104c89c"><path d="M 3.386719 7 L 15 7 L 15 10 L 3.386719 10 Z M 3.386719 7 " clip-rule="nonzero"/></clipPath></defs><g clip-path="url(#5e6ad4e083)"><path fill="#ffffff" d="M 0.484375 0 L 29.515625 0 L 29.515625 29.03125 L 0.484375 29.03125 Z M 0.484375 0 " fill-opacity="1" fill-rule="nonzero"/><path fill="#ffffff" d="M 0.484375 0 L 29.515625 0 L 29.515625 29.03125 L 0.484375 29.03125 Z M 0.484375 0 " fill-opacity="1" fill-rule="nonzero"/></g><g clip-path="url(#408a6f457f)"><path fill="#935f3d" d="M 21.714844 20.496094 L 20.964844 20.496094 C 20.710938 20.496094 20.511719 20.316406 20.441406 20.027344 L 20.285156 19.382812 C 19.992188 19.300781 19.710938 19.183594 19.441406 19.03125 L 18.875 19.378906 C 18.621094 19.535156 18.351562 19.519531 18.171875 19.339844 L 17.644531 18.8125 C 17.464844 18.632812 17.449219 18.363281 17.605469 18.109375 L 17.953125 17.542969 C 17.800781 17.277344 17.683594 16.992188 17.601562 16.699219 L 16.957031 16.542969 C 16.667969 16.472656 16.488281 16.273438 16.488281 16.019531 L 16.488281 15.269531 C 16.488281 15.019531 16.667969 14.820312 16.957031 14.75 L 17.601562 14.59375 C 17.683594 14.296875 17.800781 14.015625 17.953125 13.75 L 17.605469 13.179688 C 17.453125 12.925781 17.464844 12.65625 17.644531 12.480469 L 18.175781 11.949219 C 18.351562 11.769531 18.621094 11.757812 18.875 11.914062 L 19.441406 12.257812 C 19.710938 12.109375 19.992188 11.992188 20.285156 11.910156 L 20.441406 11.261719 C 20.511719 10.972656 20.714844 10.792969 20.964844 10.792969 L 21.714844 10.792969 C 21.964844 10.792969 22.167969 10.972656 22.238281 11.261719 L 22.394531 11.910156 C 22.6875 11.992188 22.96875 12.109375 23.234375 12.257812 L 23.804688 11.914062 C 24.058594 11.757812 24.328125 11.773438 24.503906 11.949219 L 25.035156 12.480469 C 25.214844 12.65625 25.226562 12.925781 25.074219 13.179688 L 24.726562 13.75 C 24.875 14.015625 24.992188 14.296875 25.078125 14.589844 L 25.722656 14.75 C 26.011719 14.816406 26.191406 15.019531 26.191406 15.269531 L 26.191406 16.019531 C 26.191406 16.273438 26.011719 16.472656 25.722656 16.542969 L 25.078125 16.699219 C 24.992188 16.992188 24.875 17.273438 24.726562 17.542969 L 25.070312 18.109375 C 25.226562 18.363281 25.214844 18.632812 25.035156 18.8125 L 24.503906 19.339844 C 24.328125 19.519531 24.058594 19.535156 23.804688 19.378906 L 23.234375 19.03125 C 22.96875 19.183594 22.6875 19.300781 22.394531 19.382812 L 22.234375 20.027344 C 22.167969 20.316406 21.964844 20.496094 21.714844 20.496094 Z M 20.972656 19.980469 L 21.703125 19.980469 C 21.710938 19.972656 21.726562 19.945312 21.734375 19.90625 L 21.925781 19.109375 C 21.949219 19.015625 22.023438 18.941406 22.117188 18.921875 C 22.46875 18.835938 22.796875 18.699219 23.105469 18.511719 C 23.1875 18.460938 23.289062 18.460938 23.375 18.511719 L 24.074219 18.9375 C 24.109375 18.960938 24.132812 18.96875 24.148438 18.96875 L 24.664062 18.453125 C 24.660156 18.441406 24.652344 18.414062 24.632812 18.378906 L 24.207031 17.679688 C 24.15625 17.597656 24.15625 17.492188 24.207031 17.410156 C 24.394531 17.101562 24.53125 16.773438 24.613281 16.425781 C 24.636719 16.328125 24.710938 16.257812 24.804688 16.234375 L 25.601562 16.039062 C 25.640625 16.03125 25.664062 16.015625 25.675781 16.007812 L 25.675781 15.28125 C 25.664062 15.273438 25.640625 15.257812 25.601562 15.25 L 24.804688 15.054688 C 24.710938 15.03125 24.636719 14.957031 24.613281 14.863281 C 24.53125 14.515625 24.394531 14.183594 24.207031 13.878906 C 24.15625 13.796875 24.15625 13.691406 24.207031 13.609375 L 24.632812 12.910156 C 24.652344 12.875 24.660156 12.847656 24.664062 12.835938 L 24.148438 12.320312 C 24.132812 12.320312 24.109375 12.328125 24.074219 12.351562 L 23.375 12.777344 C 23.289062 12.828125 23.1875 12.828125 23.105469 12.777344 C 22.796875 12.589844 22.46875 12.449219 22.121094 12.367188 C 22.023438 12.347656 21.953125 12.273438 21.929688 12.179688 L 21.734375 11.382812 C 21.726562 11.339844 21.710938 11.316406 21.703125 11.308594 L 20.976562 11.308594 C 20.96875 11.316406 20.953125 11.339844 20.945312 11.382812 L 20.75 12.179688 C 20.726562 12.273438 20.652344 12.34375 20.558594 12.367188 C 20.210938 12.449219 19.878906 12.589844 19.574219 12.777344 C 19.492188 12.828125 19.386719 12.828125 19.304688 12.777344 L 18.605469 12.351562 C 18.570312 12.328125 18.542969 12.320312 18.53125 12.320312 L 18.015625 12.835938 C 18.019531 12.847656 18.023438 12.875 18.046875 12.910156 L 18.472656 13.609375 C 18.523438 13.691406 18.523438 13.796875 18.472656 13.878906 C 18.285156 14.183594 18.148438 14.515625 18.0625 14.863281 C 18.042969 14.957031 17.96875 15.03125 17.875 15.054688 L 17.078125 15.25 C 17.039062 15.257812 17.011719 15.269531 17.003906 15.277344 L 17.003906 16.007812 C 17.011719 16.015625 17.039062 16.03125 17.078125 16.039062 L 17.875 16.234375 C 17.96875 16.253906 18.042969 16.328125 18.0625 16.425781 C 18.148438 16.773438 18.285156 17.101562 18.472656 17.410156 C 18.523438 17.492188 18.523438 17.59375 18.472656 17.679688 L 18.046875 18.378906 C 18.023438 18.414062 18.015625 18.4375 18.015625 18.453125 L 18.53125 18.96875 C 18.542969 18.964844 18.570312 18.957031 18.605469 18.9375 L 19.304688 18.511719 C 19.386719 18.460938 19.492188 18.460938 19.574219 18.511719 C 19.878906 18.699219 20.210938 18.835938 20.558594 18.917969 C 20.652344 18.941406 20.726562 19.015625 20.75 19.109375 L 20.945312 19.90625 C 20.953125 19.945312 20.964844 19.972656 20.972656 19.980469 Z M 20.972656 19.980469 " fill-opacity="1" fill-rule="nonzero"/></g><path fill="#935f3d" d="M 21.339844 18.3125 C 19.867188 18.3125 18.671875 17.117188 18.671875 15.644531 C 18.671875 14.171875 19.867188 12.976562 21.339844 12.976562 C 22.808594 12.976562 24.007812 14.171875 24.007812 15.644531 C 24.007812 17.117188 22.808594 18.3125 21.339844 18.3125 Z M 21.339844 13.492188 C 20.152344 13.492188 19.1875 14.457031 19.1875 15.644531 C 19.1875 16.832031 20.152344 17.796875 21.339844 17.796875 C 22.527344 17.796875 23.492188 16.832031 23.492188 15.644531 C 23.492188 14.457031 22.527344 13.492188 21.339844 13.492188 Z M 21.339844 13.492188 " fill-opacity="1" fill-rule="nonzero"/><path fill="#935f3d" d="M 21.339844 17.296875 C 20.429688 17.296875 19.6875 16.554688 19.6875 15.644531 C 19.6875 14.734375 20.429688 13.996094 21.339844 13.996094 C 22.25 13.996094 22.988281 14.734375 22.988281 15.644531 C 22.988281 16.554688 22.25 17.296875 21.339844 17.296875 Z M 21.339844 14.511719 C 20.714844 14.511719 20.203125 15.019531 20.203125 15.644531 C 20.203125 16.269531 20.714844 16.78125 21.339844 16.78125 C 21.964844 16.78125 22.472656 16.269531 22.472656 15.644531 C 22.472656 15.019531 21.964844 14.511719 21.339844 14.511719 Z M 21.339844 14.511719 " fill-opacity="1" fill-rule="nonzero"/><path fill="#935f3d" d="M 8.464844 17.070312 L 7.53125 17.070312 C 7.390625 17.070312 7.273438 16.957031 7.273438 16.8125 L 7.273438 13.742188 C 7.273438 13.601562 7.390625 13.484375 7.53125 13.484375 L 8.464844 13.484375 C 8.605469 13.484375 8.722656 13.601562 8.722656 13.742188 L 8.722656 16.8125 C 8.722656 16.957031 8.605469 17.070312 8.464844 17.070312 Z M 7.789062 16.554688 L 8.207031 16.554688 L 8.207031 14 L 7.789062 14 Z M 7.789062 16.554688 " fill-opacity="1" fill-rule="nonzero"/><path fill="#935f3d" d="M 14.527344 19.449219 C 14.480469 19.449219 14.429688 19.433594 14.386719 19.40625 C 12.582031 18.230469 10.570312 17.445312 8.417969 17.066406 C 8.277344 17.042969 8.183594 16.910156 8.210938 16.769531 C 8.234375 16.628906 8.367188 16.535156 8.507812 16.558594 C 10.730469 16.949219 12.804688 17.761719 14.667969 18.972656 C 14.789062 19.050781 14.824219 19.210938 14.746094 19.332031 C 14.695312 19.40625 14.613281 19.449219 14.527344 19.449219 Z M 8.464844 14 C 8.339844 14 8.230469 13.914062 8.210938 13.789062 C 8.183594 13.648438 8.277344 13.511719 8.417969 13.488281 C 10.570312 13.113281 12.582031 12.324219 14.386719 11.148438 C 14.507812 11.070312 14.667969 11.105469 14.746094 11.222656 C 14.824219 11.34375 14.789062 11.503906 14.667969 11.582031 C 12.804688 12.796875 10.730469 13.609375 8.507812 13.996094 C 8.492188 14 8.476562 14 8.464844 14 Z M 8.464844 14 " fill-opacity="1" fill-rule="nonzero"/><path fill="#935f3d" d="M 7.53125 17.070312 L 6.4375 17.070312 C 5.691406 17.070312 5.085938 16.464844 5.085938 15.71875 L 5.085938 14.835938 C 5.085938 14.089844 5.691406 13.484375 6.4375 13.484375 L 7.53125 13.484375 C 7.675781 13.484375 7.789062 13.601562 7.789062 13.742188 C 7.789062 13.886719 7.675781 14 7.53125 14 L 6.4375 14 C 5.976562 14 5.601562 14.375 5.601562 14.835938 L 5.601562 15.71875 C 5.601562 16.179688 5.976562 16.554688 6.4375 16.554688 L 7.53125 16.554688 C 7.675781 16.554688 7.789062 16.671875 7.789062 16.8125 C 7.789062 16.957031 7.675781 17.070312 7.53125 17.070312 Z M 7.53125 17.070312 " fill-opacity="1" fill-rule="nonzero"/><path fill="#935f3d" d="M 15.171875 20.304688 C 14.675781 20.304688 14.269531 19.902344 14.269531 19.40625 L 14.269531 11.152344 C 14.269531 10.65625 14.675781 10.25 15.171875 10.25 C 15.667969 10.25 16.070312 10.65625 16.070312 11.152344 L 16.070312 19.40625 C 16.070312 19.902344 15.667969 20.304688 15.171875 20.304688 Z M 15.171875 10.765625 C 14.957031 10.765625 14.785156 10.9375 14.785156 11.152344 L 14.785156 19.40625 C 14.785156 19.617188 14.957031 19.789062 15.171875 19.789062 C 15.382812 19.789062 15.554688 19.617188 15.554688 19.40625 L 15.554688 11.152344 C 15.554688 10.9375 15.382812 10.765625 15.171875 10.765625 Z M 15.171875 10.765625 " fill-opacity="1" fill-rule="nonzero"/><path fill="#935f3d" d="M 9.292969 21.039062 L 7.066406 21.039062 C 6.835938 21.039062 6.644531 20.851562 6.644531 20.617188 L 6.644531 16.8125 C 6.644531 16.671875 6.761719 16.554688 6.902344 16.554688 C 7.046875 16.554688 7.160156 16.671875 7.160156 16.8125 L 7.160156 20.523438 L 9.199219 20.523438 L 9.199219 20.304688 C 9.199219 20.183594 9.101562 20.082031 8.980469 20.082031 L 8.464844 20.082031 C 8.320312 20.082031 8.207031 19.96875 8.207031 19.824219 L 8.207031 16.8125 C 8.207031 16.671875 8.320312 16.554688 8.464844 16.554688 C 8.605469 16.554688 8.722656 16.671875 8.722656 16.8125 L 8.722656 19.566406 L 8.980469 19.566406 C 9.386719 19.566406 9.714844 19.898438 9.714844 20.304688 L 9.714844 20.617188 C 9.714844 20.851562 9.527344 21.039062 9.292969 21.039062 Z M 9.292969 21.039062 " fill-opacity="1" fill-rule="nonzero"/><path fill="#935f3d" d="M 9.160156 18.578125 L 8.464844 18.578125 C 8.320312 18.578125 8.207031 18.460938 8.207031 18.320312 L 8.207031 16.8125 C 8.207031 16.738281 8.238281 16.664062 8.296875 16.617188 C 8.355469 16.566406 8.433594 16.546875 8.507812 16.558594 C 8.988281 16.644531 9.464844 16.746094 9.925781 16.871094 C 10.039062 16.898438 10.117188 17 10.117188 17.117188 L 10.117188 17.621094 C 10.117188 18.148438 9.6875 18.578125 9.160156 18.578125 Z M 8.722656 18.0625 L 9.164062 18.0625 C 9.40625 18.0625 9.601562 17.863281 9.601562 17.621094 L 9.601562 17.316406 C 9.3125 17.246094 9.019531 17.179688 8.722656 17.121094 Z M 8.722656 18.0625 " fill-opacity="1" fill-rule="nonzero"/><g clip-path="url(#27259475b2)"><path fill="#935f3d" d="M 20.398438 22.355469 L 4.527344 22.355469 C 3.898438 22.355469 3.386719 21.84375 3.386719 21.214844 L 3.386719 9.191406 C 3.386719 9.050781 3.5 8.933594 3.644531 8.933594 L 21.285156 8.933594 C 21.425781 8.933594 21.542969 9.050781 21.542969 9.191406 L 21.542969 11.050781 C 21.542969 11.195312 21.425781 11.308594 21.285156 11.308594 C 21.140625 11.308594 21.027344 11.195312 21.027344 11.050781 L 21.027344 9.449219 L 3.902344 9.449219 L 3.902344 21.214844 C 3.902344 21.558594 4.183594 21.839844 4.527344 21.839844 L 20.398438 21.839844 C 20.746094 21.839844 21.027344 21.558594 21.027344 21.214844 L 21.027344 20.238281 C 21.027344 20.097656 21.140625 19.980469 21.285156 19.980469 C 21.425781 19.980469 21.542969 20.097656 21.542969 20.238281 L 21.542969 21.214844 C 21.542969 21.84375 21.03125 22.355469 20.398438 22.355469 Z M 20.398438 22.355469 " fill-opacity="1" fill-rule="nonzero"/></g><g clip-path="url(#23572fd36c)"><path fill="#935f3d" d="M 13.195312 9.449219 C 13.167969 9.449219 13.140625 9.445312 13.109375 9.4375 C 12.976562 9.386719 12.90625 9.242188 12.953125 9.105469 L 13.859375 6.550781 C 13.894531 6.445312 13.992188 6.378906 14.101562 6.378906 L 20.402344 6.378906 C 21.03125 6.378906 21.542969 6.890625 21.542969 7.515625 L 21.542969 9.191406 C 21.542969 9.335938 21.425781 9.449219 21.285156 9.449219 C 21.140625 9.449219 21.027344 9.335938 21.027344 9.191406 L 21.027344 7.515625 C 21.027344 7.171875 20.746094 6.894531 20.402344 6.894531 L 14.285156 6.894531 L 13.441406 9.277344 C 13.402344 9.382812 13.304688 9.449219 13.195312 9.449219 Z M 13.195312 9.449219 " fill-opacity="1" fill-rule="nonzero"/></g><g clip-path="url(#0db104c89c)"><path fill="#935f3d" d="M 3.644531 9.449219 C 3.5 9.449219 3.386719 9.335938 3.386719 9.191406 L 3.386719 8.273438 C 3.386719 7.644531 3.898438 7.132812 4.527344 7.132812 L 13.835938 7.132812 C 13.976562 7.132812 14.09375 7.246094 14.09375 7.390625 C 14.09375 7.53125 13.976562 7.648438 13.835938 7.648438 L 4.527344 7.648438 C 4.183594 7.648438 3.902344 7.929688 3.902344 8.273438 L 3.902344 9.191406 C 3.902344 9.335938 3.785156 9.449219 3.644531 9.449219 Z M 3.644531 9.449219 " fill-opacity="1" fill-rule="nonzero"/></g><path fill="#935f3d" d="M 19.632812 8.730469 C 19.183594 8.730469 18.816406 8.367188 18.816406 7.914062 C 18.816406 7.460938 19.183594 7.09375 19.632812 7.09375 C 20.085938 7.09375 20.453125 7.460938 20.453125 7.914062 C 20.453125 8.367188 20.085938 8.730469 19.632812 8.730469 Z M 19.632812 7.613281 C 19.46875 7.613281 19.332031 7.746094 19.332031 7.914062 C 19.332031 8.082031 19.46875 8.21875 19.632812 8.21875 C 19.800781 8.21875 19.9375 8.082031 19.9375 7.914062 C 19.9375 7.746094 19.800781 7.613281 19.632812 7.613281 Z M 19.632812 7.613281 " fill-opacity="1" fill-rule="nonzero"/><path fill="#935f3d" d="M 17.558594 8.730469 C 17.109375 8.730469 16.742188 8.367188 16.742188 7.914062 C 16.742188 7.460938 17.109375 7.09375 17.558594 7.09375 C 18.011719 7.09375 18.378906 7.460938 18.378906 7.914062 C 18.378906 8.367188 18.011719 8.730469 17.558594 8.730469 Z M 17.558594 7.613281 C 17.394531 7.613281 17.257812 7.746094 17.257812 7.914062 C 17.257812 8.082031 17.394531 8.21875 17.558594 8.21875 C 17.726562 8.21875 17.863281 8.082031 17.863281 7.914062 C 17.863281 7.746094 17.726562 7.613281 17.558594 7.613281 Z M 17.558594 7.613281 " fill-opacity="1" fill-rule="nonzero"/><path fill="#935f3d" d="M 15.484375 8.730469 C 15.035156 8.730469 14.667969 8.367188 14.667969 7.914062 C 14.667969 7.460938 15.035156 7.09375 15.484375 7.09375 C 15.9375 7.09375 16.304688 7.460938 16.304688 7.914062 C 16.304688 8.367188 15.9375 8.730469 15.484375 8.730469 Z M 15.484375 7.613281 C 15.320312 7.613281 15.183594 7.746094 15.183594 7.914062 C 15.183594 8.082031 15.320312 8.21875 15.484375 8.21875 C 15.652344 8.21875 15.789062 8.082031 15.789062 7.914062 C 15.789062 7.746094 15.652344 7.613281 15.484375 7.613281 Z M 15.484375 7.613281 " fill-opacity="1" fill-rule="nonzero"/></svg>