<svg xmlns="http://www.w3.org/2000/svg" xmlns:xlink="http://www.w3.org/1999/xlink" width="40" zoomAndPan="magnify" viewBox="0 0 30 30.000001" height="40" preserveAspectRatio="xMidYMid meet" version="1.0"><defs><clipPath id="aea52954d2"><path d="M 0.484375 0 L 29.515625 0 L 29.515625 29.03125 L 0.484375 29.03125 Z M 0.484375 0 " clip-rule="nonzero"/></clipPath><clipPath id="ad46fab196"><path d="M 16 10 L 26.613281 10 L 26.613281 21 L 16 21 Z M 16 10 " clip-rule="nonzero"/></clipPath><clipPath id="8bab5eb7fd"><path d="M 3.386719 8 L 22 8 L 22 22.339844 L 3.386719 22.339844 Z M 3.386719 8 " clip-rule="nonzero"/></clipPath><clipPath id="81995052f7"><path d="M 13 6.371094 L 22 6.371094 L 22 10 L 13 10 Z M 13 6.371094 " clip-rule="nonzero"/></clipPath><clipPath id="77bc7e8747"><path d="M 3.386719 7 L 15 7 L 15 10 L 3.386719 10 Z M 3.386719 7 " clip-rule="nonzero"/></clipPath></defs><g clip-path="url(#aea52954d2)"><path fill="#ffffff" d="M 0.484375 0 L 29.515625 0 L 29.515625 29.03125 L 0.484375 29.03125 Z M 0.484375 0 " fill-opacity="1" fill-rule="nonzero"/><path fill="#ffffff" d="M 0.484375 0 L 29.515625 0 L 29.515625 29.03125 L 0.484375 29.03125 Z M 0.484375 0 " fill-opacity="1" fill-rule="nonzero"/></g><g clip-path="url(#ad46fab196)"><path fill="#935f3d" d="M 22.050781 20.757812 L 21.289062 20.757812 C 21.03125 20.757812 20.828125 20.574219 20.757812 20.277344 L 20.597656 19.621094 C 20.296875 19.539062 20.011719 19.417969 19.738281 19.265625 L 19.160156 19.617188 C 18.902344 19.777344 18.628906 19.761719 18.445312 19.578125 L 17.90625 19.039062 C 17.722656 18.859375 17.710938 18.585938 17.867188 18.324219 L 18.21875 17.75 C 18.066406 17.476562 17.949219 17.1875 17.863281 16.890625 L 17.207031 16.730469 C 16.914062 16.660156 16.730469 16.453125 16.730469 16.199219 L 16.730469 15.433594 C 16.730469 15.179688 16.914062 14.972656 17.207031 14.902344 L 17.863281 14.742188 C 17.949219 14.445312 18.066406 14.15625 18.21875 13.882812 L 17.867188 13.304688 C 17.710938 13.046875 17.726562 12.773438 17.90625 12.59375 L 18.445312 12.054688 C 18.628906 11.871094 18.902344 11.855469 19.160156 12.015625 L 19.738281 12.367188 C 20.011719 12.214844 20.296875 12.09375 20.597656 12.011719 L 20.757812 11.351562 C 20.828125 11.058594 21.03125 10.875 21.289062 10.875 L 22.050781 10.875 C 22.308594 10.875 22.511719 11.058594 22.582031 11.351562 L 22.742188 12.011719 C 23.042969 12.09375 23.328125 12.214844 23.601562 12.367188 L 24.179688 12.015625 C 24.4375 11.855469 24.710938 11.871094 24.894531 12.054688 L 25.433594 12.59375 C 25.613281 12.773438 25.628906 13.046875 25.472656 13.304688 L 25.121094 13.882812 C 25.273438 14.15625 25.390625 14.445312 25.476562 14.742188 L 26.132812 14.902344 C 26.425781 14.972656 26.609375 15.179688 26.609375 15.433594 L 26.609375 16.195312 C 26.609375 16.453125 26.425781 16.65625 26.132812 16.730469 L 25.476562 16.890625 C 25.390625 17.1875 25.273438 17.476562 25.117188 17.746094 L 25.472656 18.324219 C 25.628906 18.585938 25.613281 18.859375 25.433594 19.039062 L 24.894531 19.578125 C 24.710938 19.761719 24.4375 19.777344 24.179688 19.617188 L 23.601562 19.265625 C 23.328125 19.417969 23.042969 19.539062 22.742188 19.621094 L 22.582031 20.277344 C 22.511719 20.574219 22.308594 20.757812 22.050781 20.757812 Z M 21.296875 20.230469 L 22.039062 20.230469 C 22.046875 20.222656 22.0625 20.195312 22.074219 20.15625 L 22.269531 19.34375 C 22.292969 19.25 22.367188 19.175781 22.464844 19.152344 C 22.816406 19.066406 23.15625 18.925781 23.464844 18.734375 C 23.550781 18.683594 23.65625 18.683594 23.742188 18.734375 L 24.453125 19.167969 C 24.488281 19.191406 24.515625 19.199219 24.53125 19.199219 L 25.054688 18.675781 C 25.054688 18.664062 25.046875 18.636719 25.023438 18.597656 L 24.589844 17.886719 C 24.539062 17.800781 24.539062 17.695312 24.589844 17.613281 C 24.78125 17.300781 24.921875 16.964844 25.003906 16.609375 C 25.027344 16.511719 25.101562 16.4375 25.199219 16.414062 L 26.007812 16.21875 C 26.050781 16.207031 26.074219 16.195312 26.085938 16.1875 L 26.085938 15.445312 C 26.074219 15.4375 26.050781 15.421875 26.007812 15.414062 L 25.199219 15.214844 C 25.101562 15.191406 25.027344 15.117188 25.003906 15.019531 C 24.921875 14.667969 24.78125 14.328125 24.589844 14.019531 C 24.539062 13.933594 24.539062 13.828125 24.589844 13.742188 L 25.023438 13.03125 C 25.046875 12.996094 25.054688 12.96875 25.054688 12.957031 L 24.53125 12.429688 C 24.515625 12.433594 24.488281 12.4375 24.453125 12.460938 L 23.742188 12.894531 C 23.65625 12.945312 23.550781 12.945312 23.464844 12.894531 C 23.15625 12.703125 22.820312 12.5625 22.464844 12.480469 C 22.367188 12.457031 22.292969 12.382812 22.269531 12.285156 L 22.074219 11.476562 C 22.0625 11.433594 22.050781 11.410156 22.042969 11.398438 L 21.296875 11.398438 C 21.289062 11.410156 21.277344 11.433594 21.265625 11.476562 L 21.070312 12.285156 C 21.046875 12.382812 20.972656 12.457031 20.875 12.480469 C 20.519531 12.5625 20.183594 12.703125 19.875 12.894531 C 19.789062 12.945312 19.683594 12.945312 19.597656 12.894531 L 18.886719 12.460938 C 18.851562 12.4375 18.824219 12.429688 18.808594 12.429688 L 18.285156 12.957031 C 18.285156 12.96875 18.292969 12.996094 18.316406 13.03125 L 18.75 13.742188 C 18.800781 13.828125 18.800781 13.933594 18.75 14.019531 C 18.558594 14.328125 18.417969 14.667969 18.335938 15.019531 C 18.3125 15.117188 18.238281 15.191406 18.140625 15.214844 L 17.328125 15.410156 C 17.289062 15.421875 17.265625 15.433594 17.253906 15.441406 L 17.253906 16.1875 C 17.265625 16.195312 17.289062 16.207031 17.328125 16.21875 L 18.140625 16.414062 C 18.238281 16.4375 18.3125 16.511719 18.335938 16.609375 C 18.417969 16.964844 18.558594 17.300781 18.75 17.613281 C 18.800781 17.695312 18.800781 17.800781 18.75 17.886719 L 18.316406 18.597656 C 18.292969 18.636719 18.285156 18.660156 18.285156 18.675781 L 18.808594 19.199219 C 18.824219 19.199219 18.851562 19.191406 18.886719 19.167969 L 19.597656 18.734375 C 19.683594 18.683594 19.789062 18.683594 19.875 18.734375 C 20.183594 18.925781 20.519531 19.066406 20.875 19.152344 C 20.972656 19.171875 21.046875 19.25 21.070312 19.34375 L 21.265625 20.15625 C 21.277344 20.195312 21.289062 20.222656 21.296875 20.230469 Z M 21.296875 20.230469 " fill-opacity="1" fill-rule="nonzero"/></g><path fill="#935f3d" d="M 21.667969 18.535156 C 20.171875 18.535156 18.953125 17.316406 18.953125 15.816406 C 18.953125 14.316406 20.171875 13.097656 21.667969 13.097656 C 23.167969 13.097656 24.386719 14.316406 24.386719 15.816406 C 24.386719 17.316406 23.167969 18.535156 21.667969 18.535156 Z M 21.667969 13.625 C 20.460938 13.625 19.476562 14.605469 19.476562 15.816406 C 19.476562 17.027344 20.460938 18.007812 21.667969 18.007812 C 22.878906 18.007812 23.863281 17.027344 23.863281 15.816406 C 23.863281 14.605469 22.878906 13.625 21.667969 13.625 Z M 21.667969 13.625 " fill-opacity="1" fill-rule="nonzero"/><path fill="#935f3d" d="M 21.667969 17.496094 C 20.742188 17.496094 19.988281 16.742188 19.988281 15.816406 C 19.988281 14.890625 20.742188 14.136719 21.667969 14.136719 C 22.597656 14.136719 23.351562 14.890625 23.351562 15.816406 C 23.351562 16.742188 22.597656 17.496094 21.667969 17.496094 Z M 21.667969 14.660156 C 21.03125 14.660156 20.515625 15.179688 20.515625 15.816406 C 20.515625 16.453125 21.03125 16.972656 21.667969 16.972656 C 22.304688 16.972656 22.824219 16.453125 22.824219 15.816406 C 22.824219 15.179688 22.304688 14.660156 21.667969 14.660156 Z M 21.667969 14.660156 " fill-opacity="1" fill-rule="nonzero"/><path fill="#935f3d" d="M 8.558594 17.269531 L 7.609375 17.269531 C 7.464844 17.269531 7.347656 17.152344 7.347656 17.003906 L 7.347656 13.878906 C 7.347656 13.734375 7.464844 13.617188 7.609375 13.617188 L 8.558594 13.617188 C 8.703125 13.617188 8.820312 13.734375 8.820312 13.878906 L 8.820312 17.003906 C 8.820312 17.152344 8.703125 17.269531 8.558594 17.269531 Z M 7.871094 16.742188 L 8.292969 16.742188 L 8.292969 14.140625 L 7.871094 14.140625 Z M 7.871094 16.742188 " fill-opacity="1" fill-rule="nonzero"/><path fill="#935f3d" d="M 14.734375 19.691406 C 14.683594 19.691406 14.636719 19.675781 14.589844 19.648438 C 12.75 18.449219 10.703125 17.648438 8.511719 17.265625 C 8.367188 17.238281 8.273438 17.101562 8.296875 16.960938 C 8.324219 16.816406 8.460938 16.71875 8.601562 16.746094 C 10.863281 17.140625 12.976562 17.96875 14.878906 19.207031 C 15 19.285156 15.03125 19.449219 14.953125 19.570312 C 14.902344 19.648438 14.820312 19.691406 14.734375 19.691406 Z M 8.558594 14.140625 C 8.429688 14.140625 8.320312 14.050781 8.296875 13.925781 C 8.273438 13.78125 8.367188 13.644531 8.511719 13.621094 C 10.703125 13.234375 12.75 12.433594 14.589844 11.238281 C 14.710938 11.15625 14.875 11.191406 14.953125 11.3125 C 15.035156 11.4375 15 11.597656 14.878906 11.675781 C 12.976562 12.914062 10.863281 13.742188 8.601562 14.136719 C 8.585938 14.140625 8.570312 14.140625 8.558594 14.140625 Z M 8.558594 14.140625 " fill-opacity="1" fill-rule="nonzero"/><path fill="#935f3d" d="M 7.609375 17.269531 L 6.492188 17.269531 C 5.734375 17.269531 5.117188 16.648438 5.117188 15.890625 L 5.117188 14.992188 C 5.117188 14.234375 5.734375 13.617188 6.492188 13.617188 L 7.609375 13.617188 C 7.753906 13.617188 7.871094 13.734375 7.871094 13.878906 C 7.871094 14.023438 7.753906 14.140625 7.609375 14.140625 L 6.492188 14.140625 C 6.023438 14.140625 5.640625 14.523438 5.640625 14.992188 L 5.640625 15.890625 C 5.640625 16.359375 6.023438 16.742188 6.492188 16.742188 L 7.609375 16.742188 C 7.753906 16.742188 7.871094 16.859375 7.871094 17.003906 C 7.871094 17.152344 7.753906 17.269531 7.609375 17.269531 Z M 7.609375 17.269531 " fill-opacity="1" fill-rule="nonzero"/><path fill="#935f3d" d="M 15.386719 20.5625 C 14.882812 20.5625 14.472656 20.152344 14.472656 19.644531 L 14.472656 11.238281 C 14.472656 10.734375 14.882812 10.324219 15.386719 10.324219 C 15.894531 10.324219 16.304688 10.734375 16.304688 11.238281 L 16.304688 19.644531 C 16.304688 20.152344 15.894531 20.5625 15.386719 20.5625 Z M 15.386719 10.847656 C 15.171875 10.847656 14.996094 11.023438 14.996094 11.238281 L 14.996094 19.644531 C 14.996094 19.859375 15.171875 20.035156 15.386719 20.035156 C 15.601562 20.035156 15.777344 19.859375 15.777344 19.644531 L 15.777344 11.238281 C 15.777344 11.023438 15.601562 10.847656 15.386719 10.847656 Z M 15.386719 10.847656 " fill-opacity="1" fill-rule="nonzero"/><path fill="#935f3d" d="M 9.402344 21.308594 L 7.132812 21.308594 C 6.898438 21.308594 6.707031 21.117188 6.707031 20.878906 L 6.707031 17.003906 C 6.707031 16.859375 6.824219 16.742188 6.96875 16.742188 C 7.113281 16.742188 7.230469 16.859375 7.230469 17.003906 L 7.230469 20.785156 L 9.308594 20.785156 L 9.308594 20.558594 C 9.308594 20.4375 9.207031 20.335938 9.082031 20.335938 L 8.558594 20.335938 C 8.414062 20.335938 8.292969 20.21875 8.292969 20.074219 L 8.292969 17.003906 C 8.292969 16.859375 8.414062 16.742188 8.558594 16.742188 C 8.703125 16.742188 8.820312 16.859375 8.820312 17.003906 L 8.820312 19.808594 L 9.082031 19.808594 C 9.496094 19.808594 9.832031 20.148438 9.832031 20.558594 L 9.832031 20.878906 C 9.832031 21.117188 9.640625 21.308594 9.402344 21.308594 Z M 9.402344 21.308594 " fill-opacity="1" fill-rule="nonzero"/><path fill="#935f3d" d="M 9.269531 18.800781 L 8.558594 18.800781 C 8.410156 18.800781 8.292969 18.683594 8.292969 18.539062 L 8.292969 17.003906 C 8.292969 16.925781 8.328125 16.855469 8.386719 16.804688 C 8.445312 16.753906 8.523438 16.734375 8.601562 16.746094 C 9.089844 16.832031 9.574219 16.9375 10.046875 17.0625 C 10.160156 17.09375 10.242188 17.195312 10.242188 17.316406 L 10.242188 17.828125 C 10.242188 18.367188 9.804688 18.800781 9.269531 18.800781 Z M 8.820312 18.277344 L 9.269531 18.277344 C 9.515625 18.277344 9.71875 18.074219 9.71875 17.828125 L 9.71875 17.519531 C 9.421875 17.445312 9.121094 17.378906 8.820312 17.320312 Z M 8.820312 18.277344 " fill-opacity="1" fill-rule="nonzero"/><g clip-path="url(#8bab5eb7fd)"><path fill="#935f3d" d="M 20.710938 22.652344 L 4.550781 22.652344 C 3.90625 22.652344 3.386719 22.128906 3.386719 21.488281 L 3.386719 9.246094 C 3.386719 9.097656 3.503906 8.980469 3.648438 8.980469 L 21.613281 8.980469 C 21.757812 8.980469 21.875 9.097656 21.875 9.246094 L 21.875 11.136719 C 21.875 11.28125 21.757812 11.398438 21.613281 11.398438 C 21.46875 11.398438 21.351562 11.28125 21.351562 11.136719 L 21.351562 9.507812 L 3.910156 9.507812 L 3.910156 21.488281 C 3.910156 21.839844 4.195312 22.125 4.550781 22.125 L 20.710938 22.125 C 21.0625 22.125 21.351562 21.839844 21.351562 21.488281 L 21.351562 20.496094 C 21.351562 20.347656 21.46875 20.230469 21.613281 20.230469 C 21.757812 20.230469 21.875 20.347656 21.875 20.496094 L 21.875 21.488281 C 21.875 22.128906 21.355469 22.652344 20.710938 22.652344 Z M 20.710938 22.652344 " fill-opacity="1" fill-rule="nonzero"/></g><g clip-path="url(#81995052f7)"><path fill="#935f3d" d="M 13.378906 9.507812 C 13.347656 9.507812 13.320312 9.503906 13.289062 9.492188 C 13.152344 9.445312 13.082031 9.292969 13.128906 9.15625 L 14.050781 6.554688 C 14.089844 6.449219 14.1875 6.378906 14.300781 6.378906 L 20.71875 6.378906 C 21.355469 6.378906 21.875 6.898438 21.875 7.539062 L 21.875 9.246094 C 21.875 9.390625 21.757812 9.507812 21.613281 9.507812 C 21.46875 9.507812 21.351562 9.390625 21.351562 9.246094 L 21.351562 7.539062 C 21.351562 7.1875 21.066406 6.90625 20.71875 6.90625 L 14.484375 6.90625 L 13.625 9.332031 C 13.585938 9.441406 13.484375 9.507812 13.378906 9.507812 Z M 13.378906 9.507812 " fill-opacity="1" fill-rule="nonzero"/></g><g clip-path="url(#77bc7e8747)"><path fill="#935f3d" d="M 3.648438 9.507812 C 3.503906 9.507812 3.386719 9.390625 3.386719 9.246094 L 3.386719 8.308594 C 3.386719 7.667969 3.90625 7.148438 4.550781 7.148438 L 14.027344 7.148438 C 14.171875 7.148438 14.289062 7.265625 14.289062 7.410156 C 14.289062 7.554688 14.171875 7.671875 14.027344 7.671875 L 4.550781 7.671875 C 4.195312 7.671875 3.910156 7.957031 3.910156 8.308594 L 3.910156 9.246094 C 3.910156 9.390625 3.792969 9.507812 3.648438 9.507812 Z M 3.648438 9.507812 " fill-opacity="1" fill-rule="nonzero"/></g><path fill="#935f3d" d="M 19.933594 8.777344 C 19.472656 8.777344 19.101562 8.402344 19.101562 7.941406 C 19.101562 7.484375 19.472656 7.109375 19.933594 7.109375 C 20.394531 7.109375 20.765625 7.484375 20.765625 7.941406 C 20.765625 8.402344 20.394531 8.777344 19.933594 8.777344 Z M 19.933594 7.636719 C 19.761719 7.636719 19.625 7.773438 19.625 7.941406 C 19.625 8.113281 19.761719 8.25 19.933594 8.25 C 20.101562 8.25 20.242188 8.113281 20.242188 7.941406 C 20.242188 7.773438 20.101562 7.636719 19.933594 7.636719 Z M 19.933594 7.636719 " fill-opacity="1" fill-rule="nonzero"/><path fill="#935f3d" d="M 17.820312 8.777344 C 17.359375 8.777344 16.988281 8.402344 16.988281 7.941406 C 16.988281 7.484375 17.359375 7.109375 17.820312 7.109375 C 18.28125 7.109375 18.652344 7.484375 18.652344 7.941406 C 18.652344 8.402344 18.28125 8.777344 17.820312 8.777344 Z M 17.820312 7.636719 C 17.652344 7.636719 17.511719 7.773438 17.511719 7.941406 C 17.511719 8.113281 17.652344 8.25 17.820312 8.25 C 17.992188 8.25 18.128906 8.113281 18.128906 7.941406 C 18.128906 7.773438 17.992188 7.636719 17.820312 7.636719 Z M 17.820312 7.636719 " fill-opacity="1" fill-rule="nonzero"/><path fill="#935f3d" d="M 15.707031 8.777344 C 15.25 8.777344 14.875 8.402344 14.875 7.941406 C 14.875 7.484375 15.25 7.109375 15.707031 7.109375 C 16.167969 7.109375 16.542969 7.484375 16.542969 7.941406 C 16.542969 8.402344 16.167969 8.777344 15.707031 8.777344 Z M 15.707031 7.636719 C 15.539062 7.636719 15.402344 7.773438 15.402344 7.941406 C 15.402344 8.113281 15.539062 8.25 15.707031 8.25 C 15.878906 8.25 16.015625 8.113281 16.015625 7.941406 C 16.015625 7.773438 15.878906 7.636719 15.707031 7.636719 Z M 15.707031 7.636719 " fill-opacity="1" fill-rule="nonzero"/></svg>