<svg xmlns="http://www.w3.org/2000/svg" xmlns:xlink="http://www.w3.org/1999/xlink" width="40" zoomAndPan="magnify" viewBox="0 0 30 30.000001" height="40" preserveAspectRatio="xMidYMid meet" version="1.0"><defs><clipPath id="09783b064c"><path d="M 0.484375 0 L 29.515625 0 L 29.515625 29.03125 L 0.484375 29.03125 Z M 0.484375 0 " clip-rule="nonzero"/></clipPath><clipPath id="04a82c8712"><path d="M 3.824219 2.902344 L 26.324219 2.902344 L 26.324219 26.855469 L 3.824219 26.855469 Z M 3.824219 2.902344 " clip-rule="nonzero"/></clipPath></defs><g clip-path="url(#09783b064c)"><path fill="#ffffff" d="M 0.484375 0 L 29.515625 0 L 29.515625 29.03125 L 0.484375 29.03125 Z M 0.484375 0 " fill-opacity="1" fill-rule="nonzero"/><path fill="#ffffff" d="M 0.484375 0 L 29.515625 0 L 29.515625 29.03125 L 0.484375 29.03125 Z M 0.484375 0 " fill-opacity="1" fill-rule="nonzero"/></g><g clip-path="url(#04a82c8712)"><path fill="#935f3d" d="M 18.953125 8.214844 C 18.90625 8.125 18.855469 8.035156 18.804688 7.945312 L 21.140625 5.226562 C 21.207031 5.296875 21.277344 5.359375 21.355469 5.414062 Z M 9.308594 9.113281 L 6.378906 10.632812 C 6.429688 10.710938 6.476562 10.796875 6.511719 10.886719 L 9.441406 9.367188 C 9.390625 9.285156 9.347656 9.203125 9.308594 9.113281 Z M 15.113281 10.089844 L 12.3125 8.96875 C 12.285156 9.058594 12.25 9.148438 12.203125 9.234375 L 15.007812 10.355469 C 15.035156 10.265625 15.070312 10.175781 15.113281 10.089844 Z M 6.25 17.773438 C 6.207031 17.730469 6.164062 17.6875 6.121094 17.644531 C 5.460938 16.988281 4.929688 16.234375 4.542969 15.417969 L 3.824219 15.417969 L 3.824219 21.519531 L 6.25 21.519531 Z M 11.996094 17.652344 L 11.996094 13.078125 L 9.570312 13.078125 L 9.570312 17.199219 C 10.273438 17.5 11.03125 17.65625 11.816406 17.65625 C 11.875 17.65625 11.9375 17.65625 11.996094 17.652344 Z M 9.570312 19.691406 L 9.570312 21.519531 L 11.996094 21.519531 L 11.996094 20.003906 C 11.9375 20.003906 11.875 20.003906 11.816406 20.003906 C 11.046875 20.003906 10.292969 19.898438 9.570312 19.691406 Z M 17.214844 13.8125 L 15.320312 13.8125 L 15.320312 16.457031 C 15.503906 16.3125 15.683594 16.152344 15.851562 15.984375 C 16.472656 15.363281 16.933594 14.621094 17.214844 13.8125 Z M 15.320312 19.207031 L 15.320312 21.519531 L 17.746094 21.519531 L 17.746094 20.425781 L 16.097656 18.777344 C 15.84375 18.933594 15.585938 19.078125 15.320312 19.207031 Z M 21.070312 18.65625 L 23.496094 21.082031 L 23.496094 8.699219 L 21.070312 8.699219 Z M 20.90625 23.589844 L 3.824219 23.589844 L 3.824219 24.632812 L 21.953125 24.632812 Z M 6.113281 12.050781 C 6.199219 11.882812 6.25 11.691406 6.25 11.492188 C 6.25 11.347656 6.222656 11.207031 6.179688 11.082031 C 6.128906 11.402344 6.105469 11.726562 6.113281 12.050781 Z M 10.785156 9.722656 C 11.453125 9.722656 11.996094 9.179688 11.996094 8.507812 C 11.996094 7.839844 11.453125 7.296875 10.785156 7.296875 C 10.117188 7.296875 9.570312 7.839844 9.570312 8.507812 C 9.570312 9.179688 10.117188 9.722656 10.785156 9.722656 Z M 16.535156 12.027344 C 16.933594 12.027344 17.289062 11.832031 17.507812 11.535156 C 17.464844 10.90625 17.316406 10.300781 17.078125 9.730469 C 16.914062 9.648438 16.730469 9.601562 16.535156 9.601562 C 15.863281 9.601562 15.320312 10.144531 15.320312 10.816406 C 15.320312 11.484375 15.863281 12.027344 16.535156 12.027344 Z M 22.28125 2.902344 C 21.613281 2.902344 21.070312 3.449219 21.070312 4.117188 C 21.070312 4.785156 21.613281 5.328125 22.28125 5.328125 C 22.949219 5.328125 23.496094 4.785156 23.496094 4.117188 C 23.496094 3.449219 22.949219 2.902344 22.28125 2.902344 Z M 18.425781 16.554688 C 18.160156 16.9375 17.855469 17.304688 17.511719 17.644531 C 17.171875 17.984375 16.804688 18.292969 16.421875 18.5625 L 17.621094 19.761719 L 19.628906 17.753906 Z M 17.890625 20.03125 L 23.941406 26.082031 C 24.25 26.394531 24.671875 26.570312 25.09375 26.570312 C 25.460938 26.570312 25.804688 26.433594 26.050781 26.1875 C 26.605469 25.632812 26.558594 24.6875 25.949219 24.074219 L 19.898438 18.023438 Z M 6.390625 17.375 C 4.941406 15.925781 4.144531 14 4.144531 11.949219 C 4.144531 9.902344 4.941406 7.972656 6.390625 6.523438 C 7.839844 5.074219 9.765625 4.277344 11.816406 4.277344 C 13.867188 4.277344 15.792969 5.074219 17.242188 6.523438 C 20.234375 9.515625 20.234375 14.382812 17.242188 17.375 C 15.792969 18.824219 13.867188 19.625 11.816406 19.625 C 9.765625 19.625 7.839844 18.824219 6.390625 17.375 Z M 7.511719 16.253906 C 8.660156 17.40625 10.191406 18.039062 11.816406 18.039062 C 13.441406 18.039062 14.972656 17.40625 16.121094 16.253906 C 17.273438 15.105469 17.90625 13.578125 17.90625 11.949219 C 17.90625 10.324219 17.273438 8.792969 16.121094 7.644531 C 14.972656 6.496094 13.441406 5.859375 11.816406 5.859375 C 10.191406 5.859375 8.660156 6.496094 7.511719 7.644531 C 5.136719 10.019531 5.136719 13.882812 7.511719 16.253906 Z M 7.511719 16.253906 " fill-opacity="1" fill-rule="nonzero"/></g></svg>