<svg xmlns="http://www.w3.org/2000/svg" xmlns:xlink="http://www.w3.org/1999/xlink" width="40" zoomAndPan="magnify" viewBox="0 0 30 30.000001" height="40" preserveAspectRatio="xMidYMid meet" version="1.0"><defs><clipPath id="00265ceac9"><path d="M 0.484375 0 L 29.515625 0 L 29.515625 29.03125 L 0.484375 29.03125 Z M 0.484375 0 " clip-rule="nonzero"/></clipPath><clipPath id="2baea2afb2"><path d="M 3.386719 4.035156 L 26.613281 4.035156 L 26.613281 25 L 3.386719 25 Z M 3.386719 4.035156 " clip-rule="nonzero"/></clipPath></defs><g clip-path="url(#00265ceac9)"><path fill="#ffffff" d="M 0.484375 0 L 29.515625 0 L 29.515625 29.03125 L 0.484375 29.03125 Z M 0.484375 0 " fill-opacity="1" fill-rule="nonzero"/><path fill="#ffffff" d="M 0.484375 0 L 29.515625 0 L 29.515625 29.03125 L 0.484375 29.03125 Z M 0.484375 0 " fill-opacity="1" fill-rule="nonzero"/></g><g clip-path="url(#2baea2afb2)"><path fill="#935f3d" d="M 21.21875 12.335938 C 21.675781 12.046875 22.003906 11.605469 22.144531 11.078125 C 22.292969 10.527344 22.214844 9.949219 21.929688 9.457031 C 21.355469 8.457031 20.089844 8.101562 19.082031 8.632812 L 17.160156 5.304688 C 16.90625 4.863281 16.492188 4.550781 16 4.417969 C 15.507812 4.285156 14.992188 4.351562 14.550781 4.605469 C 14.113281 4.859375 13.796875 5.273438 13.664062 5.765625 C 13.5625 6.136719 13.578125 6.519531 13.699219 6.875 C 12.785156 9.175781 10.855469 11.519531 8.234375 13.523438 C 8.191406 13.496094 8.148438 13.472656 8.097656 13.460938 C 7.984375 13.429688 7.859375 13.445312 7.757812 13.507812 L 5.304688 14.921875 C 4.480469 15.398438 3.890625 16.171875 3.640625 17.09375 C 3.394531 18.019531 3.519531 18.984375 3.996094 19.808594 C 4.65625 20.957031 5.863281 21.597656 7.101562 21.597656 C 7.707031 21.597656 8.320312 21.445312 8.882812 21.121094 L 9.023438 21.039062 L 11.726562 24.570312 C 11.914062 24.8125 12.175781 24.957031 12.480469 24.984375 C 12.515625 24.988281 12.550781 24.988281 12.585938 24.988281 C 12.851562 24.988281 13.09375 24.894531 13.296875 24.710938 L 14.042969 24.035156 C 14.457031 23.660156 14.511719 23.039062 14.171875 22.59375 L 11.632812 19.253906 C 14.652344 18.003906 17.621094 17.515625 20.050781 17.875 C 20.417969 18.292969 20.949219 18.527344 21.488281 18.527344 C 21.8125 18.527344 22.140625 18.445312 22.441406 18.269531 C 23.351562 17.742188 23.667969 16.574219 23.140625 15.664062 Z M 21.148438 9.90625 C 21.3125 10.191406 21.359375 10.527344 21.273438 10.84375 C 21.195312 11.136719 21.015625 11.386719 20.765625 11.550781 L 19.53125 9.414062 C 20.109375 9.128906 20.820312 9.339844 21.148438 9.90625 Z M 7.097656 20.699219 C 6.171875 20.695312 5.269531 20.21875 4.777344 19.359375 C 4.421875 18.742188 4.328125 18.023438 4.511719 17.328125 C 4.699219 16.636719 5.140625 16.058594 5.753906 15.703125 L 7.816406 14.511719 L 10.492188 19.148438 L 8.433594 20.339844 C 8.011719 20.582031 7.550781 20.699219 7.097656 20.699219 Z M 13.433594 23.367188 L 12.691406 24.042969 C 12.652344 24.078125 12.613281 24.089844 12.5625 24.085938 C 12.507812 24.082031 12.476562 24.0625 12.445312 24.019531 L 9.8125 20.585938 L 10.992188 19.902344 L 13.457031 23.140625 C 13.507812 23.210938 13.5 23.308594 13.433594 23.367188 Z M 11.148438 18.476562 L 8.726562 14.28125 C 11.25 12.367188 13.175781 10.128906 14.242188 7.886719 L 19.445312 16.898438 C 16.96875 16.699219 14.070312 17.25 11.148438 18.476562 Z M 21.988281 17.488281 C 21.507812 17.765625 20.890625 17.601562 20.613281 17.121094 L 14.632812 6.761719 C 14.355469 6.28125 14.523438 5.664062 15.003906 5.386719 C 15.15625 5.296875 15.328125 5.253906 15.5 5.253906 C 15.589844 5.253906 15.679688 5.265625 15.765625 5.289062 C 16.027344 5.359375 16.246094 5.523438 16.378906 5.753906 L 22.359375 16.113281 C 22.636719 16.59375 22.472656 17.210938 21.988281 17.488281 Z M 22.480469 9.136719 C 22.355469 8.921875 22.429688 8.644531 22.644531 8.523438 L 24.457031 7.476562 C 24.671875 7.351562 24.949219 7.425781 25.070312 7.640625 C 25.195312 7.855469 25.121094 8.132812 24.90625 8.257812 L 23.097656 9.304688 C 23.027344 9.34375 22.949219 9.363281 22.871094 9.363281 C 22.714844 9.363281 22.5625 9.28125 22.480469 9.136719 Z M 20.394531 6.234375 L 21.496094 4.324219 C 21.621094 4.109375 21.894531 4.035156 22.113281 4.160156 C 22.328125 4.28125 22.402344 4.558594 22.277344 4.773438 L 21.175781 6.683594 C 21.089844 6.828125 20.9375 6.910156 20.785156 6.910156 C 20.707031 6.910156 20.628906 6.890625 20.558594 6.847656 C 20.34375 6.726562 20.269531 6.449219 20.394531 6.234375 Z M 26.609375 11.945312 C 26.609375 12.195312 26.40625 12.398438 26.15625 12.398438 L 23.953125 12.398438 C 23.703125 12.398438 23.5 12.195312 23.5 11.945312 C 23.5 11.699219 23.703125 11.496094 23.953125 11.496094 L 26.15625 11.496094 C 26.40625 11.496094 26.609375 11.699219 26.609375 11.945312 Z M 26.609375 11.945312 " fill-opacity="1" fill-rule="nonzero"/></g></svg>