<svg xmlns="http://www.w3.org/2000/svg" xmlns:xlink="http://www.w3.org/1999/xlink" width="40" zoomAndPan="magnify" viewBox="0 0 30 30.000001" height="40" preserveAspectRatio="xMidYMid meet" version="1.0"><defs><clipPath id="e6a8e20631"><path d="M 0.484375 0 L 29.515625 0 L 29.515625 29.03125 L 0.484375 29.03125 Z M 0.484375 0 " clip-rule="nonzero"/></clipPath><clipPath id="8dd4f4c22c"><path d="M 3.386719 3.441406 L 26.613281 3.441406 L 26.613281 25.941406 L 3.386719 25.941406 Z M 3.386719 3.441406 " clip-rule="nonzero"/></clipPath></defs><g clip-path="url(#e6a8e20631)"><path fill="#ffffff" d="M 0.484375 0 L 29.515625 0 L 29.515625 29.03125 L 0.484375 29.03125 Z M 0.484375 0 " fill-opacity="1" fill-rule="nonzero"/><path fill="#ffffff" d="M 0.484375 0 L 29.515625 0 L 29.515625 29.03125 L 0.484375 29.03125 Z M 0.484375 0 " fill-opacity="1" fill-rule="nonzero"/></g><g clip-path="url(#8dd4f4c22c)"><path fill="#935f3d" d="M 23.007812 6.390625 C 23.558594 6.390625 24.007812 5.941406 24.007812 5.390625 C 24.007812 4.839844 23.558594 4.390625 23.007812 4.390625 C 22.457031 4.390625 22.011719 4.839844 22.011719 5.390625 C 22.011719 5.941406 22.457031 6.390625 23.007812 6.390625 Z M 6.953125 21.152344 C 7.5 21.152344 7.953125 20.703125 7.953125 20.152344 C 7.953125 19.601562 7.5 19.15625 6.953125 19.15625 C 6.402344 19.15625 5.953125 19.601562 5.953125 20.152344 C 5.957031 20.703125 6.402344 21.152344 6.953125 21.152344 Z M 23.726562 6.734375 L 22.292969 6.734375 C 21.480469 6.734375 20.824219 7.460938 20.824219 8.359375 L 20.824219 9.105469 C 20.3125 8.5625 19.996094 7.832031 19.996094 7.03125 C 19.996094 5.371094 21.347656 4.019531 23.007812 4.019531 C 24.667969 4.019531 26.019531 5.371094 26.019531 7.03125 C 26.019531 7.832031 25.703125 8.5625 25.195312 9.105469 L 25.195312 8.359375 C 25.195312 7.460938 24.535156 6.734375 23.726562 6.734375 Z M 22.71875 10.609375 C 20.875 10.460938 19.417969 8.914062 19.417969 7.03125 C 19.417969 5.054688 21.027344 3.441406 23.007812 3.441406 C 24.988281 3.441406 26.597656 5.054688 26.597656 7.03125 C 26.597656 8.914062 25.144531 10.460938 23.296875 10.609375 L 23.296875 11.699219 C 23.296875 12.289062 22.816406 12.769531 22.226562 12.769531 L 21.152344 12.769531 C 21.300781 13.304688 21.375 13.867188 21.375 14.445312 C 21.375 14.710938 21.359375 14.976562 21.328125 15.234375 L 21.613281 15.144531 C 21.601562 14.820312 21.71875 14.507812 21.941406 14.265625 C 22.164062 14.027344 22.46875 13.886719 22.800781 13.875 C 23.128906 13.863281 23.441406 13.980469 23.683594 14.203125 C 23.925781 14.425781 24.0625 14.734375 24.074219 15.0625 C 24.085938 15.390625 23.972656 15.703125 23.746094 15.945312 C 23.523438 16.1875 23.21875 16.324219 22.890625 16.335938 C 22.875 16.339844 22.859375 16.339844 22.84375 16.339844 C 22.382812 16.339844 21.976562 16.082031 21.765625 15.703125 L 21.214844 15.871094 C 21.082031 16.449219 20.875 16.992188 20.597656 17.5 L 23.207031 18.097656 C 23.40625 17.722656 23.792969 17.457031 24.25 17.441406 C 24.929688 17.417969 25.503906 17.949219 25.527344 18.628906 C 25.550781 19.308594 25.019531 19.882812 24.339844 19.90625 C 24.324219 19.90625 24.308594 19.90625 24.292969 19.90625 C 23.980469 19.90625 23.683594 19.792969 23.457031 19.578125 C 23.214844 19.351562 23.074219 19.046875 23.0625 18.71875 C 23.0625 18.699219 23.0625 18.675781 23.0625 18.65625 L 20.277344 18.019531 C 20.023438 18.394531 19.730469 18.738281 19.40625 19.050781 L 23.632812 22.984375 C 23.824219 22.847656 24.054688 22.765625 24.304688 22.753906 C 24.984375 22.730469 25.554688 23.261719 25.582031 23.941406 C 25.59375 24.273438 25.476562 24.585938 25.25 24.828125 C 25.027344 25.066406 24.722656 25.207031 24.394531 25.21875 C 24.378906 25.21875 24.363281 25.21875 24.347656 25.21875 C 24.035156 25.21875 23.738281 25.105469 23.511719 24.890625 C 23.269531 24.667969 23.128906 24.359375 23.117188 24.03125 C 23.109375 23.8125 23.160156 23.601562 23.253906 23.417969 L 18.96875 19.433594 C 18.691406 19.65625 18.394531 19.851562 18.082031 20.027344 L 19.035156 23.125 C 19.691406 23.125 20.242188 23.648438 20.265625 24.3125 C 20.277344 24.644531 20.160156 24.957031 19.9375 25.199219 C 19.710938 25.441406 19.40625 25.578125 19.078125 25.589844 C 19.0625 25.589844 19.046875 25.589844 19.03125 25.589844 C 18.375 25.589844 17.824219 25.066406 17.800781 24.402344 C 17.789062 24.074219 17.90625 23.761719 18.128906 23.519531 C 18.230469 23.414062 18.34375 23.328125 18.46875 23.261719 L 17.554688 20.285156 C 17.171875 20.453125 16.773438 20.585938 16.359375 20.675781 L 16.007812 22.207031 C 16.378906 22.40625 16.640625 22.792969 16.652344 23.246094 C 16.679688 23.925781 16.148438 24.5 15.46875 24.523438 C 15.453125 24.523438 15.4375 24.523438 15.421875 24.523438 C 15.109375 24.523438 14.8125 24.410156 14.582031 24.195312 C 14.339844 23.972656 14.203125 23.667969 14.191406 23.335938 C 14.167969 22.65625 14.699219 22.085938 15.375 22.058594 C 15.398438 22.058594 15.425781 22.058594 15.445312 22.058594 L 15.738281 20.777344 C 15.5 20.804688 15.25 20.820312 15 20.820312 C 12.277344 20.820312 9.949219 19.105469 9.039062 16.699219 L 7.777344 16.699219 C 7.503906 16.699219 7.285156 16.917969 7.285156 17.191406 L 7.285156 18.28125 C 9.128906 18.429688 10.585938 19.976562 10.585938 21.859375 C 10.585938 23.839844 8.972656 25.449219 6.996094 25.449219 C 5.015625 25.449219 3.402344 23.839844 3.402344 21.859375 C 3.402344 19.976562 4.863281 18.429688 6.707031 18.28125 L 6.707031 17.191406 C 6.707031 16.601562 7.1875 16.121094 7.777344 16.121094 L 8.851562 16.121094 C 8.703125 15.585938 8.625 15.023438 8.625 14.445312 C 8.625 14.222656 8.636719 14.003906 8.660156 13.785156 L 7.53125 14.089844 C 7.53125 14.113281 7.53125 14.136719 7.53125 14.15625 C 7.53125 14.839844 6.976562 15.390625 6.296875 15.390625 C 5.617188 15.390625 5.066406 14.839844 5.066406 14.15625 C 5.066406 13.476562 5.617188 12.925781 6.296875 12.925781 C 6.75 12.925781 7.148438 13.171875 7.363281 13.535156 L 8.753906 13.164062 C 8.847656 12.722656 8.980469 12.300781 9.160156 11.898438 L 6.21875 11.113281 C 6.023438 11.53125 5.597656 11.824219 5.101562 11.824219 C 4.421875 11.824219 3.871094 11.269531 3.871094 10.589844 C 3.871094 9.910156 4.421875 9.355469 5.101562 9.355469 C 5.765625 9.355469 6.3125 9.886719 6.335938 10.542969 L 9.417969 11.371094 C 9.597656 11.054688 9.796875 10.753906 10.023438 10.472656 L 5.886719 6.335938 C 5.710938 6.4375 5.5 6.496094 5.28125 6.496094 C 4.601562 6.496094 4.046875 5.945312 4.046875 5.265625 C 4.046875 4.585938 4.601562 4.03125 5.28125 4.03125 C 5.960938 4.03125 6.511719 4.585938 6.511719 5.265625 C 6.511719 5.515625 6.4375 5.746094 6.308594 5.941406 L 10.402344 10.035156 C 10.707031 9.71875 11.046875 9.429688 11.410156 9.179688 L 10.65625 6.355469 C 10.632812 6.359375 10.613281 6.359375 10.59375 6.359375 C 9.914062 6.359375 9.359375 5.804688 9.359375 5.125 C 9.359375 4.445312 9.914062 3.894531 10.59375 3.894531 C 11.269531 3.894531 11.824219 4.445312 11.824219 5.125 C 11.824219 5.582031 11.574219 5.980469 11.207031 6.191406 L 11.921875 8.863281 C 12.402344 8.597656 12.917969 8.394531 13.460938 8.257812 L 13.652344 7.542969 C 13.25 7.339844 12.976562 6.925781 12.976562 6.445312 C 12.976562 5.765625 13.53125 5.214844 14.210938 5.214844 C 14.890625 5.214844 15.441406 5.765625 15.441406 6.445312 C 15.441406 7.125 14.890625 7.675781 14.214844 7.679688 L 14.09375 8.136719 C 14.390625 8.09375 14.691406 8.070312 15 8.070312 C 17.722656 8.070312 20.054688 9.785156 20.964844 12.195312 L 22.226562 12.195312 C 22.496094 12.195312 22.71875 11.972656 22.71875 11.699219 Z M 10.007812 21.859375 C 10.007812 22.660156 9.691406 23.390625 9.183594 23.929688 L 9.183594 23.1875 C 9.183594 22.289062 8.523438 21.558594 7.714844 21.558594 L 6.28125 21.558594 C 5.46875 21.558594 4.8125 22.289062 4.8125 23.1875 L 4.8125 23.929688 C 4.300781 23.390625 3.984375 22.660156 3.984375 21.859375 C 3.984375 20.195312 5.335938 18.847656 6.996094 18.847656 C 8.65625 18.847656 10.007812 20.195312 10.007812 21.859375 Z M 13.871094 12.363281 L 13.289062 12.253906 C 13.121094 12.222656 12.945312 12.171875 12.796875 12.085938 L 12.773438 12.074219 L 13.003906 11.742188 L 11.542969 10.738281 L 9.230469 14.097656 L 10.6875 15.101562 L 10.863281 14.851562 C 10.960938 14.996094 11.074219 15.132812 11.195312 15.261719 L 11.320312 15.390625 L 11.277344 15.445312 C 11.078125 15.734375 11.148438 16.132812 11.4375 16.335938 C 11.5 16.382812 11.570312 16.410156 11.640625 16.429688 C 11.582031 16.550781 11.5625 16.691406 11.585938 16.824219 C 11.617188 16.992188 11.710938 17.136719 11.851562 17.234375 C 11.992188 17.332031 12.160156 17.367188 12.328125 17.339844 C 12.425781 17.320312 12.519531 17.28125 12.597656 17.222656 C 12.640625 17.289062 12.699219 17.351562 12.773438 17.402344 C 12.949219 17.527344 13.175781 17.546875 13.367188 17.472656 C 13.414062 17.574219 13.484375 17.660156 13.578125 17.730469 C 13.71875 17.828125 13.890625 17.863281 14.058594 17.835938 C 14.226562 17.804688 14.375 17.710938 14.472656 17.570312 L 14.511719 17.507812 L 15.238281 17.964844 C 15.390625 18.0625 15.578125 18.09375 15.753906 18.050781 C 15.933594 18.011719 16.089844 17.902344 16.1875 17.746094 C 16.238281 17.660156 16.269531 17.566406 16.285156 17.472656 C 16.394531 17.503906 16.507812 17.507812 16.621094 17.484375 C 16.800781 17.445312 16.957031 17.335938 17.054688 17.183594 L 17.058594 17.175781 L 17.0625 17.171875 C 17.121094 17.078125 17.152344 16.972656 17.160156 16.863281 C 17.242188 16.875 17.328125 16.875 17.410156 16.855469 C 17.585938 16.816406 17.738281 16.707031 17.835938 16.558594 L 17.839844 16.550781 L 17.84375 16.546875 C 17.921875 16.421875 17.953125 16.28125 17.945312 16.136719 C 18.148438 16.117188 18.34375 16.007812 18.460938 15.824219 C 18.5625 15.667969 18.59375 15.476562 18.550781 15.296875 C 18.539062 15.253906 18.527344 15.214844 18.511719 15.175781 C 18.722656 15.101562 18.921875 14.976562 19.089844 14.824219 L 19.097656 14.816406 L 19.3125 15.132812 L 20.773438 14.128906 L 18.460938 10.769531 L 17 11.773438 L 17.242188 12.125 C 16.914062 12.15625 16.582031 12.121094 16.28125 11.972656 C 16.027344 11.84375 15.761719 11.832031 15.488281 11.894531 C 14.9375 12.019531 14.402344 12.167969 13.871094 12.363281 Z M 20.078125 14 L 18.332031 11.46875 L 17.699219 11.902344 L 19.441406 14.4375 Z M 10.5625 14.40625 L 12.304688 11.871094 L 11.671875 11.433594 L 9.929688 13.96875 Z M 11.914062 15.890625 L 12.328125 15.300781 C 12.355469 15.261719 12.351562 15.21875 12.347656 15.199219 C 12.34375 15.175781 12.332031 15.136719 12.292969 15.109375 C 12.253906 15.082031 12.210938 15.085938 12.191406 15.085938 C 12.167969 15.089844 12.128906 15.105469 12.101562 15.144531 L 11.691406 15.734375 C 11.648438 15.796875 11.664062 15.882812 11.722656 15.925781 C 11.785156 15.96875 11.875 15.953125 11.914062 15.890625 Z M 12.328125 16.789062 L 13.3125 15.378906 C 13.339844 15.335938 13.335938 15.296875 13.332031 15.273438 C 13.328125 15.253906 13.316406 15.214844 13.277344 15.1875 C 13.25 15.167969 13.222656 15.164062 13.199219 15.164062 C 13.191406 15.164062 13.183594 15.164062 13.175781 15.164062 C 13.15625 15.167969 13.113281 15.179688 13.085938 15.21875 L 12.390625 16.222656 C 12.390625 16.222656 12.390625 16.222656 12.386719 16.222656 L 12.105469 16.632812 C 12.078125 16.671875 12.078125 16.714844 12.082031 16.734375 C 12.085938 16.753906 12.097656 16.796875 12.140625 16.824219 C 12.179688 16.851562 12.21875 16.847656 12.242188 16.84375 C 12.261719 16.839844 12.300781 16.828125 12.328125 16.789062 Z M 13.25 16.957031 L 13.789062 16.183594 C 13.832031 16.121094 13.816406 16.035156 13.753906 15.992188 C 13.714844 15.964844 13.671875 15.964844 13.652344 15.96875 C 13.632812 15.972656 13.59375 15.984375 13.5625 16.027344 L 13.023438 16.800781 C 12.980469 16.859375 12.996094 16.949219 13.058594 16.992188 C 13.117188 17.035156 13.207031 17.019531 13.25 16.957031 Z M 14.398438 16.726562 C 14.394531 16.703125 14.382812 16.664062 14.34375 16.636719 C 14.304688 16.609375 14.261719 16.613281 14.242188 16.613281 C 14.21875 16.617188 14.179688 16.628906 14.152344 16.671875 L 13.835938 17.128906 C 13.792969 17.1875 13.808594 17.277344 13.871094 17.316406 C 13.910156 17.347656 13.949219 17.34375 13.972656 17.339844 C 13.992188 17.335938 14.03125 17.324219 14.058594 17.285156 L 14.378906 16.828125 C 14.40625 16.789062 14.402344 16.746094 14.398438 16.726562 Z M 17.984375 15.296875 L 15.355469 13.644531 L 14.808594 13.605469 C 13.984375 14.46875 13.246094 14.308594 12.769531 14.019531 C 12.6875 13.96875 12.628906 13.886719 12.609375 13.792969 C 12.589844 13.699219 12.609375 13.601562 12.664062 13.519531 L 13.164062 12.785156 C 13.175781 12.773438 13.183594 12.757812 13.195312 12.746094 C 12.980469 12.707031 12.753906 12.636719 12.554688 12.527344 L 11.214844 14.472656 C 11.304688 14.621094 11.414062 14.769531 11.554688 14.914062 L 11.628906 14.816406 C 11.734375 14.660156 11.898438 14.554688 12.085938 14.519531 C 12.273438 14.488281 12.464844 14.527344 12.621094 14.636719 C 12.667969 14.667969 12.707031 14.707031 12.746094 14.746094 C 12.835938 14.671875 12.949219 14.617188 13.070312 14.597656 C 13.257812 14.5625 13.449219 14.605469 13.605469 14.710938 C 13.761719 14.820312 13.867188 14.984375 13.898438 15.171875 C 13.914062 15.257812 13.914062 15.34375 13.898438 15.425781 C 13.964844 15.445312 14.027344 15.476562 14.082031 15.519531 C 14.238281 15.625 14.34375 15.789062 14.378906 15.976562 C 14.382812 16 14.386719 16.023438 14.386719 16.046875 C 14.488281 16.0625 14.585938 16.101562 14.671875 16.164062 C 14.828125 16.273438 14.933594 16.4375 14.96875 16.625 C 15 16.804688 14.964844 16.984375 14.863281 17.136719 L 15.503906 17.542969 C 15.546875 17.566406 15.59375 17.574219 15.644531 17.566406 C 15.695312 17.554688 15.734375 17.523438 15.761719 17.484375 C 15.785156 17.441406 15.796875 17.390625 15.785156 17.34375 C 15.773438 17.292969 15.742188 17.253906 15.703125 17.226562 L 15.707031 17.21875 L 15.242188 16.917969 C 15.109375 16.832031 15.074219 16.652344 15.160156 16.519531 C 15.246094 16.386719 15.425781 16.347656 15.558594 16.433594 L 16.382812 16.972656 C 16.433594 17.003906 16.488281 17 16.511719 16.996094 C 16.5625 16.984375 16.609375 16.953125 16.636719 16.910156 C 16.660156 16.867188 16.667969 16.820312 16.65625 16.769531 C 16.648438 16.722656 16.617188 16.679688 16.578125 16.65625 C 16.566406 16.648438 16.558594 16.644531 16.550781 16.636719 L 15.546875 15.996094 C 15.414062 15.910156 15.375 15.734375 15.457031 15.597656 C 15.546875 15.464844 15.722656 15.425781 15.859375 15.511719 L 17.164062 16.34375 C 17.203125 16.367188 17.253906 16.375 17.300781 16.367188 C 17.351562 16.355469 17.390625 16.324219 17.417969 16.285156 C 17.445312 16.242188 17.453125 16.191406 17.441406 16.144531 C 17.429688 16.09375 17.402344 16.054688 17.359375 16.027344 L 15.855469 15.078125 C 15.71875 14.992188 15.679688 14.816406 15.765625 14.679688 C 15.851562 14.546875 16.027344 14.503906 16.160156 14.589844 L 17.785156 15.609375 C 17.871094 15.664062 17.988281 15.636719 18.039062 15.554688 C 18.066406 15.511719 18.074219 15.460938 18.0625 15.414062 C 18.050781 15.363281 18.023438 15.324219 17.984375 15.296875 Z M 18.753906 14.453125 L 17.480469 12.601562 C 16.949219 12.6875 16.46875 12.625 16.058594 12.421875 C 15.925781 12.355469 15.785156 12.34375 15.597656 12.382812 C 15.003906 12.515625 14.519531 12.65625 14.03125 12.839844 C 13.839844 12.910156 13.726562 12.992188 13.644531 13.113281 L 13.289062 13.628906 C 13.566406 13.722656 13.945312 13.695312 14.425781 13.171875 C 14.519531 13.070312 14.652344 13.015625 14.789062 13.027344 L 15.464844 13.070312 C 15.515625 13.074219 15.5625 13.089844 15.601562 13.117188 L 18.195312 14.75 C 18.398438 14.707031 18.589844 14.601562 18.753906 14.453125 Z M 18.753906 14.453125 " fill-opacity="1" fill-rule="evenodd"/></g></svg>