<svg xmlns="http://www.w3.org/2000/svg" xmlns:xlink="http://www.w3.org/1999/xlink" width="40" zoomAndPan="magnify" viewBox="0 0 30 30.000001" height="40" preserveAspectRatio="xMidYMid meet" version="1.0"><defs><clipPath id="fae8575e87"><path d="M 0.484375 0 L 29.515625 0 L 29.515625 29.03125 L 0.484375 29.03125 Z M 0.484375 0 " clip-rule="nonzero"/></clipPath><clipPath id="3dd854d3aa"><path d="M 3.386719 6.054688 L 23 6.054688 L 23 22 L 3.386719 22 Z M 3.386719 6.054688 " clip-rule="nonzero"/></clipPath><clipPath id="6e99ac9806"><path d="M 16 12 L 26.613281 12 L 26.613281 22.746094 L 16 22.746094 Z M 16 12 " clip-rule="nonzero"/></clipPath></defs><g clip-path="url(#fae8575e87)"><path fill="#ffffff" d="M 0.484375 0 L 29.515625 0 L 29.515625 29.03125 L 0.484375 29.03125 Z M 0.484375 0 " fill-opacity="1" fill-rule="nonzero"/><path fill="#ffffff" d="M 0.484375 0 L 29.515625 0 L 29.515625 29.03125 L 0.484375 29.03125 Z M 0.484375 0 " fill-opacity="1" fill-rule="nonzero"/></g><g clip-path="url(#3dd854d3aa)"><path fill="#935f3d" d="M 20.125 18.957031 L 19.097656 17.933594 L 4.726562 17.933594 C 4.554688 17.933594 4.414062 17.792969 4.414062 17.621094 L 4.414062 7.441406 C 4.414062 7.269531 4.554688 7.128906 4.726562 7.128906 L 21.390625 7.128906 C 21.5625 7.128906 21.703125 7.269531 21.703125 7.441406 L 21.703125 15.492188 L 22.730469 16.519531 L 22.730469 7.441406 C 22.730469 6.703125 22.128906 6.101562 21.390625 6.101562 L 4.726562 6.101562 C 3.988281 6.101562 3.386719 6.703125 3.386719 7.441406 L 3.386719 17.621094 C 3.386719 18.359375 3.988281 18.957031 4.726562 18.957031 L 10.867188 18.957031 L 10.867188 19.9375 L 10.328125 19.9375 C 9.363281 19.9375 8.578125 20.722656 8.578125 21.6875 L 17.539062 21.6875 C 17.539062 20.722656 16.753906 19.9375 15.789062 19.9375 L 15.253906 19.9375 L 15.253906 18.957031 L 20.125 18.957031 " fill-opacity="1" fill-rule="nonzero"/></g><path fill="#935f3d" d="M 6.40625 8.546875 C 6.40625 8.261719 6.175781 8.035156 5.894531 8.035156 C 5.609375 8.035156 5.382812 8.261719 5.382812 8.546875 C 5.382812 8.828125 5.609375 9.058594 5.894531 9.058594 C 6.175781 9.058594 6.40625 8.828125 6.40625 8.546875 " fill-opacity="1" fill-rule="nonzero"/><path fill="#935f3d" d="M 8.265625 8.546875 C 8.265625 8.261719 8.035156 8.035156 7.753906 8.035156 C 7.46875 8.035156 7.242188 8.261719 7.242188 8.546875 C 7.242188 8.828125 7.46875 9.058594 7.753906 9.058594 C 8.035156 9.058594 8.265625 8.828125 8.265625 8.546875 " fill-opacity="1" fill-rule="nonzero"/><path fill="#935f3d" d="M 9.609375 9.058594 C 9.894531 9.058594 10.125 8.828125 10.125 8.546875 C 10.125 8.261719 9.894531 8.035156 9.609375 8.035156 C 9.328125 8.035156 9.097656 8.261719 9.097656 8.546875 C 9.097656 8.828125 9.328125 9.058594 9.609375 9.058594 " fill-opacity="1" fill-rule="nonzero"/><path fill="#935f3d" d="M 19.191406 8.953125 L 19.757812 8.28125 C 19.476562 8.125 19.152344 8.035156 18.808594 8.035156 C 18.050781 8.035156 17.394531 8.46875 17.070312 9.097656 L 17.925781 9.328125 C 18.125 9.058594 18.445312 8.882812 18.808594 8.882812 C 18.941406 8.882812 19.070312 8.90625 19.191406 8.953125 " fill-opacity="1" fill-rule="nonzero"/><path fill="#935f3d" d="M 20.753906 9.980469 C 20.753906 9.519531 20.59375 9.09375 20.320312 8.757812 L 19.757812 9.429688 C 19.851562 9.589844 19.90625 9.78125 19.90625 9.980469 C 19.90625 10.027344 19.90625 10.070312 19.898438 10.117188 L 20.660156 10.578125 C 20.722656 10.390625 20.753906 10.191406 20.753906 9.980469 " fill-opacity="1" fill-rule="nonzero"/><path fill="#935f3d" d="M 18.238281 11.84375 L 18.375 10.992188 C 17.996094 10.832031 17.726562 10.464844 17.707031 10.03125 L 16.867188 9.808594 C 16.863281 9.863281 16.859375 9.921875 16.859375 9.980469 C 16.859375 10.859375 17.441406 11.601562 18.238281 11.84375 " fill-opacity="1" fill-rule="nonzero"/><path fill="#935f3d" d="M 20.304688 11.226562 L 19.566406 10.777344 C 19.375 10.960938 19.121094 11.074219 18.839844 11.082031 L 18.703125 11.925781 C 18.738281 11.929688 18.773438 11.929688 18.808594 11.929688 C 19.40625 11.929688 19.945312 11.65625 20.304688 11.226562 " fill-opacity="1" fill-rule="nonzero"/><path fill="#935f3d" d="M 6.921875 17.019531 L 7.699219 17.019531 L 7.699219 12.019531 L 6.921875 12.019531 L 6.921875 17.019531 " fill-opacity="1" fill-rule="nonzero"/><path fill="#935f3d" d="M 8.464844 17.019531 L 9.238281 17.019531 L 9.238281 10.773438 L 8.464844 10.773438 L 8.464844 17.019531 " fill-opacity="1" fill-rule="nonzero"/><path fill="#935f3d" d="M 10.78125 13.886719 L 10.007812 13.886719 L 10.007812 17.019531 L 10.78125 17.019531 L 10.78125 13.886719 " fill-opacity="1" fill-rule="nonzero"/><path fill="#935f3d" d="M 5.382812 17.019531 L 6.15625 17.019531 L 6.15625 13.660156 L 5.382812 13.660156 L 5.382812 17.019531 " fill-opacity="1" fill-rule="nonzero"/><path fill="#935f3d" d="M 17.148438 12.949219 L 12.242188 12.949219 L 12.242188 13.894531 L 15.9375 13.894531 C 16.109375 13.628906 16.410156 13.453125 16.742188 13.453125 C 16.996094 13.453125 17.117188 13.234375 17.148438 12.949219 " fill-opacity="1" fill-rule="nonzero"/><path fill="#935f3d" d="M 12.242188 14.675781 L 12.242188 15.027344 L 15.753906 15.027344 C 15.742188 14.910156 15.738281 14.792969 15.746094 14.675781 L 12.242188 14.675781 " fill-opacity="1" fill-rule="nonzero"/><path fill="#935f3d" d="M 12.242188 16.023438 L 16.042969 16.023438 C 15.984375 15.910156 15.933594 15.792969 15.890625 15.671875 L 12.242188 15.671875 L 12.242188 16.023438 " fill-opacity="1" fill-rule="nonzero"/><path fill="#935f3d" d="M 12.242188 17.019531 L 16.910156 17.019531 C 16.78125 16.925781 16.65625 16.824219 16.542969 16.710938 C 16.527344 16.695312 16.515625 16.683594 16.503906 16.667969 L 12.242188 16.667969 L 12.242188 17.019531 " fill-opacity="1" fill-rule="nonzero"/><g clip-path="url(#6e99ac9806)"><path fill="#935f3d" d="M 25.308594 21.621094 C 25.058594 21.871094 24.722656 21.988281 24.390625 21.96875 C 24.113281 21.949219 23.835938 21.835938 23.625 21.621094 C 23.160156 21.15625 23.160156 20.398438 23.625 19.9375 C 24.085938 19.46875 24.84375 19.46875 25.308594 19.9375 C 25.523438 20.148438 25.636719 20.421875 25.65625 20.703125 C 25.675781 21.03125 25.5625 21.371094 25.308594 21.621094 Z M 25.855469 19.390625 C 25.316406 18.851562 24.542969 18.691406 23.863281 18.910156 L 20.238281 15.285156 C 20.414062 14.664062 20.257812 13.96875 19.769531 13.484375 C 19.3125 13.027344 18.671875 12.859375 18.085938 12.984375 C 18.03125 12.996094 18.011719 13.0625 18.050781 13.097656 L 19.28125 14.328125 C 19.355469 14.402344 19.355469 14.519531 19.28125 14.59375 L 18.28125 15.59375 C 18.207031 15.667969 18.089844 15.667969 18.019531 15.59375 L 16.789062 14.363281 C 16.75 14.324219 16.683594 14.34375 16.671875 14.398438 C 16.546875 14.984375 16.714844 15.625 17.171875 16.082031 C 17.65625 16.566406 18.351562 16.722656 18.972656 16.546875 L 22.597656 20.175781 C 22.378906 20.851562 22.539062 21.628906 23.078125 22.167969 C 23.84375 22.933594 25.089844 22.933594 25.855469 22.167969 C 26.621094 21.402344 26.621094 20.15625 25.855469 19.390625 " fill-opacity="1" fill-rule="nonzero"/></g></svg>