<svg xmlns="http://www.w3.org/2000/svg" xmlns:xlink="http://www.w3.org/1999/xlink" width="40" zoomAndPan="magnify" viewBox="0 0 30 30.000001" height="40" preserveAspectRatio="xMidYMid meet" version="1.0"><defs><clipPath id="ecc931ebdc"><path d="M 0.484375 0 L 29.515625 0 L 29.515625 29.03125 L 0.484375 29.03125 Z M 0.484375 0 " clip-rule="nonzero"/></clipPath><clipPath id="0f3b72c786"><path d="M 3.386719 3.5 L 26.613281 3.5 L 26.613281 25.273438 L 3.386719 25.273438 Z M 3.386719 3.5 " clip-rule="nonzero"/></clipPath></defs><g clip-path="url(#ecc931ebdc)"><path fill="#ffffff" d="M 0.484375 0 L 29.515625 0 L 29.515625 29.03125 L 0.484375 29.03125 Z M 0.484375 0 " fill-opacity="1" fill-rule="nonzero"/><path fill="#ffffff" d="M 0.484375 0 L 29.515625 0 L 29.515625 29.03125 L 0.484375 29.03125 Z M 0.484375 0 " fill-opacity="1" fill-rule="nonzero"/></g><g clip-path="url(#0f3b72c786)"><path fill="#935f3d" d="M 8.046875 8.71875 L 15.707031 8.71875 C 15.863281 8.71875 15.992188 8.589844 15.992188 8.429688 L 15.992188 7.3125 C 15.992188 7.15625 15.863281 7.027344 15.707031 7.027344 L 8.046875 7.027344 C 7.886719 7.027344 7.757812 7.15625 7.757812 7.3125 L 7.757812 8.429688 C 7.757812 8.589844 7.886719 8.71875 8.046875 8.71875 Z M 8.332031 7.601562 L 15.417969 7.601562 L 15.417969 8.144531 L 8.332031 8.144531 Z M 5.253906 13.300781 L 9.292969 13.300781 C 9.453125 13.300781 9.582031 13.171875 9.582031 13.011719 L 9.582031 9.503906 C 9.582031 9.347656 9.453125 9.21875 9.292969 9.21875 L 5.253906 9.21875 C 5.09375 9.21875 4.964844 9.347656 4.964844 9.503906 L 4.964844 13.011719 C 4.964844 13.171875 5.09375 13.300781 5.253906 13.300781 Z M 5.539062 9.792969 L 9.007812 9.792969 L 9.007812 12.726562 L 5.539062 12.726562 Z M 15.03125 9.785156 C 15.03125 9.945312 14.902344 10.074219 14.746094 10.074219 L 10.371094 10.074219 C 10.210938 10.074219 10.082031 9.945312 10.082031 9.785156 C 10.082031 9.628906 10.210938 9.5 10.371094 9.5 L 14.746094 9.5 C 14.902344 9.5 15.03125 9.628906 15.03125 9.785156 Z M 13.714844 11.257812 C 13.714844 11.417969 13.585938 11.546875 13.429688 11.546875 L 10.371094 11.546875 C 10.210938 11.546875 10.082031 11.417969 10.082031 11.257812 C 10.082031 11.101562 10.210938 10.972656 10.371094 10.972656 L 13.429688 10.972656 C 13.585938 10.972656 13.714844 11.101562 13.714844 11.257812 Z M 13.066406 12.734375 C 13.066406 12.890625 12.9375 13.019531 12.78125 13.019531 L 10.371094 13.019531 C 10.210938 13.019531 10.082031 12.890625 10.082031 12.734375 C 10.082031 12.574219 10.210938 12.445312 10.371094 12.445312 L 12.78125 12.445312 C 12.9375 12.445312 13.066406 12.574219 13.066406 12.734375 Z M 12.5 14.207031 C 12.5 14.363281 12.371094 14.492188 12.214844 14.492188 L 5.03125 14.492188 C 4.875 14.492188 4.746094 14.363281 4.746094 14.207031 C 4.746094 14.046875 4.875 13.917969 5.03125 13.917969 L 12.214844 13.917969 C 12.371094 13.917969 12.5 14.046875 12.5 14.207031 Z M 26.273438 23.300781 L 23.394531 19.097656 C 23.230469 18.863281 22.984375 18.699219 22.699219 18.648438 C 22.414062 18.59375 22.125 18.65625 21.890625 18.816406 L 21.734375 18.921875 L 20.941406 17.765625 C 21.152344 17.605469 21.34375 17.425781 21.519531 17.234375 L 23.863281 17.234375 C 24.023438 17.234375 24.152344 17.105469 24.152344 16.949219 L 24.152344 5.332031 C 24.152344 5.175781 24.023438 5.046875 23.863281 5.046875 L 19.703125 5.046875 L 19.703125 3.785156 C 19.703125 3.628906 19.578125 3.5 19.417969 3.5 L 3.675781 3.5 C 3.515625 3.5 3.386719 3.628906 3.386719 3.785156 L 3.386719 15.402344 C 3.386719 15.558594 3.515625 15.6875 3.675781 15.6875 L 7.835938 15.6875 L 7.835938 16.949219 C 7.835938 17.109375 7.960938 17.238281 8.121094 17.238281 L 14.601562 17.238281 C 15.28125 17.984375 16.1875 18.488281 17.199219 18.679688 C 17.488281 18.734375 17.78125 18.761719 18.070312 18.761719 C 18.914062 18.761719 19.734375 18.53125 20.46875 18.09375 L 21.261719 19.25 L 21.105469 19.355469 C 20.867188 19.519531 20.707031 19.765625 20.65625 20.050781 C 20.601562 20.335938 20.660156 20.625 20.824219 20.859375 L 23.707031 25.0625 C 23.867188 25.300781 24.113281 25.460938 24.402344 25.515625 C 24.46875 25.527344 24.535156 25.535156 24.601562 25.535156 C 24.820312 25.535156 25.03125 25.46875 25.210938 25.34375 L 25.996094 24.808594 C 26.488281 24.46875 26.613281 23.792969 26.273438 23.300781 Z M 21.964844 16.660156 C 22.988281 15.117188 23.039062 13.039062 21.925781 11.417969 C 21.363281 10.59375 20.578125 10.007812 19.703125 9.679688 L 19.703125 7.917969 L 23.578125 7.917969 L 23.578125 16.660156 Z M 23.578125 5.621094 L 23.578125 7.34375 L 19.703125 7.34375 L 19.703125 5.621094 Z M 19.128906 4.074219 L 19.128906 5.796875 L 3.960938 5.796875 L 3.960938 4.074219 Z M 3.960938 6.371094 L 19.128906 6.371094 L 19.128906 9.507812 C 17.890625 9.214844 16.539062 9.425781 15.410156 10.203125 C 14.375 10.910156 13.679688 11.976562 13.449219 13.207031 C 13.332031 13.851562 13.34375 14.496094 13.484375 15.113281 L 3.960938 15.113281 Z M 8.410156 15.6875 L 13.65625 15.6875 C 13.78125 16.027344 13.949219 16.351562 14.152344 16.660156 L 8.410156 16.660156 Z M 17.304688 18.113281 C 16.222656 17.914062 15.285156 17.300781 14.664062 16.394531 C 14.042969 15.488281 13.8125 14.394531 14.015625 13.3125 C 14.214844 12.234375 14.828125 11.296875 15.734375 10.675781 C 16.445312 10.191406 17.253906 9.957031 18.054688 9.957031 C 19.367188 9.957031 20.65625 10.582031 21.453125 11.742188 C 22.734375 13.617188 22.257812 16.179688 20.386719 17.464844 C 19.480469 18.085938 18.386719 18.316406 17.304688 18.113281 Z M 25.667969 24.335938 L 24.886719 24.871094 C 24.773438 24.945312 24.640625 24.976562 24.503906 24.949219 C 24.371094 24.925781 24.253906 24.851562 24.179688 24.738281 L 21.300781 20.535156 C 21.222656 20.425781 21.195312 20.289062 21.21875 20.15625 C 21.246094 20.019531 21.320312 19.90625 21.429688 19.828125 L 22.214844 19.292969 C 22.296875 19.234375 22.398438 19.203125 22.5 19.203125 C 22.53125 19.203125 22.5625 19.207031 22.59375 19.210938 C 22.730469 19.238281 22.84375 19.3125 22.921875 19.425781 L 25.800781 23.625 C 25.960938 23.859375 25.902344 24.175781 25.667969 24.335938 Z M 5.058594 4.933594 C 5.058594 4.777344 5.1875 4.648438 5.347656 4.648438 C 5.503906 4.648438 5.636719 4.777344 5.636719 4.933594 C 5.636719 5.09375 5.507812 5.222656 5.347656 5.222656 C 5.1875 5.222656 5.058594 5.09375 5.058594 4.933594 Z M 6.359375 4.933594 C 6.359375 4.777344 6.488281 4.648438 6.644531 4.648438 C 6.804688 4.648438 6.933594 4.777344 6.933594 4.933594 C 6.933594 5.09375 6.804688 5.222656 6.644531 5.222656 C 6.484375 5.222656 6.359375 5.09375 6.359375 4.933594 Z M 7.65625 4.933594 C 7.65625 4.777344 7.785156 4.648438 7.941406 4.648438 C 8.101562 4.648438 8.230469 4.777344 8.230469 4.933594 C 8.230469 5.09375 8.101562 5.222656 7.945312 5.222656 C 7.785156 5.222656 7.65625 5.09375 7.65625 4.933594 Z M 7.65625 4.933594 " fill-opacity="1" fill-rule="nonzero"/></g></svg>