<svg xmlns="http://www.w3.org/2000/svg" xmlns:xlink="http://www.w3.org/1999/xlink" width="40" zoomAndPan="magnify" viewBox="0 0 30 30.000001" height="40" preserveAspectRatio="xMidYMid meet" version="1.0"><defs><clipPath id="a0cf9f9687"><path d="M 0.484375 0 L 29.515625 0 L 29.515625 29.03125 L 0.484375 29.03125 Z M 0.484375 0 " clip-rule="nonzero"/></clipPath><clipPath id="ffee2c63f2"><path d="M 6.101562 2.902344 L 24 2.902344 L 24 26.128906 L 6.101562 26.128906 Z M 6.101562 2.902344 " clip-rule="nonzero"/></clipPath></defs><g clip-path="url(#a0cf9f9687)"><path fill="#ffffff" d="M 0.484375 0 L 29.515625 0 L 29.515625 29.03125 L 0.484375 29.03125 Z M 0.484375 0 " fill-opacity="1" fill-rule="nonzero"/><path fill="#ffffff" d="M 0.484375 0 L 29.515625 0 L 29.515625 29.03125 L 0.484375 29.03125 Z M 0.484375 0 " fill-opacity="1" fill-rule="nonzero"/></g><g clip-path="url(#ffee2c63f2)"><path fill="#935f3d" d="M 8.410156 19.753906 C 7.050781 20.140625 6.101562 21.402344 6.101562 22.8125 L 6.101562 24.011719 C 6.101562 24.761719 6.636719 25.394531 7.371094 25.519531 C 7.898438 25.609375 8.652344 25.71875 9.582031 25.824219 C 11.015625 25.980469 12.867188 26.121094 14.996094 26.121094 C 17.128906 26.121094 18.980469 25.984375 20.414062 25.824219 C 21.34375 25.71875 22.097656 25.609375 22.625 25.519531 C 23.359375 25.394531 23.894531 24.761719 23.894531 24.011719 L 23.894531 22.8125 C 23.894531 21.402344 22.945312 20.140625 21.585938 19.753906 L 18.402344 18.84375 L 17.992188 17.503906 C 18.527344 16.964844 18.933594 16.339844 19.140625 15.820312 C 19.378906 15.226562 19.535156 14.746094 19.625 14.078125 C 19.8125 14.050781 19.992188 13.980469 20.140625 13.871094 C 20.46875 13.640625 20.632812 13.285156 20.761719 12.933594 C 20.894531 12.582031 21.003906 12.226562 21.09375 11.847656 C 21.175781 11.5 21.242188 11.128906 21.121094 10.757812 C 21.042969 10.519531 20.882812 10.3125 20.683594 10.160156 C 20.757812 10.023438 20.800781 9.875 20.800781 9.722656 L 20.800781 8.542969 C 20.800781 6.523438 19.484375 4.734375 17.578125 4.113281 C 17.445312 3.871094 17.222656 3.683594 16.949219 3.601562 C 16.667969 3.523438 16.394531 3.460938 16.125 3.414062 C 16.066406 3.226562 15.917969 3.082031 15.722656 3.023438 C 15.546875 2.972656 15.273438 2.910156 15 2.910156 C 14.722656 2.910156 14.453125 2.972656 14.273438 3.023438 C 14.078125 3.082031 13.929688 3.226562 13.867188 3.414062 C 13.601562 3.464844 13.328125 3.523438 13.046875 3.605469 C 12.773438 3.683594 12.546875 3.871094 12.417969 4.113281 C 10.511719 4.734375 9.195312 6.523438 9.195312 8.542969 L 9.195312 9.722656 C 9.195312 9.875 9.238281 10.023438 9.308594 10.160156 C 9.113281 10.316406 8.953125 10.519531 8.875 10.757812 C 8.753906 11.128906 8.820312 11.5 8.902344 11.851562 C 8.992188 12.226562 9.101562 12.582031 9.230469 12.933594 C 9.359375 13.285156 9.527344 13.640625 9.851562 13.871094 C 10.003906 13.980469 10.183594 14.050781 10.371094 14.078125 C 10.460938 14.746094 10.617188 15.226562 10.855469 15.820312 C 11.0625 16.335938 11.46875 16.960938 12.003906 17.503906 L 11.59375 18.84375 Z M 14.613281 18.769531 L 15.386719 18.769531 C 16.097656 18.769531 16.769531 18.480469 17.351562 18.054688 L 17.636719 18.988281 L 15 20.636719 L 12.359375 18.988281 L 12.644531 18.054688 C 13.226562 18.480469 13.898438 18.769531 14.613281 18.769531 Z M 13.269531 22.085938 C 12.738281 21.75 11.707031 20.976562 11.066406 19.800781 L 11.84375 19.578125 L 14.222656 21.0625 C 13.902344 21.277344 13.53125 21.605469 13.269531 22.085938 Z M 14.464844 22.640625 L 14.199219 22.109375 C 14.484375 21.78125 14.824219 21.59375 15 21.511719 C 15.175781 21.589844 15.515625 21.777344 15.800781 22.105469 L 15.53125 22.640625 Z M 15.773438 21.0625 L 18.152344 19.578125 L 18.929688 19.800781 C 18.289062 20.976562 17.257812 21.75 16.726562 22.085938 C 16.464844 21.605469 16.09375 21.277344 15.773438 21.0625 Z M 6.875 24.011719 L 6.875 22.8125 C 6.875 21.742188 7.59375 20.792969 8.621094 20.496094 L 10.300781 20.015625 C 11.132812 21.65625 12.636719 22.617188 13.097656 22.886719 C 13.179688 22.933594 13.273438 22.957031 13.367188 22.957031 C 13.425781 22.957031 13.484375 22.949219 13.539062 22.929688 C 13.597656 22.910156 13.652344 22.878906 13.699219 22.839844 L 13.828125 23.097656 L 13.605469 25.324219 C 12.226562 25.285156 10.996094 25.195312 9.96875 25.085938 L 9.96875 23.414062 C 9.96875 23.199219 9.796875 23.027344 9.582031 23.027344 C 9.367188 23.027344 9.195312 23.199219 9.195312 23.414062 L 9.195312 25 C 8.5 24.914062 7.925781 24.828125 7.5 24.753906 C 7.136719 24.695312 6.875 24.382812 6.875 24.011719 Z M 14.378906 25.34375 L 14.574219 23.414062 L 15.421875 23.414062 L 15.617188 25.34375 C 15.414062 25.34375 15.207031 25.347656 14.996094 25.347656 C 14.789062 25.347656 14.582031 25.34375 14.378906 25.34375 Z M 23.121094 22.8125 L 23.121094 24.011719 C 23.121094 24.382812 22.859375 24.695312 22.496094 24.757812 C 22.070312 24.828125 21.496094 24.914062 20.800781 25 L 20.800781 23.414062 C 20.800781 23.199219 20.628906 23.027344 20.414062 23.027344 C 20.199219 23.027344 20.027344 23.199219 20.027344 23.414062 L 20.027344 25.085938 C 19 25.195312 17.769531 25.285156 16.390625 25.328125 L 16.167969 23.097656 L 16.296875 22.839844 C 16.34375 22.878906 16.398438 22.910156 16.457031 22.929688 C 16.605469 22.980469 16.765625 22.964844 16.898438 22.886719 C 17.363281 22.621094 18.863281 21.65625 19.695312 20.019531 L 21.375 20.5 C 22.402344 20.792969 23.121094 21.746094 23.121094 22.816406 Z M 19.730469 10.261719 L 19.230469 11.09375 C 19.109375 11.296875 18.886719 11.421875 18.652344 11.421875 L 11.34375 11.421875 C 11.109375 11.421875 10.886719 11.296875 10.765625 11.09375 L 10.265625 10.261719 Z M 20.027344 8.542969 L 20.027344 9.488281 L 17.707031 9.488281 L 17.707031 4.988281 C 19.09375 5.601562 20.027344 6.992188 20.027344 8.542969 Z M 14.613281 3.734375 C 14.890625 3.671875 15.105469 3.671875 15.386719 3.734375 L 15.386719 4.84375 L 14.613281 4.84375 Z M 13.261719 4.347656 C 13.457031 4.289062 13.648438 4.246094 13.839844 4.207031 L 13.839844 4.84375 C 13.839844 5.273438 14.183594 5.621094 14.613281 5.621094 L 15.386719 5.621094 C 15.8125 5.621094 16.160156 5.273438 16.160156 4.84375 L 16.160156 4.207031 C 16.347656 4.246094 16.539062 4.289062 16.738281 4.347656 C 16.855469 4.378906 16.933594 4.488281 16.933594 4.613281 L 16.933594 9.488281 L 13.0625 9.488281 L 13.0625 4.613281 C 13.0625 4.488281 13.144531 4.378906 13.261719 4.347656 Z M 12.289062 4.988281 L 12.289062 9.488281 L 9.96875 9.488281 L 9.96875 8.542969 C 9.96875 6.992188 10.902344 5.601562 12.289062 4.988281 Z M 11.101562 13.65625 C 11.089844 13.550781 11.035156 13.449219 10.949219 13.386719 C 10.867188 13.320312 10.753906 13.292969 10.648438 13.3125 C 10.523438 13.335938 10.394531 13.308594 10.300781 13.242188 C 10.136719 13.125 10.039062 12.882812 9.957031 12.664062 C 9.835938 12.339844 9.738281 12.015625 9.65625 11.675781 C 9.597656 11.425781 9.550781 11.183594 9.609375 11 C 9.628906 10.941406 9.667969 10.886719 9.707031 10.835938 L 10.101562 11.492188 C 10.363281 11.925781 10.839844 12.195312 11.347656 12.195312 L 18.652344 12.195312 C 19.160156 12.195312 19.636719 11.925781 19.894531 11.492188 L 20.289062 10.835938 C 20.332031 10.882812 20.367188 10.941406 20.386719 11 C 20.445312 11.183594 20.402344 11.425781 20.34375 11.671875 C 20.261719 12.015625 20.160156 12.339844 20.039062 12.664062 C 19.960938 12.882812 19.859375 13.125 19.691406 13.242188 C 19.601562 13.308594 19.476562 13.332031 19.347656 13.3125 C 19.242188 13.292969 19.132812 13.320312 19.046875 13.386719 C 18.960938 13.449219 18.90625 13.550781 18.894531 13.65625 C 18.824219 14.425781 18.679688 14.890625 18.421875 15.535156 C 18.011719 16.566406 16.726562 17.996094 15.386719 17.996094 L 14.613281 17.996094 C 13.269531 17.996094 11.988281 16.566406 11.574219 15.53125 C 11.316406 14.894531 11.171875 14.425781 11.101562 13.65625 Z M 11.101562 13.65625 " fill-opacity="1" fill-rule="nonzero"/></g></svg>