<svg xmlns="http://www.w3.org/2000/svg" xmlns:xlink="http://www.w3.org/1999/xlink" width="40" zoomAndPan="magnify" viewBox="0 0 30 30.000001" height="40" preserveAspectRatio="xMidYMid meet" version="1.0"><defs><clipPath id="068bd616bc"><path d="M 0.484375 0 L 29.515625 0 L 29.515625 29.03125 L 0.484375 29.03125 Z M 0.484375 0 " clip-rule="nonzero"/></clipPath><clipPath id="743823d189"><path d="M 3.386719 5.296875 L 26.613281 5.296875 L 26.613281 23.445312 L 3.386719 23.445312 Z M 3.386719 5.296875 " clip-rule="nonzero"/></clipPath></defs><g clip-path="url(#068bd616bc)"><path fill="#ffffff" d="M 0.484375 0 L 29.515625 0 L 29.515625 29.03125 L 0.484375 29.03125 Z M 0.484375 0 " fill-opacity="1" fill-rule="nonzero"/><path fill="#ffffff" d="M 0.484375 0 L 29.515625 0 L 29.515625 29.03125 L 0.484375 29.03125 Z M 0.484375 0 " fill-opacity="1" fill-rule="nonzero"/></g><g clip-path="url(#743823d189)"><path fill="#935f3d" d="M 26.507812 21.59375 L 26.214844 20.5 C 26.609375 19.085938 26.246094 17.40625 26.066406 16.738281 L 25.777344 15.65625 C 25.65625 15.207031 25.269531 14.898438 24.832031 14.855469 L 24.832031 6.742188 C 24.832031 5.945312 24.183594 5.296875 23.386719 5.296875 L 4.832031 5.296875 C 4.035156 5.296875 3.386719 5.945312 3.386719 6.742188 L 3.386719 19.761719 C 3.386719 20.558594 4.035156 21.207031 4.832031 21.207031 L 9.574219 21.207031 L 8.570312 22.925781 C 8.476562 23.09375 8.472656 23.289062 8.570312 23.457031 C 8.664062 23.621094 8.839844 23.722656 9.03125 23.722656 L 19.1875 23.722656 C 19.378906 23.722656 19.554688 23.621094 19.652344 23.457031 C 19.746094 23.289062 19.746094 23.09375 19.648438 22.925781 L 18.644531 21.207031 L 20.203125 21.207031 C 20.386719 21.460938 20.527344 21.757812 20.652344 22.179688 L 20.652344 22.175781 L 20.898438 23.097656 C 20.941406 23.261719 21.089844 23.367188 21.25 23.367188 C 21.28125 23.367188 21.3125 23.363281 21.34375 23.355469 L 26.25 22.039062 C 26.34375 22.015625 26.425781 21.953125 26.472656 21.871094 C 26.519531 21.785156 26.535156 21.6875 26.507812 21.59375 Z M 25.078125 15.84375 L 25.367188 16.925781 C 25.527344 17.519531 25.847656 18.980469 25.542969 20.203125 L 21.132812 21.382812 C 20.789062 20.601562 20.3125 20.210938 19.605469 19.628906 C 19.144531 19.253906 18.574219 18.785156 17.847656 18.050781 C 17.335938 17.535156 17.324219 16.960938 17.515625 16.742188 C 17.667969 16.566406 17.933594 16.71875 18.074219 16.828125 L 19.757812 18.089844 C 19.878906 18.183594 20.050781 18.1875 20.179688 18.101562 C 20.304688 18.015625 20.367188 17.855469 20.324219 17.707031 L 19 12.761719 C 18.976562 12.671875 18.988281 12.574219 19.039062 12.488281 C 19.085938 12.40625 19.164062 12.34375 19.257812 12.320312 C 19.449219 12.269531 19.648438 12.382812 19.699219 12.574219 L 20.824219 16.773438 C 20.867188 16.9375 21.015625 17.042969 21.175781 17.042969 C 21.207031 17.042969 21.238281 17.039062 21.269531 17.03125 C 21.460938 16.980469 21.578125 16.78125 21.527344 16.585938 L 21.410156 16.15625 C 21.386719 16.0625 21.398438 15.964844 21.445312 15.882812 C 21.496094 15.796875 21.574219 15.738281 21.667969 15.710938 C 21.757812 15.6875 21.855469 15.699219 21.941406 15.75 C 22.023438 15.796875 22.085938 15.875 22.109375 15.96875 L 22.179688 16.238281 C 22.234375 16.429688 22.429688 16.542969 22.625 16.492188 C 22.816406 16.441406 22.933594 16.242188 22.882812 16.050781 C 22.832031 15.859375 22.945312 15.660156 23.136719 15.609375 C 23.332031 15.558594 23.53125 15.671875 23.582031 15.863281 L 23.675781 16.21875 C 23.730469 16.414062 23.929688 16.527344 24.121094 16.476562 C 24.316406 16.425781 24.429688 16.226562 24.378906 16.03125 C 24.328125 15.839844 24.441406 15.640625 24.632812 15.589844 C 24.828125 15.539062 25.023438 15.652344 25.078125 15.84375 Z M 4.832031 6.023438 L 23.386719 6.023438 C 23.785156 6.023438 24.105469 6.34375 24.105469 6.742188 L 24.105469 15.046875 C 24.058594 15.082031 24.011719 15.117188 23.96875 15.160156 C 23.703125 14.914062 23.324219 14.808594 22.949219 14.90625 C 22.746094 14.960938 22.574219 15.070312 22.441406 15.214844 C 22.398438 15.179688 22.351562 15.148438 22.304688 15.121094 C 22.050781 14.976562 21.757812 14.9375 21.476562 15.011719 C 21.355469 15.042969 21.246094 15.097656 21.144531 15.164062 L 20.398438 12.386719 C 20.242188 11.808594 19.644531 11.464844 19.070312 11.617188 C 18.789062 11.695312 18.554688 11.875 18.410156 12.125 C 18.261719 12.378906 18.222656 12.671875 18.300781 12.949219 L 19.351562 16.878906 L 18.511719 16.25 C 17.828125 15.734375 17.253906 15.9375 16.96875 16.265625 C 16.527344 16.773438 16.542969 17.769531 17.332031 18.5625 C 17.367188 18.597656 17.402344 18.632812 17.4375 18.667969 L 15.453125 18.667969 L 15.453125 13.445312 C 15.453125 13.242188 15.289062 13.082031 15.089844 13.082031 L 13.484375 13.082031 C 13.285156 13.082031 13.121094 13.242188 13.121094 13.445312 L 13.121094 18.667969 L 12.855469 18.667969 L 12.855469 14.589844 C 12.855469 14.390625 12.691406 14.230469 12.492188 14.230469 L 10.886719 14.230469 C 10.683594 14.230469 10.523438 14.390625 10.523438 14.589844 L 10.523438 18.667969 L 10.257812 18.667969 L 10.257812 15.738281 C 10.257812 15.539062 10.09375 15.378906 9.894531 15.378906 L 8.289062 15.378906 C 8.085938 15.378906 7.925781 15.539062 7.925781 15.738281 L 7.925781 18.667969 L 7.660156 18.667969 L 7.660156 16.886719 C 7.660156 16.6875 7.496094 16.527344 7.296875 16.527344 L 5.6875 16.527344 C 5.488281 16.527344 5.328125 16.6875 5.328125 16.886719 L 5.328125 18.667969 L 4.113281 18.667969 L 4.113281 6.742188 C 4.113281 6.34375 4.4375 6.023438 4.832031 6.023438 Z M 13.847656 18.667969 L 13.847656 13.804688 L 14.726562 13.804688 L 14.726562 18.667969 Z M 11.25 18.667969 L 11.25 14.953125 L 12.128906 14.953125 L 12.128906 18.667969 Z M 8.648438 18.667969 L 8.648438 16.101562 L 9.53125 16.101562 L 9.53125 18.667969 Z M 6.050781 18.667969 L 6.050781 17.25 L 6.933594 17.25 L 6.933594 18.667969 Z M 4.113281 19.761719 L 4.113281 19.394531 L 18.207031 19.394531 C 18.5625 19.714844 18.871094 19.96875 19.144531 20.191406 C 19.269531 20.292969 19.386719 20.390625 19.492188 20.480469 L 4.832031 20.480469 C 4.4375 20.480469 4.113281 20.15625 4.113281 19.761719 Z M 18.851562 23 L 9.371094 23 L 10.414062 21.207031 L 17.804688 21.207031 Z M 21.507812 22.558594 L 21.375 22.070312 L 25.582031 20.945312 L 25.714844 21.433594 Z M 9.339844 9.371094 L 9.136719 10.25 C 9.101562 10.394531 9.15625 10.542969 9.277344 10.628906 C 9.394531 10.714844 9.550781 10.71875 9.675781 10.644531 L 10.449219 10.175781 L 11.222656 10.644531 C 11.277344 10.679688 11.34375 10.699219 11.410156 10.699219 C 11.484375 10.699219 11.558594 10.675781 11.621094 10.628906 C 11.742188 10.542969 11.796875 10.394531 11.761719 10.25 L 11.554688 9.371094 L 12.238281 8.78125 C 12.351562 8.6875 12.390625 8.535156 12.347656 8.394531 C 12.300781 8.257812 12.179688 8.160156 12.03125 8.148438 L 11.132812 8.070312 L 10.785156 7.238281 C 10.726562 7.105469 10.59375 7.015625 10.449219 7.015625 C 10.304688 7.015625 10.171875 7.105469 10.113281 7.238281 L 9.765625 8.070312 L 8.867188 8.148438 C 8.71875 8.160156 8.597656 8.257812 8.550781 8.394531 C 8.503906 8.535156 8.546875 8.6875 8.660156 8.78125 Z M 10.042969 8.777344 C 10.179688 8.765625 10.296875 8.679688 10.347656 8.554688 L 10.449219 8.316406 L 10.550781 8.554688 C 10.601562 8.679688 10.71875 8.765625 10.851562 8.777344 L 11.113281 8.796875 L 10.914062 8.96875 C 10.8125 9.054688 10.769531 9.191406 10.800781 9.324219 L 10.859375 9.578125 L 10.636719 9.441406 C 10.578125 9.40625 10.515625 9.390625 10.449219 9.390625 C 10.382812 9.390625 10.320312 9.40625 10.261719 9.441406 L 10.039062 9.578125 L 10.097656 9.324219 C 10.128906 9.191406 10.085938 9.054688 9.980469 8.96875 L 9.785156 8.796875 Z M 5.390625 9.371094 L 5.183594 10.25 C 5.152344 10.394531 5.207031 10.542969 5.324219 10.628906 C 5.441406 10.714844 5.601562 10.71875 5.726562 10.644531 L 6.496094 10.175781 L 7.269531 10.644531 C 7.328125 10.679688 7.394531 10.699219 7.457031 10.699219 C 7.53125 10.699219 7.609375 10.675781 7.671875 10.628906 C 7.789062 10.542969 7.84375 10.394531 7.8125 10.25 L 7.605469 9.371094 L 8.289062 8.78125 C 8.398438 8.6875 8.441406 8.535156 8.394531 8.394531 C 8.351562 8.257812 8.226562 8.160156 8.082031 8.148438 L 7.183594 8.070312 L 6.832031 7.238281 C 6.777344 7.105469 6.644531 7.015625 6.496094 7.015625 C 6.351562 7.015625 6.21875 7.105469 6.164062 7.238281 L 5.8125 8.070312 L 4.914062 8.148438 C 4.769531 8.160156 4.644531 8.257812 4.597656 8.394531 C 4.554688 8.535156 4.597656 8.6875 4.707031 8.78125 Z M 6.09375 8.777344 C 6.226562 8.765625 6.34375 8.679688 6.398438 8.554688 L 6.496094 8.316406 L 6.597656 8.554688 C 6.652344 8.679688 6.765625 8.765625 6.902344 8.777344 L 7.160156 8.796875 L 6.964844 8.96875 C 6.863281 9.054688 6.816406 9.191406 6.847656 9.324219 L 6.90625 9.578125 L 6.6875 9.441406 C 6.570312 9.371094 6.425781 9.371094 6.308594 9.441406 L 6.089844 9.578125 L 6.148438 9.324219 C 6.179688 9.191406 6.132812 9.054688 6.03125 8.96875 L 5.835938 8.796875 Z M 13.292969 9.371094 L 13.085938 10.25 C 13.054688 10.394531 13.109375 10.542969 13.226562 10.628906 C 13.289062 10.675781 13.363281 10.699219 13.441406 10.699219 C 13.503906 10.699219 13.570312 10.679688 13.628906 10.644531 L 14.398438 10.175781 L 15.171875 10.644531 C 15.296875 10.71875 15.457031 10.714844 15.574219 10.628906 C 15.691406 10.542969 15.746094 10.394531 15.714844 10.25 L 15.507812 9.371094 L 16.191406 8.78125 C 16.300781 8.6875 16.34375 8.535156 16.296875 8.394531 C 16.253906 8.257812 16.128906 8.160156 15.984375 8.148438 L 15.085938 8.070312 L 14.734375 7.238281 C 14.679688 7.105469 14.546875 7.015625 14.398438 7.015625 C 14.253906 7.015625 14.121094 7.105469 14.066406 7.238281 L 13.714844 8.070312 L 12.816406 8.148438 C 12.671875 8.160156 12.546875 8.257812 12.5 8.394531 C 12.457031 8.535156 12.5 8.6875 12.609375 8.78125 Z M 13.996094 8.777344 C 14.128906 8.765625 14.246094 8.679688 14.300781 8.554688 L 14.398438 8.316406 L 14.5 8.554688 C 14.554688 8.679688 14.671875 8.765625 14.804688 8.777344 L 15.0625 8.796875 L 14.867188 8.96875 C 14.765625 9.054688 14.71875 9.191406 14.75 9.324219 L 14.808594 9.578125 L 14.589844 9.441406 C 14.472656 9.371094 14.328125 9.371094 14.210938 9.441406 L 13.992188 9.578125 L 14.050781 9.324219 C 14.082031 9.191406 14.035156 9.054688 13.933594 8.96875 L 13.738281 8.796875 Z M 17.953125 9.8125 L 17.59375 11.347656 C 17.558594 11.488281 17.617188 11.636719 17.734375 11.722656 C 17.851562 11.808594 18.011719 11.816406 18.136719 11.738281 L 19.480469 10.921875 L 20.828125 11.738281 C 20.886719 11.773438 20.953125 11.792969 21.019531 11.792969 C 21.09375 11.792969 21.167969 11.769531 21.230469 11.722656 C 21.347656 11.636719 21.402344 11.488281 21.371094 11.347656 L 21.011719 9.8125 L 22.203125 8.78125 C 22.3125 8.6875 22.355469 8.535156 22.3125 8.394531 C 22.265625 8.257812 22.140625 8.160156 21.996094 8.148438 L 20.425781 8.015625 L 19.816406 6.5625 C 19.761719 6.429688 19.628906 6.339844 19.480469 6.339844 C 19.335938 6.339844 19.203125 6.429688 19.148438 6.5625 L 18.539062 8.015625 L 16.96875 8.148438 C 16.820312 8.160156 16.699219 8.257812 16.652344 8.394531 C 16.609375 8.535156 16.652344 8.6875 16.761719 8.78125 Z M 18.816406 8.71875 C 18.953125 8.707031 19.070312 8.625 19.121094 8.5 L 19.480469 7.640625 L 19.84375 8.5 C 19.894531 8.625 20.011719 8.707031 20.148438 8.71875 L 21.074219 8.796875 L 20.371094 9.40625 C 20.269531 9.496094 20.222656 9.632812 20.253906 9.765625 L 20.46875 10.671875 L 19.671875 10.1875 C 19.554688 10.117188 19.410156 10.117188 19.292969 10.1875 L 18.496094 10.671875 L 18.710938 9.765625 C 18.742188 9.632812 18.695312 9.496094 18.59375 9.40625 L 17.886719 8.796875 Z M 12.839844 11.804688 C 12.890625 11.894531 12.902344 12.003906 12.867188 12.101562 L 12.46875 13.273438 C 12.417969 13.425781 12.277344 13.519531 12.125 13.519531 C 12.085938 13.519531 12.046875 13.511719 12.007812 13.5 C 11.820312 13.4375 11.71875 13.230469 11.78125 13.039062 L 11.871094 12.78125 L 6.707031 15.761719 C 6.652344 15.792969 6.589844 15.808594 6.527344 15.808594 C 6.402344 15.808594 6.28125 15.746094 6.210938 15.628906 C 6.113281 15.453125 6.171875 15.234375 6.34375 15.132812 L 11.507812 12.152344 L 11.238281 12.097656 C 11.042969 12.0625 10.914062 11.871094 10.953125 11.671875 C 10.992188 11.476562 11.183594 11.347656 11.378906 11.386719 L 12.59375 11.628906 C 12.699219 11.648438 12.785156 11.710938 12.839844 11.804688 Z M 12.839844 11.804688 " fill-opacity="1" fill-rule="nonzero"/></g></svg>