<svg xmlns="http://www.w3.org/2000/svg" xmlns:xlink="http://www.w3.org/1999/xlink" width="40" zoomAndPan="magnify" viewBox="0 0 30 30.000001" height="40" preserveAspectRatio="xMidYMid meet" version="1.0"><defs><clipPath id="32f51a3a4b"><path d="M 0.484375 0 L 29.515625 0 L 29.515625 29.03125 L 0.484375 29.03125 Z M 0.484375 0 " clip-rule="nonzero"/></clipPath><clipPath id="19816bd3a6"><path d="M 3.386719 3.570312 L 26.613281 3.570312 L 26.613281 25.34375 L 3.386719 25.34375 Z M 3.386719 3.570312 " clip-rule="nonzero"/></clipPath></defs><g clip-path="url(#32f51a3a4b)"><path fill="#ffffff" d="M 0.484375 0 L 29.515625 0 L 29.515625 29.03125 L 0.484375 29.03125 Z M 0.484375 0 " fill-opacity="1" fill-rule="nonzero"/><path fill="#ffffff" d="M 0.484375 0 L 29.515625 0 L 29.515625 29.03125 L 0.484375 29.03125 Z M 0.484375 0 " fill-opacity="1" fill-rule="nonzero"/></g><g clip-path="url(#19816bd3a6)"><path fill="#935f3d" d="M 5.96875 16.375 C 6.160156 16.449219 6.253906 16.667969 6.183594 16.859375 C 6.109375 17.050781 5.890625 17.148438 5.699219 17.074219 L 4.046875 16.4375 C 3.902344 16.382812 3.808594 16.246094 3.808594 16.089844 L 3.808594 13.273438 C 3.808594 13.121094 3.902344 12.980469 4.046875 12.925781 C 4.046875 12.925781 5.589844 12.332031 5.589844 12.332031 C 5.804688 11.507812 6.132812 10.71875 6.5625 9.984375 L 5.890625 8.472656 C 5.828125 8.332031 5.859375 8.164062 5.96875 8.054688 L 7.960938 6.066406 C 8.070312 5.957031 8.234375 5.925781 8.375 5.988281 C 8.375 5.988281 9.886719 6.660156 9.886719 6.660156 C 10.621094 6.230469 11.410156 5.902344 12.234375 5.6875 L 12.828125 4.144531 C 12.886719 4 13.023438 3.90625 13.179688 3.90625 L 15.992188 3.90625 C 16.148438 3.90625 16.285156 4 16.339844 4.144531 C 16.339844 4.144531 16.933594 5.6875 16.933594 5.6875 C 17.820312 5.917969 18.667969 6.28125 19.453125 6.761719 C 19.628906 6.871094 19.683594 7.101562 19.574219 7.277344 C 19.464844 7.453125 19.234375 7.507812 19.058594 7.398438 C 18.289062 6.925781 17.449219 6.578125 16.570312 6.367188 C 16.449219 6.339844 16.351562 6.253906 16.308594 6.136719 L 15.734375 4.652344 L 13.433594 4.652344 L 12.859375 6.140625 C 12.816406 6.253906 12.71875 6.339844 12.597656 6.367188 C 11.71875 6.578125 10.878906 6.925781 10.109375 7.398438 C 10.003906 7.464844 9.875 7.472656 9.761719 7.421875 C 9.761719 7.421875 8.304688 6.777344 8.304688 6.777344 C 8.304688 6.777344 6.679688 8.402344 6.679688 8.402344 L 7.324219 9.859375 C 7.375 9.96875 7.367188 10.101562 7.304688 10.207031 C 6.828125 10.976562 6.480469 11.816406 6.269531 12.699219 C 6.238281 12.820312 6.152344 12.917969 6.039062 12.960938 C 6.039062 12.960938 4.554688 13.53125 4.554688 13.53125 C 4.554688 13.53125 4.554688 15.832031 4.554688 15.832031 Z M 22.851562 12.507812 C 22.800781 12.308594 22.917969 12.105469 23.121094 12.050781 C 23.320312 12 23.523438 12.117188 23.574219 12.320312 C 23.578125 12.324219 23.578125 12.328125 23.578125 12.332031 L 25.121094 12.925781 C 25.265625 12.980469 25.359375 13.121094 25.359375 13.273438 L 25.359375 16.089844 C 25.359375 16.246094 25.265625 16.382812 25.121094 16.4375 C 25.121094 16.4375 23.578125 17.03125 23.578125 17.03125 C 23.363281 17.855469 23.035156 18.644531 22.605469 19.378906 L 23.277344 20.890625 C 23.339844 21.03125 23.308594 21.195312 23.199219 21.304688 L 21.210938 23.296875 C 21.101562 23.40625 20.933594 23.4375 20.792969 23.375 C 20.792969 23.375 19.28125 22.703125 19.28125 22.703125 C 18.550781 23.136719 17.757812 23.460938 16.933594 23.675781 L 16.339844 25.21875 C 16.285156 25.363281 16.148438 25.457031 15.992188 25.457031 L 13.179688 25.457031 C 13.023438 25.457031 12.886719 25.363281 12.828125 25.21875 C 12.828125 25.21875 12.234375 23.675781 12.234375 23.675781 C 11.410156 23.460938 10.621094 23.132812 9.886719 22.703125 L 8.375 23.375 C 8.234375 23.4375 8.066406 23.40625 7.960938 23.296875 L 5.96875 21.304688 C 5.859375 21.195312 5.828125 21.03125 5.890625 20.890625 L 6.644531 19.199219 C 6.726562 19.011719 6.949219 18.925781 7.136719 19.011719 C 7.324219 19.09375 7.410156 19.316406 7.324219 19.503906 L 6.679688 20.960938 C 6.679688 20.960938 8.304688 22.585938 8.304688 22.585938 L 9.761719 21.941406 C 9.875 21.890625 10.003906 21.902344 10.109375 21.964844 C 10.878906 22.4375 11.71875 22.789062 12.601562 22.996094 C 12.722656 23.023438 12.820312 23.109375 12.863281 23.226562 C 12.863281 23.226562 13.433594 24.710938 13.433594 24.710938 C 13.433594 24.710938 15.734375 24.710938 15.734375 24.710938 L 16.308594 23.226562 C 16.351562 23.109375 16.449219 23.023438 16.570312 22.996094 C 17.449219 22.789062 18.289062 22.441406 19.058594 21.964844 C 19.164062 21.902344 19.292969 21.890625 19.40625 21.941406 L 20.863281 22.585938 C 20.863281 22.585938 22.488281 20.957031 22.488281 20.957031 L 21.84375 19.503906 C 21.792969 19.390625 21.804688 19.261719 21.867188 19.15625 C 22.339844 18.386719 22.691406 17.546875 22.898438 16.667969 C 22.929688 16.546875 23.015625 16.449219 23.128906 16.402344 C 23.128906 16.402344 24.613281 15.832031 24.613281 15.832031 C 24.613281 15.832031 24.613281 13.53125 24.613281 13.53125 L 23.128906 12.960938 C 23.015625 12.917969 22.929688 12.816406 22.898438 12.699219 C 22.882812 12.632812 22.867188 12.570312 22.851562 12.507812 Z M 18.992188 15.765625 C 19.042969 15.5625 19.246094 15.441406 19.445312 15.488281 C 19.644531 15.539062 19.769531 15.742188 19.71875 15.941406 C 19.152344 18.253906 17.070312 19.96875 14.585938 19.96875 C 13.582031 19.96875 12.648438 19.6875 11.847656 19.203125 C 11.671875 19.097656 11.617188 18.867188 11.722656 18.691406 C 11.832031 18.515625 12.0625 18.457031 12.238281 18.566406 C 12.921875 18.980469 13.726562 19.21875 14.585938 19.21875 C 16.71875 19.21875 18.507812 17.746094 18.992188 15.765625 Z M 10.132812 15.554688 C 10.171875 15.757812 10.039062 15.953125 9.835938 15.992188 C 9.632812 16.03125 9.4375 15.902344 9.398438 15.699219 C 9.335938 15.371094 9.300781 15.027344 9.300781 14.679688 C 9.300781 11.761719 11.664062 9.398438 14.585938 9.398438 C 15.734375 9.398438 16.800781 9.765625 17.671875 10.390625 C 17.835938 10.511719 17.875 10.746094 17.753906 10.914062 C 17.636719 11.082031 17.402344 11.117188 17.234375 10.996094 C 16.488281 10.460938 15.574219 10.144531 14.585938 10.144531 C 12.078125 10.144531 10.046875 12.175781 10.046875 14.679688 C 10.046875 14.980469 10.078125 15.273438 10.132812 15.554688 Z M 24.484375 9.726562 C 22.863281 12.21875 20.488281 14.472656 17.5 16.140625 C 12.863281 18.726562 7.789062 19.316406 3.6875 18.132812 C 3.507812 18.082031 3.394531 17.90625 3.421875 17.722656 C 3.449219 17.535156 3.609375 17.398438 3.796875 17.402344 C 6.800781 17.425781 9.832031 16.742188 13.097656 14.917969 C 15.960938 13.320312 19.285156 10.21875 21.085938 7.445312 L 19.492188 6.378906 C 19.375 6.300781 19.3125 6.164062 19.328125 6.023438 C 19.347656 5.882812 19.441406 5.765625 19.574219 5.71875 L 25.398438 3.609375 C 25.507812 3.570312 25.628906 3.582031 25.726562 3.644531 C 25.824219 3.703125 25.886719 3.804688 25.898438 3.921875 L 26.589844 10.398438 C 26.605469 10.542969 26.535156 10.683594 26.410156 10.757812 C 26.285156 10.835938 26.128906 10.832031 26.007812 10.75 Z M 24.582031 8.894531 L 25.761719 9.683594 L 25.207031 4.472656 L 20.523438 6.167969 L 21.804688 7.027344 C 21.96875 7.140625 22.019531 7.363281 21.914062 7.535156 C 20.109375 10.472656 16.53125 13.859375 13.460938 15.574219 C 11.160156 16.855469 8.972656 17.59375 6.828125 17.929688 C 10.109375 18.167969 13.742188 17.378906 17.136719 15.488281 C 20.132812 13.816406 22.496094 11.527344 24.054688 9.007812 C 24.109375 8.921875 24.195312 8.859375 24.296875 8.839844 C 24.394531 8.816406 24.5 8.835938 24.582031 8.894531 Z M 24.582031 8.894531 " fill-opacity="1" fill-rule="evenodd"/></g></svg>