<svg xmlns="http://www.w3.org/2000/svg" xmlns:xlink="http://www.w3.org/1999/xlink" width="40" zoomAndPan="magnify" viewBox="0 0 30 30.000001" height="40" preserveAspectRatio="xMidYMid meet" version="1.0"><defs><clipPath id="c816f137df"><path d="M 0.484375 0 L 29.515625 0 L 29.515625 29.03125 L 0.484375 29.03125 Z M 0.484375 0 " clip-rule="nonzero"/></clipPath><clipPath id="e3bb3afdaf"><path d="M 17 2.902344 L 26.628906 2.902344 L 26.628906 13 L 17 13 Z M 17 2.902344 " clip-rule="nonzero"/></clipPath><clipPath id="a17dd4c987"><path d="M 3.402344 3 L 12 3 L 12 10 L 3.402344 10 Z M 3.402344 3 " clip-rule="nonzero"/></clipPath><clipPath id="cf5d13be71"><path d="M 8 16 L 22 16 L 22 26.128906 L 8 26.128906 Z M 8 16 " clip-rule="nonzero"/></clipPath></defs><g clip-path="url(#c816f137df)"><path fill="#ffffff" d="M 0.484375 0 L 29.515625 0 L 29.515625 29.03125 L 0.484375 29.03125 Z M 0.484375 0 " fill-opacity="1" fill-rule="nonzero"/><path fill="#ffffff" d="M 0.484375 0 L 29.515625 0 L 29.515625 29.03125 L 0.484375 29.03125 Z M 0.484375 0 " fill-opacity="1" fill-rule="nonzero"/></g><path fill="#935f3d" d="M 5.675781 14.515625 C 5.675781 13.222656 5.9375 11.972656 6.449219 10.800781 L 5.738281 10.488281 C 5.183594 11.761719 4.902344 13.117188 4.902344 14.515625 C 4.902344 17.136719 5.902344 19.617188 7.71875 21.5 L 8.277344 20.964844 C 6.601562 19.222656 5.675781 16.933594 5.675781 14.515625 " fill-opacity="1" fill-rule="nonzero"/><g clip-path="url(#e3bb3afdaf)"><path fill="#935f3d" d="M 24.929688 9.996094 L 24.53125 9.597656 L 23.984375 10.144531 L 24.382812 10.542969 C 23.808594 11.015625 23.097656 11.324219 22.320312 11.398438 L 22.320312 10.644531 L 21.546875 10.644531 L 21.546875 11.398438 C 20.769531 11.324219 20.058594 11.015625 19.484375 10.542969 L 19.886719 10.144531 L 19.335938 9.597656 L 18.9375 9.996094 C 18.46875 9.421875 18.160156 8.714844 18.082031 7.933594 L 18.835938 7.933594 L 18.835938 7.160156 L 18.082031 7.160156 C 18.160156 6.382812 18.46875 5.671875 18.9375 5.101562 L 19.335938 5.5 L 19.886719 4.953125 L 19.484375 4.550781 C 20.058594 4.082031 20.769531 3.773438 21.546875 3.695312 L 21.546875 4.453125 L 22.320312 4.453125 L 22.320312 3.695312 C 23.097656 3.773438 23.808594 4.082031 24.382812 4.550781 L 23.984375 4.953125 L 24.53125 5.5 L 24.929688 5.101562 C 25.398438 5.671875 25.707031 6.382812 25.785156 7.160156 L 25.03125 7.160156 L 25.03125 7.933594 L 25.785156 7.933594 C 25.707031 8.714844 25.398438 9.421875 24.929688 9.996094 Z M 21.933594 2.902344 C 19.371094 2.902344 17.289062 4.988281 17.289062 7.546875 C 17.289062 10.109375 19.371094 12.195312 21.933594 12.195312 C 24.496094 12.195312 26.578125 10.109375 26.578125 7.546875 C 26.578125 4.988281 24.496094 2.902344 21.933594 2.902344 " fill-opacity="1" fill-rule="nonzero"/></g><path fill="#935f3d" d="M 21.546875 7.386719 L 20.5 8.4375 L 21.046875 8.984375 L 22.207031 7.820312 C 22.28125 7.75 22.320312 7.652344 22.320312 7.546875 L 22.320312 5.226562 L 21.546875 5.226562 L 21.546875 7.386719 " fill-opacity="1" fill-rule="nonzero"/><g clip-path="url(#a17dd4c987)"><path fill="#935f3d" d="M 4.4375 8.753906 L 4.21875 6.816406 C 4.207031 6.707031 4.242188 6.597656 4.316406 6.515625 C 4.390625 6.433594 4.492188 6.386719 4.605469 6.386719 L 5.675781 6.386719 C 5.804688 6.386719 5.925781 6.324219 5.996094 6.21875 C 6.066406 6.109375 6.082031 5.976562 6.035156 5.855469 L 5.6875 4.984375 C 5.636719 4.859375 5.652344 4.730469 5.722656 4.621094 C 5.796875 4.511719 5.914062 4.453125 6.046875 4.453125 L 6.230469 4.453125 L 7.28125 6.199219 C 7.347656 6.316406 7.476562 6.386719 7.609375 6.386719 L 8.773438 6.386719 L 8.773438 8.324219 L 7.609375 8.324219 C 7.507812 8.324219 7.410156 8.363281 7.335938 8.4375 L 6.789062 8.984375 C 6.71875 9.054688 6.621094 9.097656 6.515625 9.097656 L 4.820312 9.097656 C 4.621094 9.097656 4.457031 8.949219 4.4375 8.753906 Z M 9.546875 6 L 11.09375 6 L 11.09375 9.097656 L 9.546875 9.097656 Z M 7.335938 9.53125 L 7.773438 9.097656 L 8.773438 9.097656 L 8.773438 9.484375 C 8.773438 9.699219 8.945312 9.871094 9.160156 9.871094 L 11.480469 9.871094 C 11.695312 9.871094 11.871094 9.699219 11.871094 9.484375 L 11.871094 5.613281 C 11.871094 5.398438 11.695312 5.226562 11.480469 5.226562 L 9.160156 5.226562 C 8.945312 5.226562 8.773438 5.398438 8.773438 5.613281 L 7.832031 5.613281 L 6.78125 3.867188 C 6.710938 3.75 6.585938 3.675781 6.449219 3.675781 L 6.046875 3.675781 C 5.660156 3.675781 5.300781 3.867188 5.082031 4.1875 C 4.867188 4.507812 4.824219 4.910156 4.964844 5.269531 L 5.105469 5.613281 L 4.605469 5.613281 C 4.273438 5.613281 3.960938 5.753906 3.738281 6 C 3.519531 6.246094 3.414062 6.574219 3.449219 6.902344 L 3.667969 8.835938 C 3.730469 9.425781 4.226562 9.871094 4.820312 9.871094 L 6.515625 9.871094 C 6.828125 9.871094 7.117188 9.75 7.335938 9.53125 " fill-opacity="1" fill-rule="nonzero"/></g><g clip-path="url(#cf5d13be71)"><path fill="#935f3d" d="M 13.417969 19.933594 C 13.203125 19.933594 13.03125 20.109375 13.03125 20.324219 C 13.03125 21.339844 13.816406 22.171875 14.8125 22.253906 L 14.082031 22.980469 L 10.40625 21.847656 C 10.097656 21.398438 9.933594 20.875 9.933594 20.324219 C 9.933594 18.828125 11.148438 17.613281 12.644531 17.613281 C 14.007812 17.613281 15.136719 18.625 15.324219 19.933594 Z M 16.402344 20.050781 C 16.328125 19.976562 16.230469 19.933594 16.128906 19.933594 L 16.105469 19.933594 C 15.910156 18.195312 14.433594 16.839844 12.644531 16.839844 C 10.722656 16.839844 9.160156 18.402344 9.160156 20.324219 C 9.160156 20.769531 9.246094 21.210938 9.414062 21.625 C 9.058594 21.648438 8.722656 21.832031 8.515625 22.136719 L 8.0625 22.816406 C 8 22.914062 7.980469 23.035156 8.015625 23.144531 C 8.050781 23.257812 8.128906 23.347656 8.238281 23.390625 L 14.820312 26.101562 C 14.867188 26.121094 14.914062 26.128906 14.964844 26.128906 C 15.027344 26.128906 15.085938 26.117188 15.140625 26.089844 L 17.378906 24.96875 L 21.160156 24.96875 L 21.160156 24.195312 L 17.289062 24.195312 C 17.230469 24.195312 17.167969 24.207031 17.117188 24.234375 L 14.949219 25.316406 L 8.96875 22.855469 L 9.160156 22.566406 C 9.253906 22.425781 9.433594 22.359375 9.597656 22.410156 L 14.078125 23.789062 C 14.214844 23.832031 14.363281 23.792969 14.464844 23.691406 L 16.015625 22.144531 C 16.125 22.035156 16.15625 21.867188 16.097656 21.722656 C 16.039062 21.578125 15.898438 21.484375 15.742188 21.484375 L 14.964844 21.484375 C 14.460938 21.484375 14.03125 21.160156 13.871094 20.710938 L 15.96875 20.710938 L 17.015625 21.757812 C 17.085938 21.832031 17.1875 21.871094 17.289062 21.871094 L 21.160156 21.871094 L 21.160156 21.097656 L 17.449219 21.097656 L 16.402344 20.050781 " fill-opacity="1" fill-rule="nonzero"/></g><path fill="#935f3d" d="M 13.003906 12.523438 L 13.265625 11.898438 C 13.3125 11.78125 13.300781 11.652344 13.238281 11.546875 L 12.976562 11.121094 L 13.121094 10.976562 L 13.542969 11.238281 C 13.648438 11.304688 13.78125 11.3125 13.894531 11.265625 L 14.519531 11.007812 C 14.636719 10.957031 14.71875 10.859375 14.75 10.738281 L 14.863281 10.257812 L 15.066406 10.257812 L 15.183594 10.738281 C 15.210938 10.859375 15.296875 10.957031 15.410156 11.007812 L 16.035156 11.265625 C 16.152344 11.3125 16.28125 11.304688 16.386719 11.238281 L 16.8125 10.976562 L 16.957031 11.121094 L 16.695312 11.546875 C 16.632812 11.652344 16.621094 11.78125 16.667969 11.898438 L 16.925781 12.523438 C 16.976562 12.636719 17.074219 12.722656 17.195312 12.75 L 17.675781 12.867188 L 17.675781 13.070312 L 17.195312 13.183594 C 17.074219 13.214844 16.976562 13.296875 16.925781 13.414062 L 16.667969 14.039062 C 16.621094 14.152344 16.632812 14.285156 16.695312 14.390625 L 16.957031 14.8125 L 16.8125 14.957031 L 16.386719 14.699219 C 16.28125 14.632812 16.152344 14.621094 16.035156 14.671875 L 15.410156 14.929688 C 15.296875 14.976562 15.210938 15.074219 15.183594 15.195312 L 15.066406 15.675781 L 14.863281 15.675781 L 14.75 15.195312 C 14.71875 15.074219 14.636719 14.976562 14.519531 14.929688 L 13.894531 14.671875 C 13.78125 14.621094 13.648438 14.632812 13.542969 14.699219 L 13.121094 14.957031 L 12.976562 14.8125 L 13.238281 14.390625 C 13.300781 14.285156 13.3125 14.152344 13.265625 14.039062 L 13.003906 13.414062 C 12.957031 13.296875 12.859375 13.214844 12.738281 13.183594 L 12.257812 13.070312 L 12.257812 12.867188 L 12.738281 12.75 C 12.859375 12.722656 12.957031 12.636719 13.003906 12.523438 Z M 12.472656 11.78125 L 12.363281 12.042969 L 11.777344 12.183594 C 11.605469 12.226562 11.480469 12.382812 11.480469 12.5625 L 11.480469 13.375 C 11.480469 13.554688 11.605469 13.710938 11.777344 13.75 L 12.363281 13.890625 L 12.472656 14.152344 L 12.15625 14.667969 C 12.0625 14.820312 12.085938 15.019531 12.214844 15.144531 L 12.789062 15.722656 C 12.914062 15.847656 13.113281 15.871094 13.265625 15.777344 L 13.78125 15.460938 L 14.042969 15.570312 L 14.183594 16.15625 C 14.222656 16.328125 14.378906 16.453125 14.558594 16.453125 L 15.371094 16.453125 C 15.550781 16.453125 15.707031 16.328125 15.75 16.15625 L 15.890625 15.570312 L 16.152344 15.460938 L 16.667969 15.777344 C 16.820312 15.871094 17.015625 15.847656 17.144531 15.722656 L 17.71875 15.144531 C 17.84375 15.019531 17.867188 14.820312 17.773438 14.667969 L 17.457031 14.152344 L 17.566406 13.890625 L 18.152344 13.75 C 18.328125 13.710938 18.449219 13.554688 18.449219 13.375 L 18.449219 12.5625 C 18.449219 12.382812 18.328125 12.226562 18.152344 12.183594 L 17.566406 12.042969 L 17.457031 11.78125 L 17.773438 11.265625 C 17.867188 11.113281 17.84375 10.917969 17.71875 10.789062 L 17.144531 10.214844 C 17.015625 10.089844 16.820312 10.066406 16.667969 10.160156 L 16.152344 10.476562 L 15.890625 10.367188 L 15.75 9.78125 C 15.707031 9.605469 15.550781 9.484375 15.371094 9.484375 L 14.558594 9.484375 C 14.378906 9.484375 14.222656 9.605469 14.183594 9.78125 L 14.042969 10.367188 L 13.78125 10.476562 L 13.265625 10.160156 C 13.113281 10.066406 12.914062 10.089844 12.789062 10.214844 L 12.214844 10.789062 C 12.085938 10.917969 12.0625 11.113281 12.15625 11.265625 L 12.472656 11.78125 " fill-opacity="1" fill-rule="nonzero"/><path fill="#935f3d" d="M 14.964844 12.582031 C 15.179688 12.582031 15.351562 12.753906 15.351562 12.96875 C 15.351562 13.179688 15.179688 13.355469 14.964844 13.355469 C 14.753906 13.355469 14.578125 13.179688 14.578125 12.96875 C 14.578125 12.753906 14.753906 12.582031 14.964844 12.582031 Z M 14.964844 14.128906 C 15.605469 14.128906 16.128906 13.609375 16.128906 12.96875 C 16.128906 12.328125 15.605469 11.804688 14.964844 11.804688 C 14.324219 11.804688 13.804688 12.328125 13.804688 12.96875 C 13.804688 13.609375 14.324219 14.128906 14.964844 14.128906 " fill-opacity="1" fill-rule="nonzero"/><path fill="#935f3d" d="M 24.070312 12.65625 C 24.195312 13.265625 24.257812 13.890625 24.257812 14.515625 C 24.257812 16.867188 23.375 19.109375 21.777344 20.832031 L 22.34375 21.359375 C 24.078125 19.492188 25.03125 17.0625 25.03125 14.515625 C 25.03125 13.839844 24.964844 13.160156 24.828125 12.503906 L 24.070312 12.65625 " fill-opacity="1" fill-rule="nonzero"/><path fill="#935f3d" d="M 14.964844 5.226562 C 15.589844 5.226562 16.21875 5.289062 16.824219 5.410156 L 16.976562 4.652344 C 16.320312 4.519531 15.644531 4.453125 14.964844 4.453125 C 14.148438 4.453125 13.335938 4.550781 12.550781 4.742188 L 12.734375 5.496094 C 13.460938 5.316406 14.210938 5.226562 14.964844 5.226562 " fill-opacity="1" fill-rule="nonzero"/><path fill="#935f3d" d="M 8.054688 10.230469 C 7.257812 11.515625 6.835938 12.996094 6.835938 14.515625 C 6.835938 16.035156 7.257812 17.515625 8.054688 18.800781 L 8.714844 18.390625 C 7.992188 17.230469 7.609375 15.890625 7.609375 14.515625 C 7.609375 13.140625 7.992188 11.800781 8.714844 10.640625 L 8.054688 10.230469 " fill-opacity="1" fill-rule="nonzero"/><path fill="#935f3d" d="M 20.65625 20.320312 C 22.230469 18.78125 23.09375 16.71875 23.09375 14.515625 C 23.09375 13.96875 23.039062 13.421875 22.933594 12.890625 L 22.175781 13.042969 C 22.269531 13.527344 22.320312 14.019531 22.320312 14.515625 C 22.320312 16.507812 21.539062 18.375 20.113281 19.769531 L 20.65625 20.320312 " fill-opacity="1" fill-rule="nonzero"/><path fill="#935f3d" d="M 14.964844 7.160156 C 15.460938 7.160156 15.957031 7.210938 16.4375 7.308594 L 16.589844 6.550781 C 16.058594 6.441406 15.511719 6.386719 14.964844 6.386719 C 14.132812 6.386719 13.3125 6.511719 12.527344 6.757812 L 12.757812 7.496094 C 13.46875 7.273438 14.214844 7.160156 14.964844 7.160156 " fill-opacity="1" fill-rule="nonzero"/><path fill="#935f3d" d="M 10.707031 20.324219 C 10.707031 20.792969 10.878906 21.25 11.191406 21.601562 L 11.773438 21.089844 C 11.585938 20.878906 11.480469 20.605469 11.480469 20.324219 C 11.480469 19.683594 12.003906 19.160156 12.644531 19.160156 C 12.847656 19.160156 13.046875 19.214844 13.222656 19.316406 L 13.613281 18.644531 C 13.320312 18.476562 12.984375 18.386719 12.644531 18.386719 C 11.578125 18.386719 10.707031 19.253906 10.707031 20.324219 " fill-opacity="1" fill-rule="nonzero"/></svg>