<svg xmlns="http://www.w3.org/2000/svg" xmlns:xlink="http://www.w3.org/1999/xlink" width="40" zoomAndPan="magnify" viewBox="0 0 30 30.000001" height="40" preserveAspectRatio="xMidYMid meet" version="1.0"><defs><clipPath id="0197368055"><path d="M 0.484375 0 L 29.515625 0 L 29.515625 29.03125 L 0.484375 29.03125 Z M 0.484375 0 " clip-rule="nonzero"/></clipPath><clipPath id="598bb4a3d1"><path d="M 3.386719 2.902344 L 26.613281 2.902344 L 26.613281 26.128906 L 3.386719 26.128906 Z M 3.386719 2.902344 " clip-rule="nonzero"/></clipPath></defs><g clip-path="url(#0197368055)"><path fill="#ffffff" d="M 0.484375 0 L 29.515625 0 L 29.515625 29.03125 L 0.484375 29.03125 Z M 0.484375 0 " fill-opacity="1" fill-rule="nonzero"/><path fill="#ffffff" d="M 0.484375 0 L 29.515625 0 L 29.515625 29.03125 L 0.484375 29.03125 Z M 0.484375 0 " fill-opacity="1" fill-rule="nonzero"/></g><g clip-path="url(#598bb4a3d1)"><path fill="#935f3d" d="M 18.871094 10.632812 C 16.734375 8.5 13.265625 8.5 11.128906 10.632812 C 8.996094 12.769531 8.996094 16.242188 11.128906 18.375 C 12.195312 19.441406 13.597656 19.976562 15 19.976562 C 16.402344 19.976562 17.804688 19.441406 18.871094 18.375 C 21.003906 16.242188 21.003906 12.769531 18.871094 10.632812 Z M 11.539062 11.042969 C 13.449219 9.132812 16.554688 9.132812 18.460938 11.042969 C 20.359375 12.9375 20.371094 16.015625 18.5 17.925781 C 18.160156 16.824219 17.25 15.988281 16.128906 15.738281 C 16.746094 15.359375 17.15625 14.679688 17.15625 13.90625 C 17.15625 12.714844 16.1875 11.75 15 11.75 C 13.8125 11.75 12.84375 12.714844 12.84375 13.90625 C 12.84375 14.679688 13.253906 15.359375 13.871094 15.738281 C 12.75 15.988281 11.839844 16.824219 11.5 17.925781 C 9.628906 16.015625 9.640625 12.9375 11.539062 11.042969 Z M 15 15.480469 C 14.128906 15.480469 13.421875 14.773438 13.421875 13.90625 C 13.421875 13.035156 14.128906 12.328125 15 12.328125 C 15.871094 12.328125 16.578125 13.035156 16.578125 13.90625 C 16.578125 14.773438 15.871094 15.480469 15 15.480469 Z M 11.988281 18.363281 C 12.222656 17.144531 13.300781 16.242188 14.558594 16.242188 L 15.441406 16.242188 C 16.699219 16.242188 17.777344 17.144531 18.011719 18.363281 C 17.128906 19.050781 16.066406 19.398438 15 19.398438 C 13.933594 19.398438 12.871094 19.050781 11.988281 18.363281 Z M 22.476562 8.53125 C 23.300781 8.53125 23.96875 7.863281 23.96875 7.039062 C 23.96875 6.214844 23.300781 5.546875 22.476562 5.546875 C 21.652344 5.546875 20.984375 6.214844 20.984375 7.039062 C 20.984375 7.863281 21.652344 8.53125 22.476562 8.53125 Z M 22.476562 6.125 C 22.980469 6.125 23.390625 6.535156 23.390625 7.039062 C 23.390625 7.542969 22.980469 7.953125 22.476562 7.953125 C 21.972656 7.953125 21.5625 7.542969 21.5625 7.039062 C 21.5625 6.535156 21.972656 6.125 22.476562 6.125 Z M 19.523438 7.503906 C 19.523438 7.644531 19.621094 7.765625 19.761719 7.789062 L 20.070312 7.84375 C 20.109375 7.957031 20.15625 8.066406 20.207031 8.171875 L 20.027344 8.429688 C 19.945312 8.542969 19.957031 8.699219 20.058594 8.796875 L 20.71875 9.457031 C 20.816406 9.554688 20.972656 9.570312 21.085938 9.488281 L 21.34375 9.308594 C 21.453125 9.359375 21.5625 9.40625 21.671875 9.445312 L 21.726562 9.753906 C 21.75 9.894531 21.871094 9.992188 22.011719 9.992188 L 22.941406 9.992188 C 23.082031 9.992188 23.203125 9.894531 23.226562 9.753906 L 23.28125 9.445312 C 23.394531 9.40625 23.503906 9.359375 23.609375 9.308594 L 23.867188 9.488281 C 23.980469 9.570312 24.136719 9.558594 24.238281 9.457031 L 24.894531 8.796875 C 24.992188 8.699219 25.007812 8.542969 24.925781 8.429688 L 24.746094 8.171875 C 24.796875 8.066406 24.84375 7.957031 24.882812 7.84375 L 25.191406 7.789062 C 25.332031 7.765625 25.429688 7.644531 25.429688 7.503906 L 25.429688 6.574219 C 25.429688 6.433594 25.332031 6.3125 25.191406 6.289062 L 24.882812 6.234375 C 24.84375 6.121094 24.796875 6.011719 24.746094 5.90625 L 24.925781 5.648438 C 25.007812 5.535156 24.996094 5.378906 24.894531 5.277344 L 24.238281 4.621094 C 24.136719 4.523438 23.980469 4.507812 23.867188 4.589844 L 23.609375 4.769531 C 23.503906 4.71875 23.394531 4.671875 23.28125 4.632812 L 23.226562 4.324219 C 23.203125 4.183594 23.082031 4.085938 22.941406 4.085938 L 22.011719 4.085938 C 21.871094 4.085938 21.75 4.183594 21.726562 4.324219 L 21.671875 4.632812 C 21.5625 4.671875 21.453125 4.71875 21.347656 4.769531 L 21.089844 4.589844 C 20.972656 4.507812 20.816406 4.519531 20.71875 4.621094 L 20.058594 5.277344 C 19.960938 5.378906 19.945312 5.535156 20.027344 5.648438 L 20.207031 5.90625 C 20.15625 6.011719 20.109375 6.121094 20.070312 6.234375 L 19.761719 6.289062 C 19.621094 6.3125 19.523438 6.433594 19.523438 6.574219 Z M 20.101562 6.816406 L 20.347656 6.773438 C 20.460938 6.753906 20.550781 6.671875 20.578125 6.558594 C 20.625 6.375 20.699219 6.199219 20.796875 6.035156 C 20.855469 5.9375 20.851562 5.816406 20.785156 5.722656 L 20.640625 5.515625 L 20.953125 5.203125 L 21.160156 5.347656 C 21.253906 5.410156 21.378906 5.417969 21.476562 5.359375 C 21.636719 5.261719 21.8125 5.1875 21.996094 5.140625 C 22.109375 5.113281 22.191406 5.023438 22.210938 4.910156 L 22.253906 4.660156 L 22.699219 4.660156 L 22.742188 4.910156 C 22.761719 5.023438 22.847656 5.113281 22.957031 5.140625 C 23.140625 5.1875 23.316406 5.261719 23.480469 5.359375 C 23.578125 5.417969 23.703125 5.410156 23.796875 5.347656 L 24 5.203125 L 24.316406 5.515625 L 24.171875 5.722656 C 24.105469 5.816406 24.101562 5.9375 24.160156 6.035156 C 24.257812 6.199219 24.332031 6.375 24.375 6.558594 C 24.40625 6.671875 24.496094 6.753906 24.605469 6.773438 L 24.855469 6.816406 L 24.855469 7.261719 L 24.605469 7.304688 C 24.496094 7.324219 24.40625 7.410156 24.375 7.519531 C 24.332031 7.703125 24.257812 7.878906 24.160156 8.042969 C 24.101562 8.140625 24.105469 8.261719 24.171875 8.355469 L 24.316406 8.5625 L 24 8.878906 L 23.796875 8.730469 C 23.703125 8.667969 23.578125 8.660156 23.480469 8.722656 C 23.316406 8.816406 23.140625 8.890625 22.957031 8.9375 C 22.847656 8.964844 22.761719 9.054688 22.742188 9.167969 L 22.699219 9.417969 L 22.257812 9.417969 L 22.210938 9.167969 C 22.191406 9.054688 22.109375 8.964844 22 8.9375 C 21.816406 8.890625 21.640625 8.820312 21.476562 8.722656 C 21.378906 8.660156 21.253906 8.667969 21.160156 8.730469 L 20.953125 8.878906 L 20.640625 8.5625 L 20.785156 8.355469 C 20.851562 8.261719 20.855469 8.140625 20.796875 8.042969 C 20.699219 7.878906 20.625 7.703125 20.578125 7.519531 C 20.550781 7.40625 20.460938 7.324219 20.347656 7.304688 L 20.101562 7.261719 Z M 26.554688 14.503906 C 26.554688 12.863281 26.21875 11.28125 25.554688 9.796875 C 26.210938 9.066406 26.613281 8.097656 26.613281 7.039062 C 26.613281 4.757812 24.757812 2.902344 22.476562 2.902344 C 21.421875 2.902344 20.457031 3.300781 19.722656 3.957031 C 18.234375 3.289062 16.648438 2.949219 15 2.949219 C 13.351562 2.949219 11.765625 3.289062 10.277344 3.957031 C 9.542969 3.300781 8.578125 2.902344 7.523438 2.902344 C 5.242188 2.902344 3.386719 4.757812 3.386719 7.039062 C 3.386719 8.097656 3.789062 9.066406 4.445312 9.796875 C 3.78125 11.28125 3.445312 12.863281 3.445312 14.503906 C 3.445312 16.152344 3.785156 17.738281 4.453125 19.226562 C 3.789062 19.960938 3.386719 20.929688 3.386719 21.992188 C 3.386719 24.273438 5.242188 26.128906 7.523438 26.128906 C 8.589844 26.128906 9.5625 25.722656 10.296875 25.058594 C 11.777344 25.722656 13.359375 26.058594 15 26.058594 C 16.640625 26.058594 18.222656 25.722656 19.703125 25.058594 C 20.4375 25.722656 21.410156 26.128906 22.476562 26.128906 C 24.757812 26.128906 26.613281 24.273438 26.613281 21.992188 C 26.613281 20.929688 26.207031 19.960938 25.546875 19.226562 C 26.214844 17.738281 26.554688 16.152344 26.554688 14.503906 Z M 22.476562 3.480469 C 24.4375 3.480469 26.035156 5.078125 26.035156 7.039062 C 26.035156 9 24.4375 10.597656 22.476562 10.597656 C 20.515625 10.597656 18.917969 9 18.917969 7.039062 C 18.917969 5.078125 20.515625 3.480469 22.476562 3.480469 Z M 7.234375 3.496094 L 7.234375 3.917969 C 7.234375 4.078125 7.363281 4.207031 7.523438 4.207031 C 7.683594 4.207031 7.8125 4.078125 7.8125 3.917969 L 7.8125 3.496094 C 9.542969 3.632812 10.929688 5.019531 11.066406 6.75 L 10.640625 6.75 C 10.484375 6.75 10.351562 6.878906 10.351562 7.039062 C 10.351562 7.199219 10.484375 7.328125 10.640625 7.328125 L 11.066406 7.328125 C 10.929688 9.058594 9.542969 10.445312 7.8125 10.585938 L 7.8125 10.160156 C 7.8125 10 7.683594 9.871094 7.523438 9.871094 C 7.363281 9.871094 7.234375 10 7.234375 10.160156 L 7.234375 10.585938 C 5.503906 10.445312 4.117188 9.058594 3.976562 7.328125 L 4.402344 7.328125 C 4.5625 7.328125 4.691406 7.199219 4.691406 7.039062 C 4.691406 6.878906 4.5625 6.75 4.402344 6.75 L 3.976562 6.75 C 4.117188 5.019531 5.503906 3.632812 7.234375 3.496094 Z M 7.523438 25.550781 C 5.5625 25.550781 3.964844 23.953125 3.964844 21.992188 C 3.964844 20.03125 5.5625 18.4375 7.523438 18.4375 C 9.484375 18.4375 11.082031 20.03125 11.082031 21.992188 C 11.082031 23.953125 9.484375 25.550781 7.523438 25.550781 Z M 10.71875 24.613281 C 11.304688 23.898438 11.660156 22.988281 11.660156 21.992188 C 11.660156 19.710938 9.804688 17.855469 7.523438 17.855469 C 6.527344 17.855469 5.613281 18.210938 4.898438 18.800781 C 4.316406 17.441406 4.023438 16 4.023438 14.503906 C 4.023438 13.015625 4.316406 11.578125 4.890625 10.226562 C 5.605469 10.816406 6.523438 11.175781 7.523438 11.175781 C 9.804688 11.175781 11.660156 9.320312 11.660156 7.039062 C 11.660156 6.039062 11.300781 5.117188 10.707031 4.398438 C 12.0625 3.820312 13.507812 3.527344 15 3.527344 C 16.496094 3.527344 17.9375 3.820312 19.296875 4.398438 C 18.699219 5.117188 18.339844 6.039062 18.339844 7.039062 C 18.339844 9.320312 20.195312 11.175781 22.476562 11.175781 C 23.476562 11.175781 24.394531 10.820312 25.109375 10.226562 C 25.683594 11.578125 25.976562 13.015625 25.976562 14.503906 C 25.976562 16 25.683594 17.441406 25.105469 18.800781 C 24.390625 18.210938 23.472656 17.855469 22.476562 17.855469 C 20.195312 17.855469 18.339844 19.710938 18.339844 21.992188 C 18.339844 22.988281 18.695312 23.902344 19.28125 24.613281 C 17.925781 25.1875 16.488281 25.480469 15 25.480469 C 13.511719 25.480469 12.074219 25.1875 10.71875 24.613281 Z M 22.476562 25.550781 C 20.515625 25.550781 18.917969 23.953125 18.917969 21.992188 C 18.917969 20.03125 20.515625 18.4375 22.476562 18.4375 C 24.4375 18.4375 26.035156 20.03125 26.035156 21.992188 C 26.035156 23.957031 24.4375 25.550781 22.476562 25.550781 Z M 23.894531 23.015625 C 23.894531 23.632812 23.410156 24.152344 22.765625 24.285156 L 22.765625 24.648438 C 22.765625 24.808594 22.636719 24.9375 22.476562 24.9375 C 22.316406 24.9375 22.1875 24.808594 22.1875 24.648438 L 22.1875 24.292969 C 21.679688 24.210938 21.25 23.886719 21.078125 23.433594 C 21.023438 23.285156 21.097656 23.117188 21.246094 23.0625 C 21.398438 23.003906 21.5625 23.078125 21.621094 23.230469 C 21.734375 23.527344 22.074219 23.738281 22.449219 23.738281 C 22.925781 23.738281 23.316406 23.414062 23.316406 23.015625 C 23.316406 22.929688 23.300781 22.632812 23.09375 22.550781 L 22.375 22.265625 L 21.792969 22.066406 C 21.347656 21.910156 21.058594 21.480469 21.058594 20.96875 C 21.058594 20.351562 21.542969 19.832031 22.1875 19.703125 L 22.1875 19.335938 C 22.1875 19.175781 22.316406 19.046875 22.476562 19.046875 C 22.636719 19.046875 22.765625 19.175781 22.765625 19.335938 L 22.765625 19.691406 C 23.273438 19.777344 23.703125 20.101562 23.875 20.550781 C 23.929688 20.703125 23.855469 20.867188 23.707031 20.925781 C 23.558594 20.980469 23.390625 20.90625 23.332031 20.757812 C 23.21875 20.457031 22.878906 20.25 22.503906 20.25 C 22.027344 20.25 21.636719 20.570312 21.636719 20.96875 C 21.636719 21.175781 21.726562 21.429688 21.980469 21.515625 L 22.570312 21.71875 C 22.574219 21.722656 22.578125 21.722656 22.582031 21.722656 L 23.304688 22.011719 C 23.675781 22.160156 23.894531 22.535156 23.894531 23.015625 Z M 9.542969 19.675781 L 8.195312 19.675781 C 8.035156 19.675781 7.90625 19.804688 7.90625 19.964844 L 7.90625 20.804688 L 6.851562 20.804688 C 6.691406 20.804688 6.5625 20.933594 6.5625 21.09375 L 6.5625 22.027344 L 5.503906 22.027344 C 5.34375 22.027344 5.214844 22.15625 5.214844 22.316406 L 5.214844 24.023438 C 5.214844 24.183594 5.34375 24.3125 5.503906 24.3125 L 9.542969 24.3125 C 9.703125 24.3125 9.832031 24.183594 9.832031 24.023438 L 9.832031 19.964844 C 9.832031 19.804688 9.703125 19.675781 9.542969 19.675781 Z M 5.792969 22.605469 L 6.558594 22.605469 L 6.558594 23.734375 L 5.792969 23.734375 Z M 7.140625 21.382812 L 7.90625 21.382812 L 7.90625 23.734375 L 7.140625 23.734375 Z M 9.253906 23.734375 L 8.484375 23.734375 L 8.484375 20.253906 L 9.253906 20.253906 Z M 7.523438 8.023438 C 7.964844 8.023438 8.339844 7.730469 8.460938 7.328125 L 9.164062 7.328125 C 9.324219 7.328125 9.453125 7.199219 9.453125 7.039062 C 9.453125 6.878906 9.324219 6.75 9.164062 6.75 L 8.460938 6.75 C 8.367188 6.441406 8.121094 6.195312 7.8125 6.101562 L 7.8125 5 C 7.8125 4.84375 7.683594 4.710938 7.523438 4.710938 C 7.363281 4.710938 7.234375 4.84375 7.234375 5 L 7.234375 6.101562 C 6.832031 6.222656 6.539062 6.597656 6.539062 7.039062 C 6.539062 7.582031 6.980469 8.023438 7.523438 8.023438 Z M 7.523438 6.636719 C 7.746094 6.636719 7.925781 6.816406 7.925781 7.039062 C 7.925781 7.261719 7.746094 7.441406 7.523438 7.441406 C 7.300781 7.441406 7.117188 7.261719 7.117188 7.039062 C 7.117188 6.816406 7.300781 6.636719 7.523438 6.636719 Z M 7.523438 6.636719 " fill-opacity="1" fill-rule="nonzero"/></g></svg>