<svg xmlns="http://www.w3.org/2000/svg" xmlns:xlink="http://www.w3.org/1999/xlink" width="40" zoomAndPan="magnify" viewBox="0 0 30 30.000001" height="40" preserveAspectRatio="xMidYMid meet" version="1.0"><defs><clipPath id="f31fcb4ef0"><path d="M 0.484375 0 L 29.515625 0 L 29.515625 29.03125 L 0.484375 29.03125 Z M 0.484375 0 " clip-rule="nonzero"/></clipPath><clipPath id="b6c9e8100f"><path d="M 11 2.902344 L 18 2.902344 L 18 10 L 11 10 Z M 11 2.902344 " clip-rule="nonzero"/></clipPath><clipPath id="f9614fbcd3"><path d="M 11 20 L 18 20 L 18 26.128906 L 11 26.128906 Z M 11 20 " clip-rule="nonzero"/></clipPath></defs><g clip-path="url(#f31fcb4ef0)"><path fill="#ffffff" d="M 0.484375 0 L 29.515625 0 L 29.515625 29.03125 L 0.484375 29.03125 Z M 0.484375 0 " fill-opacity="1" fill-rule="nonzero"/><path fill="#ffffff" d="M 0.484375 0 L 29.515625 0 L 29.515625 29.03125 L 0.484375 29.03125 Z M 0.484375 0 " fill-opacity="1" fill-rule="nonzero"/></g><g clip-path="url(#b6c9e8100f)"><path fill="#935f3d" d="M 17.386719 9.992188 L 12.054688 9.992188 C 11.90625 9.992188 11.78125 9.871094 11.78125 9.71875 L 11.78125 3.175781 C 11.78125 3.027344 11.90625 2.902344 12.054688 2.902344 L 14.816406 2.902344 L 14.816406 5.476562 C 14.816406 5.625 14.9375 5.746094 15.089844 5.746094 L 17.660156 5.746094 L 17.660156 9.71875 C 17.660156 9.871094 17.539062 9.992188 17.386719 9.992188 Z M 16.339844 8.78125 L 13.117188 8.78125 C 12.964844 8.78125 12.84375 8.660156 12.84375 8.507812 C 12.84375 8.359375 12.964844 8.238281 13.117188 8.238281 L 16.339844 8.238281 C 16.488281 8.238281 16.613281 8.359375 16.613281 8.507812 C 16.613281 8.660156 16.488281 8.78125 16.339844 8.78125 Z M 16.339844 7.816406 L 13.117188 7.816406 C 12.964844 7.816406 12.84375 7.691406 12.84375 7.542969 C 12.84375 7.378906 12.964844 7.269531 13.117188 7.269531 L 16.339844 7.269531 C 16.488281 7.269531 16.613281 7.378906 16.613281 7.542969 C 16.613281 7.691406 16.488281 7.816406 16.339844 7.816406 Z M 16.339844 6.835938 L 13.117188 6.835938 C 12.964844 6.835938 12.84375 6.714844 12.84375 6.5625 C 12.84375 6.414062 12.964844 6.292969 13.117188 6.292969 L 16.339844 6.292969 C 16.488281 6.292969 16.613281 6.414062 16.613281 6.5625 C 16.613281 6.714844 16.488281 6.835938 16.339844 6.835938 Z M 14.136719 5.339844 L 13.035156 5.339844 C 12.761719 5.339844 12.53125 5.121094 12.53125 4.835938 L 12.53125 4.238281 C 12.53125 3.964844 12.761719 3.734375 13.035156 3.734375 L 14.136719 3.734375 C 14.40625 3.734375 14.640625 3.964844 14.640625 4.238281 L 14.640625 4.835938 C 14.640625 5.121094 14.40625 5.339844 14.136719 5.339844 Z M 13.074219 4.792969 L 14.09375 4.792969 L 14.09375 4.277344 L 13.074219 4.277344 Z M 14.136719 4.277344 Z M 15.359375 2.902344 L 15.375 2.902344 C 15.457031 2.902344 15.523438 2.945312 15.578125 3 L 17.511719 5.203125 L 15.359375 5.203125 Z M 15.359375 2.902344 " fill-opacity="1" fill-rule="evenodd"/></g><path fill="#935f3d" d="M 8.339844 13.898438 C 7.617188 13.898438 7.019531 13.296875 7.019531 12.5625 L 7.019531 12.238281 C 7.019531 11.503906 7.617188 10.902344 8.339844 10.902344 C 9.074219 10.902344 9.671875 11.503906 9.671875 12.238281 L 9.671875 12.5625 C 9.671875 13.296875 9.074219 13.898438 8.339844 13.898438 Z M 8.339844 13.898438 " fill-opacity="1" fill-rule="evenodd"/><path fill="#935f3d" d="M 11.402344 18.660156 L 10.328125 18.660156 L 10.328125 16.957031 C 10.328125 16.808594 10.203125 16.6875 10.054688 16.6875 C 9.90625 16.6875 9.78125 16.808594 9.78125 16.957031 L 9.78125 18.660156 L 6.898438 18.660156 L 6.898438 16.957031 C 6.898438 16.808594 6.773438 16.6875 6.625 16.6875 C 6.476562 16.6875 6.351562 16.808594 6.351562 16.957031 L 6.351562 18.660156 L 5.292969 18.660156 C 5.140625 18.660156 5.019531 18.535156 5.019531 18.386719 L 5.019531 15.613281 C 5.019531 14.632812 5.808594 13.84375 6.789062 13.84375 L 7.375 13.84375 C 7.457031 13.84375 7.535156 13.882812 7.578125 13.953125 L 8.339844 14.890625 L 9.101562 13.953125 C 9.15625 13.882812 9.238281 13.84375 9.320312 13.84375 L 9.90625 13.84375 C 10.871094 13.84375 11.660156 14.632812 11.660156 15.613281 L 11.660156 18.386719 C 11.671875 18.535156 11.550781 18.660156 11.402344 18.660156 Z M 11.402344 18.660156 " fill-opacity="1" fill-rule="evenodd"/><path fill="#935f3d" d="M 21.496094 18.660156 L 20.707031 18.660156 C 20.464844 18.660156 20.257812 18.457031 20.257812 18.210938 L 20.257812 17.898438 C 20 17.816406 19.742188 17.71875 19.511719 17.585938 L 19.277344 17.800781 C 19.199219 17.882812 19.089844 17.9375 18.964844 17.9375 C 18.84375 17.9375 18.722656 17.882812 18.640625 17.800781 L 18.082031 17.246094 C 18 17.164062 17.960938 17.039062 17.960938 16.917969 C 17.960938 16.808594 18 16.6875 18.082031 16.605469 L 18.3125 16.386719 C 18.175781 16.140625 18.066406 15.898438 18 15.625 L 17.6875 15.625 C 17.429688 15.625 17.226562 15.421875 17.226562 15.175781 L 17.226562 14.386719 C 17.226562 14.140625 17.429688 13.9375 17.6875 13.9375 L 18 13.9375 C 18.066406 13.679688 18.175781 13.421875 18.3125 13.191406 L 18.082031 12.957031 C 17.90625 12.78125 17.90625 12.496094 18.082031 12.320312 L 18.640625 11.773438 C 18.816406 11.585938 19.101562 11.585938 19.277344 11.773438 L 19.511719 11.992188 C 19.742188 11.855469 20 11.746094 20.257812 11.679688 L 20.257812 11.367188 C 20.257812 11.109375 20.464844 10.902344 20.707031 10.902344 L 21.496094 10.902344 C 21.742188 10.902344 21.945312 11.109375 21.945312 11.367188 L 21.945312 11.679688 C 22.21875 11.746094 22.464844 11.855469 22.707031 11.992188 L 22.925781 11.773438 C 23.089844 11.597656 23.386719 11.597656 23.566406 11.773438 L 24.121094 12.320312 C 24.203125 12.398438 24.246094 12.523438 24.246094 12.644531 C 24.246094 12.769531 24.203125 12.875 24.121094 12.957031 L 23.890625 13.191406 C 24.027344 13.421875 24.136719 13.679688 24.203125 13.9375 L 24.515625 13.9375 C 24.777344 13.9375 24.980469 14.140625 24.980469 14.386719 L 24.980469 15.175781 C 24.980469 15.421875 24.777344 15.625 24.515625 15.625 L 24.203125 15.625 C 24.136719 15.898438 24.027344 16.140625 23.890625 16.386719 L 24.121094 16.605469 C 24.203125 16.6875 24.246094 16.808594 24.246094 16.929688 C 24.246094 17.039062 24.203125 17.164062 24.121094 17.246094 L 23.566406 17.800781 C 23.402344 17.964844 23.089844 17.964844 22.925781 17.800781 L 22.707031 17.585938 C 22.464844 17.71875 22.21875 17.816406 21.945312 17.898438 L 21.945312 18.210938 C 21.945312 18.457031 21.742188 18.660156 21.496094 18.660156 Z M 21.101562 16.824219 C 19.972656 16.824219 19.0625 15.910156 19.0625 14.78125 C 19.0625 13.664062 19.972656 12.742188 21.101562 12.742188 C 22.230469 12.742188 23.144531 13.652344 23.144531 14.78125 C 23.144531 15.910156 22.230469 16.824219 21.101562 16.824219 Z M 21.101562 16.824219 " fill-opacity="1" fill-rule="evenodd"/><path fill="#935f3d" d="M 8.339844 9.992188 C 8.191406 9.992188 8.066406 9.871094 8.066406 9.71875 L 8.066406 8.863281 C 8.066406 7.515625 9.074219 6.332031 10.394531 6.113281 C 10.40625 6.113281 10.421875 6.113281 10.449219 6.113281 L 12.054688 6.113281 C 12.203125 6.113281 12.328125 6.238281 12.328125 6.386719 C 12.328125 6.535156 12.203125 6.660156 12.054688 6.660156 L 10.460938 6.660156 C 9.414062 6.847656 8.613281 7.789062 8.613281 8.863281 L 8.613281 9.71875 C 8.613281 9.871094 8.488281 9.992188 8.339844 9.992188 Z M 8.339844 9.992188 " fill-opacity="1" fill-rule="evenodd"/><path fill="#935f3d" d="M 21.101562 9.992188 C 20.953125 9.992188 20.832031 9.871094 20.832031 9.71875 L 20.832031 8.863281 C 20.832031 7.789062 20.042969 6.847656 18.980469 6.660156 L 17.386719 6.660156 C 17.238281 6.660156 17.117188 6.535156 17.117188 6.386719 C 17.117188 6.238281 17.238281 6.113281 17.386719 6.113281 L 19.007812 6.113281 C 19.019531 6.113281 19.035156 6.113281 19.046875 6.113281 C 20.382812 6.34375 21.375 7.515625 21.375 8.863281 L 21.375 9.71875 C 21.375 9.871094 21.253906 9.992188 21.101562 9.992188 Z M 21.101562 9.992188 " fill-opacity="1" fill-rule="evenodd"/><path fill="#935f3d" d="M 12.054688 23.449219 L 10.433594 23.449219 C 10.421875 23.449219 10.40625 23.449219 10.394531 23.449219 C 9.074219 23.230469 8.066406 22.046875 8.066406 20.699219 L 8.066406 19.855469 C 8.066406 19.707031 8.191406 19.585938 8.339844 19.585938 C 8.488281 19.585938 8.613281 19.707031 8.613281 19.855469 L 8.613281 20.699219 C 8.613281 21.773438 9.402344 22.726562 10.460938 22.90625 L 12.054688 22.90625 C 12.203125 22.90625 12.328125 23.027344 12.328125 23.175781 C 12.328125 23.324219 12.203125 23.449219 12.054688 23.449219 Z M 12.054688 23.449219 " fill-opacity="1" fill-rule="evenodd"/><path fill="#935f3d" d="M 19.007812 23.449219 L 17.386719 23.449219 C 17.238281 23.449219 17.117188 23.324219 17.117188 23.175781 C 17.117188 23.027344 17.238281 22.90625 17.386719 22.90625 L 18.980469 22.90625 C 20.042969 22.726562 20.832031 21.773438 20.832031 20.699219 L 20.832031 19.855469 C 20.832031 19.707031 20.953125 19.585938 21.101562 19.585938 C 21.253906 19.585938 21.375 19.707031 21.375 19.855469 L 21.375 20.699219 C 21.375 22.046875 20.382812 23.230469 19.046875 23.449219 C 19.035156 23.449219 19.019531 23.449219 19.007812 23.449219 Z M 19.007812 23.449219 " fill-opacity="1" fill-rule="evenodd"/><g clip-path="url(#f9614fbcd3)"><path fill="#935f3d" d="M 14.722656 26.128906 C 13.101562 26.128906 11.78125 24.808594 11.78125 23.175781 C 11.78125 21.558594 13.101562 20.238281 14.722656 20.238281 C 16.339844 20.238281 17.660156 21.558594 17.660156 23.175781 C 17.660156 24.808594 16.339844 26.128906 14.722656 26.128906 Z M 14.3125 24.550781 C 14.230469 24.550781 14.148438 24.535156 14.066406 24.511719 C 13.824219 24.414062 13.660156 24.183594 13.660156 23.9375 L 13.660156 22.429688 C 13.660156 22.183594 13.824219 21.953125 14.066406 21.855469 C 14.300781 21.773438 14.570312 21.816406 14.761719 21.992188 L 15.59375 22.742188 C 15.714844 22.863281 15.78125 23.011719 15.78125 23.191406 C 15.78125 23.351562 15.714844 23.515625 15.59375 23.625 L 14.761719 24.375 C 14.640625 24.484375 14.476562 24.550781 14.3125 24.550781 Z M 14.3125 22.359375 C 14.300781 22.359375 14.273438 22.359375 14.257812 22.375 C 14.230469 22.386719 14.203125 22.402344 14.203125 22.429688 L 14.203125 23.9375 C 14.203125 23.964844 14.230469 23.980469 14.257812 23.992188 C 14.300781 24.007812 14.355469 24.007812 14.394531 23.980469 L 15.222656 23.21875 C 15.238281 23.203125 15.238281 23.203125 15.238281 23.175781 C 15.238281 23.164062 15.238281 23.148438 15.222656 23.136719 L 14.394531 22.386719 C 14.367188 22.375 14.339844 22.359375 14.3125 22.359375 Z M 14.3125 22.359375 " fill-opacity="1" fill-rule="evenodd"/></g></svg>