<svg xmlns="http://www.w3.org/2000/svg" xmlns:xlink="http://www.w3.org/1999/xlink" width="40" zoomAndPan="magnify" viewBox="0 0 30 30.000001" height="40" preserveAspectRatio="xMidYMid meet" version="1.0"><defs><clipPath id="85cf8b17bf"><path d="M 0.484375 0 L 29.515625 0 L 29.515625 29.03125 L 0.484375 29.03125 Z M 0.484375 0 " clip-rule="nonzero"/></clipPath><clipPath id="ec9f67eb82"><path d="M 3.386719 3.136719 L 26.613281 3.136719 L 26.613281 25.636719 L 3.386719 25.636719 Z M 3.386719 3.136719 " clip-rule="nonzero"/></clipPath></defs><g clip-path="url(#85cf8b17bf)"><path fill="#ffffff" d="M 0.484375 0 L 29.515625 0 L 29.515625 29.03125 L 0.484375 29.03125 Z M 0.484375 0 " fill-opacity="1" fill-rule="nonzero"/><path fill="#ffffff" d="M 0.484375 0 L 29.515625 0 L 29.515625 29.03125 L 0.484375 29.03125 Z M 0.484375 0 " fill-opacity="1" fill-rule="nonzero"/></g><g clip-path="url(#ec9f67eb82)"><path fill="#935f3d" d="M 6.273438 15.710938 L 3.726562 15.710938 C 3.605469 15.710938 3.496094 15.644531 3.441406 15.539062 C 3.386719 15.429688 3.398438 15.300781 3.472656 15.207031 L 7.769531 9.453125 C 7.832031 9.371094 7.925781 9.324219 8.023438 9.324219 C 8.125 9.324219 8.21875 9.371094 8.277344 9.453125 L 12.574219 15.207031 C 12.648438 15.300781 12.660156 15.429688 12.605469 15.539062 C 12.550781 15.644531 12.441406 15.710938 12.320312 15.710938 L 9.773438 15.710938 L 9.773438 16.941406 C 9.773438 17.117188 9.632812 17.257812 9.457031 17.257812 C 9.28125 17.257812 9.140625 17.117188 9.140625 16.941406 L 9.140625 15.394531 C 9.140625 15.21875 9.28125 15.078125 9.457031 15.078125 L 11.6875 15.078125 L 8.023438 10.171875 L 4.359375 15.078125 L 6.589844 15.078125 C 6.765625 15.078125 6.90625 15.21875 6.90625 15.394531 L 6.90625 22.097656 C 6.90625 22.273438 6.765625 22.414062 6.589844 22.414062 C 6.414062 22.414062 6.273438 22.273438 6.273438 22.097656 Z M 10.699219 9.523438 L 13.25 9.523438 L 13.25 15.214844 C 13.25 15.386719 13.390625 15.53125 13.566406 15.53125 C 13.738281 15.53125 13.882812 15.386719 13.882812 15.214844 L 13.882812 9.207031 C 13.882812 9.03125 13.738281 8.886719 13.566406 8.886719 L 11.332031 8.886719 L 15 3.984375 L 18.664062 8.886719 L 16.429688 8.886719 C 16.253906 8.886719 16.113281 9.03125 16.113281 9.207031 L 16.113281 15.214844 C 16.113281 15.386719 16.253906 15.53125 16.429688 15.53125 C 16.605469 15.53125 16.746094 15.386719 16.746094 15.214844 L 16.746094 9.523438 L 19.296875 9.523438 C 19.414062 9.523438 19.527344 9.453125 19.578125 9.347656 C 19.632812 9.238281 19.621094 9.113281 19.550781 9.015625 L 15.253906 3.261719 C 15.191406 3.183594 15.097656 3.136719 15 3.136719 C 14.898438 3.136719 14.804688 3.183594 14.746094 3.261719 L 10.445312 9.015625 C 10.375 9.113281 10.363281 9.238281 10.417969 9.347656 C 10.46875 9.453125 10.578125 9.523438 10.699219 9.523438 Z M 26.523438 15.207031 L 22.226562 9.453125 C 22.167969 9.371094 22.074219 9.324219 21.972656 9.324219 C 21.871094 9.324219 21.777344 9.371094 21.71875 9.453125 L 17.417969 15.207031 C 17.347656 15.300781 17.335938 15.429688 17.390625 15.539062 C 17.445312 15.644531 17.554688 15.710938 17.671875 15.710938 L 20.222656 15.710938 L 20.222656 16.941406 C 20.222656 17.117188 20.363281 17.257812 20.539062 17.257812 C 20.714844 17.257812 20.855469 17.117188 20.855469 16.941406 L 20.855469 15.394531 C 20.855469 15.21875 20.714844 15.078125 20.539062 15.078125 L 18.304688 15.078125 L 21.972656 10.171875 L 25.636719 15.078125 L 23.40625 15.078125 C 23.230469 15.078125 23.085938 15.21875 23.085938 15.394531 L 23.085938 22.097656 C 23.085938 22.273438 23.230469 22.414062 23.40625 22.414062 C 23.578125 22.414062 23.722656 22.273438 23.722656 22.097656 L 23.722656 15.710938 L 26.269531 15.710938 C 26.390625 15.710938 26.5 15.644531 26.554688 15.539062 C 26.605469 15.429688 26.59375 15.300781 26.523438 15.207031 Z M 23.472656 23.097656 L 21.316406 22.609375 C 21.238281 22.378906 21.140625 22.148438 21.035156 21.925781 L 22.214844 20.054688 C 22.292969 19.929688 22.277344 19.765625 22.171875 19.664062 L 20.160156 17.652344 C 20.058594 17.546875 19.894531 17.527344 19.769531 17.609375 L 17.898438 18.789062 C 17.675781 18.683594 17.449219 18.585938 17.214844 18.507812 L 16.726562 16.347656 C 16.695312 16.207031 16.566406 16.101562 16.417969 16.101562 L 13.578125 16.101562 C 13.429688 16.101562 13.300781 16.207031 13.265625 16.347656 L 12.78125 18.507812 C 12.546875 18.585938 12.320312 18.683594 12.097656 18.789062 L 10.226562 17.609375 C 10.101562 17.527344 9.9375 17.546875 9.835938 17.652344 L 7.824219 19.660156 C 7.71875 19.765625 7.703125 19.929688 7.78125 20.054688 L 8.960938 21.925781 C 8.855469 22.148438 8.761719 22.375 8.679688 22.609375 L 6.519531 23.097656 C 6.375 23.128906 6.273438 23.257812 6.273438 23.40625 L 6.273438 24.824219 C 6.273438 25 6.414062 25.140625 6.589844 25.140625 C 6.765625 25.140625 6.90625 25 6.90625 24.824219 L 6.90625 23.660156 L 8.992188 23.1875 C 9.101562 23.164062 9.191406 23.082031 9.222656 22.972656 C 9.324219 22.65625 9.453125 22.347656 9.605469 22.050781 C 9.65625 21.953125 9.652344 21.832031 9.59375 21.738281 L 8.453125 19.929688 L 10.101562 18.277344 L 11.910156 19.421875 C 12.003906 19.480469 12.125 19.484375 12.226562 19.433594 C 12.519531 19.28125 12.828125 19.152344 13.144531 19.050781 C 13.253906 19.015625 13.332031 18.929688 13.359375 18.820312 L 13.828125 16.738281 L 16.164062 16.738281 L 16.636719 18.820312 C 16.660156 18.929688 16.742188 19.015625 16.847656 19.050781 C 17.164062 19.152344 17.476562 19.28125 17.769531 19.433594 C 17.871094 19.484375 17.992188 19.480469 18.085938 19.421875 L 19.890625 18.277344 L 21.542969 19.929688 L 20.402344 21.738281 C 20.34375 21.832031 20.339844 21.953125 20.390625 22.050781 C 20.542969 22.351562 20.671875 22.660156 20.773438 22.972656 C 20.808594 23.082031 20.894531 23.160156 21.003906 23.1875 L 23.085938 23.660156 L 23.085938 24.824219 C 23.085938 25 23.230469 25.140625 23.40625 25.140625 C 23.578125 25.140625 23.722656 25 23.722656 24.824219 L 23.722656 23.40625 C 23.722656 23.257812 23.617188 23.128906 23.472656 23.097656 Z M 17.527344 20.445312 C 16.355469 19.769531 14.992188 19.589844 13.6875 19.941406 C 11.480469 20.53125 9.9375 22.539062 9.9375 24.824219 C 9.9375 25 10.082031 25.144531 10.253906 25.144531 L 11.882812 25.144531 C 12.058594 25.144531 12.199219 25 12.199219 24.824219 C 12.199219 24.652344 12.058594 24.507812 11.882812 24.507812 L 10.582031 24.507812 C 10.625 23.9375 10.777344 23.390625 11.019531 22.894531 L 11.410156 23.117188 C 11.457031 23.148438 11.511719 23.160156 11.566406 23.160156 C 11.675781 23.160156 11.78125 23.105469 11.839844 23.003906 C 11.929688 22.851562 11.878906 22.65625 11.726562 22.570312 L 11.335938 22.34375 C 11.648438 21.882812 12.050781 21.480469 12.515625 21.164062 L 12.742188 21.554688 C 12.800781 21.65625 12.90625 21.710938 13.015625 21.710938 C 13.070312 21.710938 13.125 21.699219 13.175781 21.667969 C 13.328125 21.582031 13.378906 21.386719 13.292969 21.234375 L 13.066406 20.84375 C 13.316406 20.726562 13.578125 20.625 13.851562 20.550781 C 14.125 20.476562 14.402344 20.433594 14.679688 20.410156 L 14.679688 20.863281 C 14.679688 21.039062 14.824219 21.179688 15 21.179688 C 15.171875 21.179688 15.316406 21.039062 15.316406 20.863281 L 15.316406 20.410156 C 15.871094 20.449219 16.417969 20.59375 16.929688 20.84375 L 16.703125 21.234375 C 16.617188 21.386719 16.667969 21.582031 16.820312 21.667969 C 16.871094 21.699219 16.925781 21.710938 16.976562 21.710938 C 17.085938 21.710938 17.195312 21.65625 17.253906 21.554688 L 17.476562 21.164062 C 17.949219 21.480469 18.351562 21.882812 18.664062 22.34375 L 18.269531 22.570312 C 18.121094 22.65625 18.066406 22.851562 18.15625 23.003906 C 18.214844 23.105469 18.320312 23.160156 18.429688 23.160156 C 18.484375 23.160156 18.539062 23.148438 18.589844 23.117188 L 18.980469 22.894531 C 19.101562 23.144531 19.199219 23.40625 19.273438 23.679688 C 19.34375 23.949219 19.390625 24.226562 19.410156 24.507812 L 18.113281 24.507812 C 17.9375 24.507812 17.796875 24.652344 17.796875 24.824219 C 17.796875 25 17.9375 25.144531 18.113281 25.144531 L 19.742188 25.144531 C 19.824219 25.144531 19.90625 25.109375 19.964844 25.050781 C 20.023438 24.988281 20.058594 24.910156 20.058594 24.824219 C 20.054688 24.378906 19.996094 23.9375 19.882812 23.515625 C 19.535156 22.210938 18.699219 21.121094 17.527344 20.445312 Z M 17.621094 23.308594 C 17.710938 23.460938 17.65625 23.65625 17.507812 23.742188 L 16.042969 24.589844 C 16.058594 24.664062 16.070312 24.746094 16.070312 24.824219 C 16.070312 25.414062 15.589844 25.894531 15 25.894531 C 14.410156 25.894531 13.929688 25.414062 13.929688 24.824219 C 13.929688 24.234375 14.410156 23.753906 15 23.753906 C 15.277344 23.753906 15.535156 23.863281 15.722656 24.039062 L 17.1875 23.195312 C 17.339844 23.105469 17.535156 23.15625 17.621094 23.308594 Z M 15.433594 24.824219 C 15.433594 24.585938 15.238281 24.390625 15 24.390625 C 14.757812 24.390625 14.5625 24.585938 14.5625 24.824219 C 14.5625 25.066406 14.757812 25.261719 15 25.261719 C 15.238281 25.261719 15.433594 25.066406 15.433594 24.824219 Z M 15.433594 24.824219 " fill-opacity="1" fill-rule="nonzero"/></g></svg>