<svg xmlns="http://www.w3.org/2000/svg" xmlns:xlink="http://www.w3.org/1999/xlink" width="40" zoomAndPan="magnify" viewBox="0 0 30 30.000001" height="40" preserveAspectRatio="xMidYMid meet" version="1.0"><defs><clipPath id="882a8c3b16"><path d="M 0.484375 0 L 29.515625 0 L 29.515625 29.03125 L 0.484375 29.03125 Z M 0.484375 0 " clip-rule="nonzero"/></clipPath><clipPath id="dc5bd86c34"><path d="M 3.386719 2.902344 L 26.613281 2.902344 L 26.613281 26.128906 L 3.386719 26.128906 Z M 3.386719 2.902344 " clip-rule="nonzero"/></clipPath></defs><g clip-path="url(#882a8c3b16)"><path fill="#ffffff" d="M 0.484375 0 L 29.515625 0 L 29.515625 29.03125 L 0.484375 29.03125 Z M 0.484375 0 " fill-opacity="1" fill-rule="nonzero"/><path fill="#ffffff" d="M 0.484375 0 L 29.515625 0 L 29.515625 29.03125 L 0.484375 29.03125 Z M 0.484375 0 " fill-opacity="1" fill-rule="nonzero"/></g><g clip-path="url(#dc5bd86c34)"><path fill="#935f3d" d="M 26.402344 10.6875 C 26.273438 10.621094 26.117188 10.632812 26 10.71875 L 23.394531 12.582031 L 22.355469 12.582031 L 22.355469 11.804688 C 22.355469 11.167969 21.832031 10.644531 21.195312 10.644531 L 20.542969 10.644531 C 21.640625 9.875 22.355469 8.601562 22.355469 7.160156 C 22.355469 4.8125 20.445312 2.902344 18.097656 2.902344 C 16.160156 2.902344 14.523438 4.199219 14.003906 5.972656 C 13.378906 5.054688 12.320312 4.453125 11.128906 4.453125 C 9.210938 4.453125 7.644531 6.015625 7.644531 7.933594 C 7.644531 9.03125 8.152344 10.007812 8.945312 10.644531 L 8.03125 10.644531 C 7.394531 10.644531 6.871094 11.167969 6.871094 11.804688 L 6.871094 13.742188 L 6.097656 13.742188 C 6.097656 13.582031 6 13.441406 5.851562 13.382812 L 3.917969 12.609375 C 3.796875 12.5625 3.660156 12.578125 3.558594 12.644531 C 3.449219 12.71875 3.386719 12.839844 3.386719 12.96875 L 3.386719 17.613281 C 3.386719 17.742188 3.449219 17.859375 3.558594 17.933594 C 3.625 17.976562 3.695312 18 3.773438 18 C 3.824219 18 3.871094 17.992188 3.917969 17.972656 L 5.851562 17.199219 C 6 17.140625 6.097656 16.996094 6.097656 16.839844 L 6.871094 16.839844 L 6.871094 18.773438 C 6.871094 19.414062 7.394531 19.933594 8.03125 19.933594 L 10.355469 19.933594 L 10.355469 20.324219 C 10.355469 20.960938 10.878906 21.484375 11.515625 21.484375 L 12.140625 21.484375 L 10.761719 25.617188 C 10.722656 25.738281 10.742188 25.867188 10.816406 25.964844 C 10.890625 26.070312 11.003906 26.128906 11.128906 26.128906 L 13.453125 26.128906 C 13.617188 26.128906 13.765625 26.019531 13.820312 25.867188 L 15 22.324219 L 16.179688 25.867188 C 16.234375 26.019531 16.382812 26.128906 16.546875 26.128906 L 18.871094 26.128906 C 18.996094 26.128906 19.109375 26.070312 19.183594 25.964844 C 19.257812 25.867188 19.277344 25.738281 19.238281 25.617188 L 17.859375 21.484375 L 18.484375 21.484375 C 19.121094 21.484375 19.644531 20.960938 19.644531 20.324219 L 19.644531 19.933594 L 21.195312 19.933594 C 21.832031 19.933594 22.355469 19.414062 22.355469 18.773438 L 22.355469 18 L 23.394531 18 L 26 19.863281 C 26.066406 19.914062 26.148438 19.933594 26.226562 19.933594 C 26.289062 19.933594 26.347656 19.921875 26.402344 19.894531 C 26.53125 19.828125 26.613281 19.695312 26.613281 19.546875 L 26.613281 11.03125 C 26.613281 10.886719 26.53125 10.753906 26.402344 10.6875 Z M 6.871094 16.066406 L 6.097656 16.066406 L 6.097656 14.515625 L 6.871094 14.515625 Z M 18.097656 5.613281 C 18.953125 5.613281 19.644531 6.304688 19.644531 7.160156 C 19.644531 8.015625 18.953125 8.710938 18.097656 8.710938 C 17.242188 8.710938 16.546875 8.015625 16.546875 7.160156 C 16.546875 6.304688 17.242188 5.613281 18.097656 5.613281 Z M 14.367188 9.214844 C 14.683594 9.785156 15.125 10.273438 15.648438 10.644531 L 13.3125 10.644531 C 13.78125 10.269531 14.144531 9.78125 14.367188 9.214844 Z M 11.128906 6.773438 C 11.769531 6.773438 12.289062 7.296875 12.289062 7.933594 C 12.289062 8.574219 11.769531 9.097656 11.128906 9.097656 C 10.492188 9.097656 9.96875 8.574219 9.96875 7.933594 C 9.96875 7.296875 10.492188 6.773438 11.128906 6.773438 Z M 18.871094 20.324219 C 18.871094 20.535156 18.695312 20.710938 18.484375 20.710938 L 11.515625 20.710938 C 11.304688 20.710938 11.128906 20.535156 11.128906 20.324219 L 11.128906 19.933594 L 18.871094 19.933594 Z M 21.582031 12.96875 L 21.582031 18.773438 C 21.582031 18.988281 21.40625 19.160156 21.195312 19.160156 L 8.03125 19.160156 C 7.820312 19.160156 7.644531 18.988281 7.644531 18.773438 L 7.644531 11.804688 C 7.644531 11.59375 7.820312 11.417969 8.03125 11.417969 L 21.195312 11.417969 C 21.40625 11.417969 21.582031 11.59375 21.582031 11.804688 Z M 23.128906 17.226562 L 22.355469 17.226562 L 22.355469 13.355469 L 23.128906 13.355469 Z M 23.128906 17.226562 " fill-opacity="1" fill-rule="nonzero"/></g><path fill="#935f3d" d="M 8.804688 16.066406 L 12.675781 16.066406 C 12.785156 16.066406 12.875 16.101562 12.949219 16.179688 C 13.027344 16.253906 13.066406 16.34375 13.066406 16.453125 L 13.066406 18 C 13.066406 18.105469 13.027344 18.199219 12.949219 18.273438 C 12.875 18.347656 12.785156 18.386719 12.675781 18.386719 L 8.804688 18.386719 C 8.699219 18.386719 8.609375 18.347656 8.53125 18.273438 C 8.457031 18.199219 8.417969 18.105469 8.417969 18 L 8.417969 16.453125 C 8.417969 16.34375 8.457031 16.253906 8.53125 16.179688 C 8.609375 16.101562 8.699219 16.066406 8.804688 16.066406 Z M 8.804688 16.066406 " fill-opacity="1" fill-rule="nonzero"/></svg>