<svg xmlns="http://www.w3.org/2000/svg" xmlns:xlink="http://www.w3.org/1999/xlink" width="40" zoomAndPan="magnify" viewBox="0 0 30 30.000001" height="40" preserveAspectRatio="xMidYMid meet" version="1.0"><defs><clipPath id="9cda520d69"><path d="M 0.484375 0 L 29.515625 0 L 29.515625 29.03125 L 0.484375 29.03125 Z M 0.484375 0 " clip-rule="nonzero"/></clipPath><clipPath id="e97fa66a0c"><path d="M 3.386719 2.875 L 26.613281 2.875 L 26.613281 26.101562 L 3.386719 26.101562 Z M 3.386719 2.875 " clip-rule="nonzero"/></clipPath></defs><g clip-path="url(#9cda520d69)"><path fill="#ffffff" d="M 0.484375 0 L 29.515625 0 L 29.515625 29.03125 L 0.484375 29.03125 Z M 0.484375 0 " fill-opacity="1" fill-rule="nonzero"/><path fill="#ffffff" d="M 0.484375 0 L 29.515625 0 L 29.515625 29.03125 L 0.484375 29.03125 Z M 0.484375 0 " fill-opacity="1" fill-rule="nonzero"/></g><g clip-path="url(#e97fa66a0c)"><path fill="#935f3d" d="M 17.558594 19.523438 L 14.664062 20.375 C 14.660156 20.375 14.660156 20.371094 14.660156 20.367188 C 14.480469 20.058594 14.191406 19.835938 13.847656 19.746094 L 11.75 19.183594 C 10.203125 18.109375 9.332031 18.402344 8.082031 19.015625 C 7.441406 19.328125 6.789062 19.636719 6.125 19.953125 L 6.109375 19.917969 C 5.929688 19.503906 5.445312 19.316406 5.035156 19.5 L 3.902344 19.996094 C 3.703125 20.082031 3.550781 20.242188 3.472656 20.445312 C 3.390625 20.648438 3.398438 20.871094 3.484375 21.070312 L 5.507812 25.667969 C 5.644531 25.976562 5.941406 26.15625 6.257812 26.15625 C 6.367188 26.15625 6.476562 26.132812 6.582031 26.089844 L 7.714844 25.589844 C 7.914062 25.503906 8.070312 25.34375 8.148438 25.140625 C 8.226562 24.9375 8.222656 24.71875 8.132812 24.515625 L 7.972656 24.152344 L 8.898438 23.699219 C 9.148438 23.578125 9.398438 23.554688 9.664062 23.632812 L 12.039062 24.320312 C 12.222656 24.375 12.410156 24.394531 12.601562 24.394531 C 13.253906 24.394531 13.921875 24.132812 14.488281 23.914062 C 14.535156 23.894531 14.585938 23.875 14.632812 23.859375 L 19.085938 22.136719 C 19.851562 21.84375 20.324219 20.90625 20.074219 20.175781 C 19.972656 19.878906 19.496094 18.953125 17.558594 19.523438 Z M 7.535156 24.902344 C 7.519531 24.941406 7.488281 24.972656 7.449219 24.992188 L 6.320312 25.488281 C 6.238281 25.523438 6.144531 25.484375 6.109375 25.40625 L 4.085938 20.804688 C 4.070312 20.765625 4.066406 20.722656 4.082031 20.683594 C 4.097656 20.644531 4.128906 20.613281 4.167969 20.597656 L 5.300781 20.097656 C 5.320312 20.089844 5.339844 20.085938 5.363281 20.085938 C 5.425781 20.085938 5.480469 20.121094 5.507812 20.179688 L 7.53125 24.78125 C 7.550781 24.820312 7.550781 24.863281 7.535156 24.902344 Z M 18.847656 21.527344 L 14.394531 23.246094 C 14.347656 23.265625 14.300781 23.28125 14.25 23.300781 C 13.609375 23.550781 12.816406 23.863281 12.222656 23.6875 L 9.847656 23.003906 C 9.425781 22.878906 9.007812 22.914062 8.613281 23.109375 L 7.707031 23.550781 L 6.390625 20.554688 C 7.0625 20.234375 7.722656 19.921875 8.371094 19.605469 C 9.503906 19.050781 10.105469 18.824219 11.421875 19.753906 C 11.453125 19.777344 11.488281 19.792969 11.523438 19.804688 L 13.675781 20.378906 C 13.851562 20.425781 14 20.539062 14.089844 20.695312 C 14.183594 20.855469 14.207031 21.039062 14.160156 21.214844 C 14.113281 21.386719 14 21.535156 13.84375 21.625 C 13.683594 21.71875 13.5 21.742188 13.324219 21.695312 L 10.464844 20.933594 C 10.289062 20.886719 10.109375 20.988281 10.0625 21.164062 C 10.015625 21.339844 10.121094 21.519531 10.296875 21.566406 L 13.15625 22.332031 C 13.5 22.421875 13.859375 22.375 14.171875 22.195312 C 14.480469 22.015625 14.703125 21.726562 14.792969 21.382812 C 14.828125 21.257812 14.84375 21.132812 14.839844 21.007812 L 17.746094 20.152344 C 18.671875 19.882812 19.3125 19.96875 19.453125 20.386719 C 19.574219 20.746094 19.320312 21.34375 18.847656 21.527344 Z M 15 12.242188 C 13.714844 12.242188 12.671875 13.289062 12.671875 14.570312 C 12.671875 15.855469 13.714844 16.898438 15 16.898438 C 16.285156 16.898438 17.328125 15.855469 17.328125 14.570312 C 17.328125 13.289062 16.285156 12.242188 15 12.242188 Z M 15 16.242188 C 14.078125 16.242188 13.328125 15.492188 13.328125 14.570312 C 13.328125 13.648438 14.078125 12.898438 15 12.898438 C 15.921875 12.898438 16.671875 13.648438 16.671875 14.570312 C 16.671875 15.492188 15.921875 16.242188 15 16.242188 Z M 18.890625 15.589844 C 19.222656 15.589844 19.492188 15.320312 19.492188 14.988281 L 19.492188 14.15625 C 19.492188 13.824219 19.222656 13.554688 18.890625 13.554688 C 18.640625 13.554688 18.4375 13.417969 18.34375 13.1875 C 18.246094 12.957031 18.292969 12.714844 18.46875 12.542969 C 18.582031 12.429688 18.644531 12.277344 18.644531 12.117188 C 18.644531 11.957031 18.582031 11.804688 18.46875 11.691406 L 17.882812 11.101562 C 17.648438 10.867188 17.265625 10.867188 17.03125 11.101562 C 16.855469 11.277344 16.613281 11.324219 16.382812 11.230469 C 16.15625 11.132812 16.019531 10.929688 16.019531 10.683594 C 16.019531 10.351562 15.75 10.082031 15.417969 10.082031 L 14.582031 10.082031 C 14.253906 10.082031 13.980469 10.351562 13.980469 10.683594 C 13.980469 10.929688 13.84375 11.132812 13.617188 11.230469 C 13.386719 11.324219 13.144531 11.277344 12.96875 11.101562 C 12.734375 10.867188 12.351562 10.867188 12.117188 11.101562 L 11.53125 11.691406 C 11.417969 11.804688 11.355469 11.957031 11.355469 12.117188 C 11.355469 12.277344 11.417969 12.429688 11.53125 12.542969 C 11.707031 12.714844 11.753906 12.957031 11.65625 13.1875 C 11.5625 13.417969 11.359375 13.554688 11.109375 13.554688 C 10.777344 13.554688 10.507812 13.824219 10.507812 14.15625 L 10.507812 14.988281 C 10.507812 15.320312 10.777344 15.589844 11.109375 15.589844 C 11.359375 15.589844 11.5625 15.726562 11.65625 15.957031 C 11.753906 16.183594 11.707031 16.425781 11.53125 16.601562 C 11.417969 16.714844 11.355469 16.867188 11.355469 17.027344 C 11.355469 17.1875 11.417969 17.339844 11.53125 17.453125 L 12.117188 18.042969 C 12.230469 18.15625 12.382812 18.21875 12.542969 18.21875 C 12.703125 18.21875 12.855469 18.15625 12.96875 18.042969 C 13.144531 17.867188 13.386719 17.816406 13.617188 17.914062 C 13.84375 18.007812 13.980469 18.210938 13.980469 18.460938 C 13.980469 18.792969 14.25 19.0625 14.582031 19.0625 L 15.417969 19.0625 C 15.746094 19.0625 16.019531 18.792969 16.019531 18.460938 C 16.019531 18.214844 16.15625 18.007812 16.382812 17.914062 C 16.613281 17.820312 16.855469 17.867188 17.03125 18.042969 C 17.144531 18.15625 17.296875 18.21875 17.457031 18.21875 C 17.617188 18.21875 17.765625 18.15625 17.882812 18.042969 L 18.46875 17.453125 C 18.582031 17.339844 18.644531 17.1875 18.644531 17.027344 C 18.644531 16.867188 18.582031 16.714844 18.46875 16.601562 C 18.292969 16.425781 18.246094 16.183594 18.34375 15.957031 C 18.4375 15.726562 18.640625 15.589844 18.890625 15.589844 Z M 17.734375 15.703125 C 17.546875 16.164062 17.632812 16.664062 17.96875 17.027344 L 17.453125 17.539062 C 17.09375 17.207031 16.59375 17.117188 16.132812 17.308594 C 15.675781 17.496094 15.382812 17.914062 15.363281 18.40625 L 14.636719 18.40625 C 14.617188 17.914062 14.324219 17.496094 13.867188 17.304688 C 13.410156 17.117188 12.90625 17.207031 12.546875 17.539062 L 12.03125 17.027344 C 12.363281 16.664062 12.453125 16.164062 12.265625 15.703125 C 12.074219 15.246094 11.65625 14.953125 11.164062 14.933594 L 11.164062 14.210938 C 11.65625 14.1875 12.074219 13.898438 12.265625 13.4375 C 12.453125 12.980469 12.363281 12.476562 12.03125 12.117188 L 12.546875 11.605469 C 12.90625 11.9375 13.40625 12.027344 13.867188 11.835938 C 14.324219 11.644531 14.617188 11.226562 14.636719 10.738281 L 15.363281 10.738281 C 15.382812 11.226562 15.675781 11.644531 16.132812 11.835938 C 16.59375 12.027344 17.09375 11.9375 17.453125 11.605469 L 17.96875 12.117188 C 17.632812 12.476562 17.546875 12.980469 17.734375 13.4375 C 17.925781 13.898438 18.34375 14.1875 18.835938 14.210938 L 18.835938 14.933594 C 18.34375 14.953125 17.925781 15.246094 17.734375 15.703125 Z M 23.363281 12.851562 C 22.417969 12.851562 21.644531 13.625 21.644531 14.570312 C 21.644531 15.519531 22.417969 16.289062 23.363281 16.289062 C 24.3125 16.289062 25.082031 15.519531 25.082031 14.570312 C 25.082031 13.625 24.3125 12.851562 23.363281 12.851562 Z M 23.363281 15.632812 C 22.777344 15.632812 22.300781 15.15625 22.300781 14.570312 C 22.300781 13.984375 22.777344 13.511719 23.363281 13.511719 C 23.949219 13.511719 24.425781 13.984375 24.425781 14.570312 C 24.425781 15.15625 23.949219 15.632812 23.363281 15.632812 Z M 26.066406 13.765625 C 25.875 13.765625 25.796875 13.617188 25.777344 13.570312 C 25.761719 13.527344 25.710938 13.367188 25.847656 13.230469 C 26.046875 13.03125 26.046875 12.699219 25.847656 12.5 L 25.4375 12.089844 C 25.234375 11.886719 24.90625 11.886719 24.703125 12.089844 C 24.566406 12.226562 24.410156 12.175781 24.363281 12.15625 C 24.320312 12.136719 24.171875 12.0625 24.171875 11.867188 C 24.171875 11.582031 23.9375 11.351562 23.652344 11.351562 L 23.074219 11.351562 C 22.789062 11.351562 22.554688 11.582031 22.554688 11.867188 C 22.554688 12.0625 22.410156 12.136719 22.363281 12.15625 C 22.316406 12.175781 22.160156 12.226562 22.023438 12.089844 C 21.820312 11.886719 21.492188 11.886719 21.289062 12.089844 L 20.882812 12.5 C 20.679688 12.699219 20.679688 13.03125 20.882812 13.230469 C 21.015625 13.367188 20.96875 13.527344 20.949219 13.570312 C 20.929688 13.617188 20.851562 13.765625 20.660156 13.765625 C 20.375 13.765625 20.140625 13.996094 20.140625 14.28125 L 20.140625 14.859375 C 20.140625 15.148438 20.375 15.378906 20.660156 15.378906 C 20.851562 15.378906 20.929688 15.527344 20.949219 15.570312 C 20.96875 15.617188 21.015625 15.777344 20.882812 15.910156 C 20.679688 16.113281 20.679688 16.441406 20.882812 16.644531 L 21.289062 17.054688 C 21.386719 17.152344 21.519531 17.207031 21.65625 17.207031 C 21.796875 17.207031 21.925781 17.152344 22.023438 17.054688 C 22.160156 16.917969 22.316406 16.96875 22.363281 16.988281 C 22.410156 17.003906 22.554688 17.082031 22.554688 17.273438 C 22.554688 17.558594 22.789062 17.792969 23.074219 17.792969 L 23.652344 17.792969 C 23.9375 17.792969 24.171875 17.558594 24.171875 17.273438 C 24.171875 17.082031 24.320312 17.003906 24.363281 16.988281 C 24.410156 16.96875 24.566406 16.917969 24.703125 17.054688 C 24.800781 17.152344 24.933594 17.207031 25.070312 17.207031 C 25.207031 17.207031 25.339844 17.152344 25.4375 17.054688 L 25.847656 16.644531 C 26.046875 16.441406 26.046875 16.113281 25.847656 15.910156 C 25.710938 15.777344 25.761719 15.617188 25.777344 15.570312 C 25.796875 15.527344 25.875 15.378906 26.066406 15.378906 C 26.351562 15.378906 26.585938 15.148438 26.585938 14.859375 L 26.585938 14.28125 C 26.585938 13.996094 26.351562 13.765625 26.066406 13.765625 Z M 25.929688 14.730469 C 25.589844 14.777344 25.308594 14.996094 25.171875 15.320312 C 25.039062 15.644531 25.085938 16 25.289062 16.273438 L 25.0625 16.5 C 24.792969 16.292969 24.4375 16.246094 24.113281 16.378906 C 23.789062 16.515625 23.570312 16.796875 23.523438 17.136719 L 23.203125 17.136719 C 23.15625 16.796875 22.941406 16.515625 22.613281 16.378906 C 22.289062 16.246094 21.9375 16.292969 21.664062 16.5 L 21.4375 16.273438 C 21.644531 16 21.691406 15.644531 21.554688 15.320312 C 21.421875 14.996094 21.136719 14.777344 20.796875 14.730469 L 20.796875 14.410156 C 21.136719 14.363281 21.421875 14.148438 21.554688 13.824219 C 21.691406 13.496094 21.644531 13.144531 21.4375 12.871094 L 21.664062 12.644531 C 21.9375 12.851562 22.289062 12.898438 22.613281 12.761719 C 22.941406 12.628906 23.15625 12.34375 23.203125 12.007812 L 23.523438 12.007812 C 23.570312 12.34375 23.789062 12.628906 24.113281 12.761719 C 24.4375 12.898438 24.792969 12.851562 25.0625 12.644531 L 25.289062 12.871094 C 25.085938 13.144531 25.039062 13.496094 25.171875 13.824219 C 25.308594 14.148438 25.589844 14.363281 25.929688 14.410156 Z M 3.933594 15.378906 C 4.125 15.378906 4.203125 15.527344 4.222656 15.570312 C 4.238281 15.617188 4.289062 15.777344 4.152344 15.910156 C 3.953125 16.113281 3.953125 16.441406 4.152344 16.644531 L 4.5625 17.054688 C 4.660156 17.152344 4.792969 17.207031 4.929688 17.207031 C 5.066406 17.207031 5.199219 17.152344 5.296875 17.054688 C 5.433594 16.917969 5.589844 16.96875 5.636719 16.988281 C 5.679688 17.003906 5.828125 17.082031 5.828125 17.273438 C 5.828125 17.558594 6.0625 17.792969 6.347656 17.792969 L 6.925781 17.792969 C 7.210938 17.792969 7.445312 17.558594 7.445312 17.273438 C 7.445312 17.082031 7.589844 17.003906 7.636719 16.988281 C 7.683594 16.96875 7.839844 16.917969 7.976562 17.054688 C 8.074219 17.152344 8.203125 17.207031 8.34375 17.207031 C 8.480469 17.207031 8.613281 17.152344 8.710938 17.054688 L 9.117188 16.644531 C 9.320312 16.441406 9.320312 16.113281 9.117188 15.910156 C 8.984375 15.777344 9.03125 15.617188 9.050781 15.570312 C 9.070312 15.527344 9.148438 15.378906 9.339844 15.378906 C 9.625 15.378906 9.859375 15.148438 9.859375 14.859375 L 9.859375 14.28125 C 9.859375 13.996094 9.625 13.765625 9.339844 13.765625 C 9.148438 13.765625 9.070312 13.617188 9.050781 13.570312 C 9.03125 13.527344 8.984375 13.367188 9.117188 13.230469 C 9.320312 13.03125 9.320312 12.699219 9.117188 12.5 L 8.710938 12.089844 C 8.507812 11.886719 8.179688 11.886719 7.976562 12.089844 C 7.839844 12.226562 7.683594 12.175781 7.636719 12.15625 C 7.589844 12.136719 7.445312 12.0625 7.445312 11.867188 C 7.445312 11.582031 7.210938 11.351562 6.925781 11.351562 L 6.347656 11.351562 C 6.0625 11.351562 5.828125 11.582031 5.828125 11.867188 C 5.828125 12.0625 5.679688 12.136719 5.636719 12.15625 C 5.589844 12.175781 5.433594 12.226562 5.296875 12.089844 C 5.09375 11.886719 4.765625 11.886719 4.5625 12.089844 L 4.152344 12.5 C 3.953125 12.699219 3.953125 13.03125 4.152344 13.230469 C 4.289062 13.367188 4.238281 13.527344 4.222656 13.570312 C 4.203125 13.617188 4.125 13.765625 3.933594 13.765625 C 3.648438 13.765625 3.414062 13.996094 3.414062 14.28125 L 3.414062 14.859375 C 3.414062 15.148438 3.648438 15.378906 3.933594 15.378906 Z M 4.070312 14.410156 C 4.410156 14.363281 4.691406 14.148438 4.828125 13.824219 C 4.960938 13.496094 4.914062 13.144531 4.710938 12.871094 L 4.9375 12.644531 C 5.207031 12.851562 5.5625 12.898438 5.886719 12.761719 C 6.210938 12.628906 6.429688 12.34375 6.476562 12.007812 L 6.796875 12.007812 C 6.84375 12.34375 7.058594 12.628906 7.386719 12.761719 C 7.710938 12.898438 8.0625 12.851562 8.335938 12.644531 L 8.5625 12.871094 C 8.355469 13.144531 8.308594 13.496094 8.445312 13.824219 C 8.578125 14.148438 8.863281 14.363281 9.203125 14.410156 L 9.203125 14.730469 C 8.863281 14.777344 8.578125 14.996094 8.445312 15.320312 C 8.308594 15.644531 8.355469 16 8.5625 16.273438 L 8.335938 16.5 C 8.0625 16.292969 7.710938 16.246094 7.386719 16.378906 C 7.058594 16.515625 6.84375 16.796875 6.796875 17.136719 L 6.476562 17.136719 C 6.429688 16.796875 6.214844 16.515625 5.886719 16.378906 C 5.5625 16.246094 5.207031 16.292969 4.9375 16.5 L 4.710938 16.273438 C 4.914062 16 4.960938 15.644531 4.828125 15.320312 C 4.691406 14.996094 4.410156 14.777344 4.070312 14.730469 Z M 6.636719 16.289062 C 7.582031 16.289062 8.355469 15.519531 8.355469 14.570312 C 8.355469 13.625 7.582031 12.851562 6.636719 12.851562 C 5.6875 12.851562 4.917969 13.625 4.917969 14.570312 C 4.917969 15.519531 5.6875 16.289062 6.636719 16.289062 Z M 6.636719 13.511719 C 7.222656 13.511719 7.699219 13.984375 7.699219 14.570312 C 7.699219 15.15625 7.222656 15.632812 6.636719 15.632812 C 6.050781 15.632812 5.574219 15.15625 5.574219 14.570312 C 5.574219 13.984375 6.050781 13.511719 6.636719 13.511719 Z M 12.441406 9.617188 L 15.335938 8.765625 C 15.339844 8.769531 15.339844 8.773438 15.339844 8.773438 C 15.519531 9.085938 15.808594 9.304688 16.152344 9.398438 L 18.25 9.957031 C 18.996094 10.476562 19.582031 10.675781 20.132812 10.675781 C 20.726562 10.675781 21.269531 10.445312 21.917969 10.128906 C 22.558594 9.816406 23.210938 9.503906 23.875 9.191406 L 23.890625 9.226562 C 24.023438 9.53125 24.324219 9.714844 24.636719 9.714844 C 24.746094 9.714844 24.859375 9.691406 24.964844 9.644531 L 26.097656 9.148438 C 26.296875 9.0625 26.449219 8.902344 26.527344 8.699219 C 26.609375 8.496094 26.601562 8.273438 26.515625 8.074219 L 24.492188 3.472656 C 24.308594 3.0625 23.828125 2.875 23.417969 3.054688 L 22.285156 3.550781 C 22.085938 3.640625 21.929688 3.800781 21.851562 4 C 21.773438 4.203125 21.777344 4.425781 21.867188 4.625 L 22.027344 4.992188 L 21.101562 5.445312 C 20.851562 5.566406 20.601562 5.585938 20.335938 5.511719 L 17.960938 4.824219 C 17.152344 4.589844 16.242188 4.945312 15.511719 5.230469 C 15.464844 5.25 15.414062 5.265625 15.367188 5.285156 L 10.914062 7.003906 C 10.148438 7.300781 9.675781 8.238281 9.925781 8.96875 C 10.027344 9.265625 10.503906 10.1875 12.441406 9.617188 Z M 22.464844 4.242188 C 22.480469 4.203125 22.511719 4.171875 22.550781 4.152344 L 23.679688 3.65625 C 23.761719 3.621094 23.855469 3.65625 23.890625 3.738281 L 25.914062 8.339844 C 25.929688 8.378906 25.933594 8.421875 25.917969 8.460938 C 25.902344 8.5 25.871094 8.53125 25.832031 8.546875 L 24.699219 9.042969 C 24.621094 9.078125 24.527344 9.042969 24.492188 8.960938 L 22.46875 4.363281 C 22.449219 4.324219 22.449219 4.277344 22.464844 4.242188 Z M 11.152344 7.617188 L 15.605469 5.898438 C 15.652344 5.878906 15.703125 5.859375 15.75 5.839844 C 16.390625 5.59375 17.183594 5.28125 17.777344 5.453125 L 20.152344 6.140625 C 20.574219 6.265625 20.992188 6.226562 21.386719 6.035156 L 22.292969 5.59375 L 23.609375 8.589844 C 22.9375 8.90625 22.277344 9.222656 21.628906 9.539062 C 20.496094 10.09375 19.894531 10.320312 18.578125 9.386719 C 18.546875 9.367188 18.511719 9.347656 18.476562 9.339844 L 16.324219 8.765625 C 16.148438 8.71875 16 8.605469 15.910156 8.445312 C 15.816406 8.289062 15.792969 8.105469 15.839844 7.929688 C 15.886719 7.753906 16 7.609375 16.15625 7.515625 C 16.316406 7.425781 16.5 7.402344 16.675781 7.449219 L 19.535156 8.210938 C 19.710938 8.257812 19.890625 8.152344 19.9375 7.980469 C 19.984375 7.804688 19.878906 7.625 19.703125 7.578125 L 16.84375 6.8125 C 16.5 6.722656 16.140625 6.769531 15.828125 6.949219 C 15.519531 7.128906 15.296875 7.417969 15.207031 7.761719 C 15.171875 7.882812 15.15625 8.011719 15.160156 8.132812 L 12.253906 8.988281 C 11.328125 9.261719 10.6875 9.175781 10.546875 8.757812 C 10.425781 8.398438 10.679688 7.800781 11.152344 7.617188 Z M 11.152344 7.617188 " fill-opacity="1" fill-rule="nonzero"/></g></svg>