<svg xmlns="http://www.w3.org/2000/svg" xmlns:xlink="http://www.w3.org/1999/xlink" width="40" zoomAndPan="magnify" viewBox="0 0 30 30.000001" height="40" preserveAspectRatio="xMidYMid meet" version="1.0"><defs><clipPath id="ec405a16bc"><path d="M 0.484375 0 L 29.515625 0 L 29.515625 29.03125 L 0.484375 29.03125 Z M 0.484375 0 " clip-rule="nonzero"/></clipPath><clipPath id="30ac43ae01"><path d="M 3.386719 4.042969 L 26.613281 4.042969 L 26.613281 25 L 3.386719 25 Z M 3.386719 4.042969 " clip-rule="nonzero"/></clipPath></defs><g clip-path="url(#ec405a16bc)"><path fill="#ffffff" d="M 0.484375 0 L 29.515625 0 L 29.515625 29.03125 L 0.484375 29.03125 Z M 0.484375 0 " fill-opacity="1" fill-rule="nonzero"/><path fill="#ffffff" d="M 0.484375 0 L 29.515625 0 L 29.515625 29.03125 L 0.484375 29.03125 Z M 0.484375 0 " fill-opacity="1" fill-rule="nonzero"/></g><path fill="#935f3d" d="M 13.148438 14.054688 L 12.191406 14.054688 C 11.941406 14.054688 11.738281 14.257812 11.738281 14.511719 C 11.738281 14.761719 11.941406 14.964844 12.191406 14.964844 L 12.695312 14.964844 L 12.695312 15.421875 C 12.695312 15.671875 12.898438 15.875 13.148438 15.875 C 13.402344 15.875 13.605469 15.671875 13.605469 15.421875 L 13.605469 14.886719 C 14.132812 14.699219 14.515625 14.195312 14.515625 13.601562 C 14.515625 12.847656 13.902344 12.234375 13.148438 12.234375 C 12.898438 12.234375 12.695312 12.03125 12.695312 11.78125 C 12.695312 11.527344 12.898438 11.324219 13.148438 11.324219 L 14.105469 11.324219 C 14.355469 11.324219 14.558594 11.121094 14.558594 10.871094 C 14.558594 10.617188 14.355469 10.414062 14.105469 10.414062 L 13.605469 10.414062 L 13.605469 9.960938 C 13.605469 9.707031 13.402344 9.503906 13.148438 9.503906 C 12.898438 9.503906 12.695312 9.707031 12.695312 9.960938 L 12.695312 10.492188 C 12.164062 10.679688 11.785156 11.1875 11.785156 11.78125 C 11.785156 12.53125 12.394531 13.144531 13.148438 13.144531 C 13.398438 13.144531 13.605469 13.351562 13.605469 13.601562 C 13.605469 13.851562 13.398438 14.054688 13.148438 14.054688 Z M 13.148438 14.054688 " fill-opacity="1" fill-rule="nonzero"/><path fill="#935f3d" d="M 13.105469 17.695312 C 14.59375 17.695312 16.007812 17.027344 16.953125 15.890625 C 17.164062 15.847656 17.226562 15.703125 17.453125 15.5 L 19.0625 17.109375 C 19.238281 17.285156 19.527344 17.285156 19.707031 17.109375 L 21.3125 15.5 C 21.492188 15.320312 21.492188 15.035156 21.3125 14.855469 L 19.707031 13.246094 L 19.972656 12.980469 C 20.214844 12.734375 20.109375 12.320312 19.78125 12.222656 L 18.007812 11.695312 C 17.539062 9.367188 15.488281 7.683594 13.105469 7.683594 C 10.34375 7.683594 8.097656 9.929688 8.097656 12.691406 C 8.097656 15.449219 10.34375 17.695312 13.105469 17.695312 Z M 18.738281 13.570312 L 20.347656 15.175781 L 19.382812 16.144531 L 17.773438 14.535156 C 17.597656 14.355469 17.308594 14.355469 17.128906 14.535156 L 17.082031 14.582031 L 16.359375 12.152344 L 18.789062 12.875 C 18.769531 12.902344 18.605469 13.015625 18.605469 13.246094 C 18.605469 13.367188 18.65625 13.484375 18.738281 13.570312 Z M 13.105469 8.59375 C 14.882812 8.59375 16.4375 9.753906 16.988281 11.390625 L 15.8125 11.039062 C 15.464844 10.9375 15.144531 11.261719 15.246094 11.605469 L 16.324219 15.222656 C 15.546875 16.207031 14.359375 16.785156 13.105469 16.785156 C 10.84375 16.785156 9.007812 14.949219 9.007812 12.691406 C 9.007812 10.433594 10.84375 8.59375 13.105469 8.59375 Z M 13.105469 8.59375 " fill-opacity="1" fill-rule="nonzero"/><g clip-path="url(#30ac43ae01)"><path fill="#935f3d" d="M 26.148438 20.425781 L 25.695312 20.425781 L 25.695312 5.863281 C 25.695312 4.859375 24.878906 4.042969 23.875 4.042969 L 6.125 4.042969 C 5.121094 4.042969 4.304688 4.859375 4.304688 5.863281 L 4.304688 20.425781 L 3.851562 20.425781 C 3.597656 20.425781 3.394531 20.632812 3.394531 20.882812 L 3.394531 23.15625 C 3.394531 24.160156 4.210938 24.976562 5.214844 24.976562 L 24.785156 24.976562 C 25.789062 24.976562 26.605469 24.160156 26.605469 23.15625 L 26.605469 20.882812 C 26.605469 20.632812 26.402344 20.425781 26.148438 20.425781 Z M 5.214844 5.863281 C 5.214844 5.363281 5.625 4.953125 6.125 4.953125 L 23.875 4.953125 C 24.375 4.953125 24.785156 5.363281 24.785156 5.863281 L 24.785156 20.425781 C 24.070312 20.425781 6.035156 20.425781 5.214844 20.425781 Z M 17.222656 21.335938 L 16.765625 22.246094 L 13.234375 22.246094 L 12.777344 21.335938 Z M 25.695312 23.15625 C 25.695312 23.660156 25.285156 24.066406 24.785156 24.066406 L 5.214844 24.066406 C 4.714844 24.066406 4.304688 23.660156 4.304688 23.15625 L 4.304688 21.335938 C 5.503906 21.335938 10.964844 21.335938 11.761719 21.335938 L 12.546875 22.90625 C 12.621094 23.0625 12.78125 23.15625 12.953125 23.15625 L 17.046875 23.15625 C 17.21875 23.15625 17.378906 23.0625 17.453125 22.90625 L 18.238281 21.335938 C 19.03125 21.335938 24.496094 21.335938 25.695312 21.335938 Z M 25.695312 23.15625 " fill-opacity="1" fill-rule="nonzero"/></g><path fill="#935f3d" d="M 23.875 19.0625 L 23.875 6.320312 C 23.875 6.066406 23.671875 5.863281 23.417969 5.863281 L 6.582031 5.863281 C 6.328125 5.863281 6.125 6.066406 6.125 6.320312 L 6.125 19.0625 C 6.125 19.3125 6.328125 19.515625 6.582031 19.515625 L 23.417969 19.515625 C 23.671875 19.515625 23.875 19.3125 23.875 19.0625 Z M 22.964844 18.605469 L 7.035156 18.605469 L 7.035156 6.773438 L 22.964844 6.773438 Z M 22.964844 18.605469 " fill-opacity="1" fill-rule="nonzero"/></svg>