<svg xmlns="http://www.w3.org/2000/svg" xmlns:xlink="http://www.w3.org/1999/xlink" width="40" zoomAndPan="magnify" viewBox="0 0 30 30.000001" height="40" preserveAspectRatio="xMidYMid meet" version="1.0"><defs><clipPath id="30902848a8"><path d="M 0.484375 0 L 29.515625 0 L 29.515625 29.03125 L 0.484375 29.03125 Z M 0.484375 0 " clip-rule="nonzero"/></clipPath><clipPath id="b7717162a1"><path d="M 10 14 L 20 14 L 20 23.558594 L 10 23.558594 Z M 10 14 " clip-rule="nonzero"/></clipPath><clipPath id="2ff13d16c5"><path d="M 3.386719 5.414062 L 26.613281 5.414062 L 26.613281 18 L 3.386719 18 Z M 3.386719 5.414062 " clip-rule="nonzero"/></clipPath><clipPath id="14f2de28fa"><path d="M 14 5.414062 L 16 5.414062 L 16 10 L 14 10 Z M 14 5.414062 " clip-rule="nonzero"/></clipPath></defs><g clip-path="url(#30902848a8)"><path fill="#ffffff" d="M 0.484375 0 L 29.515625 0 L 29.515625 29.03125 L 0.484375 29.03125 Z M 0.484375 0 " fill-opacity="1" fill-rule="nonzero"/><path fill="#ffffff" d="M 0.484375 0 L 29.515625 0 L 29.515625 29.03125 L 0.484375 29.03125 Z M 0.484375 0 " fill-opacity="1" fill-rule="nonzero"/></g><g clip-path="url(#b7717162a1)"><path fill="#935f3d" d="M 14.953125 23.609375 C 12.332031 23.609375 10.1875 21.480469 10.1875 18.84375 C 10.1875 16.210938 12.332031 14.082031 14.953125 14.082031 C 17.585938 14.082031 19.71875 16.210938 19.71875 18.84375 C 19.71875 21.480469 17.585938 23.609375 14.953125 23.609375 Z M 14.953125 14.625 C 12.632812 14.625 10.746094 16.523438 10.746094 18.84375 C 10.746094 21.167969 12.632812 23.066406 14.953125 23.066406 C 17.289062 23.066406 19.175781 21.167969 19.175781 18.84375 C 19.175781 16.523438 17.289062 14.625 14.953125 14.625 Z M 14.953125 14.625 " fill-opacity="1" fill-rule="evenodd"/></g><path fill="#935f3d" d="M 15.738281 21.019531 C 15.589844 21.019531 15.46875 20.894531 15.46875 20.734375 L 15.46875 19.753906 C 15.46875 19.402344 16.011719 19.402344 16.011719 19.753906 L 16.011719 20.734375 C 16.011719 20.894531 15.890625 21.019531 15.738281 21.019531 Z M 14.179688 21.019531 C 14.03125 21.019531 13.90625 20.894531 13.90625 20.734375 L 13.90625 19.753906 C 13.90625 19.402344 14.449219 19.402344 14.449219 19.753906 L 14.449219 20.734375 C 14.449219 20.894531 14.328125 21.019531 14.179688 21.019531 Z M 14.179688 21.019531 " fill-opacity="1" fill-rule="evenodd"/><path fill="#935f3d" d="M 12.0625 22.566406 C 11.734375 22.566406 11.789062 22.199219 11.789062 22.007812 C 11.789062 20.785156 14.449219 20.011719 14.449219 20.746094 C 14.449219 21.042969 14.125 21.019531 13.960938 21.019531 C 13.324219 21.019531 12.347656 21.546875 12.332031 22.007812 C 12.332031 22.199219 12.386719 22.566406 12.0625 22.566406 Z M 17.84375 22.566406 C 17.503906 22.566406 17.585938 22.144531 17.574219 22.035156 C 17.476562 21.519531 16.554688 21.019531 15.945312 21.019531 C 15.792969 21.019531 15.46875 21.042969 15.46875 20.734375 C 15.46875 20 18.035156 20.800781 18.128906 22.007812 C 18.140625 22.226562 18.140625 22.566406 17.84375 22.566406 Z M 17.84375 22.566406 " fill-opacity="1" fill-rule="evenodd"/><path fill="#935f3d" d="M 14.953125 20.285156 C 13.960938 20.285156 13.160156 19.375 13.160156 18.261719 C 13.160156 17.964844 13.09375 17.542969 13.433594 17.542969 C 13.785156 17.542969 13.703125 17.964844 13.703125 18.261719 C 13.703125 19.078125 14.273438 19.726562 14.953125 19.726562 C 15.644531 19.726562 16.203125 19.078125 16.203125 18.261719 C 16.203125 17.9375 16.132812 17.488281 16.472656 17.488281 C 16.824219 17.488281 16.757812 17.9375 16.757812 18.261719 C 16.757812 19.375 15.945312 20.285156 14.953125 20.285156 Z M 14.953125 20.285156 " fill-opacity="1" fill-rule="evenodd"/><path fill="#935f3d" d="M 13.433594 18.085938 C 13.335938 18.085938 13.230469 18.03125 13.1875 17.9375 C 12.792969 17.121094 12.578125 15.5625 14.207031 15.207031 C 14.261719 15.195312 15.414062 14.9375 16.105469 15.535156 C 16.390625 15.410156 16.730469 15.492188 16.8125 15.722656 C 17.355469 17.230469 16.621094 18.492188 16.253906 17.921875 C 16.039062 17.597656 15.78125 17.269531 15.632812 17.121094 C 15.386719 17.285156 14.910156 17.460938 13.949219 17.460938 C 13.894531 17.652344 13.703125 18.085938 13.433594 18.085938 Z M 15.5625 16.511719 C 15.847656 16.511719 16.148438 16.835938 16.417969 17.203125 C 16.5 16.753906 16.390625 16.253906 16.335938 16.035156 C 16.269531 16.0625 16.023438 16.28125 15.847656 16.050781 C 15.386719 15.480469 13.148438 15.382812 13.488281 17.109375 C 13.527344 16.984375 13.621094 16.917969 13.757812 16.917969 C 15.496094 16.945312 15.277344 16.511719 15.5625 16.511719 Z M 15.359375 16.648438 Z M 15.359375 16.648438 " fill-opacity="1" fill-rule="evenodd"/><path fill="#935f3d" d="M 14.953125 22.050781 C 14.871094 22.050781 14.789062 22.007812 14.734375 21.941406 L 13.960938 20.910156 C 13.867188 20.785156 13.894531 20.609375 14.015625 20.515625 C 14.136719 20.421875 14.300781 20.449219 14.394531 20.570312 L 14.953125 21.316406 L 15.523438 20.570312 C 15.738281 20.285156 16.175781 20.609375 15.957031 20.910156 L 15.183594 21.941406 C 15.128906 22.007812 15.046875 22.050781 14.953125 22.050781 Z M 14.953125 22.050781 " fill-opacity="1" fill-rule="evenodd"/><g clip-path="url(#2ff13d16c5)"><path fill="#935f3d" d="M 26.261719 17.378906 L 22.824219 17.378906 C 22.675781 17.378906 22.554688 17.257812 22.554688 17.109375 C 22.539062 11.40625 16.554688 7.78125 11.585938 10.28125 C 11.261719 10.441406 11.015625 9.953125 11.339844 9.792969 C 16.730469 7.132812 22.894531 10.972656 23.097656 16.835938 L 25.976562 16.835938 C 25.90625 10.851562 20.871094 6.058594 14.953125 6.058594 C 8.953125 6.058594 4.066406 10.863281 3.929688 16.835938 L 6.808594 16.835938 C 6.875 14.191406 8.246094 11.746094 10.527344 10.253906 C 10.824219 10.0625 11.125 10.523438 10.824219 10.714844 C 8.613281 12.152344 7.324219 14.542969 7.363281 17.109375 C 7.363281 17.269531 7.230469 17.394531 7.078125 17.394531 L 3.660156 17.394531 C 3.496094 17.394531 3.386719 17.257812 3.386719 17.082031 C 3.386719 10.699219 8.574219 5.503906 14.953125 5.503906 C 21.265625 5.503906 26.613281 10.699219 26.53125 17.121094 C 26.53125 17.269531 26.410156 17.378906 26.261719 17.378906 Z M 26.261719 17.378906 " fill-opacity="1" fill-rule="evenodd"/></g><g clip-path="url(#14f2de28fa)"><path fill="#935f3d" d="M 14.953125 9.480469 C 14.804688 9.480469 14.679688 9.355469 14.679688 9.207031 L 14.679688 5.785156 C 14.679688 5.421875 15.222656 5.421875 15.222656 5.785156 L 15.222656 9.207031 C 15.222656 9.355469 15.101562 9.480469 14.953125 9.480469 Z M 14.953125 9.480469 " fill-opacity="1" fill-rule="evenodd"/></g><path fill="#935f3d" d="M 21.792969 13.429688 C 21.523438 13.429688 21.414062 13.0625 21.660156 12.925781 L 24.632812 11.203125 C 24.941406 11.027344 25.214844 11.5 24.902344 11.679688 C 24.535156 11.894531 21.96875 13.429688 21.792969 13.429688 Z M 21.792969 13.429688 " fill-opacity="1" fill-rule="evenodd"/><path fill="#935f3d" d="M 8.109375 13.429688 C 7.933594 13.429688 5.367188 11.894531 5.003906 11.679688 C 4.691406 11.5 4.960938 11.027344 5.273438 11.203125 L 8.246094 12.925781 C 8.492188 13.0625 8.394531 13.429688 8.109375 13.429688 Z M 8.109375 13.429688 " fill-opacity="1" fill-rule="evenodd"/><path fill="#935f3d" d="M 12.238281 15.546875 C 12.117188 15.546875 12.007812 15.464844 11.980469 15.355469 L 9.726562 8.476562 C 9.632812 8.191406 9.996094 7.972656 10.214844 8.242188 L 15.550781 14.191406 C 15.792969 14.460938 15.386719 14.828125 15.140625 14.554688 L 10.648438 9.546875 L 12.496094 15.195312 C 12.550781 15.355469 12.425781 15.546875 12.238281 15.546875 Z M 12.238281 15.546875 " fill-opacity="1" fill-rule="evenodd"/></svg>