<svg xmlns="http://www.w3.org/2000/svg" xmlns:xlink="http://www.w3.org/1999/xlink" width="40" zoomAndPan="magnify" viewBox="0 0 30 30.000001" height="40" preserveAspectRatio="xMidYMid meet" version="1.0"><defs><clipPath id="9a68982bb1"><path d="M 0.484375 0 L 29.515625 0 L 29.515625 29.03125 L 0.484375 29.03125 Z M 0.484375 0 " clip-rule="nonzero"/></clipPath><clipPath id="7f31c72ce2"><path d="M 3.386719 2.902344 L 25 2.902344 L 25 20 L 3.386719 20 Z M 3.386719 2.902344 " clip-rule="nonzero"/></clipPath><clipPath id="55bc3d8a6d"><path d="M 12 12 L 26.613281 12 L 26.613281 26.128906 L 12 26.128906 Z M 12 12 " clip-rule="nonzero"/></clipPath></defs><g clip-path="url(#9a68982bb1)"><path fill="#ffffff" d="M 0.484375 0 L 29.515625 0 L 29.515625 29.03125 L 0.484375 29.03125 Z M 0.484375 0 " fill-opacity="1" fill-rule="nonzero"/><path fill="#ffffff" d="M 0.484375 0 L 29.515625 0 L 29.515625 29.03125 L 0.484375 29.03125 Z M 0.484375 0 " fill-opacity="1" fill-rule="nonzero"/></g><g clip-path="url(#7f31c72ce2)"><path fill="#935f3d" d="M 15.285156 19.546875 C 15.285156 19.335938 15.113281 19.160156 14.898438 19.160156 L 4.933594 19.160156 C 4.507812 19.160156 4.160156 18.8125 4.160156 18.386719 L 4.160156 4.453125 C 4.160156 4.027344 4.507812 3.675781 4.933594 3.675781 L 22.742188 3.675781 C 23.167969 3.675781 23.515625 4.027344 23.515625 4.453125 L 23.515625 11.617188 C 23.515625 11.828125 23.691406 12.003906 23.902344 12.003906 C 24.117188 12.003906 24.289062 11.828125 24.289062 11.617188 L 24.289062 4.453125 C 24.289062 3.597656 23.597656 2.902344 22.742188 2.902344 L 4.933594 2.902344 C 4.078125 2.902344 3.386719 3.597656 3.386719 4.453125 L 3.386719 18.386719 C 3.386719 19.242188 4.078125 19.933594 4.933594 19.933594 L 14.898438 19.933594 C 15.113281 19.933594 15.285156 19.761719 15.285156 19.546875 Z M 15.285156 19.546875 " fill-opacity="1" fill-rule="nonzero"/></g><path fill="#935f3d" d="M 11.410156 15.273438 C 11.597656 15.328125 11.792969 15.234375 11.871094 15.058594 L 13.320312 11.800781 L 16.550781 11.800781 C 16.714844 11.800781 16.859375 11.703125 16.917969 11.550781 L 18.007812 8.640625 L 22.074219 7.527344 C 22.28125 7.472656 22.40625 7.257812 22.347656 7.054688 C 22.289062 6.847656 22.074219 6.722656 21.871094 6.78125 L 17.613281 7.941406 C 17.492188 7.972656 17.394531 8.0625 17.355469 8.179688 L 16.285156 11.023438 L 13.070312 11.023438 C 12.914062 11.023438 12.777344 11.113281 12.714844 11.253906 L 11.304688 14.429688 L 8.914062 13.75 C 8.773438 13.710938 8.617188 13.75 8.519531 13.867188 L 6.101562 16.585938 L 6.101562 14.28125 L 7.761719 12.621094 L 10.25 13.332031 C 10.355469 13.363281 10.46875 13.347656 10.554688 13.289062 C 10.648438 13.230469 10.714844 13.140625 10.734375 13.035156 L 11.433594 9.523438 L 13.78125 9.859375 C 13.933594 9.882812 14.082031 9.8125 14.164062 9.679688 L 16.011719 6.726562 L 22.039062 5.597656 C 22.246094 5.558594 22.386719 5.355469 22.347656 5.144531 C 22.308594 4.933594 22.105469 4.796875 21.894531 4.835938 L 15.699219 5.996094 C 15.597656 6.015625 15.5 6.082031 15.445312 6.171875 L 13.640625 9.054688 L 11.179688 8.703125 C 10.972656 8.671875 10.785156 8.804688 10.746094 9.007812 L 10.054688 12.46875 L 7.746094 11.808594 C 7.609375 11.773438 7.46875 11.808594 7.367188 11.90625 L 6.09375 13.179688 L 6.09375 5.226562 C 6.09375 5.011719 5.917969 4.839844 5.707031 4.839844 C 5.492188 4.839844 5.320312 5.011719 5.320312 5.226562 L 5.320312 17.613281 C 5.320312 17.613281 5.320312 17.621094 5.320312 17.625 C 5.320312 17.652344 5.332031 17.679688 5.335938 17.707031 C 5.339844 17.730469 5.34375 17.75 5.351562 17.773438 C 5.355469 17.789062 5.371094 17.804688 5.382812 17.824219 C 5.398438 17.847656 5.414062 17.875 5.4375 17.894531 C 5.4375 17.894531 5.4375 17.902344 5.445312 17.902344 C 5.464844 17.917969 5.488281 17.925781 5.507812 17.941406 C 5.527344 17.953125 5.542969 17.964844 5.5625 17.972656 C 5.609375 17.992188 5.65625 18 5.707031 18 L 14.609375 18 C 14.820312 18 14.996094 17.824219 14.996094 17.613281 C 14.996094 17.398438 14.820312 17.226562 14.609375 17.226562 L 6.574219 17.226562 L 8.933594 14.566406 Z M 11.410156 15.273438 " fill-opacity="1" fill-rule="nonzero"/><g clip-path="url(#55bc3d8a6d)"><path fill="#935f3d" d="M 21.195312 12.195312 C 18.207031 12.195312 15.773438 14.625 15.773438 17.613281 C 15.773438 18.6875 16.089844 19.6875 16.632812 20.53125 L 15.839844 21.324219 L 15.722656 21.210938 C 15.578125 21.0625 15.320312 21.0625 15.179688 21.210938 L 13.179688 23.207031 C 12.859375 23.527344 12.679688 23.957031 12.679688 24.414062 C 12.679688 24.871094 12.859375 25.300781 13.179688 25.621094 C 13.5 25.941406 13.929688 26.121094 14.386719 26.121094 C 14.84375 26.121094 15.273438 25.941406 15.597656 25.621094 L 17.59375 23.625 C 17.667969 23.550781 17.707031 23.453125 17.707031 23.351562 C 17.707031 23.246094 17.664062 23.148438 17.59375 23.074219 L 17.476562 22.957031 L 18.269531 22.164062 C 19.113281 22.707031 20.113281 23.023438 21.191406 23.023438 C 24.179688 23.023438 26.609375 20.59375 26.609375 17.605469 C 26.609375 14.617188 24.179688 12.1875 21.191406 12.1875 Z M 15.050781 25.078125 C 14.695312 25.433594 14.078125 25.433594 13.726562 25.078125 C 13.546875 24.902344 13.453125 24.667969 13.453125 24.417969 C 13.453125 24.167969 13.546875 23.933594 13.726562 23.757812 L 15.453125 22.03125 L 15.566406 22.140625 C 15.566406 22.140625 15.566406 22.140625 15.566406 22.144531 C 15.566406 22.148438 15.566406 22.144531 15.570312 22.144531 L 16.652344 23.230469 C 16.652344 23.230469 16.652344 23.230469 16.652344 23.234375 C 16.652344 23.238281 16.652344 23.234375 16.65625 23.234375 L 16.769531 23.347656 L 15.042969 25.070312 Z M 16.929688 22.417969 L 16.386719 21.871094 L 17.101562 21.15625 C 17.273438 21.347656 17.449219 21.53125 17.648438 21.699219 Z M 21.195312 22.257812 C 18.632812 22.257812 16.546875 20.175781 16.546875 17.613281 C 16.546875 15.050781 18.632812 12.96875 21.195312 12.96875 C 23.757812 12.96875 25.839844 15.050781 25.839844 17.613281 C 25.839844 20.175781 23.757812 22.257812 21.195312 22.257812 Z M 21.195312 22.257812 " fill-opacity="1" fill-rule="nonzero"/></g><path fill="#935f3d" d="M 21.195312 13.742188 C 19.0625 13.742188 17.324219 15.480469 17.324219 17.613281 C 17.324219 19.746094 19.0625 21.484375 21.195312 21.484375 C 23.328125 21.484375 25.066406 19.746094 25.066406 17.613281 C 25.066406 15.480469 23.328125 13.742188 21.195312 13.742188 Z M 21.195312 20.710938 C 19.488281 20.710938 18.097656 19.320312 18.097656 17.613281 C 18.097656 15.90625 19.488281 14.515625 21.195312 14.515625 C 22.902344 14.515625 24.289062 15.90625 24.289062 17.613281 C 24.289062 19.320312 22.902344 20.710938 21.195312 20.710938 Z M 21.195312 20.710938 " fill-opacity="1" fill-rule="nonzero"/></svg>