<svg xmlns="http://www.w3.org/2000/svg" xmlns:xlink="http://www.w3.org/1999/xlink" width="40" zoomAndPan="magnify" viewBox="0 0 30 30.000001" height="40" preserveAspectRatio="xMidYMid meet" version="1.0"><defs><clipPath id="bda9bb9fd1"><path d="M 0.484375 0 L 29.515625 0 L 29.515625 29.03125 L 0.484375 29.03125 Z M 0.484375 0 " clip-rule="nonzero"/></clipPath><clipPath id="aaa9d47bed"><path d="M 2.761719 3.5 L 26.710938 3.5 L 26.710938 26 L 2.761719 26 Z M 2.761719 3.5 " clip-rule="nonzero"/></clipPath></defs><g clip-path="url(#bda9bb9fd1)"><path fill="#ffffff" d="M 0.484375 0 L 29.515625 0 L 29.515625 29.03125 L 0.484375 29.03125 Z M 0.484375 0 " fill-opacity="1" fill-rule="nonzero"/><path fill="#ffffff" d="M 0.484375 0 L 29.515625 0 L 29.515625 29.03125 L 0.484375 29.03125 Z M 0.484375 0 " fill-opacity="1" fill-rule="nonzero"/></g><g clip-path="url(#aaa9d47bed)"><path fill="#935f3d" d="M 19.425781 17.113281 C 19.824219 17.246094 20.1875 17.453125 20.496094 17.734375 L 21.269531 17.480469 C 21.367188 17.449219 21.476562 17.496094 21.523438 17.585938 L 22.136719 18.652344 C 22.191406 18.738281 22.167969 18.84375 22.097656 18.914062 L 21.492188 19.449219 C 21.53125 19.652344 21.554688 19.859375 21.554688 20.074219 C 21.554688 20.28125 21.53125 20.488281 21.492188 20.695312 L 22.097656 21.230469 C 22.175781 21.304688 22.191406 21.417969 22.128906 21.507812 L 21.511719 22.574219 C 21.460938 22.660156 21.363281 22.695312 21.269531 22.664062 L 20.496094 22.410156 C 20.1875 22.6875 19.824219 22.898438 19.425781 23.03125 L 19.261719 23.824219 C 19.238281 23.921875 19.15625 23.992188 19.058594 23.992188 L 17.8125 23.992188 C 17.707031 23.992188 17.621094 23.914062 17.605469 23.808594 L 17.445312 23.03125 C 17.042969 22.898438 16.683594 22.691406 16.371094 22.410156 L 15.605469 22.664062 C 15.503906 22.695312 15.394531 22.648438 15.351562 22.558594 L 14.734375 21.492188 C 14.691406 21.402344 14.707031 21.300781 14.777344 21.230469 L 15.378906 20.695312 C 15.335938 20.488281 15.316406 20.28125 15.316406 20.074219 C 15.316406 19.863281 15.335938 19.65625 15.378906 19.449219 L 14.777344 18.914062 C 14.699219 18.84375 14.683594 18.730469 14.742188 18.644531 L 15.363281 17.570312 C 15.414062 17.484375 15.511719 17.449219 15.605469 17.480469 L 16.371094 17.734375 C 16.683594 17.457031 17.042969 17.246094 17.445312 17.113281 L 17.609375 16.320312 C 17.628906 16.222656 17.71875 16.152344 17.8125 16.152344 L 19.0625 16.152344 C 19.167969 16.152344 19.253906 16.230469 19.269531 16.335938 Z M 19.789062 17.726562 C 19.605469 17.625 19.410156 17.535156 19.203125 17.480469 C 19.128906 17.457031 19.070312 17.402344 19.046875 17.320312 L 18.894531 16.574219 L 17.976562 16.574219 L 17.820312 17.320312 C 17.804688 17.390625 17.753906 17.453125 17.675781 17.472656 C 17.292969 17.585938 16.847656 17.824219 16.574219 18.105469 C 16.523438 18.164062 16.433594 18.1875 16.355469 18.164062 L 15.632812 17.925781 L 15.175781 18.714844 L 15.742188 19.222656 C 15.796875 19.269531 15.824219 19.347656 15.800781 19.425781 C 15.75 19.636719 15.726562 19.855469 15.726562 20.066406 C 15.726562 20.28125 15.75 20.492188 15.796875 20.699219 C 15.824219 20.769531 15.800781 20.859375 15.734375 20.914062 L 15.164062 21.421875 L 15.621094 22.214844 L 16.347656 21.976562 C 16.417969 21.957031 16.496094 21.972656 16.554688 22.023438 C 16.84375 22.304688 17.261719 22.558594 17.65625 22.664062 C 17.726562 22.6875 17.796875 22.742188 17.8125 22.824219 L 17.964844 23.570312 L 18.882812 23.570312 L 19.039062 22.824219 C 19.054688 22.753906 19.105469 22.691406 19.183594 22.671875 C 19.566406 22.558594 20.011719 22.320312 20.285156 22.039062 C 20.335938 21.980469 20.425781 21.957031 20.503906 21.980469 L 21.226562 22.21875 L 21.683594 21.429688 L 21.113281 20.921875 C 21.054688 20.875 21.03125 20.796875 21.050781 20.71875 C 21.101562 20.507812 21.128906 20.292969 21.128906 20.078125 C 21.128906 19.863281 21.101562 19.652344 21.054688 19.445312 C 21.03125 19.375 21.050781 19.285156 21.117188 19.230469 L 21.6875 18.722656 L 21.230469 17.929688 L 20.507812 18.167969 C 20.433594 18.191406 20.359375 18.171875 20.300781 18.121094 C 20.152344 17.964844 19.972656 17.835938 19.789062 17.726562 Z M 18.433594 18.261719 C 19.429688 18.261719 20.238281 19.066406 20.238281 20.066406 C 20.238281 21.066406 19.429688 21.875 18.433594 21.875 C 17.433594 21.875 16.625 21.066406 16.625 20.066406 C 16.625 19.074219 17.4375 18.261719 18.433594 18.261719 Z M 19.421875 19.082031 C 18.546875 18.207031 17.039062 18.828125 17.039062 20.066406 C 17.039062 21.304688 18.546875 21.929688 19.421875 21.050781 C 19.964844 20.511719 19.964844 19.628906 19.421875 19.082031 Z M 18.433594 14.554688 C 18.582031 14.554688 18.730469 14.558594 18.878906 14.570312 L 18.878906 13.078125 L 17.828125 14.128906 C 17.742188 14.214844 17.613281 14.214844 17.535156 14.128906 L 17.160156 13.753906 L 17.160156 14.699219 C 17.566406 14.605469 17.996094 14.554688 18.433594 14.554688 Z M 19.296875 14.621094 C 20.136719 14.757812 20.90625 15.070312 21.574219 15.53125 L 21.574219 10.386719 L 19.296875 12.664062 Z M 21.988281 15.847656 C 24.460938 17.933594 24.621094 21.683594 22.335938 23.96875 C 20.179688 26.125 16.6875 26.125 14.535156 23.96875 C 14.0625 23.5 13.679688 22.945312 13.402344 22.335938 C 12.515625 24.296875 10.5625 25.585938 8.371094 25.585938 C 5.320312 25.589844 2.851562 23.117188 2.851562 20.074219 C 2.851562 19.023438 3.148438 18.039062 3.652344 17.203125 L 3.007812 16.550781 C 2.925781 16.46875 2.925781 16.339844 3.007812 16.261719 L 4.1875 15.082031 C 4.269531 15 4.398438 15 4.476562 15.082031 L 5.050781 15.65625 C 5.75 15.132812 6.574219 14.773438 7.472656 14.621094 L 7.472656 14.011719 C 7.082031 14.011719 6.777344 14.046875 6.460938 13.738281 C 5.871094 13.148438 6.300781 12.148438 7.117188 12.148438 L 9.605469 12.148438 C 9.808594 12.148438 10 12.214844 10.15625 12.328125 L 14.667969 7.816406 C 14.75 7.734375 14.882812 7.734375 14.964844 7.816406 L 17.679688 10.53125 L 22.035156 6.179688 L 21.15625 5.292969 C 21.046875 5.1875 21.082031 4.988281 21.261719 4.949219 L 26.300781 3.539062 C 26.453125 3.5 26.601562 3.636719 26.554688 3.796875 L 25.140625 8.84375 C 25.097656 9 24.90625 9.046875 24.792969 8.9375 L 23.910156 8.054688 L 21.988281 9.972656 Z M 13.183594 21.769531 C 13.007812 21.238281 12.914062 20.664062 12.914062 20.066406 C 12.914062 19.472656 13.007812 18.902344 13.183594 18.363281 C 13.050781 17.984375 12.871094 17.625 12.65625 17.292969 C 12.648438 17.289062 12.644531 17.277344 12.640625 17.265625 C 12.351562 16.820312 11.988281 16.421875 11.574219 16.09375 C 11.242188 15.832031 10.96875 15.648438 10.574219 15.460938 C 8.609375 14.519531 6.285156 14.9375 4.761719 16.453125 C 2.769531 18.445312 2.769531 21.675781 4.761719 23.667969 C 6.527344 25.433594 9.3125 25.667969 11.339844 24.214844 C 12.183594 23.617188 12.832031 22.765625 13.183594 21.769531 Z M 13.402344 17.804688 C 13.578125 17.417969 13.792969 17.050781 14.054688 16.71875 L 14.054688 12.1875 L 12.328125 13.914062 L 12.328125 15.042969 C 12.402344 15.015625 12.488281 15.03125 12.546875 15.085938 L 13.726562 16.269531 C 13.808594 16.351562 13.808594 16.480469 13.726562 16.558594 L 13.078125 17.203125 C 13.203125 17.394531 13.308594 17.597656 13.402344 17.804688 Z M 14.46875 16.238281 C 15.09375 15.589844 15.871094 15.097656 16.746094 14.820312 L 16.746094 13.34375 L 14.820312 11.417969 L 14.460938 11.773438 L 14.460938 16.238281 Z M 22.046875 16.464844 L 21.644531 16.101562 C 20.925781 15.515625 20.042969 15.128906 19.074219 15.011719 C 18.292969 14.925781 17.769531 14.96875 17.003906 15.175781 C 16.171875 15.417969 15.425781 15.871094 14.828125 16.464844 C 12.84375 18.453125 12.832031 21.683594 14.828125 23.679688 C 16.824219 25.671875 20.050781 25.671875 22.046875 23.679688 C 24.039062 21.6875 24.039062 18.453125 22.046875 16.464844 Z M 8.578125 19.074219 C 9.1875 19.199219 9.550781 19.851562 9.320312 20.441406 L 9.964844 20.855469 C 10.191406 21 9.96875 21.351562 9.742188 21.199219 L 9.097656 20.785156 C 8.453125 21.4375 7.351562 20.976562 7.351562 20.074219 C 7.351562 19.585938 7.695312 19.171875 8.164062 19.074219 L 8.164062 17.742188 C 8.164062 17.472656 8.578125 17.472656 8.578125 17.742188 Z M 8.800781 19.644531 C 8.421875 19.265625 7.765625 19.535156 7.765625 20.074219 C 7.765625 20.609375 8.417969 20.878906 8.800781 20.5 C 9.03125 20.265625 9.03125 19.875 8.800781 19.644531 Z M 8.164062 16.769531 C 8.164062 16.496094 8.578125 16.496094 8.578125 16.769531 L 8.578125 17.023438 C 8.578125 17.292969 8.164062 17.292969 8.164062 17.023438 Z M 11.332031 21.542969 C 11.5625 21.675781 11.355469 22.039062 11.125 21.898438 L 10.902344 21.769531 C 10.667969 21.636719 10.871094 21.277344 11.109375 21.414062 Z M 11.667969 19.863281 C 11.9375 19.863281 11.9375 20.28125 11.667969 20.28125 L 11.414062 20.28125 C 11.140625 20.28125 11.140625 19.863281 11.414062 19.863281 Z M 11.125 18.238281 C 11.355469 18.105469 11.5625 18.460938 11.332031 18.597656 L 11.109375 18.722656 C 10.871094 18.855469 10.667969 18.5 10.902344 18.363281 Z M 6.542969 17.320312 C 6.40625 17.085938 6.765625 16.878906 6.898438 17.113281 L 7.023438 17.335938 C 7.160156 17.566406 6.800781 17.773438 6.667969 17.542969 Z M 5.410156 18.601562 C 5.171875 18.46875 5.378906 18.109375 5.617188 18.246094 L 5.839844 18.375 C 6.070312 18.507812 5.871094 18.867188 5.632812 18.730469 Z M 5.074219 20.28125 C 4.796875 20.28125 4.796875 19.863281 5.074219 19.863281 L 5.324219 19.863281 C 5.601562 19.863281 5.601562 20.28125 5.324219 20.28125 Z M 5.617188 21.898438 C 5.382812 22.035156 5.175781 21.675781 5.410156 21.542969 L 5.632812 21.417969 C 5.863281 21.285156 6.070312 21.640625 5.839844 21.773438 Z M 6.898438 23.027344 C 6.765625 23.265625 6.402344 23.058594 6.542969 22.820312 L 6.667969 22.597656 C 6.800781 22.367188 7.164062 22.574219 7.023438 22.804688 Z M 8.578125 23.371094 C 8.578125 23.644531 8.164062 23.644531 8.164062 23.371094 L 8.164062 23.117188 C 8.164062 22.839844 8.578125 22.839844 8.578125 23.117188 Z M 10.195312 22.820312 C 10.332031 23.058594 9.972656 23.265625 9.839844 23.027344 L 9.710938 22.804688 C 9.574219 22.574219 9.933594 22.367188 10.066406 22.597656 Z M 9.839844 17.113281 C 9.972656 16.875 10.332031 17.082031 10.195312 17.320312 L 10.074219 17.542969 C 9.9375 17.773438 9.574219 17.566406 9.714844 17.335938 Z M 8.371094 15.890625 C 10.679688 15.890625 12.546875 17.757812 12.546875 20.066406 C 12.546875 22.375 10.679688 24.246094 8.371094 24.246094 C 6.0625 24.246094 4.191406 22.375 4.191406 20.066406 C 4.191406 17.765625 6.0625 15.890625 8.371094 15.890625 Z M 11.03125 17.40625 C 9.558594 15.9375 7.175781 15.9375 5.703125 17.40625 C 4.234375 18.875 4.234375 21.257812 5.703125 22.726562 C 7.175781 24.199219 9.558594 24.199219 11.03125 22.726562 C 12.5 21.261719 12.5 18.875 11.03125 17.40625 Z M 3.886719 16.851562 C 4.136719 16.511719 4.421875 16.199219 4.734375 15.921875 L 4.335938 15.523438 L 3.445312 16.414062 Z M 7.894531 14.570312 C 8.210938 14.542969 8.523438 14.542969 8.847656 14.570312 L 8.847656 14.011719 L 7.894531 14.011719 Z M 9.261719 14.621094 C 9.734375 14.699219 10.191406 14.839844 10.621094 15.03125 L 14.675781 10.976562 C 14.757812 10.894531 14.886719 10.894531 14.96875 10.976562 L 17.6875 13.695312 L 23.761719 7.613281 C 23.847656 7.53125 23.976562 7.53125 24.058594 7.613281 L 24.839844 8.394531 L 26.054688 4.035156 L 21.699219 5.257812 L 22.480469 6.039062 C 22.5625 6.121094 22.5625 6.253906 22.480469 6.335938 L 17.835938 10.976562 C 17.753906 11.0625 17.625 11.0625 17.546875 10.976562 L 14.828125 8.261719 L 10.433594 12.644531 C 10.769531 13.261719 10.316406 14.015625 9.617188 14.015625 L 9.261719 14.015625 Z M 11.015625 15.226562 C 11.246094 15.355469 11.46875 15.496094 11.683594 15.65625 L 11.921875 15.417969 L 11.921875 14.320312 Z M 12.003906 15.921875 C 12.320312 16.199219 12.605469 16.511719 12.851562 16.851562 L 13.292969 16.414062 L 12.402344 15.523438 Z M 9.617188 12.566406 L 7.128906 12.566406 C 6.671875 12.566406 6.433594 13.121094 6.761719 13.445312 C 6.851562 13.539062 6.984375 13.597656 7.128906 13.597656 L 9.617188 13.597656 C 10.074219 13.597656 10.3125 13.042969 9.984375 12.71875 C 9.886719 12.625 9.757812 12.566406 9.617188 12.566406 Z M 9.617188 12.566406 " fill-opacity="1" fill-rule="nonzero"/></g></svg>