<svg xmlns="http://www.w3.org/2000/svg" xmlns:xlink="http://www.w3.org/1999/xlink" width="40" zoomAndPan="magnify" viewBox="0 0 30 30.000001" height="40" preserveAspectRatio="xMidYMid meet" version="1.0"><defs><clipPath id="88a60a5474"><path d="M 0.484375 0 L 29.515625 0 L 29.515625 29.03125 L 0.484375 29.03125 Z M 0.484375 0 " clip-rule="nonzero"/></clipPath><clipPath id="5f4d5ffc34"><path d="M 3.386719 15 L 9 15 L 9 23.953125 L 3.386719 23.953125 Z M 3.386719 15 " clip-rule="nonzero"/></clipPath><clipPath id="ed17d12695"><path d="M 5 13 L 11 13 L 11 23.953125 L 5 23.953125 Z M 5 13 " clip-rule="nonzero"/></clipPath><clipPath id="0b4780a4de"><path d="M 21 15 L 26.613281 15 L 26.613281 23.953125 L 21 23.953125 Z M 21 15 " clip-rule="nonzero"/></clipPath><clipPath id="0afc259e71"><path d="M 19 13 L 25 13 L 25 23.953125 L 19 23.953125 Z M 19 13 " clip-rule="nonzero"/></clipPath><clipPath id="624ae204ae"><path d="M 8 15 L 22 15 L 22 23.953125 L 8 23.953125 Z M 8 15 " clip-rule="nonzero"/></clipPath><clipPath id="93d9a77f30"><path d="M 12 5.082031 L 19 5.082031 L 19 8 L 12 8 Z M 12 5.082031 " clip-rule="nonzero"/></clipPath></defs><g clip-path="url(#88a60a5474)"><path fill="#ffffff" d="M 0.484375 0 L 29.515625 0 L 29.515625 29.03125 L 0.484375 29.03125 Z M 0.484375 0 " fill-opacity="1" fill-rule="nonzero"/><path fill="#ffffff" d="M 0.484375 0 L 29.515625 0 L 29.515625 29.03125 L 0.484375 29.03125 Z M 0.484375 0 " fill-opacity="1" fill-rule="nonzero"/></g><path fill="#935f3d" d="M 7.484375 11.917969 C 7.484375 10.609375 5.5 10.609375 5.5 11.917969 C 5.5 13.230469 7.484375 13.230469 7.484375 11.917969 " fill-opacity="1" fill-rule="nonzero"/><g clip-path="url(#5f4d5ffc34)"><path fill="#935f3d" d="M 7.015625 21.835938 L 7.015625 20.28125 C 8.003906 20.25 8.769531 20.015625 8.769531 19.730469 C 6.277344 19.730469 7.445312 19.730469 6.546875 19.730469 C 5.007812 19.730469 5.445312 20.074219 4.480469 17.734375 C 4.632812 17.871094 4.785156 17.933594 4.917969 17.890625 C 5.683594 17.640625 4.824219 14.980469 4.054688 15.226562 C 3.824219 15.304688 3.722656 15.679688 3.777344 16.160156 L 3.386719 16.320312 C 3.386719 16.324219 4.820312 19.8125 4.820312 19.8125 C 4.953125 20.058594 5.660156 20.253906 6.546875 20.28125 L 6.546875 21.835938 C 5.828125 21.921875 5.183594 22.386719 4.800781 23.105469 C 4.523438 23.347656 4.695312 23.808594 5.0625 23.808594 C 5.425781 23.808594 5.601562 23.367188 5.34375 23.117188 C 5.644531 22.675781 6.078125 22.382812 6.546875 22.3125 L 6.546875 22.703125 C 6.445312 22.773438 6.382812 22.894531 6.382812 23.027344 C 6.382812 23.554688 7.183594 23.558594 7.183594 23.027344 C 7.183594 22.894531 7.117188 22.773438 7.015625 22.703125 L 7.015625 22.3125 C 7.488281 22.382812 7.917969 22.675781 8.222656 23.117188 C 7.960938 23.367188 8.136719 23.808594 8.5 23.808594 C 8.71875 23.808594 8.898438 23.628906 8.898438 23.40625 C 8.898438 23.285156 8.847656 23.175781 8.765625 23.105469 C 8.382812 22.386719 7.734375 21.921875 7.015625 21.835938 " fill-opacity="1" fill-rule="nonzero"/></g><g clip-path="url(#ed17d12695)"><path fill="#935f3d" d="M 10.089844 18.085938 L 7.503906 18.085938 C 7.503906 16.222656 7.503906 16.285156 7.503906 14.414062 C 7.503906 13.089844 5.5 13.089844 5.5 14.414062 L 5.5 18.738281 C 5.5 19.125 5.8125 19.4375 6.199219 19.4375 L 9.449219 19.4375 L 9.96875 23.792969 L 10.722656 23.792969 L 10.628906 18.628906 C 10.628906 18.328125 10.386719 18.085938 10.089844 18.085938 " fill-opacity="1" fill-rule="nonzero"/></g><path fill="#935f3d" d="M 24.5 11.917969 C 24.5 10.609375 22.515625 10.609375 22.515625 11.917969 C 22.515625 13.230469 24.5 13.230469 24.5 11.917969 " fill-opacity="1" fill-rule="nonzero"/><g clip-path="url(#0b4780a4de)"><path fill="#935f3d" d="M 23.453125 21.835938 L 23.453125 20.28125 C 24.339844 20.253906 25.046875 20.058594 25.179688 19.8125 C 25.179688 19.8125 26.613281 16.324219 26.613281 16.320312 L 26.222656 16.160156 C 26.375 14.800781 25.390625 14.945312 24.929688 16.371094 C 24.574219 17.472656 24.925781 18.269531 25.519531 17.734375 L 24.796875 19.480469 C 24.652344 19.835938 24.578125 19.730469 21.230469 19.730469 C 21.230469 20.015625 21.996094 20.25 22.984375 20.28125 L 22.984375 21.835938 C 22.265625 21.921875 21.617188 22.386719 21.234375 23.105469 C 20.960938 23.347656 21.132812 23.808594 21.5 23.808594 C 21.863281 23.808594 22.039062 23.367188 21.777344 23.117188 C 22.082031 22.675781 22.511719 22.382812 22.984375 22.3125 L 22.984375 22.703125 C 22.667969 22.929688 22.832031 23.429688 23.21875 23.429688 C 23.605469 23.429688 23.769531 22.929688 23.453125 22.703125 L 23.453125 22.3125 C 23.921875 22.382812 24.355469 22.675781 24.65625 23.117188 C 24.582031 23.1875 24.535156 23.292969 24.535156 23.40625 C 24.535156 23.9375 25.335938 23.9375 25.335938 23.40625 C 25.335938 23.285156 25.28125 23.175781 25.199219 23.105469 C 24.816406 22.386719 24.171875 21.921875 23.453125 21.835938 " fill-opacity="1" fill-rule="nonzero"/></g><g clip-path="url(#0afc259e71)"><path fill="#935f3d" d="M 24.5 18.738281 L 24.5 14.414062 C 24.5 13.089844 22.496094 13.089844 22.496094 14.414062 C 22.496094 16.285156 22.496094 16.222656 22.496094 18.085938 L 19.910156 18.085938 C 19.613281 18.085938 19.371094 18.328125 19.371094 18.628906 L 19.277344 23.792969 L 20.03125 23.792969 L 20.550781 19.4375 L 23.800781 19.4375 C 24.1875 19.4375 24.5 19.125 24.5 18.738281 " fill-opacity="1" fill-rule="nonzero"/></g><g clip-path="url(#624ae204ae)"><path fill="#935f3d" d="M 16.261719 17.652344 L 21.589844 17.652344 L 21.589844 15.828125 L 8.410156 15.828125 L 8.410156 17.652344 L 13.738281 17.652344 L 13.738281 23.296875 L 12.339844 23.808594 C 15.339844 23.808594 14.660156 23.808594 17.660156 23.808594 L 16.261719 23.3125 L 16.261719 17.652344 " fill-opacity="1" fill-rule="nonzero"/></g><path fill="#935f3d" d="M 13.816406 13.644531 L 14.125 13.765625 L 14.132812 13.433594 C 14.136719 13.339844 14.148438 13.246094 14.171875 13.15625 L 14.21875 12.960938 L 14.039062 12.886719 C 12.675781 12.3125 11.828125 10.933594 11.910156 9.476562 L 12.695312 9.582031 L 11.6875 8.25 L 10.351562 9.261719 L 11.132812 9.367188 C 11 11.21875 12.078125 12.953125 13.816406 13.644531 " fill-opacity="1" fill-rule="nonzero"/><path fill="#935f3d" d="M 17 12.757812 L 16.828125 12.09375 L 15.972656 13.53125 L 17.410156 14.386719 L 17.195312 13.535156 C 18.894531 12.738281 19.878906 10.925781 19.601562 9.050781 L 19.554688 8.722656 L 19.261719 8.878906 C 19.179688 8.925781 19.09375 8.960938 19.003906 8.984375 L 18.8125 9.039062 L 18.835938 9.238281 C 19.019531 10.679688 18.269531 12.085938 17 12.757812 " fill-opacity="1" fill-rule="nonzero"/><g clip-path="url(#93d9a77f30)"><path fill="#935f3d" d="M 12.976562 6.886719 L 13.121094 7.027344 L 13.277344 6.90625 C 14.429688 6.027344 16.019531 5.96875 17.230469 6.726562 L 16.695312 7.1875 L 18.367188 7.3125 L 18.488281 5.640625 L 17.847656 6.195312 C 16.304688 5.097656 14.226562 5.148438 12.730469 6.335938 L 12.472656 6.542969 L 12.757812 6.714844 C 12.835938 6.761719 12.910156 6.820312 12.976562 6.886719 " fill-opacity="1" fill-rule="nonzero"/></g><path fill="#935f3d" d="M 14.355469 9.769531 C 14.355469 9.171875 14.84375 8.6875 15.441406 8.6875 C 16.042969 8.6875 16.527344 9.171875 16.527344 9.769531 C 16.527344 10.371094 16.042969 10.855469 15.441406 10.855469 C 14.84375 10.855469 14.355469 10.371094 14.355469 9.769531 Z M 15.003906 12.179688 L 15.890625 12.179688 C 15.964844 12.179688 16.027344 12.117188 16.027344 12.042969 L 16.027344 11.582031 C 16.128906 11.550781 16.226562 11.507812 16.316406 11.460938 L 16.640625 11.785156 C 16.695312 11.839844 16.78125 11.839844 16.835938 11.785156 L 17.460938 11.160156 C 17.515625 11.105469 17.515625 11.019531 17.460938 10.964844 L 17.136719 10.640625 C 17.183594 10.550781 17.222656 10.453125 17.257812 10.351562 L 17.714844 10.351562 C 17.792969 10.351562 17.855469 10.289062 17.855469 10.214844 L 17.855469 9.332031 C 17.855469 9.253906 17.792969 9.191406 17.714844 9.191406 L 17.257812 9.191406 C 17.222656 9.089844 17.183594 8.996094 17.136719 8.902344 L 17.460938 8.578125 C 17.515625 8.523438 17.515625 8.4375 17.460938 8.382812 L 16.835938 7.757812 C 16.78125 7.703125 16.695312 7.703125 16.640625 7.757812 L 16.316406 8.082031 C 16.226562 8.035156 16.128906 7.996094 16.027344 7.960938 L 16.027344 7.503906 C 16.027344 7.425781 15.964844 7.367188 15.890625 7.367188 L 15.003906 7.367188 C 14.929688 7.367188 14.867188 7.425781 14.867188 7.503906 L 14.867188 7.960938 C 14.765625 7.996094 14.667969 8.035156 14.578125 8.082031 L 14.253906 7.757812 C 14.199219 7.703125 14.109375 7.703125 14.058594 7.757812 L 13.433594 8.382812 C 13.378906 8.4375 13.378906 8.523438 13.433594 8.578125 L 13.757812 8.902344 C 13.710938 8.996094 13.667969 9.089844 13.636719 9.191406 L 13.179688 9.191406 C 13.101562 9.191406 13.039062 9.253906 13.039062 9.332031 C 13.039062 10.515625 12.902344 10.351562 13.636719 10.351562 C 13.667969 10.453125 13.710938 10.550781 13.757812 10.640625 L 13.433594 10.964844 C 13.378906 11.019531 13.378906 11.105469 13.433594 11.160156 C 14.269531 12 14.054688 11.984375 14.578125 11.460938 C 14.667969 11.507812 14.765625 11.550781 14.867188 11.582031 L 14.867188 12.042969 C 14.867188 12.117188 14.929688 12.179688 15.003906 12.179688 " fill-opacity="1" fill-rule="nonzero"/></svg>