<svg xmlns="http://www.w3.org/2000/svg" xmlns:xlink="http://www.w3.org/1999/xlink" width="40" zoomAndPan="magnify" viewBox="0 0 30 30.000001" height="40" preserveAspectRatio="xMidYMid meet" version="1.0"><defs><clipPath id="fdb6463df9"><path d="M 0.484375 0 L 29.515625 0 L 29.515625 29.03125 L 0.484375 29.03125 Z M 0.484375 0 " clip-rule="nonzero"/></clipPath><clipPath id="3768bfc48f"><path d="M 3.386719 4.296875 L 26.613281 4.296875 L 26.613281 21 L 3.386719 21 Z M 3.386719 4.296875 " clip-rule="nonzero"/></clipPath><clipPath id="a5a157a208"><path d="M 3.386719 17 L 26.613281 17 L 26.613281 18 L 3.386719 18 Z M 3.386719 17 " clip-rule="nonzero"/></clipPath><clipPath id="3ef2e9dee0"><path d="M 9 21 L 21 21 L 21 24.621094 L 9 24.621094 Z M 9 21 " clip-rule="nonzero"/></clipPath></defs><g clip-path="url(#fdb6463df9)"><path fill="#ffffff" d="M 0.484375 0 L 29.515625 0 L 29.515625 29.03125 L 0.484375 29.03125 Z M 0.484375 0 " fill-opacity="1" fill-rule="nonzero"/><path fill="#ffffff" d="M 0.484375 0 L 29.515625 0 L 29.515625 29.03125 L 0.484375 29.03125 Z M 0.484375 0 " fill-opacity="1" fill-rule="nonzero"/></g><g clip-path="url(#3768bfc48f)"><path fill="#935f3d" d="M 25.460938 20.402344 L 4.484375 20.402344 C 3.917969 20.402344 3.460938 19.945312 3.460938 19.390625 L 3.460938 5.320312 C 3.460938 4.753906 3.917969 4.296875 4.484375 4.296875 L 25.460938 4.296875 C 26.027344 4.296875 26.484375 4.753906 26.484375 5.320312 L 26.484375 19.390625 C 26.484375 19.957031 26.027344 20.402344 25.460938 20.402344 Z M 4.484375 4.835938 C 4.214844 4.835938 3.996094 5.050781 3.996094 5.320312 L 3.996094 19.390625 C 3.996094 19.664062 4.214844 19.863281 4.484375 19.863281 L 25.460938 19.863281 C 25.730469 19.863281 25.933594 19.648438 25.933594 19.390625 L 25.933594 5.320312 C 25.933594 5.050781 25.714844 4.835938 25.460938 4.835938 Z M 4.484375 4.835938 " fill-opacity="1" fill-rule="evenodd"/></g><g clip-path="url(#a5a157a208)"><path fill="#935f3d" d="M 26.214844 17.664062 L 3.730469 17.664062 C 3.378906 17.664062 3.378906 17.125 3.730469 17.125 L 26.214844 17.125 C 26.566406 17.125 26.566406 17.664062 26.214844 17.664062 Z M 26.214844 17.664062 " fill-opacity="1" fill-rule="evenodd"/></g><path fill="#935f3d" d="M 21.074219 19.039062 C 20.617188 19.039062 20.089844 19.132812 20.089844 18.773438 C 20.089844 18.394531 20.617188 18.5 21.074219 18.5 C 21.441406 18.5 21.441406 19.039062 21.074219 19.039062 Z M 21.074219 19.039062 " fill-opacity="1" fill-rule="evenodd"/><path fill="#935f3d" d="M 22.976562 19.039062 C 22.519531 19.039062 21.992188 19.132812 21.992188 18.773438 C 21.992188 18.394531 22.519531 18.5 22.976562 18.5 C 23.34375 18.5 23.34375 19.039062 22.976562 19.039062 Z M 22.976562 19.039062 " fill-opacity="1" fill-rule="evenodd"/><path fill="#935f3d" d="M 24.878906 19.039062 C 24.421875 19.039062 23.894531 19.132812 23.894531 18.773438 C 23.894531 18.394531 24.421875 18.5 24.878906 18.5 C 25.230469 18.5 25.230469 19.039062 24.878906 19.039062 Z M 24.878906 19.039062 " fill-opacity="1" fill-rule="evenodd"/><path fill="#935f3d" d="M 16.234375 22.292969 C 16.085938 22.292969 15.964844 22.167969 15.964844 22.023438 L 15.964844 20.132812 C 15.964844 19.785156 16.503906 19.785156 16.503906 20.132812 L 16.503906 22.023438 C 16.503906 22.167969 16.382812 22.292969 16.234375 22.292969 Z M 13.710938 22.292969 C 13.5625 22.292969 13.441406 22.167969 13.441406 22.023438 L 13.441406 20.132812 C 13.441406 19.785156 13.980469 19.785156 13.980469 20.132812 L 13.980469 22.023438 C 13.980469 22.167969 13.859375 22.292969 13.710938 22.292969 Z M 13.710938 22.292969 " fill-opacity="1" fill-rule="evenodd"/><g clip-path="url(#3ef2e9dee0)"><path fill="#935f3d" d="M 20.210938 24.71875 L 9.730469 24.71875 C 8.679688 24.71875 10.824219 21.65625 14.964844 21.65625 C 19.105469 21.65625 21.253906 24.71875 20.210938 24.71875 Z M 10.21875 24.179688 L 19.726562 24.179688 C 17.796875 21.535156 12.132812 21.535156 10.21875 24.179688 Z M 10.21875 24.179688 " fill-opacity="1" fill-rule="evenodd"/></g><path fill="#935f3d" d="M 13.941406 15.722656 L 5.710938 15.722656 C 5.320312 15.722656 5.007812 15.410156 5.007812 15.019531 L 5.007812 8.734375 C 5.007812 8.34375 5.320312 8.035156 5.710938 8.035156 L 13.941406 8.035156 C 14.332031 8.035156 14.640625 8.34375 14.640625 8.734375 C 14.640625 9.261719 14.75 9.828125 14.371094 9.828125 C 13.792969 9.828125 14.371094 8.574219 13.941406 8.574219 L 5.710938 8.574219 C 5.617188 8.574219 5.550781 8.640625 5.550781 8.734375 L 5.550781 15.019531 C 5.550781 15.113281 5.632812 15.183594 5.710938 15.183594 L 13.941406 15.183594 C 14.035156 15.183594 14.101562 15.113281 14.101562 15.019531 L 14.101562 12.566406 C 14.101562 12.214844 14.640625 12.214844 14.640625 12.566406 L 14.640625 15.019531 C 14.640625 15.410156 14.332031 15.722656 13.941406 15.722656 Z M 13.941406 15.722656 " fill-opacity="1" fill-rule="evenodd"/><path fill="#935f3d" d="M 9.90625 15.722656 L 5.699219 15.722656 C 4.835938 15.722656 4.96875 14.429688 5.0625 14.320312 L 6.316406 12.621094 C 6.804688 11.957031 7.640625 11.945312 8.125 12.605469 L 10.121094 15.289062 C 10.242188 15.480469 10.121094 15.722656 9.90625 15.722656 Z M 5.550781 14.5625 C 5.550781 14.765625 5.496094 15.183594 5.699219 15.183594 L 9.367188 15.183594 L 7.695312 12.929688 C 7.425781 12.550781 7.019531 12.566406 6.75 12.945312 Z M 5.550781 14.5625 " fill-opacity="1" fill-rule="evenodd"/><path fill="#935f3d" d="M 13.953125 15.722656 L 9.90625 15.722656 C 9.8125 15.722656 9.730469 15.683594 9.691406 15.613281 L 8.839844 14.46875 C 8.773438 14.375 8.773438 14.238281 8.855469 14.144531 L 11.59375 10.90625 C 12.335938 10.03125 13.75 10.164062 13.578125 10.707031 C 13.402344 11.203125 12.738281 10.367188 12 11.257812 L 9.40625 14.320312 L 10.039062 15.183594 L 13.953125 15.183594 C 14.019531 15.183594 14.101562 15.101562 14.101562 14.96875 L 14.101562 12.566406 C 14.101562 12.214844 14.640625 12.214844 14.640625 12.566406 L 14.640625 14.96875 C 14.640625 15.386719 14.332031 15.722656 13.953125 15.722656 Z M 13.953125 15.722656 " fill-opacity="1" fill-rule="evenodd"/><path fill="#935f3d" d="M 8.261719 11.390625 C 6.75 11.390625 6.75 9.085938 8.261719 9.085938 C 9.773438 9.085938 9.773438 11.390625 8.261719 11.390625 Z M 8.261719 9.625 C 7.453125 9.625 7.453125 10.851562 8.261719 10.851562 C 9.070312 10.851562 9.070312 9.625 8.261719 9.625 Z M 8.261719 9.625 " fill-opacity="1" fill-rule="evenodd"/><path fill="#935f3d" d="M 13.441406 13.78125 C 13.359375 13.78125 13.292969 13.753906 13.238281 13.699219 L 11.742188 12.199219 C 11.632812 12.09375 11.632812 11.917969 11.742188 11.8125 L 16.558594 6.996094 C 16.652344 6.902344 16.839844 6.902344 16.933594 6.996094 L 18.445312 8.507812 C 18.539062 8.613281 18.539062 8.773438 18.445312 8.882812 L 13.628906 13.699219 C 13.578125 13.753906 13.507812 13.78125 13.441406 13.78125 Z M 12.308594 12 L 13.441406 13.132812 L 17.867188 8.695312 L 16.746094 7.574219 Z M 12.308594 12 " fill-opacity="1" fill-rule="evenodd"/><path fill="#935f3d" d="M 11.253906 14.453125 C 11.082031 14.453125 10.945312 14.277344 11 14.101562 L 11.675781 11.933594 C 11.726562 11.730469 11.984375 11.675781 12.121094 11.8125 L 13.628906 13.324219 C 13.765625 13.46875 13.710938 13.710938 13.523438 13.765625 Z M 12.050781 12.511719 L 11.675781 13.765625 L 12.929688 13.386719 Z M 12.050781 12.511719 " fill-opacity="1" fill-rule="evenodd"/><path fill="#935f3d" d="M 12.6875 13.027344 C 12.441406 13.027344 12.320312 12.742188 12.496094 12.566406 L 17.300781 7.75 C 17.554688 7.507812 17.933594 7.886719 17.691406 8.128906 L 12.875 12.945312 C 12.820312 12.996094 12.753906 13.027344 12.6875 13.027344 Z M 12.6875 13.027344 " fill-opacity="1" fill-rule="evenodd"/><path fill="#935f3d" d="M 18.242188 8.964844 C 18.175781 8.964844 18.109375 8.9375 18.054688 8.882812 L 16.558594 7.386719 C 16.285156 7.128906 16.71875 6.832031 17.03125 6.523438 C 17.40625 6.144531 18 6.144531 18.378906 6.523438 C 18.78125 6.925781 19.199219 7.222656 19.199219 7.738281 C 19.199219 8.222656 18.824219 8.519531 18.445312 8.882812 C 18.390625 8.9375 18.324219 8.964844 18.242188 8.964844 Z M 17.125 7.199219 L 18.242188 8.316406 C 18.890625 7.667969 18.796875 7.695312 17.988281 6.902344 C 17.648438 6.550781 17.328125 6.996094 17.125 7.199219 Z M 17.125 7.199219 " fill-opacity="1" fill-rule="evenodd"/><path fill="#935f3d" d="M 24.664062 9.597656 L 19.984375 9.597656 C 19.835938 9.597656 19.714844 9.476562 19.714844 9.328125 L 19.714844 6.023438 C 19.714844 5.875 19.835938 5.753906 19.984375 5.753906 L 24.664062 5.753906 C 24.8125 5.753906 24.933594 5.875 24.933594 6.023438 L 24.933594 9.328125 C 24.933594 9.476562 24.8125 9.597656 24.664062 9.597656 Z M 20.253906 9.058594 L 24.394531 9.058594 L 24.394531 6.292969 L 20.253906 6.292969 Z M 20.253906 9.058594 " fill-opacity="1" fill-rule="evenodd"/><path fill="#935f3d" d="M 24.664062 12.902344 L 19.984375 12.902344 C 19.835938 12.902344 19.714844 12.78125 19.714844 12.632812 L 19.714844 9.328125 C 19.714844 9.179688 19.835938 9.058594 19.984375 9.058594 L 24.664062 9.058594 C 24.8125 9.058594 24.933594 9.179688 24.933594 9.328125 L 24.933594 12.632812 C 24.933594 12.78125 24.8125 12.902344 24.664062 12.902344 Z M 20.253906 12.363281 L 24.394531 12.363281 L 24.394531 9.597656 L 20.253906 9.597656 Z M 20.253906 12.363281 " fill-opacity="1" fill-rule="evenodd"/><path fill="#935f3d" d="M 24.664062 16.207031 L 19.984375 16.207031 C 19.835938 16.207031 19.714844 16.085938 19.714844 15.9375 L 19.714844 12.632812 C 19.714844 12.484375 19.835938 12.363281 19.984375 12.363281 L 24.664062 12.363281 C 24.8125 12.363281 24.933594 12.484375 24.933594 12.632812 L 24.933594 15.9375 C 24.933594 16.085938 24.8125 16.207031 24.664062 16.207031 Z M 20.253906 15.667969 L 24.394531 15.667969 L 24.394531 12.902344 L 20.253906 12.902344 Z M 20.253906 15.667969 " fill-opacity="1" fill-rule="evenodd"/></svg>