<svg xmlns="http://www.w3.org/2000/svg" xmlns:xlink="http://www.w3.org/1999/xlink" width="40" zoomAndPan="magnify" viewBox="0 0 30 30.000001" height="40" preserveAspectRatio="xMidYMid meet" version="1.0"><defs><clipPath id="e6d3263174"><path d="M 0.484375 0 L 29.515625 0 L 29.515625 29.03125 L 0.484375 29.03125 Z M 0.484375 0 " clip-rule="nonzero"/></clipPath><clipPath id="dc4c2469d5"><path d="M 6 5.53125 L 26.613281 5.53125 L 26.613281 23.675781 L 6 23.675781 Z M 6 5.53125 " clip-rule="nonzero"/></clipPath><clipPath id="6a8426043e"><path d="M 3.386719 8 L 5 8 L 5 10 L 3.386719 10 Z M 3.386719 8 " clip-rule="nonzero"/></clipPath><clipPath id="e62cd993f2"><path d="M 3.386719 10 L 5 10 L 5 11 L 3.386719 11 Z M 3.386719 10 " clip-rule="nonzero"/></clipPath><clipPath id="a2948a69e5"><path d="M 7 5.53125 L 9 5.53125 L 9 7 L 7 7 Z M 7 5.53125 " clip-rule="nonzero"/></clipPath><clipPath id="c1c9bef011"><path d="M 6 5.53125 L 8 5.53125 L 8 7 L 6 7 Z M 6 5.53125 " clip-rule="nonzero"/></clipPath><clipPath id="f82fcc991a"><path d="M 4 5.53125 L 6 5.53125 L 6 7 L 4 7 Z M 4 5.53125 " clip-rule="nonzero"/></clipPath><clipPath id="85accc14b8"><path d="M 3.386719 7 L 5 7 L 5 8 L 3.386719 8 Z M 3.386719 7 " clip-rule="nonzero"/></clipPath></defs><g clip-path="url(#e6d3263174)"><path fill="#ffffff" d="M 0.484375 0 L 29.515625 0 L 29.515625 29.03125 L 0.484375 29.03125 Z M 0.484375 0 " fill-opacity="1" fill-rule="nonzero"/><path fill="#ffffff" d="M 0.484375 0 L 29.515625 0 L 29.515625 29.03125 L 0.484375 29.03125 Z M 0.484375 0 " fill-opacity="1" fill-rule="nonzero"/></g><g clip-path="url(#dc4c2469d5)"><path fill="#935f3d" d="M 26.582031 9.789062 C 26.550781 9.664062 26.449219 9.566406 26.320312 9.539062 L 23.519531 9.007812 L 23.714844 6.164062 C 23.722656 6.035156 23.652344 5.910156 23.539062 5.847656 C 23.421875 5.785156 23.28125 5.796875 23.175781 5.878906 L 19.871094 8.433594 C 19.792969 8.492188 19.746094 8.578125 19.742188 8.671875 L 19.535156 11.664062 L 18.269531 12.640625 C 17.84375 12.140625 17.347656 11.707031 16.785156 11.351562 C 16.066406 10.894531 15.273438 10.585938 14.4375 10.433594 C 13.570312 10.273438 12.691406 10.292969 11.824219 10.484375 C 10.957031 10.679688 10.152344 11.035156 9.433594 11.550781 C 8.742188 12.042969 8.160156 12.660156 7.699219 13.382812 C 7.242188 14.101562 6.933594 14.894531 6.78125 15.730469 C 6.621094 16.597656 6.640625 17.476562 6.832031 18.34375 C 7.027344 19.210938 7.386719 20.015625 7.898438 20.734375 C 8.390625 21.425781 9.007812 22.007812 9.730469 22.46875 C 10.453125 22.925781 11.242188 23.234375 12.078125 23.386719 C 12.46875 23.457031 12.859375 23.496094 13.253906 23.496094 C 13.734375 23.496094 14.214844 23.441406 14.691406 23.335938 C 15.558594 23.140625 16.363281 22.78125 17.082031 22.269531 C 17.703125 21.828125 18.238281 21.285156 18.671875 20.65625 L 19.339844 20.5625 L 19.566406 20.753906 L 19.589844 21.445312 C 19.59375 21.585938 19.6875 21.710938 19.820312 21.75 L 20.539062 21.976562 C 20.570312 21.988281 20.605469 21.992188 20.640625 21.992188 C 20.742188 21.992188 20.839844 21.945312 20.90625 21.863281 L 21.324219 21.308594 L 21.617188 21.285156 L 22.125 21.757812 C 22.230469 21.851562 22.382812 21.871094 22.507812 21.808594 L 23.175781 21.460938 C 23.300781 21.394531 23.371094 21.257812 23.351562 21.121094 L 23.253906 20.433594 L 23.445312 20.207031 L 24.140625 20.183594 C 24.28125 20.175781 24.402344 20.082031 24.445312 19.949219 L 24.671875 19.230469 C 24.714844 19.097656 24.667969 18.949219 24.554688 18.867188 L 24.003906 18.445312 L 23.976562 18.152344 L 24.449219 17.644531 C 24.546875 17.542969 24.566406 17.390625 24.5 17.265625 L 24.15625 16.597656 C 24.089844 16.472656 23.953125 16.402344 23.8125 16.421875 L 23.125 16.515625 L 22.898438 16.324219 L 22.875 15.632812 C 22.871094 15.492188 22.777344 15.367188 22.640625 15.324219 L 21.925781 15.097656 C 21.789062 15.058594 21.644531 15.101562 21.558594 15.214844 L 21.140625 15.769531 L 20.847656 15.792969 L 20.339844 15.320312 C 20.234375 15.226562 20.082031 15.203125 19.957031 15.269531 L 19.667969 15.417969 C 19.480469 14.605469 19.148438 13.851562 18.675781 13.167969 L 19.945312 12.191406 L 22.886719 12.75 C 22.90625 12.753906 22.929688 12.753906 22.949219 12.753906 C 23.023438 12.753906 23.09375 12.730469 23.152344 12.683594 L 26.460938 10.132812 C 26.5625 10.050781 26.613281 9.917969 26.582031 9.789062 Z M 20.242188 11.117188 L 20.394531 8.867188 L 22.996094 6.859375 L 22.84375 9.109375 L 20.660156 10.796875 Z M 20.054688 15.96875 L 20.5 16.382812 C 20.570312 16.449219 20.660156 16.480469 20.753906 16.472656 L 21.34375 16.421875 C 21.441406 16.414062 21.527344 16.363281 21.582031 16.289062 L 21.949219 15.804688 L 22.214844 15.890625 L 22.238281 16.496094 C 22.242188 16.589844 22.285156 16.679688 22.355469 16.742188 L 22.808594 17.121094 C 22.882812 17.183594 22.976562 17.210938 23.070312 17.195312 L 23.671875 17.113281 L 23.800781 17.363281 L 23.386719 17.804688 C 23.324219 17.875 23.289062 17.96875 23.296875 18.0625 L 23.351562 18.652344 C 23.359375 18.746094 23.40625 18.832031 23.480469 18.890625 L 23.964844 19.253906 L 23.878906 19.523438 L 23.273438 19.542969 C 23.179688 19.546875 23.089844 19.589844 23.03125 19.664062 L 22.648438 20.117188 C 22.589844 20.1875 22.5625 20.285156 22.574219 20.378906 L 22.65625 20.976562 L 22.410156 21.105469 L 21.964844 20.695312 C 21.894531 20.628906 21.800781 20.597656 21.707031 20.605469 L 21.117188 20.65625 C 21.023438 20.664062 20.9375 20.710938 20.882812 20.789062 L 20.515625 21.269531 L 20.246094 21.1875 L 20.226562 20.582031 C 20.222656 20.484375 20.179688 20.398438 20.109375 20.335938 L 19.652344 19.957031 C 19.582031 19.894531 19.488281 19.867188 19.394531 19.882812 L 19.113281 19.917969 C 19.410156 19.34375 19.617188 18.730469 19.734375 18.089844 C 19.855469 17.433594 19.875 16.769531 19.792969 16.109375 Z M 19.03125 15.621094 C 19.207031 16.398438 19.222656 17.191406 19.078125 17.96875 C 18.941406 18.722656 18.664062 19.429688 18.25 20.082031 C 17.839844 20.730469 17.316406 21.285156 16.691406 21.726562 C 16.046875 22.1875 15.328125 22.507812 14.546875 22.683594 C 13.769531 22.855469 12.976562 22.875 12.199219 22.730469 C 11.445312 22.59375 10.734375 22.316406 10.085938 21.902344 C 9.4375 21.492188 8.882812 20.96875 8.441406 20.34375 C 7.980469 19.699219 7.660156 18.980469 7.484375 18.199219 C 7.3125 17.417969 7.292969 16.628906 7.4375 15.851562 C 7.574219 15.097656 7.851562 14.386719 8.265625 13.738281 C 8.675781 13.089844 9.199219 12.535156 9.824219 12.09375 C 10.46875 11.632812 11.1875 11.3125 11.96875 11.136719 C 12.398438 11.039062 12.832031 10.992188 13.261719 10.992188 C 13.617188 10.992188 13.96875 11.023438 14.316406 11.089844 C 15.070312 11.226562 15.78125 11.503906 16.429688 11.914062 C 16.921875 12.230469 17.363281 12.609375 17.742188 13.046875 L 16.457031 14.039062 C 16.195312 13.75 15.894531 13.496094 15.558594 13.285156 C 15.089844 12.984375 14.574219 12.78125 14.027344 12.683594 C 13.460938 12.578125 12.886719 12.589844 12.320312 12.71875 C 11.757812 12.84375 11.230469 13.078125 10.761719 13.410156 C 10.3125 13.734375 9.929688 14.136719 9.632812 14.609375 C 9.332031 15.078125 9.128906 15.59375 9.03125 16.140625 C 8.929688 16.707031 8.941406 17.28125 9.066406 17.847656 C 9.191406 18.410156 9.425781 18.9375 9.761719 19.402344 C 10.082031 19.855469 10.484375 20.238281 10.957031 20.535156 C 11.425781 20.835938 11.941406 21.035156 12.488281 21.136719 C 12.742188 21.183594 13 21.207031 13.253906 21.207031 C 13.570312 21.207031 13.882812 21.171875 14.195312 21.101562 C 14.761719 20.976562 15.285156 20.742188 15.753906 20.40625 C 16.203125 20.085938 16.585938 19.683594 16.882812 19.210938 C 17.183594 18.742188 17.386719 18.226562 17.484375 17.679688 C 17.585938 17.113281 17.574219 16.539062 17.449219 15.972656 C 17.335938 15.46875 17.140625 15 16.863281 14.570312 L 18.148438 13.578125 C 18.570312 14.195312 18.867188 14.882812 19.03125 15.621094 Z M 16.796875 16.117188 C 16.90625 16.597656 16.914062 17.082031 16.828125 17.558594 C 16.742188 18.019531 16.574219 18.457031 16.320312 18.855469 C 16.066406 19.253906 15.746094 19.59375 15.363281 19.863281 C 14.96875 20.148438 14.527344 20.34375 14.046875 20.449219 C 13.570312 20.558594 13.085938 20.566406 12.609375 20.480469 C 12.148438 20.394531 11.710938 20.226562 11.3125 19.972656 C 10.914062 19.71875 10.574219 19.398438 10.304688 19.015625 C 10.019531 18.621094 9.824219 18.179688 9.71875 17.699219 C 9.609375 17.222656 9.601562 16.738281 9.6875 16.261719 C 9.773438 15.800781 9.941406 15.363281 10.195312 14.964844 C 10.449219 14.566406 10.769531 14.226562 11.152344 13.957031 C 11.546875 13.671875 11.988281 13.476562 12.46875 13.371094 C 12.730469 13.308594 12.996094 13.28125 13.261719 13.28125 C 13.476562 13.28125 13.691406 13.300781 13.90625 13.339844 C 14.367188 13.421875 14.804688 13.59375 15.203125 13.847656 C 15.472656 14.019531 15.714844 14.21875 15.925781 14.449219 L 14.632812 15.449219 C 14.542969 15.363281 14.441406 15.285156 14.335938 15.214844 C 13.882812 14.925781 13.34375 14.832031 12.820312 14.949219 C 12.296875 15.066406 11.851562 15.382812 11.5625 15.832031 C 11.277344 16.285156 11.183594 16.824219 11.296875 17.347656 C 11.414062 17.871094 11.730469 18.316406 12.183594 18.605469 C 12.507812 18.8125 12.878906 18.917969 13.253906 18.917969 C 13.402344 18.917969 13.550781 18.902344 13.695312 18.871094 C 14.21875 18.753906 14.664062 18.4375 14.953125 17.984375 C 15.242188 17.535156 15.335938 16.996094 15.21875 16.472656 C 15.179688 16.296875 15.117188 16.132812 15.039062 15.980469 L 16.332031 14.980469 C 16.550781 15.328125 16.707031 15.710938 16.796875 16.117188 Z M 14.566406 16.617188 C 14.644531 16.96875 14.582031 17.324219 14.390625 17.628906 C 14.199219 17.929688 13.898438 18.140625 13.550781 18.21875 C 13.453125 18.238281 13.355469 18.25 13.257812 18.25 C 12.644531 18.25 12.089844 17.824219 11.949219 17.203125 C 11.789062 16.480469 12.246094 15.761719 12.964844 15.601562 C 13.0625 15.578125 13.164062 15.570312 13.261719 15.570312 C 13.511719 15.570312 13.757812 15.640625 13.976562 15.777344 C 14.019531 15.804688 14.058594 15.832031 14.09375 15.863281 L 13.101562 16.632812 C 12.953125 16.746094 12.929688 16.953125 13.039062 17.101562 C 13.105469 17.183594 13.203125 17.230469 13.304688 17.230469 C 13.375 17.230469 13.449219 17.207031 13.507812 17.160156 L 14.496094 16.398438 C 14.527344 16.46875 14.550781 16.542969 14.566406 16.617188 Z M 22.863281 12.066406 L 20.648438 11.644531 L 23.25 9.636719 L 25.464844 10.058594 Z M 22.863281 12.066406 " fill-opacity="1" fill-rule="nonzero"/></g><path fill="#935f3d" d="M 19.699219 18.671875 C 19.769531 19.472656 20.441406 20.082031 21.230469 20.082031 C 21.277344 20.082031 21.320312 20.078125 21.367188 20.074219 C 22.210938 20 22.839844 19.253906 22.769531 18.40625 C 22.695312 17.5625 21.945312 16.933594 21.101562 17.007812 C 20.253906 17.078125 19.625 17.828125 19.699219 18.671875 Z M 21.15625 17.671875 C 21.183594 17.667969 21.207031 17.667969 21.234375 17.667969 C 21.679688 17.667969 22.0625 18.011719 22.101562 18.464844 C 22.144531 18.945312 21.789062 19.367188 21.308594 19.410156 C 20.828125 19.449219 20.40625 19.09375 20.363281 18.617188 C 20.324219 18.136719 20.679688 17.710938 21.15625 17.671875 Z M 21.15625 17.671875 " fill-opacity="1" fill-rule="nonzero"/><path fill="#935f3d" d="M 7.542969 12.484375 C 7.660156 12.480469 7.753906 12.382812 7.753906 12.265625 L 7.753906 11.152344 C 7.753906 11.039062 7.8125 10.933594 7.90625 10.875 C 8.203125 10.695312 8.453125 10.4375 8.628906 10.132812 C 8.808594 9.820312 8.902344 9.460938 8.902344 9.097656 C 8.902344 8.539062 8.683594 8.015625 8.285156 7.621094 C 7.894531 7.230469 7.371094 7.015625 6.820312 7.015625 C 6.8125 7.015625 6.808594 7.015625 6.804688 7.015625 C 5.667969 7.023438 4.742188 7.953125 4.734375 9.089844 C 4.734375 9.457031 4.832031 9.824219 5.015625 10.140625 C 5.191406 10.449219 5.449219 10.710938 5.757812 10.890625 C 5.851562 10.949219 5.910156 11.054688 5.910156 11.167969 L 5.910156 12.265625 C 5.910156 12.386719 6.011719 12.484375 6.132812 12.484375 C 6.226562 12.792969 6.511719 13.003906 6.835938 13.003906 C 7.164062 13.003906 7.449219 12.792969 7.542969 12.484375 Z M 7.3125 11.476562 L 6.351562 11.476562 L 6.351562 11.386719 L 7.3125 11.386719 Z M 6.742188 10.945312 L 6.742188 9.449219 L 6.917969 9.449219 L 6.917969 10.945312 Z M 6.300781 9.007812 L 6.140625 9.007812 C 6.050781 9.007812 5.976562 8.9375 5.976562 8.847656 C 5.976562 8.757812 6.050781 8.683594 6.140625 8.683594 C 6.226562 8.683594 6.300781 8.757812 6.300781 8.847656 Z M 6.140625 8.246094 C 5.804688 8.246094 5.535156 8.515625 5.535156 8.847656 C 5.535156 9.179688 5.804688 9.449219 6.140625 9.449219 L 6.300781 9.449219 L 6.300781 10.890625 C 6.238281 10.734375 6.128906 10.597656 5.980469 10.511719 C 5.480469 10.214844 5.175781 9.671875 5.175781 9.089844 C 5.179688 8.195312 5.914062 7.464844 6.808594 7.457031 L 6.820312 7.457031 C 7.253906 7.457031 7.667969 7.625 7.976562 7.933594 C 8.289062 8.246094 8.460938 8.660156 8.460938 9.097656 C 8.460938 9.675781 8.167969 10.199219 7.675781 10.5 C 7.527344 10.589844 7.417969 10.726562 7.359375 10.886719 L 7.359375 9.449219 L 7.519531 9.449219 C 7.851562 9.449219 8.125 9.179688 8.125 8.847656 C 8.125 8.515625 7.851562 8.246094 7.519531 8.246094 C 7.1875 8.246094 6.917969 8.515625 6.917969 8.847656 L 6.917969 9.007812 L 6.742188 9.007812 L 6.742188 8.847656 C 6.742188 8.515625 6.472656 8.246094 6.140625 8.246094 Z M 7.359375 9.007812 L 7.359375 8.847656 C 7.359375 8.757812 7.429688 8.683594 7.519531 8.683594 C 7.609375 8.683594 7.683594 8.757812 7.683594 8.847656 C 7.683594 8.9375 7.609375 9.007812 7.519531 9.007812 Z M 6.351562 11.917969 L 7.3125 11.917969 L 7.3125 12.046875 L 6.351562 12.046875 Z M 7.039062 12.484375 C 6.984375 12.535156 6.914062 12.5625 6.835938 12.5625 C 6.761719 12.5625 6.691406 12.535156 6.636719 12.484375 Z M 7.039062 12.484375 " fill-opacity="1" fill-rule="nonzero"/><g clip-path="url(#6a8426043e)"><path fill="#935f3d" d="M 4.375 8.945312 C 4.375 8.816406 4.269531 8.710938 4.140625 8.710938 L 3.625 8.710938 C 3.496094 8.710938 3.390625 8.816406 3.390625 8.945312 C 3.390625 9.074219 3.496094 9.179688 3.625 9.179688 L 4.140625 9.179688 C 4.269531 9.179688 4.375 9.074219 4.375 8.945312 Z M 4.375 8.945312 " fill-opacity="1" fill-rule="nonzero"/></g><path fill="#935f3d" d="M 9.230469 8.945312 C 9.230469 9.074219 9.335938 9.179688 9.464844 9.179688 L 9.980469 9.179688 C 10.113281 9.179688 10.21875 9.074219 10.21875 8.945312 C 10.21875 8.816406 10.113281 8.710938 9.980469 8.710938 L 9.464844 8.710938 C 9.335938 8.710938 9.230469 8.816406 9.230469 8.945312 Z M 9.230469 8.945312 " fill-opacity="1" fill-rule="nonzero"/><g clip-path="url(#e62cd993f2)"><path fill="#935f3d" d="M 4.523438 10.082031 C 4.480469 10.082031 4.4375 10.09375 4.402344 10.117188 L 3.960938 10.382812 C 3.90625 10.417969 3.867188 10.46875 3.851562 10.527344 C 3.835938 10.589844 3.847656 10.652344 3.878906 10.707031 C 3.921875 10.777344 4 10.820312 4.082031 10.820312 C 4.125 10.820312 4.164062 10.808594 4.203125 10.785156 L 4.644531 10.519531 C 4.757812 10.453125 4.792969 10.308594 4.726562 10.195312 C 4.683594 10.125 4.605469 10.082031 4.523438 10.082031 Z M 4.523438 10.082031 " fill-opacity="1" fill-rule="nonzero"/></g><path fill="#935f3d" d="M 9.082031 7.804688 C 9.125 7.804688 9.167969 7.792969 9.203125 7.773438 L 9.648438 7.503906 C 9.757812 7.4375 9.792969 7.292969 9.726562 7.183594 C 9.683594 7.113281 9.609375 7.070312 9.527344 7.070312 C 9.484375 7.070312 9.441406 7.082031 9.40625 7.101562 L 8.960938 7.371094 C 8.90625 7.402344 8.871094 7.453125 8.855469 7.515625 C 8.839844 7.574219 8.847656 7.636719 8.882812 7.691406 C 8.925781 7.761719 9 7.804688 9.082031 7.804688 Z M 9.082031 7.804688 " fill-opacity="1" fill-rule="nonzero"/><g clip-path="url(#a2948a69e5)"><path fill="#935f3d" d="M 8.042969 6.859375 C 8.078125 6.878906 8.121094 6.890625 8.160156 6.890625 C 8.246094 6.890625 8.320312 6.847656 8.363281 6.777344 L 8.628906 6.332031 C 8.695312 6.21875 8.65625 6.074219 8.546875 6.007812 C 8.507812 5.988281 8.46875 5.976562 8.425781 5.976562 C 8.34375 5.976562 8.265625 6.019531 8.222656 6.089844 L 7.960938 6.535156 C 7.894531 6.648438 7.929688 6.792969 8.042969 6.859375 Z M 8.042969 6.859375 " fill-opacity="1" fill-rule="nonzero"/></g><g clip-path="url(#c1c9bef011)"><path fill="#935f3d" d="M 6.785156 6.519531 C 6.917969 6.515625 7.019531 6.410156 7.019531 6.28125 L 7.015625 5.765625 C 7.015625 5.636719 6.910156 5.53125 6.78125 5.53125 C 6.648438 5.53125 6.546875 5.636719 6.546875 5.765625 L 6.550781 6.285156 C 6.550781 6.414062 6.65625 6.519531 6.785156 6.519531 Z M 6.785156 6.519531 " fill-opacity="1" fill-rule="nonzero"/></g><g clip-path="url(#f82fcc991a)"><path fill="#935f3d" d="M 5.238281 6.777344 C 5.28125 6.847656 5.359375 6.894531 5.441406 6.894531 C 5.484375 6.894531 5.523438 6.882812 5.5625 6.859375 C 5.671875 6.792969 5.710938 6.648438 5.644531 6.539062 L 5.378906 6.09375 C 5.335938 6.023438 5.257812 5.976562 5.175781 5.976562 C 5.132812 5.976562 5.09375 5.988281 5.054688 6.011719 C 4.945312 6.078125 4.90625 6.222656 4.972656 6.335938 Z M 5.238281 6.777344 " fill-opacity="1" fill-rule="nonzero"/></g><path fill="#935f3d" d="M 9.222656 10.082031 C 9.1875 10.058594 9.144531 10.046875 9.105469 10.046875 C 9.019531 10.046875 8.941406 10.09375 8.898438 10.164062 C 8.835938 10.277344 8.875 10.421875 8.984375 10.488281 L 9.433594 10.746094 C 9.46875 10.769531 9.507812 10.78125 9.550781 10.78125 C 9.632812 10.78125 9.710938 10.734375 9.753906 10.664062 C 9.820312 10.550781 9.78125 10.40625 9.667969 10.339844 Z M 9.222656 10.082031 " fill-opacity="1" fill-rule="nonzero"/><g clip-path="url(#85accc14b8)"><path fill="#935f3d" d="M 3.9375 7.546875 L 4.386719 7.808594 C 4.421875 7.828125 4.460938 7.839844 4.503906 7.839844 C 4.585938 7.839844 4.664062 7.796875 4.707031 7.722656 C 4.738281 7.667969 4.746094 7.605469 4.730469 7.546875 C 4.714844 7.484375 4.675781 7.433594 4.621094 7.402344 L 4.175781 7.140625 C 4.136719 7.121094 4.097656 7.109375 4.054688 7.109375 C 3.972656 7.109375 3.894531 7.15625 3.851562 7.226562 C 3.820312 7.28125 3.8125 7.34375 3.828125 7.40625 C 3.84375 7.464844 3.882812 7.515625 3.9375 7.546875 Z M 3.9375 7.546875 " fill-opacity="1" fill-rule="nonzero"/></g></svg>