<svg xmlns="http://www.w3.org/2000/svg" xmlns:xlink="http://www.w3.org/1999/xlink" width="40" zoomAndPan="magnify" viewBox="0 0 30 30.000001" height="40" preserveAspectRatio="xMidYMid meet" version="1.0"><defs><clipPath id="a000e4bf26"><path d="M 0.484375 0 L 29.515625 0 L 29.515625 29.03125 L 0.484375 29.03125 Z M 0.484375 0 " clip-rule="nonzero"/></clipPath><clipPath id="78c42054fb"><path d="M 3.386719 3 L 26.613281 3 L 26.613281 26 L 3.386719 26 Z M 3.386719 3 " clip-rule="nonzero"/></clipPath><clipPath id="99aedf1321"><path d="M 3.386719 6 L 6 6 L 6 8 L 3.386719 8 Z M 3.386719 6 " clip-rule="nonzero"/></clipPath></defs><g clip-path="url(#a000e4bf26)"><path fill="#ffffff" d="M 0.484375 0 L 29.515625 0 L 29.515625 29.03125 L 0.484375 29.03125 Z M 0.484375 0 " fill-opacity="1" fill-rule="nonzero"/><path fill="#ffffff" d="M 0.484375 0 L 29.515625 0 L 29.515625 29.03125 L 0.484375 29.03125 Z M 0.484375 0 " fill-opacity="1" fill-rule="nonzero"/></g><path fill="#935f3d" d="M 14.039062 15.800781 C 14.105469 15.5625 13.875 15.84375 13.582031 15.976562 C 13.351562 16.082031 13.09375 16.132812 12.839844 16.117188 C 12.789062 16.113281 12.722656 16.117188 12.710938 16.167969 C 12.703125 16.210938 12.75 16.242188 12.789062 16.261719 C 12.863281 16.296875 12.941406 16.324219 13.023438 16.34375 C 12.339844 16.699219 12.117188 16.65625 11.617188 16.359375 C 11.578125 16.335938 11.511719 16.316406 11.484375 16.359375 C 11.453125 16.414062 11.53125 16.476562 11.765625 16.75 C 11.34375 16.761719 11.082031 16.265625 10.671875 16.15625 C 10.628906 16.171875 10.65625 16.238281 10.6875 16.273438 C 11.125 16.765625 11.316406 17.03125 11.597656 17.101562 C 11.925781 17.179688 12.511719 16.957031 12.8125 16.796875 C 13.050781 16.671875 13.273438 16.519531 13.484375 16.347656 C 13.636719 16.222656 13.980469 15.996094 14.039062 15.800781 Z M 14.039062 15.800781 " fill-opacity="1" fill-rule="nonzero"/><path fill="#935f3d" d="M 12.015625 11.820312 C 12.082031 11.835938 12.148438 11.792969 12.164062 11.722656 C 12.179688 11.65625 12.136719 11.589844 12.070312 11.574219 C 12 11.558594 11.933594 11.601562 11.917969 11.667969 C 11.902344 11.738281 11.945312 11.804688 12.015625 11.820312 Z M 12.015625 11.820312 " fill-opacity="1" fill-rule="nonzero"/><path fill="#935f3d" d="M 11.925781 12.214844 C 11.898438 12.335938 12.078125 12.375 12.105469 12.257812 C 12.117188 12.207031 11.953125 12.097656 11.925781 12.214844 Z M 11.925781 12.214844 " fill-opacity="1" fill-rule="nonzero"/><path fill="#935f3d" d="M 9.328125 18.007812 C 9.214844 18.050781 9.089844 18.0625 8.96875 18.039062 C 8.980469 18.066406 9.011719 18.078125 9.035156 18.089844 C 9.070312 18.109375 9.097656 18.132812 9.117188 18.164062 C 8.917969 18.167969 8.800781 18.074219 8.648438 17.917969 L 9.078125 18.457031 L 9.828125 17.738281 C 9.625 17.84375 9.421875 17.941406 9.199219 17.984375 C 9.238281 18 9.285156 18.007812 9.328125 18.007812 Z M 9.328125 18.007812 " fill-opacity="1" fill-rule="nonzero"/><g clip-path="url(#78c42054fb)"><path fill="#935f3d" d="M 23.011719 3.230469 C 21.289062 2.925781 19.574219 3.671875 18.640625 5.125 C 18.351562 5.574219 18.160156 6.078125 18.089844 6.429688 L 17.371094 9.398438 C 17.339844 9.398438 17.304688 9.398438 17.273438 9.398438 C 17.121094 9.40625 16.992188 9.515625 16.957031 9.664062 L 16.671875 10.925781 C 16.648438 11.023438 16.671875 11.128906 16.738281 11.207031 C 16.75 11.222656 16.765625 11.226562 16.78125 11.238281 L 16.199219 14.414062 C 15.875 16.304688 16.800781 18.140625 18.371094 19.070312 L 18.570312 20.535156 C 18.59375 20.746094 18.746094 20.90625 18.9375 20.925781 L 19.160156 20.945312 C 19.007812 21.371094 18.625 21.695312 18.195312 21.757812 C 17.667969 21.832031 17.125 21.523438 16.917969 21.039062 C 16.796875 20.757812 16.785156 20.429688 16.671875 20.117188 C 16.554688 19.78125 16.269531 19.441406 15.890625 19.441406 C 15.886719 19.441406 15.882812 19.441406 15.878906 19.441406 C 15.507812 19.453125 15.175781 19.804688 14.925781 19.699219 C 14.773438 19.632812 14.714844 19.417969 14.738281 19.242188 C 14.78125 18.890625 15.042969 18.535156 14.894531 18.121094 C 15.089844 17.542969 14.628906 16.792969 13.921875 16.664062 C 14.617188 16.003906 15.175781 14.972656 14.769531 14.003906 C 14.582031 13.566406 13.507812 12.488281 13.175781 12.152344 L 13.171875 12.144531 C 13.167969 12.144531 13.167969 12.144531 13.167969 12.144531 C 13.09375 12.066406 12.996094 12.007812 12.886719 11.972656 C 12.503906 10.859375 12.101562 9.683594 11.8125 8.640625 C 12.175781 7.761719 12.171875 7.050781 11.789062 6.625 C 11.59375 6.40625 11.308594 6.277344 10.949219 6.238281 C 8.425781 6 3.777344 10.152344 3.742188 12.703125 C 3.734375 13.0625 3.832031 13.367188 4.03125 13.585938 C 4.511719 14.125 5.386719 14.019531 6.082031 13.808594 C 7.039062 14.21875 8.117188 14.707031 9.121094 15.1875 C 9.152344 15.488281 9.277344 15.636719 9.476562 15.730469 C 9.617188 15.859375 9.757812 16 9.894531 16.136719 C 9.84375 16.183594 9.796875 16.230469 9.746094 16.277344 C 9.230469 15.621094 8 16.378906 8.601562 17.339844 C 8.335938 17.59375 8.035156 17.792969 8.238281 18.0625 C 8.433594 18.316406 8.632812 18.582031 8.859375 18.820312 C 8.960938 18.925781 9.066406 18.933594 9.183594 18.828125 C 10.675781 17.457031 10.777344 17.347656 10.949219 17.238281 C 11.035156 17.328125 11.132812 17.421875 11.261719 17.472656 C 11.773438 17.667969 12.808594 17.570312 13.679688 16.878906 C 13.691406 16.878906 13.695312 16.886719 13.707031 16.886719 C 13.707031 16.886719 13.710938 16.886719 13.710938 16.886719 C 14.195312 16.863281 14.695312 17.324219 14.695312 17.847656 C 14.425781 17.65625 13.980469 17.847656 14.023438 18.183594 C 14.066406 18.480469 14.472656 18.589844 14.699219 18.40625 C 14.691406 18.644531 14.535156 18.929688 14.5 19.210938 C 14.464844 19.46875 14.554688 19.800781 14.832031 19.917969 C 15.226562 20.085938 15.5625 19.691406 15.886719 19.683594 C 15.886719 19.683594 15.890625 19.683594 15.890625 19.683594 C 16.148438 19.683594 16.359375 19.949219 16.445312 20.199219 C 16.554688 20.5 16.5625 20.816406 16.699219 21.136719 C 16.949219 21.71875 17.613281 22.085938 18.226562 21.996094 C 18.757812 21.917969 19.226562 21.515625 19.402344 20.992188 C 19.40625 20.984375 19.398438 20.976562 19.398438 20.964844 L 19.503906 20.976562 L 19.335938 22.910156 C 17.925781 22.859375 16.332031 23.003906 16.261719 23.574219 C 16.261719 23.582031 16.257812 23.582031 16.257812 23.585938 L 16.183594 24.453125 C 16.164062 24.648438 16.269531 24.832031 16.445312 24.910156 C 18.78125 25.96875 21.132812 26.117188 23.417969 25.519531 C 23.609375 25.472656 23.742188 25.308594 23.757812 25.113281 C 23.773438 24.890625 23.808594 24.546875 23.835938 24.246094 C 23.875 23.667969 22.332031 23.25 20.945312 23.054688 C 20.949219 23.007812 21.125 20.984375 21.117188 21.113281 C 21.132812 21.117188 21.648438 21.160156 21.667969 21.160156 C 21.832031 21.160156 21.988281 21.039062 22.054688 20.851562 C 22.625 19.148438 22.59375 19.382812 22.570312 19.273438 C 23.972656 18.617188 24.878906 17.371094 25.125 15.933594 L 25.636719 12.914062 C 25.640625 12.914062 25.644531 12.917969 25.648438 12.917969 C 25.804688 12.917969 25.945312 12.804688 25.972656 12.644531 L 26.195312 11.425781 C 26.222656 11.273438 26.144531 11.121094 26 11.058594 C 25.976562 11.046875 25.949219 11.035156 25.921875 11.023438 C 26.433594 8.417969 26.558594 8.15625 26.574219 7.5 C 26.578125 7.476562 26.578125 7.445312 26.570312 7.4375 C 26.625 5.464844 25.132812 3.59375 23.011719 3.230469 Z M 8.578125 16.652344 L 8.59375 16.6875 C 8.589844 16.75 8.59375 16.816406 8.625 16.871094 C 8.664062 16.929688 8.746094 16.972656 8.871094 16.957031 C 8.828125 16.953125 8.789062 16.9375 8.757812 16.910156 C 8.847656 16.902344 8.9375 16.878906 9.019531 16.839844 C 8.972656 16.851562 8.921875 16.847656 8.878906 16.824219 C 8.984375 16.816406 9.085938 16.746094 9.191406 16.769531 C 8.679688 17.261719 8.742188 17.222656 8.695312 17.222656 C 8.667969 17.222656 8.664062 17.203125 8.652344 17.179688 C 8.621094 17.117188 8.59375 17.042969 8.578125 16.96875 C 8.558594 16.859375 8.558594 16.75 8.578125 16.652344 Z M 10.316406 15.503906 C 9.117188 14.902344 7.6875 14.242188 6.417969 13.695312 C 8.425781 12.941406 10.710938 10.886719 11.660156 8.972656 C 12.050781 10.316406 12.578125 11.820312 13.011719 13.058594 C 12.835938 13.546875 12.421875 14.101562 11.863281 14.59375 C 11.308594 15.085938 10.761719 15.378906 10.316406 15.503906 Z M 10.109375 7.003906 C 10.105469 7.027344 10.070312 7.042969 10.035156 7.039062 C 9.996094 7.027344 9.96875 7 9.972656 6.972656 C 9.984375 6.910156 10.128906 6.945312 10.109375 7.003906 Z M 9.933594 6.75 C 9.886719 6.734375 9.855469 6.699219 9.863281 6.664062 C 9.886719 6.578125 10.054688 6.617188 10.035156 6.703125 C 10.023438 6.734375 9.980469 6.757812 9.933594 6.75 Z M 9.660156 8.886719 C 9.707031 8.894531 9.734375 8.953125 9.707031 8.996094 C 8.875 10.289062 7.71875 11.296875 6.316406 11.976562 C 6.265625 11.996094 6.210938 11.957031 6.214844 11.902344 C 6.441406 9.957031 7.980469 8.675781 9.660156 8.886719 Z M 9.496094 6.894531 C 9.503906 6.855469 9.558594 6.828125 9.613281 6.84375 C 9.753906 6.878906 9.710938 7.027344 9.582031 6.996094 C 9.523438 6.984375 9.484375 6.9375 9.496094 6.894531 Z M 3.984375 12.746094 C 5.003906 13.050781 6.851562 12.289062 8.523438 10.789062 C 10.195312 9.292969 11.148438 7.539062 10.960938 6.484375 C 12.082031 6.621094 11.976562 7.75 11.492188 8.773438 C 11.324219 9.132812 11.097656 9.5 10.832031 9.871094 C 10.691406 9.953125 10.371094 10.257812 9.578125 10.574219 C 9.472656 10.617188 9.203125 10.769531 9.09375 10.742188 C 9.3125 10.792969 9.546875 10.78125 9.761719 10.707031 C 9.058594 11.371094 8.21875 11.890625 7.308594 12.222656 C 7.355469 12.207031 7.457031 12.234375 7.507812 12.238281 C 7.722656 12.246094 7.960938 12.238281 8.152344 12.140625 C 7.730469 12.546875 7.210938 12.796875 6.6875 13.039062 C 6.183594 13.269531 6.113281 13.242188 5.339844 13.230469 C 5.535156 13.359375 5.785156 13.414062 6.015625 13.371094 C 5.785156 13.457031 5.542969 13.609375 4.875 13.609375 C 4.386719 13.613281 3.984375 13.503906 3.984375 12.746094 Z M 9.03125 18.652344 C 8.800781 18.410156 8.601562 18.140625 8.410156 17.890625 C 8.410156 17.890625 8.410156 17.855469 8.496094 17.773438 C 9.015625 17.265625 9.53125 16.785156 10.066406 16.308594 C 10.269531 16.515625 10.460938 16.71875 10.78125 17.0625 C 10.664062 17.140625 10.433594 17.355469 9.03125 18.652344 Z M 11.660156 17.3125 C 11.101562 17.253906 11.347656 17.214844 9.90625 15.8125 C 10.480469 15.800781 11.277344 15.429688 12.023438 14.777344 C 12.59375 14.269531 13.320312 13.417969 13.332031 12.65625 C 13.570312 12.902344 14.40625 13.761719 14.546875 14.097656 C 15.164062 15.5625 13.261719 17.480469 11.660156 17.3125 Z M 14.335938 18.234375 C 14.179688 18.164062 14.28125 18.011719 14.449219 18.011719 C 14.53125 18.011719 14.589844 18.050781 14.632812 18.125 C 14.554688 18.253906 14.441406 18.285156 14.335938 18.234375 Z M 17.84375 8.472656 L 18.085938 7.472656 C 20.871094 7.414062 23.558594 7.832031 26.148438 8.707031 L 25.945312 9.699219 C 23.523438 8.773438 20.78125 8.417969 17.84375 8.472656 Z M 18.84375 5.257812 C 18.859375 5.234375 18.875 5.214844 18.890625 5.191406 C 21.394531 5.171875 23.824219 5.539062 26.164062 6.285156 C 26.171875 6.3125 26.183594 6.335938 26.191406 6.359375 C 26.289062 6.699219 26.332031 7.039062 26.332031 7.394531 C 23.953125 6.5 21.269531 6.152344 18.402344 6.199219 C 18.503906 5.871094 18.652344 5.554688 18.84375 5.257812 Z M 18.824219 20.578125 C 18.785156 20.335938 18.6875 19.734375 18.644531 19.488281 C 18.644531 19.472656 18.632812 19.4375 18.640625 19.425781 C 18.65625 19.398438 18.667969 19.441406 18.679688 19.457031 C 18.769531 19.605469 18.941406 19.761719 19.066406 19.871094 C 19.085938 19.886719 19.121094 19.9375 19.144531 19.941406 C 19.066406 19.921875 18.984375 19.902344 18.925781 19.847656 C 19.085938 20.082031 19.296875 20.285156 19.535156 20.445312 C 19.421875 20.417969 19.3125 20.386719 19.203125 20.339844 C 19.773438 20.753906 20.324219 20.777344 20.207031 20.808594 C 20.183594 20.816406 20.320312 20.820312 19.152344 20.71875 C 19.046875 20.710938 18.847656 20.71875 18.824219 20.578125 Z M 20.632812 23.894531 C 20.230469 23.984375 19.808594 23.933594 19.5 23.796875 L 19.746094 20.996094 L 20.875 21.09375 C 20.871094 21.140625 20.613281 24.082031 20.632812 23.894531 Z M 17.207031 23.316406 C 17.457031 23.226562 18.023438 23.144531 18.285156 23.109375 C 18.429688 23.089844 18.578125 23.078125 18.710938 23.128906 C 18.46875 23.140625 18.222656 23.25 18.058594 23.429688 C 18.0625 23.382812 18.070312 23.335938 18.078125 23.289062 C 17.914062 23.375 17.90625 23.574219 17.9375 23.753906 C 17.839844 23.722656 17.75 23.660156 17.6875 23.578125 C 17.660156 23.671875 17.707031 23.773438 17.769531 23.847656 C 17.976562 24.09375 18.316406 24.164062 18.628906 24.238281 C 18.949219 24.320312 19.257812 24.417969 19.5625 24.542969 C 18.898438 24.445312 17.355469 24.289062 16.996094 23.871094 C 16.835938 23.6875 16.863281 23.445312 17.207031 23.316406 Z M 22.742188 23.996094 C 22.742188 24.019531 22.597656 24.007812 22.597656 23.980469 C 22.601562 23.957031 22.746094 23.96875 22.742188 23.996094 Z M 22.464844 23.679688 C 22.464844 23.714844 22.273438 23.695312 22.277344 23.660156 C 22.277344 23.628906 22.46875 23.644531 22.464844 23.679688 Z M 22.160156 23.882812 C 22.285156 23.894531 22.28125 23.972656 22.152344 23.964844 C 22.027344 23.953125 22.03125 23.871094 22.160156 23.882812 Z M 23.554688 24.589844 C 23.546875 24.71875 23.535156 24.875 23.519531 25.09375 C 23.511719 25.1875 23.445312 25.265625 23.359375 25.289062 C 21.042969 25.890625 18.75 25.691406 16.546875 24.691406 C 16.464844 24.652344 16.414062 24.566406 16.421875 24.472656 L 16.464844 23.960938 C 17.53125 24.855469 22.308594 25.292969 23.554688 24.589844 Z M 21.988281 19.550781 C 21.992188 19.496094 22.078125 19.503906 22.070312 19.558594 C 22.070312 19.582031 21.984375 19.605469 21.988281 19.550781 Z M 22.066406 19.808594 C 22.070312 19.757812 22.148438 19.765625 22.144531 19.816406 C 22.140625 19.835938 22.0625 19.859375 22.066406 19.808594 Z M 22.191406 19.546875 C 22.199219 19.464844 22.324219 19.476562 22.316406 19.558594 C 22.316406 19.59375 22.183594 19.632812 22.191406 19.546875 Z M 24.890625 15.894531 C 24.390625 18.792969 21.203125 20.328125 18.648438 18.957031 C 17.066406 18.105469 16.117188 16.308594 16.433594 14.457031 L 17.007812 11.332031 C 19.917969 11.257812 22.792969 11.785156 25.40625 12.847656 Z M 25.957031 11.382812 C 25.71875 12.585938 25.769531 12.621094 25.691406 12.664062 C 25.65625 12.683594 25.625 12.675781 25.589844 12.660156 C 25.339844 12.585938 22.046875 11.082031 17.558594 11.082031 C 16.9375 11.082031 16.96875 11.109375 16.925781 11.054688 C 16.867188 10.984375 16.929688 10.976562 17.195312 9.714844 C 17.203125 9.671875 17.242188 9.640625 17.285156 9.640625 C 20.269531 9.5 23.167969 10.050781 25.902344 11.277344 C 25.941406 11.296875 25.964844 11.339844 25.957031 11.382812 Z M 25.957031 11.382812 " fill-opacity="1" fill-rule="nonzero"/></g><path fill="#935f3d" d="M 17.808594 17.203125 C 18.015625 17.339844 18.246094 17.4375 18.488281 17.492188 C 17.941406 17.085938 17.515625 16.519531 17.277344 15.882812 C 17.449219 16.132812 17.703125 16.320312 17.992188 16.417969 C 17.257812 15.511719 17.292969 14.800781 17.113281 14.484375 C 17.226562 14.609375 17.359375 14.714844 17.507812 14.796875 C 17.246094 14.125 17.089844 13.386719 17.082031 12.664062 C 16.710938 14.84375 16.683594 14.960938 16.667969 15.242188 C 16.554688 16.890625 17.6875 18.496094 19.535156 19.050781 C 18.75 18.699219 18.136719 18 17.808594 17.203125 Z M 17.808594 17.203125 " fill-opacity="1" fill-rule="nonzero"/><path fill="#935f3d" d="M 24.484375 13.011719 C 24.40625 13.003906 24.335938 13.085938 24.328125 13.191406 C 24.316406 13.296875 24.371094 13.390625 24.445312 13.398438 C 24.523438 13.40625 24.59375 13.324219 24.605469 13.21875 C 24.617188 13.113281 24.5625 13.019531 24.484375 13.011719 Z M 24.484375 13.011719 " fill-opacity="1" fill-rule="nonzero"/><path fill="#935f3d" d="M 24.738281 13.671875 C 24.722656 13.847656 24.835938 13.863281 24.855469 13.683594 C 24.871094 13.503906 24.757812 13.492188 24.738281 13.671875 Z M 24.738281 13.671875 " fill-opacity="1" fill-rule="nonzero"/><path fill="#935f3d" d="M 24.300781 13.625 C 24.207031 13.617188 24.113281 13.734375 24.097656 13.890625 C 24.082031 14.042969 24.148438 14.175781 24.246094 14.1875 C 24.34375 14.195312 24.433594 14.078125 24.449219 13.925781 C 24.464844 13.769531 24.398438 13.636719 24.300781 13.625 Z M 24.300781 13.625 " fill-opacity="1" fill-rule="nonzero"/><path fill="#935f3d" d="M 21.023438 12.585938 C 20.097656 12.496094 19.515625 13.578125 20.105469 14.296875 C 20.304688 14.539062 20.597656 14.679688 20.921875 14.679688 C 21.164062 14.679688 21.394531 14.597656 21.585938 14.445312 C 22.304688 13.855469 21.953125 12.679688 21.023438 12.585938 Z M 21.433594 14.257812 C 20.882812 14.710938 20.042969 14.273438 20.113281 13.550781 C 20.160156 13.101562 20.5625 12.78125 21 12.824219 C 21.714844 12.898438 21.988281 13.804688 21.433594 14.257812 Z M 21.433594 14.257812 " fill-opacity="1" fill-rule="nonzero"/><path fill="#935f3d" d="M 20.664062 14.085938 C 20.550781 14.035156 20.527344 13.839844 20.503906 13.71875 C 20.457031 13.472656 20.515625 13.207031 20.710938 13.042969 C 20.179688 13.15625 20.1875 14.058594 20.664062 14.085938 Z M 20.664062 14.085938 " fill-opacity="1" fill-rule="nonzero"/><path fill="#935f3d" d="M 19.300781 16.433594 C 19.246094 17.011719 19.667969 17.527344 20.242188 17.582031 C 20.277344 17.585938 20.3125 17.589844 20.347656 17.589844 C 21.226562 17.589844 21.722656 16.558594 21.160156 15.875 C 20.570312 15.152344 19.394531 15.507812 19.300781 16.433594 Z M 20.265625 17.34375 C 19.824219 17.300781 19.496094 16.902344 19.542969 16.457031 C 19.613281 15.742188 20.515625 15.46875 20.972656 16.027344 C 21.109375 16.191406 20.988281 17.414062 20.265625 17.34375 Z M 20.265625 17.34375 " fill-opacity="1" fill-rule="nonzero"/><path fill="#935f3d" d="M 20.113281 17.082031 C 19.996094 17.027344 19.972656 16.820312 19.949219 16.691406 C 19.898438 16.433594 19.960938 16.15625 20.164062 15.984375 C 19.605469 16.101562 19.613281 17.050781 20.113281 17.082031 Z M 20.113281 17.082031 " fill-opacity="1" fill-rule="nonzero"/><path fill="#935f3d" d="M 4.25 3.285156 C 4.566406 4.003906 4.953125 4.609375 5.328125 5.234375 C 5.722656 5.84375 6.113281 6.472656 6.683594 7.015625 C 6.472656 5.601562 5.523438 3.988281 4.25 3.285156 Z M 4.25 3.285156 " fill-opacity="1" fill-rule="nonzero"/><g clip-path="url(#99aedf1321)"><path fill="#935f3d" d="M 5.199219 7.480469 C 5.4375 7.550781 5.699219 7.582031 5.996094 7.453125 C 5.636719 6.839844 5.089844 6.78125 4.78125 6.652344 C 4.328125 6.480469 3.859375 6.347656 3.375 6.242188 C 3.738281 6.589844 4.152344 6.855469 4.5625 7.105469 C 4.820312 7.261719 4.902344 7.390625 5.199219 7.480469 Z M 5.199219 7.480469 " fill-opacity="1" fill-rule="nonzero"/></g><path fill="#935f3d" d="M 7.101562 4.246094 C 7.023438 4.964844 7.167969 5.507812 7.15625 5.890625 C 7.195312 6.285156 7.386719 6.597656 7.734375 6.757812 C 8.003906 6.144531 7.71875 5.746094 7.632812 5.453125 C 7.492188 5.039062 7.316406 4.640625 7.101562 4.246094 Z M 7.101562 4.246094 " fill-opacity="1" fill-rule="nonzero"/></svg>