<svg xmlns="http://www.w3.org/2000/svg" xmlns:xlink="http://www.w3.org/1999/xlink" width="40" zoomAndPan="magnify" viewBox="0 0 30 30.000001" height="40" preserveAspectRatio="xMidYMid meet" version="1.0"><defs><clipPath id="2f14e591ac"><path d="M 0.484375 0 L 29.515625 0 L 29.515625 29.03125 L 0.484375 29.03125 Z M 0.484375 0 " clip-rule="nonzero"/></clipPath><clipPath id="a10fb6b143"><path d="M 3.386719 11 L 20 11 L 20 26.128906 L 3.386719 26.128906 Z M 3.386719 11 " clip-rule="nonzero"/></clipPath><clipPath id="76d3111c01"><path d="M 11 2.902344 L 26.613281 2.902344 L 26.613281 24 L 11 24 Z M 11 2.902344 " clip-rule="nonzero"/></clipPath></defs><g clip-path="url(#2f14e591ac)"><path fill="#ffffff" d="M 0.484375 0 L 29.515625 0 L 29.515625 29.03125 L 0.484375 29.03125 Z M 0.484375 0 " fill-opacity="1" fill-rule="nonzero"/><path fill="#ffffff" d="M 0.484375 0 L 29.515625 0 L 29.515625 29.03125 L 0.484375 29.03125 Z M 0.484375 0 " fill-opacity="1" fill-rule="nonzero"/></g><g clip-path="url(#a10fb6b143)"><path fill="#935f3d" d="M 16.660156 12.855469 L 15.511719 12.855469 L 14.910156 11.65625 C 14.773438 11.375 14.484375 11.199219 14.171875 11.199219 L 9.195312 11.199219 C 8.878906 11.199219 8.59375 11.375 8.449219 11.65625 L 7.851562 12.855469 L 6.703125 12.855469 C 4.875 12.855469 3.386719 14.34375 3.386719 16.175781 L 3.386719 22.8125 C 3.386719 24.640625 4.875 26.128906 6.703125 26.128906 L 16.660156 26.128906 C 18.488281 26.128906 19.976562 24.640625 19.976562 22.8125 L 19.976562 16.175781 C 19.976562 14.34375 18.488281 12.855469 16.660156 12.855469 Z M 18.316406 22.8125 C 18.316406 23.726562 17.574219 24.46875 16.660156 24.46875 L 6.703125 24.46875 C 5.789062 24.46875 5.046875 23.726562 5.046875 22.8125 L 5.046875 16.175781 C 5.046875 15.261719 5.789062 14.515625 6.703125 14.515625 L 16.660156 14.515625 C 17.574219 14.515625 18.316406 15.261719 18.316406 16.175781 Z M 18.316406 22.8125 " fill-opacity="1" fill-rule="nonzero"/></g><path fill="#935f3d" d="M 11.683594 15.34375 C 9.394531 15.34375 7.535156 17.207031 7.535156 19.492188 C 7.535156 21.78125 9.394531 23.640625 11.683594 23.640625 C 13.96875 23.640625 15.828125 21.78125 15.828125 19.492188 C 15.828125 17.207031 13.96875 15.34375 11.683594 15.34375 Z M 11.683594 21.980469 C 10.308594 21.980469 9.195312 20.863281 9.195312 19.492188 C 9.195312 18.121094 10.308594 17.003906 11.683594 17.003906 C 13.054688 17.003906 14.171875 18.121094 14.171875 19.492188 C 14.171875 20.863281 13.054688 21.980469 11.683594 21.980469 Z M 11.683594 21.980469 " fill-opacity="1" fill-rule="nonzero"/><path fill="#935f3d" d="M 16.660156 15.34375 L 15.828125 15.34375 C 15.371094 15.34375 15 15.71875 15 16.175781 C 15 16.632812 15.371094 17.003906 15.828125 17.003906 L 16.660156 17.003906 C 17.117188 17.003906 17.488281 16.632812 17.488281 16.175781 C 17.488281 15.71875 17.117188 15.34375 16.660156 15.34375 Z M 16.660156 15.34375 " fill-opacity="1" fill-rule="nonzero"/><g clip-path="url(#76d3111c01)"><path fill="#935f3d" d="M 25.785156 2.902344 L 12.511719 2.902344 C 12.054688 2.902344 11.683594 3.273438 11.683594 3.734375 L 11.683594 9.539062 C 11.683594 9.996094 12.054688 10.367188 12.511719 10.367188 C 12.96875 10.367188 13.339844 9.996094 13.339844 9.539062 L 13.339844 4.5625 L 24.953125 4.5625 L 24.953125 21.980469 L 21.636719 21.980469 C 21.175781 21.980469 20.804688 22.351562 20.804688 22.8125 C 20.804688 23.269531 21.175781 23.640625 21.636719 23.640625 L 25.785156 23.640625 C 26.242188 23.640625 26.613281 23.269531 26.613281 22.8125 L 26.613281 3.734375 C 26.613281 3.273438 26.242188 2.902344 25.785156 2.902344 Z M 25.785156 2.902344 " fill-opacity="1" fill-rule="nonzero"/></g><path fill="#935f3d" d="M 21.636719 7.878906 C 21.636719 6.507812 20.519531 5.390625 19.148438 5.390625 C 17.777344 5.390625 16.660156 6.507812 16.660156 7.878906 C 16.660156 9.253906 17.777344 10.367188 19.148438 10.367188 C 20.519531 10.367188 21.636719 9.253906 21.636719 7.878906 Z M 19.148438 8.710938 C 18.691406 8.710938 18.316406 8.335938 18.316406 7.878906 C 18.316406 7.421875 18.691406 7.050781 19.148438 7.050781 C 19.605469 7.050781 19.976562 7.421875 19.976562 7.878906 C 19.976562 8.335938 19.605469 8.710938 19.148438 8.710938 Z M 19.148438 8.710938 " fill-opacity="1" fill-rule="nonzero"/><path fill="#935f3d" d="M 22.464844 13.757812 L 22.464844 16.175781 L 21.636719 16.175781 C 21.175781 16.175781 20.804688 16.546875 20.804688 17.003906 C 20.804688 17.460938 21.175781 17.835938 21.636719 17.835938 L 23.296875 17.835938 C 23.753906 17.835938 24.125 17.460938 24.125 17.003906 L 24.125 13.757812 C 24.125 11.890625 22.605469 10.367188 20.734375 10.367188 L 16.660156 10.367188 C 16.199219 10.367188 15.828125 10.742188 15.828125 11.199219 C 15.828125 11.65625 16.199219 12.027344 16.660156 12.027344 L 20.734375 12.027344 C 21.6875 12.027344 22.464844 12.804688 22.464844 13.757812 Z M 22.464844 13.757812 " fill-opacity="1" fill-rule="nonzero"/></svg>