<svg xmlns="http://www.w3.org/2000/svg" xmlns:xlink="http://www.w3.org/1999/xlink" width="40" zoomAndPan="magnify" viewBox="0 0 30 30.000001" height="40" preserveAspectRatio="xMidYMid meet" version="1.0"><defs><clipPath id="a9116b25cf"><path d="M 0.484375 0 L 29.515625 0 L 29.515625 29.03125 L 0.484375 29.03125 Z M 0.484375 0 " clip-rule="nonzero"/></clipPath><clipPath id="4a1edffa7c"><path d="M 3.386719 7 L 14 7 L 14 26.128906 L 3.386719 26.128906 Z M 3.386719 7 " clip-rule="nonzero"/></clipPath><clipPath id="3e2e92a16f"><path d="M 16 7 L 26.613281 7 L 26.613281 26.128906 L 16 26.128906 Z M 16 7 " clip-rule="nonzero"/></clipPath><clipPath id="6f6955bc84"><path d="M 8 2.902344 L 22 2.902344 L 22 18 L 8 18 Z M 8 2.902344 " clip-rule="nonzero"/></clipPath></defs><g clip-path="url(#a9116b25cf)"><path fill="#ffffff" d="M 0.484375 0 L 29.515625 0 L 29.515625 29.03125 L 0.484375 29.03125 Z M 0.484375 0 " fill-opacity="1" fill-rule="nonzero"/><path fill="#ffffff" d="M 0.484375 0 L 29.515625 0 L 29.515625 29.03125 L 0.484375 29.03125 Z M 0.484375 0 " fill-opacity="1" fill-rule="nonzero"/></g><g clip-path="url(#4a1edffa7c)"><path fill="#935f3d" d="M 7.257812 24.292969 L 7.257812 26.128906 L 8.03125 26.128906 L 8.03125 24.195312 C 8.03125 24.128906 8.015625 24.0625 7.984375 24.007812 L 4.503906 17.738281 C 4.277344 17.335938 4.160156 16.882812 4.160156 16.421875 L 4.160156 9.097656 C 4.160156 8.671875 4.507812 8.324219 4.933594 8.324219 C 5.363281 8.324219 5.710938 8.671875 5.710938 9.097656 L 5.710938 14.652344 C 5.230469 15.214844 5.230469 16.046875 5.734375 16.601562 L 8.90625 20.089844 L 9.480469 19.566406 L 6.308594 16.078125 C 6.054688 15.800781 6.066406 15.375 6.332031 15.109375 C 6.46875 14.972656 6.65625 14.902344 6.847656 14.902344 C 7.042969 14.910156 7.222656 14.992188 7.351562 15.136719 L 10.066406 18.152344 C 10.09375 18.183594 10.148438 18.222656 10.183594 18.242188 C 11.722656 19.121094 12.675781 20.765625 12.675781 22.539062 L 12.675781 26.128906 L 13.453125 26.128906 L 13.453125 22.257812 L 13.441406 22.257812 C 13.347656 20.339844 12.289062 18.578125 10.601562 17.589844 L 7.929688 14.617188 C 7.652344 14.3125 7.277344 14.140625 6.867188 14.128906 C 6.734375 14.125 6.609375 14.144531 6.484375 14.175781 L 6.484375 9.097656 C 6.484375 8.242188 5.789062 7.546875 4.933594 7.546875 C 4.082031 7.546875 3.386719 8.242188 3.386719 9.097656 L 3.386719 16.421875 C 3.386719 17.015625 3.539062 17.597656 3.824219 18.113281 L 7.257812 24.292969 " fill-opacity="1" fill-rule="nonzero"/></g><g clip-path="url(#3e2e92a16f)"><path fill="#935f3d" d="M 25.066406 7.546875 C 24.210938 7.546875 23.515625 8.242188 23.515625 9.097656 L 23.515625 14.175781 C 23.390625 14.144531 23.261719 14.125 23.132812 14.128906 C 22.722656 14.140625 22.347656 14.3125 22.070312 14.617188 L 19.398438 17.589844 C 17.722656 18.5625 16.652344 20.332031 16.558594 22.257812 L 16.546875 22.257812 L 16.546875 26.128906 L 17.324219 26.128906 L 17.324219 22.539062 C 17.324219 20.765625 18.277344 19.121094 19.835938 18.230469 C 19.871094 18.210938 19.902344 18.183594 19.933594 18.152344 L 22.648438 15.136719 C 22.777344 14.992188 22.957031 14.910156 23.152344 14.902344 C 23.351562 14.902344 23.53125 14.972656 23.667969 15.109375 C 23.933594 15.375 23.945312 15.800781 23.691406 16.078125 L 20.519531 19.566406 L 21.09375 20.089844 L 24.265625 16.601562 C 24.769531 16.046875 24.769531 15.214844 24.289062 14.652344 L 24.289062 9.097656 C 24.289062 8.671875 24.636719 8.324219 25.066406 8.324219 C 25.492188 8.324219 25.839844 8.671875 25.839844 9.097656 L 25.839844 16.382812 C 25.839844 16.867188 25.707031 17.339844 25.460938 17.765625 L 22.015625 24.007812 C 21.984375 24.0625 21.96875 24.128906 21.96875 24.195312 L 21.96875 26.128906 L 22.742188 26.128906 L 22.742188 24.292969 L 26.132812 18.148438 C 26.445312 17.613281 26.613281 17.003906 26.613281 16.382812 L 26.613281 9.097656 C 26.613281 8.242188 25.917969 7.546875 25.066406 7.546875 " fill-opacity="1" fill-rule="nonzero"/></g><g clip-path="url(#6f6955bc84)"><path fill="#935f3d" d="M 20.804688 13.417969 L 15.386719 16.554688 L 15.386719 10.484375 L 20.804688 7.4375 Z M 15 9.8125 L 12.519531 8.417969 L 17.925781 5.378906 L 20.402344 6.773438 Z M 14.613281 16.554688 L 9.195312 13.417969 L 9.195312 7.4375 L 14.613281 10.484375 Z M 15 3.734375 L 17.136719 4.933594 L 11.730469 7.976562 L 9.597656 6.773438 Z M 21.582031 13.640625 L 21.582031 6.773438 C 21.582031 6.738281 21.574219 6.707031 21.566406 6.671875 C 21.5625 6.664062 21.558594 6.652344 21.554688 6.640625 C 21.546875 6.621094 21.539062 6.597656 21.527344 6.582031 C 21.523438 6.570312 21.511719 6.5625 21.503906 6.550781 C 21.492188 6.535156 21.480469 6.515625 21.46875 6.5 C 21.457031 6.492188 21.449219 6.488281 21.4375 6.476562 C 21.421875 6.464844 21.40625 6.449219 21.386719 6.441406 C 21.386719 6.441406 21.386719 6.441406 21.386719 6.4375 C 21.382812 6.4375 21.382812 6.4375 21.382812 6.4375 L 15.1875 2.953125 C 15.070312 2.886719 14.929688 2.886719 14.8125 2.953125 L 8.617188 6.4375 C 8.617188 6.4375 8.617188 6.4375 8.613281 6.4375 C 8.613281 6.441406 8.613281 6.441406 8.613281 6.441406 C 8.59375 6.449219 8.578125 6.464844 8.5625 6.476562 C 8.550781 6.488281 8.542969 6.492188 8.53125 6.5 C 8.519531 6.515625 8.507812 6.535156 8.496094 6.550781 C 8.488281 6.5625 8.476562 6.570312 8.472656 6.582031 C 8.460938 6.597656 8.453125 6.621094 8.445312 6.640625 C 8.441406 6.652344 8.4375 6.664062 8.433594 6.671875 C 8.425781 6.707031 8.417969 6.738281 8.417969 6.773438 L 8.417969 13.640625 C 8.417969 13.78125 8.492188 13.910156 8.613281 13.976562 L 14.804688 17.558594 C 14.804688 17.558594 14.804688 17.5625 14.804688 17.5625 C 14.828125 17.574219 14.855469 17.582031 14.878906 17.589844 C 14.886719 17.59375 14.894531 17.597656 14.898438 17.601562 C 14.933594 17.609375 14.964844 17.613281 15 17.613281 C 15.035156 17.613281 15.066406 17.609375 15.101562 17.601562 C 15.105469 17.597656 15.113281 17.59375 15.121094 17.589844 C 15.144531 17.582031 15.171875 17.574219 15.195312 17.5625 C 15.195312 17.5625 15.195312 17.558594 15.195312 17.558594 L 21.386719 13.976562 C 21.507812 13.910156 21.582031 13.78125 21.582031 13.640625 " fill-opacity="1" fill-rule="nonzero"/></g><path fill="#935f3d" d="M 20.03125 12.582031 L 19.257812 12.582031 L 19.257812 13.355469 L 20.03125 13.355469 L 20.03125 12.582031 " fill-opacity="1" fill-rule="nonzero"/><path fill="#935f3d" d="M 18.484375 13.355469 L 17.710938 13.355469 L 17.710938 14.128906 L 18.484375 14.128906 L 18.484375 13.355469 " fill-opacity="1" fill-rule="nonzero"/><path fill="#935f3d" d="M 16.933594 14.128906 L 16.160156 14.128906 L 16.160156 14.902344 L 16.933594 14.902344 L 16.933594 14.128906 " fill-opacity="1" fill-rule="nonzero"/></svg>