<svg xmlns="http://www.w3.org/2000/svg" xmlns:xlink="http://www.w3.org/1999/xlink" width="40" zoomAndPan="magnify" viewBox="0 0 30 30.000001" height="40" preserveAspectRatio="xMidYMid meet" version="1.0"><defs><clipPath id="26e06a757b"><path d="M 0.484375 0 L 29.515625 0 L 29.515625 29.03125 L 0.484375 29.03125 Z M 0.484375 0 " clip-rule="nonzero"/></clipPath><clipPath id="d553baf8b0"><path d="M 5.855469 2.902344 L 24 2.902344 L 24 26.128906 L 5.855469 26.128906 Z M 5.855469 2.902344 " clip-rule="nonzero"/></clipPath></defs><g clip-path="url(#26e06a757b)"><path fill="#ffffff" d="M 0.484375 0 L 29.515625 0 L 29.515625 29.03125 L 0.484375 29.03125 Z M 0.484375 0 " fill-opacity="1" fill-rule="nonzero"/><path fill="#ffffff" d="M 0.484375 0 L 29.515625 0 L 29.515625 29.03125 L 0.484375 29.03125 Z M 0.484375 0 " fill-opacity="1" fill-rule="nonzero"/></g><g clip-path="url(#d553baf8b0)"><path fill="#935f3d" d="M 8.382812 9.226562 L 8.382812 8.21875 C 8.382812 8.050781 8.5 7.90625 8.667969 7.867188 L 10.117188 7.539062 C 10.164062 7.417969 10.210938 7.300781 10.265625 7.183594 L 9.472656 5.925781 C 9.382812 5.78125 9.402344 5.597656 9.523438 5.476562 L 10.941406 4.054688 C 11.0625 3.933594 11.25 3.914062 11.390625 4.003906 L 12.652344 4.800781 C 12.769531 4.746094 12.886719 4.695312 13.007812 4.652344 L 13.335938 3.199219 C 13.371094 3.035156 13.519531 2.917969 13.6875 2.917969 L 15.695312 2.917969 C 15.867188 2.917969 16.011719 3.035156 16.050781 3.199219 L 16.378906 4.652344 C 16.5 4.695312 16.617188 4.746094 16.734375 4.800781 L 17.992188 4.003906 C 18.136719 3.914062 18.324219 3.9375 18.441406 4.054688 L 19.863281 5.476562 C 19.980469 5.597656 20.003906 5.78125 19.914062 5.925781 L 19.117188 7.183594 C 19.171875 7.300781 19.222656 7.417969 19.265625 7.539062 L 20.71875 7.867188 C 20.882812 7.90625 21 8.050781 21 8.21875 L 21 9.226562 C 21 9.425781 20.835938 9.589844 20.636719 9.589844 C 20.4375 9.589844 20.277344 9.425781 20.277344 9.226562 L 20.277344 8.511719 L 18.910156 8.203125 C 18.785156 8.171875 18.683594 8.082031 18.644531 7.957031 C 18.574219 7.738281 18.488281 7.527344 18.382812 7.328125 C 18.324219 7.214844 18.332031 7.078125 18.398438 6.96875 L 19.144531 5.785156 L 18.132812 4.773438 L 16.949219 5.519531 C 16.839844 5.589844 16.703125 5.59375 16.589844 5.535156 C 16.386719 5.429688 16.171875 5.34375 15.960938 5.273438 C 15.835938 5.234375 15.746094 5.132812 15.714844 5.007812 L 15.40625 3.640625 L 13.976562 3.640625 L 13.667969 5.007812 C 13.640625 5.132812 13.546875 5.234375 13.425781 5.273438 C 13.214844 5.339844 13.003906 5.429688 12.792969 5.535156 C 12.679688 5.59375 12.542969 5.585938 12.433594 5.519531 L 11.25 4.773438 L 10.238281 5.785156 L 10.984375 6.96875 C 11.054688 7.078125 11.058594 7.214844 11 7.328125 C 10.898438 7.527344 10.808594 7.738281 10.738281 7.960938 C 10.699219 8.082031 10.597656 8.171875 10.472656 8.203125 L 9.109375 8.511719 L 9.109375 9.226562 C 9.109375 9.425781 8.945312 9.589844 8.746094 9.589844 C 8.546875 9.589844 8.382812 9.425781 8.382812 9.226562 Z M 11.289062 9.226562 C 11.289062 9.425781 11.453125 9.589844 11.652344 9.589844 C 11.851562 9.589844 12.015625 9.425781 12.015625 9.226562 C 12.015625 7.75 13.214844 6.546875 14.691406 6.546875 C 16.167969 6.546875 17.371094 7.75 17.371094 9.226562 C 17.371094 9.425781 17.53125 9.589844 17.734375 9.589844 C 17.933594 9.589844 18.09375 9.425781 18.09375 9.226562 C 18.09375 7.347656 16.566406 5.824219 14.691406 5.824219 C 12.816406 5.824219 11.289062 7.347656 11.289062 9.226562 Z M 6.136719 13.714844 C 6.066406 13.617188 6.054688 13.492188 6.097656 13.378906 L 7.382812 10.097656 C 7.4375 9.960938 7.570312 9.867188 7.71875 9.867188 L 21.664062 9.867188 C 21.8125 9.867188 21.945312 9.960938 22 10.097656 L 23.285156 13.378906 C 23.332031 13.492188 23.316406 13.617188 23.25 13.714844 C 23.179688 13.816406 23.070312 13.875 22.949219 13.875 L 21.9375 13.875 L 21.9375 15.53125 C 21.9375 15.730469 21.773438 15.894531 21.574219 15.894531 C 21.375 15.894531 21.210938 15.730469 21.210938 15.53125 L 21.210938 13.875 L 15.976562 13.875 C 15.828125 13.875 15.695312 13.78125 15.640625 13.644531 L 15.054688 12.144531 L 15.054688 17.640625 C 15.054688 17.839844 14.890625 18.003906 14.691406 18.003906 C 14.492188 18.003906 14.328125 17.839844 14.328125 17.640625 L 14.328125 12.148438 L 13.742188 13.644531 C 13.6875 13.78125 13.554688 13.875 13.40625 13.875 L 8.46875 13.875 L 8.46875 18.230469 C 8.46875 18.429688 8.304688 18.59375 8.105469 18.59375 C 7.90625 18.59375 7.742188 18.429688 7.742188 18.230469 L 7.742188 13.875 L 6.433594 13.875 C 6.316406 13.875 6.203125 13.816406 6.136719 13.714844 Z M 15.222656 10.59375 L 16.226562 13.148438 L 22.417969 13.148438 L 21.417969 10.59375 Z M 6.964844 13.148438 L 13.160156 13.148438 L 14.160156 10.59375 L 7.96875 10.59375 Z M 24.03125 17.347656 L 23.152344 16.46875 C 22.910156 16.226562 22.570312 16.097656 22.167969 16.097656 C 22.167969 16.097656 22.164062 16.097656 22.164062 16.097656 C 21.609375 16.097656 21.007812 16.339844 20.636719 16.714844 L 17.769531 19.578125 C 17.617188 18.851562 16.972656 18.304688 16.199219 18.304688 L 10.214844 18.304688 C 8.804688 18.304688 8.304688 19.105469 7.777344 19.953125 C 7.722656 20.035156 7.671875 20.121094 7.613281 20.210938 L 5.960938 22.804688 C 5.855469 22.972656 5.902344 23.195312 6.070312 23.304688 C 6.242188 23.410156 6.464844 23.359375 6.570312 23.191406 L 8.226562 20.597656 C 8.28125 20.507812 8.335938 20.421875 8.390625 20.335938 C 8.898438 19.519531 9.207031 19.027344 10.214844 19.027344 L 16.199219 19.027344 C 16.683594 19.027344 17.082031 19.425781 17.082031 19.910156 C 17.082031 20.078125 17.03125 20.238281 16.941406 20.378906 C 16.925781 20.40625 16.90625 20.433594 16.886719 20.460938 C 16.882812 20.464844 16.878906 20.46875 16.871094 20.476562 C 16.707031 20.675781 16.460938 20.789062 16.199219 20.789062 L 13.425781 20.789062 C 13.226562 20.789062 13.0625 20.953125 13.0625 21.152344 C 13.0625 21.351562 13.226562 21.515625 13.425781 21.515625 L 16.199219 21.515625 C 16.660156 21.515625 17.089844 21.320312 17.390625 20.984375 C 17.390625 20.984375 17.390625 20.980469 17.390625 20.980469 L 21.148438 17.226562 C 21.386719 16.988281 21.804688 16.824219 22.164062 16.824219 C 22.3125 16.824219 22.511719 16.851562 22.640625 16.980469 L 23.261719 17.601562 L 17.824219 23.039062 C 17.441406 23.421875 17.015625 23.625 16.484375 23.683594 L 10.042969 23.785156 C 9.921875 23.789062 9.808594 23.851562 9.742188 23.953125 L 8.71875 25.558594 C 8.609375 25.726562 8.660156 25.949219 8.828125 26.058594 C 8.886719 26.097656 8.957031 26.113281 9.023438 26.113281 C 9.140625 26.113281 9.257812 26.054688 9.328125 25.949219 L 10.25 24.507812 L 16.511719 24.40625 C 16.519531 24.40625 16.53125 24.40625 16.542969 24.40625 C 17.246094 24.332031 17.835938 24.054688 18.335938 23.554688 L 24.03125 17.859375 C 24.097656 17.789062 24.136719 17.699219 24.136719 17.601562 C 24.136719 17.507812 24.097656 17.414062 24.03125 17.347656 Z M 24.03125 17.347656 " fill-opacity="1" fill-rule="nonzero"/></g></svg>