<svg xmlns="http://www.w3.org/2000/svg" xmlns:xlink="http://www.w3.org/1999/xlink" width="40" zoomAndPan="magnify" viewBox="0 0 30 30.000001" height="40" preserveAspectRatio="xMidYMid meet" version="1.0"><defs><clipPath id="7ad3eabdcf"><path d="M 0.484375 0 L 29.515625 0 L 29.515625 29.03125 L 0.484375 29.03125 Z M 0.484375 0 " clip-rule="nonzero"/></clipPath><clipPath id="fe378dfe15"><path d="M 3.359375 2.902344 L 26.582031 2.902344 L 26.582031 26.128906 L 3.359375 26.128906 Z M 3.359375 2.902344 " clip-rule="nonzero"/></clipPath></defs><g clip-path="url(#7ad3eabdcf)"><path fill="#ffffff" d="M 0.484375 0 L 29.515625 0 L 29.515625 29.03125 L 0.484375 29.03125 Z M 0.484375 0 " fill-opacity="1" fill-rule="nonzero"/><path fill="#ffffff" d="M 0.484375 0 L 29.515625 0 L 29.515625 29.03125 L 0.484375 29.03125 Z M 0.484375 0 " fill-opacity="1" fill-rule="nonzero"/></g><g clip-path="url(#fe378dfe15)"><path fill="#935f3d" d="M 18.03125 23.285156 C 15.042969 24.308594 11.703125 23.722656 9.242188 21.757812 C 9.304688 21.621094 9.339844 21.464844 9.339844 21.300781 C 9.339844 20.691406 8.847656 20.199219 8.238281 20.199219 C 8.074219 20.199219 7.917969 20.234375 7.777344 20.296875 C 6.148438 18.253906 5.460938 15.601562 5.875 13.027344 L 6.371094 13.714844 C 6.433594 13.804688 6.535156 13.851562 6.636719 13.851562 C 6.703125 13.851562 6.773438 13.832031 6.828125 13.789062 C 6.976562 13.683594 7.011719 13.476562 6.902344 13.328125 L 5.96875 12.03125 C 5.917969 11.960938 5.839844 11.914062 5.753906 11.898438 C 5.667969 11.886719 5.578125 11.90625 5.507812 11.957031 L 4.210938 12.894531 C 4.0625 13 4.03125 13.207031 4.136719 13.355469 C 4.242188 13.5 4.449219 13.535156 4.597656 13.429688 L 5.214844 12.980469 C 4.789062 15.730469 5.535156 18.558594 7.289062 20.738281 C 7.1875 20.902344 7.132812 21.09375 7.132812 21.300781 C 7.132812 21.910156 7.628906 22.40625 8.238281 22.40625 C 8.441406 22.40625 8.636719 22.351562 8.800781 22.25 C 10.585938 23.683594 12.800781 24.441406 15.042969 24.441406 C 16.121094 24.441406 17.203125 24.265625 18.246094 23.90625 C 18.417969 23.847656 18.507812 23.660156 18.449219 23.488281 C 18.390625 23.316406 18.203125 23.226562 18.03125 23.285156 Z M 7.789062 21.300781 C 7.789062 21.054688 7.992188 20.855469 8.238281 20.855469 C 8.484375 20.855469 8.683594 21.054688 8.683594 21.300781 C 8.683594 21.546875 8.484375 21.75 8.238281 21.75 C 7.988281 21.75 7.789062 21.546875 7.789062 21.300781 Z M 12.015625 5.746094 C 15.003906 4.722656 18.34375 5.308594 20.804688 7.273438 C 20.738281 7.410156 20.703125 7.566406 20.703125 7.730469 C 20.703125 8.339844 21.199219 8.835938 21.808594 8.835938 C 21.972656 8.835938 22.125 8.800781 22.265625 8.734375 C 23.90625 10.789062 24.59375 13.40625 24.171875 16.003906 L 23.675781 15.316406 C 23.570312 15.171875 23.363281 15.136719 23.214844 15.242188 C 23.066406 15.351562 23.035156 15.554688 23.140625 15.703125 L 24.078125 17 C 24.128906 17.070312 24.207031 17.117188 24.292969 17.132812 C 24.308594 17.136719 24.328125 17.136719 24.34375 17.136719 C 24.414062 17.136719 24.480469 17.113281 24.539062 17.074219 L 25.835938 16.136719 C 25.980469 16.03125 26.015625 15.824219 25.910156 15.679688 C 25.800781 15.53125 25.597656 15.496094 25.449219 15.605469 L 24.828125 16.050781 C 25.039062 14.710938 24.96875 13.324219 24.628906 12.011719 C 24.277344 10.664062 23.632812 9.382812 22.757812 8.296875 C 22.855469 8.128906 22.914062 7.9375 22.914062 7.730469 C 22.914062 7.121094 22.417969 6.625 21.808594 6.625 C 21.601562 6.625 21.410156 6.683594 21.242188 6.78125 C 18.605469 4.660156 15.011719 4.023438 11.800781 5.125 C 11.628906 5.183594 11.535156 5.371094 11.59375 5.542969 C 11.65625 5.714844 11.84375 5.804688 12.015625 5.746094 Z M 22.253906 7.730469 C 22.253906 7.976562 22.054688 8.175781 21.808594 8.175781 C 21.5625 8.175781 21.363281 7.976562 21.363281 7.730469 C 21.363281 7.484375 21.5625 7.285156 21.808594 7.285156 C 22.054688 7.285156 22.253906 7.484375 22.253906 7.730469 Z M 6.769531 3.820312 L 6.769531 3.230469 C 6.769531 3.050781 6.917969 2.902344 7.097656 2.902344 C 7.28125 2.902344 7.425781 3.050781 7.425781 3.230469 L 7.425781 3.820312 C 7.425781 4.003906 7.28125 4.152344 7.097656 4.152344 C 6.917969 4.152344 6.769531 4.003906 6.769531 3.820312 Z M 4.875 3.917969 C 4.78125 3.757812 4.835938 3.558594 4.996094 3.46875 C 5.152344 3.375 5.351562 3.429688 5.445312 3.585938 L 5.738281 4.097656 C 5.828125 4.253906 5.777344 4.457031 5.617188 4.546875 C 5.566406 4.578125 5.507812 4.59375 5.453125 4.59375 C 5.339844 4.59375 5.230469 4.53125 5.167969 4.425781 Z M 4.085938 5.75 L 3.574219 5.457031 C 3.417969 5.367188 3.363281 5.164062 3.453125 5.007812 C 3.542969 4.851562 3.746094 4.796875 3.902344 4.886719 L 4.414062 5.179688 C 4.570312 5.273438 4.625 5.472656 4.535156 5.632812 C 4.472656 5.738281 4.363281 5.796875 4.25 5.796875 C 4.195312 5.796875 4.136719 5.78125 4.085938 5.75 Z M 8.457031 4.097656 L 8.753906 3.585938 C 8.84375 3.429688 9.042969 3.375 9.203125 3.46875 C 9.359375 3.558594 9.414062 3.757812 9.324219 3.917969 L 9.027344 4.425781 C 8.964844 4.53125 8.855469 4.59375 8.742188 4.59375 C 8.6875 4.59375 8.628906 4.578125 8.578125 4.546875 C 8.421875 4.457031 8.367188 4.253906 8.457031 4.097656 Z M 9.660156 5.632812 C 9.570312 5.472656 9.625 5.273438 9.78125 5.179688 L 10.292969 4.886719 C 10.449219 4.796875 10.652344 4.851562 10.742188 5.007812 C 10.832031 5.164062 10.777344 5.367188 10.621094 5.457031 L 10.109375 5.75 C 10.058594 5.78125 10.003906 5.796875 9.945312 5.796875 C 9.832031 5.796875 9.722656 5.738281 9.660156 5.632812 Z M 9.261719 6.734375 C 9.261719 5.542969 8.289062 4.570312 7.097656 4.570312 C 5.90625 4.570312 4.933594 5.542969 4.933594 6.734375 C 4.933594 7.339844 5.132812 7.644531 5.320312 7.941406 C 5.492188 8.203125 5.667969 8.476562 5.746094 9.066406 C 5.570312 9.179688 5.453125 9.375 5.453125 9.601562 L 5.453125 10.253906 C 5.453125 10.597656 5.726562 10.878906 6.066406 10.886719 C 6.082031 11.214844 6.351562 11.476562 6.683594 11.476562 L 7.515625 11.476562 C 7.84375 11.476562 8.117188 11.214844 8.128906 10.886719 C 8.46875 10.878906 8.742188 10.597656 8.742188 10.253906 L 8.742188 9.601562 C 8.742188 9.375 8.625 9.179688 8.449219 9.066406 C 8.527344 8.476562 8.703125 8.203125 8.875 7.941406 C 9.066406 7.644531 9.261719 7.339844 9.261719 6.734375 Z M 8.085938 10.230469 L 7.800781 10.230469 C 7.617188 10.230469 7.472656 10.378906 7.472656 10.558594 L 7.472656 10.820312 L 6.726562 10.820312 L 6.726562 10.558594 C 6.726562 10.378906 6.578125 10.230469 6.394531 10.230469 L 6.109375 10.230469 L 6.109375 9.628906 L 8.085938 9.628906 Z M 8.320312 7.582031 C 8.128906 7.878906 7.898438 8.238281 7.796875 8.96875 L 7.425781 8.96875 L 7.425781 7.265625 L 8.050781 6.90625 C 8.207031 6.816406 8.261719 6.613281 8.167969 6.457031 C 8.078125 6.300781 7.878906 6.246094 7.71875 6.335938 L 7.097656 6.695312 L 6.476562 6.335938 C 6.320312 6.246094 6.117188 6.300781 6.027344 6.457031 C 5.9375 6.613281 5.988281 6.816406 6.148438 6.90625 L 6.769531 7.265625 L 6.769531 8.96875 L 6.398438 8.96875 C 6.296875 8.238281 6.066406 7.878906 5.875 7.582031 C 5.703125 7.320312 5.59375 7.144531 5.59375 6.734375 C 5.59375 5.90625 6.269531 5.230469 7.097656 5.230469 C 7.929688 5.230469 8.601562 5.90625 8.601562 6.734375 C 8.601562 7.144531 8.492188 7.320312 8.320312 7.582031 Z M 26.054688 21.015625 C 25.839844 21.015625 25.660156 20.894531 25.578125 20.695312 C 25.496094 20.496094 25.539062 20.285156 25.691406 20.132812 C 25.917969 19.90625 25.917969 19.539062 25.691406 19.3125 L 25.148438 18.769531 C 24.921875 18.546875 24.554688 18.546875 24.328125 18.769531 C 24.175781 18.925781 23.964844 18.964844 23.765625 18.882812 C 23.566406 18.800781 23.445312 18.621094 23.445312 18.40625 C 23.445312 18.085938 23.1875 17.824219 22.867188 17.824219 L 22.101562 17.824219 C 21.78125 17.824219 21.523438 18.085938 21.523438 18.40625 C 21.523438 18.621094 21.402344 18.800781 21.203125 18.882812 C 21.003906 18.964844 20.792969 18.925781 20.640625 18.769531 C 20.414062 18.546875 20.042969 18.546875 19.820312 18.769531 L 19.277344 19.3125 C 19.167969 19.421875 19.109375 19.566406 19.109375 19.722656 C 19.109375 19.878906 19.167969 20.023438 19.277344 20.132812 C 19.429688 20.285156 19.472656 20.496094 19.390625 20.695312 C 19.304688 20.894531 19.128906 21.015625 18.914062 21.015625 C 18.59375 21.015625 18.332031 21.273438 18.332031 21.59375 L 18.332031 22.359375 C 18.332031 22.679688 18.59375 22.941406 18.914062 22.941406 C 19.128906 22.941406 19.304688 23.058594 19.390625 23.257812 C 19.472656 23.460938 19.429688 23.667969 19.277344 23.820312 C 19.167969 23.933594 19.109375 24.078125 19.109375 24.230469 C 19.109375 24.386719 19.167969 24.53125 19.277344 24.644531 L 19.820312 25.183594 C 19.929688 25.292969 20.074219 25.351562 20.230469 25.351562 C 20.382812 25.351562 20.53125 25.292969 20.640625 25.183594 C 20.792969 25.03125 21.003906 24.988281 21.203125 25.070312 C 21.402344 25.152344 21.523438 25.332031 21.523438 25.546875 C 21.523438 25.867188 21.78125 26.128906 22.101562 26.128906 L 22.867188 26.128906 C 23.1875 26.128906 23.445312 25.867188 23.445312 25.546875 C 23.445312 25.332031 23.566406 25.15625 23.765625 25.070312 C 23.964844 24.988281 24.175781 25.03125 24.328125 25.183594 C 24.554688 25.410156 24.921875 25.410156 25.148438 25.183594 L 25.691406 24.644531 C 25.917969 24.417969 25.917969 24.046875 25.691406 23.820312 C 25.539062 23.667969 25.496094 23.460938 25.578125 23.257812 C 25.660156 23.058594 25.839844 22.941406 26.054688 22.941406 C 26.375 22.941406 26.636719 22.679688 26.636719 22.359375 L 26.636719 21.59375 C 26.636719 21.273438 26.375 21.015625 26.054688 21.015625 Z M 25.976562 22.285156 C 25.527344 22.3125 25.144531 22.582031 24.96875 23.007812 C 24.796875 23.429688 24.871094 23.890625 25.171875 24.230469 L 24.738281 24.664062 C 24.398438 24.367188 23.9375 24.289062 23.515625 24.464844 C 23.089844 24.640625 22.820312 25.019531 22.789062 25.472656 L 22.175781 25.472656 C 22.148438 25.019531 21.878906 24.636719 21.453125 24.464844 C 21.03125 24.289062 20.570312 24.367188 20.230469 24.664062 L 19.796875 24.230469 C 20.09375 23.890625 20.171875 23.429688 19.996094 23.007812 C 19.820312 22.582031 19.441406 22.3125 18.992188 22.285156 L 18.992188 21.671875 C 19.441406 21.640625 19.820312 21.371094 19.996094 20.949219 C 20.171875 20.523438 20.09375 20.0625 19.796875 19.722656 L 20.230469 19.289062 C 20.570312 19.589844 21.03125 19.667969 21.453125 19.492188 C 21.878906 19.316406 22.148438 18.933594 22.175781 18.484375 L 22.789062 18.484375 C 22.820312 18.933594 23.089844 19.316406 23.515625 19.492188 C 23.9375 19.667969 24.398438 19.589844 24.738281 19.289062 L 25.171875 19.722656 C 24.871094 20.0625 24.796875 20.523438 24.96875 20.949219 C 25.144531 21.371094 25.527344 21.640625 25.976562 21.671875 Z M 22.484375 19.8125 C 21.289062 19.8125 20.316406 20.78125 20.316406 21.976562 C 20.316406 23.171875 21.289062 24.144531 22.484375 24.144531 C 23.679688 24.144531 24.648438 23.171875 24.648438 21.976562 C 24.648438 20.78125 23.679688 19.8125 22.484375 19.8125 Z M 22.484375 23.484375 C 21.652344 23.484375 20.976562 22.808594 20.976562 21.976562 C 20.976562 21.144531 21.652344 20.46875 22.484375 20.46875 C 23.316406 20.46875 23.992188 21.144531 23.992188 21.976562 C 23.992188 22.808594 23.316406 23.484375 22.484375 23.484375 Z M 15.1875 8.46875 C 15.085938 8.410156 14.960938 8.410156 14.859375 8.46875 L 9.867188 11.347656 C 9.765625 11.40625 9.703125 11.515625 9.703125 11.632812 L 9.703125 17.398438 C 9.703125 17.515625 9.765625 17.625 9.867188 17.683594 L 14.859375 20.566406 C 14.910156 20.59375 14.964844 20.609375 15.023438 20.609375 C 15.078125 20.609375 15.136719 20.59375 15.1875 20.566406 L 20.179688 17.683594 C 20.28125 17.625 20.34375 17.515625 20.34375 17.398438 L 20.34375 11.632812 C 20.34375 11.515625 20.28125 11.40625 20.179688 11.347656 Z M 15.023438 9.132812 L 19.355469 11.632812 L 18.214844 12.292969 L 13.878906 9.792969 Z M 15.023438 14.136719 L 10.6875 11.632812 L 11.832031 10.972656 L 16.167969 13.476562 Z M 16.824219 13.097656 L 12.492188 10.59375 L 13.222656 10.171875 L 17.554688 12.675781 Z M 17.152344 13.664062 L 17.882812 13.246094 L 17.882812 14.886719 L 17.152344 15.308594 Z M 10.359375 12.203125 L 14.695312 14.707031 L 14.695312 19.710938 L 10.359375 17.207031 Z M 15.351562 19.710938 L 15.351562 14.707031 L 16.496094 14.046875 L 16.496094 15.878906 C 16.496094 15.996094 16.558594 16.105469 16.660156 16.164062 C 16.710938 16.191406 16.765625 16.207031 16.824219 16.207031 C 16.882812 16.207031 16.9375 16.191406 16.988281 16.164062 L 18.378906 15.359375 C 18.480469 15.300781 18.542969 15.195312 18.542969 15.074219 L 18.542969 12.863281 L 19.683594 12.203125 L 19.683594 17.207031 Z M 15.351562 19.710938 " fill-opacity="1" fill-rule="nonzero"/></g></svg>