<svg xmlns="http://www.w3.org/2000/svg" xmlns:xlink="http://www.w3.org/1999/xlink" width="40" zoomAndPan="magnify" viewBox="0 0 30 30.000001" height="40" preserveAspectRatio="xMidYMid meet" version="1.0"><defs><clipPath id="f4aa63e4d6"><path d="M 0.484375 0 L 29.515625 0 L 29.515625 29.03125 L 0.484375 29.03125 Z M 0.484375 0 " clip-rule="nonzero"/></clipPath><clipPath id="939de4df78"><path d="M 5 2.902344 L 25.160156 2.902344 L 25.160156 26 L 5 26 Z M 5 2.902344 " clip-rule="nonzero"/></clipPath></defs><g clip-path="url(#f4aa63e4d6)"><path fill="#ffffff" d="M 0.484375 0 L 29.515625 0 L 29.515625 29.03125 L 0.484375 29.03125 Z M 0.484375 0 " fill-opacity="1" fill-rule="nonzero"/><path fill="#ffffff" d="M 0.484375 0 L 29.515625 0 L 29.515625 29.03125 L 0.484375 29.03125 Z M 0.484375 0 " fill-opacity="1" fill-rule="nonzero"/></g><g clip-path="url(#939de4df78)"><path fill="#935f3d" d="M 7.8125 14.5625 C 8.265625 14.769531 8.78125 14.640625 9.261719 14.675781 C 9.953125 14.683594 10.75 14.664062 11.441406 14.667969 C 12.917969 14.636719 12.652344 13.160156 12.617188 12.121094 C 12.484375 11.328125 12.808594 9.59375 11.515625 9.824219 C 12.296875 10.253906 11.878906 10.976562 11.898438 11.671875 C 11.875 12.292969 11.875 12.914062 11.855469 13.53125 C 11.808594 14.046875 11.113281 13.832031 10.761719 13.875 C 9.96875 13.878906 9.042969 13.933594 8.265625 13.917969 C 7.84375 13.851562 7.910156 13.363281 7.90625 13.046875 C 7.910156 12.707031 7.898438 11.933594 7.898438 11.601562 C 7.949219 11.132812 7.636719 10.277344 8.304688 10.171875 C 9.335938 10.160156 10.421875 10.078125 11.414062 9.863281 C 11.394531 9.847656 11.359375 9.859375 11.34375 9.839844 C 11.355469 9.808594 11.40625 9.800781 11.347656 9.785156 C 11.402344 9.773438 11.460938 9.777344 11.515625 9.75 C 10.679688 9.566406 9.785156 9.664062 8.925781 9.566406 C 7.671875 9.433594 7.113281 9.980469 7.230469 11.238281 C 7.328125 12.210938 6.753906 14.101562 7.8125 14.5625 Z M 22.886719 20.746094 L 22.917969 20.75 C 21.867188 18.976562 20.738281 17.195312 19.90625 15.3125 C 19.488281 16.269531 18.886719 17.179688 18.210938 17.980469 C 18.617188 18.289062 18.792969 18.8125 19.113281 19.199219 C 19.425781 19.738281 19.980469 20.296875 20.011719 20.941406 C 20.953125 20.765625 21.9375 20.695312 22.886719 20.746094 Z M 19.445312 21.050781 C 18.863281 21.175781 18.285156 21.320312 17.707031 21.472656 C 17.105469 21.691406 16.535156 21.742188 16.144531 21.136719 C 15.691406 20.390625 16.320312 19.898438 16.828125 19.429688 C 17.1875 19.082031 17.550781 18.71875 17.878906 18.34375 C 18.140625 18.984375 18.476562 19.636719 18.855469 20.222656 C 19.039062 20.507812 19.167969 20.859375 19.445312 21.050781 Z M 19.09375 22.570312 C 19 22.40625 18.957031 22.214844 18.828125 22.0625 C 18.804688 22.042969 18.839844 22.011719 18.820312 21.988281 C 18.8125 21.96875 18.789062 21.902344 18.769531 21.886719 C 18.492188 21.96875 18.15625 22.0625 17.878906 22.148438 C 18.109375 22.527344 18.398438 22.847656 18.648438 23.210938 C 19.054688 23.808594 19.382812 24.578125 19.824219 25.132812 C 19.824219 25.132812 20.242188 24.878906 20.242188 24.878906 C 20.351562 24.84375 19.929688 24.214844 19.894531 24.097656 C 19.617188 23.597656 19.316406 23.089844 19.09375 22.570312 Z M 16.117188 19.015625 C 15.609375 19.449219 15.199219 19.953125 15.234375 20.660156 C 12.332031 20.566406 9.414062 20.582031 6.507812 20.507812 C 5.917969 20.382812 5.941406 19.835938 5.964844 19.351562 C 5.976562 15.785156 5.992188 12.1875 6.027344 8.617188 C 8.179688 9.085938 10.417969 8.804688 12.605469 8.816406 C 14.582031 8.714844 16.589844 8.90625 18.542969 8.503906 C 18.65625 11.035156 18.578125 13.574219 18.773438 16.097656 C 17.964844 17.132812 17.066406 18.101562 16.117188 19.015625 Z M 15.246094 20.808594 C 15.242188 20.785156 15.238281 20.761719 15.238281 20.734375 C 15.191406 20.738281 15.144531 20.738281 15.097656 20.742188 C 15.261719 20.753906 15.160156 20.761719 15.078125 20.792969 C 15.117188 20.808594 15.1875 20.808594 15.246094 20.808594 Z M 6.027344 4.429688 C 6.042969 5.671875 6.039062 7.023438 6.027344 8.269531 C 10.15625 7.886719 14.410156 8.066406 18.542969 8.246094 C 18.523438 7.054688 18.511719 5.859375 18.515625 4.664062 C 18.5625 4.257812 18.410156 3.738281 17.925781 3.730469 C 14.191406 3.726562 10.371094 3.75 6.636719 3.738281 C 6.277344 3.742188 5.988281 4.074219 6.027344 4.429688 Z M 19.292969 4.941406 C 19.683594 5.058594 20.121094 5.15625 20.519531 5.28125 C 21.425781 5.390625 21.5 5.898438 21.25 6.671875 C 20.898438 8.113281 20.671875 9.605469 20.378906 11.0625 C 20.246094 11.664062 20.152344 12.269531 20.125 12.882812 C 20.070312 13.289062 19.976562 13.714844 20.09375 14.105469 C 19.800781 14.273438 19.699219 14.667969 19.773438 14.984375 C 19.464844 15.269531 19.226562 15.613281 18.933594 15.90625 C 19.34375 12.28125 19.246094 8.59375 19.292969 4.941406 Z M 25.128906 20.484375 C 25.105469 21.539062 23.617188 21.917969 23.082031 21.019531 C 21.738281 21.261719 20.371094 21.453125 19.050781 21.8125 C 19.585938 22.289062 19.9375 22.914062 20.304688 23.511719 C 20.539062 23.921875 20.878906 24.308594 20.984375 24.769531 C 21.078125 25.460938 20.003906 26.128906 19.414062 25.792969 C 18.964844 25.5 18.769531 24.890625 18.46875 24.46875 C 18.097656 23.757812 17.625 23.074219 17.496094 22.269531 C 16.464844 22.625 15.386719 21.898438 15.246094 20.832031 C 12.339844 20.984375 9.414062 21.136719 6.5 21.113281 C 5.953125 21.058594 5.484375 20.628906 5.375 20.09375 C 5.253906 15.546875 5.351562 10.8125 5.277344 6.257812 C 5.363281 5.117188 4.839844 3.425781 6.3125 3.023438 C 10.210938 2.902344 14.167969 2.933594 18.074219 2.949219 C 18.925781 3.078125 19.386719 3.820312 19.292969 4.652344 C 22.746094 4.460938 22.097656 6.027344 21.613281 8.617188 C 21.261719 10.144531 21.144531 12.996094 20.09375 14.105469 C 20.175781 14.09375 20.265625 14.070312 20.34375 14.070312 C 20.1875 14.292969 20.136719 14.546875 20.214844 14.816406 C 20.867188 15.832031 21.5625 16.8125 22.140625 17.878906 C 22.632812 18.734375 23.238281 19.753906 23.730469 20.605469 C 23.976562 21 24.554688 20.636719 24.324219 20.242188 C 23.503906 18.722656 22.644531 17.210938 21.808594 15.703125 C 21.566406 15.257812 21.355469 14.78125 21.101562 14.34375 C 20.886719 14.089844 20.648438 14.09375 20.34375 14.144531 L 20.363281 14.136719 C 20.285156 14.160156 20.40625 14.121094 20.398438 14.125 C 20.425781 14.078125 20.476562 14.058594 20.519531 14.035156 C 20.464844 14.039062 20.503906 14.015625 20.511719 13.984375 C 20.488281 13.96875 20.457031 13.988281 20.433594 13.984375 C 21.300781 13.449219 21.863281 14.820312 22.285156 15.375 C 22.640625 15.96875 23.023438 16.601562 23.378906 17.195312 C 23.792969 17.859375 24.265625 18.691406 24.664062 19.367188 C 24.855469 19.722656 25.160156 20.058594 25.128906 20.484375 Z M 7.597656 5.140625 C 7.59375 5.136719 7.589844 5.132812 7.585938 5.128906 C 7.609375 5.101562 7.644531 5.105469 7.675781 5.09375 C 7.644531 5.082031 7.675781 5.058594 7.679688 5.035156 C 7.667969 5.019531 7.652344 5.027344 7.640625 5.011719 C 9.019531 4.507812 10.570312 4.746094 12.019531 4.632812 C 13.105469 4.660156 16.269531 4.28125 16.941406 5.054688 C 16.917969 5.066406 16.894531 5.070312 16.878906 5.097656 C 16.859375 5.113281 16.824219 5.097656 16.808594 5.128906 C 16.75 5.175781 16.664062 5.148438 16.605469 5.203125 C 13.753906 5.511719 10.808594 5.414062 7.957031 5.210938 C 7.832031 5.195312 7.703125 5.226562 7.597656 5.140625 Z M 7.617188 7.023438 C 7.5625 6.945312 7.578125 6.984375 7.621094 6.9375 C 7.609375 6.925781 7.621094 6.902344 7.625 6.886719 C 7.863281 6.425781 9.007812 6.5625 9.488281 6.480469 C 10.074219 6.472656 11.371094 6.183594 11.597656 6.902344 C 11.585938 6.914062 11.578125 6.921875 11.574219 6.949219 C 11.5625 6.960938 11.550781 6.949219 11.542969 6.976562 C 11.519531 7.019531 11.480469 6.996094 11.453125 7.054688 C 11.367188 7.082031 11.261719 7.101562 11.164062 7.113281 C 10.796875 7.289062 10.339844 7.183594 9.929688 7.226562 C 9.328125 7.238281 8.683594 7.214844 8.101562 7.125 C 8.007812 7.121094 7.914062 7.082031 7.824219 7.074219 C 7.804688 7.074219 7.769531 7.109375 7.757812 7.074219 C 7.742188 7.023438 7.65625 7.089844 7.617188 7.023438 Z M 14.445312 10.644531 C 14.460938 10.691406 14.496094 10.660156 14.527344 10.675781 C 14.550781 10.714844 14.53125 10.714844 14.574219 10.691406 C 14.632812 10.703125 14.691406 10.738281 14.75 10.746094 C 14.769531 10.773438 14.765625 10.777344 14.796875 10.769531 C 15.136719 10.789062 15.476562 10.878906 15.820312 10.84375 C 16.082031 10.820312 16.382812 10.882812 16.613281 10.769531 C 16.617188 10.757812 16.628906 10.753906 16.636719 10.757812 C 16.648438 10.761719 16.65625 10.734375 16.664062 10.730469 C 16.730469 10.730469 16.777344 10.683594 16.835938 10.683594 C 16.855469 10.664062 16.871094 10.617188 16.890625 10.621094 L 16.941406 10.523438 C 16.84375 9.882812 16.078125 10.050781 15.617188 10.097656 C 15.214844 10.179688 14.679688 10.058594 14.441406 10.484375 C 14.460938 10.5 14.4375 10.539062 14.449219 10.558594 C 14.417969 10.578125 14.425781 10.613281 14.445312 10.644531 Z M 14.445312 12.695312 C 14.460938 12.742188 14.496094 12.710938 14.527344 12.730469 C 14.550781 12.765625 14.53125 12.765625 14.574219 12.746094 C 14.632812 12.753906 14.691406 12.792969 14.75 12.800781 C 15.316406 12.921875 15.980469 12.933594 16.570312 12.851562 C 16.582031 12.835938 16.597656 12.8125 16.613281 12.824219 C 16.667969 12.78125 16.769531 12.75 16.835938 12.738281 C 16.855469 12.71875 16.871094 12.671875 16.890625 12.671875 C 16.902344 12.671875 16.902344 12.625 16.917969 12.625 C 16.929688 12.613281 16.929688 12.582031 16.941406 12.574219 C 16.84375 11.933594 16.082031 12.097656 15.617188 12.152344 C 15.214844 12.230469 14.683594 12.113281 14.441406 12.535156 C 14.460938 12.554688 14.4375 12.589844 14.449219 12.613281 C 14.417969 12.628906 14.425781 12.664062 14.445312 12.695312 Z M 14.445312 14.75 C 14.460938 14.796875 14.496094 14.765625 14.527344 14.785156 C 14.550781 14.816406 14.53125 14.816406 14.574219 14.800781 C 14.632812 14.804688 14.691406 14.847656 14.75 14.851562 C 15.308594 14.980469 15.980469 14.984375 16.570312 14.90625 C 16.582031 14.890625 16.597656 14.867188 16.613281 14.875 C 16.617188 14.863281 16.628906 14.859375 16.636719 14.863281 C 16.648438 14.863281 16.65625 14.839844 16.664062 14.835938 C 16.730469 14.835938 16.777344 14.792969 16.835938 14.789062 C 16.855469 14.773438 16.871094 14.726562 16.890625 14.726562 C 16.914062 14.703125 16.902344 14.679688 16.917969 14.679688 C 16.929688 14.667969 16.929688 14.632812 16.941406 14.628906 C 16.84375 13.988281 16.078125 14.152344 15.617188 14.203125 C 15.214844 14.285156 14.679688 14.164062 14.441406 14.585938 C 14.460938 14.609375 14.4375 14.644531 14.449219 14.667969 C 14.417969 14.683594 14.425781 14.71875 14.445312 14.75 Z M 16.308594 16.859375 C 16.40625 16.828125 16.511719 16.867188 16.605469 16.832031 C 16.664062 16.777344 16.75 16.800781 16.808594 16.753906 C 16.824219 16.722656 16.859375 16.738281 16.878906 16.722656 C 16.894531 16.695312 16.917969 16.695312 16.941406 16.683594 C 16.269531 15.90625 13.105469 16.285156 12.019531 16.257812 C 10.570312 16.375 9.019531 16.136719 7.640625 16.640625 C 7.652344 16.65625 7.667969 16.644531 7.679688 16.664062 C 7.675781 16.683594 7.644531 16.707031 7.675781 16.71875 C 7.644531 16.730469 7.609375 16.726562 7.585938 16.753906 C 7.6875 16.859375 7.832031 16.820312 7.957031 16.835938 C 10.703125 17.03125 13.554688 17.132812 16.308594 16.859375 Z M 7.507812 18.648438 C 7.507812 18.667969 7.515625 18.699219 7.53125 18.710938 C 7.507812 18.667969 7.511719 18.613281 7.546875 18.582031 C 7.519531 18.597656 7.507812 18.621094 7.507812 18.648438 Z M 7.550781 18.578125 C 7.550781 18.578125 7.546875 18.582031 7.546875 18.582031 C 7.546875 18.582031 7.550781 18.578125 7.550781 18.578125 Z M 14.988281 18.648438 C 14.929688 18.0625 14.195312 18.316406 13.796875 18.261719 C 13.441406 18.261719 12.96875 18.257812 12.617188 18.269531 C 10.941406 18.308594 9.171875 18.160156 7.550781 18.578125 C 7.617188 18.5625 7.652344 18.640625 7.710938 18.667969 C 7.691406 18.671875 7.65625 18.667969 7.644531 18.683594 C 7.652344 18.695312 7.6875 18.6875 7.6875 18.699219 C 7.671875 18.714844 7.601562 18.722656 7.644531 18.738281 C 7.585938 18.746094 7.539062 18.746094 7.484375 18.761719 C 9.125 19.074219 10.859375 19.074219 12.546875 19.058594 C 12.945312 19.039062 13.472656 19.070312 13.867188 19.070312 C 14.242188 19.039062 14.976562 19.222656 14.988281 18.648438 Z M 14.988281 18.648438 " fill-opacity="1" fill-rule="evenodd"/></g></svg>