<svg xmlns="http://www.w3.org/2000/svg" xmlns:xlink="http://www.w3.org/1999/xlink" width="40" zoomAndPan="magnify" viewBox="0 0 30 30.000001" height="40" preserveAspectRatio="xMidYMid meet" version="1.0"><defs><clipPath id="3e731ca15f"><path d="M 0.484375 0 L 29.515625 0 L 29.515625 29.03125 L 0.484375 29.03125 Z M 0.484375 0 " clip-rule="nonzero"/></clipPath><clipPath id="fb45b367b3"><path d="M 3.386719 3.175781 L 26.613281 3.175781 L 26.613281 25.675781 L 3.386719 25.675781 Z M 3.386719 3.175781 " clip-rule="nonzero"/></clipPath></defs><g clip-path="url(#3e731ca15f)"><path fill="#ffffff" d="M 0.484375 0 L 29.515625 0 L 29.515625 29.03125 L 0.484375 29.03125 Z M 0.484375 0 " fill-opacity="1" fill-rule="nonzero"/><path fill="#ffffff" d="M 0.484375 0 L 29.515625 0 L 29.515625 29.03125 L 0.484375 29.03125 Z M 0.484375 0 " fill-opacity="1" fill-rule="nonzero"/></g><g clip-path="url(#fb45b367b3)"><path fill="#935f3d" d="M 5.308594 21.675781 L 5.308594 5.640625 C 5.308594 5.074219 5.773438 4.613281 6.335938 4.613281 L 17.605469 4.613281 C 17.683594 4.613281 17.753906 4.632812 17.816406 4.679688 L 17.816406 4.0625 C 17.816406 3.578125 17.417969 3.183594 16.9375 3.183594 L 4.265625 3.183594 C 3.78125 3.183594 3.386719 3.585938 3.386719 4.0625 L 3.386719 20.796875 C 3.386719 21.28125 3.785156 21.675781 4.265625 21.675781 Z M 17.816406 5.875 L 17.816406 9.402344 L 20.613281 9.402344 C 20.085938 8.707031 19.542969 8.03125 18.992188 7.347656 Z M 11.273438 7.242188 L 11.644531 6.964844 C 11.8125 6.84375 12.042969 6.878906 12.167969 7.039062 C 12.289062 7.203125 12.253906 7.4375 12.09375 7.5625 L 11.304688 8.140625 L 11.304688 9.921875 C 11.304688 10.292969 10.996094 10.601562 10.625 10.601562 L 8.132812 10.601562 C 7.757812 10.601562 7.449219 10.292969 7.449219 9.921875 L 7.449219 7.429688 C 7.449219 7.054688 7.757812 6.746094 8.132812 6.746094 L 10.625 6.746094 C 10.925781 6.753906 11.1875 6.960938 11.273438 7.242188 Z M 8.546875 8.632812 C 8.402344 8.488281 8.402344 8.25 8.546875 8.105469 C 8.691406 7.960938 8.929688 7.960938 9.074219 8.105469 L 9.511719 8.542969 L 10.554688 7.769531 L 10.554688 7.492188 L 8.195312 7.492188 L 8.195312 9.851562 L 10.554688 9.851562 L 10.554688 8.691406 L 9.71875 9.3125 C 9.574219 9.441406 9.351562 9.4375 9.210938 9.296875 Z M 11.273438 13.371094 L 11.644531 13.09375 C 11.8125 12.972656 12.042969 13.007812 12.167969 13.167969 C 12.289062 13.332031 12.253906 13.566406 12.09375 13.691406 L 11.304688 14.269531 L 11.304688 16.050781 C 11.304688 16.421875 10.996094 16.730469 10.625 16.730469 L 8.132812 16.730469 C 7.757812 16.730469 7.449219 16.421875 7.449219 16.050781 L 7.449219 13.558594 C 7.449219 13.183594 7.757812 12.875 8.132812 12.875 L 10.625 12.875 C 10.925781 12.886719 11.1875 13.089844 11.273438 13.371094 Z M 8.546875 14.765625 C 8.402344 14.621094 8.402344 14.382812 8.546875 14.238281 C 8.691406 14.09375 8.929688 14.09375 9.074219 14.238281 L 9.511719 14.675781 L 10.554688 13.902344 L 10.554688 13.625 L 8.195312 13.625 L 8.195312 15.984375 L 10.554688 15.984375 L 10.554688 14.824219 L 9.71875 15.441406 C 9.574219 15.570312 9.351562 15.5625 9.210938 15.425781 Z M 11.273438 19.503906 L 11.644531 19.226562 C 11.8125 19.105469 12.042969 19.140625 12.167969 19.300781 C 12.289062 19.46875 12.253906 19.703125 12.09375 19.824219 L 11.304688 20.410156 L 11.304688 22.1875 C 11.304688 22.5625 11 22.871094 10.625 22.871094 L 8.132812 22.871094 C 7.757812 22.871094 7.449219 22.5625 7.449219 22.1875 L 7.449219 19.695312 C 7.449219 19.324219 7.757812 19.015625 8.132812 19.015625 L 10.625 19.015625 C 10.925781 19.015625 11.1875 19.21875 11.273438 19.503906 Z M 8.546875 20.894531 C 8.402344 20.75 8.402344 20.511719 8.546875 20.367188 C 8.691406 20.222656 8.929688 20.222656 9.074219 20.367188 L 9.511719 20.804688 L 10.554688 20.03125 L 10.554688 19.753906 L 8.195312 19.753906 L 8.195312 22.113281 L 10.554688 22.113281 L 10.554688 20.953125 L 9.71875 21.570312 C 9.574219 21.699219 9.351562 21.691406 9.210938 21.554688 Z M 20.863281 23.769531 C 17.738281 24.660156 14.519531 22.585938 14.078125 19.339844 C 13.679688 16.40625 15.734375 13.699219 18.667969 13.300781 C 19.398438 13.199219 20.144531 13.253906 20.863281 13.457031 L 20.863281 10.144531 L 17.605469 10.144531 C 17.3125 10.144531 17.070312 9.90625 17.070312 9.613281 L 17.070312 5.355469 L 6.335938 5.355469 C 6.183594 5.355469 6.054688 5.484375 6.054688 5.640625 L 6.054688 23.976562 C 6.054688 24.132812 6.183594 24.257812 6.335938 24.257812 L 20.582031 24.257812 C 20.734375 24.257812 20.863281 24.132812 20.863281 23.976562 Z M 24.152344 22.59375 L 23.371094 23.375 C 23.34375 23.402344 23.34375 23.445312 23.371094 23.472656 L 25.707031 25.8125 C 25.734375 25.839844 25.777344 25.839844 25.804688 25.8125 L 26.585938 25.03125 C 26.613281 25.003906 26.613281 24.960938 26.585938 24.9375 L 24.242188 22.597656 C 24.21875 22.570312 24.175781 22.570312 24.152344 22.59375 Z M 23.148438 22.542969 L 23.324219 22.371094 L 22.992188 22.039062 C 22.855469 21.902344 22.847656 21.675781 22.976562 21.527344 L 23.070312 21.40625 C 24.617188 19.375 24.222656 16.476562 22.1875 14.9375 C 20.191406 13.417969 17.285156 13.757812 15.71875 15.820312 C 14.175781 17.847656 14.574219 20.75 16.601562 22.289062 C 18.3125 23.589844 20.691406 23.53125 22.320312 22.1875 C 22.46875 22.066406 22.6875 22.078125 22.820312 22.214844 Z M 16.792969 16.640625 C 15.707031 18.070312 15.980469 20.113281 17.417969 21.214844 C 18.136719 21.757812 19.003906 21.960938 19.835938 21.847656 C 21.617188 21.601562 22.871094 19.957031 22.625 18.171875 C 22.378906 16.390625 20.734375 15.136719 18.949219 15.382812 C 18.121094 15.496094 17.335938 15.925781 16.792969 16.640625 Z M 16.175781 16.226562 C 16.191406 16.203125 16.203125 16.183594 16.226562 16.160156 C 16.894531 15.296875 17.84375 14.78125 18.851562 14.644531 C 21.042969 14.34375 23.0625 15.878906 23.359375 18.070312 C 23.65625 20.265625 22.125 22.285156 19.929688 22.582031 C 17.738281 22.878906 15.71875 21.347656 15.421875 19.152344 C 15.28125 18.152344 15.527344 17.097656 16.175781 16.226562 Z M 12.757812 15.179688 C 12.550781 15.179688 12.386719 15.015625 12.386719 14.808594 C 12.386719 14.601562 12.550781 14.4375 12.757812 14.4375 L 15.054688 14.4375 C 15.261719 14.4375 15.425781 14.601562 15.425781 14.808594 C 15.425781 15.015625 15.261719 15.179688 15.054688 15.179688 Z M 12.757812 9.050781 C 12.550781 9.050781 12.386719 8.886719 12.386719 8.679688 C 12.386719 8.472656 12.550781 8.308594 12.757812 8.308594 L 16.257812 8.308594 C 16.464844 8.308594 16.628906 8.472656 16.628906 8.679688 C 16.628906 8.886719 16.464844 9.050781 16.257812 9.050781 Z M 12.757812 9.050781 " fill-opacity="1" fill-rule="nonzero"/></g></svg>