<svg xmlns="http://www.w3.org/2000/svg" xmlns:xlink="http://www.w3.org/1999/xlink" width="40" zoomAndPan="magnify" viewBox="0 0 30 30.000001" height="40" preserveAspectRatio="xMidYMid meet" version="1.0"><defs><clipPath id="ac5241e4b8"><path d="M 0.484375 0 L 29.515625 0 L 29.515625 29.03125 L 0.484375 29.03125 Z M 0.484375 0 " clip-rule="nonzero"/></clipPath><clipPath id="b59e1fbfab"><path d="M 4.230469 2.902344 L 26 2.902344 L 26 26.128906 L 4.230469 26.128906 Z M 4.230469 2.902344 " clip-rule="nonzero"/></clipPath></defs><g clip-path="url(#ac5241e4b8)"><path fill="#ffffff" d="M 0.484375 0 L 29.515625 0 L 29.515625 29.03125 L 0.484375 29.03125 Z M 0.484375 0 " fill-opacity="1" fill-rule="nonzero"/><path fill="#ffffff" d="M 0.484375 0 L 29.515625 0 L 29.515625 29.03125 L 0.484375 29.03125 Z M 0.484375 0 " fill-opacity="1" fill-rule="nonzero"/></g><g clip-path="url(#b59e1fbfab)"><path fill="#935f3d" d="M 17.902344 16.242188 L 17.59375 15.550781 C 17.785156 15.207031 17.9375 14.847656 18.042969 14.46875 L 18.746094 14.199219 C 18.890625 14.144531 18.988281 14.003906 18.988281 13.847656 L 18.988281 12.402344 C 18.988281 12.246094 18.890625 12.109375 18.746094 12.054688 L 18.042969 11.78125 C 17.9375 11.40625 17.785156 11.042969 17.59375 10.699219 L 17.902344 10.007812 C 17.964844 9.867188 17.933594 9.703125 17.824219 9.59375 L 16.800781 8.570312 C 16.691406 8.460938 16.527344 8.429688 16.382812 8.492188 L 15.691406 8.800781 C 15.351562 8.609375 14.988281 8.457031 14.613281 8.351562 L 14.339844 7.644531 C 14.285156 7.5 14.144531 7.40625 13.992188 7.40625 L 12.542969 7.40625 C 12.390625 7.40625 12.25 7.5 12.195312 7.644531 L 11.921875 8.351562 C 11.546875 8.457031 11.183594 8.609375 10.84375 8.800781 L 10.152344 8.492188 C 10.011719 8.429688 9.84375 8.460938 9.734375 8.570312 L 8.710938 9.59375 C 8.601562 9.703125 8.570312 9.867188 8.632812 10.007812 L 8.941406 10.703125 C 8.75 11.042969 8.601562 11.40625 8.496094 11.78125 L 7.789062 12.054688 C 7.644531 12.109375 7.546875 12.246094 7.546875 12.402344 L 7.546875 13.847656 C 7.546875 14.003906 7.644531 14.144531 7.789062 14.199219 L 8.492188 14.46875 C 8.601562 14.847656 8.75 15.207031 8.941406 15.550781 L 8.632812 16.242188 C 8.570312 16.382812 8.601562 16.550781 8.710938 16.660156 L 9.734375 17.683594 C 9.84375 17.792969 10.011719 17.820312 10.152344 17.757812 L 10.84375 17.453125 C 11.140625 17.617188 11.453125 17.753906 11.777344 17.855469 L 11.777344 22.410156 C 11.777344 22.476562 11.792969 22.539062 11.828125 22.597656 L 12.945312 24.53125 C 13.011719 24.648438 13.132812 24.71875 13.269531 24.71875 C 13.402344 24.71875 13.523438 24.648438 13.59375 24.53125 L 14.710938 22.597656 C 14.742188 22.539062 14.757812 22.476562 14.757812 22.410156 L 14.757812 17.855469 C 15.082031 17.753906 15.394531 17.617188 15.691406 17.453125 L 16.382812 17.757812 C 16.527344 17.820312 16.691406 17.792969 16.800781 17.683594 L 17.824219 16.660156 C 17.933594 16.550781 17.964844 16.382812 17.902344 16.242188 Z M 12.523438 22.035156 L 12.523438 14.414062 L 14.011719 14.414062 L 14.011719 22.035156 Z M 14.011719 13.664062 L 12.523438 13.664062 L 12.523438 12.953125 C 12.523438 12.644531 12.773438 12.394531 13.082031 12.394531 L 13.453125 12.394531 C 13.761719 12.394531 14.011719 12.644531 14.011719 12.953125 Z M 13.453125 11.644531 L 13.082031 11.644531 C 12.363281 11.644531 11.777344 12.230469 11.777344 12.953125 L 11.777344 14.675781 C 11.359375 14.277344 11.117188 13.722656 11.117188 13.125 C 11.117188 11.941406 12.082031 10.976562 13.269531 10.976562 C 14.453125 10.976562 15.417969 11.941406 15.417969 13.125 C 15.417969 13.722656 15.175781 14.277344 14.757812 14.675781 L 14.757812 12.953125 C 14.757812 12.230469 14.171875 11.644531 13.453125 11.644531 Z M 13.269531 23.597656 L 12.800781 22.785156 L 13.738281 22.785156 Z M 17.363281 14.101562 C 17.261719 14.535156 17.089844 14.949219 16.855469 15.328125 C 16.789062 15.433594 16.78125 15.566406 16.832031 15.679688 L 17.113281 16.3125 L 16.453125 16.972656 L 15.820312 16.691406 C 15.707031 16.640625 15.578125 16.648438 15.472656 16.714844 C 15.246094 16.851562 15.007812 16.96875 14.757812 17.0625 L 14.757812 15.609375 C 15.632812 15.089844 16.164062 14.15625 16.164062 13.125 C 16.164062 11.527344 14.867188 10.226562 13.269531 10.226562 C 11.671875 10.226562 10.371094 11.527344 10.371094 13.125 C 10.371094 14.15625 10.902344 15.089844 11.777344 15.609375 L 11.777344 17.0625 C 11.527344 16.96875 11.289062 16.851562 11.0625 16.710938 C 10.957031 16.648438 10.828125 16.640625 10.714844 16.691406 L 10.082031 16.972656 L 9.421875 16.3125 L 9.703125 15.679688 C 9.753906 15.566406 9.746094 15.433594 9.679688 15.328125 C 9.445312 14.949219 9.273438 14.535156 9.171875 14.101562 C 9.144531 13.984375 9.058594 13.886719 8.941406 13.839844 L 8.296875 13.59375 L 8.296875 12.660156 L 8.941406 12.410156 C 9.058594 12.367188 9.144531 12.269531 9.171875 12.148438 C 9.273438 11.714844 9.445312 11.300781 9.679688 10.921875 C 9.746094 10.816406 9.753906 10.6875 9.703125 10.574219 L 9.421875 9.941406 L 10.082031 9.28125 L 10.714844 9.5625 C 10.828125 9.613281 10.957031 9.601562 11.0625 9.539062 C 11.445312 9.304688 11.855469 9.132812 12.289062 9.03125 C 12.410156 9 12.507812 8.914062 12.554688 8.800781 L 12.800781 8.15625 L 13.734375 8.15625 L 13.984375 8.800781 C 14.027344 8.914062 14.125 9 14.246094 9.03125 C 14.679688 9.132812 15.089844 9.304688 15.472656 9.539062 C 15.578125 9.601562 15.707031 9.613281 15.820312 9.5625 L 16.453125 9.28125 L 17.113281 9.941406 L 16.832031 10.574219 C 16.78125 10.6875 16.789062 10.816406 16.855469 10.921875 C 17.089844 11.300781 17.261719 11.714844 17.363281 12.148438 C 17.390625 12.269531 17.476562 12.367188 17.59375 12.410156 L 18.238281 12.660156 L 18.238281 13.59375 L 17.59375 13.839844 C 17.476562 13.886719 17.390625 13.984375 17.363281 14.101562 Z M 25.707031 23.914062 L 23.757812 20.148438 C 24.546875 19.523438 25.011719 18.578125 25.011719 17.558594 C 25.011719 15.941406 23.84375 14.59375 22.304688 14.308594 L 22.304688 6.28125 C 22.304688 6.058594 22.222656 5.855469 22.0625 5.699219 L 19.523438 3.15625 C 19.363281 2.996094 19.160156 2.914062 18.9375 2.914062 L 5.058594 2.914062 C 4.601562 2.914062 4.230469 3.285156 4.230469 3.738281 L 4.230469 25.292969 C 4.230469 25.75 4.601562 26.121094 5.058594 26.121094 L 21.480469 26.121094 C 21.933594 26.121094 22.304688 25.75 22.304688 25.292969 L 22.304688 24.460938 L 25.375 24.460938 C 25.507812 24.460938 25.628906 24.390625 25.695312 24.28125 C 25.761719 24.167969 25.769531 24.03125 25.707031 23.914062 Z M 24.261719 17.558594 C 24.261719 18.296875 23.945312 18.984375 23.40625 19.464844 L 22.039062 16.824219 C 21.972656 16.699219 21.84375 16.621094 21.703125 16.621094 C 21.566406 16.621094 21.4375 16.699219 21.371094 16.824219 L 20.003906 19.464844 C 19.464844 18.984375 19.148438 18.296875 19.148438 17.558594 C 19.148438 16.148438 20.296875 15.003906 21.703125 15.003906 C 23.113281 15.003906 24.261719 16.148438 24.261719 17.558594 Z M 21.027344 5.71875 L 19.5 5.71875 L 19.5 4.191406 Z M 21.558594 25.292969 C 21.558594 25.335938 21.519531 25.371094 21.480469 25.371094 L 5.058594 25.371094 C 5.015625 25.371094 4.980469 25.335938 4.980469 25.292969 L 4.980469 3.738281 C 4.980469 3.699219 5.015625 3.660156 5.058594 3.660156 L 18.75 3.660156 L 18.75 5.867188 C 18.75 6.199219 19.019531 6.46875 19.351562 6.46875 L 21.558594 6.46875 L 21.558594 14.257812 C 19.804688 14.335938 18.398438 15.785156 18.398438 17.558594 C 18.398438 18.578125 18.863281 19.523438 19.652344 20.148438 L 17.703125 23.914062 C 17.640625 24.03125 17.648438 24.167969 17.714844 24.28125 C 17.78125 24.390625 17.902344 24.460938 18.035156 24.460938 L 21.558594 24.460938 Z M 18.648438 23.710938 L 21.707031 17.8125 L 24.761719 23.710938 Z M 8.25 5.453125 C 8.25 4.792969 7.714844 4.257812 7.054688 4.257812 C 6.398438 4.257812 5.863281 4.792969 5.863281 5.453125 C 5.863281 6.109375 6.398438 6.644531 7.054688 6.644531 C 7.714844 6.644531 8.25 6.109375 8.25 5.453125 Z M 7.054688 5.894531 C 6.808594 5.894531 6.609375 5.695312 6.609375 5.453125 C 6.609375 5.207031 6.808594 5.007812 7.054688 5.007812 C 7.300781 5.007812 7.5 5.207031 7.5 5.453125 C 7.5 5.695312 7.300781 5.894531 7.054688 5.894531 Z M 9.914062 6.644531 C 10.570312 6.644531 11.105469 6.109375 11.105469 5.453125 C 11.105469 4.792969 10.570312 4.257812 9.914062 4.257812 C 9.253906 4.257812 8.71875 4.792969 8.71875 5.453125 C 8.71875 6.109375 9.253906 6.644531 9.914062 6.644531 Z M 9.914062 5.007812 C 10.160156 5.007812 10.359375 5.207031 10.359375 5.453125 C 10.359375 5.695312 10.160156 5.894531 9.914062 5.894531 C 9.667969 5.894531 9.46875 5.695312 9.46875 5.453125 C 9.46875 5.207031 9.667969 5.007812 9.914062 5.007812 Z M 12.769531 6.644531 C 13.429688 6.644531 13.964844 6.109375 13.964844 5.453125 C 13.964844 4.792969 13.429688 4.257812 12.769531 4.257812 C 12.113281 4.257812 11.578125 4.792969 11.578125 5.453125 C 11.578125 6.109375 12.113281 6.644531 12.769531 6.644531 Z M 12.769531 5.007812 C 13.015625 5.007812 13.214844 5.207031 13.214844 5.453125 C 13.214844 5.695312 13.015625 5.894531 12.769531 5.894531 C 12.527344 5.894531 12.328125 5.695312 12.328125 5.453125 C 12.328125 5.207031 12.527344 5.007812 12.769531 5.007812 Z M 12.769531 5.007812 " fill-opacity="1" fill-rule="nonzero"/></g></svg>