<svg xmlns="http://www.w3.org/2000/svg" xmlns:xlink="http://www.w3.org/1999/xlink" width="40" zoomAndPan="magnify" viewBox="0 0 30 30.000001" height="40" preserveAspectRatio="xMidYMid meet" version="1.0"><defs><clipPath id="e27c24847c"><path d="M 0.484375 0 L 29.515625 0 L 29.515625 29.03125 L 0.484375 29.03125 Z M 0.484375 0 " clip-rule="nonzero"/></clipPath><clipPath id="5511c69892"><path d="M 3.808594 2.902344 L 26.308594 2.902344 L 26.308594 26.128906 L 3.808594 26.128906 Z M 3.808594 2.902344 " clip-rule="nonzero"/></clipPath></defs><g clip-path="url(#e27c24847c)"><path fill="#ffffff" d="M 0.484375 0 L 29.515625 0 L 29.515625 29.03125 L 0.484375 29.03125 Z M 0.484375 0 " fill-opacity="1" fill-rule="nonzero"/><path fill="#ffffff" d="M 0.484375 0 L 29.515625 0 L 29.515625 29.03125 L 0.484375 29.03125 Z M 0.484375 0 " fill-opacity="1" fill-rule="nonzero"/></g><path fill="#935f3d" d="M 16.753906 9.535156 L 9.261719 9.535156 C 9.042969 9.535156 8.839844 9.621094 8.683594 9.773438 C 8.53125 9.929688 8.445312 10.132812 8.445312 10.347656 L 8.445312 15.335938 C 8.445312 15.554688 8.53125 15.757812 8.683594 15.914062 C 8.839844 16.066406 9.042969 16.152344 9.261719 16.152344 L 11.78125 16.152344 L 11.425781 16.960938 L 10.734375 16.960938 C 10.613281 16.960938 10.515625 17.058594 10.515625 17.179688 C 10.515625 17.300781 10.613281 17.398438 10.734375 17.398438 L 15.277344 17.398438 C 15.398438 17.398438 15.496094 17.300781 15.496094 17.179688 C 15.496094 17.058594 15.398438 16.960938 15.277344 16.960938 L 14.585938 16.960938 L 14.230469 16.152344 L 16.753906 16.152344 C 16.96875 16.152344 17.175781 16.066406 17.328125 15.914062 C 17.480469 15.757812 17.566406 15.554688 17.566406 15.335938 L 17.566406 10.347656 C 17.566406 10.132812 17.480469 9.929688 17.328125 9.773438 C 17.175781 9.621094 16.96875 9.535156 16.753906 9.535156 Z M 11.898438 16.960938 L 12.253906 16.152344 L 13.757812 16.152344 L 14.113281 16.960938 Z M 17.128906 15.335938 C 17.128906 15.542969 16.957031 15.710938 16.753906 15.710938 L 9.261719 15.710938 C 9.054688 15.710938 8.886719 15.542969 8.886719 15.335938 L 8.886719 14.90625 L 17.128906 14.90625 Z M 17.128906 14.464844 L 8.886719 14.464844 L 8.886719 10.347656 C 8.886719 10.144531 9.054688 9.976562 9.261719 9.976562 L 16.753906 9.976562 C 16.957031 9.976562 17.128906 10.144531 17.128906 10.347656 Z M 17.128906 14.464844 " fill-opacity="1" fill-rule="nonzero"/><path fill="#935f3d" d="M 11.757812 12.632812 C 11.667969 12.542969 11.566406 12.472656 11.449219 12.421875 C 11.328125 12.371094 11.199219 12.347656 11.066406 12.347656 C 10.933594 12.347656 10.804688 12.371094 10.683594 12.421875 C 10.566406 12.472656 10.464844 12.542969 10.375 12.632812 C 10.28125 12.722656 10.210938 12.828125 10.164062 12.945312 C 10.113281 13.066406 10.085938 13.195312 10.085938 13.324219 C 10.085938 13.457031 10.113281 13.585938 10.164062 13.707031 C 10.210938 13.824219 10.28125 13.929688 10.375 14.019531 C 10.464844 14.109375 10.566406 14.179688 10.683594 14.230469 C 10.804688 14.28125 10.933594 14.304688 11.066406 14.304688 C 11.199219 14.304688 11.328125 14.28125 11.449219 14.230469 C 11.566406 14.179688 11.667969 14.109375 11.757812 14.019531 C 11.847656 13.929688 11.921875 13.824219 11.96875 13.707031 C 12.019531 13.585938 12.046875 13.457031 12.046875 13.324219 C 12.046875 13.195312 12.019531 13.066406 11.96875 12.945312 C 11.921875 12.828125 11.847656 12.722656 11.757812 12.632812 Z M 11.214844 12.664062 C 11.375 12.699219 11.515625 12.792969 11.613281 12.925781 L 11.214844 13.097656 Z M 11.066406 14.003906 C 10.691406 14.003906 10.386719 13.699219 10.386719 13.324219 C 10.386719 13.164062 10.445312 13.003906 10.554688 12.878906 C 10.648438 12.769531 10.777344 12.695312 10.914062 12.664062 L 10.914062 13.324219 C 10.914062 13.375 10.941406 13.421875 10.984375 13.453125 C 11.007812 13.46875 11.035156 13.476562 11.066406 13.476562 C 11.085938 13.476562 11.105469 13.472656 11.125 13.464844 L 11.734375 13.199219 C 11.742188 13.242188 11.746094 13.285156 11.746094 13.324219 C 11.746094 13.699219 11.441406 14.003906 11.066406 14.003906 Z M 11.066406 14.003906 " fill-opacity="1" fill-rule="nonzero"/><path fill="#935f3d" d="M 11.757812 10.503906 C 11.667969 10.414062 11.566406 10.34375 11.449219 10.292969 C 11.328125 10.242188 11.199219 10.214844 11.066406 10.214844 C 10.933594 10.214844 10.804688 10.242188 10.683594 10.292969 C 10.566406 10.34375 10.464844 10.414062 10.375 10.503906 C 10.28125 10.59375 10.210938 10.699219 10.164062 10.816406 C 10.113281 10.9375 10.085938 11.0625 10.085938 11.195312 C 10.085938 11.328125 10.113281 11.457031 10.164062 11.578125 C 10.210938 11.695312 10.28125 11.800781 10.375 11.890625 C 10.464844 11.980469 10.566406 12.050781 10.683594 12.101562 C 10.804688 12.152344 10.933594 12.175781 11.066406 12.175781 C 11.199219 12.175781 11.328125 12.152344 11.449219 12.101562 C 11.566406 12.050781 11.667969 11.980469 11.757812 11.890625 C 11.847656 11.800781 11.921875 11.695312 11.96875 11.578125 C 12.019531 11.457031 12.046875 11.328125 12.046875 11.195312 C 12.046875 11.0625 12.019531 10.9375 11.96875 10.816406 C 11.921875 10.699219 11.847656 10.59375 11.757812 10.503906 Z M 11.214844 10.535156 C 11.375 10.570312 11.515625 10.664062 11.613281 10.796875 L 11.214844 10.96875 Z M 11.066406 11.875 C 10.691406 11.875 10.386719 11.570312 10.386719 11.195312 C 10.386719 11.03125 10.445312 10.875 10.554688 10.75 C 10.648438 10.640625 10.777344 10.566406 10.914062 10.535156 L 10.914062 11.195312 C 10.914062 11.246094 10.941406 11.292969 10.984375 11.320312 C 11.007812 11.339844 11.035156 11.347656 11.066406 11.347656 C 11.085938 11.347656 11.105469 11.34375 11.125 11.335938 L 11.734375 11.070312 C 11.742188 11.113281 11.746094 11.15625 11.746094 11.195312 C 11.746094 11.570312 11.441406 11.875 11.066406 11.875 Z M 11.066406 11.875 " fill-opacity="1" fill-rule="nonzero"/><path fill="#935f3d" d="M 16.050781 11.992188 L 15.859375 11.992188 L 15.859375 10.734375 C 15.859375 10.648438 15.789062 10.582031 15.707031 10.582031 L 15.273438 10.582031 C 15.191406 10.582031 15.125 10.648438 15.125 10.734375 L 15.125 11.992188 L 14.941406 11.992188 L 14.941406 11.195312 C 14.941406 11.113281 14.875 11.046875 14.792969 11.046875 L 14.359375 11.046875 C 14.273438 11.046875 14.207031 11.113281 14.207031 11.195312 L 14.207031 11.992188 L 14.023438 11.992188 L 14.023438 11.464844 C 14.023438 11.382812 13.957031 11.3125 13.871094 11.3125 L 13.4375 11.3125 C 13.355469 11.3125 13.289062 11.382812 13.289062 11.464844 L 13.289062 11.992188 L 13.15625 11.992188 L 13.15625 10.589844 C 13.15625 10.503906 13.089844 10.4375 13.007812 10.4375 C 12.921875 10.4375 12.855469 10.503906 12.855469 10.589844 L 12.855469 12.144531 C 12.855469 12.226562 12.921875 12.292969 13.007812 12.292969 L 16.050781 12.292969 C 16.132812 12.292969 16.199219 12.226562 16.199219 12.144531 C 16.199219 12.058594 16.132812 11.992188 16.050781 11.992188 Z M 13.722656 11.992188 L 13.589844 11.992188 L 13.589844 11.613281 L 13.722656 11.613281 Z M 14.640625 11.992188 L 14.507812 11.992188 L 14.507812 11.347656 L 14.640625 11.347656 Z M 15.558594 11.992188 L 15.425781 11.992188 L 15.425781 10.882812 L 15.558594 10.882812 Z M 15.558594 11.992188 " fill-opacity="1" fill-rule="nonzero"/><path fill="#935f3d" d="M 16.046875 13.886719 L 13.539062 13.925781 L 14.378906 13.34375 L 14.507812 13.621094 C 14.527344 13.660156 14.558594 13.691406 14.597656 13.703125 C 14.613281 13.707031 14.628906 13.710938 14.644531 13.710938 C 14.671875 13.710938 14.695312 13.703125 14.71875 13.6875 L 16.097656 12.898438 L 15.945312 12.636719 L 14.710938 13.347656 L 14.578125 13.054688 C 14.558594 13.015625 14.523438 12.984375 14.480469 12.976562 C 14.464844 12.972656 14.453125 12.96875 14.441406 12.96875 C 14.410156 12.96875 14.378906 12.980469 14.355469 12.996094 L 13.15625 13.824219 L 13.15625 12.894531 C 13.15625 12.8125 13.089844 12.746094 13.007812 12.746094 C 12.921875 12.746094 12.855469 12.8125 12.855469 12.894531 L 12.855469 14.078125 C 12.855469 14.117188 12.871094 14.15625 12.894531 14.183594 C 12.925781 14.214844 12.964844 14.234375 13.007812 14.234375 L 16.050781 14.1875 C 16.136719 14.183594 16.203125 14.117188 16.199219 14.035156 C 16.199219 13.949219 16.128906 13.882812 16.046875 13.886719 Z M 16.046875 13.886719 " fill-opacity="1" fill-rule="nonzero"/><g clip-path="url(#5511c69892)"><path fill="#935f3d" d="M 25.617188 22.839844 L 21.042969 18.265625 C 20.949219 18.167969 20.792969 18.167969 20.695312 18.265625 L 20.421875 18.539062 L 19.214844 17.335938 C 19.558594 16.855469 19.84375 16.335938 20.066406 15.785156 C 20.253906 15.328125 20.394531 14.847656 20.488281 14.363281 C 20.582031 13.882812 20.628906 13.386719 20.628906 12.898438 C 20.628906 12.40625 20.582031 11.914062 20.488281 11.429688 C 20.460938 11.28125 20.425781 11.132812 20.386719 10.984375 L 20.628906 11.019531 C 20.640625 11.023438 20.652344 11.023438 20.660156 11.023438 C 20.738281 11.023438 20.808594 10.980469 20.84375 10.914062 L 21.242188 10.167969 L 21.808594 10.03125 L 22.507812 10.503906 C 22.582031 10.550781 22.675781 10.550781 22.746094 10.496094 L 23.53125 9.921875 C 23.601562 9.867188 23.632812 9.777344 23.605469 9.691406 L 23.363281 8.886719 L 23.664062 8.386719 L 24.492188 8.226562 C 24.578125 8.210938 24.644531 8.140625 24.65625 8.054688 L 24.804688 7.089844 C 24.816406 7.003906 24.773438 6.917969 24.695312 6.878906 L 23.953125 6.476562 L 23.8125 5.914062 L 24.285156 5.214844 C 24.332031 5.140625 24.332031 5.046875 24.28125 4.972656 L 23.703125 4.191406 C 23.648438 4.121094 23.558594 4.089844 23.476562 4.117188 L 22.667969 4.359375 L 22.167969 4.058594 L 22.007812 3.230469 C 21.992188 3.144531 21.921875 3.078125 21.835938 3.0625 L 20.875 2.917969 C 20.785156 2.90625 20.699219 2.949219 20.660156 3.027344 L 20.261719 3.769531 L 19.695312 3.910156 L 18.996094 3.4375 C 18.921875 3.386719 18.828125 3.390625 18.757812 3.441406 L 17.972656 4.019531 C 17.902344 4.070312 17.871094 4.160156 17.898438 4.246094 L 18.140625 5.054688 L 17.839844 5.550781 L 17.011719 5.714844 C 16.925781 5.730469 16.859375 5.800781 16.847656 5.886719 L 16.792969 6.246094 C 16.488281 6.070312 16.171875 5.914062 15.839844 5.78125 C 15.382812 5.597656 14.90625 5.457031 14.417969 5.359375 C 13.9375 5.269531 13.445312 5.21875 12.953125 5.21875 C 12.460938 5.21875 11.96875 5.269531 11.488281 5.359375 C 11 5.457031 10.523438 5.597656 10.066406 5.78125 C 9.113281 6.167969 8.257812 6.734375 7.523438 7.46875 C 6.894531 8.101562 6.378906 8.828125 6.003906 9.628906 C 5.640625 10.40625 5.410156 11.234375 5.320312 12.089844 C 5.230469 12.9375 5.28125 13.789062 5.472656 14.617188 C 5.644531 15.378906 5.933594 16.105469 6.328125 16.777344 L 6.296875 16.777344 C 6.210938 16.777344 6.132812 16.835938 6.101562 16.917969 L 5.921875 17.445312 L 5.601562 17.582031 L 5.097656 17.347656 C 5.015625 17.3125 4.921875 17.328125 4.863281 17.390625 L 4.390625 17.875 C 4.328125 17.9375 4.3125 18.03125 4.351562 18.109375 L 4.597656 18.609375 L 4.46875 18.933594 L 3.945312 19.125 C 3.863281 19.15625 3.808594 19.234375 3.808594 19.324219 L 3.816406 20 C 3.816406 20.085938 3.875 20.164062 3.957031 20.191406 L 4.484375 20.375 L 4.621094 20.691406 L 4.386719 21.199219 C 4.351562 21.277344 4.367188 21.371094 4.429688 21.433594 L 4.914062 21.90625 C 4.976562 21.96875 5.070312 21.980469 5.148438 21.945312 L 5.652344 21.699219 L 5.972656 21.828125 L 6.164062 22.351562 C 6.195312 22.433594 6.273438 22.488281 6.359375 22.488281 C 6.363281 22.488281 6.363281 22.488281 6.363281 22.488281 L 7.039062 22.480469 C 7.125 22.476562 7.203125 22.421875 7.230469 22.339844 L 7.414062 21.8125 L 7.730469 21.675781 L 8.238281 21.90625 C 8.316406 21.945312 8.410156 21.925781 8.472656 21.863281 L 8.945312 21.382812 C 9.007812 21.320312 9.023438 21.222656 8.984375 21.144531 L 8.738281 20.644531 L 8.867188 20.324219 L 9.390625 20.128906 C 9.472656 20.097656 9.527344 20.019531 9.527344 19.933594 L 9.523438 19.765625 C 10.171875 20.089844 10.863281 20.320312 11.582031 20.449219 C 12.035156 20.53125 12.492188 20.574219 12.953125 20.574219 C 13.300781 20.574219 13.648438 20.550781 13.996094 20.503906 C 14.808594 20.390625 15.59375 20.152344 16.328125 19.792969 C 16.699219 19.609375 17.054688 19.398438 17.394531 19.160156 L 18.597656 20.363281 L 18.320312 20.640625 C 18.226562 20.734375 18.226562 20.890625 18.320312 20.988281 L 22.894531 25.5625 C 23.257812 25.925781 23.742188 26.125 24.257812 26.125 C 24.773438 26.125 25.253906 25.925781 25.617188 25.5625 C 25.984375 25.199219 26.183594 24.714844 26.183594 24.199219 C 26.183594 23.6875 25.984375 23.203125 25.617188 22.839844 Z M 17.234375 6.09375 L 18.011719 5.941406 C 18.066406 5.929688 18.117188 5.894531 18.148438 5.847656 L 18.542969 5.191406 C 18.574219 5.140625 18.582031 5.078125 18.566406 5.023438 L 18.335938 4.265625 L 18.882812 3.863281 L 19.539062 4.304688 C 19.585938 4.335938 19.648438 4.347656 19.707031 4.335938 L 20.449219 4.148438 C 20.507812 4.136719 20.554688 4.097656 20.582031 4.046875 L 20.957031 3.351562 L 21.628906 3.453125 L 21.777344 4.226562 C 21.789062 4.285156 21.824219 4.335938 21.875 4.367188 L 22.53125 4.761719 C 22.582031 4.792969 22.640625 4.800781 22.699219 4.785156 L 23.453125 4.554688 L 23.859375 5.101562 L 23.417969 5.757812 C 23.382812 5.804688 23.371094 5.867188 23.386719 5.921875 L 23.570312 6.667969 C 23.585938 6.722656 23.621094 6.773438 23.675781 6.800781 L 24.371094 7.171875 L 24.269531 7.847656 L 23.492188 7.996094 C 23.433594 8.007812 23.386719 8.042969 23.355469 8.09375 L 22.957031 8.75 C 22.929688 8.800781 22.921875 8.859375 22.9375 8.917969 L 23.164062 9.671875 L 22.617188 10.078125 L 21.964844 9.632812 C 21.914062 9.601562 21.855469 9.589844 21.796875 9.605469 L 21.054688 9.789062 C 20.996094 9.800781 20.949219 9.839844 20.921875 9.890625 L 20.546875 10.589844 L 20.261719 10.546875 C 20.203125 10.363281 20.136719 10.183594 20.066406 10.007812 C 19.679688 9.054688 19.113281 8.203125 18.378906 7.46875 C 18.007812 7.097656 17.605469 6.769531 17.175781 6.484375 Z M 8.636719 19.964844 C 8.582031 19.984375 8.539062 20.027344 8.515625 20.082031 L 8.320312 20.574219 C 8.296875 20.628906 8.300781 20.691406 8.324219 20.746094 L 8.546875 21.195312 L 8.277344 21.46875 L 7.820312 21.257812 C 7.769531 21.234375 7.707031 21.234375 7.652344 21.257812 L 7.164062 21.464844 C 7.109375 21.488281 7.070312 21.535156 7.050781 21.589844 L 6.886719 22.066406 L 6.503906 22.070312 L 6.332031 21.597656 C 6.308594 21.542969 6.265625 21.5 6.214844 21.476562 L 5.71875 21.277344 C 5.695312 21.269531 5.667969 21.265625 5.640625 21.265625 C 5.609375 21.265625 5.578125 21.269531 5.550781 21.285156 L 5.097656 21.507812 L 4.824219 21.238281 L 5.035156 20.78125 C 5.0625 20.730469 5.0625 20.667969 5.039062 20.613281 L 4.828125 20.125 C 4.804688 20.070312 4.761719 20.027344 4.707031 20.011719 L 4.230469 19.847656 L 4.226562 19.464844 L 4.699219 19.292969 C 4.753906 19.269531 4.796875 19.226562 4.820312 19.171875 L 5.015625 18.679688 C 5.039062 18.625 5.035156 18.5625 5.011719 18.511719 L 4.789062 18.058594 L 5.054688 17.785156 L 5.511719 17.996094 C 5.566406 18.023438 5.628906 18.023438 5.679688 18 L 6.171875 17.789062 C 6.222656 17.765625 6.265625 17.722656 6.285156 17.667969 L 6.449219 17.191406 L 6.832031 17.1875 L 7.003906 17.65625 C 7.023438 17.714844 7.066406 17.757812 7.121094 17.777344 L 7.617188 17.976562 C 7.671875 18 7.730469 17.996094 7.785156 17.972656 L 8.234375 17.75 L 8.507812 18.015625 L 8.296875 18.472656 C 8.273438 18.527344 8.273438 18.589844 8.296875 18.640625 L 8.503906 19.132812 C 8.527344 19.183594 8.574219 19.226562 8.628906 19.246094 L 9.105469 19.410156 L 9.109375 19.789062 Z M 16.113281 19.351562 C 15.425781 19.6875 14.691406 19.910156 13.929688 20.015625 C 13.175781 20.117188 12.417969 20.101562 11.667969 19.964844 C 10.910156 19.828125 10.1875 19.574219 9.511719 19.207031 C 9.511719 19.207031 9.511719 19.207031 9.511719 19.203125 C 9.492188 19.140625 9.445312 19.085938 9.378906 19.0625 L 8.851562 18.882812 L 8.714844 18.5625 L 8.949219 18.058594 C 8.984375 17.976562 8.96875 17.882812 8.902344 17.820312 L 8.421875 17.351562 C 8.359375 17.289062 8.265625 17.273438 8.183594 17.3125 L 7.683594 17.558594 L 7.363281 17.429688 L 7.167969 16.90625 C 7.140625 16.824219 7.0625 16.769531 6.972656 16.769531 L 6.894531 16.769531 C 6.890625 16.757812 6.882812 16.742188 6.875 16.730469 C 6.441406 16.046875 6.132812 15.296875 5.949219 14.507812 C 5.773438 13.730469 5.726562 12.933594 5.808594 12.140625 C 5.890625 11.339844 6.109375 10.566406 6.449219 9.839844 C 6.800781 9.089844 7.28125 8.410156 7.871094 7.816406 C 8.558594 7.128906 9.359375 6.601562 10.25 6.238281 C 10.675781 6.066406 11.125 5.933594 11.582031 5.84375 C 12.03125 5.757812 12.492188 5.710938 12.953125 5.710938 C 13.414062 5.710938 13.875 5.757812 14.324219 5.84375 C 14.78125 5.933594 15.226562 6.066406 15.65625 6.238281 C 16.058594 6.402344 16.441406 6.597656 16.800781 6.828125 C 16.816406 6.839844 16.832031 6.851562 16.851562 6.859375 C 17.273438 7.132812 17.667969 7.453125 18.03125 7.816406 C 18.71875 8.503906 19.25 9.300781 19.609375 10.191406 C 19.785156 10.621094 19.917969 11.070312 20.003906 11.523438 C 20.09375 11.976562 20.136719 12.4375 20.136719 12.898438 C 20.136719 13.355469 20.09375 13.816406 20.003906 14.269531 C 19.917969 14.722656 19.785156 15.171875 19.609375 15.601562 C 19.25 16.492188 18.71875 17.289062 18.03125 17.976562 C 17.46875 18.542969 16.820312 19.003906 16.113281 19.351562 Z M 17.816406 18.886719 L 18.945312 17.761719 L 20.070312 18.886719 L 18.945312 20.015625 Z M 25.269531 25.214844 C 25 25.484375 24.640625 25.636719 24.257812 25.636719 C 23.875 25.636719 23.515625 25.484375 23.242188 25.214844 L 18.84375 20.8125 L 20.871094 18.785156 L 25.269531 23.1875 C 25.542969 23.457031 25.691406 23.816406 25.691406 24.199219 C 25.691406 24.585938 25.542969 24.945312 25.269531 25.214844 Z M 25.269531 25.214844 " fill-opacity="1" fill-rule="nonzero"/></g><path fill="#935f3d" d="M 19.125 12.898438 C 19.125 12.09375 18.972656 11.3125 18.675781 10.574219 C 18.363281 9.808594 17.90625 9.121094 17.316406 8.53125 C 16.730469 7.941406 16.042969 7.484375 15.277344 7.175781 C 14.535156 6.875 13.753906 6.722656 12.953125 6.722656 C 12.152344 6.722656 11.371094 6.875 10.628906 7.175781 C 9.863281 7.484375 9.175781 7.941406 8.585938 8.53125 C 8 9.121094 7.542969 9.808594 7.230469 10.574219 C 6.933594 11.3125 6.78125 12.09375 6.78125 12.898438 C 6.78125 13.699219 6.933594 14.480469 7.230469 15.21875 C 7.542969 15.984375 8 16.671875 8.585938 17.261719 C 9.175781 17.851562 9.863281 18.308594 10.628906 18.617188 C 11.371094 18.917969 12.152344 19.070312 12.953125 19.070312 C 13.753906 19.070312 14.535156 18.917969 15.277344 18.617188 C 16.042969 18.308594 16.730469 17.851562 17.316406 17.261719 C 17.90625 16.671875 18.363281 15.984375 18.675781 15.21875 C 18.972656 14.480469 19.125 13.699219 19.125 12.898438 Z M 18.21875 15.035156 C 17.933594 15.738281 17.511719 16.371094 16.96875 16.914062 C 16.429688 17.457031 15.796875 17.875 15.089844 18.160156 C 14.410156 18.4375 13.691406 18.578125 12.953125 18.578125 C 12.214844 18.578125 11.496094 18.4375 10.816406 18.160156 C 10.109375 17.875 9.476562 17.457031 8.9375 16.914062 C 8.394531 16.371094 7.972656 15.738281 7.6875 15.035156 C 7.410156 14.355469 7.273438 13.632812 7.273438 12.898438 C 7.273438 12.160156 7.410156 11.4375 7.6875 10.757812 C 7.972656 10.054688 8.394531 9.421875 8.9375 8.878906 C 9.476562 8.335938 10.109375 7.917969 10.816406 7.632812 C 11.496094 7.355469 12.214844 7.214844 12.953125 7.214844 C 13.691406 7.214844 14.410156 7.355469 15.089844 7.632812 C 15.796875 7.917969 16.429688 8.335938 16.96875 8.878906 C 17.511719 9.421875 17.933594 10.054688 18.21875 10.757812 C 18.496094 11.4375 18.632812 12.160156 18.632812 12.898438 C 18.632812 13.632812 18.496094 14.355469 18.21875 15.035156 Z M 18.21875 15.035156 " fill-opacity="1" fill-rule="nonzero"/><path fill="#935f3d" d="M 19.085938 8.214844 C 19.246094 8.429688 19.445312 8.609375 19.675781 8.75 C 19.90625 8.890625 20.160156 8.984375 20.425781 9.023438 C 20.535156 9.042969 20.640625 9.050781 20.75 9.050781 C 20.917969 9.050781 21.085938 9.03125 21.25 8.988281 C 21.523438 8.921875 21.773438 8.804688 21.996094 8.636719 C 22.214844 8.476562 22.394531 8.277344 22.53125 8.042969 C 22.671875 7.8125 22.765625 7.5625 22.808594 7.296875 C 22.851562 7.019531 22.839844 6.742188 22.769531 6.46875 C 22.703125 6.199219 22.585938 5.945312 22.417969 5.722656 C 22.257812 5.507812 22.058594 5.328125 21.828125 5.1875 C 21.59375 5.046875 21.34375 4.957031 21.078125 4.914062 C 20.800781 4.871094 20.523438 4.882812 20.253906 4.949219 C 19.980469 5.015625 19.726562 5.136719 19.503906 5.304688 C 19.289062 5.464844 19.109375 5.664062 18.96875 5.894531 C 18.832031 6.125 18.738281 6.378906 18.695312 6.644531 C 18.652344 6.917969 18.664062 7.195312 18.730469 7.46875 C 18.800781 7.742188 18.917969 7.992188 19.085938 8.214844 Z M 19.324219 6.109375 C 19.554688 5.726562 19.921875 5.460938 20.351562 5.351562 C 20.484375 5.320312 20.621094 5.304688 20.753906 5.304688 C 21.054688 5.304688 21.347656 5.386719 21.613281 5.542969 C 21.992188 5.773438 22.261719 6.136719 22.367188 6.570312 C 22.476562 7 22.40625 7.449219 22.175781 7.832031 C 21.949219 8.210938 21.582031 8.480469 21.152344 8.585938 C 21.019531 8.621094 20.882812 8.636719 20.75 8.636719 C 20.449219 8.636719 20.152344 8.554688 19.890625 8.394531 C 19.511719 8.164062 19.242188 7.800781 19.136719 7.367188 C 19.027344 6.9375 19.097656 6.488281 19.324219 6.109375 Z M 19.324219 6.109375 " fill-opacity="1" fill-rule="nonzero"/><path fill="#935f3d" d="M 7.226562 18.230469 C 6.855469 18.078125 6.445312 18.085938 6.074219 18.242188 C 5.703125 18.402344 5.417969 18.695312 5.269531 19.066406 C 5.117188 19.441406 5.125 19.851562 5.28125 20.21875 C 5.441406 20.589844 5.734375 20.875 6.105469 21.027344 C 6.289062 21.097656 6.476562 21.136719 6.667969 21.136719 C 6.867188 21.136719 7.070312 21.09375 7.261719 21.011719 C 7.628906 20.855469 7.917969 20.5625 8.066406 20.1875 C 8.214844 19.816406 8.210938 19.40625 8.054688 19.035156 C 7.894531 18.664062 7.601562 18.378906 7.226562 18.230469 Z M 7.097656 20.632812 C 6.828125 20.746094 6.53125 20.75 6.261719 20.640625 C 5.992188 20.53125 5.777344 20.324219 5.664062 20.058594 C 5.550781 19.789062 5.546875 19.492188 5.652344 19.222656 C 5.761719 18.949219 5.96875 18.738281 6.238281 18.625 C 6.375 18.566406 6.523438 18.535156 6.667969 18.535156 C 6.804688 18.535156 6.941406 18.5625 7.074219 18.613281 C 7.34375 18.722656 7.554688 18.929688 7.671875 19.199219 C 7.90625 19.75 7.648438 20.394531 7.097656 20.632812 Z M 7.097656 20.632812 " fill-opacity="1" fill-rule="nonzero"/></svg>