<svg xmlns="http://www.w3.org/2000/svg" xmlns:xlink="http://www.w3.org/1999/xlink" width="40" zoomAndPan="magnify" viewBox="0 0 30 30.000001" height="40" preserveAspectRatio="xMidYMid meet" version="1.0"><defs><clipPath id="4066d26987"><path d="M 0.484375 0 L 29.515625 0 L 29.515625 29.03125 L 0.484375 29.03125 Z M 0.484375 0 " clip-rule="nonzero"/></clipPath><clipPath id="5aff9d5686"><path d="M 3.386719 5.226562 L 19 5.226562 L 19 24 L 3.386719 24 Z M 3.386719 5.226562 " clip-rule="nonzero"/></clipPath><clipPath id="7cc6dd5bb4"><path d="M 21 5.226562 L 26.613281 5.226562 L 26.613281 18 L 21 18 Z M 21 5.226562 " clip-rule="nonzero"/></clipPath></defs><g clip-path="url(#4066d26987)"><path fill="#ffffff" d="M 0.484375 0 L 29.515625 0 L 29.515625 29.03125 L 0.484375 29.03125 Z M 0.484375 0 " fill-opacity="1" fill-rule="nonzero"/><path fill="#ffffff" d="M 0.484375 0 L 29.515625 0 L 29.515625 29.03125 L 0.484375 29.03125 Z M 0.484375 0 " fill-opacity="1" fill-rule="nonzero"/></g><path fill="#935f3d" d="M 15.792969 9.175781 C 15.367188 8.929688 14.921875 8.738281 14.449219 8.601562 C 13.980469 8.460938 13.5 8.382812 13.011719 8.355469 C 12.523438 8.332031 12.035156 8.363281 11.554688 8.457031 C 11.074219 8.546875 10.609375 8.691406 10.164062 8.894531 C 9.71875 9.09375 9.300781 9.347656 8.914062 9.648438 C 8.527344 9.945312 8.179688 10.289062 7.875 10.671875 C 7.566406 11.054688 7.3125 11.46875 7.105469 11.910156 C 6.898438 12.355469 6.742188 12.816406 6.648438 13.296875 L 7.417969 13.453125 C 7.503906 13.03125 7.636719 12.628906 7.820312 12.242188 C 8 11.855469 8.226562 11.496094 8.492188 11.160156 C 8.761719 10.828125 9.0625 10.53125 9.402344 10.265625 C 9.738281 10.003906 10.101562 9.785156 10.492188 9.609375 C 10.882812 9.433594 11.285156 9.304688 11.707031 9.226562 C 12.125 9.148438 12.550781 9.117188 12.976562 9.136719 C 13.40625 9.160156 13.824219 9.230469 14.234375 9.347656 C 14.644531 9.46875 15.035156 9.636719 15.40625 9.847656 Z M 15.792969 9.175781 " fill-opacity="1" fill-rule="nonzero"/><path fill="#935f3d" d="M 12.703125 20.710938 C 13.804688 20.714844 14.835938 20.4375 15.792969 19.890625 L 15.40625 19.21875 C 15.035156 19.429688 14.644531 19.597656 14.234375 19.71875 C 13.820312 19.839844 13.402344 19.910156 12.976562 19.933594 C 12.546875 19.953125 12.125 19.921875 11.703125 19.84375 C 11.28125 19.765625 10.878906 19.636719 10.488281 19.460938 C 10.097656 19.285156 9.730469 19.066406 9.394531 18.804688 C 9.054688 18.539062 8.753906 18.242188 8.484375 17.910156 C 8.21875 17.574219 7.992188 17.210938 7.8125 16.824219 C 7.628906 16.4375 7.496094 16.035156 7.410156 15.613281 L 6.640625 15.769531 C 6.78125 16.46875 7.039062 17.121094 7.40625 17.730469 C 7.773438 18.339844 8.234375 18.871094 8.789062 19.324219 C 9.339844 19.773438 9.953125 20.117188 10.625 20.355469 C 11.296875 20.59375 11.988281 20.714844 12.703125 20.710938 Z M 12.703125 20.710938 " fill-opacity="1" fill-rule="nonzero"/><path fill="#935f3d" d="M 6.523438 14.53125 C 6.523438 14.675781 6.523438 14.816406 6.523438 14.953125 L 7.296875 14.882812 C 7.273438 14.648438 7.273438 14.417969 7.296875 14.183594 L 6.523438 14.113281 C 6.523438 14.25 6.523438 14.390625 6.523438 14.53125 Z M 6.523438 14.53125 " fill-opacity="1" fill-rule="nonzero"/><g clip-path="url(#5aff9d5686)"><path fill="#935f3d" d="M 3.78125 16.03125 C 3.664062 16.039062 3.574219 16.09375 3.503906 16.183594 C 3.433594 16.277344 3.410156 16.382812 3.433594 16.496094 C 3.675781 17.644531 4.117188 18.710938 4.761719 19.691406 C 4.824219 19.789062 4.914062 19.847656 5.027344 19.863281 C 5.140625 19.878906 5.242188 19.851562 5.328125 19.78125 C 5.472656 19.667969 5.636719 19.582031 5.8125 19.523438 C 5.988281 19.46875 6.167969 19.445312 6.351562 19.457031 C 6.539062 19.46875 6.714844 19.511719 6.882812 19.585938 C 7.050781 19.660156 7.203125 19.765625 7.332031 19.894531 C 7.464844 20.027344 7.566406 20.175781 7.640625 20.34375 C 7.71875 20.511719 7.761719 20.691406 7.769531 20.875 C 7.78125 21.058594 7.757812 21.238281 7.703125 21.417969 C 7.648438 21.59375 7.5625 21.753906 7.445312 21.898438 C 7.375 21.988281 7.347656 22.089844 7.363281 22.203125 C 7.382812 22.316406 7.4375 22.402344 7.535156 22.464844 C 8.519531 23.113281 9.585938 23.558594 10.742188 23.800781 C 10.851562 23.824219 10.957031 23.804688 11.046875 23.734375 C 11.140625 23.667969 11.191406 23.578125 11.203125 23.460938 C 11.222656 23.277344 11.273438 23.101562 11.359375 22.933594 C 11.441406 22.769531 11.554688 22.621094 11.691406 22.496094 C 11.832031 22.371094 11.988281 22.277344 12.160156 22.207031 C 12.335938 22.140625 12.515625 22.109375 12.703125 22.109375 C 12.886719 22.109375 13.070312 22.140625 13.242188 22.207031 C 13.417969 22.277344 13.574219 22.371094 13.710938 22.496094 C 13.851562 22.621094 13.960938 22.769531 14.046875 22.933594 C 14.128906 23.101562 14.183594 23.277344 14.199219 23.460938 C 14.210938 23.578125 14.261719 23.667969 14.355469 23.734375 C 14.421875 23.785156 14.5 23.808594 14.582031 23.808594 L 14.664062 23.808594 C 15.8125 23.570312 16.878906 23.125 17.863281 22.480469 C 17.957031 22.417969 18.015625 22.332031 18.03125 22.21875 C 18.050781 22.105469 18.023438 22.003906 17.949219 21.914062 C 17.832031 21.769531 17.746094 21.609375 17.691406 21.433594 C 17.632812 21.257812 17.609375 21.074219 17.621094 20.890625 C 17.628906 20.707031 17.671875 20.527344 17.746094 20.359375 C 17.824219 20.191406 17.925781 20.039062 18.058594 19.910156 L 18.089844 19.882812 L 17.863281 19.554688 L 17.636719 19.242188 C 17.59375 19.269531 17.554688 19.304688 17.519531 19.34375 C 17.164062 19.699219 16.953125 20.125 16.878906 20.621094 C 16.808594 21.117188 16.890625 21.585938 17.132812 22.027344 C 16.429688 22.4375 15.6875 22.746094 14.898438 22.949219 C 14.753906 22.46875 14.480469 22.078125 14.078125 21.777344 C 13.675781 21.480469 13.222656 21.328125 12.722656 21.328125 C 12.21875 21.328125 11.765625 21.480469 11.363281 21.777344 C 10.960938 22.078125 10.6875 22.46875 10.542969 22.949219 C 9.757812 22.746094 9.011719 22.441406 8.316406 22.027344 C 8.550781 21.582031 8.632812 21.113281 8.5625 20.613281 C 8.488281 20.117188 8.273438 19.691406 7.917969 19.335938 C 7.5625 18.976562 7.132812 18.761719 6.636719 18.691406 C 6.140625 18.617188 5.667969 18.699219 5.226562 18.9375 C 4.808594 18.234375 4.5 17.492188 4.296875 16.703125 C 4.777344 16.558594 5.167969 16.285156 5.46875 15.882812 C 5.769531 15.480469 5.917969 15.027344 5.917969 14.527344 C 5.917969 14.023438 5.769531 13.570312 5.46875 13.167969 C 5.167969 12.765625 4.777344 12.492188 4.296875 12.347656 C 4.5 11.558594 4.808594 10.816406 5.226562 10.117188 C 5.667969 10.355469 6.140625 10.4375 6.636719 10.363281 C 7.132812 10.292969 7.5625 10.078125 7.917969 9.722656 C 8.273438 9.363281 8.488281 8.9375 8.5625 8.441406 C 8.632812 7.941406 8.550781 7.472656 8.316406 7.03125 C 9.011719 6.613281 9.753906 6.304688 10.542969 6.101562 C 10.6875 6.582031 10.960938 6.972656 11.363281 7.273438 C 11.765625 7.570312 12.21875 7.722656 12.722656 7.722656 C 13.222656 7.722656 13.675781 7.570312 14.078125 7.273438 C 14.480469 6.972656 14.753906 6.582031 14.898438 6.101562 C 15.6875 6.304688 16.433594 6.613281 17.132812 7.03125 C 16.894531 7.46875 16.808594 7.9375 16.882812 8.429688 C 16.953125 8.925781 17.164062 9.351562 17.519531 9.707031 C 17.554688 9.746094 17.597656 9.78125 17.640625 9.808594 L 18.109375 9.199219 L 18.078125 9.171875 C 17.945312 9.042969 17.84375 8.890625 17.765625 8.722656 C 17.691406 8.554688 17.648438 8.375 17.640625 8.191406 C 17.628906 8.007812 17.652344 7.824219 17.710938 7.648438 C 17.765625 7.472656 17.851562 7.3125 17.96875 7.167969 C 18.042969 7.078125 18.066406 6.980469 18.050781 6.867188 C 18.03125 6.753906 17.976562 6.667969 17.882812 6.605469 C 16.894531 5.953125 15.820312 5.507812 14.664062 5.265625 C 14.550781 5.242188 14.449219 5.261719 14.355469 5.332031 C 14.265625 5.398438 14.210938 5.488281 14.199219 5.605469 C 14.183594 5.789062 14.128906 5.964844 14.046875 6.132812 C 13.960938 6.296875 13.851562 6.445312 13.710938 6.570312 C 13.574219 6.695312 13.417969 6.789062 13.242188 6.859375 C 13.070312 6.925781 12.886719 6.957031 12.703125 6.957031 C 12.515625 6.957031 12.335938 6.925781 12.160156 6.859375 C 11.988281 6.789062 11.832031 6.695312 11.691406 6.570312 C 11.554688 6.445312 11.441406 6.296875 11.359375 6.132812 C 11.273438 5.964844 11.222656 5.789062 11.203125 5.605469 C 11.191406 5.488281 11.140625 5.398438 11.046875 5.332031 C 10.957031 5.261719 10.851562 5.242188 10.742188 5.265625 C 9.589844 5.503906 8.523438 5.949219 7.542969 6.597656 C 7.445312 6.660156 7.390625 6.746094 7.371094 6.859375 C 7.355469 6.972656 7.382812 7.070312 7.453125 7.160156 C 7.570312 7.304688 7.65625 7.464844 7.710938 7.640625 C 7.765625 7.820312 7.789062 8 7.777344 8.183594 C 7.769531 8.367188 7.726562 8.546875 7.648438 8.714844 C 7.574219 8.882812 7.472656 9.03125 7.339844 9.164062 C 7.210938 9.292969 7.058594 9.398438 6.890625 9.472656 C 6.722656 9.546875 6.546875 9.589844 6.359375 9.601562 C 6.175781 9.613281 5.996094 9.589844 5.820312 9.535156 C 5.644531 9.476562 5.480469 9.390625 5.335938 9.277344 C 5.25 9.207031 5.148438 9.179688 5.035156 9.195312 C 4.921875 9.210938 4.832031 9.269531 4.769531 9.367188 C 4.121094 10.351562 3.675781 11.417969 3.433594 12.570312 C 3.410156 12.683594 3.433594 12.785156 3.5 12.878906 C 3.566406 12.972656 3.660156 13.023438 3.773438 13.035156 C 3.957031 13.054688 4.136719 13.105469 4.300781 13.1875 C 4.46875 13.273438 4.613281 13.386719 4.738281 13.523438 C 4.863281 13.660156 4.960938 13.816406 5.027344 13.992188 C 5.09375 14.167969 5.128906 14.347656 5.128906 14.53125 C 5.128906 14.71875 5.09375 14.898438 5.027344 15.074219 C 4.960938 15.25 4.863281 15.40625 4.738281 15.542969 C 4.613281 15.679688 4.46875 15.792969 4.300781 15.875 C 4.136719 15.960938 3.957031 16.011719 3.773438 16.03125 Z M 3.78125 16.03125 " fill-opacity="1" fill-rule="nonzero"/></g><path fill="#935f3d" d="M 11.15625 12.988281 C 11.050781 12.988281 10.960938 13.027344 10.882812 13.101562 C 10.808594 13.175781 10.769531 13.269531 10.769531 13.375 L 10.769531 17.238281 C 10.769531 17.34375 10.808594 17.433594 10.882812 17.507812 C 10.960938 17.585938 11.050781 17.621094 11.15625 17.621094 L 13.472656 17.621094 C 13.582031 17.621094 13.671875 17.585938 13.746094 17.507812 C 13.824219 17.433594 13.859375 17.34375 13.859375 17.238281 L 13.859375 13.375 C 13.859375 13.269531 13.824219 13.175781 13.746094 13.101562 C 13.671875 13.027344 13.582031 12.988281 13.472656 12.988281 Z M 13.089844 16.851562 L 11.542969 16.851562 L 11.542969 13.761719 L 13.089844 13.761719 Z M 13.089844 16.851562 " fill-opacity="1" fill-rule="nonzero"/><path fill="#935f3d" d="M 17.722656 17.238281 L 17.722656 11.828125 C 17.722656 11.722656 17.683594 11.632812 17.609375 11.558594 C 17.535156 11.480469 17.441406 11.445312 17.335938 11.445312 L 15.019531 11.445312 C 14.914062 11.445312 14.820312 11.480469 14.746094 11.558594 C 14.671875 11.632812 14.632812 11.722656 14.632812 11.828125 L 14.632812 17.238281 C 14.632812 17.34375 14.671875 17.433594 14.746094 17.507812 C 14.820312 17.585938 14.914062 17.621094 15.019531 17.621094 L 17.335938 17.621094 C 17.441406 17.621094 17.535156 17.585938 17.609375 17.507812 C 17.683594 17.433594 17.722656 17.34375 17.722656 17.238281 Z M 16.949219 16.851562 L 15.40625 16.851562 L 15.40625 12.214844 L 16.949219 12.214844 Z M 16.949219 16.851562 " fill-opacity="1" fill-rule="nonzero"/><path fill="#935f3d" d="M 18.882812 17.621094 L 21.199219 17.621094 C 21.304688 17.621094 21.394531 17.585938 21.472656 17.507812 C 21.546875 17.433594 21.585938 17.34375 21.585938 17.238281 L 21.585938 10.285156 C 21.585938 10.179688 21.546875 10.085938 21.472656 10.011719 C 21.394531 9.9375 21.304688 9.898438 21.199219 9.898438 L 18.882812 9.898438 C 18.773438 9.898438 18.683594 9.9375 18.609375 10.011719 C 18.53125 10.085938 18.496094 10.179688 18.496094 10.285156 L 18.496094 17.238281 C 18.496094 17.34375 18.53125 17.433594 18.609375 17.507812 C 18.683594 17.585938 18.773438 17.621094 18.882812 17.621094 Z M 19.265625 10.671875 L 20.8125 10.671875 L 20.8125 16.851562 L 19.265625 16.851562 Z M 19.265625 10.671875 " fill-opacity="1" fill-rule="nonzero"/><g clip-path="url(#7cc6dd5bb4)"><path fill="#935f3d" d="M 21.585938 9.125 L 22.355469 9.125 L 22.355469 17.238281 C 22.355469 17.34375 22.394531 17.433594 22.46875 17.507812 C 22.546875 17.585938 22.636719 17.621094 22.742188 17.621094 L 25.058594 17.621094 C 25.167969 17.621094 25.257812 17.585938 25.332031 17.507812 C 25.410156 17.433594 25.445312 17.34375 25.445312 17.238281 L 25.445312 9.125 L 26.21875 9.125 C 26.378906 9.125 26.492188 9.054688 26.566406 8.914062 C 26.636719 8.769531 26.625 8.636719 26.527344 8.507812 L 24.210938 5.417969 C 24.132812 5.316406 24.03125 5.265625 23.902344 5.265625 C 23.773438 5.265625 23.671875 5.316406 23.59375 5.417969 L 21.277344 8.507812 C 21.179688 8.636719 21.167969 8.773438 21.242188 8.914062 C 21.3125 9.054688 21.425781 9.125 21.585938 9.125 Z M 23.902344 6.296875 L 25.445312 8.355469 L 25.058594 8.355469 C 24.953125 8.355469 24.863281 8.390625 24.789062 8.46875 C 24.710938 8.542969 24.675781 8.632812 24.675781 8.738281 L 24.675781 16.851562 L 23.128906 16.851562 L 23.128906 8.738281 C 23.128906 8.632812 23.089844 8.542969 23.015625 8.46875 C 22.941406 8.390625 22.851562 8.355469 22.742188 8.355469 L 22.355469 8.355469 Z M 23.902344 6.296875 " fill-opacity="1" fill-rule="nonzero"/></g></svg>