<svg xmlns="http://www.w3.org/2000/svg" xmlns:xlink="http://www.w3.org/1999/xlink" width="40" zoomAndPan="magnify" viewBox="0 0 30 30.000001" height="40" preserveAspectRatio="xMidYMid meet" version="1.0"><defs><clipPath id="6ee660270e"><path d="M 0.484375 0 L 29.515625 0 L 29.515625 29.03125 L 0.484375 29.03125 Z M 0.484375 0 " clip-rule="nonzero"/></clipPath><clipPath id="5b7cfcfd7d"><path d="M 14 2.902344 L 16 2.902344 L 16 5 L 14 5 Z M 14 2.902344 " clip-rule="nonzero"/></clipPath><clipPath id="8aba3aa396"><path d="M 12 20 L 18 20 L 18 26.128906 L 12 26.128906 Z M 12 20 " clip-rule="nonzero"/></clipPath><clipPath id="2fceecb5cf"><path d="M 21 16 L 26.613281 16 L 26.613281 22 L 21 22 Z M 21 16 " clip-rule="nonzero"/></clipPath><clipPath id="4a66582d2f"><path d="M 3.386719 16 L 9 16 L 9 22 L 3.386719 22 Z M 3.386719 16 " clip-rule="nonzero"/></clipPath></defs><g clip-path="url(#6ee660270e)"><path fill="#ffffff" d="M 0.484375 0 L 29.515625 0 L 29.515625 29.03125 L 0.484375 29.03125 Z M 0.484375 0 " fill-opacity="1" fill-rule="nonzero"/><path fill="#ffffff" d="M 0.484375 0 L 29.515625 0 L 29.515625 29.03125 L 0.484375 29.03125 Z M 0.484375 0 " fill-opacity="1" fill-rule="nonzero"/></g><g clip-path="url(#5b7cfcfd7d)"><path fill="#935f3d" d="M 14.625 2.902344 L 15.375 2.902344 L 15.375 4.027344 L 14.625 4.027344 Z M 14.625 2.902344 " fill-opacity="1" fill-rule="nonzero"/></g><path fill="#935f3d" d="M 11.785156 13.789062 C 12.257812 14.636719 12.816406 15.449219 13.378906 16.238281 C 12.300781 16.550781 11.628906 17.167969 11.628906 17.886719 C 11.628906 18.957031 13.078125 19.761719 15 19.761719 C 16.921875 19.761719 18.371094 18.957031 18.371094 17.886719 C 18.371094 17.160156 17.6875 16.539062 16.589844 16.230469 C 17.136719 15.441406 17.6875 14.628906 18.164062 13.777344 C 19.074219 12.148438 19.496094 10.753906 19.496094 9.394531 C 19.496094 6.847656 17.480469 4.777344 15 4.777344 C 12.527344 4.777344 10.507812 6.847656 10.503906 9.394531 C 10.503906 10.820312 10.910156 12.21875 11.785156 13.789062 Z M 17.621094 17.886719 C 17.621094 18.417969 16.5 19.011719 15 19.011719 C 13.5 19.011719 12.378906 18.417969 12.378906 17.886719 C 12.378906 17.550781 12.894531 17.109375 13.847656 16.894531 C 14.136719 17.296875 14.421875 17.699219 14.691406 18.097656 C 14.761719 18.199219 14.878906 18.261719 15 18.261719 C 15.003906 18.261719 15.003906 18.261719 15.003906 18.261719 C 15.132812 18.261719 15.246094 18.195312 15.316406 18.089844 C 15.570312 17.703125 15.84375 17.300781 16.132812 16.890625 C 16.992188 17.082031 17.621094 17.492188 17.621094 17.886719 Z M 15 5.527344 C 17.066406 5.527344 18.746094 7.261719 18.746094 9.394531 C 18.746094 10.621094 18.351562 11.898438 17.511719 13.414062 C 16.972656 14.375 16.324219 15.304688 15.699219 16.199219 C 15.453125 16.550781 15.21875 16.886719 14.996094 17.21875 C 14.78125 16.90625 14.558594 16.597656 14.332031 16.285156 C 13.671875 15.363281 12.988281 14.410156 12.441406 13.421875 C 11.628906 11.96875 11.253906 10.691406 11.253906 9.394531 C 11.257812 7.261719 12.9375 5.527344 15 5.527344 Z M 15 5.527344 " fill-opacity="1" fill-rule="nonzero"/><path fill="#935f3d" d="M 15 12.269531 C 16.652344 12.269531 17.996094 10.925781 17.996094 9.273438 C 17.996094 7.621094 16.652344 6.273438 15 6.273438 C 13.347656 6.273438 12.003906 7.621094 12.003906 9.273438 C 12.003906 10.925781 13.347656 12.269531 15 12.269531 Z M 15 7.023438 C 16.238281 7.023438 17.246094 8.03125 17.246094 9.273438 C 17.246094 10.511719 16.238281 11.519531 15 11.519531 C 13.761719 11.519531 12.753906 10.511719 12.753906 9.273438 C 12.753906 8.03125 13.761719 7.023438 15 7.023438 Z M 15 7.023438 " fill-opacity="1" fill-rule="nonzero"/><path fill="#935f3d" d="M 14.039062 9.707031 L 13.9375 10.335938 C 13.914062 10.476562 13.972656 10.617188 14.089844 10.703125 C 14.207031 10.785156 14.359375 10.792969 14.488281 10.722656 L 15 10.441406 L 15.511719 10.722656 C 15.570312 10.753906 15.632812 10.769531 15.695312 10.769531 C 15.769531 10.769531 15.847656 10.746094 15.910156 10.703125 C 16.027344 10.617188 16.085938 10.476562 16.0625 10.335938 L 15.960938 9.707031 L 16.390625 9.269531 C 16.488281 9.167969 16.523438 9.019531 16.480469 8.886719 C 16.433594 8.753906 16.320312 8.65625 16.179688 8.636719 L 15.601562 8.546875 L 15.339844 7.988281 C 15.277344 7.855469 15.144531 7.773438 15 7.773438 C 14.855469 7.773438 14.722656 7.855469 14.660156 7.988281 L 14.398438 8.546875 L 13.820312 8.636719 C 13.679688 8.65625 13.566406 8.753906 13.519531 8.886719 C 13.476562 9.019531 13.511719 9.167969 13.609375 9.269531 Z M 14.710938 9.257812 C 14.832031 9.238281 14.9375 9.160156 14.992188 9.046875 L 15 9.027344 L 15.007812 9.046875 C 15.0625 9.160156 15.167969 9.238281 15.289062 9.257812 L 15.347656 9.265625 L 15.292969 9.320312 C 15.210938 9.40625 15.171875 9.523438 15.191406 9.640625 L 15.199219 9.695312 L 15.179688 9.683594 C 15.125 9.652344 15.0625 9.636719 15 9.636719 C 14.9375 9.636719 14.875 9.652344 14.820312 9.683594 L 14.800781 9.695312 L 14.808594 9.640625 C 14.828125 9.523438 14.789062 9.40625 14.707031 9.320312 L 14.652344 9.265625 Z M 14.710938 9.257812 " fill-opacity="1" fill-rule="nonzero"/><g clip-path="url(#8aba3aa396)"><path fill="#935f3d" d="M 12.753906 20.882812 C 12.546875 20.882812 12.378906 21.050781 12.378906 21.257812 L 12.378906 25.753906 C 12.378906 25.960938 12.546875 26.128906 12.753906 26.128906 L 17.246094 26.128906 C 17.453125 26.128906 17.621094 25.960938 17.621094 25.753906 L 17.621094 21.257812 C 17.621094 21.050781 17.453125 20.882812 17.246094 20.882812 Z M 14.625 21.632812 L 15.375 21.632812 L 15.375 22.757812 L 14.625 22.757812 Z M 16.875 25.378906 L 13.125 25.378906 L 13.125 21.632812 L 13.875 21.632812 L 13.875 23.132812 C 13.875 23.339844 14.042969 23.507812 14.25 23.507812 L 15.75 23.507812 C 15.957031 23.507812 16.125 23.339844 16.125 23.132812 L 16.125 21.632812 L 16.875 21.632812 Z M 16.875 25.378906 " fill-opacity="1" fill-rule="nonzero"/></g><g clip-path="url(#2fceecb5cf)"><path fill="#935f3d" d="M 26.238281 16.015625 L 21.742188 16.015625 C 21.535156 16.015625 21.367188 16.183594 21.367188 16.390625 L 21.367188 20.882812 C 21.367188 21.089844 21.535156 21.257812 21.742188 21.257812 L 26.238281 21.257812 C 26.445312 21.257812 26.613281 21.089844 26.613281 20.882812 L 26.613281 16.390625 C 26.613281 16.183594 26.445312 16.015625 26.238281 16.015625 Z M 23.617188 16.765625 L 24.367188 16.765625 L 24.367188 17.886719 L 23.617188 17.886719 Z M 25.863281 20.511719 L 22.117188 20.511719 L 22.117188 16.765625 L 22.867188 16.765625 L 22.867188 18.261719 C 22.867188 18.46875 23.035156 18.636719 23.242188 18.636719 L 24.738281 18.636719 C 24.945312 18.636719 25.113281 18.46875 25.113281 18.261719 L 25.113281 16.765625 L 25.863281 16.765625 Z M 25.863281 20.511719 " fill-opacity="1" fill-rule="nonzero"/></g><g clip-path="url(#4a66582d2f)"><path fill="#935f3d" d="M 3.761719 21.257812 L 8.257812 21.257812 C 8.464844 21.257812 8.632812 21.089844 8.632812 20.882812 L 8.632812 16.390625 C 8.632812 16.183594 8.464844 16.015625 8.257812 16.015625 L 3.761719 16.015625 C 3.554688 16.015625 3.386719 16.183594 3.386719 16.390625 L 3.386719 20.882812 C 3.386719 21.089844 3.554688 21.257812 3.761719 21.257812 Z M 5.632812 16.765625 L 6.382812 16.765625 L 6.382812 17.886719 L 5.632812 17.886719 Z M 4.136719 16.765625 L 4.886719 16.765625 L 4.886719 18.261719 C 4.886719 18.46875 5.054688 18.636719 5.261719 18.636719 L 6.757812 18.636719 C 6.964844 18.636719 7.132812 18.46875 7.132812 18.261719 L 7.132812 16.765625 L 7.882812 16.765625 L 7.882812 20.511719 L 4.136719 20.511719 Z M 4.136719 16.765625 " fill-opacity="1" fill-rule="nonzero"/></g><path fill="#935f3d" d="M 20.246094 8.898438 L 21.367188 8.898438 L 21.367188 9.644531 L 20.246094 9.644531 Z M 20.246094 8.898438 " fill-opacity="1" fill-rule="nonzero"/><path fill="#935f3d" d="M 8.632812 8.898438 L 9.753906 8.898438 L 9.753906 9.644531 L 8.632812 9.644531 Z M 8.632812 8.898438 " fill-opacity="1" fill-rule="nonzero"/><path fill="#935f3d" d="M 10.230469 5.035156 L 10.761719 4.503906 L 11.554688 5.296875 L 11.027344 5.828125 Z M 10.230469 5.035156 " fill-opacity="1" fill-rule="nonzero"/><path fill="#935f3d" d="M 18.445312 5.296875 L 19.238281 4.503906 L 19.769531 5.035156 L 18.972656 5.828125 Z M 18.445312 5.296875 " fill-opacity="1" fill-rule="nonzero"/><path fill="#935f3d" d="M 10.957031 13.558594 L 10.800781 12.824219 C 9.082031 13.1875 7.585938 13.796875 6.472656 14.585938 L 6.90625 15.195312 C 7.933594 14.464844 9.335938 13.898438 10.957031 13.558594 Z M 10.957031 13.558594 " fill-opacity="1" fill-rule="nonzero"/><path fill="#935f3d" d="M 23.832031 22.3125 L 23.398438 21.703125 C 22.242188 22.523438 20.566406 23.152344 18.683594 23.46875 L 18.808594 24.207031 C 20.828125 23.867188 22.566406 23.214844 23.832031 22.3125 Z M 23.832031 22.3125 " fill-opacity="1" fill-rule="nonzero"/><path fill="#935f3d" d="M 6.167969 22.3125 C 7.433594 23.214844 9.171875 23.867188 11.191406 24.207031 L 11.316406 23.46875 C 9.433594 23.152344 7.757812 22.523438 6.601562 21.703125 Z M 6.167969 22.3125 " fill-opacity="1" fill-rule="nonzero"/><path fill="#935f3d" d="M 19.417969 13.570312 C 21.011719 13.914062 22.386719 14.476562 23.398438 15.195312 L 23.832031 14.585938 C 22.738281 13.808594 21.265625 13.203125 19.574219 12.835938 Z M 19.417969 13.570312 " fill-opacity="1" fill-rule="nonzero"/></svg>