<svg xmlns="http://www.w3.org/2000/svg" xmlns:xlink="http://www.w3.org/1999/xlink" width="40" zoomAndPan="magnify" viewBox="0 0 30 30.000001" height="40" preserveAspectRatio="xMidYMid meet" version="1.0"><defs><clipPath id="76a76209df"><path d="M 0.484375 0 L 29.515625 0 L 29.515625 29.03125 L 0.484375 29.03125 Z M 0.484375 0 " clip-rule="nonzero"/></clipPath><clipPath id="e3463a8696"><path d="M 3.386719 2.902344 L 26.613281 2.902344 L 26.613281 26.128906 L 3.386719 26.128906 Z M 3.386719 2.902344 " clip-rule="nonzero"/></clipPath></defs><g clip-path="url(#76a76209df)"><path fill="#ffffff" d="M 0.484375 0 L 29.515625 0 L 29.515625 29.03125 L 0.484375 29.03125 Z M 0.484375 0 " fill-opacity="1" fill-rule="nonzero"/><path fill="#ffffff" d="M 0.484375 0 L 29.515625 0 L 29.515625 29.03125 L 0.484375 29.03125 Z M 0.484375 0 " fill-opacity="1" fill-rule="nonzero"/></g><g clip-path="url(#e3463a8696)"><path fill="#935f3d" d="M 19.910156 7.636719 C 19.8125 7.636719 19.734375 7.558594 19.734375 7.460938 C 19.734375 7.363281 19.8125 7.28125 19.910156 7.28125 L 24.863281 7.28125 C 25 7.28125 25.125 7.335938 25.214844 7.429688 C 25.300781 7.519531 25.355469 7.640625 25.355469 7.777344 L 25.355469 18.664062 C 25.355469 18.796875 25.300781 18.921875 25.214844 19.011719 C 25.125 19.101562 25 19.160156 24.863281 19.160156 L 5.140625 19.160156 C 5.007812 19.160156 4.882812 19.101562 4.792969 19.011719 C 4.703125 18.921875 4.644531 18.800781 4.644531 18.664062 L 4.644531 8.023438 C 4.644531 7.820312 4.730469 7.632812 4.863281 7.5 C 5 7.363281 5.1875 7.28125 5.390625 7.28125 L 10.390625 7.28125 C 10.488281 7.28125 10.566406 7.363281 10.566406 7.460938 C 10.566406 7.558594 10.488281 7.636719 10.390625 7.636719 L 5.390625 7.636719 C 5.28125 7.636719 5.183594 7.679688 5.113281 7.75 C 5.042969 7.820312 5 7.914062 5 8.023438 L 5 18.664062 C 5 18.699219 5.015625 18.734375 5.042969 18.761719 C 5.070312 18.789062 5.105469 18.804688 5.140625 18.804688 L 24.863281 18.804688 C 24.902344 18.804688 24.9375 18.789062 24.960938 18.765625 C 24.988281 18.738281 25.003906 18.703125 25.003906 18.664062 L 25.003906 7.777344 C 25.003906 7.738281 24.988281 7.703125 24.960938 7.675781 C 24.9375 7.652344 24.902344 7.636719 24.863281 7.636719 Z M 16.183594 14.863281 C 16.222656 14.722656 16.363281 14.632812 16.507812 14.671875 C 16.648438 14.707031 16.738281 14.851562 16.699219 14.992188 L 16.15625 17.144531 C 16.117188 17.285156 15.976562 17.371094 15.832031 17.335938 C 15.691406 17.300781 15.601562 17.15625 15.640625 17.015625 Z M 14.636719 15.792969 C 14.636719 15.648438 14.753906 15.527344 14.902344 15.527344 C 15.046875 15.527344 15.167969 15.648438 15.167969 15.792969 L 15.167969 18 C 15.167969 18.148438 15.046875 18.265625 14.902344 18.265625 C 14.753906 18.265625 14.636719 18.148438 14.636719 18 Z M 13.039062 15 C 13.003906 14.859375 13.085938 14.710938 13.226562 14.675781 C 13.371094 14.636719 13.515625 14.722656 13.550781 14.863281 L 14.121094 17.011719 C 14.15625 17.152344 14.074219 17.300781 13.929688 17.335938 C 13.789062 17.375 13.644531 17.289062 13.605469 17.148438 Z M 14.519531 10.847656 L 14.753906 14.089844 C 14.753906 14.125 14.769531 14.152344 14.792969 14.175781 C 14.816406 14.195312 14.84375 14.207031 14.878906 14.207031 C 14.914062 14.207031 14.945312 14.195312 14.964844 14.171875 C 14.988281 14.152344 15.003906 14.121094 15.007812 14.085938 L 15.164062 10.839844 C 15.164062 10.835938 15.164062 10.839844 15.164062 10.824219 C 15.164062 10.738281 15.128906 10.660156 15.074219 10.601562 C 15.019531 10.542969 14.941406 10.507812 14.855469 10.503906 C 14.851562 10.503906 14.855469 10.503906 14.839844 10.503906 C 14.828125 10.503906 14.820312 10.503906 14.816406 10.503906 C 14.730469 10.507812 14.65625 10.546875 14.601562 10.605469 C 14.550781 10.664062 14.515625 10.738281 14.515625 10.824219 C 14.515625 10.835938 14.515625 10.84375 14.519531 10.847656 Z M 14.222656 14.128906 L 14.210938 13.945312 L 13.105469 13.945312 C 13.070312 13.945312 13.035156 13.941406 13 13.933594 C 12.96875 13.925781 12.9375 13.917969 12.90625 13.902344 C 12.878906 13.890625 12.851562 13.878906 12.828125 13.859375 L 11.429688 14.722656 C 11.382812 14.753906 11.328125 14.773438 11.277344 14.785156 C 11.191406 14.800781 11.105469 14.789062 11.027344 14.753906 C 10.949219 14.722656 10.882812 14.664062 10.835938 14.589844 C 10.808594 14.542969 10.785156 14.492188 10.777344 14.4375 C 10.71875 14.117188 10.683594 13.792969 10.664062 13.476562 C 10.640625 13.113281 10.640625 12.761719 10.648438 12.4375 C 10.664062 12.007812 10.75 11.59375 10.902344 11.207031 C 11.058594 10.8125 11.277344 10.449219 11.550781 10.128906 C 11.558594 10.121094 11.5625 10.117188 11.566406 10.109375 C 11.675781 10 11.78125 9.90625 11.886719 9.824219 C 11.945312 9.777344 12.003906 9.734375 12.0625 9.699219 C 12.0625 9.621094 12.0625 9.546875 12.0625 9.46875 C 12.066406 8.671875 12.132812 7.957031 12.269531 7.261719 C 12.410156 6.566406 12.621094 5.882812 12.921875 5.152344 C 12.925781 5.144531 12.929688 5.136719 12.933594 5.132812 L 12.933594 5.128906 C 12.933594 5.121094 12.9375 5.109375 12.945312 5.097656 C 13.078125 4.796875 13.230469 4.5 13.398438 4.207031 C 13.570312 3.914062 13.761719 3.625 13.976562 3.34375 C 14.03125 3.269531 14.09375 3.203125 14.164062 3.148438 C 14.363281 2.988281 14.605469 2.90625 14.847656 2.902344 C 15.089844 2.898438 15.335938 2.972656 15.539062 3.125 C 15.609375 3.179688 15.671875 3.242188 15.730469 3.316406 C 15.949219 3.585938 16.144531 3.867188 16.316406 4.15625 C 16.492188 4.445312 16.640625 4.742188 16.773438 5.039062 L 16.777344 5.042969 C 16.78125 5.050781 16.785156 5.058594 16.792969 5.070312 C 17.066406 5.546875 17.257812 6.214844 17.390625 6.917969 C 17.554688 7.828125 17.621094 8.804688 17.617188 9.484375 C 17.617188 9.59375 17.613281 9.699219 17.609375 9.804688 C 18.003906 10.03125 18.316406 10.398438 18.546875 10.816406 C 18.84375 11.359375 19.007812 12 19.027344 12.539062 C 19.035156 12.835938 19.035156 13.160156 19.015625 13.496094 C 19 13.835938 18.960938 14.183594 18.902344 14.527344 L 18.898438 14.539062 C 18.890625 14.59375 18.867188 14.644531 18.839844 14.691406 C 18.792969 14.765625 18.726562 14.820312 18.648438 14.855469 C 18.582031 14.882812 18.507812 14.894531 18.433594 14.886719 C 18.421875 14.886719 18.410156 14.886719 18.398438 14.886719 C 18.347656 14.875 18.292969 14.855469 18.246094 14.824219 L 16.757812 13.910156 L 16.753906 13.910156 C 16.726562 13.921875 16.695312 13.929688 16.664062 13.9375 C 16.632812 13.941406 16.601562 13.945312 16.570312 13.945312 L 15.542969 13.945312 L 15.535156 14.113281 C 15.527344 14.289062 15.449219 14.445312 15.332031 14.558594 C 15.214844 14.671875 15.054688 14.738281 14.878906 14.738281 C 14.707031 14.738281 14.550781 14.671875 14.429688 14.5625 C 14.3125 14.453125 14.234375 14.300781 14.222656 14.128906 Z M 14.171875 13.414062 L 13.988281 10.886719 C 13.984375 10.863281 13.984375 10.84375 13.984375 10.824219 C 13.984375 10.601562 14.070312 10.398438 14.214844 10.242188 C 14.355469 10.089844 14.554688 9.988281 14.777344 9.972656 C 14.800781 9.972656 14.820312 9.96875 14.839844 9.96875 L 14.882812 9.972656 C 15.109375 9.984375 15.3125 10.082031 15.457031 10.234375 C 15.605469 10.390625 15.695312 10.597656 15.695312 10.824219 L 15.691406 10.867188 L 15.570312 13.414062 L 16.542969 13.414062 C 16.632812 13.09375 16.8125 12.394531 16.9375 11.472656 C 17.003906 11.015625 17.054688 10.503906 17.074219 9.957031 L 17.074219 9.949219 C 17.082031 9.796875 17.085938 9.640625 17.085938 9.484375 C 17.089844 8.828125 17.027344 7.890625 16.867188 7.015625 C 16.773438 6.515625 16.652344 6.039062 16.488281 5.65625 C 16.445312 5.667969 16.402344 5.675781 16.355469 5.675781 L 13.320312 5.675781 C 13.308594 5.675781 13.296875 5.675781 13.285156 5.675781 C 13.066406 6.25 12.902344 6.800781 12.792969 7.363281 C 12.660156 8.035156 12.597656 8.714844 12.589844 9.472656 C 12.589844 9.59375 12.589844 9.714844 12.59375 9.835938 C 12.59375 9.839844 12.59375 9.847656 12.59375 9.855469 C 12.597656 9.972656 12.601562 10.089844 12.605469 10.207031 C 12.621094 10.46875 12.636719 10.714844 12.664062 10.953125 C 12.722656 11.558594 12.816406 12.089844 12.90625 12.519531 C 12.992188 12.921875 13.078125 13.230469 13.128906 13.414062 Z M 14.902344 9.503906 C 14.472656 9.503906 14.085938 9.328125 13.804688 9.046875 C 13.523438 8.769531 13.347656 8.378906 13.347656 7.953125 C 13.347656 7.523438 13.523438 7.136719 13.804688 6.855469 C 14.085938 6.574219 14.472656 6.398438 14.902344 6.398438 C 15.328125 6.398438 15.71875 6.574219 16 6.855469 C 16.277344 7.132812 16.453125 7.523438 16.453125 7.953125 C 16.453125 8.378906 16.277344 8.769531 16 9.046875 C 15.71875 9.328125 15.328125 9.503906 14.902344 9.503906 Z M 14.179688 8.671875 C 14.363281 8.855469 14.621094 8.972656 14.902344 8.972656 C 15.183594 8.972656 15.4375 8.855469 15.621094 8.671875 C 15.804688 8.488281 15.921875 8.234375 15.921875 7.953125 C 15.921875 7.667969 15.804688 7.414062 15.621094 7.230469 C 15.4375 7.046875 15.183594 6.933594 14.902344 6.933594 C 14.621094 6.933594 14.363281 7.046875 14.179688 7.230469 C 13.996094 7.414062 13.882812 7.667969 13.882812 7.953125 C 13.882812 8.234375 13.996094 8.488281 14.179688 8.671875 Z M 16.238281 5.144531 C 16.125 4.898438 16 4.660156 15.863281 4.429688 C 15.703125 4.160156 15.519531 3.898438 15.316406 3.648438 C 15.289062 3.609375 15.253906 3.578125 15.21875 3.550781 C 15.113281 3.46875 14.984375 3.429688 14.855469 3.433594 C 14.726562 3.433594 14.601562 3.476562 14.496094 3.5625 C 14.460938 3.589844 14.429688 3.625 14.398438 3.664062 C 14.199219 3.925781 14.019531 4.199219 13.859375 4.472656 C 13.730469 4.695312 13.613281 4.917969 13.507812 5.144531 Z M 12.574219 13.394531 C 12.519531 13.207031 12.453125 12.945312 12.386719 12.628906 C 12.292969 12.1875 12.199219 11.636719 12.136719 11.007812 C 12.113281 10.796875 12.097656 10.574219 12.082031 10.351562 C 12.039062 10.390625 11.996094 10.433594 11.949219 10.476562 C 11.714844 10.753906 11.527344 11.0625 11.398438 11.398438 C 11.265625 11.734375 11.191406 12.089844 11.179688 12.453125 C 11.167969 12.757812 11.171875 13.09375 11.195312 13.441406 C 11.210938 13.6875 11.234375 13.941406 11.277344 14.195312 Z M 17.582031 10.433594 C 17.554688 10.828125 17.511719 11.203125 17.464844 11.546875 C 17.34375 12.433594 17.175781 13.125 17.078125 13.480469 L 18.402344 14.296875 C 18.445312 14.015625 18.472656 13.734375 18.488281 13.46875 C 18.503906 13.144531 18.507812 12.835938 18.496094 12.554688 C 18.480469 12.09375 18.339844 11.542969 18.082031 11.074219 C 17.945312 10.824219 17.777344 10.601562 17.582031 10.433594 Z M 13.050781 22.890625 L 13.050781 24.082031 C 13.050781 24.324219 12.953125 24.542969 12.792969 24.699219 C 12.636719 24.859375 12.417969 24.957031 12.179688 24.957031 L 10.027344 24.957031 C 9.742188 24.957031 9.476562 25.007812 9.230469 25.101562 C 8.988281 25.195312 8.761719 25.339844 8.558594 25.53125 C 8.550781 25.539062 8.546875 25.546875 8.546875 25.554688 C 8.542969 25.558594 8.546875 25.570312 8.550781 25.578125 C 8.550781 25.585938 8.558594 25.59375 8.5625 25.597656 C 8.566406 25.601562 8.574219 25.601562 8.582031 25.601562 L 21.421875 25.601562 C 21.429688 25.601562 21.4375 25.601562 21.445312 25.597656 C 21.449219 25.59375 21.457031 25.585938 21.457031 25.578125 L 21.460938 25.570312 C 21.460938 25.5625 21.460938 25.558594 21.460938 25.554688 C 21.460938 25.546875 21.457031 25.542969 21.449219 25.535156 C 21.242188 25.339844 21.015625 25.195312 20.773438 25.101562 C 20.53125 25.003906 20.265625 24.957031 19.980469 24.957031 L 17.828125 24.957031 C 17.585938 24.957031 17.367188 24.859375 17.210938 24.699219 C 17.050781 24.542969 16.953125 24.324219 16.953125 24.082031 L 16.953125 22.890625 Z M 17.484375 22.890625 L 17.484375 24.082031 C 17.484375 24.179688 17.523438 24.265625 17.585938 24.328125 C 17.648438 24.386719 17.734375 24.425781 17.828125 24.425781 L 19.980469 24.425781 C 20.328125 24.425781 20.660156 24.488281 20.964844 24.605469 C 21.273438 24.726562 21.554688 24.90625 21.8125 25.144531 L 21.8125 25.148438 C 21.898438 25.230469 21.953125 25.332031 21.980469 25.4375 C 22.003906 25.539062 21.996094 25.648438 21.960938 25.75 C 21.957031 25.757812 21.957031 25.765625 21.953125 25.769531 C 21.910156 25.882812 21.835938 25.972656 21.742188 26.035156 C 21.648438 26.097656 21.539062 26.132812 21.421875 26.132812 L 8.582031 26.132812 C 8.464844 26.132812 8.355469 26.097656 8.261719 26.035156 C 8.171875 25.972656 8.097656 25.878906 8.054688 25.769531 C 8.011719 25.660156 8.003906 25.546875 8.027344 25.4375 C 8.050781 25.332031 8.105469 25.234375 8.1875 25.152344 L 8.195312 25.144531 C 8.449219 24.90625 8.730469 24.726562 9.039062 24.605469 C 9.347656 24.488281 9.675781 24.425781 10.027344 24.425781 L 12.179688 24.425781 C 12.273438 24.425781 12.355469 24.386719 12.417969 24.328125 C 12.480469 24.265625 12.519531 24.179688 12.519531 24.082031 L 12.519531 22.890625 L 4.488281 22.890625 C 4.199219 22.890625 3.933594 22.769531 3.738281 22.578125 C 3.546875 22.386719 3.425781 22.121094 3.425781 21.828125 L 3.425781 7.0625 C 3.425781 6.769531 3.546875 6.503906 3.738281 6.3125 C 3.933594 6.121094 4.199219 6 4.488281 6 L 10.546875 6 C 10.695312 6 10.8125 6.121094 10.8125 6.265625 C 10.8125 6.414062 10.695312 6.53125 10.546875 6.53125 L 4.488281 6.53125 C 4.34375 6.53125 4.210938 6.59375 4.117188 6.6875 C 4.019531 6.785156 3.960938 6.917969 3.960938 7.0625 L 3.960938 21.828125 C 3.960938 21.972656 4.019531 22.105469 4.117188 22.203125 C 4.210938 22.296875 4.34375 22.359375 4.488281 22.359375 L 25.515625 22.359375 C 25.664062 22.359375 25.792969 22.296875 25.890625 22.203125 L 25.902344 22.191406 C 25.992188 22.09375 26.046875 21.96875 26.046875 21.828125 L 26.046875 7.0625 C 26.046875 6.917969 25.988281 6.785156 25.890625 6.6875 L 25.878906 6.675781 C 25.785156 6.585938 25.65625 6.53125 25.515625 6.53125 L 19.582031 6.53125 C 19.433594 6.53125 19.316406 6.414062 19.316406 6.265625 C 19.316406 6.121094 19.433594 6 19.582031 6 L 25.515625 6 C 25.800781 6 26.058594 6.113281 26.25 6.296875 C 26.257812 6.300781 26.261719 6.308594 26.269531 6.3125 C 26.460938 6.503906 26.578125 6.769531 26.578125 7.0625 L 26.578125 21.828125 C 26.578125 22.109375 26.464844 22.371094 26.28125 22.5625 C 26.277344 22.566406 26.273438 22.574219 26.269531 22.578125 C 26.074219 22.769531 25.808594 22.890625 25.515625 22.890625 Z M 15.003906 21.847656 C 14.816406 21.847656 14.644531 21.773438 14.523438 21.648438 C 14.398438 21.527344 14.324219 21.355469 14.324219 21.167969 C 14.324219 20.980469 14.398438 20.808594 14.523438 20.6875 C 14.648438 20.5625 14.816406 20.488281 15.003906 20.488281 C 15.191406 20.488281 15.359375 20.5625 15.484375 20.6875 C 15.609375 20.808594 15.683594 20.980469 15.683594 21.167969 C 15.683594 21.355469 15.609375 21.523438 15.484375 21.648438 C 15.363281 21.773438 15.191406 21.847656 15.003906 21.847656 Z M 14.773438 21.398438 C 14.832031 21.457031 14.914062 21.496094 15.003906 21.496094 C 15.09375 21.496094 15.175781 21.457031 15.234375 21.398438 C 15.292969 21.339844 15.328125 21.257812 15.328125 21.167969 C 15.328125 21.078125 15.292969 20.996094 15.234375 20.9375 C 15.175781 20.878906 15.09375 20.839844 15.003906 20.839844 C 14.914062 20.839844 14.832031 20.878906 14.773438 20.9375 C 14.714844 20.996094 14.675781 21.078125 14.675781 21.167969 C 14.675781 21.257812 14.714844 21.339844 14.773438 21.398438 Z M 14.773438 21.398438 " fill-opacity="1" fill-rule="nonzero"/></g></svg>