<svg xmlns="http://www.w3.org/2000/svg" xmlns:xlink="http://www.w3.org/1999/xlink" width="40" zoomAndPan="magnify" viewBox="0 0 30 30.000001" height="40" preserveAspectRatio="xMidYMid meet" version="1.0"><defs><clipPath id="0e3fd9c9ff"><path d="M 0.484375 0 L 29.515625 0 L 29.515625 29.03125 L 0.484375 29.03125 Z M 0.484375 0 " clip-rule="nonzero"/></clipPath><clipPath id="ca523d1347"><path d="M 3.386719 2.933594 L 26.613281 2.933594 L 26.613281 26.15625 L 3.386719 26.15625 Z M 3.386719 2.933594 " clip-rule="nonzero"/></clipPath></defs><g clip-path="url(#0e3fd9c9ff)"><path fill="#ffffff" d="M 0.484375 0 L 29.515625 0 L 29.515625 29.03125 L 0.484375 29.03125 Z M 0.484375 0 " fill-opacity="1" fill-rule="nonzero"/><path fill="#ffffff" d="M 0.484375 0 L 29.515625 0 L 29.515625 29.03125 L 0.484375 29.03125 Z M 0.484375 0 " fill-opacity="1" fill-rule="nonzero"/></g><g clip-path="url(#ca523d1347)"><path fill="#935f3d" d="M 18.039062 23.285156 C 15.054688 24.308594 11.71875 23.722656 9.261719 21.761719 C 9.324219 21.621094 9.363281 21.46875 9.363281 21.304688 C 9.363281 20.695312 8.867188 20.203125 8.257812 20.203125 C 8.09375 20.203125 7.941406 20.238281 7.800781 20.300781 C 6.171875 18.261719 5.484375 15.613281 5.898438 13.042969 L 6.394531 13.726562 C 6.460938 13.816406 6.558594 13.863281 6.660156 13.863281 C 6.730469 13.863281 6.796875 13.84375 6.855469 13.800781 C 7 13.695312 7.035156 13.492188 6.929688 13.34375 L 5.992188 12.046875 C 5.941406 11.976562 5.863281 11.929688 5.777344 11.917969 C 5.691406 11.902344 5.605469 11.921875 5.535156 11.972656 L 4.238281 12.910156 C 4.09375 13.015625 4.058594 13.222656 4.164062 13.367188 C 4.269531 13.515625 4.476562 13.546875 4.625 13.441406 L 5.242188 12.996094 C 4.816406 15.742188 5.5625 18.566406 7.3125 20.738281 C 7.210938 20.90625 7.15625 21.097656 7.15625 21.304688 C 7.15625 21.914062 7.648438 22.40625 8.257812 22.40625 C 8.464844 22.40625 8.660156 22.351562 8.824219 22.25 C 10.601562 23.683594 12.816406 24.4375 15.054688 24.4375 C 16.128906 24.4375 17.210938 24.261719 18.253906 23.90625 C 18.425781 23.847656 18.515625 23.660156 18.457031 23.488281 C 18.398438 23.316406 18.210938 23.226562 18.039062 23.285156 Z M 7.8125 21.304688 C 7.8125 21.058594 8.011719 20.859375 8.257812 20.859375 C 8.503906 20.859375 8.703125 21.058594 8.703125 21.304688 C 8.703125 21.550781 8.503906 21.75 8.257812 21.75 C 8.011719 21.75 7.8125 21.550781 7.8125 21.304688 Z M 12.03125 5.773438 C 15.015625 4.75 18.351562 5.332031 20.808594 7.296875 C 20.742188 7.433594 20.707031 7.589844 20.707031 7.75 C 20.707031 8.359375 21.203125 8.855469 21.8125 8.855469 C 21.972656 8.855469 22.128906 8.820312 22.269531 8.753906 C 23.90625 10.804688 24.589844 13.417969 24.171875 16.015625 L 23.675781 15.328125 C 23.566406 15.179688 23.363281 15.148438 23.214844 15.253906 C 23.070312 15.359375 23.035156 15.566406 23.140625 15.714844 L 24.078125 17.007812 C 24.128906 17.078125 24.203125 17.125 24.289062 17.140625 C 24.308594 17.144531 24.324219 17.144531 24.34375 17.144531 C 24.410156 17.144531 24.480469 17.121094 24.535156 17.082031 L 25.832031 16.148438 C 25.976562 16.039062 26.011719 15.835938 25.90625 15.6875 C 25.796875 15.539062 25.59375 15.507812 25.445312 15.613281 L 24.828125 16.058594 C 25.035156 14.722656 24.96875 13.335938 24.625 12.027344 C 24.273438 10.679688 23.632812 9.402344 22.757812 8.316406 C 22.855469 8.152344 22.914062 7.957031 22.914062 7.75 C 22.914062 7.144531 22.417969 6.648438 21.8125 6.648438 C 21.605469 6.648438 21.410156 6.707031 21.246094 6.804688 C 18.613281 4.683594 15.023438 4.050781 11.816406 5.152344 C 11.644531 5.210938 11.554688 5.394531 11.613281 5.566406 C 11.671875 5.738281 11.859375 5.832031 12.03125 5.773438 Z M 22.257812 7.75 C 22.257812 7.996094 22.058594 8.199219 21.8125 8.199219 C 21.566406 8.199219 21.363281 7.996094 21.363281 7.75 C 21.363281 7.507812 21.566406 7.304688 21.8125 7.304688 C 22.058594 7.304688 22.257812 7.507812 22.257812 7.75 Z M 6.792969 3.851562 L 6.792969 3.261719 C 6.792969 3.078125 6.941406 2.933594 7.121094 2.933594 C 7.304688 2.933594 7.449219 3.078125 7.449219 3.261719 L 7.449219 3.851562 C 7.449219 4.03125 7.304688 4.179688 7.121094 4.179688 C 6.941406 4.179688 6.792969 4.03125 6.792969 3.851562 Z M 4.902344 3.945312 C 4.808594 3.785156 4.863281 3.585938 5.019531 3.496094 C 5.179688 3.40625 5.378906 3.457031 5.46875 3.617188 L 5.765625 4.125 C 5.855469 4.28125 5.800781 4.484375 5.644531 4.574219 C 5.59375 4.605469 5.535156 4.617188 5.480469 4.617188 C 5.367188 4.617188 5.257812 4.558594 5.195312 4.453125 Z M 4.113281 5.777344 L 3.601562 5.480469 C 3.445312 5.390625 3.390625 5.191406 3.484375 5.03125 C 3.574219 4.875 3.773438 4.820312 3.933594 4.914062 L 4.441406 5.207031 C 4.597656 5.296875 4.652344 5.5 4.5625 5.65625 C 4.5 5.761719 4.390625 5.820312 4.277344 5.820312 C 4.222656 5.820312 4.164062 5.804688 4.113281 5.777344 Z M 8.480469 4.125 L 8.773438 3.617188 C 8.863281 3.457031 9.066406 3.40625 9.222656 3.496094 C 9.378906 3.585938 9.433594 3.785156 9.34375 3.945312 L 9.046875 4.453125 C 8.988281 4.558594 8.878906 4.617188 8.761719 4.617188 C 8.707031 4.617188 8.652344 4.605469 8.597656 4.574219 C 8.441406 4.484375 8.386719 4.28125 8.480469 4.125 Z M 9.679688 5.65625 C 9.589844 5.5 9.644531 5.296875 9.800781 5.207031 L 10.3125 4.914062 C 10.46875 4.820312 10.667969 4.875 10.761719 5.03125 C 10.851562 5.191406 10.796875 5.390625 10.640625 5.480469 L 10.128906 5.777344 C 10.078125 5.804688 10.023438 5.820312 9.964844 5.820312 C 9.851562 5.820312 9.742188 5.761719 9.679688 5.65625 Z M 9.28125 6.757812 C 9.28125 5.566406 8.3125 4.597656 7.121094 4.597656 C 5.929688 4.597656 4.960938 5.566406 4.960938 6.757812 C 4.960938 7.363281 5.15625 7.667969 5.347656 7.960938 C 5.519531 8.222656 5.691406 8.496094 5.773438 9.085938 C 5.597656 9.199219 5.476562 9.394531 5.476562 9.621094 L 5.476562 10.273438 C 5.476562 10.617188 5.753906 10.894531 6.09375 10.90625 C 6.105469 11.230469 6.375 11.496094 6.707031 11.496094 L 7.535156 11.496094 C 7.867188 11.496094 8.136719 11.230469 8.152344 10.90625 C 8.492188 10.894531 8.765625 10.617188 8.765625 10.273438 L 8.765625 9.621094 C 8.765625 9.394531 8.648438 9.199219 8.46875 9.085938 C 8.550781 8.496094 8.726562 8.222656 8.894531 7.960938 C 9.085938 7.667969 9.28125 7.363281 9.28125 6.757812 Z M 8.109375 10.25 L 7.824219 10.25 C 7.640625 10.25 7.492188 10.394531 7.492188 10.578125 L 7.492188 10.835938 L 6.75 10.835938 L 6.75 10.578125 C 6.75 10.394531 6.601562 10.25 6.421875 10.25 L 6.136719 10.25 L 6.136719 9.644531 L 8.109375 9.644531 Z M 8.34375 7.605469 C 8.152344 7.898438 7.921875 8.257812 7.820312 8.988281 L 7.449219 8.988281 L 7.449219 7.289062 L 8.070312 6.929688 C 8.230469 6.839844 8.28125 6.640625 8.191406 6.480469 C 8.101562 6.324219 7.898438 6.269531 7.742188 6.359375 L 7.121094 6.71875 L 6.5 6.359375 C 6.34375 6.269531 6.140625 6.324219 6.050781 6.480469 C 5.960938 6.640625 6.015625 6.839844 6.171875 6.929688 L 6.792969 7.289062 L 6.792969 8.988281 L 6.421875 8.988281 C 6.320312 8.257812 6.089844 7.898438 5.898438 7.605469 C 5.730469 7.34375 5.617188 7.167969 5.617188 6.757812 C 5.617188 5.929688 6.292969 5.253906 7.121094 5.253906 C 7.949219 5.253906 8.625 5.929688 8.625 6.757812 C 8.625 7.167969 8.511719 7.34375 8.34375 7.605469 Z M 26.050781 21.015625 C 25.835938 21.015625 25.65625 20.898438 25.574219 20.699219 C 25.492188 20.5 25.535156 20.289062 25.6875 20.136719 C 25.914062 19.910156 25.914062 19.542969 25.6875 19.316406 L 25.148438 18.777344 C 24.921875 18.550781 24.554688 18.550781 24.328125 18.777344 C 24.175781 18.929688 23.964844 18.972656 23.765625 18.886719 C 23.566406 18.804688 23.445312 18.628906 23.445312 18.414062 C 23.445312 18.09375 23.1875 17.832031 22.867188 17.832031 L 22.101562 17.832031 C 21.785156 17.832031 21.523438 18.09375 21.523438 18.414062 C 21.523438 18.628906 21.40625 18.804688 21.207031 18.886719 C 21.003906 18.972656 20.796875 18.929688 20.644531 18.777344 C 20.417969 18.550781 20.050781 18.550781 19.824219 18.777344 L 19.285156 19.316406 C 19.175781 19.425781 19.113281 19.570312 19.113281 19.726562 C 19.113281 19.882812 19.175781 20.027344 19.285156 20.136719 C 19.4375 20.289062 19.476562 20.5 19.394531 20.699219 C 19.3125 20.898438 19.132812 21.015625 18.917969 21.015625 C 18.597656 21.015625 18.339844 21.277344 18.339844 21.597656 L 18.339844 22.359375 C 18.339844 22.679688 18.597656 22.9375 18.917969 22.9375 C 19.132812 22.9375 19.3125 23.058594 19.394531 23.257812 C 19.476562 23.457031 19.4375 23.667969 19.285156 23.820312 C 19.175781 23.929688 19.113281 24.074219 19.113281 24.230469 C 19.113281 24.386719 19.175781 24.53125 19.285156 24.640625 L 19.824219 25.179688 C 19.933594 25.289062 20.078125 25.347656 20.234375 25.347656 C 20.386719 25.347656 20.535156 25.289062 20.644531 25.179688 C 20.796875 25.027344 21.007812 24.984375 21.207031 25.066406 C 21.40625 25.152344 21.523438 25.328125 21.523438 25.542969 C 21.523438 25.863281 21.785156 26.125 22.105469 26.125 L 22.867188 26.125 C 23.1875 26.125 23.445312 25.863281 23.445312 25.542969 C 23.445312 25.328125 23.566406 25.152344 23.765625 25.070312 C 23.964844 24.984375 24.175781 25.027344 24.328125 25.179688 C 24.554688 25.40625 24.921875 25.40625 25.148438 25.179688 L 25.6875 24.640625 C 25.914062 24.414062 25.914062 24.046875 25.6875 23.820312 C 25.535156 23.667969 25.492188 23.457031 25.574219 23.257812 C 25.65625 23.058594 25.835938 22.9375 26.050781 22.9375 C 26.371094 22.9375 26.628906 22.679688 26.628906 22.359375 L 26.628906 21.597656 C 26.628906 21.277344 26.371094 21.015625 26.050781 21.015625 Z M 25.972656 22.285156 C 25.523438 22.3125 25.144531 22.585938 24.96875 23.007812 C 24.792969 23.429688 24.871094 23.890625 25.167969 24.226562 L 24.734375 24.660156 C 24.398438 24.363281 23.9375 24.285156 23.511719 24.460938 C 23.089844 24.636719 22.820312 25.015625 22.792969 25.464844 L 22.179688 25.464844 C 22.152344 25.015625 21.878906 24.636719 21.457031 24.460938 C 21.035156 24.285156 20.574219 24.363281 20.234375 24.660156 L 19.800781 24.226562 C 20.101562 23.890625 20.175781 23.429688 20.003906 23.007812 C 19.828125 22.585938 19.445312 22.3125 18.996094 22.285156 L 18.996094 21.671875 C 19.445312 21.644531 19.828125 21.371094 20.003906 20.949219 C 20.175781 20.527344 20.101562 20.066406 19.800781 19.726562 L 20.234375 19.296875 C 20.574219 19.59375 21.035156 19.671875 21.457031 19.496094 C 21.878906 19.320312 22.152344 18.941406 22.179688 18.488281 L 22.792969 18.488281 C 22.820312 18.941406 23.089844 19.320312 23.511719 19.496094 C 23.9375 19.671875 24.398438 19.59375 24.734375 19.296875 L 25.167969 19.726562 C 24.871094 20.066406 24.792969 20.527344 24.96875 20.949219 C 25.144531 21.371094 25.523438 21.644531 25.972656 21.671875 Z M 22.484375 19.816406 C 21.292969 19.816406 20.324219 20.785156 20.324219 21.976562 C 20.324219 23.171875 21.292969 24.140625 22.484375 24.140625 C 23.675781 24.140625 24.648438 23.171875 24.648438 21.976562 C 24.648438 20.785156 23.675781 19.816406 22.484375 19.816406 Z M 22.484375 23.484375 C 21.65625 23.484375 20.980469 22.808594 20.980469 21.976562 C 20.980469 21.148438 21.65625 20.472656 22.484375 20.472656 C 23.316406 20.472656 23.992188 21.148438 23.992188 21.976562 C 23.992188 22.808594 23.316406 23.484375 22.484375 23.484375 Z M 15.199219 8.488281 C 15.097656 8.429688 14.972656 8.429688 14.871094 8.488281 L 9.886719 11.367188 C 9.785156 11.425781 9.722656 11.53125 9.722656 11.648438 L 9.722656 17.40625 C 9.722656 17.523438 9.785156 17.632812 9.886719 17.691406 L 14.871094 20.566406 C 14.921875 20.597656 14.976562 20.613281 15.035156 20.613281 C 15.089844 20.613281 15.148438 20.597656 15.199219 20.566406 L 20.183594 17.691406 C 20.285156 17.632812 20.347656 17.523438 20.347656 17.40625 L 20.347656 11.648438 C 20.347656 11.53125 20.285156 11.425781 20.183594 11.367188 Z M 15.035156 9.152344 L 19.363281 11.648438 L 18.21875 12.308594 L 13.894531 9.8125 Z M 15.035156 14.148438 L 10.707031 11.648438 L 11.847656 10.992188 L 16.175781 13.488281 Z M 16.832031 13.109375 L 12.507812 10.613281 L 13.234375 10.191406 L 17.5625 12.6875 Z M 17.164062 13.679688 L 17.890625 13.257812 L 17.890625 14.898438 L 17.164062 15.320312 Z M 10.378906 12.21875 L 14.707031 14.71875 L 14.707031 19.714844 L 10.378906 17.214844 Z M 15.363281 19.714844 L 15.363281 14.71875 L 16.503906 14.058594 L 16.503906 15.886719 C 16.503906 16.003906 16.566406 16.113281 16.667969 16.171875 C 16.71875 16.203125 16.777344 16.214844 16.832031 16.214844 C 16.890625 16.214844 16.945312 16.203125 17 16.171875 L 18.382812 15.371094 C 18.488281 15.3125 18.550781 15.203125 18.550781 15.085938 L 18.550781 12.878906 L 19.691406 12.21875 L 19.691406 17.214844 Z M 15.363281 19.714844 " fill-opacity="1" fill-rule="nonzero"/></g></svg>