<svg xmlns="http://www.w3.org/2000/svg" xmlns:xlink="http://www.w3.org/1999/xlink" width="40" zoomAndPan="magnify" viewBox="0 0 30 30.000001" height="40" preserveAspectRatio="xMidYMid meet" version="1.0"><defs><clipPath id="3082a543dc"><path d="M 0.484375 0 L 29.515625 0 L 29.515625 29.03125 L 0.484375 29.03125 Z M 0.484375 0 " clip-rule="nonzero"/></clipPath><clipPath id="c8e64869d2"><path d="M 5.359375 2.902344 L 24.957031 2.902344 L 24.957031 26.128906 L 5.359375 26.128906 Z M 5.359375 2.902344 " clip-rule="nonzero"/></clipPath></defs><g clip-path="url(#3082a543dc)"><path fill="#ffffff" d="M 0.484375 0 L 29.515625 0 L 29.515625 29.03125 L 0.484375 29.03125 Z M 0.484375 0 " fill-opacity="1" fill-rule="nonzero"/><path fill="#ffffff" d="M 0.484375 0 L 29.515625 0 L 29.515625 29.03125 L 0.484375 29.03125 Z M 0.484375 0 " fill-opacity="1" fill-rule="nonzero"/></g><g clip-path="url(#c8e64869d2)"><path fill="#935f3d" d="M 22.988281 8.132812 L 22.988281 3.367188 C 22.988281 3.246094 22.945312 3.144531 22.863281 3.058594 C 22.777344 2.972656 22.671875 2.929688 22.554688 2.929688 L 7.394531 2.929688 C 7.273438 2.929688 7.171875 2.972656 7.085938 3.058594 C 7 3.144531 6.957031 3.246094 6.957031 3.367188 L 6.957031 6.542969 L 5.363281 25.671875 C 5.351562 25.800781 5.390625 25.910156 5.476562 26.003906 C 5.5625 26.097656 5.671875 26.144531 5.796875 26.144531 L 20.160156 26.144531 C 20.207031 26.144531 20.253906 26.136719 20.296875 26.121094 C 20.3125 26.113281 20.324219 26.109375 20.339844 26.101562 C 20.355469 26.097656 20.371094 26.089844 20.382812 26.082031 L 24.375 23.6875 C 24.53125 23.59375 24.601562 23.453125 24.582031 23.269531 Z M 7.832031 3.804688 L 22.117188 3.804688 L 22.117188 7.71875 L 16.558594 7.71875 C 16.507812 7.492188 16.421875 7.28125 16.300781 7.082031 C 16.179688 6.886719 16.027344 6.714844 15.847656 6.570312 C 15.667969 6.425781 15.46875 6.316406 15.25 6.238281 C 15.03125 6.160156 14.804688 6.121094 14.574219 6.121094 C 14.34375 6.121094 14.117188 6.160156 13.898438 6.238281 C 13.679688 6.316406 13.480469 6.425781 13.300781 6.570312 C 13.121094 6.714844 12.96875 6.886719 12.847656 7.082031 C 12.726562 7.28125 12.640625 7.492188 12.59375 7.71875 L 7.832031 7.71875 Z M 15.734375 8.15625 C 15.734375 8.308594 15.703125 8.457031 15.644531 8.597656 C 15.585938 8.742188 15.503906 8.867188 15.394531 8.976562 C 15.285156 9.082031 15.160156 9.167969 15.019531 9.226562 C 14.875 9.285156 14.726562 9.3125 14.574219 9.3125 C 14.421875 9.3125 14.273438 9.285156 14.132812 9.226562 C 13.988281 9.167969 13.863281 9.082031 13.753906 8.976562 C 13.644531 8.867188 13.5625 8.742188 13.503906 8.597656 C 13.445312 8.457031 13.414062 8.308594 13.414062 8.15625 C 13.414062 8 13.445312 7.855469 13.503906 7.710938 C 13.5625 7.570312 13.644531 7.445312 13.753906 7.335938 C 13.863281 7.226562 13.988281 7.144531 14.132812 7.085938 C 14.273438 7.027344 14.421875 6.996094 14.574219 6.996094 C 14.726562 6.996094 14.875 7.027344 15.019531 7.085938 C 15.160156 7.144531 15.285156 7.226562 15.394531 7.335938 C 15.503906 7.445312 15.585938 7.570312 15.644531 7.710938 C 15.703125 7.855469 15.734375 8 15.734375 8.15625 Z M 7.664062 8.59375 L 12.589844 8.59375 C 12.640625 8.816406 12.726562 9.03125 12.847656 9.226562 C 12.96875 9.421875 13.121094 9.59375 13.300781 9.738281 C 13.480469 9.882812 13.679688 9.996094 13.898438 10.074219 C 14.117188 10.148438 14.34375 10.1875 14.574219 10.1875 C 14.804688 10.1875 15.03125 10.148438 15.25 10.074219 C 15.46875 9.996094 15.667969 9.882812 15.847656 9.738281 C 16.027344 9.59375 16.179688 9.421875 16.300781 9.226562 C 16.421875 9.03125 16.507812 8.816406 16.558594 8.59375 L 22.050781 8.59375 L 19.777344 25.269531 L 6.273438 25.269531 Z M 20.714844 24.863281 L 22.496094 11.796875 L 23.683594 23.082031 Z M 20.714844 24.863281 " fill-opacity="1" fill-rule="nonzero"/></g><path fill="#935f3d" d="M 18.90625 18.972656 L 18.664062 18.972656 C 18.617188 18.445312 18.492188 17.9375 18.285156 17.449219 C 18.074219 16.960938 17.796875 16.519531 17.449219 16.117188 C 17.101562 15.71875 16.703125 15.382812 16.25 15.109375 C 15.792969 14.835938 15.308594 14.636719 14.792969 14.519531 C 14.875 14.328125 14.910156 14.128906 14.894531 13.917969 C 14.875 13.710938 14.808594 13.519531 14.695312 13.347656 C 14.582031 13.171875 14.433594 13.035156 14.25 12.933594 C 14.066406 12.835938 13.871094 12.785156 13.664062 12.785156 C 13.453125 12.785156 13.257812 12.835938 13.074219 12.933594 C 12.890625 13.035156 12.742188 13.171875 12.628906 13.347656 C 12.515625 13.519531 12.449219 13.710938 12.433594 13.917969 C 12.414062 14.128906 12.449219 14.328125 12.53125 14.519531 C 12.015625 14.636719 11.53125 14.835938 11.078125 15.109375 C 10.625 15.382812 10.222656 15.71875 9.875 16.117188 C 9.527344 16.519531 9.25 16.960938 9.042969 17.449219 C 8.835938 17.9375 8.707031 18.445312 8.660156 18.972656 L 8.417969 18.972656 C 8.300781 18.972656 8.195312 19.015625 8.109375 19.101562 C 8.027344 19.1875 7.984375 19.289062 7.984375 19.410156 C 7.984375 19.53125 8.027344 19.632812 8.109375 19.71875 C 8.195312 19.804688 8.300781 19.847656 8.417969 19.847656 L 8.445312 19.847656 L 8.992188 21.3125 C 9.066406 21.5 9.199219 21.59375 9.402344 21.59375 L 17.921875 21.59375 C 18.125 21.59375 18.261719 21.5 18.332031 21.3125 L 18.882812 19.847656 L 18.90625 19.847656 C 19.027344 19.847656 19.128906 19.804688 19.214844 19.71875 C 19.300781 19.632812 19.34375 19.53125 19.34375 19.410156 C 19.34375 19.289062 19.300781 19.1875 19.214844 19.101562 C 19.128906 19.015625 19.027344 18.972656 18.90625 18.972656 Z M 13.300781 14.023438 C 13.300781 13.925781 13.335938 13.839844 13.40625 13.769531 C 13.476562 13.699219 13.5625 13.664062 13.664062 13.664062 C 13.761719 13.664062 13.847656 13.699219 13.917969 13.769531 C 13.988281 13.839844 14.023438 13.925781 14.023438 14.023438 C 14.023438 14.125 13.988281 14.210938 13.917969 14.28125 C 13.847656 14.351562 13.761719 14.386719 13.664062 14.386719 C 13.5625 14.386719 13.476562 14.351562 13.40625 14.28125 C 13.335938 14.210938 13.300781 14.125 13.300781 14.023438 Z M 13.664062 15.257812 C 14.175781 15.257812 14.671875 15.351562 15.148438 15.535156 C 15.625 15.71875 16.054688 15.984375 16.4375 16.324219 C 16.816406 16.667969 17.125 17.066406 17.359375 17.523438 C 17.589844 17.980469 17.734375 18.464844 17.789062 18.972656 L 9.535156 18.972656 C 9.589844 18.464844 9.734375 17.980469 9.96875 17.523438 C 10.199219 17.066406 10.507812 16.667969 10.886719 16.324219 C 11.269531 15.984375 11.699219 15.71875 12.175781 15.535156 C 12.65625 15.351562 13.148438 15.257812 13.664062 15.257812 Z M 17.621094 20.71875 L 9.707031 20.71875 L 9.378906 19.847656 L 17.949219 19.847656 Z M 17.621094 20.71875 " fill-opacity="1" fill-rule="nonzero"/></svg>