<svg xmlns="http://www.w3.org/2000/svg" xmlns:xlink="http://www.w3.org/1999/xlink" width="40" zoomAndPan="magnify" viewBox="0 0 30 30.000001" height="40" preserveAspectRatio="xMidYMid meet" version="1.0"><defs><clipPath id="fca80ff497"><path d="M 0.484375 0 L 29.515625 0 L 29.515625 29.03125 L 0.484375 29.03125 Z M 0.484375 0 " clip-rule="nonzero"/></clipPath><clipPath id="b03594b998"><path d="M 22 7 L 26.613281 7 L 26.613281 17 L 22 17 Z M 22 7 " clip-rule="nonzero"/></clipPath><clipPath id="92cf32f0e6"><path d="M 3.386719 4.425781 L 24 4.425781 L 24 21 L 3.386719 21 Z M 3.386719 4.425781 " clip-rule="nonzero"/></clipPath><clipPath id="19c0122267"><path d="M 7 19 L 19 19 L 19 24.75 L 7 24.75 Z M 7 19 " clip-rule="nonzero"/></clipPath></defs><g clip-path="url(#fca80ff497)"><path fill="#ffffff" d="M 0.484375 0 L 29.515625 0 L 29.515625 29.03125 L 0.484375 29.03125 Z M 0.484375 0 " fill-opacity="1" fill-rule="nonzero"/><path fill="#ffffff" d="M 0.484375 0 L 29.515625 0 L 29.515625 29.03125 L 0.484375 29.03125 Z M 0.484375 0 " fill-opacity="1" fill-rule="nonzero"/></g><path fill="#935f3d" d="M 24.199219 15.820312 C 24.128906 15.820312 24.058594 15.800781 23.996094 15.761719 C 23.347656 15.359375 22.421875 14.789062 21.890625 14.460938 C 21.050781 13.945312 20.140625 13.6875 19.15625 13.6875 L 18.234375 13.6875 C 17.996094 13.6875 17.773438 13.636719 17.5625 13.53125 C 16.96875 13.234375 16.582031 12.570312 16.582031 11.839844 C 16.578125 11.351562 16.730469 10.921875 17.046875 10.550781 C 17.355469 10.183594 17.746094 9.996094 18.226562 9.988281 C 19.832031 9.921875 21.3125 9.460938 22.675781 8.609375 L 22.6875 8.601562 L 24.121094 7.777344 C 24.207031 7.726562 24.296875 7.710938 24.394531 7.726562 C 24.492188 7.746094 24.570312 7.792969 24.632812 7.871094 C 24.691406 7.953125 24.71875 8.039062 24.710938 8.140625 C 24.707031 8.238281 24.667969 8.324219 24.59375 8.390625 C 24.570312 8.414062 24.546875 8.433594 24.519531 8.449219 L 23.082031 9.273438 C 21.601562 10.199219 19.992188 10.699219 18.25 10.769531 L 18.234375 10.769531 C 17.988281 10.773438 17.789062 10.871094 17.636719 11.0625 C 17.449219 11.289062 17.355469 11.546875 17.359375 11.839844 C 17.359375 12.277344 17.578125 12.667969 17.910156 12.832031 C 18.011719 12.882812 18.117188 12.910156 18.230469 12.910156 L 19.15625 12.910156 C 20.285156 12.910156 21.332031 13.203125 22.296875 13.796875 C 22.828125 14.125 23.75 14.691406 24.398438 15.09375 C 24.570312 15.195312 24.628906 15.339844 24.578125 15.53125 C 24.523438 15.722656 24.398438 15.820312 24.199219 15.820312 Z M 24.199219 15.820312 " fill-opacity="1" fill-rule="nonzero"/><g clip-path="url(#b03594b998)"><path fill="#935f3d" d="M 24.796875 16.179688 C 23.605469 16.179688 22.980469 13.996094 22.980469 11.835938 C 22.980469 9.679688 23.605469 7.496094 24.796875 7.496094 C 25.988281 7.496094 26.613281 9.683594 26.613281 11.835938 C 26.613281 13.992188 25.988281 16.179688 24.796875 16.179688 Z M 24.796875 8.277344 C 24.445312 8.277344 23.761719 9.53125 23.761719 11.835938 C 23.761719 14.140625 24.445312 15.398438 24.796875 15.398438 C 25.148438 15.398438 25.832031 14.140625 25.832031 11.835938 C 25.832031 9.53125 25.148438 8.277344 24.796875 8.277344 Z M 24.796875 8.277344 " fill-opacity="1" fill-rule="nonzero"/></g><path fill="#935f3d" d="M 19.898438 17.5 L 18.480469 17.5 C 18.371094 17.5 18.28125 17.460938 18.203125 17.386719 C 18.128906 17.308594 18.089844 17.21875 18.089844 17.109375 L 18.089844 13.296875 C 18.089844 13.191406 18.128906 13.097656 18.203125 13.023438 C 18.28125 12.945312 18.371094 12.90625 18.480469 12.90625 C 18.585938 12.90625 18.679688 12.945312 18.753906 13.023438 C 18.832031 13.097656 18.871094 13.191406 18.871094 13.296875 L 18.871094 16.71875 L 19.507812 16.71875 L 19.507812 13.347656 C 19.507812 13.238281 19.546875 13.148438 19.621094 13.070312 C 19.699219 12.996094 19.789062 12.957031 19.898438 12.957031 C 20.007812 12.957031 20.097656 12.996094 20.175781 13.070312 C 20.25 13.148438 20.289062 13.238281 20.289062 13.347656 L 20.289062 17.109375 C 20.289062 17.21875 20.25 17.308594 20.175781 17.386719 C 20.097656 17.460938 20.007812 17.5 19.898438 17.5 Z M 19.898438 17.5 " fill-opacity="1" fill-rule="nonzero"/><path fill="#935f3d" d="M 23.683594 13.277344 L 23.421875 13.277344 C 23.3125 13.277344 23.222656 13.238281 23.144531 13.164062 C 23.070312 13.085938 23.03125 12.996094 23.03125 12.886719 C 23.03125 12.78125 23.070312 12.6875 23.144531 12.613281 C 23.222656 12.535156 23.3125 12.496094 23.421875 12.496094 L 23.683594 12.496094 C 23.875 12.507812 24.035156 12.449219 24.175781 12.316406 C 24.3125 12.1875 24.378906 12.027344 24.378906 11.839844 C 24.378906 11.648438 24.3125 11.488281 24.175781 11.359375 C 24.035156 11.230469 23.875 11.167969 23.683594 11.179688 L 23.421875 11.179688 C 23.3125 11.179688 23.222656 11.140625 23.144531 11.066406 C 23.070312 10.988281 23.03125 10.898438 23.03125 10.789062 C 23.03125 10.683594 23.070312 10.589844 23.144531 10.515625 C 23.222656 10.4375 23.3125 10.398438 23.421875 10.398438 L 23.683594 10.398438 C 23.878906 10.390625 24.070312 10.421875 24.253906 10.492188 C 24.433594 10.5625 24.597656 10.667969 24.738281 10.800781 C 24.878906 10.9375 24.988281 11.09375 25.0625 11.277344 C 25.140625 11.457031 25.179688 11.644531 25.179688 11.839844 C 25.179688 12.035156 25.140625 12.222656 25.0625 12.402344 C 24.988281 12.582031 24.878906 12.738281 24.738281 12.875 C 24.597656 13.011719 24.433594 13.113281 24.253906 13.183594 C 24.070312 13.253906 23.878906 13.285156 23.683594 13.277344 Z M 23.683594 13.277344 " fill-opacity="1" fill-rule="nonzero"/><g clip-path="url(#92cf32f0e6)"><path fill="#935f3d" d="M 21.851562 20.570312 L 4.929688 20.570312 C 4.722656 20.570312 4.527344 20.53125 4.339844 20.453125 C 4.148438 20.375 3.984375 20.261719 3.839844 20.117188 C 3.695312 19.972656 3.582031 19.808594 3.503906 19.621094 C 3.425781 19.429688 3.386719 19.234375 3.386719 19.03125 L 3.386719 5.964844 C 3.386719 5.761719 3.425781 5.566406 3.503906 5.375 C 3.582031 5.1875 3.695312 5.019531 3.839844 4.875 C 3.984375 4.734375 4.148438 4.621094 4.339844 4.542969 C 4.527344 4.464844 4.722656 4.425781 4.929688 4.425781 L 21.851562 4.425781 C 22.054688 4.425781 22.253906 4.464844 22.441406 4.542969 C 22.628906 4.621094 22.796875 4.734375 22.941406 4.875 C 23.085938 5.019531 23.195312 5.1875 23.273438 5.375 C 23.351562 5.566406 23.390625 5.761719 23.390625 5.964844 L 23.390625 8.871094 C 23.390625 8.976562 23.355469 9.070312 23.277344 9.144531 C 23.203125 9.222656 23.109375 9.257812 23 9.257812 C 22.894531 9.257812 22.800781 9.222656 22.726562 9.144531 C 22.648438 9.070312 22.613281 8.976562 22.613281 8.871094 L 22.613281 5.964844 C 22.609375 5.757812 22.535156 5.578125 22.386719 5.429688 C 22.242188 5.28125 22.0625 5.207031 21.851562 5.207031 L 4.929688 5.207031 C 4.71875 5.207031 4.539062 5.28125 4.390625 5.429688 C 4.242188 5.578125 4.167969 5.757812 4.167969 5.964844 L 4.167969 19.03125 C 4.167969 19.238281 4.242188 19.417969 4.390625 19.566406 C 4.539062 19.714844 4.71875 19.789062 4.929688 19.789062 L 21.851562 19.789062 C 22.0625 19.789062 22.242188 19.714844 22.386719 19.566406 C 22.535156 19.417969 22.609375 19.238281 22.613281 19.03125 L 22.613281 14.6875 C 22.613281 14.578125 22.648438 14.488281 22.726562 14.410156 C 22.800781 14.335938 22.894531 14.296875 23 14.296875 C 23.109375 14.296875 23.203125 14.335938 23.277344 14.410156 C 23.355469 14.488281 23.390625 14.578125 23.390625 14.6875 L 23.390625 19.03125 C 23.390625 19.234375 23.351562 19.429688 23.273438 19.621094 C 23.195312 19.808594 23.085938 19.972656 22.941406 20.117188 C 22.796875 20.261719 22.628906 20.375 22.441406 20.453125 C 22.253906 20.53125 22.054688 20.570312 21.851562 20.570312 Z M 21.851562 20.570312 " fill-opacity="1" fill-rule="nonzero"/></g><path fill="#935f3d" d="M 21.496094 19.0625 L 5.285156 19.0625 C 5.175781 19.0625 5.085938 19.027344 5.007812 18.949219 C 4.933594 18.875 4.894531 18.78125 4.894531 18.675781 L 4.894531 6.320312 C 4.894531 6.214844 4.933594 6.121094 5.007812 6.046875 C 5.085938 5.96875 5.175781 5.929688 5.285156 5.929688 L 21.496094 5.929688 C 21.601562 5.929688 21.695312 5.96875 21.773438 6.046875 C 21.847656 6.121094 21.886719 6.214844 21.886719 6.320312 L 21.886719 9.65625 C 21.886719 9.761719 21.847656 9.855469 21.773438 9.933594 C 21.695312 10.007812 21.601562 10.046875 21.496094 10.046875 C 21.386719 10.046875 21.296875 10.007812 21.21875 9.933594 C 21.144531 9.855469 21.105469 9.761719 21.105469 9.65625 L 21.105469 6.710938 L 5.675781 6.710938 L 5.675781 18.285156 L 21.105469 18.285156 L 21.105469 13.808594 C 21.105469 13.703125 21.144531 13.609375 21.21875 13.535156 C 21.296875 13.457031 21.386719 13.417969 21.496094 13.417969 C 21.601562 13.417969 21.695312 13.457031 21.773438 13.535156 C 21.847656 13.609375 21.886719 13.703125 21.886719 13.808594 L 21.886719 18.675781 C 21.886719 18.78125 21.847656 18.875 21.773438 18.949219 C 21.695312 19.027344 21.601562 19.0625 21.496094 19.0625 Z M 21.496094 19.0625 " fill-opacity="1" fill-rule="nonzero"/><path fill="#935f3d" d="M 11.875 8.433594 L 6.492188 8.433594 C 6.382812 8.433594 6.289062 8.394531 6.214844 8.320312 C 6.136719 8.242188 6.101562 8.152344 6.101562 8.042969 C 6.101562 7.933594 6.136719 7.84375 6.214844 7.765625 C 6.289062 7.691406 6.382812 7.652344 6.492188 7.652344 L 11.875 7.652344 C 11.980469 7.652344 12.074219 7.691406 12.148438 7.765625 C 12.226562 7.84375 12.265625 7.933594 12.265625 8.042969 C 12.265625 8.152344 12.226562 8.242188 12.148438 8.320312 C 12.074219 8.394531 11.980469 8.433594 11.875 8.433594 Z M 11.875 8.433594 " fill-opacity="1" fill-rule="nonzero"/><path fill="#935f3d" d="M 13.769531 10.703125 L 6.492188 10.703125 C 6.382812 10.703125 6.289062 10.664062 6.214844 10.589844 C 6.136719 10.511719 6.101562 10.421875 6.101562 10.3125 C 6.101562 10.207031 6.136719 10.113281 6.214844 10.039062 C 6.289062 9.960938 6.382812 9.921875 6.492188 9.921875 L 13.769531 9.921875 C 13.878906 9.921875 13.972656 9.960938 14.046875 10.039062 C 14.125 10.113281 14.160156 10.207031 14.160156 10.3125 C 14.160156 10.421875 14.125 10.511719 14.046875 10.589844 C 13.972656 10.664062 13.878906 10.703125 13.769531 10.703125 Z M 13.769531 10.703125 " fill-opacity="1" fill-rule="nonzero"/><path fill="#935f3d" d="M 15.140625 12.976562 L 6.492188 12.976562 C 6.382812 12.976562 6.289062 12.9375 6.214844 12.859375 C 6.136719 12.785156 6.101562 12.691406 6.101562 12.585938 C 6.101562 12.476562 6.136719 12.386719 6.214844 12.308594 C 6.289062 12.234375 6.382812 12.195312 6.492188 12.195312 L 15.140625 12.195312 C 15.246094 12.195312 15.339844 12.234375 15.417969 12.308594 C 15.492188 12.386719 15.53125 12.476562 15.53125 12.585938 C 15.53125 12.691406 15.492188 12.785156 15.417969 12.859375 C 15.339844 12.9375 15.246094 12.976562 15.140625 12.976562 Z M 15.140625 12.976562 " fill-opacity="1" fill-rule="nonzero"/><path fill="#935f3d" d="M 17.089844 15.246094 L 6.492188 15.246094 C 6.382812 15.246094 6.289062 15.207031 6.214844 15.128906 C 6.136719 15.054688 6.101562 14.960938 6.101562 14.855469 C 6.101562 14.746094 6.136719 14.65625 6.214844 14.578125 C 6.289062 14.5 6.382812 14.464844 6.492188 14.464844 L 17.089844 14.464844 C 17.199219 14.464844 17.292969 14.5 17.367188 14.578125 C 17.445312 14.65625 17.480469 14.746094 17.480469 14.855469 C 17.480469 14.960938 17.445312 15.054688 17.367188 15.128906 C 17.292969 15.207031 17.199219 15.246094 17.089844 15.246094 Z M 17.089844 15.246094 " fill-opacity="1" fill-rule="nonzero"/><path fill="#935f3d" d="M 17.089844 17.515625 L 6.492188 17.515625 C 6.382812 17.515625 6.289062 17.480469 6.214844 17.402344 C 6.136719 17.328125 6.101562 17.234375 6.101562 17.125 C 6.101562 17.019531 6.136719 16.925781 6.214844 16.851562 C 6.289062 16.773438 6.382812 16.738281 6.492188 16.738281 L 17.089844 16.738281 C 17.199219 16.738281 17.292969 16.773438 17.367188 16.851562 C 17.445312 16.925781 17.480469 17.019531 17.480469 17.125 C 17.480469 17.234375 17.445312 17.328125 17.367188 17.402344 C 17.292969 17.480469 17.199219 17.515625 17.089844 17.515625 Z M 17.089844 17.515625 " fill-opacity="1" fill-rule="nonzero"/><g clip-path="url(#19c0122267)"><path fill="#935f3d" d="M 18.390625 24.601562 L 14.425781 24.601562 C 14.34375 24.601562 14.269531 24.574219 14.199219 24.527344 L 13.390625 23.945312 L 12.578125 24.527344 C 12.511719 24.574219 12.4375 24.601562 12.351562 24.601562 L 8.390625 24.601562 C 8.199219 24.601562 8.078125 24.507812 8.019531 24.328125 C 7.960938 24.148438 8.007812 24.003906 8.164062 23.894531 L 10.199219 22.429688 L 10.199219 20.179688 C 10.199219 20.074219 10.234375 19.980469 10.3125 19.902344 C 10.386719 19.828125 10.480469 19.789062 10.585938 19.789062 L 16.191406 19.789062 C 16.300781 19.789062 16.390625 19.828125 16.46875 19.902344 C 16.542969 19.980469 16.582031 20.074219 16.582031 20.179688 L 16.582031 22.429688 L 18.617188 23.894531 C 18.769531 24.003906 18.820312 24.148438 18.761719 24.332031 C 18.703125 24.511719 18.578125 24.601562 18.390625 24.601562 Z M 14.554688 23.820312 L 17.175781 23.820312 L 15.964844 22.949219 C 15.855469 22.871094 15.800781 22.765625 15.800781 22.632812 L 15.800781 20.570312 L 10.976562 20.570312 L 10.976562 22.632812 C 10.976562 22.765625 10.921875 22.871094 10.816406 22.949219 L 9.601562 23.820312 L 12.226562 23.820312 L 13.160156 23.148438 C 13.3125 23.039062 13.464844 23.039062 13.617188 23.148438 Z M 14.554688 23.820312 " fill-opacity="1" fill-rule="nonzero"/></g></svg>