<svg xmlns="http://www.w3.org/2000/svg" xmlns:xlink="http://www.w3.org/1999/xlink" width="40" zoomAndPan="magnify" viewBox="0 0 30 30.000001" height="40" preserveAspectRatio="xMidYMid meet" version="1.0"><defs><clipPath id="41d5881631"><path d="M 0.484375 0 L 29.515625 0 L 29.515625 29.03125 L 0.484375 29.03125 Z M 0.484375 0 " clip-rule="nonzero"/></clipPath><clipPath id="5e36ce50da"><path d="M 3.386719 3.644531 L 26.613281 3.644531 L 26.613281 25.417969 L 3.386719 25.417969 Z M 3.386719 3.644531 " clip-rule="nonzero"/></clipPath></defs><g clip-path="url(#41d5881631)"><path fill="#ffffff" d="M 0.484375 0 L 29.515625 0 L 29.515625 29.03125 L 0.484375 29.03125 Z M 0.484375 0 " fill-opacity="1" fill-rule="nonzero"/><path fill="#ffffff" d="M 0.484375 0 L 29.515625 0 L 29.515625 29.03125 L 0.484375 29.03125 Z M 0.484375 0 " fill-opacity="1" fill-rule="nonzero"/></g><g clip-path="url(#5e36ce50da)"><path fill="#935f3d" d="M 13.433594 12.886719 C 13.433594 13.648438 14.050781 14.265625 14.808594 14.265625 C 15.570312 14.265625 16.1875 13.648438 16.1875 12.886719 C 16.1875 12.128906 15.570312 11.511719 14.808594 11.511719 C 14.050781 11.511719 13.433594 12.128906 13.433594 12.886719 Z M 14.109375 9.089844 C 13.96875 9.203125 13.757812 9.183594 13.640625 9.042969 C 13.527344 8.902344 13.546875 8.691406 13.6875 8.574219 L 14.792969 7.664062 L 9.988281 7.664062 C 8.726562 7.664062 7.695312 8.699219 7.695312 9.960938 L 7.695312 13.613281 C 7.695312 13.796875 7.542969 13.945312 7.359375 13.945312 C 7.175781 13.945312 7.027344 13.796875 7.027344 13.613281 L 7.027344 9.960938 C 7.027344 8.332031 8.359375 7 9.988281 7 L 14.792969 7 L 13.6875 6.089844 C 13.546875 5.972656 13.527344 5.765625 13.640625 5.625 C 13.757812 5.480469 13.96875 5.460938 14.109375 5.578125 L 15.929688 7.074219 C 16.09375 7.203125 16.097656 7.453125 15.933594 7.589844 Z M 15.511719 21.699219 C 15.652344 21.582031 15.863281 21.601562 15.980469 21.746094 C 16.09375 21.886719 16.074219 22.09375 15.933594 22.210938 L 14.824219 23.121094 L 19.632812 23.121094 C 20.894531 23.121094 21.925781 22.089844 21.925781 20.824219 L 21.925781 17.175781 C 21.925781 16.992188 22.074219 16.839844 22.261719 16.839844 C 22.445312 16.839844 22.59375 16.992188 22.59375 17.175781 L 22.59375 20.824219 C 22.59375 22.457031 21.261719 23.789062 19.632812 23.789062 L 14.824219 23.789062 L 15.933594 24.695312 C 16.074219 24.8125 16.09375 25.023438 15.980469 25.164062 C 15.863281 25.304688 15.652344 25.324219 15.511719 25.210938 L 13.691406 23.714844 C 13.527344 23.582031 13.523438 23.332031 13.6875 23.199219 Z M 20.40625 12.550781 L 21.148438 12.550781 L 21.148438 9.601562 L 20.203125 9.054688 C 20.042969 8.964844 19.988281 8.761719 20.082031 8.601562 C 20.171875 8.445312 20.375 8.390625 20.53125 8.480469 L 21.480469 9.027344 L 22.425781 8.480469 C 22.585938 8.390625 22.789062 8.445312 22.878906 8.601562 C 22.96875 8.761719 22.914062 8.964844 22.757812 9.054688 L 21.8125 9.601562 L 21.8125 12.550781 L 22.550781 12.550781 C 22.648438 11.238281 23.007812 10.683594 23.320312 10.199219 C 23.542969 9.851562 23.738281 9.550781 23.738281 8.925781 C 23.738281 7.679688 22.726562 6.667969 21.480469 6.667969 C 20.230469 6.667969 19.21875 7.679688 19.21875 8.925781 C 19.21875 9.550781 19.414062 9.851562 19.636719 10.199219 C 19.953125 10.683594 20.3125 11.238281 20.40625 12.550781 Z M 23.210938 12.671875 C 23.292969 12.75 23.339844 12.859375 23.339844 12.980469 L 23.339844 13.902344 C 23.339844 14.140625 23.148438 14.332031 22.914062 14.332031 L 22.472656 14.332031 L 22.472656 14.761719 C 22.472656 14.984375 22.289062 15.167969 22.066406 15.167969 L 20.890625 15.167969 C 20.667969 15.167969 20.488281 14.984375 20.488281 14.761719 L 20.488281 14.332031 L 20.046875 14.332031 C 19.8125 14.332031 19.617188 14.140625 19.617188 13.902344 L 19.617188 12.980469 C 19.617188 12.859375 19.667969 12.75 19.75 12.671875 C 19.667969 11.46875 19.355469 10.980469 19.082031 10.558594 C 18.800781 10.121094 18.554688 9.742188 18.554688 8.925781 C 18.554688 7.3125 19.863281 6 21.480469 6 C 23.09375 6 24.40625 7.3125 24.40625 8.925781 C 24.40625 9.742188 24.160156 10.121094 23.878906 10.558594 C 23.605469 10.980469 23.289062 11.46875 23.210938 12.671875 Z M 21.8125 4.808594 C 21.8125 4.992188 21.664062 5.144531 21.480469 5.144531 C 21.296875 5.144531 21.148438 4.992188 21.148438 4.808594 L 21.148438 3.976562 C 21.148438 3.792969 21.296875 3.644531 21.480469 3.644531 C 21.664062 3.644531 21.8125 3.792969 21.8125 3.976562 Z M 25.671875 7.421875 C 25.511719 7.511719 25.308594 7.457031 25.21875 7.300781 C 25.125 7.140625 25.183594 6.9375 25.339844 6.847656 L 26.0625 6.429688 C 26.222656 6.339844 26.421875 6.394531 26.515625 6.550781 C 26.605469 6.710938 26.550781 6.914062 26.394531 7.003906 Z M 24.089844 5.597656 C 23.871094 5.976562 23.296875 5.644531 23.515625 5.265625 L 23.933594 4.542969 C 24.023438 4.386719 24.230469 4.332031 24.386719 4.421875 C 24.546875 4.515625 24.601562 4.71875 24.507812 4.878906 Z M 17.617188 6.847656 C 17.777344 6.9375 17.832031 7.140625 17.742188 7.300781 C 17.648438 7.457031 17.445312 7.511719 17.289062 7.421875 L 16.566406 7.003906 C 16.40625 6.914062 16.351562 6.710938 16.445312 6.550781 C 16.535156 6.394531 16.738281 6.339844 16.898438 6.429688 Z M 19.441406 5.265625 C 19.535156 5.425781 19.480469 5.628906 19.320312 5.71875 C 19.164062 5.8125 18.960938 5.757812 18.867188 5.597656 L 18.449219 4.878906 C 18.359375 4.71875 18.414062 4.515625 18.570312 4.421875 C 18.730469 4.332031 18.933594 4.386719 19.027344 4.542969 Z M 11.371094 21.941406 C 10.558594 21.941406 10.148438 22.925781 10.722656 23.5 C 10.828125 23.605469 10.828125 23.777344 10.722656 23.882812 L 10.140625 24.46875 C 10.035156 24.574219 9.863281 24.574219 9.757812 24.46875 C 9.183594 23.894531 8.199219 24.300781 8.199219 25.113281 C 8.199219 25.261719 8.078125 25.382812 7.929688 25.382812 L 7.105469 25.382812 C 6.953125 25.382812 6.832031 25.261719 6.832031 25.113281 C 6.832031 24.300781 5.851562 23.894531 5.277344 24.46875 C 5.171875 24.574219 5 24.574219 4.894531 24.46875 L 4.308594 23.882812 C 4.203125 23.777344 4.203125 23.605469 4.308594 23.5 C 4.882812 22.925781 4.476562 21.941406 3.664062 21.941406 C 3.515625 21.941406 3.394531 21.820312 3.394531 21.671875 L 3.394531 20.847656 C 3.394531 20.699219 3.515625 20.578125 3.664062 20.578125 C 4.476562 20.578125 4.882812 19.59375 4.308594 19.019531 C 4.203125 18.914062 4.203125 18.742188 4.308594 18.636719 L 4.894531 18.050781 C 5 17.945312 5.171875 17.945312 5.277344 18.050781 C 5.851562 18.625 6.832031 18.21875 6.832031 17.40625 C 6.832031 17.257812 6.953125 17.136719 7.105469 17.136719 L 7.929688 17.136719 C 8.078125 17.136719 8.199219 17.257812 8.199219 17.40625 C 8.199219 18.21875 9.183594 18.625 9.757812 18.050781 C 9.863281 17.945312 10.035156 17.945312 10.140625 18.050781 L 10.722656 18.636719 C 10.828125 18.742188 10.828125 18.914062 10.722656 19.019531 C 10.148438 19.59375 10.558594 20.578125 11.371094 20.578125 C 11.519531 20.578125 11.640625 20.699219 11.640625 20.847656 L 11.640625 21.671875 C 11.640625 21.820312 11.519531 21.941406 11.371094 21.941406 Z M 7.515625 19.382812 C 6.480469 19.382812 5.636719 20.222656 5.636719 21.261719 C 5.636719 22.296875 6.480469 23.140625 7.515625 23.140625 C 8.554688 23.140625 9.394531 22.296875 9.394531 21.261719 C 9.394531 20.222656 8.554688 19.382812 7.515625 19.382812 Z M 17.792969 18.042969 C 17.792969 16.394531 16.457031 15.058594 14.808594 15.058594 C 13.164062 15.058594 11.828125 16.394531 11.828125 18.042969 C 11.828125 19.6875 17.792969 19.6875 17.792969 18.042969 Z M 17.792969 18.042969 " fill-opacity="1" fill-rule="evenodd"/></g></svg>