<svg xmlns="http://www.w3.org/2000/svg" xmlns:xlink="http://www.w3.org/1999/xlink" width="40" zoomAndPan="magnify" viewBox="0 0 30 30.000001" height="40" preserveAspectRatio="xMidYMid meet" version="1.0"><defs><clipPath id="e6f9979e87"><path d="M 0.484375 0 L 29.515625 0 L 29.515625 29.03125 L 0.484375 29.03125 Z M 0.484375 0 " clip-rule="nonzero"/></clipPath><clipPath id="842e0b31fd"><path d="M 4.605469 2.902344 L 25.65625 2.902344 L 25.65625 26.128906 L 4.605469 26.128906 Z M 4.605469 2.902344 " clip-rule="nonzero"/></clipPath></defs><g clip-path="url(#e6f9979e87)"><path fill="#ffffff" d="M 0.484375 0 L 29.515625 0 L 29.515625 29.03125 L 0.484375 29.03125 Z M 0.484375 0 " fill-opacity="1" fill-rule="nonzero"/><path fill="#ffffff" d="M 0.484375 0 L 29.515625 0 L 29.515625 29.03125 L 0.484375 29.03125 Z M 0.484375 0 " fill-opacity="1" fill-rule="nonzero"/></g><g clip-path="url(#842e0b31fd)"><path fill="#935f3d" d="M 23.605469 7.40625 L 24.722656 6.121094 C 24.851562 5.976562 25.074219 5.960938 25.21875 6.089844 C 25.367188 6.214844 25.378906 6.4375 25.253906 6.585938 C 24.914062 6.972656 22.152344 10.160156 22.085938 10.214844 C 21.933594 10.339844 21.714844 10.316406 21.589844 10.164062 L 20.804688 9.210938 C 20.683594 9.058594 20.460938 9.035156 20.3125 9.160156 C 20.160156 9.28125 20.140625 9.503906 20.261719 9.652344 C 20.703125 10.191406 21.136719 10.730469 21.578125 11.265625 C 21.714844 11.433594 21.972656 11.4375 22.113281 11.277344 L 23.851562 9.277344 C 23.867188 9.261719 23.886719 9.257812 23.90625 9.265625 C 23.925781 9.273438 23.9375 9.289062 23.9375 9.308594 L 23.9375 11.582031 C 23.9375 11.875 23.699219 12.113281 23.40625 12.113281 L 19.753906 12.113281 C 19.460938 12.113281 19.222656 11.875 19.222656 11.582031 L 19.222656 7.929688 C 19.222656 7.636719 19.460938 7.398438 19.753906 7.398438 L 23.40625 7.398438 C 23.457031 7.398438 23.507812 7.40625 23.554688 7.421875 C 23.574219 7.425781 23.59375 7.421875 23.605469 7.40625 Z M 12.804688 11.957031 C 12.804688 12.742188 13.445312 13.378906 14.230469 13.378906 C 15.015625 13.378906 15.65625 12.742188 15.65625 11.957031 C 15.65625 11.167969 15.015625 10.53125 14.230469 10.53125 C 13.445312 10.53125 12.804688 11.167969 12.804688 11.957031 Z M 8.535156 17.566406 C 8.257812 17.183594 7.980469 16.789062 7.699219 16.394531 C 7.691406 16.378906 7.675781 16.371094 7.65625 16.375 L 5.261719 16.539062 C 4.875 16.566406 4.714844 17.167969 4.984375 17.503906 C 5.054688 17.589844 5.144531 17.640625 5.242188 17.640625 L 8.496094 17.640625 C 8.515625 17.640625 8.53125 17.632812 8.539062 17.617188 C 8.546875 17.601562 8.546875 17.582031 8.535156 17.566406 Z M 20.753906 16.375 L 19.921875 17.566406 C 19.910156 17.582031 19.910156 17.601562 19.917969 17.617188 C 19.925781 17.632812 19.941406 17.640625 19.960938 17.640625 L 23.480469 17.640625 C 23.816406 17.640625 24.019531 17.039062 23.742188 16.695312 C 23.667969 16.605469 23.570312 16.546875 23.460938 16.539062 L 20.796875 16.355469 C 20.777344 16.355469 20.761719 16.359375 20.753906 16.375 Z M 16.875 18.496094 C 16.875 18.519531 16.859375 18.539062 16.835938 18.542969 L 16.65625 18.582031 C 16.644531 18.582031 16.628906 18.582031 16.621094 18.570312 C 16.355469 18.371094 16.074219 18.207031 15.769531 18.078125 C 15.753906 18.074219 15.746094 18.066406 15.742188 18.050781 L 15.410156 17.035156 C 15.359375 16.875 15.214844 16.769531 15.046875 16.769531 L 13.414062 16.769531 C 13.25 16.769531 13.101562 16.878906 13.050781 17.035156 L 12.71875 18.050781 C 12.714844 18.066406 12.707031 18.074219 12.691406 18.078125 C 12.386719 18.207031 12.105469 18.371094 11.84375 18.570312 C 11.832031 18.582031 11.816406 18.582031 11.804688 18.582031 L 11.625 18.542969 C 11.601562 18.539062 11.585938 18.519531 11.585938 18.496094 L 11.585938 17.230469 C 11.585938 17.035156 11.378906 16.894531 11.195312 16.972656 L 9.6875 17.609375 C 9.617188 17.640625 9.542969 17.648438 9.472656 17.644531 L 9.472656 17.640625 C 9.351562 17.640625 9.210938 17.554688 9.136719 17.445312 L 6.648438 13.878906 C 6.496094 13.65625 6.554688 13.324219 6.785156 13.167969 C 7 13.023438 7.300781 13.085938 7.433594 13.28125 C 7.4375 13.28125 7.4375 13.28125 7.4375 13.28125 L 7.472656 13.332031 C 7.472656 13.332031 7.476562 13.332031 7.476562 13.332031 L 9.789062 15.894531 C 9.792969 15.894531 9.792969 15.898438 9.792969 15.898438 C 9.886719 16.015625 10.0625 16.039062 10.183594 15.945312 L 12.367188 14.269531 C 12.371094 14.265625 12.371094 14.265625 12.371094 14.265625 C 12.59375 14.128906 12.871094 14.03125 13.171875 13.964844 C 13.503906 13.898438 13.863281 13.871094 14.214844 13.890625 C 14.226562 13.890625 14.234375 13.890625 14.246094 13.890625 C 14.597656 13.871094 14.957031 13.898438 15.289062 13.964844 C 15.59375 14.03125 15.867188 14.128906 16.089844 14.265625 C 16.089844 14.265625 16.089844 14.265625 16.09375 14.269531 L 18.277344 15.945312 L 18.28125 15.945312 C 18.394531 16.03125 18.558594 16.019531 18.65625 15.910156 L 20.984375 13.335938 L 21.015625 13.292969 C 21.09375 13.183594 21.203125 13.117188 21.324219 13.097656 C 21.769531 13.015625 22.046875 13.539062 21.8125 13.878906 C 20.96875 15.039062 20.148438 16.261719 19.328125 17.441406 C 19.203125 17.625 18.976562 17.695312 18.773438 17.609375 L 17.289062 16.980469 C 17.070312 16.878906 16.875 17.035156 16.875 17.230469 Z M 18.292969 19.976562 L 18.035156 19.53125 L 18.039062 19.53125 L 17.777344 19.082031 C 17.726562 18.992188 17.628906 18.949219 17.527344 18.96875 L 16.625 19.164062 L 16.625 19.160156 C 16.542969 19.179688 16.457031 19.160156 16.386719 19.105469 C 16.136719 18.898438 15.757812 18.664062 15.449219 18.554688 C 15.414062 18.542969 15.382812 18.523438 15.355469 18.496094 C 15.191406 18.320312 15.050781 17.808594 14.96875 17.503906 C 14.9375 17.402344 14.847656 17.332031 14.742188 17.332031 L 13.722656 17.332031 C 13.613281 17.332031 13.523438 17.402344 13.496094 17.507812 C 13.402344 17.847656 13.238281 18.472656 13.039062 18.546875 C 12.730469 18.660156 12.335938 18.878906 12.089844 19.089844 C 12.085938 19.09375 12.085938 19.09375 12.085938 19.09375 C 12.019531 19.152344 11.929688 19.183594 11.835938 19.164062 L 10.933594 18.96875 C 10.832031 18.949219 10.734375 18.992188 10.683594 19.082031 L 10.167969 19.976562 C 10.113281 20.066406 10.125 20.171875 10.195312 20.25 L 10.8125 20.9375 C 10.867188 20.996094 10.894531 21.082031 10.878906 21.167969 C 10.824219 21.5 10.816406 21.9375 10.878906 22.269531 C 10.878906 22.269531 10.878906 22.273438 10.878906 22.273438 C 10.894531 22.359375 10.875 22.449219 10.8125 22.519531 L 10.195312 23.203125 C 10.125 23.28125 10.113281 23.386719 10.167969 23.476562 L 10.425781 23.925781 L 10.683594 24.371094 C 10.734375 24.460938 10.832031 24.503906 10.933594 24.484375 L 11.835938 24.292969 C 11.917969 24.273438 12.003906 24.292969 12.074219 24.351562 C 12.328125 24.558594 12.710938 24.792969 13.019531 24.902344 C 13.019531 24.902344 13.023438 24.902344 13.023438 24.902344 C 13.109375 24.929688 13.175781 24.992188 13.207031 25.082031 L 13.492188 25.960938 C 13.523438 26.058594 13.609375 26.121094 13.714844 26.121094 L 14.746094 26.121094 C 14.851562 26.121094 14.9375 26.058594 14.96875 25.960938 L 15.253906 25.082031 C 15.28125 25.003906 15.339844 24.9375 15.421875 24.90625 C 15.730469 24.792969 16.125 24.574219 16.371094 24.363281 C 16.375 24.363281 16.375 24.359375 16.378906 24.359375 C 16.441406 24.300781 16.53125 24.273438 16.625 24.292969 L 17.527344 24.484375 C 17.628906 24.503906 17.726562 24.460938 17.777344 24.371094 L 18.292969 23.476562 C 18.347656 23.386719 18.335938 23.28125 18.265625 23.203125 L 17.648438 22.519531 C 17.59375 22.457031 17.566406 22.371094 17.582031 22.285156 C 17.636719 21.953125 17.644531 21.515625 17.582031 21.183594 C 17.582031 21.183594 17.582031 21.183594 17.582031 21.179688 C 17.566406 21.097656 17.585938 21.003906 17.648438 20.9375 L 18.265625 20.25 C 18.335938 20.175781 18.347656 20.066406 18.292969 19.976562 Z M 14.230469 20.125 C 15.117188 20.125 15.835938 20.839844 15.835938 21.726562 C 15.835938 22.613281 15.117188 23.332031 14.230469 23.332031 C 13.34375 23.332031 12.625 22.613281 12.625 21.726562 C 12.625 20.839844 13.34375 20.125 14.230469 20.125 Z M 8.9375 7.421875 C 8.890625 7.40625 8.839844 7.398438 8.789062 7.398438 L 5.132812 7.398438 C 4.84375 7.398438 4.605469 7.636719 4.605469 7.929688 L 4.605469 11.582031 C 4.605469 11.875 4.84375 12.113281 5.132812 12.113281 L 8.789062 12.113281 C 9.078125 12.113281 9.316406 11.875 9.316406 11.582031 L 9.316406 9.308594 C 9.316406 9.289062 9.304688 9.273438 9.285156 9.265625 C 9.269531 9.257812 9.25 9.261719 9.234375 9.277344 C 8.851562 9.722656 7.507812 11.269531 7.453125 11.316406 C 7.304688 11.441406 7.082031 11.417969 6.957031 11.265625 C 6.519531 10.730469 6.082031 10.191406 5.644531 9.65625 C 5.519531 9.503906 5.542969 9.28125 5.691406 9.160156 C 5.84375 9.035156 6.066406 9.058594 6.1875 9.210938 L 6.972656 10.164062 C 7.109375 10.332031 7.367188 10.335938 7.507812 10.175781 L 10.710938 6.496094 C 10.835938 6.351562 10.824219 6.128906 10.675781 6 C 10.53125 5.875 10.308594 5.890625 10.179688 6.035156 L 8.984375 7.40625 C 8.972656 7.421875 8.957031 7.425781 8.9375 7.421875 Z M 16.207031 4.355469 C 16.160156 4.34375 16.109375 4.335938 16.058594 4.335938 L 12.402344 4.335938 C 12.113281 4.335938 11.875 4.574219 11.875 4.863281 L 11.875 8.519531 C 11.875 8.808594 12.113281 9.046875 12.402344 9.046875 L 16.058594 9.046875 C 16.347656 9.046875 16.585938 8.808594 16.585938 8.519531 L 16.585938 6.246094 C 16.585938 6.222656 16.574219 6.207031 16.554688 6.199219 C 16.539062 6.195312 16.519531 6.199219 16.503906 6.214844 C 16.121094 6.65625 14.777344 8.207031 14.722656 8.253906 C 14.574219 8.375 14.351562 8.351562 14.226562 8.203125 C 13.789062 7.664062 13.351562 7.125 12.914062 6.589844 C 12.789062 6.441406 12.8125 6.21875 12.964844 6.09375 C 13.113281 5.972656 13.335938 5.996094 13.457031 6.144531 L 14.242188 7.101562 C 14.378906 7.269531 14.636719 7.273438 14.777344 7.109375 L 17.898438 3.527344 C 18.023438 3.382812 18.007812 3.160156 17.863281 3.03125 C 17.714844 2.902344 17.496094 2.917969 17.367188 3.066406 L 16.253906 4.34375 C 16.242188 4.355469 16.226562 4.363281 16.207031 4.355469 Z M 16.207031 4.355469 " fill-opacity="1" fill-rule="evenodd"/></g></svg>