<svg xmlns="http://www.w3.org/2000/svg" xmlns:xlink="http://www.w3.org/1999/xlink" width="40" zoomAndPan="magnify" viewBox="0 0 30 30.000001" height="40" preserveAspectRatio="xMidYMid meet" version="1.0"><defs><clipPath id="0d299e3f68"><path d="M 0.484375 0 L 29.515625 0 L 29.515625 29.03125 L 0.484375 29.03125 Z M 0.484375 0 " clip-rule="nonzero"/></clipPath><clipPath id="b35bc9928b"><path d="M 3.371094 2.917969 L 26.597656 2.917969 L 26.597656 26.144531 L 3.371094 26.144531 Z M 3.371094 2.917969 " clip-rule="nonzero"/></clipPath></defs><g clip-path="url(#0d299e3f68)"><path fill="#ffffff" d="M 0.484375 0 L 29.515625 0 L 29.515625 29.03125 L 0.484375 29.03125 Z M 0.484375 0 " fill-opacity="1" fill-rule="nonzero"/><path fill="#ffffff" d="M 0.484375 0 L 29.515625 0 L 29.515625 29.03125 L 0.484375 29.03125 Z M 0.484375 0 " fill-opacity="1" fill-rule="nonzero"/></g><g clip-path="url(#b35bc9928b)"><path fill="#935f3d" d="M 25.453125 2.921875 L 7.75 2.921875 C 7.117188 2.921875 6.597656 3.441406 6.597656 4.074219 L 6.597656 17.546875 L 5.90625 17.546875 C 4.730469 17.53125 3.71875 18.382812 3.535156 19.550781 C 3.371094 20.816406 4.261719 21.976562 5.527344 22.144531 C 5.628906 22.160156 5.726562 22.164062 5.828125 22.164062 L 5.828125 24.816406 C 5.816406 25.378906 6.203125 25.867188 6.75 25.992188 C 7.375 26.117188 7.984375 25.714844 8.113281 25.089844 C 8.125 25.011719 8.136719 24.941406 8.136719 24.863281 L 8.136719 22.433594 L 11.714844 24.386719 C 11.824219 24.449219 11.957031 24.484375 12.085938 24.484375 L 12.753906 24.484375 C 13.390625 24.484375 13.910156 23.964844 13.910156 23.328125 L 13.910156 22.945312 L 25.453125 22.945312 C 26.089844 22.945312 26.609375 22.421875 26.609375 21.789062 L 26.609375 4.074219 C 26.609375 3.441406 26.089844 2.921875 25.453125 2.921875 Z M 16.21875 4.074219 L 23.914062 4.074219 C 24.550781 4.074219 25.070312 4.59375 25.070312 5.230469 C 25.070312 5.863281 24.550781 6.382812 23.914062 6.382812 L 16.21875 6.382812 C 15.582031 6.382812 15.0625 5.863281 15.0625 5.230469 C 15.0625 4.59375 15.582031 4.074219 16.21875 4.074219 Z M 13.523438 4.460938 C 13.945312 4.460938 14.292969 4.804688 14.292969 5.230469 C 14.292969 5.652344 13.945312 6 13.523438 6 C 13.101562 6 12.753906 5.652344 12.753906 5.230469 C 12.753906 4.804688 13.101562 4.460938 13.523438 4.460938 Z M 11.214844 4.460938 C 11.636719 4.460938 11.984375 4.804688 11.984375 5.230469 C 11.984375 5.652344 11.636719 6 11.214844 6 C 10.792969 6 10.445312 5.652344 10.445312 5.230469 C 10.445312 4.804688 10.792969 4.460938 11.214844 4.460938 Z M 8.90625 4.460938 C 9.328125 4.460938 9.675781 4.804688 9.675781 5.230469 C 9.675781 5.652344 9.328125 6 8.90625 6 C 8.480469 6 8.136719 5.652344 8.136719 5.230469 C 8.136719 4.804688 8.480469 4.460938 8.90625 4.460938 Z M 7.367188 24.859375 C 7.367188 25.070312 7.191406 25.242188 6.980469 25.242188 C 6.769531 25.242188 6.597656 25.070312 6.597656 24.859375 L 6.597656 22.164062 L 7.367188 22.164062 Z M 7.367188 21.394531 L 5.828125 21.394531 C 4.976562 21.394531 4.285156 20.707031 4.285156 19.855469 C 4.285156 19.003906 4.976562 18.316406 5.828125 18.316406 L 7.367188 18.316406 Z M 11.597656 23.4375 L 8.136719 21.546875 L 8.136719 18.15625 L 11.597656 16.265625 Z M 12.753906 15.234375 L 12.082031 15.234375 C 11.949219 15.234375 11.824219 15.269531 11.710938 15.332031 L 9.675781 16.445312 L 9.675781 9.847656 L 23.53125 9.847656 L 23.53125 18.316406 L 13.910156 18.316406 L 13.910156 16.390625 C 13.910156 15.753906 13.390625 15.234375 12.753906 15.234375 Z M 25.839844 21.777344 C 25.839844 21.992188 25.667969 22.164062 25.453125 22.164062 L 13.910156 22.164062 L 13.910156 20.625 L 14.398438 20.625 C 14.609375 20.988281 15.074219 21.113281 15.445312 20.910156 C 15.5625 20.839844 15.660156 20.746094 15.726562 20.625 L 23.914062 20.625 C 24.128906 20.625 24.300781 20.453125 24.300781 20.238281 C 24.300781 20.027344 24.128906 19.855469 23.914062 19.855469 L 15.726562 19.855469 C 15.515625 19.488281 15.054688 19.363281 14.683594 19.570312 C 14.5625 19.636719 14.464844 19.734375 14.398438 19.855469 L 13.910156 19.855469 L 13.910156 19.085938 L 23.914062 19.085938 C 24.128906 19.085938 24.300781 18.910156 24.300781 18.699219 L 24.300781 9.464844 C 24.300781 9.25 24.128906 9.078125 23.914062 9.078125 L 9.289062 9.078125 C 9.078125 9.078125 8.90625 9.25 8.90625 9.464844 L 8.90625 16.777344 C 8.90625 16.800781 8.914062 16.828125 8.917969 16.851562 L 7.648438 17.546875 L 7.367188 17.546875 L 7.367188 7.539062 L 25.839844 7.539062 Z M 25.839844 21.777344 " fill-opacity="1" fill-rule="nonzero"/></g><path fill="#935f3d" d="M 24.300781 5.230469 C 24.300781 5.441406 24.128906 5.613281 23.914062 5.613281 L 16.21875 5.613281 C 16.007812 5.613281 15.832031 5.441406 15.832031 5.230469 C 15.832031 5.015625 16.007812 4.84375 16.21875 4.84375 L 23.914062 4.84375 C 24.128906 4.84375 24.300781 5.015625 24.300781 5.230469 Z M 24.300781 5.230469 " fill-opacity="1" fill-rule="nonzero"/><path fill="#935f3d" d="M 19.109375 14.414062 L 15.261719 16.722656 C 15.140625 16.792969 14.996094 16.792969 14.871094 16.726562 C 14.75 16.660156 14.671875 16.53125 14.671875 16.390625 L 14.671875 11.773438 C 14.671875 11.699219 14.691406 11.632812 14.726562 11.574219 C 14.835938 11.390625 15.074219 11.335938 15.253906 11.445312 L 19.105469 13.753906 C 19.15625 13.789062 19.207031 13.832031 19.234375 13.882812 C 19.351562 14.066406 19.292969 14.304688 19.109375 14.414062 Z M 19.109375 14.414062 " fill-opacity="1" fill-rule="nonzero"/></svg>