<svg xmlns="http://www.w3.org/2000/svg" xmlns:xlink="http://www.w3.org/1999/xlink" width="40" zoomAndPan="magnify" viewBox="0 0 30 30.000001" height="40" preserveAspectRatio="xMidYMid meet" version="1.0"><defs><clipPath id="f9ea6c1b74"><path d="M 0.484375 0 L 29.515625 0 L 29.515625 29.03125 L 0.484375 29.03125 Z M 0.484375 0 " clip-rule="nonzero"/></clipPath><clipPath id="ff9974cd7d"><path d="M 3.386719 11 L 10 11 L 10 21 L 3.386719 21 Z M 3.386719 11 " clip-rule="nonzero"/></clipPath><clipPath id="4b3ea420d3"><path d="M 20 11 L 26.613281 11 L 26.613281 21 L 20 21 Z M 20 11 " clip-rule="nonzero"/></clipPath><clipPath id="31daf43e90"><path d="M 13 4.09375 L 17 4.09375 L 17 9 L 13 9 Z M 13 4.09375 " clip-rule="nonzero"/></clipPath><clipPath id="517172973a"><path d="M 8 4.09375 L 12 4.09375 L 12 8 L 8 8 Z M 8 4.09375 " clip-rule="nonzero"/></clipPath><clipPath id="17a5370406"><path d="M 18 4.09375 L 22 4.09375 L 22 8 L 18 8 Z M 18 4.09375 " clip-rule="nonzero"/></clipPath></defs><g clip-path="url(#f9ea6c1b74)"><path fill="#ffffff" d="M 0.484375 0 L 29.515625 0 L 29.515625 29.03125 L 0.484375 29.03125 Z M 0.484375 0 " fill-opacity="1" fill-rule="nonzero"/><path fill="#ffffff" d="M 0.484375 0 L 29.515625 0 L 29.515625 29.03125 L 0.484375 29.03125 Z M 0.484375 0 " fill-opacity="1" fill-rule="nonzero"/></g><g clip-path="url(#ff9974cd7d)"><path fill="#935f3d" d="M 6.75 20.484375 C 6.679688 20.484375 6.605469 20.472656 6.535156 20.453125 L 4.011719 19.75 C 3.800781 19.691406 3.625 19.554688 3.519531 19.363281 C 3.410156 19.167969 3.386719 18.949219 3.445312 18.738281 L 5.394531 11.976562 C 5.519531 11.546875 5.96875 11.296875 6.398438 11.414062 L 8.921875 12.117188 C 9.132812 12.175781 9.308594 12.3125 9.414062 12.507812 C 9.523438 12.699219 9.546875 12.917969 9.488281 13.128906 L 7.539062 19.890625 C 7.433594 20.25 7.105469 20.484375 6.75 20.484375 Z M 6.675781 19.945312 C 6.828125 19.988281 6.988281 19.898438 7.03125 19.746094 L 8.980469 12.984375 C 9.003906 12.910156 8.996094 12.832031 8.957031 12.761719 C 8.917969 12.695312 8.855469 12.644531 8.78125 12.625 L 6.257812 11.921875 C 6.105469 11.878906 5.945312 11.96875 5.902344 12.121094 L 3.953125 18.882812 C 3.929688 18.957031 3.9375 19.035156 3.976562 19.105469 C 4.015625 19.171875 4.078125 19.222656 4.152344 19.242188 Z M 6.675781 19.945312 " fill-opacity="1" fill-rule="nonzero"/></g><path fill="#935f3d" d="M 7.085938 14.664062 C 7.007812 14.664062 6.925781 14.65625 6.847656 14.632812 C 6.621094 14.570312 6.429688 14.421875 6.316406 14.214844 C 6.199219 14.011719 6.171875 13.773438 6.234375 13.546875 C 6.296875 13.316406 6.445312 13.128906 6.652344 13.011719 C 6.855469 12.898438 7.09375 12.867188 7.320312 12.933594 C 7.789062 13.0625 8.066406 13.550781 7.933594 14.019531 C 7.828125 14.410156 7.472656 14.664062 7.085938 14.664062 Z M 7.082031 13.425781 C 7.023438 13.425781 6.964844 13.441406 6.910156 13.472656 C 6.824219 13.519531 6.765625 13.59375 6.742188 13.6875 C 6.714844 13.777344 6.726562 13.875 6.773438 13.957031 C 6.820312 14.042969 6.898438 14.101562 6.988281 14.125 C 7.179688 14.179688 7.375 14.066406 7.429688 13.878906 C 7.480469 13.6875 7.371094 13.492188 7.179688 13.4375 C 7.148438 13.429688 7.117188 13.425781 7.082031 13.425781 Z M 7.679688 13.949219 Z M 7.679688 13.949219 " fill-opacity="1" fill-rule="nonzero"/><g clip-path="url(#4b3ea420d3)"><path fill="#935f3d" d="M 23.242188 20.484375 C 22.886719 20.484375 22.558594 20.25 22.457031 19.890625 L 20.507812 13.128906 C 20.445312 12.917969 20.472656 12.699219 20.578125 12.507812 C 20.6875 12.3125 20.863281 12.175781 21.074219 12.117188 L 23.597656 11.414062 C 24.027344 11.296875 24.476562 11.546875 24.601562 11.976562 L 26.550781 18.738281 C 26.609375 18.949219 26.585938 19.167969 26.476562 19.363281 C 26.371094 19.554688 26.195312 19.691406 25.984375 19.75 L 23.460938 20.453125 C 23.386719 20.472656 23.316406 20.484375 23.242188 20.484375 Z M 23.8125 11.910156 C 23.789062 11.910156 23.761719 11.914062 23.738281 11.921875 L 21.214844 12.625 C 21.136719 12.644531 21.078125 12.695312 21.039062 12.761719 C 21 12.832031 20.992188 12.910156 21.011719 12.984375 L 22.964844 19.746094 C 23.007812 19.898438 23.167969 19.988281 23.320312 19.945312 L 25.84375 19.242188 C 25.917969 19.222656 25.980469 19.171875 26.015625 19.105469 C 26.054688 19.035156 26.0625 18.957031 26.042969 18.882812 L 24.09375 12.121094 C 24.058594 11.996094 23.941406 11.910156 23.8125 11.910156 Z M 23.667969 11.667969 Z M 23.667969 11.667969 " fill-opacity="1" fill-rule="nonzero"/></g><path fill="#935f3d" d="M 22.890625 14.664062 C 22.503906 14.664062 22.148438 14.410156 22.039062 14.019531 C 21.910156 13.550781 22.183594 13.0625 22.652344 12.929688 C 22.882812 12.867188 23.121094 12.898438 23.324219 13.011719 C 23.53125 13.128906 23.679688 13.316406 23.742188 13.546875 C 23.804688 13.773438 23.773438 14.011719 23.660156 14.214844 C 23.542969 14.421875 23.355469 14.570312 23.128906 14.632812 C 23.046875 14.65625 22.96875 14.664062 22.890625 14.664062 Z M 22.890625 13.425781 C 22.859375 13.425781 22.828125 13.429688 22.792969 13.4375 C 22.605469 13.492188 22.492188 13.6875 22.546875 13.878906 C 22.597656 14.066406 22.796875 14.179688 22.984375 14.125 C 23.078125 14.101562 23.152344 14.039062 23.199219 13.957031 C 23.246094 13.875 23.257812 13.777344 23.234375 13.6875 C 23.207031 13.59375 23.148438 13.519531 23.066406 13.472656 C 23.011719 13.441406 22.953125 13.425781 22.890625 13.425781 Z M 22.890625 13.425781 " fill-opacity="1" fill-rule="nonzero"/><path fill="#935f3d" d="M 20.132812 20.515625 C 19.992188 20.515625 19.875 20.40625 19.867188 20.261719 C 19.863281 20.117188 19.976562 19.996094 20.121094 19.988281 C 20.136719 19.988281 21.4375 19.933594 22.453125 19.230469 C 22.570312 19.144531 22.738281 19.175781 22.820312 19.296875 C 22.902344 19.414062 22.871094 19.578125 22.753906 19.660156 C 21.605469 20.457031 20.199219 20.515625 20.140625 20.515625 C 20.136719 20.515625 20.136719 20.515625 20.132812 20.515625 Z M 20.132812 20.515625 " fill-opacity="1" fill-rule="nonzero"/><path fill="#935f3d" d="M 8.253906 20.210938 C 8.183594 20.210938 8.117188 20.183594 8.066406 20.132812 L 7.285156 19.355469 C 7.183594 19.25 7.183594 19.085938 7.285156 18.980469 C 7.390625 18.878906 7.554688 18.878906 7.660156 18.980469 L 8.4375 19.761719 C 8.542969 19.863281 8.542969 20.03125 8.4375 20.132812 C 8.386719 20.183594 8.320312 20.210938 8.253906 20.210938 Z M 8.253906 20.210938 " fill-opacity="1" fill-rule="nonzero"/><path fill="#935f3d" d="M 13.421875 24.929688 C 13.078125 24.929688 12.734375 24.800781 12.472656 24.539062 L 12.023438 24.089844 C 11.917969 23.988281 11.917969 23.820312 12.023438 23.71875 C 12.125 23.613281 12.292969 23.613281 12.394531 23.71875 L 12.84375 24.167969 C 13.160156 24.484375 13.679688 24.484375 13.996094 24.167969 C 14.152344 24.011719 14.234375 23.808594 14.234375 23.589844 C 14.234375 23.484375 14.214844 23.382812 14.175781 23.28125 C 14.136719 23.183594 14.074219 23.09375 13.996094 23.011719 C 13.894531 22.910156 13.894531 22.742188 13.996094 22.640625 C 14.101562 22.539062 14.265625 22.539062 14.371094 22.640625 L 15.371094 23.640625 C 15.6875 23.957031 16.203125 23.957031 16.523438 23.640625 C 16.675781 23.488281 16.761719 23.28125 16.761719 23.0625 C 16.761719 22.847656 16.675781 22.640625 16.523438 22.488281 C 16.421875 22.382812 16.421875 22.21875 16.523438 22.113281 C 16.625 22.011719 16.792969 22.011719 16.894531 22.113281 C 17.148438 22.367188 17.289062 22.703125 17.289062 23.0625 C 17.289062 23.421875 17.148438 23.757812 16.894531 24.011719 C 16.371094 24.535156 15.519531 24.535156 14.996094 24.011719 L 14.75 23.765625 C 14.714844 24.058594 14.582031 24.328125 14.371094 24.539062 C 14.105469 24.800781 13.765625 24.929688 13.421875 24.929688 Z M 13.421875 24.929688 " fill-opacity="1" fill-rule="nonzero"/><path fill="#935f3d" d="M 17.910156 23.320312 C 17.550781 23.320312 17.214844 23.179688 16.960938 22.925781 L 14.503906 20.46875 C 14.402344 20.367188 14.402344 20.199219 14.503906 20.097656 C 14.609375 19.996094 14.773438 19.996094 14.878906 20.097656 L 17.332031 22.554688 C 17.488281 22.707031 17.691406 22.792969 17.910156 22.792969 C 18.128906 22.792969 18.332031 22.707031 18.488281 22.554688 C 18.804688 22.234375 18.804688 21.71875 18.488281 21.402344 L 16.03125 18.945312 C 15.929688 18.84375 15.929688 18.675781 16.03125 18.574219 C 16.132812 18.46875 16.300781 18.46875 16.402344 18.574219 L 18.859375 21.027344 C 19.382812 21.550781 19.382812 22.402344 18.859375 22.925781 C 18.605469 23.179688 18.269531 23.320312 17.910156 23.320312 Z M 17.910156 23.320312 " fill-opacity="1" fill-rule="nonzero"/><path fill="#935f3d" d="M 19.066406 21.425781 C 18.707031 21.425781 18.371094 21.285156 18.117188 21.03125 C 18.015625 20.929688 18.015625 20.761719 18.117188 20.660156 C 18.222656 20.558594 18.386719 20.558594 18.492188 20.660156 C 18.644531 20.8125 18.847656 20.898438 19.066406 20.898438 C 19.285156 20.898438 19.488281 20.8125 19.644531 20.660156 C 19.765625 20.539062 19.84375 20.382812 19.871094 20.210938 C 19.878906 20.167969 19.882812 20.125 19.882812 20.082031 C 19.882812 19.867188 19.796875 19.660156 19.644531 19.507812 L 15.742188 15.605469 C 15.460938 15.324219 15.042969 15.214844 14.65625 15.324219 C 14.460938 15.378906 14.28125 15.488281 14.140625 15.640625 L 12.925781 16.960938 C 12.925781 16.960938 12.921875 16.964844 12.917969 16.96875 C 12.640625 17.246094 12.273438 17.398438 11.882812 17.398438 C 11.492188 17.398438 11.121094 17.246094 10.84375 16.96875 C 10.386719 16.507812 10.28125 15.816406 10.585938 15.242188 C 10.976562 14.507812 11.652344 13.503906 12.652344 12.875 C 12.65625 12.871094 12.660156 12.867188 12.664062 12.867188 C 13.484375 12.351562 14.382812 12.179688 15.335938 12.351562 C 15.480469 12.375 17.464844 12.679688 19.019531 13.746094 L 20.707031 13.015625 C 20.839844 12.960938 20.996094 13.019531 21.050781 13.152344 C 21.109375 13.289062 21.046875 13.441406 20.914062 13.5 L 19.09375 14.289062 C 19.007812 14.324219 18.910156 14.3125 18.835938 14.257812 C 17.34375 13.179688 15.277344 12.875 15.257812 12.875 C 15.253906 12.871094 15.25 12.871094 15.246094 12.871094 C 14.421875 12.722656 13.640625 12.871094 12.933594 13.320312 C 12.929688 13.320312 12.925781 13.324219 12.921875 13.324219 C 12.027344 13.894531 11.410156 14.816406 11.050781 15.492188 C 10.855469 15.855469 10.921875 16.300781 11.21875 16.59375 C 11.394531 16.773438 11.632812 16.871094 11.882812 16.871094 C 12.132812 16.871094 12.367188 16.773438 12.542969 16.597656 L 13.753906 15.285156 C 13.960938 15.058594 14.222656 14.898438 14.515625 14.816406 C 15.085938 14.65625 15.699219 14.816406 16.117188 15.234375 L 20.015625 19.132812 C 20.269531 19.386719 20.410156 19.726562 20.410156 20.082031 C 20.410156 20.15625 20.402344 20.226562 20.390625 20.296875 C 20.347656 20.574219 20.21875 20.828125 20.015625 21.03125 C 19.761719 21.285156 19.425781 21.425781 19.066406 21.425781 Z M 19.066406 21.425781 " fill-opacity="1" fill-rule="nonzero"/><path fill="#935f3d" d="M 9.136719 13.691406 C 9.015625 13.691406 8.90625 13.609375 8.878906 13.484375 C 8.847656 13.34375 8.9375 13.203125 9.078125 13.171875 C 10.789062 12.78125 12.707031 12.832031 12.796875 12.832031 C 12.941406 12.835938 13.054688 12.953125 13.054688 13.097656 C 13.054688 13.242188 12.929688 13.363281 12.785156 13.359375 C 12.707031 13.355469 10.847656 13.308594 9.195312 13.683594 C 9.175781 13.6875 9.15625 13.691406 9.136719 13.691406 Z M 9.136719 13.691406 " fill-opacity="1" fill-rule="nonzero"/><path fill="#935f3d" d="M 8.867188 21.257812 C 8.605469 21.257812 8.363281 21.15625 8.183594 20.976562 C 8 20.792969 7.898438 20.550781 7.898438 20.292969 C 7.898438 20.035156 8 19.792969 8.183594 19.609375 L 9.011719 18.777344 C 9.195312 18.597656 9.4375 18.496094 9.695312 18.496094 C 9.953125 18.496094 10.195312 18.597656 10.378906 18.777344 C 10.5625 18.960938 10.660156 19.203125 10.660156 19.460938 C 10.660156 19.71875 10.5625 19.960938 10.378906 20.144531 C 10.277344 20.246094 10.109375 20.246094 10.007812 20.144531 C 9.902344 20.042969 9.902344 19.875 10.007812 19.773438 C 10.089844 19.6875 10.136719 19.578125 10.136719 19.460938 C 10.136719 19.34375 10.089844 19.234375 10.007812 19.148438 C 9.921875 19.066406 9.8125 19.023438 9.695312 19.023438 C 9.578125 19.023438 9.46875 19.066406 9.386719 19.148438 L 8.554688 19.980469 C 8.472656 20.0625 8.425781 20.175781 8.425781 20.292969 C 8.425781 20.410156 8.472656 20.519531 8.554688 20.601562 C 8.636719 20.6875 8.746094 20.730469 8.867188 20.730469 C 8.984375 20.730469 9.09375 20.683594 9.175781 20.601562 C 9.277344 20.5 9.445312 20.5 9.546875 20.601562 C 9.652344 20.707031 9.652344 20.871094 9.546875 20.976562 C 9.367188 21.15625 9.125 21.257812 8.867188 21.257812 Z M 8.867188 21.257812 " fill-opacity="1" fill-rule="nonzero"/><path fill="#935f3d" d="M 9.5625 22.546875 C 9.304688 22.546875 9.0625 22.445312 8.878906 22.265625 C 8.699219 22.082031 8.597656 21.839844 8.597656 21.582031 C 8.597656 21.324219 8.699219 21.082031 8.878906 20.898438 L 10.007812 19.773438 C 10.1875 19.589844 10.429688 19.488281 10.6875 19.488281 C 10.945312 19.488281 11.191406 19.589844 11.371094 19.773438 C 11.554688 19.953125 11.65625 20.195312 11.65625 20.457031 C 11.65625 20.714844 11.554688 20.957031 11.371094 21.136719 C 11.269531 21.242188 11.101562 21.242188 11 21.136719 C 10.898438 21.035156 10.898438 20.867188 11 20.765625 C 11.082031 20.683594 11.128906 20.574219 11.128906 20.457031 C 11.128906 20.335938 11.082031 20.226562 11 20.144531 C 10.917969 20.0625 10.804688 20.015625 10.6875 20.015625 C 10.570312 20.015625 10.460938 20.0625 10.378906 20.144531 L 9.25 21.269531 C 9.082031 21.441406 9.082031 21.722656 9.25 21.890625 C 9.335938 21.976562 9.445312 22.019531 9.5625 22.019531 C 9.679688 22.019531 9.789062 21.976562 9.875 21.890625 C 9.976562 21.789062 10.144531 21.789062 10.246094 21.890625 C 10.347656 21.996094 10.347656 22.164062 10.246094 22.265625 C 10.0625 22.445312 9.820312 22.546875 9.5625 22.546875 Z M 9.5625 22.546875 " fill-opacity="1" fill-rule="nonzero"/><path fill="#935f3d" d="M 10.230469 23.867188 C 9.980469 23.867188 9.734375 23.773438 9.546875 23.585938 C 9.363281 23.402344 9.261719 23.160156 9.261719 22.902344 C 9.261719 22.644531 9.363281 22.402344 9.546875 22.21875 L 11 20.765625 C 11.183594 20.582031 11.425781 20.484375 11.683594 20.484375 C 11.941406 20.484375 12.183594 20.582031 12.367188 20.765625 C 12.546875 20.949219 12.648438 21.191406 12.648438 21.449219 C 12.648438 21.707031 12.546875 21.949219 12.367188 22.132812 L 10.910156 23.585938 C 10.722656 23.773438 10.476562 23.867188 10.230469 23.867188 Z M 9.917969 23.214844 C 10.089844 23.382812 10.367188 23.382812 10.539062 23.214844 L 11.992188 21.757812 C 12.078125 21.675781 12.121094 21.566406 12.121094 21.449219 C 12.121094 21.332031 12.078125 21.21875 11.992188 21.136719 C 11.910156 21.054688 11.800781 21.007812 11.683594 21.007812 C 11.566406 21.007812 11.457031 21.054688 11.371094 21.136719 L 9.917969 22.589844 C 9.835938 22.675781 9.789062 22.785156 9.789062 22.902344 C 9.789062 23.019531 9.835938 23.128906 9.917969 23.214844 Z M 9.917969 23.214844 " fill-opacity="1" fill-rule="nonzero"/><path fill="#935f3d" d="M 11.644531 24.4375 C 11.398438 24.4375 11.148438 24.34375 10.960938 24.15625 C 10.777344 23.972656 10.679688 23.730469 10.679688 23.472656 C 10.679688 23.214844 10.777344 22.972656 10.960938 22.792969 C 11.0625 22.6875 11.230469 22.6875 11.332031 22.792969 C 11.4375 22.894531 11.4375 23.0625 11.332031 23.164062 C 11.25 23.246094 11.207031 23.355469 11.207031 23.472656 C 11.207031 23.589844 11.25 23.703125 11.332031 23.785156 C 11.503906 23.957031 11.785156 23.957031 11.953125 23.785156 L 12.988281 22.753906 C 13.070312 22.667969 13.117188 22.558594 13.117188 22.441406 C 13.117188 22.324219 13.070312 22.214844 12.988281 22.132812 C 12.816406 21.960938 12.539062 21.960938 12.367188 22.132812 C 12.261719 22.234375 12.097656 22.234375 11.992188 22.132812 C 11.890625 22.027344 11.890625 21.863281 11.992188 21.757812 C 12.371094 21.382812 12.984375 21.382812 13.359375 21.757812 C 13.542969 21.941406 13.640625 22.183594 13.640625 22.441406 C 13.640625 22.699219 13.542969 22.941406 13.359375 23.125 L 12.328125 24.15625 C 12.140625 24.34375 11.890625 24.4375 11.644531 24.4375 Z M 11.644531 24.4375 " fill-opacity="1" fill-rule="nonzero"/><g clip-path="url(#31daf43e90)"><path fill="#935f3d" d="M 14.996094 8.296875 C 13.992188 8.296875 13.175781 7.480469 13.175781 6.476562 C 13.175781 5.472656 13.992188 4.65625 14.996094 4.65625 C 16 4.65625 16.816406 5.472656 16.816406 6.476562 C 16.816406 7.480469 16 8.296875 14.996094 8.296875 Z M 14.996094 5.183594 C 14.285156 5.183594 13.703125 5.765625 13.703125 6.476562 C 13.703125 7.191406 14.285156 7.773438 14.996094 7.773438 C 15.710938 7.773438 16.292969 7.191406 16.292969 6.476562 C 16.292969 5.765625 15.710938 5.183594 14.996094 5.183594 Z M 14.996094 5.183594 " fill-opacity="1" fill-rule="nonzero"/></g><path fill="#935f3d" d="M 17.65625 11.054688 L 12.339844 11.054688 C 12.195312 11.054688 12.074219 10.9375 12.074219 10.792969 L 12.074219 9.648438 C 12.074219 8.613281 12.917969 7.773438 13.953125 7.773438 L 16.039062 7.773438 C 17.074219 7.773438 17.917969 8.613281 17.917969 9.648438 L 17.917969 10.792969 C 17.917969 10.9375 17.800781 11.054688 17.65625 11.054688 Z M 12.601562 10.527344 L 17.390625 10.527344 L 17.390625 9.648438 C 17.390625 8.90625 16.785156 8.296875 16.039062 8.296875 L 13.953125 8.296875 C 13.207031 8.296875 12.601562 8.90625 12.601562 9.648438 Z M 12.601562 10.527344 " fill-opacity="1" fill-rule="nonzero"/><path fill="#935f3d" d="M 16.371094 11.054688 C 16.226562 11.054688 16.109375 10.9375 16.109375 10.792969 L 16.109375 9.949219 C 16.109375 9.804688 16.226562 9.6875 16.371094 9.6875 C 16.515625 9.6875 16.632812 9.804688 16.632812 9.949219 L 16.632812 10.792969 C 16.632812 10.9375 16.515625 11.054688 16.371094 11.054688 Z M 16.371094 11.054688 " fill-opacity="1" fill-rule="nonzero"/><path fill="#935f3d" d="M 13.625 11.054688 C 13.476562 11.054688 13.359375 10.9375 13.359375 10.792969 L 13.359375 9.949219 C 13.359375 9.804688 13.476562 9.6875 13.625 9.6875 C 13.769531 9.6875 13.886719 9.804688 13.886719 9.949219 L 13.886719 10.792969 C 13.886719 10.9375 13.769531 11.054688 13.625 11.054688 Z M 13.625 11.054688 " fill-opacity="1" fill-rule="nonzero"/><g clip-path="url(#517172973a)"><path fill="#935f3d" d="M 9.964844 7.746094 C 8.960938 7.746094 8.144531 6.929688 8.144531 5.925781 C 8.144531 4.921875 8.960938 4.105469 9.964844 4.105469 C 10.96875 4.105469 11.785156 4.921875 11.785156 5.925781 C 11.785156 6.929688 10.96875 7.746094 9.964844 7.746094 Z M 9.964844 4.632812 C 9.25 4.632812 8.667969 5.210938 8.667969 5.925781 C 8.667969 6.636719 9.25 7.21875 9.964844 7.21875 C 10.675781 7.21875 11.257812 6.636719 11.257812 5.925781 C 11.257812 5.210938 10.675781 4.632812 9.964844 4.632812 Z M 9.964844 4.632812 " fill-opacity="1" fill-rule="nonzero"/></g><path fill="#935f3d" d="M 12.339844 10.503906 L 7.304688 10.503906 C 7.160156 10.503906 7.042969 10.382812 7.042969 10.238281 L 7.042969 9.261719 C 7.042969 8.136719 7.960938 7.21875 9.085938 7.21875 L 10.839844 7.21875 C 11.777344 7.21875 12.589844 7.851562 12.820312 8.757812 C 12.859375 8.898438 12.773438 9.042969 12.632812 9.078125 C 12.488281 9.113281 12.347656 9.027344 12.3125 8.886719 C 12.140625 8.214844 11.535156 7.746094 10.84375 7.746094 L 9.085938 7.746094 C 8.25 7.746094 7.570312 8.425781 7.570312 9.261719 L 7.570312 9.976562 L 12.339844 9.976562 C 12.484375 9.976562 12.601562 10.09375 12.601562 10.238281 C 12.601562 10.382812 12.484375 10.503906 12.339844 10.503906 Z M 12.339844 10.503906 " fill-opacity="1" fill-rule="nonzero"/><path fill="#935f3d" d="M 11.335938 10.503906 C 11.191406 10.503906 11.074219 10.382812 11.074219 10.238281 L 11.074219 9.398438 C 11.074219 9.25 11.191406 9.132812 11.335938 9.132812 C 11.484375 9.132812 11.601562 9.25 11.601562 9.398438 L 11.601562 10.238281 C 11.601562 10.382812 11.484375 10.503906 11.335938 10.503906 Z M 11.335938 10.503906 " fill-opacity="1" fill-rule="nonzero"/><path fill="#935f3d" d="M 8.589844 10.503906 C 8.445312 10.503906 8.328125 10.382812 8.328125 10.238281 L 8.328125 9.398438 C 8.328125 9.25 8.445312 9.132812 8.589844 9.132812 C 8.734375 9.132812 8.855469 9.25 8.855469 9.398438 L 8.855469 10.238281 C 8.855469 10.382812 8.734375 10.503906 8.589844 10.503906 Z M 8.589844 10.503906 " fill-opacity="1" fill-rule="nonzero"/><g clip-path="url(#17a5370406)"><path fill="#935f3d" d="M 20.03125 7.746094 C 19.027344 7.746094 18.210938 6.929688 18.210938 5.925781 C 18.210938 4.921875 19.027344 4.105469 20.03125 4.105469 C 21.035156 4.105469 21.851562 4.921875 21.851562 5.925781 C 21.851562 6.929688 21.035156 7.746094 20.03125 7.746094 Z M 20.03125 4.632812 C 19.316406 4.632812 18.738281 5.210938 18.738281 5.925781 C 18.738281 6.636719 19.316406 7.21875 20.03125 7.21875 C 20.746094 7.21875 21.324219 6.636719 21.324219 5.925781 C 21.324219 5.210938 20.742188 4.632812 20.03125 4.632812 Z M 20.03125 4.632812 " fill-opacity="1" fill-rule="nonzero"/></g><path fill="#935f3d" d="M 22.6875 10.503906 L 17.65625 10.503906 C 17.511719 10.503906 17.390625 10.382812 17.390625 10.238281 C 17.390625 10.09375 17.511719 9.976562 17.65625 9.976562 L 22.425781 9.976562 L 22.425781 9.261719 C 22.425781 8.425781 21.746094 7.746094 20.910156 7.746094 L 19.152344 7.746094 C 18.457031 7.746094 17.855469 8.214844 17.683594 8.886719 C 17.648438 9.027344 17.503906 9.113281 17.363281 9.078125 C 17.222656 9.042969 17.136719 8.898438 17.171875 8.757812 C 17.402344 7.851562 18.21875 7.21875 19.152344 7.21875 L 20.910156 7.21875 C 22.035156 7.21875 22.953125 8.136719 22.953125 9.261719 L 22.953125 10.238281 C 22.953125 10.382812 22.835938 10.503906 22.6875 10.503906 Z M 22.6875 10.503906 " fill-opacity="1" fill-rule="nonzero"/><path fill="#935f3d" d="M 21.40625 10.503906 C 21.257812 10.503906 21.140625 10.382812 21.140625 10.238281 L 21.140625 9.398438 C 21.140625 9.25 21.257812 9.132812 21.40625 9.132812 C 21.550781 9.132812 21.667969 9.25 21.667969 9.398438 L 21.667969 10.238281 C 21.667969 10.382812 21.550781 10.503906 21.40625 10.503906 Z M 21.40625 10.503906 " fill-opacity="1" fill-rule="nonzero"/><path fill="#935f3d" d="M 18.65625 10.503906 C 18.511719 10.503906 18.394531 10.382812 18.394531 10.238281 L 18.394531 9.398438 C 18.394531 9.25 18.511719 9.132812 18.65625 9.132812 C 18.800781 9.132812 18.921875 9.25 18.921875 9.398438 L 18.921875 10.238281 C 18.921875 10.382812 18.800781 10.503906 18.65625 10.503906 Z M 18.65625 10.503906 " fill-opacity="1" fill-rule="nonzero"/></svg>