<svg xmlns="http://www.w3.org/2000/svg" xmlns:xlink="http://www.w3.org/1999/xlink" width="40" zoomAndPan="magnify" viewBox="0 0 30 30.000001" height="40" preserveAspectRatio="xMidYMid meet" version="1.0"><defs><clipPath id="cc4fe3bfaf"><path d="M 0.484375 0 L 29.515625 0 L 29.515625 29.03125 L 0.484375 29.03125 Z M 0.484375 0 " clip-rule="nonzero"/></clipPath><clipPath id="a0ae05c719"><path d="M 13 10 L 26.613281 10 L 26.613281 23 L 13 23 Z M 13 10 " clip-rule="nonzero"/></clipPath><clipPath id="edc3235e8e"><path d="M 10 15 L 25 15 L 25 25.519531 L 10 25.519531 Z M 10 15 " clip-rule="nonzero"/></clipPath><clipPath id="f655beff14"><path d="M 3.386719 3.746094 L 17 3.746094 L 17 18 L 3.386719 18 Z M 3.386719 3.746094 " clip-rule="nonzero"/></clipPath></defs><g clip-path="url(#cc4fe3bfaf)"><path fill="#ffffff" d="M 0.484375 0 L 29.515625 0 L 29.515625 29.03125 L 0.484375 29.03125 Z M 0.484375 0 " fill-opacity="1" fill-rule="nonzero"/><path fill="#ffffff" d="M 0.484375 0 L 29.515625 0 L 29.515625 29.03125 L 0.484375 29.03125 Z M 0.484375 0 " fill-opacity="1" fill-rule="nonzero"/></g><g clip-path="url(#a0ae05c719)"><path fill="#935f3d" d="M 17.964844 22.507812 C 17.867188 22.507812 17.777344 22.472656 17.707031 22.402344 L 14.101562 18.796875 C 13.960938 18.65625 13.960938 18.429688 14.101562 18.285156 L 15.585938 16.804688 C 15.652344 16.738281 15.746094 16.699219 15.839844 16.699219 C 15.9375 16.699219 16.027344 16.738281 16.097656 16.804688 L 17.246094 17.953125 C 18.03125 16.585938 18.964844 15.363281 20.03125 14.316406 C 21.492188 12.878906 23.242188 11.71875 25.234375 10.863281 C 25.324219 10.828125 25.421875 10.828125 25.511719 10.863281 C 25.601562 10.898438 25.671875 10.96875 25.710938 11.054688 L 26.535156 12.980469 C 26.613281 13.167969 26.527344 13.378906 26.34375 13.457031 C 22.90625 14.925781 20.476562 17.359375 18.914062 20.894531 L 18.296875 22.292969 C 18.246094 22.402344 18.148438 22.480469 18.03125 22.503906 C 18.007812 22.507812 17.984375 22.507812 17.964844 22.507812 Z M 14.871094 18.542969 L 17.847656 21.519531 L 18.25 20.601562 C 19.84375 17.003906 22.289062 14.492188 25.726562 12.9375 L 25.1875 11.675781 C 23.417969 12.476562 21.855469 13.539062 20.539062 14.832031 C 19.417969 15.9375 18.445312 17.246094 17.648438 18.722656 C 17.59375 18.824219 17.496094 18.890625 17.382812 18.90625 C 17.269531 18.925781 17.152344 18.886719 17.074219 18.804688 L 15.839844 17.574219 Z M 14.871094 18.542969 " fill-opacity="1" fill-rule="nonzero"/></g><path fill="#935f3d" d="M 13.304688 9.625 C 13.105469 9.625 12.941406 9.464844 12.941406 9.265625 C 12.941406 9.066406 13.105469 8.902344 13.304688 8.902344 C 13.503906 8.902344 13.667969 9.066406 13.667969 9.265625 C 13.667969 9.464844 13.503906 9.625 13.304688 9.625 Z M 13.304688 9.625 " fill-opacity="1" fill-rule="nonzero"/><path fill="#935f3d" d="M 24.78125 10.480469 C 24.597656 10.480469 24.441406 10.339844 24.421875 10.15625 C 24.363281 9.609375 24.285156 9.171875 24.226562 8.871094 C 22.71875 9.632812 21.308594 9.824219 20.035156 9.445312 C 18.714844 9.046875 17.875 8.136719 17.453125 7.558594 C 17.066406 8.089844 16.320312 8.90625 15.175781 9.339844 C 14.988281 9.410156 14.78125 9.316406 14.710938 9.132812 C 14.636719 8.945312 14.730469 8.734375 14.917969 8.664062 C 16.414062 8.097656 17.125 6.738281 17.132812 6.722656 C 17.191406 6.601562 17.316406 6.527344 17.453125 6.527344 C 17.589844 6.527344 17.714844 6.601562 17.777344 6.722656 C 17.785156 6.738281 18.585938 8.257812 20.25 8.753906 C 21.445312 9.109375 22.808594 8.859375 24.292969 8.015625 C 24.390625 7.960938 24.507812 7.953125 24.609375 7.996094 C 24.710938 8.035156 24.789062 8.125 24.820312 8.230469 C 24.828125 8.261719 25.023438 8.949219 25.140625 10.082031 C 25.160156 10.277344 25.015625 10.457031 24.816406 10.476562 C 24.804688 10.480469 24.792969 10.480469 24.78125 10.480469 Z M 24.78125 10.480469 " fill-opacity="1" fill-rule="nonzero"/><g clip-path="url(#edc3235e8e)"><path fill="#935f3d" d="M 17.453125 25.28125 C 17.386719 25.28125 17.316406 25.265625 17.257812 25.226562 C 13.882812 23.054688 11.597656 20.21875 10.464844 16.792969 C 10.402344 16.601562 10.507812 16.398438 10.695312 16.335938 C 10.886719 16.273438 11.089844 16.375 11.152344 16.566406 C 12.210938 19.765625 14.328125 22.429688 17.453125 24.488281 C 20.933594 22.195312 23.15625 19.167969 24.066406 15.488281 C 24.113281 15.292969 24.308594 15.175781 24.503906 15.222656 C 24.699219 15.269531 24.816406 15.464844 24.769531 15.660156 C 24.332031 17.425781 23.59375 19.078125 22.570312 20.5625 C 21.335938 22.351562 19.683594 23.917969 17.648438 25.226562 C 17.589844 25.265625 17.523438 25.28125 17.453125 25.28125 Z M 17.453125 25.28125 " fill-opacity="1" fill-rule="nonzero"/></g><g clip-path="url(#f655beff14)"><path fill="#935f3d" d="M 11.113281 17.039062 L 8.953125 17.039062 C 8.753906 17.039062 8.589844 16.878906 8.589844 16.679688 L 8.589844 15.769531 C 8.121094 15.644531 7.671875 15.460938 7.253906 15.214844 L 6.609375 15.859375 C 6.46875 16 6.238281 16 6.097656 15.859375 L 4.570312 14.328125 C 4.5 14.261719 4.464844 14.167969 4.464844 14.074219 C 4.464844 13.976562 4.5 13.886719 4.570312 13.816406 L 5.210938 13.175781 C 4.96875 12.753906 4.78125 12.304688 4.65625 11.835938 L 3.75 11.835938 C 3.550781 11.835938 3.386719 11.675781 3.386719 11.476562 L 3.386719 9.3125 C 3.386719 9.113281 3.550781 8.949219 3.75 8.949219 L 4.65625 8.949219 C 4.78125 8.480469 4.96875 8.035156 5.210938 7.613281 L 4.570312 6.972656 C 4.429688 6.828125 4.429688 6.601562 4.570312 6.460938 L 6.097656 4.929688 C 6.238281 4.789062 6.46875 4.789062 6.609375 4.929688 L 7.253906 5.574219 C 7.671875 5.328125 8.121094 5.144531 8.589844 5.019531 L 8.589844 4.109375 C 8.589844 3.910156 8.753906 3.746094 8.953125 3.746094 L 11.113281 3.746094 C 11.316406 3.746094 11.476562 3.910156 11.476562 4.109375 L 11.476562 5.019531 C 11.945312 5.144531 12.394531 5.328125 12.8125 5.574219 L 13.457031 4.929688 C 13.597656 4.789062 13.828125 4.789062 13.96875 4.929688 L 15.496094 6.460938 C 15.566406 6.527344 15.605469 6.621094 15.605469 6.714844 C 15.605469 6.8125 15.566406 6.902344 15.496094 6.972656 L 14.855469 7.613281 C 15.097656 8.035156 15.285156 8.484375 15.410156 8.949219 L 16.316406 8.949219 C 16.515625 8.949219 16.679688 9.113281 16.679688 9.3125 L 16.679688 11.476562 C 16.679688 11.675781 16.515625 11.835938 16.316406 11.835938 L 15.410156 11.835938 C 15.285156 12.304688 15.097656 12.753906 14.855469 13.175781 L 15.496094 13.816406 C 15.566406 13.886719 15.605469 13.976562 15.605469 14.074219 C 15.605469 14.167969 15.566406 14.261719 15.496094 14.328125 L 13.96875 15.859375 C 13.828125 16 13.597656 16 13.457031 15.859375 L 12.8125 15.214844 C 12.394531 15.460938 11.945312 15.644531 11.476562 15.769531 L 11.476562 16.679688 C 11.476562 16.878906 11.316406 17.039062 11.113281 17.039062 Z M 9.3125 16.316406 L 10.753906 16.316406 L 10.753906 15.484375 C 10.753906 15.3125 10.871094 15.164062 11.039062 15.128906 C 11.621094 15.007812 12.171875 14.78125 12.671875 14.453125 C 12.8125 14.359375 13.003906 14.378906 13.125 14.5 L 13.710938 15.089844 L 14.730469 14.074219 L 14.140625 13.484375 C 14.019531 13.363281 14 13.175781 14.09375 13.03125 C 14.417969 12.53125 14.644531 11.984375 14.769531 11.402344 C 14.804688 11.234375 14.953125 11.113281 15.125 11.113281 L 15.957031 11.113281 L 15.957031 9.675781 L 15.125 9.675781 C 14.953125 9.675781 14.804688 9.554688 14.769531 9.386719 C 14.644531 8.804688 14.417969 8.257812 14.09375 7.757812 C 14 7.613281 14.019531 7.425781 14.140625 7.304688 L 14.730469 6.714844 L 13.710938 5.699219 L 13.125 6.285156 C 13.003906 6.40625 12.8125 6.425781 12.671875 6.335938 C 12.171875 6.007812 11.621094 5.78125 11.039062 5.660156 C 10.871094 5.621094 10.753906 5.476562 10.753906 5.304688 L 10.753906 4.472656 L 9.3125 4.472656 L 9.3125 5.304688 C 9.3125 5.476562 9.195312 5.621094 9.027344 5.660156 C 8.445312 5.78125 7.894531 6.007812 7.394531 6.335938 C 7.253906 6.425781 7.0625 6.40625 6.941406 6.285156 L 6.355469 5.699219 L 5.335938 6.714844 L 5.925781 7.304688 C 6.046875 7.425781 6.066406 7.613281 5.972656 7.757812 C 5.648438 8.257812 5.421875 8.804688 5.296875 9.386719 C 5.261719 9.554688 5.113281 9.675781 4.941406 9.675781 L 4.113281 9.675781 L 4.113281 11.113281 L 4.941406 11.113281 C 5.113281 11.113281 5.261719 11.234375 5.296875 11.402344 C 5.421875 11.984375 5.648438 12.53125 5.972656 13.03125 C 6.066406 13.175781 6.046875 13.363281 5.925781 13.484375 L 5.335938 14.074219 L 6.355469 15.089844 L 6.941406 14.5 C 7.0625 14.378906 7.253906 14.359375 7.394531 14.453125 C 7.894531 14.78125 8.445312 15.007812 9.027344 15.128906 C 9.195312 15.164062 9.3125 15.3125 9.3125 15.484375 Z M 9.3125 16.316406 " fill-opacity="1" fill-rule="nonzero"/></g><path fill="#935f3d" d="M 10.035156 14.21875 C 7.925781 14.21875 6.210938 12.503906 6.210938 10.394531 C 6.210938 8.285156 7.925781 6.570312 10.035156 6.570312 C 12.140625 6.570312 13.855469 8.285156 13.855469 10.394531 C 13.855469 12.503906 12.140625 14.21875 10.035156 14.21875 Z M 10.035156 7.296875 C 8.324219 7.296875 6.933594 8.6875 6.933594 10.394531 C 6.933594 12.101562 8.324219 13.492188 10.035156 13.492188 C 11.742188 13.492188 13.132812 12.101562 13.132812 10.394531 C 13.132812 8.6875 11.742188 7.296875 10.035156 7.296875 Z M 10.035156 7.296875 " fill-opacity="1" fill-rule="nonzero"/></svg>