<svg xmlns="http://www.w3.org/2000/svg" xmlns:xlink="http://www.w3.org/1999/xlink" width="40" zoomAndPan="magnify" viewBox="0 0 30 30.000001" height="40" preserveAspectRatio="xMidYMid meet" version="1.0"><defs><clipPath id="a617396cba"><path d="M 0.484375 0 L 29.515625 0 L 29.515625 29.03125 L 0.484375 29.03125 Z M 0.484375 0 " clip-rule="nonzero"/></clipPath><clipPath id="96fc4d752f"><path d="M 6 2.902344 L 24 2.902344 L 24 17 L 6 17 Z M 6 2.902344 " clip-rule="nonzero"/></clipPath><clipPath id="6ad560bab1"><path d="M 5 18 L 14 18 L 14 26.128906 L 5 26.128906 Z M 5 18 " clip-rule="nonzero"/></clipPath><clipPath id="641a1ad259"><path d="M 16 18 L 25 18 L 25 26.128906 L 16 26.128906 Z M 16 18 " clip-rule="nonzero"/></clipPath><clipPath id="ee796b7ff2"><path d="M 4.027344 9 L 8 9 L 8 24 L 4.027344 24 Z M 4.027344 9 " clip-rule="nonzero"/></clipPath><clipPath id="3c58ceda3f"><path d="M 22 9 L 25.800781 9 L 25.800781 24 L 22 24 Z M 22 9 " clip-rule="nonzero"/></clipPath></defs><g clip-path="url(#a617396cba)"><path fill="#ffffff" d="M 0.484375 0 L 29.515625 0 L 29.515625 29.03125 L 0.484375 29.03125 Z M 0.484375 0 " fill-opacity="1" fill-rule="nonzero"/><path fill="#ffffff" d="M 0.484375 0 L 29.515625 0 L 29.515625 29.03125 L 0.484375 29.03125 Z M 0.484375 0 " fill-opacity="1" fill-rule="nonzero"/></g><g clip-path="url(#96fc4d752f)"><path fill="#935f3d" d="M 21.609375 16.492188 L 8.382812 16.492188 C 7.59375 16.492188 6.953125 15.851562 6.953125 15.0625 L 6.953125 4.359375 C 6.953125 3.570312 7.59375 2.929688 8.382812 2.929688 L 21.609375 2.929688 C 22.398438 2.929688 23.039062 3.570312 23.039062 4.359375 L 23.039062 15.066406 C 23.039062 15.851562 22.398438 16.492188 21.609375 16.492188 Z M 8.382812 3.4375 C 7.871094 3.4375 7.457031 3.851562 7.457031 4.359375 L 7.457031 15.066406 C 7.457031 15.574219 7.871094 15.988281 8.382812 15.988281 L 21.609375 15.988281 C 22.121094 15.988281 22.53125 15.574219 22.53125 15.066406 L 22.53125 4.359375 C 22.53125 3.851562 22.121094 3.4375 21.609375 3.4375 Z M 8.382812 3.4375 " fill-opacity="1" fill-rule="nonzero"/></g><path fill="#935f3d" d="M 22.785156 5.925781 L 7.207031 5.925781 C 7.066406 5.925781 6.953125 5.8125 6.953125 5.675781 C 6.953125 5.535156 7.066406 5.421875 7.207031 5.421875 L 22.785156 5.421875 C 22.925781 5.421875 23.039062 5.535156 23.039062 5.675781 C 23.039062 5.8125 22.925781 5.925781 22.785156 5.925781 Z M 22.785156 5.925781 " fill-opacity="1" fill-rule="nonzero"/><path fill="#935f3d" d="M 10.414062 4.683594 L 8.871094 4.683594 C 8.730469 4.683594 8.617188 4.570312 8.617188 4.429688 C 8.617188 4.289062 8.730469 4.175781 8.871094 4.175781 L 10.414062 4.175781 C 10.554688 4.175781 10.667969 4.289062 10.667969 4.429688 C 10.667969 4.570312 10.554688 4.683594 10.414062 4.683594 Z M 10.414062 4.683594 " fill-opacity="1" fill-rule="nonzero"/><path fill="#935f3d" d="M 13.324219 4.683594 L 11.78125 4.683594 C 11.640625 4.683594 11.527344 4.570312 11.527344 4.429688 C 11.527344 4.289062 11.640625 4.175781 11.78125 4.175781 L 13.324219 4.175781 C 13.464844 4.175781 13.578125 4.289062 13.578125 4.429688 C 13.578125 4.570312 13.464844 4.683594 13.324219 4.683594 Z M 13.324219 4.683594 " fill-opacity="1" fill-rule="nonzero"/><path fill="#935f3d" d="M 16.234375 4.683594 L 14.6875 4.683594 C 14.550781 4.683594 14.4375 4.570312 14.4375 4.429688 C 14.4375 4.289062 14.550781 4.175781 14.6875 4.175781 L 16.234375 4.175781 C 16.375 4.175781 16.488281 4.289062 16.488281 4.429688 C 16.488281 4.570312 16.375 4.683594 16.234375 4.683594 Z M 16.234375 4.683594 " fill-opacity="1" fill-rule="nonzero"/><path fill="#935f3d" d="M 11.222656 10.046875 C 11.199219 10.046875 11.179688 10.042969 11.15625 10.039062 C 11.023438 10 10.941406 9.863281 10.976562 9.726562 L 11.511719 7.734375 C 11.546875 7.601562 11.6875 7.519531 11.820312 7.558594 C 11.957031 7.59375 12.035156 7.730469 12 7.867188 L 11.464844 9.859375 C 11.4375 9.972656 11.335938 10.046875 11.222656 10.046875 Z M 11.222656 10.046875 " fill-opacity="1" fill-rule="nonzero"/><path fill="#935f3d" d="M 9.949219 10.046875 C 9.898438 10.046875 9.84375 10.027344 9.796875 9.996094 L 8.46875 9 C 8.40625 8.949219 8.371094 8.875 8.371094 8.796875 C 8.371094 8.71875 8.40625 8.640625 8.46875 8.59375 L 9.796875 7.597656 C 9.910156 7.515625 10.070312 7.535156 10.152344 7.648438 C 10.238281 7.761719 10.214844 7.917969 10.101562 8.003906 L 9.042969 8.796875 L 10.101562 9.589844 C 10.214844 9.675781 10.238281 9.832031 10.152344 9.945312 C 10.105469 10.011719 10.027344 10.046875 9.949219 10.046875 Z M 9.949219 10.046875 " fill-opacity="1" fill-rule="nonzero"/><path fill="#935f3d" d="M 13.027344 10.046875 C 12.949219 10.046875 12.875 10.011719 12.824219 9.945312 C 12.742188 9.832031 12.765625 9.675781 12.875 9.589844 L 13.933594 8.796875 L 12.875 8.003906 C 12.765625 7.917969 12.742188 7.761719 12.824219 7.648438 C 12.910156 7.535156 13.066406 7.515625 13.179688 7.597656 L 14.507812 8.59375 C 14.570312 8.640625 14.609375 8.71875 14.609375 8.796875 C 14.609375 8.875 14.570312 8.949219 14.507812 9 L 13.179688 9.996094 C 13.132812 10.027344 13.082031 10.046875 13.027344 10.046875 Z M 13.027344 10.046875 " fill-opacity="1" fill-rule="nonzero"/><path fill="#935f3d" d="M 19.523438 7.804688 L 15.761719 7.804688 C 15.621094 7.804688 15.507812 7.691406 15.507812 7.550781 C 15.507812 7.410156 15.621094 7.296875 15.761719 7.296875 L 19.523438 7.296875 C 19.664062 7.296875 19.777344 7.410156 19.777344 7.550781 C 19.777344 7.691406 19.664062 7.804688 19.523438 7.804688 Z M 19.523438 7.804688 " fill-opacity="1" fill-rule="nonzero"/><path fill="#935f3d" d="M 21.367188 7.804688 L 20.722656 7.804688 C 20.582031 7.804688 20.46875 7.691406 20.46875 7.550781 C 20.46875 7.410156 20.582031 7.296875 20.722656 7.296875 L 21.367188 7.296875 C 21.507812 7.296875 21.621094 7.410156 21.621094 7.550781 C 21.621094 7.691406 21.507812 7.804688 21.367188 7.804688 Z M 21.367188 7.804688 " fill-opacity="1" fill-rule="nonzero"/><path fill="#935f3d" d="M 21.367188 9.050781 L 17.605469 9.050781 C 17.464844 9.050781 17.351562 8.9375 17.351562 8.796875 C 17.351562 8.65625 17.464844 8.542969 17.605469 8.542969 L 21.367188 8.542969 C 21.507812 8.542969 21.621094 8.65625 21.621094 8.796875 C 21.621094 8.9375 21.507812 9.050781 21.367188 9.050781 Z M 21.367188 9.050781 " fill-opacity="1" fill-rule="nonzero"/><path fill="#935f3d" d="M 16.40625 9.050781 L 15.761719 9.050781 C 15.621094 9.050781 15.507812 8.9375 15.507812 8.796875 C 15.507812 8.65625 15.621094 8.542969 15.761719 8.542969 L 16.40625 8.542969 C 16.546875 8.542969 16.660156 8.65625 16.660156 8.796875 C 16.660156 8.9375 16.546875 9.050781 16.40625 9.050781 Z M 16.40625 9.050781 " fill-opacity="1" fill-rule="nonzero"/><path fill="#935f3d" d="M 19.523438 10.296875 L 15.761719 10.296875 C 15.621094 10.296875 15.507812 10.183594 15.507812 10.042969 C 15.507812 9.902344 15.621094 9.789062 15.761719 9.789062 L 19.523438 9.789062 C 19.664062 9.789062 19.777344 9.902344 19.777344 10.042969 C 19.777344 10.183594 19.664062 10.296875 19.523438 10.296875 Z M 19.523438 10.296875 " fill-opacity="1" fill-rule="nonzero"/><path fill="#935f3d" d="M 21.367188 10.296875 L 20.722656 10.296875 C 20.582031 10.296875 20.46875 10.183594 20.46875 10.042969 C 20.46875 9.902344 20.582031 9.789062 20.722656 9.789062 L 21.367188 9.789062 C 21.507812 9.789062 21.621094 9.902344 21.621094 10.042969 C 21.621094 10.183594 21.507812 10.296875 21.367188 10.296875 Z M 21.367188 10.296875 " fill-opacity="1" fill-rule="nonzero"/><path fill="#935f3d" d="M 11.222656 14.367188 C 11.199219 14.367188 11.179688 14.363281 11.15625 14.359375 C 11.023438 14.320312 10.941406 14.183594 10.976562 14.046875 L 11.511719 12.054688 C 11.546875 11.921875 11.6875 11.839844 11.820312 11.878906 C 11.957031 11.914062 12.035156 12.050781 12 12.1875 L 11.464844 14.179688 C 11.4375 14.292969 11.335938 14.367188 11.222656 14.367188 Z M 11.222656 14.367188 " fill-opacity="1" fill-rule="nonzero"/><path fill="#935f3d" d="M 9.949219 14.367188 C 9.898438 14.367188 9.84375 14.347656 9.796875 14.316406 L 8.46875 13.320312 C 8.40625 13.269531 8.371094 13.195312 8.371094 13.117188 C 8.371094 13.039062 8.40625 12.960938 8.46875 12.914062 L 9.796875 11.917969 C 9.910156 11.835938 10.070312 11.855469 10.152344 11.96875 C 10.238281 12.082031 10.214844 12.238281 10.101562 12.324219 L 9.042969 13.117188 L 10.101562 13.910156 C 10.214844 13.996094 10.238281 14.152344 10.152344 14.265625 C 10.105469 14.332031 10.027344 14.367188 9.949219 14.367188 Z M 9.949219 14.367188 " fill-opacity="1" fill-rule="nonzero"/><path fill="#935f3d" d="M 13.027344 14.367188 C 12.949219 14.367188 12.875 14.332031 12.824219 14.265625 C 12.742188 14.152344 12.765625 13.996094 12.875 13.910156 L 13.933594 13.117188 L 12.875 12.324219 C 12.765625 12.238281 12.742188 12.082031 12.824219 11.96875 C 12.910156 11.855469 13.066406 11.835938 13.179688 11.917969 L 14.507812 12.914062 C 14.570312 12.960938 14.609375 13.039062 14.609375 13.117188 C 14.609375 13.195312 14.570312 13.269531 14.507812 13.320312 L 13.179688 14.316406 C 13.132812 14.347656 13.082031 14.367188 13.027344 14.367188 Z M 13.027344 14.367188 " fill-opacity="1" fill-rule="nonzero"/><path fill="#935f3d" d="M 19.523438 12.125 L 15.761719 12.125 C 15.621094 12.125 15.507812 12.011719 15.507812 11.871094 C 15.507812 11.730469 15.621094 11.617188 15.761719 11.617188 L 19.523438 11.617188 C 19.664062 11.617188 19.777344 11.730469 19.777344 11.871094 C 19.777344 12.011719 19.664062 12.125 19.523438 12.125 Z M 19.523438 12.125 " fill-opacity="1" fill-rule="nonzero"/><path fill="#935f3d" d="M 21.367188 12.125 L 20.722656 12.125 C 20.582031 12.125 20.46875 12.011719 20.46875 11.871094 C 20.46875 11.730469 20.582031 11.617188 20.722656 11.617188 L 21.367188 11.617188 C 21.507812 11.617188 21.621094 11.730469 21.621094 11.871094 C 21.621094 12.011719 21.507812 12.125 21.367188 12.125 Z M 21.367188 12.125 " fill-opacity="1" fill-rule="nonzero"/><path fill="#935f3d" d="M 21.367188 13.371094 L 17.605469 13.371094 C 17.464844 13.371094 17.351562 13.257812 17.351562 13.117188 C 17.351562 12.976562 17.464844 12.863281 17.605469 12.863281 L 21.367188 12.863281 C 21.507812 12.863281 21.621094 12.976562 21.621094 13.117188 C 21.621094 13.257812 21.507812 13.371094 21.367188 13.371094 Z M 21.367188 13.371094 " fill-opacity="1" fill-rule="nonzero"/><path fill="#935f3d" d="M 16.40625 13.371094 L 15.761719 13.371094 C 15.621094 13.371094 15.507812 13.257812 15.507812 13.117188 C 15.507812 12.976562 15.621094 12.863281 15.761719 12.863281 L 16.40625 12.863281 C 16.546875 12.863281 16.660156 12.976562 16.660156 13.117188 C 16.660156 13.257812 16.546875 13.371094 16.40625 13.371094 Z M 16.40625 13.371094 " fill-opacity="1" fill-rule="nonzero"/><path fill="#935f3d" d="M 19.523438 14.617188 L 15.761719 14.617188 C 15.621094 14.617188 15.507812 14.503906 15.507812 14.363281 C 15.507812 14.222656 15.621094 14.109375 15.761719 14.109375 L 19.523438 14.109375 C 19.664062 14.109375 19.777344 14.222656 19.777344 14.363281 C 19.777344 14.503906 19.664062 14.617188 19.523438 14.617188 Z M 19.523438 14.617188 " fill-opacity="1" fill-rule="nonzero"/><path fill="#935f3d" d="M 21.367188 14.617188 L 20.722656 14.617188 C 20.582031 14.617188 20.46875 14.503906 20.46875 14.363281 C 20.46875 14.222656 20.582031 14.109375 20.722656 14.109375 L 21.367188 14.109375 C 21.507812 14.109375 21.621094 14.222656 21.621094 14.363281 C 21.621094 14.503906 21.507812 14.617188 21.367188 14.617188 Z M 21.367188 14.617188 " fill-opacity="1" fill-rule="nonzero"/><g clip-path="url(#6ad560bab1)"><path fill="#935f3d" d="M 12.605469 26.101562 L 6.488281 26.101562 C 6.199219 26.101562 5.960938 25.882812 5.9375 25.597656 L 5.507812 20.597656 C 5.496094 20.441406 5.542969 20.292969 5.652344 20.175781 C 5.757812 20.058594 5.898438 19.996094 6.058594 19.996094 L 9.367188 19.996094 C 9.386719 19.996094 9.402344 19.988281 9.410156 19.96875 L 9.742188 19.078125 C 9.824219 18.859375 10.027344 18.71875 10.261719 18.71875 L 13.042969 18.71875 C 13.199219 18.71875 13.339844 18.777344 13.445312 18.894531 C 13.554688 19.007812 13.605469 19.152344 13.59375 19.308594 L 13.15625 25.585938 C 13.136719 25.875 12.894531 26.101562 12.605469 26.101562 Z M 6.058594 20.503906 C 6.042969 20.503906 6.035156 20.507812 6.023438 20.519531 C 6.011719 20.53125 6.011719 20.539062 6.011719 20.554688 L 6.441406 25.550781 C 6.441406 25.578125 6.460938 25.59375 6.488281 25.59375 L 12.605469 25.59375 C 12.628906 25.59375 12.648438 25.578125 12.652344 25.550781 L 13.089844 19.273438 C 13.089844 19.257812 13.089844 19.25 13.078125 19.238281 C 13.066406 19.226562 13.058594 19.222656 13.042969 19.222656 L 10.261719 19.222656 C 10.238281 19.222656 10.226562 19.234375 10.21875 19.253906 L 9.882812 20.144531 C 9.800781 20.363281 9.597656 20.503906 9.367188 20.503906 Z M 6.058594 20.503906 " fill-opacity="1" fill-rule="nonzero"/></g><path fill="#935f3d" d="M 6.324219 20.503906 C 6.183594 20.503906 6.070312 20.390625 6.070312 20.25 L 6.070312 18.558594 C 6.070312 18.253906 6.320312 18.003906 6.625 18.003906 L 7.773438 18.003906 C 8.078125 18.003906 8.328125 18.253906 8.328125 18.558594 L 8.328125 18.671875 C 8.328125 18.695312 8.347656 18.71875 8.375 18.71875 L 10.382812 18.71875 C 10.523438 18.71875 10.636719 18.832031 10.636719 18.972656 C 10.636719 19.109375 10.523438 19.222656 10.382812 19.222656 L 8.375 19.222656 C 8.070312 19.222656 7.820312 18.976562 7.820312 18.671875 L 7.820312 18.558594 C 7.820312 18.53125 7.800781 18.507812 7.773438 18.507812 L 6.625 18.507812 C 6.601562 18.507812 6.578125 18.53125 6.578125 18.558594 L 6.578125 20.25 C 6.578125 20.390625 6.464844 20.503906 6.324219 20.503906 Z M 6.324219 20.503906 " fill-opacity="1" fill-rule="nonzero"/><g clip-path="url(#641a1ad259)"><path fill="#935f3d" d="M 23.496094 26.101562 L 17.378906 26.101562 C 17.089844 26.101562 16.851562 25.882812 16.828125 25.597656 L 16.398438 20.597656 C 16.386719 20.441406 16.433594 20.292969 16.542969 20.175781 C 16.648438 20.058594 16.789062 19.996094 16.949219 19.996094 L 20.253906 19.996094 C 20.277344 19.996094 20.292969 19.988281 20.300781 19.96875 L 20.632812 19.078125 C 20.714844 18.859375 20.917969 18.71875 21.152344 18.71875 L 23.933594 18.71875 C 24.089844 18.71875 24.230469 18.777344 24.335938 18.894531 C 24.445312 19.007812 24.496094 19.152344 24.484375 19.308594 L 24.046875 25.585938 C 24.027344 25.875 23.785156 26.101562 23.496094 26.101562 Z M 16.949219 20.503906 C 16.933594 20.503906 16.925781 20.507812 16.914062 20.519531 C 16.902344 20.53125 16.902344 20.539062 16.902344 20.554688 L 17.332031 25.550781 C 17.332031 25.578125 17.351562 25.59375 17.378906 25.59375 L 23.496094 25.59375 C 23.519531 25.59375 23.539062 25.578125 23.542969 25.550781 L 23.980469 19.273438 C 23.980469 19.257812 23.976562 19.25 23.96875 19.238281 C 23.957031 19.226562 23.949219 19.222656 23.933594 19.222656 L 21.152344 19.222656 C 21.128906 19.222656 21.113281 19.234375 21.109375 19.253906 L 20.773438 20.144531 C 20.691406 20.363281 20.488281 20.503906 20.257812 20.503906 Z M 16.949219 20.503906 " fill-opacity="1" fill-rule="nonzero"/></g><path fill="#935f3d" d="M 17.214844 20.503906 C 17.074219 20.503906 16.960938 20.390625 16.960938 20.25 L 16.960938 18.558594 C 16.960938 18.253906 17.210938 18.003906 17.515625 18.003906 L 18.664062 18.003906 C 18.96875 18.003906 19.21875 18.253906 19.21875 18.558594 L 19.21875 18.671875 C 19.21875 18.695312 19.238281 18.71875 19.265625 18.71875 L 21.273438 18.71875 C 21.414062 18.71875 21.527344 18.832031 21.527344 18.972656 C 21.527344 19.109375 21.414062 19.222656 21.273438 19.222656 L 19.265625 19.222656 C 18.960938 19.222656 18.710938 18.976562 18.710938 18.671875 L 18.710938 18.558594 C 18.710938 18.53125 18.691406 18.507812 18.664062 18.507812 L 17.515625 18.507812 C 17.488281 18.507812 17.46875 18.53125 17.46875 18.558594 L 17.46875 20.25 C 17.46875 20.390625 17.355469 20.503906 17.214844 20.503906 Z M 17.214844 20.503906 " fill-opacity="1" fill-rule="nonzero"/><g clip-path="url(#ee796b7ff2)"><path fill="#935f3d" d="M 5.984375 23.425781 L 5.042969 23.425781 C 4.480469 23.425781 4.023438 22.96875 4.023438 22.40625 L 4.023438 10.765625 C 4.023438 10.203125 4.480469 9.746094 5.042969 9.746094 L 7.207031 9.746094 C 7.34375 9.746094 7.457031 9.859375 7.457031 10 C 7.457031 10.136719 7.34375 10.25 7.207031 10.25 L 5.042969 10.25 C 4.761719 10.25 4.53125 10.480469 4.53125 10.765625 L 4.53125 22.40625 C 4.53125 22.691406 4.761719 22.921875 5.042969 22.921875 L 5.984375 22.921875 C 6.121094 22.921875 6.234375 23.035156 6.234375 23.171875 C 6.234375 23.3125 6.121094 23.425781 5.984375 23.425781 Z M 5.984375 23.425781 " fill-opacity="1" fill-rule="nonzero"/></g><g clip-path="url(#3c58ceda3f)"><path fill="#935f3d" d="M 24.949219 23.425781 L 23.960938 23.425781 C 23.820312 23.425781 23.707031 23.3125 23.707031 23.171875 C 23.707031 23.03125 23.820312 22.917969 23.960938 22.917969 L 24.949219 22.917969 C 25.230469 22.917969 25.460938 22.691406 25.460938 22.40625 L 25.460938 10.765625 C 25.460938 10.480469 25.230469 10.25 24.949219 10.25 L 22.785156 10.25 C 22.644531 10.25 22.53125 10.136719 22.53125 10 C 22.53125 9.859375 22.644531 9.746094 22.785156 9.746094 L 24.949219 9.746094 C 25.511719 9.746094 25.96875 10.203125 25.96875 10.765625 L 25.96875 22.40625 C 25.96875 22.96875 25.511719 23.425781 24.949219 23.425781 Z M 24.949219 23.425781 " fill-opacity="1" fill-rule="nonzero"/></g><path fill="#935f3d" d="M 16.871094 23.425781 L 13.070312 23.425781 C 12.929688 23.425781 12.816406 23.3125 12.816406 23.171875 C 12.816406 23.03125 12.929688 22.917969 13.070312 22.917969 L 16.871094 22.917969 C 17.011719 22.917969 17.125 23.03125 17.125 23.171875 C 17.125 23.3125 17.011719 23.425781 16.871094 23.425781 Z M 16.871094 23.425781 " fill-opacity="1" fill-rule="nonzero"/></svg>