<svg xmlns="http://www.w3.org/2000/svg" xmlns:xlink="http://www.w3.org/1999/xlink" width="40" zoomAndPan="magnify" viewBox="0 0 30 30.000001" height="40" preserveAspectRatio="xMidYMid meet" version="1.0"><defs><clipPath id="7d12a0f669"><path d="M 0.484375 0 L 29.515625 0 L 29.515625 29.03125 L 0.484375 29.03125 Z M 0.484375 0 " clip-rule="nonzero"/></clipPath><clipPath id="97e9f6ecb0"><path d="M 12 23 L 14 23 L 14 26.128906 L 12 26.128906 Z M 12 23 " clip-rule="nonzero"/></clipPath><clipPath id="4eb408f062"><path d="M 16 23 L 18 23 L 18 26.128906 L 16 26.128906 Z M 16 23 " clip-rule="nonzero"/></clipPath><clipPath id="e2d985e857"><path d="M 4.15625 18 L 25.929688 18 L 25.929688 26.128906 L 4.15625 26.128906 Z M 4.15625 18 " clip-rule="nonzero"/></clipPath><clipPath id="be214e6c3b"><path d="M 19 23 L 21 23 L 21 26.128906 L 19 26.128906 Z M 19 23 " clip-rule="nonzero"/></clipPath><clipPath id="914f42c33b"><path d="M 23 23 L 25 23 L 25 26.128906 L 23 26.128906 Z M 23 23 " clip-rule="nonzero"/></clipPath><clipPath id="33c66104a0"><path d="M 5 23 L 7 23 L 7 26.128906 L 5 26.128906 Z M 5 23 " clip-rule="nonzero"/></clipPath><clipPath id="3e2e0559ea"><path d="M 9 23 L 11 23 L 11 26.128906 L 9 26.128906 Z M 9 23 " clip-rule="nonzero"/></clipPath><clipPath id="2ce800049e"><path d="M 6 2.902344 L 24 2.902344 L 24 18 L 6 18 Z M 6 2.902344 " clip-rule="nonzero"/></clipPath></defs><g clip-path="url(#7d12a0f669)"><path fill="#ffffff" d="M 0.484375 0 L 29.515625 0 L 29.515625 29.03125 L 0.484375 29.03125 Z M 0.484375 0 " fill-opacity="1" fill-rule="nonzero"/><path fill="#ffffff" d="M 0.484375 0 L 29.515625 0 L 29.515625 29.03125 L 0.484375 29.03125 Z M 0.484375 0 " fill-opacity="1" fill-rule="nonzero"/></g><g clip-path="url(#97e9f6ecb0)"><path fill="#935f3d" d="M 12.675781 23.804688 L 13.449219 23.804688 L 13.449219 26.128906 L 12.675781 26.128906 Z M 12.675781 23.804688 " fill-opacity="1" fill-rule="nonzero"/></g><g clip-path="url(#4eb408f062)"><path fill="#935f3d" d="M 16.546875 23.804688 L 17.320312 23.804688 L 17.320312 26.128906 L 16.546875 26.128906 Z M 16.546875 23.804688 " fill-opacity="1" fill-rule="nonzero"/></g><g clip-path="url(#e2d985e857)"><path fill="#935f3d" d="M 25.0625 23.804688 L 25.0625 26.128906 L 25.835938 26.128906 L 25.835938 23.804688 C 25.835938 22.738281 24.96875 21.871094 23.902344 21.871094 L 23.691406 21.871094 C 24.0625 21.460938 24.289062 20.917969 24.289062 20.324219 C 24.289062 19.042969 23.246094 18 21.964844 18 C 20.683594 18 19.644531 19.042969 19.644531 20.324219 C 19.644531 20.917969 19.871094 21.460938 20.238281 21.871094 L 20.03125 21.871094 C 19.394531 21.871094 18.835938 22.183594 18.480469 22.65625 C 18.128906 22.183594 17.570312 21.871094 16.933594 21.871094 L 16.726562 21.871094 C 17.09375 21.460938 17.320312 20.917969 17.320312 20.324219 C 17.320312 19.042969 16.277344 18 15 18 C 13.71875 18 12.675781 19.042969 12.675781 20.324219 C 12.675781 20.917969 12.902344 21.460938 13.273438 21.871094 L 13.0625 21.871094 C 12.425781 21.871094 11.867188 22.183594 11.515625 22.65625 C 11.160156 22.183594 10.601562 21.871094 9.964844 21.871094 L 9.757812 21.871094 C 10.125 21.460938 10.351562 20.917969 10.351562 20.324219 C 10.351562 19.042969 9.3125 18 8.03125 18 C 6.75 18 5.707031 19.042969 5.707031 20.324219 C 5.707031 20.917969 5.933594 21.460938 6.304688 21.871094 L 6.09375 21.871094 C 5.027344 21.871094 4.160156 22.738281 4.160156 23.804688 L 4.160156 26.128906 L 4.933594 26.128906 L 4.933594 23.804688 C 4.933594 23.167969 5.453125 22.644531 6.09375 22.644531 L 9.964844 22.644531 C 10.605469 22.644531 11.128906 23.167969 11.128906 23.804688 L 11.128906 26.128906 L 11.902344 26.128906 L 11.902344 23.804688 C 11.902344 23.167969 12.421875 22.644531 13.0625 22.644531 L 16.933594 22.644531 C 17.574219 22.644531 18.09375 23.167969 18.09375 23.804688 L 18.09375 26.128906 L 18.871094 26.128906 L 18.871094 23.804688 C 18.871094 23.167969 19.390625 22.644531 20.03125 22.644531 L 23.902344 22.644531 C 24.542969 22.644531 25.0625 23.167969 25.0625 23.804688 Z M 8.03125 21.871094 C 7.175781 21.871094 6.480469 21.175781 6.480469 20.324219 C 6.480469 19.46875 7.175781 18.773438 8.03125 18.773438 C 8.882812 18.773438 9.578125 19.46875 9.578125 20.324219 C 9.578125 21.175781 8.882812 21.871094 8.03125 21.871094 Z M 15 21.871094 C 14.144531 21.871094 13.449219 21.175781 13.449219 20.324219 C 13.449219 19.46875 14.144531 18.773438 15 18.773438 C 15.851562 18.773438 16.546875 19.46875 16.546875 20.324219 C 16.546875 21.175781 15.851562 21.871094 15 21.871094 Z M 21.964844 21.871094 C 21.113281 21.871094 20.417969 21.175781 20.417969 20.324219 C 20.417969 19.46875 21.113281 18.773438 21.964844 18.773438 C 22.820312 18.773438 23.515625 19.46875 23.515625 20.324219 C 23.515625 21.175781 22.820312 21.871094 21.964844 21.871094 Z M 21.964844 21.871094 " fill-opacity="1" fill-rule="nonzero"/></g><g clip-path="url(#be214e6c3b)"><path fill="#935f3d" d="M 19.644531 23.804688 L 20.417969 23.804688 L 20.417969 26.128906 L 19.644531 26.128906 Z M 19.644531 23.804688 " fill-opacity="1" fill-rule="nonzero"/></g><g clip-path="url(#914f42c33b)"><path fill="#935f3d" d="M 23.515625 23.804688 L 24.289062 23.804688 L 24.289062 26.128906 L 23.515625 26.128906 Z M 23.515625 23.804688 " fill-opacity="1" fill-rule="nonzero"/></g><g clip-path="url(#33c66104a0)"><path fill="#935f3d" d="M 5.707031 23.804688 L 6.480469 23.804688 L 6.480469 26.128906 L 5.707031 26.128906 Z M 5.707031 23.804688 " fill-opacity="1" fill-rule="nonzero"/></g><g clip-path="url(#3e2e0559ea)"><path fill="#935f3d" d="M 9.578125 23.804688 L 10.351562 23.804688 L 10.351562 26.128906 L 9.578125 26.128906 Z M 9.578125 23.804688 " fill-opacity="1" fill-rule="nonzero"/></g><path fill="#935f3d" d="M 10.738281 12.582031 L 12.289062 12.582031 C 12.492188 12.582031 12.65625 12.421875 12.671875 12.21875 L 18.09375 12.582031 C 18.511719 12.582031 18.855469 12.25 18.867188 11.835938 L 19.253906 8.757812 C 19.253906 8.742188 19.257812 8.726562 19.257812 8.710938 C 19.257812 8.28125 18.910156 7.933594 18.480469 7.933594 L 16.546875 7.933594 L 16.546875 6.992188 C 16.546875 6.457031 16.183594 5.996094 15.667969 5.867188 L 15.1875 5.746094 C 14.953125 5.6875 14.710938 5.738281 14.523438 5.886719 C 14.332031 6.03125 14.222656 6.253906 14.222656 6.496094 L 14.222656 7.457031 L 13.960938 7.980469 L 12.660156 8.242188 C 12.621094 8.066406 12.472656 7.933594 12.289062 7.933594 L 10.738281 7.933594 C 10.527344 7.933594 10.351562 8.109375 10.351562 8.324219 L 10.351562 12.195312 C 10.351562 12.40625 10.527344 12.582031 10.738281 12.582031 Z M 12.675781 9.027344 L 14.300781 8.703125 C 14.417969 8.679688 14.515625 8.601562 14.570312 8.496094 L 14.957031 7.722656 C 14.984375 7.667969 15 7.609375 15 7.546875 L 15 6.496094 L 15.480469 6.617188 C 15.652344 6.660156 15.773438 6.8125 15.773438 6.992188 L 15.773438 8.324219 C 15.773438 8.535156 15.945312 8.710938 16.160156 8.710938 L 18.480469 8.710938 L 18.097656 11.757812 C 18.097656 11.773438 18.121094 11.792969 18.121094 11.808594 L 12.675781 11.445312 Z M 11.128906 8.710938 L 11.902344 8.710938 L 11.902344 11.804688 L 11.128906 11.804688 Z M 11.128906 8.710938 " fill-opacity="1" fill-rule="nonzero"/><g clip-path="url(#2ce800049e)"><path fill="#935f3d" d="M 6.480469 9.289062 C 6.480469 12.355469 9.390625 14.996094 13.371094 15.558594 C 13.484375 15.613281 13.71875 15.980469 13.859375 16.199219 C 14.195312 16.726562 14.511719 17.226562 15 17.226562 C 15.484375 17.226562 15.800781 16.726562 16.136719 16.199219 C 16.277344 15.980469 16.511719 15.613281 16.601562 15.566406 C 20.605469 14.996094 23.515625 12.355469 23.515625 9.289062 C 23.515625 5.769531 19.695312 2.902344 15 2.902344 C 10.300781 2.902344 6.480469 5.769531 6.480469 9.289062 Z M 15 3.675781 C 19.265625 3.675781 22.738281 6.195312 22.738281 9.289062 C 22.738281 11.964844 20.113281 14.28125 16.492188 14.796875 C 16.074219 14.859375 15.789062 15.308594 15.484375 15.785156 C 15.347656 16 15.125 16.347656 15 16.4375 C 14.871094 16.347656 14.648438 16 14.511719 15.785156 C 14.207031 15.308594 13.921875 14.859375 13.503906 14.796875 C 9.882812 14.28125 7.257812 11.964844 7.257812 9.289062 C 7.257812 6.195312 10.730469 3.675781 15 3.675781 Z M 15 3.675781 " fill-opacity="1" fill-rule="nonzero"/></g></svg>