<svg xmlns="http://www.w3.org/2000/svg" xmlns:xlink="http://www.w3.org/1999/xlink" width="40" zoomAndPan="magnify" viewBox="0 0 30 30.000001" height="40" preserveAspectRatio="xMidYMid meet" version="1.0"><defs><clipPath id="f8a5963c0a"><path d="M 0.484375 0 L 29.515625 0 L 29.515625 29.03125 L 0.484375 29.03125 Z M 0.484375 0 " clip-rule="nonzero"/></clipPath><clipPath id="f5ecef170d"><path d="M 3.386719 5.105469 L 26.613281 5.105469 L 26.613281 23.976562 L 3.386719 23.976562 Z M 3.386719 5.105469 " clip-rule="nonzero"/></clipPath></defs><g clip-path="url(#f8a5963c0a)"><path fill="#ffffff" d="M 0.484375 0 L 29.515625 0 L 29.515625 29.03125 L 0.484375 29.03125 Z M 0.484375 0 " fill-opacity="1" fill-rule="nonzero"/><path fill="#ffffff" d="M 0.484375 0 L 29.515625 0 L 29.515625 29.03125 L 0.484375 29.03125 Z M 0.484375 0 " fill-opacity="1" fill-rule="nonzero"/></g><g clip-path="url(#f5ecef170d)"><path fill="#935f3d" d="M 25.480469 5.105469 L 4.519531 5.105469 C 3.898438 5.105469 3.390625 5.609375 3.390625 6.234375 L 3.390625 22.792969 C 3.390625 23.414062 3.898438 23.917969 4.519531 23.917969 L 25.449219 23.917969 C 26.089844 23.917969 26.609375 23.398438 26.609375 22.761719 L 26.609375 6.234375 C 26.609375 5.609375 26.101562 5.105469 25.480469 5.105469 Z M 4.519531 5.878906 L 25.480469 5.878906 C 25.675781 5.878906 25.835938 6.039062 25.835938 6.234375 L 25.835938 8.003906 L 4.164062 8.003906 L 4.164062 6.234375 C 4.164062 6.039062 4.324219 5.878906 4.519531 5.878906 Z M 25.449219 23.148438 L 4.519531 23.148438 C 4.324219 23.148438 4.164062 22.988281 4.164062 22.792969 L 4.164062 8.777344 L 25.835938 8.777344 L 25.835938 22.761719 C 25.835938 22.972656 25.664062 23.148438 25.449219 23.148438 Z M 25.449219 23.148438 " fill-opacity="1" fill-rule="nonzero"/></g><path fill="#935f3d" d="M 10.183594 7.765625 C 10.640625 7.765625 11.007812 7.394531 11.007812 6.9375 C 11.007812 6.484375 10.640625 6.113281 10.183594 6.113281 C 9.730469 6.113281 9.359375 6.484375 9.359375 6.9375 C 9.359375 7.394531 9.730469 7.765625 10.183594 7.765625 Z M 10.183594 6.683594 C 10.324219 6.683594 10.4375 6.800781 10.4375 6.9375 C 10.4375 7.078125 10.324219 7.191406 10.183594 7.191406 C 10.042969 7.191406 9.929688 7.078125 9.929688 6.9375 C 9.929688 6.800781 10.042969 6.683594 10.183594 6.683594 Z M 10.183594 6.683594 " fill-opacity="1" fill-rule="nonzero"/><path fill="#935f3d" d="M 7.878906 7.765625 C 8.335938 7.765625 8.703125 7.394531 8.703125 6.9375 C 8.703125 6.484375 8.335938 6.113281 7.878906 6.113281 C 7.421875 6.113281 7.054688 6.484375 7.054688 6.9375 C 7.054688 7.394531 7.421875 7.765625 7.878906 7.765625 Z M 7.878906 6.683594 C 8.019531 6.683594 8.132812 6.800781 8.132812 6.9375 C 8.132812 7.078125 8.019531 7.191406 7.878906 7.191406 C 7.738281 7.191406 7.625 7.078125 7.625 6.9375 C 7.625 6.800781 7.738281 6.683594 7.878906 6.683594 Z M 7.878906 6.683594 " fill-opacity="1" fill-rule="nonzero"/><path fill="#935f3d" d="M 5.574219 7.765625 C 6.027344 7.765625 6.398438 7.394531 6.398438 6.9375 C 6.398438 6.484375 6.027344 6.113281 5.574219 6.113281 C 5.117188 6.113281 4.746094 6.484375 4.746094 6.9375 C 4.746094 7.394531 5.117188 7.765625 5.574219 7.765625 Z M 5.574219 6.683594 C 5.714844 6.683594 5.828125 6.800781 5.828125 6.9375 C 5.828125 7.078125 5.714844 7.191406 5.574219 7.191406 C 5.433594 7.191406 5.320312 7.078125 5.320312 6.9375 C 5.320312 6.800781 5.433594 6.683594 5.574219 6.683594 Z M 5.574219 6.683594 " fill-opacity="1" fill-rule="nonzero"/><path fill="#935f3d" d="M 19.78125 16.960938 L 19.066406 16.316406 L 19.066406 15.722656 L 19.78125 15.078125 C 19.902344 14.96875 19.941406 14.792969 19.878906 14.640625 L 19.421875 13.542969 C 19.359375 13.390625 19.207031 13.296875 19.046875 13.304688 L 18.085938 13.351562 L 17.664062 12.933594 L 17.714844 11.972656 C 17.722656 11.808594 17.628906 11.660156 17.476562 11.597656 L 16.375 11.140625 C 16.226562 11.078125 16.050781 11.117188 15.941406 11.238281 L 15.296875 11.953125 L 14.703125 11.953125 L 14.058594 11.238281 C 13.949219 11.117188 13.773438 11.078125 13.625 11.140625 L 12.523438 11.597656 C 12.375 11.660156 12.277344 11.808594 12.285156 11.972656 L 12.335938 12.933594 L 11.914062 13.351562 L 10.953125 13.304688 C 10.792969 13.296875 10.640625 13.390625 10.578125 13.542969 L 10.121094 14.640625 C 10.058594 14.792969 10.097656 14.96875 10.222656 15.078125 L 10.933594 15.722656 L 10.933594 16.316406 L 10.222656 16.960938 C 10.097656 17.070312 10.058594 17.242188 10.121094 17.394531 L 10.578125 18.492188 C 10.640625 18.644531 10.792969 18.742188 10.953125 18.730469 L 11.914062 18.683594 L 12.335938 19.101562 L 12.285156 20.0625 C 12.277344 20.226562 12.375 20.378906 12.523438 20.441406 L 13.625 20.894531 C 13.671875 20.914062 13.722656 20.925781 13.773438 20.925781 C 13.878906 20.925781 13.984375 20.878906 14.058594 20.796875 L 14.703125 20.082031 L 15.296875 20.082031 L 15.941406 20.796875 C 16.050781 20.917969 16.226562 20.957031 16.375 20.894531 L 17.476562 20.441406 C 17.628906 20.378906 17.722656 20.226562 17.714844 20.0625 L 17.664062 19.101562 L 18.085938 18.683594 L 19.046875 18.730469 C 19.207031 18.738281 19.359375 18.644531 19.421875 18.492188 L 19.878906 17.394531 C 19.941406 17.242188 19.902344 17.070312 19.78125 16.960938 Z M 18.421875 16.773438 L 19.058594 17.351562 L 18.8125 17.945312 L 17.953125 17.902344 C 17.84375 17.898438 17.738281 17.9375 17.660156 18.015625 L 16.996094 18.679688 C 16.917969 18.753906 16.878906 18.863281 16.882812 18.972656 L 16.929688 19.832031 L 16.332031 20.078125 L 15.757812 19.4375 C 15.683594 19.355469 15.578125 19.3125 15.46875 19.3125 L 14.53125 19.3125 C 14.421875 19.3125 14.316406 19.355469 14.246094 19.4375 L 13.667969 20.078125 L 13.074219 19.832031 L 13.117188 18.972656 C 13.121094 18.863281 13.082031 18.753906 13.003906 18.679688 L 12.339844 18.015625 C 12.261719 17.9375 12.15625 17.898438 12.046875 17.902344 L 11.1875 17.945312 L 10.941406 17.351562 L 11.582031 16.773438 C 11.660156 16.699219 11.707031 16.597656 11.707031 16.488281 L 11.707031 15.550781 C 11.707031 15.441406 11.660156 15.335938 11.582031 15.261719 L 10.941406 14.6875 L 11.1875 14.089844 L 12.046875 14.132812 C 12.15625 14.140625 12.261719 14.097656 12.339844 14.023438 L 13.003906 13.359375 C 13.082031 13.28125 13.121094 13.175781 13.117188 13.066406 L 13.074219 12.207031 L 13.667969 11.960938 L 14.246094 12.597656 C 14.316406 12.679688 14.421875 12.726562 14.53125 12.726562 L 15.46875 12.726562 C 15.578125 12.726562 15.683594 12.679688 15.757812 12.597656 L 16.332031 11.960938 L 16.929688 12.207031 L 16.882812 13.066406 C 16.878906 13.175781 16.917969 13.28125 16.996094 13.359375 L 17.660156 14.023438 C 17.738281 14.097656 17.84375 14.140625 17.953125 14.132812 L 18.8125 14.089844 L 19.058594 14.6875 L 18.421875 15.261719 C 18.339844 15.335938 18.292969 15.441406 18.292969 15.550781 L 18.292969 16.488281 C 18.292969 16.597656 18.339844 16.699219 18.421875 16.773438 Z M 18.421875 16.773438 " fill-opacity="1" fill-rule="nonzero"/><path fill="#935f3d" d="M 15 13.464844 C 14.316406 13.464844 13.675781 13.730469 13.195312 14.210938 C 12.710938 14.695312 12.445312 15.335938 12.445312 16.019531 C 12.445312 16.699219 12.710938 17.339844 13.195312 17.824219 C 13.675781 18.304688 14.316406 18.570312 15 18.570312 C 15.683594 18.570312 16.324219 18.304688 16.804688 17.824219 C 17.289062 17.339844 17.554688 16.699219 17.554688 16.019531 C 17.554688 15.335938 17.289062 14.695312 16.804688 14.210938 C 16.324219 13.730469 15.683594 13.464844 15 13.464844 Z M 15 17.800781 C 14.019531 17.800781 13.21875 17 13.21875 16.019531 C 13.21875 15.035156 14.019531 14.238281 15 14.238281 C 15.980469 14.238281 16.78125 15.035156 16.78125 16.019531 C 16.78125 17 15.980469 17.800781 15 17.800781 Z M 15 17.800781 " fill-opacity="1" fill-rule="nonzero"/><path fill="#935f3d" d="M 5.574219 14.863281 L 7.015625 14.863281 C 7.140625 15.078125 7.371094 15.226562 7.636719 15.226562 C 7.902344 15.226562 8.136719 15.078125 8.257812 14.863281 L 8.789062 14.863281 C 8.984375 14.863281 9.140625 14.707031 9.140625 14.511719 C 9.140625 14.320312 8.984375 14.160156 8.789062 14.160156 L 8.257812 14.160156 C 8.136719 13.945312 7.902344 13.800781 7.636719 13.800781 C 7.371094 13.800781 7.140625 13.945312 7.015625 14.160156 L 5.574219 14.160156 C 5.378906 14.160156 5.222656 14.320312 5.222656 14.511719 C 5.222656 14.707031 5.378906 14.863281 5.574219 14.863281 Z M 5.574219 14.863281 " fill-opacity="1" fill-rule="nonzero"/><path fill="#935f3d" d="M 5.574219 16.371094 L 5.738281 16.371094 C 5.863281 16.585938 6.09375 16.730469 6.359375 16.730469 C 6.625 16.730469 6.859375 16.585938 6.980469 16.371094 L 8.789062 16.371094 C 8.984375 16.371094 9.140625 16.210938 9.140625 16.019531 C 9.140625 15.824219 8.984375 15.667969 8.789062 15.667969 L 6.980469 15.667969 C 6.859375 15.449219 6.625 15.304688 6.359375 15.304688 C 6.09375 15.304688 5.863281 15.449219 5.738281 15.667969 L 5.574219 15.667969 C 5.378906 15.667969 5.222656 15.824219 5.222656 16.019531 C 5.222656 16.210938 5.378906 16.371094 5.574219 16.371094 Z M 5.574219 16.371094 " fill-opacity="1" fill-rule="nonzero"/><path fill="#935f3d" d="M 6.949219 17.875 C 7.074219 18.089844 7.304688 18.238281 7.570312 18.238281 C 7.835938 18.238281 8.070312 18.089844 8.191406 17.875 L 8.789062 17.875 C 8.984375 17.875 9.140625 17.71875 9.140625 17.523438 C 9.140625 17.328125 8.984375 17.171875 8.789062 17.171875 L 8.191406 17.171875 C 8.070312 16.957031 7.835938 16.808594 7.570312 16.808594 C 7.304688 16.808594 7.074219 16.957031 6.949219 17.171875 L 5.574219 17.171875 C 5.378906 17.171875 5.222656 17.328125 5.222656 17.523438 C 5.222656 17.71875 5.378906 17.875 5.574219 17.875 Z M 6.949219 17.875 " fill-opacity="1" fill-rule="nonzero"/><path fill="#935f3d" d="M 24.339844 14.160156 L 23.808594 14.160156 C 23.683594 13.945312 23.453125 13.800781 23.1875 13.800781 C 22.921875 13.800781 22.691406 13.945312 22.566406 14.160156 L 21.121094 14.160156 C 20.929688 14.160156 20.773438 14.320312 20.773438 14.511719 C 20.773438 14.707031 20.929688 14.863281 21.121094 14.863281 L 22.566406 14.863281 C 22.691406 15.078125 22.921875 15.226562 23.1875 15.226562 C 23.453125 15.226562 23.683594 15.078125 23.808594 14.863281 L 24.339844 14.863281 C 24.535156 14.863281 24.691406 14.707031 24.691406 14.511719 C 24.691406 14.320312 24.535156 14.160156 24.339844 14.160156 Z M 24.339844 14.160156 " fill-opacity="1" fill-rule="nonzero"/><path fill="#935f3d" d="M 24.339844 15.667969 L 22.53125 15.667969 C 22.40625 15.449219 22.175781 15.304688 21.910156 15.304688 C 21.644531 15.304688 21.410156 15.449219 21.289062 15.667969 L 21.121094 15.667969 C 20.929688 15.667969 20.773438 15.824219 20.773438 16.019531 C 20.773438 16.210938 20.929688 16.371094 21.121094 16.371094 L 21.289062 16.371094 C 21.410156 16.585938 21.644531 16.730469 21.910156 16.730469 C 22.175781 16.730469 22.40625 16.585938 22.53125 16.371094 L 24.339844 16.371094 C 24.535156 16.371094 24.691406 16.210938 24.691406 16.019531 C 24.691406 15.824219 24.535156 15.667969 24.339844 15.667969 Z M 24.339844 15.667969 " fill-opacity="1" fill-rule="nonzero"/><path fill="#935f3d" d="M 24.339844 17.171875 L 23.742188 17.171875 C 23.617188 16.957031 23.386719 16.808594 23.121094 16.808594 C 22.855469 16.808594 22.621094 16.957031 22.5 17.171875 L 21.121094 17.171875 C 20.929688 17.171875 20.773438 17.328125 20.773438 17.523438 C 20.773438 17.71875 20.929688 17.875 21.121094 17.875 L 22.5 17.875 C 22.621094 18.089844 22.855469 18.238281 23.121094 18.238281 C 23.386719 18.238281 23.617188 18.089844 23.742188 17.875 L 24.339844 17.875 C 24.535156 17.875 24.691406 17.71875 24.691406 17.523438 C 24.691406 17.328125 24.535156 17.171875 24.339844 17.171875 Z M 24.339844 17.171875 " fill-opacity="1" fill-rule="nonzero"/><path fill="#935f3d" d="M 6.722656 9.347656 L 12.832031 9.347656 L 12.832031 10.046875 L 6.722656 10.046875 Z M 6.722656 9.347656 " fill-opacity="1" fill-rule="nonzero"/><path fill="#935f3d" d="M 5.371094 9.347656 L 6.113281 9.347656 L 6.113281 10.046875 L 5.371094 10.046875 Z M 5.371094 9.347656 " fill-opacity="1" fill-rule="nonzero"/><path fill="#935f3d" d="M 5.371094 10.570312 L 10.722656 10.570312 L 10.722656 11.269531 L 5.371094 11.269531 Z M 5.371094 10.570312 " fill-opacity="1" fill-rule="nonzero"/><path fill="#935f3d" d="M 17.167969 9.347656 L 23.277344 9.347656 L 23.277344 10.046875 L 17.167969 10.046875 Z M 17.167969 9.347656 " fill-opacity="1" fill-rule="nonzero"/><path fill="#935f3d" d="M 23.886719 9.347656 L 24.628906 9.347656 L 24.628906 10.046875 L 23.886719 10.046875 Z M 23.886719 9.347656 " fill-opacity="1" fill-rule="nonzero"/><path fill="#935f3d" d="M 19.277344 10.570312 L 24.628906 10.570312 L 24.628906 11.269531 L 19.277344 11.269531 Z M 19.277344 10.570312 " fill-opacity="1" fill-rule="nonzero"/><path fill="#935f3d" d="M 6.722656 21.988281 L 12.832031 21.988281 L 12.832031 22.691406 L 6.722656 22.691406 Z M 6.722656 21.988281 " fill-opacity="1" fill-rule="nonzero"/><path fill="#935f3d" d="M 5.371094 21.988281 L 6.113281 21.988281 L 6.113281 22.691406 L 5.371094 22.691406 Z M 5.371094 21.988281 " fill-opacity="1" fill-rule="nonzero"/><path fill="#935f3d" d="M 5.371094 20.765625 L 10.722656 20.765625 L 10.722656 21.46875 L 5.371094 21.46875 Z M 5.371094 20.765625 " fill-opacity="1" fill-rule="nonzero"/><path fill="#935f3d" d="M 21.949219 19.003906 L 21.578125 19.375 C 21.441406 19.511719 21.355469 19.6875 21.328125 19.878906 C 21.304688 20.042969 21.324219 20.210938 21.390625 20.363281 L 21.238281 20.511719 C 20.902344 20.367188 20.515625 20.441406 20.253906 20.703125 L 19.878906 21.074219 C 19.53125 21.421875 19.53125 21.988281 19.878906 22.335938 C 20.054688 22.511719 20.285156 22.597656 20.511719 22.597656 C 20.742188 22.597656 20.96875 22.511719 21.144531 22.335938 L 21.515625 21.964844 C 21.652344 21.828125 21.742188 21.652344 21.769531 21.460938 C 21.792969 21.296875 21.769531 21.128906 21.703125 20.976562 L 21.855469 20.828125 C 21.96875 20.875 22.089844 20.902344 22.210938 20.902344 C 22.441406 20.902344 22.671875 20.8125 22.84375 20.636719 L 23.214844 20.265625 C 23.5625 19.917969 23.5625 19.351562 23.214844 19.003906 C 22.867188 18.65625 22.300781 18.65625 21.949219 19.003906 Z M 22.386719 19.832031 C 22.324219 19.769531 22.242188 19.734375 22.152344 19.734375 C 22.152344 19.734375 22.148438 19.734375 22.148438 19.734375 L 22.414062 19.46875 C 22.507812 19.375 22.65625 19.375 22.75 19.46875 C 22.792969 19.511719 22.820312 19.570312 22.820312 19.636719 C 22.820312 19.699219 22.796875 19.757812 22.75 19.800781 L 22.480469 20.070312 C 22.484375 19.984375 22.453125 19.898438 22.386719 19.832031 Z M 22.097656 20.007812 C 22.113281 19.992188 22.132812 19.984375 22.152344 19.984375 C 22.175781 19.984375 22.195312 19.992188 22.207031 20.007812 C 22.238281 20.039062 22.238281 20.085938 22.207031 20.117188 L 21.039062 21.289062 C 21.007812 21.320312 20.957031 21.320312 20.929688 21.289062 C 20.914062 21.273438 20.90625 21.253906 20.90625 21.234375 C 20.90625 21.214844 20.914062 21.195312 20.929688 21.179688 Z M 20.75 21.464844 C 20.816406 21.53125 20.898438 21.5625 20.984375 21.5625 C 20.984375 21.5625 20.988281 21.5625 20.992188 21.5625 L 20.679688 21.871094 C 20.585938 21.964844 20.4375 21.964844 20.34375 21.871094 C 20.253906 21.78125 20.253906 21.628906 20.34375 21.535156 L 20.65625 21.226562 C 20.65625 21.230469 20.65625 21.230469 20.65625 21.234375 C 20.65625 21.320312 20.6875 21.40625 20.75 21.464844 Z M 21.339844 21.789062 L 20.96875 22.160156 C 20.714844 22.410156 20.308594 22.410156 20.058594 22.160156 C 19.808594 21.910156 19.808594 21.5 20.058594 21.25 L 20.429688 20.878906 C 20.59375 20.714844 20.824219 20.65625 21.042969 20.710938 L 20.90625 20.847656 C 20.769531 20.839844 20.636719 20.890625 20.539062 20.988281 L 20.167969 21.359375 C 19.976562 21.550781 19.976562 21.859375 20.167969 22.050781 C 20.257812 22.140625 20.382812 22.191406 20.511719 22.191406 C 20.644531 22.191406 20.765625 22.140625 20.859375 22.050781 L 21.230469 21.679688 C 21.328125 21.582031 21.378906 21.445312 21.371094 21.308594 L 21.507812 21.175781 C 21.5625 21.390625 21.503906 21.625 21.339844 21.789062 Z M 23.035156 20.089844 L 22.664062 20.460938 C 22.5 20.625 22.269531 20.683594 22.050781 20.628906 L 22.1875 20.492188 C 22.195312 20.496094 22.203125 20.496094 22.210938 20.496094 C 22.339844 20.496094 22.464844 20.445312 22.554688 20.351562 L 22.925781 19.980469 C 23.019531 19.886719 23.070312 19.765625 23.070312 19.636719 C 23.070312 19.503906 23.019531 19.382812 22.925781 19.289062 C 22.738281 19.097656 22.425781 19.097656 22.238281 19.289062 L 21.867188 19.660156 C 21.769531 19.757812 21.71875 19.890625 21.722656 20.03125 L 21.585938 20.164062 C 21.53125 19.949219 21.59375 19.714844 21.757812 19.550781 L 22.128906 19.179688 C 22.378906 18.929688 22.785156 18.929688 23.035156 19.179688 C 23.289062 19.429688 23.289062 19.839844 23.035156 20.089844 Z M 23.035156 20.089844 " fill-opacity="1" fill-rule="nonzero"/></svg>