<svg xmlns="http://www.w3.org/2000/svg" xmlns:xlink="http://www.w3.org/1999/xlink" width="40" zoomAndPan="magnify" viewBox="0 0 30 30.000001" height="40" preserveAspectRatio="xMidYMid meet" version="1.0"><defs><clipPath id="788079c039"><path d="M 0.484375 0 L 29.515625 0 L 29.515625 29.03125 L 0.484375 29.03125 Z M 0.484375 0 " clip-rule="nonzero"/></clipPath><clipPath id="6e02e9bf64"><path d="M 3.386719 4.121094 L 26.613281 4.121094 L 26.613281 25 L 3.386719 25 Z M 3.386719 4.121094 " clip-rule="nonzero"/></clipPath></defs><g clip-path="url(#788079c039)"><path fill="#ffffff" d="M 0.484375 0 L 29.515625 0 L 29.515625 29.03125 L 0.484375 29.03125 Z M 0.484375 0 " fill-opacity="1" fill-rule="nonzero"/><path fill="#ffffff" d="M 0.484375 0 L 29.515625 0 L 29.515625 29.03125 L 0.484375 29.03125 Z M 0.484375 0 " fill-opacity="1" fill-rule="nonzero"/></g><g clip-path="url(#6e02e9bf64)"><path fill="#935f3d" d="M 7.371094 4.121094 C 7.023438 4.121094 6.738281 4.410156 6.738281 4.757812 L 6.738281 5.179688 C 6.527344 5.242188 6.328125 5.324219 6.140625 5.425781 L 5.757812 5.046875 C 5.511719 4.800781 5.105469 4.800781 4.859375 5.046875 L 4.320312 5.585938 C 4.074219 5.832031 4.074219 6.238281 4.320312 6.484375 L 4.699219 6.867188 C 4.597656 7.054688 4.515625 7.253906 4.453125 7.464844 L 4.03125 7.464844 C 3.683594 7.464844 3.394531 7.75 3.394531 8.097656 L 3.394531 8.867188 C 3.394531 9.214844 3.683594 9.5 4.03125 9.5 L 4.453125 9.5 C 4.515625 9.710938 4.597656 9.910156 4.699219 10.097656 L 4.320312 10.480469 C 4.074219 10.726562 4.074219 11.132812 4.320312 11.378906 L 4.859375 11.921875 C 4.90625 11.96875 4.960938 12.003906 5.015625 12.035156 L 5.015625 19.332031 C 5.015625 19.890625 5.472656 20.347656 6.03125 20.347656 L 19.855469 20.347656 C 20.21875 21.816406 21.550781 22.90625 23.136719 22.90625 C 23.492188 22.90625 23.835938 22.851562 24.160156 22.75 L 25.160156 24.476562 C 25.34375 24.792969 25.75 24.898438 26.066406 24.71875 L 26.183594 24.652344 C 26.496094 24.472656 26.605469 24.0625 26.425781 23.75 L 25.421875 22.019531 C 26.09375 21.402344 26.511719 20.519531 26.511719 19.539062 C 26.511719 18.324219 25.863281 17.257812 24.890625 16.667969 L 24.890625 7.976562 C 24.890625 7.417969 24.433594 6.960938 23.878906 6.960938 L 10.859375 6.960938 C 10.84375 6.929688 10.828125 6.898438 10.808594 6.867188 L 11.191406 6.484375 C 11.4375 6.238281 11.4375 5.832031 11.191406 5.585938 L 10.648438 5.046875 C 10.402344 4.800781 9.996094 4.800781 9.75 5.046875 L 9.371094 5.425781 C 9.179688 5.324219 8.980469 5.242188 8.773438 5.179688 L 8.773438 4.757812 C 8.773438 4.410156 8.488281 4.121094 8.136719 4.121094 Z M 7.371094 4.527344 L 8.136719 4.527344 C 8.265625 4.527344 8.367188 4.628906 8.367188 4.757812 L 8.367188 5.324219 C 8.367188 5.417969 8.429688 5.496094 8.519531 5.519531 C 8.800781 5.59375 9.066406 5.703125 9.308594 5.847656 C 9.386719 5.894531 9.488281 5.882812 9.554688 5.816406 L 10.039062 5.332031 C 10.128906 5.242188 10.273438 5.242188 10.363281 5.332031 L 10.90625 5.875 C 10.996094 5.964844 10.972656 6.125 10.90625 6.199219 L 10.421875 6.683594 C 10.355469 6.75 10.34375 6.847656 10.390625 6.929688 C 10.535156 7.171875 10.644531 7.4375 10.714844 7.71875 C 10.738281 7.808594 10.820312 7.871094 10.914062 7.871094 L 11.480469 7.871094 C 11.609375 7.871094 11.710938 7.96875 11.710938 8.097656 L 11.710938 8.867188 C 11.710938 8.996094 11.609375 9.09375 11.480469 9.09375 L 10.914062 9.09375 C 10.820312 9.09375 10.738281 9.15625 10.714844 9.246094 C 10.644531 9.527344 10.535156 9.792969 10.390625 10.035156 C 10.34375 10.117188 10.355469 10.21875 10.421875 10.28125 L 10.90625 10.765625 C 10.996094 10.859375 10.996094 11 10.90625 11.089844 C 10.722656 11.273438 10.542969 11.453125 10.363281 11.632812 C 10.273438 11.722656 10.128906 11.722656 10.039062 11.632812 L 9.554688 11.148438 C 9.488281 11.082031 9.386719 11.070312 9.308594 11.117188 C 9.066406 11.261719 8.800781 11.371094 8.519531 11.445312 C 8.429688 11.46875 8.367188 11.550781 8.367188 11.640625 L 8.367188 12.207031 C 8.367188 12.335938 8.265625 12.4375 8.136719 12.4375 L 7.371094 12.4375 C 7.242188 12.4375 7.144531 12.335938 7.144531 12.207031 L 7.144531 11.640625 C 7.144531 11.550781 7.082031 11.46875 6.992188 11.445312 C 6.710938 11.371094 6.445312 11.261719 6.203125 11.117188 C 6.121094 11.070312 6.019531 11.082031 5.957031 11.148438 L 5.472656 11.632812 C 5.378906 11.722656 5.238281 11.722656 5.148438 11.632812 L 4.605469 11.089844 C 4.523438 11.007812 4.539062 10.839844 4.605469 10.765625 L 5.089844 10.28125 C 5.15625 10.21875 5.167969 10.117188 5.121094 10.035156 C 4.976562 9.792969 4.867188 9.527344 4.792969 9.246094 C 4.769531 9.15625 4.691406 9.09375 4.597656 9.09375 L 4.03125 9.09375 C 3.902344 9.09375 3.800781 8.996094 3.800781 8.867188 L 3.800781 8.097656 C 3.800781 7.96875 3.902344 7.871094 4.03125 7.871094 L 4.597656 7.871094 C 4.691406 7.871094 4.769531 7.808594 4.792969 7.71875 C 4.867188 7.4375 4.976562 7.171875 5.121094 6.929688 C 5.167969 6.847656 5.15625 6.75 5.089844 6.683594 L 4.605469 6.199219 C 4.515625 6.105469 4.515625 5.964844 4.605469 5.875 C 4.785156 5.691406 4.96875 5.511719 5.148438 5.332031 C 5.238281 5.242188 5.378906 5.242188 5.472656 5.332031 L 5.957031 5.816406 C 6.019531 5.882812 6.121094 5.894531 6.203125 5.847656 C 6.445312 5.703125 6.710938 5.59375 6.992188 5.519531 C 7.082031 5.496094 7.144531 5.417969 7.144531 5.324219 L 7.144531 4.757812 C 7.144531 4.628906 7.242188 4.527344 7.371094 4.527344 Z M 7.753906 6.351562 C 6.582031 6.351562 5.625 7.308594 5.625 8.484375 C 5.625 9.65625 6.582031 10.613281 7.753906 10.613281 C 8.929688 10.613281 9.882812 9.65625 9.882812 8.484375 C 9.882812 7.308594 8.929688 6.351562 7.753906 6.351562 Z M 7.753906 6.757812 C 8.707031 6.757812 9.480469 7.527344 9.480469 8.484375 C 9.480469 9.4375 8.707031 10.207031 7.753906 10.207031 C 6.800781 10.207031 6.03125 9.4375 6.03125 8.484375 C 6.03125 7.527344 6.800781 6.757812 7.753906 6.757812 Z M 11.027344 7.367188 L 23.878906 7.367188 C 24.214844 7.367188 24.484375 7.636719 24.484375 7.976562 L 24.484375 10.710938 L 11.335938 10.710938 C 11.304688 10.625 11.257812 10.546875 11.191406 10.480469 L 10.808594 10.097656 C 10.847656 10.027344 10.882812 9.953125 10.917969 9.878906 L 17.011719 9.878906 C 17.476562 9.878906 17.855469 9.5 17.855469 9.035156 L 17.855469 8.917969 C 17.855469 8.457031 17.476562 8.078125 17.011719 8.078125 L 12.113281 8.078125 C 12.101562 7.738281 11.820312 7.464844 11.480469 7.464844 L 11.058594 7.464844 C 11.046875 7.429688 11.035156 7.398438 11.027344 7.367188 Z M 19.996094 8.121094 C 19.488281 8.121094 19.070312 8.535156 19.070312 9.042969 C 19.070312 9.550781 19.488281 9.96875 19.996094 9.96875 C 20.507812 9.96875 20.925781 9.550781 20.925781 9.042969 C 20.925781 8.535156 20.507812 8.121094 19.996094 8.121094 Z M 22.429688 8.121094 C 21.921875 8.121094 21.503906 8.535156 21.503906 9.042969 C 21.503906 9.550781 21.921875 9.96875 22.429688 9.96875 C 22.941406 9.96875 23.359375 9.550781 23.359375 9.042969 C 23.359375 8.535156 22.941406 8.121094 22.429688 8.121094 Z M 12.117188 8.484375 L 17.011719 8.484375 C 17.253906 8.484375 17.449219 8.675781 17.449219 8.917969 L 17.449219 9.035156 C 17.449219 9.277344 17.253906 9.472656 17.011719 9.472656 L 11.671875 9.472656 C 11.925781 9.390625 12.117188 9.148438 12.117188 8.867188 Z M 19.996094 8.527344 C 20.289062 8.527344 20.519531 8.757812 20.519531 9.042969 C 20.519531 9.332031 20.289062 9.5625 19.996094 9.5625 C 19.707031 9.5625 19.476562 9.332031 19.476562 9.042969 C 19.476562 8.757812 19.707031 8.527344 19.996094 8.527344 Z M 22.429688 8.527344 C 22.722656 8.527344 22.953125 8.757812 22.953125 9.042969 C 22.953125 9.332031 22.722656 9.5625 22.429688 9.5625 C 22.140625 9.5625 21.910156 9.332031 21.910156 9.042969 C 21.910156 8.757812 22.140625 8.527344 22.429688 8.527344 Z M 11.347656 11.113281 L 24.484375 11.113281 L 24.484375 16.457031 C 24.070312 16.277344 23.617188 16.175781 23.136719 16.175781 C 22.832031 16.175781 22.535156 16.21875 22.253906 16.292969 L 22.253906 12.957031 C 22.253906 12.695312 22.039062 12.476562 21.777344 12.476562 L 20.34375 12.476562 C 20.082031 12.476562 19.867188 12.695312 19.867188 12.957031 L 19.867188 18.699219 C 19.796875 18.96875 19.757812 19.25 19.757812 19.539062 C 19.757812 19.675781 19.765625 19.808594 19.78125 19.941406 L 6.03125 19.941406 C 5.695312 19.941406 5.421875 19.671875 5.421875 19.332031 L 5.421875 12.09375 C 5.546875 12.074219 5.664062 12.015625 5.757812 11.921875 L 6.140625 11.539062 C 6.328125 11.640625 6.527344 11.722656 6.738281 11.785156 L 6.738281 12.207031 C 6.738281 12.554688 7.023438 12.84375 7.371094 12.84375 L 8.136719 12.84375 C 8.488281 12.84375 8.773438 12.554688 8.773438 12.207031 L 8.773438 11.785156 C 8.980469 11.722656 9.179688 11.640625 9.371094 11.539062 L 9.75 11.921875 C 9.996094 12.167969 10.402344 12.167969 10.648438 11.921875 L 11.191406 11.378906 C 11.265625 11.300781 11.320312 11.210938 11.347656 11.113281 Z M 20.34375 12.882812 L 21.777344 12.882812 C 21.820312 12.882812 21.847656 12.914062 21.847656 12.957031 L 21.847656 16.429688 C 21.195312 16.699219 20.644531 17.167969 20.269531 17.761719 L 20.269531 12.957031 C 20.269531 12.914062 20.300781 12.882812 20.34375 12.882812 Z M 16.257812 14.058594 C 15.988281 14.058594 15.765625 14.28125 15.765625 14.550781 L 15.765625 18.433594 C 15.765625 18.703125 15.988281 18.925781 16.257812 18.925781 L 17.707031 18.925781 C 17.976562 18.925781 18.199219 18.703125 18.199219 18.433594 L 18.199219 14.550781 C 18.199219 14.28125 17.976562 14.058594 17.707031 14.058594 Z M 16.257812 14.464844 L 17.707031 14.464844 C 17.757812 14.464844 17.792969 14.5 17.792969 14.550781 L 17.792969 18.433594 C 17.792969 18.484375 17.757812 18.519531 17.707031 18.519531 L 16.257812 18.519531 C 16.207031 18.519531 16.171875 18.484375 16.171875 18.433594 L 16.171875 14.550781 C 16.171875 14.5 16.207031 14.464844 16.257812 14.464844 Z M 12.222656 15.683594 C 11.941406 15.683594 11.710938 15.914062 11.710938 16.195312 L 11.710938 18.414062 C 11.710938 18.695312 11.941406 18.925781 12.222656 18.925781 L 13.628906 18.925781 C 13.910156 18.925781 14.144531 18.695312 14.144531 18.414062 L 14.144531 16.195312 C 14.144531 15.914062 13.910156 15.683594 13.628906 15.683594 Z M 12.222656 16.085938 L 13.628906 16.085938 C 13.691406 16.085938 13.738281 16.132812 13.738281 16.195312 L 13.738281 18.414062 C 13.738281 18.472656 13.691406 18.519531 13.628906 18.519531 L 12.222656 18.519531 C 12.160156 18.519531 12.117188 18.472656 12.117188 18.414062 L 12.117188 16.195312 C 12.117188 16.132812 12.160156 16.085938 12.222656 16.085938 Z M 23.136719 16.582031 C 24.78125 16.582031 26.109375 17.90625 26.109375 19.539062 C 26.109375 20.804688 25.316406 21.878906 24.203125 22.304688 C 24.1875 22.308594 24.171875 22.316406 24.15625 22.324219 C 23.835938 22.4375 23.492188 22.5 23.136719 22.5 C 21.492188 22.5 20.164062 21.175781 20.164062 19.539062 C 20.164062 17.90625 21.492188 16.582031 23.136719 16.582031 Z M 8.179688 16.785156 C 7.890625 16.785156 7.652344 17.023438 7.652344 17.308594 L 7.652344 18.402344 C 7.652344 18.691406 7.890625 18.925781 8.179688 18.925781 L 9.5625 18.925781 C 9.851562 18.925781 10.085938 18.691406 10.085938 18.402344 L 10.085938 17.308594 C 10.085938 17.023438 9.851562 16.785156 9.5625 16.785156 Z M 8.179688 17.191406 L 9.5625 17.191406 C 9.628906 17.191406 9.683594 17.242188 9.683594 17.308594 L 9.683594 18.402344 C 9.683594 18.46875 9.628906 18.519531 9.5625 18.519531 L 8.179688 18.519531 C 8.109375 18.519531 8.058594 18.46875 8.058594 18.402344 L 8.058594 17.308594 C 8.058594 17.242188 8.109375 17.191406 8.179688 17.191406 Z M 23.15625 17.226562 C 21.863281 17.226562 20.8125 18.273438 20.8125 19.558594 C 20.8125 20.847656 21.863281 21.894531 23.15625 21.894531 C 24.449219 21.894531 25.5 20.847656 25.5 19.558594 C 25.5 18.273438 24.449219 17.226562 23.15625 17.226562 Z M 23.15625 17.628906 C 24.230469 17.628906 25.09375 18.492188 25.09375 19.558594 C 25.09375 20.628906 24.230469 21.492188 23.15625 21.492188 C 22.082031 21.492188 21.21875 20.628906 21.21875 19.558594 C 21.21875 18.492188 22.082031 17.628906 23.15625 17.628906 Z M 23.195312 18.117188 C 23.058594 18.117188 22.921875 18.132812 22.792969 18.171875 C 22.53125 18.242188 22.640625 18.636719 22.902344 18.5625 C 22.996094 18.535156 23.09375 18.519531 23.195312 18.519531 C 23.714844 18.519531 24.144531 18.878906 24.253906 19.355469 C 24.3125 19.625 24.71875 19.53125 24.648438 19.261719 C 24.496094 18.605469 23.902344 18.117188 23.195312 18.117188 Z M 25.101562 22.277344 L 26.074219 23.953125 C 26.144531 24.078125 26.105469 24.230469 25.980469 24.300781 L 25.863281 24.367188 C 25.738281 24.4375 25.585938 24.398438 25.511719 24.273438 L 24.542969 22.601562 C 24.738281 22.507812 24.925781 22.402344 25.101562 22.277344 Z M 25.101562 22.277344 " fill-opacity="1" fill-rule="nonzero"/></g></svg>