<svg xmlns="http://www.w3.org/2000/svg" xmlns:xlink="http://www.w3.org/1999/xlink" width="40" zoomAndPan="magnify" viewBox="0 0 30 30.000001" height="40" preserveAspectRatio="xMidYMid meet" version="1.0"><defs><clipPath id="d3f81ab7b9"><path d="M 0.484375 0 L 29.515625 0 L 29.515625 29.03125 L 0.484375 29.03125 Z M 0.484375 0 " clip-rule="nonzero"/></clipPath><clipPath id="7172df5f37"><path d="M 24 8 L 26.613281 8 L 26.613281 14 L 24 14 Z M 24 8 " clip-rule="nonzero"/></clipPath><clipPath id="aeb86b8877"><path d="M 20 3.875 L 24 3.875 L 24 14 L 20 14 Z M 20 3.875 " clip-rule="nonzero"/></clipPath><clipPath id="6b49333a6f"><path d="M 17 18 L 25 18 L 25 24.925781 L 17 24.925781 Z M 17 18 " clip-rule="nonzero"/></clipPath></defs><g clip-path="url(#d3f81ab7b9)"><path fill="#ffffff" d="M 0.484375 0 L 29.515625 0 L 29.515625 29.03125 L 0.484375 29.03125 Z M 0.484375 0 " fill-opacity="1" fill-rule="nonzero"/><path fill="#ffffff" d="M 0.484375 0 L 29.515625 0 L 29.515625 29.03125 L 0.484375 29.03125 Z M 0.484375 0 " fill-opacity="1" fill-rule="nonzero"/></g><g clip-path="url(#7172df5f37)"><path fill="#935f3d" d="M 24.246094 8.507812 L 26.5625 8.507812 L 26.5625 13.144531 L 24.246094 13.144531 Z M 24.246094 8.507812 " fill-opacity="1" fill-rule="nonzero"/></g><g clip-path="url(#aeb86b8877)"><path fill="#935f3d" d="M 20.773438 3.875 L 23.089844 3.875 L 23.089844 13.144531 L 20.773438 13.144531 Z M 20.773438 3.875 " fill-opacity="1" fill-rule="nonzero"/></g><path fill="#935f3d" d="M 17.296875 6.191406 L 17.296875 6.886719 C 18.84375 8.664062 19.5 10.941406 19.152344 13.144531 L 19.613281 13.144531 L 19.613281 6.191406 Z M 17.296875 6.191406 " fill-opacity="1" fill-rule="nonzero"/><path fill="#935f3d" d="M 16.679688 6.808594 C 13.824219 3.914062 9.1875 3.914062 6.332031 6.808594 C 3.4375 9.667969 3.4375 14.300781 6.332031 17.160156 C 8.917969 19.746094 12.933594 19.976562 15.832031 17.929688 C 16.140625 17.699219 16.449219 17.46875 16.71875 17.160156 C 16.988281 16.886719 17.257812 16.578125 17.492188 16.269531 C 19.535156 13.414062 19.265625 9.398438 16.679688 6.808594 Z M 11.503906 18.546875 C 7.875 18.546875 4.941406 15.613281 4.941406 11.984375 C 4.941406 8.355469 7.875 5.421875 11.503906 5.421875 C 15.136719 5.421875 18.070312 8.355469 18.070312 11.984375 C 18.070312 15.613281 15.136719 18.546875 11.503906 18.546875 Z M 11.503906 18.546875 " fill-opacity="1" fill-rule="nonzero"/><path fill="#935f3d" d="M 19.960938 18.820312 L 17.722656 16.578125 C 17.492188 16.886719 17.257812 17.195312 16.949219 17.46875 C 16.679688 17.738281 16.371094 18.007812 16.0625 18.238281 L 18.300781 20.480469 Z M 19.960938 18.820312 " fill-opacity="1" fill-rule="nonzero"/><g clip-path="url(#6b49333a6f)"><path fill="#935f3d" d="M 23.785156 24.261719 C 22.894531 25.152344 21.429688 25.152344 20.503906 24.261719 L 18.070312 21.832031 C 17.914062 21.675781 17.914062 21.445312 18.070312 21.289062 L 20.773438 18.546875 C 20.925781 18.394531 21.160156 18.394531 21.3125 18.546875 L 23.785156 21.019531 C 24.710938 21.90625 24.710938 23.375 23.785156 24.261719 Z M 23.785156 24.261719 " fill-opacity="1" fill-rule="nonzero"/></g><path fill="#935f3d" d="M 8.222656 11.328125 L 7.179688 11.828125 C 6.796875 12.023438 6.640625 12.484375 6.832031 12.871094 L 7.527344 14.261719 C 7.722656 14.648438 8.183594 14.804688 8.570312 14.609375 L 9.613281 14.109375 Z M 8.222656 11.328125 " fill-opacity="1" fill-rule="nonzero"/><path fill="#935f3d" d="M 14.632812 13.644531 L 9.921875 13.914062 L 8.53125 11.136719 L 11.582031 7.542969 C 11.929688 7.121094 12.625 7.195312 12.855469 7.699219 L 15.25 12.523438 C 15.519531 13.027344 15.171875 13.605469 14.632812 13.644531 Z M 14.632812 13.644531 " fill-opacity="1" fill-rule="nonzero"/><path fill="#935f3d" d="M 14.902344 10.941406 C 15.25 10.59375 15.328125 10.09375 15.097656 9.628906 C 14.863281 9.164062 14.402344 8.933594 13.9375 9.011719 Z M 14.902344 10.941406 " fill-opacity="1" fill-rule="nonzero"/><path fill="#935f3d" d="M 11.816406 14.222656 L 10.117188 14.300781 L 11.121094 16.347656 C 11.3125 16.734375 11.777344 16.886719 12.160156 16.695312 C 12.546875 16.5 12.703125 16.039062 12.507812 15.652344 Z M 11.816406 14.222656 " fill-opacity="1" fill-rule="nonzero"/></svg>