<svg xmlns="http://www.w3.org/2000/svg" xmlns:xlink="http://www.w3.org/1999/xlink" width="40" zoomAndPan="magnify" viewBox="0 0 30 30.000001" height="40" preserveAspectRatio="xMidYMid meet" version="1.0"><defs><clipPath id="f4c408d32a"><path d="M 0.484375 0 L 29.515625 0 L 29.515625 29.03125 L 0.484375 29.03125 Z M 0.484375 0 " clip-rule="nonzero"/></clipPath><clipPath id="2074b3f0c3"><path d="M 3.386719 3.28125 L 26.613281 3.28125 L 26.613281 25.78125 L 3.386719 25.78125 Z M 3.386719 3.28125 " clip-rule="nonzero"/></clipPath></defs><g clip-path="url(#f4c408d32a)"><path fill="#ffffff" d="M 0.484375 0 L 29.515625 0 L 29.515625 29.03125 L 0.484375 29.03125 Z M 0.484375 0 " fill-opacity="1" fill-rule="nonzero"/><path fill="#ffffff" d="M 0.484375 0 L 29.515625 0 L 29.515625 29.03125 L 0.484375 29.03125 Z M 0.484375 0 " fill-opacity="1" fill-rule="nonzero"/></g><g clip-path="url(#2074b3f0c3)"><path fill="#935f3d" d="M 17.753906 19.609375 C 17.753906 19.804688 17.597656 19.960938 17.402344 19.960938 L 12.738281 19.960938 C 12.546875 19.960938 12.386719 19.804688 12.386719 19.609375 C 12.386719 19.417969 12.546875 19.261719 12.738281 19.261719 L 17.402344 19.261719 C 17.597656 19.261719 17.753906 19.417969 17.753906 19.609375 Z M 26.335938 20.140625 C 26.519531 20.074219 26.613281 19.871094 26.546875 19.691406 C 26.480469 19.507812 26.28125 19.414062 26.097656 19.480469 L 24.835938 19.929688 C 25.75 18.277344 26.226562 16.425781 26.226562 14.511719 C 26.226562 8.308594 21.203125 3.285156 15 3.285156 C 12.75 3.285156 10.578125 3.949219 8.71875 5.203125 C 8.558594 5.3125 8.519531 5.53125 8.625 5.691406 C 8.734375 5.851562 8.953125 5.894531 9.113281 5.785156 C 10.855469 4.609375 12.890625 3.988281 15 3.988281 C 20.804688 3.984375 25.527344 8.707031 25.527344 14.511719 C 25.527344 16.386719 25.039062 18.199219 24.105469 19.800781 L 23.5625 18.28125 C 23.496094 18.097656 23.296875 18.003906 23.113281 18.070312 C 22.929688 18.132812 22.835938 18.335938 22.902344 18.515625 L 23.6875 20.710938 C 23.753906 20.898438 23.953125 20.992188 24.140625 20.925781 Z M 21.375 23.335938 C 21.265625 23.175781 21.046875 23.132812 20.886719 23.242188 C 19.144531 24.417969 17.109375 25.039062 15 25.039062 C 9.195312 25.042969 4.472656 20.320312 4.472656 14.515625 C 4.472656 12.640625 4.960938 10.828125 5.894531 9.226562 L 6.4375 10.746094 C 6.503906 10.929688 6.703125 11.023438 6.886719 10.957031 C 7.070312 10.894531 7.164062 10.691406 7.097656 10.511719 L 6.3125 8.316406 C 6.246094 8.128906 6.042969 8.035156 5.859375 8.101562 L 3.664062 8.886719 C 3.480469 8.953125 3.386719 9.152344 3.453125 9.335938 C 3.515625 9.519531 3.71875 9.613281 3.902344 9.546875 L 5.160156 9.097656 C 4.25 10.75 3.769531 12.601562 3.769531 14.515625 C 3.769531 20.71875 8.796875 25.742188 15 25.742188 C 17.25 25.742188 19.421875 25.078125 21.28125 23.824219 C 21.441406 23.714844 21.480469 23.496094 21.375 23.335938 Z M 18.128906 14.449219 C 18.128906 16.238281 16.671875 17.695312 14.882812 17.695312 C 13.09375 17.695312 11.636719 16.238281 11.636719 14.449219 C 11.636719 12.660156 13.09375 11.203125 14.882812 11.203125 C 15.871094 11.203125 16.761719 11.648438 17.355469 12.351562 L 14.945312 14.96875 L 13.617188 13.574219 C 13.484375 13.433594 13.261719 13.425781 13.121094 13.558594 C 12.980469 13.695312 12.976562 13.914062 13.109375 14.054688 L 14.695312 15.726562 C 14.835938 15.871094 15.070312 15.871094 15.207031 15.722656 L 17.757812 12.949219 C 17.996094 13.398438 18.128906 13.90625 18.128906 14.449219 Z M 19.300781 10.238281 C 19.433594 10.09375 19.652344 10.085938 19.796875 10.21875 C 19.9375 10.347656 19.949219 10.570312 19.816406 10.710938 L 18.257812 12.40625 C 18.621094 13.003906 18.828125 13.703125 18.828125 14.449219 C 18.828125 16.625 17.058594 18.394531 14.882812 18.394531 C 12.707031 18.394531 10.9375 16.625 10.9375 14.449219 C 10.9375 12.273438 12.707031 10.5 14.882812 10.5 C 16.054688 10.5 17.109375 11.015625 17.832031 11.832031 Z M 20.511719 17.425781 C 21.292969 14.945312 21.242188 11.992188 21.167969 9.34375 C 19.003906 8.984375 16.792969 8.230469 15 7.179688 C 13.207031 8.230469 10.996094 8.984375 8.828125 9.34375 C 8.757812 11.992188 8.707031 14.945312 9.488281 17.425781 C 10.351562 20.15625 12.15625 21.949219 15 22.902344 C 17.84375 21.949219 19.648438 20.15625 20.511719 17.425781 Z M 21.5625 8.695312 C 19.328125 8.363281 17.003906 7.578125 15.183594 6.472656 C 15.070312 6.402344 14.929688 6.402344 14.816406 6.472656 C 13.007812 7.574219 10.664062 8.367188 8.4375 8.695312 C 8.269531 8.722656 8.140625 8.863281 8.136719 9.03125 C 8.058594 11.808594 7.972656 14.953125 8.820312 17.636719 C 9.765625 20.632812 11.753906 22.585938 14.890625 23.605469 C 14.964844 23.628906 15.035156 23.628906 15.109375 23.605469 C 18.246094 22.585938 20.234375 20.632812 21.179688 17.636719 C 22.027344 14.953125 21.9375 11.808594 21.863281 9.03125 C 21.859375 8.863281 21.730469 8.71875 21.5625 8.695312 Z M 21.5625 8.695312 " fill-opacity="1" fill-rule="evenodd"/></g></svg>