<svg xmlns="http://www.w3.org/2000/svg" xmlns:xlink="http://www.w3.org/1999/xlink" width="40" zoomAndPan="magnify" viewBox="0 0 30 30.000001" height="40" preserveAspectRatio="xMidYMid meet" version="1.0"><defs><clipPath id="600453d6b2"><path d="M 0.484375 0 L 29.515625 0 L 29.515625 29.03125 L 0.484375 29.03125 Z M 0.484375 0 " clip-rule="nonzero"/></clipPath><clipPath id="c9bf40cb54"><path d="M 3.328125 2.960938 L 26.554688 2.960938 L 26.554688 26.1875 L 3.328125 26.1875 Z M 3.328125 2.960938 " clip-rule="nonzero"/></clipPath></defs><g clip-path="url(#600453d6b2)"><path fill="#ffffff" d="M 0.484375 0 L 29.515625 0 L 29.515625 29.03125 L 0.484375 29.03125 Z M 0.484375 0 " fill-opacity="1" fill-rule="nonzero"/><path fill="#ffffff" d="M 0.484375 0 L 29.515625 0 L 29.515625 29.03125 L 0.484375 29.03125 Z M 0.484375 0 " fill-opacity="1" fill-rule="nonzero"/></g><g clip-path="url(#c9bf40cb54)"><path fill="#935f3d" d="M 17.476562 11.980469 C 20.109375 11.980469 22.246094 14.117188 22.246094 16.753906 C 22.246094 19.386719 20.109375 21.523438 17.476562 21.523438 C 14.84375 21.523438 12.707031 19.386719 12.707031 16.753906 C 12.707031 14.117188 14.84375 11.980469 17.476562 11.980469 Z M 21.109375 20.894531 L 22.039062 21.804688 L 21.988281 21.855469 C 21.820312 22.027344 21.824219 22.304688 21.996094 22.46875 L 24.617188 25.011719 C 24.789062 25.179688 25.0625 25.175781 25.230469 25.003906 L 26.175781 24.027344 C 26.339844 23.855469 26.335938 23.582031 26.167969 23.414062 L 23.546875 20.875 C 23.375 20.707031 23.097656 20.710938 22.933594 20.882812 L 22.875 20.941406 L 21.921875 20.007812 C 21.683594 20.332031 21.410156 20.628906 21.109375 20.894531 Z M 7.800781 3.105469 C 5.300781 3.292969 3.328125 5.386719 3.328125 7.9375 C 3.328125 10.609375 5.496094 12.78125 8.171875 12.78125 C 8.925781 12.78125 9.636719 12.609375 10.269531 12.304688 L 7.867188 8.144531 C 7.824219 8.082031 7.800781 8.011719 7.800781 7.9375 Z M 19.019531 22.042969 L 19.019531 25.597656 C 19.019531 25.851562 18.808594 26.058594 18.554688 26.058594 C 18.042969 26.058594 17.53125 26.058594 17.015625 26.058594 C 16.761719 26.058594 16.554688 25.851562 16.554688 25.597656 L 16.554688 22.1875 C 16.855469 22.234375 17.160156 22.261719 17.476562 22.261719 C 18.011719 22.261719 18.527344 22.1875 19.019531 22.042969 Z M 19.128906 5.253906 C 18.925781 5.253906 18.761719 5.089844 18.761719 4.886719 C 18.761719 4.679688 18.925781 4.515625 19.128906 4.515625 L 22.714844 4.515625 C 22.917969 4.515625 23.085938 4.679688 23.085938 4.886719 C 23.085938 5.089844 22.917969 5.253906 22.714844 5.253906 Z M 15.832031 10.617188 L 17.082031 10.617188 C 17.367188 10.617188 17.601562 10.851562 17.601562 11.136719 L 17.601562 11.242188 C 17.5625 11.242188 17.519531 11.242188 17.476562 11.242188 C 16.707031 11.242188 15.976562 11.398438 15.3125 11.683594 L 15.3125 11.136719 C 15.3125 10.851562 15.546875 10.617188 15.832031 10.617188 Z M 20.535156 12.167969 C 20.855469 12.382812 21.15625 12.632812 21.425781 12.90625 L 22.714844 12.90625 C 22.917969 12.90625 23.085938 12.742188 23.085938 12.539062 C 23.085938 12.332031 22.917969 12.167969 22.714844 12.167969 Z M 19.128906 11.355469 C 18.925781 11.355469 18.761719 11.191406 18.761719 10.984375 C 18.761719 10.78125 18.925781 10.617188 19.128906 10.617188 L 26.296875 10.617188 C 26.5 10.617188 26.667969 10.78125 26.667969 10.984375 C 26.667969 11.191406 26.5 11.355469 26.296875 11.355469 Z M 15.832031 6.789062 L 17.082031 6.789062 C 17.367188 6.789062 17.601562 7.023438 17.601562 7.3125 L 17.601562 8.558594 C 17.601562 8.847656 17.367188 9.082031 17.082031 9.082031 L 15.832031 9.082031 C 15.546875 9.082031 15.3125 8.847656 15.3125 8.558594 L 15.3125 7.3125 C 15.3125 7.023438 15.546875 6.789062 15.832031 6.789062 Z M 19.128906 9.082031 C 18.925781 9.082031 18.761719 8.914062 18.761719 8.710938 C 18.761719 8.507812 18.925781 8.339844 19.128906 8.339844 L 22.714844 8.339844 C 22.917969 8.339844 23.085938 8.507812 23.085938 8.710938 C 23.085938 8.914062 22.917969 9.082031 22.714844 9.082031 Z M 19.128906 7.53125 C 18.925781 7.53125 18.761719 7.363281 18.761719 7.160156 C 18.761719 6.957031 18.925781 6.789062 19.128906 6.789062 L 26.296875 6.789062 C 26.5 6.789062 26.667969 6.957031 26.667969 7.160156 C 26.667969 7.363281 26.5 7.53125 26.296875 7.53125 Z M 15.832031 2.964844 L 17.082031 2.964844 C 17.367188 2.964844 17.601562 3.199219 17.601562 3.484375 L 17.601562 4.734375 C 17.601562 5.019531 17.367188 5.253906 17.082031 5.253906 L 15.832031 5.253906 C 15.546875 5.253906 15.3125 5.019531 15.3125 4.734375 L 15.3125 3.484375 C 15.3125 3.199219 15.546875 2.964844 15.832031 2.964844 Z M 19.128906 3.703125 C 18.925781 3.703125 18.761719 3.539062 18.761719 3.332031 C 18.761719 3.128906 18.925781 2.964844 19.128906 2.964844 L 26.296875 2.964844 C 26.5 2.964844 26.667969 3.128906 26.667969 3.332031 C 26.667969 3.539062 26.5 3.703125 26.296875 3.703125 Z M 14.546875 21.417969 C 13.589844 20.816406 12.832031 19.929688 12.390625 18.878906 C 12.210938 18.941406 12.082031 19.113281 12.082031 19.316406 C 12.082031 21.410156 12.082031 23.503906 12.082031 25.597656 C 12.082031 25.851562 12.289062 26.058594 12.542969 26.058594 C 13.058594 26.058594 13.570312 26.058594 14.082031 26.058594 C 14.335938 26.058594 14.546875 25.851562 14.546875 25.597656 Z M 8.070312 15.4375 C 8.585938 15.4375 9.097656 15.4375 9.609375 15.4375 C 9.863281 15.4375 10.074219 15.648438 10.074219 15.902344 C 10.074219 19.132812 10.074219 22.367188 10.074219 25.597656 C 10.074219 25.851562 9.863281 26.058594 9.609375 26.058594 C 9.097656 26.058594 8.585938 26.058594 8.070312 26.058594 C 7.816406 26.058594 7.609375 25.851562 7.609375 25.597656 C 7.609375 22.367188 7.609375 19.132812 7.609375 15.902344 C 7.609375 15.648438 7.816406 15.4375 8.070312 15.4375 Z M 3.792969 17.601562 C 4.304688 17.601562 4.816406 17.601562 5.328125 17.601562 C 5.585938 17.601562 5.792969 17.808594 5.792969 18.066406 C 5.792969 20.574219 5.792969 23.085938 5.792969 25.597656 C 5.792969 25.851562 5.585938 26.058594 5.328125 26.058594 C 4.816406 26.058594 4.304688 26.058594 3.792969 26.058594 C 3.535156 26.058594 3.328125 25.851562 3.328125 25.597656 C 3.328125 23.085938 3.328125 20.574219 3.328125 18.066406 C 3.328125 17.808594 3.535156 17.601562 3.792969 17.601562 Z M 10.910156 11.933594 L 8.8125 8.304688 L 13.003906 8.304688 C 12.890625 9.8125 12.085938 11.125 10.910156 11.933594 Z M 13.003906 7.566406 L 8.542969 7.566406 L 8.542969 3.105469 C 10.921875 3.285156 12.824219 5.183594 13.003906 7.566406 Z M 17.476562 13.648438 C 16.621094 13.648438 15.84375 13.996094 15.28125 14.558594 C 14.722656 15.121094 14.375 15.894531 14.375 16.753906 C 14.375 17.542969 14.667969 18.261719 15.152344 18.808594 C 15.457031 17.8125 16.382812 17.085938 17.476562 17.085938 C 18.570312 17.085938 19.496094 17.8125 19.796875 18.808594 C 20.285156 18.261719 20.578125 17.542969 20.578125 16.753906 C 20.578125 15.894531 20.230469 15.121094 19.671875 14.558594 C 19.109375 13.996094 18.332031 13.648438 17.476562 13.648438 Z M 17.476562 14.449219 C 16.800781 14.449219 16.25 15 16.25 15.675781 C 16.25 16.355469 16.800781 16.902344 17.476562 16.902344 C 18.152344 16.902344 18.703125 16.355469 18.703125 15.675781 C 18.703125 15 18.152344 14.449219 17.476562 14.449219 Z M 14.757812 14.035156 C 14.0625 14.730469 13.632812 15.691406 13.632812 16.753906 C 13.632812 17.8125 14.0625 18.773438 14.757812 19.46875 C 15.453125 20.164062 16.414062 20.59375 17.476562 20.59375 C 18.539062 20.59375 19.5 20.164062 20.195312 19.46875 C 20.890625 18.773438 21.320312 17.8125 21.320312 16.753906 C 21.320312 15.691406 20.890625 14.730469 20.195312 14.035156 C 19.5 13.339844 18.539062 12.910156 17.476562 12.910156 C 16.414062 12.910156 15.453125 13.339844 14.757812 14.035156 Z M 14.757812 14.035156 " fill-opacity="1" fill-rule="evenodd"/></g></svg>