<svg xmlns="http://www.w3.org/2000/svg" xmlns:xlink="http://www.w3.org/1999/xlink" width="40" zoomAndPan="magnify" viewBox="0 0 30 30.000001" height="40" preserveAspectRatio="xMidYMid meet" version="1.0"><defs><clipPath id="b3b7f45fa3"><path d="M 0.484375 0 L 29.515625 0 L 29.515625 29.03125 L 0.484375 29.03125 Z M 0.484375 0 " clip-rule="nonzero"/></clipPath><clipPath id="6ed68d82a1"><path d="M 20 19 L 27 19 L 27 26.128906 L 20 26.128906 Z M 20 19 " clip-rule="nonzero"/></clipPath><clipPath id="e02ac5e379"><path d="M 3.195312 4 L 12 4 L 12 12 L 3.195312 12 Z M 3.195312 4 " clip-rule="nonzero"/></clipPath><clipPath id="90603ecc78"><path d="M 3.195312 20 L 8 20 L 8 26.128906 L 3.195312 26.128906 Z M 3.195312 20 " clip-rule="nonzero"/></clipPath></defs><g clip-path="url(#b3b7f45fa3)"><path fill="#ffffff" d="M 0.484375 0 L 29.515625 0 L 29.515625 29.03125 L 0.484375 29.03125 Z M 0.484375 0 " fill-opacity="1" fill-rule="nonzero"/><path fill="#ffffff" d="M 0.484375 0 L 29.515625 0 L 29.515625 29.03125 L 0.484375 29.03125 Z M 0.484375 0 " fill-opacity="1" fill-rule="nonzero"/></g><g clip-path="url(#6ed68d82a1)"><path fill="#935f3d" d="M 26.355469 21.429688 L 24.785156 21.429688 C 24.570312 21.429688 24.394531 21.605469 24.394531 21.820312 L 24.285156 21.820312 L 23.59375 19.738281 C 23.539062 19.582031 23.390625 19.472656 23.21875 19.472656 C 22.726562 19.472656 22.277344 19.703125 21.988281 20.101562 C 21.695312 20.503906 21.621094 21.003906 21.777344 21.472656 L 21.890625 21.820312 L 21.261719 21.820312 C 20.617188 21.820312 20.085938 22.347656 20.085938 22.996094 L 20.085938 24.953125 C 20.085938 25.601562 20.617188 26.128906 21.261719 26.128906 L 23.613281 26.128906 C 23.691406 26.128906 23.765625 26.105469 23.828125 26.0625 L 24.394531 25.683594 L 24.394531 25.738281 C 24.394531 25.953125 24.570312 26.128906 24.785156 26.128906 L 26.355469 26.128906 C 26.570312 26.128906 26.746094 25.953125 26.746094 25.738281 L 26.746094 21.820312 C 26.746094 21.605469 26.570312 21.429688 26.355469 21.429688 Z M 23.496094 25.34375 L 21.261719 25.34375 C 21.046875 25.34375 20.871094 25.167969 20.871094 24.953125 L 20.871094 22.996094 C 20.871094 22.78125 21.046875 22.605469 21.261719 22.605469 L 22.4375 22.605469 C 22.5625 22.605469 22.679688 22.546875 22.753906 22.441406 C 22.828125 22.335938 22.847656 22.207031 22.808594 22.085938 L 22.519531 21.226562 C 22.445312 21 22.480469 20.753906 22.621094 20.558594 C 22.707031 20.441406 22.824219 20.351562 22.953125 20.300781 L 23.632812 22.335938 C 23.6875 22.496094 23.835938 22.605469 24.003906 22.605469 L 24.394531 22.605469 L 24.394531 24.742188 Z M 23.496094 25.34375 " fill-opacity="1" fill-rule="nonzero"/></g><path fill="#935f3d" d="M 23.613281 9.289062 C 25.339844 9.289062 26.746094 7.882812 26.746094 6.152344 C 26.746094 4.425781 25.339844 3.019531 23.613281 3.019531 C 21.882812 3.019531 20.480469 4.425781 20.480469 6.152344 C 20.480469 7.882812 21.882812 9.289062 23.613281 9.289062 Z M 22.828125 4.980469 L 24.785156 6.152344 L 22.828125 7.328125 Z M 22.828125 4.980469 " fill-opacity="1" fill-rule="nonzero"/><path fill="#935f3d" d="M 24.464844 19.492188 C 24.519531 19.515625 24.574219 19.527344 24.625 19.527344 C 24.773438 19.527344 24.921875 19.4375 24.988281 19.292969 C 25.632812 17.863281 25.960938 16.339844 25.960938 14.769531 C 25.960938 13.171875 25.621094 11.628906 24.957031 10.179688 C 24.867188 9.984375 24.628906 9.898438 24.433594 9.988281 C 24.238281 10.078125 24.152344 10.3125 24.242188 10.507812 C 24.867188 11.851562 25.179688 13.285156 25.179688 14.769531 C 25.179688 16.230469 24.875 17.640625 24.269531 18.96875 C 24.183594 19.167969 24.269531 19.398438 24.464844 19.492188 Z M 24.464844 19.492188 " fill-opacity="1" fill-rule="nonzero"/><path fill="#935f3d" d="M 20.945312 15.042969 C 21.042969 15.015625 21.128906 14.949219 21.179688 14.859375 L 21.964844 13.503906 C 22.019531 13.414062 22.03125 13.304688 22.003906 13.207031 C 21.980469 13.105469 21.914062 13.019531 21.820312 12.96875 L 21.253906 12.640625 C 21.257812 12.566406 21.261719 12.496094 21.261719 12.421875 C 21.261719 12.347656 21.257812 12.277344 21.253906 12.203125 L 21.820312 11.871094 C 21.914062 11.820312 21.980469 11.734375 22.003906 11.632812 C 22.03125 11.535156 22.019531 11.425781 21.964844 11.335938 L 21.179688 9.980469 C 21.128906 9.890625 21.042969 9.824219 20.945312 9.796875 C 20.84375 9.769531 20.738281 9.785156 20.648438 9.835938 L 20.074219 10.164062 C 19.957031 10.082031 19.828125 10.007812 19.695312 9.945312 L 19.695312 9.289062 C 19.695312 9.070312 19.519531 8.894531 19.304688 8.894531 L 17.738281 8.894531 C 17.523438 8.894531 17.34375 9.070312 17.34375 9.289062 L 17.34375 9.945312 C 17.210938 10.007812 17.082031 10.082031 16.964844 10.164062 L 16.394531 9.835938 C 16.304688 9.785156 16.199219 9.769531 16.097656 9.796875 C 15.996094 9.824219 15.910156 9.890625 15.859375 9.980469 L 15.078125 11.335938 C 15.023438 11.425781 15.011719 11.535156 15.039062 11.632812 C 15.066406 11.734375 15.128906 11.820312 15.21875 11.871094 L 15.785156 12.203125 C 15.78125 12.277344 15.777344 12.347656 15.777344 12.421875 C 15.777344 12.496094 15.78125 12.566406 15.785156 12.640625 L 15.519531 12.796875 L 15.414062 12.691406 C 15.261719 12.539062 15.015625 12.539062 14.863281 12.691406 L 14.375 13.175781 C 14.320312 13.152344 14.265625 13.128906 14.210938 13.105469 L 14.210938 12.421875 C 14.210938 12.207031 14.035156 12.027344 13.820312 12.027344 L 11.46875 12.027344 C 11.253906 12.027344 11.078125 12.207031 11.078125 12.421875 L 11.078125 13.105469 C 11.023438 13.128906 10.96875 13.152344 10.914062 13.175781 L 10.429688 12.691406 C 10.277344 12.539062 10.027344 12.539062 9.875 12.691406 L 8.214844 14.351562 C 8.140625 14.425781 8.097656 14.523438 8.097656 14.628906 C 8.097656 14.730469 8.140625 14.832031 8.214844 14.902344 L 8.703125 15.390625 C 8.675781 15.445312 8.652344 15.5 8.628906 15.554688 L 7.945312 15.554688 C 7.730469 15.554688 7.554688 15.730469 7.554688 15.945312 L 7.554688 18.296875 C 7.554688 18.511719 7.730469 18.6875 7.945312 18.6875 L 8.628906 18.6875 C 8.652344 18.742188 8.675781 18.796875 8.703125 18.851562 L 8.214844 19.335938 C 8.140625 19.40625 8.097656 19.511719 8.097656 19.613281 C 8.097656 19.71875 8.140625 19.816406 8.214844 19.890625 L 9.875 21.550781 C 10.027344 21.703125 10.277344 21.703125 10.429688 21.550781 L 10.914062 21.066406 C 10.96875 21.089844 11.023438 21.113281 11.078125 21.136719 L 11.078125 21.820312 C 11.078125 22.035156 11.253906 22.210938 11.46875 22.210938 L 13.820312 22.210938 C 14.035156 22.210938 14.210938 22.035156 14.210938 21.820312 L 14.210938 21.136719 C 14.265625 21.113281 14.320312 21.089844 14.375 21.066406 L 14.863281 21.550781 C 15.015625 21.703125 15.261719 21.703125 15.414062 21.550781 L 17.074219 19.890625 C 17.148438 19.816406 17.191406 19.71875 17.191406 19.613281 C 17.191406 19.511719 17.148438 19.40625 17.074219 19.335938 L 16.589844 18.851562 C 16.613281 18.796875 16.636719 18.742188 16.660156 18.6875 L 17.34375 18.6875 C 17.5625 18.6875 17.738281 18.511719 17.738281 18.296875 L 17.738281 15.945312 L 19.304688 15.945312 C 19.519531 15.945312 19.695312 15.769531 19.695312 15.554688 L 19.695312 14.894531 C 19.828125 14.832031 19.957031 14.757812 20.074219 14.675781 L 20.648438 15.003906 C 20.738281 15.054688 20.84375 15.074219 20.945312 15.042969 Z M 18.519531 13.597656 C 17.875 13.597656 17.34375 13.066406 17.34375 12.421875 C 17.34375 11.773438 17.875 11.246094 18.519531 11.246094 C 19.167969 11.246094 19.695312 11.773438 19.695312 12.421875 C 19.695312 13.066406 19.167969 13.597656 18.519531 13.597656 Z M 16.953125 17.902344 L 16.382812 17.902344 C 16.210938 17.902344 16.0625 18.015625 16.007812 18.179688 C 15.945312 18.367188 15.867188 18.558594 15.769531 18.75 C 15.6875 18.902344 15.71875 19.085938 15.839844 19.207031 L 16.246094 19.613281 L 15.136719 20.71875 L 14.734375 20.316406 C 14.613281 20.195312 14.425781 20.167969 14.273438 20.246094 C 14.082031 20.34375 13.890625 20.421875 13.703125 20.484375 C 13.539062 20.535156 13.429688 20.683594 13.429688 20.855469 L 13.429688 21.429688 L 11.863281 21.429688 L 11.863281 20.855469 C 11.863281 20.683594 11.753906 20.535156 11.585938 20.484375 C 11.398438 20.421875 11.207031 20.34375 11.015625 20.246094 C 10.867188 20.167969 10.679688 20.195312 10.558594 20.316406 L 10.15625 20.71875 L 9.046875 19.613281 L 9.449219 19.207031 C 9.570312 19.085938 9.601562 18.898438 9.519531 18.75 C 9.421875 18.5625 9.34375 18.371094 9.28125 18.179688 C 9.230469 18.015625 9.082031 17.902344 8.910156 17.902344 L 8.335938 17.902344 L 8.335938 16.335938 L 8.910156 16.335938 C 9.082031 16.335938 9.230469 16.226562 9.28125 16.0625 C 9.34375 15.871094 9.421875 15.679688 9.519531 15.492188 C 9.601562 15.34375 9.570312 15.15625 9.449219 15.03125 L 9.046875 14.628906 L 10.15625 13.519531 L 10.558594 13.925781 C 10.679688 14.046875 10.867188 14.078125 11.015625 13.996094 C 11.207031 13.898438 11.398438 13.820312 11.585938 13.757812 C 11.753906 13.707031 11.863281 13.554688 11.863281 13.382812 L 11.863281 12.8125 L 13.429688 12.8125 L 13.429688 13.382812 C 13.429688 13.554688 13.539062 13.707031 13.703125 13.757812 C 13.890625 13.820312 14.082031 13.898438 14.273438 13.996094 C 14.425781 14.078125 14.613281 14.046875 14.734375 13.925781 L 15.136719 13.519531 L 16.246094 14.628906 L 15.839844 15.03125 C 15.71875 15.15625 15.6875 15.339844 15.769531 15.492188 C 15.867188 15.683594 15.945312 15.875 16.007812 16.0625 C 16.0625 16.226562 16.210938 16.335938 16.382812 16.335938 L 16.953125 16.335938 Z M 16.660156 15.554688 C 16.636719 15.5 16.613281 15.445312 16.589844 15.390625 L 17.074219 14.902344 C 17.105469 14.871094 17.132812 14.835938 17.152344 14.792969 C 17.214844 14.832031 17.277344 14.863281 17.34375 14.894531 L 17.34375 15.554688 Z M 16.660156 15.554688 " fill-opacity="1" fill-rule="nonzero"/><path fill="#935f3d" d="M 19.695312 4.980469 C 19.695312 5.085938 19.65625 5.179688 19.582031 5.257812 C 19.503906 5.332031 19.410156 5.371094 19.304688 5.371094 C 19.195312 5.371094 19.101562 5.332031 19.027344 5.257812 C 18.949219 5.179688 18.910156 5.085938 18.910156 4.980469 C 18.910156 4.871094 18.949219 4.777344 19.027344 4.703125 C 19.101562 4.625 19.195312 4.585938 19.304688 4.585938 C 19.410156 4.585938 19.503906 4.625 19.582031 4.703125 C 19.65625 4.777344 19.695312 4.871094 19.695312 4.980469 Z M 19.695312 4.980469 " fill-opacity="1" fill-rule="nonzero"/><path fill="#935f3d" d="M 18.765625 24.230469 C 17.5625 24.710938 16.292969 24.953125 14.996094 24.953125 C 12.46875 24.953125 10.046875 24.023438 8.175781 22.328125 C 8.015625 22.183594 7.765625 22.199219 7.621094 22.359375 C 7.476562 22.523438 7.492188 22.769531 7.652344 22.914062 C 9.667969 24.734375 12.277344 25.738281 14.996094 25.738281 C 16.394531 25.738281 17.761719 25.476562 19.058594 24.957031 C 19.257812 24.875 19.355469 24.648438 19.277344 24.449219 C 19.195312 24.246094 18.964844 24.152344 18.765625 24.230469 Z M 18.765625 24.230469 " fill-opacity="1" fill-rule="nonzero"/><path fill="#935f3d" d="M 14.996094 6.984375 L 17.011719 4.96875 C 17.453125 4.519531 17.453125 3.800781 17.011719 3.355469 C 16.789062 3.128906 16.5 3.019531 16.207031 3.019531 C 15.910156 3.019531 15.621094 3.128906 15.398438 3.355469 L 14.996094 3.757812 L 14.59375 3.355469 C 14.144531 2.910156 13.425781 2.910156 12.976562 3.355469 C 12.753906 3.578125 12.644531 3.867188 12.644531 4.160156 C 12.644531 4.453125 12.753906 4.742188 12.976562 4.96875 Z M 14.996094 6.984375 " fill-opacity="1" fill-rule="nonzero"/><path fill="#935f3d" d="M 12.644531 14.769531 C 11.347656 14.769531 10.296875 15.824219 10.296875 17.121094 C 10.296875 18.417969 11.347656 19.472656 12.644531 19.472656 C 13.941406 19.472656 14.996094 18.417969 14.996094 17.121094 C 14.996094 15.824219 13.941406 14.769531 12.644531 14.769531 Z M 12.644531 18.6875 C 11.78125 18.6875 11.078125 17.984375 11.078125 17.121094 C 11.078125 16.253906 11.78125 15.554688 12.644531 15.554688 C 13.511719 15.554688 14.210938 16.253906 14.210938 17.121094 C 14.210938 17.984375 13.511719 18.6875 12.644531 18.6875 Z M 12.644531 18.6875 " fill-opacity="1" fill-rule="nonzero"/><g clip-path="url(#e02ac5e379)"><path fill="#935f3d" d="M 10.117188 11.59375 C 10.175781 11.621094 10.238281 11.636719 10.296875 11.636719 C 10.367188 11.636719 10.441406 11.617188 10.503906 11.578125 C 10.617188 11.507812 10.6875 11.382812 10.6875 11.246094 L 10.6875 10.394531 C 11.140625 10.234375 11.46875 9.796875 11.46875 9.289062 L 11.46875 7.722656 C 11.46875 7.074219 10.941406 6.546875 10.296875 6.546875 L 8.730469 6.546875 L 8.730469 6.152344 C 8.730469 5.507812 8.199219 4.980469 7.554688 4.980469 L 4.421875 4.980469 C 3.773438 4.980469 3.246094 5.507812 3.246094 6.152344 L 3.246094 7.722656 C 3.246094 8.230469 3.574219 8.667969 4.027344 8.828125 L 4.027344 9.679688 C 4.027344 9.816406 4.097656 9.941406 4.210938 10.011719 C 4.273438 10.050781 4.351562 10.070312 4.421875 10.070312 C 4.480469 10.070312 4.542969 10.054688 4.597656 10.027344 L 5.992188 9.332031 C 6.011719 9.957031 6.53125 10.460938 7.160156 10.460938 L 7.851562 10.460938 Z M 6.769531 9.289062 L 6.769531 7.722656 C 6.769531 7.503906 6.945312 7.328125 7.160156 7.328125 L 10.296875 7.328125 C 10.511719 7.328125 10.6875 7.503906 10.6875 7.722656 L 10.6875 9.289062 C 10.6875 9.503906 10.511719 9.679688 10.296875 9.679688 C 10.078125 9.679688 9.902344 9.855469 9.902344 10.070312 L 9.902344 10.609375 L 8.121094 9.722656 C 8.066406 9.695312 8.007812 9.679688 7.945312 9.679688 L 7.160156 9.679688 C 6.945312 9.679688 6.769531 9.503906 6.769531 9.289062 Z M 6.769531 9.289062 " fill-opacity="1" fill-rule="nonzero"/></g><path fill="#935f3d" d="M 11.46875 5.371094 C 11.46875 5.480469 11.433594 5.570312 11.355469 5.648438 C 11.277344 5.722656 11.1875 5.761719 11.078125 5.761719 C 10.96875 5.761719 10.878906 5.722656 10.800781 5.648438 C 10.726562 5.570312 10.6875 5.480469 10.6875 5.371094 C 10.6875 5.261719 10.726562 5.171875 10.800781 5.09375 C 10.878906 5.015625 10.96875 4.980469 11.078125 4.980469 C 11.1875 4.980469 11.277344 5.015625 11.355469 5.09375 C 11.433594 5.171875 11.46875 5.261719 11.46875 5.371094 Z M 11.46875 5.371094 " fill-opacity="1" fill-rule="nonzero"/><g clip-path="url(#90603ecc78)"><path fill="#935f3d" d="M 6.402344 23.222656 C 6.628906 22.953125 6.769531 22.601562 6.769531 22.210938 C 6.769531 21.347656 6.070312 20.644531 5.203125 20.644531 C 4.339844 20.644531 3.636719 21.347656 3.636719 22.210938 C 3.636719 22.601562 3.777344 22.953125 4.003906 23.222656 C 3.550781 23.492188 3.246094 23.992188 3.246094 24.5625 L 3.246094 25.738281 C 3.246094 25.953125 3.421875 26.128906 3.636719 26.128906 L 6.769531 26.128906 C 6.984375 26.128906 7.160156 25.953125 7.160156 25.738281 L 7.160156 24.5625 C 7.160156 23.992188 6.855469 23.492188 6.402344 23.222656 Z M 6.402344 23.222656 " fill-opacity="1" fill-rule="nonzero"/></g><path fill="#935f3d" d="M 5.210938 10.738281 C 5.007812 10.664062 4.78125 10.765625 4.707031 10.96875 C 4.253906 12.1875 4.027344 13.460938 4.027344 14.769531 C 4.027344 16.484375 4.417969 18.136719 5.183594 19.667969 C 5.25 19.804688 5.390625 19.886719 5.53125 19.886719 C 5.589844 19.886719 5.652344 19.871094 5.707031 19.84375 C 5.902344 19.746094 5.980469 19.511719 5.886719 19.316406 C 5.171875 17.894531 4.8125 16.363281 4.8125 14.769531 C 4.8125 13.554688 5.023438 12.371094 5.441406 11.238281 C 5.515625 11.039062 5.410156 10.8125 5.210938 10.738281 Z M 5.210938 10.738281 " fill-opacity="1" fill-rule="nonzero"/></svg>