<svg xmlns="http://www.w3.org/2000/svg" xmlns:xlink="http://www.w3.org/1999/xlink" width="40" zoomAndPan="magnify" viewBox="0 0 30 30.000001" height="40" preserveAspectRatio="xMidYMid meet" version="1.0"><defs><clipPath id="cca83324b7"><path d="M 0.484375 0 L 29.515625 0 L 29.515625 29.03125 L 0.484375 29.03125 Z M 0.484375 0 " clip-rule="nonzero"/></clipPath><clipPath id="30bfa9927e"><path d="M 6.128906 4 L 12 4 L 12 12 L 6.128906 12 Z M 6.128906 4 " clip-rule="nonzero"/></clipPath><clipPath id="32b7921eab"><path d="M 18 4 L 23.550781 4 L 23.550781 12 L 18 12 Z M 18 4 " clip-rule="nonzero"/></clipPath><clipPath id="748fec42ca"><path d="M 10 2.902344 L 20 2.902344 L 20 13 L 10 13 Z M 10 2.902344 " clip-rule="nonzero"/></clipPath><clipPath id="c03eea05b2"><path d="M 11 20 L 18 20 L 18 26.128906 L 11 26.128906 Z M 11 20 " clip-rule="nonzero"/></clipPath></defs><g clip-path="url(#cca83324b7)"><path fill="#ffffff" d="M 0.484375 0 L 29.515625 0 L 29.515625 29.03125 L 0.484375 29.03125 Z M 0.484375 0 " fill-opacity="1" fill-rule="nonzero"/><path fill="#ffffff" d="M 0.484375 0 L 29.515625 0 L 29.515625 29.03125 L 0.484375 29.03125 Z M 0.484375 0 " fill-opacity="1" fill-rule="nonzero"/></g><path fill="#935f3d" d="M 18.128906 18.664062 L 18.128906 18.585938 C 18.128906 18.144531 18.042969 17.714844 17.871094 17.3125 C 17.707031 16.925781 17.472656 16.574219 17.171875 16.273438 C 16.871094 15.972656 16.519531 15.738281 16.132812 15.574219 C 16.058594 15.542969 15.980469 15.511719 15.902344 15.488281 C 16.042969 15.402344 16.171875 15.300781 16.285156 15.1875 C 16.472656 15 16.617188 14.785156 16.71875 14.542969 C 16.824219 14.292969 16.878906 14.03125 16.878906 13.757812 C 16.878906 13.484375 16.824219 13.21875 16.71875 12.96875 C 16.617188 12.730469 16.472656 12.515625 16.285156 12.328125 C 16.101562 12.144531 15.886719 11.996094 15.644531 11.894531 C 15.394531 11.789062 15.128906 11.738281 14.859375 11.738281 C 14.585938 11.738281 14.320312 11.789062 14.070312 11.894531 C 13.832031 11.996094 13.613281 12.144531 13.429688 12.328125 C 13.242188 12.511719 13.097656 12.730469 12.996094 12.96875 C 12.890625 13.21875 12.839844 13.484375 12.839844 13.757812 C 12.839844 14.03125 12.890625 14.292969 12.996094 14.542969 C 13.097656 14.785156 13.246094 15 13.429688 15.1875 C 13.546875 15.300781 13.671875 15.402344 13.8125 15.488281 C 13.734375 15.511719 13.660156 15.542969 13.585938 15.574219 C 13.195312 15.738281 12.84375 15.972656 12.546875 16.273438 C 12.246094 16.574219 12.007812 16.925781 11.84375 17.3125 C 11.671875 17.714844 11.585938 18.144531 11.585938 18.585938 L 11.585938 18.664062 C 11.585938 18.929688 11.804688 19.148438 12.070312 19.148438 L 17.644531 19.148438 C 17.910156 19.148438 18.128906 18.929688 18.128906 18.664062 Z M 13.757812 14.859375 C 13.460938 14.566406 13.300781 14.175781 13.300781 13.757812 C 13.300781 13.339844 13.460938 12.949219 13.757812 12.65625 C 14.050781 12.363281 14.441406 12.199219 14.859375 12.199219 C 15.277344 12.199219 15.667969 12.363281 15.960938 12.65625 C 16.253906 12.949219 16.417969 13.339844 16.417969 13.757812 C 16.417969 14.175781 16.253906 14.566406 15.960938 14.859375 C 15.667969 15.152344 15.277344 15.316406 14.859375 15.316406 C 14.441406 15.316406 14.050781 15.15625 13.757812 14.859375 Z M 12.050781 18.664062 L 12.050781 18.585938 C 12.050781 18.207031 12.125 17.839844 12.269531 17.492188 C 12.414062 17.160156 12.613281 16.859375 12.871094 16.601562 C 13.132812 16.34375 13.429688 16.140625 13.765625 16 C 14.113281 15.851562 14.480469 15.777344 14.859375 15.777344 C 15.238281 15.777344 15.605469 15.851562 15.953125 16 C 16.285156 16.140625 16.585938 16.34375 16.84375 16.601562 C 17.101562 16.859375 17.304688 17.160156 17.445312 17.492188 C 17.59375 17.839844 17.667969 18.207031 17.667969 18.585938 L 17.667969 18.664062 C 17.667969 18.675781 17.65625 18.683594 17.644531 18.683594 L 12.074219 18.683594 C 12.058594 18.683594 12.050781 18.675781 12.050781 18.664062 Z M 12.050781 18.664062 " fill-opacity="1" fill-rule="nonzero"/><path fill="#935f3d" d="M 11.480469 18.917969 C 11.480469 18.789062 11.375 18.683594 11.25 18.683594 L 8.019531 18.683594 C 8.007812 18.683594 7.996094 18.675781 7.996094 18.664062 L 7.996094 18.621094 C 7.996094 18.28125 8.0625 17.953125 8.191406 17.644531 C 8.320312 17.347656 8.5 17.078125 8.730469 16.847656 C 8.960938 16.617188 9.226562 16.4375 9.527344 16.3125 C 9.832031 16.179688 10.164062 16.113281 10.5 16.113281 C 11.003906 16.113281 11.488281 16.261719 11.902344 16.542969 C 12.007812 16.613281 12.148438 16.585938 12.222656 16.480469 C 12.292969 16.375 12.265625 16.230469 12.160156 16.160156 C 11.953125 16.019531 11.730469 15.90625 11.496094 15.824219 C 11.605469 15.753906 11.707031 15.671875 11.804688 15.574219 C 12.148438 15.226562 12.34375 14.765625 12.34375 14.273438 C 12.34375 13.78125 12.148438 13.320312 11.804688 12.972656 C 11.457031 12.625 10.992188 12.433594 10.5 12.433594 C 10.007812 12.433594 9.546875 12.625 9.199219 12.972656 C 8.851562 13.320312 8.660156 13.78125 8.660156 14.273438 C 8.660156 14.765625 8.851562 15.226562 9.199219 15.574219 C 9.292969 15.671875 9.398438 15.753906 9.507812 15.824219 C 9.453125 15.84375 9.398438 15.863281 9.347656 15.886719 C 8.992188 16.035156 8.675781 16.25 8.402344 16.523438 C 8.128906 16.792969 7.917969 17.113281 7.769531 17.464844 C 7.613281 17.832031 7.535156 18.21875 7.535156 18.621094 L 7.535156 18.664062 C 7.535156 18.929688 7.753906 19.148438 8.019531 19.148438 L 11.25 19.148438 C 11.375 19.148438 11.480469 19.042969 11.480469 18.917969 Z M 9.121094 14.273438 C 9.121094 13.90625 9.265625 13.558594 9.527344 13.296875 C 9.785156 13.039062 10.132812 12.894531 10.5 12.894531 C 10.871094 12.894531 11.214844 13.039062 11.476562 13.296875 C 11.738281 13.558594 11.882812 13.90625 11.882812 14.273438 C 11.882812 14.640625 11.738281 14.988281 11.476562 15.25 C 11.214844 15.511719 10.871094 15.652344 10.5 15.652344 C 10.132812 15.652344 9.785156 15.511719 9.527344 15.25 C 9.265625 14.988281 9.121094 14.640625 9.121094 14.273438 Z M 9.121094 14.273438 " fill-opacity="1" fill-rule="nonzero"/><path fill="#935f3d" d="M 21.289062 16.523438 C 21.019531 16.25 20.699219 16.035156 20.347656 15.886719 C 20.292969 15.863281 20.242188 15.84375 20.1875 15.824219 C 20.296875 15.753906 20.398438 15.667969 20.496094 15.574219 C 20.839844 15.226562 21.035156 14.765625 21.035156 14.273438 C 21.035156 13.78125 20.839844 13.320312 20.496094 12.972656 C 20.148438 12.625 19.683594 12.433594 19.191406 12.433594 C 18.699219 12.433594 18.238281 12.625 17.890625 12.972656 C 17.542969 13.320312 17.351562 13.78125 17.351562 14.273438 C 17.351562 14.765625 17.542969 15.226562 17.890625 15.574219 C 17.984375 15.667969 18.089844 15.753906 18.199219 15.824219 C 17.972656 15.90625 17.753906 16.011719 17.550781 16.148438 C 17.445312 16.21875 17.417969 16.363281 17.488281 16.46875 C 17.558594 16.574219 17.699219 16.601562 17.808594 16.53125 C 18.21875 16.257812 18.695312 16.113281 19.191406 16.113281 C 19.53125 16.113281 19.859375 16.179688 20.167969 16.3125 C 20.464844 16.4375 20.734375 16.617188 20.964844 16.847656 C 21.195312 17.078125 21.375 17.34375 21.5 17.644531 C 21.632812 17.953125 21.695312 18.28125 21.695312 18.617188 L 21.695312 18.660156 C 21.695312 18.675781 21.6875 18.683594 21.675781 18.683594 L 18.488281 18.683594 C 18.359375 18.683594 18.257812 18.789062 18.257812 18.914062 C 18.257812 19.042969 18.359375 19.144531 18.488281 19.144531 L 21.675781 19.144531 C 21.941406 19.144531 22.160156 18.929688 22.160156 18.660156 L 22.160156 18.617188 C 22.160156 18.21875 22.082031 17.828125 21.925781 17.464844 C 21.777344 17.113281 21.5625 16.792969 21.289062 16.523438 Z M 19.191406 15.652344 C 18.824219 15.652344 18.476562 15.507812 18.21875 15.25 C 17.957031 14.988281 17.8125 14.640625 17.8125 14.273438 C 17.8125 13.90625 17.957031 13.558594 18.21875 13.296875 C 18.476562 13.035156 18.824219 12.894531 19.191406 12.894531 C 19.5625 12.894531 19.90625 13.035156 20.167969 13.296875 C 20.429688 13.558594 20.574219 13.902344 20.574219 14.273438 C 20.574219 14.640625 20.429688 14.988281 20.167969 15.25 C 19.90625 15.511719 19.5625 15.652344 19.191406 15.652344 Z M 19.191406 15.652344 " fill-opacity="1" fill-rule="nonzero"/><path fill="#935f3d" d="M 8.949219 6.171875 L 8.898438 6.21875 L 8.851562 6.171875 C 8.65625 5.976562 8.398438 5.871094 8.125 5.871094 C 7.847656 5.871094 7.589844 5.976562 7.398438 6.171875 C 6.996094 6.570312 6.996094 7.222656 7.398438 7.625 L 8.734375 8.960938 C 8.777344 9.003906 8.835938 9.03125 8.898438 9.03125 C 8.960938 9.03125 9.019531 9.003906 9.0625 8.960938 L 10.398438 7.625 C 10.59375 7.429688 10.699219 7.171875 10.699219 6.898438 C 10.699219 6.625 10.59375 6.363281 10.398438 6.171875 C 10 5.769531 9.347656 5.769531 8.949219 6.171875 Z M 10.074219 7.296875 L 8.898438 8.472656 L 7.722656 7.296875 C 7.503906 7.078125 7.503906 6.71875 7.722656 6.496094 C 7.832031 6.390625 7.972656 6.332031 8.125 6.332031 C 8.273438 6.332031 8.417969 6.390625 8.523438 6.496094 L 8.738281 6.707031 C 8.828125 6.796875 8.972656 6.796875 9.0625 6.707031 L 9.273438 6.496094 C 9.382812 6.390625 9.523438 6.332031 9.675781 6.332031 C 9.824219 6.332031 9.96875 6.390625 10.074219 6.496094 C 10.179688 6.601562 10.242188 6.746094 10.242188 6.898438 C 10.242188 7.046875 10.179688 7.191406 10.074219 7.296875 Z M 10.074219 7.296875 " fill-opacity="1" fill-rule="nonzero"/><g clip-path="url(#30bfa9927e)"><path fill="#935f3d" d="M 8.898438 9.9375 C 9.074219 9.9375 9.25 9.917969 9.421875 9.886719 L 10.464844 11.695312 C 10.507812 11.769531 10.582031 11.8125 10.664062 11.8125 C 10.6875 11.8125 10.714844 11.808594 10.738281 11.800781 C 10.84375 11.765625 10.90625 11.660156 10.890625 11.550781 L 10.59375 9.355469 C 10.785156 9.207031 10.957031 9.03125 11.101562 8.839844 C 11.179688 8.738281 11.160156 8.59375 11.058594 8.515625 C 10.957031 8.441406 10.8125 8.460938 10.734375 8.5625 C 10.589844 8.753906 10.414062 8.921875 10.214844 9.0625 C 10.144531 9.109375 10.109375 9.195312 10.121094 9.28125 L 10.277344 10.445312 L 9.738281 9.507812 C 9.6875 9.417969 9.582031 9.375 9.480469 9.398438 C 9.292969 9.449219 9.097656 9.472656 8.898438 9.472656 C 8.285156 9.472656 7.707031 9.234375 7.269531 8.800781 C 6.835938 8.367188 6.597656 7.789062 6.597656 7.171875 C 6.597656 6.558594 6.835938 5.980469 7.269531 5.542969 C 7.707031 5.109375 8.285156 4.871094 8.898438 4.871094 C 9.230469 4.871094 9.550781 4.9375 9.851562 5.074219 C 10.140625 5.207031 10.394531 5.394531 10.609375 5.632812 C 10.695312 5.726562 10.839844 5.734375 10.9375 5.648438 C 11.03125 5.5625 11.039062 5.417969 10.953125 5.324219 C 10.695312 5.039062 10.390625 4.8125 10.042969 4.65625 C 9.683594 4.492188 9.296875 4.410156 8.898438 4.410156 C 8.527344 4.410156 8.164062 4.480469 7.824219 4.625 C 7.492188 4.765625 7.199219 4.964844 6.945312 5.21875 C 6.691406 5.472656 6.492188 5.769531 6.351562 6.097656 C 6.207031 6.4375 6.132812 6.800781 6.132812 7.171875 C 6.132812 7.546875 6.207031 7.90625 6.351562 8.25 C 6.492188 8.578125 6.691406 8.875 6.945312 9.128906 C 7.199219 9.382812 7.492188 9.582031 7.824219 9.71875 C 8.164062 9.863281 8.527344 9.9375 8.898438 9.9375 Z M 8.898438 9.9375 " fill-opacity="1" fill-rule="nonzero"/></g><path fill="#935f3d" d="M 19.652344 6.542969 L 19.757812 6.542969 C 19.886719 6.542969 19.988281 6.441406 19.988281 6.3125 C 19.988281 6.1875 19.886719 6.082031 19.757812 6.082031 L 19.652344 6.082031 C 19.523438 6.082031 19.421875 6.1875 19.421875 6.3125 C 19.421875 6.441406 19.523438 6.542969 19.652344 6.542969 Z M 19.652344 6.542969 " fill-opacity="1" fill-rule="nonzero"/><g clip-path="url(#32b7921eab)"><path fill="#935f3d" d="M 23.648438 6.097656 C 23.507812 5.765625 23.308594 5.472656 23.054688 5.21875 C 22.800781 4.964844 22.503906 4.765625 22.175781 4.625 C 21.835938 4.480469 21.472656 4.40625 21.101562 4.40625 C 20.289062 4.40625 19.523438 4.761719 19 5.375 C 18.914062 5.472656 18.925781 5.621094 19.023438 5.703125 C 19.121094 5.785156 19.265625 5.773438 19.347656 5.675781 C 19.789062 5.164062 20.425781 4.871094 21.101562 4.871094 C 21.714844 4.871094 22.292969 5.109375 22.726562 5.542969 C 23.164062 5.980469 23.402344 6.558594 23.402344 7.171875 C 23.402344 7.789062 23.164062 8.367188 22.726562 8.800781 C 22.292969 9.234375 21.714844 9.476562 21.101562 9.476562 C 20.996094 9.476562 20.890625 9.46875 20.785156 9.453125 C 20.691406 9.441406 20.601562 9.488281 20.554688 9.566406 L 20.050781 10.449219 L 20.183594 9.464844 C 20.195312 9.367188 20.144531 9.273438 20.058594 9.226562 C 19.753906 9.070312 19.480469 8.84375 19.269531 8.570312 C 19.191406 8.46875 19.046875 8.449219 18.945312 8.527344 C 18.847656 8.605469 18.828125 8.75 18.902344 8.851562 C 19.121094 9.136719 19.394531 9.378906 19.703125 9.558594 L 19.433594 11.550781 C 19.417969 11.660156 19.484375 11.765625 19.589844 11.800781 C 19.613281 11.808594 19.636719 11.8125 19.664062 11.8125 C 19.742188 11.8125 19.820312 11.769531 19.863281 11.699219 L 20.878906 9.929688 C 20.953125 9.933594 21.027344 9.9375 21.097656 9.9375 C 21.472656 9.9375 21.835938 9.863281 22.175781 9.71875 C 22.503906 9.582031 22.800781 9.382812 23.054688 9.128906 C 23.308594 8.875 23.507812 8.578125 23.644531 8.25 C 23.789062 7.90625 23.863281 7.546875 23.863281 7.171875 C 23.863281 6.800781 23.792969 6.4375 23.648438 6.097656 Z M 23.648438 6.097656 " fill-opacity="1" fill-rule="nonzero"/></g><path fill="#935f3d" d="M 22.570312 6.542969 C 22.699219 6.542969 22.800781 6.441406 22.800781 6.3125 C 22.800781 6.1875 22.699219 6.082031 22.570312 6.082031 L 20.484375 6.082031 C 20.359375 6.082031 20.253906 6.1875 20.253906 6.3125 C 20.253906 6.441406 20.359375 6.542969 20.484375 6.542969 Z M 22.570312 6.542969 " fill-opacity="1" fill-rule="nonzero"/><path fill="#935f3d" d="M 19.652344 7.402344 L 22.570312 7.402344 C 22.699219 7.402344 22.800781 7.300781 22.800781 7.171875 C 22.800781 7.046875 22.699219 6.941406 22.570312 6.941406 L 19.652344 6.941406 C 19.523438 6.941406 19.421875 7.046875 19.421875 7.171875 C 19.421875 7.300781 19.523438 7.402344 19.652344 7.402344 Z M 19.652344 7.402344 " fill-opacity="1" fill-rule="nonzero"/><path fill="#935f3d" d="M 22.570312 7.800781 L 22.492188 7.800781 C 22.367188 7.800781 22.261719 7.902344 22.261719 8.03125 C 22.261719 8.160156 22.367188 8.261719 22.492188 8.261719 L 22.570312 8.261719 C 22.699219 8.261719 22.800781 8.160156 22.800781 8.03125 C 22.800781 7.902344 22.699219 7.800781 22.570312 7.800781 Z M 22.570312 7.800781 " fill-opacity="1" fill-rule="nonzero"/><path fill="#935f3d" d="M 19.652344 8.261719 L 21.746094 8.261719 C 21.875 8.261719 21.976562 8.160156 21.976562 8.03125 C 21.976562 7.902344 21.875 7.800781 21.746094 7.800781 L 19.652344 7.800781 C 19.523438 7.800781 19.421875 7.902344 19.421875 8.03125 C 19.421875 8.160156 19.523438 8.261719 19.652344 8.261719 Z M 19.652344 8.261719 " fill-opacity="1" fill-rule="nonzero"/><path fill="#935f3d" d="M 14.230469 8.882812 L 17.058594 8.882812 C 17.363281 8.882812 17.609375 8.632812 17.609375 8.332031 C 17.609375 8.238281 17.585938 8.152344 17.546875 8.074219 C 17.644531 7.976562 17.703125 7.839844 17.703125 7.691406 C 17.703125 7.585938 17.675781 7.492188 17.628906 7.410156 C 17.710938 7.3125 17.761719 7.1875 17.761719 7.046875 C 17.761719 6.964844 17.742188 6.882812 17.710938 6.8125 C 17.820312 6.710938 17.886719 6.566406 17.886719 6.40625 C 17.886719 6.105469 17.640625 5.855469 17.335938 5.855469 L 16.0625 5.855469 C 16.082031 5.578125 16.078125 5.296875 16.054688 5.019531 C 16.050781 4.625 15.726562 4.304688 15.328125 4.304688 C 15.046875 4.304688 14.816406 4.535156 14.816406 4.816406 L 14.816406 4.984375 C 14.816406 5.207031 14.789062 5.425781 14.738281 5.644531 C 14.679688 5.875 14.472656 6.039062 14.230469 6.039062 C 14.101562 6.039062 14 6.140625 14 6.269531 L 14 8.652344 C 14 8.777344 14.101562 8.882812 14.230469 8.882812 Z M 14.460938 6.472656 C 14.8125 6.386719 15.09375 6.117188 15.183594 5.753906 C 15.246094 5.5 15.277344 5.242188 15.277344 4.984375 L 15.277344 4.8125 C 15.277344 4.785156 15.300781 4.765625 15.328125 4.765625 C 15.472656 4.765625 15.59375 4.882812 15.59375 5.03125 C 15.59375 5.035156 15.59375 5.042969 15.59375 5.050781 C 15.625 5.367188 15.621094 5.6875 15.585938 6.003906 L 15.578125 6.0625 C 15.570312 6.125 15.59375 6.191406 15.636719 6.242188 C 15.679688 6.289062 15.742188 6.316406 15.808594 6.316406 L 17.335938 6.316406 C 17.386719 6.316406 17.425781 6.355469 17.425781 6.40625 C 17.425781 6.457031 17.386719 6.496094 17.335938 6.496094 L 17.210938 6.496094 C 17.085938 6.496094 16.980469 6.601562 16.980469 6.726562 C 16.980469 6.855469 17.085938 6.957031 17.210938 6.957031 C 17.261719 6.957031 17.300781 7 17.300781 7.046875 C 17.300781 7.097656 17.261719 7.136719 17.210938 7.136719 L 17.152344 7.136719 C 17.027344 7.136719 16.921875 7.242188 16.921875 7.367188 C 16.921875 7.496094 17.027344 7.597656 17.152344 7.597656 C 17.203125 7.597656 17.242188 7.640625 17.242188 7.6875 C 17.242188 7.738281 17.203125 7.777344 17.152344 7.777344 L 17.058594 7.777344 C 16.929688 7.777344 16.828125 7.882812 16.828125 8.007812 C 16.828125 8.136719 16.929688 8.238281 17.058594 8.238281 C 17.109375 8.238281 17.148438 8.28125 17.148438 8.328125 C 17.148438 8.378906 17.109375 8.417969 17.058594 8.417969 L 14.460938 8.417969 Z M 14.460938 6.472656 " fill-opacity="1" fill-rule="nonzero"/><path fill="#935f3d" d="M 12.613281 8.882812 L 13.503906 8.882812 C 13.632812 8.882812 13.734375 8.777344 13.734375 8.652344 L 13.734375 6.3125 C 13.734375 6.183594 13.632812 6.082031 13.503906 6.082031 L 12.613281 6.082031 C 12.484375 6.082031 12.382812 6.183594 12.382812 6.3125 L 12.382812 8.652344 C 12.382812 8.777344 12.484375 8.882812 12.613281 8.882812 Z M 12.84375 6.542969 L 13.273438 6.542969 L 13.273438 8.421875 L 12.84375 8.421875 Z M 12.84375 6.542969 " fill-opacity="1" fill-rule="nonzero"/><g clip-path="url(#748fec42ca)"><path fill="#935f3d" d="M 11.242188 8.632812 C 11.445312 9.097656 11.730469 9.515625 12.089844 9.875 L 11.871094 11.921875 C 11.859375 12.011719 11.90625 12.101562 11.984375 12.144531 C 12.019531 12.167969 12.058594 12.175781 12.097656 12.175781 C 12.148438 12.175781 12.195312 12.160156 12.234375 12.132812 L 13.882812 10.929688 C 14.242188 11.03125 14.613281 11.082031 14.992188 11.082031 C 15.542969 11.082031 16.078125 10.976562 16.582031 10.761719 C 17.070312 10.554688 17.507812 10.261719 17.882812 9.886719 C 18.257812 9.511719 18.554688 9.074219 18.757812 8.585938 C 18.972656 8.082031 19.082031 7.546875 19.082031 6.992188 C 19.082031 6.441406 18.972656 5.90625 18.757812 5.402344 C 18.554688 4.914062 18.257812 4.476562 17.882812 4.101562 C 17.507812 3.726562 17.070312 3.429688 16.582031 3.226562 C 16.078125 3.011719 15.542969 2.902344 14.992188 2.902344 C 14.4375 2.902344 13.902344 3.011719 13.398438 3.226562 C 12.910156 3.429688 12.472656 3.726562 12.097656 4.101562 C 11.722656 4.476562 11.429688 4.914062 11.222656 5.402344 C 11.007812 5.90625 10.898438 6.441406 10.898438 6.992188 C 10.902344 7.5625 11.015625 8.113281 11.242188 8.632812 Z M 11.648438 5.582031 C 11.828125 5.148438 12.089844 4.761719 12.425781 4.429688 C 12.757812 4.09375 13.144531 3.832031 13.578125 3.648438 C 14.027344 3.460938 14.5 3.363281 14.992188 3.363281 C 15.480469 3.363281 15.957031 3.460938 16.402344 3.648438 C 16.835938 3.832031 17.222656 4.09375 17.558594 4.429688 C 17.890625 4.761719 18.152344 5.148438 18.335938 5.582031 C 18.523438 6.027344 18.621094 6.503906 18.621094 6.992188 C 18.621094 7.484375 18.523438 7.960938 18.335938 8.40625 C 18.152344 8.839844 17.890625 9.226562 17.558594 9.558594 C 17.222656 9.894531 16.835938 10.15625 16.402344 10.335938 C 15.957031 10.527344 15.480469 10.621094 14.992188 10.621094 C 14.621094 10.621094 14.257812 10.566406 13.90625 10.457031 C 13.835938 10.4375 13.761719 10.449219 13.703125 10.492188 L 12.382812 11.453125 L 12.558594 9.8125 C 12.566406 9.742188 12.542969 9.671875 12.488281 9.621094 C 12.136719 9.289062 11.859375 8.890625 11.664062 8.449219 C 11.464844 7.988281 11.363281 7.5 11.363281 6.992188 C 11.363281 6.503906 11.457031 6.027344 11.648438 5.582031 Z M 11.648438 5.582031 " fill-opacity="1" fill-rule="nonzero"/></g><path fill="#935f3d" d="M 12.847656 19.535156 C 12.847656 19.460938 12.789062 19.402344 12.71875 19.402344 C 12.65625 19.402344 12.605469 19.445312 12.589844 19.5 C 12.589844 19.503906 12.585938 19.503906 12.585938 19.503906 C 12.546875 19.53125 12.464844 19.582031 12.464844 19.695312 C 12.464844 19.773438 12.507812 19.824219 12.542969 19.855469 C 12.507812 19.886719 12.464844 19.933594 12.464844 20.015625 C 12.464844 20.09375 12.507812 20.140625 12.542969 20.175781 C 12.507812 20.207031 12.464844 20.253906 12.464844 20.332031 C 12.464844 20.40625 12.523438 20.464844 12.597656 20.464844 C 12.660156 20.464844 12.710938 20.421875 12.726562 20.367188 C 12.726562 20.367188 12.730469 20.363281 12.730469 20.363281 C 12.769531 20.339844 12.847656 20.285156 12.847656 20.175781 C 12.847656 20.097656 12.808594 20.046875 12.773438 20.015625 C 12.808594 19.984375 12.847656 19.933594 12.847656 19.855469 C 12.847656 19.777344 12.808594 19.726562 12.773438 19.695312 C 12.808594 19.664062 12.847656 19.613281 12.847656 19.535156 Z M 12.847656 19.535156 " fill-opacity="1" fill-rule="nonzero"/><path fill="#935f3d" d="M 14.117188 19.8125 C 14.15625 19.75 14.140625 19.671875 14.082031 19.628906 C 14.027344 19.59375 13.960938 19.601562 13.914062 19.644531 C 13.914062 19.644531 13.910156 19.644531 13.90625 19.644531 C 13.859375 19.644531 13.765625 19.648438 13.703125 19.738281 C 13.652344 19.8125 13.664062 19.882812 13.679688 19.929688 C 13.628906 19.933594 13.558594 19.953125 13.507812 20.023438 C 13.460938 20.09375 13.46875 20.167969 13.484375 20.214844 C 13.433594 20.21875 13.363281 20.234375 13.316406 20.308594 C 13.277344 20.367188 13.292969 20.449219 13.351562 20.492188 C 13.375 20.507812 13.402344 20.515625 13.425781 20.515625 C 13.460938 20.515625 13.492188 20.5 13.519531 20.476562 C 13.519531 20.476562 13.523438 20.476562 13.527344 20.476562 C 13.574219 20.476562 13.667969 20.472656 13.730469 20.382812 C 13.78125 20.308594 13.769531 20.238281 13.753906 20.191406 C 13.804688 20.1875 13.875 20.167969 13.925781 20.097656 C 13.972656 20.023438 13.964844 19.953125 13.949219 19.90625 C 14 19.902344 14.066406 19.882812 14.117188 19.8125 Z M 14.117188 19.8125 " fill-opacity="1" fill-rule="nonzero"/><path fill="#935f3d" d="M 11.914062 20.398438 C 11.914062 20.398438 11.914062 20.394531 11.914062 20.390625 C 11.929688 20.347656 11.964844 20.257812 11.902344 20.167969 C 11.851562 20.09375 11.785156 20.078125 11.734375 20.074219 C 11.75 20.027344 11.757812 19.953125 11.710938 19.882812 C 11.660156 19.808594 11.589844 19.792969 11.539062 19.789062 C 11.554688 19.742188 11.566406 19.667969 11.515625 19.597656 C 11.476562 19.539062 11.394531 19.523438 11.332031 19.5625 C 11.28125 19.597656 11.261719 19.664062 11.285156 19.722656 C 11.285156 19.726562 11.28125 19.726562 11.28125 19.730469 C 11.265625 19.773438 11.234375 19.863281 11.296875 19.953125 C 11.34375 20.027344 11.414062 20.042969 11.464844 20.046875 C 11.449219 20.097656 11.4375 20.167969 11.488281 20.238281 C 11.535156 20.3125 11.605469 20.328125 11.65625 20.332031 C 11.640625 20.378906 11.632812 20.453125 11.679688 20.523438 C 11.707031 20.5625 11.746094 20.582031 11.789062 20.582031 C 11.816406 20.582031 11.839844 20.574219 11.863281 20.558594 C 11.917969 20.523438 11.9375 20.457031 11.914062 20.398438 Z M 11.914062 20.398438 " fill-opacity="1" fill-rule="nonzero"/><path fill="#935f3d" d="M 17.25 19.535156 C 17.25 19.460938 17.191406 19.402344 17.121094 19.402344 C 17.058594 19.402344 17.007812 19.445312 16.992188 19.5 C 16.992188 19.503906 16.988281 19.503906 16.988281 19.503906 C 16.949219 19.53125 16.867188 19.582031 16.867188 19.695312 C 16.867188 19.773438 16.910156 19.824219 16.945312 19.855469 C 16.910156 19.886719 16.867188 19.933594 16.867188 20.015625 C 16.867188 20.09375 16.910156 20.140625 16.945312 20.175781 C 16.910156 20.207031 16.867188 20.253906 16.867188 20.332031 C 16.867188 20.40625 16.925781 20.464844 17 20.464844 C 17.0625 20.464844 17.113281 20.421875 17.128906 20.367188 C 17.128906 20.367188 17.132812 20.363281 17.132812 20.363281 C 17.171875 20.339844 17.25 20.285156 17.25 20.175781 C 17.25 20.097656 17.210938 20.046875 17.175781 20.015625 C 17.210938 19.984375 17.25 19.933594 17.25 19.855469 C 17.25 19.777344 17.210938 19.726562 17.175781 19.695312 C 17.210938 19.664062 17.25 19.613281 17.25 19.535156 Z M 17.25 19.535156 " fill-opacity="1" fill-rule="nonzero"/><path fill="#935f3d" d="M 18.484375 19.628906 C 18.429688 19.59375 18.363281 19.601562 18.316406 19.644531 C 18.316406 19.644531 18.3125 19.644531 18.308594 19.644531 C 18.261719 19.644531 18.167969 19.648438 18.105469 19.738281 C 18.054688 19.8125 18.066406 19.882812 18.082031 19.929688 C 18.03125 19.933594 17.960938 19.953125 17.910156 20.023438 C 17.863281 20.09375 17.871094 20.167969 17.886719 20.214844 C 17.835938 20.21875 17.765625 20.234375 17.71875 20.308594 C 17.679688 20.367188 17.695312 20.449219 17.753906 20.492188 C 17.777344 20.507812 17.804688 20.515625 17.828125 20.515625 C 17.863281 20.515625 17.894531 20.5 17.921875 20.476562 C 17.921875 20.476562 17.925781 20.476562 17.929688 20.476562 C 17.976562 20.476562 18.070312 20.472656 18.132812 20.382812 C 18.183594 20.308594 18.171875 20.238281 18.15625 20.191406 C 18.207031 20.1875 18.277344 20.167969 18.328125 20.097656 C 18.375 20.023438 18.367188 19.953125 18.351562 19.90625 C 18.402344 19.902344 18.472656 19.882812 18.519531 19.8125 C 18.558594 19.75 18.542969 19.671875 18.484375 19.628906 Z M 18.484375 19.628906 " fill-opacity="1" fill-rule="nonzero"/><path fill="#935f3d" d="M 16.304688 20.167969 C 16.253906 20.09375 16.183594 20.078125 16.136719 20.074219 C 16.148438 20.027344 16.160156 19.953125 16.109375 19.882812 C 16.0625 19.808594 15.992188 19.792969 15.941406 19.789062 C 15.957031 19.742188 15.96875 19.667969 15.917969 19.597656 C 15.878906 19.539062 15.792969 19.523438 15.734375 19.5625 C 15.683594 19.597656 15.664062 19.664062 15.6875 19.722656 C 15.683594 19.726562 15.683594 19.726562 15.683594 19.730469 C 15.667969 19.773438 15.636719 19.863281 15.695312 19.953125 C 15.746094 20.027344 15.816406 20.042969 15.863281 20.046875 C 15.851562 20.097656 15.839844 20.167969 15.890625 20.238281 C 15.9375 20.3125 16.007812 20.328125 16.058594 20.332031 C 16.042969 20.378906 16.035156 20.453125 16.082031 20.523438 C 16.109375 20.5625 16.148438 20.582031 16.191406 20.582031 C 16.214844 20.582031 16.242188 20.574219 16.265625 20.558594 C 16.316406 20.523438 16.335938 20.457031 16.3125 20.398438 C 16.3125 20.398438 16.316406 20.394531 16.316406 20.390625 C 16.332031 20.347656 16.367188 20.257812 16.304688 20.167969 Z M 16.304688 20.167969 " fill-opacity="1" fill-rule="nonzero"/><g clip-path="url(#c03eea05b2)"><path fill="#935f3d" d="M 17.660156 20.804688 L 16.460938 20.804688 C 16.332031 20.804688 16.230469 20.910156 16.230469 21.035156 L 16.230469 21.992188 C 16.230469 21.996094 16.230469 21.996094 16.230469 21.996094 L 16.230469 23.097656 C 16.230469 23.464844 16.085938 23.808594 15.828125 24.066406 C 15.570312 24.328125 15.226562 24.46875 14.859375 24.46875 C 14.492188 24.46875 14.148438 24.328125 13.890625 24.066406 C 13.628906 23.808594 13.488281 23.464844 13.488281 23.097656 L 13.488281 22 C 13.488281 21.996094 13.488281 21.996094 13.488281 21.996094 L 13.488281 21.035156 C 13.488281 20.910156 13.382812 20.804688 13.257812 20.804688 L 12.058594 20.804688 C 11.929688 20.804688 11.828125 20.910156 11.828125 21.035156 L 11.828125 21.996094 C 11.828125 21.996094 11.828125 21.996094 11.828125 22 L 11.828125 23.097656 C 11.828125 23.507812 11.90625 23.902344 12.066406 24.277344 C 12.21875 24.640625 12.4375 24.964844 12.714844 25.242188 C 12.992188 25.519531 13.316406 25.738281 13.679688 25.890625 C 14.054688 26.046875 14.449219 26.128906 14.859375 26.128906 C 15.269531 26.128906 15.664062 26.046875 16.039062 25.890625 C 16.398438 25.738281 16.722656 25.519531 17.003906 25.242188 C 17.28125 24.964844 17.5 24.640625 17.652344 24.277344 C 17.808594 23.902344 17.890625 23.507812 17.890625 23.097656 L 17.890625 21.996094 C 17.890625 21.992188 17.890625 21.992188 17.890625 21.992188 C 17.890625 21.992188 17.890625 21.988281 17.890625 21.988281 L 17.890625 21.035156 C 17.890625 20.910156 17.785156 20.804688 17.660156 20.804688 Z M 12.289062 21.265625 L 13.027344 21.265625 L 13.027344 21.765625 C 12.761719 21.765625 12.515625 21.765625 12.289062 21.765625 Z M 17.429688 23.097656 C 17.429688 23.445312 17.359375 23.78125 17.226562 24.097656 C 17.097656 24.402344 16.914062 24.679688 16.675781 24.914062 C 16.441406 25.148438 16.164062 25.335938 15.859375 25.464844 C 15.542969 25.597656 15.207031 25.667969 14.859375 25.667969 C 14.511719 25.667969 14.175781 25.597656 13.859375 25.464844 C 13.550781 25.335938 13.277344 25.148438 13.042969 24.914062 C 12.804688 24.679688 12.621094 24.402344 12.492188 24.097656 C 12.359375 23.78125 12.289062 23.445312 12.289062 23.097656 L 12.289062 22.230469 C 12.507812 22.230469 12.742188 22.230469 12.992188 22.230469 C 13.003906 22.230469 13.015625 22.230469 13.027344 22.230469 L 13.027344 23.097656 C 13.027344 23.585938 13.21875 24.046875 13.5625 24.394531 C 13.910156 24.738281 14.371094 24.929688 14.859375 24.929688 C 15.347656 24.929688 15.808594 24.738281 16.15625 24.394531 C 16.5 24.046875 16.691406 23.585938 16.691406 23.097656 L 16.691406 22.226562 C 16.941406 22.226562 17.191406 22.226562 17.429688 22.226562 Z M 17.429688 21.757812 C 17.1875 21.757812 16.941406 21.757812 16.691406 21.757812 L 16.691406 21.265625 L 17.429688 21.265625 Z M 17.429688 21.757812 " fill-opacity="1" fill-rule="nonzero"/></g></svg>