<svg xmlns="http://www.w3.org/2000/svg" xmlns:xlink="http://www.w3.org/1999/xlink" width="40" zoomAndPan="magnify" viewBox="0 0 30 30.000001" height="40" preserveAspectRatio="xMidYMid meet" version="1.0"><defs><clipPath id="543b356984"><path d="M 0.484375 0 L 29.515625 0 L 29.515625 29.03125 L 0.484375 29.03125 Z M 0.484375 0 " clip-rule="nonzero"/></clipPath><clipPath id="2ef6fe1272"><path d="M 3.386719 2.902344 L 26.613281 2.902344 L 26.613281 26.128906 L 3.386719 26.128906 Z M 3.386719 2.902344 " clip-rule="nonzero"/></clipPath></defs><g clip-path="url(#543b356984)"><path fill="#ffffff" d="M 0.484375 0 L 29.515625 0 L 29.515625 29.03125 L 0.484375 29.03125 Z M 0.484375 0 " fill-opacity="1" fill-rule="nonzero"/><path fill="#ffffff" d="M 0.484375 0 L 29.515625 0 L 29.515625 29.03125 L 0.484375 29.03125 Z M 0.484375 0 " fill-opacity="1" fill-rule="nonzero"/></g><path fill="#935f3d" d="M 10.878906 24.628906 L 11.628906 24.628906 L 11.628906 23.882812 L 10.878906 23.882812 L 10.878906 24.628906 " fill-opacity="1" fill-rule="nonzero"/><path fill="#935f3d" d="M 6.382812 24.628906 L 7.132812 24.628906 L 7.132812 23.882812 L 6.382812 23.882812 L 6.382812 24.628906 " fill-opacity="1" fill-rule="nonzero"/><path fill="#935f3d" d="M 9.378906 7.398438 L 7.132812 7.398438 L 7.132812 8.148438 L 9.378906 8.148438 L 9.378906 7.398438 " fill-opacity="1" fill-rule="nonzero"/><path fill="#935f3d" d="M 7.882812 24.628906 L 10.128906 24.628906 L 10.128906 23.882812 L 7.882812 23.882812 L 7.882812 24.628906 " fill-opacity="1" fill-rule="nonzero"/><path fill="#935f3d" d="M 16.875 13.390625 C 14.808594 13.390625 13.125 11.710938 13.125 9.644531 C 13.125 7.578125 14.808594 5.898438 16.875 5.898438 C 18.9375 5.898438 20.621094 7.578125 20.621094 9.644531 C 20.621094 11.710938 18.9375 13.390625 16.875 13.390625 Z M 21.367188 9.644531 C 21.367188 7.167969 19.351562 5.152344 16.875 5.152344 C 14.394531 5.152344 12.378906 7.167969 12.378906 9.644531 C 12.378906 12.125 14.394531 14.140625 16.875 14.140625 C 19.351562 14.140625 21.367188 12.125 21.367188 9.644531 " fill-opacity="1" fill-rule="nonzero"/><path fill="#935f3d" d="M 19.121094 10.769531 C 19.121094 10.976562 18.953125 11.144531 18.746094 11.144531 L 16.960938 11.144531 C 16.617188 11.144531 16.300781 10.964844 16.125 10.671875 L 16.125 8.878906 C 16.546875 8.796875 16.894531 8.476562 17.003906 8.046875 L 17.164062 7.398438 C 17.417969 7.398438 17.621094 7.601562 17.621094 7.855469 L 17.621094 8.898438 L 18.746094 8.898438 C 18.953125 8.898438 19.121094 9.066406 19.121094 9.273438 Z M 15.375 11.144531 L 14.625 11.144531 L 14.625 8.898438 L 15.375 8.898438 Z M 18.746094 8.148438 L 18.371094 8.148438 L 18.371094 7.855469 C 18.371094 7.191406 17.828125 6.648438 17.164062 6.648438 C 16.820312 6.648438 16.523438 6.882812 16.4375 7.21875 L 16.277344 7.863281 C 16.234375 8.03125 16.085938 8.148438 15.914062 8.148438 L 14.625 8.148438 C 14.210938 8.148438 13.875 8.484375 13.875 8.898438 L 13.875 11.144531 C 13.875 11.558594 14.210938 11.894531 14.625 11.894531 L 15.375 11.894531 C 15.621094 11.894531 15.839844 11.773438 15.976562 11.589844 C 16.261719 11.785156 16.601562 11.894531 16.960938 11.894531 L 18.746094 11.894531 C 19.367188 11.894531 19.871094 11.390625 19.871094 10.769531 L 19.871094 9.273438 C 19.871094 8.652344 19.367188 8.148438 18.746094 8.148438 " fill-opacity="1" fill-rule="nonzero"/><path fill="#935f3d" d="M 20.621094 19.296875 L 21.390625 19.761719 L 20.621094 20.222656 Z M 19.871094 21.546875 L 22.847656 19.761719 L 19.871094 17.976562 L 19.871094 21.546875 " fill-opacity="1" fill-rule="nonzero"/><path fill="#935f3d" d="M 20.992188 22.382812 C 19.546875 22.382812 18.371094 21.207031 18.371094 19.761719 C 18.371094 18.316406 19.546875 17.136719 20.992188 17.136719 C 22.441406 17.136719 23.617188 18.316406 23.617188 19.761719 C 23.617188 21.207031 22.441406 22.382812 20.992188 22.382812 Z M 20.992188 16.390625 C 19.132812 16.390625 17.621094 17.902344 17.621094 19.761719 C 17.621094 21.617188 19.132812 23.132812 20.992188 23.132812 C 22.855469 23.132812 24.367188 21.617188 24.367188 19.761719 C 24.367188 17.902344 22.855469 16.390625 20.992188 16.390625 " fill-opacity="1" fill-rule="nonzero"/><g clip-path="url(#2ef6fe1272)"><path fill="#935f3d" d="M 24.796875 21.339844 C 24.605469 21.796875 24.675781 22.304688 24.972656 22.667969 L 23.902344 23.738281 C 23.535156 23.445312 23.027344 23.371094 22.5625 23.566406 C 22.105469 23.753906 21.796875 24.164062 21.75 24.628906 L 20.238281 24.628906 C 20.1875 24.164062 19.878906 23.753906 19.414062 23.5625 C 18.957031 23.371094 18.449219 23.445312 18.085938 23.738281 L 17.015625 22.667969 C 17.3125 22.304688 17.378906 21.796875 17.1875 21.332031 C 17 20.875 16.589844 20.566406 16.125 20.515625 L 16.125 19.003906 C 16.589844 18.957031 17 18.648438 17.191406 18.179688 C 17.382812 17.722656 17.3125 17.214844 17.015625 16.851562 L 17.476562 16.390625 L 18.371094 16.390625 L 18.371094 15.796875 C 18.371094 15.375 18.621094 15 19.027344 14.832031 C 19.417969 14.667969 19.863281 14.757812 20.164062 15.054688 L 20.582031 15.472656 L 21.164062 14.890625 L 21.75 14.890625 C 21.796875 15.359375 22.105469 15.765625 22.574219 15.957031 C 23.03125 16.148438 23.539062 16.078125 23.902344 15.78125 L 24.972656 16.851562 C 24.675781 17.214844 24.605469 17.726562 24.796875 18.191406 C 24.988281 18.648438 25.398438 18.957031 25.863281 19.003906 L 25.863281 20.515625 C 25.398438 20.566406 24.988281 20.875 24.796875 21.339844 Z M 15.003906 14.140625 C 14.382812 13.882812 13.675781 13.992188 13.167969 14.417969 L 12.265625 13.515625 L 12.308594 13.347656 C 12.355469 13.15625 12.378906 12.964844 12.378906 12.773438 C 12.378906 11.769531 11.753906 10.914062 10.878906 10.566406 L 10.878906 8.890625 C 11.539062 8.832031 12.113281 8.414062 12.378906 7.777344 C 12.636719 7.15625 12.527344 6.449219 12.101562 5.941406 L 13.167969 4.871094 C 13.679688 5.300781 14.382812 5.410156 15.023438 5.144531 C 15.640625 4.886719 16.0625 4.3125 16.117188 3.652344 L 17.628906 3.652344 C 17.683594 4.3125 18.105469 4.890625 18.742188 5.152344 C 19.363281 5.410156 20.066406 5.300781 20.578125 4.871094 L 21.644531 5.941406 C 21.21875 6.449219 21.109375 7.15625 21.375 7.796875 C 21.632812 8.414062 22.207031 8.832031 22.867188 8.890625 L 22.867188 10.402344 C 22.207031 10.460938 21.632812 10.875 21.367188 11.511719 C 21.109375 12.136719 21.21875 12.84375 21.644531 13.351562 L 20.578125 14.417969 C 20.066406 13.992188 19.363281 13.882812 18.722656 14.148438 C 18.105469 14.40625 17.683594 14.980469 17.628906 15.640625 L 16.117188 15.640625 C 16.0625 14.980469 15.640625 14.402344 15.003906 14.140625 Z M 13.125 22.3125 L 13.125 20.988281 C 13.125 19.285156 12.023438 17.761719 10.425781 17.214844 L 10.320312 16.898438 C 10.683594 16.664062 10.941406 16.28125 11 15.824219 L 11.023438 15.640625 L 11.253906 15.640625 C 11.820312 15.640625 12.285156 15.21875 12.363281 14.671875 L 13.164062 15.472656 L 13.582031 15.054688 C 13.667969 14.96875 13.769531 14.902344 13.875 14.851562 L 13.875 21.257812 C 13.875 21.746094 13.5625 22.160156 13.125 22.3125 Z M 12.753906 25.378906 L 5.261719 25.378906 C 4.640625 25.378906 4.136719 24.875 4.136719 24.257812 L 4.136719 22.75 C 4.449219 22.984375 4.835938 23.132812 5.261719 23.132812 L 12.753906 23.132812 C 13.175781 23.132812 13.5625 22.984375 13.875 22.75 L 13.875 24.257812 C 13.875 24.875 13.371094 25.378906 12.753906 25.378906 Z M 4.136719 10.769531 C 4.136719 10.148438 4.640625 9.644531 5.261719 9.644531 L 10.128906 9.644531 L 10.128906 10.402344 C 10.085938 10.398438 10.046875 10.394531 10 10.394531 L 8.503906 10.394531 C 8.003906 10.394531 7.53125 10.589844 7.179688 10.945312 L 6.929688 11.191406 L 6.800781 11.234375 C 6.101562 11.46875 5.632812 12.117188 5.632812 12.855469 C 5.632812 12.992188 5.652344 13.132812 5.6875 13.269531 L 5.839844 13.875 C 5.710938 14.058594 5.632812 14.277344 5.632812 14.515625 C 5.632812 15.136719 6.136719 15.640625 6.757812 15.640625 L 6.988281 15.640625 L 7.011719 15.824219 C 7.070312 16.28125 7.328125 16.664062 7.691406 16.898438 L 7.589844 17.214844 C 5.988281 17.761719 4.886719 19.285156 4.886719 20.988281 L 4.886719 22.3125 C 4.449219 22.160156 4.136719 21.746094 4.136719 21.257812 Z M 11.582031 13.164062 L 11.515625 13.425781 C 11.445312 13.410156 11.375 13.402344 11.304688 13.398438 L 11.304688 13.390625 L 10.9375 13.390625 C 10.164062 13.1875 9.5625 12.582031 9.371094 11.804688 L 8.644531 11.984375 C 8.78125 12.527344 9.0625 13.007812 9.449219 13.382812 C 8.789062 13.332031 8.191406 12.988281 7.820312 12.433594 L 7.195312 12.851562 C 7.285156 12.988281 7.390625 13.109375 7.5 13.226562 C 7.378906 13.28125 7.257812 13.332031 7.132812 13.371094 L 7.070312 13.390625 L 6.757812 13.390625 C 6.667969 13.390625 6.582031 13.40625 6.5 13.425781 L 6.414062 13.085938 C 6.394531 13.007812 6.382812 12.929688 6.382812 12.855469 C 6.382812 12.441406 6.648438 12.078125 7.039062 11.945312 L 7.335938 11.847656 L 7.707031 11.472656 C 7.921875 11.261719 8.203125 11.144531 8.503906 11.144531 L 10 11.144531 C 10.898438 11.144531 11.628906 11.875 11.628906 12.773438 C 11.628906 12.902344 11.613281 13.035156 11.582031 13.164062 Z M 11.210938 14.140625 L 11.253906 14.140625 C 11.460938 14.140625 11.628906 14.308594 11.628906 14.515625 C 11.628906 14.722656 11.460938 14.890625 11.253906 14.890625 L 11.117188 14.890625 Z M 6.757812 14.140625 L 6.800781 14.140625 L 6.894531 14.890625 L 6.757812 14.890625 C 6.550781 14.890625 6.382812 14.722656 6.382812 14.515625 C 6.382812 14.308594 6.550781 14.140625 6.757812 14.140625 Z M 9.511719 16.390625 L 8.5 16.390625 C 8.121094 16.390625 7.804688 16.105469 7.757812 15.730469 L 7.542969 14.015625 C 7.75 13.9375 7.949219 13.84375 8.144531 13.738281 C 8.582031 13.996094 9.082031 14.140625 9.609375 14.140625 L 10.453125 14.140625 L 10.257812 15.730469 C 10.210938 16.105469 9.890625 16.390625 9.511719 16.390625 Z M 9.683594 17.359375 L 9.007812 17.8125 L 8.328125 17.359375 L 8.40625 17.128906 C 8.4375 17.132812 8.46875 17.136719 8.5 17.136719 L 9.511719 17.136719 C 9.542969 17.136719 9.574219 17.132812 9.609375 17.128906 Z M 10.34375 18.796875 L 9.65625 18.28125 L 10.1875 17.925781 C 10.339844 17.976562 10.488281 18.042969 10.632812 18.117188 Z M 8.925781 20.136719 L 9.089844 20.136719 L 9.648438 22.382812 L 8.363281 22.382812 Z M 6.75 18.550781 L 7.347656 19.972656 L 8.054688 19.445312 L 8.234375 19.804688 L 7.589844 22.382812 L 5.632812 22.382812 L 5.632812 20.988281 C 5.632812 20.035156 6.0625 19.152344 6.75 18.550781 Z M 9.148438 19.386719 L 8.863281 19.386719 L 8.664062 18.988281 L 9.007812 18.730469 L 9.347656 18.988281 Z M 7.828125 17.925781 L 8.359375 18.28125 L 7.667969 18.796875 L 7.378906 18.117188 C 7.523438 18.042969 7.671875 17.976562 7.828125 17.925781 Z M 12.378906 22.382812 L 10.421875 22.382812 L 9.777344 19.804688 L 9.957031 19.445312 L 10.664062 19.972656 L 11.261719 18.550781 C 11.953125 19.152344 12.378906 20.035156 12.378906 20.988281 Z M 5.261719 6.648438 L 11.667969 6.648438 C 11.789062 6.910156 11.800781 7.21875 11.679688 7.507812 C 11.519531 7.898438 11.144531 8.148438 10.722656 8.148438 L 10.128906 8.148438 L 10.128906 8.898438 L 5.261719 8.898438 C 4.835938 8.898438 4.449219 9.042969 4.136719 9.28125 L 4.136719 7.773438 C 4.136719 7.152344 4.640625 6.648438 5.261719 6.648438 Z M 25.992188 21.257812 L 26.613281 21.257812 L 26.613281 18.261719 L 25.992188 18.261719 C 25.777344 18.261719 25.582031 18.121094 25.484375 17.894531 C 25.398438 17.675781 25.4375 17.4375 25.589844 17.285156 L 26.027344 16.847656 L 23.90625 14.726562 L 23.46875 15.164062 C 23.316406 15.316406 23.078125 15.359375 22.847656 15.261719 C 22.632812 15.171875 22.492188 14.976562 22.492188 14.761719 L 22.492188 14.140625 L 21.914062 14.140625 L 22.703125 13.355469 L 22.28125 12.9375 C 21.984375 12.636719 21.898438 12.191406 22.066406 11.785156 C 22.226562 11.394531 22.601562 11.144531 23.023438 11.144531 L 23.617188 11.144531 L 23.617188 8.148438 L 23.023438 8.148438 C 22.601562 8.148438 22.226562 7.898438 22.058594 7.492188 C 21.898438 7.101562 21.984375 6.65625 22.28125 6.359375 L 22.703125 5.9375 L 20.582031 3.820312 L 20.164062 4.238281 C 19.863281 4.535156 19.421875 4.621094 19.011719 4.453125 C 18.621094 4.292969 18.371094 3.917969 18.371094 3.496094 L 18.371094 2.902344 L 15.375 2.902344 L 15.375 3.496094 C 15.375 3.917969 15.125 4.292969 14.71875 4.460938 C 14.328125 4.621094 13.882812 4.535156 13.582031 4.238281 L 13.164062 3.820312 L 11.082031 5.898438 L 5.261719 5.898438 C 4.226562 5.898438 3.386719 6.738281 3.386719 7.773438 L 3.386719 24.257812 C 3.386719 25.289062 4.226562 26.128906 5.261719 26.128906 L 12.753906 26.128906 C 13.785156 26.128906 14.625 25.289062 14.625 24.257812 L 14.625 14.804688 C 14.660156 14.816406 14.699219 14.824219 14.734375 14.839844 C 15.125 15 15.375 15.375 15.375 15.796875 L 15.375 16.390625 L 16.417969 16.390625 L 15.960938 16.847656 L 16.398438 17.285156 C 16.550781 17.4375 16.589844 17.675781 16.496094 17.90625 C 16.40625 18.121094 16.207031 18.261719 15.992188 18.261719 L 15.375 18.261719 L 15.375 21.257812 L 15.992188 21.257812 C 16.207031 21.257812 16.40625 21.398438 16.5 21.628906 C 16.589844 21.847656 16.550781 22.085938 16.398438 22.238281 L 15.960938 22.675781 L 18.082031 24.792969 L 18.519531 24.355469 C 18.671875 24.203125 18.910156 24.164062 19.136719 24.257812 C 19.355469 24.347656 19.496094 24.546875 19.496094 24.761719 L 19.496094 25.378906 L 22.492188 25.378906 L 22.492188 24.761719 C 22.492188 24.546875 22.632812 24.347656 22.859375 24.253906 C 23.078125 24.164062 23.316406 24.203125 23.46875 24.355469 L 23.90625 24.792969 L 26.027344 22.675781 L 25.589844 22.238281 C 25.4375 22.085938 25.398438 21.847656 25.492188 21.617188 C 25.582031 21.398438 25.777344 21.257812 25.992188 21.257812 " fill-opacity="1" fill-rule="nonzero"/></g></svg>