<svg xmlns="http://www.w3.org/2000/svg" xmlns:xlink="http://www.w3.org/1999/xlink" width="40" zoomAndPan="magnify" viewBox="0 0 30 30.000001" height="40" preserveAspectRatio="xMidYMid meet" version="1.0"><defs><clipPath id="0d2fa0938e"><path d="M 0.484375 0 L 29.515625 0 L 29.515625 29.03125 L 0.484375 29.03125 Z M 0.484375 0 " clip-rule="nonzero"/></clipPath><clipPath id="64bd118d5a"><path d="M 3.386719 2.902344 L 26.613281 2.902344 L 26.613281 26.128906 L 3.386719 26.128906 Z M 3.386719 2.902344 " clip-rule="nonzero"/></clipPath></defs><g clip-path="url(#0d2fa0938e)"><path fill="#ffffff" d="M 0.484375 0 L 29.515625 0 L 29.515625 29.03125 L 0.484375 29.03125 Z M 0.484375 0 " fill-opacity="1" fill-rule="nonzero"/><path fill="#ffffff" d="M 0.484375 0 L 29.515625 0 L 29.515625 29.03125 L 0.484375 29.03125 Z M 0.484375 0 " fill-opacity="1" fill-rule="nonzero"/></g><g clip-path="url(#64bd118d5a)"><path fill="#935f3d" d="M 8.476562 13.964844 C 8.488281 14.160156 8.339844 14.324219 8.148438 14.332031 C 7.953125 14.34375 7.789062 14.195312 7.78125 14 C 7.667969 11.8125 8.164062 9.605469 9.355469 7.835938 C 9.460938 7.675781 9.675781 7.632812 9.835938 7.738281 C 9.996094 7.847656 10.039062 8.0625 9.933594 8.222656 C 8.832031 9.863281 8.375 11.9375 8.476562 13.964844 Z M 16.421875 5.609375 C 16.234375 5.5625 16.121094 5.375 16.167969 5.1875 C 16.214844 5 16.40625 4.886719 16.59375 4.933594 C 17.949219 5.273438 19.199219 6.003906 20.246094 6.96875 C 20.386719 7.097656 20.394531 7.320312 20.265625 7.460938 C 20.136719 7.601562 19.914062 7.613281 19.773438 7.484375 C 18.808594 6.59375 17.671875 5.921875 16.421875 5.609375 Z M 23.113281 14.253906 C 23.089844 14.0625 23.230469 13.890625 23.417969 13.867188 C 23.609375 13.847656 23.785156 13.980469 23.808594 14.175781 C 23.992188 15.714844 23.878906 17.261719 23.445312 18.714844 C 23.390625 18.902344 23.195312 19.003906 23.011719 18.949219 C 22.824219 18.894531 22.71875 18.703125 22.773438 18.515625 C 23.183594 17.15625 23.285156 15.699219 23.113281 14.253906 Z M 17.769531 23.472656 C 17.960938 23.4375 18.140625 23.5625 18.175781 23.75 C 18.210938 23.941406 18.085938 24.121094 17.894531 24.15625 C 15.386719 24.621094 12.949219 23.558594 11.136719 21.757812 C 11 21.621094 11 21.402344 11.136719 21.265625 C 11.273438 21.128906 11.492188 21.128906 11.628906 21.265625 C 13.269531 22.894531 15.496094 23.894531 17.769531 23.472656 Z M 19.953125 22.636719 C 19.9375 22.445312 20.078125 22.277344 20.269531 22.257812 C 20.460938 22.242188 20.628906 22.382812 20.648438 22.574219 C 20.667969 22.808594 21.140625 22.957031 21.40625 22.734375 C 21.46875 22.6875 21.507812 22.621094 21.507812 22.554688 C 21.507812 22.359375 21.261719 22.308594 21.011719 22.261719 C 20.480469 22.15625 19.949219 22.054688 19.949219 21.28125 C 19.949219 20.820312 20.292969 20.464844 20.722656 20.339844 L 20.722656 20.21875 C 20.722656 20.023438 20.878906 19.867188 21.082031 19.867188 L 21.082031 19.871094 C 21.28125 19.871094 21.433594 20.03125 21.429688 20.226562 L 21.425781 20.339844 C 21.859375 20.464844 22.207031 20.820312 22.207031 21.28125 C 22.207031 21.472656 22.050781 21.628906 21.859375 21.628906 C 21.664062 21.628906 21.507812 21.472656 21.507812 21.28125 C 21.507812 21.03125 21.023438 20.875 20.746094 21.097656 C 20.6875 21.148438 20.648438 21.214844 20.648438 21.28125 C 20.648438 21.480469 20.898438 21.527344 21.144531 21.574219 C 21.675781 21.679688 22.207031 21.78125 22.207031 22.554688 C 22.207031 23.019531 21.859375 23.375 21.425781 23.496094 L 21.421875 23.617188 C 21.421875 23.8125 21.265625 23.96875 21.074219 23.96875 C 20.882812 23.96875 20.722656 23.8125 20.722656 23.617188 L 20.722656 23.492188 C 20.324219 23.378906 19.992188 23.0625 19.953125 22.636719 Z M 21.078125 18.582031 C 22.921875 18.582031 24.414062 20.074219 24.414062 21.917969 C 24.414062 23.761719 22.921875 25.257812 21.078125 25.257812 C 19.234375 25.257812 17.738281 23.761719 17.738281 21.917969 C 17.738281 20.074219 19.234375 18.582031 21.078125 18.582031 Z M 22.945312 20.054688 C 21.914062 19.023438 20.242188 19.023438 19.210938 20.054688 C 18.183594 21.082031 18.183594 22.753906 19.210938 23.785156 C 20.242188 24.816406 21.914062 24.816406 22.945312 23.785156 C 23.972656 22.753906 23.972656 21.082031 22.945312 20.054688 Z M 13.992188 6.179688 C 14.730469 6.179688 15.101562 7.074219 14.582031 7.59375 C 14.058594 8.113281 13.164062 7.742188 13.164062 7.007812 C 13.164062 6.550781 13.535156 6.179688 13.992188 6.179688 Z M 14.085938 6.917969 C 13.964844 6.796875 13.78125 6.980469 13.902344 7.097656 C 14.023438 7.21875 14.207031 7.035156 14.085938 6.917969 Z M 13.660156 4.886719 C 13.796875 4.75 14.019531 4.75 14.15625 4.886719 C 14.292969 5.023438 14.292969 5.242188 14.15625 5.378906 L 12.109375 7.429688 C 11.972656 7.5625 11.75 7.5625 11.613281 7.429688 C 11.476562 7.289062 11.476562 7.070312 11.613281 6.933594 Z M 11.738281 4.457031 C 12.472656 4.457031 12.84375 5.351562 12.324219 5.871094 C 11.804688 6.390625 10.910156 6.019531 10.910156 5.285156 C 10.910156 4.828125 11.28125 4.457031 11.738281 4.457031 Z M 11.828125 5.191406 C 11.707031 5.074219 11.527344 5.253906 11.644531 5.375 C 11.765625 5.496094 11.949219 5.3125 11.828125 5.191406 Z M 12.867188 2.902344 C 14.65625 2.902344 16.109375 4.355469 16.109375 6.144531 C 16.109375 7.9375 14.65625 9.390625 12.867188 9.390625 C 11.074219 9.390625 9.625 7.9375 9.625 6.144531 C 9.625 4.355469 11.074219 2.902344 12.867188 2.902344 Z M 14.664062 4.347656 C 13.671875 3.355469 12.0625 3.355469 11.070312 4.347656 C 10.074219 5.339844 10.074219 6.953125 11.070312 7.945312 C 12.0625 8.9375 13.671875 8.9375 14.664062 7.945312 C 15.65625 6.953125 15.65625 5.339844 14.664062 4.347656 Z M 21.179688 11.378906 L 21.527344 11.378906 L 21.527344 12.078125 L 20.113281 12.078125 L 20.113281 11.378906 Z M 24.941406 11.378906 L 25.289062 11.378906 L 25.289062 12.078125 L 21.980469 12.078125 L 21.980469 11.378906 Z M 21.179688 9.09375 L 21.527344 9.09375 L 21.527344 9.792969 L 20.113281 9.792969 L 20.113281 9.09375 Z M 24.941406 9.09375 L 25.289062 9.09375 L 25.289062 9.792969 L 21.980469 9.792969 L 21.980469 9.09375 Z M 24.226562 10.9375 L 23.878906 10.9375 L 23.878906 10.234375 L 25.292969 10.234375 L 25.292969 10.9375 Z M 20.464844 10.9375 L 20.113281 10.9375 L 20.113281 10.234375 L 23.425781 10.234375 L 23.425781 10.9375 Z M 25.679688 8.402344 L 19.722656 8.402344 C 19.597656 8.402344 19.492188 8.507812 19.492188 8.632812 L 19.492188 12.765625 C 19.492188 12.894531 19.597656 12.996094 19.722656 12.996094 L 21.246094 12.996094 C 21.390625 12.996094 21.515625 13.085938 21.570312 13.210938 C 21.753906 13.585938 21.722656 13.953125 21.636719 14.320312 C 21.984375 14.066406 22.355469 13.6875 22.414062 13.296875 C 22.441406 13.121094 22.589844 12.996094 22.761719 12.996094 L 25.679688 12.996094 C 25.808594 12.996094 25.910156 12.894531 25.910156 12.765625 L 25.910156 8.632812 C 25.910156 8.507812 25.808594 8.402344 25.679688 8.402344 Z M 19.722656 7.703125 L 25.679688 7.703125 C 26.195312 7.703125 26.613281 8.121094 26.613281 8.632812 L 26.613281 12.765625 C 26.613281 13.277344 26.195312 13.695312 25.679688 13.695312 L 23.027344 13.695312 C 22.921875 13.984375 22.730469 14.261719 22.488281 14.507812 C 22.15625 14.84375 21.71875 15.132812 21.273438 15.332031 C 20.984375 15.472656 20.714844 15.226562 20.761719 14.964844 C 20.832031 14.558594 21.042969 14.035156 20.996094 13.695312 L 19.722656 13.695312 C 19.210938 13.695312 18.792969 13.277344 18.792969 12.765625 L 18.792969 8.632812 C 18.792969 8.121094 19.210938 7.703125 19.722656 7.703125 Z M 10.632812 14.621094 C 10.628906 14.601562 10.625 14.582031 10.625 14.5625 C 10.53125 14.089844 10.476562 13.632812 10.460938 13.203125 C 9.835938 14.121094 9.089844 14.871094 8.347656 15.519531 L 10.5625 20.167969 C 11.375 19.953125 12.257812 19.785156 13.214844 19.757812 C 11.90625 18.515625 10.984375 16.390625 10.632812 14.621094 Z M 11.246094 14.078125 C 11.882812 13.972656 12.488281 14.25 12.894531 14.761719 C 13.652344 15.699219 13.613281 17.230469 12.765625 18.105469 C 13.019531 18.496094 13.292969 18.839844 13.566406 19.125 C 13.972656 19.542969 14.691406 20.125 15.289062 19.910156 C 15.757812 19.738281 16.042969 19.101562 16.113281 18.207031 C 16.285156 16.078125 15.210938 13.078125 13.722656 11.542969 C 12.785156 10.578125 11.765625 10.289062 11.339844 11.582031 C 11.097656 12.316406 11.121094 13.246094 11.246094 14.078125 Z M 12.390625 17.46875 C 12.867188 16.828125 12.84375 15.808594 12.351562 15.199219 C 12.101562 14.890625 11.753906 14.714844 11.378906 14.765625 C 11.589844 15.691406 11.945312 16.644531 12.390625 17.46875 Z M 11.769531 10.097656 C 12.523438 9.832031 13.40625 10.21875 14.222656 11.054688 C 15.84375 12.730469 17 15.941406 16.8125 18.261719 C 16.714844 19.433594 16.277344 20.292969 15.523438 20.566406 C 15.128906 20.707031 14.703125 20.671875 14.269531 20.484375 C 12.878906 20.359375 11.609375 20.601562 10.484375 20.910156 L 10.175781 20.996094 C 10.089844 21.679688 9.925781 23.347656 10.382812 23.765625 C 10.585938 23.953125 10.785156 23.890625 11.054688 24.082031 C 11.199219 24.183594 11.304688 24.328125 11.363281 24.546875 L 11.515625 25.121094 C 11.558594 25.308594 11.441406 25.496094 11.253906 25.542969 L 8.925781 26.085938 C 8.722656 26.132812 8.519531 25.988281 8.5 25.78125 C 8.410156 24.980469 8.164062 24.226562 7.78125 23.558594 C 7.414062 22.910156 6.917969 22.335938 6.324219 21.871094 C 6.117188 21.839844 5.925781 21.78125 5.746094 21.6875 C 5.648438 21.753906 5.589844 21.800781 5.476562 21.855469 C 4.917969 22.132812 4.167969 22.050781 3.871094 21.453125 C 3.644531 20.992188 3.394531 20.585938 3.457031 20.058594 C 3.492188 19.757812 3.628906 19.484375 3.894531 19.277344 L 4.347656 18.925781 C 4.390625 17.84375 5.417969 17.015625 6.691406 15.988281 C 7.007812 15.734375 7.339844 15.464844 7.675781 15.179688 C 7.683594 15.167969 7.695312 15.160156 7.707031 15.152344 C 8.824219 14.1875 9.976562 13.007812 10.671875 11.382812 C 10.882812 10.742188 11.25 10.285156 11.761719 10.101562 Z M 9.878906 20.359375 L 7.796875 15.988281 C 7.570312 16.175781 7.347656 16.359375 7.128906 16.53125 C 5.882812 17.539062 4.90625 18.324219 5.066406 19.210938 L 5.820312 20.886719 C 6.433594 21.460938 7.507812 21.113281 8.90625 20.664062 Z M 9.445312 21.222656 C 8.726562 21.453125 7.960938 21.714844 7.328125 21.828125 C 8.277344 22.773438 8.910156 23.984375 9.136719 25.316406 L 10.746094 24.941406 C 10.664062 24.640625 10.707031 24.648438 10.464844 24.585938 C 10.035156 24.46875 9.710938 24.167969 9.5625 23.75 C 9.316406 23.058594 9.355469 22.058594 9.445312 21.222656 Z M 5.199219 21.214844 L 4.511719 19.679688 C 4.332031 19.824219 4.183594 19.902344 4.152344 20.140625 C 4.132812 20.308594 4.179688 20.5 4.269531 20.683594 L 4.519531 21.179688 C 4.652344 21.367188 4.996094 21.324219 5.199219 21.214844 Z M 5.199219 21.214844 " fill-opacity="1" fill-rule="nonzero"/></g></svg>