<svg xmlns="http://www.w3.org/2000/svg" xmlns:xlink="http://www.w3.org/1999/xlink" width="40" zoomAndPan="magnify" viewBox="0 0 30 30.000001" height="40" preserveAspectRatio="xMidYMid meet" version="1.0"><defs><clipPath id="1e9c40588a"><path d="M 0.484375 0 L 29.515625 0 L 29.515625 29.03125 L 0.484375 29.03125 Z M 0.484375 0 " clip-rule="nonzero"/></clipPath><clipPath id="2cee388535"><path d="M 3.238281 2.902344 L 26.464844 2.902344 L 26.464844 26 L 3.238281 26 Z M 3.238281 2.902344 " clip-rule="nonzero"/></clipPath></defs><g clip-path="url(#1e9c40588a)"><path fill="#ffffff" d="M 0.484375 0 L 29.515625 0 L 29.515625 29.03125 L 0.484375 29.03125 Z M 0.484375 0 " fill-opacity="1" fill-rule="nonzero"/><path fill="#ffffff" d="M 0.484375 0 L 29.515625 0 L 29.515625 29.03125 L 0.484375 29.03125 Z M 0.484375 0 " fill-opacity="1" fill-rule="nonzero"/></g><g clip-path="url(#2cee388535)"><path fill="#935f3d" d="M 26.417969 13 L 24.457031 11.867188 C 24.34375 11.804688 24.203125 11.804688 24.089844 11.867188 L 22.128906 13 C 22.015625 13.066406 21.945312 13.1875 21.945312 13.320312 L 21.945312 14.085938 L 18.855469 14.085938 L 18.855469 13.570312 L 21.296875 12.742188 C 21.445312 12.691406 21.546875 12.550781 21.546875 12.394531 L 21.546875 10.632812 L 23.324219 9.605469 C 23.4375 9.539062 23.507812 9.417969 23.507812 9.289062 L 23.507812 7.023438 C 23.507812 6.894531 23.4375 6.773438 23.324219 6.707031 L 21.363281 5.574219 C 21.25 5.507812 21.109375 5.507812 20.996094 5.574219 L 19.035156 6.707031 C 18.921875 6.773438 18.851562 6.894531 18.851562 7.023438 L 18.851562 9.289062 C 18.851562 9.417969 18.921875 9.539062 19.035156 9.605469 L 20.8125 10.632812 L 20.8125 12.132812 L 18.855469 12.796875 L 18.855469 12.390625 C 18.855469 12.261719 18.785156 12.140625 18.671875 12.074219 L 15.289062 10.117188 L 15.289062 8.035156 L 17.066406 7.007812 C 17.179688 6.941406 17.25 6.820312 17.25 6.6875 L 17.25 4.425781 C 17.25 4.292969 17.179688 4.171875 17.066406 4.105469 L 15.105469 2.972656 C 14.992188 2.910156 14.851562 2.910156 14.738281 2.972656 L 12.777344 4.105469 C 12.664062 4.171875 12.59375 4.292969 12.59375 4.425781 L 12.59375 6.6875 C 12.59375 6.820312 12.664062 6.941406 12.777344 7.007812 L 14.554688 8.035156 L 14.554688 10.117188 L 11.167969 12.074219 C 11.054688 12.140625 10.984375 12.261719 10.984375 12.390625 L 10.984375 12.796875 L 9.027344 12.132812 L 9.027344 10.632812 L 10.804688 9.605469 C 10.921875 9.539062 10.988281 9.417969 10.988281 9.289062 L 10.988281 7.023438 C 10.988281 6.894531 10.921875 6.773438 10.804688 6.707031 L 8.84375 5.574219 C 8.730469 5.507812 8.59375 5.507812 8.480469 5.574219 L 6.515625 6.707031 C 6.402344 6.773438 6.332031 6.894531 6.332031 7.023438 L 6.332031 9.289062 C 6.332031 9.417969 6.402344 9.539062 6.515625 9.605469 L 8.296875 10.632812 L 8.296875 12.394531 C 8.296875 12.550781 8.394531 12.691406 8.542969 12.742188 L 10.984375 13.570312 L 10.984375 14.085938 L 7.894531 14.085938 L 7.894531 13.320312 C 7.894531 13.1875 7.828125 13.066406 7.714844 13 L 5.75 11.867188 C 5.636719 11.804688 5.5 11.804688 5.386719 11.867188 L 3.421875 13 C 3.308594 13.066406 3.238281 13.1875 3.238281 13.320312 L 3.238281 15.585938 C 3.238281 15.714844 3.308594 15.835938 3.421875 15.902344 L 5.386719 17.035156 C 5.441406 17.066406 5.503906 17.082031 5.566406 17.082031 C 5.632812 17.082031 5.695312 17.066406 5.75 17.035156 L 7.714844 15.902344 C 7.828125 15.835938 7.894531 15.714844 7.894531 15.585938 L 7.894531 14.816406 L 10.984375 14.816406 L 10.984375 15.332031 L 8.542969 16.160156 C 8.394531 16.210938 8.296875 16.351562 8.296875 16.507812 L 8.296875 18.269531 L 6.515625 19.296875 C 6.402344 19.363281 6.332031 19.484375 6.332031 19.613281 L 6.332031 21.878906 C 6.332031 22.011719 6.402344 22.132812 6.515625 22.195312 L 8.476562 23.328125 C 8.535156 23.363281 8.597656 23.378906 8.660156 23.378906 C 8.726562 23.378906 8.789062 23.363281 8.84375 23.328125 L 10.804688 22.195312 C 10.921875 22.132812 10.988281 22.011719 10.988281 21.878906 L 10.988281 19.613281 C 10.988281 19.484375 10.921875 19.363281 10.804688 19.296875 L 9.027344 18.269531 L 9.027344 16.769531 L 10.984375 16.109375 L 10.984375 16.511719 C 10.984375 16.644531 11.054688 16.765625 11.167969 16.828125 L 14.554688 18.785156 L 14.554688 20.871094 L 12.777344 21.894531 C 12.664062 21.960938 12.59375 22.082031 12.59375 22.214844 L 12.59375 24.480469 C 12.59375 24.609375 12.664062 24.730469 12.777344 24.796875 L 14.738281 25.929688 C 14.792969 25.960938 14.859375 25.976562 14.921875 25.976562 C 14.984375 25.976562 15.046875 25.960938 15.105469 25.929688 L 17.066406 24.796875 C 17.179688 24.730469 17.25 24.609375 17.25 24.480469 L 17.25 22.214844 C 17.25 22.082031 17.179688 21.960938 17.066406 21.894531 L 15.289062 20.871094 L 15.289062 18.785156 L 18.671875 16.828125 C 18.785156 16.765625 18.855469 16.644531 18.855469 16.511719 L 18.855469 16.109375 L 20.8125 16.769531 L 20.8125 18.269531 L 19.035156 19.296875 C 18.921875 19.363281 18.851562 19.484375 18.851562 19.613281 L 18.851562 21.878906 C 18.851562 22.011719 18.921875 22.132812 19.035156 22.195312 L 20.996094 23.328125 C 21.054688 23.363281 21.117188 23.378906 21.179688 23.378906 C 21.242188 23.378906 21.308594 23.363281 21.363281 23.328125 L 23.324219 22.195312 C 23.4375 22.132812 23.507812 22.011719 23.507812 21.878906 L 23.507812 19.613281 C 23.507812 19.484375 23.4375 19.363281 23.324219 19.296875 L 21.546875 18.269531 L 21.546875 16.507812 C 21.546875 16.351562 21.445312 16.210938 21.296875 16.160156 L 18.855469 15.332031 L 18.855469 14.816406 L 21.945312 14.816406 L 21.945312 15.585938 C 21.945312 15.714844 22.015625 15.835938 22.128906 15.902344 L 24.089844 17.035156 C 24.148438 17.066406 24.210938 17.082031 24.273438 17.082031 C 24.335938 17.082031 24.398438 17.066406 24.457031 17.035156 L 26.417969 15.902344 C 26.53125 15.835938 26.601562 15.714844 26.601562 15.585938 L 26.601562 13.320312 C 26.601562 13.1875 26.53125 13.066406 26.417969 13 Z M 21.546875 9.785156 L 21.546875 8.367188 L 22.777344 7.660156 L 22.777344 9.078125 Z M 21.179688 6.3125 L 22.410156 7.023438 L 21.179688 7.734375 L 19.953125 7.023438 Z M 19.585938 7.660156 L 20.8125 8.367188 L 20.8125 9.785156 L 19.585938 9.078125 Z M 9.027344 9.785156 L 9.027344 8.367188 L 10.257812 7.660156 L 10.257812 9.078125 Z M 8.660156 6.3125 L 9.890625 7.023438 L 8.660156 7.734375 L 7.433594 7.023438 Z M 7.066406 7.660156 L 8.296875 8.367188 L 8.296875 9.785156 L 7.066406 9.078125 Z M 5.566406 12.609375 L 6.796875 13.320312 L 5.566406 14.027344 L 4.339844 13.320312 Z M 3.972656 13.953125 L 5.203125 14.664062 L 5.203125 16.082031 L 3.972656 15.371094 Z M 7.164062 15.371094 L 5.933594 16.082031 L 5.933594 14.664062 L 7.164062 13.953125 Z M 9.890625 19.613281 L 8.660156 20.324219 L 7.433594 19.613281 L 8.613281 18.933594 C 8.628906 18.9375 8.644531 18.9375 8.660156 18.9375 C 8.679688 18.9375 8.695312 18.9375 8.710938 18.933594 Z M 7.066406 20.25 L 8.296875 20.957031 L 8.296875 22.378906 L 7.066406 21.667969 Z M 9.027344 22.378906 L 9.027344 20.957031 L 10.257812 20.25 L 10.257812 21.667969 Z M 21.179688 18.9375 C 21.199219 18.9375 21.214844 18.9375 21.230469 18.933594 L 22.410156 19.613281 L 21.179688 20.324219 L 19.953125 19.613281 L 21.128906 18.933594 C 21.148438 18.9375 21.164062 18.9375 21.179688 18.9375 Z M 19.585938 20.25 L 20.8125 20.957031 L 20.8125 22.378906 L 19.585938 21.667969 Z M 21.546875 22.378906 L 21.546875 20.957031 L 22.777344 20.25 L 22.777344 21.667969 Z M 14.921875 22.921875 L 13.691406 22.214844 L 14.921875 21.503906 L 16.148438 22.214844 Z M 14.921875 14.027344 L 12.085938 12.390625 L 14.921875 10.753906 L 17.757812 12.390625 Z M 15.289062 7.1875 L 15.289062 5.769531 L 16.515625 5.058594 L 16.515625 6.476562 Z M 14.921875 3.714844 L 16.148438 4.425781 L 14.921875 5.132812 L 13.691406 4.425781 Z M 13.324219 6.476562 L 13.324219 5.058594 L 14.554688 5.769531 L 14.554688 7.1875 Z M 11.71875 16.300781 L 11.71875 13.027344 L 14.554688 14.664062 L 14.554688 17.9375 Z M 13.324219 22.847656 L 14.554688 23.558594 L 14.554688 24.976562 L 13.324219 24.265625 Z M 15.289062 24.976562 L 15.289062 23.558594 L 16.515625 22.847656 L 16.515625 24.265625 Z M 18.125 16.300781 L 15.289062 17.9375 L 15.289062 14.664062 L 18.125 13.027344 Z M 24.273438 12.609375 L 25.503906 13.320312 L 24.273438 14.027344 L 23.046875 13.320312 Z M 22.679688 13.953125 L 23.90625 14.664062 L 23.90625 16.082031 L 22.679688 15.371094 Z M 24.640625 16.082031 L 24.640625 14.664062 L 25.867188 13.953125 L 25.867188 15.371094 Z M 24.640625 16.082031 " fill-opacity="1" fill-rule="nonzero"/></g></svg>