<svg xmlns="http://www.w3.org/2000/svg" xmlns:xlink="http://www.w3.org/1999/xlink" width="40" zoomAndPan="magnify" viewBox="0 0 30 30.000001" height="40" preserveAspectRatio="xMidYMid meet" version="1.0"><defs><clipPath id="7c5b81f47c"><path d="M 0.484375 0 L 29.515625 0 L 29.515625 29.03125 L 0.484375 29.03125 Z M 0.484375 0 " clip-rule="nonzero"/></clipPath><clipPath id="440f308cca"><path d="M 7 2.902344 L 22 2.902344 L 22 9 L 7 9 Z M 7 2.902344 " clip-rule="nonzero"/></clipPath><clipPath id="40e2180bac"><path d="M 7 14 L 22 14 L 22 26.128906 L 7 26.128906 Z M 7 14 " clip-rule="nonzero"/></clipPath><clipPath id="431b222db6"><path d="M 5.359375 8 L 14 8 L 14 15 L 5.359375 15 Z M 5.359375 8 " clip-rule="nonzero"/></clipPath><clipPath id="7566a80e01"><path d="M 16 15 L 24.957031 15 L 24.957031 22 L 16 22 Z M 16 15 " clip-rule="nonzero"/></clipPath></defs><g clip-path="url(#7c5b81f47c)"><path fill="#ffffff" d="M 0.484375 0 L 29.515625 0 L 29.515625 29.03125 L 0.484375 29.03125 Z M 0.484375 0 " fill-opacity="1" fill-rule="nonzero"/><path fill="#ffffff" d="M 0.484375 0 L 29.515625 0 L 29.515625 29.03125 L 0.484375 29.03125 Z M 0.484375 0 " fill-opacity="1" fill-rule="nonzero"/></g><path fill="#935f3d" d="M 20.285156 5.71875 C 20.285156 5.578125 20.171875 5.460938 20.03125 5.460938 C 19.886719 5.460938 19.773438 5.578125 19.773438 5.71875 C 19.773438 5.859375 19.886719 5.972656 20.03125 5.972656 C 20.171875 5.972656 20.285156 5.859375 20.285156 5.71875 " fill-opacity="1" fill-rule="nonzero"/><path fill="#935f3d" d="M 22.546875 18.175781 C 22.6875 18.175781 22.800781 18.0625 22.800781 17.917969 C 22.800781 17.777344 22.6875 17.664062 22.546875 17.664062 C 22.402344 17.664062 22.289062 17.777344 22.289062 17.917969 C 22.289062 18.0625 22.402344 18.175781 22.546875 18.175781 " fill-opacity="1" fill-rule="nonzero"/><path fill="#935f3d" d="M 11.128906 11.488281 C 11.273438 11.488281 11.386719 11.375 11.386719 11.230469 C 11.386719 11.089844 11.273438 10.976562 11.128906 10.976562 C 10.988281 10.976562 10.875 11.089844 10.875 11.230469 C 10.875 11.375 10.988281 11.488281 11.128906 11.488281 " fill-opacity="1" fill-rule="nonzero"/><g clip-path="url(#440f308cca)"><path fill="#935f3d" d="M 8.152344 8.125 C 8.300781 8.125 8.421875 8.003906 8.421875 7.855469 L 8.421875 6.054688 C 8.421875 6.023438 8.425781 5.992188 8.425781 5.964844 L 18.597656 5.964844 C 18.746094 5.964844 18.867188 5.84375 18.867188 5.695312 C 18.867188 5.542969 18.746094 5.425781 18.597656 5.425781 L 8.5 5.425781 C 8.785156 4.289062 9.8125 3.445312 11.035156 3.445312 L 18.234375 3.445312 C 19.675781 3.445312 20.847656 4.613281 20.847656 6.054688 L 20.847656 7.132812 C 20.847656 7.285156 20.96875 7.40625 21.117188 7.40625 C 21.265625 7.40625 21.386719 7.285156 21.386719 7.132812 L 21.386719 6.054688 C 21.386719 4.316406 19.972656 2.902344 18.234375 2.902344 L 11.035156 2.902344 C 9.46875 2.902344 8.164062 4.054688 7.921875 5.554688 C 7.898438 5.59375 7.882812 5.640625 7.882812 5.695312 C 7.882812 5.722656 7.886719 5.75 7.894531 5.773438 C 7.886719 5.867188 7.882812 5.960938 7.882812 6.054688 L 7.882812 7.855469 C 7.882812 8.003906 8.003906 8.125 8.152344 8.125 " fill-opacity="1" fill-rule="nonzero"/></g><g clip-path="url(#40e2180bac)"><path fill="#935f3d" d="M 18.234375 25.589844 L 11.035156 25.589844 C 10.339844 25.589844 9.683594 25.316406 9.191406 24.820312 C 8.695312 24.328125 8.421875 23.671875 8.421875 22.976562 L 8.421875 22.886719 L 20.847656 22.886719 L 20.847656 22.976562 C 20.847656 24.417969 19.675781 25.589844 18.234375 25.589844 Z M 21.117188 21.269531 C 20.96875 21.269531 20.847656 21.390625 20.847656 21.539062 L 20.847656 22.347656 L 8.421875 22.347656 L 8.421875 14.695312 C 8.421875 14.546875 8.300781 14.425781 8.152344 14.425781 C 8.003906 14.425781 7.882812 14.546875 7.882812 14.695312 L 7.882812 22.976562 C 7.882812 23.816406 8.210938 24.605469 8.808594 25.203125 C 9.40625 25.800781 10.195312 26.128906 11.035156 26.128906 L 18.234375 26.128906 C 19.972656 26.128906 21.386719 24.714844 21.386719 22.976562 L 21.386719 21.539062 C 21.386719 21.390625 21.265625 21.269531 21.117188 21.269531 " fill-opacity="1" fill-rule="nonzero"/></g><g clip-path="url(#431b222db6)"><path fill="#935f3d" d="M 5.902344 9.203125 L 12.566406 9.203125 L 12.566406 12.984375 L 11.394531 12.984375 C 11.277344 12.984375 11.175781 13.058594 11.136719 13.171875 L 10.917969 13.835938 L 10.144531 13.066406 C 10.09375 13.015625 10.027344 12.984375 9.953125 12.984375 L 5.902344 12.984375 Z M 10.84375 14.527344 C 10.894531 14.578125 10.964844 14.605469 11.035156 14.605469 C 11.054688 14.605469 11.074219 14.605469 11.097656 14.597656 C 11.1875 14.578125 11.261719 14.511719 11.289062 14.421875 L 11.589844 13.527344 L 12.835938 13.527344 C 12.984375 13.527344 13.105469 13.40625 13.105469 13.253906 L 13.105469 8.933594 C 13.105469 8.785156 12.984375 8.664062 12.835938 8.664062 L 5.632812 8.664062 C 5.484375 8.664062 5.363281 8.785156 5.363281 8.933594 L 5.363281 13.253906 C 5.363281 13.40625 5.484375 13.527344 5.632812 13.527344 L 9.84375 13.527344 L 10.84375 14.527344 " fill-opacity="1" fill-rule="nonzero"/></g><g clip-path="url(#7566a80e01)"><path fill="#935f3d" d="M 24.085938 19.828125 L 20.035156 19.828125 C 19.964844 19.828125 19.894531 19.855469 19.84375 19.90625 L 19.074219 20.679688 L 18.851562 20.011719 C 18.816406 19.902344 18.710938 19.828125 18.597656 19.828125 L 17.425781 19.828125 L 17.425781 16.046875 L 24.085938 16.046875 Z M 24.359375 15.507812 L 17.15625 15.507812 C 17.007812 15.507812 16.886719 15.628906 16.886719 15.777344 L 16.886719 20.097656 C 16.886719 20.246094 17.007812 20.367188 17.15625 20.367188 L 18.402344 20.367188 L 18.699219 21.261719 C 18.730469 21.351562 18.804688 21.417969 18.894531 21.441406 C 18.914062 21.445312 18.9375 21.449219 18.957031 21.449219 C 19.027344 21.449219 19.097656 21.421875 19.148438 21.367188 L 20.148438 20.367188 L 24.359375 20.367188 C 24.507812 20.367188 24.628906 20.246094 24.628906 20.097656 L 24.628906 15.777344 C 24.628906 15.628906 24.507812 15.507812 24.359375 15.507812 " fill-opacity="1" fill-rule="nonzero"/></g><path fill="#935f3d" d="M 21.5 11.265625 C 21.746094 11.59375 21.886719 12.050781 21.917969 12.625 L 18.15625 12.625 C 18.195312 12.082031 18.359375 11.617188 18.636719 11.273438 C 18.972656 10.855469 19.441406 10.644531 20.035156 10.644531 C 20.707031 10.644531 21.1875 10.847656 21.5 11.265625 Z M 19.226562 9.292969 C 19.226562 8.847656 19.589844 8.484375 20.035156 8.484375 C 20.484375 8.484375 20.847656 8.847656 20.847656 9.292969 C 20.847656 9.742188 20.484375 10.105469 20.035156 10.105469 C 19.589844 10.105469 19.226562 9.742188 19.226562 9.292969 Z M 21.386719 9.292969 C 21.386719 8.550781 20.78125 7.945312 20.035156 7.945312 C 19.292969 7.945312 18.6875 8.550781 18.6875 9.292969 C 18.6875 9.679688 18.847656 10.027344 19.109375 10.273438 C 18.757812 10.414062 18.457031 10.632812 18.214844 10.9375 C 17.816406 11.433594 17.605469 12.109375 17.605469 12.894531 C 17.605469 13.042969 17.726562 13.164062 17.875 13.164062 L 22.195312 13.164062 C 22.347656 13.164062 22.46875 13.042969 22.46875 12.894531 C 22.46875 11.5 21.949219 10.59375 20.984375 10.253906 C 21.234375 10.007812 21.386719 9.667969 21.386719 9.292969 " fill-opacity="1" fill-rule="nonzero"/><path fill="#935f3d" d="M 11.394531 18.207031 C 12.066406 18.207031 12.542969 18.410156 12.859375 18.828125 C 13.105469 19.15625 13.246094 19.613281 13.277344 20.1875 L 9.515625 20.1875 C 9.554688 19.644531 9.71875 19.179688 9.996094 18.835938 C 10.328125 18.417969 10.800781 18.207031 11.394531 18.207031 Z M 10.585938 16.855469 C 10.585938 16.410156 10.949219 16.046875 11.394531 16.046875 C 11.839844 16.046875 12.203125 16.410156 12.203125 16.855469 C 12.203125 17.304688 11.839844 17.667969 11.394531 17.667969 C 10.949219 17.667969 10.585938 17.304688 10.585938 16.855469 Z M 9.574219 18.5 C 9.175781 18.996094 8.964844 19.671875 8.964844 20.457031 C 8.964844 20.605469 9.085938 20.726562 9.234375 20.726562 L 13.554688 20.726562 C 13.703125 20.726562 13.824219 20.605469 13.824219 20.457031 C 13.824219 19.0625 13.304688 18.15625 12.34375 17.816406 C 12.589844 17.570312 12.746094 17.230469 12.746094 16.855469 C 12.746094 16.113281 12.140625 15.507812 11.394531 15.507812 C 10.648438 15.507812 10.042969 16.113281 10.042969 16.855469 C 10.042969 17.242188 10.207031 17.589844 10.464844 17.835938 C 10.117188 17.972656 9.816406 18.195312 9.574219 18.5 " fill-opacity="1" fill-rule="nonzero"/><path fill="#935f3d" d="M 18.597656 18.207031 L 21.117188 18.207031 C 21.265625 18.207031 21.386719 18.085938 21.386719 17.9375 C 21.386719 17.789062 21.265625 17.667969 21.117188 17.667969 L 18.597656 17.667969 C 18.445312 17.667969 18.324219 17.789062 18.324219 17.9375 C 18.324219 18.085938 18.445312 18.207031 18.597656 18.207031 " fill-opacity="1" fill-rule="nonzero"/><path fill="#935f3d" d="M 9.59375 10.960938 L 7.074219 10.960938 C 6.925781 10.960938 6.804688 11.082031 6.804688 11.230469 C 6.804688 11.382812 6.925781 11.5 7.074219 11.5 L 9.59375 11.5 C 9.742188 11.5 9.863281 11.382812 9.863281 11.230469 C 9.863281 11.082031 9.742188 10.960938 9.59375 10.960938 " fill-opacity="1" fill-rule="nonzero"/><path fill="#935f3d" d="M 20.847656 13.976562 L 20.847656 14.695312 C 20.847656 14.84375 20.96875 14.964844 21.117188 14.964844 C 21.265625 14.964844 21.386719 14.84375 21.386719 14.695312 L 21.386719 13.976562 C 21.386719 13.828125 21.265625 13.707031 21.117188 13.707031 C 20.96875 13.707031 20.847656 13.828125 20.847656 13.976562 " fill-opacity="1" fill-rule="nonzero"/><path fill="#935f3d" d="M 15.78125 11.191406 L 14.339844 10.832031 C 14.195312 10.796875 14.050781 10.886719 14.011719 11.03125 C 13.976562 11.175781 14.066406 11.320312 14.210938 11.355469 L 15.648438 11.71875 C 15.671875 11.722656 15.695312 11.726562 15.714844 11.726562 C 15.835938 11.726562 15.945312 11.644531 15.976562 11.519531 C 16.011719 11.375 15.925781 11.230469 15.78125 11.191406 " fill-opacity="1" fill-rule="nonzero"/><path fill="#935f3d" d="M 15.648438 17.316406 L 14.210938 17.675781 C 14.066406 17.710938 13.976562 17.859375 14.011719 18.003906 C 14.042969 18.125 14.152344 18.207031 14.273438 18.207031 C 14.296875 18.207031 14.320312 18.203125 14.339844 18.199219 L 15.78125 17.839844 C 15.925781 17.800781 16.011719 17.65625 15.976562 17.511719 C 15.941406 17.367188 15.792969 17.277344 15.648438 17.316406 " fill-opacity="1" fill-rule="nonzero"/></svg>