<svg xmlns="http://www.w3.org/2000/svg" xmlns:xlink="http://www.w3.org/1999/xlink" width="40" zoomAndPan="magnify" viewBox="0 0 30 30.000001" height="40" preserveAspectRatio="xMidYMid meet" version="1.0"><defs><clipPath id="35867bb714"><path d="M 0.484375 0 L 29.515625 0 L 29.515625 29.03125 L 0.484375 29.03125 Z M 0.484375 0 " clip-rule="nonzero"/></clipPath><clipPath id="6a299b2df3"><path d="M 7 20 L 12 20 L 12 25.898438 L 7 25.898438 Z M 7 20 " clip-rule="nonzero"/></clipPath><clipPath id="7a7897aebe"><path d="M 8 20 L 12 20 L 12 25.898438 L 8 25.898438 Z M 8 20 " clip-rule="nonzero"/></clipPath><clipPath id="9fd7f9eb66"><path d="M 3.386719 16 L 9 16 L 9 23 L 3.386719 23 Z M 3.386719 16 " clip-rule="nonzero"/></clipPath><clipPath id="81fec562a0"><path d="M 18 3.398438 L 22 3.398438 L 22 7 L 18 7 Z M 18 3.398438 " clip-rule="nonzero"/></clipPath><clipPath id="a57804b7fd"><path d="M 23 8 L 26.613281 8 L 26.613281 13 L 23 13 Z M 23 8 " clip-rule="nonzero"/></clipPath><clipPath id="516c1d564e"><path d="M 23 16 L 26.613281 16 L 26.613281 20 L 23 20 Z M 23 16 " clip-rule="nonzero"/></clipPath></defs><g clip-path="url(#35867bb714)"><path fill="#ffffff" d="M 0.484375 0 L 29.515625 0 L 29.515625 29.03125 L 0.484375 29.03125 Z M 0.484375 0 " fill-opacity="1" fill-rule="nonzero"/><path fill="#ffffff" d="M 0.484375 0 L 29.515625 0 L 29.515625 29.03125 L 0.484375 29.03125 Z M 0.484375 0 " fill-opacity="1" fill-rule="nonzero"/></g><g clip-path="url(#6a299b2df3)"><path fill="#935f3d" d="M 9.65625 25.628906 L 7.519531 21.363281 L 9.289062 20.480469 L 11.421875 24.746094 Z M 7.859375 21.464844 L 9.765625 25.289062 L 11.09375 24.628906 L 9.175781 20.808594 Z M 7.859375 21.464844 " fill-opacity="1" fill-rule="nonzero"/></g><g clip-path="url(#7a7897aebe)"><path fill="#935f3d" d="M 10.425781 25.246094 L 8.292969 20.96875 L 9.285156 20.46875 L 11.421875 24.746094 Z M 8.632812 21.082031 L 10.554688 24.90625 L 11.101562 24.632812 L 9.175781 20.808594 Z M 8.632812 21.082031 " fill-opacity="1" fill-rule="nonzero"/></g><g clip-path="url(#9fd7f9eb66)"><path fill="#935f3d" d="M 8.640625 20.859375 L 8.59375 20.84375 C 8.214844 20.71875 7.867188 20.53125 7.546875 20.289062 C 7.167969 20 6.882812 19.636719 6.691406 19.195312 C 6.289062 18.386719 6.152344 17.535156 6.285156 16.640625 L 6.464844 16.546875 C 6.464844 16.527344 6.464844 16.507812 6.464844 16.484375 L 6.503906 16.246094 L 6.109375 16.441406 L 3.648438 17.671875 L 3.648438 17.738281 C 3.382812 19.675781 4.136719 21.191406 5.972656 22.382812 L 6.035156 22.425781 L 8.441406 21.222656 L 8.554688 21.167969 L 8.953125 20.96875 Z M 6.023438 22.121094 C 4.359375 21.03125 3.660156 19.617188 3.882812 17.839844 L 6.023438 16.769531 L 6.191406 16.6875 C 6.03125 17.640625 6.144531 18.558594 6.539062 19.445312 L 6.566406 19.496094 C 6.765625 19.886719 7.039062 20.21875 7.386719 20.488281 C 7.660156 20.703125 7.957031 20.875 8.28125 21.003906 L 8.160156 21.066406 Z M 6.023438 22.121094 " fill-opacity="1" fill-rule="nonzero"/></g><path fill="#935f3d" d="M 18.867188 20.109375 L 18.796875 19.839844 C 18.644531 19.804688 18.496094 19.761719 18.355469 19.703125 C 18.050781 19.605469 17.742188 19.523438 17.429688 19.464844 C 15.488281 19.105469 13.566406 19.1875 11.664062 19.703125 C 10.601562 19.976562 9.578125 20.355469 8.59375 20.835938 L 8.421875 20.917969 C 8.109375 20.734375 7.820312 20.519531 7.546875 20.28125 C 7.324219 20.082031 7.121094 19.859375 6.949219 19.617188 C 6.851562 19.484375 6.765625 19.34375 6.691406 19.195312 C 6.289062 18.386719 6.152344 17.535156 6.285156 16.640625 L 6.464844 16.546875 C 8.789062 15.355469 10.449219 13.375 11.441406 11.902344 C 11.898438 11.21875 12.308594 10.507812 12.671875 9.773438 C 12.828125 9.441406 12.941406 9.1875 13.003906 9.03125 L 13.019531 9.050781 C 13.042969 8.949219 13.070312 8.855469 13.105469 8.761719 L 12.917969 8.546875 L 12.851562 8.726562 C 12.851562 8.726562 12.851562 8.726562 12.851562 8.746094 C 12.703125 9.121094 10.585938 14.296875 6.128906 16.433594 L 6.066406 16.460938 L 6.066406 16.53125 C 6.066406 16.609375 6.046875 16.683594 6.042969 16.761719 C 6.027344 16.933594 6.015625 17.105469 6.019531 17.277344 C 6.003906 18.046875 6.183594 18.765625 6.5625 19.433594 L 6.589844 19.484375 C 6.640625 19.578125 6.699219 19.667969 6.761719 19.753906 C 6.949219 20.019531 7.164062 20.257812 7.410156 20.472656 C 7.648438 20.691406 7.90625 20.882812 8.179688 21.050781 L 8.378906 21.167969 L 8.4375 21.203125 L 8.5 21.167969 L 8.542969 21.148438 L 8.824219 21.003906 C 10.007812 20.441406 14.199219 18.679688 18.238281 19.902344 C 18.378906 19.945312 18.515625 19.992188 18.652344 20.042969 L 18.699219 20.042969 L 18.875 20.105469 Z M 18.867188 20.109375 " fill-opacity="1" fill-rule="nonzero"/><path fill="#935f3d" d="M 20.941406 17.140625 C 20.804688 15.46875 20.347656 13.890625 19.570312 12.402344 C 18.851562 10.890625 17.871094 9.578125 16.621094 8.460938 C 15.507812 7.53125 14.480469 7.230469 13.722656 7.605469 C 13.339844 7.8125 13.070312 8.117188 12.921875 8.527344 L 12.851562 8.710938 C 12.851562 8.710938 12.851562 8.710938 12.851562 8.730469 C 12.753906 9.054688 12.695312 9.386719 12.675781 9.726562 C 12.664062 9.957031 12.664062 10.183594 12.675781 10.414062 C 12.820312 12.078125 13.277344 13.65625 14.050781 15.136719 C 14.769531 16.648438 15.753906 17.964844 17 19.078125 C 17.140625 19.199219 17.289062 19.308594 17.4375 19.410156 C 17.691406 19.59375 17.957031 19.746094 18.242188 19.871094 C 18.390625 19.9375 18.542969 19.988281 18.703125 20.027344 L 18.871094 20.0625 C 18.980469 20.078125 19.09375 20.089844 19.203125 20.089844 C 19.449219 20.089844 19.679688 20.039062 19.902344 19.929688 C 20.636719 19.597656 21.015625 18.589844 20.941406 17.140625 Z M 19.769531 19.75 C 19.453125 19.894531 19.128906 19.925781 18.796875 19.839844 C 18.644531 19.804688 18.496094 19.761719 18.355469 19.703125 C 17.917969 19.503906 17.515625 19.25 17.152344 18.933594 C 15.925781 17.835938 14.960938 16.546875 14.261719 15.058594 C 13.5 13.605469 13.050781 12.066406 12.914062 10.433594 C 12.882812 9.960938 12.917969 9.496094 13.019531 9.035156 C 13.042969 8.9375 13.070312 8.839844 13.105469 8.746094 C 13.226562 8.34375 13.46875 8.042969 13.835938 7.839844 C 14.5 7.507812 15.429688 7.800781 16.460938 8.664062 C 17.679688 9.757812 18.640625 11.042969 19.34375 12.523438 C 20.101562 13.976562 20.550781 15.515625 20.691406 17.148438 C 20.757812 18.5 20.429688 19.417969 19.769531 19.75 Z M 19.769531 19.75 " fill-opacity="1" fill-rule="nonzero"/><path fill="#935f3d" d="M 18.648438 18.75 C 18.273438 18.734375 17.925781 18.621094 17.609375 18.417969 C 16.613281 17.847656 15.570312 16.59375 14.808594 15.0625 C 13.957031 13.367188 13.601562 11.609375 13.871094 10.476562 C 13.941406 10.007812 14.183594 9.65625 14.59375 9.417969 C 15.164062 9.132812 15.9375 9.359375 16.773438 10.058594 C 17.699219 10.882812 18.429688 11.859375 18.960938 12.980469 C 19.535156 14.082031 19.875 15.253906 19.980469 16.492188 C 20.035156 17.578125 19.746094 18.332031 19.175781 18.617188 C 19.011719 18.703125 18.835938 18.75 18.648438 18.75 Z M 15.03125 14.957031 C 15.777344 16.445312 16.785156 17.660156 17.734375 18.207031 C 18.097656 18.414062 18.625 18.621094 19.0625 18.402344 C 19.496094 18.183594 19.769531 17.480469 19.726562 16.519531 C 19.621094 15.316406 19.289062 14.175781 18.730469 13.105469 C 18.210938 12.015625 17.503906 11.070312 16.601562 10.265625 C 15.863281 9.648438 15.171875 9.417969 14.703125 9.660156 C 14.371094 9.859375 14.171875 10.152344 14.113281 10.535156 C 13.871094 11.609375 14.203125 13.304688 15.03125 14.957031 Z M 15.03125 14.957031 " fill-opacity="1" fill-rule="nonzero"/><path fill="#935f3d" d="M 17.851562 15.4375 C 17.800781 15.242188 17.738281 15.042969 17.667969 14.84375 C 17.667969 14.863281 17.667969 14.882812 17.667969 14.902344 C 17.6875 15.082031 17.660156 15.25 17.578125 15.414062 C 17.578125 15.453125 17.601562 15.492188 17.609375 15.53125 C 17.621094 15.566406 17.640625 15.648438 17.65625 15.707031 C 17.898438 16.722656 17.898438 17.621094 17.609375 18.136719 C 16.972656 17.703125 16.429688 17.171875 15.984375 16.542969 L 15.894531 16.417969 L 15.863281 16.339844 C 15.789062 16.238281 15.71875 16.136719 15.652344 16.03125 C 15.589844 15.9375 15.53125 15.835938 15.472656 15.738281 C 15.410156 15.640625 15.324219 15.488281 15.253906 15.363281 C 15.1875 15.238281 15.117188 15.105469 15.050781 14.972656 C 14.984375 14.839844 14.910156 14.683594 14.847656 14.539062 C 14.785156 14.390625 14.746094 14.300781 14.699219 14.183594 C 14.585938 13.929688 14.492188 13.667969 14.410156 13.398438 C 14.410156 13.367188 14.386719 13.335938 14.375 13.304688 C 14.367188 13.277344 14.355469 13.238281 14.351562 13.210938 C 14.34375 13.179688 14.328125 13.140625 14.316406 13.105469 L 14.277344 12.957031 C 14.050781 12.203125 13.988281 11.4375 14.089844 10.65625 C 14.667969 10.832031 15.324219 11.367188 15.933594 12.136719 C 15.992188 12.214844 16.054688 12.292969 16.113281 12.378906 C 16.277344 12.417969 16.421875 12.5 16.542969 12.613281 L 16.636719 12.691406 C 16.511719 12.507812 16.390625 12.328125 16.261719 12.160156 C 15.539062 11.183594 14.710938 10.5 14.007812 10.355469 L 13.886719 10.328125 L 13.871094 10.480469 C 13.722656 11.363281 13.78125 12.230469 14.050781 13.082031 C 14.050781 13.117188 14.050781 13.152344 14.078125 13.1875 C 14.261719 13.832031 14.503906 14.457031 14.808594 15.058594 C 14.945312 15.332031 15.085938 15.59375 15.238281 15.84375 C 15.390625 16.097656 15.542969 16.335938 15.710938 16.5625 L 15.773438 16.648438 C 16.265625 17.359375 16.875 17.949219 17.605469 18.414062 L 17.707031 18.472656 L 17.773438 18.375 C 18.183594 17.792969 18.207031 16.691406 17.851562 15.4375 Z M 17.851562 15.4375 " fill-opacity="1" fill-rule="nonzero"/><path fill="#935f3d" d="M 17.703125 15.679688 L 17.582031 15.4375 C 17.554688 15.476562 17.523438 15.503906 17.480469 15.527344 C 17.441406 15.542969 17.398438 15.554688 17.351562 15.550781 L 17.351562 15.582031 L 17.046875 15.734375 L 15.863281 16.339844 C 15.789062 16.238281 15.71875 16.136719 15.652344 16.03125 C 15.589844 15.9375 15.53125 15.835938 15.472656 15.738281 C 15.410156 15.640625 15.324219 15.488281 15.253906 15.363281 C 15.1875 15.238281 15.117188 15.105469 15.050781 14.972656 C 14.984375 14.839844 14.910156 14.683594 14.847656 14.539062 C 14.785156 14.390625 14.746094 14.300781 14.699219 14.183594 C 14.585938 13.929688 14.492188 13.667969 14.410156 13.398438 C 14.410156 13.367188 14.386719 13.335938 14.375 13.304688 L 14.347656 13.210938 L 15.53125 12.640625 L 15.839844 12.488281 L 15.839844 12.519531 C 15.863281 12.476562 15.894531 12.449219 15.9375 12.425781 C 15.980469 12.410156 16.019531 12.398438 16.066406 12.402344 L 15.945312 12.164062 L 15.945312 12.148438 L 15.835938 12.203125 L 14.277344 12.96875 L 14.046875 13.082031 L 14.078125 13.1875 C 14.261719 13.832031 14.503906 14.457031 14.808594 15.058594 C 14.945312 15.332031 15.085938 15.59375 15.238281 15.84375 C 15.390625 16.097656 15.546875 16.335938 15.710938 16.5625 L 15.773438 16.648438 L 16.003906 16.535156 L 17.59375 15.738281 L 17.671875 15.699219 L 17.707031 15.699219 Z M 17.703125 15.679688 " fill-opacity="1" fill-rule="nonzero"/><path fill="#935f3d" d="M 17.550781 13.554688 C 17.347656 13.128906 17.070312 12.757812 16.71875 12.445312 C 16.585938 12.328125 16.4375 12.242188 16.273438 12.183594 C 16.164062 12.144531 16.054688 12.136719 15.941406 12.160156 C 15.898438 12.164062 15.859375 12.179688 15.824219 12.199219 C 15.660156 12.300781 15.5625 12.445312 15.53125 12.636719 C 15.507812 12.746094 15.496094 12.855469 15.496094 12.96875 C 15.511719 13.46875 15.636719 13.945312 15.863281 14.394531 C 16.097656 14.921875 16.457031 15.347656 16.929688 15.675781 L 17.054688 15.734375 C 17.148438 15.777344 17.25 15.800781 17.355469 15.804688 C 17.4375 15.804688 17.515625 15.789062 17.589844 15.75 L 17.625 15.730469 L 17.660156 15.707031 C 17.671875 15.699219 17.683594 15.6875 17.695312 15.679688 C 17.769531 15.613281 17.824219 15.53125 17.855469 15.4375 C 17.921875 15.257812 17.945312 15.078125 17.929688 14.890625 C 17.894531 14.417969 17.765625 13.972656 17.550781 13.554688 Z M 17.683594 14.902344 C 17.703125 15.082031 17.675781 15.25 17.59375 15.414062 C 17.597656 15.421875 17.597656 15.429688 17.59375 15.4375 C 17.570312 15.476562 17.535156 15.503906 17.496094 15.527344 C 17.453125 15.542969 17.410156 15.554688 17.367188 15.550781 C 17.261719 15.542969 17.167969 15.507812 17.082031 15.453125 C 16.648438 15.152344 16.324219 14.761719 16.109375 14.28125 C 15.828125 13.789062 15.71875 13.257812 15.777344 12.695312 C 15.789062 12.628906 15.816406 12.570312 15.855469 12.515625 C 15.878906 12.476562 15.914062 12.445312 15.957031 12.421875 C 15.996094 12.40625 16.039062 12.398438 16.082031 12.398438 L 16.144531 12.398438 C 16.308594 12.441406 16.449219 12.519531 16.574219 12.632812 L 16.664062 12.710938 C 16.941406 12.992188 17.160156 13.308594 17.328125 13.660156 C 17.523438 14.03125 17.640625 14.421875 17.683594 14.835938 C 17.679688 14.863281 17.683594 14.882812 17.683594 14.902344 Z M 17.683594 14.902344 " fill-opacity="1" fill-rule="nonzero"/><path fill="#935f3d" d="M 20.089844 4.273438 C 19.902344 4.210938 19.714844 4.222656 19.539062 4.308594 C 19.359375 4.398438 19.238281 4.535156 19.171875 4.726562 C 19.109375 4.914062 19.121094 5.097656 19.207031 5.277344 C 19.296875 5.457031 19.433594 5.578125 19.621094 5.644531 C 19.8125 5.707031 19.996094 5.695312 20.175781 5.609375 C 20.355469 5.519531 20.476562 5.382812 20.539062 5.195312 C 20.605469 5.003906 20.59375 4.820312 20.507812 4.640625 C 20.417969 4.460938 20.277344 4.339844 20.089844 4.273438 Z M 20.320312 5.105469 C 20.277344 5.234375 20.195312 5.328125 20.070312 5.386719 C 19.949219 5.449219 19.824219 5.457031 19.695312 5.410156 C 19.5625 5.367188 19.46875 5.285156 19.410156 5.160156 C 19.351562 5.039062 19.34375 4.910156 19.386719 4.78125 C 19.433594 4.652344 19.515625 4.558594 19.636719 4.5 C 19.761719 4.441406 19.886719 4.433594 20.015625 4.476562 C 20.144531 4.519531 20.242188 4.605469 20.300781 4.726562 C 20.359375 4.851562 20.367188 4.976562 20.320312 5.105469 Z M 20.320312 5.105469 " fill-opacity="1" fill-rule="nonzero"/><path fill="#935f3d" d="M 20.8125 4.398438 C 20.839844 4.324219 20.890625 4.296875 20.964844 4.320312 C 21.039062 4.347656 21.0625 4.398438 21.039062 4.472656 C 21.011719 4.550781 20.960938 4.574219 20.886719 4.546875 C 20.8125 4.523438 20.785156 4.472656 20.8125 4.398438 Z M 20.8125 4.398438 " fill-opacity="1" fill-rule="nonzero"/><path fill="#935f3d" d="M 20.089844 4.273438 C 19.902344 4.210938 19.714844 4.222656 19.539062 4.308594 C 19.359375 4.398438 19.238281 4.535156 19.171875 4.726562 C 19.109375 4.914062 19.121094 5.097656 19.207031 5.277344 C 19.296875 5.457031 19.433594 5.578125 19.621094 5.644531 C 19.8125 5.707031 19.996094 5.695312 20.175781 5.609375 C 20.355469 5.519531 20.476562 5.382812 20.539062 5.195312 C 20.605469 5.003906 20.59375 4.820312 20.507812 4.640625 C 20.417969 4.460938 20.277344 4.339844 20.089844 4.273438 Z M 20.320312 5.105469 C 20.277344 5.234375 20.195312 5.328125 20.070312 5.386719 C 19.949219 5.449219 19.824219 5.457031 19.695312 5.410156 C 19.5625 5.367188 19.46875 5.285156 19.410156 5.160156 C 19.351562 5.039062 19.34375 4.910156 19.386719 4.78125 C 19.433594 4.652344 19.515625 4.558594 19.636719 4.5 C 19.761719 4.441406 19.886719 4.433594 20.015625 4.476562 C 20.144531 4.519531 20.242188 4.605469 20.300781 4.726562 C 20.359375 4.851562 20.367188 4.976562 20.320312 5.105469 Z M 20.320312 5.105469 " fill-opacity="1" fill-rule="nonzero"/><path fill="#935f3d" d="M 21.039062 4.472656 C 21.011719 4.550781 20.960938 4.574219 20.886719 4.546875 C 20.8125 4.523438 20.785156 4.472656 20.8125 4.398438 C 20.839844 4.324219 20.890625 4.296875 20.964844 4.320312 C 21.039062 4.347656 21.0625 4.398438 21.039062 4.472656 Z M 21.039062 4.472656 " fill-opacity="1" fill-rule="nonzero"/><g clip-path="url(#81fec562a0)"><path fill="#935f3d" d="M 20.984375 3.945312 L 19.617188 3.476562 C 19.460938 3.421875 19.304688 3.425781 19.15625 3.5 C 19.003906 3.574219 18.902344 3.691406 18.847656 3.851562 L 18.386719 5.21875 C 18.335938 5.375 18.34375 5.527344 18.417969 5.675781 C 18.488281 5.824219 18.601562 5.925781 18.757812 5.980469 L 20.128906 6.449219 C 20.285156 6.5 20.4375 6.492188 20.585938 6.417969 C 20.734375 6.347656 20.835938 6.230469 20.890625 6.078125 L 21.355469 4.710938 C 21.414062 4.550781 21.402344 4.398438 21.332031 4.25 C 21.257812 4.101562 21.144531 4 20.984375 3.945312 Z M 21.128906 4.648438 L 20.671875 5.976562 C 20.636719 6.082031 20.570312 6.15625 20.476562 6.203125 C 20.378906 6.25 20.277344 6.257812 20.175781 6.21875 L 18.847656 5.769531 C 18.75 5.734375 18.675781 5.667969 18.632812 5.574219 C 18.585938 5.480469 18.578125 5.382812 18.613281 5.285156 L 19.070312 3.957031 C 19.101562 3.851562 19.167969 3.777344 19.261719 3.730469 C 19.359375 3.679688 19.457031 3.671875 19.558594 3.707031 L 20.886719 4.164062 C 20.988281 4.199219 21.0625 4.261719 21.109375 4.355469 C 21.15625 4.453125 21.164062 4.550781 21.128906 4.648438 Z M 21.128906 4.648438 " fill-opacity="1" fill-rule="nonzero"/></g><path fill="#935f3d" d="M 20.089844 4.273438 C 19.902344 4.210938 19.714844 4.222656 19.539062 4.308594 C 19.359375 4.398438 19.238281 4.535156 19.171875 4.726562 C 19.109375 4.914062 19.121094 5.097656 19.207031 5.277344 C 19.296875 5.457031 19.433594 5.578125 19.621094 5.644531 C 19.8125 5.707031 19.996094 5.695312 20.175781 5.609375 C 20.355469 5.519531 20.476562 5.382812 20.539062 5.195312 C 20.605469 5.003906 20.59375 4.820312 20.507812 4.640625 C 20.417969 4.460938 20.277344 4.339844 20.089844 4.273438 Z M 20.320312 5.105469 C 20.277344 5.234375 20.195312 5.328125 20.070312 5.386719 C 19.949219 5.449219 19.824219 5.457031 19.695312 5.410156 C 19.5625 5.367188 19.46875 5.285156 19.410156 5.160156 C 19.351562 5.039062 19.34375 4.910156 19.386719 4.78125 C 19.433594 4.652344 19.515625 4.558594 19.636719 4.5 C 19.761719 4.441406 19.886719 4.433594 20.015625 4.476562 C 20.144531 4.519531 20.242188 4.605469 20.300781 4.726562 C 20.359375 4.851562 20.367188 4.976562 20.320312 5.105469 Z M 20.320312 5.105469 " fill-opacity="1" fill-rule="nonzero"/><path fill="#935f3d" d="M 21.039062 4.472656 C 21.011719 4.550781 20.960938 4.574219 20.886719 4.546875 C 20.8125 4.523438 20.785156 4.472656 20.8125 4.398438 C 20.839844 4.324219 20.890625 4.296875 20.964844 4.320312 C 21.039062 4.347656 21.0625 4.398438 21.039062 4.472656 Z M 21.039062 4.472656 " fill-opacity="1" fill-rule="nonzero"/><path fill="#935f3d" d="M 20.089844 4.273438 C 19.902344 4.210938 19.714844 4.222656 19.539062 4.308594 C 19.359375 4.398438 19.238281 4.535156 19.171875 4.726562 C 19.109375 4.914062 19.121094 5.097656 19.207031 5.277344 C 19.296875 5.457031 19.433594 5.578125 19.621094 5.644531 C 19.8125 5.707031 19.996094 5.695312 20.175781 5.609375 C 20.355469 5.519531 20.476562 5.382812 20.539062 5.195312 C 20.605469 5.003906 20.59375 4.820312 20.507812 4.640625 C 20.417969 4.460938 20.277344 4.339844 20.089844 4.273438 Z M 20.320312 5.105469 C 20.277344 5.234375 20.195312 5.328125 20.070312 5.386719 C 19.949219 5.449219 19.824219 5.457031 19.695312 5.410156 C 19.5625 5.367188 19.46875 5.285156 19.410156 5.160156 C 19.351562 5.039062 19.34375 4.910156 19.386719 4.78125 C 19.433594 4.652344 19.515625 4.558594 19.636719 4.5 C 19.761719 4.441406 19.886719 4.433594 20.015625 4.476562 C 20.144531 4.519531 20.242188 4.605469 20.300781 4.726562 C 20.359375 4.851562 20.367188 4.976562 20.320312 5.105469 Z M 20.320312 5.105469 " fill-opacity="1" fill-rule="nonzero"/><path fill="#935f3d" d="M 21.039062 4.472656 C 21.011719 4.550781 20.960938 4.574219 20.886719 4.546875 C 20.8125 4.523438 20.785156 4.472656 20.8125 4.398438 C 20.839844 4.324219 20.890625 4.296875 20.964844 4.320312 C 21.039062 4.347656 21.0625 4.398438 21.039062 4.472656 Z M 21.039062 4.472656 " fill-opacity="1" fill-rule="nonzero"/><g clip-path="url(#a57804b7fd)"><path fill="#935f3d" d="M 24.203125 12.167969 L 23.464844 10.960938 L 23.957031 10.609375 C 24.015625 10.570312 24.070312 10.527344 24.121094 10.484375 C 24.144531 10.382812 24.203125 10.125 24.242188 9.898438 C 24.242188 9.84375 24.261719 9.753906 24.273438 9.648438 C 24.355469 8.914062 24.414062 8.652344 24.582031 8.632812 C 24.640625 8.632812 24.726562 8.632812 24.800781 8.765625 C 24.9375 9.058594 25.03125 9.363281 25.078125 9.683594 L 25.699219 9.382812 L 26.621094 11.078125 L 26.53125 11.144531 C 26.265625 11.335938 25.984375 11.507812 25.695312 11.65625 L 25.667969 11.65625 L 24.792969 11.871094 Z M 23.800781 11.03125 L 24.296875 11.835938 L 24.703125 11.628906 L 25.59375 11.410156 C 25.835938 11.285156 26.070312 11.144531 26.292969 10.988281 L 25.59375 9.714844 L 24.878906 10.042969 L 24.855469 9.871094 C 24.8125 9.5625 24.734375 9.265625 24.625 8.972656 C 24.582031 9.164062 24.542969 9.492188 24.527344 9.660156 C 24.527344 9.773438 24.503906 9.867188 24.492188 9.929688 C 24.441406 10.21875 24.363281 10.554688 24.359375 10.570312 L 24.359375 10.609375 L 24.332031 10.636719 C 24.332031 10.636719 24.21875 10.730469 24.113281 10.804688 Z M 23.800781 11.03125 " fill-opacity="1" fill-rule="nonzero"/></g><g clip-path="url(#516c1d564e)"><path fill="#935f3d" d="M 25.777344 19.511719 L 25.710938 19.511719 C 25.644531 19.511719 24.089844 19.382812 23.644531 18.714844 C 23.503906 18.507812 23.476562 18.285156 23.5625 18.050781 C 23.621094 17.84375 23.746094 17.695312 23.945312 17.613281 C 24.21875 17.523438 24.488281 17.527344 24.757812 17.632812 C 24.804688 17.328125 24.945312 17.078125 25.183594 16.878906 C 25.339844 16.78125 25.507812 16.765625 25.679688 16.828125 C 25.972656 16.929688 26.15625 17.128906 26.226562 17.429688 C 26.367188 18.164062 26.230469 18.839844 25.816406 19.457031 Z M 24.285156 17.796875 C 24.199219 17.792969 24.121094 17.808594 24.042969 17.839844 C 23.917969 17.894531 23.839844 17.992188 23.804688 18.125 C 23.742188 18.28125 23.757812 18.425781 23.855469 18.566406 C 24.152344 19.011719 25.183594 19.203125 25.660156 19.230469 C 25.992188 18.6875 26.101562 18.105469 25.992188 17.480469 C 25.941406 17.261719 25.8125 17.121094 25.601562 17.050781 C 25.503906 17.011719 25.410156 17.023438 25.320312 17.074219 C 25.121094 17.277344 25.011719 17.519531 24.988281 17.800781 L 24.96875 17.976562 L 24.808594 17.902344 C 24.640625 17.832031 24.464844 17.796875 24.285156 17.796875 Z M 24.285156 17.796875 " fill-opacity="1" fill-rule="nonzero"/></g></svg>