<svg xmlns="http://www.w3.org/2000/svg" xmlns:xlink="http://www.w3.org/1999/xlink" width="40" zoomAndPan="magnify" viewBox="0 0 30 30.000001" height="40" preserveAspectRatio="xMidYMid meet" version="1.0"><defs><clipPath id="ff1ecd8f19"><path d="M 0.484375 0 L 29.515625 0 L 29.515625 29.03125 L 0.484375 29.03125 Z M 0.484375 0 " clip-rule="nonzero"/></clipPath><clipPath id="e83d3eb493"><path d="M 3.359375 2.902344 L 26.582031 2.902344 L 26.582031 26.128906 L 3.359375 26.128906 Z M 3.359375 2.902344 " clip-rule="nonzero"/></clipPath></defs><g clip-path="url(#ff1ecd8f19)"><path fill="#ffffff" d="M 0.484375 0 L 29.515625 0 L 29.515625 29.03125 L 0.484375 29.03125 Z M 0.484375 0 " fill-opacity="1" fill-rule="nonzero"/><path fill="#ffffff" d="M 0.484375 0 L 29.515625 0 L 29.515625 29.03125 L 0.484375 29.03125 Z M 0.484375 0 " fill-opacity="1" fill-rule="nonzero"/></g><g clip-path="url(#e83d3eb493)"><path fill="#935f3d" d="M 15.699219 20.019531 C 14.972656 20.644531 14.027344 21.019531 12.992188 21.019531 C 10.691406 21.019531 8.828125 19.15625 8.828125 16.855469 C 8.828125 14.554688 10.691406 12.6875 12.992188 12.6875 C 15.292969 12.6875 17.160156 14.554688 17.160156 16.855469 C 17.160156 17.742188 16.882812 18.566406 16.40625 19.242188 L 17.710938 20.511719 L 17.761719 20.460938 C 17.90625 20.3125 18.144531 20.308594 18.296875 20.453125 L 20.582031 22.671875 C 20.734375 22.816406 20.734375 23.058594 20.589844 23.210938 L 19.765625 24.058594 C 19.621094 24.210938 19.378906 24.210938 19.230469 24.066406 L 16.941406 21.847656 C 16.792969 21.703125 16.789062 21.460938 16.933594 21.3125 L 16.976562 21.265625 Z M 12.992188 13.660156 C 11.230469 13.660156 9.800781 15.089844 9.800781 16.855469 C 9.800781 18.617188 11.230469 20.046875 12.992188 20.046875 C 14.757812 20.046875 16.1875 18.617188 16.1875 16.855469 C 16.1875 15.089844 14.757812 13.660156 12.992188 13.660156 Z M 19.707031 13.210938 L 19.707031 11.558594 C 19.707031 11.453125 19.625 11.371094 19.523438 11.371094 L 4.679688 11.371094 C 4.574219 11.371094 4.492188 11.453125 4.492188 11.558594 L 4.492188 19.90625 L 9.109375 19.90625 C 10.015625 21.054688 11.417969 21.792969 12.992188 21.792969 C 13.960938 21.792969 14.867188 21.515625 15.628906 21.035156 L 16.058594 21.453125 C 16.035156 21.699219 16.085938 21.949219 16.214844 22.167969 L 14.84375 22.167969 L 14.84375 24.300781 L 16.886719 24.300781 C 17.515625 24.300781 18.03125 24.710938 18.03125 25.214844 L 18.03125 26.128906 L 6.167969 26.128906 L 6.167969 25.214844 C 6.167969 24.710938 6.683594 24.300781 7.3125 24.300781 L 9.355469 24.300781 L 9.355469 22.167969 L 4.710938 22.167969 C 3.972656 22.167969 3.371094 21.5625 3.371094 20.824219 L 3.371094 11.589844 C 3.371094 10.851562 3.972656 10.246094 4.710938 10.246094 L 19.488281 10.246094 C 20.226562 10.246094 20.832031 10.851562 20.832031 11.589844 L 20.832031 12.734375 C 20.6875 12.757812 20.546875 12.792969 20.414062 12.839844 C 20.15625 12.925781 19.921875 13.050781 19.707031 13.210938 Z M 20.832031 18.824219 L 20.832031 20.824219 C 20.832031 21.109375 20.738281 21.378906 20.585938 21.597656 L 18.84375 19.90625 L 19.707031 19.90625 L 19.707031 17.71875 C 19.730469 17.746094 19.753906 17.773438 19.777344 17.800781 C 20.089844 18.167969 20.457031 18.511719 20.832031 18.824219 Z M 11.71875 2.902344 C 13.519531 2.902344 14.980469 4.367188 14.980469 6.167969 C 14.980469 7.96875 13.519531 9.429688 11.71875 9.429688 C 9.917969 9.429688 8.457031 7.96875 8.457031 6.167969 C 8.457031 4.367188 9.917969 2.902344 11.71875 2.902344 Z M 13.152344 6.132812 L 10.90625 4.839844 C 10.894531 4.832031 10.882812 4.832031 10.871094 4.839844 C 10.859375 4.847656 10.851562 4.859375 10.851562 4.871094 L 10.851562 7.460938 C 10.851562 7.476562 10.859375 7.488281 10.871094 7.496094 C 10.882812 7.5 10.894531 7.5 10.90625 7.496094 L 13.152344 6.199219 C 13.160156 6.191406 13.167969 6.179688 13.167969 6.167969 C 13.167969 6.152344 13.160156 6.140625 13.152344 6.132812 Z M 26.59375 7.640625 C 26.59375 8.078125 26.242188 8.429688 25.804688 8.429688 L 22.242188 8.429688 L 21.285156 9.429688 C 21.21875 9.496094 21.128906 9.519531 21.039062 9.496094 C 20.953125 9.46875 20.886719 9.398438 20.871094 9.308594 L 20.703125 8.429688 L 20.035156 8.429688 C 19.601562 8.429688 19.246094 8.078125 19.246094 7.640625 L 19.246094 3.691406 C 19.246094 3.257812 19.601562 2.902344 20.035156 2.902344 L 25.804688 2.902344 C 26.242188 2.902344 26.59375 3.257812 26.59375 3.691406 Z M 20.78125 6.066406 L 24.988281 6.066406 C 25.203125 6.066406 25.375 5.894531 25.375 5.679688 C 25.375 5.46875 25.203125 5.292969 24.988281 5.292969 L 20.78125 5.292969 C 20.570312 5.292969 20.394531 5.46875 20.394531 5.679688 C 20.394531 5.894531 20.570312 6.066406 20.78125 6.066406 Z M 20.78125 7.316406 L 24.988281 7.316406 C 25.203125 7.316406 25.375 7.144531 25.375 6.929688 C 25.375 6.71875 25.203125 6.542969 24.988281 6.542969 L 20.78125 6.542969 C 20.570312 6.542969 20.394531 6.71875 20.394531 6.929688 C 20.394531 7.144531 20.570312 7.316406 20.78125 7.316406 Z M 20.78125 4.816406 L 24.988281 4.816406 C 25.203125 4.816406 25.375 4.644531 25.375 4.429688 C 25.375 4.214844 25.203125 4.042969 24.988281 4.042969 L 20.78125 4.042969 C 20.570312 4.042969 20.394531 4.214844 20.394531 4.429688 C 20.394531 4.644531 20.570312 4.816406 20.78125 4.816406 Z M 22.960938 19.382812 C 21.746094 18.667969 19.503906 17.027344 19.472656 15.386719 C 19.441406 13.5625 21.488281 12.734375 23.03125 14.304688 C 24.574219 12.734375 26.628906 13.5625 26.59375 15.386719 C 26.566406 17.027344 24.324219 18.667969 23.105469 19.382812 C 23.058594 19.410156 23.007812 19.410156 22.960938 19.382812 Z M 22.960938 19.382812 " fill-opacity="1" fill-rule="evenodd"/></g></svg>