<svg xmlns="http://www.w3.org/2000/svg" xmlns:xlink="http://www.w3.org/1999/xlink" width="40" zoomAndPan="magnify" viewBox="0 0 30 30.000001" height="40" preserveAspectRatio="xMidYMid meet" version="1.0"><defs><clipPath id="75b90ea2d1"><path d="M 0.484375 0 L 29.515625 0 L 29.515625 29.03125 L 0.484375 29.03125 Z M 0.484375 0 " clip-rule="nonzero"/></clipPath><clipPath id="4dcd6abbc9"><path d="M 3.386719 2.902344 L 26.613281 2.902344 L 26.613281 26.128906 L 3.386719 26.128906 Z M 3.386719 2.902344 " clip-rule="nonzero"/></clipPath></defs><g clip-path="url(#75b90ea2d1)"><path fill="#ffffff" d="M 0.484375 0 L 29.515625 0 L 29.515625 29.03125 L 0.484375 29.03125 Z M 0.484375 0 " fill-opacity="1" fill-rule="nonzero"/><path fill="#ffffff" d="M 0.484375 0 L 29.515625 0 L 29.515625 29.03125 L 0.484375 29.03125 Z M 0.484375 0 " fill-opacity="1" fill-rule="nonzero"/></g><g clip-path="url(#4dcd6abbc9)"><path fill="#935f3d" d="M 25.246094 21.171875 L 25.246094 10.191406 C 25.246094 9.183594 24.429688 8.367188 23.425781 8.367188 L 21.601562 8.367188 L 21.601562 7.699219 L 22.765625 6.925781 C 22.894531 6.839844 22.96875 6.699219 22.96875 6.546875 L 22.96875 5.558594 C 23.5 5.371094 23.878906 4.863281 23.878906 4.269531 C 23.878906 3.515625 23.265625 2.902344 22.515625 2.902344 C 21.761719 2.902344 21.148438 3.515625 21.148438 4.269531 C 21.148438 4.863281 21.527344 5.371094 22.058594 5.558594 L 22.058594 6.304688 L 20.894531 7.078125 C 20.769531 7.164062 20.691406 7.304688 20.691406 7.457031 L 20.691406 8.367188 L 16.59375 8.367188 L 16.59375 7.699219 L 17.757812 6.925781 C 17.882812 6.839844 17.960938 6.699219 17.960938 6.546875 L 17.960938 5.558594 C 18.488281 5.371094 18.871094 4.863281 18.871094 4.269531 C 18.871094 3.515625 18.257812 2.902344 17.503906 2.902344 C 16.75 2.902344 16.136719 3.515625 16.136719 4.269531 C 16.136719 4.863281 16.519531 5.371094 17.050781 5.558594 L 17.050781 6.304688 L 15.886719 7.078125 C 15.757812 7.164062 15.683594 7.304688 15.683594 7.457031 L 15.683594 8.367188 L 14.316406 8.367188 L 14.316406 7.457031 C 14.316406 7.304688 14.242188 7.164062 14.113281 7.078125 L 12.949219 6.304688 L 12.949219 5.558594 C 13.480469 5.371094 13.863281 4.863281 13.863281 4.269531 C 13.863281 3.515625 13.25 2.902344 12.496094 2.902344 C 11.742188 2.902344 11.128906 3.515625 11.128906 4.269531 C 11.128906 4.863281 11.511719 5.371094 12.039062 5.558594 L 12.039062 6.546875 C 12.039062 6.699219 12.117188 6.839844 12.242188 6.925781 L 13.40625 7.699219 L 13.40625 8.367188 L 9.308594 8.367188 L 9.308594 7.457031 C 9.308594 7.304688 9.230469 7.164062 9.105469 7.078125 L 7.941406 6.304688 L 7.941406 5.558594 C 8.472656 5.371094 8.851562 4.863281 8.851562 4.269531 C 8.851562 3.515625 8.238281 2.902344 7.484375 2.902344 C 6.734375 2.902344 6.121094 3.515625 6.121094 4.269531 C 6.121094 4.863281 6.5 5.371094 7.03125 5.558594 L 7.03125 6.546875 C 7.03125 6.699219 7.105469 6.839844 7.234375 6.925781 L 8.398438 7.699219 L 8.398438 8.367188 L 6.574219 8.367188 C 5.570312 8.367188 4.753906 9.183594 4.753906 10.191406 L 4.753906 21.171875 C 3.96875 21.363281 3.386719 22.070312 3.386719 22.910156 C 3.386719 24.683594 4.832031 26.128906 6.605469 26.128906 L 23.394531 26.128906 C 25.167969 26.128906 26.613281 24.683594 26.613281 22.910156 C 26.613281 22.070312 26.03125 21.363281 25.246094 21.171875 Z M 22.515625 3.8125 C 22.765625 3.8125 22.96875 4.019531 22.96875 4.269531 C 22.96875 4.519531 22.765625 4.726562 22.515625 4.726562 C 22.261719 4.726562 22.058594 4.519531 22.058594 4.269531 C 22.058594 4.019531 22.261719 3.8125 22.515625 3.8125 Z M 17.503906 3.8125 C 17.753906 3.8125 17.960938 4.019531 17.960938 4.269531 C 17.960938 4.519531 17.753906 4.726562 17.503906 4.726562 C 17.253906 4.726562 17.050781 4.519531 17.050781 4.269531 C 17.050781 4.019531 17.253906 3.8125 17.503906 3.8125 Z M 12.496094 3.8125 C 12.746094 3.8125 12.949219 4.019531 12.949219 4.269531 C 12.949219 4.519531 12.746094 4.726562 12.496094 4.726562 C 12.246094 4.726562 12.039062 4.519531 12.039062 4.269531 C 12.039062 4.019531 12.246094 3.8125 12.496094 3.8125 Z M 7.484375 3.8125 C 7.738281 3.8125 7.941406 4.019531 7.941406 4.269531 C 7.941406 4.519531 7.738281 4.726562 7.484375 4.726562 C 7.234375 4.726562 7.03125 4.519531 7.03125 4.269531 C 7.03125 4.019531 7.234375 3.8125 7.484375 3.8125 Z M 5.664062 10.191406 C 5.664062 9.6875 6.074219 9.277344 6.574219 9.277344 L 23.425781 9.277344 C 23.925781 9.277344 24.335938 9.6875 24.335938 10.191406 L 24.335938 21.121094 L 23.425781 21.121094 L 23.425781 10.644531 C 23.425781 10.394531 23.222656 10.191406 22.96875 10.191406 L 7.03125 10.191406 C 6.777344 10.191406 6.574219 10.394531 6.574219 10.644531 L 6.574219 21.121094 L 5.664062 21.121094 Z M 7.484375 21.121094 L 7.484375 11.101562 L 22.515625 11.101562 L 22.515625 21.121094 C 20.914062 21.121094 9.40625 21.121094 7.484375 21.121094 Z M 18.898438 22.03125 L 18.554688 22.941406 L 11.445312 22.941406 L 11.101562 22.03125 Z M 23.394531 25.21875 L 6.605469 25.21875 C 5.332031 25.21875 4.296875 24.183594 4.296875 22.910156 C 4.296875 22.425781 4.691406 22.03125 5.179688 22.03125 C 5.90625 22.03125 9.375 22.03125 10.128906 22.03125 L 10.703125 23.554688 C 10.769531 23.734375 10.9375 23.851562 11.128906 23.851562 L 18.871094 23.851562 C 19.0625 23.851562 19.230469 23.734375 19.296875 23.554688 L 19.871094 22.03125 C 20.082031 22.03125 24.609375 22.03125 24.792969 22.03125 L 24.820312 22.03125 C 25.308594 22.03125 25.703125 22.425781 25.703125 22.910156 C 25.703125 24.183594 24.667969 25.21875 23.394531 25.21875 Z M 23.394531 25.21875 " fill-opacity="1" fill-rule="nonzero"/></g><path fill="#935f3d" d="M 19.035156 14.902344 L 18.0625 13.21875 C 17.9375 13 17.660156 12.925781 17.441406 13.050781 L 16.695312 13.484375 C 16.609375 13.425781 16.519531 13.375 16.425781 13.328125 L 16.425781 12.464844 C 16.425781 12.214844 16.222656 12.011719 15.972656 12.011719 L 14.027344 12.011719 C 13.777344 12.011719 13.574219 12.214844 13.574219 12.464844 L 13.574219 13.328125 C 13.480469 13.375 13.390625 13.425781 13.304688 13.484375 L 12.558594 13.050781 C 12.339844 12.925781 12.0625 13 11.9375 13.21875 L 10.964844 14.902344 C 10.839844 15.121094 10.914062 15.398438 11.132812 15.523438 L 11.875 15.953125 C 11.871094 16.058594 11.871094 16.160156 11.875 16.265625 L 11.132812 16.695312 C 10.914062 16.820312 10.839844 17.101562 10.964844 17.316406 L 11.9375 19 C 12.0625 19.21875 12.339844 19.292969 12.558594 19.167969 L 13.304688 18.738281 C 13.390625 18.792969 13.480469 18.84375 13.574219 18.890625 L 13.574219 19.753906 C 13.574219 20.003906 13.777344 20.207031 14.027344 20.207031 L 15.972656 20.207031 C 16.222656 20.207031 16.425781 20.003906 16.425781 19.753906 L 16.425781 18.890625 C 16.519531 18.84375 16.609375 18.792969 16.695312 18.738281 L 17.441406 19.167969 C 17.660156 19.292969 17.9375 19.21875 18.0625 19 L 19.035156 17.316406 C 19.160156 17.101562 19.085938 16.820312 18.867188 16.695312 L 18.125 16.265625 C 18.128906 16.160156 18.128906 16.058594 18.125 15.953125 L 18.867188 15.523438 C 19.085938 15.398438 19.160156 15.121094 19.035156 14.902344 Z M 17.191406 15.773438 C 17.222656 15.988281 17.226562 16.214844 17.191406 16.445312 C 17.164062 16.628906 17.25 16.8125 17.414062 16.90625 L 18.019531 17.257812 L 17.503906 18.152344 L 16.898438 17.800781 C 16.734375 17.707031 16.53125 17.722656 16.382812 17.839844 C 16.210938 17.980469 16.015625 18.09375 15.804688 18.175781 C 15.632812 18.242188 15.515625 18.410156 15.515625 18.597656 L 15.515625 19.296875 L 14.484375 19.296875 L 14.484375 18.597656 C 14.484375 18.410156 14.367188 18.242188 14.195312 18.175781 C 13.984375 18.09375 13.789062 17.980469 13.617188 17.839844 C 13.46875 17.722656 13.265625 17.707031 13.101562 17.800781 L 12.496094 18.152344 L 11.980469 17.257812 L 12.585938 16.90625 C 12.75 16.8125 12.835938 16.628906 12.808594 16.445312 C 12.777344 16.230469 12.773438 16.003906 12.808594 15.773438 C 12.835938 15.589844 12.75 15.40625 12.585938 15.3125 L 11.980469 14.964844 L 12.496094 14.070312 L 13.101562 14.417969 C 13.265625 14.511719 13.46875 14.496094 13.617188 14.378906 C 13.789062 14.238281 13.984375 14.128906 14.195312 14.046875 C 14.367188 13.976562 14.484375 13.808594 14.484375 13.621094 L 14.484375 12.921875 L 15.515625 12.921875 L 15.515625 13.621094 C 15.515625 13.808594 15.632812 13.976562 15.804688 14.046875 C 16.015625 14.128906 16.210938 14.238281 16.382812 14.378906 C 16.53125 14.496094 16.734375 14.511719 16.898438 14.417969 L 17.503906 14.070312 L 18.019531 14.964844 L 17.414062 15.3125 C 17.25 15.40625 17.164062 15.589844 17.191406 15.773438 Z M 17.191406 15.773438 " fill-opacity="1" fill-rule="nonzero"/><path fill="#935f3d" d="M 15 14.742188 C 14.246094 14.742188 13.632812 15.355469 13.632812 16.109375 C 13.632812 16.863281 14.246094 17.476562 15 17.476562 C 15.753906 17.476562 16.367188 16.863281 16.367188 16.109375 C 16.367188 15.355469 15.753906 14.742188 15 14.742188 Z M 15 16.566406 C 14.75 16.566406 14.542969 16.359375 14.542969 16.109375 C 14.542969 15.859375 14.75 15.65625 15 15.65625 C 15.25 15.65625 15.457031 15.859375 15.457031 16.109375 C 15.457031 16.359375 15.25 16.566406 15 16.566406 Z M 15 16.566406 " fill-opacity="1" fill-rule="nonzero"/></svg>