<svg xmlns="http://www.w3.org/2000/svg" xmlns:xlink="http://www.w3.org/1999/xlink" width="40" zoomAndPan="magnify" viewBox="0 0 30 30.000001" height="40" preserveAspectRatio="xMidYMid meet" version="1.0"><defs><clipPath id="5ca46d969d"><path d="M 0.484375 0 L 29.515625 0 L 29.515625 29.03125 L 0.484375 29.03125 Z M 0.484375 0 " clip-rule="nonzero"/></clipPath><clipPath id="ee19026e55"><path d="M 4.402344 19 L 9 19 L 9 26.128906 L 4.402344 26.128906 Z M 4.402344 19 " clip-rule="nonzero"/></clipPath><clipPath id="752531beaf"><path d="M 6 17 L 25.453125 17 L 25.453125 25 L 6 25 Z M 6 17 " clip-rule="nonzero"/></clipPath><clipPath id="c19117623e"><path d="M 16 2.902344 L 17 2.902344 L 17 5 L 16 5 Z M 16 2.902344 " clip-rule="nonzero"/></clipPath></defs><g clip-path="url(#5ca46d969d)"><path fill="#ffffff" d="M 0.484375 0 L 29.515625 0 L 29.515625 29.03125 L 0.484375 29.03125 Z M 0.484375 0 " fill-opacity="1" fill-rule="nonzero"/><path fill="#ffffff" d="M 0.484375 0 L 29.515625 0 L 29.515625 29.03125 L 0.484375 29.03125 Z M 0.484375 0 " fill-opacity="1" fill-rule="nonzero"/></g><g clip-path="url(#ee19026e55)"><path fill="#935f3d" d="M 8.34375 24.71875 L 8.328125 24.691406 L 8.324219 24.679688 L 5.941406 19.789062 C 5.9375 19.785156 5.9375 19.78125 5.9375 19.78125 C 5.90625 19.769531 5.878906 19.753906 5.851562 19.730469 C 5.785156 19.683594 5.742188 19.617188 5.71875 19.542969 C 5.625 19.480469 5.511719 19.449219 5.398438 19.449219 C 5.308594 19.449219 5.222656 19.46875 5.136719 19.511719 L 4.761719 19.691406 C 4.617188 19.761719 4.507812 19.886719 4.457031 20.039062 C 4.402344 20.191406 4.414062 20.351562 4.484375 20.5 L 7.011719 25.6875 C 7.15625 25.988281 7.519531 26.113281 7.816406 25.96875 L 8.191406 25.785156 C 8.261719 25.75 8.328125 25.703125 8.378906 25.644531 C 8.429688 25.585938 8.46875 25.515625 8.496094 25.441406 C 8.550781 25.289062 8.539062 25.125 8.46875 24.980469 Z M 8.34375 24.71875 " fill-opacity="1" fill-rule="nonzero"/></g><g clip-path="url(#752531beaf)"><path fill="#935f3d" d="M 25.394531 17.566406 C 25.210938 17.289062 24.933594 17.101562 24.609375 17.039062 C 24.28125 16.980469 23.953125 17.054688 23.683594 17.25 L 19.382812 20.375 C 19.332031 20.464844 19.269531 20.558594 19.203125 20.648438 C 18.808594 21.171875 18.175781 21.480469 17.507812 21.480469 L 13.820312 21.480469 C 13.613281 21.480469 13.449219 21.316406 13.449219 21.109375 C 13.449219 20.902344 13.613281 20.738281 13.820312 20.738281 L 17.507812 20.738281 C 17.941406 20.738281 18.355469 20.535156 18.609375 20.199219 C 18.664062 20.125 18.710938 20.050781 18.746094 19.980469 C 18.75 19.972656 18.753906 19.960938 18.761719 19.953125 C 18.90625 19.648438 18.875 19.378906 18.660156 19.101562 C 18.410156 18.773438 18.003906 18.578125 17.574219 18.578125 L 13.203125 18.578125 C 12.628906 18.578125 12.074219 18.464844 11.5625 18.238281 C 10.449219 17.746094 8.359375 17.269531 6.578125 19.398438 C 6.589844 19.421875 6.601562 19.441406 6.613281 19.460938 L 8.855469 24.070312 L 9.378906 23.875 C 9.652344 23.777344 9.9375 23.734375 10.230469 23.757812 C 16.777344 24.234375 18.558594 23.578125 18.726562 23.507812 L 25.0625 19.210938 C 25.390625 18.988281 25.585938 18.617188 25.585938 18.21875 C 25.585938 17.984375 25.519531 17.761719 25.394531 17.566406 Z M 25.394531 17.566406 " fill-opacity="1" fill-rule="nonzero"/></g><path fill="#935f3d" d="M 13.347656 15.742188 L 16.566406 14.050781 L 19.785156 15.742188 L 19.171875 12.160156 L 21.777344 9.621094 L 18.175781 9.097656 L 16.566406 5.835938 L 14.957031 9.097656 L 11.359375 9.621094 L 13.960938 12.160156 Z M 13.347656 15.742188 " fill-opacity="1" fill-rule="nonzero"/><path fill="#935f3d" d="M 19.25 6.128906 C 19.34375 6.128906 19.441406 6.09375 19.515625 6.019531 L 20.460938 5.074219 C 20.605469 4.929688 20.605469 4.695312 20.460938 4.546875 C 20.3125 4.402344 20.078125 4.402344 19.933594 4.546875 L 18.988281 5.496094 C 18.839844 5.640625 18.839844 5.875 18.988281 6.019531 C 19.058594 6.09375 19.15625 6.128906 19.25 6.128906 Z M 19.25 6.128906 " fill-opacity="1" fill-rule="nonzero"/><path fill="#935f3d" d="M 13.609375 5.988281 C 13.679688 6.0625 13.777344 6.097656 13.871094 6.097656 C 13.964844 6.097656 14.0625 6.0625 14.132812 5.988281 C 14.28125 5.84375 14.28125 5.605469 14.132812 5.460938 L 13.1875 4.515625 C 13.042969 4.371094 12.808594 4.371094 12.664062 4.515625 C 12.515625 4.660156 12.515625 4.898438 12.664062 5.042969 Z M 13.609375 5.988281 " fill-opacity="1" fill-rule="nonzero"/><g clip-path="url(#c19117623e)"><path fill="#935f3d" d="M 16.566406 5 C 16.773438 5 16.941406 4.832031 16.941406 4.628906 L 16.941406 3.289062 C 16.941406 3.085938 16.773438 2.917969 16.566406 2.917969 C 16.363281 2.917969 16.195312 3.085938 16.195312 3.289062 L 16.195312 4.628906 C 16.195312 4.832031 16.363281 5 16.566406 5 Z M 16.566406 5 " fill-opacity="1" fill-rule="nonzero"/></g></svg>