<svg xmlns="http://www.w3.org/2000/svg" xmlns:xlink="http://www.w3.org/1999/xlink" width="40" zoomAndPan="magnify" viewBox="0 0 30 30.000001" height="40" preserveAspectRatio="xMidYMid meet" version="1.0"><defs><clipPath id="80b6fdd707"><path d="M 0.484375 0 L 29.515625 0 L 29.515625 29.03125 L 0.484375 29.03125 Z M 0.484375 0 " clip-rule="nonzero"/></clipPath><clipPath id="a0edcc6400"><path d="M 3.386719 2.933594 L 26.613281 2.933594 L 26.613281 26.15625 L 3.386719 26.15625 Z M 3.386719 2.933594 " clip-rule="nonzero"/></clipPath></defs><g clip-path="url(#80b6fdd707)"><path fill="#ffffff" d="M 0.484375 0 L 29.515625 0 L 29.515625 29.03125 L 0.484375 29.03125 Z M 0.484375 0 " fill-opacity="1" fill-rule="nonzero"/><path fill="#ffffff" d="M 0.484375 0 L 29.515625 0 L 29.515625 29.03125 L 0.484375 29.03125 Z M 0.484375 0 " fill-opacity="1" fill-rule="nonzero"/></g><g clip-path="url(#a0edcc6400)"><path fill="#935f3d" d="M 26.523438 23.691406 L 24.714844 20.558594 C 24.765625 20.5 24.832031 20.457031 24.910156 20.429688 C 25.390625 20.261719 25.78125 19.84375 25.957031 19.308594 C 26.132812 18.769531 26.0625 18.199219 25.769531 17.78125 C 25.652344 17.617188 25.652344 17.410156 25.769531 17.246094 C 26.0625 16.828125 26.132812 16.257812 25.957031 15.71875 C 25.78125 15.183594 25.390625 14.761719 24.910156 14.597656 C 24.71875 14.53125 24.597656 14.363281 24.59375 14.164062 C 24.582031 13.652344 24.304688 13.148438 23.847656 12.816406 C 23.394531 12.484375 22.828125 12.375 22.339844 12.523438 C 22.335938 12.527344 22.328125 12.527344 22.324219 12.527344 L 22.324219 10.875 C 22.324219 10.675781 22.160156 10.511719 21.960938 10.511719 L 20.730469 10.511719 C 20.53125 9.679688 20.207031 8.890625 19.757812 8.164062 L 20.625 7.292969 C 20.769531 7.148438 20.769531 6.917969 20.625 6.777344 L 18.480469 4.628906 C 18.335938 4.488281 18.105469 4.488281 17.964844 4.628906 L 17.09375 5.5 C 16.363281 5.050781 15.574219 4.726562 14.746094 4.527344 L 14.746094 3.296875 C 14.746094 3.09375 14.582031 2.933594 14.378906 2.933594 L 11.34375 2.933594 C 11.144531 2.933594 10.980469 3.09375 10.980469 3.296875 L 10.980469 4.527344 C 10.148438 4.726562 9.359375 5.050781 8.628906 5.5 L 7.757812 4.628906 C 7.617188 4.488281 7.386719 4.488281 7.246094 4.628906 L 5.097656 6.777344 C 5.027344 6.847656 4.992188 6.9375 4.992188 7.035156 C 4.992188 7.132812 5.027344 7.222656 5.097656 7.292969 L 5.96875 8.164062 C 5.519531 8.894531 5.191406 9.679688 4.992188 10.511719 L 3.761719 10.511719 C 3.5625 10.511719 3.398438 10.675781 3.398438 10.875 L 3.398438 13.914062 C 3.398438 14.113281 3.5625 14.277344 3.761719 14.277344 L 4.992188 14.277344 C 5.191406 15.109375 5.519531 15.898438 5.96875 16.628906 L 5.097656 17.496094 C 4.957031 17.640625 4.957031 17.871094 5.097656 18.011719 L 7.246094 20.160156 C 7.3125 20.226562 7.40625 20.265625 7.5 20.265625 C 7.597656 20.265625 7.691406 20.226562 7.757812 20.160156 L 8.628906 19.289062 C 9.359375 19.738281 10.148438 20.066406 10.980469 20.261719 L 10.980469 21.492188 C 10.980469 21.695312 11.144531 21.859375 11.34375 21.859375 L 14.378906 21.859375 C 14.582031 21.859375 14.742188 21.695312 14.742188 21.492188 L 14.742188 20.261719 C 14.964844 20.210938 15.179688 20.148438 15.394531 20.078125 C 15.5625 20.234375 15.753906 20.359375 15.964844 20.429688 C 16.042969 20.457031 16.109375 20.5 16.160156 20.558594 L 14.351562 23.691406 C 14.253906 23.863281 14.261719 24.070312 14.375 24.230469 C 14.488281 24.394531 14.679688 24.472656 14.875 24.4375 L 16.621094 24.125 L 17.222656 25.792969 C 17.289062 25.976562 17.453125 26.105469 17.652344 26.121094 C 17.667969 26.125 17.683594 26.125 17.695312 26.125 C 17.875 26.125 18.039062 26.03125 18.132812 25.871094 L 19.695312 23.167969 C 19.921875 23.265625 20.175781 23.316406 20.4375 23.316406 C 20.699219 23.316406 20.953125 23.265625 21.179688 23.167969 L 22.742188 25.871094 C 22.835938 26.03125 23 26.125 23.175781 26.125 C 23.191406 26.125 23.207031 26.125 23.222656 26.121094 C 23.421875 26.105469 23.585938 25.976562 23.652344 25.792969 L 24.253906 24.125 L 26 24.4375 C 26.195312 24.472656 26.386719 24.394531 26.5 24.230469 C 26.613281 24.070312 26.621094 23.863281 26.523438 23.691406 Z M 14.308594 19.613281 C 14.140625 19.648438 14.015625 19.796875 14.015625 19.96875 L 14.015625 21.128906 L 11.707031 21.128906 L 11.707031 19.96875 C 11.707031 19.796875 11.585938 19.648438 11.414062 19.613281 C 10.472656 19.425781 9.585938 19.058594 8.78125 18.523438 C 8.636719 18.425781 8.445312 18.445312 8.324219 18.566406 L 7.5 19.386719 L 5.867188 17.753906 L 6.691406 16.933594 C 6.8125 16.8125 6.832031 16.621094 6.734375 16.476562 C 6.199219 15.671875 5.832031 14.785156 5.644531 13.84375 C 5.609375 13.671875 5.460938 13.550781 5.285156 13.550781 L 4.125 13.550781 L 4.125 11.242188 L 5.285156 11.242188 C 5.460938 11.242188 5.609375 11.117188 5.644531 10.949219 C 5.832031 10.003906 6.199219 9.117188 6.734375 8.316406 C 6.832031 8.171875 6.8125 7.976562 6.691406 7.855469 L 5.867188 7.035156 L 7.5 5.402344 L 8.324219 6.222656 C 8.445312 6.34375 8.636719 6.363281 8.78125 6.269531 C 9.585938 5.730469 10.46875 5.363281 11.414062 5.175781 C 11.585938 5.140625 11.707031 4.992188 11.707031 4.820312 L 11.707031 3.660156 L 14.015625 3.660156 L 14.015625 4.820312 C 14.015625 4.992188 14.140625 5.140625 14.308594 5.175781 C 15.253906 5.363281 16.140625 5.730469 16.941406 6.269531 C 17.085938 6.363281 17.277344 6.34375 17.402344 6.222656 L 18.222656 5.402344 L 19.855469 7.035156 L 19.035156 7.855469 C 18.910156 7.976562 18.894531 8.171875 18.988281 8.316406 C 19.523438 9.117188 19.890625 10.003906 20.082031 10.949219 C 20.113281 11.117188 20.265625 11.242188 20.4375 11.242188 L 21.597656 11.242188 L 21.597656 12.117188 C 21.289062 11.859375 20.878906 11.710938 20.4375 11.710938 C 19.875 11.710938 19.351562 11.953125 19.042969 12.359375 C 18.921875 12.519531 18.726562 12.582031 18.535156 12.523438 C 18.464844 12.503906 18.394531 12.488281 18.320312 12.476562 C 18.320312 12.449219 18.324219 12.421875 18.324219 12.394531 C 18.324219 9.382812 15.875 6.933594 12.863281 6.933594 C 9.851562 6.933594 7.402344 9.382812 7.402344 12.394531 C 7.402344 15.40625 9.851562 17.855469 12.863281 17.855469 C 13.65625 17.855469 14.445312 17.679688 15.160156 17.347656 C 15.214844 17.492188 15.199219 17.648438 15.105469 17.78125 C 14.8125 18.199219 14.742188 18.769531 14.917969 19.308594 C 14.933594 19.355469 14.949219 19.402344 14.96875 19.449219 C 14.753906 19.515625 14.53125 19.570312 14.308594 19.613281 Z M 11.289062 11.640625 C 11.289062 10.773438 11.992188 10.066406 12.863281 10.066406 C 13.730469 10.066406 14.4375 10.773438 14.4375 11.640625 C 14.4375 12.507812 13.730469 13.214844 12.863281 13.214844 C 11.992188 13.214844 11.289062 12.507812 11.289062 11.640625 Z M 14.863281 16.683594 C 14.242188 16.976562 13.554688 17.128906 12.863281 17.128906 C 11.714844 17.128906 10.664062 16.71875 9.84375 16.039062 C 10.3125 14.792969 11.523438 13.941406 12.863281 13.941406 C 13.792969 13.941406 14.683594 14.355469 15.292969 15.058594 C 15.128906 15.242188 15 15.46875 14.917969 15.71875 C 14.8125 16.042969 14.796875 16.378906 14.863281 16.683594 Z M 15.964844 14.597656 C 15.9375 14.605469 15.910156 14.617188 15.882812 14.628906 C 15.445312 14.105469 14.878906 13.710938 14.253906 13.472656 C 14.808594 13.050781 15.164062 12.386719 15.164062 11.640625 C 15.164062 10.371094 14.132812 9.339844 12.863281 9.339844 C 11.59375 9.339844 10.558594 10.371094 10.558594 11.640625 C 10.558594 12.386719 10.917969 13.050781 11.46875 13.472656 C 10.519531 13.835938 9.726562 14.558594 9.285156 15.492188 C 8.566406 14.664062 8.128906 13.578125 8.128906 12.394531 C 8.128906 9.785156 10.253906 7.660156 12.863281 7.660156 C 15.472656 7.660156 17.59375 9.785156 17.59375 12.394531 C 17.59375 12.441406 17.59375 12.488281 17.59375 12.535156 C 17.394531 12.59375 17.203125 12.691406 17.027344 12.816406 C 16.570312 13.148438 16.292969 13.652344 16.28125 14.164062 C 16.277344 14.363281 16.15625 14.53125 15.964844 14.597656 Z M 17.742188 25.089844 L 17.199219 23.589844 C 17.140625 23.421875 16.96875 23.320312 16.792969 23.351562 L 15.222656 23.636719 L 16.445312 21.523438 C 16.570312 21.785156 16.769531 22.023438 17.027344 22.210938 C 17.480469 22.539062 18.046875 22.648438 18.535156 22.5 C 18.726562 22.441406 18.921875 22.507812 19.042969 22.667969 C 19.0625 22.691406 19.082031 22.714844 19.101562 22.738281 Z M 19.625 22.230469 C 19.394531 21.921875 19.042969 21.753906 18.675781 21.753906 C 18.558594 21.753906 18.441406 21.769531 18.324219 21.804688 C 18.050781 21.886719 17.726562 21.820312 17.453125 21.621094 C 17.179688 21.421875 17.015625 21.132812 17.007812 20.851562 C 17 20.34375 16.683594 19.910156 16.203125 19.742188 C 15.9375 19.648438 15.714844 19.402344 15.609375 19.082031 C 15.503906 18.761719 15.539062 18.429688 15.703125 18.199219 C 15.992188 17.78125 15.992188 17.246094 15.703125 16.828125 C 15.539062 16.597656 15.503906 16.265625 15.609375 15.945312 C 15.714844 15.625 15.9375 15.375 16.203125 15.285156 C 16.683594 15.117188 17 14.683594 17.007812 14.175781 C 17.015625 13.890625 17.179688 13.605469 17.453125 13.40625 C 17.726562 13.207031 18.050781 13.140625 18.324219 13.222656 C 18.808594 13.367188 19.320312 13.203125 19.625 12.796875 C 19.796875 12.570312 20.101562 12.4375 20.4375 12.4375 C 20.773438 12.4375 21.078125 12.570312 21.25 12.796875 C 21.554688 13.203125 22.066406 13.367188 22.550781 13.222656 C 22.824219 13.140625 23.148438 13.207031 23.421875 13.40625 C 23.695312 13.605469 23.859375 13.890625 23.867188 14.175781 C 23.875 14.683594 24.191406 15.117188 24.671875 15.285156 C 24.9375 15.375 25.160156 15.625 25.265625 15.945312 C 25.371094 16.265625 25.335938 16.597656 25.171875 16.828125 C 24.882812 17.246094 24.882812 17.78125 25.171875 18.199219 C 25.335938 18.429688 25.371094 18.761719 25.265625 19.082031 C 25.160156 19.402344 24.9375 19.648438 24.671875 19.742188 C 24.191406 19.910156 23.875 20.34375 23.867188 20.851562 C 23.859375 21.132812 23.695312 21.421875 23.421875 21.621094 C 23.148438 21.820312 22.824219 21.886719 22.550781 21.804688 C 22.066406 21.65625 21.554688 21.824219 21.25 22.230469 C 21.078125 22.453125 20.773438 22.589844 20.4375 22.589844 C 20.101562 22.589844 19.796875 22.453125 19.625 22.230469 Z M 24.078125 23.351562 C 23.90625 23.320312 23.734375 23.421875 23.671875 23.589844 L 23.132812 25.089844 L 21.773438 22.738281 C 21.792969 22.714844 21.8125 22.691406 21.828125 22.667969 C 21.953125 22.507812 22.148438 22.441406 22.339844 22.5 C 22.828125 22.648438 23.390625 22.539062 23.847656 22.210938 C 24.105469 22.023438 24.304688 21.785156 24.429688 21.523438 L 25.652344 23.636719 Z M 24.285156 17.511719 C 24.285156 15.394531 22.558594 13.667969 20.4375 13.667969 C 18.316406 13.667969 16.589844 15.394531 16.589844 17.511719 C 16.589844 19.632812 18.316406 21.359375 20.4375 21.359375 C 22.558594 21.359375 24.285156 19.632812 24.285156 17.511719 Z M 20.4375 20.632812 C 18.71875 20.632812 17.320312 19.234375 17.320312 17.511719 C 17.320312 15.792969 18.71875 14.394531 20.4375 14.394531 C 22.15625 14.394531 23.554688 15.792969 23.554688 17.511719 C 23.554688 19.234375 22.15625 20.632812 20.4375 20.632812 Z M 22.882812 16.808594 C 22.835938 16.667969 22.710938 16.566406 22.5625 16.558594 L 21.265625 16.460938 L 20.773438 15.257812 C 20.71875 15.121094 20.585938 15.03125 20.4375 15.03125 C 20.289062 15.03125 20.15625 15.121094 20.101562 15.257812 L 19.609375 16.460938 L 18.3125 16.558594 C 18.164062 16.566406 18.039062 16.667969 17.992188 16.808594 C 17.945312 16.949219 17.992188 17.101562 18.101562 17.199219 L 19.097656 18.039062 L 18.785156 19.300781 C 18.75 19.445312 18.804688 19.59375 18.925781 19.683594 C 18.988281 19.726562 19.066406 19.75 19.140625 19.75 C 19.207031 19.75 19.273438 19.734375 19.332031 19.695312 L 20.4375 19.011719 L 21.542969 19.695312 C 21.667969 19.773438 21.828125 19.769531 21.949219 19.683594 C 22.066406 19.59375 22.125 19.445312 22.085938 19.300781 L 21.777344 18.039062 L 22.769531 17.199219 C 22.882812 17.101562 22.929688 16.949219 22.882812 16.808594 Z M 21.136719 17.628906 C 21.03125 17.714844 20.984375 17.859375 21.019531 17.992188 L 21.167969 18.609375 L 20.628906 18.273438 C 20.511719 18.203125 20.363281 18.203125 20.246094 18.273438 L 19.707031 18.609375 L 19.855469 17.992188 C 19.890625 17.859375 19.84375 17.714844 19.738281 17.628906 L 19.253906 17.21875 L 19.886719 17.171875 C 20.023438 17.160156 20.144531 17.074219 20.195312 16.945312 L 20.4375 16.355469 L 20.675781 16.945312 C 20.730469 17.074219 20.851562 17.160156 20.988281 17.171875 L 21.621094 17.21875 Z M 21.136719 17.628906 " fill-opacity="1" fill-rule="nonzero"/></g></svg>