<svg xmlns="http://www.w3.org/2000/svg" xmlns:xlink="http://www.w3.org/1999/xlink" width="40" zoomAndPan="magnify" viewBox="0 0 30 30.000001" height="40" preserveAspectRatio="xMidYMid meet" version="1.0"><defs><clipPath id="a52bd37c49"><path d="M 0.484375 0 L 29.515625 0 L 29.515625 29.03125 L 0.484375 29.03125 Z M 0.484375 0 " clip-rule="nonzero"/></clipPath><clipPath id="2358fa6bc1"><path d="M 3.503906 2.785156 L 26.730469 2.785156 L 26.730469 26.011719 L 3.503906 26.011719 Z M 3.503906 2.785156 " clip-rule="nonzero"/></clipPath></defs><g clip-path="url(#a52bd37c49)"><path fill="#ffffff" d="M 0.484375 0 L 29.515625 0 L 29.515625 29.03125 L 0.484375 29.03125 Z M 0.484375 0 " fill-opacity="1" fill-rule="nonzero"/><path fill="#ffffff" d="M 0.484375 0 L 29.515625 0 L 29.515625 29.03125 L 0.484375 29.03125 Z M 0.484375 0 " fill-opacity="1" fill-rule="nonzero"/></g><g clip-path="url(#2358fa6bc1)"><path fill="#935f3d" d="M 17.519531 8.863281 L 17.519531 8.230469 C 17.519531 8.035156 17.675781 7.878906 17.871094 7.878906 C 18.0625 7.878906 18.222656 8.035156 18.222656 8.230469 L 18.222656 8.863281 C 18.222656 9.054688 18.0625 9.214844 17.871094 9.214844 C 17.675781 9.214844 17.519531 9.054688 17.519531 8.863281 Z M 16.132812 8.863281 L 16.132812 8.230469 C 16.132812 8.035156 16.292969 7.878906 16.484375 7.878906 C 16.679688 7.878906 16.835938 8.035156 16.835938 8.230469 L 16.835938 8.863281 C 16.835938 9.054688 16.679688 9.214844 16.484375 9.214844 C 16.292969 9.214844 16.132812 9.054688 16.132812 8.863281 Z M 13.792969 8.230469 L 13.792969 8.863281 C 13.792969 9.054688 13.636719 9.214844 13.441406 9.214844 C 13.246094 9.214844 13.089844 9.054688 13.089844 8.863281 L 13.089844 8.230469 C 13.089844 8.035156 13.246094 7.878906 13.441406 7.878906 C 13.636719 7.878906 13.792969 8.035156 13.792969 8.230469 Z M 12.40625 8.230469 L 12.40625 8.863281 C 12.40625 9.054688 12.25 9.214844 12.054688 9.214844 C 11.863281 9.214844 11.703125 9.054688 11.703125 8.863281 L 11.703125 8.230469 C 11.703125 8.035156 11.863281 7.878906 12.054688 7.878906 C 12.25 7.878906 12.40625 8.035156 12.40625 8.230469 Z M 10.886719 11.96875 L 14.609375 11.96875 L 14.609375 3.894531 L 10.886719 6.40625 Z M 19.039062 3.894531 L 15.316406 6.40625 L 15.316406 11.96875 L 19.039062 11.96875 Z M 14.964844 12.671875 L 19.390625 12.671875 C 19.585938 12.671875 19.746094 12.515625 19.746094 12.320312 L 19.746094 3.234375 C 19.746094 2.953125 19.429688 2.785156 19.195312 2.941406 L 15.316406 5.558594 L 15.316406 3.234375 C 15.316406 2.953125 15 2.785156 14.765625 2.941406 L 10.335938 5.925781 C 10.238281 5.992188 10.179688 6.101562 10.179688 6.21875 L 10.179688 12.320312 C 10.179688 12.515625 10.339844 12.671875 10.53125 12.671875 Z M 13.3125 25.632812 C 13.273438 25.824219 13.085938 25.945312 12.894531 25.90625 C 12.519531 25.828125 12.140625 25.726562 11.773438 25.605469 C 11.585938 25.542969 11.488281 25.34375 11.546875 25.160156 C 11.609375 24.976562 11.808594 24.875 11.992188 24.9375 C 12.335938 25.050781 12.6875 25.144531 13.039062 25.214844 C 13.230469 25.253906 13.351562 25.441406 13.3125 25.632812 Z M 5 13.878906 C 5.078125 13.5 5.179688 13.125 5.304688 12.753906 C 5.363281 12.570312 5.5625 12.46875 5.746094 12.53125 C 5.933594 12.589844 6.03125 12.789062 5.972656 12.972656 C 5.859375 13.320312 5.761719 13.671875 5.691406 14.019531 C 5.652344 14.214844 5.460938 14.332031 5.277344 14.292969 C 5.085938 14.253906 4.960938 14.070312 5 13.878906 Z M 5.875 11.371094 C 6.050781 11.027344 6.246094 10.6875 6.460938 10.363281 C 6.566406 10.199219 6.785156 10.15625 6.945312 10.261719 C 7.109375 10.367188 7.15625 10.585938 7.046875 10.75 C 6.847656 11.050781 6.667969 11.367188 6.503906 11.6875 C 6.417969 11.863281 6.203125 11.929688 6.03125 11.84375 C 5.859375 11.753906 5.789062 11.542969 5.875 11.371094 Z M 7.371094 9.175781 C 7.628906 8.886719 7.90625 8.609375 8.195312 8.351562 C 8.339844 8.222656 8.5625 8.234375 8.691406 8.382812 C 8.820312 8.527344 8.808594 8.75 8.664062 8.878906 C 8.394531 9.117188 8.136719 9.375 7.898438 9.644531 C 7.765625 9.789062 7.542969 9.800781 7.398438 9.671875 C 7.253906 9.542969 7.242188 9.320312 7.371094 9.175781 Z M 21.234375 8.382812 C 21.363281 8.234375 21.585938 8.222656 21.730469 8.351562 C 22.019531 8.609375 22.296875 8.886719 22.554688 9.175781 C 22.757812 9.402344 22.59375 9.761719 22.292969 9.761719 C 22.195312 9.761719 22.097656 9.722656 22.027344 9.644531 C 21.789062 9.375 21.53125 9.117188 21.261719 8.878906 C 21.117188 8.75 21.105469 8.527344 21.234375 8.382812 Z M 22.878906 10.75 C 22.769531 10.585938 22.816406 10.367188 22.976562 10.261719 C 23.140625 10.15625 23.359375 10.199219 23.464844 10.363281 C 23.679688 10.6875 23.875 11.023438 24.050781 11.371094 C 24.167969 11.605469 23.992188 11.878906 23.734375 11.878906 C 23.605469 11.878906 23.480469 11.808594 23.421875 11.6875 C 23.257812 11.367188 23.074219 11.050781 22.878906 10.75 Z M 24.179688 12.53125 C 24.363281 12.46875 24.5625 12.570312 24.621094 12.753906 C 24.746094 13.121094 24.84375 13.5 24.921875 13.878906 C 24.96875 14.097656 24.800781 14.300781 24.578125 14.300781 C 24.414062 14.300781 24.269531 14.1875 24.234375 14.019531 C 24.160156 13.667969 24.066406 13.316406 23.953125 12.972656 C 23.894531 12.789062 23.992188 12.589844 24.179688 12.53125 Z M 18.378906 25.160156 C 18.4375 25.34375 18.339844 25.542969 18.152344 25.605469 C 17.949219 25.671875 17.128906 25.914062 16.957031 25.914062 C 16.792969 25.914062 16.648438 25.796875 16.613281 25.632812 C 16.574219 25.441406 16.695312 25.253906 16.886719 25.214844 C 17.238281 25.144531 17.589844 25.050781 17.933594 24.9375 C 18.117188 24.875 18.316406 24.976562 18.378906 25.160156 Z M 15.875 25.726562 C 15.886719 25.921875 15.738281 26.085938 15.542969 26.097656 C 15.140625 26.121094 14.785156 26.121094 14.382812 26.097656 C 14.1875 26.085938 14.039062 25.921875 14.050781 25.726562 C 14.0625 25.53125 14.226562 25.386719 14.421875 25.394531 C 14.796875 25.417969 15.128906 25.414062 15.503906 25.394531 C 15.699219 25.386719 15.863281 25.53125 15.875 25.726562 Z M 9.628906 23.980469 C 9.628906 24.148438 9.492188 24.285156 9.324219 24.285156 L 4.511719 24.285156 C 4.347656 24.285156 4.210938 24.148438 4.210938 23.980469 L 4.210938 21.933594 C 4.210938 20.4375 5.425781 19.222656 6.917969 19.222656 C 8.414062 19.222656 9.628906 20.4375 9.628906 21.933594 Z M 5.523438 17.121094 C 5.523438 16.351562 6.148438 15.722656 6.917969 15.722656 C 7.691406 15.722656 8.316406 16.351562 8.316406 17.121094 C 8.316406 17.890625 7.691406 18.519531 6.917969 18.519531 C 6.148438 18.519531 5.523438 17.890625 5.523438 17.121094 Z M 8.214844 18.773438 C 8.703125 18.390625 9.019531 17.792969 9.019531 17.121094 C 9.019531 15.960938 8.078125 15.019531 6.917969 15.019531 C 5.761719 15.019531 4.816406 15.960938 4.816406 17.121094 C 4.816406 17.792969 5.132812 18.390625 5.625 18.773438 C 4.382812 19.285156 3.503906 20.507812 3.503906 21.933594 L 3.503906 23.980469 C 3.503906 24.535156 3.957031 24.988281 4.511719 24.988281 L 9.324219 24.988281 C 9.878906 24.988281 10.332031 24.535156 10.332031 23.980469 L 10.332031 21.933594 C 10.332031 20.507812 9.457031 19.285156 8.214844 18.773438 Z M 25.902344 22.855469 L 24.464844 22.855469 C 24.308594 22.308594 23.804688 21.902344 23.207031 21.902344 C 22.613281 21.902344 22.109375 22.308594 21.953125 22.855469 L 17.667969 22.855469 L 17.667969 16.523438 L 25.902344 16.523438 Z M 23.207031 23.804688 C 23.539062 23.804688 23.808594 23.539062 23.808594 23.207031 C 23.808594 22.878906 23.539062 22.609375 23.207031 22.609375 C 22.878906 22.609375 22.609375 22.878906 22.609375 23.207031 C 22.609375 23.539062 22.878906 23.804688 23.207031 23.804688 Z M 15.265625 21.902344 C 14.667969 21.902344 14.164062 22.308594 14.011719 22.855469 L 13.484375 22.855469 L 13.484375 20.511719 L 14.976562 19.183594 L 16.964844 19.183594 L 16.964844 22.855469 L 16.519531 22.855469 C 16.367188 22.308594 15.863281 21.902344 15.265625 21.902344 Z M 15.265625 23.804688 C 15.597656 23.804688 15.863281 23.539062 15.863281 23.207031 C 15.863281 22.878906 15.597656 22.609375 15.265625 22.609375 C 14.9375 22.609375 14.667969 22.878906 14.667969 23.207031 C 14.667969 23.539062 14.9375 23.804688 15.265625 23.804688 Z M 26.253906 15.816406 L 17.316406 15.816406 C 17.121094 15.816406 16.964844 15.976562 16.964844 16.167969 L 16.964844 18.480469 L 14.84375 18.480469 C 14.757812 18.480469 14.675781 18.511719 14.609375 18.570312 L 12.898438 20.089844 C 12.820312 20.15625 12.78125 20.253906 12.78125 20.355469 L 12.78125 23.207031 C 12.78125 23.402344 12.9375 23.558594 13.132812 23.558594 L 14.011719 23.558594 C 14.164062 24.105469 14.667969 24.511719 15.265625 24.511719 C 15.863281 24.511719 16.367188 24.105469 16.519531 23.558594 L 21.953125 23.558594 C 22.109375 24.105469 22.613281 24.511719 23.207031 24.511719 C 23.804688 24.511719 24.308594 24.105469 24.464844 23.558594 L 26.253906 23.558594 C 26.449219 23.558594 26.609375 23.402344 26.609375 23.207031 L 26.609375 16.167969 C 26.609375 15.976562 26.449219 15.816406 26.253906 15.816406 Z M 26.253906 15.816406 " fill-opacity="1" fill-rule="evenodd"/></g></svg>