<svg xmlns="http://www.w3.org/2000/svg" xmlns:xlink="http://www.w3.org/1999/xlink" width="40" zoomAndPan="magnify" viewBox="0 0 30 30.000001" height="40" preserveAspectRatio="xMidYMid meet" version="1.0"><defs><clipPath id="85538c3ab3"><path d="M 0.484375 0 L 29.515625 0 L 29.515625 29.03125 L 0.484375 29.03125 Z M 0.484375 0 " clip-rule="nonzero"/></clipPath><clipPath id="08468fb1bb"><path d="M 3.386719 2.902344 L 26.613281 2.902344 L 26.613281 26.128906 L 3.386719 26.128906 Z M 3.386719 2.902344 " clip-rule="nonzero"/></clipPath></defs><g clip-path="url(#85538c3ab3)"><path fill="#ffffff" d="M 0.484375 0 L 29.515625 0 L 29.515625 29.03125 L 0.484375 29.03125 Z M 0.484375 0 " fill-opacity="1" fill-rule="nonzero"/><path fill="#ffffff" d="M 0.484375 0 L 29.515625 0 L 29.515625 29.03125 L 0.484375 29.03125 Z M 0.484375 0 " fill-opacity="1" fill-rule="nonzero"/></g><g clip-path="url(#08468fb1bb)"><path fill="#935f3d" d="M 6.140625 8.6875 C 6.140625 8.480469 6.308594 8.3125 6.515625 8.3125 L 14.496094 8.3125 C 14.703125 8.3125 14.871094 8.480469 14.871094 8.6875 C 14.871094 8.894531 14.703125 9.0625 14.496094 9.0625 L 6.515625 9.0625 C 6.308594 9.0625 6.140625 8.894531 6.140625 8.6875 Z M 6.515625 11.414062 L 14.496094 11.414062 C 14.703125 11.414062 14.871094 11.246094 14.871094 11.039062 C 14.871094 10.832031 14.703125 10.664062 14.496094 10.664062 L 6.515625 10.664062 C 6.308594 10.664062 6.140625 10.832031 6.140625 11.039062 C 6.140625 11.246094 6.308594 11.414062 6.515625 11.414062 Z M 6.515625 6.710938 L 12.246094 6.710938 C 12.453125 6.710938 12.621094 6.542969 12.621094 6.335938 C 12.621094 6.128906 12.453125 5.960938 12.246094 5.960938 L 6.515625 5.960938 C 6.308594 5.960938 6.140625 6.128906 6.140625 6.335938 C 6.140625 6.542969 6.308594 6.710938 6.515625 6.710938 Z M 14.6875 22.804688 C 14.6875 23.492188 14.128906 24.050781 13.445312 24.050781 C 12.757812 24.050781 12.199219 23.492188 12.199219 22.804688 C 12.199219 22.121094 12.757812 21.5625 13.445312 21.5625 C 14.128906 21.5625 14.6875 22.121094 14.6875 22.804688 Z M 13.9375 22.804688 C 13.9375 22.535156 13.714844 22.3125 13.445312 22.3125 C 13.171875 22.3125 12.949219 22.535156 12.949219 22.804688 C 12.949219 23.078125 13.171875 23.300781 13.445312 23.300781 C 13.714844 23.300781 13.9375 23.078125 13.9375 22.804688 Z M 16.402344 20.871094 C 15.71875 20.871094 15.160156 20.3125 15.160156 19.628906 C 15.160156 18.941406 15.71875 18.382812 16.402344 18.382812 C 17.089844 18.382812 17.648438 18.941406 17.648438 19.628906 C 17.648438 20.3125 17.089844 20.871094 16.402344 20.871094 Z M 16.898438 19.628906 C 16.898438 19.355469 16.675781 19.132812 16.402344 19.132812 C 16.132812 19.132812 15.910156 19.355469 15.910156 19.628906 C 15.910156 19.898438 16.132812 20.121094 16.402344 20.121094 C 16.675781 20.121094 16.898438 19.898438 16.898438 19.628906 Z M 15.972656 17.695312 C 15.289062 17.695312 14.730469 17.136719 14.730469 16.449219 C 14.730469 15.765625 15.289062 15.207031 15.972656 15.207031 C 16.660156 15.207031 17.21875 15.765625 17.21875 16.449219 C 17.21875 17.136719 16.660156 17.695312 15.972656 17.695312 Z M 15.972656 16.945312 C 16.246094 16.945312 16.46875 16.722656 16.46875 16.449219 C 16.46875 16.179688 16.246094 15.957031 15.972656 15.957031 C 15.703125 15.957031 15.480469 16.179688 15.480469 16.449219 C 15.480469 16.722656 15.703125 16.945312 15.972656 16.945312 Z M 26.285156 24.558594 C 26.03125 25.503906 25.171875 26.128906 24.238281 26.128906 C 24.054688 26.128906 23.871094 26.105469 23.691406 26.058594 L 22.066406 25.621094 C 21.757812 25.945312 21.335938 26.128906 20.871094 26.128906 L 11.539062 26.128906 C 10.953125 26.128906 10.4375 25.84375 10.128906 25.347656 C 9.816406 24.847656 9.789062 24.261719 10.046875 23.734375 L 11.320312 21.132812 L 4.113281 21.132812 C 3.714844 21.132812 3.386719 20.808594 3.386719 20.40625 L 3.386719 3.628906 C 3.386719 3.230469 3.714844 2.902344 4.113281 2.902344 L 14.917969 2.902344 C 15.113281 2.902344 15.292969 2.976562 15.433594 3.117188 L 17.410156 5.09375 C 17.550781 5.234375 17.625 5.410156 17.625 5.609375 L 17.625 11.796875 L 18.503906 11.796875 C 19.152344 11.796875 19.679688 12.320312 19.679688 12.96875 C 19.679688 13.476562 19.351562 13.910156 18.898438 14.074219 L 18.898438 16.675781 L 20.339844 19.613281 L 22.664062 18.273438 C 23.152344 17.992188 23.722656 17.917969 24.273438 18.0625 C 24.820312 18.210938 25.277344 18.5625 25.558594 19.050781 C 25.839844 19.539062 25.914062 20.109375 25.769531 20.65625 C 25.621094 21.203125 25.273438 21.660156 24.785156 21.945312 L 24.761719 21.957031 L 24.785156 21.964844 C 25.914062 22.265625 26.585938 23.429688 26.285156 24.558594 Z M 21.136719 20.019531 L 22.507812 22.394531 L 24.410156 21.296875 C 24.722656 21.113281 24.949219 20.816406 25.046875 20.464844 C 25.140625 20.109375 25.09375 19.738281 24.910156 19.425781 C 24.730469 19.109375 24.433594 18.882812 24.078125 18.789062 C 23.722656 18.691406 23.355469 18.742188 23.039062 18.921875 Z M 21.039062 24.570312 L 21.1875 24.019531 L 20.488281 24.421875 Z M 18.585938 21.492188 C 18.273438 21.675781 18.046875 21.972656 17.949219 22.324219 C 17.855469 22.679688 17.902344 23.050781 18.085938 23.363281 C 18.464844 24.019531 19.300781 24.242188 19.957031 23.867188 L 21.859375 22.769531 L 20.488281 20.394531 Z M 18.503906 12.542969 L 13.902344 12.542969 C 13.671875 12.542969 13.480469 12.734375 13.480469 12.96875 C 13.480469 13.203125 13.671875 13.394531 13.902344 13.394531 L 18.503906 13.394531 C 18.738281 13.394531 18.929688 13.203125 18.929688 12.96875 C 18.929688 12.734375 18.738281 12.542969 18.503906 12.542969 Z M 15.4375 5.089844 L 16.34375 5.089844 L 15.4375 4.183594 Z M 11.691406 20.382812 L 12.628906 18.472656 L 6.515625 18.472656 C 6.308594 18.472656 6.140625 18.304688 6.140625 18.097656 C 6.140625 17.890625 6.308594 17.722656 6.515625 17.722656 L 12.996094 17.722656 L 13.507812 16.675781 L 13.507812 16.121094 L 6.515625 16.121094 C 6.308594 16.121094 6.140625 15.953125 6.140625 15.746094 C 6.140625 15.539062 6.308594 15.371094 6.515625 15.371094 L 13.507812 15.371094 L 13.507812 14.074219 C 13.332031 14.007812 13.171875 13.902344 13.046875 13.765625 L 6.515625 13.765625 C 6.308594 13.765625 6.140625 13.601562 6.140625 13.394531 C 6.140625 13.1875 6.308594 13.019531 6.515625 13.019531 L 12.730469 13.019531 C 12.730469 13 12.730469 12.984375 12.730469 12.96875 C 12.730469 12.320312 13.257812 11.796875 13.902344 11.796875 L 16.875 11.796875 L 16.875 5.835938 L 15.242188 5.835938 C 14.9375 5.835938 14.691406 5.589844 14.691406 5.285156 L 14.691406 3.652344 L 4.136719 3.652344 L 4.136719 20.382812 Z M 21.078125 25.359375 C 21.078125 25.359375 18.695312 24.71875 18.683594 24.714844 C 18.175781 24.566406 17.722656 24.230469 17.4375 23.738281 C 16.851562 22.726562 17.199219 21.429688 18.210938 20.84375 L 19.691406 19.992188 L 18.1875 16.929688 C 18.164062 16.878906 18.152344 16.820312 18.152344 16.761719 L 18.152344 14.140625 L 14.257812 14.140625 L 14.257812 16.761719 C 14.257812 16.820312 14.246094 16.878906 14.21875 16.929688 L 10.71875 24.066406 C 10.574219 24.359375 10.589844 24.671875 10.761719 24.949219 C 10.9375 25.226562 11.210938 25.378906 11.539062 25.378906 L 20.871094 25.378906 C 20.945312 25.378906 21.011719 25.371094 21.078125 25.359375 Z M 24.59375 22.6875 L 23.84375 22.488281 L 22.101562 23.492188 L 21.761719 24.765625 L 23.882812 25.332031 C 24.613281 25.527344 25.367188 25.09375 25.5625 24.363281 C 25.757812 23.636719 25.320312 22.882812 24.59375 22.6875 Z M 18.378906 4.953125 C 18.378906 4.257812 18.949219 3.6875 19.644531 3.6875 C 20.34375 3.6875 20.910156 4.257812 20.910156 4.953125 C 20.910156 5.152344 20.867188 5.335938 20.785156 5.503906 L 21.847656 6.488281 C 22.082031 6.335938 22.363281 6.246094 22.664062 6.246094 C 22.871094 6.246094 23.0625 6.289062 23.242188 6.363281 L 24.324219 4.914062 C 24.171875 4.703125 24.082031 4.445312 24.082031 4.167969 C 24.082031 3.472656 24.648438 2.902344 25.347656 2.902344 C 26.046875 2.902344 26.613281 3.472656 26.613281 4.167969 C 26.613281 4.867188 26.046875 5.433594 25.347656 5.433594 C 25.199219 5.433594 25.054688 5.410156 24.921875 5.363281 L 23.839844 6.8125 C 24.050781 7.070312 24.175781 7.402344 24.175781 7.757812 C 24.175781 8.59375 23.5 9.269531 22.664062 9.269531 L 22.371094 10.410156 C 22.839844 10.667969 23.15625 11.167969 23.15625 11.738281 C 23.15625 11.875 23.136719 12.011719 23.101562 12.140625 L 23.863281 12.578125 C 24.089844 12.367188 24.390625 12.238281 24.722656 12.238281 C 25.421875 12.238281 25.988281 12.808594 25.988281 13.503906 C 25.988281 14.203125 25.421875 14.773438 24.722656 14.773438 C 24.550781 14.773438 24.386719 14.738281 24.238281 14.675781 L 23.246094 15.863281 C 23.375 16.058594 23.453125 16.296875 23.453125 16.550781 C 23.453125 17.246094 22.882812 17.816406 22.1875 17.816406 C 21.488281 17.816406 20.921875 17.246094 20.921875 16.550781 C 20.921875 15.851562 21.488281 15.285156 22.1875 15.285156 C 22.359375 15.285156 22.523438 15.316406 22.671875 15.382812 L 23.664062 14.195312 C 23.535156 13.996094 23.457031 13.757812 23.457031 13.503906 C 23.457031 13.410156 23.46875 13.316406 23.488281 13.226562 L 22.726562 12.789062 C 22.453125 13.074219 22.070312 13.25 21.644531 13.25 C 20.8125 13.25 20.132812 12.570312 20.132812 11.738281 C 20.132812 10.902344 20.8125 10.226562 21.644531 10.226562 L 21.9375 9.085938 C 21.472656 8.828125 21.152344 8.328125 21.152344 7.757812 C 21.152344 7.496094 21.21875 7.25 21.335938 7.039062 L 20.277344 6.050781 C 20.089844 6.160156 19.875 6.21875 19.644531 6.21875 C 18.949219 6.21875 18.378906 5.652344 18.378906 4.953125 Z M 22.703125 16.550781 C 22.703125 16.265625 22.46875 16.03125 22.1875 16.03125 C 21.902344 16.03125 21.667969 16.265625 21.667969 16.550781 C 21.667969 16.835938 21.902344 17.066406 22.1875 17.066406 C 22.46875 17.066406 22.703125 16.835938 22.703125 16.550781 Z M 24.207031 13.503906 C 24.207031 13.789062 24.4375 14.023438 24.722656 14.023438 C 25.007812 14.023438 25.242188 13.789062 25.242188 13.503906 C 25.242188 13.222656 25.007812 12.988281 24.722656 12.988281 C 24.4375 12.988281 24.207031 13.222656 24.207031 13.503906 Z M 22.40625 11.738281 C 22.40625 11.316406 22.066406 10.972656 21.644531 10.972656 C 21.222656 10.972656 20.882812 11.316406 20.882812 11.738281 C 20.882812 12.15625 21.222656 12.5 21.644531 12.5 C 22.066406 12.5 22.40625 12.15625 22.40625 11.738281 Z M 24.832031 4.167969 C 24.832031 4.453125 25.0625 4.683594 25.347656 4.683594 C 25.632812 4.683594 25.863281 4.453125 25.863281 4.167969 C 25.863281 3.882812 25.632812 3.652344 25.347656 3.652344 C 25.0625 3.652344 24.832031 3.882812 24.832031 4.167969 Z M 21.902344 7.757812 C 21.902344 8.179688 22.246094 8.523438 22.664062 8.523438 C 23.085938 8.523438 23.429688 8.179688 23.429688 7.757812 C 23.429688 7.339844 23.085938 6.996094 22.664062 6.996094 C 22.246094 6.996094 21.902344 7.339844 21.902344 7.757812 Z M 19.128906 4.953125 C 19.128906 5.238281 19.363281 5.472656 19.644531 5.472656 C 19.929688 5.472656 20.164062 5.238281 20.164062 4.953125 C 20.164062 4.667969 19.929688 4.4375 19.644531 4.4375 C 19.363281 4.4375 19.128906 4.667969 19.128906 4.953125 Z M 19.128906 4.953125 " fill-opacity="1" fill-rule="nonzero"/></g></svg>