<svg xmlns="http://www.w3.org/2000/svg" xmlns:xlink="http://www.w3.org/1999/xlink" width="40" zoomAndPan="magnify" viewBox="0 0 30 30.000001" height="40" preserveAspectRatio="xMidYMid meet" version="1.0"><defs><clipPath id="5bd580ea38"><path d="M 0.484375 0 L 29.515625 0 L 29.515625 29.03125 L 0.484375 29.03125 Z M 0.484375 0 " clip-rule="nonzero"/></clipPath><clipPath id="77fe4cf074"><path d="M 3.386719 5.023438 L 26.613281 5.023438 L 26.613281 23.894531 L 3.386719 23.894531 Z M 3.386719 5.023438 " clip-rule="nonzero"/></clipPath></defs><g clip-path="url(#5bd580ea38)"><path fill="#ffffff" d="M 0.484375 0 L 29.515625 0 L 29.515625 29.03125 L 0.484375 29.03125 Z M 0.484375 0 " fill-opacity="1" fill-rule="nonzero"/><path fill="#ffffff" d="M 0.484375 0 L 29.515625 0 L 29.515625 29.03125 L 0.484375 29.03125 Z M 0.484375 0 " fill-opacity="1" fill-rule="nonzero"/></g><g clip-path="url(#77fe4cf074)"><path fill="#935f3d" d="M 15.574219 15.074219 C 15.425781 15.058594 15.277344 15.050781 15.128906 15.054688 C 14.257812 15.074219 13.523438 14.589844 13.164062 13.839844 C 13.035156 13.570312 12.96875 13.1875 12.96875 12.699219 C 12.964844 10.949219 12.964844 9.203125 12.96875 7.457031 C 12.96875 6.949219 13.035156 6.554688 13.167969 6.273438 C 13.6875 5.167969 14.59375 5.03125 15.816406 5.03125 C 18.628906 5.03125 21.445312 5.027344 24.257812 5.027344 C 25.328125 5.027344 26.042969 5.453125 26.40625 6.304688 C 26.546875 6.621094 26.613281 7.097656 26.609375 7.726562 C 26.605469 9.261719 26.605469 10.792969 26.609375 12.324219 C 26.609375 13.515625 26.421875 14.414062 25.324219 14.875 C 25.027344 15.003906 24.558594 15.066406 23.921875 15.0625 C 22.515625 15.058594 21.109375 15.058594 19.710938 15.0625 C 19.601562 15.0625 19.484375 15.09375 19.386719 15.152344 L 15.03125 17.769531 C 14.960938 17.808594 14.9375 17.792969 14.957031 17.714844 L 15.632812 15.160156 C 15.648438 15.105469 15.625 15.078125 15.574219 15.074219 Z M 9.144531 19.160156 C 9.773438 18.570312 10.378906 17.960938 10.964844 17.332031 C 11.390625 16.875 12.882812 17.359375 13.441406 17.589844 C 14.472656 18.011719 14.71875 18.582031 14.714844 19.703125 C 14.714844 21.105469 14.710938 22.507812 14.707031 23.902344 C 14.707031 23.96875 14.675781 24 14.609375 24 L 3.476562 24 C 3.425781 24 3.402344 23.976562 3.398438 23.925781 C 3.386719 22.40625 3.386719 20.898438 3.394531 19.386719 C 3.398438 18.988281 3.464844 18.671875 3.59375 18.441406 C 4.128906 17.488281 5.347656 17.191406 6.433594 17.082031 C 6.789062 17.046875 7.0625 17.136719 7.253906 17.347656 C 7.820312 17.96875 8.402344 18.570312 9.007812 19.15625 C 9.050781 19.199219 9.097656 19.199219 9.144531 19.160156 Z M 12.304688 20.585938 L 12.296875 23.164062 C 12.296875 23.265625 12.347656 23.3125 12.449219 23.3125 L 13.925781 23.316406 C 13.976562 23.316406 14.003906 23.289062 14.003906 23.238281 C 14.011719 21.914062 14.011719 20.589844 14 19.265625 C 13.992188 18.214844 12.328125 17.878906 11.558594 17.875 C 11.480469 17.875 11.414062 17.902344 11.355469 17.960938 L 9.175781 20.152344 C 9.113281 20.214844 9.054688 20.214844 8.992188 20.152344 L 6.679688 17.839844 C 6.644531 17.800781 6.59375 17.78125 6.535156 17.78125 C 5.820312 17.796875 5.171875 17.996094 4.589844 18.378906 C 4.179688 18.648438 4.089844 18.910156 4.085938 19.382812 C 4.078125 20.664062 4.078125 21.953125 4.082031 23.238281 C 4.082031 23.289062 4.109375 23.316406 4.160156 23.316406 L 5.789062 23.3125 C 5.835938 23.3125 5.859375 23.289062 5.859375 23.238281 L 5.859375 20.582031 C 5.859375 20.523438 5.886719 20.492188 5.949219 20.492188 L 6.457031 20.480469 C 6.527344 20.480469 6.5625 20.515625 6.558594 20.585938 L 6.550781 23.21875 C 6.550781 23.273438 6.597656 23.316406 6.648438 23.316406 L 11.539062 23.3125 C 11.585938 23.3125 11.609375 23.289062 11.609375 23.246094 L 11.609375 20.554688 C 11.609375 20.503906 11.636719 20.480469 11.6875 20.480469 L 12.210938 20.492188 C 12.273438 20.492188 12.304688 20.523438 12.304688 20.585938 Z M 22.824219 12.0625 L 24.761719 12.0625 C 24.804688 12.0625 24.835938 12.09375 24.835938 12.136719 L 24.835938 12.683594 C 24.835938 12.722656 24.804688 12.757812 24.761719 12.757812 L 22.824219 12.757812 C 22.78125 12.757812 22.75 12.722656 22.75 12.683594 L 22.75 12.136719 C 22.75 12.09375 22.78125 12.0625 22.824219 12.0625 Z M 12.308594 13.453125 C 12.308594 15.230469 10.867188 16.675781 9.089844 16.675781 C 7.308594 16.675781 5.867188 15.230469 5.867188 13.453125 C 5.867188 11.675781 7.308594 10.234375 9.089844 10.234375 C 10.867188 10.234375 12.308594 11.675781 12.308594 13.453125 Z M 11.597656 13.453125 C 11.597656 12.066406 10.472656 10.941406 9.085938 10.941406 C 7.699219 10.941406 6.574219 12.066406 6.574219 13.453125 C 6.574219 14.839844 7.699219 15.964844 9.085938 15.964844 C 10.472656 15.964844 11.597656 14.839844 11.597656 13.453125 Z M 22.847656 9.621094 L 24.746094 9.625 C 24.804688 9.625 24.847656 9.667969 24.847656 9.722656 L 24.84375 10.222656 C 24.84375 10.277344 24.800781 10.324219 24.746094 10.320312 L 22.84375 10.316406 C 22.789062 10.316406 22.746094 10.273438 22.746094 10.21875 L 22.746094 9.71875 C 22.746094 9.664062 22.789062 9.621094 22.847656 9.621094 Z M 22.84375 7.191406 L 24.75 7.1875 C 24.800781 7.1875 24.839844 7.230469 24.839844 7.277344 L 24.84375 7.789062 C 24.84375 7.839844 24.800781 7.882812 24.75 7.882812 L 22.84375 7.882812 C 22.792969 7.882812 22.75 7.84375 22.75 7.792969 L 22.75 7.28125 C 22.75 7.230469 22.789062 7.191406 22.84375 7.191406 Z M 21.949219 9.941406 C 21.949219 11.996094 20.285156 13.65625 18.234375 13.65625 C 16.179688 13.65625 14.519531 11.996094 14.519531 9.941406 C 14.519531 7.890625 16.179688 6.226562 18.234375 6.226562 C 20.285156 6.226562 21.949219 7.890625 21.949219 9.941406 Z M 17.796875 6.972656 C 15.871094 7.292969 14.699219 9.230469 15.46875 11.074219 C 16.25 12.949219 18.417969 13.496094 20.023438 12.359375 C 20.042969 12.347656 20.054688 12.324219 20.054688 12.304688 C 20.054688 12.285156 20.046875 12.265625 20.03125 12.253906 L 18.019531 10.242188 C 17.921875 10.144531 17.863281 10.011719 17.863281 9.871094 L 17.875 7.039062 C 17.875 6.984375 17.851562 6.960938 17.796875 6.972656 Z M 21.222656 9.507812 C 20.992188 8.167969 19.988281 7.191406 18.664062 6.96875 C 18.605469 6.960938 18.578125 6.984375 18.578125 7.039062 L 18.578125 9.503906 C 18.578125 9.5625 18.605469 9.589844 18.660156 9.589844 L 21.15625 9.582031 C 21.207031 9.582031 21.226562 9.554688 21.222656 9.507812 Z M 20.613281 11.824219 C 20.621094 11.832031 20.632812 11.835938 20.648438 11.835938 C 20.667969 11.835938 20.679688 11.824219 20.691406 11.804688 C 21 11.375 21.199219 10.894531 21.296875 10.351562 C 21.300781 10.34375 21.300781 10.335938 21.300781 10.328125 C 21.300781 10.304688 21.277344 10.28125 21.25 10.28125 L 19.203125 10.289062 C 19.175781 10.289062 19.15625 10.3125 19.15625 10.335938 C 19.15625 10.351562 19.160156 10.363281 19.167969 10.371094 C 19.652344 10.855469 20.132812 11.335938 20.613281 11.824219 Z M 16.535156 14.464844 L 16.078125 16.207031 C 16.074219 16.210938 16.074219 16.214844 16.074219 16.21875 C 16.074219 16.25 16.097656 16.273438 16.128906 16.273438 C 16.140625 16.273438 16.152344 16.269531 16.15625 16.265625 L 19.253906 14.40625 C 19.296875 14.378906 19.347656 14.363281 19.398438 14.363281 C 21.023438 14.355469 22.652344 14.351562 24.277344 14.359375 C 25.582031 14.363281 25.929688 13.589844 25.921875 12.371094 C 25.921875 10.832031 25.921875 9.289062 25.929688 7.742188 C 25.929688 6.476562 25.53125 5.726562 24.144531 5.726562 C 21.160156 5.714844 18.175781 5.714844 15.191406 5.726562 C 14.574219 5.730469 14.136719 5.96875 13.875 6.441406 C 13.734375 6.699219 13.664062 7.109375 13.664062 7.667969 C 13.664062 9.292969 13.664062 10.917969 13.664062 12.542969 C 13.664062 13.042969 13.734375 13.414062 13.871094 13.65625 C 14.421875 14.613281 15.5625 14.308594 16.464844 14.363281 C 16.527344 14.367188 16.550781 14.402344 16.535156 14.464844 Z M 16.535156 14.464844 " fill-opacity="1" fill-rule="evenodd"/></g></svg>