<svg xmlns="http://www.w3.org/2000/svg" xmlns:xlink="http://www.w3.org/1999/xlink" width="40" zoomAndPan="magnify" viewBox="0 0 30 30.000001" height="40" preserveAspectRatio="xMidYMid meet" version="1.0"><defs><clipPath id="9393523c34"><path d="M 0.484375 0 L 29.515625 0 L 29.515625 29.03125 L 0.484375 29.03125 Z M 0.484375 0 " clip-rule="nonzero"/></clipPath><clipPath id="1c77857348"><path d="M 3.386719 2.902344 L 26.613281 2.902344 L 26.613281 26.128906 L 3.386719 26.128906 Z M 3.386719 2.902344 " clip-rule="nonzero"/></clipPath></defs><g clip-path="url(#9393523c34)"><path fill="#ffffff" d="M 0.484375 0 L 29.515625 0 L 29.515625 29.03125 L 0.484375 29.03125 Z M 0.484375 0 " fill-opacity="1" fill-rule="nonzero"/><path fill="#ffffff" d="M 0.484375 0 L 29.515625 0 L 29.515625 29.03125 L 0.484375 29.03125 Z M 0.484375 0 " fill-opacity="1" fill-rule="nonzero"/></g><g clip-path="url(#1c77857348)"><path fill="#935f3d" d="M 24.621094 16.96875 C 22.457031 16.96875 21.375 19.589844 22.902344 21.117188 C 23.183594 21.398438 23.183594 21.855469 22.902344 22.136719 L 21.351562 23.691406 C 21.070312 23.972656 20.613281 23.972656 20.332031 23.691406 C 18.800781 22.160156 16.183594 23.246094 16.183594 25.40625 C 16.183594 25.804688 15.859375 26.128906 15.460938 26.128906 L 13.265625 26.128906 C 12.867188 26.128906 12.546875 25.804688 12.546875 25.40625 C 12.546875 23.242188 9.929688 22.160156 8.398438 23.691406 C 8.117188 23.972656 7.660156 23.972656 7.378906 23.691406 L 5.824219 22.136719 C 5.542969 21.855469 5.542969 21.398438 5.824219 21.117188 C 7.355469 19.589844 6.269531 16.96875 4.109375 16.96875 C 3.710938 16.96875 3.386719 16.648438 3.386719 16.25 L 3.386719 14.054688 C 3.386719 13.65625 3.710938 13.332031 4.109375 13.332031 C 6.269531 13.332031 7.355469 10.714844 5.824219 9.1875 C 5.542969 8.902344 5.542969 8.449219 5.824219 8.164062 L 7.378906 6.613281 C 7.660156 6.332031 8.117188 6.332031 8.398438 6.613281 C 9.925781 8.140625 12.546875 7.058594 12.546875 4.894531 C 12.546875 4.496094 12.867188 4.175781 13.265625 4.175781 L 15.460938 4.175781 C 15.859375 4.175781 16.183594 4.496094 16.183594 4.894531 C 16.183594 5.242188 16.25 5.5625 16.371094 5.847656 L 9.375 7.722656 C 8.972656 7.832031 8.75 8.25 8.882812 8.644531 C 9.152344 9.433594 9.496094 9.792969 9.902344 9.933594 C 10.144531 10.019531 10.390625 10.015625 10.640625 9.972656 L 10.308594 11.78125 C 9.546875 12.695312 9.089844 13.871094 9.089844 15.152344 C 9.089844 17.960938 11.285156 20.257812 14.054688 20.417969 C 14.039062 20.492188 14.03125 20.566406 14.03125 20.644531 L 14.03125 21.394531 C 14.03125 21.578125 14.183594 21.730469 14.367188 21.730469 L 18.601562 21.730469 C 18.785156 21.730469 18.9375 21.578125 18.9375 21.394531 L 18.9375 20.644531 C 18.9375 20.148438 18.597656 19.714844 18.121094 19.59375 C 18.070312 19.386719 18.023438 19.183594 17.984375 18.984375 C 19.003906 18.023438 19.636719 16.664062 19.636719 15.152344 C 19.636719 14.917969 19.625 14.6875 19.59375 14.460938 L 21.140625 13.652344 C 21.753906 13.332031 22.152344 12.796875 22.289062 12.121094 L 22.355469 11.777344 C 22.695312 12.648438 23.515625 13.332031 24.621094 13.332031 C 25.019531 13.332031 25.339844 13.65625 25.339844 14.054688 L 25.339844 16.25 C 25.339844 16.648438 25.019531 16.96875 24.621094 16.96875 Z M 18.382812 10.375 L 17.183594 10.695312 C 17.714844 11.03125 18.183594 11.460938 18.5625 11.960938 L 18.652344 11.90625 C 18.859375 11.785156 18.96875 11.578125 18.949219 11.339844 L 18.90625 10.742188 C 18.886719 10.480469 18.640625 10.304688 18.382812 10.375 Z M 23.214844 3.296875 C 22.824219 3.402344 22.59375 3.804688 22.695312 4.195312 L 24.019531 9.132812 C 24.125 9.527344 24.527344 9.757812 24.917969 9.652344 L 25.988281 9.367188 C 26.378906 9.265625 26.609375 8.859375 26.507812 8.46875 L 25.183594 3.53125 C 25.078125 3.140625 24.671875 2.90625 24.28125 3.011719 Z M 14.027344 9.328125 C 14.121094 9.164062 14.324219 9.109375 14.484375 9.203125 C 14.648438 9.296875 14.703125 9.5 14.609375 9.660156 L 13.570312 11.460938 C 13.410156 11.742188 13.371094 12.03125 13.457031 12.347656 L 14.371094 15.761719 C 14.4375 16.007812 14.695312 16.136719 14.929688 16.039062 C 15.5625 15.777344 15.671875 15.457031 15.5 14.800781 L 14.941406 12.730469 C 14.867188 12.441406 14.90625 12.15625 15.058594 11.898438 L 15.683594 10.835938 C 15.882812 10.496094 16.1875 10.265625 16.566406 10.164062 L 18.210938 9.722656 C 18.871094 9.542969 19.527344 10.011719 19.578125 10.695312 L 19.621094 11.292969 C 19.660156 11.789062 19.421875 12.238281 18.992188 12.488281 L 17.96875 13.085938 C 17.535156 13.335938 17.019531 13.699219 17.171875 14.273438 C 17.234375 14.507812 17.304688 14.691406 17.398438 14.765625 C 17.484375 14.832031 17.65625 14.714844 17.738281 14.675781 L 20.832031 13.054688 C 21.261719 12.828125 21.53125 12.464844 21.628906 11.992188 L 22.167969 9.308594 C 22.253906 8.875 22.578125 8.5625 23.003906 8.460938 L 23.132812 8.429688 L 22.207031 4.980469 L 17.027344 6.371094 C 16.894531 6.40625 16.789062 6.460938 16.679688 6.542969 L 12.683594 9.695312 C 12.417969 9.902344 12.273438 10.171875 12.242188 10.511719 L 11.9375 14.0625 C 11.914062 14.328125 12.132812 14.542969 12.402344 14.511719 C 12.722656 14.472656 13.074219 14.335938 13.203125 14.015625 L 12.804688 12.523438 C 12.675781 12.035156 12.738281 11.558594 12.988281 11.125 Z M 14.707031 21.054688 L 18.261719 21.054688 L 18.261719 20.644531 C 18.261719 20.417969 18.078125 20.234375 17.851562 20.234375 L 15.117188 20.234375 C 14.890625 20.234375 14.707031 20.417969 14.707031 20.644531 Z M 16.488281 14.296875 C 16.347656 14.296875 16.214844 14.320312 16.082031 14.375 L 16.148438 14.628906 C 16.308594 15.226562 16.304688 15.832031 15.828125 16.273438 C 16.015625 16.414062 16.25 16.492188 16.484375 16.492188 C 17.066406 16.492188 17.550781 16.035156 17.578125 15.453125 C 16.910156 15.554688 16.582031 14.851562 16.488281 14.296875 Z M 17.09375 17.058594 C 16.703125 17.203125 16.265625 17.203125 15.875 17.058594 C 15.839844 17.910156 15.742188 18.726562 15.550781 19.558594 L 17.417969 19.558594 C 17.222656 18.726562 17.128906 17.914062 17.09375 17.058594 Z M 15.1875 6.863281 L 9.546875 8.375 C 9.523438 8.382812 9.511719 8.402344 9.519531 8.425781 C 9.710938 8.984375 9.90625 9.222656 10.121094 9.296875 C 10.304688 9.359375 10.550781 9.3125 10.832031 9.242188 C 10.898438 9.078125 10.980469 8.925781 11.074219 8.785156 C 11.175781 8.628906 11.386719 8.589844 11.539062 8.691406 C 11.695312 8.792969 11.734375 9.003906 11.632812 9.15625 C 11.480469 9.382812 11.386719 9.636719 11.339844 9.902344 L 10.792969 12.867188 C 10.789062 12.890625 10.800781 12.914062 10.828125 12.914062 C 10.988281 12.929688 11.152344 12.9375 11.265625 12.894531 C 11.320312 12.878906 11.359375 12.835938 11.375 12.761719 L 11.570312 10.453125 C 11.617188 9.933594 11.855469 9.488281 12.269531 9.164062 Z M 15.1875 6.863281 " fill-opacity="1" fill-rule="evenodd"/></g></svg>