<svg xmlns="http://www.w3.org/2000/svg" xmlns:xlink="http://www.w3.org/1999/xlink" width="40" zoomAndPan="magnify" viewBox="0 0 30 30.000001" height="40" preserveAspectRatio="xMidYMid meet" version="1.0"><defs><clipPath id="f2c0319c2a"><path d="M 0.484375 0 L 29.515625 0 L 29.515625 29.03125 L 0.484375 29.03125 Z M 0.484375 0 " clip-rule="nonzero"/></clipPath><clipPath id="6240757cc3"><path d="M 4.941406 2.902344 L 25.261719 2.902344 L 25.261719 26.128906 L 4.941406 26.128906 Z M 4.941406 2.902344 " clip-rule="nonzero"/></clipPath></defs><g clip-path="url(#f2c0319c2a)"><path fill="#ffffff" d="M 0.484375 0 L 29.515625 0 L 29.515625 29.03125 L 0.484375 29.03125 Z M 0.484375 0 " fill-opacity="1" fill-rule="nonzero"/><path fill="#ffffff" d="M 0.484375 0 L 29.515625 0 L 29.515625 29.03125 L 0.484375 29.03125 Z M 0.484375 0 " fill-opacity="1" fill-rule="nonzero"/></g><g clip-path="url(#6240757cc3)"><path fill="#935f3d" d="M 21.558594 11.46875 C 21.558594 12.746094 20.519531 13.78125 19.242188 13.78125 C 17.96875 13.78125 16.929688 12.746094 16.929688 11.46875 C 16.929688 10.191406 17.96875 9.152344 19.242188 9.152344 C 20.519531 9.152344 21.558594 10.191406 21.558594 11.46875 Z M 21.558594 14.554688 C 21.769531 14.554688 21.945312 14.726562 21.945312 14.941406 C 21.945312 15.152344 21.769531 15.328125 21.558594 15.328125 L 16.929688 15.328125 C 16.714844 15.328125 16.542969 15.152344 16.542969 14.941406 C 16.542969 14.726562 16.714844 14.554688 16.929688 14.554688 Z M 23.875 23.429688 C 23.875 23.742188 23.664062 23.808594 23.488281 23.8125 L 15.003906 23.8125 C 14.824219 23.808594 14.613281 23.742188 14.613281 23.429688 C 14.613281 23.113281 14.832031 22.855469 15.253906 22.386719 C 16.125 21.421875 17.421875 19.972656 17.675781 16.097656 L 20.8125 16.097656 C 21.066406 19.972656 22.363281 21.421875 23.234375 22.386719 C 23.652344 22.855469 23.875 23.113281 23.875 23.429688 Z M 14.226562 25.355469 C 14.226562 24.933594 14.574219 24.585938 15 24.585938 L 23.488281 24.585938 C 23.914062 24.585938 24.257812 24.933594 24.261719 25.355469 Z M 5.738281 21.886719 L 5.738281 8.320312 C 5.738281 8.007812 5.898438 7.71875 6.160156 7.546875 L 11.796875 3.898438 C 12.101562 3.707031 12.5 3.707031 12.800781 3.898438 L 18.4375 7.550781 C 18.699219 7.71875 18.859375 8.007812 18.859375 8.320312 L 18.859375 8.410156 C 17.335938 8.597656 16.15625 9.898438 16.15625 11.46875 C 16.15625 12.390625 16.566406 13.214844 17.207031 13.78125 L 16.929688 13.78125 C 16.289062 13.78125 15.769531 14.300781 15.769531 14.941406 C 15.769531 15.570312 16.277344 16.082031 16.902344 16.09375 C 16.65625 19.667969 15.476562 20.988281 14.679688 21.871094 C 14.328125 22.261719 14.019531 22.609375 13.898438 23.042969 L 6.898438 23.042969 C 6.257812 23.042969 5.738281 22.523438 5.738281 21.886719 Z M 18.855469 6.898438 L 13.214844 3.25 C 12.664062 2.898438 11.9375 2.894531 11.378906 3.25 L 5.746094 6.898438 C 5.257812 7.210938 4.96875 7.742188 4.96875 8.320312 L 4.96875 21.886719 C 4.96875 22.949219 5.832031 23.8125 6.898438 23.8125 L 13.902344 23.8125 C 13.945312 23.945312 14 24.054688 14.066406 24.136719 C 13.699219 24.421875 13.457031 24.859375 13.457031 25.355469 C 13.457031 25.78125 13.804688 26.128906 14.226562 26.128906 L 24.257812 26.128906 C 24.683594 26.128906 25.03125 25.78125 25.03125 25.355469 C 25.03125 24.859375 24.789062 24.421875 24.421875 24.136719 C 24.539062 23.984375 24.644531 23.757812 24.644531 23.429688 C 24.644531 22.800781 24.257812 22.367188 23.804688 21.871094 C 23.011719 20.988281 21.828125 19.667969 21.582031 16.09375 C 22.210938 16.082031 22.714844 15.570312 22.714844 14.941406 C 22.714844 14.300781 22.199219 13.78125 21.558594 13.78125 L 21.277344 13.78125 C 21.921875 13.214844 22.328125 12.390625 22.328125 11.46875 C 22.328125 9.898438 21.148438 8.597656 19.628906 8.410156 L 19.628906 8.320312 C 19.628906 7.742188 19.339844 7.210938 18.855469 6.898438 " fill-opacity="1" fill-rule="nonzero"/></g><path fill="#935f3d" d="M 12.300781 6.066406 C 12.722656 6.066406 13.070312 6.414062 13.070312 6.839844 C 13.070312 7.261719 12.722656 7.609375 12.300781 7.609375 C 11.875 7.609375 11.527344 7.261719 11.527344 6.839844 C 11.527344 6.414062 11.875 6.066406 12.300781 6.066406 Z M 12.300781 8.382812 C 13.148438 8.382812 13.84375 7.691406 13.84375 6.839844 C 13.84375 5.988281 13.148438 5.296875 12.300781 5.296875 C 11.449219 5.296875 10.753906 5.988281 10.753906 6.839844 C 10.753906 7.691406 11.449219 8.382812 12.300781 8.382812 " fill-opacity="1" fill-rule="nonzero"/><path fill="#935f3d" d="M 10.371094 13.203125 C 10.371094 12.5625 11.046875 12.011719 11.914062 11.882812 L 11.914062 14.441406 C 10.945312 14.175781 10.371094 13.894531 10.371094 13.203125 Z M 14.226562 16.675781 C 14.226562 17.316406 13.554688 17.867188 12.683594 18 L 12.683594 15.4375 C 13.652344 15.707031 14.226562 15.984375 14.226562 16.675781 Z M 12.683594 18.773438 C 13.992188 18.625 15 17.742188 15 16.675781 C 15 15.339844 13.785156 14.925781 12.683594 14.640625 L 12.683594 11.886719 C 13.664062 12.039062 14.328125 12.714844 14.335938 12.71875 C 14.480469 12.875 14.726562 12.882812 14.878906 12.734375 C 15.035156 12.589844 15.039062 12.34375 14.890625 12.191406 C 14.851562 12.148438 13.992188 11.261719 12.683594 11.109375 L 12.683594 10.695312 C 12.683594 10.484375 12.511719 10.3125 12.300781 10.3125 C 12.085938 10.3125 11.914062 10.484375 11.914062 10.695312 L 11.914062 11.105469 C 10.605469 11.253906 9.597656 12.136719 9.597656 13.203125 C 9.597656 14.542969 10.8125 14.957031 11.914062 15.242188 L 11.914062 17.992188 C 10.933594 17.839844 10.269531 17.167969 10.261719 17.160156 C 10.117188 17.003906 9.871094 17 9.71875 17.144531 C 9.5625 17.292969 9.558594 17.539062 9.707031 17.691406 C 9.746094 17.730469 10.605469 18.617188 11.914062 18.773438 L 11.914062 19.183594 C 11.914062 19.398438 12.085938 19.570312 12.300781 19.570312 C 12.511719 19.570312 12.683594 19.398438 12.683594 19.183594 L 12.683594 18.773438 " fill-opacity="1" fill-rule="nonzero"/></svg>