<svg xmlns="http://www.w3.org/2000/svg" xmlns:xlink="http://www.w3.org/1999/xlink" width="40" zoomAndPan="magnify" viewBox="0 0 30 30.000001" height="40" preserveAspectRatio="xMidYMid meet" version="1.0"><defs><clipPath id="05a8f76e5f"><path d="M 0.484375 0 L 29.515625 0 L 29.515625 29.03125 L 0.484375 29.03125 Z M 0.484375 0 " clip-rule="nonzero"/></clipPath><clipPath id="cc5f1af84e"><path d="M 3.386719 3.5 L 26.613281 3.5 L 26.613281 25.273438 L 3.386719 25.273438 Z M 3.386719 3.5 " clip-rule="nonzero"/></clipPath></defs><g clip-path="url(#05a8f76e5f)"><path fill="#ffffff" d="M 0.484375 0 L 29.515625 0 L 29.515625 29.03125 L 0.484375 29.03125 Z M 0.484375 0 " fill-opacity="1" fill-rule="nonzero"/><path fill="#ffffff" d="M 0.484375 0 L 29.515625 0 L 29.515625 29.03125 L 0.484375 29.03125 Z M 0.484375 0 " fill-opacity="1" fill-rule="nonzero"/></g><g clip-path="url(#cc5f1af84e)"><path fill="#935f3d" d="M 24.707031 6.160156 L 10.183594 6.160156 C 9.878906 6.160156 9.585938 6.234375 9.324219 6.375 L 8.785156 5.582031 L 8.230469 4.765625 C 8.046875 4.492188 7.765625 4.308594 7.441406 4.246094 C 7.214844 4.203125 6.984375 4.222656 6.773438 4.300781 L 6.351562 3.679688 C 6.265625 3.546875 6.085938 3.515625 5.953125 3.605469 C 5.820312 3.691406 5.785156 3.871094 5.875 4.003906 L 6.296875 4.625 C 5.917969 5.039062 5.859375 5.671875 6.183594 6.152344 L 6.574219 6.730469 L 5.992188 7.125 C 5.925781 7.167969 5.882812 7.234375 5.867188 7.308594 C 5.855469 7.382812 5.871094 7.460938 5.914062 7.527344 L 7.496094 9.863281 C 7.550781 9.945312 7.644531 9.992188 7.734375 9.992188 C 7.792969 9.992188 7.847656 9.976562 7.898438 9.941406 C 8.03125 9.851562 8.066406 9.671875 7.976562 9.539062 L 6.554688 7.441406 L 6.898438 7.210938 L 8.355469 9.359375 L 8.355469 10.597656 L 7.816406 10.597656 C 7.613281 10.597656 7.453125 10.757812 7.445312 10.957031 L 7.421875 11.710938 C 7.128906 11.796875 6.847656 11.917969 6.578125 12.0625 L 6.027344 11.546875 C 5.882812 11.40625 5.65625 11.410156 5.511719 11.554688 L 4.339844 12.722656 C 4.199219 12.867188 4.195312 13.09375 4.332031 13.238281 L 4.851562 13.789062 C 4.703125 14.058594 4.585938 14.339844 4.5 14.636719 L 3.746094 14.65625 C 3.542969 14.664062 3.386719 14.828125 3.386719 15.027344 L 3.386719 16.6875 C 3.386719 16.886719 3.542969 17.050781 3.746094 17.054688 L 4.5 17.078125 C 4.585938 17.371094 4.703125 17.65625 4.851562 17.925781 L 4.332031 18.472656 C 4.195312 18.621094 4.199219 18.847656 4.339844 18.988281 L 5.511719 20.160156 C 5.65625 20.304688 5.882812 20.308594 6.027344 20.167969 L 6.578125 19.652344 C 6.847656 19.796875 7.128906 19.914062 7.421875 20 L 7.449219 20.757812 C 7.453125 20.957031 7.617188 21.117188 7.816406 21.117188 L 8.355469 21.117188 L 8.355469 21.742188 L 6.761719 21.742188 C 6.601562 21.742188 6.472656 21.871094 6.472656 22.03125 L 6.472656 23.628906 C 6.472656 24.667969 7.316406 25.515625 8.359375 25.515625 L 21.492188 25.515625 C 21.492188 25.515625 21.496094 25.515625 21.496094 25.515625 C 22.535156 25.515625 23.382812 24.667969 23.382812 23.628906 L 23.382812 9.96875 L 26.324219 9.96875 C 26.484375 9.96875 26.613281 9.839844 26.613281 9.679688 L 26.613281 8.066406 C 26.613281 7.015625 25.757812 6.160156 24.707031 6.160156 Z M 6.839844 4.914062 C 6.984375 4.816406 7.160156 4.78125 7.332031 4.8125 C 7.507812 4.847656 7.65625 4.945312 7.753906 5.089844 L 8.144531 5.664062 L 7.054688 6.402344 L 6.664062 5.828125 C 6.460938 5.527344 6.539062 5.117188 6.839844 4.914062 Z M 8.46875 6.144531 L 11.546875 10.6875 L 10.453125 11.425781 L 8.886719 9.109375 L 7.378906 6.882812 Z M 11.867188 11.167969 C 12.109375 11.535156 12.3125 11.867188 12.484375 12.167969 C 12.488281 12.171875 12.492188 12.179688 12.496094 12.1875 C 13.351562 13.6875 13.382812 14.359375 13.320312 14.484375 C 13.15625 14.496094 12.300781 14.089844 10.78125 11.902344 Z M 8.355469 17.914062 C 7.910156 17.851562 7.5 17.648438 7.175781 17.324219 C 6.785156 16.933594 6.566406 16.410156 6.566406 15.855469 C 6.566406 15.300781 6.785156 14.78125 7.175781 14.386719 C 7.5 14.0625 7.910156 13.859375 8.355469 13.800781 Z M 8.019531 20.539062 L 7.996094 19.832031 C 7.992188 19.664062 7.878906 19.523438 7.71875 19.484375 C 7.371094 19.394531 7.042969 19.257812 6.738281 19.078125 C 6.59375 18.992188 6.414062 19.011719 6.292969 19.125 L 5.78125 19.609375 L 4.894531 18.722656 L 5.378906 18.210938 C 5.492188 18.089844 5.511719 17.910156 5.425781 17.765625 C 5.246094 17.460938 5.109375 17.128906 5.019531 16.785156 C 4.976562 16.621094 4.839844 16.511719 4.671875 16.507812 L 3.964844 16.484375 L 3.964844 15.230469 L 4.671875 15.207031 C 4.839844 15.203125 4.976562 15.089844 5.019531 14.929688 C 5.109375 14.585938 5.246094 14.253906 5.425781 13.949219 C 5.511719 13.804688 5.492188 13.625 5.378906 13.503906 L 4.894531 12.992188 L 5.78125 12.105469 L 6.292969 12.589844 C 6.414062 12.703125 6.59375 12.722656 6.738281 12.636719 C 7.042969 12.453125 7.375 12.316406 7.71875 12.230469 C 7.878906 12.1875 7.992188 12.050781 7.996094 11.882812 L 8.019531 11.175781 L 8.355469 11.175781 L 8.355469 13.21875 C 7.757812 13.28125 7.199219 13.546875 6.765625 13.980469 C 6.265625 14.480469 5.988281 15.148438 5.988281 15.855469 C 5.988281 16.566406 6.265625 17.234375 6.765625 17.734375 C 7.199219 18.167969 7.757812 18.429688 8.355469 18.496094 L 8.355469 20.539062 Z M 8.359375 24.9375 C 7.636719 24.9375 7.050781 24.351562 7.050781 23.628906 L 7.050781 22.320312 L 19.609375 22.320312 L 19.609375 23.628906 C 19.609375 24.136719 19.808594 24.597656 20.136719 24.9375 Z M 16.222656 18.066406 C 16.222656 18.355469 15.992188 18.585938 15.707031 18.585938 C 15.707031 18.585938 15.707031 18.585938 15.703125 18.585938 C 15.417969 18.585938 15.1875 18.351562 15.1875 18.066406 C 15.1875 17.78125 15.417969 17.546875 15.707031 17.546875 C 15.992188 17.546875 16.222656 17.78125 16.222656 18.066406 Z M 17.058594 20.914062 L 17.058594 21.742188 L 14.351562 21.742188 L 14.351562 20.914062 Z M 22.804688 23.628906 C 22.804688 24.351562 22.21875 24.9375 21.496094 24.9375 C 21.476562 24.9375 21.457031 24.9375 21.433594 24.9375 C 20.734375 24.902344 20.1875 24.328125 20.1875 23.628906 L 20.1875 22.03125 C 20.1875 21.871094 20.058594 21.742188 19.898438 21.742188 L 17.636719 21.742188 L 17.636719 20.625 C 17.636719 20.46875 17.507812 20.335938 17.347656 20.335938 L 15.992188 20.335938 L 15.992188 19.125 C 16.367188 19.023438 16.660156 18.730469 16.761719 18.355469 L 17.625 18.355469 L 17.625 19.410156 C 17.625 19.566406 17.753906 19.699219 17.914062 19.699219 L 21.195312 19.699219 C 21.355469 19.699219 21.484375 19.566406 21.484375 19.410156 L 21.484375 16.726562 C 21.484375 16.566406 21.355469 16.4375 21.195312 16.4375 L 17.914062 16.4375 C 17.753906 16.4375 17.625 16.566406 17.625 16.726562 L 17.625 17.777344 L 16.761719 17.777344 C 16.636719 17.3125 16.210938 16.96875 15.703125 16.96875 C 15.199219 16.96875 14.773438 17.3125 14.644531 17.777344 L 13.785156 17.777344 L 13.785156 16.726562 C 13.785156 16.566406 13.65625 16.4375 13.496094 16.4375 L 10.214844 16.4375 C 10.054688 16.4375 9.925781 16.566406 9.925781 16.726562 L 9.925781 19.410156 C 9.925781 19.566406 10.054688 19.699219 10.214844 19.699219 L 13.496094 19.699219 C 13.65625 19.699219 13.785156 19.566406 13.785156 19.410156 L 13.785156 18.355469 L 14.644531 18.355469 C 14.75 18.730469 15.042969 19.023438 15.414062 19.125 L 15.414062 20.335938 L 14.0625 20.335938 C 13.902344 20.335938 13.773438 20.46875 13.773438 20.625 L 13.773438 21.742188 L 8.933594 21.742188 L 8.933594 10.210938 L 10.136719 11.988281 C 10.867188 13.066406 11.574219 13.917969 12.171875 14.449219 C 12.632812 14.855469 13.019531 15.0625 13.324219 15.0625 C 13.351562 15.0625 13.375 15.058594 13.402344 15.054688 L 13.582031 15.320312 C 13.636719 15.402344 13.726562 15.445312 13.820312 15.445312 C 13.875 15.445312 13.933594 15.429688 13.980469 15.398438 C 14.113281 15.308594 14.148438 15.128906 14.058594 14.996094 L 13.859375 14.699219 C 13.953125 14.449219 13.921875 14.105469 13.8125 13.71875 L 17.335938 13.71875 C 17.492188 13.71875 17.625 13.589844 17.625 13.429688 C 17.625 13.269531 17.492188 13.140625 17.335938 13.140625 L 13.609375 13.140625 C 13.5 12.871094 13.367188 12.59375 13.226562 12.324219 L 17.335938 12.324219 C 17.492188 12.324219 17.625 12.195312 17.625 12.035156 C 17.625 11.875 17.492188 11.746094 17.335938 11.746094 L 12.90625 11.746094 C 12.625 11.265625 12.355469 10.851562 12.1875 10.601562 L 9.652344 6.859375 C 9.816406 6.78125 9.996094 6.738281 10.183594 6.738281 L 23.34375 6.738281 C 23.011719 7.082031 22.804688 7.550781 22.804688 8.066406 Z M 18.203125 17.015625 L 20.90625 17.015625 L 20.90625 19.121094 L 18.203125 19.121094 Z M 13.207031 19.121094 L 10.503906 19.121094 L 10.503906 17.015625 L 13.207031 17.015625 Z M 26.035156 9.390625 L 23.382812 9.390625 L 23.382812 8.066406 C 23.382812 7.335938 23.976562 6.738281 24.710938 6.738281 C 25.441406 6.738281 26.035156 7.332031 26.035156 8.066406 Z M 21.480469 7.917969 L 18.867188 7.917969 C 18.707031 7.917969 18.578125 8.046875 18.578125 8.207031 L 18.578125 14.867188 L 14.8125 14.867188 C 14.652344 14.867188 14.523438 14.996094 14.523438 15.15625 C 14.523438 15.316406 14.652344 15.445312 14.8125 15.445312 L 18.867188 15.445312 C 19.027344 15.445312 19.15625 15.316406 19.15625 15.15625 L 19.15625 14.414062 L 21.480469 14.414062 C 21.640625 14.414062 21.769531 14.285156 21.769531 14.125 L 21.769531 8.207031 C 21.769531 8.046875 21.640625 7.917969 21.480469 7.917969 Z M 21.191406 13.835938 L 19.15625 13.835938 L 19.15625 8.496094 L 21.191406 8.496094 Z M 12.324219 8.097656 C 12.324219 7.9375 12.457031 7.808594 12.617188 7.808594 L 14.417969 7.808594 C 14.578125 7.808594 14.707031 7.9375 14.707031 8.097656 C 14.707031 8.257812 14.578125 8.386719 14.417969 8.386719 L 12.617188 8.386719 C 12.457031 8.386719 12.324219 8.257812 12.324219 8.097656 Z M 15.226562 8.097656 C 15.226562 7.9375 15.355469 7.808594 15.515625 7.808594 L 17.316406 7.808594 C 17.476562 7.808594 17.605469 7.9375 17.605469 8.097656 C 17.605469 8.257812 17.476562 8.386719 17.316406 8.386719 L 15.515625 8.386719 C 15.355469 8.386719 15.226562 8.257812 15.226562 8.097656 Z M 17.625 9.445312 C 17.625 9.605469 17.492188 9.734375 17.335938 9.734375 L 12.3125 9.734375 C 12.152344 9.734375 12.023438 9.605469 12.023438 9.445312 C 12.023438 9.285156 12.152344 9.15625 12.3125 9.15625 L 17.335938 9.15625 C 17.492188 9.15625 17.625 9.285156 17.625 9.445312 Z M 14.707031 10.691406 C 14.707031 10.847656 14.578125 10.980469 14.417969 10.980469 L 13.105469 10.980469 C 12.945312 10.980469 12.816406 10.847656 12.816406 10.691406 C 12.816406 10.53125 12.945312 10.402344 13.105469 10.402344 L 14.417969 10.402344 C 14.578125 10.402344 14.707031 10.53125 14.707031 10.691406 Z M 17.605469 10.691406 C 17.605469 10.847656 17.476562 10.980469 17.316406 10.980469 L 15.515625 10.980469 C 15.355469 10.980469 15.226562 10.847656 15.226562 10.691406 C 15.226562 10.53125 15.355469 10.402344 15.515625 10.402344 L 17.316406 10.402344 C 17.476562 10.402344 17.605469 10.53125 17.605469 10.691406 Z M 17.605469 10.691406 " fill-opacity="1" fill-rule="nonzero"/></g></svg>