<svg xmlns="http://www.w3.org/2000/svg" xmlns:xlink="http://www.w3.org/1999/xlink" width="40" zoomAndPan="magnify" viewBox="0 0 30 30.000001" height="40" preserveAspectRatio="xMidYMid meet" version="1.0"><defs><clipPath id="91f1f5dbfe"><path d="M 0.484375 0 L 29.515625 0 L 29.515625 29.03125 L 0.484375 29.03125 Z M 0.484375 0 " clip-rule="nonzero"/></clipPath><clipPath id="0885cac6b7"><path d="M 3.386719 2.902344 L 26.613281 2.902344 L 26.613281 26.128906 L 3.386719 26.128906 Z M 3.386719 2.902344 " clip-rule="nonzero"/></clipPath></defs><g clip-path="url(#91f1f5dbfe)"><path fill="#ffffff" d="M 0.484375 0 L 29.515625 0 L 29.515625 29.03125 L 0.484375 29.03125 Z M 0.484375 0 " fill-opacity="1" fill-rule="nonzero"/><path fill="#ffffff" d="M 0.484375 0 L 29.515625 0 L 29.515625 29.03125 L 0.484375 29.03125 Z M 0.484375 0 " fill-opacity="1" fill-rule="nonzero"/></g><g clip-path="url(#0885cac6b7)"><path fill="#935f3d" d="M 5.910156 20.65625 C 6.007812 20.800781 5.96875 21.007812 5.824219 21.105469 C 5.765625 21.144531 5.699219 21.164062 5.640625 21.164062 C 5.535156 21.164062 5.433594 21.113281 5.371094 21.019531 C 4.058594 19.09375 3.367188 16.835938 3.367188 14.496094 C 3.367188 11.671875 4.367188 9.007812 6.203125 6.898438 L 4.152344 7.042969 C 3.972656 7.058594 3.816406 6.921875 3.804688 6.746094 C 3.789062 6.566406 3.925781 6.410156 4.101562 6.398438 L 6.972656 6.191406 C 7.058594 6.179688 7.140625 6.210938 7.207031 6.269531 C 7.273438 6.324219 7.3125 6.402344 7.320312 6.488281 L 7.527344 9.359375 C 7.542969 9.535156 7.40625 9.691406 7.230469 9.707031 C 7.21875 9.707031 7.210938 9.707031 7.203125 9.707031 C 7.035156 9.707031 6.890625 9.574219 6.878906 9.402344 L 6.726562 7.277344 C 4.976562 9.277344 4.015625 11.808594 4.015625 14.484375 C 4.015625 16.695312 4.671875 18.828125 5.910156 20.644531 Z M 21.136719 23.5625 C 19.320312 24.800781 17.1875 25.457031 14.976562 25.457031 C 12.300781 25.457031 9.769531 24.496094 7.773438 22.746094 L 9.894531 22.589844 C 10.074219 22.578125 10.207031 22.421875 10.195312 22.242188 C 10.179688 22.066406 10.019531 21.929688 9.847656 21.945312 L 6.976562 22.152344 C 6.800781 22.164062 6.664062 22.320312 6.679688 22.5 L 6.886719 25.371094 C 6.898438 25.542969 7.042969 25.671875 7.210938 25.671875 C 7.21875 25.671875 7.230469 25.671875 7.238281 25.671875 C 7.414062 25.660156 7.550781 25.503906 7.539062 25.324219 L 7.390625 23.273438 C 9.5 25.105469 12.164062 26.113281 14.988281 26.113281 C 17.328125 26.113281 19.585938 25.417969 21.511719 24.105469 C 21.660156 24.007812 21.699219 23.800781 21.597656 23.65625 C 21.5 23.507812 21.292969 23.46875 21.148438 23.566406 Z M 8.816406 5.425781 C 10.636719 4.1875 12.769531 3.53125 14.976562 3.53125 C 17.65625 3.53125 20.1875 4.492188 22.183594 6.242188 L 20.066406 6.394531 C 19.886719 6.40625 19.753906 6.5625 19.765625 6.742188 C 19.78125 6.914062 19.921875 7.042969 20.09375 7.042969 C 20.101562 7.042969 20.109375 7.042969 20.117188 7.042969 L 22.988281 6.835938 C 23.164062 6.824219 23.300781 6.667969 23.289062 6.488281 L 23.078125 3.621094 C 23.066406 3.441406 22.910156 3.308594 22.730469 3.320312 C 22.554688 3.332031 22.417969 3.488281 22.433594 3.667969 L 22.578125 5.722656 C 20.46875 3.890625 17.804688 2.882812 14.984375 2.882812 C 12.644531 2.882812 10.386719 3.574219 8.457031 4.886719 C 8.308594 4.988281 8.269531 5.191406 8.371094 5.339844 C 8.472656 5.484375 8.675781 5.523438 8.824219 5.425781 Z M 25.804688 21.945312 L 23.753906 22.089844 C 25.585938 19.980469 26.589844 17.316406 26.589844 14.496094 C 26.589844 12.15625 25.898438 9.898438 24.585938 7.96875 C 24.484375 7.820312 24.28125 7.78125 24.132812 7.882812 C 23.988281 7.984375 23.949219 8.1875 24.046875 8.335938 C 25.285156 10.152344 25.941406 12.285156 25.941406 14.496094 C 25.941406 17.171875 24.980469 19.703125 23.230469 21.699219 L 23.078125 19.578125 C 23.066406 19.398438 22.910156 19.261719 22.730469 19.277344 C 22.554688 19.292969 22.417969 19.449219 22.433594 19.625 L 22.640625 22.496094 C 22.644531 22.582031 22.6875 22.660156 22.753906 22.714844 C 22.8125 22.769531 22.886719 22.796875 22.964844 22.796875 C 22.976562 22.796875 22.984375 22.796875 22.988281 22.796875 L 25.859375 22.585938 C 26.035156 22.574219 26.171875 22.417969 26.15625 22.238281 C 26.144531 22.0625 25.984375 21.921875 25.808594 21.941406 Z M 17.144531 12.871094 L 11.5 9.609375 L 9.335938 10.859375 L 14.976562 14.125 L 17.148438 12.871094 Z M 20.617188 10.859375 L 15.140625 7.695312 C 15.039062 7.640625 14.914062 7.640625 14.8125 7.695312 L 12.152344 9.234375 L 17.796875 12.492188 Z M 9.003906 11.425781 L 14.648438 14.691406 L 14.648438 21.203125 L 9.167969 18.035156 C 9.070312 17.980469 9.003906 17.871094 9.003906 17.753906 Z M 11.339844 17.289062 L 13.078125 18.289062 C 13.128906 18.320312 13.183594 18.332031 13.238281 18.332031 C 13.351562 18.332031 13.457031 18.277344 13.519531 18.167969 C 13.609375 18.011719 13.554688 17.8125 13.398438 17.722656 L 11.660156 16.726562 C 11.503906 16.640625 11.304688 16.691406 11.21875 16.847656 C 11.128906 17.003906 11.183594 17.203125 11.339844 17.289062 Z M 20.941406 17.757812 L 20.941406 11.429688 L 18.121094 13.0625 L 18.121094 14.613281 C 18.121094 14.789062 17.972656 14.9375 17.796875 14.9375 C 17.617188 14.9375 17.46875 14.789062 17.46875 14.613281 L 17.46875 13.441406 L 15.300781 14.695312 L 15.300781 21.207031 L 20.777344 18.042969 C 20.878906 17.984375 20.941406 17.875 20.941406 17.757812 Z M 20.941406 17.757812 " fill-opacity="1" fill-rule="nonzero"/></g></svg>