<svg xmlns="http://www.w3.org/2000/svg" xmlns:xlink="http://www.w3.org/1999/xlink" width="40" zoomAndPan="magnify" viewBox="0 0 30 30.000001" height="40" preserveAspectRatio="xMidYMid meet" version="1.0"><defs><clipPath id="f3d09eb58d"><path d="M 0.484375 0 L 29.515625 0 L 29.515625 29.03125 L 0.484375 29.03125 Z M 0.484375 0 " clip-rule="nonzero"/></clipPath><clipPath id="c5b522d087"><path d="M 11 20 L 19 20 L 19 21.816406 L 11 21.816406 Z M 11 20 " clip-rule="nonzero"/></clipPath><clipPath id="500e4f88d5"><path d="M 3.386719 7.300781 L 26.613281 7.300781 L 26.613281 21.816406 L 3.386719 21.816406 Z M 3.386719 7.300781 " clip-rule="nonzero"/></clipPath></defs><g clip-path="url(#f3d09eb58d)"><path fill="#ffffff" d="M 0.484375 0 L 29.515625 0 L 29.515625 29.03125 L 0.484375 29.03125 Z M 0.484375 0 " fill-opacity="1" fill-rule="nonzero"/><path fill="#ffffff" d="M 0.484375 0 L 29.515625 0 L 29.515625 29.03125 L 0.484375 29.03125 Z M 0.484375 0 " fill-opacity="1" fill-rule="nonzero"/></g><path fill="#935f3d" d="M 8.339844 19.90625 C 8.339844 20.054688 8.460938 20.171875 8.605469 20.171875 L 13.214844 20.171875 C 13.363281 20.171875 13.480469 20.054688 13.480469 19.90625 C 13.480469 19.757812 13.363281 19.640625 13.214844 19.640625 L 8.605469 19.640625 C 8.460938 19.640625 8.339844 19.757812 8.339844 19.90625 Z M 8.339844 19.90625 " fill-opacity="1" fill-rule="nonzero"/><path fill="#935f3d" d="M 16.519531 19.90625 C 16.519531 20.054688 16.636719 20.171875 16.785156 20.171875 L 21.394531 20.171875 C 21.539062 20.171875 21.660156 20.054688 21.660156 19.90625 C 21.660156 19.757812 21.539062 19.640625 21.394531 19.640625 L 16.785156 19.640625 C 16.636719 19.640625 16.519531 19.757812 16.519531 19.90625 Z M 16.519531 19.90625 " fill-opacity="1" fill-rule="nonzero"/><g clip-path="url(#c5b522d087)"><path fill="#935f3d" d="M 18.234375 20.375 C 18.09375 20.335938 17.949219 20.425781 17.910156 20.566406 C 17.820312 20.933594 17.488281 21.191406 17.109375 21.191406 L 12.890625 21.191406 C 12.511719 21.191406 12.179688 20.933594 12.089844 20.566406 C 12.050781 20.425781 11.90625 20.335938 11.765625 20.375 C 11.621094 20.410156 11.535156 20.554688 11.574219 20.695312 C 11.726562 21.300781 12.265625 21.722656 12.890625 21.722656 L 17.109375 21.722656 C 17.734375 21.722656 18.273438 21.300781 18.425781 20.695312 C 18.464844 20.554688 18.378906 20.410156 18.234375 20.375 Z M 18.234375 20.375 " fill-opacity="1" fill-rule="nonzero"/></g><g clip-path="url(#500e4f88d5)"><path fill="#935f3d" d="M 26.570312 19.105469 C 26.507812 18.851562 26.367188 18.617188 26.175781 18.441406 C 26.144531 18.410156 26.109375 18.378906 26.070312 18.351562 C 25.941406 18.253906 25.796875 18.179688 25.644531 18.136719 L 25.644531 16.617188 L 23.90625 16.617188 C 23.777344 16.617188 23.667969 16.523438 23.644531 16.394531 C 23.453125 15.324219 23.070312 14.304688 22.496094 13.371094 C 22.433594 13.265625 22.449219 13.132812 22.535156 13.042969 L 23.84375 11.738281 L 21.585938 9.476562 L 20.355469 10.707031 C 20.265625 10.796875 20.121094 10.8125 20.015625 10.738281 C 19.121094 10.113281 18.128906 9.664062 17.066406 9.410156 C 16.945312 9.378906 16.863281 9.273438 16.863281 9.152344 L 16.863281 7.300781 L 13.667969 7.300781 L 13.667969 9.039062 C 13.667969 9.167969 13.578125 9.277344 13.449219 9.300781 C 12.375 9.492188 11.359375 9.878906 10.425781 10.449219 C 10.320312 10.511719 10.183594 10.496094 10.097656 10.410156 L 8.789062 9.101562 L 6.53125 11.359375 L 7.761719 12.589844 C 7.851562 12.679688 7.867188 12.824219 7.792969 12.929688 C 7.167969 13.824219 6.71875 14.816406 6.460938 15.878906 C 6.433594 16 6.328125 16.082031 6.203125 16.082031 L 4.355469 16.082031 L 4.355469 18.136719 C 4.203125 18.179688 4.058594 18.253906 3.929688 18.351562 C 3.890625 18.378906 3.855469 18.410156 3.824219 18.441406 C 3.632812 18.617188 3.492188 18.851562 3.429688 19.101562 C 3.402344 19.210938 3.386719 19.324219 3.386719 19.4375 L 3.386719 20.363281 C 3.386719 20.476562 3.402344 20.589844 3.429688 20.695312 C 3.582031 21.300781 4.125 21.722656 4.746094 21.722656 L 8.964844 21.722656 C 9.589844 21.722656 10.132812 21.300781 10.285156 20.695312 C 10.320312 20.554688 10.234375 20.410156 10.089844 20.375 C 9.949219 20.335938 9.804688 20.425781 9.769531 20.566406 C 9.675781 20.933594 9.34375 21.191406 8.964844 21.191406 L 4.746094 21.191406 C 4.367188 21.191406 4.039062 20.933594 3.945312 20.566406 C 3.925781 20.5 3.917969 20.433594 3.917969 20.363281 L 3.917969 19.4375 C 3.917969 19.367188 3.925781 19.300781 3.945312 19.234375 C 3.992188 19.050781 4.097656 18.890625 4.25 18.777344 C 4.253906 18.773438 4.253906 18.773438 4.257812 18.769531 C 4.402344 18.664062 4.570312 18.609375 4.746094 18.609375 L 8.964844 18.609375 C 9.34375 18.609375 9.675781 18.867188 9.769531 19.234375 C 9.804688 19.375 9.949219 19.464844 10.089844 19.425781 C 10.234375 19.390625 10.320312 19.246094 10.285156 19.105469 C 10.132812 18.5 9.589844 18.078125 8.964844 18.078125 L 8.242188 18.078125 C 8.242188 18.035156 8.242188 17.992188 8.242188 17.945312 C 8.242188 14.21875 11.273438 11.1875 15 11.1875 C 18.726562 11.1875 21.757812 14.21875 21.757812 17.945312 C 21.757812 17.992188 21.757812 18.035156 21.757812 18.078125 L 21.035156 18.078125 C 20.410156 18.078125 19.867188 18.5 19.714844 19.105469 C 19.679688 19.246094 19.765625 19.390625 19.910156 19.425781 C 20.050781 19.464844 20.195312 19.375 20.230469 19.234375 C 20.324219 18.867188 20.65625 18.609375 21.035156 18.609375 L 25.253906 18.609375 C 25.429688 18.609375 25.597656 18.664062 25.742188 18.769531 C 25.746094 18.773438 25.746094 18.773438 25.75 18.777344 C 25.902344 18.890625 26.007812 19.050781 26.054688 19.234375 C 26.074219 19.300781 26.082031 19.367188 26.082031 19.4375 L 26.082031 20.363281 C 26.082031 20.433594 26.074219 20.5 26.054688 20.566406 C 25.960938 20.933594 25.632812 21.191406 25.253906 21.191406 L 21.035156 21.191406 C 20.652344 21.191406 20.324219 20.933594 20.230469 20.566406 C 20.195312 20.425781 20.050781 20.335938 19.910156 20.375 C 19.765625 20.410156 19.679688 20.554688 19.714844 20.695312 C 19.867188 21.300781 20.410156 21.722656 21.035156 21.722656 L 25.253906 21.722656 C 25.875 21.722656 26.417969 21.300781 26.570312 20.699219 C 26.597656 20.589844 26.613281 20.476562 26.613281 20.363281 L 26.613281 19.4375 C 26.613281 19.324219 26.597656 19.210938 26.570312 19.105469 Z M 26.570312 19.105469 " fill-opacity="1" fill-rule="nonzero"/></g><path fill="#935f3d" d="M 17.109375 18.078125 L 12.890625 18.078125 C 12.265625 18.078125 11.726562 18.5 11.574219 19.105469 C 11.535156 19.246094 11.621094 19.390625 11.765625 19.425781 C 11.90625 19.464844 12.050781 19.375 12.089844 19.234375 C 12.179688 18.867188 12.511719 18.609375 12.890625 18.609375 L 17.109375 18.609375 C 17.488281 18.609375 17.820312 18.867188 17.910156 19.234375 C 17.941406 19.355469 18.050781 19.433594 18.167969 19.433594 C 18.191406 19.433594 18.214844 19.433594 18.234375 19.425781 C 18.378906 19.390625 18.464844 19.246094 18.425781 19.105469 C 18.273438 18.5 17.734375 18.078125 17.109375 18.078125 Z M 17.109375 18.078125 " fill-opacity="1" fill-rule="nonzero"/></svg>