<svg xmlns="http://www.w3.org/2000/svg" xmlns:xlink="http://www.w3.org/1999/xlink" width="40" zoomAndPan="magnify" viewBox="0 0 30 30.000001" height="40" preserveAspectRatio="xMidYMid meet" version="1.0"><defs><clipPath id="f16cd0b37b"><path d="M 0.484375 0 L 29.515625 0 L 29.515625 29.03125 L 0.484375 29.03125 Z M 0.484375 0 " clip-rule="nonzero"/></clipPath><clipPath id="b0e14474ea"><path d="M 3.386719 3.511719 L 26.613281 3.511719 L 26.613281 25.285156 L 3.386719 25.285156 Z M 3.386719 3.511719 " clip-rule="nonzero"/></clipPath></defs><g clip-path="url(#f16cd0b37b)"><path fill="#ffffff" d="M 0.484375 0 L 29.515625 0 L 29.515625 29.03125 L 0.484375 29.03125 Z M 0.484375 0 " fill-opacity="1" fill-rule="nonzero"/><path fill="#ffffff" d="M 0.484375 0 L 29.515625 0 L 29.515625 29.03125 L 0.484375 29.03125 Z M 0.484375 0 " fill-opacity="1" fill-rule="nonzero"/></g><g clip-path="url(#b0e14474ea)"><path fill="#935f3d" d="M 14.921875 3.511719 C 10.203125 3.511719 6.402344 6.4375 4.789062 10.230469 C 4.734375 10.359375 4.792969 10.511719 4.925781 10.566406 C 5.054688 10.621094 5.207031 10.5625 5.261719 10.429688 C 6.800781 6.816406 10.425781 4.023438 14.921875 4.023438 C 19.414062 4.023438 23.101562 6.855469 24.578125 10.425781 C 24.667969 10.644531 24.976562 10.636719 25.054688 10.417969 L 25.386719 9.480469 C 25.433594 9.347656 25.367188 9.203125 25.234375 9.15625 C 25.101562 9.109375 24.953125 9.175781 24.90625 9.308594 L 24.785156 9.648438 C 23.234375 6.425781 19.636719 3.511719 14.921875 3.511719 Z M 14.925781 5.039062 C 10.976562 5.039062 7.632812 7.371094 6.203125 10.828125 C 6.125 11.023438 6.296875 11.222656 6.5 11.175781 L 7.566406 10.925781 C 7.703125 10.890625 7.789062 10.753906 7.753906 10.617188 C 7.722656 10.480469 7.585938 10.394531 7.449219 10.425781 L 6.972656 10.539062 C 8.449219 7.5625 11.421875 5.554688 14.921875 5.554688 C 18.421875 5.554688 21.835938 7.777344 23.164062 11.023438 C 23.21875 11.152344 23.367188 11.214844 23.496094 11.164062 C 23.628906 11.109375 23.691406 10.960938 23.636719 10.828125 C 22.28125 7.492188 18.875 5.039062 14.925781 5.039062 Z M 24.636719 11.953125 C 23.527344 11.953125 22.589844 12.734375 22.589844 13.742188 C 22.589844 15.636719 24.480469 17.019531 24.480469 17.019531 C 24.570312 17.085938 24.695312 17.085938 24.785156 17.023438 C 24.785156 17.023438 26.679688 15.707031 26.679688 13.746094 C 26.679688 12.734375 25.742188 11.953125 24.636719 11.953125 Z M 3.414062 12.210938 L 3.414062 16.816406 L 8.015625 16.816406 L 8.015625 12.210938 L 7.15625 12.210938 L 7.15625 13.074219 C 7.15625 13.234375 7.027344 13.359375 6.867188 13.363281 L 4.566406 13.363281 C 4.40625 13.363281 4.277344 13.234375 4.277344 13.074219 L 4.277344 12.210938 Z M 4.851562 12.210938 L 4.851562 12.785156 L 6.578125 12.785156 L 6.578125 12.210938 Z M 12.269531 12.210938 L 12.269531 16.238281 L 12.605469 16.238281 C 12.726562 15.90625 13.046875 15.664062 13.417969 15.664062 C 13.789062 15.664062 14.113281 15.90625 14.234375 16.238281 L 15.71875 16.238281 L 15.71875 12.210938 Z M 24.636719 12.976562 C 25.21875 12.976562 25.65625 13.4375 25.65625 14 C 25.65625 14.5625 25.195312 15.023438 24.636719 15.023438 C 24.074219 15.023438 23.613281 14.5625 23.613281 14 C 23.613281 13.449219 24.050781 12.976562 24.636719 12.976562 Z M 16.292969 13.363281 L 16.292969 14.800781 L 18.386719 14.800781 L 17.566406 13.363281 Z M 24.636719 13.488281 C 24.347656 13.488281 24.125 13.714844 24.125 14 C 24.125 14.285156 24.347656 14.511719 24.636719 14.511719 C 24.921875 14.511719 25.144531 14.285156 25.144531 14 C 25.144531 13.714844 24.921875 13.488281 24.636719 13.488281 Z M 10.574219 14 C 10.488281 14 10.410156 14.046875 10.359375 14.113281 C 10.28125 14.230469 10.3125 14.390625 10.429688 14.46875 L 10.496094 14.511719 L 8.785156 14.511719 C 8.644531 14.511719 8.53125 14.628906 8.527344 14.769531 C 8.527344 14.910156 8.644531 15.023438 8.785156 15.023438 L 10.496094 15.023438 L 10.429688 15.070312 C 10.316406 15.148438 10.285156 15.304688 10.359375 15.421875 C 10.4375 15.539062 10.597656 15.570312 10.714844 15.492188 L 11.484375 14.980469 C 11.632812 14.878906 11.632812 14.65625 11.484375 14.554688 L 10.714844 14.042969 C 10.667969 14.015625 10.621094 14 10.574219 14 Z M 21.308594 14 C 21.21875 14 21.136719 14.050781 21.097656 14.113281 C 21.019531 14.234375 21.050781 14.390625 21.167969 14.46875 L 21.234375 14.511719 L 19.523438 14.511719 C 19.378906 14.511719 19.265625 14.625 19.265625 14.769531 C 19.265625 14.910156 19.378906 15.027344 19.523438 15.023438 L 21.234375 15.023438 L 21.167969 15.070312 C 21.054688 15.148438 21.019531 15.304688 21.097656 15.421875 C 21.175781 15.539062 21.335938 15.570312 21.453125 15.492188 L 22.222656 14.980469 C 22.371094 14.878906 22.371094 14.65625 22.222656 14.554688 L 21.453125 14.042969 C 21.40625 14.015625 21.355469 14 21.308594 14 Z M 6.855469 15.089844 C 6.859375 15.089844 6.863281 15.089844 6.867188 15.089844 L 7.445312 15.089844 C 7.601562 15.089844 7.730469 15.21875 7.730469 15.375 C 7.730469 15.535156 7.601562 15.664062 7.445312 15.664062 L 6.867188 15.664062 C 6.707031 15.664062 6.578125 15.535156 6.578125 15.375 C 6.582031 15.222656 6.703125 15.097656 6.855469 15.089844 Z M 16.292969 15.375 L 16.292969 16.238281 L 16.628906 16.238281 C 16.75 15.90625 17.070312 15.664062 17.445312 15.664062 C 17.816406 15.664062 18.136719 15.90625 18.257812 16.238281 L 18.59375 16.238281 L 18.59375 15.375 Z M 6.277344 15.949219 C 6.28125 15.949219 6.289062 15.949219 6.292969 15.949219 L 7.445312 15.949219 C 7.601562 15.953125 7.730469 16.082031 7.730469 16.238281 C 7.730469 16.398438 7.601562 16.527344 7.445312 16.527344 L 6.292969 16.527344 C 6.132812 16.527344 6.003906 16.398438 6.003906 16.238281 C 6.003906 16.085938 6.125 15.957031 6.277344 15.949219 Z M 13.402344 16.238281 C 13.25 16.246094 13.132812 16.371094 13.132812 16.527344 C 13.132812 16.6875 13.257812 16.816406 13.417969 16.816406 C 13.582031 16.816406 13.707031 16.6875 13.707031 16.527344 C 13.707031 16.363281 13.582031 16.238281 13.417969 16.238281 C 13.414062 16.238281 13.410156 16.238281 13.402344 16.238281 Z M 17.429688 16.238281 C 17.273438 16.246094 17.15625 16.371094 17.15625 16.527344 C 17.15625 16.6875 17.28125 16.816406 17.445312 16.816406 C 17.605469 16.816406 17.730469 16.6875 17.730469 16.527344 C 17.730469 16.363281 17.605469 16.238281 17.445312 16.238281 C 17.441406 16.238281 17.433594 16.238281 17.429688 16.238281 Z M 23.410156 17.839844 C 23.386719 17.839844 23.363281 17.84375 23.34375 17.847656 L 22.277344 18.101562 C 22.136719 18.132812 22.054688 18.269531 22.085938 18.410156 C 22.117188 18.546875 22.253906 18.632812 22.394531 18.597656 L 22.871094 18.488281 C 21.40625 21.449219 18.347656 23.472656 14.921875 23.46875 C 11.496094 23.464844 8.023438 21.257812 6.675781 18 C 6.621094 17.867188 6.472656 17.808594 6.339844 17.863281 C 6.210938 17.914062 6.148438 18.066406 6.203125 18.195312 C 7.632812 21.65625 11.175781 24.019531 14.921875 23.976562 C 18.652344 24.027344 22.222656 21.644531 23.636719 18.195312 C 23.710938 18.011719 23.570312 17.84375 23.410156 17.839844 Z M 5.019531 18.4375 C 4.914062 18.441406 4.820312 18.507812 4.785156 18.609375 L 4.453125 19.542969 C 4.40625 19.675781 4.472656 19.824219 4.609375 19.871094 C 4.742188 19.917969 4.886719 19.847656 4.933594 19.714844 L 5.058594 19.371094 C 6.757812 22.847656 10.429688 25.511719 14.921875 25.511719 C 19.628906 25.511719 23.496094 22.550781 25.050781 18.792969 C 25.105469 18.664062 25.042969 18.511719 24.914062 18.457031 C 24.75 18.398438 24.617188 18.496094 24.578125 18.597656 C 23.101562 22.167969 19.414062 25 14.921875 25 C 10.425781 25 6.800781 22.207031 5.261719 18.59375 C 5.21875 18.496094 5.125 18.4375 5.019531 18.4375 Z M 5.019531 18.4375 " fill-opacity="1" fill-rule="nonzero"/></g></svg>