<svg xmlns="http://www.w3.org/2000/svg" xmlns:xlink="http://www.w3.org/1999/xlink" width="40" zoomAndPan="magnify" viewBox="0 0 30 30.000001" height="40" preserveAspectRatio="xMidYMid meet" version="1.0"><defs><clipPath id="6c7e066bdc"><path d="M 0.484375 0 L 29.515625 0 L 29.515625 29.03125 L 0.484375 29.03125 Z M 0.484375 0 " clip-rule="nonzero"/></clipPath><clipPath id="466c874c00"><path d="M 3.386719 2.902344 L 26.613281 2.902344 L 26.613281 26.128906 L 3.386719 26.128906 Z M 3.386719 2.902344 " clip-rule="nonzero"/></clipPath></defs><g clip-path="url(#6c7e066bdc)"><path fill="#ffffff" d="M 0.484375 0 L 29.515625 0 L 29.515625 29.03125 L 0.484375 29.03125 Z M 0.484375 0 " fill-opacity="1" fill-rule="nonzero"/><path fill="#ffffff" d="M 0.484375 0 L 29.515625 0 L 29.515625 29.03125 L 0.484375 29.03125 Z M 0.484375 0 " fill-opacity="1" fill-rule="nonzero"/></g><g clip-path="url(#466c874c00)"><path fill="#935f3d" d="M 5.648438 8.5625 L 6.625 8.5625 L 6.625 9.539062 L 5.648438 9.539062 C 5.546875 9.539062 5.460938 9.625 5.460938 9.730469 L 5.460938 22.222656 C 5.460938 22.324219 5.546875 22.414062 5.648438 22.414062 L 24.351562 22.414062 C 24.453125 22.414062 24.539062 22.324219 24.539062 22.222656 L 24.539062 9.730469 C 24.539062 9.625 24.453125 9.539062 24.351562 9.539062 L 23.375 9.539062 L 23.375 8.5625 L 24.351562 8.5625 C 24.992188 8.5625 25.519531 9.085938 25.519531 9.730469 L 25.519531 22.222656 C 25.519531 22.867188 24.992188 23.390625 24.351562 23.390625 L 5.648438 23.390625 C 5.007812 23.390625 4.480469 22.867188 4.480469 22.222656 L 4.480469 9.730469 C 4.480469 9.085938 5.007812 8.5625 5.648438 8.5625 Z M 22.851562 4.832031 L 25.269531 4.832031 L 25.269531 6.761719 L 22.851562 6.761719 L 22.851562 8.230469 L 19.171875 5.824219 L 22.851562 3.417969 Z M 9.628906 17.320312 L 7.210938 17.320312 L 7.210938 19.246094 L 9.628906 19.246094 L 9.628906 20.71875 L 13.308594 18.3125 L 9.628906 15.90625 Z M 19.230469 14.089844 C 19.546875 14.164062 19.847656 14.289062 20.121094 14.460938 L 21.140625 13.878906 L 21.613281 14.351562 L 21.03125 15.371094 C 21.199219 15.640625 21.328125 15.941406 21.402344 16.261719 L 22.535156 16.574219 L 22.535156 17.242188 L 21.402344 17.550781 C 21.328125 17.875 21.199219 18.171875 21.03125 18.445312 L 21.613281 19.464844 L 21.375 19.699219 L 21.140625 19.9375 L 20.121094 19.355469 C 19.847656 19.527344 19.546875 19.652344 19.230469 19.726562 L 18.917969 20.859375 L 18.25 20.859375 L 17.9375 19.726562 C 17.617188 19.652344 17.316406 19.527344 17.046875 19.355469 L 16.027344 19.9375 L 15.554688 19.464844 L 16.136719 18.445312 C 15.964844 18.171875 15.839844 17.875 15.765625 17.550781 L 14.632812 17.242188 L 14.632812 16.574219 L 15.765625 16.261719 C 15.839844 15.941406 15.964844 15.640625 16.136719 15.371094 L 15.554688 14.351562 L 15.789062 14.113281 L 16.027344 13.878906 L 17.046875 14.460938 C 17.316406 14.289062 17.617188 14.164062 17.9375 14.089844 L 18.25 12.957031 L 18.917969 12.957031 Z M 18.582031 15.015625 C 19.628906 15.015625 20.476562 15.863281 20.476562 16.90625 C 20.476562 17.953125 19.628906 18.800781 18.582031 18.800781 C 17.539062 18.800781 16.691406 17.953125 16.691406 16.90625 C 16.691406 15.863281 17.539062 15.015625 18.582031 15.015625 Z M 14.054688 4.023438 C 14.664062 4.140625 15.226562 4.378906 15.722656 4.714844 L 16.265625 4.171875 C 16.402344 4.035156 16.628906 4.035156 16.765625 4.171875 L 17.507812 4.917969 C 17.648438 5.054688 17.648438 5.28125 17.507812 5.417969 L 16.96875 5.960938 C 17.300781 6.457031 17.542969 7.019531 17.660156 7.628906 L 18.425781 7.628906 C 18.621094 7.628906 18.78125 7.789062 18.78125 7.984375 L 18.78125 9.035156 C 18.78125 9.230469 18.621094 9.390625 18.425781 9.390625 L 17.660156 9.390625 C 17.542969 9.996094 17.300781 10.5625 16.96875 11.058594 L 17.507812 11.597656 C 17.648438 11.738281 17.648438 11.960938 17.507812 12.101562 L 16.765625 12.84375 C 16.628906 12.980469 16.402344 12.980469 16.265625 12.84375 L 15.722656 12.300781 C 15.226562 12.636719 14.664062 12.875 14.054688 12.992188 L 14.054688 13.757812 C 14.054688 13.953125 13.894531 14.113281 13.699219 14.113281 L 12.648438 14.113281 C 12.453125 14.113281 12.292969 13.953125 12.292969 13.757812 L 12.292969 12.992188 C 11.6875 12.875 11.121094 12.636719 10.625 12.300781 L 10.085938 12.84375 C 9.945312 12.980469 9.71875 12.980469 9.582031 12.84375 L 8.839844 12.101562 C 8.703125 11.960938 8.703125 11.738281 8.839844 11.597656 L 9.378906 11.058594 C 9.046875 10.5625 8.808594 9.996094 8.6875 9.390625 L 7.925781 9.390625 C 7.730469 9.390625 7.570312 9.230469 7.570312 9.035156 L 7.570312 7.984375 C 7.570312 7.789062 7.730469 7.628906 7.925781 7.628906 L 8.6875 7.628906 C 8.808594 7.019531 9.046875 6.457031 9.378906 5.960938 L 8.839844 5.417969 C 8.703125 5.28125 8.703125 5.054688 8.839844 4.917969 L 9.582031 4.171875 C 9.71875 4.035156 9.945312 4.035156 10.085938 4.171875 L 10.625 4.714844 C 11.121094 4.378906 11.6875 4.140625 12.292969 4.023438 L 12.292969 3.257812 C 12.292969 3.0625 12.453125 2.902344 12.648438 2.902344 L 13.699219 2.902344 C 13.894531 2.902344 14.054688 3.0625 14.054688 3.257812 Z M 13.175781 7.71875 C 13.609375 7.71875 13.964844 8.074219 13.964844 8.507812 C 13.964844 8.945312 13.609375 9.296875 13.175781 9.296875 C 12.738281 9.296875 12.386719 8.945312 12.386719 8.507812 C 12.386719 8.074219 12.738281 7.71875 13.175781 7.71875 Z M 13.175781 4.871094 C 15.183594 4.871094 16.8125 6.5 16.8125 8.507812 C 16.8125 10.515625 15.183594 12.144531 13.175781 12.144531 C 11.164062 12.144531 9.535156 10.515625 9.535156 8.507812 C 9.535156 6.5 11.164062 4.871094 13.175781 4.871094 Z M 3.386719 23.941406 L 12.019531 23.941406 L 12.019531 24.355469 L 17.980469 24.355469 L 17.980469 23.941406 L 26.613281 23.941406 L 26.613281 25.035156 C 26.613281 25.636719 26.097656 26.128906 25.464844 26.128906 L 4.535156 26.128906 C 3.902344 26.128906 3.386719 25.636719 3.386719 25.035156 Z M 3.386719 23.941406 " fill-opacity="1" fill-rule="evenodd"/></g></svg>