<svg xmlns="http://www.w3.org/2000/svg" xmlns:xlink="http://www.w3.org/1999/xlink" width="40" zoomAndPan="magnify" viewBox="0 0 30 30.000001" height="40" preserveAspectRatio="xMidYMid meet" version="1.0"><defs><clipPath id="63c0b4672d"><path d="M 0.484375 0 L 29.515625 0 L 29.515625 29.03125 L 0.484375 29.03125 Z M 0.484375 0 " clip-rule="nonzero"/></clipPath><clipPath id="870a150087"><path d="M 4.140625 3 L 25.917969 3 L 25.917969 26.128906 L 4.140625 26.128906 Z M 4.140625 3 " clip-rule="nonzero"/></clipPath></defs><g clip-path="url(#63c0b4672d)"><path fill="#ffffff" d="M 0.484375 0 L 29.515625 0 L 29.515625 29.03125 L 0.484375 29.03125 Z M 0.484375 0 " fill-opacity="1" fill-rule="nonzero"/><path fill="#ffffff" d="M 0.484375 0 L 29.515625 0 L 29.515625 29.03125 L 0.484375 29.03125 Z M 0.484375 0 " fill-opacity="1" fill-rule="nonzero"/></g><g clip-path="url(#870a150087)"><path fill="#935f3d" d="M 12.332031 24.546875 L 6.695312 24.59375 C 6.636719 24.605469 6.59375 24.65625 6.59375 24.71875 L 6.601562 25.816406 C 6.613281 25.875 6.664062 25.917969 6.722656 25.917969 C 8.59375 25.902344 10.472656 25.886719 12.34375 25.871094 C 12.410156 25.871094 12.464844 25.8125 12.464844 25.746094 L 12.453125 24.652344 C 12.445312 24.59375 12.390625 24.546875 12.332031 24.546875 Z M 21.839844 12.808594 C 22.085938 12.800781 22.28125 12.597656 22.28125 12.351562 L 22.28125 12.011719 L 18.902344 12.011719 L 18.902344 12.351562 C 18.902344 12.601562 19.109375 12.808594 19.363281 12.808594 L 19.378906 12.808594 L 19.378906 13.101562 L 18.488281 13.101562 C 18.285156 13.101562 18.117188 13.269531 18.117188 13.476562 L 18.117188 15.785156 C 17.839844 15.921875 17.648438 16.210938 17.648438 16.539062 C 17.648438 17.003906 18.023438 17.382812 18.488281 17.382812 C 18.957031 17.382812 19.332031 17.003906 19.332031 16.539062 C 19.332031 16.210938 19.140625 15.921875 18.863281 15.785156 L 18.863281 13.851562 L 19.851562 13.851562 L 19.851562 13.9375 C 19.851562 14.1875 20.058594 14.394531 20.308594 14.394531 L 20.90625 14.394531 C 21.160156 14.394531 21.367188 14.1875 21.367188 13.9375 L 21.367188 13.632812 L 21.378906 13.632812 C 21.632812 13.632812 21.839844 13.425781 21.839844 13.171875 Z M 16.597656 18.933594 C 16.132812 18.933594 15.757812 18.558594 15.757812 18.089844 C 15.757812 17.761719 15.945312 17.472656 16.226562 17.335938 L 16.226562 10.890625 C 16.226562 10.683594 16.390625 10.515625 16.597656 10.515625 L 18.734375 10.515625 C 18.410156 9.292969 17.765625 9.105469 17.765625 7.84375 C 17.765625 6.28125 19.03125 5.015625 20.59375 5.015625 C 22.15625 5.015625 23.421875 6.28125 23.421875 7.84375 C 23.421875 9.324219 22.53125 9.328125 22.3125 11.265625 L 21.457031 11.265625 L 21.457031 8.898438 L 21.738281 8.898438 C 22.308594 8.898438 22.769531 8.433594 22.769531 7.863281 C 22.769531 7.296875 22.308594 6.832031 21.738281 6.832031 C 21.171875 6.832031 20.707031 7.296875 20.707031 7.863281 L 20.707031 8.148438 L 20.480469 8.148438 L 20.480469 7.863281 C 20.480469 7.296875 20.015625 6.832031 19.445312 6.832031 C 18.878906 6.832031 18.414062 7.296875 18.414062 7.863281 C 18.414062 8.433594 18.878906 8.898438 19.445312 8.898438 L 19.730469 8.898438 L 19.730469 11.265625 L 16.972656 11.265625 L 16.972656 17.335938 C 17.25 17.476562 17.441406 17.761719 17.441406 18.09375 C 17.441406 18.558594 17.0625 18.933594 16.597656 18.933594 Z M 20.707031 11.265625 L 20.707031 8.894531 L 20.480469 8.894531 L 20.480469 11.265625 Z M 19.730469 8.148438 L 19.730469 7.863281 C 19.730469 7.710938 19.601562 7.582031 19.445312 7.582031 C 19.292969 7.582031 19.164062 7.710938 19.164062 7.863281 C 19.164062 8.019531 19.292969 8.148438 19.445312 8.148438 Z M 21.457031 8.148438 L 21.738281 8.148438 C 21.894531 8.148438 22.023438 8.019531 22.023438 7.863281 C 22.023438 7.710938 21.894531 7.582031 21.738281 7.582031 C 21.585938 7.582031 21.457031 7.710938 21.457031 7.863281 Z M 11.15625 4.867188 C 11.503906 4.949219 11.832031 5.085938 12.136719 5.273438 L 12.773438 4.992188 L 13.523438 5.742188 L 13.238281 6.378906 C 13.425781 6.679688 13.5625 7.011719 13.644531 7.355469 L 14.292969 7.605469 L 14.292969 8.667969 L 13.644531 8.917969 C 13.5625 9.265625 13.425781 9.59375 13.238281 9.898438 L 13.417969 10.300781 L 13.640625 10.300781 C 13.84375 10.300781 14.011719 10.46875 14.011719 10.675781 L 14.011719 17.601562 C 14.289062 17.742188 14.480469 18.027344 14.480469 18.359375 C 14.480469 18.824219 14.105469 19.199219 13.640625 19.199219 C 13.171875 19.199219 12.796875 18.824219 12.796875 18.359375 C 12.796875 18.027344 12.988281 17.742188 13.265625 17.601562 L 13.265625 11.050781 L 13.007812 11.050781 L 12.773438 11.285156 L 12.242188 11.050781 L 12.054688 11.050781 C 11.875 11.152344 11.6875 11.238281 11.492188 11.308594 L 11.535156 11.308594 C 11.742188 11.308594 11.910156 11.476562 11.910156 11.683594 L 11.910156 14.367188 C 12.1875 14.503906 12.378906 14.789062 12.378906 15.121094 C 12.378906 15.585938 12 15.960938 11.535156 15.960938 C 11.070312 15.960938 10.691406 15.585938 10.691406 15.121094 C 10.691406 14.789062 10.882812 14.503906 11.160156 14.367188 L 11.160156 12.054688 C 10.722656 12.054688 10.285156 12.054688 9.84375 12.054688 L 9.59375 11.40625 C 9.25 11.324219 8.917969 11.1875 8.617188 11 L 7.980469 11.285156 L 7.230469 10.535156 L 7.511719 9.898438 C 7.324219 9.59375 7.1875 9.265625 7.105469 8.917969 L 6.457031 8.667969 L 6.457031 7.605469 L 7.105469 7.355469 C 7.1875 7.011719 7.324219 6.679688 7.511719 6.378906 L 7.230469 5.742188 L 7.980469 4.992188 L 8.617188 5.273438 C 8.917969 5.085938 9.25 4.949219 9.59375 4.867188 L 9.84375 4.21875 L 10.90625 4.21875 Z M 10.375 6.125 C 9.265625 6.125 8.363281 7.027344 8.363281 8.136719 C 8.363281 9.25 9.265625 10.148438 10.375 10.148438 C 11.488281 10.148438 12.386719 9.25 12.386719 8.136719 C 12.386719 7.027344 11.488281 6.125 10.375 6.125 Z M 20.96875 4.058594 C 20.96875 4.265625 20.800781 4.433594 20.59375 4.433594 C 20.386719 4.433594 20.21875 4.265625 20.21875 4.058594 L 20.21875 3.390625 C 20.21875 3.1875 20.386719 3.019531 20.59375 3.019531 C 20.800781 3.019531 20.96875 3.1875 20.96875 3.390625 Z M 23.050781 4.816406 L 23.382812 4.238281 C 23.484375 4.058594 23.425781 3.832031 23.246094 3.730469 C 23.066406 3.628906 22.839844 3.691406 22.738281 3.867188 L 22.40625 4.445312 C 22.300781 4.625 22.363281 4.851562 22.542969 4.953125 C 22.71875 5.054688 22.949219 4.996094 23.050781 4.816406 Z M 24.476562 6.515625 C 24.296875 6.617188 24.070312 6.558594 23.964844 6.378906 C 23.863281 6.199219 23.925781 5.972656 24.101562 5.871094 L 24.679688 5.535156 C 24.859375 5.433594 25.085938 5.492188 25.1875 5.671875 C 25.292969 5.851562 25.230469 6.078125 25.054688 6.183594 Z M 17.085938 5.871094 L 16.507812 5.535156 C 16.328125 5.433594 16.101562 5.492188 15.996094 5.671875 C 15.894531 5.851562 15.957031 6.078125 16.132812 6.183594 L 16.710938 6.515625 C 16.890625 6.617188 17.117188 6.558594 17.21875 6.378906 C 17.324219 6.203125 17.261719 5.972656 17.085938 5.871094 Z M 18.78125 4.445312 L 18.449219 3.867188 C 18.347656 3.6875 18.117188 3.628906 17.941406 3.730469 C 17.761719 3.832031 17.699219 4.0625 17.804688 4.238281 L 18.136719 4.816406 C 18.242188 4.996094 18.46875 5.054688 18.648438 4.953125 C 18.824219 4.851562 18.886719 4.621094 18.78125 4.445312 Z M 17.660156 24.640625 L 23.292969 24.691406 C 23.351562 24.699219 23.398438 24.753906 23.398438 24.8125 C 23.394531 25.175781 23.390625 25.542969 23.386719 25.910156 C 23.378906 25.96875 23.324219 26.015625 23.265625 26.015625 L 17.648438 25.964844 C 17.582031 25.964844 17.527344 25.90625 17.527344 25.84375 L 17.535156 24.746094 C 17.546875 24.6875 17.597656 24.640625 17.660156 24.640625 Z M 18.699219 23.90625 L 18.695312 21.089844 C 18.695312 19.847656 18.914062 19.648438 19.804688 18.902344 C 20.433594 18.371094 21.230469 17.699219 21.894531 16.921875 C 22.128906 16.722656 22.476562 16.695312 22.703125 16.921875 C 22.957031 17.175781 22.902344 17.453125 22.699219 17.722656 C 22.203125 18.289062 21.648438 18.789062 21.117188 19.320312 C 20.972656 19.46875 20.972656 19.703125 21.117188 19.851562 C 21.261719 19.996094 21.5 19.996094 21.644531 19.851562 C 22.296875 19.199219 22.972656 18.582031 23.554688 17.867188 C 23.949219 17.378906 24.164062 16.832031 24.160156 16.207031 L 24.148438 12.324219 C 24.144531 11.835938 24.21875 10.621094 24.925781 10.597656 C 25.230469 10.589844 25.625 10.847656 25.636719 11.167969 L 25.835938 18.316406 C 25.855469 18.886719 25.65625 19.328125 25.261719 19.734375 L 22.03125 22.96875 C 21.949219 23.050781 21.914062 23.160156 21.921875 23.265625 L 21.921875 23.933594 Z M 18.492188 25.433594 C 18.558594 25.257812 18.476562 25.0625 18.304688 24.996094 C 18.128906 24.925781 17.933594 25.011719 17.867188 25.183594 C 17.796875 25.355469 17.882812 25.550781 18.054688 25.621094 C 18.226562 25.6875 18.421875 25.605469 18.492188 25.433594 Z M 11.289062 23.808594 L 11.292969 20.996094 C 11.296875 19.789062 11.089844 19.566406 10.1875 18.808594 C 9.558594 18.277344 8.757812 17.601562 8.097656 16.824219 C 7.863281 16.625 7.511719 16.597656 7.285156 16.828125 C 7.03125 17.082031 7.074219 17.371094 7.289062 17.628906 C 7.773438 18.203125 8.34375 18.695312 8.875 19.226562 C 9.019531 19.371094 9.019531 19.609375 8.875 19.753906 C 8.726562 19.902344 8.492188 19.902344 8.34375 19.753906 C 7.691406 19.105469 7.015625 18.488281 6.433594 17.769531 C 6.039062 17.285156 5.824219 16.738281 5.828125 16.109375 L 5.84375 12.226562 C 5.84375 11.742188 5.769531 10.523438 5.0625 10.503906 C 4.757812 10.492188 4.363281 10.753906 4.355469 11.074219 L 4.152344 18.222656 C 4.136719 18.792969 4.335938 19.234375 4.726562 19.640625 L 7.960938 22.875 C 8.042969 22.953125 8.078125 23.0625 8.070312 23.171875 L 8.070312 23.835938 Z M 11.5 25.335938 C 11.429688 25.164062 11.515625 24.96875 11.6875 24.902344 C 11.859375 24.832031 12.054688 24.917969 12.125 25.089844 C 12.191406 25.261719 12.109375 25.457031 11.933594 25.527344 C 11.761719 25.59375 11.566406 25.507812 11.5 25.335938 Z M 11.5 25.335938 " fill-opacity="1" fill-rule="evenodd"/></g></svg>