<svg xmlns="http://www.w3.org/2000/svg" xmlns:xlink="http://www.w3.org/1999/xlink" width="40" zoomAndPan="magnify" viewBox="0 0 30 30.000001" height="40" preserveAspectRatio="xMidYMid meet" version="1.0"><defs><clipPath id="6745a9814b"><path d="M 0.484375 0 L 29.515625 0 L 29.515625 29.03125 L 0.484375 29.03125 Z M 0.484375 0 " clip-rule="nonzero"/></clipPath><clipPath id="ea7824ffb8"><path d="M 8 8 L 26.613281 8 L 26.613281 26.128906 L 8 26.128906 Z M 8 8 " clip-rule="nonzero"/></clipPath><clipPath id="1e3bb748a5"><path d="M 8 2.902344 L 10 2.902344 L 10 5 L 8 5 Z M 8 2.902344 " clip-rule="nonzero"/></clipPath><clipPath id="2cd4803251"><path d="M 3.386719 8 L 6 8 L 6 10 L 3.386719 10 Z M 3.386719 8 " clip-rule="nonzero"/></clipPath></defs><g clip-path="url(#6745a9814b)"><path fill="#ffffff" d="M 0.484375 0 L 29.515625 0 L 29.515625 29.03125 L 0.484375 29.03125 Z M 0.484375 0 " fill-opacity="1" fill-rule="nonzero"/><path fill="#ffffff" d="M 0.484375 0 L 29.515625 0 L 29.515625 29.03125 L 0.484375 29.03125 Z M 0.484375 0 " fill-opacity="1" fill-rule="nonzero"/></g><path fill="#935f3d" d="M 20.5625 16.835938 C 18.839844 16.835938 17.4375 18.238281 17.4375 19.960938 C 17.4375 21.683594 18.839844 23.085938 20.5625 23.085938 C 22.285156 23.085938 23.6875 21.683594 23.6875 19.960938 C 23.6875 18.238281 22.285156 16.835938 20.5625 16.835938 Z M 20.5625 22.15625 C 19.351562 22.15625 18.363281 21.171875 18.363281 19.960938 C 18.363281 18.75 19.351562 17.765625 20.5625 17.765625 C 21.773438 17.765625 22.757812 18.75 22.757812 19.960938 C 22.757812 21.171875 21.773438 22.15625 20.5625 22.15625 Z M 20.5625 22.15625 " fill-opacity="1" fill-rule="nonzero"/><g clip-path="url(#ea7824ffb8)"><path fill="#935f3d" d="M 26.183594 20.722656 C 25.789062 20.679688 25.496094 20.351562 25.496094 19.960938 C 25.496094 19.570312 25.789062 19.242188 26.183594 19.199219 C 26.3125 19.183594 26.429688 19.117188 26.507812 19.007812 C 26.585938 18.902344 26.613281 18.769531 26.585938 18.640625 C 26.3125 17.394531 25.664062 16.277344 24.714844 15.410156 C 24.617188 15.320312 24.492188 15.277344 24.355469 15.289062 C 24.226562 15.300781 24.105469 15.371094 24.027344 15.476562 C 23.796875 15.792969 23.363281 15.882812 23.027344 15.6875 C 22.6875 15.492188 22.554688 15.074219 22.714844 14.710938 C 22.765625 14.589844 22.765625 14.453125 22.710938 14.332031 C 22.65625 14.214844 22.554688 14.121094 22.429688 14.082031 C 21.972656 13.9375 21.5 13.847656 21.027344 13.8125 L 21.027344 10.660156 C 21.027344 9.453125 20.042969 8.472656 18.835938 8.472656 L 16.460938 8.472656 C 16.203125 8.472656 15.996094 8.679688 15.996094 8.9375 C 15.996094 9.195312 16.203125 9.402344 16.460938 9.402344 L 18.835938 9.402344 C 19.53125 9.402344 20.097656 9.964844 20.097656 10.660156 L 20.097656 13.8125 C 19.621094 13.847656 19.152344 13.9375 18.695312 14.082031 C 18.570312 14.121094 18.464844 14.214844 18.410156 14.332031 C 18.359375 14.453125 18.355469 14.589844 18.410156 14.710938 C 18.570312 15.074219 18.433594 15.492188 18.097656 15.6875 C 17.761719 15.882812 17.328125 15.792969 17.09375 15.476562 C 17.015625 15.371094 16.898438 15.300781 16.765625 15.289062 C 16.636719 15.277344 16.507812 15.320312 16.410156 15.410156 C 15.457031 16.277344 14.8125 17.394531 14.539062 18.640625 C 14.511719 18.769531 14.539062 18.902344 14.617188 19.007812 C 14.691406 19.117188 14.8125 19.183594 14.941406 19.199219 C 15.160156 19.222656 15.34375 19.335938 15.46875 19.496094 L 11.148438 19.496094 C 10.453125 19.496094 9.886719 18.929688 9.886719 18.234375 L 9.886719 17.300781 C 9.886719 17.042969 9.679688 16.835938 9.421875 16.835938 C 9.167969 16.835938 8.960938 17.042969 8.960938 17.300781 L 8.960938 18.234375 C 8.960938 19.441406 9.941406 20.425781 11.148438 20.425781 L 15.46875 20.425781 C 15.34375 20.585938 15.160156 20.699219 14.941406 20.722656 C 14.8125 20.734375 14.691406 20.804688 14.617188 20.910156 C 14.539062 21.019531 14.511719 21.152344 14.539062 21.28125 C 14.8125 22.527344 15.457031 23.644531 16.410156 24.511719 C 16.507812 24.601562 16.636719 24.644531 16.765625 24.632812 C 16.898438 24.617188 17.015625 24.550781 17.09375 24.445312 C 17.328125 24.128906 17.757812 24.035156 18.097656 24.230469 C 18.433594 24.429688 18.570312 24.847656 18.410156 25.207031 C 18.355469 25.328125 18.359375 25.46875 18.410156 25.585938 C 18.464844 25.707031 18.570312 25.796875 18.695312 25.839844 C 19.300781 26.03125 19.925781 26.128906 20.5625 26.128906 C 21.195312 26.128906 21.824219 26.03125 22.429688 25.839844 C 22.554688 25.796875 22.65625 25.707031 22.710938 25.585938 C 22.765625 25.464844 22.765625 25.328125 22.714844 25.207031 C 22.554688 24.847656 22.6875 24.429688 23.027344 24.230469 C 23.363281 24.035156 23.796875 24.128906 24.027344 24.445312 C 24.105469 24.550781 24.226562 24.617188 24.355469 24.632812 C 24.488281 24.644531 24.617188 24.601562 24.714844 24.511719 C 25.664062 23.644531 26.3125 22.527344 26.585938 21.28125 C 26.613281 21.152344 26.585938 21.019531 26.507812 20.910156 C 26.429688 20.804688 26.3125 20.734375 26.183594 20.722656 Z M 24.398438 23.519531 C 23.871094 23.140625 23.152344 23.085938 22.5625 23.425781 C 21.972656 23.769531 21.660156 24.417969 21.726562 25.066406 C 20.964844 25.242188 20.160156 25.242188 19.394531 25.066406 C 19.464844 24.417969 19.152344 23.769531 18.558594 23.425781 C 17.972656 23.089844 17.253906 23.140625 16.726562 23.519531 C 16.183594 22.941406 15.785156 22.253906 15.554688 21.503906 C 16.152344 21.238281 16.558594 20.644531 16.558594 19.960938 C 16.558594 19.277344 16.152344 18.683594 15.554688 18.414062 C 15.785156 17.664062 16.183594 16.980469 16.726562 16.398438 C 17.253906 16.777344 17.96875 16.832031 18.558594 16.492188 C 19.152344 16.148438 19.464844 15.5 19.394531 14.851562 C 20.160156 14.675781 20.960938 14.675781 21.726562 14.851562 C 21.660156 15.5 21.972656 16.148438 22.5625 16.492188 C 23.152344 16.832031 23.871094 16.777344 24.398438 16.398438 C 24.9375 16.980469 25.335938 17.664062 25.566406 18.414062 C 24.972656 18.683594 24.566406 19.277344 24.566406 19.960938 C 24.566406 20.640625 24.972656 21.238281 25.566406 21.503906 C 25.335938 22.253906 24.9375 22.941406 24.398438 23.519531 Z M 24.398438 23.519531 " fill-opacity="1" fill-rule="nonzero"/></g><g clip-path="url(#1e3bb748a5)"><path fill="#935f3d" d="M 9.421875 4.628906 C 9.679688 4.628906 9.886719 4.421875 9.886719 4.164062 L 9.886719 3.367188 C 9.886719 3.109375 9.679688 2.902344 9.421875 2.902344 C 9.167969 2.902344 8.960938 3.109375 8.960938 3.367188 L 8.960938 4.164062 C 8.960938 4.421875 9.167969 4.628906 9.421875 4.628906 Z M 9.421875 4.628906 " fill-opacity="1" fill-rule="nonzero"/></g><path fill="#935f3d" d="M 12.796875 6.027344 C 12.917969 6.027344 13.035156 5.980469 13.125 5.890625 L 13.6875 5.328125 C 13.871094 5.144531 13.871094 4.851562 13.6875 4.671875 C 13.507812 4.488281 13.214844 4.488281 13.03125 4.671875 L 12.46875 5.234375 C 12.289062 5.414062 12.289062 5.707031 12.46875 5.890625 C 12.5625 5.980469 12.679688 6.027344 12.796875 6.027344 Z M 12.796875 6.027344 " fill-opacity="1" fill-rule="nonzero"/><path fill="#935f3d" d="M 5.71875 11.984375 L 5.15625 12.546875 C 4.976562 12.730469 4.976562 13.023438 5.15625 13.203125 C 5.246094 13.292969 5.367188 13.339844 5.484375 13.339844 C 5.601562 13.339844 5.722656 13.292969 5.8125 13.203125 L 6.375 12.640625 C 6.558594 12.460938 6.558594 12.164062 6.375 11.984375 C 6.195312 11.804688 5.902344 11.804688 5.71875 11.984375 Z M 5.71875 11.984375 " fill-opacity="1" fill-rule="nonzero"/><path fill="#935f3d" d="M 14.195312 9.402344 L 14.992188 9.402344 C 15.25 9.402344 15.457031 9.195312 15.457031 8.9375 C 15.457031 8.679688 15.25 8.472656 14.992188 8.472656 L 14.195312 8.472656 C 13.941406 8.472656 13.734375 8.679688 13.734375 8.9375 C 13.734375 9.195312 13.941406 9.402344 14.195312 9.402344 Z M 14.195312 9.402344 " fill-opacity="1" fill-rule="nonzero"/><g clip-path="url(#2cd4803251)"><path fill="#935f3d" d="M 4.648438 8.472656 L 3.855469 8.472656 C 3.597656 8.472656 3.390625 8.679688 3.390625 8.9375 C 3.390625 9.195312 3.597656 9.402344 3.855469 9.402344 L 4.648438 9.402344 C 4.90625 9.402344 5.113281 9.195312 5.113281 8.9375 C 5.113281 8.679688 4.90625 8.472656 4.648438 8.472656 Z M 4.648438 8.472656 " fill-opacity="1" fill-rule="nonzero"/></g><path fill="#935f3d" d="M 13.128906 11.984375 C 12.945312 11.804688 12.652344 11.804688 12.472656 11.984375 C 12.289062 12.164062 12.289062 12.460938 12.472656 12.640625 L 13.035156 13.203125 C 13.125 13.292969 13.242188 13.339844 13.363281 13.339844 C 13.480469 13.339844 13.597656 13.292969 13.6875 13.203125 C 13.871094 13.023438 13.871094 12.730469 13.6875 12.546875 L 13.125 11.984375 Z M 13.128906 11.984375 " fill-opacity="1" fill-rule="nonzero"/><path fill="#935f3d" d="M 5.71875 5.890625 C 5.808594 5.980469 5.929688 6.027344 6.046875 6.027344 C 6.164062 6.027344 6.285156 5.980469 6.375 5.890625 C 6.558594 5.707031 6.558594 5.414062 6.375 5.234375 L 5.8125 4.671875 C 5.632812 4.488281 5.335938 4.488281 5.15625 4.671875 C 4.976562 4.851562 4.976562 5.144531 5.15625 5.328125 Z M 5.71875 5.890625 " fill-opacity="1" fill-rule="nonzero"/><path fill="#935f3d" d="M 8.960938 15.898438 C 8.960938 16.15625 9.167969 16.363281 9.421875 16.363281 C 9.679688 16.363281 9.886719 16.15625 9.886719 15.898438 L 9.886719 15.285156 L 11.464844 15.285156 C 11.722656 15.285156 11.929688 15.078125 11.929688 14.820312 L 11.929688 12.875 C 11.929688 12.617188 11.722656 12.410156 11.464844 12.410156 L 11.371094 12.410156 C 11.4375 11.859375 11.65625 11.292969 12.03125 10.761719 C 12.410156 10.222656 12.609375 9.59375 12.609375 8.9375 C 12.609375 7.972656 12.179688 7.070312 11.433594 6.464844 C 10.683594 5.855469 9.703125 5.621094 8.742188 5.820312 C 7.535156 6.074219 6.558594 7.054688 6.308594 8.257812 C 6.117188 9.164062 6.308594 10.066406 6.84375 10.800781 C 7.203125 11.296875 7.414062 11.847656 7.476562 12.410156 L 7.382812 12.410156 C 7.125 12.410156 6.917969 12.617188 6.917969 12.875 L 6.917969 14.820312 C 6.917969 15.078125 7.125 15.285156 7.382812 15.285156 L 8.957031 15.285156 L 8.957031 15.898438 Z M 7.59375 10.253906 C 7.214844 9.734375 7.082031 9.09375 7.214844 8.449219 C 7.394531 7.597656 8.082031 6.90625 8.929688 6.730469 C 9.617188 6.585938 10.316406 6.75 10.847656 7.183594 C 11.378906 7.613281 11.683594 8.253906 11.683594 8.9375 C 11.683594 9.402344 11.539062 9.847656 11.273438 10.226562 C 10.785156 10.917969 10.496094 11.667969 10.429688 12.410156 L 8.417969 12.410156 C 8.355469 11.652344 8.074219 10.914062 7.59375 10.253906 Z M 7.84375 13.339844 L 11 13.339844 L 11 14.355469 L 7.84375 14.355469 Z M 7.84375 13.339844 " fill-opacity="1" fill-rule="nonzero"/></svg>