<svg xmlns="http://www.w3.org/2000/svg" xmlns:xlink="http://www.w3.org/1999/xlink" width="40" zoomAndPan="magnify" viewBox="0 0 30 30.000001" height="40" preserveAspectRatio="xMidYMid meet" version="1.0"><defs><clipPath id="30d103882d"><path d="M 0.484375 0 L 29.515625 0 L 29.515625 29.03125 L 0.484375 29.03125 Z M 0.484375 0 " clip-rule="nonzero"/></clipPath><clipPath id="0e63afea87"><path d="M 3.386719 2.902344 L 26.613281 2.902344 L 26.613281 26.128906 L 3.386719 26.128906 Z M 3.386719 2.902344 " clip-rule="nonzero"/></clipPath></defs><g clip-path="url(#30d103882d)"><path fill="#ffffff" d="M 0.484375 0 L 29.515625 0 L 29.515625 29.03125 L 0.484375 29.03125 Z M 0.484375 0 " fill-opacity="1" fill-rule="nonzero"/><path fill="#ffffff" d="M 0.484375 0 L 29.515625 0 L 29.515625 29.03125 L 0.484375 29.03125 Z M 0.484375 0 " fill-opacity="1" fill-rule="nonzero"/></g><g clip-path="url(#0e63afea87)"><path fill="#935f3d" d="M 12.152344 11.117188 L 10.464844 11.117188 C 11.140625 10.21875 12.066406 9.539062 13.128906 9.167969 C 12.683594 9.734375 12.371094 10.433594 12.152344 11.117188 Z M 9.347656 14.140625 L 11.664062 14.140625 C 11.6875 13.335938 11.785156 12.570312 11.945312 11.871094 L 9.988281 11.871094 C 9.625 12.554688 9.398438 13.324219 9.347656 14.140625 Z M 15.375 8.914062 L 15.375 11.117188 L 17.058594 11.117188 C 16.777344 10.320312 16.210938 9.199219 15.375 8.914062 Z M 14.625 20.117188 L 14.625 17.914062 L 12.941406 17.914062 C 13.222656 18.714844 13.789062 19.832031 14.625 20.117188 Z M 13.128906 19.867188 C 12.683594 19.296875 12.371094 18.597656 12.152344 17.914062 L 10.464844 17.914062 C 11.140625 18.8125 12.066406 19.496094 13.128906 19.867188 Z M 9.988281 17.160156 L 11.945312 17.160156 C 11.785156 16.464844 11.6875 15.699219 11.664062 14.890625 L 9.347656 14.890625 C 9.398438 15.707031 9.625 16.476562 9.988281 17.160156 Z M 17.585938 14.890625 L 15.375 14.890625 L 15.375 17.160156 L 17.28125 17.160156 C 17.453125 16.476562 17.558594 15.707031 17.585938 14.890625 Z M 15.375 20.117188 C 16.210938 19.832031 16.777344 18.714844 17.058594 17.914062 L 15.375 17.914062 Z M 14.625 14.890625 L 12.414062 14.890625 C 12.441406 15.707031 12.546875 16.476562 12.71875 17.160156 L 14.625 17.160156 Z M 19.816406 10.273438 L 20.183594 10.273438 C 20.390625 10.273438 20.5625 10.105469 20.5625 9.898438 L 20.5625 6.644531 L 22.472656 6.644531 C 22.625 7.054688 23.019531 7.347656 23.484375 7.347656 C 24.078125 7.347656 24.558594 6.863281 24.558594 6.269531 C 24.558594 5.675781 24.078125 5.191406 23.484375 5.191406 C 23.019531 5.191406 22.625 5.484375 22.472656 5.894531 L 20.183594 5.894531 C 19.976562 5.894531 19.808594 6.0625 19.808594 6.269531 L 19.808594 9.519531 L 19.03125 9.519531 C 19.207031 9.664062 19.378906 9.816406 19.539062 9.976562 C 19.632812 10.074219 19.726562 10.171875 19.816406 10.273438 Z M 18.054688 17.160156 L 20.011719 17.160156 C 20.375 16.476562 20.601562 15.707031 20.652344 14.890625 L 18.335938 14.890625 C 18.3125 15.699219 18.214844 16.464844 18.054688 17.160156 Z M 20.011719 11.871094 L 18.054688 11.871094 C 18.214844 12.570312 18.3125 13.335938 18.335938 14.140625 L 20.652344 14.140625 C 20.601562 13.324219 20.375 12.554688 20.011719 11.871094 Z M 23.484375 21.6875 C 23.019531 21.6875 22.625 21.976562 22.472656 22.386719 L 20.5625 22.386719 L 20.5625 19.136719 C 20.5625 18.929688 20.390625 18.757812 20.183594 18.757812 L 19.816406 18.757812 C 19.726562 18.859375 19.632812 18.960938 19.539062 19.054688 C 19.378906 19.214844 19.207031 19.367188 19.03125 19.511719 L 19.808594 19.511719 L 19.808594 22.761719 C 19.808594 22.96875 19.976562 23.140625 20.183594 23.140625 L 22.472656 23.140625 C 22.625 23.546875 23.019531 23.839844 23.484375 23.839844 C 24.078125 23.839844 24.558594 23.355469 24.558594 22.761719 C 24.558594 22.167969 24.078125 21.6875 23.484375 21.6875 Z M 17.847656 11.117188 L 19.535156 11.117188 C 18.859375 10.21875 17.933594 9.539062 16.871094 9.167969 C 17.316406 9.734375 17.628906 10.433594 17.847656 11.117188 Z M 14.625 11.871094 L 12.71875 11.871094 C 12.546875 12.558594 12.441406 13.324219 12.414062 14.140625 L 14.625 14.140625 Z M 14.625 8.914062 C 13.789062 9.199219 13.222656 10.320312 12.941406 11.117188 L 14.625 11.117188 Z M 24.183594 14.890625 C 24.335938 15.300781 24.730469 15.59375 25.191406 15.59375 C 25.789062 15.59375 26.269531 15.109375 26.269531 14.515625 C 26.269531 13.921875 25.789062 13.4375 25.191406 13.4375 C 24.730469 13.4375 24.335938 13.730469 24.183594 14.140625 L 21.40625 14.140625 C 21.414062 14.265625 21.417969 14.390625 21.417969 14.515625 C 21.417969 14.640625 21.414062 14.769531 21.40625 14.890625 Z M 22.238281 9.527344 C 22.03125 9.527344 21.863281 9.695312 21.863281 9.902344 L 21.863281 12.300781 L 21.027344 12.300781 C 21.117188 12.542969 21.191406 12.796875 21.25 13.050781 L 22.238281 13.050781 C 22.445312 13.050781 22.613281 12.882812 22.613281 12.675781 L 22.613281 10.28125 L 24.527344 10.28125 C 24.679688 10.6875 25.074219 10.980469 25.535156 10.980469 C 26.128906 10.980469 26.613281 10.5 26.613281 9.902344 C 26.613281 9.308594 26.128906 8.828125 25.535156 8.828125 C 25.074219 8.828125 24.679688 9.117188 24.527344 9.527344 Z M 25.535156 18.050781 C 25.074219 18.050781 24.679688 18.34375 24.527344 18.753906 L 22.613281 18.753906 L 22.613281 16.355469 C 22.613281 16.148438 22.445312 15.980469 22.238281 15.980469 L 21.25 15.980469 C 21.191406 16.238281 21.117188 16.488281 21.027344 16.734375 L 21.863281 16.734375 L 21.863281 19.128906 C 21.863281 19.335938 22.03125 19.503906 22.238281 19.503906 L 24.527344 19.503906 C 24.679688 19.914062 25.074219 20.207031 25.535156 20.207031 C 26.128906 20.207031 26.613281 19.722656 26.613281 19.128906 C 26.613281 18.535156 26.128906 18.050781 25.535156 18.050781 Z M 17.28125 11.871094 L 15.375 11.871094 L 15.375 14.140625 L 17.585938 14.140625 C 17.558594 13.324219 17.453125 12.558594 17.28125 11.871094 Z M 7.699219 14.515625 C 7.699219 10.484375 10.96875 7.214844 15 7.214844 C 15.671875 7.214844 16.320312 7.304688 16.9375 7.476562 L 16.9375 2.902344 L 13.0625 2.902344 L 13.0625 4.847656 C 11.777344 5.105469 10.585938 5.609375 9.535156 6.308594 L 8.160156 4.933594 L 5.417969 7.675781 L 6.792969 9.050781 C 6.09375 10.101562 5.585938 11.296875 5.332031 12.578125 L 3.386719 12.578125 L 3.386719 16.453125 L 5.332031 16.453125 C 5.585938 17.738281 6.09375 18.929688 6.792969 19.980469 L 5.417969 21.355469 L 8.160156 24.097656 L 9.535156 22.722656 C 10.585938 23.421875 11.777344 23.929688 13.0625 24.183594 L 13.0625 26.128906 L 16.9375 26.128906 L 16.9375 21.558594 C 16.320312 21.726562 15.671875 21.816406 15 21.816406 C 10.96875 21.816406 7.699219 18.546875 7.699219 14.515625 Z M 17.847656 17.914062 C 17.628906 18.597656 17.316406 19.296875 16.871094 19.867188 C 17.933594 19.496094 18.859375 18.8125 19.535156 17.914062 Z M 17.847656 17.914062 " fill-opacity="1" fill-rule="nonzero"/></g></svg>