<svg xmlns="http://www.w3.org/2000/svg" xmlns:xlink="http://www.w3.org/1999/xlink" width="40" zoomAndPan="magnify" viewBox="0 0 30 30.000001" height="40" preserveAspectRatio="xMidYMid meet" version="1.0"><defs><clipPath id="5686d8b10c"><path d="M 0.484375 0 L 29.515625 0 L 29.515625 29.03125 L 0.484375 29.03125 Z M 0.484375 0 " clip-rule="nonzero"/></clipPath><clipPath id="f88b2c6348"><path d="M 2.828125 5.109375 L 26.78125 5.109375 L 26.78125 24.707031 L 2.828125 24.707031 Z M 2.828125 5.109375 " clip-rule="nonzero"/></clipPath></defs><g clip-path="url(#5686d8b10c)"><path fill="#ffffff" d="M 0.484375 0 L 29.515625 0 L 29.515625 29.03125 L 0.484375 29.03125 Z M 0.484375 0 " fill-opacity="1" fill-rule="nonzero"/><path fill="#ffffff" d="M 0.484375 0 L 29.515625 0 L 29.515625 29.03125 L 0.484375 29.03125 Z M 0.484375 0 " fill-opacity="1" fill-rule="nonzero"/></g><path fill="#935f3d" d="M 5.296875 6.75 C 5.296875 6.863281 5.253906 6.957031 5.175781 7.039062 C 5.097656 7.117188 5 7.160156 4.886719 7.160156 C 4.773438 7.160156 4.675781 7.117188 4.597656 7.039062 C 4.515625 6.957031 4.476562 6.863281 4.476562 6.75 C 4.476562 6.636719 4.515625 6.539062 4.597656 6.457031 C 4.675781 6.378906 4.773438 6.339844 4.886719 6.339844 C 5 6.339844 5.097656 6.378906 5.175781 6.457031 C 5.253906 6.539062 5.296875 6.636719 5.296875 6.75 Z M 5.296875 6.75 " fill-opacity="1" fill-rule="nonzero"/><path fill="#935f3d" d="M 22.503906 6.75 C 22.503906 6.863281 22.464844 6.957031 22.382812 7.039062 C 22.304688 7.117188 22.207031 7.160156 22.09375 7.160156 C 21.980469 7.160156 21.882812 7.117188 21.804688 7.039062 C 21.722656 6.957031 21.683594 6.863281 21.683594 6.75 C 21.683594 6.636719 21.722656 6.539062 21.804688 6.457031 C 21.882812 6.378906 21.980469 6.339844 22.09375 6.339844 C 22.207031 6.339844 22.304688 6.378906 22.382812 6.457031 C 22.464844 6.539062 22.503906 6.636719 22.503906 6.75 Z M 22.503906 6.75 " fill-opacity="1" fill-rule="nonzero"/><path fill="#935f3d" d="M 17.585938 6.75 C 17.585938 6.863281 17.546875 6.957031 17.46875 7.039062 C 17.386719 7.117188 17.289062 7.160156 17.175781 7.160156 C 17.0625 7.160156 16.96875 7.117188 16.886719 7.039062 C 16.808594 6.957031 16.769531 6.863281 16.769531 6.75 C 16.769531 6.636719 16.808594 6.539062 16.886719 6.457031 C 16.96875 6.378906 17.0625 6.339844 17.175781 6.339844 C 17.289062 6.339844 17.386719 6.378906 17.46875 6.457031 C 17.546875 6.539062 17.585938 6.636719 17.585938 6.75 Z M 17.585938 6.75 " fill-opacity="1" fill-rule="nonzero"/><path fill="#935f3d" d="M 19.226562 6.75 C 19.226562 6.863281 19.1875 6.957031 19.105469 7.039062 C 19.027344 7.117188 18.929688 7.160156 18.816406 7.160156 C 18.703125 7.160156 18.605469 7.117188 18.527344 7.039062 C 18.445312 6.957031 18.40625 6.863281 18.40625 6.75 C 18.40625 6.636719 18.445312 6.539062 18.527344 6.457031 C 18.605469 6.378906 18.703125 6.339844 18.816406 6.339844 C 18.929688 6.339844 19.027344 6.378906 19.105469 6.457031 C 19.1875 6.539062 19.226562 6.636719 19.226562 6.75 Z M 19.226562 6.75 " fill-opacity="1" fill-rule="nonzero"/><path fill="#935f3d" d="M 20.863281 6.75 C 20.863281 6.863281 20.824219 6.957031 20.746094 7.039062 C 20.664062 7.117188 20.566406 7.160156 20.457031 7.160156 C 20.34375 7.160156 20.246094 7.117188 20.164062 7.039062 C 20.085938 6.957031 20.046875 6.863281 20.046875 6.75 C 20.046875 6.636719 20.085938 6.539062 20.164062 6.457031 C 20.246094 6.378906 20.34375 6.339844 20.457031 6.339844 C 20.566406 6.339844 20.664062 6.378906 20.746094 6.457031 C 20.824219 6.539062 20.863281 6.636719 20.863281 6.75 Z M 20.863281 6.75 " fill-opacity="1" fill-rule="nonzero"/><g clip-path="url(#f88b2c6348)"><path fill="#935f3d" d="M 25.371094 14.738281 C 24.695312 14.738281 24.140625 15.289062 24.140625 15.96875 L 24.140625 6.339844 C 24.140625 5.660156 23.589844 5.109375 22.914062 5.109375 L 4.066406 5.109375 C 3.390625 5.109375 2.835938 5.660156 2.835938 6.339844 L 2.835938 19.449219 C 2.835938 20.128906 3.390625 20.679688 4.066406 20.679688 L 16.425781 20.679688 C 16.46875 20.875 16.429688 20.800781 16.585938 21.1875 L 16.496094 22.289062 C 16.449219 22.820312 16.632812 23.351562 16.996094 23.746094 C 17.355469 24.140625 17.871094 24.367188 18.40625 24.367188 C 19.464844 24.367188 20.324219 23.507812 20.324219 22.449219 C 20.324219 22.394531 20.324219 22.335938 20.320312 22.289062 L 20.28125 21.824219 C 20.851562 21.835938 21.066406 21.785156 21.390625 21.222656 C 21.457031 21.105469 21.457031 21.089844 21.683594 21.089844 L 24.140625 21.089844 L 24.140625 21.292969 C 24.140625 21.972656 24.695312 22.523438 25.371094 22.523438 C 26.050781 22.523438 26.601562 21.972656 26.601562 21.292969 L 26.601562 15.96875 C 26.601562 15.289062 26.050781 14.738281 25.371094 14.738281 Z M 16.425781 15.886719 L 16.257812 16.386719 C 16.09375 16.574219 15.964844 16.792969 15.886719 17.023438 C 15.699219 17.59375 15.859375 18.101562 15.957031 18.335938 L 16.261719 19.859375 L 4.066406 19.859375 C 3.839844 19.859375 3.65625 19.675781 3.65625 19.449219 L 3.65625 6.339844 C 3.65625 6.113281 3.839844 5.929688 4.066406 5.929688 L 22.914062 5.929688 C 23.140625 5.929688 23.324219 6.113281 23.324219 6.339844 L 23.324219 15.992188 L 20.707031 15.996094 L 19.980469 15.414062 C 19.90625 15.359375 19.828125 15.3125 19.742188 15.277344 L 19.660156 14.242188 C 20.636719 13.769531 21.273438 12.769531 21.273438 11.664062 C 21.273438 10.550781 20.617188 9.527344 19.601562 9.058594 C 19.476562 9.003906 19.328125 9.011719 19.210938 9.085938 C 19.09375 9.164062 19.019531 9.292969 19.019531 9.433594 L 19.019531 11.050781 C 19.019531 11.390625 18.746094 11.664062 18.40625 11.664062 C 18.242188 11.664062 18.085938 11.601562 17.972656 11.484375 C 17.855469 11.371094 17.792969 11.214844 17.792969 11.050781 L 17.792969 9.433594 C 17.792969 9.292969 17.722656 9.164062 17.601562 9.085938 C 17.484375 9.011719 17.335938 9.003906 17.210938 9.058594 C 16.195312 9.527344 15.539062 10.550781 15.539062 11.664062 C 15.539062 12.769531 16.175781 13.769531 17.15625 14.242188 L 17.074219 15.242188 C 16.773438 15.339844 16.53125 15.574219 16.425781 15.886719 Z M 18.914062 15.195312 L 17.898438 15.195312 L 17.996094 14.011719 C 18.011719 13.828125 17.898438 13.65625 17.722656 13.59375 C 16.90625 13.304688 16.359375 12.53125 16.359375 11.664062 C 16.359375 11.109375 16.585938 10.585938 16.972656 10.207031 L 16.972656 11.050781 C 16.972656 11.433594 17.121094 11.796875 17.390625 12.066406 C 17.660156 12.335938 18.023438 12.484375 18.40625 12.484375 C 19.195312 12.484375 19.839844 11.839844 19.839844 11.050781 L 19.839844 10.207031 C 20.226562 10.585938 20.457031 11.109375 20.457031 11.664062 C 20.457031 12.53125 19.90625 13.304688 19.089844 13.59375 C 18.914062 13.65625 18.800781 13.828125 18.816406 14.011719 Z M 18.40625 23.546875 C 18.09375 23.546875 17.808594 23.421875 17.597656 23.191406 C 17.386719 22.960938 17.285156 22.664062 17.3125 22.355469 L 17.359375 21.785156 C 17.453125 21.808594 17.550781 21.824219 17.648438 21.824219 L 19.457031 21.824219 L 19.503906 22.363281 C 19.503906 22.390625 19.503906 22.421875 19.503906 22.449219 C 19.503906 23.054688 19.011719 23.546875 18.40625 23.546875 Z M 24.140625 20.269531 L 21.683594 20.269531 C 21.273438 20.269531 20.84375 20.445312 20.632812 20.902344 C 20.589844 20.96875 20.519531 21.003906 20.441406 21.003906 L 17.648438 21.003906 C 17.457031 21.003906 17.296875 20.867188 17.261719 20.667969 L 16.753906 18.128906 C 16.746094 18.097656 16.738281 18.066406 16.722656 18.035156 C 16.667969 17.921875 16.554688 17.617188 16.667969 17.28125 C 16.714844 17.136719 16.796875 17.003906 16.910156 16.894531 C 16.953125 16.847656 16.988281 16.792969 17.007812 16.730469 L 17.203125 16.144531 C 17.230469 16.066406 17.304688 16.011719 17.386719 16.011719 L 19.347656 16.011719 C 19.390625 16.011719 19.433594 16.027344 19.46875 16.054688 L 20.304688 16.726562 C 20.378906 16.785156 20.46875 16.816406 20.5625 16.816406 L 24.140625 16.8125 Z M 25.78125 21.292969 C 25.78125 21.519531 25.597656 21.703125 25.371094 21.703125 C 25.144531 21.703125 24.960938 21.519531 24.960938 21.292969 L 24.960938 15.96875 C 24.960938 15.742188 25.144531 15.558594 25.371094 15.558594 C 25.597656 15.558594 25.78125 15.742188 25.78125 15.96875 Z M 25.78125 21.292969 " fill-opacity="1" fill-rule="nonzero"/></g><path fill="#935f3d" d="M 5.046875 11.015625 L 5.464844 11.332031 C 5.4375 11.492188 5.425781 11.648438 5.425781 11.804688 C 5.425781 11.960938 5.4375 12.117188 5.464844 12.273438 L 5.046875 12.59375 C 4.882812 12.71875 4.839844 12.945312 4.941406 13.125 L 5.464844 14.03125 C 5.566406 14.210938 5.785156 14.285156 5.976562 14.203125 L 6.460938 14.003906 C 6.703125 14.203125 6.980469 14.363281 7.277344 14.472656 L 7.347656 14.996094 C 7.371094 15.199219 7.546875 15.351562 7.753906 15.351562 L 8.796875 15.351562 C 9.003906 15.351562 9.179688 15.199219 9.203125 14.996094 L 9.273438 14.472656 C 9.570312 14.363281 9.84375 14.203125 10.089844 14.003906 L 10.574219 14.203125 C 10.765625 14.285156 10.984375 14.210938 11.085938 14.03125 L 11.609375 13.125 C 11.710938 12.945312 11.667969 12.71875 11.503906 12.59375 L 11.085938 12.273438 C 11.113281 12.117188 11.125 11.960938 11.125 11.804688 C 11.125 11.648438 11.113281 11.492188 11.085938 11.332031 L 11.503906 11.015625 C 11.667969 10.890625 11.710938 10.660156 11.609375 10.484375 L 11.085938 9.578125 C 10.984375 9.398438 10.765625 9.324219 10.574219 9.402344 L 10.089844 9.605469 C 9.84375 9.40625 9.570312 9.246094 9.273438 9.136719 L 9.203125 8.613281 C 9.179688 8.410156 9.003906 8.257812 8.796875 8.257812 L 7.753906 8.257812 C 7.546875 8.257812 7.371094 8.410156 7.347656 8.613281 L 7.277344 9.136719 C 6.980469 9.246094 6.703125 9.40625 6.460938 9.605469 L 5.976562 9.402344 C 5.785156 9.324219 5.566406 9.398438 5.464844 9.578125 L 4.941406 10.484375 C 4.839844 10.660156 4.882812 10.890625 5.046875 11.015625 Z M 6.316406 12.335938 C 6.269531 12.15625 6.242188 11.976562 6.242188 11.804688 C 6.242188 11.632812 6.269531 11.453125 6.316406 11.273438 C 6.359375 11.113281 6.300781 10.941406 6.171875 10.839844 L 5.832031 10.582031 L 5.992188 10.296875 L 6.386719 10.460938 C 6.539062 10.527344 6.71875 10.492188 6.835938 10.371094 C 7.085938 10.117188 7.40625 9.9375 7.753906 9.84375 C 7.917969 9.800781 8.035156 9.664062 8.058594 9.5 L 8.113281 9.074219 L 8.4375 9.074219 L 8.492188 9.5 C 8.515625 9.664062 8.632812 9.800781 8.796875 9.84375 C 9.144531 9.9375 9.464844 10.117188 9.714844 10.371094 C 9.832031 10.492188 10.011719 10.527344 10.164062 10.460938 L 10.558594 10.296875 L 10.71875 10.582031 L 10.378906 10.839844 C 10.246094 10.941406 10.191406 11.113281 10.234375 11.273438 C 10.28125 11.453125 10.304688 11.628906 10.304688 11.804688 C 10.304688 11.976562 10.28125 12.15625 10.234375 12.335938 C 10.191406 12.496094 10.246094 12.667969 10.378906 12.769531 L 10.71875 13.027344 L 10.558594 13.308594 L 10.164062 13.144531 C 10.011719 13.082031 9.832031 13.117188 9.714844 13.234375 C 9.464844 13.488281 9.144531 13.671875 8.796875 13.765625 C 8.632812 13.808594 8.515625 13.945312 8.492188 14.109375 L 8.4375 14.53125 L 8.113281 14.53125 L 8.058594 14.109375 C 8.035156 13.945312 7.917969 13.808594 7.753906 13.765625 C 7.40625 13.671875 7.085938 13.488281 6.835938 13.234375 C 6.71875 13.117188 6.539062 13.082031 6.386719 13.148438 L 5.992188 13.308594 L 5.832031 13.027344 L 6.171875 12.769531 C 6.300781 12.667969 6.359375 12.496094 6.316406 12.335938 Z M 6.316406 12.335938 " fill-opacity="1" fill-rule="nonzero"/><path fill="#935f3d" d="M 8.273438 13.171875 C 9.03125 13.171875 9.644531 12.558594 9.644531 11.804688 C 9.644531 11.050781 9.03125 10.4375 8.273438 10.4375 C 7.519531 10.4375 6.90625 11.050781 6.90625 11.804688 C 6.90625 12.558594 7.519531 13.171875 8.273438 13.171875 Z M 8.273438 11.253906 C 8.578125 11.253906 8.824219 11.5 8.824219 11.804688 C 8.824219 12.105469 8.578125 12.351562 8.273438 12.351562 C 7.972656 12.351562 7.726562 12.105469 7.726562 11.804688 C 7.726562 11.5 7.972656 11.253906 8.273438 11.253906 Z M 8.273438 11.253906 " fill-opacity="1" fill-rule="nonzero"/><path fill="#935f3d" d="M 12.671875 10.84375 L 14.925781 10.84375 C 15.148438 10.84375 15.332031 10.664062 15.332031 10.4375 C 15.332031 10.210938 15.148438 10.027344 14.925781 10.027344 L 12.671875 10.027344 C 12.445312 10.027344 12.261719 10.210938 12.261719 10.4375 C 12.261719 10.664062 12.445312 10.84375 12.671875 10.84375 Z M 12.671875 10.84375 " fill-opacity="1" fill-rule="nonzero"/><path fill="#935f3d" d="M 13.082031 11.253906 C 12.855469 11.253906 12.671875 11.4375 12.671875 11.664062 C 12.671875 11.890625 12.855469 12.074219 13.082031 12.074219 L 14.308594 12.074219 C 14.535156 12.074219 14.71875 11.890625 14.71875 11.664062 C 14.71875 11.4375 14.535156 11.253906 14.308594 11.253906 Z M 13.082031 11.253906 " fill-opacity="1" fill-rule="nonzero"/><path fill="#935f3d" d="M 12.671875 13.304688 L 14.71875 13.304688 C 14.945312 13.304688 15.128906 13.121094 15.128906 12.894531 C 15.128906 12.667969 14.945312 12.484375 14.71875 12.484375 L 12.671875 12.484375 C 12.445312 12.484375 12.261719 12.667969 12.261719 12.894531 C 12.261719 13.121094 12.445312 13.304688 12.671875 13.304688 Z M 12.671875 13.304688 " fill-opacity="1" fill-rule="nonzero"/><path fill="#935f3d" d="M 15.128906 13.714844 L 12.261719 13.714844 C 12.035156 13.714844 11.851562 13.898438 11.851562 14.125 C 11.851562 14.351562 12.035156 14.53125 12.261719 14.53125 L 15.128906 14.53125 C 15.355469 14.53125 15.539062 14.351562 15.539062 14.125 C 15.539062 13.898438 15.355469 13.714844 15.128906 13.714844 Z M 15.128906 13.714844 " fill-opacity="1" fill-rule="nonzero"/><path fill="#935f3d" d="M 14.71875 16.171875 L 6.113281 16.171875 C 5.890625 16.171875 5.707031 16.355469 5.707031 16.582031 C 5.707031 16.808594 5.890625 16.992188 6.113281 16.992188 L 14.71875 16.992188 C 14.945312 16.992188 15.128906 16.808594 15.128906 16.582031 C 15.128906 16.355469 14.945312 16.171875 14.71875 16.171875 Z M 14.71875 16.171875 " fill-opacity="1" fill-rule="nonzero"/><path fill="#935f3d" d="M 14.71875 17.402344 L 5.296875 17.402344 C 5.070312 17.402344 4.886719 17.585938 4.886719 17.8125 C 4.886719 18.035156 5.070312 18.21875 5.296875 18.21875 L 14.71875 18.21875 C 14.945312 18.21875 15.128906 18.035156 15.128906 17.8125 C 15.128906 17.585938 14.945312 17.402344 14.71875 17.402344 Z M 14.71875 17.402344 " fill-opacity="1" fill-rule="nonzero"/></svg>