<svg xmlns="http://www.w3.org/2000/svg" xmlns:xlink="http://www.w3.org/1999/xlink" width="40" zoomAndPan="magnify" viewBox="0 0 30 30.000001" height="40" preserveAspectRatio="xMidYMid meet" version="1.0"><defs><clipPath id="59937425ee"><path d="M 0.484375 0 L 29.515625 0 L 29.515625 29.03125 L 0.484375 29.03125 Z M 0.484375 0 " clip-rule="nonzero"/></clipPath><clipPath id="2d66f4ae5a"><path d="M 3.386719 5 L 26.613281 5 L 26.613281 25.546875 L 3.386719 25.546875 Z M 3.386719 5 " clip-rule="nonzero"/></clipPath><clipPath id="9b1076f46a"><path d="M 6 3.773438 L 7 3.773438 L 7 8 L 6 8 Z M 6 3.773438 " clip-rule="nonzero"/></clipPath><clipPath id="6cb2875a35"><path d="M 10 3.773438 L 12 3.773438 L 12 8 L 10 8 Z M 10 3.773438 " clip-rule="nonzero"/></clipPath><clipPath id="98646616a5"><path d="M 14 3.773438 L 16 3.773438 L 16 8 L 14 8 Z M 14 3.773438 " clip-rule="nonzero"/></clipPath><clipPath id="e389af5c66"><path d="M 18 3.773438 L 20 3.773438 L 20 8 L 18 8 Z M 18 3.773438 " clip-rule="nonzero"/></clipPath><clipPath id="223dd72f4e"><path d="M 23 3.773438 L 24 3.773438 L 24 8 L 23 8 Z M 23 3.773438 " clip-rule="nonzero"/></clipPath></defs><g clip-path="url(#59937425ee)"><path fill="#ffffff" d="M 0.484375 0 L 29.515625 0 L 29.515625 29.03125 L 0.484375 29.03125 Z M 0.484375 0 " fill-opacity="1" fill-rule="nonzero"/><path fill="#ffffff" d="M 0.484375 0 L 29.515625 0 L 29.515625 29.03125 L 0.484375 29.03125 Z M 0.484375 0 " fill-opacity="1" fill-rule="nonzero"/></g><g clip-path="url(#2d66f4ae5a)"><path fill="#935f3d" d="M 24.988281 25.253906 L 5.011719 25.253906 C 4.117188 25.253906 3.386719 24.523438 3.386719 23.625 L 3.386719 6.714844 C 3.386719 5.816406 4.117188 5.085938 5.011719 5.085938 L 24.988281 5.085938 C 25.882812 5.085938 26.613281 5.816406 26.613281 6.714844 L 26.613281 23.625 C 26.613281 24.523438 25.882812 25.253906 24.988281 25.253906 Z M 5.011719 5.8125 C 4.515625 5.8125 4.113281 6.21875 4.113281 6.714844 L 4.113281 23.625 C 4.113281 24.121094 4.515625 24.527344 5.011719 24.527344 L 24.988281 24.527344 C 25.484375 24.527344 25.886719 24.121094 25.886719 23.625 L 25.886719 6.714844 C 25.886719 6.21875 25.484375 5.8125 24.988281 5.8125 Z M 5.011719 5.8125 " fill-opacity="1" fill-rule="nonzero"/></g><g clip-path="url(#9b1076f46a)"><path fill="#935f3d" d="M 6.445312 7.078125 C 6.246094 7.078125 6.085938 6.914062 6.085938 6.714844 L 6.085938 4.136719 C 6.085938 3.9375 6.246094 3.777344 6.445312 3.777344 C 6.648438 3.777344 6.808594 3.9375 6.808594 4.136719 L 6.808594 6.714844 C 6.808594 6.914062 6.648438 7.078125 6.445312 7.078125 Z M 6.445312 7.078125 " fill-opacity="1" fill-rule="nonzero"/></g><g clip-path="url(#6cb2875a35)"><path fill="#935f3d" d="M 10.722656 7.078125 C 10.523438 7.078125 10.359375 6.914062 10.359375 6.714844 L 10.359375 4.136719 C 10.359375 3.9375 10.523438 3.777344 10.722656 3.777344 C 10.925781 3.777344 11.085938 3.9375 11.085938 4.136719 L 11.085938 6.714844 C 11.085938 6.914062 10.925781 7.078125 10.722656 7.078125 Z M 10.722656 7.078125 " fill-opacity="1" fill-rule="nonzero"/></g><g clip-path="url(#98646616a5)"><path fill="#935f3d" d="M 15 7.078125 C 14.800781 7.078125 14.636719 6.914062 14.636719 6.714844 L 14.636719 4.136719 C 14.636719 3.9375 14.800781 3.777344 15 3.777344 C 15.199219 3.777344 15.363281 3.9375 15.363281 4.136719 L 15.363281 6.714844 C 15.363281 6.914062 15.199219 7.078125 15 7.078125 Z M 15 7.078125 " fill-opacity="1" fill-rule="nonzero"/></g><g clip-path="url(#e389af5c66)"><path fill="#935f3d" d="M 19.277344 7.078125 C 19.074219 7.078125 18.914062 6.914062 18.914062 6.714844 L 18.914062 4.136719 C 18.914062 3.9375 19.074219 3.777344 19.277344 3.777344 C 19.476562 3.777344 19.640625 3.9375 19.640625 4.136719 L 19.640625 6.714844 C 19.640625 6.914062 19.476562 7.078125 19.277344 7.078125 Z M 19.277344 7.078125 " fill-opacity="1" fill-rule="nonzero"/></g><g clip-path="url(#223dd72f4e)"><path fill="#935f3d" d="M 23.554688 7.078125 C 23.351562 7.078125 23.191406 6.914062 23.191406 6.714844 L 23.191406 4.136719 C 23.191406 3.9375 23.351562 3.777344 23.554688 3.777344 C 23.753906 3.777344 23.914062 3.9375 23.914062 4.136719 L 23.914062 6.714844 C 23.914062 6.914062 23.753906 7.078125 23.554688 7.078125 Z M 23.554688 7.078125 " fill-opacity="1" fill-rule="nonzero"/></g><path fill="#935f3d" d="M 20.699219 15.65625 C 20.695312 15.65625 20.6875 15.652344 20.683594 15.652344 L 14.039062 15.363281 L 7.398438 15.652344 C 7.300781 15.65625 7.203125 15.621094 7.132812 15.554688 C 7.0625 15.484375 7.019531 15.390625 7.019531 15.292969 L 7.019531 9.167969 C 7.019531 9.054688 7.074219 8.949219 7.160156 8.882812 C 7.25 8.8125 7.367188 8.789062 7.476562 8.816406 L 14.039062 10.542969 L 20.605469 8.816406 C 20.714844 8.789062 20.832031 8.8125 20.921875 8.882812 C 21.007812 8.949219 21.0625 9.054688 21.0625 9.167969 L 21.0625 15.292969 C 21.0625 15.390625 21.019531 15.484375 20.949219 15.554688 C 20.882812 15.617188 20.792969 15.65625 20.699219 15.65625 Z M 14.039062 14.636719 C 14.046875 14.636719 14.050781 14.636719 14.058594 14.636719 L 20.335938 14.914062 L 20.335938 9.640625 L 14.132812 11.269531 C 14.074219 11.285156 14.007812 11.285156 13.949219 11.269531 L 7.746094 9.640625 L 7.746094 14.914062 L 14.023438 14.636719 C 14.03125 14.636719 14.035156 14.636719 14.039062 14.636719 Z M 14.039062 14.636719 " fill-opacity="1" fill-rule="nonzero"/><path fill="#935f3d" d="M 13.191406 13.90625 L 9.011719 13.90625 C 8.8125 13.90625 8.648438 13.742188 8.648438 13.542969 L 8.648438 11.160156 C 8.648438 11.050781 8.699219 10.949219 8.78125 10.878906 C 8.867188 10.8125 8.976562 10.785156 9.082031 10.804688 L 13.261719 11.65625 C 13.433594 11.691406 13.554688 11.839844 13.554688 12.011719 L 13.554688 13.542969 C 13.554688 13.742188 13.390625 13.90625 13.191406 13.90625 Z M 9.375 13.179688 L 12.828125 13.179688 L 12.828125 12.308594 L 9.375 11.605469 Z M 9.375 13.179688 " fill-opacity="1" fill-rule="nonzero"/><path fill="#935f3d" d="M 19.070312 13.90625 L 14.890625 13.90625 C 14.691406 13.90625 14.527344 13.742188 14.527344 13.542969 L 14.527344 12.011719 C 14.527344 11.839844 14.648438 11.691406 14.820312 11.65625 L 19 10.804688 C 19.105469 10.785156 19.214844 10.8125 19.300781 10.878906 C 19.382812 10.949219 19.433594 11.050781 19.433594 11.160156 L 19.433594 13.542969 C 19.433594 13.742188 19.269531 13.90625 19.070312 13.90625 Z M 15.253906 13.179688 L 18.707031 13.179688 L 18.707031 11.605469 L 15.253906 12.308594 Z M 15.253906 13.179688 " fill-opacity="1" fill-rule="nonzero"/><path fill="#935f3d" d="M 7.382812 22.554688 C 7.183594 22.554688 7.019531 22.390625 7.019531 22.191406 L 7.019531 8.148438 C 7.019531 7.949219 7.183594 7.785156 7.382812 7.785156 C 7.582031 7.785156 7.746094 7.949219 7.746094 8.148438 L 7.746094 22.191406 C 7.746094 22.390625 7.582031 22.554688 7.382812 22.554688 Z M 7.382812 22.554688 " fill-opacity="1" fill-rule="nonzero"/><path fill="#935f3d" d="M 14.4375 22.101562 C 14.328125 22.101562 14.222656 22.054688 14.15625 21.964844 L 13.195312 20.753906 L 11.652344 20.855469 C 11.511719 20.863281 11.382812 20.796875 11.3125 20.675781 C 11.242188 20.554688 11.25 20.40625 11.324219 20.292969 L 12.183594 19.003906 L 11.605469 17.570312 C 11.554688 17.441406 11.582031 17.292969 11.671875 17.191406 C 11.765625 17.089844 11.910156 17.046875 12.042969 17.085938 L 13.53125 17.5 L 14.71875 16.511719 C 14.824219 16.421875 14.972656 16.402344 15.097656 16.457031 C 15.226562 16.515625 15.308594 16.636719 15.3125 16.773438 L 15.378906 18.320312 L 16.6875 19.144531 C 16.804688 19.21875 16.867188 19.351562 16.855469 19.488281 C 16.839844 19.625 16.75 19.742188 16.621094 19.792969 L 15.167969 20.328125 L 14.792969 21.828125 C 14.757812 21.964844 14.648438 22.066406 14.515625 22.09375 C 14.488281 22.101562 14.464844 22.101562 14.4375 22.101562 Z M 13.359375 20.015625 C 13.472656 20.015625 13.578125 20.066406 13.644531 20.152344 L 14.265625 20.9375 L 14.511719 19.96875 C 14.542969 19.851562 14.625 19.757812 14.738281 19.714844 L 15.679688 19.367188 L 14.828125 18.832031 C 14.730469 18.769531 14.664062 18.660156 14.660156 18.539062 L 14.617188 17.539062 L 13.847656 18.179688 C 13.757812 18.257812 13.632812 18.285156 13.519531 18.253906 L 12.554688 17.980469 L 12.925781 18.914062 C 12.972656 19.023438 12.957031 19.148438 12.890625 19.25 L 12.335938 20.082031 L 13.335938 20.015625 C 13.34375 20.015625 13.351562 20.015625 13.359375 20.015625 Z M 13.359375 20.015625 " fill-opacity="1" fill-rule="nonzero"/><path fill="#935f3d" d="M 20.5625 22.101562 C 20.453125 22.101562 20.347656 22.054688 20.277344 21.964844 L 19.316406 20.753906 L 17.773438 20.855469 C 17.636719 20.863281 17.503906 20.796875 17.4375 20.675781 C 17.367188 20.554688 17.371094 20.40625 17.449219 20.292969 L 18.304688 19.003906 L 17.730469 17.570312 C 17.679688 17.441406 17.703125 17.292969 17.796875 17.191406 C 17.890625 17.089844 18.03125 17.046875 18.164062 17.085938 L 19.652344 17.5 L 20.84375 16.511719 C 20.949219 16.421875 21.09375 16.402344 21.222656 16.457031 C 21.347656 16.515625 21.429688 16.636719 21.4375 16.773438 L 21.5 18.320312 L 22.808594 19.144531 C 22.925781 19.21875 22.992188 19.351562 22.976562 19.488281 C 22.964844 19.625 22.871094 19.742188 22.742188 19.792969 L 21.292969 20.328125 L 20.914062 21.828125 C 20.878906 21.964844 20.773438 22.066406 20.636719 22.09375 C 20.613281 22.101562 20.585938 22.101562 20.5625 22.101562 Z M 19.484375 20.015625 C 19.59375 20.015625 19.699219 20.066406 19.769531 20.152344 L 20.390625 20.9375 L 20.636719 19.96875 C 20.664062 19.851562 20.75 19.757812 20.863281 19.714844 L 21.800781 19.367188 L 20.953125 18.832031 C 20.851562 18.769531 20.789062 18.660156 20.785156 18.539062 L 20.742188 17.539062 L 19.972656 18.179688 C 19.882812 18.257812 19.757812 18.285156 19.640625 18.253906 L 18.675781 17.980469 L 19.050781 18.914062 C 19.09375 19.023438 19.082031 19.148438 19.015625 19.25 L 18.460938 20.082031 L 19.460938 20.015625 C 19.46875 20.015625 19.476562 20.015625 19.484375 20.015625 Z M 19.484375 20.015625 " fill-opacity="1" fill-rule="nonzero"/></svg>