<svg xmlns="http://www.w3.org/2000/svg" xmlns:xlink="http://www.w3.org/1999/xlink" width="40" zoomAndPan="magnify" viewBox="0 0 30 30.000001" height="40" preserveAspectRatio="xMidYMid meet" version="1.0"><defs><clipPath id="d4597f9281"><path d="M 0.484375 0 L 29.515625 0 L 29.515625 29.03125 L 0.484375 29.03125 Z M 0.484375 0 " clip-rule="nonzero"/></clipPath><clipPath id="be060329c5"><path d="M 12 23 L 18 23 L 18 26.128906 L 12 26.128906 Z M 12 23 " clip-rule="nonzero"/></clipPath><clipPath id="5d7134559a"><path d="M 14 2.902344 L 16 2.902344 L 16 6 L 14 6 Z M 14 2.902344 " clip-rule="nonzero"/></clipPath></defs><g clip-path="url(#d4597f9281)"><path fill="#ffffff" d="M 0.484375 0 L 29.515625 0 L 29.515625 29.03125 L 0.484375 29.03125 Z M 0.484375 0 " fill-opacity="1" fill-rule="nonzero"/><path fill="#ffffff" d="M 0.484375 0 L 29.515625 0 L 29.515625 29.03125 L 0.484375 29.03125 Z M 0.484375 0 " fill-opacity="1" fill-rule="nonzero"/></g><path fill="#935f3d" d="M 15 24.046875 C 14.851562 24.046875 14.726562 23.925781 14.726562 23.773438 L 14.726562 17.828125 C 14.726562 17.679688 14.851562 17.558594 15 17.558594 C 15.148438 17.558594 15.273438 17.679688 15.273438 17.828125 L 15.273438 23.773438 C 15.273438 23.925781 15.148438 24.046875 15 24.046875 Z M 15 24.046875 " fill-opacity="1" fill-rule="evenodd"/><path fill="#935f3d" d="M 18.210938 24.046875 L 11.800781 24.046875 C 11.652344 24.046875 11.53125 23.925781 11.53125 23.773438 C 11.53125 20.15625 10.605469 19.148438 9.707031 18.167969 C 8.890625 17.285156 8.128906 16.441406 8.128906 13.964844 C 8.128906 10.167969 11.203125 7.082031 15 7.082031 C 18.796875 7.082031 21.882812 10.167969 21.882812 13.964844 C 21.882812 16.441406 21.109375 17.285156 20.304688 18.167969 C 19.410156 19.148438 18.484375 20.15625 18.484375 23.773438 C 18.484375 23.925781 18.359375 24.046875 18.210938 24.046875 Z M 12.074219 23.503906 L 17.9375 23.503906 C 17.980469 19.898438 19 18.78125 19.898438 17.800781 C 20.671875 16.957031 21.339844 16.222656 21.339844 13.964844 C 21.339844 10.46875 18.496094 7.625 15 7.625 C 11.515625 7.625 8.671875 10.46875 8.671875 13.964844 C 8.671875 16.222656 9.339844 16.957031 10.117188 17.800781 C 11.011719 18.78125 12.019531 19.898438 12.074219 23.503906 Z M 12.074219 23.503906 " fill-opacity="1" fill-rule="evenodd"/><g clip-path="url(#be060329c5)"><path fill="#935f3d" d="M 16.375 26.128906 L 13.640625 26.128906 C 12.90625 26.128906 12.320312 25.53125 12.320312 24.808594 L 12.320312 23.773438 C 12.320312 23.625 12.441406 23.503906 12.589844 23.503906 L 17.421875 23.503906 C 17.570312 23.503906 17.695312 23.625 17.695312 23.773438 L 17.695312 24.808594 C 17.695312 25.53125 17.09375 26.128906 16.375 26.128906 Z M 12.863281 24.046875 L 12.863281 24.808594 C 12.863281 25.230469 13.203125 25.585938 13.625 25.585938 L 16.375 25.585938 C 16.796875 25.585938 17.136719 25.230469 17.136719 24.808594 L 17.136719 24.046875 Z M 12.863281 24.046875 " fill-opacity="1" fill-rule="evenodd"/></g><g clip-path="url(#5d7134559a)"><path fill="#935f3d" d="M 15 5.421875 C 14.851562 5.421875 14.726562 5.296875 14.726562 5.148438 L 14.726562 3.175781 C 14.726562 3.027344 14.851562 2.902344 15 2.902344 C 15.148438 2.902344 15.273438 3.027344 15.273438 3.175781 L 15.273438 5.148438 C 15.273438 5.296875 15.148438 5.421875 15 5.421875 Z M 15 5.421875 " fill-opacity="1" fill-rule="evenodd"/></g><path fill="#935f3d" d="M 19.707031 7.132812 C 19.640625 7.132812 19.558594 7.109375 19.515625 7.054688 C 19.410156 6.945312 19.410156 6.78125 19.515625 6.671875 L 20.90625 5.269531 C 21.015625 5.160156 21.191406 5.160156 21.300781 5.269531 C 21.394531 5.378906 21.394531 5.542969 21.300781 5.652344 L 19.898438 7.054688 C 19.84375 7.109375 19.777344 7.132812 19.707031 7.132812 Z M 19.707031 7.132812 " fill-opacity="1" fill-rule="evenodd"/><path fill="#935f3d" d="M 10.304688 7.132812 C 10.238281 7.132812 10.167969 7.109375 10.117188 7.054688 L 8.714844 5.652344 C 8.617188 5.554688 8.617188 5.378906 8.714844 5.269531 C 8.824219 5.160156 9 5.160156 9.109375 5.269531 L 10.496094 6.671875 C 10.605469 6.765625 10.605469 6.945312 10.496094 7.054688 C 10.441406 7.109375 10.375 7.132812 10.304688 7.132812 Z M 10.304688 7.132812 " fill-opacity="1" fill-rule="evenodd"/><path fill="#935f3d" d="M 23.246094 11.761719 C 23.148438 11.761719 23.054688 11.71875 23 11.625 C 22.933594 11.503906 22.972656 11.339844 23.109375 11.257812 L 24.808594 10.265625 C 24.945312 10.195312 25.109375 10.238281 25.191406 10.371094 C 25.257812 10.496094 25.21875 10.660156 25.082031 10.742188 L 23.382812 11.734375 C 23.328125 11.746094 23.285156 11.761719 23.246094 11.761719 Z M 23.246094 11.761719 " fill-opacity="1" fill-rule="evenodd"/><path fill="#935f3d" d="M 6.769531 11.761719 C 6.726562 11.761719 6.671875 11.746094 6.632812 11.734375 L 4.917969 10.742188 C 4.796875 10.660156 4.742188 10.496094 4.824219 10.371094 C 4.902344 10.238281 5.066406 10.195312 5.191406 10.265625 L 6.90625 11.257812 C 7.039062 11.339844 7.082031 11.503906 7 11.625 C 6.957031 11.71875 6.863281 11.761719 6.769531 11.761719 Z M 6.769531 11.761719 " fill-opacity="1" fill-rule="evenodd"/><path fill="#935f3d" d="M 13.667969 19 C 12.90625 19 12.320312 18.375 12.144531 18.15625 C 11.164062 17.800781 10.972656 16.984375 11.027344 16.453125 C 10.660156 16.222656 10.441406 15.925781 10.347656 15.570312 C 10.222656 15.066406 10.414062 14.589844 10.539062 14.347656 C 10.046875 13.503906 10.386719 12.78125 10.726562 12.414062 C 10.617188 11.992188 10.644531 11.597656 10.835938 11.269531 C 11.082031 10.847656 11.515625 10.617188 11.816406 10.507812 C 11.734375 10.265625 11.75 10.019531 11.828125 9.789062 C 12.019531 9.285156 12.511719 9.027344 12.660156 8.957031 C 13.679688 8.101562 14.359375 8.128906 14.742188 8.304688 C 15.09375 8.46875 15.273438 8.78125 15.273438 9 L 15.273438 17.828125 C 15.273438 17.882812 15.257812 17.9375 15.230469 17.980469 C 14.769531 18.644531 14.25 18.984375 13.695312 19 C 13.679688 19 13.679688 19 13.667969 19 Z M 14.265625 8.742188 C 14.019531 8.742188 13.597656 8.875 12.984375 9.394531 C 12.960938 9.40625 12.933594 9.433594 12.90625 9.433594 C 12.90625 9.433594 12.46875 9.625 12.347656 9.964844 C 12.277344 10.140625 12.304688 10.332031 12.414062 10.550781 C 12.457031 10.632812 12.457031 10.726562 12.414062 10.792969 C 12.386719 10.875 12.304688 10.929688 12.222656 10.945312 C 12.222656 10.945312 11.558594 11.082031 11.3125 11.53125 C 11.175781 11.761719 11.175781 12.058594 11.300781 12.398438 C 11.339844 12.507812 11.300781 12.632812 11.21875 12.699219 C 11.136719 12.769531 10.496094 13.339844 11.066406 14.183594 C 11.136719 14.277344 11.136719 14.402344 11.066406 14.480469 C 11.066406 14.496094 10.753906 14.972656 10.878906 15.433594 C 10.945312 15.691406 11.136719 15.910156 11.449219 16.074219 C 11.558594 16.128906 11.613281 16.25 11.585938 16.375 C 11.558594 16.46875 11.40625 17.351562 12.386719 17.664062 C 12.441406 17.691406 12.496094 17.71875 12.523438 17.773438 C 12.539062 17.773438 13.054688 18.46875 13.679688 18.457031 C 14.046875 18.457031 14.402344 18.210938 14.726562 17.746094 L 14.726562 9.011719 C 14.726562 8.972656 14.660156 8.847656 14.484375 8.78125 C 14.429688 8.753906 14.359375 8.742188 14.265625 8.742188 Z M 14.726562 9.011719 Z M 14.726562 9.011719 " fill-opacity="1" fill-rule="evenodd"/><path fill="#935f3d" d="M 13.382812 12.796875 C 13.230469 12.796875 13.109375 12.671875 13.109375 12.523438 C 13.109375 12.375 13.230469 12.25 13.382812 12.25 C 13.597656 12.25 13.777344 12.074219 13.777344 11.855469 C 13.777344 11.707031 13.898438 11.585938 14.046875 11.585938 C 14.195312 11.585938 14.320312 11.707031 14.320312 11.855469 C 14.320312 12.375 13.898438 12.796875 13.382812 12.796875 Z M 13.382812 12.796875 " fill-opacity="1" fill-rule="evenodd"/><path fill="#935f3d" d="M 12.644531 11.789062 C 12.632812 11.789062 12.605469 11.773438 12.578125 11.773438 C 12.429688 11.734375 12.347656 11.585938 12.386719 11.449219 C 12.441406 11.230469 12.320312 11.011719 12.101562 10.945312 C 11.953125 10.902344 11.871094 10.769531 11.910156 10.617188 C 11.953125 10.46875 12.101562 10.386719 12.238281 10.425781 C 12.742188 10.5625 13.054688 11.082031 12.917969 11.585938 C 12.878906 11.707031 12.769531 11.789062 12.644531 11.789062 Z M 12.644531 11.789062 " fill-opacity="1" fill-rule="evenodd"/><path fill="#935f3d" d="M 12.347656 13.476562 C 12.222656 13.476562 12.117188 13.394531 12.089844 13.269531 C 11.980469 12.863281 11.558594 12.632812 11.148438 12.742188 C 11 12.78125 10.851562 12.6875 10.808594 12.550781 C 10.769531 12.398438 10.863281 12.25 11 12.210938 C 11.707031 12.03125 12.414062 12.441406 12.605469 13.136719 C 12.644531 13.285156 12.566406 13.433594 12.414062 13.476562 C 12.402344 13.476562 12.375 13.476562 12.347656 13.476562 Z M 12.347656 13.476562 " fill-opacity="1" fill-rule="evenodd"/><path fill="#935f3d" d="M 11.585938 16.617188 C 11.476562 16.617188 11.355469 16.605469 11.246094 16.578125 C 11.09375 16.535156 11.011719 16.386719 11.054688 16.238281 C 11.09375 16.101562 11.246094 16.007812 11.378906 16.046875 C 11.585938 16.101562 11.789062 16.074219 11.964844 15.980469 C 12.144531 15.871094 12.265625 15.707031 12.320312 15.515625 C 12.359375 15.367188 12.511719 15.285156 12.660156 15.324219 C 12.796875 15.367188 12.890625 15.503906 12.851562 15.652344 C 12.753906 15.992188 12.539062 16.277344 12.238281 16.441406 C 12.035156 16.5625 11.816406 16.617188 11.585938 16.617188 Z M 11.585938 16.617188 " fill-opacity="1" fill-rule="evenodd"/><path fill="#935f3d" d="M 13.21875 14.824219 C 13.066406 14.824219 12.945312 14.699219 12.945312 14.550781 C 12.945312 14.332031 12.769531 14.140625 12.539062 14.140625 C 12.386719 14.140625 12.265625 14.019531 12.265625 13.871094 C 12.265625 13.71875 12.386719 13.597656 12.539062 13.597656 C 13.066406 13.597656 13.488281 14.03125 13.488281 14.550781 C 13.488281 14.699219 13.367188 14.824219 13.21875 14.824219 Z M 13.21875 14.824219 " fill-opacity="1" fill-rule="evenodd"/><path fill="#935f3d" d="M 13.597656 17.816406 C 13.449219 17.816406 13.328125 17.691406 13.328125 17.542969 C 13.328125 17.394531 13.449219 17.269531 13.597656 17.269531 C 13.816406 17.269531 14.007812 17.082031 14.007812 16.863281 C 14.007812 16.714844 14.128906 16.589844 14.277344 16.589844 C 14.429688 16.589844 14.550781 16.714844 14.550781 16.863281 C 14.550781 17.378906 14.128906 17.816406 13.597656 17.816406 Z M 13.597656 17.816406 " fill-opacity="1" fill-rule="evenodd"/><path fill="#935f3d" d="M 13.515625 17.121094 C 13 17.121094 12.566406 16.699219 12.566406 16.183594 C 12.566406 16.035156 12.6875 15.910156 12.835938 15.910156 C 12.984375 15.910156 13.109375 16.035156 13.109375 16.183594 C 13.109375 16.402344 13.300781 16.578125 13.515625 16.578125 C 13.667969 16.578125 13.789062 16.699219 13.789062 16.847656 C 13.789062 17 13.667969 17.121094 13.515625 17.121094 Z M 13.515625 17.121094 " fill-opacity="1" fill-rule="evenodd"/><path fill="#935f3d" d="M 14.183594 10.507812 C 13.652344 10.507812 13.230469 10.085938 13.230469 9.570312 C 13.230469 9.421875 13.355469 9.296875 13.503906 9.296875 C 13.652344 9.296875 13.777344 9.421875 13.777344 9.570312 C 13.777344 9.789062 13.953125 9.964844 14.183594 9.964844 C 14.332031 9.964844 14.457031 10.085938 14.457031 10.238281 C 14.457031 10.386719 14.332031 10.507812 14.183594 10.507812 Z M 14.183594 10.507812 " fill-opacity="1" fill-rule="evenodd"/><path fill="#935f3d" d="M 13.652344 15.679688 C 13.503906 15.679688 13.382812 15.558594 13.382812 15.40625 C 13.382812 15.257812 13.503906 15.136719 13.652344 15.136719 C 13.871094 15.136719 14.046875 14.957031 14.046875 14.742188 C 14.046875 14.589844 14.171875 14.46875 14.320312 14.46875 C 14.46875 14.46875 14.59375 14.589844 14.59375 14.742188 C 14.605469 15.257812 14.171875 15.679688 13.652344 15.679688 Z M 13.652344 15.679688 " fill-opacity="1" fill-rule="evenodd"/><path fill="#935f3d" d="M 12.304688 15.082031 C 11.789062 15.082031 11.367188 14.644531 11.367188 14.128906 C 11.367188 13.980469 11.488281 13.855469 11.640625 13.855469 C 11.789062 13.855469 11.910156 13.980469 11.910156 14.128906 C 11.910156 14.347656 12.089844 14.535156 12.304688 14.535156 C 12.457031 14.535156 12.578125 14.660156 12.578125 14.808594 C 12.578125 14.957031 12.457031 15.082031 12.304688 15.082031 Z M 12.304688 15.082031 " fill-opacity="1" fill-rule="evenodd"/><path fill="#935f3d" d="M 14.386719 14.113281 C 13.871094 14.113281 13.433594 13.679688 13.433594 13.164062 C 13.433594 13.011719 13.558594 12.890625 13.707031 12.890625 C 13.855469 12.890625 13.980469 13.011719 13.980469 13.164062 C 13.980469 13.378906 14.171875 13.570312 14.386719 13.570312 C 14.539062 13.570312 14.660156 13.691406 14.660156 13.84375 C 14.660156 13.992188 14.539062 14.113281 14.386719 14.113281 Z M 14.386719 14.113281 " fill-opacity="1" fill-rule="evenodd"/><path fill="#935f3d" d="M 16.347656 19 C 16.332031 19 16.332031 19 16.320312 19 C 15.761719 18.984375 15.246094 18.644531 14.78125 17.980469 C 14.753906 17.9375 14.742188 17.882812 14.742188 17.828125 L 14.742188 9 C 14.742188 8.765625 14.917969 8.46875 15.273438 8.304688 C 15.652344 8.128906 16.332031 8.101562 17.355469 8.957031 C 17.503906 9.027344 17.992188 9.285156 18.183594 9.789062 C 18.265625 10.019531 18.277344 10.25 18.199219 10.507812 C 18.496094 10.617188 18.933594 10.847656 19.175781 11.269531 C 19.367188 11.597656 19.410156 11.992188 19.285156 12.414062 C 19.625 12.78125 19.964844 13.503906 19.476562 14.347656 C 19.597656 14.589844 19.789062 15.066406 19.667969 15.570312 C 19.570312 15.925781 19.355469 16.222656 18.988281 16.453125 C 19.027344 16.984375 18.835938 17.800781 17.871094 18.15625 C 17.679688 18.375 17.109375 19 16.347656 19 Z M 15.273438 17.734375 C 15.613281 18.210938 15.964844 18.441406 16.332031 18.457031 C 16.332031 18.457031 16.332031 18.457031 16.347656 18.457031 C 16.972656 18.457031 17.476562 17.773438 17.476562 17.761719 C 17.515625 17.71875 17.558594 17.679688 17.613281 17.664062 C 18.632812 17.339844 18.441406 16.414062 18.429688 16.375 C 18.402344 16.25 18.457031 16.128906 18.566406 16.074219 C 18.878906 15.898438 19.066406 15.691406 19.136719 15.433594 C 19.246094 14.972656 18.933594 14.480469 18.933594 14.480469 C 18.878906 14.386719 18.878906 14.265625 18.933594 14.183594 C 19.515625 13.339844 18.863281 12.769531 18.796875 12.699219 C 18.699219 12.632812 18.671875 12.507812 18.714844 12.398438 C 18.835938 12.046875 18.835938 11.761719 18.699219 11.53125 C 18.441406 11.082031 17.789062 10.945312 17.789062 10.945312 C 17.695312 10.929688 17.625 10.875 17.585938 10.792969 C 17.542969 10.714844 17.558594 10.632812 17.597656 10.550781 C 17.707031 10.332031 17.734375 10.140625 17.667969 9.964844 C 17.542969 9.609375 17.109375 9.433594 17.09375 9.433594 C 17.066406 9.421875 17.039062 9.40625 17.027344 9.394531 C 16.199219 8.6875 15.734375 8.699219 15.53125 8.765625 C 15.355469 8.835938 15.285156 8.972656 15.285156 9 L 15.285156 17.734375 Z M 15.273438 17.734375 " fill-opacity="1" fill-rule="evenodd"/><path fill="#935f3d" d="M 16.632812 12.796875 C 16.117188 12.796875 15.679688 12.375 15.679688 11.855469 C 15.679688 11.707031 15.804688 11.585938 15.953125 11.585938 C 16.101562 11.585938 16.222656 11.707031 16.222656 11.855469 C 16.222656 12.074219 16.414062 12.25 16.632812 12.25 C 16.78125 12.25 16.90625 12.375 16.90625 12.523438 C 16.90625 12.671875 16.78125 12.796875 16.632812 12.796875 Z M 16.632812 12.796875 " fill-opacity="1" fill-rule="evenodd"/><path fill="#935f3d" d="M 17.355469 11.789062 C 17.246094 11.789062 17.121094 11.707031 17.09375 11.585938 C 16.960938 11.082031 17.257812 10.5625 17.761719 10.425781 C 17.910156 10.386719 18.0625 10.46875 18.101562 10.617188 C 18.144531 10.753906 18.046875 10.902344 17.910156 10.945312 C 17.695312 11 17.558594 11.230469 17.625 11.433594 C 17.667969 11.585938 17.570312 11.734375 17.433594 11.773438 C 17.410156 11.773438 17.382812 11.789062 17.355469 11.789062 Z M 17.355469 11.789062 " fill-opacity="1" fill-rule="evenodd"/><path fill="#935f3d" d="M 17.667969 13.476562 C 17.640625 13.476562 17.613281 13.476562 17.585938 13.460938 C 17.449219 13.421875 17.355469 13.285156 17.394531 13.136719 C 17.585938 12.441406 18.304688 12.019531 19 12.210938 C 19.148438 12.25 19.230469 12.398438 19.191406 12.535156 C 19.148438 12.6875 19.015625 12.769531 18.863281 12.726562 C 18.457031 12.617188 18.035156 12.863281 17.925781 13.269531 C 17.898438 13.394531 17.777344 13.476562 17.667969 13.476562 Z M 17.667969 13.476562 " fill-opacity="1" fill-rule="evenodd"/><path fill="#935f3d" d="M 18.429688 16.617188 C 18.199219 16.617188 17.980469 16.5625 17.777344 16.441406 C 17.460938 16.265625 17.246094 15.980469 17.164062 15.652344 C 17.121094 15.503906 17.203125 15.351562 17.355469 15.3125 C 17.488281 15.269531 17.640625 15.367188 17.679688 15.503906 C 17.734375 15.707031 17.855469 15.871094 18.035156 15.964844 C 18.210938 16.074219 18.429688 16.101562 18.621094 16.046875 C 18.769531 16.007812 18.917969 16.085938 18.945312 16.238281 C 18.988281 16.386719 18.90625 16.535156 18.753906 16.5625 C 18.644531 16.605469 18.539062 16.617188 18.429688 16.617188 Z M 18.429688 16.617188 " fill-opacity="1" fill-rule="evenodd"/><path fill="#935f3d" d="M 16.796875 14.824219 C 16.644531 14.824219 16.523438 14.699219 16.523438 14.550781 C 16.523438 14.03125 16.945312 13.597656 17.460938 13.597656 C 17.613281 13.597656 17.734375 13.71875 17.734375 13.871094 C 17.734375 14.019531 17.613281 14.140625 17.460938 14.140625 C 17.246094 14.140625 17.066406 14.332031 17.066406 14.550781 C 17.066406 14.699219 16.945312 14.824219 16.796875 14.824219 Z M 16.796875 14.824219 " fill-opacity="1" fill-rule="evenodd"/><path fill="#935f3d" d="M 16.414062 17.816406 C 15.882812 17.816406 15.460938 17.378906 15.460938 16.863281 C 15.460938 16.714844 15.585938 16.589844 15.734375 16.589844 C 15.882812 16.589844 16.007812 16.714844 16.007812 16.863281 C 16.007812 17.082031 16.183594 17.269531 16.414062 17.269531 C 16.566406 17.269531 16.6875 17.394531 16.6875 17.542969 C 16.6875 17.691406 16.566406 17.816406 16.414062 17.816406 Z M 16.414062 17.816406 " fill-opacity="1" fill-rule="evenodd"/><path fill="#935f3d" d="M 16.496094 17.121094 C 16.347656 17.121094 16.222656 17 16.222656 16.847656 C 16.222656 16.699219 16.347656 16.578125 16.496094 16.578125 C 16.714844 16.578125 16.890625 16.402344 16.890625 16.183594 C 16.890625 16.035156 17.015625 15.910156 17.164062 15.910156 C 17.3125 15.910156 17.433594 16.035156 17.433594 16.183594 C 17.433594 16.699219 17.015625 17.121094 16.496094 17.121094 Z M 16.496094 17.121094 " fill-opacity="1" fill-rule="evenodd"/><path fill="#935f3d" d="M 15.828125 10.507812 C 15.679688 10.507812 15.558594 10.386719 15.558594 10.238281 C 15.558594 10.085938 15.679688 9.964844 15.828125 9.964844 C 16.046875 9.964844 16.238281 9.789062 16.238281 9.570312 C 16.238281 9.421875 16.359375 9.296875 16.511719 9.296875 C 16.660156 9.296875 16.78125 9.421875 16.78125 9.570312 C 16.78125 10.085938 16.347656 10.507812 15.828125 10.507812 Z M 15.828125 10.507812 " fill-opacity="1" fill-rule="evenodd"/><path fill="#935f3d" d="M 16.359375 15.679688 C 15.84375 15.679688 15.40625 15.257812 15.40625 14.742188 C 15.40625 14.589844 15.53125 14.46875 15.679688 14.46875 C 15.828125 14.46875 15.953125 14.589844 15.953125 14.742188 C 15.953125 14.957031 16.144531 15.136719 16.359375 15.136719 C 16.511719 15.136719 16.632812 15.257812 16.632812 15.40625 C 16.632812 15.558594 16.511719 15.679688 16.359375 15.679688 Z M 16.359375 15.679688 " fill-opacity="1" fill-rule="evenodd"/><path fill="#935f3d" d="M 17.695312 15.082031 C 17.542969 15.082031 17.421875 14.957031 17.421875 14.808594 C 17.421875 14.660156 17.542969 14.535156 17.695312 14.535156 C 17.925781 14.535156 18.101562 14.347656 18.101562 14.128906 C 18.101562 13.980469 18.226562 13.855469 18.375 13.855469 C 18.523438 13.855469 18.644531 13.980469 18.644531 14.128906 C 18.644531 14.644531 18.226562 15.082031 17.695312 15.082031 Z M 17.695312 15.082031 " fill-opacity="1" fill-rule="evenodd"/><path fill="#935f3d" d="M 15.625 14.113281 C 15.476562 14.113281 15.355469 13.992188 15.355469 13.84375 C 15.355469 13.691406 15.476562 13.570312 15.625 13.570312 C 15.84375 13.570312 16.019531 13.378906 16.019531 13.164062 C 16.019531 13.011719 16.144531 12.890625 16.292969 12.890625 C 16.441406 12.890625 16.566406 13.011719 16.566406 13.164062 C 16.566406 13.679688 16.144531 14.113281 15.625 14.113281 Z M 15.625 14.113281 " fill-opacity="1" fill-rule="evenodd"/></svg>