<svg xmlns="http://www.w3.org/2000/svg" xmlns:xlink="http://www.w3.org/1999/xlink" width="40" zoomAndPan="magnify" viewBox="0 0 30 30.000001" height="40" preserveAspectRatio="xMidYMid meet" version="1.0"><defs><clipPath id="8973b1810c"><path d="M 0.484375 0 L 29.515625 0 L 29.515625 29.03125 L 0.484375 29.03125 Z M 0.484375 0 " clip-rule="nonzero"/></clipPath><clipPath id="ca8a39dd78"><path d="M 3.386719 22 L 26.613281 22 L 26.613281 26.128906 L 3.386719 26.128906 Z M 3.386719 22 " clip-rule="nonzero"/></clipPath><clipPath id="8c65a00ee1"><path d="M 4 2.902344 L 26 2.902344 L 26 19 L 4 19 Z M 4 2.902344 " clip-rule="nonzero"/></clipPath></defs><g clip-path="url(#8973b1810c)"><path fill="#ffffff" d="M 0.484375 0 L 29.515625 0 L 29.515625 29.03125 L 0.484375 29.03125 Z M 0.484375 0 " fill-opacity="1" fill-rule="nonzero"/><path fill="#ffffff" d="M 0.484375 0 L 29.515625 0 L 29.515625 29.03125 L 0.484375 29.03125 Z M 0.484375 0 " fill-opacity="1" fill-rule="nonzero"/></g><path fill="#935f3d" d="M 11.902344 7.546875 C 11.902344 7.855469 11.84375 8.152344 11.726562 8.4375 C 11.609375 8.722656 11.441406 8.972656 11.222656 9.191406 C 11.003906 9.410156 10.753906 9.578125 10.46875 9.695312 C 10.183594 9.8125 9.886719 9.871094 9.582031 9.871094 C 9.273438 9.871094 8.976562 9.8125 8.691406 9.695312 C 8.40625 9.578125 8.15625 9.410156 7.9375 9.191406 C 7.71875 8.972656 7.550781 8.722656 7.433594 8.4375 C 7.316406 8.152344 7.257812 7.855469 7.257812 7.546875 C 7.257812 7.242188 7.316406 6.945312 7.433594 6.660156 C 7.550781 6.375 7.71875 6.125 7.9375 5.90625 C 8.15625 5.6875 8.40625 5.519531 8.691406 5.402344 C 8.976562 5.285156 9.273438 5.226562 9.582031 5.226562 C 9.886719 5.226562 10.183594 5.285156 10.46875 5.402344 C 10.753906 5.519531 11.003906 5.6875 11.222656 5.90625 C 11.441406 6.125 11.609375 6.375 11.726562 6.660156 C 11.84375 6.945312 11.902344 7.242188 11.902344 7.546875 Z M 11.902344 7.546875 " fill-opacity="1" fill-rule="nonzero"/><path fill="#935f3d" d="M 9.582031 21.097656 C 9.582031 21.300781 9.542969 21.5 9.460938 21.6875 C 9.382812 21.878906 9.273438 22.046875 9.128906 22.191406 C 8.980469 22.335938 8.816406 22.449219 8.625 22.527344 C 8.433594 22.605469 8.238281 22.644531 8.03125 22.644531 C 7.828125 22.644531 7.628906 22.605469 7.441406 22.527344 C 7.25 22.449219 7.082031 22.335938 6.9375 22.191406 C 6.792969 22.046875 6.679688 21.878906 6.601562 21.6875 C 6.523438 21.5 6.484375 21.300781 6.484375 21.097656 C 6.484375 20.890625 6.523438 20.695312 6.601562 20.503906 C 6.679688 20.316406 6.792969 20.148438 6.9375 20 C 7.082031 19.855469 7.25 19.746094 7.441406 19.667969 C 7.628906 19.585938 7.828125 19.546875 8.03125 19.546875 C 8.238281 19.546875 8.433594 19.585938 8.625 19.667969 C 8.816406 19.746094 8.980469 19.855469 9.128906 20 C 9.273438 20.148438 9.382812 20.316406 9.460938 20.503906 C 9.542969 20.695312 9.582031 20.890625 9.582031 21.097656 Z M 9.582031 21.097656 " fill-opacity="1" fill-rule="nonzero"/><path fill="#935f3d" d="M 16.546875 21.097656 C 16.546875 21.300781 16.507812 21.5 16.429688 21.6875 C 16.351562 21.878906 16.238281 22.046875 16.09375 22.191406 C 15.949219 22.335938 15.78125 22.449219 15.59375 22.527344 C 15.402344 22.605469 15.207031 22.644531 15 22.644531 C 14.792969 22.644531 14.597656 22.605469 14.40625 22.527344 C 14.21875 22.449219 14.050781 22.335938 13.90625 22.191406 C 13.761719 22.046875 13.648438 21.878906 13.570312 21.6875 C 13.492188 21.5 13.453125 21.300781 13.453125 21.097656 C 13.453125 20.890625 13.492188 20.695312 13.570312 20.503906 C 13.648438 20.316406 13.761719 20.148438 13.90625 20 C 14.050781 19.855469 14.21875 19.746094 14.40625 19.667969 C 14.597656 19.585938 14.792969 19.546875 15 19.546875 C 15.207031 19.546875 15.402344 19.585938 15.59375 19.667969 C 15.78125 19.746094 15.949219 19.855469 16.09375 20 C 16.238281 20.148438 16.351562 20.316406 16.429688 20.503906 C 16.507812 20.695312 16.546875 20.890625 16.546875 21.097656 Z M 16.546875 21.097656 " fill-opacity="1" fill-rule="nonzero"/><path fill="#935f3d" d="M 23.515625 21.097656 C 23.515625 21.300781 23.476562 21.5 23.398438 21.6875 C 23.320312 21.878906 23.207031 22.046875 23.0625 22.191406 C 22.917969 22.335938 22.75 22.449219 22.558594 22.527344 C 22.371094 22.605469 22.171875 22.644531 21.96875 22.644531 C 21.761719 22.644531 21.566406 22.605469 21.375 22.527344 C 21.183594 22.449219 21.019531 22.335938 20.871094 22.191406 C 20.726562 22.046875 20.617188 21.878906 20.539062 21.6875 C 20.457031 21.5 20.417969 21.300781 20.417969 21.097656 C 20.417969 20.890625 20.457031 20.695312 20.539062 20.503906 C 20.617188 20.316406 20.726562 20.148438 20.871094 20 C 21.019531 19.855469 21.183594 19.746094 21.375 19.667969 C 21.566406 19.585938 21.761719 19.546875 21.96875 19.546875 C 22.171875 19.546875 22.371094 19.585938 22.558594 19.667969 C 22.75 19.746094 22.917969 19.855469 23.0625 20 C 23.207031 20.148438 23.320312 20.316406 23.398438 20.503906 C 23.476562 20.695312 23.515625 20.890625 23.515625 21.097656 Z M 23.515625 21.097656 " fill-opacity="1" fill-rule="nonzero"/><g clip-path="url(#ca8a39dd78)"><path fill="#935f3d" d="M 21.96875 22.644531 C 20.390625 22.644531 19.085938 23.828125 18.898438 25.355469 L 18.070312 25.355469 C 17.878906 23.828125 16.574219 22.644531 15 22.644531 C 13.425781 22.644531 12.121094 23.828125 11.929688 25.355469 L 11.101562 25.355469 C 10.914062 23.828125 9.609375 22.644531 8.03125 22.644531 C 6.457031 22.644531 5.152344 23.828125 4.960938 25.355469 L 3.386719 25.355469 L 3.386719 26.128906 L 26.613281 26.128906 L 26.613281 25.355469 L 25.039062 25.355469 C 24.847656 23.828125 23.542969 22.644531 21.96875 22.644531 Z M 21.96875 22.644531 " fill-opacity="1" fill-rule="nonzero"/></g><g clip-path="url(#8c65a00ee1)"><path fill="#935f3d" d="M 13.839844 18.773438 L 24.675781 18.773438 C 24.890625 18.773438 25.066406 18.601562 25.066406 18.386719 L 25.066406 3.289062 C 25.066406 3.078125 24.890625 2.902344 24.675781 2.902344 L 13.839844 2.902344 C 13.625 2.902344 13.453125 3.078125 13.453125 3.289062 L 13.453125 8.523438 L 12.71875 9.109375 C 12.105469 9.601562 11.332031 9.871094 10.542969 9.871094 L 9.035156 9.871094 C 7.328125 9.871094 5.792969 10.886719 5.121094 12.453125 L 4.160156 14.695312 C 4.027344 15.007812 4.039062 15.359375 4.1875 15.664062 C 4.339844 15.972656 4.613281 16.191406 4.945312 16.277344 C 5.519531 16.421875 6.109375 16.109375 6.3125 15.5625 L 6.484375 15.109375 L 6.484375 18.394531 C 6.484375 18.609375 6.65625 18.78125 6.871094 18.78125 L 12.289062 18.78125 C 12.503906 18.78125 12.675781 18.609375 12.675781 18.394531 L 12.675781 12.542969 C 12.675781 12.433594 12.722656 12.328125 12.804688 12.253906 L 13.453125 11.667969 L 13.453125 18.394531 C 13.453125 18.609375 13.625 18.78125 13.839844 18.78125 Z M 14.226562 10.957031 L 16.355469 9.023438 C 16.761719 8.65625 16.835938 8.050781 16.527344 7.59375 C 16.359375 7.339844 16.082031 7.164062 15.78125 7.117188 C 15.476562 7.070312 15.167969 7.152344 14.921875 7.347656 L 14.226562 7.90625 L 14.226562 3.675781 L 24.289062 3.675781 L 24.289062 18 L 14.226562 18 Z M 14.226562 10.957031 " fill-opacity="1" fill-rule="nonzero"/></g><path fill="#935f3d" d="M 21.96875 7.160156 L 21.582031 7.160156 L 21.582031 4.453125 L 20.804688 4.453125 L 20.804688 7.160156 L 20.417969 7.160156 L 20.417969 6 L 19.644531 6 L 19.644531 7.160156 L 19.257812 7.160156 L 19.257812 5.226562 L 18.484375 5.226562 L 18.484375 7.160156 L 18.097656 7.160156 L 18.097656 6.773438 L 17.324219 6.773438 L 17.324219 7.160156 L 16.933594 7.160156 L 16.933594 7.933594 L 21.96875 7.933594 Z M 21.96875 7.160156 " fill-opacity="1" fill-rule="nonzero"/><path fill="#935f3d" d="M 19.257812 8.710938 C 16.910156 8.710938 15 10.617188 15 12.96875 C 15 15.316406 16.910156 17.226562 19.257812 17.226562 C 21.609375 17.226562 23.515625 15.316406 23.515625 12.96875 C 23.515625 10.617188 21.609375 8.710938 19.257812 8.710938 Z M 18.871094 12.820312 L 16.671875 15.292969 C 16.113281 14.675781 15.773438 13.863281 15.773438 12.96875 C 15.773438 11.179688 17.132812 9.699219 18.871094 9.507812 Z M 18.871094 12.820312 " fill-opacity="1" fill-rule="nonzero"/></svg>