<svg xmlns="http://www.w3.org/2000/svg" xmlns:xlink="http://www.w3.org/1999/xlink" width="40" zoomAndPan="magnify" viewBox="0 0 30 30.000001" height="40" preserveAspectRatio="xMidYMid meet" version="1.0"><defs><clipPath id="0552168e65"><path d="M 0.484375 0 L 29.515625 0 L 29.515625 29.03125 L 0.484375 29.03125 Z M 0.484375 0 " clip-rule="nonzero"/></clipPath><clipPath id="8f1b09e778"><path d="M 3.386719 9 L 9 9 L 9 22 L 3.386719 22 Z M 3.386719 9 " clip-rule="nonzero"/></clipPath><clipPath id="3bdfbb91c0"><path d="M 17 11 L 26.613281 11 L 26.613281 22 L 17 22 Z M 17 11 " clip-rule="nonzero"/></clipPath><clipPath id="2d21c48b37"><path d="M 5 19 L 11 19 L 11 23.472656 L 5 23.472656 Z M 5 19 " clip-rule="nonzero"/></clipPath><clipPath id="159f643799"><path d="M 19 19 L 25 19 L 25 23.472656 L 19 23.472656 Z M 19 19 " clip-rule="nonzero"/></clipPath><clipPath id="18e8257ccf"><path d="M 3.386719 17 L 19 17 L 19 19 L 3.386719 19 Z M 3.386719 17 " clip-rule="nonzero"/></clipPath><clipPath id="804ecd91fc"><path d="M 19 13 L 26.613281 13 L 26.613281 18 L 19 18 Z M 19 13 " clip-rule="nonzero"/></clipPath><clipPath id="7d69c9249e"><path d="M 6 5.328125 L 17 5.328125 L 17 17 L 6 17 Z M 6 5.328125 " clip-rule="nonzero"/></clipPath><clipPath id="1d759d8cbb"><path d="M 18 5.328125 L 24 5.328125 L 24 11 L 18 11 Z M 18 5.328125 " clip-rule="nonzero"/></clipPath></defs><g clip-path="url(#0552168e65)"><path fill="#ffffff" d="M 0.484375 0 L 29.515625 0 L 29.515625 29.03125 L 0.484375 29.03125 Z M 0.484375 0 " fill-opacity="1" fill-rule="nonzero"/><path fill="#ffffff" d="M 0.484375 0 L 29.515625 0 L 29.515625 29.03125 L 0.484375 29.03125 Z M 0.484375 0 " fill-opacity="1" fill-rule="nonzero"/></g><g clip-path="url(#8f1b09e778)"><path fill="#935f3d" d="M 6.230469 21.742188 L 3.703125 21.742188 C 3.621094 21.742188 3.539062 21.707031 3.480469 21.648438 C 3.421875 21.589844 3.386719 21.507812 3.386719 21.425781 L 3.386719 9.484375 C 3.386719 9.398438 3.421875 9.316406 3.480469 9.257812 C 3.539062 9.199219 3.621094 9.167969 3.703125 9.167969 L 7.796875 9.167969 C 7.882812 9.167969 7.960938 9.199219 8.023438 9.257812 C 8.082031 9.316406 8.113281 9.398438 8.113281 9.484375 C 8.113281 9.566406 8.082031 9.648438 8.023438 9.707031 C 7.960938 9.765625 7.882812 9.800781 7.796875 9.800781 L 4.019531 9.800781 L 4.019531 21.109375 L 6.230469 21.109375 C 6.316406 21.109375 6.394531 21.140625 6.457031 21.203125 C 6.515625 21.261719 6.546875 21.339844 6.546875 21.425781 C 6.546875 21.507812 6.515625 21.589844 6.457031 21.648438 C 6.394531 21.707031 6.316406 21.742188 6.230469 21.742188 Z M 6.230469 21.742188 " fill-opacity="1" fill-rule="nonzero"/></g><path fill="#935f3d" d="M 18.238281 21.742188 L 10.136719 21.742188 C 10.054688 21.742188 9.972656 21.707031 9.914062 21.648438 C 9.855469 21.589844 9.820312 21.507812 9.820312 21.425781 C 9.820312 21.339844 9.855469 21.261719 9.914062 21.203125 C 9.972656 21.140625 10.054688 21.109375 10.136719 21.109375 L 17.921875 21.109375 L 17.921875 9.800781 L 14.976562 9.800781 C 14.894531 9.800781 14.8125 9.765625 14.753906 9.707031 C 14.695312 9.648438 14.660156 9.566406 14.660156 9.484375 C 14.660156 9.398438 14.695312 9.316406 14.753906 9.257812 C 14.8125 9.199219 14.894531 9.167969 14.976562 9.167969 L 18.238281 9.167969 C 18.324219 9.167969 18.402344 9.199219 18.464844 9.257812 C 18.523438 9.316406 18.554688 9.398438 18.554688 9.484375 L 18.554688 21.425781 C 18.554688 21.507812 18.523438 21.589844 18.464844 21.648438 C 18.402344 21.707031 18.324219 21.742188 18.238281 21.742188 Z M 18.238281 21.742188 " fill-opacity="1" fill-rule="nonzero"/><g clip-path="url(#3bdfbb91c0)"><path fill="#935f3d" d="M 26.296875 21.742188 L 24.027344 21.742188 C 23.941406 21.742188 23.863281 21.710938 23.804688 21.648438 C 23.742188 21.589844 23.710938 21.507812 23.710938 21.425781 C 23.710938 21.339844 23.742188 21.261719 23.804688 21.203125 C 23.863281 21.140625 23.941406 21.109375 24.027344 21.109375 L 25.980469 21.109375 L 25.980469 17.203125 L 22.527344 12.199219 L 18.554688 12.199219 L 18.554688 21.109375 L 20.117188 21.109375 C 20.203125 21.109375 20.285156 21.140625 20.34375 21.203125 C 20.402344 21.261719 20.4375 21.339844 20.4375 21.425781 C 20.4375 21.507812 20.402344 21.589844 20.34375 21.648438 C 20.285156 21.710938 20.203125 21.742188 20.117188 21.742188 L 18.238281 21.742188 C 18.15625 21.742188 18.074219 21.710938 18.015625 21.648438 C 17.957031 21.589844 17.921875 21.507812 17.921875 21.425781 L 17.921875 11.882812 C 17.921875 11.796875 17.957031 11.71875 18.015625 11.65625 C 18.074219 11.597656 18.15625 11.566406 18.238281 11.566406 L 22.695312 11.566406 C 22.746094 11.566406 22.796875 11.578125 22.84375 11.601562 C 22.886719 11.625 22.925781 11.660156 22.957031 11.703125 L 26.558594 16.925781 C 26.59375 16.980469 26.613281 17.042969 26.613281 17.105469 L 26.613281 21.425781 C 26.613281 21.507812 26.578125 21.589844 26.519531 21.648438 C 26.460938 21.710938 26.378906 21.742188 26.296875 21.742188 Z M 26.296875 21.742188 " fill-opacity="1" fill-rule="nonzero"/></g><g clip-path="url(#2d21c48b37)"><path fill="#935f3d" d="M 8.183594 23.695312 C 7.734375 23.695312 7.296875 23.5625 6.921875 23.316406 C 6.550781 23.066406 6.257812 22.710938 6.085938 22.296875 C 5.914062 21.882812 5.871094 21.425781 5.957031 20.984375 C 6.046875 20.542969 6.261719 20.140625 6.578125 19.820312 C 6.898438 19.503906 7.300781 19.289062 7.742188 19.199219 C 8.183594 19.113281 8.636719 19.15625 9.054688 19.328125 C 9.46875 19.5 9.824219 19.792969 10.070312 20.164062 C 10.320312 20.539062 10.453125 20.976562 10.453125 21.425781 C 10.453125 22.027344 10.214844 22.605469 9.789062 23.03125 C 9.363281 23.457031 8.785156 23.695312 8.183594 23.695312 Z M 8.183594 19.789062 C 7.859375 19.789062 7.542969 19.886719 7.273438 20.066406 C 7.007812 20.246094 6.796875 20.5 6.671875 20.800781 C 6.546875 21.097656 6.515625 21.429688 6.578125 21.746094 C 6.640625 22.0625 6.796875 22.355469 7.027344 22.585938 C 7.257812 22.8125 7.546875 22.96875 7.863281 23.03125 C 8.183594 23.09375 8.511719 23.0625 8.8125 22.9375 C 9.109375 22.816406 9.367188 22.605469 9.546875 22.335938 C 9.726562 22.066406 9.820312 21.75 9.820312 21.425781 C 9.820312 20.992188 9.648438 20.578125 9.339844 20.269531 C 9.035156 19.964844 8.617188 19.789062 8.183594 19.789062 Z M 8.183594 19.789062 " fill-opacity="1" fill-rule="nonzero"/></g><g clip-path="url(#159f643799)"><path fill="#935f3d" d="M 22.074219 23.695312 C 21.625 23.695312 21.183594 23.5625 20.8125 23.316406 C 20.4375 23.066406 20.148438 22.710938 19.976562 22.296875 C 19.804688 21.882812 19.757812 21.425781 19.847656 20.984375 C 19.933594 20.542969 20.148438 20.140625 20.46875 19.820312 C 20.785156 19.503906 21.191406 19.289062 21.628906 19.199219 C 22.070312 19.113281 22.527344 19.15625 22.941406 19.328125 C 23.355469 19.5 23.710938 19.792969 23.960938 20.164062 C 24.210938 20.539062 24.34375 20.976562 24.34375 21.425781 C 24.34375 22.027344 24.101562 22.605469 23.675781 23.03125 C 23.25 23.457031 22.675781 23.695312 22.074219 23.695312 Z M 22.074219 19.789062 C 21.75 19.789062 21.433594 19.886719 21.164062 20.066406 C 20.894531 20.246094 20.683594 20.5 20.5625 20.800781 C 20.4375 21.097656 20.40625 21.429688 20.46875 21.746094 C 20.53125 22.0625 20.6875 22.355469 20.914062 22.585938 C 21.144531 22.8125 21.4375 22.96875 21.753906 23.03125 C 22.070312 23.09375 22.398438 23.0625 22.699219 22.9375 C 23 22.816406 23.253906 22.605469 23.433594 22.335938 C 23.613281 22.066406 23.710938 21.75 23.710938 21.425781 C 23.710938 20.992188 23.535156 20.578125 23.230469 20.269531 C 22.921875 19.964844 22.507812 19.789062 22.074219 19.789062 Z M 22.074219 19.789062 " fill-opacity="1" fill-rule="nonzero"/></g><g clip-path="url(#18e8257ccf)"><path fill="#935f3d" d="M 18.238281 18.304688 L 3.703125 18.304688 C 3.621094 18.304688 3.539062 18.269531 3.480469 18.210938 C 3.421875 18.152344 3.386719 18.070312 3.386719 17.984375 C 3.386719 17.902344 3.421875 17.820312 3.480469 17.761719 C 3.539062 17.703125 3.621094 17.667969 3.703125 17.667969 L 18.238281 17.667969 C 18.324219 17.667969 18.402344 17.703125 18.460938 17.761719 C 18.523438 17.820312 18.554688 17.902344 18.554688 17.984375 C 18.554688 18.070312 18.523438 18.152344 18.460938 18.210938 C 18.402344 18.269531 18.324219 18.304688 18.238281 18.304688 Z M 18.238281 18.304688 " fill-opacity="1" fill-rule="nonzero"/></g><g clip-path="url(#804ecd91fc)"><path fill="#935f3d" d="M 26.296875 17.421875 L 20.117188 17.421875 C 20.035156 17.421875 19.953125 17.390625 19.894531 17.328125 C 19.835938 17.269531 19.800781 17.191406 19.800781 17.105469 L 19.800781 13.644531 C 19.800781 13.558594 19.835938 13.476562 19.894531 13.417969 C 19.953125 13.359375 20.035156 13.324219 20.117188 13.324219 L 23.910156 13.324219 C 23.996094 13.324219 24.074219 13.359375 24.132812 13.417969 C 24.195312 13.476562 24.226562 13.558594 24.226562 13.644531 C 24.226562 13.726562 24.195312 13.808594 24.132812 13.867188 C 24.074219 13.925781 23.996094 13.960938 23.910156 13.960938 L 20.4375 13.960938 L 20.4375 16.789062 L 26.296875 16.789062 C 26.378906 16.789062 26.460938 16.824219 26.519531 16.882812 C 26.578125 16.941406 26.613281 17.023438 26.613281 17.105469 C 26.613281 17.191406 26.578125 17.269531 26.519531 17.328125 C 26.460938 17.390625 26.378906 17.421875 26.296875 17.421875 Z M 26.296875 17.421875 " fill-opacity="1" fill-rule="nonzero"/></g><path fill="#935f3d" d="M 6.417969 11.78125 L 5.585938 11.78125 C 5.5 11.78125 5.421875 11.75 5.359375 11.6875 C 5.300781 11.628906 5.269531 11.550781 5.269531 11.464844 C 5.269531 11.382812 5.300781 11.300781 5.359375 11.242188 C 5.421875 11.183594 5.5 11.148438 5.585938 11.148438 L 6.417969 11.148438 C 6.5 11.148438 6.582031 11.183594 6.640625 11.242188 C 6.699219 11.300781 6.734375 11.382812 6.734375 11.464844 C 6.734375 11.550781 6.699219 11.628906 6.640625 11.6875 C 6.582031 11.75 6.5 11.78125 6.417969 11.78125 Z M 6.417969 11.78125 " fill-opacity="1" fill-rule="nonzero"/><g clip-path="url(#7d69c9249e)"><path fill="#935f3d" d="M 12.152344 16.242188 L 10.621094 16.242188 C 10.535156 16.242188 10.457031 16.210938 10.398438 16.152344 C 10.335938 16.089844 10.304688 16.011719 10.304688 15.925781 L 10.304688 15.007812 C 9.945312 14.914062 9.601562 14.773438 9.285156 14.585938 L 8.636719 15.234375 C 8.578125 15.292969 8.496094 15.328125 8.414062 15.328125 C 8.328125 15.328125 8.246094 15.292969 8.1875 15.234375 L 7.109375 14.15625 C 7.078125 14.125 7.054688 14.089844 7.039062 14.054688 C 7.023438 14.015625 7.015625 13.972656 7.015625 13.933594 C 7.015625 13.890625 7.023438 13.847656 7.039062 13.808594 C 7.054688 13.773438 7.078125 13.738281 7.105469 13.707031 L 7.757812 13.058594 C 7.570312 12.738281 7.425781 12.394531 7.332031 12.035156 L 6.417969 12.035156 C 6.332031 12.035156 6.253906 12.003906 6.191406 11.941406 C 6.132812 11.882812 6.101562 11.804688 6.101562 11.71875 L 6.101562 10.191406 C 6.101562 10.105469 6.132812 10.027344 6.191406 9.964844 C 6.253906 9.90625 6.332031 9.875 6.417969 9.875 L 7.332031 9.875 C 7.378906 9.699219 7.4375 9.527344 7.507812 9.359375 C 7.578125 9.183594 7.660156 9.015625 7.753906 8.851562 L 7.105469 8.203125 C 7.046875 8.144531 7.015625 8.0625 7.015625 7.980469 C 7.015625 7.894531 7.046875 7.816406 7.105469 7.753906 L 8.1875 6.675781 C 8.246094 6.613281 8.328125 6.582031 8.414062 6.582031 C 8.453125 6.582031 8.496094 6.589844 8.535156 6.605469 C 8.574219 6.621094 8.609375 6.644531 8.636719 6.675781 L 9.285156 7.328125 C 9.605469 7.140625 9.945312 6.996094 10.304688 6.902344 L 10.304688 5.984375 C 10.304688 5.898438 10.335938 5.820312 10.398438 5.761719 C 10.457031 5.699219 10.535156 5.667969 10.621094 5.667969 L 12.152344 5.667969 C 12.234375 5.667969 12.316406 5.699219 12.375 5.761719 C 12.433594 5.820312 12.46875 5.898438 12.46875 5.984375 L 12.46875 6.902344 C 12.824219 6.996094 13.167969 7.140625 13.488281 7.324219 L 14.136719 6.675781 C 14.195312 6.617188 14.277344 6.585938 14.359375 6.585938 C 14.445312 6.585938 14.523438 6.617188 14.585938 6.675781 L 15.664062 7.753906 C 15.722656 7.816406 15.757812 7.894531 15.757812 7.980469 C 15.757812 8.0625 15.722656 8.144531 15.664062 8.203125 L 15.015625 8.851562 C 15.113281 9.015625 15.195312 9.1875 15.269531 9.359375 C 15.335938 9.527344 15.394531 9.699219 15.441406 9.875 L 16.359375 9.875 C 16.445312 9.875 16.523438 9.90625 16.582031 9.964844 C 16.644531 10.027344 16.675781 10.105469 16.675781 10.191406 L 16.675781 11.71875 C 16.675781 11.804688 16.644531 11.882812 16.582031 11.941406 C 16.523438 12.003906 16.445312 12.035156 16.359375 12.035156 L 15.441406 12.035156 C 15.347656 12.394531 15.203125 12.738281 15.015625 13.058594 L 15.664062 13.707031 C 15.695312 13.738281 15.71875 13.773438 15.734375 13.8125 C 15.75 13.847656 15.757812 13.890625 15.757812 13.933594 C 15.757812 13.972656 15.75 14.015625 15.734375 14.054688 C 15.71875 14.089844 15.695312 14.125 15.664062 14.15625 L 14.582031 15.234375 C 14.523438 15.292969 14.445312 15.328125 14.359375 15.328125 C 14.277344 15.328125 14.195312 15.292969 14.136719 15.234375 L 13.488281 14.585938 C 13.167969 14.773438 12.824219 14.914062 12.46875 15.007812 L 12.46875 15.925781 C 12.46875 16.011719 12.433594 16.089844 12.375 16.152344 C 12.316406 16.210938 12.234375 16.242188 12.152344 16.242188 Z M 10.9375 15.609375 L 11.835938 15.609375 L 11.835938 14.757812 C 11.835938 14.683594 11.859375 14.613281 11.90625 14.554688 C 11.953125 14.5 12.019531 14.460938 12.089844 14.445312 C 12.542969 14.355469 12.976562 14.175781 13.359375 13.917969 C 13.417969 13.878906 13.492188 13.859375 13.566406 13.867188 C 13.640625 13.875 13.707031 13.90625 13.757812 13.960938 L 14.359375 14.5625 L 14.992188 13.929688 L 14.390625 13.328125 C 14.339844 13.277344 14.308594 13.210938 14.300781 13.136719 C 14.292969 13.066406 14.3125 12.992188 14.351562 12.933594 C 14.609375 12.546875 14.789062 12.113281 14.878906 11.65625 C 14.894531 11.585938 14.933594 11.519531 14.988281 11.472656 C 15.046875 11.425781 15.117188 11.402344 15.191406 11.402344 L 16.042969 11.402344 L 16.042969 10.507812 L 15.191406 10.507812 C 15.117188 10.507812 15.046875 10.480469 14.988281 10.433594 C 14.933594 10.386719 14.894531 10.324219 14.878906 10.25 C 14.835938 10.03125 14.769531 9.8125 14.683594 9.601562 C 14.59375 9.386719 14.484375 9.175781 14.351562 8.980469 C 14.3125 8.921875 14.292969 8.847656 14.300781 8.773438 C 14.308594 8.703125 14.339844 8.632812 14.390625 8.582031 L 14.992188 7.980469 L 14.359375 7.347656 L 13.757812 7.949219 C 13.707031 8 13.640625 8.03125 13.566406 8.039062 C 13.496094 8.046875 13.421875 8.027344 13.363281 7.988281 C 12.976562 7.734375 12.542969 7.554688 12.089844 7.464844 C 12.019531 7.449219 11.953125 7.410156 11.90625 7.355469 C 11.859375 7.296875 11.835938 7.226562 11.835938 7.152344 L 11.835938 6.300781 L 10.9375 6.300781 L 10.9375 7.152344 C 10.9375 7.226562 10.914062 7.296875 10.867188 7.355469 C 10.820312 7.410156 10.753906 7.449219 10.683594 7.464844 C 10.226562 7.554688 9.796875 7.734375 9.414062 7.992188 C 9.351562 8.03125 9.277344 8.050781 9.207031 8.042969 C 9.132812 8.035156 9.066406 8.003906 9.011719 7.953125 L 8.410156 7.347656 L 7.777344 7.980469 L 8.378906 8.582031 C 8.433594 8.632812 8.464844 8.703125 8.472656 8.773438 C 8.480469 8.847656 8.460938 8.921875 8.417969 8.980469 C 8.289062 9.175781 8.179688 9.382812 8.089844 9.601562 C 8.003906 9.8125 7.9375 10.027344 7.894531 10.25 C 7.878906 10.324219 7.839844 10.386719 7.785156 10.433594 C 7.726562 10.480469 7.65625 10.507812 7.582031 10.507812 L 6.734375 10.507812 L 6.734375 11.402344 L 7.582031 11.402344 C 7.65625 11.402344 7.726562 11.425781 7.785156 11.472656 C 7.839844 11.519531 7.878906 11.585938 7.894531 11.65625 C 7.980469 12.113281 8.160156 12.542969 8.421875 12.921875 C 8.464844 12.984375 8.484375 13.058594 8.476562 13.132812 C 8.46875 13.203125 8.4375 13.273438 8.386719 13.324219 L 7.78125 13.929688 L 8.410156 14.5625 L 9.011719 13.960938 C 9.066406 13.90625 9.132812 13.875 9.207031 13.867188 C 9.28125 13.859375 9.351562 13.878906 9.414062 13.917969 C 9.796875 14.175781 10.230469 14.355469 10.683594 14.445312 C 10.753906 14.460938 10.820312 14.5 10.867188 14.554688 C 10.914062 14.613281 10.9375 14.683594 10.9375 14.757812 Z M 12.792969 9.800781 C 12.710938 9.800781 12.632812 9.769531 12.574219 9.710938 C 12.445312 9.585938 12.296875 9.484375 12.140625 9.410156 C 12.078125 9.378906 12.015625 9.351562 11.953125 9.332031 C 11.589844 9.203125 11.191406 9.199219 10.828125 9.328125 C 10.761719 9.351562 10.695312 9.378906 10.632812 9.410156 C 10.472656 9.484375 10.328125 9.585938 10.199219 9.710938 C 10.140625 9.765625 10.058594 9.796875 9.976562 9.796875 C 9.890625 9.792969 9.8125 9.761719 9.753906 9.699219 C 9.699219 9.640625 9.664062 9.5625 9.664062 9.476562 C 9.667969 9.394531 9.699219 9.316406 9.757812 9.257812 C 9.933594 9.085938 10.136719 8.945312 10.355469 8.839844 C 10.441406 8.796875 10.53125 8.761719 10.625 8.730469 C 11.121094 8.558594 11.660156 8.558594 12.15625 8.734375 C 12.246094 8.761719 12.335938 8.796875 12.421875 8.839844 C 12.640625 8.945312 12.839844 9.085938 13.015625 9.257812 C 13.058594 9.300781 13.089844 9.355469 13.101562 9.417969 C 13.117188 9.480469 13.109375 9.542969 13.085938 9.601562 C 13.0625 9.660156 13.023438 9.710938 12.96875 9.746094 C 12.917969 9.78125 12.855469 9.800781 12.792969 9.800781 Z M 12.792969 9.800781 " fill-opacity="1" fill-rule="nonzero"/></g><path fill="#935f3d" d="M 11.386719 13.3125 C 11.125 13.3125 10.863281 13.265625 10.617188 13.179688 C 10.519531 13.148438 10.429688 13.109375 10.34375 13.0625 C 9.875 12.835938 9.5 12.457031 9.273438 11.988281 C 9.226562 11.902344 9.191406 11.8125 9.160156 11.71875 C 8.988281 11.222656 8.988281 10.679688 9.160156 10.183594 C 9.191406 10.089844 9.230469 9.996094 9.277344 9.910156 C 9.398438 9.664062 9.5625 9.441406 9.761719 9.253906 C 9.824219 9.195312 9.90625 9.164062 9.988281 9.167969 C 10.070312 9.171875 10.148438 9.207031 10.207031 9.269531 C 10.265625 9.328125 10.296875 9.410156 10.292969 9.492188 C 10.289062 9.578125 10.257812 9.65625 10.195312 9.714844 C 10.050781 9.851562 9.929688 10.015625 9.84375 10.199219 C 9.808594 10.261719 9.78125 10.328125 9.757812 10.394531 C 9.632812 10.753906 9.632812 11.148438 9.757812 11.511719 C 9.78125 11.578125 9.808594 11.640625 9.839844 11.703125 C 10.007812 12.050781 10.285156 12.332031 10.632812 12.5 C 10.691406 12.53125 10.753906 12.558594 10.820312 12.578125 C 11.183594 12.710938 11.582031 12.710938 11.945312 12.582031 C 12.007812 12.5625 12.066406 12.539062 12.125 12.507812 C 12.476562 12.339844 12.761719 12.058594 12.933594 11.710938 C 12.964844 11.648438 12.988281 11.585938 13.011719 11.523438 C 13.078125 11.339844 13.109375 11.148438 13.109375 10.953125 C 13.109375 10.765625 13.078125 10.578125 13.015625 10.398438 C 12.996094 10.332031 12.96875 10.269531 12.9375 10.207031 C 12.847656 10.023438 12.726562 9.855469 12.578125 9.714844 C 12.546875 9.683594 12.519531 9.652344 12.503906 9.613281 C 12.484375 9.574219 12.476562 9.535156 12.476562 9.492188 C 12.472656 9.449219 12.480469 9.410156 12.496094 9.371094 C 12.507812 9.332031 12.53125 9.292969 12.5625 9.265625 C 12.589844 9.234375 12.625 9.210938 12.660156 9.191406 C 12.699219 9.175781 12.742188 9.164062 12.78125 9.164062 C 12.824219 9.164062 12.867188 9.171875 12.90625 9.1875 C 12.945312 9.199219 12.980469 9.222656 13.011719 9.253906 C 13.214844 9.445312 13.382812 9.671875 13.503906 9.921875 C 13.546875 10.011719 13.585938 10.101562 13.613281 10.195312 C 13.703125 10.441406 13.746094 10.695312 13.742188 10.953125 C 13.746094 11.21875 13.699219 11.476562 13.609375 11.726562 C 13.582031 11.816406 13.546875 11.902344 13.503906 11.988281 C 13.269531 12.460938 12.886719 12.839844 12.414062 13.070312 C 12.332031 13.117188 12.242188 13.152344 12.148438 13.179688 C 11.902344 13.269531 11.644531 13.3125 11.386719 13.3125 Z M 11.386719 13.3125 " fill-opacity="1" fill-rule="nonzero"/><g clip-path="url(#1d759d8cbb)"><path fill="#935f3d" d="M 21.160156 10.652344 C 21.121094 10.652344 21.078125 10.644531 21.039062 10.628906 C 21 10.613281 20.964844 10.585938 20.933594 10.554688 L 19.605469 9.183594 C 19.195312 8.753906 18.96875 8.183594 18.96875 7.589844 C 18.96875 6.996094 19.195312 6.425781 19.605469 5.996094 C 19.804688 5.785156 20.046875 5.617188 20.316406 5.503906 C 20.582031 5.390625 20.871094 5.328125 21.160156 5.328125 C 21.453125 5.328125 21.742188 5.390625 22.007812 5.503906 C 22.277344 5.617188 22.515625 5.785156 22.71875 5.996094 C 23.128906 6.425781 23.355469 6.996094 23.355469 7.589844 C 23.355469 8.183594 23.128906 8.753906 22.71875 9.183594 L 21.390625 10.554688 C 21.359375 10.585938 21.324219 10.613281 21.285156 10.628906 C 21.246094 10.644531 21.203125 10.652344 21.160156 10.652344 Z M 21.160156 5.964844 C 20.957031 5.964844 20.753906 6.003906 20.5625 6.085938 C 20.375 6.167969 20.203125 6.285156 20.058594 6.4375 C 19.765625 6.746094 19.597656 7.160156 19.597656 7.589844 C 19.597656 8.019531 19.765625 8.429688 20.058594 8.742188 L 21.160156 9.882812 L 22.261719 8.742188 C 22.558594 8.429688 22.726562 8.019531 22.726562 7.589844 C 22.726562 7.160156 22.558594 6.746094 22.261719 6.4375 C 22.121094 6.285156 21.949219 6.167969 21.761719 6.085938 C 21.570312 6.003906 21.367188 5.964844 21.160156 5.964844 Z M 21.160156 5.964844 " fill-opacity="1" fill-rule="nonzero"/></g><path fill="#935f3d" d="M 21.160156 8.230469 C 21.585938 8.230469 21.933594 7.882812 21.933594 7.457031 C 21.933594 7.035156 21.585938 6.6875 21.160156 6.6875 C 20.738281 6.6875 20.390625 7.035156 20.390625 7.457031 C 20.390625 7.882812 20.738281 8.230469 21.160156 8.230469 Z M 21.160156 8.230469 " fill-opacity="1" fill-rule="nonzero"/></svg>