<svg xmlns="http://www.w3.org/2000/svg" xmlns:xlink="http://www.w3.org/1999/xlink" width="40" zoomAndPan="magnify" viewBox="0 0 30 30.000001" height="40" preserveAspectRatio="xMidYMid meet" version="1.0"><defs><clipPath id="9302aaca79"><path d="M 0.484375 0 L 29.515625 0 L 29.515625 29.03125 L 0.484375 29.03125 Z M 0.484375 0 " clip-rule="nonzero"/></clipPath><clipPath id="33475ca894"><path d="M 3.386719 2.902344 L 26.613281 2.902344 L 26.613281 26.128906 L 3.386719 26.128906 Z M 3.386719 2.902344 " clip-rule="nonzero"/></clipPath></defs><g clip-path="url(#9302aaca79)"><path fill="#ffffff" d="M 0.484375 0 L 29.515625 0 L 29.515625 29.03125 L 0.484375 29.03125 Z M 0.484375 0 " fill-opacity="1" fill-rule="nonzero"/><path fill="#ffffff" d="M 0.484375 0 L 29.515625 0 L 29.515625 29.03125 L 0.484375 29.03125 Z M 0.484375 0 " fill-opacity="1" fill-rule="nonzero"/></g><g clip-path="url(#33475ca894)"><path fill="#935f3d" d="M 25.304688 9.15625 C 25.09375 8.75 24.59375 8.589844 24.1875 8.804688 C 23.78125 9.015625 23.621094 9.515625 23.832031 9.921875 C 24.578125 11.351562 24.953125 12.894531 24.953125 14.515625 C 24.953125 20.003906 20.488281 24.46875 15 24.46875 C 9.511719 24.46875 5.046875 20.003906 5.046875 14.515625 C 5.046875 9.027344 9.511719 4.5625 15 4.5625 C 16.988281 4.5625 18.929688 5.164062 20.566406 6.269531 C 20.226562 6.375 19.976562 6.675781 19.976562 7.050781 C 19.976562 7.507812 20.347656 7.878906 20.804688 7.878906 L 22.464844 7.878906 C 22.921875 7.878906 23.296875 7.507812 23.296875 7.050781 L 23.296875 5.390625 C 23.296875 4.933594 22.921875 4.5625 22.464844 4.5625 C 22.132812 4.5625 21.847656 4.761719 21.714844 5.046875 C 19.761719 3.660156 17.410156 2.902344 15 2.902344 C 8.597656 2.902344 3.386719 8.113281 3.386719 14.515625 C 3.386719 20.917969 8.597656 26.128906 15 26.128906 C 21.402344 26.128906 26.613281 20.917969 26.613281 14.515625 C 26.613281 12.652344 26.160156 10.800781 25.304688 9.15625 Z M 25.304688 9.15625 " fill-opacity="1" fill-rule="nonzero"/></g><path fill="#935f3d" d="M 14.171875 11.613281 L 14.171875 13.273438 C 14.171875 13.5 14.355469 13.6875 14.585938 13.6875 L 16.246094 13.6875 C 16.472656 13.6875 16.660156 13.5 16.660156 13.273438 L 16.660156 11.613281 C 16.660156 11.382812 16.472656 11.199219 16.246094 11.199219 L 14.585938 11.199219 C 14.355469 11.199219 14.171875 11.382812 14.171875 11.613281 Z M 14.171875 11.613281 " fill-opacity="1" fill-rule="nonzero"/><path fill="#935f3d" d="M 10.851562 11.613281 L 10.851562 13.273438 C 10.851562 13.5 11.039062 13.6875 11.265625 13.6875 L 12.925781 13.6875 C 13.15625 13.6875 13.339844 13.5 13.339844 13.273438 L 13.339844 11.613281 C 13.339844 11.382812 13.15625 11.199219 12.925781 11.199219 L 11.265625 11.199219 C 11.039062 11.199219 10.851562 11.382812 10.851562 11.613281 Z M 10.851562 11.613281 " fill-opacity="1" fill-rule="nonzero"/><path fill="#935f3d" d="M 7.535156 11.613281 L 7.535156 13.273438 C 7.535156 13.5 7.71875 13.6875 7.949219 13.6875 L 9.609375 13.6875 C 9.835938 13.6875 10.023438 13.5 10.023438 13.273438 L 10.023438 11.613281 C 10.023438 11.382812 9.835938 11.199219 9.609375 11.199219 L 7.949219 11.199219 C 7.71875 11.199219 7.535156 11.382812 7.535156 11.613281 Z M 7.535156 11.613281 " fill-opacity="1" fill-rule="nonzero"/><path fill="#935f3d" d="M 11.265625 7.878906 L 9.609375 7.878906 C 9.378906 7.878906 9.195312 8.066406 9.195312 8.296875 L 9.195312 9.953125 C 9.195312 10.183594 9.378906 10.367188 9.609375 10.367188 L 11.265625 10.367188 C 11.496094 10.367188 11.683594 10.183594 11.683594 9.953125 L 11.683594 8.296875 C 11.683594 8.066406 11.496094 7.878906 11.265625 7.878906 Z M 11.265625 7.878906 " fill-opacity="1" fill-rule="nonzero"/><path fill="#935f3d" d="M 14.585938 7.878906 L 12.925781 7.878906 C 12.695312 7.878906 12.511719 8.066406 12.511719 8.296875 L 12.511719 9.953125 C 12.511719 10.183594 12.695312 10.367188 12.925781 10.367188 L 14.585938 10.367188 C 14.8125 10.367188 15 10.183594 15 9.953125 L 15 8.296875 C 15 8.066406 14.8125 7.878906 14.585938 7.878906 Z M 14.585938 7.878906 " fill-opacity="1" fill-rule="nonzero"/><path fill="#935f3d" d="M 6.703125 15.34375 L 6.703125 17.835938 C 6.703125 18.292969 7.078125 18.664062 7.535156 18.664062 L 8.363281 18.664062 C 8.363281 19.578125 9.109375 20.324219 10.023438 20.324219 C 10.9375 20.324219 11.683594 19.578125 11.683594 18.664062 L 18.316406 18.664062 C 18.316406 19.578125 19.0625 20.324219 19.976562 20.324219 C 20.890625 20.324219 21.636719 19.578125 21.636719 18.664062 L 22.464844 18.664062 C 22.921875 18.664062 23.296875 18.292969 23.296875 17.835938 L 23.296875 14.515625 C 23.296875 14.296875 23.207031 14.085938 23.050781 13.929688 L 20.5625 11.441406 C 20.40625 11.285156 20.195312 11.199219 19.976562 11.199219 L 18.316406 11.199219 C 17.859375 11.199219 17.488281 11.570312 17.488281 12.027344 L 17.488281 14.515625 L 7.535156 14.515625 C 7.078125 14.515625 6.703125 14.886719 6.703125 15.34375 Z M 19.976562 19.492188 C 19.519531 19.492188 19.148438 19.121094 19.148438 18.664062 C 19.148438 18.207031 19.519531 17.835938 19.976562 17.835938 C 20.433594 17.835938 20.804688 18.207031 20.804688 18.664062 C 20.804688 19.121094 20.433594 19.492188 19.976562 19.492188 Z M 18.316406 12.441406 C 18.316406 12.214844 18.503906 12.027344 18.734375 12.027344 L 19.976562 12.027344 L 22.464844 14.515625 L 18.316406 14.515625 Z M 10.023438 17.835938 C 10.480469 17.835938 10.851562 18.207031 10.851562 18.664062 C 10.851562 19.121094 10.480469 19.492188 10.023438 19.492188 C 9.566406 19.492188 9.195312 19.121094 9.195312 18.664062 C 9.195312 18.207031 9.566406 17.835938 10.023438 17.835938 Z M 10.023438 17.835938 " fill-opacity="1" fill-rule="nonzero"/></svg>