<svg xmlns="http://www.w3.org/2000/svg" xmlns:xlink="http://www.w3.org/1999/xlink" width="40" zoomAndPan="magnify" viewBox="0 0 30 30.000001" height="40" preserveAspectRatio="xMidYMid meet" version="1.0"><defs><clipPath id="82b5fee571"><path d="M 0.484375 0 L 29.515625 0 L 29.515625 29.03125 L 0.484375 29.03125 Z M 0.484375 0 " clip-rule="nonzero"/></clipPath><clipPath id="b0050a05b1"><path d="M 3.390625 3.238281 L 25.886719 3.238281 L 25.886719 25.414062 L 3.390625 25.414062 Z M 3.390625 3.238281 " clip-rule="nonzero"/></clipPath></defs><g clip-path="url(#82b5fee571)"><path fill="#ffffff" d="M 0.484375 0 L 29.515625 0 L 29.515625 29.03125 L 0.484375 29.03125 Z M 0.484375 0 " fill-opacity="1" fill-rule="nonzero"/><path fill="#ffffff" d="M 0.484375 0 L 29.515625 0 L 29.515625 29.03125 L 0.484375 29.03125 Z M 0.484375 0 " fill-opacity="1" fill-rule="nonzero"/></g><g clip-path="url(#b0050a05b1)"><path fill="#935f3d" d="M 25.457031 20.882812 L 25.050781 24.183594 L 17.996094 24.183594 L 17.589844 20.882812 C 17.511719 20.230469 17.929688 19.609375 18.566406 19.445312 L 20.363281 18.972656 L 21.152344 20.011719 L 21.152344 23.25 C 21.152344 23.453125 21.316406 23.621094 21.523438 23.621094 C 21.730469 23.621094 21.894531 23.453125 21.894531 23.25 L 21.894531 20.011719 L 22.683594 18.972656 L 24.480469 19.445312 C 25.117188 19.609375 25.539062 20.230469 25.457031 20.882812 Z M 21.523438 17.710938 C 21.746094 17.710938 21.960938 17.667969 22.164062 17.589844 L 22.164062 18.425781 L 21.523438 19.269531 L 20.882812 18.425781 L 20.882812 17.589844 C 21.085938 17.667969 21.300781 17.710938 21.523438 17.710938 Z M 19.917969 14.953125 C 19.917969 14.832031 19.929688 14.71875 19.957031 14.601562 C 20.605469 14.433594 21.539062 14.300781 21.84375 14.496094 C 21.886719 14.523438 21.898438 14.546875 21.902344 14.582031 C 21.925781 14.742188 22.054688 14.871094 22.214844 14.894531 C 22.234375 14.898438 22.253906 14.898438 22.273438 14.898438 C 22.414062 14.898438 22.546875 14.820312 22.609375 14.6875 C 22.679688 14.539062 22.757812 14.449219 22.828125 14.433594 C 22.902344 14.421875 23 14.472656 23.070312 14.519531 C 23.109375 14.660156 23.132812 14.804688 23.132812 14.953125 C 23.132812 15.859375 22.390625 16.964844 21.523438 16.964844 C 20.660156 16.964844 19.917969 15.859375 19.917969 14.953125 Z M 13.238281 15.398438 L 12.832031 12.101562 C 12.75 11.445312 13.171875 10.828125 13.808594 10.660156 L 15.605469 10.191406 L 16.394531 11.230469 L 16.394531 14.464844 C 16.394531 14.671875 16.558594 14.839844 16.765625 14.839844 C 16.972656 14.839844 17.136719 14.671875 17.136719 14.464844 L 17.136719 11.230469 L 17.925781 10.191406 L 19.722656 10.660156 C 20.335938 10.824219 20.746094 11.402344 20.707031 12.027344 L 20.671875 12.023438 C 20.644531 12.019531 20.621094 12.019531 20.59375 12.019531 C 20.207031 12.046875 19.847656 12.21875 19.582031 12.503906 C 19.285156 12.832031 19.144531 13.273438 19.203125 13.714844 L 19.273438 14.269531 C 19.207031 14.492188 19.171875 14.71875 19.171875 14.953125 C 19.171875 15.097656 19.1875 15.25 19.214844 15.398438 Z M 16.765625 8.925781 C 16.988281 8.925781 17.203125 8.882812 17.40625 8.808594 L 17.40625 9.644531 L 16.765625 10.488281 L 16.125 9.644531 L 16.125 8.808594 C 16.328125 8.882812 16.542969 8.925781 16.765625 8.925781 Z M 15.15625 6.167969 C 15.15625 6.050781 15.171875 5.933594 15.195312 5.820312 C 15.847656 5.648438 16.78125 5.515625 17.085938 5.710938 C 17.128906 5.742188 17.140625 5.761719 17.144531 5.796875 C 17.167969 5.960938 17.296875 6.089844 17.457031 6.113281 C 17.476562 6.117188 17.496094 6.117188 17.515625 6.117188 C 17.65625 6.117188 17.789062 6.035156 17.851562 5.90625 C 17.921875 5.757812 18 5.664062 18.070312 5.652344 C 18.144531 5.636719 18.242188 5.6875 18.3125 5.738281 C 18.351562 5.875 18.371094 6.023438 18.371094 6.167969 C 18.371094 7.074219 17.632812 8.183594 16.765625 8.183594 C 15.898438 8.183594 15.15625 7.074219 15.15625 6.167969 Z M 15.375 4.222656 C 15.5 4.089844 15.664062 4.003906 15.847656 3.984375 L 16.980469 4.152344 C 17.175781 4.179688 17.375 4.175781 17.566406 4.132812 L 17.871094 4.28125 C 17.910156 4.300781 17.953125 4.3125 17.996094 4.324219 C 17.960938 4.519531 17.960938 4.71875 17.992188 4.910156 C 17.976562 4.914062 17.957031 4.917969 17.9375 4.917969 C 17.820312 4.941406 17.671875 4.996094 17.527344 5.113281 C 17.515625 5.105469 17.5 5.09375 17.488281 5.085938 C 17.238281 4.925781 16.894531 4.871094 16.53125 4.871094 C 16.0625 4.871094 15.5625 4.964844 15.210938 5.050781 L 15.179688 4.835938 C 15.152344 4.613281 15.222656 4.390625 15.375 4.222656 Z M 22.324219 12.917969 L 22.628906 13.0625 C 22.667969 13.082031 22.710938 13.097656 22.753906 13.105469 C 22.71875 13.300781 22.71875 13.5 22.753906 13.695312 C 22.734375 13.695312 22.714844 13.699219 22.695312 13.703125 C 22.578125 13.722656 22.433594 13.777344 22.289062 13.898438 C 22.273438 13.886719 22.257812 13.875 22.246094 13.867188 C 21.996094 13.710938 21.652344 13.652344 21.289062 13.652344 C 20.820312 13.652344 20.320312 13.746094 19.96875 13.832031 L 19.941406 13.617188 C 19.910156 13.394531 19.980469 13.171875 20.132812 13.007812 C 20.257812 12.871094 20.425781 12.785156 20.605469 12.765625 L 20.976562 12.820312 C 20.980469 12.820312 20.984375 12.820312 20.984375 12.824219 C 20.988281 12.824219 20.988281 12.824219 20.992188 12.824219 L 21.738281 12.933594 C 21.933594 12.960938 22.132812 12.957031 22.324219 12.917969 Z M 24.667969 18.722656 L 22.910156 18.261719 L 22.910156 17.117188 C 23.5 16.570312 23.875 15.722656 23.875 14.953125 C 23.875 14.6875 23.832031 14.425781 23.746094 14.175781 C 23.742188 14.164062 23.734375 14.15625 23.730469 14.144531 C 23.730469 14.140625 23.726562 14.136719 23.726562 14.132812 L 23.714844 14.113281 C 23.714844 14.109375 23.714844 14.109375 23.710938 14.105469 L 23.574219 13.832031 C 23.476562 13.636719 23.449219 13.417969 23.492188 13.207031 C 23.601562 13.039062 23.613281 12.828125 23.515625 12.644531 C 23.398438 12.425781 23.152344 12.3125 22.90625 12.363281 L 22.894531 12.363281 L 22.589844 12.21875 C 22.472656 12.160156 22.339844 12.148438 22.210938 12.179688 C 22.089844 12.210938 21.96875 12.214844 21.847656 12.195312 L 21.441406 12.136719 C 21.539062 11.136719 20.890625 10.195312 19.910156 9.941406 L 18.152344 9.480469 L 18.152344 8.335938 C 18.742188 7.789062 19.117188 6.941406 19.117188 6.167969 C 19.117188 5.902344 19.074219 5.644531 18.988281 5.394531 C 18.984375 5.382812 18.976562 5.375 18.972656 5.363281 C 18.972656 5.359375 18.96875 5.355469 18.96875 5.351562 L 18.957031 5.328125 C 18.957031 5.328125 18.957031 5.324219 18.953125 5.324219 L 18.816406 5.050781 C 18.71875 4.855469 18.691406 4.636719 18.734375 4.425781 C 18.84375 4.257812 18.855469 4.046875 18.757812 3.863281 C 18.636719 3.640625 18.394531 3.527344 18.148438 3.578125 L 18.136719 3.582031 L 17.832031 3.433594 C 17.714844 3.378906 17.582031 3.367188 17.453125 3.398438 C 17.332031 3.425781 17.210938 3.433594 17.089844 3.414062 L 15.914062 3.242188 C 15.886719 3.238281 15.863281 3.234375 15.835938 3.238281 C 15.445312 3.261719 15.089844 3.433594 14.824219 3.722656 C 14.527344 4.050781 14.386719 4.488281 14.445312 4.929688 L 14.515625 5.488281 C 14.449219 5.707031 14.414062 5.9375 14.414062 6.167969 C 14.414062 6.941406 14.789062 7.789062 15.378906 8.335938 L 15.378906 9.480469 L 13.621094 9.941406 C 12.625 10.203125 11.96875 11.167969 12.09375 12.191406 L 12.539062 15.816406 C 12.5625 16.003906 12.71875 16.144531 12.910156 16.144531 L 19.445312 16.144531 C 19.613281 16.511719 19.851562 16.851562 20.136719 17.117188 L 20.136719 18.261719 L 18.378906 18.722656 C 17.382812 18.984375 16.726562 19.953125 16.851562 20.976562 L 17.296875 24.601562 C 17.320312 24.785156 17.476562 24.925781 17.667969 24.925781 L 25.382812 24.925781 C 25.570312 24.925781 25.726562 24.785156 25.75 24.601562 L 26.195312 20.976562 C 26.320312 19.953125 25.664062 18.984375 24.667969 18.722656 Z M 13.476562 22.460938 L 12.824219 21.335938 L 13.773438 20.785156 L 14.425781 21.914062 Z M 10.65625 24.085938 C 8.582031 25.285156 5.917969 24.570312 4.71875 22.496094 C 3.519531 20.417969 4.230469 17.753906 6.308594 16.554688 L 8.480469 15.300781 L 9.132812 16.425781 L 6.957031 17.679688 C 5.503906 18.519531 5 20.390625 5.84375 21.84375 C 6.683594 23.300781 8.550781 23.800781 10.007812 22.960938 L 12.179688 21.707031 L 12.832031 22.832031 Z M 10.074219 14.378906 L 10.726562 15.503906 L 9.777344 16.054688 L 9.125 14.929688 Z M 14.234375 20.09375 C 14.183594 20.007812 14.101562 19.945312 14.007812 19.917969 C 13.910156 19.894531 13.808594 19.90625 13.722656 19.957031 L 9.636719 22.316406 C 8.535156 22.953125 7.121094 22.574219 6.488281 21.472656 C 5.851562 20.371094 6.230469 18.960938 7.332031 18.324219 L 9.824219 16.882812 C 9.828125 16.882812 9.828125 16.882812 9.828125 16.882812 L 11.417969 15.964844 C 11.597656 15.859375 11.660156 15.632812 11.554688 15.457031 L 10.535156 13.683594 C 10.429688 13.507812 10.203125 13.445312 10.027344 13.550781 L 8.433594 14.46875 L 5.9375 15.910156 C 3.503906 17.3125 2.667969 20.433594 4.074219 22.867188 C 5.015625 24.5 6.730469 25.414062 8.492188 25.414062 C 9.355469 25.414062 10.230469 25.191406 11.03125 24.730469 L 15.117188 22.371094 C 15.296875 22.269531 15.359375 22.039062 15.253906 21.863281 L 14.234375 20.09375 " fill-opacity="1" fill-rule="nonzero"/></g></svg>