<svg xmlns="http://www.w3.org/2000/svg" xmlns:xlink="http://www.w3.org/1999/xlink" width="40" zoomAndPan="magnify" viewBox="0 0 30 30.000001" height="40" preserveAspectRatio="xMidYMid meet" version="1.0"><defs><clipPath id="4e5eef5e8e"><path d="M 0.484375 0 L 29.515625 0 L 29.515625 29.03125 L 0.484375 29.03125 Z M 0.484375 0 " clip-rule="nonzero"/></clipPath><clipPath id="c3c86edc17"><path d="M 13 18 L 19 18 L 19 26.128906 L 13 26.128906 Z M 13 18 " clip-rule="nonzero"/></clipPath><clipPath id="9d16abed04"><path d="M 21 19 L 26.613281 19 L 26.613281 26.128906 L 21 26.128906 Z M 21 19 " clip-rule="nonzero"/></clipPath><clipPath id="0fa77bef4d"><path d="M 3.386719 2.902344 L 22 2.902344 L 22 21 L 3.386719 21 Z M 3.386719 2.902344 " clip-rule="nonzero"/></clipPath></defs><g clip-path="url(#4e5eef5e8e)"><path fill="#ffffff" d="M 0.484375 0 L 29.515625 0 L 29.515625 29.03125 L 0.484375 29.03125 Z M 0.484375 0 " fill-opacity="1" fill-rule="nonzero"/><path fill="#ffffff" d="M 0.484375 0 L 29.515625 0 L 29.515625 29.03125 L 0.484375 29.03125 Z M 0.484375 0 " fill-opacity="1" fill-rule="nonzero"/></g><g clip-path="url(#c3c86edc17)"><path fill="#935f3d" d="M 18.144531 20.4375 C 17.96875 20.367188 17.757812 20.472656 17.6875 20.648438 L 16.386719 24.335938 L 16.175781 23.210938 C 16.140625 23.070312 16.070312 22.964844 15.929688 22.929688 C 15.824219 22.894531 15.683594 22.929688 15.578125 23 L 14.738281 23.773438 L 16.210938 19.453125 C 16.28125 19.277344 16.175781 19.066406 16 18.996094 C 15.824219 18.925781 15.613281 19.03125 15.542969 19.207031 L 13.648438 24.828125 C 13.613281 24.96875 13.648438 25.144531 13.789062 25.25 C 13.929688 25.320312 14.105469 25.320312 14.210938 25.214844 L 15.578125 23.949219 L 15.894531 25.777344 C 15.929688 25.917969 16.035156 26.058594 16.210938 26.058594 C 16.351562 26.058594 16.527344 25.988281 16.5625 25.8125 L 18.320312 20.859375 C 18.425781 20.71875 18.320312 20.507812 18.144531 20.4375 Z M 18.144531 20.4375 " fill-opacity="1" fill-rule="nonzero"/></g><g clip-path="url(#9d16abed04)"><path fill="#935f3d" d="M 26.542969 24.6875 L 24.398438 19.417969 C 24.328125 19.242188 24.117188 19.136719 23.941406 19.242188 C 23.765625 19.3125 23.660156 19.523438 23.765625 19.699219 L 25.417969 23.738281 L 24.539062 23.035156 C 24.433594 22.964844 24.292969 22.929688 24.1875 23 C 24.082031 23.035156 23.976562 23.140625 23.976562 23.28125 L 23.800781 24.335938 L 22.289062 20.71875 C 22.222656 20.542969 22.011719 20.4375 21.835938 20.542969 C 21.660156 20.613281 21.589844 20.824219 21.660156 21 L 23.660156 25.882812 C 23.730469 26.023438 23.871094 26.128906 24.046875 26.09375 C 24.222656 26.058594 24.328125 25.953125 24.363281 25.777344 L 24.574219 23.949219 L 26.015625 25.109375 C 26.15625 25.214844 26.332031 25.214844 26.4375 25.109375 C 26.542969 25.003906 26.613281 24.863281 26.542969 24.6875 Z M 26.542969 24.6875 " fill-opacity="1" fill-rule="nonzero"/></g><path fill="#935f3d" d="M 20.042969 12.109375 C 18.214844 12.109375 16.738281 13.585938 16.738281 15.414062 C 16.738281 17.238281 18.214844 18.714844 20.042969 18.714844 C 21.871094 18.714844 23.34375 17.238281 23.34375 15.414062 C 23.34375 13.585938 21.871094 12.109375 20.042969 12.109375 Z M 20.042969 18.011719 C 18.601562 18.011719 17.441406 16.851562 17.441406 15.414062 C 17.441406 13.972656 18.601562 12.8125 20.042969 12.8125 C 21.484375 12.8125 22.640625 13.972656 22.640625 15.414062 C 22.640625 16.816406 21.484375 18.011719 20.042969 18.011719 Z M 20.042969 18.011719 " fill-opacity="1" fill-rule="nonzero"/><path fill="#935f3d" d="M 23.097656 20.050781 L 23.414062 18.855469 L 24.609375 18.574219 C 24.714844 18.539062 24.785156 18.503906 24.820312 18.433594 C 24.855469 18.363281 24.890625 18.257812 24.855469 18.152344 L 24.539062 16.640625 L 25.628906 15.515625 C 25.699219 15.449219 25.734375 15.378906 25.734375 15.273438 C 25.734375 15.167969 25.699219 15.097656 25.628906 15.027344 L 24.644531 14.078125 L 24.996094 12.742188 C 25.03125 12.566406 24.925781 12.355469 24.75 12.320312 L 23.519531 12.039062 L 23.238281 10.84375 C 23.203125 10.667969 22.992188 10.527344 22.816406 10.5625 L 21.308594 10.914062 L 20.183594 9.824219 C 20.042969 9.683594 19.832031 9.683594 19.691406 9.824219 L 18.742188 10.808594 L 17.40625 10.457031 C 17.230469 10.421875 17.019531 10.527344 16.984375 10.703125 L 16.667969 11.898438 L 15.472656 12.179688 C 15.367188 12.214844 15.296875 12.25 15.261719 12.320312 C 15.226562 12.390625 15.191406 12.496094 15.226562 12.601562 L 15.542969 14.113281 L 14.457031 15.238281 C 14.386719 15.308594 14.351562 15.378906 14.351562 15.480469 C 14.351562 15.585938 14.386719 15.65625 14.457031 15.726562 L 15.4375 16.675781 L 15.085938 18.011719 C 15.050781 18.117188 15.085938 18.1875 15.121094 18.292969 C 15.15625 18.363281 15.261719 18.433594 15.332031 18.46875 L 16.527344 18.785156 L 16.808594 19.980469 C 16.84375 20.15625 17.054688 20.296875 17.230469 20.261719 L 18.742188 19.945312 L 19.867188 21.035156 C 19.9375 21.105469 20.007812 21.140625 20.113281 21.140625 C 20.21875 21.140625 20.289062 21.105469 20.359375 21.035156 L 21.308594 20.050781 L 22.640625 20.402344 C 22.851562 20.367188 23.027344 20.261719 23.097656 20.050781 Z M 21.308594 19.242188 C 21.203125 19.207031 21.0625 19.242188 20.957031 19.347656 L 20.113281 20.226562 L 19.128906 19.242188 C 19.058594 19.171875 18.988281 19.136719 18.882812 19.136719 C 18.847656 19.136719 18.847656 19.136719 18.8125 19.136719 L 17.441406 19.453125 L 17.195312 18.398438 C 17.160156 18.257812 17.054688 18.152344 16.949219 18.117188 L 15.894531 17.835938 L 16.210938 16.640625 C 16.246094 16.535156 16.210938 16.394531 16.105469 16.289062 L 15.226562 15.449219 L 16.210938 14.464844 C 16.28125 14.394531 16.316406 14.253906 16.316406 14.148438 L 16 12.777344 L 17.054688 12.53125 C 17.195312 12.496094 17.300781 12.390625 17.335938 12.285156 L 17.617188 11.230469 L 18.8125 11.546875 C 18.917969 11.582031 19.058594 11.546875 19.164062 11.441406 L 20.007812 10.5625 L 20.992188 11.546875 C 21.0625 11.617188 21.203125 11.652344 21.308594 11.652344 L 22.675781 11.371094 L 22.921875 12.425781 C 22.957031 12.566406 23.0625 12.671875 23.167969 12.707031 L 24.222656 12.988281 L 23.871094 14.148438 C 23.835938 14.253906 23.871094 14.394531 23.976562 14.5 L 24.855469 15.34375 L 23.871094 16.324219 C 23.800781 16.394531 23.765625 16.535156 23.765625 16.640625 L 24.117188 18.011719 L 23.0625 18.257812 C 22.921875 18.292969 22.816406 18.398438 22.78125 18.503906 L 22.5 19.558594 Z M 21.308594 19.242188 " fill-opacity="1" fill-rule="nonzero"/><path fill="#935f3d" d="M 21.871094 14.289062 C 21.730469 14.148438 21.519531 14.113281 21.378906 14.253906 L 19.269531 16.042969 L 18.671875 15.097656 C 18.566406 14.921875 18.355469 14.886719 18.179688 14.992188 C 18.003906 15.097656 17.96875 15.308594 18.074219 15.480469 L 18.882812 16.78125 C 18.953125 16.851562 19.023438 16.921875 19.128906 16.957031 C 19.234375 16.957031 19.339844 16.957031 19.410156 16.886719 L 21.835938 14.851562 C 21.976562 14.675781 22.011719 14.464844 21.871094 14.289062 Z M 21.871094 14.289062 " fill-opacity="1" fill-rule="nonzero"/><g clip-path="url(#0fa77bef4d)"><path fill="#935f3d" d="M 14.984375 19.769531 C 14.984375 19.558594 14.84375 19.417969 14.632812 19.417969 L 4.863281 19.417969 C 4.441406 19.417969 4.089844 19.066406 4.089844 18.644531 L 4.089844 8.175781 L 9.183594 8.175781 L 9.183594 11.265625 C 9.183594 11.476562 9.324219 11.617188 9.535156 11.617188 L 15.507812 11.617188 C 15.71875 11.617188 15.859375 11.476562 15.859375 11.265625 L 15.859375 8.175781 L 20.957031 8.175781 L 20.957031 9.824219 C 20.957031 10.035156 21.097656 10.175781 21.308594 10.175781 C 21.519531 10.175781 21.660156 10.035156 21.660156 9.824219 L 21.660156 7.824219 C 21.660156 7.753906 21.625 7.683594 21.625 7.648438 L 19.269531 3.5 C 19.058594 3.148438 18.671875 2.902344 18.25 2.902344 L 6.796875 2.902344 C 6.375 2.902344 5.988281 3.113281 5.777344 3.5 L 3.421875 7.648438 C 3.421875 7.683594 3.386719 7.753906 3.386719 7.824219 L 3.386719 18.609375 C 3.386719 19.453125 4.054688 20.121094 4.863281 20.121094 L 14.632812 20.121094 C 14.84375 20.121094 14.984375 19.945312 14.984375 19.769531 Z M 13.964844 3.675781 L 15.015625 7.4375 L 9.992188 7.4375 L 11.046875 3.675781 Z M 15.15625 10.878906 L 9.886719 10.878906 L 9.886719 8.175781 L 15.15625 8.175781 Z M 18.636719 3.851562 L 20.675781 7.472656 L 15.789062 7.472656 L 14.703125 3.605469 L 18.25 3.605469 C 18.390625 3.605469 18.566406 3.710938 18.636719 3.851562 Z M 6.375 3.851562 C 6.480469 3.710938 6.621094 3.605469 6.796875 3.605469 L 10.34375 3.605469 L 9.253906 7.472656 L 4.335938 7.472656 Z M 6.375 3.851562 " fill-opacity="1" fill-rule="nonzero"/></g><path fill="#935f3d" d="M 6.867188 18.257812 C 7.078125 18.257812 7.21875 18.117188 7.21875 17.90625 L 7.21875 15.414062 L 7.777344 15.972656 C 7.917969 16.113281 8.128906 16.113281 8.269531 15.972656 C 8.410156 15.832031 8.410156 15.621094 8.269531 15.480469 L 7.113281 14.289062 C 7.042969 14.21875 6.972656 14.183594 6.867188 14.183594 C 6.761719 14.183594 6.691406 14.21875 6.621094 14.289062 C 6.550781 14.359375 5.53125 15.414062 5.460938 15.480469 C 5.320312 15.621094 5.320312 15.832031 5.460938 15.972656 C 5.601562 16.113281 5.8125 16.113281 5.953125 15.972656 L 6.515625 15.414062 L 6.515625 17.90625 C 6.515625 18.117188 6.65625 18.257812 6.867188 18.257812 Z M 6.867188 18.257812 " fill-opacity="1" fill-rule="nonzero"/><path fill="#935f3d" d="M 10.414062 18.257812 C 10.625 18.257812 10.765625 18.117188 10.765625 17.90625 L 10.765625 15.414062 L 11.328125 15.972656 C 11.46875 16.113281 11.679688 16.113281 11.820312 15.972656 C 11.960938 15.832031 11.960938 15.621094 11.820312 15.480469 L 10.660156 14.289062 C 10.589844 14.21875 10.519531 14.183594 10.414062 14.183594 C 10.308594 14.183594 10.238281 14.21875 10.167969 14.289062 L 9.007812 15.515625 C 8.867188 15.65625 8.867188 15.867188 9.007812 16.007812 C 9.148438 16.148438 9.359375 16.148438 9.5 16.007812 L 10.0625 15.449219 L 10.0625 17.941406 C 10.0625 18.117188 10.203125 18.257812 10.414062 18.257812 Z M 10.414062 18.257812 " fill-opacity="1" fill-rule="nonzero"/></svg>