<svg xmlns="http://www.w3.org/2000/svg" xmlns:xlink="http://www.w3.org/1999/xlink" width="40" zoomAndPan="magnify" viewBox="0 0 30 30.000001" height="40" preserveAspectRatio="xMidYMid meet" version="1.0"><defs><clipPath id="dc37edcc9c"><path d="M 0.484375 0 L 29.515625 0 L 29.515625 29.03125 L 0.484375 29.03125 Z M 0.484375 0 " clip-rule="nonzero"/></clipPath><clipPath id="4bc8e992a0"><path d="M 3.417969 2.902344 L 26.640625 2.902344 L 26.640625 26.128906 L 3.417969 26.128906 Z M 3.417969 2.902344 " clip-rule="nonzero"/></clipPath></defs><g clip-path="url(#dc37edcc9c)"><path fill="#ffffff" d="M 0.484375 0 L 29.515625 0 L 29.515625 29.03125 L 0.484375 29.03125 Z M 0.484375 0 " fill-opacity="1" fill-rule="nonzero"/><path fill="#ffffff" d="M 0.484375 0 L 29.515625 0 L 29.515625 29.03125 L 0.484375 29.03125 Z M 0.484375 0 " fill-opacity="1" fill-rule="nonzero"/></g><g clip-path="url(#4bc8e992a0)"><path fill="#935f3d" d="M 8.167969 22.261719 C 8.136719 22.304688 5.839844 25.632812 5.839844 25.632812 C 5.570312 26.023438 5.03125 26.125 4.640625 25.855469 L 3.90625 25.347656 C 3.515625 25.078125 3.417969 24.539062 3.6875 24.148438 L 5.414062 21.644531 C 5.355469 21.597656 5.300781 21.550781 5.246094 21.496094 C 4.734375 21.003906 4.445312 20.332031 4.445312 19.636719 L 4.445312 5.535156 C 4.445312 4.089844 5.660156 2.910156 7.171875 2.910156 L 23.84375 2.910156 C 23.847656 2.910156 23.847656 2.910156 23.847656 2.910156 C 25.355469 2.910156 26.574219 4.089844 26.574219 5.535156 C 26.574219 5.535156 26.574219 5.539062 26.574219 5.539062 L 26.574219 19.636719 C 26.574219 20.332031 26.285156 21.003906 25.769531 21.496094 C 25.257812 21.988281 24.566406 22.261719 23.847656 22.261719 Z M 7.367188 20.664062 L 7.789062 20.957031 L 8.195312 20.371094 C 8.046875 20.28125 7.90625 20.183594 7.773438 20.078125 Z M 5.097656 7.414062 L 5.097656 19.636719 C 5.097656 20.15625 5.316406 20.65625 5.699219 21.027344 C 5.726562 21.054688 5.757812 21.078125 5.785156 21.105469 L 6.011719 20.777344 C 6.1875 20.527344 6.46875 20.394531 6.753906 20.40625 L 7.28125 19.636719 C 6.695312 19.023438 6.273438 18.234375 6.109375 17.335938 C 5.660156 14.890625 7.277344 12.546875 9.722656 12.097656 C 12.167969 11.648438 14.515625 13.265625 14.964844 15.714844 C 15.414062 18.160156 13.792969 20.503906 11.347656 20.953125 C 10.449219 21.117188 9.5625 21.003906 8.78125 20.671875 L 8.25 21.4375 C 8.273438 21.492188 8.292969 21.550781 8.300781 21.609375 L 23.847656 21.609375 C 24.398438 21.609375 24.925781 21.398438 25.316406 21.027344 C 25.703125 20.65625 25.917969 20.15625 25.917969 19.636719 L 25.917969 7.414062 Z M 17.773438 11.089844 L 17.136719 11.089844 C 17.007812 11.089844 16.894531 11.015625 16.839844 10.902344 C 16.785156 10.785156 16.804688 10.648438 16.886719 10.550781 L 18.375 8.789062 C 18.433594 8.714844 18.527344 8.675781 18.625 8.675781 L 21.597656 8.675781 C 21.691406 8.675781 21.785156 8.714844 21.847656 8.789062 L 23.332031 10.550781 C 23.414062 10.648438 23.433594 10.785156 23.378906 10.902344 C 23.324219 11.015625 23.210938 11.089844 23.082031 11.089844 L 22.445312 11.089844 L 22.445312 13.90625 C 22.445312 14.085938 22.300781 14.234375 22.121094 14.234375 L 18.097656 14.234375 C 17.917969 14.234375 17.773438 14.085938 17.773438 13.90625 Z M 22.121094 10.4375 L 22.378906 10.4375 C 22.378906 10.4375 21.445312 9.328125 21.445312 9.328125 L 18.773438 9.328125 L 17.839844 10.4375 Z M 20.417969 13.582031 L 20.746094 13.582031 L 20.746094 12.660156 L 20.417969 12.660156 Z M 21.398438 13.582031 L 21.792969 13.582031 L 21.792969 11.089844 L 18.425781 11.089844 L 18.425781 13.582031 L 19.765625 13.582031 L 19.765625 12.335938 C 19.765625 12.15625 19.910156 12.007812 20.089844 12.007812 L 21.070312 12.007812 C 21.253906 12.007812 21.398438 12.15625 21.398438 12.335938 Z M 18.707031 19.871094 C 18.40625 20.082031 17.855469 20.203125 17.300781 20.203125 C 16.730469 20.203125 16.160156 20.074219 15.871094 19.851562 C 15.671875 19.703125 15.570312 19.511719 15.570312 19.296875 C 15.570312 18.539062 16.054688 17.894531 16.730469 17.660156 C 16.484375 17.484375 16.324219 17.195312 16.324219 16.867188 C 16.324219 16.328125 16.761719 15.890625 17.300781 15.890625 C 17.839844 15.890625 18.277344 16.328125 18.277344 16.867188 C 18.277344 17.195312 18.117188 17.484375 17.871094 17.660156 C 18.210938 17.777344 18.5 17.996094 18.707031 18.28125 C 18.910156 17.996094 19.203125 17.777344 19.539062 17.660156 C 19.292969 17.484375 19.132812 17.195312 19.132812 16.867188 C 19.132812 16.328125 19.570312 15.890625 20.109375 15.890625 C 20.648438 15.890625 21.085938 16.328125 21.085938 16.867188 C 21.085938 17.195312 20.925781 17.484375 20.679688 17.660156 C 21.019531 17.777344 21.308594 17.996094 21.515625 18.28125 C 21.71875 17.996094 22.007812 17.777344 22.347656 17.660156 C 22.101562 17.484375 21.941406 17.195312 21.941406 16.867188 C 21.941406 16.328125 22.378906 15.890625 22.917969 15.890625 C 23.457031 15.890625 23.894531 16.328125 23.894531 16.867188 C 23.894531 17.195312 23.734375 17.484375 23.488281 17.660156 C 24.164062 17.894531 24.648438 18.539062 24.648438 19.296875 C 24.648438 19.511719 24.546875 19.703125 24.347656 19.851562 C 24.058594 20.074219 23.488281 20.203125 22.917969 20.203125 C 22.363281 20.203125 21.8125 20.082031 21.515625 19.871094 C 21.214844 20.082031 20.664062 20.203125 20.109375 20.203125 C 19.554688 20.203125 19.003906 20.082031 18.707031 19.871094 Z M 21.1875 19.296875 C 21.1875 18.699219 20.703125 18.21875 20.109375 18.21875 C 19.515625 18.21875 19.03125 18.699219 19.03125 19.296875 C 19.03125 19.3125 19.054688 19.320312 19.074219 19.332031 C 19.121094 19.367188 19.183594 19.398438 19.257812 19.425781 C 19.488281 19.511719 19.800781 19.550781 20.109375 19.550781 C 20.417969 19.550781 20.730469 19.511719 20.960938 19.425781 C 21.035156 19.398438 21.097656 19.367188 21.144531 19.332031 C 21.164062 19.320312 21.1875 19.3125 21.1875 19.296875 Z M 22.59375 16.867188 C 22.59375 17.046875 22.738281 17.191406 22.917969 17.191406 C 23.097656 17.191406 23.238281 17.046875 23.238281 16.867188 C 23.238281 16.691406 23.09375 16.546875 22.917969 16.546875 C 22.738281 16.546875 22.59375 16.691406 22.59375 16.867188 Z M 21.839844 19.296875 C 21.839844 19.3125 21.863281 19.320312 21.882812 19.332031 C 21.929688 19.367188 21.992188 19.398438 22.066406 19.425781 C 22.296875 19.511719 22.609375 19.550781 22.917969 19.550781 C 23.226562 19.550781 23.539062 19.511719 23.769531 19.425781 C 23.84375 19.398438 23.90625 19.367188 23.953125 19.332031 C 23.972656 19.320312 23.996094 19.3125 23.996094 19.296875 C 23.996094 18.699219 23.511719 18.21875 22.917969 18.21875 C 22.324219 18.21875 21.839844 18.699219 21.839844 19.296875 Z M 16.980469 16.867188 C 16.980469 17.046875 17.125 17.191406 17.300781 17.191406 C 17.480469 17.191406 17.625 17.046875 17.625 16.867188 C 17.625 16.691406 17.480469 16.546875 17.300781 16.546875 C 17.125 16.546875 16.980469 16.691406 16.980469 16.867188 Z M 18.378906 19.296875 C 18.378906 18.699219 17.894531 18.21875 17.300781 18.21875 C 16.707031 18.21875 16.222656 18.699219 16.222656 19.296875 C 16.222656 19.3125 16.25 19.320312 16.265625 19.332031 C 16.3125 19.367188 16.378906 19.398438 16.449219 19.425781 C 16.679688 19.511719 16.992188 19.550781 17.300781 19.550781 C 17.609375 19.550781 17.921875 19.511719 18.152344 19.425781 C 18.226562 19.398438 18.289062 19.367188 18.335938 19.332031 C 18.355469 19.320312 18.378906 19.3125 18.378906 19.296875 Z M 19.789062 16.867188 C 19.789062 17.046875 19.933594 17.191406 20.109375 17.191406 C 20.289062 17.191406 20.433594 17.046875 20.433594 16.867188 C 20.433594 16.691406 20.289062 16.546875 20.109375 16.546875 C 19.933594 16.546875 19.789062 16.691406 19.789062 16.867188 Z M 5.097656 5.539062 L 5.097656 6.761719 L 25.917969 6.761719 L 25.917969 5.535156 C 25.917969 5.015625 25.699219 4.515625 25.316406 4.144531 C 24.925781 3.773438 24.398438 3.5625 23.847656 3.5625 L 7.171875 3.5625 C 6.617188 3.5625 6.089844 3.773438 5.699219 4.144531 C 5.316406 4.515625 5.097656 5.015625 5.097656 5.535156 C 5.097656 5.535156 5.097656 5.539062 5.097656 5.539062 Z M 20.390625 4.589844 C 20.707031 4.589844 20.960938 4.847656 20.960938 5.164062 C 20.960938 5.476562 20.707031 5.734375 20.390625 5.734375 C 20.074219 5.734375 19.816406 5.476562 19.816406 5.164062 C 19.816406 4.847656 20.074219 4.589844 20.390625 4.589844 Z M 22.335938 4.589844 C 22.652344 4.589844 22.910156 4.847656 22.910156 5.164062 C 22.910156 5.476562 22.652344 5.734375 22.335938 5.734375 C 22.019531 5.734375 21.765625 5.476562 21.765625 5.164062 C 21.765625 4.847656 22.019531 4.589844 22.335938 4.589844 Z M 24.285156 4.589844 C 24.597656 4.589844 24.855469 4.847656 24.855469 5.164062 C 24.855469 5.476562 24.597656 5.734375 24.285156 5.734375 C 23.96875 5.734375 23.710938 5.476562 23.710938 5.164062 C 23.710938 4.847656 23.96875 4.589844 24.285156 4.589844 Z M 6.550781 21.148438 L 4.222656 24.519531 C 4.160156 24.613281 4.183594 24.746094 4.277344 24.808594 L 5.011719 25.316406 C 5.105469 25.382812 5.234375 25.359375 5.300781 25.261719 L 7.628906 21.890625 C 7.683594 21.8125 7.675781 21.710938 7.617188 21.640625 C 7.617188 21.636719 7.613281 21.636719 7.613281 21.632812 C 7.601562 21.621094 7.589844 21.609375 7.574219 21.601562 C 7.574219 21.601562 6.8125 21.078125 6.796875 21.070312 C 6.796875 21.070312 6.792969 21.070312 6.789062 21.066406 C 6.703125 21.039062 6.605469 21.070312 6.550781 21.148438 Z M 8.816406 19.96875 C 9.539062 20.328125 10.378906 20.464844 11.230469 20.308594 C 13.320312 19.925781 14.703125 17.921875 14.320312 15.832031 C 13.9375 13.742188 11.933594 12.355469 9.84375 12.738281 C 7.75 13.125 6.367188 15.128906 6.75 17.21875 C 6.90625 18.074219 7.335938 18.808594 7.925781 19.355469 C 7.929688 19.355469 7.929688 19.355469 7.933594 19.359375 C 8.195312 19.601562 8.492188 19.804688 8.8125 19.964844 C 8.8125 19.964844 8.816406 19.96875 8.816406 19.96875 Z M 8.324219 18.71875 C 7.769531 18.160156 7.425781 17.390625 7.421875 16.539062 C 7.421875 16.535156 7.421875 16.53125 7.421875 16.523438 C 7.421875 14.804688 8.816406 13.410156 10.535156 13.410156 C 12.257812 13.410156 13.652344 14.804688 13.652344 16.523438 C 13.652344 17.382812 13.304688 18.160156 12.746094 18.722656 C 12.742188 18.722656 12.742188 18.726562 12.738281 18.726562 C 12.175781 19.292969 11.398438 19.640625 10.535156 19.640625 C 9.960938 19.640625 9.421875 19.484375 8.957031 19.210938 C 8.730469 19.078125 8.519531 18.914062 8.332031 18.726562 C 8.328125 18.726562 8.328125 18.722656 8.324219 18.71875 Z M 12.5625 17.925781 C 12.835938 17.527344 13 17.042969 13 16.523438 C 13 15.164062 11.894531 14.0625 10.535156 14.0625 C 9.175781 14.0625 8.074219 15.164062 8.074219 16.523438 L 7.746094 16.851562 L 8.074219 16.523438 C 8.074219 17.042969 8.234375 17.527344 8.511719 17.925781 C 8.886719 17.382812 9.480469 17 10.160156 16.894531 C 9.617188 16.734375 9.21875 16.230469 9.21875 15.632812 C 9.21875 14.90625 9.808594 14.316406 10.535156 14.316406 C 11.265625 14.316406 11.855469 14.90625 11.855469 15.632812 C 11.855469 16.230469 11.457031 16.734375 10.910156 16.894531 C 11.59375 17 12.183594 17.382812 12.5625 17.925781 Z M 9.871094 15.632812 C 9.871094 16 10.167969 16.296875 10.535156 16.296875 C 10.902344 16.296875 11.199219 16 11.199219 15.632812 C 11.199219 15.265625 10.902344 14.96875 10.535156 14.96875 C 10.167969 14.96875 9.871094 15.265625 9.871094 15.632812 Z M 9.359375 18.6875 C 9.710938 18.878906 10.109375 18.988281 10.535156 18.988281 C 11.132812 18.988281 11.679688 18.773438 12.105469 18.421875 C 11.789062 17.882812 11.207031 17.519531 10.535156 17.519531 C 9.867188 17.519531 9.28125 17.882812 8.964844 18.421875 C 9.089844 18.523438 9.21875 18.613281 9.359375 18.6875 Z M 9.359375 18.6875 " fill-opacity="1" fill-rule="evenodd"/></g></svg>