<svg xmlns="http://www.w3.org/2000/svg" xmlns:xlink="http://www.w3.org/1999/xlink" width="40" zoomAndPan="magnify" viewBox="0 0 30 30.000001" height="40" preserveAspectRatio="xMidYMid meet" version="1.0"><defs><clipPath id="91dc9cae86"><path d="M 0.484375 0 L 29.515625 0 L 29.515625 29.03125 L 0.484375 29.03125 Z M 0.484375 0 " clip-rule="nonzero"/></clipPath><clipPath id="b5f4eae1d6"><path d="M 3.386719 3.136719 L 25.886719 3.136719 L 25.886719 25.636719 L 3.386719 25.636719 Z M 3.386719 3.136719 " clip-rule="nonzero"/></clipPath></defs><g clip-path="url(#91dc9cae86)"><path fill="#ffffff" d="M 0.484375 0 L 29.515625 0 L 29.515625 29.03125 L 0.484375 29.03125 Z M 0.484375 0 " fill-opacity="1" fill-rule="nonzero"/><path fill="#ffffff" d="M 0.484375 0 L 29.515625 0 L 29.515625 29.03125 L 0.484375 29.03125 Z M 0.484375 0 " fill-opacity="1" fill-rule="nonzero"/></g><path fill="#935f3d" d="M 15.085938 9.351562 C 15.085938 8.675781 14.714844 8.089844 14.167969 7.773438 C 14.285156 7.597656 14.355469 7.386719 14.355469 7.15625 C 14.355469 6.550781 13.863281 6.0625 13.257812 6.0625 C 12.652344 6.0625 12.164062 6.550781 12.164062 7.15625 C 12.164062 7.386719 12.234375 7.597656 12.351562 7.773438 C 11.804688 8.089844 11.429688 8.675781 11.429688 9.351562 L 11.429688 5.328125 L 15.085938 5.328125 Z M 12.894531 7.15625 C 12.894531 6.957031 13.058594 6.792969 13.257812 6.792969 C 13.460938 6.792969 13.625 6.957031 13.625 7.15625 C 13.625 7.359375 13.460938 7.523438 13.257812 7.523438 C 13.058594 7.523438 12.894531 7.359375 12.894531 7.15625 Z M 14.355469 9.71875 L 12.164062 9.71875 L 12.164062 9.351562 C 12.164062 8.746094 12.652344 8.253906 13.257812 8.253906 C 13.863281 8.253906 14.355469 8.746094 14.355469 9.351562 Z M 15.820312 4.597656 L 10.699219 4.597656 L 10.699219 10.449219 L 15.820312 10.449219 L 15.820312 4.597656 " fill-opacity="1" fill-rule="nonzero"/><path fill="#935f3d" d="M 18.746094 5.328125 L 16.550781 5.328125 L 16.550781 6.0625 L 18.746094 6.0625 L 18.746094 5.328125 " fill-opacity="1" fill-rule="nonzero"/><path fill="#935f3d" d="M 18.746094 6.792969 L 16.550781 6.792969 L 16.550781 7.523438 L 18.746094 7.523438 L 18.746094 6.792969 " fill-opacity="1" fill-rule="nonzero"/><path fill="#935f3d" d="M 18.746094 8.253906 L 16.550781 8.253906 L 16.550781 8.984375 L 18.746094 8.984375 L 18.746094 8.253906 " fill-opacity="1" fill-rule="nonzero"/><path fill="#935f3d" d="M 13.625 12.640625 L 10.699219 12.640625 L 10.699219 13.375 L 13.625 13.375 L 13.625 12.640625 " fill-opacity="1" fill-rule="nonzero"/><path fill="#935f3d" d="M 13.625 14.105469 L 10.699219 14.105469 L 10.699219 14.835938 L 13.625 14.835938 L 13.625 14.105469 " fill-opacity="1" fill-rule="nonzero"/><path fill="#935f3d" d="M 15.820312 13.375 L 18.746094 13.375 L 18.746094 12.640625 L 15.820312 12.640625 L 15.820312 13.375 " fill-opacity="1" fill-rule="nonzero"/><path fill="#935f3d" d="M 16.550781 14.835938 L 18.746094 14.835938 L 18.746094 14.105469 L 16.550781 14.105469 L 16.550781 14.835938 " fill-opacity="1" fill-rule="nonzero"/><g clip-path="url(#b5f4eae1d6)"><path fill="#935f3d" d="M 25.324219 19.957031 L 18.976562 19.957031 C 19.285156 19.015625 19.445312 18.035156 19.46875 17.03125 L 19.476562 17.03125 C 19.878906 17.03125 20.207031 16.703125 20.207031 16.296875 L 20.207031 15.566406 L 24.59375 15.566406 L 24.59375 14.835938 L 20.207031 14.835938 L 20.207031 14.105469 L 21.667969 14.105469 L 21.667969 8.253906 L 20.207031 8.253906 L 20.207031 7.523438 L 25.324219 7.523438 Z M 17.089844 22.148438 L 12.414062 22.148438 L 11.546875 19.828125 C 11.46875 19.625 11.429688 19.414062 11.429688 19.195312 C 11.429688 18.835938 11.566406 18.484375 11.808594 18.21875 L 14.746094 14.988281 C 14.832031 14.890625 14.957031 14.835938 15.085938 14.835938 C 15.492188 14.835938 15.820312 15.164062 15.820312 15.566406 C 15.820312 15.722656 15.769531 15.878906 15.671875 16.007812 L 13.894531 18.378906 C 13.722656 18.609375 13.625 18.898438 13.625 19.1875 C 13.625 19.542969 13.765625 19.878906 14.015625 20.132812 L 14.496094 20.625 L 15.019531 20.109375 L 14.535156 19.621094 C 14.417969 19.503906 14.355469 19.351562 14.355469 19.1875 C 14.355469 19.054688 14.402344 18.921875 14.480469 18.816406 L 15.820312 17.03125 L 18.734375 17.03125 C 18.695312 18.871094 18.132812 20.628906 17.089844 22.148438 Z M 11.898438 25.074219 L 12.449219 22.878906 L 16.996094 22.878906 L 17.542969 25.074219 Z M 11.902344 17.03125 L 11.429688 17.546875 L 11.429688 17.03125 Z M 9.96875 16.296875 L 9.96875 3.867188 L 19.476562 3.867188 L 19.476562 16.296875 L 16.351562 16.296875 C 16.476562 16.078125 16.550781 15.824219 16.550781 15.566406 C 16.550781 14.761719 15.894531 14.105469 15.085938 14.105469 L 15.085938 11.910156 L 18.746094 11.910156 L 18.746094 11.179688 L 10.699219 11.179688 L 10.699219 11.910156 L 14.355469 11.910156 L 14.355469 14.359375 C 14.304688 14.402344 14.25 14.445312 14.207031 14.496094 L 12.566406 16.296875 Z M 8.316406 11.429688 C 8.4375 11.253906 8.507812 11.042969 8.507812 10.8125 C 8.507812 10.207031 8.015625 9.71875 7.410156 9.71875 C 6.804688 9.71875 6.3125 10.207031 6.3125 10.8125 C 6.3125 11.042969 6.382812 11.253906 6.503906 11.429688 C 5.957031 11.746094 5.582031 12.332031 5.582031 13.007812 L 5.582031 8.984375 L 9.238281 8.984375 L 9.238281 13.007812 C 9.238281 12.332031 8.863281 11.746094 8.316406 11.429688 Z M 7.042969 10.8125 C 7.042969 10.613281 7.207031 10.449219 7.410156 10.449219 C 7.609375 10.449219 7.773438 10.613281 7.773438 10.8125 C 7.773438 11.015625 7.609375 11.179688 7.410156 11.179688 C 7.207031 11.179688 7.042969 11.015625 7.042969 10.8125 Z M 7.410156 11.910156 C 8.015625 11.910156 8.507812 12.402344 8.507812 13.007812 L 8.507812 13.375 L 6.3125 13.375 L 6.3125 13.007812 C 6.3125 12.402344 6.804688 11.910156 7.410156 11.910156 Z M 4.117188 19.957031 L 4.117188 7.523438 L 9.238281 7.523438 L 9.238281 8.253906 L 4.851562 8.253906 L 4.851562 14.105469 L 9.238281 14.105469 L 9.238281 14.835938 L 4.851562 14.835938 L 4.851562 15.566406 L 9.238281 15.566406 L 9.238281 16.296875 C 9.238281 16.703125 9.566406 17.03125 9.96875 17.03125 L 10.699219 17.03125 L 10.699219 19.195312 C 10.699219 19.457031 10.746094 19.710938 10.824219 19.957031 Z M 20.207031 8.984375 L 20.9375 8.984375 L 20.9375 13.375 L 20.207031 13.375 Z M 25.324219 6.792969 L 20.207031 6.792969 L 20.207031 3.867188 C 20.207031 3.464844 19.878906 3.136719 19.476562 3.136719 L 9.96875 3.136719 C 9.566406 3.136719 9.238281 3.464844 9.238281 3.867188 L 9.238281 6.792969 L 4.117188 6.792969 C 3.714844 6.792969 3.386719 7.121094 3.386719 7.523438 L 3.386719 19.957031 C 3.386719 20.359375 3.714844 20.6875 4.117188 20.6875 L 11.085938 20.6875 L 11.78125 22.535156 L 10.960938 25.804688 L 18.480469 25.804688 L 17.675781 22.582031 C 18.089844 21.980469 18.4375 21.347656 18.710938 20.6875 L 25.324219 20.6875 C 25.730469 20.6875 26.058594 20.359375 26.058594 19.957031 L 26.058594 7.523438 C 26.058594 7.121094 25.730469 6.792969 25.324219 6.792969 " fill-opacity="1" fill-rule="nonzero"/></g><path fill="#935f3d" d="M 24.59375 8.984375 L 22.402344 8.984375 L 22.402344 9.71875 L 24.59375 9.71875 L 24.59375 8.984375 " fill-opacity="1" fill-rule="nonzero"/><path fill="#935f3d" d="M 24.59375 10.449219 L 22.402344 10.449219 L 22.402344 11.179688 L 24.59375 11.179688 L 24.59375 10.449219 " fill-opacity="1" fill-rule="nonzero"/><path fill="#935f3d" d="M 24.59375 11.910156 L 22.402344 11.910156 L 22.402344 12.640625 L 24.59375 12.640625 L 24.59375 11.910156 " fill-opacity="1" fill-rule="nonzero"/><path fill="#935f3d" d="M 20.9375 17.03125 L 24.59375 17.03125 L 24.59375 16.296875 L 20.9375 16.296875 L 20.9375 17.03125 " fill-opacity="1" fill-rule="nonzero"/><path fill="#935f3d" d="M 20.9375 18.492188 L 24.59375 18.492188 L 24.59375 17.761719 L 20.9375 17.761719 L 20.9375 18.492188 " fill-opacity="1" fill-rule="nonzero"/><path fill="#935f3d" d="M 4.851562 17.03125 L 8.507812 17.03125 L 8.507812 16.296875 L 4.851562 16.296875 L 4.851562 17.03125 " fill-opacity="1" fill-rule="nonzero"/><path fill="#935f3d" d="M 4.851562 18.492188 L 8.507812 18.492188 L 8.507812 17.761719 L 4.851562 17.761719 L 4.851562 18.492188 " fill-opacity="1" fill-rule="nonzero"/></svg>