<svg xmlns="http://www.w3.org/2000/svg" xmlns:xlink="http://www.w3.org/1999/xlink" width="40" zoomAndPan="magnify" viewBox="0 0 30 30.000001" height="40" preserveAspectRatio="xMidYMid meet" version="1.0"><defs><clipPath id="63f5688d25"><path d="M 0.484375 0 L 29.515625 0 L 29.515625 29.03125 L 0.484375 29.03125 Z M 0.484375 0 " clip-rule="nonzero"/></clipPath><clipPath id="e5cc0a83e0"><path d="M 3.386719 2.902344 L 26.613281 2.902344 L 26.613281 26.128906 L 3.386719 26.128906 Z M 3.386719 2.902344 " clip-rule="nonzero"/></clipPath></defs><g clip-path="url(#63f5688d25)"><path fill="#ffffff" d="M 0.484375 0 L 29.515625 0 L 29.515625 29.03125 L 0.484375 29.03125 Z M 0.484375 0 " fill-opacity="1" fill-rule="nonzero"/><path fill="#ffffff" d="M 0.484375 0 L 29.515625 0 L 29.515625 29.03125 L 0.484375 29.03125 Z M 0.484375 0 " fill-opacity="1" fill-rule="nonzero"/></g><path fill="#935f3d" d="M 20.007812 4.972656 L 20.445312 4.609375 C 20.589844 4.464844 20.625 4.246094 20.480469 4.101562 C 20.335938 3.957031 20.117188 3.917969 19.972656 4.066406 L 19.535156 4.425781 C 19.390625 4.574219 19.355469 4.789062 19.5 4.933594 C 19.609375 5.082031 19.863281 5.082031 20.007812 4.972656 Z M 20.007812 4.972656 " fill-opacity="1" fill-rule="nonzero"/><path fill="#935f3d" d="M 20.226562 6.242188 C 20.296875 6.421875 20.480469 6.53125 20.699219 6.460938 L 21.242188 6.277344 C 21.421875 6.207031 21.53125 6.023438 21.460938 5.804688 C 21.386719 5.625 21.207031 5.515625 20.988281 5.589844 L 20.445312 5.769531 C 20.296875 5.84375 20.191406 6.058594 20.226562 6.242188 Z M 20.226562 6.242188 " fill-opacity="1" fill-rule="nonzero"/><path fill="#935f3d" d="M 20.84375 7.402344 C 20.660156 7.402344 20.480469 7.546875 20.445312 7.730469 C 20.445312 7.949219 20.589844 8.09375 20.769531 8.128906 L 21.351562 8.164062 C 21.351562 8.164062 21.351562 8.164062 21.386719 8.164062 C 21.570312 8.164062 21.75 8.019531 21.75 7.839844 C 21.75 7.621094 21.605469 7.476562 21.421875 7.441406 Z M 20.84375 7.402344 " fill-opacity="1" fill-rule="nonzero"/><path fill="#935f3d" d="M 12.058594 9.398438 L 12.207031 9.363281 C 12.386719 9.289062 12.496094 9.109375 12.421875 8.890625 C 12.351562 8.710938 12.167969 8.601562 11.953125 8.671875 L 11.84375 8.710938 C 11.660156 8.78125 11.550781 8.964844 11.625 9.179688 C 11.660156 9.363281 11.878906 9.472656 12.058594 9.398438 Z M 12.058594 9.398438 " fill-opacity="1" fill-rule="nonzero"/><g clip-path="url(#e5cc0a83e0)"><path fill="#935f3d" d="M 26.25 22.898438 L 25.667969 22.898438 L 25.667969 9.945312 C 25.667969 9.253906 25.125 8.710938 24.433594 8.710938 L 19.320312 8.710938 L 19.320312 8.855469 L 19.101562 8.273438 C 19.753906 7.875 20.042969 7.078125 19.789062 6.351562 C 19.535156 5.625 18.847656 5.191406 18.085938 5.261719 L 17.359375 3.15625 C 17.324219 3.011719 17.175781 2.902344 17.03125 2.902344 C 16.886719 2.902344 16.742188 3.011719 16.707031 3.195312 C 16.707031 3.230469 15.761719 6.96875 10.753906 7.695312 C 10.574219 7.730469 10.355469 7.839844 10.210938 8.054688 C 10.101562 8.238281 10.066406 8.457031 10.136719 8.710938 L 5.566406 8.710938 C 4.875 8.710938 4.332031 9.253906 4.332031 9.945312 L 4.332031 22.863281 L 3.75 22.863281 C 3.53125 22.863281 3.386719 23.007812 3.386719 23.226562 C 3.386719 24.824219 4.65625 26.128906 6.253906 26.128906 L 23.746094 26.128906 C 25.34375 26.128906 26.613281 24.859375 26.613281 23.261719 C 26.613281 23.042969 26.46875 22.898438 26.25 22.898438 Z M 19.136719 6.605469 C 19.246094 6.96875 19.136719 7.332031 18.882812 7.585938 L 18.339844 5.988281 C 18.703125 6.023438 18.992188 6.242188 19.136719 6.605469 Z M 16.996094 4.355469 L 18.808594 9.726562 C 17.867188 9.253906 16.234375 8.746094 14.128906 9.21875 L 13.621094 7.621094 C 15.582031 6.675781 16.558594 5.261719 16.996094 4.355469 Z M 15.21875 12.046875 C 15.144531 12.15625 14.855469 12.410156 14.238281 12.410156 C 14.054688 12.300781 13.984375 12.011719 13.910156 11.941406 C 13.875 11.902344 13.292969 10.960938 12.675781 10.414062 C 12.894531 10.34375 13.078125 10.234375 13.257812 10.160156 C 13.984375 11.757812 15.179688 11.613281 15.21875 12.046875 Z M 10.828125 8.417969 C 11.625 8.308594 12.316406 8.128906 12.929688 7.875 L 13.441406 9.363281 C 12.824219 9.542969 12.132812 9.835938 11.445312 10.234375 C 11.445312 10.234375 11.40625 10.234375 11.40625 10.234375 C 11.261719 10.160156 11.191406 9.652344 10.828125 8.746094 C 10.71875 8.382812 10.863281 8.417969 10.828125 8.417969 Z M 5.054688 9.945312 C 5.054688 9.652344 5.273438 9.433594 5.566406 9.433594 L 10.355469 9.433594 C 10.355469 9.472656 10.390625 9.507812 10.390625 9.542969 C 10.464844 9.726562 10.535156 9.90625 10.609375 10.160156 C 10.71875 10.523438 10.898438 10.777344 11.191406 10.886719 C 11.40625 10.960938 11.660156 10.960938 11.84375 10.851562 C 11.914062 10.816406 11.988281 10.777344 12.058594 10.742188 C 12.097656 10.816406 12.132812 10.851562 12.167969 10.886719 C 12.675781 11.25 13.222656 12.121094 13.332031 12.265625 C 13.621094 12.957031 14.09375 13.066406 14.128906 13.101562 C 14.78125 13.246094 15.835938 12.738281 15.945312 12.230469 C 16.125 11.503906 15.363281 11.070312 14.890625 10.921875 C 14.417969 10.742188 14.128906 10.269531 13.984375 9.980469 C 17.140625 9.144531 19.171875 10.742188 19.28125 10.816406 C 19.390625 10.921875 19.574219 10.921875 19.71875 10.816406 C 19.863281 10.707031 19.898438 10.558594 19.863281 10.414062 L 19.535156 9.472656 L 24.472656 9.472656 C 24.761719 9.472656 24.980469 9.691406 24.980469 9.980469 L 24.980469 22.898438 L 5.054688 22.898438 Z M 23.746094 25.402344 L 6.253906 25.402344 C 5.203125 25.402344 4.332031 24.640625 4.148438 23.625 L 25.851562 23.625 C 25.667969 24.605469 24.796875 25.402344 23.746094 25.402344 Z M 23.746094 25.402344 " fill-opacity="1" fill-rule="nonzero"/></g><path fill="#935f3d" d="M 13.984375 24.859375 L 16.050781 24.859375 C 16.269531 24.859375 16.414062 24.714844 16.414062 24.496094 C 16.414062 24.277344 16.269531 24.132812 16.050781 24.132812 L 13.984375 24.132812 C 13.765625 24.132812 13.621094 24.277344 13.621094 24.496094 C 13.621094 24.714844 13.765625 24.859375 13.984375 24.859375 Z M 13.984375 24.859375 " fill-opacity="1" fill-rule="nonzero"/><path fill="#935f3d" d="M 9.554688 18.652344 C 9.664062 18.726562 9.808594 18.726562 9.917969 18.652344 L 12.570312 17.203125 C 12.675781 17.128906 12.75 17.019531 12.75 16.875 C 12.75 16.730469 12.675781 16.621094 12.570312 16.546875 L 9.917969 15.097656 C 9.808594 15.023438 9.664062 15.023438 9.554688 15.097656 C 9.449219 15.167969 9.375 15.277344 9.375 15.421875 L 9.375 18.289062 C 9.375 18.472656 9.449219 18.582031 9.554688 18.652344 Z M 10.101562 16.078125 L 11.625 16.910156 L 10.101562 17.746094 Z M 10.101562 16.078125 " fill-opacity="1" fill-rule="nonzero"/><path fill="#935f3d" d="M 15.144531 13.464844 L 6.980469 13.464844 C 6.761719 13.464844 6.617188 13.609375 6.617188 13.828125 L 6.617188 19.960938 C 6.617188 20.175781 6.761719 20.324219 6.980469 20.324219 L 8.25 20.324219 L 8.25 21.300781 C 8.25 21.410156 8.324219 21.554688 8.429688 21.628906 C 8.539062 21.703125 8.683594 21.703125 8.792969 21.628906 L 11.335938 20.324219 L 15.144531 20.324219 C 15.363281 20.324219 15.507812 20.175781 15.507812 19.960938 L 15.507812 13.828125 C 15.507812 13.644531 15.363281 13.464844 15.144531 13.464844 Z M 14.78125 19.597656 L 11.226562 19.597656 C 11.152344 19.597656 11.117188 19.597656 11.042969 19.632812 L 8.976562 20.683594 L 8.976562 19.960938 C 8.976562 19.742188 8.832031 19.597656 8.613281 19.597656 L 7.34375 19.597656 L 7.34375 14.191406 L 14.78125 14.191406 Z M 14.78125 19.597656 " fill-opacity="1" fill-rule="nonzero"/><path fill="#935f3d" d="M 23.382812 16.730469 C 23.382812 16.585938 23.273438 16.441406 23.128906 16.402344 L 18.628906 14.988281 C 18.484375 14.953125 18.375 14.988281 18.265625 15.058594 C 18.15625 15.167969 18.121094 15.316406 18.195312 15.421875 L 19.609375 19.921875 C 19.644531 20.070312 19.789062 20.175781 19.933594 20.175781 C 20.082031 20.175781 20.226562 20.105469 20.296875 19.960938 L 20.988281 18.253906 L 22.730469 19.996094 C 22.875 20.140625 23.09375 20.140625 23.238281 19.996094 C 23.382812 19.851562 23.382812 19.632812 23.238281 19.488281 L 21.496094 17.746094 L 23.203125 17.054688 C 23.273438 17.019531 23.382812 16.875 23.382812 16.730469 Z M 20.660156 17.273438 C 20.589844 17.308594 20.515625 17.382812 20.480469 17.457031 L 19.972656 18.726562 L 19.066406 15.824219 L 21.96875 16.730469 Z M 20.660156 17.273438 " fill-opacity="1" fill-rule="nonzero"/></svg>