<svg xmlns="http://www.w3.org/2000/svg" xmlns:xlink="http://www.w3.org/1999/xlink" width="40" zoomAndPan="magnify" viewBox="0 0 30 30.000001" height="40" preserveAspectRatio="xMidYMid meet" version="1.0"><defs><clipPath id="33ebbc3417"><path d="M 0.484375 0 L 29.515625 0 L 29.515625 29.03125 L 0.484375 29.03125 Z M 0.484375 0 " clip-rule="nonzero"/></clipPath><clipPath id="fe0b8bed48"><path d="M 3.3125 6 L 16 6 L 16 23 L 3.3125 23 Z M 3.3125 6 " clip-rule="nonzero"/></clipPath><clipPath id="aa73b4192d"><path d="M 3.3125 18 L 16 18 L 16 23 L 3.3125 23 Z M 3.3125 18 " clip-rule="nonzero"/></clipPath><clipPath id="a5cb574326"><path d="M 7 2.976562 L 12 2.976562 L 12 8 L 7 8 Z M 7 2.976562 " clip-rule="nonzero"/></clipPath><clipPath id="3aac61b9a5"><path d="M 3.3125 15 L 7 15 L 7 19 L 3.3125 19 Z M 3.3125 15 " clip-rule="nonzero"/></clipPath><clipPath id="2172dc260d"><path d="M 11 10 L 25 10 L 25 26.203125 L 11 26.203125 Z M 11 10 " clip-rule="nonzero"/></clipPath><clipPath id="7f4ff313d2"><path d="M 19 13 L 26.539062 13 L 26.539062 24 L 19 24 Z M 19 13 " clip-rule="nonzero"/></clipPath><clipPath id="9176daaf05"><path d="M 25 13 L 26.539062 13 L 26.539062 16 L 25 16 Z M 25 13 " clip-rule="nonzero"/></clipPath><clipPath id="11411adec1"><path d="M 25 13 L 26.539062 13 L 26.539062 15 L 25 15 Z M 25 13 " clip-rule="nonzero"/></clipPath></defs><g clip-path="url(#33ebbc3417)"><path fill="#ffffff" d="M 0.484375 0 L 29.515625 0 L 29.515625 29.03125 L 0.484375 29.03125 Z M 0.484375 0 " fill-opacity="1" fill-rule="nonzero"/><path fill="#ffffff" d="M 0.484375 0 L 29.515625 0 L 29.515625 29.03125 L 0.484375 29.03125 Z M 0.484375 0 " fill-opacity="1" fill-rule="nonzero"/></g><g clip-path="url(#fe0b8bed48)"><path fill="#ffffff" d="M 7.34375 7.265625 C 7.277344 7.265625 7.226562 7.320312 7.226562 7.386719 C 7.226562 7.449219 7.277344 7.503906 7.34375 7.503906 C 7.40625 7.503906 7.460938 7.449219 7.460938 7.386719 C 7.460938 7.320312 7.40625 7.265625 7.34375 7.265625 Z M 11.429688 7.265625 C 11.363281 7.265625 11.3125 7.320312 11.3125 7.386719 C 11.3125 7.449219 11.363281 7.503906 11.429688 7.503906 C 11.496094 7.503906 11.546875 7.449219 11.546875 7.386719 C 11.546875 7.320312 11.496094 7.265625 11.429688 7.265625 Z M 3.460938 22.582031 C 3.417969 22.582031 3.386719 22.550781 3.386719 22.511719 L 3.386719 6.332031 C 3.386719 6.292969 3.417969 6.261719 3.460938 6.261719 L 15.3125 6.261719 C 15.351562 6.261719 15.382812 6.292969 15.382812 6.332031 L 15.382812 22.511719 C 15.382812 22.550781 15.351562 22.582031 15.3125 22.582031 L 3.460938 22.582031 " fill-opacity="1" fill-rule="nonzero"/><path fill="#935f3d" d="M 7.34375 7.429688 C 7.316406 7.429688 7.296875 7.410156 7.296875 7.386719 C 7.296875 7.359375 7.316406 7.339844 7.34375 7.339844 C 7.367188 7.339844 7.390625 7.359375 7.390625 7.386719 C 7.390625 7.410156 7.367188 7.429688 7.34375 7.429688 Z M 11.429688 7.429688 C 11.40625 7.429688 11.382812 7.410156 11.382812 7.386719 C 11.382812 7.359375 11.40625 7.339844 11.429688 7.339844 C 11.457031 7.339844 11.476562 7.359375 11.476562 7.386719 C 11.476562 7.410156 11.457031 7.429688 11.429688 7.429688 Z M 15.3125 6.191406 L 3.460938 6.191406 C 3.378906 6.191406 3.316406 6.253906 3.316406 6.332031 L 3.316406 22.511719 C 3.316406 22.589844 3.378906 22.652344 3.460938 22.652344 L 15.3125 22.652344 C 15.390625 22.652344 15.457031 22.589844 15.457031 22.511719 L 15.457031 6.332031 C 15.457031 6.253906 15.390625 6.191406 15.3125 6.191406 Z M 7.34375 7.574219 C 7.445312 7.574219 7.53125 7.488281 7.53125 7.386719 C 7.53125 7.28125 7.445312 7.195312 7.34375 7.195312 C 7.238281 7.195312 7.152344 7.28125 7.152344 7.386719 C 7.152344 7.488281 7.238281 7.574219 7.34375 7.574219 M 11.429688 7.574219 C 11.535156 7.574219 11.617188 7.488281 11.617188 7.386719 C 11.617188 7.28125 11.535156 7.195312 11.429688 7.195312 C 11.324219 7.195312 11.242188 7.28125 11.242188 7.386719 C 11.242188 7.488281 11.324219 7.574219 11.429688 7.574219 M 15.3125 6.332031 L 15.3125 22.511719 L 3.460938 22.511719 L 3.460938 6.332031 L 15.3125 6.332031 " fill-opacity="1" fill-rule="nonzero"/></g><g clip-path="url(#aa73b4192d)"><path fill="#ffffff" d="M 3.460938 22.582031 C 3.417969 22.582031 3.386719 22.550781 3.386719 22.511719 L 3.386719 18.945312 C 3.386719 18.90625 3.417969 18.875 3.460938 18.875 L 15.3125 18.875 C 15.351562 18.875 15.382812 18.90625 15.382812 18.945312 L 15.382812 22.511719 C 15.382812 22.550781 15.351562 22.582031 15.3125 22.582031 L 3.460938 22.582031 " fill-opacity="1" fill-rule="nonzero"/><path fill="#935f3d" d="M 15.3125 18.804688 L 3.460938 18.804688 C 3.378906 18.804688 3.316406 18.867188 3.316406 18.945312 L 3.316406 22.511719 C 3.316406 22.589844 3.378906 22.652344 3.460938 22.652344 L 15.3125 22.652344 C 15.390625 22.652344 15.457031 22.589844 15.457031 22.511719 L 15.457031 18.945312 C 15.457031 18.867188 15.390625 18.804688 15.3125 18.804688 Z M 15.3125 18.945312 L 15.3125 22.511719 L 3.460938 22.511719 L 3.460938 18.945312 L 15.3125 18.945312 " fill-opacity="1" fill-rule="nonzero"/></g><g clip-path="url(#a5cb574326)"><path fill="#935f3d" d="M 7.371094 7.386719 L 7.371094 5.097656 C 7.371094 3.988281 8.273438 3.085938 9.382812 3.085938 C 10.492188 3.085938 11.394531 3.988281 11.394531 5.097656 L 11.394531 7.386719 L 11.492188 7.386719 L 11.492188 5.097656 C 11.492188 3.933594 10.546875 2.988281 9.382812 2.988281 C 8.21875 2.988281 7.269531 3.933594 7.269531 5.097656 L 7.269531 7.386719 L 7.371094 7.386719 " fill-opacity="1" fill-rule="nonzero"/></g><path fill="#ffffff" d="M 9.582031 16.070312 C 8.140625 16.070312 6.96875 14.898438 6.96875 13.457031 C 6.96875 12.015625 8.140625 10.84375 9.582031 10.84375 C 11.023438 10.84375 12.195312 12.015625 12.195312 13.457031 C 12.195312 14.898438 11.023438 16.070312 9.582031 16.070312 " fill-opacity="1" fill-rule="nonzero"/><path fill="#935f3d" d="M 9.582031 10.773438 C 8.101562 10.773438 6.898438 11.976562 6.898438 13.457031 C 6.898438 14.9375 8.101562 16.144531 9.582031 16.144531 C 11.0625 16.144531 12.265625 14.9375 12.265625 13.457031 C 12.265625 11.976562 11.0625 10.773438 9.582031 10.773438 Z M 9.582031 10.914062 C 10.988281 10.914062 12.125 12.054688 12.125 13.457031 C 12.125 14.863281 10.988281 16 9.582031 16 C 8.175781 16 7.039062 14.863281 7.039062 13.457031 C 7.039062 12.054688 8.175781 10.914062 9.582031 10.914062 " fill-opacity="1" fill-rule="nonzero"/><path fill="#ffffff" d="M 10.527344 13.207031 C 10.511719 13.207031 10.492188 13.203125 10.480469 13.1875 L 9.128906 11.933594 C 9.105469 11.914062 9.101562 11.882812 9.109375 11.855469 C 9.121094 11.828125 9.148438 11.808594 9.175781 11.808594 L 9.988281 11.808594 C 10.007812 11.808594 10.023438 11.816406 10.035156 11.828125 L 11.441406 13.085938 C 11.464844 13.105469 11.46875 13.136719 11.460938 13.164062 C 11.449219 13.191406 11.421875 13.207031 11.394531 13.207031 L 10.527344 13.207031 " fill-opacity="1" fill-rule="nonzero"/><path fill="#935f3d" d="M 9.988281 11.738281 L 9.175781 11.738281 C 9.117188 11.738281 9.066406 11.773438 9.042969 11.828125 C 9.023438 11.882812 9.035156 11.945312 9.078125 11.984375 L 10.429688 13.242188 C 10.457031 13.265625 10.492188 13.28125 10.527344 13.28125 L 11.394531 13.28125 C 11.453125 13.28125 11.503906 13.242188 11.527344 13.1875 C 11.546875 13.132812 11.53125 13.070312 11.488281 13.03125 L 10.085938 11.773438 C 10.058594 11.75 10.023438 11.738281 9.988281 11.738281 Z M 9.988281 11.878906 L 11.394531 13.136719 L 10.527344 13.136719 L 9.175781 11.878906 L 9.988281 11.878906 " fill-opacity="1" fill-rule="nonzero"/><path fill="#ffffff" d="M 7.769531 13.207031 C 7.742188 13.207031 7.714844 13.191406 7.703125 13.164062 C 7.695312 13.136719 7.699219 13.105469 7.722656 13.085938 L 9.128906 11.828125 C 9.140625 11.816406 9.15625 11.808594 9.175781 11.808594 L 9.988281 11.808594 C 10.015625 11.808594 10.042969 11.828125 10.054688 11.855469 C 10.0625 11.882812 10.058594 11.914062 10.035156 11.933594 L 8.683594 13.1875 C 8.671875 13.203125 8.652344 13.207031 8.636719 13.207031 L 7.769531 13.207031 " fill-opacity="1" fill-rule="nonzero"/><path fill="#935f3d" d="M 9.988281 11.738281 L 9.175781 11.738281 C 9.140625 11.738281 9.105469 11.75 9.078125 11.773438 L 7.675781 13.03125 C 7.632812 13.070312 7.617188 13.132812 7.636719 13.1875 C 7.660156 13.242188 7.710938 13.28125 7.769531 13.28125 L 8.636719 13.28125 C 8.671875 13.28125 8.707031 13.265625 8.734375 13.242188 L 10.082031 11.984375 C 10.125 11.945312 10.140625 11.882812 10.121094 11.828125 C 10.097656 11.773438 10.046875 11.738281 9.988281 11.738281 Z M 9.988281 11.878906 L 8.636719 13.136719 L 7.769531 13.136719 L 9.175781 11.878906 L 9.988281 11.878906 " fill-opacity="1" fill-rule="nonzero"/><path fill="#ffffff" d="M 8.429688 14.585938 C 8.339844 14.585938 8.269531 14.511719 8.269531 14.425781 C 8.269531 14.335938 8.339844 14.265625 8.429688 14.265625 C 8.515625 14.265625 8.589844 14.335938 8.589844 14.425781 C 8.589844 14.511719 8.515625 14.585938 8.429688 14.585938 " fill-opacity="1" fill-rule="nonzero"/><path fill="#935f3d" d="M 8.429688 14.195312 C 8.300781 14.195312 8.199219 14.296875 8.199219 14.425781 C 8.199219 14.554688 8.300781 14.65625 8.429688 14.65625 C 8.558594 14.65625 8.660156 14.554688 8.660156 14.425781 C 8.660156 14.296875 8.558594 14.195312 8.429688 14.195312 Z M 8.429688 14.335938 C 8.476562 14.335938 8.519531 14.375 8.519531 14.425781 C 8.519531 14.472656 8.476562 14.515625 8.429688 14.515625 C 8.378906 14.515625 8.339844 14.472656 8.339844 14.425781 C 8.339844 14.375 8.378906 14.335938 8.429688 14.335938 " fill-opacity="1" fill-rule="nonzero"/><path fill="#ffffff" d="M 10.734375 14.585938 C 10.648438 14.585938 10.574219 14.511719 10.574219 14.425781 C 10.574219 14.335938 10.648438 14.265625 10.734375 14.265625 C 10.824219 14.265625 10.894531 14.335938 10.894531 14.425781 C 10.894531 14.511719 10.824219 14.585938 10.734375 14.585938 " fill-opacity="1" fill-rule="nonzero"/><path fill="#935f3d" d="M 10.734375 14.195312 C 10.605469 14.195312 10.503906 14.296875 10.503906 14.425781 C 10.503906 14.554688 10.605469 14.65625 10.734375 14.65625 C 10.863281 14.65625 10.964844 14.554688 10.964844 14.425781 C 10.964844 14.296875 10.863281 14.195312 10.734375 14.195312 Z M 10.734375 14.335938 C 10.78125 14.335938 10.824219 14.375 10.824219 14.425781 C 10.824219 14.472656 10.78125 14.515625 10.734375 14.515625 C 10.683594 14.515625 10.644531 14.472656 10.644531 14.425781 C 10.644531 14.375 10.683594 14.335938 10.734375 14.335938 " fill-opacity="1" fill-rule="nonzero"/><path fill="#ffffff" d="M 7.742188 14.160156 C 7.703125 14.160156 7.671875 14.128906 7.671875 14.089844 L 7.671875 14.046875 C 7.671875 14.007812 7.703125 13.976562 7.742188 13.976562 L 11.421875 13.976562 C 11.460938 13.976562 11.492188 14.007812 11.492188 14.046875 L 11.492188 14.089844 C 11.492188 14.128906 11.460938 14.160156 11.421875 14.160156 L 7.742188 14.160156 " fill-opacity="1" fill-rule="nonzero"/><path fill="#935f3d" d="M 11.421875 13.902344 L 7.742188 13.902344 C 7.664062 13.902344 7.601562 13.96875 7.601562 14.046875 L 7.601562 14.089844 C 7.601562 14.167969 7.664062 14.234375 7.742188 14.234375 L 11.421875 14.234375 C 11.5 14.234375 11.5625 14.167969 11.5625 14.089844 L 11.5625 14.046875 C 11.5625 13.96875 11.5 13.902344 11.421875 13.902344 Z M 11.421875 14.046875 L 11.421875 14.089844 L 7.742188 14.089844 L 7.742188 14.046875 L 11.421875 14.046875 " fill-opacity="1" fill-rule="nonzero"/><g clip-path="url(#3aac61b9a5)"><path fill="#ffffff" d="M 5.101562 18.550781 C 5.085938 18.550781 5.070312 18.546875 5.058594 18.539062 C 4.566406 18.175781 3.988281 17.742188 3.441406 17.253906 C 3.425781 17.238281 3.417969 17.21875 3.417969 17.199219 L 3.417969 15.863281 C 3.417969 15.835938 3.433594 15.808594 3.457031 15.796875 C 3.46875 15.792969 3.476562 15.792969 3.488281 15.792969 C 3.503906 15.792969 3.523438 15.796875 3.535156 15.808594 C 3.921875 16.144531 4.335938 16.464844 4.734375 16.777344 L 4.742188 16.78125 C 5.132812 17.085938 5.523438 17.394531 5.902344 17.695312 C 6.210938 17.9375 6.515625 18.183594 6.824219 18.425781 C 6.847656 18.441406 6.855469 18.476562 6.847656 18.503906 C 6.835938 18.53125 6.808594 18.550781 6.78125 18.550781 L 5.101562 18.550781 " fill-opacity="1" fill-rule="nonzero"/><path fill="#935f3d" d="M 3.488281 15.722656 C 3.46875 15.722656 3.449219 15.726562 3.429688 15.734375 C 3.378906 15.757812 3.347656 15.808594 3.347656 15.863281 L 3.347656 17.199219 C 3.347656 17.238281 3.363281 17.277344 3.394531 17.304688 C 3.945312 17.796875 4.523438 18.234375 5.019531 18.59375 C 5.042969 18.613281 5.070312 18.621094 5.101562 18.621094 L 6.78125 18.621094 C 6.839844 18.621094 6.894531 18.585938 6.914062 18.527344 C 6.933594 18.46875 6.914062 18.40625 6.867188 18.367188 C 6.558594 18.125 6.25 17.878906 5.945312 17.640625 C 5.566406 17.339844 5.175781 17.027344 4.785156 16.726562 L 4.78125 16.71875 C 4.382812 16.410156 3.96875 16.089844 3.582031 15.753906 C 3.554688 15.734375 3.523438 15.722656 3.488281 15.722656 Z M 3.488281 15.863281 C 3.878906 16.199219 4.289062 16.519531 4.699219 16.835938 C 5.394531 17.378906 6.085938 17.933594 6.78125 18.480469 L 5.101562 18.480469 C 4.546875 18.074219 4 17.65625 3.488281 17.199219 L 3.488281 15.863281 " fill-opacity="1" fill-rule="nonzero"/></g><path fill="#ffffff" d="M 10.355469 18.550781 C 10.324219 18.550781 10.300781 18.535156 10.289062 18.507812 C 10.277344 18.480469 10.285156 18.449219 10.304688 18.429688 L 15.261719 13.472656 C 15.277344 13.457031 15.296875 13.449219 15.3125 13.449219 C 15.324219 13.449219 15.332031 13.453125 15.339844 13.457031 C 15.367188 13.464844 15.382812 13.492188 15.382812 13.519531 L 15.382812 15.199219 C 15.382812 15.214844 15.378906 15.234375 15.363281 15.246094 L 12.148438 18.53125 C 12.132812 18.542969 12.117188 18.550781 12.097656 18.550781 L 10.355469 18.550781 " fill-opacity="1" fill-rule="nonzero"/><path fill="#935f3d" d="M 15.3125 13.378906 C 15.277344 13.378906 15.238281 13.394531 15.210938 13.421875 L 10.253906 18.378906 C 10.214844 18.421875 10.199219 18.480469 10.222656 18.535156 C 10.246094 18.589844 10.296875 18.621094 10.355469 18.621094 L 12.097656 18.621094 C 12.132812 18.621094 12.171875 18.605469 12.199219 18.578125 L 15.414062 15.296875 C 15.441406 15.269531 15.457031 15.234375 15.457031 15.199219 L 15.457031 13.519531 C 15.457031 13.464844 15.421875 13.410156 15.367188 13.390625 C 15.351562 13.382812 15.332031 13.378906 15.3125 13.378906 Z M 15.3125 13.519531 L 15.3125 15.199219 L 12.097656 18.480469 L 10.355469 18.480469 L 15.3125 13.519531 " fill-opacity="1" fill-rule="nonzero"/><path fill="#ffffff" d="M 10.417969 18.550781 C 10.402344 18.550781 10.386719 18.546875 10.371094 18.535156 L 7.75 16.351562 C 7.730469 16.332031 7.71875 16.300781 7.730469 16.269531 C 7.742188 16.242188 7.765625 16.222656 7.796875 16.222656 L 9.371094 16.222656 C 9.390625 16.222656 9.40625 16.230469 9.417969 16.238281 L 12.140625 18.425781 C 12.164062 18.445312 12.171875 18.476562 12.164062 18.503906 C 12.152344 18.53125 12.125 18.550781 12.097656 18.550781 L 10.417969 18.550781 " fill-opacity="1" fill-rule="nonzero"/><path fill="#935f3d" d="M 9.371094 16.152344 L 7.796875 16.152344 C 7.738281 16.152344 7.683594 16.191406 7.664062 16.246094 C 7.644531 16.304688 7.660156 16.367188 7.707031 16.40625 L 10.328125 18.589844 C 10.351562 18.609375 10.382812 18.621094 10.417969 18.621094 L 12.097656 18.621094 C 12.15625 18.621094 12.210938 18.585938 12.230469 18.527344 C 12.25 18.46875 12.234375 18.40625 12.183594 18.367188 L 9.460938 16.183594 C 9.4375 16.164062 9.40625 16.152344 9.371094 16.152344 Z M 9.371094 16.296875 L 12.097656 18.480469 L 10.417969 18.480469 L 7.796875 16.296875 L 9.371094 16.296875 " fill-opacity="1" fill-rule="nonzero"/><path fill="#ffffff" d="M 5.101562 18.550781 C 5.070312 18.550781 5.042969 18.53125 5.035156 18.503906 C 5.023438 18.476562 5.035156 18.445312 5.058594 18.425781 L 7.78125 16.238281 C 7.792969 16.230469 7.808594 16.222656 7.824219 16.222656 L 9.402344 16.222656 C 9.429688 16.222656 9.457031 16.242188 9.46875 16.269531 C 9.476562 16.300781 9.46875 16.332031 9.445312 16.351562 L 6.824219 18.535156 C 6.8125 18.546875 6.796875 18.550781 6.78125 18.550781 L 5.101562 18.550781 " fill-opacity="1" fill-rule="nonzero"/><path fill="#935f3d" d="M 9.402344 16.152344 L 7.824219 16.152344 C 7.792969 16.152344 7.761719 16.164062 7.734375 16.183594 L 5.011719 18.367188 C 4.964844 18.40625 4.949219 18.46875 4.96875 18.527344 C 4.988281 18.585938 5.042969 18.621094 5.101562 18.621094 L 6.78125 18.621094 C 6.8125 18.621094 6.84375 18.609375 6.871094 18.589844 L 9.492188 16.40625 C 9.539062 16.367188 9.554688 16.304688 9.535156 16.246094 C 9.515625 16.191406 9.460938 16.152344 9.402344 16.152344 Z M 9.402344 16.296875 L 6.78125 18.480469 L 5.101562 18.480469 L 7.824219 16.296875 L 9.402344 16.296875 " fill-opacity="1" fill-rule="nonzero"/><g clip-path="url(#2172dc260d)"><path fill="#ffffff" d="M 13.085938 26.03125 C 12.480469 26.03125 11.988281 25.539062 11.988281 24.933594 L 11.988281 11.265625 C 11.988281 10.710938 12.4375 10.261719 12.992188 10.261719 L 23.640625 10.261719 C 24.195312 10.261719 24.644531 10.710938 24.644531 11.265625 L 24.644531 24.914062 C 24.644531 25.53125 24.144531 26.03125 23.527344 26.03125 L 13.085938 26.03125 " fill-opacity="1" fill-rule="nonzero"/><path fill="#935f3d" d="M 23.640625 10.1875 L 12.992188 10.1875 C 12.398438 10.1875 11.917969 10.671875 11.917969 11.265625 L 11.917969 24.933594 C 11.917969 25.578125 12.441406 26.101562 13.085938 26.101562 L 23.527344 26.101562 C 24.183594 26.101562 24.714844 25.570312 24.714844 24.914062 L 24.714844 11.265625 C 24.714844 10.671875 24.234375 10.1875 23.640625 10.1875 Z M 23.640625 10.332031 C 24.15625 10.332031 24.574219 10.75 24.574219 11.265625 L 24.574219 24.914062 C 24.574219 25.488281 24.101562 25.960938 23.527344 25.960938 L 13.085938 25.960938 C 12.523438 25.960938 12.058594 25.496094 12.058594 24.933594 L 12.058594 11.265625 C 12.058594 10.75 12.476562 10.332031 12.992188 10.332031 L 23.640625 10.332031 " fill-opacity="1" fill-rule="nonzero"/></g><path fill="#ffffff" d="M 13.203125 24.382812 C 13.164062 24.382812 13.132812 24.351562 13.132812 24.308594 L 13.132812 11.898438 C 13.132812 11.859375 13.164062 11.828125 13.203125 11.828125 L 23.429688 11.828125 C 23.46875 11.828125 23.5 11.859375 23.5 11.898438 L 23.5 24.308594 C 23.5 24.351562 23.46875 24.382812 23.429688 24.382812 L 13.203125 24.382812 " fill-opacity="1" fill-rule="nonzero"/><path fill="#935f3d" d="M 23.429688 11.757812 L 13.203125 11.757812 C 13.125 11.757812 13.0625 11.820312 13.0625 11.898438 L 13.0625 24.308594 C 13.0625 24.390625 13.125 24.453125 13.203125 24.453125 L 23.429688 24.453125 C 23.507812 24.453125 23.570312 24.390625 23.570312 24.308594 L 23.570312 11.898438 C 23.570312 11.820312 23.507812 11.757812 23.429688 11.757812 Z M 23.429688 11.898438 L 23.429688 24.308594 L 13.203125 24.308594 L 13.203125 11.898438 L 23.429688 11.898438 " fill-opacity="1" fill-rule="nonzero"/><g clip-path="url(#7f4ff313d2)"><path fill="#ffffff" d="M 20.257812 23.230469 C 20.246094 23.230469 20.234375 23.226562 20.226562 23.21875 L 19.472656 22.691406 C 19.460938 22.679688 19.453125 22.667969 19.449219 22.65625 C 19.449219 22.640625 19.449219 22.625 19.460938 22.613281 L 25.5625 13.949219 C 25.574219 13.933594 25.589844 13.925781 25.605469 13.925781 C 25.617188 13.925781 25.628906 13.929688 25.636719 13.933594 L 26.390625 14.464844 C 26.414062 14.480469 26.421875 14.515625 26.402344 14.539062 L 20.300781 23.207031 C 20.292969 23.21875 20.28125 23.226562 20.265625 23.230469 L 20.257812 23.230469 " fill-opacity="1" fill-rule="nonzero"/><path fill="#935f3d" d="M 25.605469 13.871094 C 25.574219 13.871094 25.539062 13.886719 25.515625 13.917969 L 19.414062 22.582031 C 19.398438 22.605469 19.390625 22.636719 19.394531 22.664062 C 19.402344 22.691406 19.417969 22.71875 19.441406 22.734375 L 20.195312 23.265625 C 20.210938 23.277344 20.234375 23.285156 20.257812 23.285156 L 20.273438 23.28125 C 20.304688 23.277344 20.328125 23.261719 20.34375 23.238281 L 26.449219 14.570312 C 26.484375 14.523438 26.472656 14.453125 26.421875 14.417969 L 25.667969 13.890625 C 25.648438 13.875 25.628906 13.871094 25.605469 13.871094 Z M 25.605469 13.980469 L 26.359375 14.507812 L 20.257812 23.175781 L 19.503906 22.644531 L 25.605469 13.980469 " fill-opacity="1" fill-rule="nonzero"/></g><g clip-path="url(#9176daaf05)"><path fill="#ffffff" d="M 25.863281 15.265625 C 25.855469 15.265625 25.84375 15.261719 25.832031 15.253906 L 25.082031 14.726562 C 25.070312 14.71875 25.0625 14.703125 25.058594 14.691406 C 25.054688 14.675781 25.058594 14.660156 25.066406 14.648438 L 25.5625 13.949219 C 25.574219 13.933594 25.589844 13.925781 25.605469 13.925781 C 25.617188 13.925781 25.628906 13.929688 25.636719 13.933594 L 26.390625 14.464844 C 26.414062 14.480469 26.421875 14.515625 26.402344 14.539062 L 25.910156 15.242188 C 25.902344 15.253906 25.886719 15.261719 25.875 15.265625 L 25.863281 15.265625 " fill-opacity="1" fill-rule="nonzero"/><path fill="#935f3d" d="M 25.605469 13.871094 C 25.574219 13.871094 25.539062 13.886719 25.515625 13.917969 L 25.023438 14.617188 C 25.007812 14.640625 25 14.671875 25.003906 14.699219 C 25.011719 14.726562 25.027344 14.753906 25.050781 14.769531 L 25.800781 15.300781 C 25.820312 15.3125 25.84375 15.320312 25.863281 15.320312 L 25.882812 15.316406 C 25.910156 15.3125 25.9375 15.296875 25.953125 15.273438 L 26.449219 14.570312 C 26.484375 14.523438 26.472656 14.453125 26.421875 14.417969 L 25.667969 13.890625 C 25.648438 13.875 25.628906 13.871094 25.605469 13.871094 Z M 25.605469 13.980469 L 26.359375 14.507812 L 25.863281 15.210938 L 25.113281 14.679688 L 25.605469 13.980469 " fill-opacity="1" fill-rule="nonzero"/></g><g clip-path="url(#11411adec1)"><path fill="#ffffff" d="M 26.359375 14.5625 C 26.347656 14.5625 26.335938 14.558594 26.328125 14.554688 L 25.574219 14.023438 C 25.550781 14.007812 25.542969 13.972656 25.5625 13.949219 L 25.648438 13.820312 C 25.710938 13.734375 25.8125 13.6875 25.9375 13.6875 C 26.054688 13.6875 26.179688 13.730469 26.289062 13.808594 C 26.421875 13.902344 26.515625 14.039062 26.539062 14.171875 C 26.554688 14.261719 26.539062 14.347656 26.492188 14.414062 L 26.402344 14.539062 C 26.394531 14.550781 26.382812 14.558594 26.367188 14.5625 L 26.359375 14.5625 " fill-opacity="1" fill-rule="nonzero"/><path fill="#935f3d" d="M 25.9375 13.632812 C 25.796875 13.632812 25.675781 13.691406 25.605469 13.792969 L 25.515625 13.917969 C 25.484375 13.964844 25.496094 14.035156 25.542969 14.066406 L 26.296875 14.597656 C 26.316406 14.609375 26.335938 14.617188 26.359375 14.617188 L 26.378906 14.617188 C 26.40625 14.609375 26.429688 14.59375 26.449219 14.570312 L 26.535156 14.445312 C 26.59375 14.367188 26.613281 14.269531 26.59375 14.164062 C 26.566406 14.011719 26.46875 13.867188 26.320312 13.761719 C 26.203125 13.679688 26.066406 13.632812 25.9375 13.632812 Z M 25.9375 13.742188 C 26.039062 13.742188 26.15625 13.78125 26.257812 13.851562 C 26.464844 14 26.550781 14.238281 26.445312 14.382812 L 26.359375 14.507812 L 25.605469 13.980469 L 25.695312 13.855469 C 25.746094 13.78125 25.835938 13.742188 25.9375 13.742188 " fill-opacity="1" fill-rule="nonzero"/></g><path fill="#ffffff" d="M 19.378906 23.679688 C 19.367188 23.679688 19.355469 23.675781 19.347656 23.667969 C 19.328125 23.65625 19.320312 23.636719 19.324219 23.617188 L 19.449219 22.636719 C 19.453125 22.621094 19.464844 22.601562 19.480469 22.59375 C 19.488281 22.59375 19.496094 22.589844 19.503906 22.589844 C 19.515625 22.589844 19.527344 22.59375 19.535156 22.601562 L 20.289062 23.128906 C 20.304688 23.140625 20.3125 23.160156 20.308594 23.179688 C 20.308594 23.199219 20.296875 23.214844 20.28125 23.222656 L 19.402344 23.671875 C 19.394531 23.675781 19.386719 23.679688 19.378906 23.679688 " fill-opacity="1" fill-rule="nonzero"/><path fill="#935f3d" d="M 19.503906 22.535156 C 19.488281 22.535156 19.472656 22.539062 19.460938 22.546875 C 19.425781 22.5625 19.398438 22.59375 19.394531 22.632812 L 19.269531 23.609375 C 19.265625 23.652344 19.28125 23.691406 19.3125 23.714844 C 19.332031 23.726562 19.355469 23.734375 19.378906 23.734375 C 19.394531 23.734375 19.410156 23.730469 19.425781 23.722656 L 20.304688 23.273438 C 20.339844 23.253906 20.363281 23.222656 20.363281 23.183594 C 20.367188 23.144531 20.351562 23.109375 20.320312 23.085938 L 19.566406 22.554688 C 19.546875 22.542969 19.527344 22.535156 19.503906 22.535156 Z M 19.503906 22.644531 L 20.257812 23.175781 L 19.378906 23.625 L 19.503906 22.644531 " fill-opacity="1" fill-rule="nonzero"/><path fill="#ffffff" d="M 19.378906 23.679688 C 19.367188 23.679688 19.355469 23.675781 19.34375 23.667969 C 19.328125 23.65625 19.320312 23.636719 19.324219 23.617188 L 19.371094 23.253906 C 19.371094 23.234375 19.382812 23.21875 19.402344 23.210938 C 19.410156 23.207031 19.417969 23.203125 19.425781 23.203125 C 19.433594 23.203125 19.445312 23.207031 19.457031 23.214844 L 19.734375 23.414062 C 19.75 23.421875 19.761719 23.441406 19.757812 23.460938 C 19.757812 23.480469 19.746094 23.496094 19.730469 23.503906 L 19.402344 23.671875 C 19.394531 23.675781 19.386719 23.679688 19.378906 23.679688 " fill-opacity="1" fill-rule="nonzero"/><path fill="#935f3d" d="M 19.425781 23.152344 C 19.410156 23.152344 19.394531 23.152344 19.378906 23.160156 C 19.34375 23.175781 19.320312 23.207031 19.316406 23.246094 L 19.269531 23.609375 C 19.265625 23.652344 19.28125 23.691406 19.3125 23.714844 C 19.332031 23.726562 19.355469 23.734375 19.378906 23.734375 C 19.394531 23.734375 19.410156 23.730469 19.425781 23.722656 L 19.753906 23.554688 C 19.789062 23.535156 19.8125 23.503906 19.8125 23.464844 C 19.816406 23.425781 19.796875 23.390625 19.765625 23.367188 L 19.488281 23.171875 C 19.46875 23.15625 19.445312 23.152344 19.425781 23.152344 Z M 19.425781 23.257812 L 19.703125 23.457031 L 19.378906 23.625 L 19.425781 23.257812 " fill-opacity="1" fill-rule="nonzero"/><path fill="#ffffff" d="M 17.429688 11.4375 C 17.296875 11.4375 17.1875 11.328125 17.1875 11.195312 C 17.1875 11.0625 17.296875 10.953125 17.429688 10.953125 L 18.59375 10.953125 C 18.726562 10.953125 18.835938 11.0625 18.835938 11.195312 C 18.835938 11.328125 18.726562 11.4375 18.59375 11.4375 L 17.429688 11.4375 " fill-opacity="1" fill-rule="nonzero"/><path fill="#935f3d" d="M 18.59375 10.882812 L 17.429688 10.882812 C 17.257812 10.882812 17.117188 11.023438 17.117188 11.195312 C 17.117188 11.367188 17.257812 11.507812 17.429688 11.507812 L 18.59375 11.507812 C 18.765625 11.507812 18.90625 11.367188 18.90625 11.195312 C 18.90625 11.023438 18.765625 10.882812 18.59375 10.882812 Z M 18.59375 11.023438 C 18.6875 11.023438 18.765625 11.101562 18.765625 11.195312 C 18.765625 11.289062 18.6875 11.363281 18.59375 11.363281 L 17.429688 11.363281 C 17.335938 11.363281 17.257812 11.289062 17.257812 11.195312 C 17.257812 11.101562 17.335938 11.023438 17.429688 11.023438 L 18.59375 11.023438 " fill-opacity="1" fill-rule="nonzero"/><path fill="#ffffff" d="M 17.621094 25.234375 C 17.484375 25.234375 17.378906 25.125 17.378906 24.992188 C 17.378906 24.859375 17.484375 24.75 17.621094 24.75 L 19.015625 24.75 C 19.148438 24.75 19.253906 24.859375 19.253906 24.992188 C 19.253906 25.125 19.148438 25.234375 19.015625 25.234375 L 17.621094 25.234375 " fill-opacity="1" fill-rule="nonzero"/><path fill="#935f3d" d="M 19.015625 24.679688 L 17.621094 24.679688 C 17.445312 24.679688 17.308594 24.820312 17.308594 24.992188 C 17.308594 25.164062 17.445312 25.304688 17.621094 25.304688 L 19.015625 25.304688 C 19.1875 25.304688 19.328125 25.164062 19.328125 24.992188 C 19.328125 24.820312 19.1875 24.679688 19.015625 24.679688 Z M 19.015625 24.820312 C 19.109375 24.820312 19.183594 24.898438 19.183594 24.992188 C 19.183594 25.085938 19.109375 25.164062 19.015625 25.164062 L 17.621094 25.164062 C 17.527344 25.164062 17.449219 25.085938 17.449219 24.992188 C 17.449219 24.898438 17.527344 24.820312 17.621094 24.820312 L 19.015625 24.820312 " fill-opacity="1" fill-rule="nonzero"/><path fill="#ffffff" d="M 19.183594 11.480469 C 19.039062 11.480469 18.921875 11.351562 18.921875 11.195312 C 18.921875 11.035156 19.039062 10.90625 19.183594 10.90625 C 19.328125 10.90625 19.449219 11.035156 19.449219 11.195312 C 19.449219 11.351562 19.328125 11.480469 19.183594 11.480469 " fill-opacity="1" fill-rule="nonzero"/><path fill="#935f3d" d="M 19.183594 10.835938 C 19 10.835938 18.851562 10.996094 18.851562 11.195312 C 18.851562 11.390625 19 11.550781 19.183594 11.550781 C 19.371094 11.550781 19.519531 11.390625 19.519531 11.195312 C 19.519531 10.996094 19.371094 10.835938 19.183594 10.835938 Z M 19.183594 10.980469 C 19.289062 10.980469 19.378906 11.074219 19.378906 11.195312 C 19.378906 11.3125 19.289062 11.410156 19.183594 11.410156 C 19.078125 11.410156 18.992188 11.3125 18.992188 11.195312 C 18.992188 11.074219 19.078125 10.980469 19.183594 10.980469 " fill-opacity="1" fill-rule="nonzero"/><path fill="#ffffff" d="M 14.238281 12.960938 C 14.199219 12.960938 14.167969 12.929688 14.167969 12.886719 L 14.167969 12.609375 C 14.167969 12.570312 14.199219 12.539062 14.238281 12.539062 L 20 12.539062 C 20.039062 12.539062 20.070312 12.570312 20.070312 12.609375 L 20.070312 12.886719 C 20.070312 12.929688 20.039062 12.960938 20 12.960938 L 14.238281 12.960938 " fill-opacity="1" fill-rule="nonzero"/><path fill="#935f3d" d="M 20 12.46875 L 14.238281 12.46875 C 14.160156 12.46875 14.097656 12.53125 14.097656 12.609375 L 14.097656 12.886719 C 14.097656 12.96875 14.160156 13.03125 14.238281 13.03125 L 20 13.03125 C 20.078125 13.03125 20.140625 12.96875 20.140625 12.886719 L 20.140625 12.609375 C 20.140625 12.53125 20.078125 12.46875 20 12.46875 Z M 20 12.609375 L 20 12.886719 L 14.238281 12.886719 L 14.238281 12.609375 L 20 12.609375 " fill-opacity="1" fill-rule="nonzero"/><path fill="#ffffff" d="M 14.238281 13.539062 C 14.199219 13.539062 14.167969 13.507812 14.167969 13.46875 L 14.167969 13.191406 C 14.167969 13.152344 14.199219 13.121094 14.238281 13.121094 L 16.652344 13.121094 C 16.691406 13.121094 16.722656 13.152344 16.722656 13.191406 L 16.722656 13.46875 C 16.722656 13.507812 16.691406 13.539062 16.652344 13.539062 L 14.238281 13.539062 " fill-opacity="1" fill-rule="nonzero"/><path fill="#935f3d" d="M 16.652344 13.046875 L 14.238281 13.046875 C 14.160156 13.046875 14.097656 13.113281 14.097656 13.191406 L 14.097656 13.46875 C 14.097656 13.546875 14.160156 13.609375 14.238281 13.609375 L 16.652344 13.609375 C 16.730469 13.609375 16.792969 13.546875 16.792969 13.46875 L 16.792969 13.191406 C 16.792969 13.113281 16.730469 13.046875 16.652344 13.046875 Z M 16.652344 13.191406 L 16.652344 13.46875 L 14.238281 13.46875 L 14.238281 13.191406 L 16.652344 13.191406 " fill-opacity="1" fill-rule="nonzero"/><path fill="#ffffff" d="M 19.59375 18.414062 C 19.574219 18.414062 19.558594 18.40625 19.546875 18.394531 L 17.859375 16.824219 C 17.835938 16.804688 17.832031 16.773438 17.839844 16.746094 C 17.851562 16.71875 17.878906 16.699219 17.90625 16.699219 L 18.921875 16.699219 C 18.9375 16.699219 18.957031 16.707031 18.96875 16.71875 L 20.722656 18.289062 C 20.742188 18.308594 20.75 18.339844 20.738281 18.367188 C 20.730469 18.394531 20.703125 18.414062 20.671875 18.414062 L 19.59375 18.414062 " fill-opacity="1" fill-rule="nonzero"/><path fill="#935f3d" d="M 18.921875 16.628906 L 17.90625 16.628906 C 17.847656 16.628906 17.796875 16.664062 17.773438 16.71875 C 17.753906 16.773438 17.765625 16.835938 17.808594 16.875 L 19.496094 18.445312 C 19.523438 18.46875 19.558594 18.484375 19.59375 18.484375 L 20.671875 18.484375 C 20.734375 18.484375 20.785156 18.445312 20.804688 18.390625 C 20.828125 18.335938 20.8125 18.273438 20.769531 18.234375 L 19.015625 16.667969 C 18.988281 16.644531 18.957031 16.628906 18.921875 16.628906 Z M 18.921875 16.773438 L 20.671875 18.339844 L 19.59375 18.339844 L 17.90625 16.773438 L 18.921875 16.773438 " fill-opacity="1" fill-rule="nonzero"/><path fill="#ffffff" d="M 16.152344 18.414062 C 16.121094 18.414062 16.097656 18.394531 16.085938 18.367188 C 16.074219 18.339844 16.082031 18.308594 16.105469 18.289062 L 17.855469 16.71875 C 17.871094 16.707031 17.886719 16.699219 17.90625 16.699219 C 17.921875 16.699219 17.9375 16.707031 17.953125 16.71875 L 19.640625 18.289062 C 19.664062 18.308594 19.671875 18.339844 19.660156 18.367188 C 19.648438 18.394531 19.621094 18.414062 19.59375 18.414062 L 16.152344 18.414062 " fill-opacity="1" fill-rule="nonzero"/><path fill="#935f3d" d="M 17.90625 16.628906 C 17.871094 16.628906 17.835938 16.640625 17.808594 16.667969 L 16.058594 18.234375 C 16.011719 18.273438 16 18.335938 16.019531 18.390625 C 16.039062 18.445312 16.09375 18.484375 16.152344 18.484375 L 19.59375 18.484375 C 19.652344 18.484375 19.703125 18.449219 19.726562 18.394531 C 19.746094 18.339844 19.734375 18.277344 19.691406 18.238281 L 18 16.667969 C 17.972656 16.644531 17.9375 16.628906 17.90625 16.628906 Z M 17.90625 16.773438 L 19.59375 18.339844 L 16.152344 18.339844 L 17.90625 16.773438 " fill-opacity="1" fill-rule="nonzero"/><path fill="#ffffff" d="M 16.972656 20.128906 C 16.875 20.128906 16.792969 20.050781 16.792969 19.949219 C 16.792969 19.847656 16.875 19.765625 16.972656 19.765625 C 17.074219 19.765625 17.15625 19.847656 17.15625 19.949219 C 17.15625 20.050781 17.074219 20.128906 16.972656 20.128906 " fill-opacity="1" fill-rule="nonzero"/><path fill="#935f3d" d="M 16.972656 19.695312 C 16.835938 19.695312 16.722656 19.808594 16.722656 19.949219 C 16.722656 20.089844 16.835938 20.203125 16.972656 20.203125 C 17.113281 20.203125 17.226562 20.089844 17.226562 19.949219 C 17.226562 19.808594 17.113281 19.695312 16.972656 19.695312 Z M 16.972656 19.839844 C 17.035156 19.839844 17.085938 19.886719 17.085938 19.949219 C 17.085938 20.011719 17.035156 20.058594 16.972656 20.058594 C 16.914062 20.058594 16.863281 20.011719 16.863281 19.949219 C 16.863281 19.886719 16.914062 19.839844 16.972656 19.839844 " fill-opacity="1" fill-rule="nonzero"/><path fill="#ffffff" d="M 19.851562 20.128906 C 19.75 20.128906 19.667969 20.050781 19.667969 19.949219 C 19.667969 19.847656 19.75 19.765625 19.851562 19.765625 C 19.953125 19.765625 20.03125 19.847656 20.03125 19.949219 C 20.03125 20.050781 19.953125 20.128906 19.851562 20.128906 " fill-opacity="1" fill-rule="nonzero"/><path fill="#935f3d" d="M 19.851562 19.695312 C 19.710938 19.695312 19.597656 19.808594 19.597656 19.949219 C 19.597656 20.089844 19.710938 20.203125 19.851562 20.203125 C 19.992188 20.203125 20.105469 20.089844 20.105469 19.949219 C 20.105469 19.808594 19.992188 19.695312 19.851562 19.695312 Z M 19.851562 19.839844 C 19.914062 19.839844 19.960938 19.886719 19.960938 19.949219 C 19.960938 20.011719 19.914062 20.058594 19.851562 20.058594 C 19.789062 20.058594 19.742188 20.011719 19.742188 19.949219 C 19.742188 19.886719 19.789062 19.839844 19.851562 19.839844 " fill-opacity="1" fill-rule="nonzero"/><path fill="#ffffff" d="M 16.117188 19.601562 C 16.078125 19.601562 16.046875 19.570312 16.046875 19.53125 L 16.046875 19.476562 C 16.046875 19.4375 16.078125 19.40625 16.117188 19.40625 L 20.707031 19.40625 C 20.746094 19.40625 20.777344 19.4375 20.777344 19.476562 L 20.777344 19.53125 C 20.777344 19.570312 20.746094 19.601562 20.707031 19.601562 L 16.117188 19.601562 " fill-opacity="1" fill-rule="nonzero"/><path fill="#935f3d" d="M 20.707031 19.332031 L 16.117188 19.332031 C 16.039062 19.332031 15.976562 19.398438 15.976562 19.476562 L 15.976562 19.53125 C 15.976562 19.609375 16.039062 19.671875 16.117188 19.671875 L 20.707031 19.671875 C 20.785156 19.671875 20.851562 19.609375 20.851562 19.53125 L 20.851562 19.476562 C 20.851562 19.398438 20.785156 19.332031 20.707031 19.332031 Z M 20.707031 19.476562 L 20.707031 19.53125 L 16.117188 19.53125 L 16.117188 19.476562 L 20.707031 19.476562 " fill-opacity="1" fill-rule="nonzero"/><path fill="#ffffff" d="M 14.921875 24.445312 C 14.910156 24.445312 14.894531 24.441406 14.882812 24.4375 C 13.976562 23.882812 13.386719 23.273438 13.136719 22.621094 C 13.132812 22.613281 13.132812 22.605469 13.132812 22.597656 L 13.132812 20.785156 C 13.132812 20.753906 13.152344 20.726562 13.183594 20.714844 C 13.191406 20.714844 13.195312 20.710938 13.203125 20.710938 C 13.226562 20.710938 13.25 20.722656 13.261719 20.742188 C 13.398438 20.941406 13.515625 21.148438 13.628906 21.34375 C 13.933594 21.875 14.222656 22.375 14.878906 22.84375 C 15.414062 23.289062 16.273438 23.707031 17.105469 24.113281 C 17.242188 24.179688 17.375 24.246094 17.511719 24.3125 C 17.539062 24.324219 17.554688 24.359375 17.546875 24.390625 C 17.539062 24.421875 17.511719 24.445312 17.480469 24.445312 L 14.921875 24.445312 " fill-opacity="1" fill-rule="nonzero"/><path fill="#935f3d" d="M 13.203125 20.640625 C 13.191406 20.640625 13.175781 20.644531 13.160156 20.648438 C 13.101562 20.667969 13.0625 20.722656 13.0625 20.785156 L 13.0625 22.597656 C 13.0625 22.613281 13.066406 22.632812 13.070312 22.648438 C 13.328125 23.316406 13.925781 23.9375 14.847656 24.496094 C 14.871094 24.511719 14.894531 24.515625 14.921875 24.515625 L 17.480469 24.515625 C 17.546875 24.515625 17.601562 24.472656 17.617188 24.40625 C 17.632812 24.34375 17.601562 24.277344 17.542969 24.246094 C 17.40625 24.179688 17.273438 24.117188 17.136719 24.050781 C 16.308594 23.648438 15.453125 23.230469 14.929688 22.792969 L 14.921875 22.785156 C 14.277344 22.324219 13.992188 21.832031 13.691406 21.308594 C 13.578125 21.109375 13.460938 20.90625 13.320312 20.703125 C 13.292969 20.664062 13.25 20.640625 13.203125 20.640625 Z M 13.203125 20.785156 C 13.691406 21.496094 13.910156 22.238281 14.839844 22.902344 C 15.460938 23.421875 16.503906 23.894531 17.480469 24.375 L 14.921875 24.375 C 14.007812 23.820312 13.445312 23.226562 13.203125 22.597656 L 13.203125 20.785156 " fill-opacity="1" fill-rule="nonzero"/><path fill="#ffffff" d="M 13.203125 21.820312 L 13.195312 21.816406 C 13.160156 21.8125 13.132812 21.78125 13.132812 21.746094 L 13.132812 19.878906 C 13.132812 19.863281 13.136719 19.851562 13.144531 19.839844 C 13.566406 19.199219 14.253906 18.523438 14.914062 17.867188 C 15.140625 17.644531 15.375 17.414062 15.597656 17.1875 C 15.609375 17.171875 15.628906 17.164062 15.648438 17.164062 C 15.660156 17.164062 15.671875 17.167969 15.679688 17.171875 C 15.707031 17.1875 15.722656 17.21875 15.71875 17.25 C 15.589844 17.859375 15.398438 18.496094 15.234375 19.054688 C 15.230469 19.066406 15.222656 19.078125 15.214844 19.085938 C 14.109375 20.1875 13.492188 21.039062 13.273438 21.769531 C 13.261719 21.796875 13.234375 21.820312 13.203125 21.820312 " fill-opacity="1" fill-rule="nonzero"/><path fill="#935f3d" d="M 15.648438 17.09375 L 15.640625 17.09375 C 15.609375 17.09375 15.582031 17.105469 15.5625 17.125 L 15.546875 17.136719 C 15.324219 17.363281 15.089844 17.59375 14.863281 17.816406 C 14.199219 18.472656 13.511719 19.152344 13.085938 19.800781 C 13.070312 19.824219 13.0625 19.851562 13.0625 19.878906 L 13.0625 21.746094 C 13.0625 21.820312 13.113281 21.878906 13.183594 21.890625 C 13.191406 21.890625 13.195312 21.890625 13.203125 21.890625 C 13.265625 21.890625 13.320312 21.851562 13.339844 21.789062 C 13.554688 21.070312 14.167969 20.226562 15.265625 19.136719 C 15.28125 19.121094 15.292969 19.097656 15.300781 19.074219 C 15.46875 18.515625 15.65625 17.882812 15.785156 17.273438 C 15.789062 17.261719 15.789062 17.25 15.789062 17.238281 C 15.789062 17.160156 15.726562 17.09375 15.648438 17.09375 Z M 15.648438 17.238281 C 15.523438 17.832031 15.34375 18.433594 15.164062 19.035156 C 14.222656 19.972656 13.460938 20.890625 13.203125 21.746094 L 13.203125 19.878906 C 13.765625 19.027344 14.785156 18.121094 15.648438 17.238281 M 15.648438 17.238281 L 15.648438 17.238281 " fill-opacity="1" fill-rule="nonzero"/><path fill="#ffffff" d="M 15.15625 19.136719 C 15.128906 19.136719 15.105469 19.125 15.09375 19.097656 C 14.644531 18.214844 14.046875 17.5625 13.164062 16.984375 C 13.144531 16.96875 13.132812 16.949219 13.132812 16.921875 L 13.132812 15.195312 C 13.132812 15.167969 13.144531 15.144531 13.167969 15.132812 C 13.179688 15.128906 13.191406 15.125 13.203125 15.125 C 13.214844 15.125 13.230469 15.128906 13.242188 15.132812 C 14.519531 15.890625 15.300781 16.558594 15.703125 17.230469 C 15.710938 17.246094 15.714844 17.265625 15.710938 17.28125 C 15.582031 17.878906 15.402344 18.488281 15.226562 19.078125 L 15.222656 19.085938 C 15.214844 19.117188 15.191406 19.136719 15.160156 19.136719 L 15.15625 19.136719 " fill-opacity="1" fill-rule="nonzero"/><path fill="#935f3d" d="M 13.203125 15.050781 C 13.179688 15.050781 13.15625 15.058594 13.132812 15.070312 C 13.089844 15.097656 13.0625 15.144531 13.0625 15.195312 L 13.0625 16.921875 C 13.0625 16.972656 13.085938 17.015625 13.125 17.042969 C 14 17.613281 14.585938 18.257812 15.027344 19.132812 C 15.054688 19.179688 15.101562 19.210938 15.15625 19.210938 L 15.167969 19.207031 C 15.226562 19.203125 15.277344 19.164062 15.292969 19.109375 L 15.292969 19.097656 C 15.46875 18.507812 15.652344 17.894531 15.78125 17.296875 C 15.789062 17.261719 15.78125 17.226562 15.761719 17.195312 C 15.355469 16.511719 14.566406 15.835938 13.277344 15.074219 C 13.253906 15.058594 13.230469 15.050781 13.203125 15.050781 Z M 13.203125 15.195312 C 14.3125 15.851562 15.203125 16.535156 15.640625 17.269531 C 15.515625 17.863281 15.335938 18.464844 15.15625 19.066406 C 14.777344 18.320312 14.230469 17.59375 13.203125 16.921875 L 13.203125 15.195312 " fill-opacity="1" fill-rule="nonzero"/></svg>