<svg xmlns="http://www.w3.org/2000/svg" xmlns:xlink="http://www.w3.org/1999/xlink" width="40" zoomAndPan="magnify" viewBox="0 0 30 30.000001" height="40" preserveAspectRatio="xMidYMid meet" version="1.0"><defs><clipPath id="6a5f7bea74"><path d="M 0.484375 0 L 29.515625 0 L 29.515625 29.03125 L 0.484375 29.03125 Z M 0.484375 0 " clip-rule="nonzero"/></clipPath><clipPath id="21df3c6c81"><path d="M 3.386719 3.296875 L 22 3.296875 L 22 22 L 3.386719 22 Z M 3.386719 3.296875 " clip-rule="nonzero"/></clipPath><clipPath id="31ab141bee"><path d="M 15 14 L 26.613281 14 L 26.613281 25.796875 L 15 25.796875 Z M 15 14 " clip-rule="nonzero"/></clipPath></defs><g clip-path="url(#6a5f7bea74)"><path fill="#ffffff" d="M 0.484375 0 L 29.515625 0 L 29.515625 29.03125 L 0.484375 29.03125 Z M 0.484375 0 " fill-opacity="1" fill-rule="nonzero"/><path fill="#ffffff" d="M 0.484375 0 L 29.515625 0 L 29.515625 29.03125 L 0.484375 29.03125 Z M 0.484375 0 " fill-opacity="1" fill-rule="nonzero"/></g><g clip-path="url(#21df3c6c81)"><path fill="#935f3d" d="M 15.636719 21.476562 L 4.824219 21.476562 C 4.03125 21.476562 3.386719 20.828125 3.386719 20.039062 L 3.386719 4.765625 C 3.386719 3.96875 4.035156 3.328125 4.824219 3.328125 L 20.097656 3.328125 C 20.890625 3.328125 21.535156 3.972656 21.535156 4.765625 L 21.535156 14.605469 C 21.535156 14.816406 21.359375 14.992188 21.148438 14.992188 C 20.933594 14.992188 20.761719 14.816406 20.761719 14.605469 L 20.761719 4.765625 C 20.761719 4.394531 20.460938 4.101562 20.097656 4.101562 L 4.824219 4.101562 C 4.457031 4.101562 4.160156 4.398438 4.160156 4.765625 L 4.160156 20.039062 C 4.160156 20.40625 4.460938 20.699219 4.824219 20.699219 L 15.632812 20.699219 C 15.84375 20.699219 16.019531 20.875 16.019531 21.089844 C 16.019531 21.300781 15.84375 21.476562 15.632812 21.476562 Z M 15.636719 21.476562 " fill-opacity="1" fill-rule="nonzero"/></g><path fill="#935f3d" d="M 17.246094 16.390625 L 6.839844 16.390625 C 6.046875 16.390625 5.402344 15.746094 5.402344 14.957031 L 5.402344 6.777344 C 5.402344 5.984375 6.050781 5.339844 6.839844 5.339844 L 18.089844 5.339844 C 18.882812 5.339844 19.523438 5.988281 19.523438 6.777344 L 19.523438 14.882812 C 19.523438 15.09375 19.351562 15.269531 19.136719 15.269531 C 18.925781 15.269531 18.75 15.09375 18.75 14.882812 L 18.75 6.777344 C 18.75 6.410156 18.453125 6.113281 18.089844 6.113281 L 6.839844 6.113281 C 6.472656 6.113281 6.179688 6.414062 6.179688 6.777344 L 6.179688 14.957031 C 6.179688 15.324219 6.476562 15.617188 6.839844 15.617188 L 17.246094 15.617188 C 17.457031 15.617188 17.632812 15.792969 17.632812 16.003906 C 17.632812 16.21875 17.457031 16.390625 17.246094 16.390625 Z M 17.246094 16.390625 " fill-opacity="1" fill-rule="nonzero"/><g clip-path="url(#31ab141bee)"><path fill="#935f3d" d="M 20.867188 25.695312 C 17.703125 25.695312 15.125 23.117188 15.125 19.949219 C 15.125 16.785156 17.703125 14.207031 20.867188 14.207031 C 24.035156 14.207031 26.613281 16.785156 26.613281 19.949219 C 26.613281 23.117188 24.035156 25.695312 20.867188 25.695312 Z M 20.867188 14.984375 C 18.128906 14.984375 15.898438 17.214844 15.898438 19.953125 C 15.898438 22.695312 18.128906 24.925781 20.867188 24.925781 C 23.609375 24.925781 25.839844 22.695312 25.839844 19.953125 C 25.839844 17.214844 23.609375 14.984375 20.867188 14.984375 Z M 20.867188 14.984375 " fill-opacity="1" fill-rule="nonzero"/></g><path fill="#935f3d" d="M 20.554688 20.59375 C 20.398438 20.59375 20.242188 20.558594 20.09375 20.488281 C 19.722656 20.308594 19.496094 19.945312 19.496094 19.53125 L 19.496094 17.03125 C 19.496094 16.621094 19.726562 16.253906 20.09375 16.074219 C 20.464844 15.898438 20.894531 15.949219 21.214844 16.207031 L 22.773438 17.457031 C 23.023438 17.660156 23.167969 17.960938 23.167969 18.28125 C 23.167969 18.601562 23.023438 18.90625 22.773438 19.105469 L 21.214844 20.355469 C 21.023438 20.511719 20.789062 20.59375 20.554688 20.59375 Z M 20.554688 16.746094 C 20.5 16.746094 20.453125 16.761719 20.425781 16.777344 C 20.375 16.800781 20.265625 16.871094 20.265625 17.03125 L 20.265625 19.53125 C 20.265625 19.695312 20.375 19.765625 20.425781 19.789062 C 20.472656 19.808594 20.601562 19.851562 20.730469 19.753906 L 22.285156 18.503906 C 22.378906 18.429688 22.394531 18.332031 22.394531 18.28125 C 22.394531 18.230469 22.378906 18.132812 22.285156 18.0625 L 20.730469 16.808594 C 20.667969 16.761719 20.605469 16.746094 20.554688 16.746094 Z M 20.554688 16.746094 " fill-opacity="1" fill-rule="nonzero"/><path fill="#935f3d" d="M 23.972656 22.554688 L 23.105469 22.554688 C 22.894531 22.550781 22.71875 22.375 22.71875 22.160156 C 22.71875 21.949219 22.894531 21.773438 23.105469 21.773438 L 23.972656 21.773438 C 24.1875 21.777344 24.359375 21.949219 24.359375 22.167969 C 24.359375 22.378906 24.1875 22.554688 23.972656 22.554688 Z M 23.972656 22.554688 " fill-opacity="1" fill-rule="nonzero"/><path fill="#935f3d" d="M 21.003906 22.539062 L 17.332031 22.523438 C 17.117188 22.523438 16.941406 22.351562 16.941406 22.136719 C 16.941406 21.925781 17.117188 21.75 17.332031 21.75 L 21.003906 21.765625 C 21.214844 21.765625 21.390625 21.941406 21.390625 22.152344 C 21.390625 22.367188 21.214844 22.539062 21.003906 22.539062 Z M 21.003906 22.539062 " fill-opacity="1" fill-rule="nonzero"/><path fill="#935f3d" d="M 22.636719 23.3125 L 21.480469 23.3125 C 21.007812 23.3125 20.621094 22.925781 20.621094 22.453125 L 20.621094 21.898438 C 20.621094 21.425781 21.007812 21.039062 21.480469 21.039062 L 22.636719 21.039062 C 23.109375 21.039062 23.496094 21.425781 23.496094 21.898438 L 23.496094 22.453125 C 23.496094 22.925781 23.109375 23.3125 22.636719 23.3125 Z M 21.480469 21.8125 C 21.433594 21.8125 21.394531 21.851562 21.394531 21.898438 L 21.394531 22.453125 C 21.394531 22.5 21.433594 22.539062 21.480469 22.539062 L 22.636719 22.539062 C 22.683594 22.539062 22.722656 22.5 22.722656 22.453125 L 22.722656 21.898438 C 22.722656 21.851562 22.683594 21.8125 22.636719 21.8125 Z M 21.480469 21.8125 " fill-opacity="1" fill-rule="nonzero"/><path fill="#935f3d" d="M 15.34375 16.398438 C 15.234375 16.398438 15.132812 16.355469 15.054688 16.269531 L 10.863281 11.488281 C 10.5625 11.148438 10.070312 11.046875 9.664062 11.238281 L 5.953125 13 C 5.761719 13.09375 5.527344 13.007812 5.4375 12.820312 C 5.347656 12.625 5.429688 12.394531 5.621094 12.304688 L 9.332031 10.542969 C 10.054688 10.203125 10.921875 10.378906 11.441406 10.980469 L 15.636719 15.761719 C 15.773438 15.925781 15.757812 16.167969 15.601562 16.308594 C 15.527344 16.375 15.4375 16.402344 15.34375 16.402344 Z M 15.34375 16.398438 " fill-opacity="1" fill-rule="nonzero"/><path fill="#935f3d" d="M 19.136719 14.503906 C 19.027344 14.503906 18.910156 14.453125 18.835938 14.355469 L 17.226562 12.332031 C 16.925781 11.953125 16.394531 11.839844 15.964844 12.066406 L 13.078125 13.566406 C 12.890625 13.667969 12.65625 13.59375 12.558594 13.402344 C 12.460938 13.214844 12.53125 12.980469 12.71875 12.882812 L 15.605469 11.378906 C 16.363281 10.984375 17.300781 11.183594 17.828125 11.851562 L 19.441406 13.875 C 19.570312 14.042969 19.542969 14.285156 19.378906 14.417969 C 19.308594 14.476562 19.222656 14.503906 19.136719 14.503906 Z M 19.136719 14.503906 " fill-opacity="1" fill-rule="nonzero"/><path fill="#935f3d" d="M 13.648438 10.179688 C 12.703125 10.179688 11.9375 9.414062 11.9375 8.46875 C 11.9375 7.523438 12.703125 6.757812 13.648438 6.757812 C 14.59375 6.757812 15.359375 7.523438 15.359375 8.46875 C 15.359375 9.414062 14.59375 10.179688 13.648438 10.179688 Z M 13.648438 7.53125 C 13.132812 7.53125 12.710938 7.949219 12.710938 8.46875 C 12.710938 8.988281 13.128906 9.40625 13.648438 9.40625 C 14.167969 9.40625 14.585938 8.988281 14.585938 8.46875 C 14.585938 7.949219 14.167969 7.53125 13.648438 7.53125 Z M 13.648438 7.53125 " fill-opacity="1" fill-rule="nonzero"/></svg>