<svg xmlns="http://www.w3.org/2000/svg" xmlns:xlink="http://www.w3.org/1999/xlink" width="40" zoomAndPan="magnify" viewBox="0 0 30 30.000001" height="40" preserveAspectRatio="xMidYMid meet" version="1.0"><defs><clipPath id="aca93ea030"><path d="M 0.484375 0 L 29.515625 0 L 29.515625 29.03125 L 0.484375 29.03125 Z M 0.484375 0 " clip-rule="nonzero"/></clipPath><clipPath id="6536ff7f0a"><path d="M 3.386719 3.554688 L 26.613281 3.554688 L 26.613281 25.332031 L 3.386719 25.332031 Z M 3.386719 3.554688 " clip-rule="nonzero"/></clipPath></defs><g clip-path="url(#aca93ea030)"><path fill="#ffffff" d="M 0.484375 0 L 29.515625 0 L 29.515625 29.03125 L 0.484375 29.03125 Z M 0.484375 0 " fill-opacity="1" fill-rule="nonzero"/><path fill="#ffffff" d="M 0.484375 0 L 29.515625 0 L 29.515625 29.03125 L 0.484375 29.03125 Z M 0.484375 0 " fill-opacity="1" fill-rule="nonzero"/></g><g clip-path="url(#6536ff7f0a)"><path fill="#935f3d" d="M 12.449219 8.3125 L 9.917969 8.3125 C 9.785156 8.3125 9.679688 8.414062 9.679688 8.546875 L 9.679688 9.765625 C 9.679688 9.894531 9.785156 10 9.917969 10 L 12.449219 10 C 12.582031 10 12.6875 9.894531 12.6875 9.765625 L 12.6875 8.546875 C 12.6875 8.421875 12.582031 8.3125 12.449219 8.3125 Z M 12.214844 9.527344 L 10.15625 9.527344 L 10.15625 8.785156 L 12.214844 8.785156 Z M 15.828125 8.3125 L 13.296875 8.3125 C 13.164062 8.3125 13.058594 8.414062 13.058594 8.546875 L 13.058594 9.765625 C 13.058594 9.894531 13.164062 10 13.296875 10 L 15.828125 10 C 15.960938 10 16.066406 9.894531 16.066406 9.765625 L 16.066406 8.546875 C 16.066406 8.421875 15.960938 8.3125 15.828125 8.3125 Z M 15.59375 9.527344 L 13.535156 9.527344 L 13.535156 8.785156 L 15.59375 8.785156 Z M 26.210938 22.34375 L 25.835938 22.34375 L 25.835938 20 C 25.824219 19.425781 25.410156 18.9375 24.851562 18.847656 L 24.277344 16.816406 L 24.277344 16.523438 C 24.277344 16.066406 23.90625 15.699219 23.453125 15.699219 L 21.183594 15.699219 L 21.183594 11.261719 L 22.121094 11.261719 C 22.253906 11.261719 22.359375 11.15625 22.359375 11.027344 L 22.359375 9.660156 C 22.359375 9.578125 22.320312 9.5 22.25 9.457031 L 12.996094 3.617188 C 12.917969 3.566406 12.820312 3.566406 12.742188 3.617188 L 3.496094 9.457031 C 3.429688 9.503906 3.386719 9.578125 3.386719 9.660156 L 3.386719 11.027344 C 3.386719 11.15625 3.492188 11.261719 3.625 11.261719 L 4.5625 11.261719 L 4.5625 22.4375 C 4.5625 22.570312 4.667969 22.675781 4.800781 22.675781 L 6.375 22.675781 C 6.507812 22.675781 6.613281 22.570312 6.613281 22.4375 L 6.613281 11.261719 L 19.128906 11.261719 L 19.128906 16.238281 C 19.121094 16.234375 16.476562 16.238281 16.460938 16.238281 C 16.226562 16.238281 16.027344 16.429688 16.027344 16.671875 L 16.027344 19.28125 L 15.65625 19.28125 L 15.65625 16.671875 C 15.65625 16.4375 15.464844 16.238281 15.222656 16.238281 L 12.566406 16.238281 C 12.332031 16.238281 12.136719 16.429688 12.136719 16.671875 L 12.136719 19.28125 L 11.765625 19.28125 L 11.765625 16.671875 C 11.765625 16.4375 11.574219 16.238281 11.332031 16.238281 L 8.679688 16.238281 C 8.441406 16.238281 8.246094 16.429688 8.246094 16.671875 L 8.246094 19.28125 L 7.609375 19.28125 C 7.367188 19.28125 7.167969 19.476562 7.167969 19.722656 L 7.167969 22.347656 C 6.898438 22.316406 6.644531 22.457031 6.640625 22.746094 C 6.640625 22.746094 6.640625 23.292969 6.640625 23.292969 C 6.640625 23.515625 6.820312 23.699219 7.039062 23.699219 L 9.171875 23.699219 C 9.617188 25.457031 12.117188 25.457031 12.5625 23.699219 L 20.828125 23.699219 C 21.277344 25.457031 23.777344 25.457031 24.222656 23.699219 L 26.210938 23.699219 C 26.433594 23.699219 26.613281 23.515625 26.613281 23.292969 L 26.613281 22.746094 C 26.613281 22.519531 26.429688 22.34375 26.210938 22.34375 Z M 24.347656 18.832031 L 21.675781 18.832031 L 21.675781 17.089844 L 23.859375 17.089844 Z M 23.449219 16.171875 C 23.683594 16.171875 23.832031 16.390625 23.796875 16.613281 L 20.433594 16.613281 L 20.433594 16.171875 Z M 21.203125 17.089844 L 21.203125 18.832031 L 20.433594 18.832031 L 20.433594 17.089844 Z M 4.675781 10.101562 C 4.609375 10.140625 4.5625 10.21875 4.5625 10.300781 L 4.5625 10.789062 L 3.859375 10.789062 L 3.859375 9.792969 L 12.867188 4.097656 L 21.875 9.792969 L 21.875 10.789062 L 21.179688 10.789062 C 21.179688 10.789062 21.179688 10.300781 21.179688 10.300781 C 21.179688 10.21875 21.140625 10.140625 21.066406 10.101562 L 12.996094 5.144531 C 12.917969 5.101562 12.824219 5.101562 12.746094 5.144531 C 10.738281 6.386719 6.679688 8.871094 4.675781 10.101562 Z M 6.375 10.789062 C 6.242188 10.789062 6.136719 10.894531 6.136719 11.027344 L 6.136719 22.199219 L 5.035156 22.199219 C 5.035156 22.195312 5.03125 11.027344 5.035156 11.019531 C 5.035156 11.019531 5.035156 10.429688 5.035156 10.429688 C 6.984375 9.242188 10.9375 6.8125 12.875 5.628906 L 20.707031 10.433594 C 20.710938 10.546875 20.710938 15.386719 20.710938 15.699219 L 20.28125 15.699219 C 20.125 15.699219 19.992188 15.8125 19.964844 15.960938 C 19.960938 15.984375 19.953125 16.007812 19.953125 16.03125 L 19.953125 19.28125 L 19.601562 19.28125 L 19.601562 11.027344 C 19.601562 10.894531 19.496094 10.789062 19.363281 10.789062 Z M 17.425781 16.714844 L 18.140625 16.714844 L 18.140625 17.550781 C 18.054688 17.472656 17.914062 17.273438 17.78125 17.289062 C 17.652344 17.273438 17.515625 17.46875 17.425781 17.542969 Z M 16.503906 16.714844 L 16.953125 16.714844 L 16.953125 18.121094 C 16.945312 18.324219 17.21875 18.441406 17.359375 18.289062 C 17.359375 18.289062 17.78125 17.867188 17.78125 17.867188 L 18.214844 18.296875 C 18.355469 18.449219 18.625 18.335938 18.621094 18.128906 C 18.621094 18.128906 18.621094 16.71875 18.621094 16.71875 L 19.070312 16.71875 L 19.070312 19.28125 L 16.503906 19.28125 Z M 13.542969 16.714844 L 14.257812 16.714844 L 14.257812 17.550781 C 14.171875 17.472656 14.03125 17.273438 13.898438 17.289062 C 13.765625 17.273438 13.628906 17.46875 13.542969 17.542969 Z M 12.617188 16.714844 L 13.070312 16.714844 L 13.070312 18.121094 C 13.058594 18.324219 13.332031 18.441406 13.472656 18.289062 C 13.472656 18.289062 13.898438 17.867188 13.898438 17.867188 L 14.332031 18.296875 C 14.472656 18.449219 14.742188 18.335938 14.734375 18.128906 C 14.734375 18.128906 14.734375 16.71875 14.734375 16.71875 L 15.1875 16.71875 L 15.1875 19.28125 L 12.621094 19.28125 L 12.621094 16.714844 Z M 9.648438 16.714844 L 10.363281 16.714844 L 10.363281 17.550781 C 10.277344 17.472656 10.136719 17.273438 10.003906 17.289062 C 9.871094 17.273438 9.734375 17.46875 9.648438 17.542969 Z M 8.722656 16.714844 L 9.175781 16.714844 L 9.175781 18.121094 C 9.171875 18.324219 9.441406 18.441406 9.582031 18.289062 C 9.582031 18.289062 10.003906 17.867188 10.003906 17.867188 L 10.4375 18.296875 C 10.578125 18.449219 10.847656 18.335938 10.84375 18.128906 C 10.84375 18.128906 10.84375 16.71875 10.84375 16.71875 L 11.292969 16.71875 L 11.292969 19.28125 L 8.730469 19.28125 L 8.730469 16.714844 Z M 7.644531 20.886719 L 8.609375 20.886719 C 8.59375 21.105469 8.410156 21.273438 8.1875 21.273438 L 7.644531 21.273438 Z M 9.171875 22.84375 C 9.144531 22.964844 9.125 23.089844 9.117188 23.214844 L 7.113281 23.214844 L 7.113281 22.816406 L 9.175781 22.816406 C 9.175781 22.824219 9.175781 22.835938 9.171875 22.84375 Z M 12.132812 23.425781 C 11.902344 25 9.625 24.859375 9.59375 23.269531 C 9.671875 21.484375 12.273438 21.640625 12.132812 23.425781 Z M 12.320312 22.304688 C 11.660156 21.253906 10.027344 21.28125 9.386719 22.34375 L 7.644531 22.34375 L 7.644531 21.75 L 8.1875 21.75 C 8.683594 21.75 9.085938 21.347656 9.085938 20.851562 C 9.085938 20.613281 8.886719 20.414062 8.640625 20.414062 L 7.644531 20.414062 L 7.644531 19.761719 C 7.644531 19.761719 19.367188 19.761719 19.367188 19.761719 C 19.367188 19.761719 19.960938 19.761719 19.960938 19.761719 L 19.960938 22.347656 L 12.34375 22.347656 C 12.339844 22.328125 12.332031 22.316406 12.320312 22.304688 Z M 20.828125 22.839844 C 20.796875 22.960938 20.785156 23.089844 20.773438 23.222656 L 12.613281 23.222656 C 12.605469 23.085938 12.585938 22.953125 12.554688 22.820312 L 20.832031 22.820312 C 20.832031 22.820312 20.832031 22.828125 20.828125 22.839844 Z M 23.789062 23.425781 C 23.558594 24.996094 21.285156 24.855469 21.25 23.265625 C 21.332031 21.480469 23.933594 21.644531 23.789062 23.425781 Z M 23.976562 22.296875 C 23.3125 21.253906 21.679688 21.28125 21.042969 22.335938 L 20.433594 22.335938 L 20.433594 19.519531 C 20.433594 19.515625 20.433594 19.308594 20.433594 19.304688 L 24.664062 19.304688 C 24.945312 19.304688 25.1875 19.46875 25.296875 19.71875 L 24.238281 19.71875 C 24 19.71875 23.804688 19.914062 23.804688 20.160156 C 23.804688 20.65625 24.203125 21.058594 24.699219 21.058594 L 25.359375 21.058594 L 25.359375 22.335938 L 24.007812 22.335938 C 24 22.324219 23.984375 22.316406 23.976562 22.296875 Z M 25.355469 20.199219 L 25.355469 20.589844 L 24.699219 20.589844 C 24.476562 20.589844 24.292969 20.414062 24.277344 20.199219 Z M 26.140625 23.214844 L 24.277344 23.214844 C 24.265625 23.082031 24.25 22.949219 24.21875 22.816406 L 26.140625 22.816406 Z M 10.863281 22.691406 C 10.109375 22.710938 10.09375 23.824219 10.863281 23.851562 C 11.613281 23.839844 11.648438 22.71875 10.863281 22.691406 Z M 10.96875 23.292969 C 10.957031 23.40625 10.761719 23.394531 10.765625 23.269531 C 10.777344 23.113281 10.996094 23.15625 10.96875 23.292969 Z M 22.523438 22.691406 C 21.761719 22.71875 21.757812 23.824219 22.523438 23.851562 C 23.269531 23.839844 23.308594 22.71875 22.523438 22.691406 Z M 22.625 23.289062 C 22.597656 23.433594 22.367188 23.367188 22.425781 23.226562 C 22.476562 23.121094 22.644531 23.167969 22.625 23.289062 Z M 22.285156 20.160156 C 22.285156 20.292969 22.183594 20.398438 22.050781 20.398438 L 21.285156 20.398438 C 21.152344 20.398438 21.046875 20.292969 21.046875 20.160156 C 21.046875 20.027344 21.152344 19.925781 21.285156 19.925781 L 22.050781 19.925781 C 22.183594 19.925781 22.285156 20.027344 22.285156 20.160156 Z M 22.285156 20.160156 " fill-opacity="1" fill-rule="nonzero"/></g></svg>