<svg xmlns="http://www.w3.org/2000/svg" xmlns:xlink="http://www.w3.org/1999/xlink" width="40" zoomAndPan="magnify" viewBox="0 0 30 30.000001" height="40" preserveAspectRatio="xMidYMid meet" version="1.0"><defs><clipPath id="95d2006925"><path d="M 0.484375 0 L 29.515625 0 L 29.515625 29.03125 L 0.484375 29.03125 Z M 0.484375 0 " clip-rule="nonzero"/></clipPath><clipPath id="9801dd7f26"><path d="M 3.386719 4 L 26.613281 4 L 26.613281 25.039062 L 3.386719 25.039062 Z M 3.386719 4 " clip-rule="nonzero"/></clipPath></defs><g clip-path="url(#95d2006925)"><path fill="#ffffff" d="M 0.484375 0 L 29.515625 0 L 29.515625 29.03125 L 0.484375 29.03125 Z M 0.484375 0 " fill-opacity="1" fill-rule="nonzero"/><path fill="#ffffff" d="M 0.484375 0 L 29.515625 0 L 29.515625 29.03125 L 0.484375 29.03125 Z M 0.484375 0 " fill-opacity="1" fill-rule="nonzero"/></g><g clip-path="url(#9801dd7f26)"><path fill="#935f3d" d="M 25.269531 18.128906 L 4.730469 18.128906 L 4.730469 5.308594 L 25.269531 5.308594 Z M 17.257812 20.242188 L 12.742188 20.242188 C 12.5 20.242188 12.304688 20.046875 12.304688 19.804688 C 12.304688 19.5625 12.5 19.367188 12.742188 19.367188 L 17.257812 19.367188 C 17.5 19.367188 17.695312 19.5625 17.695312 19.804688 C 17.695312 20.046875 17.5 20.242188 17.257812 20.242188 Z M 25.832031 4 L 4.167969 4 C 3.753906 4 3.417969 4.335938 3.417969 4.746094 L 3.417969 20.730469 C 3.417969 21.144531 3.753906 21.480469 4.167969 21.480469 L 14.269531 21.480469 L 14.269531 23.492188 L 13.050781 23.492188 C 13.015625 23.492188 12.984375 23.503906 12.957031 23.523438 L 11.207031 24.75 C 11.074219 24.839844 11.136719 25.050781 11.300781 25.050781 L 18.699219 25.050781 C 18.863281 25.050781 18.925781 24.839844 18.792969 24.75 L 17.042969 23.523438 C 17.015625 23.503906 16.984375 23.492188 16.949219 23.492188 L 15.730469 23.492188 L 15.730469 21.480469 L 25.832031 21.480469 C 26.246094 21.480469 26.582031 21.144531 26.582031 20.730469 L 26.582031 4.746094 C 26.582031 4.335938 26.246094 4 25.832031 4 " fill-opacity="1" fill-rule="nonzero"/></g><path fill="#935f3d" d="M 9.660156 8.644531 C 10.585938 8.644531 11.335938 9.398438 11.335938 10.324219 C 11.335938 11.25 10.585938 12 9.660156 12 C 8.734375 12 7.980469 11.25 7.980469 10.324219 C 7.980469 9.398438 8.734375 8.644531 9.660156 8.644531 Z M 7.21875 11.753906 L 6.691406 12.441406 L 7.539062 13.289062 L 8.230469 12.761719 C 8.449219 12.894531 8.691406 12.996094 8.945312 13.0625 L 9.058594 13.921875 L 10.257812 13.921875 L 10.371094 13.0625 C 10.628906 12.996094 10.867188 12.894531 11.089844 12.761719 L 11.777344 13.289062 L 12.625 12.441406 L 12.097656 11.753906 C 12.230469 11.53125 12.332031 11.292969 12.398438 11.035156 L 13.257812 10.921875 L 13.257812 9.722656 L 12.398438 9.609375 C 12.332031 9.355469 12.230469 9.113281 12.097656 8.890625 L 12.625 8.203125 L 11.777344 7.355469 L 11.089844 7.882812 C 10.867188 7.75 10.628906 7.652344 10.371094 7.582031 L 10.257812 6.726562 L 9.058594 6.726562 L 8.945312 7.582031 C 8.691406 7.652344 8.449219 7.75 8.230469 7.882812 L 7.539062 7.355469 L 6.691406 8.203125 L 7.21875 8.890625 C 7.085938 9.113281 6.988281 9.355469 6.917969 9.609375 L 6.0625 9.722656 L 6.0625 10.921875 L 6.917969 11.035156 C 6.988281 11.292969 7.085938 11.53125 7.21875 11.753906 " fill-opacity="1" fill-rule="nonzero"/><path fill="#935f3d" d="M 21.523438 12.6875 L 23.023438 14.1875 L 21.867188 15.34375 L 22.089844 16.039062 L 23.9375 14.1875 L 21.980469 12.230469 L 21.523438 12.6875 " fill-opacity="1" fill-rule="nonzero"/><path fill="#935f3d" d="M 19.519531 13.035156 L 19.296875 12.339844 L 17.449219 14.1875 L 19.40625 16.148438 L 19.863281 15.6875 L 18.363281 14.1875 L 19.519531 13.035156 " fill-opacity="1" fill-rule="nonzero"/><path fill="#935f3d" d="M 19.609375 11.679688 L 21.257812 16.867188 L 21.777344 16.699219 L 20.128906 11.511719 L 19.609375 11.679688 " fill-opacity="1" fill-rule="nonzero"/><path fill="#935f3d" d="M 23.9375 6.417969 L 14.210938 6.417969 L 14.210938 7.1875 L 23.9375 7.1875 L 23.9375 6.417969 " fill-opacity="1" fill-rule="nonzero"/><path fill="#935f3d" d="M 15.789062 14.753906 L 6.0625 14.753906 L 6.0625 15.527344 L 15.789062 15.527344 L 15.789062 14.753906 " fill-opacity="1" fill-rule="nonzero"/><path fill="#935f3d" d="M 10.078125 16.917969 L 15.789062 16.917969 L 15.789062 16.144531 L 10.078125 16.144531 L 10.078125 16.917969 " fill-opacity="1" fill-rule="nonzero"/><path fill="#935f3d" d="M 16.527344 8.734375 L 23.9375 8.734375 L 23.9375 7.960938 L 16.527344 7.960938 L 16.527344 8.734375 " fill-opacity="1" fill-rule="nonzero"/><path fill="#935f3d" d="M 17.605469 10.277344 L 23.9375 10.277344 L 23.9375 9.503906 L 17.605469 9.503906 L 17.605469 10.277344 " fill-opacity="1" fill-rule="nonzero"/></svg>