<svg xmlns="http://www.w3.org/2000/svg" xmlns:xlink="http://www.w3.org/1999/xlink" width="40" zoomAndPan="magnify" viewBox="0 0 30 30.000001" height="40" preserveAspectRatio="xMidYMid meet" version="1.0"><defs><clipPath id="191b00043c"><path d="M 0.484375 0 L 29.515625 0 L 29.515625 29.03125 L 0.484375 29.03125 Z M 0.484375 0 " clip-rule="nonzero"/></clipPath><clipPath id="63aa6d07e3"><path d="M 3.386719 2.964844 L 26.613281 2.964844 L 26.613281 26.191406 L 3.386719 26.191406 Z M 3.386719 2.964844 " clip-rule="nonzero"/></clipPath></defs><g clip-path="url(#191b00043c)"><path fill="#ffffff" d="M 0.484375 0 L 29.515625 0 L 29.515625 29.03125 L 0.484375 29.03125 Z M 0.484375 0 " fill-opacity="1" fill-rule="nonzero"/><path fill="#ffffff" d="M 0.484375 0 L 29.515625 0 L 29.515625 29.03125 L 0.484375 29.03125 Z M 0.484375 0 " fill-opacity="1" fill-rule="nonzero"/></g><path fill="#935f3d" d="M 13.816406 9.785156 L 16.085938 9.785156 C 16.335938 9.785156 16.539062 9.582031 16.539062 9.332031 C 16.539062 9.078125 16.335938 8.875 16.085938 8.875 L 13.816406 8.875 C 13.566406 8.875 13.363281 9.078125 13.363281 9.332031 C 13.363281 9.582031 13.566406 9.785156 13.816406 9.785156 Z M 13.816406 9.785156 " fill-opacity="1" fill-rule="nonzero"/><path fill="#935f3d" d="M 7.46875 15.226562 L 16.539062 15.226562 C 16.789062 15.226562 16.992188 15.023438 16.992188 14.773438 C 16.992188 14.523438 16.789062 14.320312 16.539062 14.320312 L 7.46875 14.320312 C 7.21875 14.320312 7.015625 14.523438 7.015625 14.773438 C 7.015625 15.023438 7.21875 15.226562 7.46875 15.226562 Z M 7.46875 15.226562 " fill-opacity="1" fill-rule="nonzero"/><path fill="#935f3d" d="M 7.46875 17.039062 L 14.726562 17.039062 C 14.976562 17.039062 15.179688 16.835938 15.179688 16.585938 C 15.179688 16.335938 14.976562 16.132812 14.726562 16.132812 L 7.46875 16.132812 C 7.21875 16.132812 7.015625 16.335938 7.015625 16.585938 C 7.015625 16.835938 7.21875 17.039062 7.46875 17.039062 Z M 7.46875 17.039062 " fill-opacity="1" fill-rule="nonzero"/><path fill="#935f3d" d="M 7.46875 18.855469 L 14.269531 18.855469 C 14.523438 18.855469 14.726562 18.652344 14.726562 18.398438 C 14.726562 18.148438 14.523438 17.945312 14.269531 17.945312 L 7.46875 17.945312 C 7.21875 17.945312 7.015625 18.148438 7.015625 18.398438 C 7.015625 18.652344 7.21875 18.855469 7.46875 18.855469 Z M 7.46875 18.855469 " fill-opacity="1" fill-rule="nonzero"/><path fill="#935f3d" d="M 7.46875 20.667969 L 13.363281 20.667969 C 13.613281 20.667969 13.816406 20.464844 13.816406 20.214844 C 13.816406 19.964844 13.613281 19.761719 13.363281 19.761719 L 7.46875 19.761719 C 7.21875 19.761719 7.015625 19.964844 7.015625 20.214844 C 7.015625 20.464844 7.21875 20.667969 7.46875 20.667969 Z M 7.46875 20.667969 " fill-opacity="1" fill-rule="nonzero"/><path fill="#935f3d" d="M 13.816406 11.597656 L 17.898438 11.597656 C 18.148438 11.597656 18.351562 11.394531 18.351562 11.144531 C 18.351562 10.894531 18.148438 10.691406 17.898438 10.691406 L 13.816406 10.691406 C 13.566406 10.691406 13.363281 10.894531 13.363281 11.144531 C 13.363281 11.394531 13.566406 11.597656 13.816406 11.597656 Z M 13.816406 11.597656 " fill-opacity="1" fill-rule="nonzero"/><path fill="#935f3d" d="M 7.46875 13.410156 L 18.351562 13.410156 C 18.601562 13.410156 18.804688 13.207031 18.804688 12.957031 C 18.804688 12.707031 18.601562 12.503906 18.351562 12.503906 L 7.46875 12.503906 C 7.21875 12.503906 7.015625 12.707031 7.015625 12.957031 C 7.015625 13.207031 7.21875 13.410156 7.46875 13.410156 Z M 7.46875 13.410156 " fill-opacity="1" fill-rule="nonzero"/><g clip-path="url(#63aa6d07e3)"><path fill="#935f3d" d="M 26.050781 11.125 C 25.683594 10.757812 25.179688 10.609375 24.703125 10.675781 L 24.703125 4.796875 C 24.703125 3.796875 23.886719 2.980469 22.886719 2.980469 L 5.203125 2.980469 C 4.203125 2.980469 3.386719 3.796875 3.386719 4.796875 L 3.386719 24.296875 C 3.386719 25.296875 4.203125 26.109375 5.203125 26.109375 L 22.886719 26.109375 C 23.886719 26.109375 24.703125 25.296875 24.703125 24.296875 L 24.703125 14.71875 C 24.757812 14.664062 25.625 13.796875 25.570312 13.851562 C 26.3125 13.109375 25.945312 13.476562 26.050781 13.371094 C 26.667969 12.75 26.667969 11.746094 26.050781 11.125 Z M 25.410156 11.765625 C 25.675781 12.03125 25.675781 12.464844 25.410156 12.730469 L 25.25 12.890625 L 24.289062 11.925781 L 24.449219 11.765625 C 24.710938 11.5 25.144531 11.5 25.410156 11.765625 Z M 21.980469 12.949219 C 15.683594 19.246094 16.089844 18.835938 16.054688 18.886719 C 16.011719 18.953125 16.023438 18.949219 14.851562 21.574219 L 7.46875 21.574219 C 7.21875 21.574219 7.015625 21.777344 7.015625 22.027344 C 7.015625 22.277344 7.21875 22.480469 7.46875 22.480469 L 15.179688 22.480469 C 15.28125 22.480469 15.375 22.445312 15.453125 22.390625 C 18.429688 21.066406 18.226562 21.15625 18.269531 21.132812 C 18.359375 21.078125 18.136719 21.277344 21.980469 17.441406 L 21.980469 23.386719 L 6.109375 23.386719 L 6.109375 7.515625 L 21.980469 7.515625 Z M 16.578125 19.929688 L 17.246094 20.597656 L 16.042969 21.136719 Z M 18.035156 20.105469 L 17.070312 19.140625 L 22.363281 13.851562 L 23.324219 14.8125 Z M 23.964844 14.171875 L 23.003906 13.210938 L 23.644531 12.566406 L 24.609375 13.53125 Z M 5.203125 3.886719 L 22.886719 3.886719 C 23.386719 3.886719 23.792969 4.296875 23.792969 4.796875 L 4.292969 4.796875 C 4.292969 4.296875 4.703125 3.886719 5.203125 3.886719 Z M 22.886719 25.203125 L 5.203125 25.203125 C 4.703125 25.203125 4.292969 24.796875 4.292969 24.296875 L 4.292969 5.703125 L 23.792969 5.703125 L 23.792969 11.136719 L 22.886719 12.042969 L 22.886719 7.0625 C 22.886719 6.8125 22.683594 6.609375 22.433594 6.609375 L 5.65625 6.609375 C 5.40625 6.609375 5.203125 6.8125 5.203125 7.0625 L 5.203125 23.84375 C 5.203125 24.09375 5.40625 24.296875 5.65625 24.296875 L 22.433594 24.296875 C 22.683594 24.296875 22.886719 24.09375 22.886719 23.84375 L 22.886719 16.53125 L 23.792969 15.625 L 23.792969 24.296875 C 23.792969 24.796875 23.386719 25.203125 22.886719 25.203125 Z M 22.886719 25.203125 " fill-opacity="1" fill-rule="nonzero"/></g><path fill="#935f3d" d="M 7.46875 11.597656 L 12.003906 11.597656 C 12.253906 11.597656 12.457031 11.394531 12.457031 11.144531 L 12.457031 8.875 C 12.457031 8.625 12.253906 8.421875 12.003906 8.421875 L 7.46875 8.421875 C 7.21875 8.421875 7.015625 8.625 7.015625 8.875 L 7.015625 11.144531 C 7.015625 11.394531 7.21875 11.597656 7.46875 11.597656 Z M 7.921875 9.332031 L 11.550781 9.332031 L 11.550781 10.691406 L 7.921875 10.691406 Z M 7.921875 9.332031 " fill-opacity="1" fill-rule="nonzero"/></svg>