<svg xmlns="http://www.w3.org/2000/svg" xmlns:xlink="http://www.w3.org/1999/xlink" width="40" zoomAndPan="magnify" viewBox="0 0 30 30.000001" height="40" preserveAspectRatio="xMidYMid meet" version="1.0"><defs><clipPath id="07a33461c1"><path d="M 0.484375 0 L 29.515625 0 L 29.515625 29.03125 L 0.484375 29.03125 Z M 0.484375 0 " clip-rule="nonzero"/></clipPath><clipPath id="3766a981d9"><path d="M 0.484375 0.363281 L 29.515625 0.363281 L 29.515625 28.667969 L 0.484375 28.667969 Z M 0.484375 0.363281 " clip-rule="nonzero"/></clipPath></defs><g clip-path="url(#07a33461c1)"><path fill="#ffffff" d="M 0.484375 0 L 29.515625 0 L 29.515625 29.03125 L 0.484375 29.03125 Z M 0.484375 0 " fill-opacity="1" fill-rule="nonzero"/><path fill="#ffffff" d="M 0.484375 0 L 29.515625 0 L 29.515625 29.03125 L 0.484375 29.03125 Z M 0.484375 0 " fill-opacity="1" fill-rule="nonzero"/></g><g clip-path="url(#3766a981d9)"><path fill="#925f3d" d="M 21.652344 23.582031 C 16.167969 23.582031 13.425781 23.582031 13.425781 23.582031 C 13.09375 21.738281 11.984375 21.03125 10.089844 21.460938 C 8.824219 21.679688 8.207031 21.503906 8.234375 20.929688 C 8.226562 20.042969 8.074219 19.71875 7.84375 19.546875 C 7.339844 19.15625 7.902344 18.652344 8.484375 18.335938 C 7.996094 18.296875 7.367188 17.90625 7.503906 17.589844 C 7.71875 16.851562 7.617188 16.554688 7.285156 16.378906 C 6.632812 16.0625 6.5 15.65625 6.886719 15.164062 C 7.332031 14.679688 7.6875 14.1875 7.949219 13.683594 C 8.1875 13.222656 8.277344 12.765625 8.226562 12.246094 C 8.203125 12.007812 8.1875 11.765625 8.1875 11.519531 C 8.1875 7.542969 11.414062 4.320312 15.390625 4.320312 C 19.367188 4.320312 22.589844 7.542969 22.589844 11.519531 C 22.589844 13.296875 21.949219 14.917969 20.886719 16.175781 C 20.539062 16.582031 20.351562 17.019531 20.292969 17.550781 C 20.097656 19.320312 20.574219 21.386719 21.652344 23.582031 Z M 18.167969 11.210938 C 18.589844 11.027344 18.882812 10.605469 18.882812 10.117188 C 18.882812 9.628906 18.589844 9.210938 18.167969 9.027344 L 18.167969 7.65625 C 18.167969 7.390625 17.957031 7.179688 17.695312 7.179688 C 17.429688 7.179688 17.21875 7.390625 17.21875 7.65625 L 17.21875 9.027344 C 16.796875 9.210938 16.503906 9.628906 16.503906 10.117188 C 16.503906 10.605469 16.796875 11.027344 17.21875 11.210938 L 17.21875 15.386719 C 17.21875 15.648438 17.429688 15.863281 17.695312 15.863281 C 17.957031 15.863281 18.167969 15.648438 18.167969 15.386719 Z M 14.914062 7.65625 L 14.914062 12.425781 C 14.492188 12.609375 14.199219 13.03125 14.199219 13.519531 C 14.199219 14.007812 14.492188 14.425781 14.914062 14.609375 L 14.914062 15.386719 C 14.914062 15.648438 15.125 15.863281 15.390625 15.863281 C 15.652344 15.863281 15.867188 15.648438 15.867188 15.386719 L 15.867188 14.609375 C 16.285156 14.425781 16.578125 14.007812 16.578125 13.519531 C 16.578125 13.03125 16.285156 12.609375 15.867188 12.425781 L 15.867188 7.65625 C 15.867188 7.390625 15.652344 7.179688 15.390625 7.179688 C 15.125 7.179688 14.914062 7.390625 14.914062 7.65625 Z M 13.5625 15.386719 L 13.5625 11.210938 C 13.980469 11.027344 14.277344 10.605469 14.277344 10.117188 C 14.277344 9.628906 13.980469 9.210938 13.5625 9.027344 L 13.5625 7.65625 C 13.5625 7.394531 13.347656 7.179688 13.085938 7.179688 C 12.824219 7.179688 12.609375 7.394531 12.609375 7.65625 L 12.609375 9.027344 C 12.191406 9.210938 11.894531 9.628906 11.894531 10.117188 C 11.894531 10.605469 12.191406 11.027344 12.609375 11.210938 L 12.609375 15.386719 C 12.609375 15.648438 12.824219 15.863281 13.085938 15.863281 C 13.347656 15.863281 13.5625 15.648438 13.5625 15.386719 Z M 24.003906 16.777344 L 28.921875 16.777344 C 29.25 16.777344 29.515625 17.042969 29.515625 17.371094 L 29.515625 22.289062 C 29.515625 22.617188 29.25 22.882812 28.921875 22.882812 L 24.003906 22.882812 C 23.675781 22.882812 23.410156 22.617188 23.410156 22.289062 L 23.410156 17.371094 C 23.410156 17.042969 23.675781 16.777344 24.003906 16.777344 Z M 8.917969 2.617188 C 10.703125 1.757812 12.648438 1.320312 14.628906 1.320312 C 18.273438 1.320312 21.574219 2.796875 23.960938 5.1875 C 26.347656 7.574219 27.824219 10.871094 27.824219 14.515625 C 27.824219 14.671875 27.824219 14.820312 27.820312 14.976562 C 27.808594 15.238281 28.015625 15.457031 28.277344 15.464844 C 28.539062 15.472656 28.757812 15.269531 28.765625 15.007812 C 28.773438 14.84375 28.777344 14.679688 28.777344 14.515625 C 28.777344 6.703125 22.445312 0.371094 14.628906 0.371094 C 12.511719 0.371094 10.417969 0.84375 8.507812 1.761719 C 8.269531 1.875 8.171875 2.15625 8.285156 2.394531 C 8.398438 2.628906 8.679688 2.730469 8.917969 2.617188 Z M 23.46875 24.3125 C 23.664062 24.136719 23.964844 24.15625 24.140625 24.347656 C 24.316406 24.542969 24.300781 24.84375 24.105469 25.019531 C 21.503906 27.367188 18.136719 28.664062 14.628906 28.664062 C 13.34375 28.664062 12.054688 28.488281 10.816406 28.140625 C 10.5625 28.070312 10.414062 27.808594 10.484375 27.558594 C 10.554688 27.304688 10.816406 27.15625 11.070312 27.226562 C 12.230469 27.550781 13.421875 27.710938 14.628906 27.710938 C 17.914062 27.710938 21.03125 26.515625 23.46875 24.3125 Z M 3.277344 21.242188 C 3.410156 21.46875 3.335938 21.761719 3.109375 21.894531 C 2.882812 22.027344 2.59375 21.953125 2.460938 21.726562 C 1.164062 19.546875 0.484375 17.050781 0.484375 14.515625 C 0.484375 12.773438 0.804688 11.035156 1.433594 9.410156 C 1.527344 9.167969 1.804688 9.046875 2.046875 9.140625 C 2.292969 9.234375 2.414062 9.507812 2.320312 9.753906 C 1.730469 11.277344 1.4375 12.882812 1.4375 14.515625 C 1.4375 16.894531 2.0625 19.195312 3.277344 21.242188 Z M 4.589844 1.898438 C 2.746094 1.898438 1.253906 3.390625 1.253906 5.238281 C 1.253906 7.082031 2.746094 8.574219 4.589844 8.574219 C 6.4375 8.574219 7.929688 7.082031 7.929688 5.238281 C 7.929688 3.390625 6.4375 1.898438 4.589844 1.898438 Z M 5.117188 21.160156 L 1.558594 27.320312 L 8.671875 27.320312 Z M 15.390625 5.875 C 12.269531 5.875 9.742188 8.402344 9.742188 11.519531 C 9.742188 14.640625 12.269531 17.167969 15.390625 17.167969 C 18.507812 17.167969 21.035156 14.640625 21.035156 11.519531 C 21.035156 8.402344 18.507812 5.875 15.390625 5.875 Z M 15.390625 5.875 " fill-opacity="1" fill-rule="evenodd"/></g></svg>