<svg xmlns="http://www.w3.org/2000/svg" xmlns:xlink="http://www.w3.org/1999/xlink" width="40" zoomAndPan="magnify" viewBox="0 0 30 30.000001" height="40" preserveAspectRatio="xMidYMid meet" version="1.0"><defs><clipPath id="34bcc93105"><path d="M 0.484375 0 L 29.515625 0 L 29.515625 29.03125 L 0.484375 29.03125 Z M 0.484375 0 " clip-rule="nonzero"/></clipPath><clipPath id="394b9aef45"><path d="M 20 4 L 29.226562 4 L 29.226562 13 L 20 13 Z M 20 4 " clip-rule="nonzero"/></clipPath></defs><g clip-path="url(#34bcc93105)"><path fill="#ffffff" d="M 0.484375 0 L 29.515625 0 L 29.515625 29.03125 L 0.484375 29.03125 Z M 0.484375 0 " fill-opacity="1" fill-rule="nonzero"/><path fill="#ffffff" d="M 0.484375 0 L 29.515625 0 L 29.515625 29.03125 L 0.484375 29.03125 Z M 0.484375 0 " fill-opacity="1" fill-rule="nonzero"/></g><path fill="#925f3d" d="M 8.0625 22.386719 C 7.890625 22.113281 7.714844 21.839844 7.53125 21.554688 C 7.808594 21.367188 8.085938 21.203125 8.371094 21.054688 C 8.855469 21.675781 8.882812 21.957031 8.0625 22.386719 Z M 5.175781 20.660156 C 4.890625 20.847656 4.601562 21.027344 4.3125 21.207031 C 4.195312 21.28125 4.066406 21.304688 3.882812 21.257812 C 3.738281 21.210938 3.609375 21.097656 3.558594 20.898438 C 3.503906 20.6875 3.566406 20.503906 3.738281 20.382812 C 4.035156 20.175781 4.34375 19.980469 4.65625 19.796875 C 4.894531 19.660156 5.195312 19.753906 5.328125 19.980469 C 5.464844 20.210938 5.40625 20.507812 5.175781 20.660156 Z M 14.96875 16.382812 C 14.816406 16.144531 14.664062 15.902344 14.511719 15.664062 C 14.949219 15.484375 15.257812 15.050781 15.257812 14.546875 C 15.257812 13.882812 14.71875 13.339844 14.050781 13.339844 C 13.734375 13.339844 13.449219 13.460938 13.234375 13.660156 C 12.71875 12.847656 12.199219 12.03125 11.679688 11.21875 C 11.25 10.539062 10.460938 10.289062 9.757812 10.605469 C 9.046875 10.925781 8.714844 11.671875 8.941406 12.457031 C 8.957031 12.511719 8.957031 12.558594 8.933594 12.617188 C 8.546875 13.464844 8.0625 14.253906 7.472656 14.980469 C 6.667969 15.972656 5.699219 16.765625 4.617188 17.433594 C 3.695312 18.007812 2.78125 18.589844 1.871094 19.179688 C 1.136719 19.65625 0.925781 20.519531 1.371094 21.253906 C 1.734375 21.855469 2.113281 22.453125 2.507812 23.035156 C 2.953125 23.695312 3.824219 23.871094 4.507812 23.46875 C 4.664062 23.378906 4.804688 23.269531 4.988281 23.144531 C 5.023438 23.222656 5.042969 23.285156 5.074219 23.335938 C 5.648438 24.242188 6.226562 25.144531 6.800781 26.054688 C 6.972656 26.328125 7.1875 26.554688 7.484375 26.699219 C 7.484375 26.699219 7.941406 26.9375 8.527344 26.785156 C 8.550781 26.78125 8.570312 26.777344 8.589844 26.769531 C 8.625 26.757812 8.664062 26.746094 8.699219 26.734375 C 8.746094 26.714844 8.796875 26.695312 8.84375 26.671875 C 9.601562 26.265625 9.882812 25.308594 9.4375 24.570312 C 9.171875 24.125 8.875 23.699219 8.585938 23.253906 C 9.082031 22.976562 9.515625 22.679688 9.671875 22.117188 C 9.824219 21.554688 9.644531 21.066406 9.308594 20.609375 C 10.65625 20.058594 12.035156 19.800781 13.464844 19.8125 C 13.5625 19.8125 13.628906 19.847656 13.699219 19.910156 C 13.996094 20.167969 14.34375 20.300781 14.742188 20.285156 C 15.917969 20.238281 16.585938 18.980469 15.972656 17.96875 C 15.648438 17.433594 15.304688 16.910156 14.96875 16.382812 " fill-opacity="1" fill-rule="nonzero"/><path fill="#925f3d" d="M 20.21875 13.96875 C 20.097656 12.460938 19.511719 11.164062 18.472656 10.070312 C 17.917969 9.492188 17.269531 9.039062 16.535156 8.722656 C 16.300781 8.621094 16.070312 8.507812 15.820312 8.472656 C 15.492188 8.429688 15.144531 8.695312 15.074219 9 C 14.996094 9.339844 15.191406 9.714844 15.515625 9.832031 C 15.871094 9.960938 16.210938 10.117188 16.535156 10.316406 C 17.351562 10.820312 17.960938 11.503906 18.363281 12.371094 C 18.894531 13.507812 18.972656 14.683594 18.59375 15.886719 C 18.472656 16.269531 18.601562 16.632812 18.917969 16.792969 C 19.375 17.019531 19.824219 16.777344 19.964844 16.230469 C 20.078125 15.804688 20.183594 15.375 20.210938 14.929688 C 20.238281 14.609375 20.242188 14.289062 20.21875 13.96875 " fill-opacity="1" fill-rule="nonzero"/><path fill="#925f3d" d="M 15.195312 11.0625 C 14.730469 10.894531 14.316406 11.136719 14.226562 11.554688 C 14.144531 11.933594 14.328125 12.246094 14.804688 12.425781 C 15.574219 12.722656 15.992188 13.320312 16.136719 14.113281 C 16.203125 14.480469 16.132812 14.839844 16.023438 15.191406 C 15.976562 15.609375 16.152344 15.84375 16.449219 15.972656 C 16.777344 16.121094 17.171875 15.972656 17.324219 15.640625 C 17.457031 15.347656 17.507812 15.03125 17.539062 14.707031 C 17.621094 13.90625 17.417969 13.175781 17.003906 12.507812 C 16.578125 11.820312 15.964844 11.339844 15.195312 11.0625 " fill-opacity="1" fill-rule="nonzero"/><path fill="#925f3d" d="M 6.554688 6.191406 C 6.554688 4.800781 6.554688 3.449219 6.554688 2.042969 C 7.683594 2.742188 8.769531 3.417969 9.894531 4.117188 C 8.769531 4.816406 7.675781 5.496094 6.554688 6.191406 Z M 7.445312 0.0195312 C 5.183594 0.0195312 3.347656 1.855469 3.347656 4.117188 C 3.347656 6.382812 5.183594 8.214844 7.445312 8.214844 C 9.710938 8.214844 11.542969 6.382812 11.542969 4.117188 C 11.542969 1.855469 9.710938 0.0195312 7.445312 0.0195312 " fill-opacity="1" fill-rule="nonzero"/><path fill="#925f3d" d="M 21.695312 24.984375 C 21.695312 25.085938 21.679688 25.1875 21.648438 25.28125 C 22.09375 25.507812 22.539062 25.734375 22.980469 25.960938 C 23.164062 25.707031 23.464844 25.539062 23.804688 25.539062 C 24.367188 25.539062 24.824219 25.996094 24.824219 26.558594 C 24.824219 27.121094 24.367188 27.578125 23.804688 27.578125 C 23.242188 27.578125 22.785156 27.121094 22.785156 26.558594 C 22.785156 26.449219 22.804688 26.339844 22.835938 26.242188 C 22.394531 26.015625 21.953125 25.789062 21.511719 25.5625 C 21.328125 25.828125 21.023438 26 20.675781 26 C 20.113281 26 19.65625 25.546875 19.65625 24.984375 C 19.65625 24.421875 20.113281 23.964844 20.675781 23.964844 C 20.984375 23.964844 21.261719 24.101562 21.449219 24.320312 C 21.917969 24.039062 22.386719 23.753906 22.859375 23.472656 C 22.8125 23.355469 22.785156 23.226562 22.785156 23.089844 C 22.785156 22.527344 23.242188 22.074219 23.804688 22.074219 C 24.367188 22.074219 24.824219 22.527344 24.824219 23.089844 C 24.824219 23.652344 24.367188 24.109375 23.804688 24.109375 C 23.488281 24.109375 23.207031 23.964844 23.019531 23.742188 C 22.550781 24.023438 22.082031 24.304688 21.613281 24.585938 C 21.667969 24.710938 21.695312 24.84375 21.695312 24.984375 Z M 22.542969 20.796875 C 20.28125 20.796875 18.445312 22.632812 18.445312 24.898438 C 18.445312 27.160156 20.28125 28.996094 22.542969 28.996094 C 24.808594 28.996094 26.644531 27.160156 26.644531 24.898438 C 26.644531 22.632812 24.808594 20.796875 22.542969 20.796875 " fill-opacity="1" fill-rule="nonzero"/><path fill="#925f3d" d="M 25.179688 7.890625 C 25.125 7.890625 25.046875 7.894531 24.949219 7.90625 C 24.960938 8.171875 24.96875 8.445312 24.96875 8.734375 C 24.96875 9.046875 24.976562 9.359375 24.988281 9.667969 C 25.074219 9.6875 25.160156 9.695312 25.246094 9.695312 C 25.527344 9.695312 25.738281 9.605469 25.875 9.429688 C 26.007812 9.253906 26.078125 9.042969 26.078125 8.789062 C 26.078125 8.535156 26.003906 8.324219 25.855469 8.148438 C 25.707031 7.976562 25.484375 7.890625 25.179688 7.890625 " fill-opacity="1" fill-rule="nonzero"/><path fill="#925f3d" d="M 22.859375 7.859375 C 22.859375 7.910156 22.742188 8.277344 22.507812 8.960938 L 23.226562 8.960938 C 23.003906 8.28125 22.890625 7.914062 22.890625 7.859375 L 22.859375 7.859375 " fill-opacity="1" fill-rule="nonzero"/><g clip-path="url(#394b9aef45)"><path fill="#925f3d" d="M 27.453125 10.128906 C 27.242188 10.128906 27.054688 10.109375 26.894531 10.0625 L 26.960938 9.671875 C 27.125 9.730469 27.289062 9.761719 27.453125 9.761719 C 27.613281 9.761719 27.722656 9.75 27.78125 9.722656 C 27.84375 9.695312 27.875 9.652344 27.875 9.589844 C 27.875 9.492188 27.761719 9.402344 27.542969 9.316406 C 27.347656 9.238281 27.207031 9.164062 27.121094 9.089844 C 27 8.988281 26.9375 8.863281 26.9375 8.714844 C 26.9375 8.539062 27.003906 8.398438 27.132812 8.289062 C 27.265625 8.183594 27.453125 8.132812 27.703125 8.132812 C 27.933594 8.132812 28.117188 8.152344 28.25 8.191406 L 28.183594 8.582031 C 28.035156 8.523438 27.875 8.496094 27.703125 8.496094 C 27.492188 8.496094 27.386719 8.550781 27.386719 8.65625 C 27.386719 8.714844 27.410156 8.757812 27.453125 8.792969 C 27.496094 8.824219 27.589844 8.867188 27.726562 8.917969 C 27.917969 8.988281 28.058594 9.058594 28.144531 9.132812 C 28.269531 9.238281 28.328125 9.375 28.328125 9.539062 C 28.328125 9.933594 28.039062 10.128906 27.453125 10.128906 Z M 26.257812 9.683594 C 26.015625 9.960938 25.683594 10.101562 25.25 10.101562 C 25.054688 10.101562 24.789062 10.09375 24.445312 10.078125 C 24.460938 9.679688 24.46875 9.230469 24.46875 8.734375 C 24.46875 8.253906 24.460938 7.84375 24.445312 7.507812 L 24.789062 7.507812 C 24.847656 7.507812 24.929688 7.503906 25.042969 7.5 C 25.15625 7.496094 25.226562 7.496094 25.261719 7.496094 C 25.738281 7.496094 26.082031 7.613281 26.296875 7.851562 C 26.507812 8.085938 26.617188 8.371094 26.617188 8.703125 C 26.617188 9.078125 26.496094 9.402344 26.257812 9.683594 Z M 23.507812 10.078125 C 23.507812 9.992188 23.445312 9.746094 23.328125 9.339844 L 22.414062 9.339844 C 22.292969 9.738281 22.230469 9.984375 22.230469 10.078125 L 21.636719 10.078125 C 21.636719 10.027344 21.789062 9.605469 22.097656 8.8125 C 22.402344 8.023438 22.558594 7.585938 22.558594 7.507812 L 23.304688 7.507812 C 23.304688 7.582031 23.441406 8.011719 23.722656 8.796875 C 24 9.578125 24.140625 10.007812 24.140625 10.078125 Z M 24.984375 4.714844 C 22.71875 4.714844 20.882812 6.550781 20.882812 8.8125 C 20.882812 11.078125 22.71875 12.914062 24.984375 12.914062 C 27.246094 12.914062 29.082031 11.078125 29.082031 8.8125 C 29.082031 6.550781 27.246094 4.714844 24.984375 4.714844 " fill-opacity="1" fill-rule="nonzero"/></g></svg>