<svg xmlns="http://www.w3.org/2000/svg" xmlns:xlink="http://www.w3.org/1999/xlink" width="50" zoomAndPan="magnify" viewBox="0 0 37.5 37.499999" height="50" preserveAspectRatio="xMidYMid meet" version="1.0"><defs><clipPath id="c75d230166"><path d="M 0 0 L 37.007812 0 L 37.007812 37.007812 L 0 37.007812 Z M 0 0 " clip-rule="nonzero"/></clipPath><clipPath id="01bed12431"><path d="M 0 0 L 36.984375 0 L 36.984375 37 L 0 37 Z M 0 0 " clip-rule="nonzero"/></clipPath></defs><g clip-path="url(#c75d230166)"><path fill="#ffffff" d="M 0 0 L 37.007812 0 L 37.007812 37.007812 L 0 37.007812 Z M 0 0 " fill-opacity="1" fill-rule="nonzero"/><path fill="#ffffff" d="M 0 0 L 37.007812 0 L 37.007812 37.007812 L 0 37.007812 Z M 0 0 " fill-opacity="1" fill-rule="nonzero"/></g><g clip-path="url(#01bed12431)"><path fill="#935f3d" d="M 36.980469 36.324219 C 36.652344 33.25 34.558594 30.769531 31.765625 29.835938 C 32.820312 29.074219 33.507812 27.835938 33.507812 26.4375 C 33.507812 24.125 31.625 22.246094 29.3125 22.246094 C 27 22.246094 25.117188 24.125 25.117188 26.4375 C 25.117188 27.835938 25.804688 29.078125 26.863281 29.839844 C 25.757812 30.207031 24.75 30.824219 23.90625 31.652344 C 23.078125 30.839844 22.070312 30.210938 20.945312 29.835938 C 22 29.074219 22.6875 27.835938 22.6875 26.4375 C 22.6875 24.125 20.804688 22.246094 18.492188 22.246094 C 16.179688 22.246094 14.296875 24.125 14.296875 26.4375 C 14.296875 27.835938 14.984375 29.074219 16.039062 29.835938 C 14.914062 30.210938 13.902344 30.839844 13.078125 31.652344 C 12.234375 30.824219 11.222656 30.210938 10.121094 29.839844 C 11.175781 29.078125 11.867188 27.835938 11.867188 26.4375 C 11.867188 24.125 9.984375 22.246094 7.671875 22.246094 C 5.359375 22.246094 3.476562 24.125 3.476562 26.4375 C 3.476562 27.835938 4.164062 29.074219 5.21875 29.835938 C 2.425781 30.769531 0.332031 33.25 0.00390625 36.324219 C -0.015625 36.492188 0.0390625 36.660156 0.152344 36.785156 C 0.265625 36.910156 0.425781 36.984375 0.597656 36.984375 L 11.414062 36.984375 C 11.417969 36.984375 11.417969 36.984375 11.417969 36.984375 L 36.386719 36.984375 C 36.554688 36.984375 36.71875 36.910156 36.832031 36.785156 C 36.945312 36.660156 36.996094 36.492188 36.980469 36.324219 Z M 26.3125 26.4375 C 26.3125 24.785156 27.65625 23.4375 29.3125 23.4375 C 30.96875 23.4375 32.3125 24.785156 32.3125 26.4375 C 32.3125 28.09375 30.96875 29.4375 29.3125 29.441406 C 29.3125 29.441406 29.3125 29.441406 29.308594 29.441406 C 27.65625 29.441406 26.3125 28.09375 26.3125 26.4375 Z M 15.492188 26.4375 C 15.492188 24.785156 16.835938 23.4375 18.492188 23.4375 C 20.148438 23.4375 21.492188 24.785156 21.492188 26.4375 C 21.492188 28.09375 20.148438 29.4375 18.492188 29.441406 C 18.492188 29.441406 18.492188 29.441406 18.488281 29.441406 C 16.835938 29.4375 15.492188 28.09375 15.492188 26.4375 Z M 4.671875 26.4375 C 4.671875 24.785156 6.015625 23.4375 7.671875 23.4375 C 9.324219 23.4375 10.671875 24.785156 10.671875 26.4375 C 10.671875 28.09375 9.328125 29.441406 7.671875 29.441406 C 7.671875 29.441406 7.667969 29.441406 7.667969 29.441406 C 6.015625 29.4375 4.671875 28.09375 4.671875 26.4375 Z M 7.667969 30.632812 C 7.671875 30.632812 7.671875 30.632812 7.671875 30.632812 C 9.414062 30.632812 11.070312 31.328125 12.292969 32.554688 C 11.601562 33.488281 11.113281 34.585938 10.898438 35.789062 L 1.292969 35.789062 C 1.921875 32.808594 4.554688 30.632812 7.667969 30.632812 Z M 12.113281 35.789062 C 12.339844 34.726562 12.820312 33.761719 13.488281 32.964844 C 13.523438 32.933594 13.558594 32.894531 13.582031 32.855469 C 14.78125 31.484375 16.542969 30.632812 18.488281 30.632812 C 18.492188 30.632812 18.492188 30.632812 18.492188 30.632812 C 20.441406 30.632812 22.203125 31.484375 23.402344 32.855469 C 23.425781 32.894531 23.457031 32.933594 23.496094 32.964844 C 24.160156 33.761719 24.644531 34.726562 24.867188 35.789062 Z M 26.082031 35.789062 C 25.871094 34.585938 25.382812 33.488281 24.691406 32.554688 C 25.910156 31.328125 27.566406 30.632812 29.3125 30.632812 C 32.429688 30.632812 35.058594 32.808594 35.6875 35.789062 Z M 10.738281 19.089844 L 11.847656 19.089844 L 11.101562 22.542969 C 11.050781 22.777344 11.144531 23.019531 11.34375 23.15625 C 11.445312 23.226562 11.5625 23.265625 11.683594 23.265625 C 11.792969 23.265625 11.90625 23.234375 12.003906 23.171875 L 18.429688 19.089844 L 34.148438 19.089844 C 34.890625 19.089844 35.492188 18.484375 35.492188 17.746094 L 35.492188 1.34375 C 35.492188 0.601562 34.890625 0 34.148438 0 L 10.738281 0 C 10 0 9.394531 0.601562 9.394531 1.34375 L 9.394531 17.746094 C 9.394531 18.484375 10 19.089844 10.738281 19.089844 Z M 10.589844 1.34375 C 10.589844 1.261719 10.65625 1.191406 10.738281 1.191406 L 34.148438 1.191406 C 34.230469 1.191406 34.300781 1.261719 34.300781 1.34375 L 34.300781 17.746094 C 34.300781 17.828125 34.230469 17.894531 34.148438 17.894531 L 18.253906 17.894531 C 18.140625 17.894531 18.03125 17.925781 17.9375 17.988281 L 12.566406 21.398438 L 13.167969 18.617188 C 13.207031 18.441406 13.164062 18.257812 13.050781 18.117188 C 12.9375 17.976562 12.765625 17.894531 12.585938 17.894531 L 10.738281 17.894531 C 10.65625 17.894531 10.589844 17.828125 10.589844 17.746094 Z M 17.4375 13.230469 L 17.613281 13.183594 L 18.292969 15.71875 C 18.429688 16.226562 18.757812 16.65625 19.21875 16.921875 C 19.523438 17.097656 19.863281 17.1875 20.207031 17.1875 C 20.378906 17.1875 20.550781 17.164062 20.722656 17.121094 L 21.191406 16.992188 C 21.34375 16.953125 21.472656 16.851562 21.554688 16.714844 C 21.632812 16.578125 21.652344 16.414062 21.613281 16.261719 L 20.609375 12.523438 C 22.5625 12.476562 24.4375 13.003906 26.335938 13.597656 C 26.472656 13.640625 26.613281 13.660156 26.75 13.660156 C 27.09375 13.660156 27.425781 13.53125 27.6875 13.28125 C 28.050781 12.929688 28.191406 12.429688 28.058594 11.945312 L 27.394531 9.460938 C 28.203125 9.003906 28.632812 8.039062 28.382812 7.101562 C 28.238281 6.566406 27.890625 6.113281 27.410156 5.835938 C 27.082031 5.648438 26.714844 5.550781 26.347656 5.554688 L 25.640625 2.914062 C 25.511719 2.441406 25.15625 2.082031 24.683594 1.953125 C 24.210938 1.820312 23.71875 1.949219 23.371094 2.292969 C 23.140625 2.515625 22.910156 2.746094 22.664062 2.992188 C 21.394531 4.261719 19.957031 5.699219 18.324219 6.535156 L 15.824219 7.203125 C 14.160156 7.648438 13.171875 9.363281 13.617188 11.027344 C 14.0625 12.6875 15.777344 13.675781 17.4375 13.230469 Z M 19.8125 15.886719 C 19.628906 15.78125 19.5 15.609375 19.445312 15.40625 L 18.765625 12.875 L 19.421875 12.699219 L 20.304688 15.988281 C 20.136719 16.007812 19.964844 15.972656 19.8125 15.886719 Z M 20.292969 11.339844 L 19.238281 7.394531 C 20.539062 6.65625 21.6875 5.628906 22.726562 4.613281 L 24.671875 11.875 C 23.429688 11.558594 22.144531 11.328125 20.820312 11.328125 C 20.644531 11.328125 20.46875 11.332031 20.292969 11.339844 Z M 26.8125 6.867188 C 27.019531 6.988281 27.167969 7.179688 27.230469 7.414062 C 27.304688 7.699219 27.234375 7.992188 27.058594 8.207031 L 26.683594 6.808594 C 26.726562 6.824219 26.769531 6.84375 26.8125 6.867188 Z M 24.367188 3.101562 C 24.433594 3.121094 24.46875 3.15625 24.488281 3.222656 L 26.90625 12.253906 C 26.925781 12.320312 26.910156 12.371094 26.859375 12.417969 C 26.808594 12.46875 26.757812 12.480469 26.691406 12.457031 C 26.464844 12.386719 26.238281 12.316406 26.007812 12.25 L 23.703125 3.640625 C 23.875 3.472656 24.039062 3.304688 24.203125 3.144531 C 24.253906 3.097656 24.300781 3.085938 24.367188 3.101562 Z M 16.132812 8.355469 L 18.117188 7.824219 L 19.113281 11.546875 L 17.882812 11.878906 L 17.128906 12.078125 C 16.101562 12.355469 15.042969 11.742188 14.769531 10.71875 C 14.492188 9.691406 15.105469 8.632812 16.132812 8.355469 Z M 30.746094 10.261719 C 30.636719 10.453125 30.4375 10.558594 30.230469 10.558594 C 30.128906 10.558594 30.027344 10.535156 29.933594 10.480469 L 29.019531 9.953125 C 28.734375 9.789062 28.636719 9.425781 28.804688 9.136719 C 28.96875 8.851562 29.332031 8.753906 29.617188 8.921875 L 30.527344 9.445312 C 30.8125 9.609375 30.910156 9.976562 30.746094 10.261719 Z M 29.609375 6.15625 L 30.628906 5.882812 C 30.945312 5.800781 31.273438 5.988281 31.359375 6.304688 C 31.441406 6.625 31.253906 6.953125 30.9375 7.035156 L 29.917969 7.308594 C 29.867188 7.324219 29.816406 7.328125 29.765625 7.328125 C 29.5 7.328125 29.261719 7.152344 29.1875 6.886719 C 29.105469 6.570312 29.292969 6.242188 29.609375 6.15625 Z M 27.609375 4.238281 L 28.136719 3.328125 C 28.300781 3.042969 28.667969 2.945312 28.953125 3.109375 C 29.238281 3.273438 29.335938 3.640625 29.171875 3.925781 L 28.644531 4.835938 C 28.535156 5.027344 28.332031 5.132812 28.125 5.132812 C 28.027344 5.132812 27.921875 5.109375 27.828125 5.054688 C 27.542969 4.890625 27.445312 4.523438 27.609375 4.238281 Z M 27.609375 4.238281 " fill-opacity="1" fill-rule="nonzero"/></g></svg>