<svg xmlns="http://www.w3.org/2000/svg" xmlns:xlink="http://www.w3.org/1999/xlink" width="50" zoomAndPan="magnify" viewBox="0 0 37.5 37.499999" height="50" preserveAspectRatio="xMidYMid meet" version="1.0"><defs><clipPath id="5ed11d28ef"><path d="M 0.367188 2.179688 L 36.632812 2.179688 L 36.632812 34.746094 L 0.367188 34.746094 Z M 0.367188 2.179688 " clip-rule="nonzero"/></clipPath></defs><g clip-path="url(#5ed11d28ef)"><path fill="#935f3d" d="M 33.113281 19.101562 C 33.367188 19.804688 34.03125 20.3125 34.816406 20.3125 C 35.816406 20.3125 36.628906 19.496094 36.628906 18.5 C 36.628906 17.5 35.816406 16.683594 34.816406 16.683594 C 34.03125 16.683594 33.367188 17.191406 33.113281 17.894531 L 30.585938 17.894531 L 30.585938 13.664062 L 34.816406 13.664062 C 35.148438 13.664062 35.421875 13.390625 35.421875 13.058594 L 35.421875 8.71875 C 36.121094 8.464844 36.628906 7.800781 36.628906 7.015625 C 36.628906 6.019531 35.816406 5.203125 34.816406 5.203125 C 33.820312 5.203125 33.003906 6.019531 33.003906 7.015625 C 33.003906 7.800781 33.511719 8.464844 34.214844 8.71875 L 34.214844 12.453125 L 30.585938 12.453125 L 30.585938 11.246094 C 30.585938 9.578125 29.234375 8.222656 27.566406 8.222656 L 24.542969 8.222656 L 24.542969 4.597656 L 28.277344 4.597656 C 28.53125 5.300781 29.195312 5.804688 29.984375 5.804688 C 30.980469 5.804688 31.796875 4.992188 31.796875 3.992188 C 31.796875 2.996094 30.980469 2.179688 29.984375 2.179688 C 29.195312 2.179688 28.53125 2.6875 28.277344 3.390625 L 23.9375 3.390625 C 23.605469 3.390625 23.335938 3.660156 23.335938 3.992188 L 23.335938 8.222656 L 19.105469 8.222656 L 19.105469 5.699219 C 19.804688 5.445312 20.3125 4.777344 20.3125 3.992188 C 20.3125 2.996094 19.496094 2.179688 18.5 2.179688 C 17.503906 2.179688 16.6875 2.996094 16.6875 3.992188 C 16.6875 4.777344 17.195312 5.445312 17.894531 5.699219 L 17.894531 8.222656 L 13.664062 8.222656 L 13.664062 3.992188 C 13.664062 3.660156 13.394531 3.390625 13.0625 3.390625 L 8.722656 3.390625 C 8.46875 2.6875 7.804688 2.179688 7.015625 2.179688 C 6.019531 2.179688 5.203125 2.996094 5.203125 3.992188 C 5.203125 4.992188 6.019531 5.804688 7.015625 5.804688 C 7.804688 5.804688 8.46875 5.300781 8.722656 4.597656 L 12.457031 4.597656 L 12.457031 8.222656 L 9.433594 8.222656 C 7.765625 8.222656 6.414062 9.578125 6.414062 11.246094 L 6.414062 12.453125 L 2.785156 12.453125 L 2.785156 8.71875 C 3.488281 8.464844 3.996094 7.800781 3.996094 7.015625 C 3.996094 6.019531 3.179688 5.203125 2.183594 5.203125 C 1.183594 5.203125 0.371094 6.019531 0.371094 7.015625 C 0.371094 7.800781 0.878906 8.464844 1.578125 8.71875 L 1.578125 13.058594 C 1.578125 13.390625 1.851562 13.664062 2.183594 13.664062 L 6.414062 13.664062 L 6.414062 17.894531 L 3.886719 17.894531 C 3.632812 17.191406 2.96875 16.683594 2.183594 16.683594 C 1.183594 16.683594 0.371094 17.5 0.371094 18.5 C 0.371094 19.496094 1.183594 20.3125 2.183594 20.3125 C 2.96875 20.3125 3.632812 19.804688 3.886719 19.101562 L 6.414062 19.101562 L 6.414062 23.332031 L 2.183594 23.332031 C 1.851562 23.332031 1.578125 23.605469 1.578125 23.9375 L 1.578125 28.277344 C 0.878906 28.53125 0.371094 29.195312 0.371094 29.980469 C 0.371094 30.976562 1.183594 31.792969 2.183594 31.792969 C 3.179688 31.792969 3.996094 30.976562 3.996094 29.980469 C 3.996094 29.195312 3.488281 28.53125 2.785156 28.277344 L 2.785156 24.542969 L 6.414062 24.542969 L 6.414062 25.75 C 6.414062 27.417969 7.765625 28.773438 9.433594 28.773438 L 12.457031 28.773438 L 12.457031 32.398438 L 8.722656 32.398438 C 8.46875 31.695312 7.804688 31.191406 7.015625 31.191406 C 6.019531 31.191406 5.203125 32.003906 5.203125 33.003906 C 5.203125 34 6.019531 34.816406 7.015625 34.816406 C 7.804688 34.816406 8.46875 34.308594 8.722656 33.605469 L 13.0625 33.605469 C 13.394531 33.605469 13.664062 33.335938 13.664062 33.003906 L 13.664062 28.773438 L 17.894531 28.773438 L 17.894531 31.296875 C 17.195312 31.550781 16.6875 32.21875 16.6875 33.003906 C 16.6875 34 17.503906 34.816406 18.5 34.816406 C 19.496094 34.816406 20.3125 34 20.3125 33.003906 C 20.3125 32.21875 19.804688 31.550781 19.105469 31.296875 L 19.105469 28.773438 L 23.335938 28.773438 L 23.335938 33.003906 C 23.335938 33.335938 23.605469 33.605469 23.9375 33.605469 L 28.277344 33.605469 C 28.53125 34.308594 29.195312 34.816406 29.984375 34.816406 C 30.980469 34.816406 31.796875 34 31.796875 33.003906 C 31.796875 32.003906 30.980469 31.191406 29.984375 31.191406 C 29.195312 31.191406 28.53125 31.695312 28.277344 32.398438 L 24.542969 32.398438 L 24.542969 28.773438 L 27.566406 28.773438 C 29.234375 28.773438 30.585938 27.417969 30.585938 25.75 L 30.585938 24.542969 L 34.214844 24.542969 L 34.214844 28.277344 C 33.511719 28.53125 33.003906 29.195312 33.003906 29.980469 C 33.003906 30.976562 33.820312 31.792969 34.816406 31.792969 C 35.816406 31.792969 36.628906 30.976562 36.628906 29.980469 C 36.628906 29.195312 36.121094 28.53125 35.421875 28.277344 L 35.421875 23.9375 C 35.421875 23.605469 35.148438 23.332031 34.816406 23.332031 L 30.585938 23.332031 L 30.585938 19.101562 Z M 11.246094 26.355469 L 10.039062 26.355469 C 9.707031 26.355469 9.433594 26.082031 9.433594 25.75 C 9.433594 25.417969 9.707031 25.144531 10.039062 25.144531 L 11.246094 25.144531 C 11.582031 25.144531 11.851562 25.417969 11.851562 25.75 C 11.851562 26.082031 11.582031 26.355469 11.246094 26.355469 Z M 14.875 26.355469 L 13.664062 26.355469 C 13.332031 26.355469 13.0625 26.082031 13.0625 25.75 C 13.0625 25.417969 13.332031 25.144531 13.664062 25.144531 L 14.875 25.144531 C 15.207031 25.144531 15.476562 25.417969 15.476562 25.75 C 15.476562 26.082031 15.207031 26.355469 14.875 26.355469 Z M 29.378906 22.730469 L 7.621094 22.730469 L 7.621094 11.246094 C 7.621094 10.25 8.4375 9.433594 9.433594 9.433594 L 27.566406 9.433594 C 28.5625 9.433594 29.378906 10.25 29.378906 11.246094 Z M 29.378906 22.730469 " fill-opacity="1" fill-rule="nonzero"/></g><path fill="#935f3d" d="M 26.960938 15.476562 L 25.546875 15.476562 L 23.890625 11.613281 C 23.792969 11.386719 23.59375 11.246094 23.316406 11.246094 C 23.070312 11.25 22.851562 11.414062 22.765625 11.644531 L 20.1875 18.867188 L 18.421875 15.777344 C 18.3125 15.589844 18.113281 15.476562 17.894531 15.476562 L 15.890625 15.476562 L 14.832031 12.835938 C 14.746094 12.625 14.546875 12.472656 14.316406 12.453125 C 14.082031 12.4375 13.871094 12.550781 13.75 12.746094 L 12.113281 15.46875 L 10.039062 15.46875 C 9.707031 15.46875 9.433594 15.742188 9.433594 16.074219 C 9.433594 16.40625 9.707031 16.679688 10.039062 16.679688 L 12.457031 16.679688 C 12.667969 16.679688 12.867188 16.570312 12.976562 16.382812 L 14.160156 14.40625 L 14.917969 16.296875 C 15.007812 16.527344 15.230469 16.679688 15.476562 16.679688 L 17.546875 16.679688 L 19.789062 20.605469 C 19.894531 20.792969 20.09375 20.910156 20.3125 20.910156 C 20.332031 20.910156 20.347656 20.910156 20.367188 20.910156 C 20.601562 20.890625 20.800781 20.734375 20.882812 20.511719 L 23.382812 13.5 L 24.59375 16.316406 C 24.6875 16.539062 24.90625 16.683594 25.148438 16.683594 L 26.960938 16.683594 C 27.292969 16.683594 27.566406 16.414062 27.566406 16.082031 C 27.566406 15.75 27.292969 15.476562 26.960938 15.476562 Z M 26.960938 15.476562 " fill-opacity="1" fill-rule="nonzero"/></svg>