<svg xmlns="http://www.w3.org/2000/svg" xmlns:xlink="http://www.w3.org/1999/xlink" width="50" zoomAndPan="magnify" viewBox="0 0 37.5 37.499999" height="50" preserveAspectRatio="xMidYMid meet" version="1.0"><defs><clipPath id="783b72fef9"><path d="M 1.484375 1.261719 L 33 1.261719 L 33 5 L 1.484375 5 Z M 1.484375 1.261719 " clip-rule="nonzero"/></clipPath><clipPath id="ab6eda5769"><path d="M 19 18 L 35.527344 18 L 35.527344 33 L 19 33 Z M 19 18 " clip-rule="nonzero"/></clipPath><clipPath id="f5b7ff84aa"><path d="M 1.484375 1.261719 L 33 1.261719 L 33 6 L 1.484375 6 Z M 1.484375 1.261719 " clip-rule="nonzero"/></clipPath><clipPath id="5bd27491ff"><path d="M 1.484375 4 L 33 4 L 33 28 L 1.484375 28 Z M 1.484375 4 " clip-rule="nonzero"/></clipPath><clipPath id="caa76a82a7"><path d="M 19 17 L 35.527344 17 L 35.527344 33 L 19 33 Z M 19 17 " clip-rule="nonzero"/></clipPath></defs><g clip-path="url(#783b72fef9)"><path fill="#935f3d" d="M 1.839844 4.675781 L 32.605469 4.675781 L 32.605469 3.199219 C 32.605469 2.320312 31.886719 1.59375 30.996094 1.59375 L 3.445312 1.59375 C 2.566406 1.597656 1.839844 2.320312 1.839844 3.199219 Z M 1.839844 4.675781 " fill-opacity="1" fill-rule="evenodd"/></g><path fill="#935f3d" d="M 15.617188 13.46875 L 14.0625 13.46875 C 13.808594 13.46875 13.589844 13.675781 13.589844 13.9375 L 13.589844 16.863281 C 14.398438 16.648438 15.246094 16.597656 16.085938 16.722656 L 16.085938 13.9375 C 16.085938 13.683594 15.871094 13.46875 15.617188 13.46875 Z M 15.617188 13.46875 " fill-opacity="1" fill-rule="evenodd"/><path fill="#935f3d" d="M 11.984375 15.761719 C 11.984375 15.507812 11.773438 15.289062 11.511719 15.289062 L 9.957031 15.289062 C 9.703125 15.289062 9.488281 15.5 9.488281 15.761719 L 9.488281 20.546875 C 9.957031 19.3125 10.894531 18.210938 11.984375 17.558594 Z M 11.984375 15.761719 " fill-opacity="1" fill-rule="evenodd"/><path fill="#935f3d" d="M 7.886719 22.414062 L 7.886719 17.519531 C 7.886719 17.261719 7.679688 17.046875 7.414062 17.046875 L 5.863281 17.046875 C 5.605469 17.046875 5.390625 17.253906 5.390625 17.519531 L 5.390625 22.410156 C 5.390625 22.429688 7.878906 22.410156 7.886719 22.414062 Z M 7.886719 22.414062 " fill-opacity="1" fill-rule="evenodd"/><path fill="#935f3d" d="M 12.125 28.035156 C 11.847656 27.871094 11.59375 27.695312 11.351562 27.503906 L 10.394531 29.15625 L 12.03125 30.097656 L 12.984375 28.4375 C 12.695312 28.328125 12.40625 28.195312 12.125 28.035156 Z M 12.125 28.035156 " fill-opacity="1" fill-rule="evenodd"/><g clip-path="url(#ab6eda5769)"><path fill="#935f3d" d="M 19.882812 26.761719 L 19.882812 31.15625 C 19.882812 31.78125 20.394531 32.300781 21.027344 32.300781 L 34.03125 32.300781 C 34.65625 32.300781 35.175781 31.789062 35.175781 31.15625 L 35.175781 19.339844 C 35.175781 18.714844 34.664062 18.199219 34.03125 18.199219 L 21.019531 18.199219 C 20.523438 18.199219 20.097656 18.511719 19.941406 18.957031 C 21.683594 21.089844 21.734375 24.414062 19.875 26.628906 L 19.875 26.761719 Z M 27.523438 30.402344 C 24.679688 30.402344 22.371094 28.09375 22.371094 25.25 C 22.585938 18.441406 32.464844 18.441406 32.679688 25.25 C 32.679688 28.09375 30.371094 30.402344 27.523438 30.402344 Z M 27.523438 30.402344 " fill-opacity="1" fill-rule="evenodd"/></g><path fill="#935f3d" d="M 24.707031 25.25 C 24.820312 28.96875 30.222656 28.96875 30.335938 25.25 C 30.238281 21.519531 24.800781 21.546875 24.707031 25.25 Z M 24.707031 25.25 " fill-opacity="1" fill-rule="evenodd"/><g clip-path="url(#f5b7ff84aa)"><path fill="#935f3d" d="M 32.605469 5.011719 L 1.839844 5.011719 C 1.65625 5.011719 1.507812 4.863281 1.507812 4.679688 L 1.507812 3.199219 C 1.507812 2.132812 2.375 1.261719 3.445312 1.261719 L 31.003906 1.261719 C 32.074219 1.261719 32.941406 2.132812 32.941406 3.199219 L 32.941406 4.675781 C 32.941406 4.863281 32.792969 5.011719 32.605469 5.011719 Z M 2.175781 4.34375 L 32.273438 4.34375 L 32.273438 3.199219 C 32.273438 2.5 31.703125 1.929688 31.003906 1.929688 L 3.445312 1.929688 C 2.746094 1.929688 2.175781 2.5 2.175781 3.199219 Z M 2.175781 4.34375 " fill-opacity="1" fill-rule="nonzero"/></g><g clip-path="url(#5bd27491ff)"><path fill="#935f3d" d="M 19.882812 27.089844 C 19.378906 27.179688 19.257812 26.464844 19.769531 26.425781 C 20.273438 26.34375 20.394531 27.050781 19.882812 27.089844 Z M 10.578125 27.089844 L 3.230469 27.089844 C 2.277344 27.089844 1.5 26.222656 1.5 25.152344 L 1.5 4.675781 C 1.5 4.492188 1.648438 4.34375 1.832031 4.34375 L 32.597656 4.34375 C 32.78125 4.34375 32.929688 4.492188 32.929688 4.675781 L 32.929688 18.199219 C 32.921875 18.632812 32.269531 18.632812 32.261719 18.199219 C 32.261719 18.199219 32.261719 5.003906 32.261719 5.003906 L 2.175781 5.003906 L 2.175781 25.148438 C 2.175781 25.847656 2.652344 26.417969 3.238281 26.417969 L 10.585938 26.417969 C 11.007812 26.425781 11.015625 27.089844 10.578125 27.089844 Z M 10.578125 27.089844 " fill-opacity="1" fill-rule="nonzero"/></g><path fill="#935f3d" d="M 7.886719 22.746094 L 5.398438 22.746094 C 5.214844 22.746094 5.0625 22.589844 5.0625 22.410156 L 5.0625 17.519531 C 5.0625 17.074219 5.425781 16.71875 5.863281 16.71875 L 7.414062 16.71875 C 7.859375 16.71875 8.214844 17.082031 8.214844 17.519531 L 8.214844 22.414062 C 8.222656 22.597656 8.066406 22.746094 7.886719 22.746094 Z M 5.71875 22.078125 L 7.550781 22.078125 L 7.550781 17.519531 C 7.550781 17.445312 7.488281 17.382812 7.410156 17.382812 L 5.863281 17.382812 C 5.789062 17.382812 5.71875 17.445312 5.71875 17.519531 Z M 5.71875 22.078125 " fill-opacity="1" fill-rule="nonzero"/><path fill="#935f3d" d="M 29.234375 15.289062 L 23.730469 15.289062 C 23.300781 15.289062 23.292969 14.625 23.730469 14.625 L 29.234375 14.625 C 29.671875 14.632812 29.671875 15.289062 29.234375 15.289062 Z M 29.234375 15.289062 " fill-opacity="1" fill-rule="nonzero"/><path fill="#935f3d" d="M 9.496094 20.882812 C 9.3125 20.882812 9.164062 20.734375 9.164062 20.550781 L 9.164062 15.769531 C 9.164062 15.324219 9.527344 14.96875 9.964844 14.96875 L 11.519531 14.96875 C 11.964844 14.96875 12.320312 15.332031 12.320312 15.769531 L 12.320312 17.566406 C 12.320312 18.003906 11.652344 18.003906 11.652344 17.566406 L 11.652344 15.769531 C 11.652344 15.695312 11.59375 15.632812 11.519531 15.632812 L 9.957031 15.632812 C 9.882812 15.632812 9.824219 15.695312 9.824219 15.769531 L 9.824219 20.550781 C 9.824219 20.726562 9.675781 20.882812 9.496094 20.882812 Z M 9.496094 20.882812 " fill-opacity="1" fill-rule="nonzero"/><path fill="#935f3d" d="M 13.589844 17.203125 C 13.410156 17.203125 13.261719 17.054688 13.261719 16.871094 L 13.261719 13.945312 C 13.261719 13.5 13.625 13.144531 14.0625 13.144531 L 15.617188 13.144531 C 16.0625 13.144531 16.417969 13.507812 16.417969 13.945312 L 16.417969 16.730469 C 16.417969 17.167969 15.75 17.167969 15.75 16.730469 C 15.75 16.730469 15.75 13.945312 15.75 13.945312 C 15.75 13.871094 15.691406 13.804688 15.617188 13.804688 L 14.0625 13.804688 C 13.988281 13.804688 13.929688 13.863281 13.929688 13.945312 L 13.929688 16.871094 C 13.921875 17.054688 13.773438 17.203125 13.589844 17.203125 Z M 13.589844 17.203125 " fill-opacity="1" fill-rule="nonzero"/><path fill="#935f3d" d="M 29.234375 11.753906 L 23.730469 11.753906 C 23.300781 11.753906 23.292969 11.085938 23.730469 11.085938 L 29.234375 11.085938 C 29.671875 11.085938 29.671875 11.753906 29.234375 11.753906 Z M 29.234375 11.753906 " fill-opacity="1" fill-rule="nonzero"/><path fill="#935f3d" d="M 29.234375 8.214844 L 23.730469 8.214844 C 23.300781 8.214844 23.292969 7.546875 23.730469 7.546875 L 29.234375 7.546875 C 29.671875 7.546875 29.671875 8.207031 29.234375 8.214844 Z M 29.234375 8.214844 " fill-opacity="1" fill-rule="nonzero"/><path fill="#935f3d" d="M 21.421875 16.292969 L 20.011719 16.292969 C 19.667969 16.292969 19.382812 16.011719 19.382812 15.667969 L 19.382812 14.253906 C 19.382812 13.910156 19.667969 13.628906 20.011719 13.628906 L 21.421875 13.628906 C 21.765625 13.628906 22.046875 13.910156 22.046875 14.253906 L 22.046875 15.667969 C 22.046875 16.011719 21.765625 16.292969 21.421875 16.292969 Z M 20.042969 14.296875 L 20.042969 15.675781 L 21.417969 15.632812 L 21.375 14.261719 Z M 20.011719 14.296875 C 20.003906 14.296875 20.011719 14.296875 20.011719 14.296875 Z M 20.011719 14.296875 " fill-opacity="1" fill-rule="nonzero"/><g clip-path="url(#caa76a82a7)"><path fill="#935f3d" d="M 34.023438 32.628906 L 21.019531 32.628906 C 20.207031 32.628906 19.546875 31.96875 19.546875 31.15625 L 19.546875 26.632812 C 19.550781 26.195312 20.207031 26.195312 20.210938 26.632812 L 20.210938 31.15625 C 20.210938 31.597656 20.574219 31.960938 21.019531 31.960938 L 34.019531 31.960938 C 34.460938 31.960938 34.824219 31.597656 34.824219 31.15625 L 34.824219 19.339844 C 34.824219 18.898438 34.460938 18.535156 34.019531 18.535156 L 21.019531 18.535156 C 20.675781 18.535156 20.375 18.75 20.253906 19.070312 C 20.191406 19.246094 20.003906 19.335938 19.828125 19.273438 C 19.652344 19.214844 19.566406 19.023438 19.625 18.851562 C 19.835938 18.265625 20.394531 17.867188 21.019531 17.867188 L 34.019531 17.867188 C 34.832031 17.867188 35.492188 18.527344 35.492188 19.339844 L 35.492188 31.148438 C 35.496094 31.96875 34.839844 32.628906 34.023438 32.628906 Z M 34.023438 32.628906 " fill-opacity="1" fill-rule="nonzero"/></g><path fill="#935f3d" d="M 27.523438 30.730469 C 22.707031 30.792969 20.199219 24.722656 23.644531 21.367188 C 23.769531 21.238281 23.988281 21.238281 24.113281 21.367188 L 25.769531 23.019531 C 25.898438 23.148438 25.898438 23.363281 25.769531 23.492188 C 25.640625 23.621094 25.425781 23.621094 25.296875 23.492188 L 23.886719 22.085938 C 21.167969 25.078125 23.46875 30.152344 27.519531 30.070312 C 30.0625 30.070312 32.152344 28.085938 32.328125 25.585938 L 30.335938 25.585938 C 30.15625 25.585938 30.007812 25.4375 30.007812 25.253906 C 30.007812 25.074219 30.15625 24.925781 30.335938 24.925781 L 32.671875 24.925781 C 32.855469 24.925781 33 25.074219 33 25.253906 C 33.007812 28.277344 30.546875 30.730469 27.523438 30.730469 Z M 27.523438 30.730469 " fill-opacity="1" fill-rule="nonzero"/><path fill="#935f3d" d="M 32.679688 25.578125 L 30.34375 25.578125 C 29.90625 25.578125 29.90625 24.910156 30.34375 24.910156 L 32.335938 24.910156 C 32.234375 23.433594 31.449219 22.074219 30.214844 21.246094 L 29.222656 22.96875 C 29.011719 23.34375 28.421875 23.007812 28.640625 22.636719 C 28.640625 22.636719 29.8125 20.613281 29.8125 20.613281 C 29.90625 20.453125 30.109375 20.398438 30.269531 20.492188 C 31.964844 21.46875 33.015625 23.289062 33.015625 25.242188 C 33.007812 25.429688 32.859375 25.578125 32.679688 25.578125 Z M 32.679688 25.578125 " fill-opacity="1" fill-rule="nonzero"/><path fill="#935f3d" d="M 25.535156 23.585938 C 25.445312 23.585938 25.367188 23.554688 25.296875 23.492188 L 23.644531 21.835938 C 23.515625 21.714844 23.515625 21.488281 23.644531 21.367188 C 25.339844 19.625 28.179688 19.253906 30.261719 20.492188 C 30.425781 20.585938 30.480469 20.789062 30.382812 20.949219 L 29.214844 22.972656 C 29.003906 23.351562 28.414062 23.015625 28.636719 22.644531 C 28.636719 22.644531 29.632812 20.921875 29.632812 20.921875 C 27.9375 20.074219 25.761719 20.355469 24.351562 21.613281 L 25.757812 23.019531 C 25.976562 23.214844 25.816406 23.601562 25.535156 23.585938 Z M 25.535156 23.585938 " fill-opacity="1" fill-rule="nonzero"/><path fill="#935f3d" d="M 27.523438 28.398438 C 23.359375 28.261719 23.367188 22.226562 27.523438 22.097656 C 31.683594 22.234375 31.683594 28.269531 27.523438 28.398438 Z M 27.523438 22.765625 C 24.25 22.851562 24.25 27.648438 27.523438 27.730469 C 30.800781 27.644531 30.796875 22.851562 27.523438 22.765625 Z M 27.523438 22.765625 " fill-opacity="1" fill-rule="nonzero"/><path fill="#935f3d" d="M 12.03125 30.433594 C 11.78125 30.441406 11.613281 30.152344 11.742188 29.9375 L 12.695312 28.277344 C 12.90625 27.898438 13.496094 28.234375 13.277344 28.605469 L 12.3125 30.273438 C 12.253906 30.375 12.144531 30.433594 12.03125 30.433594 Z M 10.394531 29.492188 C 10.148438 29.5 9.980469 29.210938 10.105469 28.996094 L 11.0625 27.339844 C 11.269531 26.964844 11.863281 27.300781 11.640625 27.671875 L 10.683594 29.324219 C 10.625 29.433594 10.511719 29.492188 10.394531 29.492188 Z M 10.394531 29.492188 " fill-opacity="1" fill-rule="nonzero"/><path fill="#935f3d" d="M 9.253906 35.675781 C 8.964844 35.738281 7.503906 34.742188 7.234375 34.632812 C 6.871094 34.433594 6.734375 33.933594 6.953125 33.578125 L 9.5 29.15625 C 9.714844 28.789062 10.1875 28.660156 10.558594 28.875 L 12.191406 29.816406 C 12.5625 30.03125 12.691406 30.503906 12.476562 30.871094 L 9.925781 35.292969 C 9.789062 35.527344 9.527344 35.683594 9.253906 35.675781 Z M 10.179688 29.441406 C 10.140625 29.441406 10.105469 29.460938 10.085938 29.492188 L 7.535156 33.914062 C 7.507812 33.980469 7.515625 34.015625 7.578125 34.0625 L 9.210938 35.003906 C 9.277344 35.03125 9.3125 35.023438 9.359375 34.964844 L 11.910156 30.542969 C 11.9375 30.496094 11.921875 30.421875 11.871094 30.394531 L 10.234375 29.453125 C 10.214844 29.441406 10.195312 29.441406 10.179688 29.441406 Z M 10.179688 29.441406 " fill-opacity="1" fill-rule="nonzero"/><path fill="#935f3d" d="M 21.421875 12.753906 L 20.011719 12.753906 C 19.667969 12.753906 19.382812 12.472656 19.382812 12.128906 L 19.382812 10.714844 C 19.382812 10.371094 19.667969 10.089844 20.011719 10.089844 L 21.421875 10.089844 C 21.765625 10.089844 22.046875 10.371094 22.046875 10.714844 L 22.046875 12.128906 C 22.046875 12.472656 21.765625 12.753906 21.421875 12.753906 Z M 20.042969 10.75 L 20.042969 12.121094 L 21.417969 12.082031 L 21.375 10.710938 Z M 20.011719 10.757812 C 20.003906 10.757812 20.011719 10.757812 20.011719 10.757812 Z M 20.011719 10.757812 " fill-opacity="1" fill-rule="nonzero"/><path fill="#935f3d" d="M 21.421875 9.207031 L 20.011719 9.207031 C 19.667969 9.207031 19.382812 8.925781 19.382812 8.582031 L 19.382812 7.171875 C 19.382812 6.828125 19.667969 6.542969 20.011719 6.542969 L 21.421875 6.542969 C 21.765625 6.542969 22.046875 6.828125 22.046875 7.171875 L 22.046875 8.582031 C 22.046875 8.933594 21.765625 9.207031 21.421875 9.207031 Z M 20.042969 7.210938 L 20.042969 8.582031 L 21.417969 8.542969 L 21.382812 7.171875 Z M 20.011719 7.210938 C 20.003906 7.210938 20.011719 7.210938 20.011719 7.210938 Z M 20.011719 7.210938 " fill-opacity="1" fill-rule="nonzero"/><path fill="#935f3d" d="M 15.167969 29.183594 C 10.335938 29.265625 7.105469 23.695312 9.609375 19.542969 C 11.378906 16.476562 15.320312 15.417969 18.390625 17.1875 C 24.046875 20.484375 21.707031 29.164062 15.167969 29.183594 Z M 15.1875 16.992188 C 9.367188 16.992188 7.199219 24.757812 12.292969 27.746094 C 14.945312 29.34375 18.671875 28.351562 20.164062 25.636719 C 22.425781 21.953125 19.484375 16.878906 15.1875 16.992188 Z M 15.1875 16.992188 " fill-opacity="1" fill-rule="nonzero"/><path fill="#935f3d" d="M 15.167969 27.394531 C 11.714844 27.480469 9.328125 23.40625 11.15625 20.429688 C 13.15625 16.878906 18.65625 17.605469 19.660156 21.546875 C 20.527344 24.402344 18.058594 27.507812 15.167969 27.394531 Z M 15.179688 18.78125 C 11.175781 18.761719 9.667969 24.164062 13.1875 26.203125 C 17.824219 28.6875 21.632812 22.078125 17.164062 19.3125 C 16.539062 18.949219 15.851562 18.78125 15.179688 18.78125 Z M 15.179688 18.78125 " fill-opacity="1" fill-rule="nonzero"/><path fill="#935f3d" d="M 7.53125 12.875 C 7.1875 12.890625 7.066406 12.371094 7.394531 12.238281 C 7.394531 12.238281 9.710938 11.226562 9.710938 11.226562 C 10.105469 11.058594 10.375 11.65625 9.980469 11.839844 L 7.664062 12.847656 C 7.617188 12.867188 7.578125 12.875 7.53125 12.875 Z M 11.628906 11.085938 C 11.285156 11.097656 11.164062 10.582031 11.492188 10.445312 L 13.808594 9.4375 C 14.203125 9.269531 14.472656 9.867188 14.078125 10.050781 C 14.078125 10.050781 11.761719 11.058594 11.761719 11.058594 C 11.722656 11.078125 11.675781 11.085938 11.628906 11.085938 Z M 11.628906 11.085938 " fill-opacity="1" fill-rule="nonzero"/><path fill="#935f3d" d="M 6.636719 14.234375 C 4.917969 14.199219 4.917969 11.652344 6.636719 11.625 C 8.359375 11.65625 8.359375 14.207031 6.636719 14.234375 Z M 6.636719 12.289062 C 5.800781 12.296875 5.800781 13.570312 6.636719 13.570312 C 7.476562 13.570312 7.476562 12.296875 6.636719 12.289062 Z M 6.636719 12.289062 " fill-opacity="1" fill-rule="nonzero"/><path fill="#935f3d" d="M 10.738281 12.445312 C 9.023438 12.410156 9.023438 9.863281 10.738281 9.835938 C 12.453125 9.867188 12.453125 12.417969 10.738281 12.445312 Z M 10.738281 10.5 C 9.90625 10.507812 9.90625 11.777344 10.738281 11.777344 C 11.574219 11.777344 11.574219 10.507812 10.738281 10.5 Z M 10.738281 10.5 " fill-opacity="1" fill-rule="nonzero"/><path fill="#935f3d" d="M 14.835938 10.65625 C 13.121094 10.621094 13.121094 8.070312 14.835938 8.042969 C 16.550781 8.078125 16.550781 10.628906 14.835938 10.65625 Z M 14.835938 8.710938 C 13.996094 8.71875 13.996094 9.988281 14.835938 9.988281 C 15.675781 9.988281 15.675781 8.71875 14.835938 8.710938 Z M 14.835938 8.710938 " fill-opacity="1" fill-rule="nonzero"/></svg>