<svg xmlns="http://www.w3.org/2000/svg" xmlns:xlink="http://www.w3.org/1999/xlink" width="40" zoomAndPan="magnify" viewBox="0 0 30 30.000001" height="40" preserveAspectRatio="xMidYMid meet" version="1.0"><defs><clipPath id="dfe2517506"><path d="M 0.484375 0 L 29.515625 0 L 29.515625 29.03125 L 0.484375 29.03125 Z M 0.484375 0 " clip-rule="nonzero"/></clipPath><clipPath id="4480b9b265"><path d="M 2 20 L 27 20 L 27 23.496094 L 2 23.496094 Z M 2 20 " clip-rule="nonzero"/></clipPath><clipPath id="4014ed610f"><path d="M 0.484375 5.351562 L 29.515625 5.351562 L 29.515625 20 L 0.484375 20 Z M 0.484375 5.351562 " clip-rule="nonzero"/></clipPath></defs><g clip-path="url(#dfe2517506)"><path fill="#ffffff" d="M 0.484375 0 L 29.515625 0 L 29.515625 29.03125 L 0.484375 29.03125 Z M 0.484375 0 " fill-opacity="1" fill-rule="nonzero"/><path fill="#ffffff" d="M 0.484375 0 L 29.515625 0 L 29.515625 29.03125 L 0.484375 29.03125 Z M 0.484375 0 " fill-opacity="1" fill-rule="nonzero"/></g><path fill="#925f3d" d="M 12.554688 10.558594 L 11.261719 14.292969 L 11.753906 14.292969 L 12.152344 13.09375 L 13.488281 13.09375 L 13.886719 14.292969 L 14.421875 14.292969 L 13.132812 10.558594 Z M 12.285156 12.738281 L 12.640625 11.667969 C 12.730469 11.445312 12.777344 11.222656 12.820312 11.003906 C 12.863281 11.222656 12.953125 11.445312 13 11.667969 L 13.355469 12.738281 Z M 12.285156 12.738281 " fill-opacity="1" fill-rule="nonzero"/><path fill="#925f3d" d="M 15.933594 10.511719 C 15.535156 10.511719 15.222656 10.558594 15 10.601562 L 15 14.292969 L 15.488281 14.292969 L 15.488281 12.78125 C 15.621094 12.824219 15.757812 12.824219 15.890625 12.824219 C 16.378906 12.824219 16.777344 12.691406 17.046875 12.425781 C 17.222656 12.246094 17.359375 11.980469 17.359375 11.625 C 17.359375 11.269531 17.222656 11.003906 17.046875 10.824219 C 16.734375 10.644531 16.378906 10.511719 15.933594 10.511719 Z M 15.890625 12.425781 C 15.710938 12.425781 15.578125 12.425781 15.488281 12.382812 L 15.488281 10.914062 C 15.578125 10.914062 15.757812 10.867188 15.933594 10.867188 C 16.46875 10.867188 16.824219 11.089844 16.824219 11.625 C 16.824219 12.160156 16.46875 12.425781 15.890625 12.425781 Z M 15.890625 12.425781 " fill-opacity="1" fill-rule="nonzero"/><path fill="#925f3d" d="M 17.9375 10.558594 L 18.425781 10.558594 L 18.425781 14.292969 L 17.9375 14.292969 Z M 17.9375 10.558594 " fill-opacity="1" fill-rule="nonzero"/><g clip-path="url(#4480b9b265)"><path fill="#925f3d" d="M 26.519531 20.433594 L 3.210938 20.433594 C 3.035156 20.433594 2.855469 20.566406 2.855469 20.789062 C 2.855469 22.390625 4.144531 23.679688 5.746094 23.679688 L 23.894531 23.679688 C 25.496094 23.679688 26.789062 22.390625 26.789062 20.789062 C 26.832031 20.566406 26.699219 20.433594 26.519531 20.433594 Z M 23.941406 23.011719 L 5.792969 23.011719 C 4.679688 23.011719 3.746094 22.167969 3.566406 21.097656 L 26.164062 21.097656 C 25.988281 22.167969 25.054688 23.011719 23.941406 23.011719 Z M 23.941406 23.011719 " fill-opacity="1" fill-rule="nonzero"/></g><g clip-path="url(#4014ed610f)"><path fill="#925f3d" d="M 25.230469 12.960938 L 26.566406 12.960938 C 26.699219 13.582031 27.277344 14.027344 27.945312 14.027344 C 28.699219 14.027344 29.367188 13.402344 29.367188 12.601562 C 29.367188 11.847656 28.746094 11.179688 27.945312 11.179688 C 27.277344 11.179688 26.742188 11.625 26.566406 12.246094 L 25.230469 12.246094 L 25.230469 9.179688 L 26.566406 9.179688 C 26.699219 9.800781 27.277344 10.246094 27.945312 10.246094 C 28.699219 10.246094 29.367188 9.625 29.367188 8.824219 C 29.367188 8.066406 28.746094 7.398438 27.945312 7.398438 C 27.277344 7.398438 26.742188 7.84375 26.566406 8.464844 L 25.230469 8.464844 L 25.230469 5.707031 C 25.230469 5.53125 25.097656 5.351562 24.875 5.351562 L 4.8125 5.351562 C 4.636719 5.351562 4.457031 5.484375 4.457031 5.707031 L 4.457031 8.464844 L 3.390625 8.464844 C 3.257812 7.933594 2.679688 7.445312 2.054688 7.445312 C 1.300781 7.445312 0.632812 8.066406 0.632812 8.867188 C 0.632812 9.625 1.253906 10.289062 2.054688 10.289062 C 2.722656 10.289062 3.257812 9.84375 3.433594 9.222656 L 4.503906 9.222656 L 4.503906 12.292969 L 3.390625 12.292969 C 3.257812 11.667969 2.679688 11.222656 2.011719 11.222656 C 1.253906 11.222656 0.585938 11.847656 0.585938 12.648438 C 0.585938 13.402344 1.210938 14.070312 2.011719 14.070312 C 2.679688 14.070312 3.210938 13.625 3.390625 13.003906 L 4.457031 13.003906 L 4.457031 16.074219 L 3.390625 16.074219 C 3.257812 15.449219 2.679688 15.003906 2.011719 15.003906 C 1.253906 15.003906 0.585938 15.628906 0.585938 16.429688 C 0.585938 17.183594 1.210938 17.851562 2.011719 17.851562 C 2.679688 17.851562 3.210938 17.40625 3.390625 16.785156 L 4.457031 16.785156 L 4.457031 19.542969 C 4.457031 19.71875 4.589844 19.898438 4.8125 19.898438 L 24.917969 19.898438 C 25.097656 19.898438 25.273438 19.765625 25.273438 19.542969 L 25.273438 16.785156 L 26.609375 16.785156 C 26.742188 17.40625 27.320312 17.851562 27.988281 17.851562 C 28.746094 17.851562 29.414062 17.230469 29.414062 16.429688 C 29.414062 15.671875 28.789062 15.003906 27.988281 15.003906 C 27.320312 15.003906 26.789062 15.449219 26.609375 16.074219 L 25.273438 16.074219 L 25.273438 12.960938 Z M 27.945312 11.847656 C 28.34375 11.847656 28.699219 12.160156 28.699219 12.601562 C 28.699219 13.003906 28.390625 13.359375 27.945312 13.359375 C 27.542969 13.359375 27.1875 13.046875 27.1875 12.601562 C 27.234375 12.203125 27.542969 11.847656 27.945312 11.847656 Z M 27.945312 8.109375 C 28.34375 8.109375 28.699219 8.421875 28.699219 8.867188 C 28.699219 9.265625 28.390625 9.625 27.945312 9.625 C 27.542969 9.625 27.1875 9.3125 27.1875 8.867188 C 27.234375 8.464844 27.542969 8.109375 27.945312 8.109375 Z M 2.054688 9.625 C 1.65625 9.625 1.300781 9.3125 1.300781 8.867188 C 1.300781 8.464844 1.609375 8.109375 2.054688 8.109375 C 2.5 8.109375 2.8125 8.421875 2.8125 8.867188 C 2.765625 9.265625 2.457031 9.625 2.054688 9.625 Z M 2.054688 13.359375 C 1.65625 13.359375 1.300781 13.046875 1.300781 12.601562 C 1.300781 12.203125 1.609375 11.847656 2.054688 11.847656 C 2.5 11.847656 2.8125 12.160156 2.8125 12.601562 C 2.765625 13.003906 2.457031 13.359375 2.054688 13.359375 Z M 2.054688 17.097656 C 1.65625 17.097656 1.300781 16.785156 1.300781 16.339844 C 1.300781 15.941406 1.609375 15.582031 2.054688 15.582031 C 2.5 15.582031 2.8125 15.894531 2.8125 16.339844 C 2.765625 16.742188 2.457031 17.097656 2.054688 17.097656 Z M 27.945312 15.582031 C 28.34375 15.582031 28.699219 15.894531 28.699219 16.339844 C 28.699219 16.742188 28.390625 17.097656 27.945312 17.097656 C 27.542969 17.097656 27.1875 16.785156 27.1875 16.339844 C 27.234375 15.941406 27.542969 15.582031 27.945312 15.582031 Z M 24.5625 16.027344 L 24.074219 16.027344 L 23.894531 15.851562 L 23.894531 12.914062 L 24.5625 12.914062 Z M 19.539062 15.050781 L 21.628906 15.050781 L 23.230469 16.207031 L 23.230469 17.761719 L 6.503906 17.761719 L 6.503906 16.207031 L 8.105469 15.050781 L 10.195312 15.050781 C 10.375 15.050781 10.550781 14.917969 10.550781 14.695312 C 10.550781 14.472656 10.417969 14.339844 10.195312 14.339844 L 7.972656 14.339844 C 7.882812 14.339844 7.839844 14.339844 7.792969 14.382812 L 6.460938 15.316406 L 6.460938 12.871094 L 10.242188 12.871094 C 10.417969 12.871094 10.597656 12.738281 10.597656 12.515625 C 10.597656 12.335938 10.460938 12.160156 10.242188 12.160156 L 6.460938 12.160156 L 6.460938 9.710938 L 7.792969 10.644531 C 7.839844 10.691406 7.925781 10.691406 7.972656 10.691406 L 10.195312 10.691406 C 10.375 10.691406 10.550781 10.558594 10.550781 10.335938 C 10.550781 10.15625 10.417969 9.980469 10.195312 9.980469 L 8.105469 9.980469 L 6.503906 8.824219 L 6.503906 7.445312 L 23.273438 7.445312 L 23.273438 9 L 21.671875 10.15625 L 19.582031 10.15625 C 19.402344 10.15625 19.226562 10.289062 19.226562 10.511719 C 19.226562 10.691406 19.359375 10.867188 19.582031 10.867188 L 21.804688 10.867188 C 21.894531 10.867188 21.9375 10.867188 21.984375 10.824219 L 23.316406 9.890625 L 23.316406 12.335938 L 19.449219 12.335938 C 19.269531 12.335938 19.09375 12.46875 19.09375 12.691406 C 19.09375 12.871094 19.226562 13.046875 19.449219 13.046875 L 23.230469 13.046875 L 23.230469 15.496094 L 21.894531 14.5625 C 21.851562 14.515625 21.761719 14.515625 21.714844 14.515625 L 19.492188 14.515625 C 19.316406 14.515625 19.136719 14.648438 19.136719 14.871094 C 19.136719 15.09375 19.316406 15.050781 19.539062 15.050781 Z M 24.5625 12.292969 L 23.894531 12.292969 L 23.894531 9.355469 L 24.117188 9.222656 L 24.609375 9.222656 L 24.609375 12.292969 Z M 5.125 6.109375 L 24.5625 6.109375 L 24.5625 8.511719 L 23.984375 8.511719 C 23.941406 8.511719 23.941406 8.511719 23.894531 8.511719 L 23.894531 7.085938 C 23.894531 6.910156 23.761719 6.777344 23.539062 6.777344 L 6.148438 6.777344 C 5.96875 6.777344 5.792969 6.910156 5.792969 7.085938 L 5.792969 8.511719 C 5.746094 8.511719 5.746094 8.511719 5.703125 8.511719 L 5.125 8.511719 Z M 5.125 9.179688 L 5.613281 9.179688 L 5.792969 9.3125 L 5.792969 12.246094 L 5.125 12.246094 Z M 5.125 12.960938 L 5.792969 12.960938 L 5.792969 15.894531 L 5.613281 16.027344 L 5.125 16.027344 Z M 24.5625 19.097656 L 5.125 19.097656 L 5.125 16.695312 L 5.703125 16.695312 C 5.746094 16.695312 5.746094 16.695312 5.792969 16.695312 L 5.792969 18.121094 C 5.792969 18.296875 5.925781 18.476562 6.148438 18.476562 L 23.585938 18.476562 C 23.761719 18.476562 23.941406 18.339844 23.941406 18.121094 L 23.941406 16.695312 C 23.984375 16.695312 23.984375 16.695312 24.03125 16.695312 L 24.609375 16.695312 L 24.609375 19.097656 Z M 24.5625 19.097656 " fill-opacity="1" fill-rule="nonzero"/></g></svg>