<svg xmlns="http://www.w3.org/2000/svg" xmlns:xlink="http://www.w3.org/1999/xlink" width="40" zoomAndPan="magnify" viewBox="0 0 30 30.000001" height="40" preserveAspectRatio="xMidYMid meet" version="1.0"><defs><clipPath id="312d4cef4a"><path d="M 0.484375 0 L 29.515625 0 L 29.515625 29.03125 L 0.484375 29.03125 Z M 0.484375 0 " clip-rule="nonzero"/></clipPath><clipPath id="5a83f82cae"><path d="M 0.484375 13 L 29.515625 13 L 29.515625 29 L 0.484375 29 Z M 0.484375 13 " clip-rule="nonzero"/></clipPath><clipPath id="6b0da3f65c"><path d="M 2 0.34375 L 26 0.34375 L 26 14 L 2 14 Z M 2 0.34375 " clip-rule="nonzero"/></clipPath></defs><g clip-path="url(#312d4cef4a)"><path fill="#ffffff" d="M 0.484375 0 L 29.515625 0 L 29.515625 29.03125 L 0.484375 29.03125 Z M 0.484375 0 " fill-opacity="1" fill-rule="nonzero"/><path fill="#ffffff" d="M 0.484375 0 L 29.515625 0 L 29.515625 29.03125 L 0.484375 29.03125 Z M 0.484375 0 " fill-opacity="1" fill-rule="nonzero"/></g><g clip-path="url(#5a83f82cae)"><path fill="#925f3d" d="M 28.980469 14.746094 C 28.160156 13.710938 26.683594 13.507812 25.617188 14.285156 L 19.007812 19.109375 L 15.671875 16.65625 C 15.023438 16.1875 14.257812 15.9375 13.453125 15.9375 L 12.851562 15.9375 C 12.566406 15.9375 12.332031 16.167969 12.332031 16.457031 C 12.332031 16.742188 12.566406 16.976562 12.851562 16.976562 L 13.453125 16.976562 C 14.035156 16.976562 14.59375 17.15625 15.0625 17.496094 L 18.125 19.75 L 16.769531 20.738281 C 16.222656 21.140625 15.507812 21.195312 14.902344 20.882812 L 13.03125 19.917969 C 12.773438 19.785156 12.460938 19.882812 12.332031 20.140625 C 12.199219 20.394531 12.296875 20.707031 12.554688 20.839844 L 14.429688 21.804688 C 15.382812 22.300781 16.515625 22.210938 17.382812 21.578125 L 26.230469 15.125 C 26.84375 14.675781 27.695312 14.792969 28.164062 15.390625 C 28.703125 16.070312 28.609375 17.046875 27.945312 17.613281 L 16.738281 27.15625 C 16.039062 27.753906 15.082031 27.898438 14.238281 27.535156 L 7.746094 24.75 L 7.746094 16.101562 C 7.746094 15.3125 7.105469 14.671875 6.316406 14.671875 L 1.910156 14.671875 C 1.125 14.671875 0.484375 15.3125 0.484375 16.101562 L 0.484375 25.289062 C 0.484375 26.074219 1.125 26.714844 1.910156 26.714844 L 6.316406 26.714844 C 6.910156 26.714844 7.421875 26.351562 7.636719 25.835938 L 13.832031 28.488281 C 15.039062 29.007812 16.410156 28.800781 17.410156 27.949219 L 28.617188 18.402344 C 29.707031 17.472656 29.867188 15.867188 28.980469 14.746094 Z M 6.316406 25.675781 L 1.910156 25.675781 C 1.695312 25.675781 1.523438 25.503906 1.523438 25.289062 L 1.523438 16.101562 C 1.523438 15.886719 1.695312 15.710938 1.910156 15.710938 L 6.316406 15.710938 C 6.53125 15.710938 6.707031 15.886719 6.707031 16.101562 L 6.707031 25.289062 C 6.707031 25.503906 6.53125 25.675781 6.316406 25.675781 Z M 6.316406 25.675781 " fill-opacity="1" fill-rule="nonzero"/></g><g clip-path="url(#6b0da3f65c)"><path fill="#925f3d" d="M 4.097656 13.222656 L 25.136719 13.230469 C 25.421875 13.230469 25.65625 13 25.65625 12.710938 L 25.65625 0.992188 C 25.65625 0.707031 25.421875 0.472656 25.136719 0.472656 L 19.171875 0.472656 C 18.882812 0.472656 18.652344 0.707031 18.652344 0.992188 L 18.652344 6.746094 L 15.773438 4.480469 C 15.585938 4.332031 15.320312 4.332031 15.128906 4.480469 L 12.832031 6.292969 C 12.773438 4.953125 11.753906 3.855469 10.441406 3.675781 L 11.199219 2.355469 C 11.351562 2.089844 11.386719 1.785156 11.296875 1.496094 C 11.207031 1.207031 10.996094 0.960938 10.71875 0.820312 L 10.28125 0.605469 C 9.8125 0.375 9.246094 0.484375 8.902344 0.875 L 8.390625 1.453125 C 8.347656 1.5 8.257812 1.5 8.21875 1.453125 L 7.699219 0.859375 C 7.371094 0.484375 6.839844 0.363281 6.378906 0.558594 L 5.753906 0.820312 C 5.449219 0.949219 5.21875 1.199219 5.117188 1.507812 C 5.023438 1.808594 5.0625 2.136719 5.226562 2.40625 L 5.996094 3.671875 C 4.632812 3.84375 3.578125 5.003906 3.578125 6.40625 L 3.578125 8.25 C 3.578125 9.472656 3.128906 10.21875 2.726562 11.03125 C 2.226562 12.039062 2.964844 13.222656 4.097656 13.222656 Z M 16.09375 12.1875 L 14.839844 12.1875 L 14.839844 9.644531 L 16.09375 9.644531 Z M 19.691406 1.511719 L 24.617188 1.511719 L 24.617188 12.191406 L 19.691406 12.191406 Z M 15.453125 5.546875 L 18.652344 8.066406 L 18.652344 12.1875 L 17.132812 12.1875 L 17.132812 9.558594 C 17.132812 9.035156 16.703125 8.609375 16.179688 8.609375 L 14.753906 8.609375 C 14.230469 8.609375 13.800781 9.035156 13.800781 9.558594 L 13.800781 12.1875 L 12.25 12.183594 L 12.25 8.066406 Z M 6.15625 1.777344 L 6.78125 1.515625 C 6.828125 1.492188 6.886719 1.503906 6.917969 1.539062 L 7.433594 2.132812 C 7.886719 2.65625 8.710938 2.65625 9.167969 2.140625 L 9.679688 1.558594 C 9.710938 1.523438 9.773438 1.515625 9.824219 1.539062 C 10.546875 1.894531 10.386719 1.6875 9.261719 3.648438 L 7.195312 3.648438 C 6.09375 1.832031 6.023438 1.832031 6.15625 1.777344 Z M 3.65625 11.492188 C 4.109375 10.582031 4.617188 9.710938 4.617188 8.25 L 4.617188 6.40625 C 4.617188 5.457031 5.394531 4.683594 6.351562 4.683594 L 10.058594 4.6875 C 11.015625 4.6875 11.796875 5.457031 11.796875 6.40625 L 11.796875 7.105469 L 11.410156 7.410156 C 11.285156 7.507812 11.214844 7.65625 11.214844 7.816406 L 11.214844 12.183594 L 4.097656 12.183594 C 3.734375 12.183594 3.5 11.8125 3.65625 11.492188 Z M 3.65625 11.492188 " fill-opacity="1" fill-rule="nonzero"/></g><path fill="#925f3d" d="M 23.125 4.371094 C 23.410156 4.371094 23.640625 4.140625 23.640625 3.851562 L 23.640625 3.550781 C 23.640625 3.261719 23.410156 3.03125 23.125 3.03125 C 22.835938 3.03125 22.605469 3.261719 22.605469 3.550781 L 22.605469 3.851562 C 22.605469 4.140625 22.835938 4.371094 23.125 4.371094 Z M 23.125 4.371094 " fill-opacity="1" fill-rule="nonzero"/><path fill="#925f3d" d="M 21.082031 4.371094 C 21.367188 4.371094 21.597656 4.140625 21.597656 3.851562 L 21.597656 3.550781 C 21.597656 3.261719 21.367188 3.03125 21.082031 3.03125 C 20.792969 3.03125 20.5625 3.261719 20.5625 3.550781 L 20.5625 3.851562 C 20.5625 4.140625 20.792969 4.371094 21.082031 4.371094 Z M 21.082031 4.371094 " fill-opacity="1" fill-rule="nonzero"/><path fill="#925f3d" d="M 23.125 6.398438 C 23.410156 6.398438 23.640625 6.167969 23.640625 5.878906 L 23.640625 5.578125 C 23.640625 5.289062 23.410156 5.058594 23.125 5.058594 C 22.835938 5.058594 22.605469 5.289062 22.605469 5.578125 L 22.605469 5.878906 C 22.605469 6.167969 22.835938 6.398438 23.125 6.398438 Z M 23.125 6.398438 " fill-opacity="1" fill-rule="nonzero"/><path fill="#925f3d" d="M 21.082031 6.398438 C 21.367188 6.398438 21.597656 6.167969 21.597656 5.878906 L 21.597656 5.578125 C 21.597656 5.289062 21.367188 5.058594 21.082031 5.058594 C 20.792969 5.058594 20.5625 5.289062 20.5625 5.578125 L 20.5625 5.878906 C 20.5625 6.167969 20.792969 6.398438 21.082031 6.398438 Z M 21.082031 6.398438 " fill-opacity="1" fill-rule="nonzero"/><path fill="#925f3d" d="M 23.226562 7.304688 C 22.941406 7.304688 22.707031 7.535156 22.707031 7.824219 L 22.707031 8.128906 C 22.707031 8.414062 22.941406 8.648438 23.226562 8.648438 C 23.511719 8.648438 23.746094 8.414062 23.746094 8.128906 L 23.746094 7.824219 C 23.746094 7.535156 23.511719 7.304688 23.226562 7.304688 Z M 23.226562 7.304688 " fill-opacity="1" fill-rule="nonzero"/><path fill="#925f3d" d="M 21.183594 7.304688 C 20.898438 7.304688 20.664062 7.535156 20.664062 7.824219 L 20.664062 8.128906 C 20.664062 8.414062 20.898438 8.648438 21.183594 8.648438 C 21.46875 8.648438 21.703125 8.414062 21.703125 8.128906 L 21.703125 7.824219 C 21.703125 7.535156 21.46875 7.304688 21.183594 7.304688 Z M 21.183594 7.304688 " fill-opacity="1" fill-rule="nonzero"/><path fill="#925f3d" d="M 23.226562 9.332031 C 22.941406 9.332031 22.707031 9.566406 22.707031 9.851562 L 22.707031 10.15625 C 22.707031 10.441406 22.941406 10.675781 23.226562 10.675781 C 23.511719 10.675781 23.746094 10.441406 23.746094 10.15625 L 23.746094 9.851562 C 23.746094 9.566406 23.511719 9.332031 23.226562 9.332031 Z M 23.226562 9.332031 " fill-opacity="1" fill-rule="nonzero"/><path fill="#925f3d" d="M 21.183594 9.332031 C 20.898438 9.332031 20.664062 9.566406 20.664062 9.851562 L 20.664062 10.15625 C 20.664062 10.441406 20.898438 10.675781 21.183594 10.675781 C 21.46875 10.675781 21.703125 10.441406 21.703125 10.15625 L 21.703125 9.851562 C 21.703125 9.566406 21.46875 9.332031 21.183594 9.332031 Z M 21.183594 9.332031 " fill-opacity="1" fill-rule="nonzero"/><path fill="#925f3d" d="M 8.207031 8.875 C 8.445312 8.875 8.636719 9.066406 8.636719 9.304688 C 8.636719 9.542969 8.445312 9.738281 8.207031 9.738281 C 8.019531 9.738281 7.855469 9.621094 7.796875 9.445312 C 7.703125 9.171875 7.410156 9.027344 7.136719 9.121094 C 6.867188 9.210938 6.71875 9.507812 6.8125 9.777344 C 6.957031 10.203125 7.28125 10.527344 7.6875 10.679688 L 7.6875 11 C 7.6875 11.289062 7.917969 11.519531 8.207031 11.519531 C 8.492188 11.519531 8.722656 11.289062 8.722656 11 L 8.722656 10.683594 C 9.28125 10.472656 9.675781 9.933594 9.675781 9.304688 C 9.675781 8.496094 9.015625 7.835938 8.207031 7.835938 C 7.964844 7.835938 7.773438 7.640625 7.773438 7.402344 C 7.773438 7.164062 7.964844 6.972656 8.207031 6.972656 C 8.34375 6.972656 8.476562 7.039062 8.558594 7.152344 C 8.722656 7.386719 9.046875 7.441406 9.28125 7.273438 C 9.515625 7.109375 9.570312 6.785156 9.402344 6.550781 C 9.230469 6.308594 8.992188 6.128906 8.722656 6.027344 L 8.722656 5.617188 C 8.722656 5.332031 8.492188 5.101562 8.207031 5.101562 C 7.917969 5.101562 7.6875 5.332031 7.6875 5.617188 L 7.6875 6.027344 C 7.128906 6.238281 6.734375 6.773438 6.734375 7.402344 C 6.734375 8.214844 7.394531 8.875 8.207031 8.875 Z M 8.207031 8.875 " fill-opacity="1" fill-rule="nonzero"/><path fill="#925f3d" d="M 11.640625 16.441406 C 11.640625 16.601562 11.585938 16.742188 11.46875 16.855469 C 11.355469 16.96875 11.21875 17.023438 11.058594 17.023438 C 10.894531 17.023438 10.757812 16.96875 10.644531 16.855469 C 10.53125 16.742188 10.472656 16.601562 10.472656 16.441406 C 10.472656 16.28125 10.53125 16.140625 10.644531 16.027344 C 10.757812 15.914062 10.894531 15.859375 11.058594 15.859375 C 11.21875 15.859375 11.355469 15.914062 11.46875 16.027344 C 11.585938 16.140625 11.640625 16.28125 11.640625 16.441406 Z M 11.640625 16.441406 " fill-opacity="1" fill-rule="nonzero"/><path fill="#925f3d" d="M 9.824219 16.441406 C 9.824219 16.601562 9.765625 16.742188 9.652344 16.855469 C 9.539062 16.96875 9.402344 17.023438 9.242188 17.023438 C 9.078125 17.023438 8.941406 16.96875 8.828125 16.855469 C 8.714844 16.742188 8.65625 16.601562 8.65625 16.441406 C 8.65625 16.28125 8.714844 16.140625 8.828125 16.027344 C 8.941406 15.914062 9.078125 15.859375 9.242188 15.859375 C 9.402344 15.859375 9.539062 15.914062 9.652344 16.027344 C 9.765625 16.140625 9.824219 16.28125 9.824219 16.441406 Z M 9.824219 16.441406 " fill-opacity="1" fill-rule="nonzero"/></svg>