<svg xmlns="http://www.w3.org/2000/svg" xmlns:xlink="http://www.w3.org/1999/xlink" width="40" zoomAndPan="magnify" viewBox="0 0 30 30.000001" height="40" preserveAspectRatio="xMidYMid meet" version="1.0"><defs><clipPath id="da654140e7"><path d="M 0.484375 0 L 29.515625 0 L 29.515625 29.03125 L 0.484375 29.03125 Z M 0.484375 0 " clip-rule="nonzero"/></clipPath><clipPath id="983f9a2cbc"><path d="M 4.839844 0 L 25.160156 0 L 25.160156 29.03125 L 4.839844 29.03125 Z M 4.839844 0 " clip-rule="nonzero"/></clipPath></defs><g clip-path="url(#da654140e7)"><path fill="#ffffff" d="M 0.484375 0 L 29.515625 0 L 29.515625 29.03125 L 0.484375 29.03125 Z M 0.484375 0 " fill-opacity="1" fill-rule="nonzero"/><path fill="#ffffff" d="M 0.484375 0 L 29.515625 0 L 29.515625 29.03125 L 0.484375 29.03125 Z M 0.484375 0 " fill-opacity="1" fill-rule="nonzero"/></g><g clip-path="url(#983f9a2cbc)"><path fill="#925f3d" d="M 7.695312 20.410156 C 7.453125 20.410156 7.257812 20.210938 7.257812 19.972656 C 7.257812 19.726562 7.457031 19.535156 7.695312 19.535156 L 10.496094 19.535156 C 10.738281 19.535156 10.933594 19.726562 10.933594 19.972656 C 10.933594 20.210938 10.738281 20.410156 10.496094 20.410156 Z M 7.695312 18.144531 C 7.453125 18.144531 7.257812 17.949219 7.257812 17.707031 C 7.257812 17.464844 7.457031 17.269531 7.695312 17.269531 L 12.011719 17.269531 C 12.257812 17.269531 12.449219 17.464844 12.449219 17.707031 C 12.449219 17.949219 12.257812 18.144531 12.011719 18.144531 Z M 7.695312 15.882812 C 7.453125 15.882812 7.257812 15.683594 7.257812 15.445312 C 7.257812 15.203125 7.457031 15.007812 7.695312 15.007812 L 13.699219 15.007812 C 13.941406 15.007812 14.136719 15.203125 14.136719 15.445312 C 14.136719 15.6875 13.941406 15.882812 13.699219 15.882812 Z M 10.785156 5.417969 L 14.710938 8.808594 C 15.015625 9.074219 14.835938 9.585938 14.40625 9.578125 L 13.507812 9.570312 L 13.507812 12.707031 C 13.507812 12.882812 13.433594 13.039062 13.308594 13.152344 C 13.199219 13.253906 13.046875 13.316406 12.882812 13.316406 L 8.054688 13.316406 C 7.714844 13.316406 7.425781 13.050781 7.425781 12.707031 L 7.425781 9.570312 L 6.457031 9.574219 C 6.046875 9.574219 5.863281 9.066406 6.171875 8.804688 L 10.203125 5.402344 C 10.375 5.257812 10.625 5.265625 10.785156 5.417969 Z M 12.632812 9.566406 L 12.121094 9.5625 C 12.003906 9.558594 11.902344 9.515625 11.824219 9.441406 L 10.488281 8.1875 L 9.050781 9.453125 C 8.960938 9.527344 8.855469 9.5625 8.75 9.5625 L 8.300781 9.5625 L 8.300781 12.441406 L 12.632812 12.441406 Z M 13.242188 8.695312 L 10.480469 6.308594 L 7.65625 8.695312 L 8.59375 8.691406 L 10.195312 7.285156 C 10.359375 7.125 10.628906 7.121094 10.796875 7.28125 L 12.296875 8.691406 Z M 19.472656 0.882812 L 19.472656 1.316406 C 19.472656 1.804688 19.199219 2.238281 18.75 2.539062 C 18.351562 2.808594 17.8125 2.972656 17.230469 2.972656 L 10.160156 2.972656 C 9.570312 2.972656 9.03125 2.808594 8.636719 2.539062 C 8.191406 2.238281 7.914062 1.804688 7.914062 1.316406 L 7.914062 0.882812 L 7.6875 0.882812 C 6.636719 0.882812 5.714844 1.660156 5.714844 2.699219 L 5.714844 21.644531 L 14.796875 21.644531 C 14.46875 20.25 14.671875 18.894531 16.152344 18.035156 C 16.203125 16.542969 16.1875 16.398438 16.171875 15.414062 L 15.8125 15.414062 C 14.933594 15.414062 14.210938 14.691406 14.210938 13.8125 L 14.210938 13.316406 C 14.210938 12.433594 14.933594 11.714844 15.8125 11.714844 L 19.605469 11.714844 C 20.488281 11.714844 21.207031 12.433594 21.207031 13.316406 L 21.207031 13.8125 C 21.207031 14.691406 20.488281 15.414062 19.605469 15.414062 L 19.054688 15.414062 L 19.054688 16.117188 C 19.578125 15.949219 20.21875 16.027344 20.648438 16.378906 C 20.9375 16.171875 21.3125 16.089844 21.675781 16.113281 L 21.675781 2.695312 C 21.675781 1.660156 20.75 0.882812 19.703125 0.882812 Z M 8.789062 0.882812 L 8.789062 1.316406 C 8.789062 1.496094 8.917969 1.675781 9.125 1.816406 C 9.386719 1.992188 9.75 2.097656 10.160156 2.097656 L 17.230469 2.097656 C 17.636719 2.097656 18.003906 1.992188 18.261719 1.816406 C 18.46875 1.675781 18.597656 1.496094 18.597656 1.316406 L 18.597656 0.882812 Z M 16.453125 7.023438 C 16.285156 6.851562 16.285156 6.574219 16.453125 6.402344 C 16.625 6.234375 16.902344 6.234375 17.074219 6.402344 L 17.550781 6.875 L 18.492188 5.242188 C 18.613281 5.035156 18.878906 4.964844 19.085938 5.085938 C 19.296875 5.207031 19.367188 5.472656 19.246094 5.679688 L 18.035156 7.78125 C 17.882812 8.070312 17.53125 8.101562 17.332031 7.898438 Z M 17.816406 3.386719 C 19.550781 3.386719 20.957031 4.792969 20.957031 6.523438 C 20.957031 8.257812 19.550781 9.664062 17.816406 9.664062 C 16.085938 9.664062 14.679688 8.257812 14.679688 6.523438 C 14.679688 4.792969 16.085938 3.386719 17.816406 3.386719 Z M 19.417969 4.925781 C 18.53125 4.042969 17.101562 4.042969 16.21875 4.925781 C 15.332031 5.808594 15.332031 7.242188 16.21875 8.128906 C 17.101562 9.011719 18.53125 9.011719 19.417969 8.128906 C 20.300781 7.242188 20.300781 5.808594 19.417969 4.925781 Z M 24.25 28.046875 L 24.25 26.886719 C 24.25 26.828125 24.203125 26.777344 24.144531 26.777344 L 17.265625 26.777344 C 17.203125 26.777344 17.15625 26.828125 17.15625 26.886719 L 17.15625 28.046875 C 17.15625 28.105469 17.207031 28.152344 17.265625 28.152344 L 24.144531 28.152344 C 24.203125 28.152344 24.25 28.105469 24.25 28.046875 Z M 25.125 26.886719 L 25.125 28.046875 C 25.125 28.589844 24.683594 29.03125 24.144531 29.03125 L 17.265625 29.03125 C 16.722656 29.03125 16.28125 28.589844 16.28125 28.046875 L 16.28125 26.886719 C 16.28125 26.46875 16.546875 26.105469 16.925781 25.964844 L 16.367188 25.070312 L 7.6875 25.070312 C 6.164062 25.070312 4.839844 23.894531 4.839844 22.375 L 4.839844 2.695312 C 4.839844 1.179688 6.164062 0.00390625 7.6875 0.00390625 C 11.691406 0.00390625 15.695312 0.00390625 19.703125 0.00390625 C 21.226562 0.00390625 22.550781 1.179688 22.550781 2.695312 L 22.550781 16.398438 C 22.84375 16.59375 23.058594 16.886719 23.113281 17.265625 C 23.546875 17.148438 24.035156 17.238281 24.417969 17.492188 C 24.839844 17.769531 25.160156 18.25 25.160156 18.941406 C 25.160156 21.722656 25.085938 20.144531 25.109375 22.933594 C 25.109375 22.972656 25.101562 23.011719 25.09375 23.050781 L 24.398438 25.9375 C 24.824219 26.050781 25.125 26.4375 25.125 26.886719 Z M 17.902344 25.902344 L 23.511719 25.902344 L 24.234375 22.886719 C 24.222656 21.464844 24.238281 21.207031 24.253906 20.90625 C 24.269531 20.632812 24.285156 20.324219 24.285156 18.941406 C 24.285156 17.984375 23.234375 17.960938 23.164062 18.246094 L 23.160156 18.246094 L 23.207031 20.140625 C 23.210938 20.378906 23.023438 20.578125 22.78125 20.582031 C 22.539062 20.589844 22.339844 20.398438 22.335938 20.15625 C 22.3125 19.25 22.300781 18.34375 22.253906 17.4375 C 22.21875 16.894531 21.070312 16.832031 21.070312 17.277344 L 21.125 19.789062 C 21.128906 20.03125 20.9375 20.230469 20.699219 20.234375 C 20.457031 20.238281 20.257812 20.046875 20.253906 19.808594 L 20.199219 17.292969 C 20.191406 16.910156 19.644531 16.863281 19.367188 16.9375 C 19.226562 16.976562 19.109375 17.042969 19.058594 17.144531 L 19.078125 19.792969 C 19.082031 20.035156 18.886719 20.234375 18.644531 20.234375 C 18.40625 20.238281 18.207031 20.042969 18.207031 19.800781 L 18.183594 17.101562 C 18.183594 17.089844 18.179688 17.074219 18.179688 17.0625 L 18.179688 14.230469 C 18.179688 13.730469 17.574219 13.464844 17.210938 13.828125 C 17.105469 13.933594 17.042969 14.074219 17.042969 14.230469 L 17.054688 15.855469 C 17.0625 16.515625 17.070312 16.859375 17.019531 18.277344 L 17.019531 21.191406 C 17.019531 21.433594 16.824219 21.628906 16.582031 21.628906 C 16.339844 21.628906 16.144531 21.433594 16.144531 21.191406 L 16.144531 19.136719 C 15.121094 20.15625 15.625 21.824219 16.34375 23.25 C 16.679688 23.925781 17.078125 24.566406 17.472656 25.1875 C 17.648438 25.472656 17.800781 25.710938 17.902344 25.902344 Z M 15.851562 24.195312 C 15.554688 23.660156 15.277344 23.09375 15.0625 22.519531 L 5.71875 22.519531 C 5.800781 23.492188 6.691406 24.195312 7.6875 24.195312 Z M 16.164062 14.535156 C 16.164062 14.4375 16.164062 14.335938 16.164062 14.230469 C 16.164062 12.957031 17.71875 12.296875 18.632812 13.210938 C 18.894531 13.472656 19.054688 13.832031 19.054688 14.230469 L 19.054688 14.535156 L 19.605469 14.535156 C 20.003906 14.535156 20.332031 14.210938 20.332031 13.8125 L 20.332031 13.316406 C 20.332031 12.917969 20.003906 12.589844 19.605469 12.589844 L 15.8125 12.589844 C 15.414062 12.589844 15.089844 12.917969 15.089844 13.316406 L 15.089844 13.8125 C 15.089844 14.210938 15.414062 14.535156 15.8125 14.535156 Z M 16.164062 14.535156 " fill-opacity="1" fill-rule="nonzero"/></g></svg>