<svg xmlns="http://www.w3.org/2000/svg" xmlns:xlink="http://www.w3.org/1999/xlink" width="40" zoomAndPan="magnify" viewBox="0 0 30 30.000001" height="40" preserveAspectRatio="xMidYMid meet" version="1.0"><defs><clipPath id="20b7aa40cb"><path d="M 0.484375 0 L 29.515625 0 L 29.515625 29.03125 L 0.484375 29.03125 Z M 0.484375 0 " clip-rule="nonzero"/></clipPath><clipPath id="d9166df28e"><path d="M 0.863281 0 L 29.171875 0 L 29.171875 29.03125 L 0.863281 29.03125 Z M 0.863281 0 " clip-rule="nonzero"/></clipPath></defs><g clip-path="url(#20b7aa40cb)"><path fill="#ffffff" d="M 0.484375 0 L 29.515625 0 L 29.515625 29.03125 L 0.484375 29.03125 Z M 0.484375 0 " fill-opacity="1" fill-rule="nonzero"/><path fill="#ffffff" d="M 0.484375 0 L 29.515625 0 L 29.515625 29.03125 L 0.484375 29.03125 Z M 0.484375 0 " fill-opacity="1" fill-rule="nonzero"/></g><g clip-path="url(#d9166df28e)"><path fill="#925f3d" d="M 14.519531 20.214844 L 14.519531 22.496094 L 9.582031 22.496094 L 9.582031 20.214844 Z M 11.5625 23.476562 L 11.5625 25.757812 L 6.625 25.757812 L 6.625 23.476562 Z M 9.582031 29.015625 L 9.582031 26.734375 L 14.519531 26.734375 L 14.519531 29.015625 C 14.519531 29.015625 9.582031 29.015625 9.582031 29.015625 Z M 8.605469 26.734375 L 8.605469 29.015625 C 8.605469 29.015625 3.667969 29.015625 3.667969 29.015625 L 3.667969 26.734375 Z M 20.433594 22.496094 L 15.5 22.496094 L 15.5 20.214844 L 20.433594 20.214844 Z M 21.414062 29.015625 L 21.414062 26.734375 L 26.347656 26.734375 L 26.347656 29.015625 C 26.347656 29.015625 21.414062 29.015625 21.414062 29.015625 Z M 15.5 29.015625 L 15.5 26.734375 L 20.433594 26.734375 L 20.433594 29.015625 C 20.433594 29.015625 15.5 29.015625 15.5 29.015625 Z M 12.542969 23.476562 L 17.476562 23.476562 L 17.476562 25.757812 L 12.542969 25.757812 Z M 17.476562 19.234375 L 12.542969 19.234375 L 12.542969 16.953125 C 12.542969 16.953125 17.476562 16.953125 17.476562 16.953125 Z M 23.390625 25.757812 L 18.457031 25.757812 L 18.457031 23.476562 L 23.390625 23.476562 Z M 18.929688 11.328125 L 20.292969 14.261719 C 20.3125 14.300781 20.308594 14.34375 20.28125 14.378906 C 20.253906 14.414062 20.214844 14.429688 20.171875 14.421875 L 18.464844 14.125 L 17.589844 15.621094 C 17.570312 15.660156 17.53125 15.679688 17.488281 15.679688 C 17.445312 15.675781 17.410156 15.652344 17.390625 15.613281 L 16.121094 12.882812 C 17.054688 13.113281 18.003906 12.746094 18.535156 11.929688 Z M 13.894531 12.882812 L 12.625 15.613281 C 12.605469 15.652344 12.570312 15.675781 12.527344 15.679688 C 12.484375 15.679688 12.445312 15.660156 12.425781 15.621094 L 11.554688 14.125 L 9.84375 14.421875 C 9.800781 14.429688 9.761719 14.414062 9.734375 14.378906 C 9.707031 14.34375 9.703125 14.300781 9.722656 14.261719 L 11.089844 11.328125 C 11.242188 11.5625 11.484375 11.929688 11.484375 11.929688 C 12.015625 12.746094 12.960938 13.113281 13.894531 12.882812 Z M 15.769531 0.355469 L 16.53125 0.929688 C 16.738281 1.085938 16.957031 1.164062 17.21875 1.179688 L 18.171875 1.230469 C 18.738281 1.261719 19.203125 1.652344 19.332031 2.207031 L 19.550781 3.136719 C 19.609375 3.390625 19.726562 3.589844 19.917969 3.769531 L 20.613281 4.421875 C 21.027344 4.8125 21.132812 5.410156 20.875 5.917969 L 20.445312 6.769531 C 20.328125 7 20.289062 7.230469 20.320312 7.488281 L 20.433594 8.4375 C 20.5 9.003906 20.199219 9.527344 19.671875 9.75 L 18.796875 10.125 C 18.554688 10.226562 18.378906 10.378906 18.234375 10.597656 L 17.714844 11.394531 C 17.402344 11.871094 16.832031 12.078125 16.289062 11.914062 L 15.375 11.636719 C 15.125 11.5625 14.890625 11.5625 14.640625 11.636719 L 13.730469 11.914062 C 13.183594 12.078125 12.617188 11.871094 12.304688 11.394531 L 11.78125 10.597656 C 11.636719 10.378906 11.460938 10.226562 11.21875 10.125 L 10.34375 9.75 C 9.820312 9.527344 9.515625 9.003906 9.585938 8.4375 L 9.699219 7.488281 C 9.730469 7.230469 9.6875 7 9.570312 6.769531 L 9.140625 5.917969 C 8.882812 5.410156 8.988281 4.8125 9.402344 4.421875 L 10.097656 3.769531 C 10.289062 3.589844 10.40625 3.390625 10.464844 3.136719 L 10.683594 2.207031 C 10.8125 1.652344 11.277344 1.261719 11.84375 1.230469 L 12.796875 1.179688 C 13.058594 1.164062 13.277344 1.085938 13.484375 0.929688 L 14.25 0.355469 C 14.707031 0.015625 15.308594 0.015625 15.769531 0.355469 Z M 15.007812 9.726562 C 17.042969 9.726562 18.699219 8.070312 18.699219 6.035156 C 18.699219 4 17.042969 2.339844 15.007812 2.339844 C 12.976562 2.339844 11.316406 4 11.316406 6.035156 C 11.316406 8.070312 12.976562 9.726562 15.007812 9.726562 Z M 14.75 3.941406 C 14.785156 3.828125 14.890625 3.753906 15.007812 3.753906 C 15.125 3.753906 15.230469 3.828125 15.265625 3.941406 L 15.644531 5.101562 C 15.679688 5.214844 15.785156 5.289062 15.902344 5.289062 L 17.121094 5.289062 C 17.238281 5.289062 17.34375 5.363281 17.378906 5.476562 C 17.417969 5.585938 17.375 5.710938 17.28125 5.777344 L 16.292969 6.496094 C 16.199219 6.566406 16.160156 6.6875 16.195312 6.800781 L 16.574219 7.960938 C 16.609375 8.074219 16.570312 8.195312 16.472656 8.265625 C 16.378906 8.332031 16.25 8.332031 16.15625 8.265625 L 15.167969 7.546875 C 15.074219 7.476562 14.945312 7.476562 14.847656 7.546875 L 13.859375 8.265625 C 13.765625 8.332031 13.636719 8.332031 13.542969 8.265625 C 13.449219 8.195312 13.40625 8.074219 13.445312 7.960938 L 13.820312 6.800781 C 13.859375 6.6875 13.816406 6.566406 13.722656 6.496094 L 12.734375 5.777344 C 12.640625 5.710938 12.601562 5.585938 12.636719 5.476562 C 12.671875 5.363281 12.777344 5.289062 12.894531 5.289062 L 14.117188 5.289062 C 14.234375 5.289062 14.335938 5.214844 14.375 5.101562 Z M 27.769531 8.378906 C 27.144531 7.644531 25.941406 6.230469 25.457031 5.65625 L 23.148438 8.378906 L 23.902344 8.378906 C 24.171875 8.378906 24.390625 8.597656 24.390625 8.867188 L 24.390625 16.519531 C 24.390625 16.792969 24.171875 17.011719 23.902344 17.011719 C 23.632812 17.011719 23.410156 16.792969 23.410156 16.519531 L 23.410156 9.359375 L 22.546875 9.359375 C 22.261719 9.359375 22.027344 9.207031 21.910156 8.949219 C 21.792969 8.699219 21.828125 8.414062 22.011719 8.203125 C 22.011719 8.203125 24.921875 4.773438 24.921875 4.773438 C 25.058594 4.613281 25.242188 4.527344 25.457031 4.527344 C 25.667969 4.527344 25.851562 4.609375 25.992188 4.769531 C 25.992188 4.769531 25.992188 4.773438 25.992188 4.773438 L 28.90625 8.203125 C 29.085938 8.414062 29.125 8.699219 29.007812 8.949219 C 28.890625 9.207031 28.648438 9.359375 28.371094 9.359375 L 27.503906 9.359375 L 27.503906 14.117188 C 27.503906 14.390625 27.285156 14.609375 27.015625 14.609375 C 26.742188 14.609375 26.523438 14.390625 26.523438 14.117188 L 26.523438 8.867188 C 26.523438 8.597656 26.742188 8.378906 27.015625 8.378906 Z M 26.523438 15.320312 C 26.523438 15.050781 26.742188 14.828125 27.015625 14.828125 C 27.285156 14.828125 27.503906 15.050781 27.503906 15.320312 L 27.503906 16.519531 C 27.503906 16.792969 27.285156 17.011719 27.015625 17.011719 C 26.742188 17.011719 26.523438 16.792969 26.523438 16.519531 Z M 26.523438 17.722656 C 26.523438 17.453125 26.742188 17.230469 27.015625 17.230469 C 27.285156 17.230469 27.503906 17.453125 27.503906 17.722656 L 27.503906 18.921875 C 27.503906 19.195312 27.285156 19.414062 27.015625 19.414062 C 26.742188 19.414062 26.523438 19.195312 26.523438 18.921875 Z M 24.390625 18.921875 C 24.390625 19.195312 24.171875 19.414062 23.902344 19.414062 C 23.632812 19.414062 23.410156 19.195312 23.410156 18.921875 L 23.410156 17.722656 C 23.410156 17.453125 23.632812 17.230469 23.902344 17.230469 C 24.171875 17.230469 24.390625 17.453125 24.390625 17.722656 Z M 6.203125 14.039062 L 4.222656 11.703125 L 2.242188 14.039062 L 2.816406 14.039062 C 3.089844 14.039062 3.308594 14.257812 3.308594 14.527344 L 3.308594 19.265625 C 3.308594 19.535156 3.089844 19.753906 2.816406 19.753906 C 2.546875 19.753906 2.328125 19.535156 2.328125 19.265625 L 2.328125 15.015625 L 1.59375 15.015625 C 1.324219 15.015625 1.089844 14.871094 0.976562 14.621094 C 0.863281 14.375 0.898438 14.101562 1.074219 13.894531 L 3.703125 10.800781 C 3.703125 10.800781 3.703125 10.796875 3.703125 10.796875 C 3.839844 10.640625 4.019531 10.558594 4.222656 10.558594 C 4.429688 10.558594 4.609375 10.644531 4.742188 10.800781 C 4.742188 10.800781 7.367188 13.894531 7.367188 13.890625 C 7.546875 14.097656 7.582031 14.375 7.46875 14.621094 C 7.355469 14.867188 7.125 15.015625 6.851562 15.015625 L 6.117188 15.015625 L 6.117188 21.433594 C 6.117188 21.703125 5.898438 21.921875 5.628906 21.921875 C 5.355469 21.921875 5.136719 21.703125 5.136719 21.433594 L 5.136719 14.527344 C 5.136719 14.257812 5.355469 14.039062 5.628906 14.039062 Z M 2.328125 20.351562 C 2.328125 20.078125 2.546875 19.859375 2.816406 19.859375 C 3.089844 19.859375 3.308594 20.078125 3.308594 20.351562 L 3.308594 21.433594 C 3.308594 21.703125 3.089844 21.921875 2.816406 21.921875 C 2.546875 21.921875 2.328125 21.703125 2.328125 21.433594 Z M 2.328125 22.519531 C 2.328125 22.246094 2.546875 22.027344 2.816406 22.027344 C 3.089844 22.027344 3.308594 22.246094 3.308594 22.519531 L 3.308594 23.601562 C 3.308594 23.871094 3.089844 24.089844 2.816406 24.089844 C 2.546875 24.089844 2.328125 23.871094 2.328125 23.601562 Z M 2.328125 22.519531 " fill-opacity="1" fill-rule="evenodd"/></g></svg>