<svg xmlns="http://www.w3.org/2000/svg" xmlns:xlink="http://www.w3.org/1999/xlink" width="40" zoomAndPan="magnify" viewBox="0 0 30 30.000001" height="40" preserveAspectRatio="xMidYMid meet" version="1.0"><defs><clipPath id="8502808c3b"><path d="M 0.484375 0 L 29.515625 0 L 29.515625 29.03125 L 0.484375 29.03125 Z M 0.484375 0 " clip-rule="nonzero"/></clipPath></defs><g clip-path="url(#8502808c3b)"><path fill="#ffffff" d="M 0.484375 0 L 29.515625 0 L 29.515625 29.03125 L 0.484375 29.03125 Z M 0.484375 0 " fill-opacity="1" fill-rule="nonzero"/><path fill="#ffffff" d="M 0.484375 0 L 29.515625 0 L 29.515625 29.03125 L 0.484375 29.03125 Z M 0.484375 0 " fill-opacity="1" fill-rule="nonzero"/><path fill="#925f3d" d="M 12.339844 15.992188 C 12.097656 15.992188 11.902344 15.792969 11.902344 15.554688 C 11.902344 15.3125 12.097656 15.117188 12.339844 15.117188 L 12.550781 15.117188 L 12.550781 8.390625 L 2.652344 8.390625 C 1.984375 8.390625 1.359375 8.863281 1.359375 9.515625 L 1.359375 20.328125 L 28.640625 20.328125 L 28.640625 9.515625 C 28.640625 8.863281 28.015625 8.390625 27.347656 8.390625 L 27.25 8.390625 L 27.25 15.117188 L 27.890625 15.117188 C 28.132812 15.117188 28.332031 15.3125 28.332031 15.554688 C 28.332031 15.792969 28.132812 15.992188 27.890625 15.992188 Z M 21.964844 5.152344 L 21.527344 5.152344 L 21.527344 4.277344 L 23.460938 4.277344 L 23.460938 5.152344 Z M 24.460938 13.921875 L 24.023438 13.921875 L 24.023438 13.046875 L 25.953125 13.046875 L 25.953125 13.921875 Z M 24.460938 11.730469 L 24.023438 11.730469 L 24.023438 10.855469 L 25.953125 10.855469 L 25.953125 11.730469 Z M 24.460938 9.539062 L 24.023438 9.539062 L 24.023438 8.660156 L 25.953125 8.660156 L 25.953125 9.539062 Z M 24.460938 7.34375 L 24.023438 7.34375 L 24.023438 6.46875 L 25.953125 6.46875 L 25.953125 7.34375 Z M 24.460938 5.152344 L 24.023438 5.152344 L 24.023438 4.277344 L 25.953125 4.277344 L 25.953125 5.152344 Z M 21.527344 6.835938 L 21.527344 6.46875 L 23.460938 6.46875 L 23.460938 7.34375 L 23.25 7.34375 C 23.390625 7.542969 23.472656 7.785156 23.472656 8.046875 L 23.472656 15.089844 L 26.375 15.089844 L 26.375 3.789062 C 26.375 3.605469 26.21875 3.449219 26.035156 3.449219 L 21.332031 3.449219 C 21.210938 3.449219 21.109375 3.550781 21.109375 3.671875 L 21.109375 6.832031 L 21.527344 6.832031 Z M 20.941406 14.304688 L 20.5 14.304688 L 20.5 13.429688 L 22.292969 13.429688 L 22.292969 14.304688 Z M 18.773438 9.484375 L 18.335938 9.484375 L 18.335938 8.609375 L 20.128906 8.609375 L 20.128906 9.484375 Z M 20.941406 9.484375 L 20.5 9.484375 L 20.5 8.609375 L 22.292969 8.609375 L 22.292969 9.484375 Z M 20.941406 11.894531 L 20.5 11.894531 L 20.5 11.019531 L 22.292969 11.019531 L 22.292969 11.894531 Z M 18.773438 11.894531 L 18.335938 11.894531 L 18.335938 11.019531 L 20.128906 11.019531 L 20.128906 11.894531 Z M 18.773438 14.304688 L 18.335938 14.304688 L 18.335938 13.429688 L 20.128906 13.429688 L 20.128906 14.304688 Z M 18.492188 6.835938 L 20.234375 6.835938 L 20.234375 1.1875 C 20.234375 1.015625 20.089844 0.875 19.917969 0.875 L 13.804688 0.875 C 13.597656 0.875 13.429688 1.042969 13.429688 1.25 L 13.429688 15.089844 L 17.152344 15.089844 L 17.152344 8.171875 C 17.152344 7.4375 17.753906 6.835938 18.492188 6.835938 Z M 22.261719 7.710938 L 18.492188 7.710938 C 18.238281 7.710938 18.027344 7.917969 18.027344 8.171875 L 18.027344 15.089844 L 22.597656 15.089844 L 22.597656 8.046875 C 22.597656 7.859375 22.445312 7.710938 22.261719 7.710938 Z M 14.679688 2.957031 L 14.242188 2.957031 L 14.242188 2.082031 L 16.375 2.082031 L 16.375 2.957031 Z M 14.679688 13.921875 L 14.242188 13.921875 L 14.242188 13.046875 L 16.375 13.046875 L 16.375 13.921875 Z M 14.679688 11.730469 L 14.242188 11.730469 L 14.242188 10.855469 L 16.375 10.855469 L 16.375 11.730469 Z M 14.679688 9.539062 L 14.242188 9.539062 L 14.242188 8.660156 L 16.375 8.660156 L 16.375 9.539062 Z M 14.679688 7.34375 L 14.242188 7.34375 L 14.242188 6.46875 L 16.375 6.46875 L 16.375 7.34375 Z M 17.953125 5.152344 L 17.515625 5.152344 L 17.515625 4.277344 L 19.648438 4.277344 L 19.648438 5.152344 Z M 14.679688 5.152344 L 14.242188 5.152344 L 14.242188 4.277344 L 16.375 4.277344 L 16.375 5.152344 Z M 17.953125 2.957031 L 17.515625 2.957031 L 17.515625 2.082031 L 19.648438 2.082031 L 19.648438 2.957031 Z M 21.109375 2.597656 C 21.179688 2.582031 21.253906 2.574219 21.332031 2.574219 L 26.035156 2.574219 C 26.703125 2.574219 27.25 3.121094 27.25 3.792969 L 27.25 7.515625 L 27.347656 7.515625 C 28.496094 7.515625 29.515625 8.375 29.515625 9.515625 L 29.515625 22.269531 L 29.476562 22.652344 C 29.34375 23.269531 28.941406 23.613281 28.933594 23.628906 C 28.535156 24.027344 27.964844 24.269531 27.347656 24.269531 L 17.394531 24.269531 C 17.484375 25.515625 18.039062 25.511719 20.164062 25.5 C 20.5625 25.496094 20.992188 25.492188 21.054688 25.492188 C 21.773438 25.492188 22.363281 26.082031 22.363281 26.800781 L 22.363281 27.726562 C 22.363281 28.445312 21.773438 29.03125 21.054688 29.03125 L 8.941406 29.03125 C 8.222656 29.03125 7.636719 28.445312 7.636719 27.726562 L 7.636719 26.800781 C 7.636719 26.082031 8.222656 25.492188 8.941406 25.492188 L 10.574219 25.5 C 12.101562 25.488281 12.539062 25.355469 12.605469 24.269531 L 2.652344 24.269531 L 2.277344 24.242188 C 1.78125 24.160156 1.332031 23.925781 0.992188 23.558594 C 0.925781 23.480469 0.710938 23.203125 0.691406 23.125 L 0.570312 22.824219 C 0.519531 22.644531 0.488281 22.523438 0.484375 22.269531 L 0.484375 9.515625 C 0.484375 8.375 1.503906 7.515625 2.652344 7.515625 L 12.550781 7.515625 L 12.550781 1.25 C 12.550781 0.5625 13.113281 0 13.804688 0 L 19.917969 0 C 20.574219 0 21.109375 0.535156 21.109375 1.1875 Z M 3.515625 16.765625 C 4.101562 16.816406 4.707031 16.4375 4.316406 16.089844 C 4.117188 15.914062 3.796875 15.847656 3.515625 15.871094 Z M 4.894531 17.199219 L 4.890625 17.207031 C 5.75 17.960938 5.257812 19.191406 3.96875 19.394531 C 3.644531 19.445312 3.292969 19.421875 2.972656 19.316406 C 2.785156 19.269531 2.640625 19.097656 2.640625 18.894531 L 2.640625 15.523438 L 2.644531 15.523438 C 2.644531 15.339844 2.757812 15.171875 2.9375 15.109375 C 3.996094 14.738281 5.320312 15.304688 5.320312 16.316406 C 5.316406 16.652344 5.160156 16.964844 4.894531 17.199219 Z M 3.515625 17.648438 L 3.515625 18.542969 C 4.101562 18.59375 4.707031 18.214844 4.316406 17.867188 C 4.117188 17.691406 3.796875 17.625 3.515625 17.648438 Z M 10.96875 18.894531 C 10.96875 19.132812 10.773438 19.332031 10.53125 19.332031 C 10.289062 19.332031 10.09375 19.132812 10.09375 18.894531 L 10.09375 16.601562 C 9.964844 16.734375 9.566406 17.175781 9.453125 17.257812 C 9.28125 17.375 9.054688 17.363281 8.902344 17.222656 C 8.703125 17.039062 8.492188 16.800781 8.300781 16.601562 L 8.300781 18.894531 C 8.300781 19.132812 8.105469 19.332031 7.863281 19.332031 C 7.621094 19.332031 7.425781 19.132812 7.425781 18.894531 L 7.425781 15.519531 C 7.425781 15.136719 7.90625 14.914062 8.199219 15.242188 L 9.199219 16.269531 L 10.195312 15.242188 C 10.488281 14.914062 10.96875 15.136719 10.96875 15.519531 Z M 5.984375 15.523438 C 5.984375 15.28125 6.179688 15.082031 6.421875 15.082031 C 6.664062 15.082031 6.859375 15.28125 6.859375 15.523438 L 6.859375 18.894531 C 6.859375 19.136719 6.664062 19.332031 6.421875 19.332031 C 6.179688 19.332031 5.984375 19.132812 5.984375 18.894531 Z M 13.050781 23.394531 L 27.34375 23.394531 C 27.996094 23.394531 28.636719 22.933594 28.636719 22.269531 L 28.636719 21.203125 L 1.359375 21.203125 L 1.359375 22.269531 C 1.359375 22.933594 1.996094 23.394531 2.652344 23.394531 Z M 9.695312 26.367188 C 9.648438 26.367188 9.59375 26.367188 8.941406 26.367188 C 8.707031 26.367188 8.511719 26.5625 8.511719 26.800781 L 8.511719 27.722656 C 8.511719 27.960938 8.707031 28.15625 8.941406 28.15625 L 21.054688 28.15625 C 21.289062 28.15625 21.484375 27.960938 21.484375 27.722656 L 21.484375 26.800781 C 21.484375 26.5625 21.289062 26.367188 21.054688 26.367188 C 20.480469 26.367188 20.320312 26.367188 20.167969 26.371094 C 17.261719 26.390625 16.585938 26.394531 16.515625 24.269531 L 13.484375 24.269531 C 13.429688 26.132812 12.851562 26.351562 10.578125 26.371094 C 10.308594 26.371094 10.019531 26.371094 9.695312 26.367188 Z M 9.695312 26.367188 " fill-opacity="1" fill-rule="nonzero"/></g></svg>