<svg xmlns="http://www.w3.org/2000/svg" xmlns:xlink="http://www.w3.org/1999/xlink" width="50" zoomAndPan="magnify" viewBox="0 0 37.5 37.499999" height="50" preserveAspectRatio="xMidYMid meet" version="1.0"><defs><clipPath id="87515d6e46"><path d="M 0 0 L 37.007812 0 L 37.007812 37.007812 L 0 37.007812 Z M 0 0 " clip-rule="nonzero"/></clipPath><clipPath id="97f0327df9"><path d="M 21 11 L 37.007812 11 L 37.007812 34 L 21 34 Z M 21 11 " clip-rule="nonzero"/></clipPath><clipPath id="ecfe3bccec"><path d="M 0 3.054688 L 16 3.054688 L 16 26 L 0 26 Z M 0 3.054688 " clip-rule="nonzero"/></clipPath></defs><g clip-path="url(#87515d6e46)"><path fill="#ffffff" d="M 0 0 L 37.007812 0 L 37.007812 37.007812 L 0 37.007812 Z M 0 0 " fill-opacity="1" fill-rule="nonzero"/><path fill="#ffffff" d="M 0 0 L 37.007812 0 L 37.007812 37.007812 L 0 37.007812 Z M 0 0 " fill-opacity="1" fill-rule="nonzero"/></g><g clip-path="url(#97f0327df9)"><path fill="#935f3d" d="M 35.738281 33.953125 L 22.839844 33.953125 C 22.140625 33.953125 21.574219 33.386719 21.574219 32.691406 L 21.574219 31.101562 L 22.550781 31.417969 C 22.695312 31.496094 22.851562 31.558594 23.019531 31.59375 L 23.019531 32.148438 C 23.019531 32.347656 23.179688 32.511719 23.378906 32.511719 L 35.199219 32.511719 C 35.398438 32.511719 35.558594 32.347656 35.558594 32.148438 L 35.558594 13.386719 C 35.558594 13.183594 35.398438 13.023438 35.199219 13.023438 L 23.378906 13.023438 C 23.179688 13.023438 23.019531 13.183594 23.019531 13.386719 L 23.019531 18.183594 C 22.851562 18.222656 22.695312 18.285156 22.550781 18.363281 L 21.574219 18.679688 L 21.574219 12.84375 C 21.574219 12.148438 22.140625 11.582031 22.839844 11.582031 L 35.738281 11.582031 C 36.4375 11.582031 37.003906 12.148438 37.003906 12.84375 L 37.003906 32.691406 C 37.003906 33.386719 36.4375 33.953125 35.738281 33.953125 Z M 26.953125 21.691406 L 27.703125 21.691406 L 27.328125 20.601562 Z M 31.316406 23.308594 L 30.191406 23.308594 C 29.992188 23.308594 29.832031 23.144531 29.832031 22.945312 L 29.832031 19.488281 C 29.832031 19.289062 29.992188 19.125 30.191406 19.125 L 31.316406 19.125 C 32.136719 19.125 32.800781 19.792969 32.800781 20.609375 L 32.800781 21.824219 C 32.800781 22.640625 32.136719 23.308594 31.316406 23.308594 Z M 30.554688 22.585938 L 31.316406 22.585938 C 31.738281 22.585938 32.078125 22.242188 32.078125 21.824219 L 32.078125 20.609375 C 32.078125 20.191406 31.738281 19.847656 31.316406 19.847656 L 30.554688 19.847656 Z M 23.742188 31.605469 C 24.753906 31.40625 25.339844 30.335938 25.667969 29.410156 L 34.835938 29.410156 L 34.835938 31.789062 L 23.742188 31.789062 Z M 34.835938 28.6875 L 25.886719 28.6875 C 26.203125 27.46875 26.316406 26.121094 26.316406 24.890625 L 26.316406 24.824219 L 34.835938 24.824219 Z M 26.300781 24.101562 C 26.289062 23.832031 26.273438 23.558594 26.25 23.285156 C 26.355469 23.25 26.441406 23.167969 26.480469 23.058594 L 26.703125 22.414062 L 27.953125 22.414062 L 28.175781 23.058594 C 28.238281 23.246094 28.445312 23.347656 28.632812 23.28125 C 28.824219 23.214844 28.921875 23.011719 28.859375 22.820312 L 28.554688 21.941406 C 28.554688 21.9375 28.550781 21.929688 28.546875 21.925781 L 27.667969 19.375 C 27.617188 19.230469 27.480469 19.132812 27.328125 19.132812 C 27.171875 19.132812 27.035156 19.230469 26.984375 19.375 L 26.105469 21.925781 C 26.105469 21.933594 26.101562 21.9375 26.101562 21.941406 L 26.082031 22 C 25.992188 21.5 25.878906 21.015625 25.726562 20.554688 C 25.460938 19.730469 24.988281 18.738281 24.1875 18.332031 L 34.835938 18.332031 L 34.835938 24.101562 Z M 23.742188 17.609375 L 23.742188 13.746094 L 34.835938 13.746094 L 34.835938 17.609375 Z M 30.40625 30.960938 L 28.171875 30.960938 C 27.972656 30.960938 27.8125 30.796875 27.8125 30.597656 C 27.8125 30.398438 27.972656 30.238281 28.171875 30.238281 L 30.40625 30.238281 C 30.605469 30.238281 30.765625 30.398438 30.765625 30.597656 C 30.765625 30.796875 30.605469 30.960938 30.40625 30.960938 Z M 30.40625 30.960938 " fill-opacity="1" fill-rule="evenodd"/></g><g clip-path="url(#ecfe3bccec)"><path fill="#935f3d" d="M 10.714844 25.425781 L 1.265625 25.425781 C 0.570312 25.425781 0.00390625 24.859375 0.00390625 24.164062 L 0.00390625 4.316406 C 0.00390625 3.621094 0.570312 3.050781 1.265625 3.050781 L 14.167969 3.050781 C 14.863281 3.050781 15.429688 3.621094 15.429688 4.316406 L 15.429688 6.277344 C 15.167969 6.25 14.898438 6.3125 14.671875 6.476562 L 14.339844 6.714844 C 14.222656 6.660156 14.105469 6.609375 13.988281 6.5625 L 13.988281 4.855469 C 13.988281 4.65625 13.824219 4.496094 13.625 4.496094 L 1.808594 4.496094 C 1.609375 4.496094 1.445312 4.65625 1.445312 4.855469 L 1.445312 23.621094 C 1.445312 23.820312 1.609375 23.984375 1.808594 23.984375 L 10.714844 23.984375 Z M 11.355469 5.21875 C 10.945312 5.324219 10.625 5.664062 10.554688 6.09375 L 10.492188 6.5 C 10.3125 6.5625 10.140625 6.632812 9.96875 6.714844 L 9.636719 6.476562 C 9.207031 6.164062 8.613281 6.214844 8.238281 6.585938 L 7.488281 7.335938 C 7.117188 7.710938 7.066406 8.304688 7.378906 8.734375 L 7.617188 9.066406 C 7.535156 9.238281 7.464844 9.410156 7.402344 9.589844 L 6.996094 9.652344 C 6.472656 9.738281 6.085938 10.191406 6.085938 10.722656 L 6.085938 11.78125 C 6.085938 12.3125 6.472656 12.765625 6.996094 12.851562 L 7.402344 12.917969 C 7.464844 13.09375 7.535156 13.265625 7.617188 13.4375 L 7.378906 13.769531 C 7.066406 14.199219 7.117188 14.796875 7.488281 15.167969 L 8.238281 15.917969 C 8.613281 16.292969 9.207031 16.339844 9.636719 16.03125 L 9.96875 15.789062 C 10.140625 15.871094 10.3125 15.945312 10.492188 16.003906 L 10.554688 16.410156 C 10.640625 16.933594 11.09375 17.320312 11.625 17.320312 L 12.683594 17.320312 C 12.894531 17.320312 13.09375 17.257812 13.265625 17.152344 L 13.265625 20.160156 L 2.167969 20.160156 L 2.167969 5.21875 Z M 13.988281 15.941406 C 14.105469 15.894531 14.222656 15.84375 14.339844 15.789062 L 14.671875 16.03125 C 14.898438 16.191406 15.167969 16.257812 15.429688 16.226562 L 15.429688 20.667969 L 15.207031 20.742188 L 13.988281 20.742188 Z M 2.167969 20.882812 L 12.429688 20.882812 C 11.441406 21.226562 10.726562 22.160156 10.714844 23.261719 L 2.167969 23.261719 Z M 8.832031 22.433594 L 6.601562 22.433594 C 6.402344 22.433594 6.238281 22.269531 6.238281 22.070312 C 6.238281 21.871094 6.402344 21.710938 6.601562 21.710938 L 8.832031 21.710938 C 9.03125 21.710938 9.195312 21.871094 9.195312 22.070312 C 9.195312 22.269531 9.03125 22.433594 8.832031 22.433594 Z M 8.832031 22.433594 " fill-opacity="1" fill-rule="evenodd"/></g><path fill="#935f3d" d="M 12.683594 16.597656 L 11.625 16.597656 C 11.449219 16.597656 11.296875 16.46875 11.269531 16.292969 L 11.132812 15.441406 C 10.703125 15.335938 10.292969 15.167969 9.914062 14.9375 L 9.214844 15.445312 C 9.070312 15.546875 8.875 15.53125 8.75 15.40625 L 8 14.660156 C 7.875 14.53125 7.859375 14.335938 7.964844 14.191406 L 8.46875 13.492188 C 8.238281 13.113281 8.070312 12.707031 7.964844 12.277344 L 7.113281 12.136719 C 6.9375 12.109375 6.808594 11.957031 6.808594 11.78125 L 6.808594 10.722656 C 6.808594 10.546875 6.9375 10.394531 7.113281 10.367188 L 7.964844 10.230469 C 8.070312 9.800781 8.238281 9.390625 8.46875 9.011719 L 7.964844 8.3125 C 7.859375 8.167969 7.875 7.972656 8 7.847656 L 8.75 7.097656 C 8.875 6.972656 9.070312 6.957031 9.214844 7.0625 L 9.914062 7.566406 C 10.292969 7.335938 10.703125 7.167969 11.132812 7.0625 L 11.269531 6.210938 C 11.296875 6.035156 11.449219 5.90625 11.625 5.90625 L 12.683594 5.90625 C 12.859375 5.90625 13.011719 6.035156 13.039062 6.210938 L 13.175781 7.0625 C 13.605469 7.167969 14.015625 7.335938 14.394531 7.566406 L 15.09375 7.0625 C 15.238281 6.957031 15.433594 6.972656 15.558594 7.097656 L 16.308594 7.847656 C 16.433594 7.972656 16.449219 8.167969 16.34375 8.3125 L 15.839844 9.011719 C 16.070312 9.390625 16.238281 9.800781 16.34375 10.230469 L 17.195312 10.367188 C 17.371094 10.394531 17.5 10.546875 17.5 10.722656 L 17.5 11.78125 C 17.5 11.957031 17.371094 12.109375 17.195312 12.136719 L 16.34375 12.277344 C 16.238281 12.707031 16.070312 13.113281 15.839844 13.492188 L 16.34375 14.191406 C 16.449219 14.335938 16.433594 14.53125 16.308594 14.660156 L 15.558594 15.40625 C 15.433594 15.53125 15.238281 15.546875 15.09375 15.445312 L 14.394531 14.9375 C 14.015625 15.167969 13.605469 15.335938 13.175781 15.441406 L 13.039062 16.292969 C 13.011719 16.46875 12.859375 16.597656 12.683594 16.597656 Z M 12.152344 13.625 C 10.847656 13.625 9.78125 12.5625 9.78125 11.253906 C 9.78125 9.945312 10.847656 8.878906 12.152344 8.878906 C 13.460938 8.878906 14.527344 9.945312 14.527344 11.253906 C 14.527344 12.5625 13.460938 13.625 12.152344 13.625 Z M 12.152344 9.601562 C 11.246094 9.601562 10.503906 10.34375 10.503906 11.253906 C 10.503906 12.164062 11.246094 12.902344 12.152344 12.902344 C 13.0625 12.902344 13.804688 12.164062 13.804688 11.253906 C 13.804688 10.34375 13.0625 9.601562 12.152344 9.601562 Z M 12.152344 9.601562 " fill-opacity="1" fill-rule="evenodd"/><path fill="#935f3d" d="M 14.355469 28.316406 L 13.261719 28.316406 C 12.257812 28.316406 11.4375 27.5 11.4375 26.492188 L 11.4375 23.289062 C 11.4375 22.28125 12.257812 21.464844 13.261719 21.464844 L 14.355469 21.464844 C 14.3125 21.578125 14.292969 21.699219 14.292969 21.824219 L 14.292969 27.957031 C 14.292969 28.082031 14.3125 28.203125 14.355469 28.316406 Z M 14.355469 28.316406 " fill-opacity="1" fill-rule="evenodd"/><path fill="#935f3d" d="M 21.546875 30.332031 L 15.265625 28.300781 C 15.117188 28.25 15.015625 28.113281 15.015625 27.957031 L 15.015625 21.824219 C 15.015625 21.667969 15.117188 21.53125 15.265625 21.480469 L 21.546875 19.449219 C 21.34375 19.808594 21.1875 20.195312 21.074219 20.554688 C 20.636719 21.90625 20.484375 23.476562 20.484375 24.890625 C 20.484375 26.304688 20.636719 27.875 21.074219 29.226562 C 21.1875 29.585938 21.34375 29.972656 21.546875 30.332031 Z M 21.546875 30.332031 " fill-opacity="1" fill-rule="evenodd"/><path fill="#935f3d" d="M 23.398438 30.914062 C 22.933594 30.914062 22.269531 30.582031 21.761719 29.003906 C 21.515625 28.253906 21.347656 27.332031 21.265625 26.332031 L 23.449219 26.332031 C 23.960938 26.324219 24.332031 25.722656 24.332031 24.890625 C 24.332031 24.0625 23.960938 23.457031 23.449219 23.449219 L 21.265625 23.449219 C 21.347656 22.449219 21.515625 21.527344 21.761719 20.777344 C 22.269531 19.199219 22.933594 18.867188 23.398438 18.867188 C 23.867188 18.867188 24.53125 19.199219 25.039062 20.777344 C 25.398438 21.878906 25.59375 23.339844 25.59375 24.890625 C 25.59375 26.441406 25.398438 27.902344 25.039062 29.003906 C 24.53125 30.582031 23.867188 30.914062 23.398438 30.914062 Z M 22.648438 25.609375 L 21.21875 25.609375 C 21.210938 25.375 21.207031 25.132812 21.207031 24.890625 C 21.207031 24.648438 21.210938 24.40625 21.21875 24.171875 L 22.648438 24.171875 C 22.582031 24.378906 22.542969 24.621094 22.542969 24.890625 C 22.542969 25.160156 22.582031 25.402344 22.648438 25.609375 Z M 23.4375 24.195312 C 23.367188 24.285156 23.265625 24.527344 23.265625 24.890625 C 23.265625 25.253906 23.367188 25.496094 23.4375 25.585938 C 23.503906 25.496094 23.609375 25.253906 23.609375 24.890625 C 23.609375 24.527344 23.503906 24.285156 23.4375 24.195312 Z M 23.4375 24.195312 " fill-opacity="1" fill-rule="evenodd"/><path fill="#935f3d" d="M 16.09375 33.285156 C 16.089844 33.285156 16.085938 33.28125 16.082031 33.28125 L 14.472656 33.230469 C 14.324219 33.222656 14.191406 33.128906 14.144531 32.984375 L 12.761719 28.992188 C 12.921875 29.023438 13.089844 29.039062 13.261719 29.039062 L 15.132812 29.039062 L 16.425781 32.78125 C 16.445312 32.824219 16.457031 32.871094 16.457031 32.921875 C 16.457031 33.121094 16.292969 33.28125 16.09375 33.28125 C 16.09375 33.28125 16.09375 33.285156 16.09375 33.285156 Z M 16.09375 33.285156 " fill-opacity="1" fill-rule="evenodd"/><path fill="#935f3d" d="M 15.117188 29.796875 C 15.011719 29.796875 14.90625 29.785156 14.804688 29.765625 C 14.609375 29.722656 14.484375 29.53125 14.527344 29.335938 C 14.566406 29.140625 14.757812 29.015625 14.953125 29.058594 C 15.007812 29.070312 15.0625 29.074219 15.117188 29.074219 C 15.558594 29.074219 15.917969 28.714844 15.917969 28.277344 L 15.917969 28.253906 C 15.917969 28.054688 16.074219 27.890625 16.277344 27.886719 C 16.277344 27.886719 16.277344 27.886719 16.28125 27.886719 C 16.476562 27.886719 16.640625 28.046875 16.640625 28.242188 L 16.640625 28.269531 C 16.640625 28.269531 16.640625 28.273438 16.640625 28.273438 C 16.640625 29.113281 15.957031 29.796875 15.117188 29.796875 Z M 15.117188 29.796875 " fill-opacity="1" fill-rule="evenodd"/></svg>