<svg xmlns="http://www.w3.org/2000/svg" xmlns:xlink="http://www.w3.org/1999/xlink" width="50" zoomAndPan="magnify" viewBox="0 0 37.5 37.499999" height="50" preserveAspectRatio="xMidYMid meet" version="1.0"><defs><clipPath id="c93fec6114"><path d="M 0 0 L 37 0 L 37 37.007812 L 0 37.007812 Z M 0 0 " clip-rule="nonzero"/></clipPath></defs><g clip-path="url(#c93fec6114)"><path fill="#935f3d" d="M 6.519531 0 C 8.347656 0 9.832031 1.480469 9.832031 3.308594 C 9.832031 5.136719 8.347656 6.621094 6.519531 6.621094 C 4.691406 6.621094 3.210938 5.136719 3.210938 3.308594 C 3.210938 1.480469 4.691406 0 6.519531 0 Z M 30.027344 24.179688 C 33.671875 24.179688 36.625 27.132812 36.625 30.777344 C 36.625 34.421875 33.671875 37.375 30.027344 37.375 C 26.382812 37.375 23.429688 34.421875 23.429688 30.777344 C 23.429688 27.132812 26.382812 24.179688 30.027344 24.179688 Z M 32.675781 30.492188 L 30.761719 31.289062 L 31.699219 33.527344 L 33.613281 32.722656 C 34.230469 32.464844 34.519531 31.753906 34.261719 31.136719 C 34.003906 30.523438 33.289062 30.234375 32.675781 30.492188 Z M 29.640625 31.761719 L 27.726562 32.5625 C 27.109375 32.820312 26.820312 33.535156 27.078125 34.148438 C 27.335938 34.761719 28.050781 35.054688 28.664062 34.796875 L 30.574219 33.996094 Z M 26.757812 31.722656 C 25.890625 32.359375 25.46875 33.675781 25.972656 34.660156 C 26.503906 35.863281 27.914062 36.429688 29.132812 35.921875 L 34.082031 33.847656 C 35.3125 33.332031 35.902344 31.902344 35.386719 30.671875 C 34.964844 29.664062 33.917969 29.0625 32.839844 29.195312 C 32.914062 27.148438 31.269531 25.449219 29.222656 25.449219 C 27.222656 25.449219 25.601562 27.070312 25.601562 29.070312 C 25.601562 30.078125 26.023438 31.035156 26.757812 31.722656 Z M 31.457031 29.679688 L 26.898438 29.679688 C 27.054688 30.289062 27.449219 30.808594 27.988281 31.132812 Z M 31.546875 28.460938 C 31.269531 27.40625 30.316406 26.667969 29.222656 26.667969 C 28.128906 26.667969 27.175781 27.40625 26.898438 28.460938 Z M 14.296875 11.066406 L 16.148438 11.066406 C 16.308594 11.066406 16.445312 10.972656 16.503906 10.824219 C 16.785156 10.097656 17.492188 9.582031 18.316406 9.582031 C 19.144531 9.582031 19.851562 10.097656 20.132812 10.824219 C 20.191406 10.972656 20.328125 11.066406 20.488281 11.066406 L 22.339844 11.066406 C 22.550781 11.066406 22.722656 11.238281 22.722656 11.449219 L 22.722656 13.660156 C 22.722656 13.871094 22.550781 14.042969 22.339844 14.042969 L 14.296875 14.042969 C 14.085938 14.042969 13.914062 13.871094 13.914062 13.660156 L 13.914062 11.449219 C 13.914062 11.238281 14.085938 11.066406 14.296875 11.066406 Z M 18.316406 10.660156 C 18.035156 10.660156 17.804688 10.890625 17.804688 11.175781 C 17.804688 11.460938 18.035156 11.691406 18.316406 11.691406 C 18.601562 11.691406 18.832031 11.460938 18.832031 11.175781 C 18.832031 10.890625 18.601562 10.660156 18.316406 10.660156 Z M 27.125 11.757812 C 27.753906 11.757812 28.265625 12.273438 28.265625 12.902344 L 28.265625 23.160156 C 27.710938 23.285156 27.179688 23.472656 26.675781 23.714844 L 26.675781 13.730469 C 26.675781 13.523438 26.503906 13.351562 26.296875 13.351562 L 23.941406 13.351562 L 23.941406 11.757812 Z M 23.503906 35.089844 C 23.175781 34.59375 22.902344 34.0625 22.695312 33.496094 L 10.339844 33.496094 C 10.132812 33.496094 9.960938 33.324219 9.960938 33.117188 L 9.960938 13.730469 C 9.960938 13.523438 10.132812 13.351562 10.339844 13.351562 L 12.695312 13.351562 L 12.695312 11.757812 L 9.511719 11.757812 C 8.882812 11.757812 8.371094 12.273438 8.371094 12.902344 L 8.371094 33.945312 C 8.371094 34.574219 8.882812 35.089844 9.511719 35.089844 Z M 12.46875 25.714844 L 24.070312 25.714844 C 24.289062 25.460938 24.519531 25.21875 24.769531 24.992188 C 24.714844 24.710938 24.46875 24.496094 24.167969 24.496094 L 12.46875 24.496094 C 12.128906 24.496094 11.855469 24.769531 11.855469 25.105469 C 11.855469 25.441406 12.128906 25.714844 12.46875 25.714844 Z M 12.46875 30.292969 C 12.128906 30.292969 11.855469 30.019531 11.855469 29.683594 C 11.855469 29.34375 12.128906 29.070312 12.46875 29.070312 L 22.394531 29.070312 C 22.308594 29.46875 22.25 29.875 22.222656 30.292969 Z M 12.46875 28.003906 C 12.128906 28.003906 11.855469 27.730469 11.855469 27.394531 C 11.855469 27.058594 12.128906 26.785156 12.46875 26.785156 L 23.304688 26.785156 C 23.074219 27.171875 22.878906 27.578125 22.714844 28.003906 Z M 19.617188 16.292969 L 19.617188 17.542969 C 19.617188 17.667969 19.71875 17.769531 19.847656 17.769531 L 21.097656 17.769531 C 21.222656 17.769531 21.324219 17.875 21.324219 18 L 21.324219 20.140625 C 21.324219 20.265625 21.222656 20.371094 21.097656 20.371094 L 19.847656 20.371094 C 19.71875 20.371094 19.617188 20.472656 19.617188 20.597656 L 19.617188 21.847656 C 19.617188 21.972656 19.515625 22.078125 19.390625 22.078125 L 17.246094 22.078125 C 17.121094 22.078125 17.019531 21.972656 17.019531 21.847656 L 17.019531 20.597656 C 17.019531 20.472656 16.917969 20.371094 16.789062 20.371094 L 15.539062 20.371094 C 15.414062 20.371094 15.3125 20.265625 15.3125 20.140625 L 15.3125 18 C 15.3125 17.875 15.414062 17.769531 15.539062 17.769531 L 16.789062 17.769531 C 16.914062 17.769531 17.019531 17.667969 17.019531 17.542969 L 17.019531 16.292969 C 17.019531 16.164062 17.121094 16.0625 17.246094 16.0625 L 19.390625 16.0625 C 19.515625 16.0625 19.617188 16.164062 19.617188 16.292969 Z M 18.316406 0 C 20.144531 0 21.628906 1.480469 21.628906 3.308594 C 21.628906 5.136719 20.144531 6.621094 18.316406 6.621094 C 16.488281 6.621094 15.007812 5.136719 15.007812 3.308594 C 15.007812 1.480469 16.488281 0 18.316406 0 Z M 30.117188 0 C 31.945312 0 33.425781 1.480469 33.425781 3.308594 C 33.425781 5.136719 31.945312 6.621094 30.117188 6.621094 C 28.289062 6.621094 26.804688 5.136719 26.804688 3.308594 C 26.804688 1.480469 28.289062 0 30.117188 0 Z M 29.488281 13.226562 L 36.625 13.226562 C 36.273438 9.941406 33.492188 7.382812 30.117188 7.382812 C 27.742188 7.382812 25.664062 8.648438 24.515625 10.539062 L 27.125 10.539062 C 28.425781 10.539062 29.488281 11.597656 29.488281 12.902344 Z M 23.917969 10.539062 C 22.769531 8.648438 20.691406 7.382812 18.316406 7.382812 C 15.945312 7.382812 13.867188 8.648438 12.71875 10.539062 L 12.980469 10.539062 C 13.269531 10.121094 13.75 9.847656 14.296875 9.847656 L 15.632812 9.847656 C 16.203125 8.9375 17.210938 8.359375 18.316406 8.359375 C 19.421875 8.359375 20.429688 8.9375 21 9.847656 L 22.339844 9.847656 C 22.886719 9.847656 23.367188 10.121094 23.65625 10.539062 Z M 12.121094 10.539062 L 9.511719 10.539062 C 8.210938 10.539062 7.148438 11.597656 7.148438 12.902344 L 7.148438 13.226562 L 0.0117188 13.226562 C 0.363281 9.941406 3.144531 7.382812 6.519531 7.382812 C 8.894531 7.382812 10.972656 8.648438 12.121094 10.539062 Z M 12.121094 10.539062 " fill-opacity="1" fill-rule="evenodd"/></g></svg>