<svg xmlns="http://www.w3.org/2000/svg" xmlns:xlink="http://www.w3.org/1999/xlink" width="40" zoomAndPan="magnify" viewBox="0 0 30 30.000001" height="40" preserveAspectRatio="xMidYMid meet" version="1.0"><defs><clipPath id="457fad839f"><path d="M 0.484375 0 L 29.515625 0 L 29.515625 29.03125 L 0.484375 29.03125 Z M 0.484375 0 " clip-rule="nonzero"/></clipPath><clipPath id="1894a9b191"><path d="M 21 0.636719 L 29 0.636719 L 29 8 L 21 8 Z M 21 0.636719 " clip-rule="nonzero"/></clipPath><clipPath id="68b17ab2f2"><path d="M 19 7 L 29.515625 7 L 29.515625 14 L 19 14 Z M 19 7 " clip-rule="nonzero"/></clipPath><clipPath id="d0f117e325"><path d="M 0.484375 14 L 10 14 L 10 24 L 0.484375 24 Z M 0.484375 14 " clip-rule="nonzero"/></clipPath><clipPath id="ffe35e8f78"><path d="M 9 21 L 17 21 L 17 28.214844 L 9 28.214844 Z M 9 21 " clip-rule="nonzero"/></clipPath></defs><g clip-path="url(#457fad839f)"><path fill="#ffffff" d="M 0.484375 0 L 29.515625 0 L 29.515625 29.03125 L 0.484375 29.03125 Z M 0.484375 0 " fill-opacity="1" fill-rule="nonzero"/><path fill="#ffffff" d="M 0.484375 0 L 29.515625 0 L 29.515625 29.03125 L 0.484375 29.03125 Z M 0.484375 0 " fill-opacity="1" fill-rule="nonzero"/></g><g clip-path="url(#1894a9b191)"><path fill="#925f3d" d="M 28.003906 3.964844 C 28.003906 4.40625 27.917969 4.828125 27.75 5.234375 C 27.582031 5.640625 27.34375 6 27.03125 6.3125 C 26.71875 6.625 26.359375 6.863281 25.953125 7.03125 C 25.546875 7.199219 25.121094 7.285156 24.683594 7.285156 C 24.242188 7.285156 23.816406 7.199219 23.410156 7.03125 C 23.003906 6.863281 22.644531 6.625 22.332031 6.3125 C 22.023438 6 21.78125 5.640625 21.613281 5.234375 C 21.445312 4.828125 21.359375 4.40625 21.359375 3.964844 C 21.359375 3.523438 21.445312 3.101562 21.613281 2.691406 C 21.78125 2.285156 22.023438 1.925781 22.332031 1.617188 C 22.644531 1.304688 23.003906 1.0625 23.410156 0.894531 C 23.816406 0.726562 24.242188 0.640625 24.683594 0.640625 C 25.121094 0.640625 25.546875 0.726562 25.953125 0.894531 C 26.359375 1.0625 26.71875 1.304688 27.03125 1.617188 C 27.34375 1.925781 27.582031 2.285156 27.75 2.691406 C 27.917969 3.101562 28.003906 3.523438 28.003906 3.964844 Z M 28.003906 3.964844 " fill-opacity="1" fill-rule="nonzero"/></g><g clip-path="url(#68b17ab2f2)"><path fill="#925f3d" d="M 27.257812 7.503906 C 26.535156 8.03125 25.644531 8.34375 24.683594 8.34375 C 23.714844 8.34375 22.816406 8.027344 22.089844 7.492188 C 20.726562 8.351562 19.820312 9.867188 19.820312 11.601562 L 19.820312 13.632812 L 29.515625 13.632812 L 29.515625 11.601562 C 29.515625 9.875 28.617188 8.363281 27.257812 7.503906 Z M 27.257812 7.503906 " fill-opacity="1" fill-rule="nonzero"/></g><g clip-path="url(#d0f117e325)"><path fill="#925f3d" d="M 9.007812 20.871094 L 8.480469 20.492188 C 8.578125 20.238281 8.648438 19.96875 8.6875 19.695312 L 9.3125 19.59375 C 9.648438 19.542969 9.875 19.226562 9.824219 18.890625 L 9.714844 18.210938 C 9.660156 17.875 9.34375 17.644531 9.011719 17.699219 L 8.421875 17.792969 C 8.304688 17.527344 8.15625 17.277344 7.980469 17.054688 L 8.324219 16.582031 C 8.523438 16.308594 8.460938 15.921875 8.1875 15.722656 L 7.628906 15.316406 C 7.351562 15.117188 6.96875 15.179688 6.769531 15.453125 L 6.441406 15.90625 C 6.167969 15.800781 5.878906 15.726562 5.578125 15.691406 L 5.492188 15.148438 C 5.441406 14.8125 5.125 14.585938 4.789062 14.640625 L 4.109375 14.75 C 3.773438 14.800781 3.542969 15.117188 3.597656 15.453125 L 3.683594 15.996094 C 3.410156 16.121094 3.15625 16.277344 2.929688 16.464844 L 2.480469 16.136719 C 2.203125 15.9375 1.820312 16 1.621094 16.273438 L 1.214844 16.835938 C 1.015625 17.109375 1.078125 17.492188 1.351562 17.691406 L 1.824219 18.035156 C 1.726562 18.304688 1.664062 18.585938 1.636719 18.875 L 1.046875 18.96875 C 0.710938 19.023438 0.484375 19.335938 0.539062 19.671875 L 0.644531 20.355469 C 0.699219 20.691406 1.015625 20.917969 1.347656 20.863281 L 1.976562 20.765625 C 2.097656 21.015625 2.246094 21.246094 2.417969 21.457031 L 2.035156 21.984375 C 1.835938 22.257812 1.898438 22.640625 2.171875 22.839844 L 2.730469 23.246094 C 3.007812 23.445312 3.390625 23.382812 3.589844 23.109375 L 3.984375 22.5625 C 4.234375 22.652344 4.492188 22.710938 4.757812 22.742188 L 4.867188 23.414062 C 4.921875 23.75 5.234375 23.976562 5.570312 23.925781 L 6.253906 23.816406 C 6.585938 23.761719 6.816406 23.449219 6.761719 23.113281 L 6.65625 22.441406 C 6.898438 22.328125 7.125 22.191406 7.335938 22.03125 L 7.878906 22.425781 C 8.15625 22.625 8.539062 22.5625 8.738281 22.289062 L 9.144531 21.730469 C 9.34375 21.457031 9.28125 21.070312 9.007812 20.871094 Z M 5.488281 21.222656 C 4.417969 21.390625 3.410156 20.660156 3.242188 19.589844 C 3.070312 18.523438 3.800781 17.511719 4.871094 17.34375 C 5.941406 17.171875 6.949219 17.902344 7.117188 18.972656 C 7.289062 20.042969 6.558594 21.050781 5.488281 21.222656 Z M 5.488281 21.222656 " fill-opacity="1" fill-rule="nonzero"/></g><g clip-path="url(#ffe35e8f78)"><path fill="#925f3d" d="M 16.097656 23.941406 C 16.058594 23.683594 15.816406 23.503906 15.554688 23.546875 L 15.101562 23.621094 C 15.011719 23.414062 14.898438 23.222656 14.761719 23.046875 L 15.027344 22.683594 C 15.179688 22.472656 15.132812 22.175781 14.921875 22.023438 L 14.488281 21.707031 C 14.277344 21.554688 13.980469 21.601562 13.828125 21.8125 L 13.574219 22.160156 C 13.363281 22.082031 13.140625 22.023438 12.910156 21.996094 L 12.84375 21.578125 C 12.800781 21.320312 12.558594 21.144531 12.300781 21.183594 L 11.773438 21.269531 C 11.515625 21.308594 11.335938 21.554688 11.378906 21.8125 L 11.445312 22.230469 C 11.234375 22.328125 11.039062 22.449219 10.863281 22.59375 L 10.515625 22.34375 C 10.304688 22.1875 10.007812 22.234375 9.855469 22.449219 L 9.539062 22.878906 C 9.386719 23.089844 9.433594 23.386719 9.648438 23.542969 L 10.011719 23.804688 C 9.9375 24.011719 9.886719 24.230469 9.867188 24.453125 L 9.410156 24.527344 C 9.152344 24.566406 8.976562 24.808594 9.015625 25.070312 L 9.101562 25.59375 C 9.140625 25.855469 9.386719 26.03125 9.644531 25.988281 L 10.128906 25.910156 C 10.222656 26.105469 10.335938 26.285156 10.46875 26.445312 L 10.175781 26.851562 C 10.019531 27.0625 10.066406 27.359375 10.28125 27.515625 L 10.710938 27.828125 C 10.921875 27.980469 11.21875 27.933594 11.375 27.722656 L 11.679688 27.300781 C 11.871094 27.367188 12.070312 27.414062 12.277344 27.4375 L 12.359375 27.957031 C 12.398438 28.214844 12.644531 28.390625 12.902344 28.351562 L 13.425781 28.265625 C 13.6875 28.226562 13.863281 27.984375 13.820312 27.722656 L 13.738281 27.207031 C 13.925781 27.117188 14.101562 27.011719 14.261719 26.886719 L 14.683594 27.195312 C 14.894531 27.347656 15.191406 27.300781 15.347656 27.089844 L 15.660156 26.65625 C 15.8125 26.445312 15.765625 26.148438 15.554688 25.996094 L 15.148438 25.699219 C 15.222656 25.503906 15.277344 25.296875 15.304688 25.085938 L 15.789062 25.007812 C 16.046875 24.96875 16.222656 24.726562 16.183594 24.464844 Z M 12.839844 26.265625 C 12.011719 26.394531 11.234375 25.832031 11.105469 25.007812 C 10.972656 24.179688 11.535156 23.402344 12.363281 23.273438 C 13.1875 23.140625 13.964844 23.703125 14.097656 24.53125 C 14.226562 25.355469 13.664062 26.132812 12.839844 26.265625 Z M 12.839844 26.265625 " fill-opacity="1" fill-rule="nonzero"/></g><path fill="#925f3d" d="M 11.609375 4.914062 C 11.609375 4.914062 11.609375 4.914062 11.605469 4.914062 C 8.570312 5.304688 6.421875 8.082031 6.808594 11.121094 C 6.832031 11.28125 6.859375 11.4375 6.890625 11.59375 C 6.960938 11.90625 7.394531 11.933594 7.503906 11.632812 C 8.195312 9.753906 9.882812 8.316406 12.007812 8.042969 C 12.007812 8.042969 12.011719 8.042969 12.015625 8.042969 C 12.1875 8.019531 12.347656 8.144531 12.367188 8.320312 L 12.457031 9.015625 C 12.492188 9.285156 12.820312 9.390625 13.007812 9.199219 L 15.773438 6.328125 C 15.914062 6.179688 15.882812 5.9375 15.710938 5.832031 L 12.308594 3.75 C 12.078125 3.609375 11.789062 3.796875 11.824219 4.066406 L 11.886719 4.558594 C 11.910156 4.734375 11.785156 4.890625 11.609375 4.914062 Z M 11.609375 4.914062 " fill-opacity="1" fill-rule="nonzero"/><path fill="#925f3d" d="M 28.339844 17.726562 C 28.273438 17.417969 27.835938 17.386719 27.726562 17.6875 C 27.035156 19.566406 25.347656 21.007812 23.226562 21.277344 C 23.222656 21.277344 23.21875 21.277344 23.21875 21.277344 C 23.042969 21.300781 22.886719 21.175781 22.863281 21 L 22.773438 20.304688 C 22.738281 20.039062 22.410156 19.929688 22.226562 20.121094 L 19.457031 22.992188 C 19.316406 23.140625 19.347656 23.382812 19.523438 23.488281 L 22.921875 25.570312 C 23.152344 25.710938 23.441406 25.523438 23.40625 25.257812 L 23.34375 24.761719 C 23.320312 24.585938 23.445312 24.429688 23.621094 24.40625 C 23.625 24.40625 23.625 24.40625 23.625 24.40625 C 26.664062 24.015625 28.8125 21.238281 28.421875 18.203125 C 28.402344 18.042969 28.375 17.882812 28.339844 17.726562 Z M 28.339844 17.726562 " fill-opacity="1" fill-rule="nonzero"/></svg>