<svg xmlns="http://www.w3.org/2000/svg" xmlns:xlink="http://www.w3.org/1999/xlink" width="50" zoomAndPan="magnify" viewBox="0 0 37.5 37.499999" height="50" preserveAspectRatio="xMidYMid meet" version="1.0"><defs><clipPath id="d81f056b6c"><path d="M 2.84375 0 L 33.929688 0 L 33.929688 37.007812 L 2.84375 37.007812 Z M 2.84375 0 " clip-rule="nonzero"/></clipPath></defs><g clip-path="url(#d81f056b6c)"><path fill="#935f3d" d="M 34.160156 18.433594 C 34.160156 17.121094 33.230469 16.003906 31.933594 15.582031 C 32.207031 15.3125 32.417969 15.003906 32.566406 14.652344 C 32.710938 14.296875 32.789062 13.929688 32.789062 13.546875 C 32.789062 13.164062 32.71875 12.796875 32.574219 12.445312 C 32.425781 12.089844 32.21875 11.777344 31.949219 11.507812 C 31.679688 11.238281 31.367188 11.027344 31.015625 10.882812 C 30.660156 10.734375 30.292969 10.660156 29.910156 10.660156 C 29.527344 10.660156 29.160156 10.734375 28.808594 10.882812 C 28.457031 11.027344 28.144531 11.238281 27.875 11.507812 C 27.605469 11.78125 27.398438 12.089844 27.25 12.445312 C 27.105469 12.800781 27.035156 13.167969 27.035156 13.550781 C 27.035156 13.933594 27.113281 14.300781 27.257812 14.652344 C 27.40625 15.003906 27.617188 15.316406 27.890625 15.582031 C 27.644531 15.664062 27.414062 15.765625 27.191406 15.898438 C 26.660156 15.226562 25.984375 14.773438 25.160156 14.550781 C 25.492188 14.25 25.753906 13.894531 25.945312 13.488281 C 26.136719 13.078125 26.238281 12.648438 26.253906 12.199219 C 26.273438 11.75 26.199219 11.316406 26.039062 10.894531 C 25.878906 10.476562 25.640625 10.105469 25.328125 9.78125 C 25.015625 9.457031 24.652344 9.207031 24.238281 9.03125 C 23.824219 8.855469 23.390625 8.765625 22.941406 8.765625 C 22.492188 8.765625 22.058594 8.855469 21.644531 9.03125 C 21.230469 9.207031 20.867188 9.457031 20.554688 9.78125 C 20.242188 10.105469 20.007812 10.476562 19.84375 10.894531 C 19.683594 11.316406 19.613281 11.75 19.628906 12.199219 C 19.644531 12.648438 19.746094 13.078125 19.9375 13.488281 C 20.128906 13.894531 20.390625 14.25 20.726562 14.550781 C 20.070312 14.730469 19.5 15.058594 19.011719 15.535156 L 19.011719 6.34375 L 25.984375 6.34375 C 26.203125 6.34375 26.359375 6.242188 26.449219 6.039062 C 26.535156 5.835938 26.503906 5.652344 26.351562 5.492188 L 24.589844 3.625 L 26.351562 1.757812 C 26.503906 1.59375 26.535156 1.414062 26.445312 1.210938 C 26.359375 1.007812 26.203125 0.90625 25.984375 0.90625 L 19.011719 0.90625 L 19.011719 0.527344 C 19.011719 0.386719 18.964844 0.269531 18.867188 0.167969 C 18.765625 0.0703125 18.648438 0.0234375 18.507812 0.0234375 C 18.367188 0.0234375 18.25 0.0703125 18.152344 0.167969 C 18.050781 0.269531 18.003906 0.386719 18.003906 0.527344 L 18.003906 15.535156 C 17.515625 15.058594 16.945312 14.730469 16.289062 14.550781 C 16.625 14.25 16.886719 13.894531 17.078125 13.488281 C 17.265625 13.078125 17.371094 12.648438 17.386719 12.199219 C 17.402344 11.75 17.328125 11.316406 17.167969 10.894531 C 17.007812 10.476562 16.769531 10.105469 16.457031 9.78125 C 16.144531 9.457031 15.78125 9.207031 15.367188 9.03125 C 14.953125 8.855469 14.523438 8.769531 14.070312 8.769531 C 13.621094 8.769531 13.191406 8.855469 12.777344 9.03125 C 12.363281 9.207031 12 9.457031 11.6875 9.78125 C 11.375 10.105469 11.136719 10.476562 10.976562 10.894531 C 10.816406 11.316406 10.742188 11.75 10.757812 12.199219 C 10.773438 12.648438 10.878906 13.078125 11.066406 13.488281 C 11.257812 13.894531 11.519531 14.25 11.855469 14.550781 C 11.03125 14.773438 10.351562 15.226562 9.824219 15.898438 C 9.601562 15.765625 9.367188 15.664062 9.125 15.582031 C 9.394531 15.316406 9.605469 15.003906 9.753906 14.652344 C 9.902344 14.300781 9.976562 13.929688 9.976562 13.550781 C 9.980469 13.167969 9.90625 12.800781 9.761719 12.445312 C 9.617188 12.089844 9.410156 11.777344 9.140625 11.507812 C 8.871094 11.238281 8.558594 11.027344 8.207031 10.882812 C 7.851562 10.734375 7.484375 10.660156 7.101562 10.660156 C 6.71875 10.660156 6.351562 10.734375 6 10.882812 C 5.644531 11.027344 5.335938 11.238281 5.066406 11.507812 C 4.792969 11.777344 4.585938 12.089844 4.441406 12.445312 C 4.296875 12.796875 4.222656 13.164062 4.226562 13.546875 C 4.226562 13.929688 4.300781 14.296875 4.449219 14.652344 C 4.597656 15.003906 4.804688 15.3125 5.078125 15.582031 C 3.785156 16.003906 2.855469 17.121094 2.855469 18.433594 L 2.855469 21.242188 C 2.855469 21.265625 2.859375 21.289062 2.863281 21.316406 C 2.859375 21.339844 2.855469 21.363281 2.855469 21.390625 C 2.855469 22.9375 3.085938 24.453125 3.539062 25.933594 C 3.992188 27.414062 4.648438 28.796875 5.515625 30.078125 C 6.667969 31.804688 8.109375 33.242188 9.839844 34.394531 C 11.570312 35.542969 13.453125 36.3125 15.492188 36.707031 C 16.5 36.90625 17.515625 37.007812 18.539062 37.007812 C 19.566406 37.003906 20.578125 36.902344 21.585938 36.699219 C 22.589844 36.496094 23.5625 36.199219 24.511719 35.804688 C 25.457031 35.414062 26.355469 34.929688 27.207031 34.363281 C 28.058594 33.792969 28.847656 33.144531 29.570312 32.421875 C 30.296875 31.695312 30.941406 30.90625 31.511719 30.054688 C 32.082031 29.203125 32.5625 28.304688 32.957031 27.359375 C 33.351562 26.414062 33.648438 25.4375 33.851562 24.433594 C 34.054688 23.429688 34.15625 22.414062 34.160156 21.390625 C 34.160156 21.363281 34.15625 21.339844 34.152344 21.316406 C 34.15625 21.289062 34.15625 21.265625 34.160156 21.242188 Z M 29.910156 11.675781 C 30.160156 11.679688 30.398438 11.726562 30.625 11.820312 C 30.855469 11.914062 31.054688 12.050781 31.230469 12.222656 C 31.40625 12.398438 31.539062 12.601562 31.632812 12.828125 C 31.726562 13.058594 31.773438 13.296875 31.773438 13.542969 C 31.773438 13.789062 31.726562 14.027344 31.632812 14.257812 C 31.539062 14.484375 31.402344 14.6875 31.226562 14.859375 C 31.054688 15.035156 30.851562 15.171875 30.625 15.265625 C 30.394531 15.359375 30.15625 15.40625 29.910156 15.40625 C 29.664062 15.40625 29.425781 15.359375 29.195312 15.265625 C 28.96875 15.167969 28.765625 15.035156 28.59375 14.859375 C 28.417969 14.683594 28.28125 14.484375 28.1875 14.253906 C 28.09375 14.027344 28.046875 13.789062 28.046875 13.539062 C 28.046875 13.292969 28.09375 13.054688 28.191406 12.828125 C 28.285156 12.597656 28.417969 12.398438 28.59375 12.222656 C 28.769531 12.050781 28.96875 11.914062 29.199219 11.820312 C 29.425781 11.726562 29.664062 11.679688 29.910156 11.675781 Z M 29.015625 16.417969 L 30.808594 16.417969 C 32.097656 16.417969 33.148438 17.320312 33.148438 18.433594 L 33.148438 20.882812 L 27.882812 20.882812 L 27.882812 17.886719 C 27.882812 17.503906 27.816406 17.136719 27.683594 16.78125 C 28.09375 16.535156 28.539062 16.414062 29.015625 16.417969 Z M 22.941406 9.78125 C 23.25 9.78125 23.542969 9.839844 23.824219 9.957031 C 24.105469 10.074219 24.355469 10.242188 24.570312 10.457031 C 24.789062 10.671875 24.953125 10.921875 25.070312 11.207031 C 25.1875 11.488281 25.246094 11.78125 25.246094 12.085938 C 25.246094 12.394531 25.1875 12.6875 25.070312 12.96875 C 24.953125 13.25 24.785156 13.5 24.570312 13.714844 C 24.355469 13.933594 24.105469 14.097656 23.824219 14.214844 C 23.539062 14.332031 23.246094 14.390625 22.941406 14.390625 C 22.636719 14.390625 22.339844 14.332031 22.058594 14.214844 C 21.777344 14.097656 21.527344 13.929688 21.3125 13.714844 C 21.09375 13.5 20.929688 13.25 20.8125 12.96875 C 20.695312 12.683594 20.636719 12.390625 20.636719 12.085938 C 20.636719 11.78125 20.695312 11.484375 20.8125 11.203125 C 20.929688 10.921875 21.097656 10.671875 21.3125 10.457031 C 21.53125 10.242188 21.777344 10.074219 22.0625 9.957031 C 22.34375 9.839844 22.636719 9.78125 22.941406 9.78125 Z M 21.882812 15.402344 L 24 15.402344 C 25.140625 15.402344 26.125 15.980469 26.589844 16.8125 C 26.597656 16.832031 26.609375 16.851562 26.621094 16.871094 C 26.789062 17.1875 26.871094 17.527344 26.871094 17.886719 L 26.871094 20.882812 L 19.011719 20.882812 L 19.011719 17.816406 C 19.054688 16.476562 20.328125 15.402344 21.882812 15.402344 Z M 24.8125 1.914062 L 23.527344 3.277344 C 23.4375 3.375 23.390625 3.488281 23.390625 3.621094 C 23.390625 3.757812 23.4375 3.871094 23.527344 3.96875 L 24.8125 5.332031 L 19.011719 5.332031 L 19.011719 1.914062 Z M 14.070312 9.78125 C 14.375 9.78125 14.671875 9.839844 14.953125 9.957031 C 15.234375 10.074219 15.484375 10.238281 15.699219 10.457031 C 15.917969 10.671875 16.082031 10.921875 16.199219 11.203125 C 16.316406 11.484375 16.375 11.78125 16.375 12.085938 C 16.375 12.390625 16.316406 12.683594 16.203125 12.96875 C 16.085938 13.25 15.917969 13.5 15.703125 13.714844 C 15.484375 13.929688 15.234375 14.097656 14.953125 14.214844 C 14.671875 14.332031 14.378906 14.390625 14.070312 14.390625 C 13.765625 14.390625 13.472656 14.332031 13.191406 14.214844 C 12.90625 14.097656 12.660156 13.929688 12.441406 13.714844 C 12.226562 13.5 12.058594 13.25 11.941406 12.96875 C 11.824219 12.683594 11.769531 12.390625 11.769531 12.085938 C 11.769531 11.78125 11.828125 11.484375 11.945312 11.203125 C 12.0625 10.921875 12.226562 10.671875 12.445312 10.457031 C 12.660156 10.242188 12.910156 10.074219 13.191406 9.957031 C 13.472656 9.839844 13.765625 9.78125 14.070312 9.78125 Z M 13.011719 15.402344 L 15.132812 15.402344 C 16.699219 15.402344 17.980469 16.496094 18 17.851562 C 18 17.863281 18 17.875 18 17.886719 C 18 17.898438 18 17.914062 18.003906 17.925781 L 18.003906 20.882812 L 10.140625 20.882812 L 10.140625 17.886719 C 10.144531 17.527344 10.226562 17.191406 10.394531 16.871094 C 10.402344 16.855469 10.414062 16.835938 10.421875 16.8125 C 10.886719 15.980469 11.875 15.402344 13.011719 15.402344 Z M 7.101562 11.675781 C 7.347656 11.679688 7.585938 11.726562 7.816406 11.820312 C 8.042969 11.914062 8.246094 12.050781 8.417969 12.222656 C 8.59375 12.398438 8.730469 12.601562 8.824219 12.828125 C 8.917969 13.058594 8.964844 13.296875 8.964844 13.542969 C 8.964844 13.789062 8.917969 14.027344 8.824219 14.257812 C 8.726562 14.484375 8.59375 14.6875 8.417969 14.859375 C 8.242188 15.035156 8.042969 15.171875 7.8125 15.265625 C 7.585938 15.359375 7.347656 15.40625 7.101562 15.40625 C 6.851562 15.40625 6.613281 15.359375 6.386719 15.265625 C 6.15625 15.167969 5.957031 15.035156 5.78125 14.859375 C 5.605469 14.683594 5.472656 14.484375 5.378906 14.253906 C 5.285156 14.027344 5.238281 13.789062 5.238281 13.539062 C 5.238281 13.292969 5.285156 13.054688 5.378906 12.828125 C 5.472656 12.597656 5.609375 12.398438 5.785156 12.222656 C 5.957031 12.050781 6.160156 11.914062 6.386719 11.820312 C 6.617188 11.726562 6.855469 11.679688 7.101562 11.675781 Z M 6.207031 16.417969 L 7.996094 16.417969 C 8.476562 16.414062 8.917969 16.535156 9.332031 16.78125 C 9.199219 17.136719 9.132812 17.503906 9.128906 17.886719 L 9.128906 20.882812 L 3.867188 20.882812 L 3.867188 18.433594 C 3.867188 17.320312 4.917969 16.417969 6.207031 16.417969 Z M 3.875 21.894531 L 9.164062 21.894531 C 9.207031 22.226562 9.121094 22.699219 8.652344 23.46875 C 8.183594 24.238281 7.984375 25.144531 7.769531 26.101562 C 7.5 27.320312 7.222656 28.574219 6.347656 29.507812 C 4.800781 27.207031 3.976562 24.667969 3.875 21.894531 Z M 6.953125 30.339844 C 8.121094 29.191406 8.457031 27.671875 8.757812 26.320312 C 8.953125 25.445312 9.136719 24.621094 9.515625 23.996094 C 10.007812 23.183594 10.222656 22.511719 10.179688 21.894531 L 17.640625 21.894531 C 17.414062 22.171875 17.320312 22.425781 17.332031 22.691406 C 17.359375 23.257812 17.863281 23.550781 18.351562 23.835938 C 18.816406 24.105469 19.34375 24.410156 19.5625 24.945312 C 19.84375 25.636719 19.535156 26.019531 18.914062 26.691406 C 18.273438 27.394531 17.390625 28.355469 18.101562 29.941406 C 18.199219 30.167969 18.179688 30.835938 18.085938 31.195312 C 17.832031 31.050781 17.074219 30.527344 16.503906 30.136719 C 15.566406 29.492188 14.976562 29.089844 14.699219 28.949219 C 14.066406 28.621094 13.453125 28.570312 12.882812 28.789062 C 11.5 29.316406 10.730469 31.308594 10.050781 33.070312 L 9.980469 33.25 C 8.828125 32.429688 7.820312 31.457031 6.953125 30.339844 Z M 10.84375 33.824219 C 10.894531 33.695312 10.945312 33.566406 10.996094 33.433594 C 11.566406 31.949219 12.28125 30.097656 13.242188 29.734375 C 13.539062 29.621094 13.867188 29.65625 14.242188 29.847656 C 14.476562 29.96875 15.25 30.5 15.933594 30.972656 C 16.351562 31.261719 16.785156 31.558594 17.117188 31.777344 C 17.316406 31.917969 17.523438 32.042969 17.742188 32.152344 C 17.871094 32.257812 18.015625 32.3125 18.179688 32.316406 C 18.34375 32.324219 18.492188 32.277344 18.625 32.183594 C 19.261719 31.734375 19.28125 30.105469 19.023438 29.527344 C 18.605469 28.59375 18.972656 28.125 19.660156 27.375 C 20.273438 26.710938 21.035156 25.878906 20.496094 24.5625 C 20.148438 23.707031 19.402344 23.277344 18.859375 22.960938 C 18.691406 22.863281 18.445312 22.71875 18.355469 22.632812 C 18.398438 22.550781 18.558594 22.328125 19.152344 21.894531 L 30.597656 21.894531 C 30.429688 22.257812 29.75 22.800781 29.140625 23.28125 C 28.066406 24.132812 26.730469 25.195312 26.277344 26.570312 C 25.484375 28.984375 24.703125 29.53125 23.792969 30.167969 C 22.96875 30.742188 22.035156 31.394531 21.066406 33.34375 C 20.703125 34.070312 20.664062 34.867188 20.632812 35.570312 C 20.628906 35.660156 20.625 35.75 20.617188 35.835938 C 18.921875 36.078125 17.234375 36.027344 15.554688 35.683594 C 13.878906 35.335938 12.304688 34.714844 10.84375 33.824219 Z M 26.671875 33.503906 C 25.132812 34.539062 23.453125 35.257812 21.640625 35.652344 C 21.640625 35.640625 21.640625 35.628906 21.640625 35.617188 C 21.671875 34.984375 21.703125 34.328125 21.96875 33.796875 C 22.828125 32.078125 23.578125 31.550781 24.371094 30.996094 C 25.339844 30.320312 26.34375 29.621094 27.238281 26.882812 C 27.597656 25.796875 28.75 24.882812 29.769531 24.074219 C 30.714844 23.328125 31.457031 22.734375 31.621094 22.027344 C 31.625 22 31.632812 21.964844 31.640625 21.894531 L 33.136719 21.894531 C 33.09375 23.046875 32.917969 24.179688 32.605469 25.292969 C 32.296875 26.40625 31.859375 27.464844 31.296875 28.476562 C 30.734375 29.484375 30.0625 30.414062 29.28125 31.261719 C 28.5 32.113281 27.628906 32.859375 26.671875 33.503906 Z M 26.671875 33.503906 " fill-opacity="1" fill-rule="nonzero"/></g></svg>