<svg xmlns="http://www.w3.org/2000/svg" xmlns:xlink="http://www.w3.org/1999/xlink" width="40" zoomAndPan="magnify" viewBox="0 0 30 30.000001" height="40" preserveAspectRatio="xMidYMid meet" version="1.0"><defs><clipPath id="f3d1ee2769"><path d="M 0.484375 0 L 29.515625 0 L 29.515625 29.03125 L 0.484375 29.03125 Z M 0.484375 0 " clip-rule="nonzero"/></clipPath><clipPath id="157ef2b992"><path d="M 0.703125 0 L 29.007812 0 L 29.007812 29.03125 L 0.703125 29.03125 Z M 0.703125 0 " clip-rule="nonzero"/></clipPath></defs><g clip-path="url(#f3d1ee2769)"><path fill="#ffffff" d="M 0.484375 0 L 29.515625 0 L 29.515625 29.03125 L 0.484375 29.03125 Z M 0.484375 0 " fill-opacity="1" fill-rule="nonzero"/><path fill="#ffffff" d="M 0.484375 0 L 29.515625 0 L 29.515625 29.03125 L 0.484375 29.03125 Z M 0.484375 0 " fill-opacity="1" fill-rule="nonzero"/></g><g clip-path="url(#157ef2b992)"><path fill="#925f3d" d="M 18.113281 13.886719 C 18.042969 13.800781 17.941406 13.75 17.828125 13.75 C 17.714844 13.75 17.609375 13.800781 17.542969 13.886719 L 15.027344 17.121094 C 14.941406 17.230469 14.925781 17.378906 14.984375 17.5 C 15.046875 17.625 15.171875 17.703125 15.308594 17.703125 L 16.46875 17.703125 L 16.46875 20.78125 C 16.46875 20.980469 16.632812 21.140625 16.832031 21.140625 L 18.824219 21.140625 C 19.023438 21.140625 19.1875 20.980469 19.1875 20.78125 L 19.1875 17.703125 L 20.34375 17.703125 C 20.484375 17.703125 20.609375 17.625 20.671875 17.5 C 20.730469 17.378906 20.714844 17.230469 20.628906 17.121094 Z M 18.824219 16.980469 C 18.625 16.980469 18.464844 17.144531 18.464844 17.34375 L 18.464844 20.417969 L 17.191406 20.417969 L 17.191406 17.34375 C 17.191406 17.144531 17.03125 16.980469 16.832031 16.980469 L 16.050781 16.980469 L 17.828125 14.699219 L 19.605469 16.980469 Z M 8.382812 2.410156 L 8.382812 0.363281 C 8.382812 0.160156 8.542969 0 8.742188 0 C 8.941406 0 9.105469 0.160156 9.105469 0.363281 L 9.105469 2.410156 C 9.105469 2.609375 8.941406 2.769531 8.742188 2.769531 C 8.542969 2.769531 8.382812 2.609375 8.382812 2.410156 Z M 4.03125 1.722656 C 3.929688 1.546875 3.988281 1.328125 4.160156 1.226562 C 4.335938 1.128906 4.554688 1.1875 4.65625 1.359375 L 5.679688 3.132812 C 5.78125 3.308594 5.71875 3.527344 5.546875 3.628906 C 5.492188 3.660156 5.429688 3.675781 5.367188 3.675781 C 5.242188 3.675781 5.121094 3.609375 5.054688 3.496094 Z M 2.714844 6.101562 L 0.9375 5.074219 C 0.765625 4.976562 0.707031 4.753906 0.808594 4.582031 C 0.90625 4.410156 1.128906 4.351562 1.300781 4.449219 L 3.074219 5.472656 C 3.246094 5.574219 3.304688 5.792969 3.207031 5.96875 C 3.140625 6.082031 3.019531 6.148438 2.894531 6.148438 C 2.832031 6.148438 2.769531 6.132812 2.714844 6.101562 Z M 11.808594 3.132812 L 12.832031 1.359375 C 12.933594 1.1875 13.152344 1.128906 13.328125 1.226562 C 13.5 1.328125 13.558594 1.546875 13.457031 1.722656 L 12.433594 3.496094 C 12.367188 3.609375 12.246094 3.675781 12.121094 3.675781 C 12.058594 3.675781 12 3.660156 11.941406 3.628906 C 11.769531 3.527344 11.707031 3.308594 11.808594 3.132812 Z M 14.28125 5.96875 C 14.179688 5.796875 14.242188 5.574219 14.414062 5.472656 L 16.1875 4.449219 C 16.359375 4.351562 16.582031 4.410156 16.679688 4.582031 C 16.78125 4.753906 16.722656 4.976562 16.546875 5.078125 L 14.773438 6.101562 C 14.71875 6.132812 14.65625 6.148438 14.59375 6.148438 C 14.46875 6.148438 14.347656 6.082031 14.28125 5.96875 Z M 28.847656 8.984375 L 27.988281 8.957031 C 27.890625 8.628906 27.757812 8.308594 27.59375 8.003906 L 28.183594 7.378906 C 28.351562 7.199219 28.347656 6.921875 28.171875 6.746094 L 26.8125 5.382812 C 26.636719 5.207031 26.359375 5.203125 26.175781 5.375 L 25.550781 5.960938 C 25.25 5.796875 24.929688 5.667969 24.597656 5.566406 L 24.574219 4.710938 C 24.566406 4.460938 24.363281 4.265625 24.117188 4.265625 L 22.191406 4.265625 C 21.941406 4.265625 21.742188 4.460938 21.734375 4.710938 L 21.710938 5.566406 C 21.378906 5.667969 21.058594 5.796875 20.757812 5.964844 L 20.132812 5.375 C 19.953125 5.203125 19.671875 5.207031 19.496094 5.382812 L 18.136719 6.746094 C 17.960938 6.921875 17.957031 7.199219 18.125 7.382812 L 18.714844 8.003906 C 18.550781 8.308594 18.417969 8.628906 18.320312 8.960938 L 17.460938 8.984375 C 17.214844 8.992188 17.019531 9.191406 17.019531 9.441406 L 17.019531 10.082031 C 16.210938 10.253906 15.460938 10.617188 14.820312 11.148438 C 14.511719 10.699219 14.125 10.304688 13.675781 9.992188 C 13.785156 9.558594 13.84375 9.074219 13.832031 8.515625 C 13.832031 5.710938 11.550781 3.433594 8.746094 3.433594 C 5.941406 3.433594 3.660156 5.710938 3.660156 8.515625 C 3.613281 10.578125 4.554688 11.683594 5.390625 12.65625 C 5.933594 13.289062 6.40625 13.839844 6.515625 14.570312 L 6.515625 14.625 C 5.402344 14.777344 4.394531 15.3125 3.652344 16.160156 C 2.855469 17.074219 2.417969 18.28125 2.417969 19.5625 C 2.417969 22.308594 4.652344 24.542969 7.398438 24.542969 L 8.894531 24.542969 L 8.894531 27.695312 C 8.894531 28.433594 9.496094 29.035156 10.238281 29.035156 L 19.59375 29.035156 C 20.335938 29.035156 20.9375 28.433594 20.9375 27.695312 L 20.9375 24.542969 L 22.433594 24.542969 C 25.179688 24.542969 27.417969 22.308594 27.417969 19.5625 C 27.417969 17.613281 26.265625 15.890625 24.597656 15.078125 L 24.601562 14.945312 C 24.929688 14.847656 25.25 14.714844 25.554688 14.550781 L 26.179688 15.140625 C 26.359375 15.308594 26.636719 15.304688 26.8125 15.128906 L 28.175781 13.769531 C 28.351562 13.59375 28.355469 13.316406 28.183594 13.132812 L 27.597656 12.507812 C 27.761719 12.207031 27.890625 11.886719 27.992188 11.554688 L 28.847656 11.53125 C 29.097656 11.523438 29.292969 11.320312 29.292969 11.074219 L 29.292969 9.441406 C 29.289062 9.191406 29.09375 8.992188 28.847656 8.984375 Z M 4.378906 8.527344 C 4.378906 8.523438 4.378906 8.519531 4.378906 8.515625 C 4.378906 6.109375 6.335938 4.152344 8.742188 4.152344 C 11.152344 4.152344 13.109375 6.109375 13.109375 8.515625 C 13.109375 8.519531 13.109375 8.523438 13.109375 8.527344 C 13.152344 10.316406 12.335938 11.265625 11.550781 12.183594 C 11.019531 12.800781 10.519531 13.386719 10.316406 14.175781 L 10.125 14.175781 L 10.125 13.285156 C 10.125 13.085938 9.964844 12.921875 9.765625 12.921875 L 9.539062 12.921875 L 9.914062 11.285156 C 10.078125 11.382812 10.265625 11.4375 10.460938 11.4375 C 10.746094 11.4375 11.015625 11.324219 11.21875 11.121094 C 11.417969 10.921875 11.53125 10.652344 11.53125 10.367188 C 11.53125 10.082031 11.417969 9.8125 11.21875 9.609375 C 11.015625 9.410156 10.746094 9.296875 10.460938 9.296875 C 10.175781 9.296875 9.90625 9.410156 9.707031 9.609375 C 9.511719 9.804688 9.40625 10.058594 9.394531 10.3125 L 8.796875 12.921875 L 8.6875 12.921875 L 8.089844 10.328125 C 8.078125 10.0625 7.96875 9.8125 7.78125 9.625 C 7.363281 9.207031 6.683594 9.207031 6.265625 9.625 C 6.066406 9.824219 5.953125 10.09375 5.953125 10.378906 C 5.953125 10.664062 6.066406 10.933594 6.265625 11.136719 C 6.476562 11.34375 6.75 11.449219 7.023438 11.449219 C 7.214844 11.449219 7.402344 11.398438 7.570312 11.296875 L 7.945312 12.921875 L 7.71875 12.921875 C 7.519531 12.921875 7.359375 13.085938 7.359375 13.285156 L 7.359375 14.175781 L 7.167969 14.175781 C 6.96875 13.390625 6.464844 12.800781 5.933594 12.183594 C 5.148438 11.265625 4.335938 10.316406 4.378906 8.527344 Z M 8.082031 13.644531 L 9.40625 13.644531 L 9.40625 14.175781 L 8.082031 14.175781 Z M 10.25 14.898438 L 10.25 15.339844 L 7.238281 15.339844 L 7.238281 14.898438 Z M 7.238281 16.0625 L 10.25 16.0625 L 10.25 16.503906 L 7.238281 16.503906 Z M 9.738281 17.226562 L 9.578125 17.386719 C 9.457031 17.507812 9.328125 17.5625 9.171875 17.5625 L 8.316406 17.5625 C 8.160156 17.5625 8.03125 17.507812 7.910156 17.386719 L 7.75 17.226562 Z M 10.21875 10.121094 C 10.285156 10.054688 10.371094 10.019531 10.460938 10.019531 C 10.554688 10.019531 10.640625 10.054688 10.707031 10.121094 C 10.773438 10.1875 10.808594 10.273438 10.808594 10.367188 C 10.808594 10.460938 10.773438 10.546875 10.707031 10.613281 C 10.640625 10.675781 10.554688 10.714844 10.460938 10.714844 C 10.371094 10.714844 10.285156 10.675781 10.21875 10.613281 C 10.082031 10.476562 10.082031 10.257812 10.21875 10.121094 Z M 7.371094 10.378906 C 7.371094 10.472656 7.335938 10.558594 7.269531 10.625 C 7.203125 10.691406 7.117188 10.726562 7.023438 10.726562 C 6.933594 10.726562 6.84375 10.691406 6.78125 10.625 C 6.714844 10.558594 6.679688 10.472656 6.679688 10.378906 C 6.679688 10.285156 6.714844 10.199219 6.78125 10.132812 C 6.847656 10.066406 6.9375 10.03125 7.023438 10.03125 C 7.113281 10.03125 7.203125 10.066406 7.269531 10.132812 C 7.335938 10.199219 7.371094 10.285156 7.371094 10.378906 Z M 20.210938 27.691406 C 20.210938 28.03125 19.933594 28.308594 19.59375 28.308594 L 10.234375 28.308594 C 9.894531 28.308594 9.617188 28.03125 9.617188 27.691406 L 9.617188 21.53125 C 9.617188 21.191406 9.894531 20.914062 10.234375 20.914062 L 13.519531 20.914062 C 13.671875 20.914062 13.808594 20.980469 13.960938 21.128906 L 15.585938 22.714844 C 15.65625 22.78125 15.746094 22.820312 15.839844 22.820312 L 20.210938 22.820312 Z M 26.691406 19.558594 C 26.691406 21.90625 24.78125 23.816406 22.433594 23.816406 L 20.933594 23.816406 L 20.933594 22.457031 C 20.933594 22.257812 20.773438 22.097656 20.574219 22.097656 L 15.988281 22.097656 L 14.46875 20.609375 C 14.175781 20.328125 13.867188 20.191406 13.519531 20.191406 L 10.234375 20.191406 C 9.496094 20.191406 8.894531 20.792969 8.894531 21.53125 L 8.894531 23.816406 L 7.394531 23.816406 C 5.046875 23.816406 3.136719 21.90625 3.136719 19.558594 C 3.136719 17.375 4.535156 15.664062 6.511719 15.351562 L 6.511719 16.867188 C 6.511719 16.964844 6.554688 17.058594 6.621094 17.121094 L 7.398438 17.898438 C 7.65625 18.15625 7.964844 18.285156 8.316406 18.285156 L 9.171875 18.285156 C 9.523438 18.285156 9.832031 18.15625 10.089844 17.898438 L 10.867188 17.121094 C 10.933594 17.058594 10.972656 16.96875 10.972656 16.867188 L 10.972656 14.566406 C 11.085938 13.839844 11.554688 13.289062 12.101562 12.652344 C 12.574219 12.097656 13.085938 11.5 13.429688 10.707031 C 13.835938 11.027344 14.171875 11.425781 14.417969 11.882812 C 14.472656 11.980469 14.570312 12.050781 14.683594 12.066406 C 14.796875 12.082031 14.910156 12.046875 14.992188 11.964844 C 15.816406 11.144531 16.910156 10.695312 18.070312 10.695312 C 20.425781 10.695312 22.378906 12.609375 22.429688 14.960938 C 22.433594 15.144531 22.578125 15.296875 22.761719 15.3125 C 24.964844 15.484375 26.691406 17.347656 26.691406 19.558594 Z M 21.683594 8.785156 C 22.078125 8.394531 22.597656 8.179688 23.152344 8.179688 C 23.707031 8.179688 24.230469 8.394531 24.621094 8.785156 C 25.433594 9.597656 25.433594 10.914062 24.621094 11.726562 C 23.988281 12.359375 23.007812 12.511719 22.214844 12.109375 C 22.039062 11.867188 21.84375 11.636719 21.628906 11.425781 C 21.507812 11.308594 21.378906 11.195312 21.25 11.089844 C 20.910156 10.308594 21.078125 9.394531 21.683594 8.785156 Z M 28.566406 10.8125 L 27.769531 10.835938 C 27.5625 10.84375 27.390625 10.980469 27.339844 11.179688 C 27.238281 11.578125 27.082031 11.960938 26.871094 12.3125 C 26.769531 12.488281 26.792969 12.707031 26.933594 12.855469 L 27.476562 13.4375 L 26.480469 14.433594 L 25.902344 13.886719 C 25.753906 13.746094 25.53125 13.722656 25.355469 13.828125 C 25.003906 14.039062 24.621094 14.195312 24.222656 14.296875 C 24.023438 14.347656 23.886719 14.519531 23.882812 14.726562 L 23.878906 14.792969 C 23.640625 14.722656 23.390625 14.664062 23.136719 14.628906 C 23.089844 14.066406 22.953125 13.527344 22.730469 13.023438 C 22.871094 13.042969 23.007812 13.054688 23.148438 13.054688 C 23.875 13.054688 24.597656 12.773438 25.132812 12.234375 C 26.226562 11.144531 26.226562 9.367188 25.132812 8.277344 C 24.605469 7.746094 23.902344 7.453125 23.152344 7.453125 C 22.40625 7.453125 21.703125 7.746094 21.171875 8.277344 C 20.570312 8.875 20.289062 9.703125 20.363281 10.519531 C 19.660156 10.160156 18.878906 9.972656 18.070312 9.972656 C 17.957031 9.972656 17.847656 9.976562 17.738281 9.984375 L 17.738281 9.699219 L 18.535156 9.675781 C 18.742188 9.667969 18.914062 9.53125 18.964844 9.332031 C 19.066406 8.933594 19.222656 8.550781 19.433594 8.199219 C 19.539062 8.019531 19.515625 7.800781 19.375 7.652344 L 18.828125 7.074219 L 19.824219 6.078125 L 20.402344 6.625 C 20.550781 6.765625 20.769531 6.789062 20.945312 6.683594 C 21.300781 6.472656 21.683594 6.316406 22.082031 6.214844 C 22.28125 6.164062 22.417969 5.992188 22.425781 5.785156 L 22.449219 4.992188 L 23.855469 4.992188 L 23.878906 5.785156 C 23.886719 5.992188 24.023438 6.164062 24.222656 6.214844 C 24.621094 6.316406 25.003906 6.472656 25.355469 6.683594 C 25.535156 6.789062 25.753906 6.765625 25.902344 6.625 L 26.480469 6.078125 L 27.476562 7.074219 L 26.933594 7.65625 C 26.792969 7.804688 26.769531 8.023438 26.871094 8.199219 C 27.082031 8.550781 27.238281 8.933594 27.339844 9.332031 C 27.390625 9.53125 27.5625 9.667969 27.769531 9.675781 L 28.566406 9.699219 Z M 28.566406 10.8125 " fill-opacity="1" fill-rule="nonzero"/></g></svg>