<svg xmlns="http://www.w3.org/2000/svg" xmlns:xlink="http://www.w3.org/1999/xlink" width="40" zoomAndPan="magnify" viewBox="0 0 30 30.000001" height="40" preserveAspectRatio="xMidYMid meet" version="1.0"><defs><clipPath id="ef4f718c6b"><path d="M 0.484375 0 L 29.515625 0 L 29.515625 29.03125 L 0.484375 29.03125 Z M 0.484375 0 " clip-rule="nonzero"/></clipPath><clipPath id="e21cd11f06"><path d="M 0.484375 0.472656 L 29.515625 0.472656 L 29.515625 28.777344 L 0.484375 28.777344 Z M 0.484375 0.472656 " clip-rule="nonzero"/></clipPath></defs><g clip-path="url(#ef4f718c6b)"><path fill="#ffffff" d="M 0.484375 0 L 29.515625 0 L 29.515625 29.03125 L 0.484375 29.03125 Z M 0.484375 0 " fill-opacity="1" fill-rule="nonzero"/><path fill="#ffffff" d="M 0.484375 0 L 29.515625 0 L 29.515625 29.03125 L 0.484375 29.03125 Z M 0.484375 0 " fill-opacity="1" fill-rule="nonzero"/></g><g clip-path="url(#e21cd11f06)"><path fill="#925f3d" d="M 5.195312 9.664062 L 4.207031 6.90625 C 4.207031 6.902344 4.207031 6.902344 4.203125 6.898438 C 4.179688 6.800781 4.117188 6.710938 4.023438 6.652344 C 3.894531 6.5625 3.730469 6.550781 3.59375 6.613281 C 3.59375 6.613281 3.59375 6.613281 3.589844 6.613281 L 0.832031 7.601562 C 0.601562 7.683594 0.484375 7.9375 0.566406 8.171875 C 0.648438 8.402344 0.902344 8.519531 1.132812 8.4375 L 2.59375 7.914062 C 2.617188 7.90625 2.640625 7.914062 2.65625 7.933594 C 2.675781 7.949219 2.675781 7.976562 2.664062 8 C 2.226562 8.8125 1.867188 9.675781 1.589844 10.574219 C 1.1875 11.898438 0.96875 13.300781 0.96875 14.75 C 0.96875 18.691406 2.566406 22.257812 5.148438 24.839844 C 7.730469 27.421875 11.296875 29.019531 15.238281 29.019531 C 16.6875 29.019531 18.089844 28.800781 19.410156 28.398438 C 20.78125 27.976562 22.0625 27.363281 23.21875 26.582031 C 23.421875 26.441406 23.476562 26.167969 23.335938 25.960938 C 23.199219 25.757812 22.921875 25.707031 22.71875 25.84375 C 21.632812 26.578125 20.433594 27.15625 19.152344 27.546875 C 17.917969 27.925781 16.605469 28.128906 15.238281 28.128906 C 11.542969 28.128906 8.199219 26.628906 5.777344 24.210938 C 3.355469 21.789062 1.859375 18.445312 1.859375 14.75 C 1.859375 13.382812 2.0625 12.070312 2.441406 10.832031 C 2.730469 9.890625 3.121094 8.988281 3.601562 8.140625 C 3.613281 8.121094 3.636719 8.109375 3.660156 8.109375 C 3.683594 8.113281 3.703125 8.128906 3.710938 8.148438 L 4.359375 9.960938 C 4.441406 10.191406 4.695312 10.3125 4.925781 10.230469 C 5.15625 10.148438 5.277344 9.894531 5.195312 9.664062 Z M 7.140625 3.535156 C 7 3.332031 7.054688 3.054688 7.257812 2.917969 C 8.414062 2.136719 9.695312 1.519531 11.066406 1.101562 C 12.386719 0.699219 13.789062 0.480469 15.238281 0.480469 C 19.179688 0.480469 22.746094 2.078125 25.328125 4.660156 C 27.910156 7.242188 29.507812 10.808594 29.507812 14.75 C 29.507812 16.199219 29.289062 17.597656 28.886719 18.921875 C 28.609375 19.824219 28.25 20.6875 27.8125 21.5 C 27.800781 21.523438 27.800781 21.546875 27.820312 21.566406 C 27.835938 21.585938 27.859375 21.59375 27.882812 21.585938 L 29.34375 21.0625 C 29.574219 20.980469 29.828125 21.097656 29.910156 21.328125 C 29.992188 21.558594 29.875 21.8125 29.644531 21.898438 L 26.886719 22.886719 C 26.882812 22.886719 26.882812 22.886719 26.878906 22.886719 C 26.746094 22.945312 26.582031 22.9375 26.453125 22.847656 C 26.359375 22.789062 26.296875 22.699219 26.269531 22.597656 C 26.269531 22.597656 26.269531 22.597656 26.269531 22.59375 L 25.28125 19.835938 C 25.199219 19.605469 25.320312 19.351562 25.550781 19.269531 C 25.78125 19.1875 26.035156 19.304688 26.117188 19.539062 L 26.765625 21.347656 C 26.773438 21.371094 26.792969 21.386719 26.816406 21.386719 C 26.839844 21.390625 26.863281 21.378906 26.875 21.359375 C 27.355469 20.511719 27.746094 19.609375 28.035156 18.664062 C 28.414062 17.429688 28.617188 16.117188 28.617188 14.75 C 28.617188 11.054688 27.117188 7.710938 24.699219 5.289062 C 22.277344 2.867188 18.933594 1.371094 15.238281 1.371094 C 13.871094 1.371094 12.558594 1.574219 11.320312 1.953125 C 10.042969 2.34375 8.84375 2.921875 7.757812 3.65625 C 7.554688 3.792969 7.277344 3.742188 7.140625 3.535156 Z M 19.660156 14.667969 C 19.660156 17.191406 17.613281 19.238281 15.089844 19.238281 C 12.566406 19.238281 10.519531 17.191406 10.519531 14.667969 C 10.519531 12.144531 12.566406 10.097656 15.089844 10.097656 C 16.441406 10.097656 17.660156 10.6875 18.496094 11.621094 C 18.507812 11.632812 18.523438 11.640625 18.539062 11.640625 C 18.558594 11.640625 18.570312 11.632812 18.582031 11.621094 L 20.703125 9.316406 C 20.871094 9.136719 21.152344 9.125 21.332031 9.289062 C 21.515625 9.457031 21.527344 9.738281 21.359375 9.917969 L 20.570312 10.777344 L 15.078125 16.746094 C 15.066406 16.757812 15.050781 16.765625 15.035156 16.765625 C 15.015625 16.765625 15.003906 16.757812 14.992188 16.746094 L 13.34375 15.015625 C 13.175781 14.835938 12.894531 14.828125 12.71875 15 C 12.539062 15.167969 12.53125 15.449219 12.703125 15.628906 L 14.71875 17.75 C 14.886719 17.925781 15.167969 17.933594 15.347656 17.765625 C 15.351562 17.757812 15.359375 17.75 15.367188 17.742188 L 19.382812 13.378906 C 19.398438 13.363281 19.417969 13.359375 19.4375 13.363281 C 19.460938 13.367188 19.476562 13.382812 19.484375 13.40625 C 19.597656 13.804688 19.660156 14.230469 19.660156 14.667969 Z M 6.960938 7.847656 C 6.960938 7.816406 6.984375 7.792969 7.011719 7.789062 C 7.839844 7.664062 8.691406 7.488281 9.554688 7.261719 C 11.714844 6.691406 13.648438 5.875 15.207031 4.929688 C 15.226562 4.917969 15.25 4.917969 15.269531 4.929688 C 16.828125 5.871094 18.761719 6.691406 20.921875 7.261719 C 21.785156 7.488281 22.636719 7.664062 23.464844 7.789062 C 23.492188 7.792969 23.515625 7.816406 23.515625 7.847656 C 23.71875 15.265625 23.785156 23.09375 15.257812 25.875 C 15.242188 25.878906 15.230469 25.878906 15.21875 25.875 C 6.691406 23.09375 6.757812 15.265625 6.960938 7.847656 Z M 12.363281 20.78125 L 18.292969 20.78125 C 18.539062 20.78125 18.738281 20.980469 18.738281 21.226562 C 18.738281 21.472656 18.539062 21.671875 18.292969 21.671875 L 12.363281 21.671875 C 12.117188 21.671875 11.917969 21.472656 11.917969 21.226562 C 11.917969 20.980469 12.117188 20.78125 12.363281 20.78125 Z M 12.363281 20.78125 " fill-opacity="1" fill-rule="evenodd"/></g></svg>