<svg xmlns="http://www.w3.org/2000/svg" xmlns:xlink="http://www.w3.org/1999/xlink" width="50" zoomAndPan="magnify" viewBox="0 0 37.5 37.499999" height="50" preserveAspectRatio="xMidYMid meet" version="1.0"><defs><clipPath id="671683bb57"><path d="M 0 0 L 37.007812 0 L 37.007812 36 L 0 36 Z M 0 0 " clip-rule="nonzero"/></clipPath></defs><g clip-path="url(#671683bb57)"><path fill="#935f3d" d="M 23.820312 3.1875 L 27.542969 6.910156 L 23.820312 6.910156 Z M 19.367188 28.871094 L 21.203125 30.707031 C 21.910156 31.414062 23.078125 31.414062 23.785156 30.707031 C 23.785156 30.707031 23.789062 30.707031 23.789062 30.703125 L 24.625 29.863281 C 25.152344 29.335938 25.285156 28.554688 25.023438 27.894531 C 25.136719 27.742188 25.25 27.59375 25.355469 27.457031 L 27.542969 29.75 L 27.542969 32.957031 L 25.011719 32.957031 L 24.992188 32.875 C 24.808594 32.042969 24.070312 31.476562 23.214844 31.476562 L 16.757812 31.476562 C 15.90625 31.476562 15.167969 32.042969 14.984375 32.875 C 14.984375 32.875 14.976562 32.90625 14.964844 32.957031 L 4.574219 32.957031 L 4.574219 12.597656 C 4.648438 12.597656 4.722656 12.589844 4.796875 12.578125 C 8 11.984375 10.363281 9.152344 10.363281 5.890625 L 10.363281 3.1875 L 22.589844 3.1875 L 22.589844 6.910156 C 22.589844 7.589844 23.140625 8.140625 23.820312 8.140625 L 27.542969 8.140625 L 27.542969 15.460938 C 26.859375 15.113281 25.996094 15.226562 25.425781 15.796875 C 25.425781 15.796875 25.421875 15.796875 25.421875 15.796875 L 24.585938 16.640625 C 24.058594 17.167969 23.925781 17.949219 24.1875 18.605469 C 24.007812 18.84375 23.839844 19.066406 23.679688 19.269531 C 23.679688 19.261719 23.679688 19.253906 23.679688 19.246094 C 23.679688 18.90625 23.40625 18.628906 23.066406 18.628906 L 16.703125 18.628906 C 16.363281 18.628906 16.089844 18.90625 16.089844 19.246094 C 16.089844 19.585938 16.363281 19.863281 16.703125 19.863281 L 23.066406 19.863281 C 23.121094 19.863281 23.171875 19.855469 23.222656 19.839844 C 22.265625 21.003906 21.535156 21.648438 19.957031 22.835938 C 19.300781 22.574219 18.511719 22.707031 17.984375 23.234375 L 17.148438 24.070312 C 16.726562 24.496094 16.554688 25.078125 16.636719 25.628906 C 16.328125 25.664062 16.089844 25.925781 16.089844 26.242188 C 16.089844 26.582031 16.363281 26.859375 16.703125 26.859375 L 17.359375 26.859375 L 18.136719 27.636719 L 16.703125 27.636719 C 16.363281 27.636719 16.089844 27.914062 16.089844 28.253906 C 16.089844 28.59375 16.363281 28.871094 16.703125 28.871094 Z M 16.703125 12.867188 L 23.066406 12.867188 C 23.40625 12.867188 23.679688 12.589844 23.679688 12.25 C 23.679688 11.910156 23.40625 11.636719 23.066406 11.636719 L 16.703125 11.636719 C 16.363281 11.636719 16.089844 11.910156 16.089844 12.25 C 16.089844 12.589844 16.363281 12.867188 16.703125 12.867188 Z M 16.703125 14.878906 L 20.84375 14.878906 C 21.183594 14.878906 21.460938 14.601562 21.460938 14.261719 C 21.460938 13.921875 21.183594 13.648438 20.84375 13.648438 L 16.703125 13.648438 C 16.363281 13.648438 16.089844 13.921875 16.089844 14.261719 C 16.089844 14.601562 16.363281 14.878906 16.703125 14.878906 Z M 9.214844 24.796875 C 8.933594 24.796875 8.707031 25.027344 8.707031 25.304688 L 8.707031 29.191406 C 8.707031 29.46875 8.933594 29.699219 9.214844 29.699219 L 13.101562 29.699219 C 13.378906 29.699219 13.605469 29.46875 13.605469 29.191406 L 13.605469 25.304688 C 13.605469 25.027344 13.378906 24.796875 13.101562 24.796875 Z M 9.6875 27.582031 C 9.449219 27.34375 9.445312 26.953125 9.6875 26.710938 C 9.925781 26.472656 10.316406 26.472656 10.558594 26.710938 L 10.925781 27.078125 L 11.710938 26.109375 C 11.925781 25.84375 12.3125 25.804688 12.578125 26.015625 C 12.839844 26.230469 12.882812 26.617188 12.667969 26.882812 L 11.453125 28.386719 C 11.34375 28.519531 11.183594 28.605469 11.007812 28.613281 C 10.832031 28.621094 10.664062 28.558594 10.539062 28.433594 Z M 16.703125 21.875 L 20.84375 21.875 C 21.183594 21.875 21.460938 21.597656 21.460938 21.257812 C 21.460938 20.917969 21.183594 20.640625 20.84375 20.640625 L 16.703125 20.640625 C 16.363281 20.640625 16.089844 20.917969 16.089844 21.257812 C 16.089844 21.597656 16.363281 21.875 16.703125 21.875 Z M 9.214844 10.808594 C 8.933594 10.808594 8.707031 11.035156 8.707031 11.3125 L 8.707031 15.199219 C 8.707031 15.480469 8.933594 15.707031 9.214844 15.707031 L 13.101562 15.707031 C 13.378906 15.707031 13.605469 15.480469 13.605469 15.199219 L 13.605469 11.3125 C 13.605469 11.035156 13.378906 10.808594 13.101562 10.808594 Z M 9.6875 13.59375 C 9.449219 13.351562 9.445312 12.960938 9.6875 12.722656 C 9.925781 12.480469 10.316406 12.480469 10.558594 12.722656 L 10.925781 13.089844 L 11.710938 12.117188 C 11.925781 11.855469 12.3125 11.8125 12.578125 12.027344 C 12.839844 12.238281 12.882812 12.628906 12.667969 12.890625 L 11.453125 14.394531 C 11.34375 14.53125 11.183594 14.613281 11.007812 14.621094 C 10.832031 14.632812 10.664062 14.566406 10.539062 14.445312 Z M 9.214844 17.800781 C 8.933594 17.800781 8.707031 18.03125 8.707031 18.308594 L 8.707031 22.195312 C 8.707031 22.472656 8.933594 22.703125 9.214844 22.703125 L 13.101562 22.703125 C 13.378906 22.703125 13.605469 22.472656 13.605469 22.195312 L 13.605469 18.308594 C 13.605469 18.03125 13.378906 17.800781 13.101562 17.800781 Z M 9.6875 20.585938 C 9.445312 20.347656 9.445312 19.957031 9.6875 19.714844 C 9.929688 19.476562 10.316406 19.476562 10.558594 19.714844 L 10.925781 20.085938 L 11.710938 19.113281 C 11.925781 18.851562 12.3125 18.808594 12.578125 19.023438 C 12.839844 19.238281 12.882812 19.625 12.667969 19.890625 L 11.453125 21.390625 C 11.34375 21.527344 11.183594 21.609375 11.007812 21.617188 C 10.832031 21.628906 10.664062 21.5625 10.539062 21.4375 Z M 4.570312 0 L 9.132812 1.953125 L 9.132812 5.890625 C 9.132812 8.5625 7.195312 10.878906 4.570312 11.367188 C 1.949219 10.878906 0.0117188 8.5625 0.0117188 5.890625 L 0.0117188 1.953125 Z M 2.257812 5.9375 L 3.808594 7.488281 C 3.929688 7.609375 4.101562 7.675781 4.277344 7.664062 C 4.449219 7.65625 4.613281 7.574219 4.722656 7.4375 L 6.933594 4.703125 C 7.144531 4.441406 7.105469 4.050781 6.839844 3.839844 C 6.578125 3.625 6.1875 3.664062 5.976562 3.929688 L 4.195312 6.132812 L 3.128906 5.066406 C 2.886719 4.828125 2.496094 4.828125 2.257812 5.066406 C 2.015625 5.308594 2.015625 5.699219 2.257812 5.9375 Z M 24.246094 35.148438 L 15.730469 35.148438 L 16.183594 33.144531 C 16.242188 32.875 16.488281 32.710938 16.757812 32.710938 L 23.214844 32.710938 C 23.488281 32.710938 23.734375 32.875 23.789062 33.144531 Z M 26.128906 26.480469 C 26.15625 26.449219 26.179688 26.421875 26.207031 26.390625 C 26.703125 25.804688 27.160156 25.351562 27.742188 24.855469 C 27.773438 24.828125 27.800781 24.804688 27.832031 24.777344 L 37.066406 33.578125 C 37.238281 33.738281 37.328125 33.9375 37.34375 34.160156 C 37.355469 34.386719 37.285156 34.578125 37.128906 34.730469 L 36.085938 35.777344 C 35.933594 35.933594 35.738281 36 35.515625 35.988281 C 35.285156 35.980469 35.09375 35.886719 34.929688 35.714844 Z M 26.296875 16.667969 C 26.527344 16.4375 26.902344 16.4375 27.132812 16.667969 L 31.183594 20.726562 C 31.414062 20.953125 31.414062 21.332031 31.183594 21.5625 L 30.347656 22.398438 C 30.121094 22.625 29.742188 22.625 29.515625 22.398438 L 25.460938 18.34375 C 25.230469 18.113281 25.230469 17.738281 25.460938 17.507812 Z M 18.855469 24.105469 C 19.085938 23.875 19.46875 23.875 19.695312 24.105469 L 23.75 28.160156 C 23.980469 28.390625 23.980469 28.765625 23.75 28.996094 L 22.914062 29.835938 C 22.683594 30.066406 22.304688 30.066406 22.074219 29.835938 L 18.019531 25.777344 C 17.789062 25.546875 17.789062 25.171875 18.019531 24.941406 Z M 20.957031 23.625 C 22.851562 22.183594 23.535156 21.5 24.976562 19.601562 L 28.253906 22.878906 C 27.742188 23.265625 27.320312 23.597656 26.945312 23.914062 C 26.308594 24.457031 25.8125 24.953125 25.269531 25.589844 C 24.953125 25.964844 24.621094 26.386719 24.230469 26.898438 Z M 20.957031 23.625 " fill-opacity="1" fill-rule="evenodd"/></g></svg>