<svg xmlns="http://www.w3.org/2000/svg" xmlns:xlink="http://www.w3.org/1999/xlink" width="40" zoomAndPan="magnify" viewBox="0 0 30 30.000001" height="40" preserveAspectRatio="xMidYMid meet" version="1.0"><defs><clipPath id="0fa048e73c"><path d="M 0.484375 0 L 29.515625 0 L 29.515625 29.03125 L 0.484375 29.03125 Z M 0.484375 0 " clip-rule="nonzero"/></clipPath><clipPath id="d651b99f47"><path d="M 0.484375 0.726562 L 29.515625 0.726562 L 29.515625 28.304688 L 0.484375 28.304688 Z M 0.484375 0.726562 " clip-rule="nonzero"/></clipPath></defs><g clip-path="url(#0fa048e73c)"><path fill="#ffffff" d="M 0.484375 0 L 29.515625 0 L 29.515625 29.03125 L 0.484375 29.03125 Z M 0.484375 0 " fill-opacity="1" fill-rule="nonzero"/><path fill="#ffffff" d="M 0.484375 0 L 29.515625 0 L 29.515625 29.03125 L 0.484375 29.03125 Z M 0.484375 0 " fill-opacity="1" fill-rule="nonzero"/></g><g clip-path="url(#d651b99f47)"><path fill="#925f3d" d="M 29.089844 22.082031 C 29.007812 21.9375 28.851562 21.847656 28.6875 21.847656 L 23.566406 21.847656 L 23.566406 16.492188 L 24.636719 17.191406 C 24.851562 17.335938 25.128906 17.328125 25.339844 17.175781 C 25.550781 17.023438 25.640625 16.761719 25.574219 16.511719 L 25.089844 14.738281 L 26.523438 13.582031 C 26.726562 13.421875 26.804688 13.15625 26.726562 12.910156 C 26.644531 12.660156 26.425781 12.496094 26.167969 12.480469 L 24.328125 12.390625 L 23.675781 10.671875 C 23.648438 10.601562 23.609375 10.539062 23.566406 10.484375 L 23.566406 9.171875 L 24.636719 9.875 C 24.851562 10.015625 25.128906 10.011719 25.339844 9.859375 C 25.550781 9.703125 25.640625 9.445312 25.574219 9.195312 L 25.089844 7.417969 L 26.523438 6.265625 C 26.726562 6.101562 26.804688 5.835938 26.726562 5.589844 C 26.644531 5.34375 26.425781 5.175781 26.167969 5.164062 L 24.328125 5.074219 L 23.675781 3.351562 C 23.609375 3.171875 23.464844 3.042969 23.289062 2.984375 C 22.78125 1.652344 21.671875 0.78125 20.429688 0.777344 L 3.679688 0.726562 C 3.671875 0.726562 3.664062 0.726562 3.65625 0.726562 C 1.90625 0.726562 0.484375 2.148438 0.484375 3.898438 C 0.484375 4.457031 0.632812 5.003906 0.910156 5.484375 C 0.992188 5.628906 1.148438 5.71875 1.3125 5.71875 L 6.433594 5.71875 L 1.886719 7.667969 C 1.714844 7.742188 1.601562 7.910156 1.601562 8.097656 L 1.601562 12.199219 C 1.601562 14.550781 2.933594 16.714844 5.019531 17.796875 L 5.019531 20.140625 C 4.066406 20.1875 3.355469 20.746094 3.125 21.582031 C 3.121094 21.597656 3.117188 21.613281 3.113281 21.628906 C 3.109375 21.644531 3.105469 21.660156 3.101562 21.679688 C 3.09375 21.707031 3.089844 21.734375 3.085938 21.761719 C 3.082031 21.765625 3.082031 21.769531 3.082031 21.777344 C 3.070312 21.84375 3.058594 21.910156 3.054688 21.980469 C 3.054688 21.980469 3.054688 21.980469 3.054688 21.984375 C 3.050781 22.015625 3.046875 22.046875 3.046875 22.078125 C 3.046875 22.082031 3.046875 22.085938 3.046875 22.089844 C 3.046875 22.125 3.042969 22.160156 3.042969 22.199219 C 3.042969 22.210938 3.042969 22.226562 3.046875 22.238281 L 3.195312 23.941406 C 3.261719 24.691406 3.707031 25.339844 4.445312 25.769531 L 5.429688 26.34375 C 5.542969 26.40625 5.597656 26.503906 5.597656 26.632812 L 5.597656 27.832031 C 5.597656 28.089844 5.808594 28.300781 6.066406 28.300781 L 12.273438 28.300781 C 12.53125 28.300781 12.742188 28.089844 12.742188 27.832031 L 12.742188 26.800781 L 26.34375 26.839844 C 28.09375 26.839844 29.515625 25.417969 29.515625 23.671875 C 29.515625 23.113281 29.367188 22.5625 29.089844 22.082031 Z M 24.074219 13.316406 L 25.289062 13.375 L 24.34375 14.136719 C 24.148438 14.289062 24.066406 14.542969 24.132812 14.78125 L 24.449219 15.953125 L 23.4375 15.289062 C 23.351562 15.234375 23.257812 15.203125 23.164062 15.191406 C 23.140625 15.1875 23.121094 15.1875 23.097656 15.1875 C 23.074219 15.1875 23.050781 15.1875 23.027344 15.191406 C 22.933594 15.203125 22.839844 15.234375 22.757812 15.289062 L 21.742188 15.953125 L 22.058594 14.78125 C 22.125 14.542969 22.042969 14.289062 21.851562 14.136719 L 20.90625 13.375 L 22.117188 13.316406 C 22.363281 13.304688 22.578125 13.148438 22.664062 12.917969 L 23.097656 11.785156 L 23.527344 12.917969 C 23.613281 13.148438 23.828125 13.304688 24.074219 13.316406 Z M 23.527344 5.601562 C 23.613281 5.832031 23.828125 5.988281 24.074219 6 L 25.289062 6.058594 L 24.34375 6.816406 C 24.148438 6.972656 24.066406 7.226562 24.132812 7.464844 L 24.449219 8.632812 L 23.4375 7.96875 C 23.351562 7.914062 23.257812 7.882812 23.164062 7.875 C 23.140625 7.871094 23.121094 7.867188 23.097656 7.867188 C 23.074219 7.867188 23.050781 7.871094 23.03125 7.875 C 22.933594 7.882812 22.839844 7.914062 22.757812 7.96875 L 21.742188 8.632812 L 22.058594 7.464844 C 22.125 7.226562 22.042969 6.972656 21.851562 6.816406 L 20.90625 6.058594 L 22.117188 6 C 22.363281 5.988281 22.578125 5.832031 22.664062 5.601562 L 23.097656 4.464844 Z M 20.429688 1.714844 C 21.453125 1.71875 22.175781 2.578125 22.46875 3.476562 L 21.863281 5.074219 L 20.027344 5.164062 C 19.765625 5.175781 19.546875 5.34375 19.464844 5.589844 C 19.386719 5.835938 19.464844 6.101562 19.667969 6.265625 L 21.101562 7.417969 L 20.621094 9.195312 C 20.550781 9.445312 20.644531 9.703125 20.851562 9.859375 C 20.960938 9.9375 21.089844 9.976562 21.21875 9.976562 C 21.335938 9.976562 21.453125 9.941406 21.558594 9.875 L 22.628906 9.171875 L 22.628906 10.484375 C 22.582031 10.539062 22.542969 10.601562 22.515625 10.671875 L 21.863281 12.390625 L 20.027344 12.480469 C 19.765625 12.496094 19.546875 12.660156 19.464844 12.910156 C 19.386719 13.15625 19.464844 13.421875 19.667969 13.582031 L 21.101562 14.734375 L 20.621094 16.511719 C 20.550781 16.761719 20.644531 17.023438 20.851562 17.175781 C 20.960938 17.253906 21.089844 17.296875 21.21875 17.296875 C 21.335938 17.296875 21.453125 17.261719 21.558594 17.191406 L 22.628906 16.492188 L 22.628906 21.847656 L 13.140625 21.847656 L 13.140625 21.03125 C 13.140625 20.851562 13.105469 20.683594 13.042969 20.527344 L 19.800781 20.527344 C 20.0625 20.527344 20.269531 20.316406 20.269531 20.058594 C 20.269531 19.800781 20.0625 19.589844 19.800781 19.589844 L 11.324219 19.589844 C 11.078125 19.230469 10.664062 18.992188 10.195312 18.992188 C 9.980469 18.992188 9.769531 19.046875 9.582031 19.140625 C 9.316406 18.769531 8.882812 18.527344 8.398438 18.527344 C 8.226562 18.527344 8.058594 18.558594 7.898438 18.617188 L 7.898438 18.171875 C 8.570312 17.945312 9.1875 17.613281 9.730469 17.195312 C 9.746094 17.441406 9.949219 17.632812 10.199219 17.632812 L 19.800781 17.632812 C 20.0625 17.632812 20.269531 17.421875 20.269531 17.164062 C 20.269531 16.90625 20.0625 16.695312 19.800781 16.695312 L 10.308594 16.695312 C 10.878906 16.136719 11.339844 15.472656 11.667969 14.738281 L 18.09375 14.738281 C 18.355469 14.738281 18.5625 14.527344 18.5625 14.269531 C 18.5625 14.011719 18.355469 13.800781 18.09375 13.800781 L 11.996094 13.800781 C 12.132812 13.289062 12.203125 12.75 12.203125 12.199219 L 12.203125 11.84375 L 19.800781 11.84375 C 20.0625 11.84375 20.269531 11.636719 20.269531 11.375 C 20.269531 11.117188 20.0625 10.90625 19.800781 10.90625 L 12.203125 10.90625 L 12.203125 8.949219 L 19.800781 8.949219 C 20.0625 8.949219 20.269531 8.742188 20.269531 8.484375 C 20.269531 8.222656 20.0625 8.015625 19.800781 8.015625 L 12.195312 8.015625 C 12.167969 7.863281 12.066406 7.730469 11.921875 7.667969 L 7.371094 5.71875 L 7.371094 4.445312 C 7.371094 3.34375 6.890625 2.351562 6.128906 1.671875 Z M 1.601562 4.78125 C 1.484375 4.503906 1.421875 4.203125 1.421875 3.898438 C 1.421875 2.664062 2.421875 1.664062 3.65625 1.664062 L 3.671875 1.664062 C 5.199219 1.671875 6.433594 2.917969 6.433594 4.445312 L 6.433594 4.78125 Z M 2.539062 12.199219 L 2.539062 8.40625 L 6.902344 6.535156 L 11.269531 8.40625 L 11.269531 12.199219 C 11.269531 12.859375 11.144531 13.492188 10.921875 14.085938 C 10.914062 14.101562 10.910156 14.117188 10.902344 14.132812 C 10.371094 15.5 9.292969 16.613281 7.898438 17.175781 L 7.898438 15.984375 C 7.898438 15.191406 7.253906 14.546875 6.460938 14.546875 C 5.667969 14.546875 5.019531 15.191406 5.019531 15.984375 L 5.019531 16.714844 C 3.492188 15.734375 2.539062 14.035156 2.539062 12.199219 Z M 11.804688 27.363281 L 6.535156 27.363281 L 6.535156 26.632812 C 6.535156 26.175781 6.296875 25.765625 5.902344 25.535156 L 4.917969 24.960938 C 4.585938 24.765625 4.179688 24.417969 4.128906 23.859375 L 3.980469 22.179688 C 3.980469 22.136719 3.984375 22.097656 3.988281 22.058594 C 3.988281 22.050781 3.988281 22.046875 3.988281 22.039062 C 3.992188 22.003906 3.996094 21.972656 4.003906 21.941406 C 4.003906 21.9375 4.003906 21.9375 4.003906 21.933594 C 4.097656 21.449219 4.460938 21.140625 5.019531 21.082031 L 5.019531 22.679688 C 5.019531 22.9375 5.230469 23.148438 5.488281 23.148438 C 5.746094 23.148438 5.957031 22.9375 5.957031 22.679688 L 5.957031 15.984375 C 5.957031 15.707031 6.183594 15.480469 6.460938 15.480469 C 6.738281 15.480469 6.964844 15.707031 6.964844 15.984375 L 6.964844 19.777344 C 6.964844 20.019531 7.144531 20.21875 7.382812 20.242188 C 7.621094 20.269531 7.839844 20.109375 7.890625 19.878906 C 7.941406 19.636719 8.15625 19.464844 8.398438 19.464844 C 8.679688 19.464844 8.914062 19.695312 8.921875 19.976562 C 8.925781 20.191406 9.074219 20.378906 9.285156 20.425781 C 9.496094 20.472656 9.714844 20.367188 9.808594 20.171875 C 9.882812 20.027344 10.03125 19.929688 10.195312 19.929688 C 10.433594 19.929688 10.625 20.125 10.625 20.359375 L 10.625 20.507812 C 10.625 20.707031 10.753906 20.886719 10.945312 20.949219 C 11.136719 21.015625 11.347656 20.949219 11.46875 20.785156 C 11.546875 20.679688 11.667969 20.621094 11.796875 20.621094 C 12.019531 20.621094 12.203125 20.804688 12.203125 21.03125 L 12.203125 25.097656 C 12.203125 25.433594 12.132812 25.714844 11.96875 26.007812 C 11.941406 26.050781 11.921875 26.09375 11.902344 26.140625 C 11.894531 26.160156 11.886719 26.175781 11.882812 26.195312 C 11.832031 26.332031 11.804688 26.480469 11.804688 26.632812 Z M 26.347656 25.902344 L 13.035156 25.867188 C 13.105469 25.621094 13.140625 25.371094 13.140625 25.097656 L 13.140625 22.785156 L 28.398438 22.785156 C 28.515625 23.0625 28.578125 23.363281 28.578125 23.671875 C 28.578125 24.902344 27.578125 25.902344 26.347656 25.902344 Z M 9.730469 5.589844 C 9.730469 5.332031 9.9375 5.121094 10.199219 5.121094 L 17.90625 5.121094 C 18.164062 5.121094 18.375 5.332031 18.375 5.589844 C 18.375 5.847656 18.164062 6.058594 17.90625 6.058594 L 10.199219 6.058594 C 9.9375 6.058594 9.730469 5.847656 9.730469 5.589844 Z M 6.148438 13.582031 L 4.945312 12.375 C 4.761719 12.195312 4.761719 11.898438 4.945312 11.714844 C 5.125 11.53125 5.421875 11.53125 5.605469 11.714844 L 6.496094 12.601562 L 9.089844 10.25 C 9.28125 10.074219 9.574219 10.089844 9.75 10.28125 C 9.921875 10.472656 9.910156 10.769531 9.71875 10.941406 L 6.792969 13.597656 C 6.703125 13.675781 6.589844 13.71875 6.480469 13.71875 C 6.359375 13.71875 6.238281 13.671875 6.148438 13.582031 Z M 6.148438 13.582031 " fill-opacity="1" fill-rule="nonzero"/></g></svg>