<svg xmlns="http://www.w3.org/2000/svg" xmlns:xlink="http://www.w3.org/1999/xlink" width="40" zoomAndPan="magnify" viewBox="0 0 30 30.000001" height="40" preserveAspectRatio="xMidYMid meet" version="1.0"><defs><clipPath id="f8ab53805e"><path d="M 0.484375 0 L 29.515625 0 L 29.515625 29.03125 L 0.484375 29.03125 Z M 0.484375 0 " clip-rule="nonzero"/></clipPath><clipPath id="b6e7b98d29"><path d="M 1.5 0.722656 L 29.078125 0.722656 L 29.078125 29.027344 L 1.5 29.027344 Z M 1.5 0.722656 " clip-rule="nonzero"/></clipPath></defs><g clip-path="url(#f8ab53805e)"><path fill="#ffffff" d="M 0.484375 0 L 29.515625 0 L 29.515625 29.03125 L 0.484375 29.03125 Z M 0.484375 0 " fill-opacity="1" fill-rule="nonzero"/><path fill="#ffffff" d="M 0.484375 0 L 29.515625 0 L 29.515625 29.03125 L 0.484375 29.03125 Z M 0.484375 0 " fill-opacity="1" fill-rule="nonzero"/></g><g clip-path="url(#b6e7b98d29)"><path fill="#925f3d" d="M 13.386719 15.855469 L 14.757812 15.855469 C 14.835938 15.855469 14.90625 15.789062 14.90625 15.707031 L 14.90625 12.058594 C 14.90625 12.027344 14.882812 12.003906 14.855469 12 C 14.339844 11.914062 13.804688 11.914062 13.289062 12 C 13.261719 12.003906 13.238281 12.027344 13.238281 12.058594 L 13.238281 15.707031 C 13.238281 15.789062 13.308594 15.855469 13.386719 15.855469 Z M 1.496094 4.4375 L 1.496094 3.800781 C 1.496094 2.921875 1.976562 2.140625 2.753906 1.582031 C 3.488281 1.058594 4.496094 0.734375 5.601562 0.734375 L 6.15625 0.734375 C 6.40625 0.734375 6.605469 0.933594 6.605469 1.183594 L 6.605469 5.910156 C 6.605469 5.941406 6.632812 5.96875 6.667969 5.96875 L 24.734375 5.96875 C 25.933594 5.96875 27.023438 6.289062 27.820312 6.808594 C 28.671875 7.367188 29.199219 8.152344 29.199219 9.035156 L 29.199219 25.863281 C 29.199219 26.742188 28.71875 27.523438 27.941406 28.082031 C 27.207031 28.609375 26.199219 28.933594 25.09375 28.933594 L 24.539062 28.933594 C 24.292969 28.933594 24.089844 28.730469 24.089844 28.484375 L 24.089844 23.757812 C 24.089844 23.722656 24.0625 23.695312 24.03125 23.695312 L 20.015625 23.695312 C 19.992188 23.695312 19.972656 23.710938 19.960938 23.730469 C 19.890625 23.882812 19.808594 24.027344 19.726562 24.171875 C 19.632812 24.3125 19.617188 24.492188 19.699219 24.652344 L 20.390625 26.007812 C 20.402344 26.03125 20.398438 26.058594 20.378906 26.078125 L 19.289062 27.167969 C 19.269531 27.1875 19.242188 27.191406 19.21875 27.179688 L 17.863281 26.488281 C 17.722656 26.417969 17.546875 26.417969 17.402344 26.503906 C 17.140625 26.660156 16.863281 26.796875 16.578125 26.914062 C 16.304688 27.03125 16.023438 27.125 15.742188 27.199219 C 15.738281 27.199219 15.738281 27.199219 15.738281 27.199219 C 15.570312 27.230469 15.425781 27.351562 15.371094 27.519531 L 14.902344 28.96875 C 14.894531 28.992188 14.871094 29.011719 14.84375 29.011719 L 13.300781 29.011719 C 13.273438 29.011719 13.25 28.992188 13.242188 28.96875 L 12.773438 27.523438 C 12.722656 27.371094 12.601562 27.25 12.4375 27.207031 C 11.910156 27.074219 11.226562 26.804688 10.761719 26.515625 C 10.621094 26.425781 10.441406 26.40625 10.28125 26.488281 L 8.925781 27.179688 C 8.902344 27.191406 8.875 27.1875 8.855469 27.167969 L 7.765625 26.078125 C 7.746094 26.058594 7.742188 26.03125 7.753906 26.007812 L 8.445312 24.652344 C 8.515625 24.511719 8.515625 24.335938 8.429688 24.191406 C 8.328125 24.015625 8.230469 23.835938 8.144531 23.652344 L 8.144531 23.695312 L 5.960938 23.695312 C 4.765625 23.695312 3.675781 23.375 2.878906 22.855469 C 2.023438 22.300781 1.496094 21.511719 1.496094 20.628906 Z M 20.414062 22.796875 C 20.394531 22.796875 20.378906 22.789062 20.367188 22.773438 C 20.355469 22.757812 20.351562 22.738281 20.355469 22.722656 C 20.421875 22.484375 20.457031 22.25 20.730469 22.164062 L 20.730469 22.160156 L 22.179688 21.691406 C 22.203125 21.683594 22.222656 21.660156 22.222656 21.632812 L 22.222656 20.835938 C 22.222656 20.804688 22.195312 20.777344 22.160156 20.777344 L 18.6875 20.777344 C 18.667969 20.777344 18.65625 20.785156 18.644531 20.796875 C 18.632812 20.808594 18.625 20.820312 18.625 20.839844 C 18.648438 23.347656 16.601562 25.417969 14.070312 25.417969 C 11.542969 25.417969 9.496094 23.347656 9.519531 20.839844 C 9.519531 20.820312 9.511719 20.808594 9.5 20.796875 C 9.488281 20.785156 9.476562 20.777344 9.457031 20.777344 L 5.984375 20.777344 C 5.949219 20.777344 5.921875 20.804688 5.921875 20.835938 L 5.921875 21.632812 C 5.921875 21.660156 5.941406 21.683594 5.964844 21.691406 L 7.414062 22.160156 C 7.6875 22.25 7.722656 22.480469 7.789062 22.722656 C 7.792969 22.738281 7.792969 22.757812 7.78125 22.773438 C 7.769531 22.789062 7.75 22.796875 7.730469 22.796875 L 5.960938 22.796875 C 4.9375 22.796875 4.023438 22.53125 3.367188 22.105469 C 2.765625 21.714844 2.394531 21.191406 2.394531 20.628906 L 2.394531 5.859375 C 2.394531 5.835938 2.410156 5.8125 2.429688 5.804688 C 2.453125 5.792969 2.476562 5.796875 2.496094 5.8125 C 3.28125 6.492188 4.417969 6.867188 5.601562 6.867188 L 24.738281 6.867188 C 25.757812 6.867188 26.671875 7.132812 27.328125 7.5625 C 27.929688 7.953125 28.300781 8.472656 28.300781 9.035156 L 28.300781 23.808594 C 28.300781 23.832031 28.285156 23.851562 28.265625 23.859375 C 28.242188 23.871094 28.21875 23.867188 28.199219 23.851562 C 27.414062 23.175781 26.28125 22.796875 25.09375 22.796875 Z M 6.917969 19.914062 C 11.933594 19.914062 16.949219 19.914062 21.964844 19.914062 C 22.054688 19.914062 22.128906 19.839844 22.128906 19.75 L 22.128906 18.660156 C 22.128906 18.566406 22.054688 18.492188 21.964844 18.492188 L 6.179688 18.492188 C 6.089844 18.492188 6.015625 18.566406 6.015625 18.660156 L 6.015625 19.75 C 6.015625 19.839844 6.089844 19.914062 6.179688 19.914062 Z M 9.320312 17.699219 C 9.292969 17.699219 9.269531 17.679688 9.261719 17.652344 C 8.863281 15.308594 10.1875 13.054688 12.367188 12.242188 C 12.382812 12.234375 12.402344 12.238281 12.421875 12.25 C 12.4375 12.261719 12.445312 12.28125 12.445312 12.300781 L 12.445312 15.707031 C 12.445312 16.226562 12.871094 16.648438 13.386719 16.648438 L 14.757812 16.648438 C 15.273438 16.648438 15.699219 16.226562 15.699219 15.707031 L 15.699219 12.300781 C 15.699219 12.28125 15.707031 12.261719 15.722656 12.25 C 15.742188 12.238281 15.761719 12.234375 15.777344 12.242188 C 17.949219 13.050781 19.28125 15.300781 18.882812 17.652344 C 18.875 17.679688 18.851562 17.699219 18.824219 17.699219 Z M 4.558594 9.695312 L 5.605469 10.742188 C 5.792969 10.933594 6.101562 10.921875 6.285156 10.695312 C 6.285156 10.691406 6.285156 10.691406 6.285156 10.691406 L 8.359375 8.273438 C 8.519531 8.085938 8.496094 7.800781 8.308594 7.640625 C 8.121094 7.480469 7.839844 7.5 7.675781 7.691406 L 5.941406 9.714844 C 5.929688 9.726562 5.914062 9.734375 5.898438 9.734375 C 5.878906 9.738281 5.867188 9.730469 5.851562 9.71875 L 5.195312 9.058594 C 5.019531 8.882812 4.734375 8.882812 4.558594 9.058594 C 4.382812 9.234375 4.382812 9.519531 4.558594 9.695312 Z M 4.558594 13.476562 L 5.605469 14.523438 C 5.792969 14.714844 6.101562 14.703125 6.285156 14.476562 C 6.285156 14.476562 6.285156 14.472656 6.285156 14.472656 L 8.359375 12.054688 C 8.519531 11.867188 8.496094 11.582031 8.308594 11.421875 C 8.121094 11.261719 7.839844 11.285156 7.675781 11.472656 L 5.941406 13.496094 C 5.929688 13.511719 5.914062 13.515625 5.898438 13.519531 C 5.878906 13.519531 5.867188 13.511719 5.851562 13.5 L 5.195312 12.839844 C 5.019531 12.664062 4.734375 12.664062 4.558594 12.839844 C 4.382812 13.015625 4.382812 13.300781 4.558594 13.476562 Z M 19.445312 13.433594 L 25.820312 13.433594 C 26.066406 13.433594 26.269531 13.234375 26.269531 12.984375 C 26.269531 12.738281 26.066406 12.535156 25.820312 12.535156 L 19.445312 12.535156 C 19.199219 12.535156 18.996094 12.738281 18.996094 12.984375 C 18.996094 13.234375 19.199219 13.433594 19.445312 13.433594 Z M 10.113281 9.652344 L 25.820312 9.652344 C 26.066406 9.652344 26.269531 9.453125 26.269531 9.203125 C 26.269531 8.953125 26.066406 8.753906 25.820312 8.753906 L 10.113281 8.753906 C 9.863281 8.753906 9.664062 8.953125 9.664062 9.203125 C 9.664062 9.453125 9.863281 9.652344 10.113281 9.652344 Z M 10.113281 9.652344 " fill-opacity="1" fill-rule="evenodd"/></g></svg>