<svg xmlns="http://www.w3.org/2000/svg" xmlns:xlink="http://www.w3.org/1999/xlink" width="40" zoomAndPan="magnify" viewBox="0 0 30 30.000001" height="40" preserveAspectRatio="xMidYMid meet" version="1.0"><defs><clipPath id="9950333227"><path d="M 0.484375 0 L 29.515625 0 L 29.515625 29.03125 L 0.484375 29.03125 Z M 0.484375 0 " clip-rule="nonzero"/></clipPath><clipPath id="ed8cd7d5f4"><path d="M 0.484375 1.558594 L 29.515625 1.558594 L 29.515625 27.691406 L 0.484375 27.691406 Z M 0.484375 1.558594 " clip-rule="nonzero"/></clipPath></defs><g clip-path="url(#9950333227)"><path fill="#ffffff" d="M 0.484375 0 L 29.515625 0 L 29.515625 29.03125 L 0.484375 29.03125 Z M 0.484375 0 " fill-opacity="1" fill-rule="nonzero"/><path fill="#ffffff" d="M 0.484375 0 L 29.515625 0 L 29.515625 29.03125 L 0.484375 29.03125 Z M 0.484375 0 " fill-opacity="1" fill-rule="nonzero"/></g><g clip-path="url(#ed8cd7d5f4)"><path fill="#925f3d" d="M 11.277344 11.011719 C 11.277344 10.765625 11.476562 10.5625 11.722656 10.5625 L 18.769531 10.5625 C 19.015625 10.5625 19.214844 10.765625 19.214844 11.011719 C 19.214844 11.257812 19.015625 11.457031 18.769531 11.457031 L 11.722656 11.457031 C 11.476562 11.457031 11.277344 11.257812 11.277344 11.011719 Z M 29.40625 26.136719 C 29.40625 26.851562 28.816406 27.433594 28.101562 27.433594 C 21.648438 27.433594 8.667969 27.433594 2.214844 27.433594 C 0.941406 27.460938 0.496094 25.722656 1.292969 24.90625 C 1.691406 24.453125 2.378906 24.519531 2.933594 24.527344 C 2.933594 21.144531 2.933594 14.339844 2.933594 10.953125 C 2.933594 10.105469 3.625 9.410156 4.476562 9.410156 C 4.8125 9.410156 5.492188 9.410156 5.835938 9.410156 C 5.699219 9.144531 5.476562 8.707031 5.34375 8.433594 C 4.949219 7.695312 5.277344 6.699219 6.03125 6.335938 L 6.371094 6.164062 C 6.835938 5.894531 7.378906 5.703125 7.902344 5.898438 C 8.835938 6.191406 9.054688 7.304688 9.503906 8.054688 L 9.503906 5.238281 C 9.503906 4.960938 9.613281 4.703125 9.800781 4.519531 C 9.984375 4.335938 10.234375 4.214844 10.519531 4.214844 L 13.304688 4.214844 L 13.597656 3.265625 C 13.796875 2.734375 13.832031 1.984375 14.378906 1.71875 C 14.609375 1.59375 14.886719 1.558594 15.15625 1.640625 L 19.785156 3.054688 L 24.398438 4.460938 C 24.664062 4.542969 24.875 4.714844 25.003906 4.953125 C 25.132812 5.195312 25.160156 5.46875 25.078125 5.730469 L 23.945312 9.410156 C 24.417969 9.410156 25.363281 9.410156 25.832031 9.410156 C 26.683594 9.410156 27.375 10.105469 27.375 10.953125 C 27.375 14.332031 27.375 21.144531 27.375 24.527344 L 28.089844 24.527344 C 28.96875 24.527344 29.503906 25.316406 29.40625 26.136719 Z M 23.679688 10.304688 C 23.652344 10.394531 23.59375 10.574219 23.566406 10.664062 L 25.445312 10.664062 C 25.824219 10.664062 26.132812 10.976562 26.132812 11.359375 C 26.132812 14.640625 26.132812 21.25 26.132812 24.527344 C 26.222656 24.527344 26.402344 24.527344 26.492188 24.527344 C 26.492188 21.144531 26.492188 14.339844 26.492188 10.953125 C 26.492188 10.589844 26.195312 10.300781 25.835938 10.300781 C 25.300781 10.304688 24.214844 10.300781 23.679688 10.304688 Z M 9.515625 16.675781 C 8.871094 15.402344 7.566406 12.832031 6.925781 11.558594 C 6.464844 11.558594 5.539062 11.558594 5.078125 11.558594 C 5.078125 14.792969 5.078125 21.300781 5.078125 24.53125 C 10.105469 24.53125 20.21875 24.53125 25.246094 24.53125 C 25.246094 21.300781 25.246094 14.792969 25.246094 11.558594 C 24.757812 11.558594 23.785156 11.558594 23.296875 11.558594 C 22.726562 13.433594 21.765625 16.574219 21.195312 18.441406 C 21.195312 18.441406 21.195312 19.277344 21.195312 19.277344 C 21.179688 19.75 21.308594 20.460938 20.898438 20.824219 C 20.710938 21.015625 20.445312 21.132812 20.179688 21.125 C 18.839844 21.125 16.140625 21.125 14.796875 21.125 C 14.816406 21.585938 14.855469 22.503906 14.871094 22.957031 C 14.355469 22.546875 13.742188 22.054688 13.226562 21.648438 C 13.066406 21.519531 12.734375 21.253906 12.574219 21.125 C 12.0625 21.125 11.046875 21.125 10.539062 21.125 C 9.976562 21.125 9.519531 20.667969 9.519531 20.109375 C 9.515625 19.246094 9.515625 17.527344 9.515625 16.675781 Z M 10.53125 20.226562 C 10.761719 20.226562 11.21875 20.226562 11.449219 20.226562 C 11.355469 20.148438 11.238281 20.070312 11.179688 19.957031 C 10.992188 19.578125 10.597656 18.8125 10.410156 18.429688 L 10.410156 20.097656 C 10.402344 20.171875 10.460938 20.226562 10.53125 20.226562 Z M 12.425781 19.867188 C 12.539062 19.957031 12.769531 20.136719 12.878906 20.226562 C 13.046875 20.359375 13.390625 20.628906 13.558594 20.761719 C 13.640625 20.722656 13.808594 20.636719 13.886719 20.59375 C 13.871094 20.226562 13.84375 19.484375 13.832031 19.121094 C 13.472656 19.296875 12.757812 19.660156 12.398438 19.847656 C 12.40625 19.851562 12.421875 19.863281 12.425781 19.867188 Z M 14.25 4.214844 C 15.28125 4.234375 17.226562 4.183594 18.25 4.234375 C 18.320312 4.253906 18.390625 4.296875 18.445312 4.34375 L 21.0625 6.960938 C 21.144531 7.046875 21.183594 7.164062 21.191406 7.28125 C 21.191406 9.292969 21.191406 13.355469 21.191406 15.371094 C 21.726562 13.621094 22.480469 11.152344 23.011719 9.410156 C 23.308594 8.398438 23.945312 6.429688 24.222656 5.414062 C 24.214844 5.363281 24.183594 5.328125 24.132812 5.3125 L 19.519531 3.902344 L 14.917969 2.496094 C 14.847656 2.472656 14.777344 2.511719 14.753906 2.578125 C 14.632812 2.988281 14.375 3.808594 14.25 4.214844 Z M 18.574219 5.738281 C 18.574219 6.011719 18.574219 6.566406 18.574219 6.839844 C 18.847656 6.839844 19.402344 6.839844 19.675781 6.839844 C 19.402344 6.566406 18.847656 6.011719 18.574219 5.738281 Z M 10.402344 9.808594 C 11.472656 11.929688 13.601562 16.128906 14.664062 18.246094 C 14.742188 18.796875 14.726562 19.660156 14.765625 20.226562 C 16.113281 20.226562 18.824219 20.226562 20.179688 20.226562 C 20.25 20.226562 20.308594 20.171875 20.308594 20.097656 C 20.308594 17.015625 20.308594 10.808594 20.308594 7.726562 L 18.136719 7.726562 C 18.015625 7.726562 17.902344 7.679688 17.824219 7.601562 C 17.746094 7.523438 17.695312 7.410156 17.695312 7.285156 L 17.695312 5.113281 C 15.910156 5.113281 12.328125 5.113281 10.542969 5.113281 C 10.476562 5.113281 10.414062 5.171875 10.414062 5.238281 C 10.402344 6.375 10.402344 8.671875 10.402344 9.808594 Z M 7.195312 10.117188 C 8.40625 12.519531 10.546875 16.75 11.769531 19.160156 C 12.339844 18.867188 13.078125 18.5 13.648438 18.207031 C 12.507812 15.953125 10.214844 11.417969 9.074219 9.160156 C 8.609375 9.40625 7.667969 9.882812 7.195312 10.117188 Z M 6.140625 8.03125 C 6.199219 8.136719 6.308594 8.359375 6.367188 8.464844 C 6.835938 8.230469 7.78125 7.75 8.246094 7.515625 C 8.1875 7.410156 8.078125 7.191406 8.027344 7.078125 C 7.871094 6.753906 7.445312 6.617188 7.125 6.785156 C 6.957031 6.867188 6.613281 7.046875 6.4375 7.128906 C 6.113281 7.285156 5.972656 7.710938 6.140625 8.03125 Z M 3.828125 24.527344 C 3.917969 24.527344 4.09375 24.527344 4.183594 24.527344 C 4.183594 21.246094 4.183594 14.640625 4.183594 11.359375 C 4.183594 10.976562 4.492188 10.664062 4.871094 10.664062 L 6.472656 10.664062 C 6.425781 10.574219 6.339844 10.394531 6.289062 10.304688 L 4.480469 10.304688 C 4.117188 10.304688 3.828125 10.601562 3.828125 10.960938 C 3.828125 14.339844 3.828125 21.148438 3.828125 24.527344 Z M 28.515625 25.828125 C 28.515625 25.601562 28.332031 25.417969 28.101562 25.417969 L 20.375 25.417969 C 20.390625 25.898438 20 26.304688 19.511719 26.300781 L 10.800781 26.300781 C 10.320312 26.300781 9.929688 25.898438 9.9375 25.417969 C 8.015625 25.417969 4.140625 25.417969 2.214844 25.417969 C 1.988281 25.417969 1.804688 25.601562 1.804688 25.828125 C 1.808594 25.90625 1.796875 26.058594 1.804688 26.136719 C 1.804688 26.359375 1.988281 26.546875 2.214844 26.546875 C 8.664062 26.546875 21.648438 26.546875 28.101562 26.546875 C 28.324219 26.546875 28.515625 26.359375 28.515625 26.136719 Z M 11.722656 8.703125 C 11.140625 8.710938 11.136719 9.578125 11.722656 9.589844 C 13.480469 9.589844 17.011719 9.589844 18.761719 9.589844 C 19.34375 9.578125 19.351562 8.710938 18.761719 8.703125 C 17.011719 8.703125 13.480469 8.703125 11.722656 8.703125 Z M 11.722656 7.734375 C 12.878906 7.734375 15.203125 7.734375 16.359375 7.734375 C 16.941406 7.722656 16.945312 6.855469 16.359375 6.84375 C 16.359375 6.84375 14.039062 6.84375 14.039062 6.84375 L 11.71875 6.84375 C 11.140625 6.851562 11.136719 7.722656 11.722656 7.734375 Z M 11.722656 7.734375 " fill-opacity="1" fill-rule="nonzero"/></g></svg>