<svg xmlns="http://www.w3.org/2000/svg" xmlns:xlink="http://www.w3.org/1999/xlink" width="40" zoomAndPan="magnify" viewBox="0 0 30 30.000001" height="40" preserveAspectRatio="xMidYMid meet" version="1.0"><defs><clipPath id="690e82a99f"><path d="M 0.484375 0 L 29.515625 0 L 29.515625 29.03125 L 0.484375 29.03125 Z M 0.484375 0 " clip-rule="nonzero"/></clipPath></defs><g clip-path="url(#690e82a99f)"><path fill="#ffffff" d="M 0.484375 0 L 29.515625 0 L 29.515625 29.03125 L 0.484375 29.03125 Z M 0.484375 0 " fill-opacity="1" fill-rule="nonzero"/><path fill="#ffffff" d="M 0.484375 0 L 29.515625 0 L 29.515625 29.03125 L 0.484375 29.03125 Z M 0.484375 0 " fill-opacity="1" fill-rule="nonzero"/><path fill="#925f3d" d="M 15 29.03125 C 13.039062 29.03125 11.140625 28.648438 9.347656 27.890625 C 7.621094 27.160156 6.070312 26.113281 4.734375 24.78125 C 3.402344 23.449219 2.355469 21.894531 1.625 20.167969 C 0.867188 18.375 0.484375 16.476562 0.484375 14.515625 C 0.484375 12.554688 0.867188 10.65625 1.625 8.867188 C 2.355469 7.136719 3.402344 5.585938 4.734375 4.25 C 6.070312 2.917969 7.621094 1.871094 9.347656 1.140625 C 11.140625 0.382812 13.039062 0 15 0 C 16.960938 0 18.859375 0.382812 20.652344 1.140625 C 22.378906 1.871094 23.929688 2.917969 25.265625 4.25 C 26.597656 5.585938 27.644531 7.136719 28.375 8.867188 C 29.132812 10.65625 29.515625 12.554688 29.515625 14.515625 C 29.515625 16.476562 29.132812 18.375 28.375 20.167969 C 27.644531 21.894531 26.597656 23.449219 25.265625 24.78125 C 23.929688 26.113281 22.378906 27.160156 20.652344 27.890625 C 18.859375 28.648438 16.960938 29.03125 15 29.03125 Z M 15 0.804688 C 7.441406 0.804688 1.289062 6.957031 1.289062 14.515625 C 1.289062 22.074219 7.441406 28.226562 15 28.226562 C 22.558594 28.226562 28.710938 22.074219 28.710938 14.515625 C 28.710938 6.957031 22.558594 0.804688 15 0.804688 Z M 15 0.804688 " fill-opacity="1" fill-rule="nonzero"/></g><path fill="#925f3d" d="M 20.011719 18.503906 L 19.472656 19.195312 C 19.472656 19.195312 19.46875 19.195312 19.46875 19.199219 L 18.160156 20.867188 L 18.261719 17.867188 Z M 20.011719 18.503906 " fill-opacity="1" fill-rule="nonzero"/><path fill="#925f3d" d="M 23.351562 9.621094 L 20.269531 18.070312 L 18.339844 17.367188 L 21.421875 8.917969 C 21.613281 8.382812 22.203125 8.109375 22.738281 8.304688 C 23.269531 8.496094 23.542969 9.085938 23.351562 9.621094 Z M 23.351562 9.621094 " fill-opacity="1" fill-rule="nonzero"/><path fill="#925f3d" d="M 17.773438 17.503906 C 17.773438 17.496094 17.773438 17.488281 17.777344 17.476562 C 17.777344 17.46875 17.777344 17.460938 17.78125 17.453125 L 17.785156 17.445312 L 17.789062 17.433594 L 19.414062 12.96875 L 19.414062 8.179688 L 16.710938 8.179688 C 16.574219 8.179688 16.460938 8.066406 16.460938 7.929688 L 16.460938 5.226562 L 6.585938 5.226562 L 6.585938 23.804688 L 19.414062 23.804688 L 19.414062 20.074219 L 18.082031 21.773438 C 18.035156 21.835938 17.960938 21.871094 17.886719 21.867188 C 17.859375 21.867188 17.828125 21.863281 17.804688 21.855469 C 17.703125 21.816406 17.636719 21.71875 17.640625 21.613281 L 17.773438 17.507812 C 17.773438 17.507812 17.773438 17.507812 17.773438 17.503906 Z M 7.625 6.75 L 15.058594 6.75 C 15.195312 6.75 15.308594 6.863281 15.308594 7 C 15.308594 7.136719 15.195312 7.25 15.058594 7.25 L 7.625 7.25 C 7.488281 7.25 7.375 7.136719 7.375 7 C 7.375 6.863281 7.488281 6.75 7.625 6.75 Z M 7.625 8.628906 L 15.058594 8.628906 C 15.195312 8.628906 15.308594 8.742188 15.308594 8.878906 C 15.308594 9.015625 15.195312 9.128906 15.058594 9.128906 L 7.625 9.128906 C 7.488281 9.128906 7.375 9.015625 7.375 8.878906 C 7.375 8.742188 7.488281 8.628906 7.625 8.628906 Z M 7.625 10.507812 L 15.886719 10.507812 C 16.023438 10.507812 16.136719 10.621094 16.136719 10.757812 C 16.136719 10.894531 16.023438 11.007812 15.886719 11.007812 L 7.625 11.007812 C 7.488281 11.007812 7.375 10.894531 7.375 10.757812 C 7.375 10.621094 7.488281 10.507812 7.625 10.507812 Z M 14.746094 20.007812 L 14.746094 21.90625 C 14.746094 22.042969 14.632812 22.15625 14.496094 22.15625 C 14.445312 22.15625 14.394531 22.140625 14.351562 22.109375 C 12.792969 21.003906 11.214844 20.496094 9.664062 20.597656 L 8.886719 20.597656 L 8.886719 23.066406 C 8.886719 23.203125 8.777344 23.316406 8.636719 23.316406 C 8.5 23.316406 8.390625 23.203125 8.390625 23.066406 L 8.390625 20.597656 L 7.625 20.597656 C 7.488281 20.597656 7.375 20.488281 7.375 20.351562 L 7.375 16.917969 C 7.375 16.78125 7.488281 16.667969 7.625 16.667969 L 9.664062 16.667969 C 11.214844 16.769531 12.792969 16.261719 14.351562 15.15625 C 14.464844 15.078125 14.621094 15.101562 14.699219 15.214844 C 14.730469 15.257812 14.746094 15.308594 14.746094 15.359375 L 14.746094 17.257812 C 15.503906 17.277344 16.105469 17.90625 16.085938 18.667969 C 16.066406 19.398438 15.480469 19.988281 14.746094 20.007812 Z M 7.375 14.515625 C 7.375 14.378906 7.488281 14.265625 7.625 14.265625 L 15.472656 14.265625 C 15.609375 14.265625 15.722656 14.378906 15.722656 14.515625 C 15.722656 14.652344 15.609375 14.765625 15.472656 14.765625 L 7.625 14.765625 C 7.488281 14.765625 7.375 14.652344 7.375 14.515625 Z M 17.132812 12.886719 L 7.625 12.886719 C 7.488281 12.886719 7.375 12.773438 7.375 12.636719 C 7.375 12.5 7.488281 12.386719 7.625 12.386719 L 17.132812 12.386719 C 17.269531 12.386719 17.382812 12.5 17.382812 12.636719 C 17.382812 12.773438 17.269531 12.886719 17.132812 12.886719 Z M 17.132812 12.886719 " fill-opacity="1" fill-rule="nonzero"/><path fill="#925f3d" d="M 7.875 17.164062 L 9.402344 17.164062 L 9.402344 20.101562 L 7.875 20.101562 Z M 7.875 17.164062 " fill-opacity="1" fill-rule="nonzero"/><path fill="#925f3d" d="M 14.246094 15.828125 L 14.246094 21.4375 C 12.804688 20.507812 11.347656 20.058594 9.898438 20.089844 L 9.898438 17.175781 C 11.347656 17.210938 12.804688 16.757812 14.246094 15.828125 Z M 14.246094 15.828125 " fill-opacity="1" fill-rule="nonzero"/><path fill="#925f3d" d="M 15.589844 18.632812 C 15.589844 19.105469 15.214844 19.492188 14.746094 19.511719 L 14.746094 17.757812 C 15.214844 17.777344 15.589844 18.164062 15.589844 18.632812 Z M 15.589844 18.632812 " fill-opacity="1" fill-rule="nonzero"/><path fill="#925f3d" d="M 19.0625 7.679688 L 16.960938 7.679688 L 16.960938 5.578125 Z M 19.0625 7.679688 " fill-opacity="1" fill-rule="nonzero"/></svg>