<svg xmlns="http://www.w3.org/2000/svg" xmlns:xlink="http://www.w3.org/1999/xlink" width="40" zoomAndPan="magnify" viewBox="0 0 30 30.000001" height="40" preserveAspectRatio="xMidYMid meet" version="1.0"><defs><clipPath id="3e0cacfdc1"><path d="M 0.484375 0 L 29.515625 0 L 29.515625 29.03125 L 0.484375 29.03125 Z M 0.484375 0 " clip-rule="nonzero"/></clipPath><clipPath id="127c4ad9e0"><path d="M 0.484375 2.902344 L 29.515625 2.902344 L 29.515625 29 L 0.484375 29 Z M 0.484375 2.902344 " clip-rule="nonzero"/></clipPath></defs><g clip-path="url(#3e0cacfdc1)"><path fill="#ffffff" d="M 0.484375 0 L 29.515625 0 L 29.515625 29.03125 L 0.484375 29.03125 Z M 0.484375 0 " fill-opacity="1" fill-rule="nonzero"/><path fill="#ffffff" d="M 0.484375 0 L 29.515625 0 L 29.515625 29.03125 L 0.484375 29.03125 Z M 0.484375 0 " fill-opacity="1" fill-rule="nonzero"/></g><g clip-path="url(#127c4ad9e0)"><path fill="#925f3d" d="M 15.070312 3.03125 L 15.800781 4.960938 C 15.824219 5.015625 15.875 5.054688 15.9375 5.058594 L 17.996094 5.15625 C 18.136719 5.164062 18.191406 5.339844 18.082031 5.429688 L 16.476562 6.71875 C 16.429688 6.757812 16.410156 6.820312 16.425781 6.878906 L 16.964844 8.867188 C 17.003906 9.003906 16.851562 9.113281 16.734375 9.035156 L 15.011719 7.90625 C 14.957031 7.871094 14.894531 7.871094 14.84375 7.90625 L 13.117188 9.035156 C 13 9.113281 12.851562 9.003906 12.886719 8.867188 L 13.429688 6.878906 C 13.445312 6.820312 13.425781 6.757812 13.378906 6.71875 L 11.769531 5.429688 C 11.660156 5.339844 11.71875 5.164062 11.859375 5.15625 L 13.917969 5.058594 C 13.980469 5.054688 14.03125 5.015625 14.050781 4.960938 L 14.785156 3.03125 C 14.832031 2.902344 15.019531 2.902344 15.070312 3.03125 Z M 24.625 18.890625 C 27.324219 18.890625 29.511719 21.078125 29.511719 23.777344 C 29.511719 26.480469 27.324219 28.667969 24.625 28.667969 C 21.921875 28.667969 19.734375 26.480469 19.734375 23.777344 C 19.734375 21.078125 21.921875 18.890625 24.625 18.890625 Z M 23.980469 24.210938 L 22.886719 23.117188 C 22.605469 22.835938 22.144531 22.835938 21.863281 23.117188 C 21.578125 23.402344 21.578125 23.859375 21.863281 24.144531 L 23.46875 25.75 C 23.753906 26.03125 24.210938 26.03125 24.496094 25.75 C 25.464844 24.78125 26.421875 23.800781 27.386719 22.828125 C 27.667969 22.546875 27.664062 22.085938 27.382812 21.804688 C 27.097656 21.523438 26.640625 21.523438 26.359375 21.808594 Z M 14.925781 10.796875 C 16.933594 10.796875 18.558594 12.421875 18.558594 14.425781 C 18.558594 16.433594 16.933594 18.058594 14.925781 18.058594 C 12.921875 18.058594 11.296875 16.433594 11.296875 14.425781 C 11.296875 12.421875 12.921875 10.796875 14.925781 10.796875 Z M 8.492188 25.070312 L 18.910156 25.070312 C 18.816406 24.65625 18.769531 24.222656 18.769531 23.777344 C 18.769531 22.574219 19.132812 21.457031 19.753906 20.527344 C 18.480469 19.367188 16.785156 18.660156 14.925781 18.660156 C 11.476562 18.660156 8.59375 21.09375 7.902344 24.339844 C 7.820312 24.71875 8.105469 25.070312 8.492188 25.070312 Z M 29.277344 11.398438 L 27.972656 12.996094 C 27.933594 13.046875 27.929688 13.109375 27.957031 13.164062 L 28.898438 14.996094 C 28.964844 15.121094 28.839844 15.257812 28.707031 15.207031 L 26.785156 14.460938 C 26.730469 14.441406 26.667969 14.453125 26.625 14.496094 L 25.171875 15.960938 C 25.074219 16.058594 24.902344 15.984375 24.910156 15.84375 L 25.027344 13.785156 C 25.03125 13.722656 25 13.667969 24.941406 13.640625 L 23.101562 12.710938 C 22.976562 12.648438 22.996094 12.464844 23.132812 12.429688 L 25.125 11.902344 C 25.183594 11.886719 25.226562 11.839844 25.238281 11.777344 L 25.550781 9.742188 C 25.574219 9.601562 25.753906 9.5625 25.832031 9.683594 L 26.949219 11.414062 C 26.980469 11.46875 27.039062 11.492188 27.101562 11.484375 L 29.132812 11.152344 C 29.273438 11.128906 29.367188 11.292969 29.277344 11.398438 Z M 23.292969 5.3125 C 23.316406 5.175781 23.15625 5.082031 23.046875 5.171875 L 21.449219 6.472656 C 21.402344 6.511719 21.339844 6.519531 21.285156 6.492188 L 19.449219 5.546875 C 19.328125 5.484375 19.1875 5.609375 19.238281 5.738281 L 19.984375 7.660156 C 20.007812 7.71875 19.992188 7.78125 19.949219 7.824219 L 18.488281 9.277344 C 18.386719 9.375 18.464844 9.542969 18.601562 9.535156 L 20.660156 9.421875 C 20.722656 9.417969 20.777344 9.449219 20.804688 9.503906 L 21.734375 11.34375 C 21.796875 11.46875 21.984375 11.449219 22.019531 11.316406 L 22.542969 9.320312 C 22.558594 9.261719 22.609375 9.21875 22.667969 9.210938 L 24.707031 8.894531 C 24.84375 8.875 24.882812 8.691406 24.765625 8.617188 L 23.03125 7.5 C 22.980469 7.464844 22.953125 7.410156 22.964844 7.347656 Z M 0.71875 11.152344 L 2.753906 11.484375 C 2.816406 11.492188 2.871094 11.46875 2.90625 11.414062 L 4.023438 9.683594 C 4.097656 9.5625 4.28125 9.601562 4.300781 9.742188 L 4.617188 11.777344 C 4.625 11.839844 4.667969 11.886719 4.726562 11.902344 L 6.722656 12.429688 C 6.855469 12.464844 6.875 12.648438 6.75 12.710938 L 4.910156 13.640625 C 4.855469 13.667969 4.824219 13.722656 4.828125 13.785156 L 4.941406 15.84375 C 4.949219 15.984375 4.78125 16.058594 4.683594 15.960938 L 3.230469 14.496094 C 3.1875 14.453125 3.125 14.441406 3.066406 14.460938 L 1.144531 15.207031 C 1.015625 15.257812 0.890625 15.121094 0.953125 14.996094 L 1.898438 13.164062 C 1.925781 13.109375 1.917969 13.046875 1.878906 12.996094 L 0.574219 11.398438 C 0.488281 11.292969 0.582031 11.128906 0.71875 11.152344 Z M 6.804688 5.171875 C 6.699219 5.082031 6.535156 5.175781 6.558594 5.3125 L 6.890625 7.347656 C 6.898438 7.410156 6.875 7.464844 6.820312 7.5 L 5.089844 8.617188 C 4.96875 8.691406 5.007812 8.875 5.148438 8.894531 L 7.183594 9.210938 C 7.246094 9.21875 7.292969 9.261719 7.308594 9.320312 L 7.835938 11.316406 C 7.871094 11.449219 8.054688 11.46875 8.117188 11.34375 L 9.046875 9.503906 C 9.074219 9.449219 9.128906 9.417969 9.191406 9.421875 L 11.25 9.535156 C 11.390625 9.542969 11.464844 9.375 11.367188 9.277344 L 9.902344 7.824219 C 9.859375 7.78125 9.847656 7.71875 9.867188 7.660156 L 10.613281 5.738281 C 10.664062 5.609375 10.527344 5.484375 10.402344 5.546875 L 8.570312 6.492188 C 8.515625 6.519531 8.449219 6.511719 8.402344 6.472656 Z M 6.804688 5.171875 " fill-opacity="1" fill-rule="evenodd"/></g></svg>