<svg xmlns="http://www.w3.org/2000/svg" xmlns:xlink="http://www.w3.org/1999/xlink" width="50" zoomAndPan="magnify" viewBox="0 0 37.5 37.499999" height="50" preserveAspectRatio="xMidYMid meet" version="1.0"><path fill="#935f3d" d="M 4.460938 22.652344 C 4.460938 22.804688 4.433594 22.949219 4.375 23.089844 C 4.316406 23.234375 4.230469 23.355469 4.125 23.464844 C 4.015625 23.574219 3.890625 23.65625 3.75 23.714844 C 3.609375 23.773438 3.460938 23.800781 3.308594 23.800781 C 3.15625 23.800781 3.011719 23.773438 2.867188 23.714844 C 2.726562 23.65625 2.601562 23.574219 2.496094 23.464844 C 2.386719 23.355469 2.304688 23.234375 2.246094 23.089844 C 2.1875 22.949219 2.15625 22.804688 2.15625 22.652344 C 2.15625 22.496094 2.1875 22.351562 2.246094 22.210938 C 2.304688 22.070312 2.386719 21.945312 2.496094 21.835938 C 2.601562 21.726562 2.726562 21.644531 2.867188 21.585938 C 3.011719 21.527344 3.15625 21.5 3.308594 21.5 C 3.460938 21.5 3.609375 21.527344 3.75 21.585938 C 3.890625 21.644531 4.015625 21.726562 4.125 21.835938 C 4.230469 21.945312 4.316406 22.070312 4.375 22.210938 C 4.433594 22.351562 4.460938 22.496094 4.460938 22.652344 Z M 4.460938 22.652344 " fill-opacity="1" fill-rule="nonzero"/><path fill="#935f3d" d="M 4.460938 13.433594 C 4.460938 13.585938 4.433594 13.734375 4.375 13.875 C 4.316406 14.015625 4.230469 14.140625 4.125 14.25 C 4.015625 14.355469 3.890625 14.441406 3.75 14.5 C 3.609375 14.558594 3.460938 14.585938 3.308594 14.585938 C 3.15625 14.585938 3.011719 14.558594 2.867188 14.5 C 2.726562 14.441406 2.601562 14.355469 2.496094 14.25 C 2.386719 14.140625 2.304688 14.015625 2.246094 13.875 C 2.1875 13.734375 2.15625 13.585938 2.15625 13.433594 C 2.15625 13.28125 2.1875 13.132812 2.246094 12.992188 C 2.304688 12.851562 2.386719 12.726562 2.496094 12.621094 C 2.601562 12.511719 2.726562 12.429688 2.867188 12.371094 C 3.011719 12.3125 3.15625 12.28125 3.308594 12.28125 C 3.460938 12.28125 3.609375 12.3125 3.75 12.371094 C 3.890625 12.429688 4.015625 12.511719 4.125 12.621094 C 4.230469 12.726562 4.316406 12.851562 4.375 12.992188 C 4.433594 13.132812 4.460938 13.28125 4.460938 13.433594 Z M 4.460938 13.433594 " fill-opacity="1" fill-rule="nonzero"/><path fill="#935f3d" d="M 4.460938 4.21875 C 4.460938 4.371094 4.433594 4.515625 4.375 4.65625 C 4.316406 4.800781 4.230469 4.921875 4.125 5.03125 C 4.015625 5.140625 3.890625 5.222656 3.75 5.28125 C 3.609375 5.339844 3.460938 5.367188 3.308594 5.367188 C 3.15625 5.367188 3.011719 5.339844 2.867188 5.28125 C 2.726562 5.222656 2.601562 5.140625 2.496094 5.03125 C 2.386719 4.921875 2.304688 4.800781 2.246094 4.65625 C 2.1875 4.515625 2.15625 4.371094 2.15625 4.21875 C 2.15625 4.0625 2.1875 3.917969 2.246094 3.777344 C 2.304688 3.636719 2.386719 3.511719 2.496094 3.402344 C 2.601562 3.292969 2.726562 3.210938 2.867188 3.152344 C 3.011719 3.09375 3.15625 3.066406 3.308594 3.066406 C 3.460938 3.066406 3.609375 3.09375 3.75 3.152344 C 3.890625 3.210938 4.015625 3.292969 4.125 3.402344 C 4.230469 3.511719 4.316406 3.636719 4.375 3.777344 C 4.433594 3.917969 4.460938 4.0625 4.460938 4.21875 Z M 4.460938 4.21875 " fill-opacity="1" fill-rule="nonzero"/><path fill="#935f3d" d="M 7.917969 22.652344 C 7.917969 22.804688 7.890625 22.949219 7.832031 23.089844 C 7.773438 23.234375 7.6875 23.359375 7.582031 23.464844 C 7.472656 23.574219 7.347656 23.65625 7.207031 23.714844 C 7.066406 23.773438 6.917969 23.804688 6.765625 23.804688 C 6.613281 23.804688 6.464844 23.773438 6.324219 23.714844 C 6.183594 23.65625 6.058594 23.574219 5.949219 23.464844 C 5.84375 23.359375 5.757812 23.234375 5.699219 23.089844 C 5.640625 22.949219 5.613281 22.804688 5.613281 22.652344 C 5.613281 22.496094 5.640625 22.351562 5.699219 22.210938 C 5.757812 22.070312 5.84375 21.945312 5.949219 21.835938 C 6.058594 21.726562 6.183594 21.644531 6.324219 21.585938 C 6.464844 21.527344 6.613281 21.496094 6.765625 21.496094 C 6.917969 21.496094 7.066406 21.527344 7.207031 21.585938 C 7.347656 21.644531 7.472656 21.726562 7.582031 21.835938 C 7.6875 21.945312 7.773438 22.070312 7.832031 22.210938 C 7.890625 22.351562 7.917969 22.496094 7.917969 22.652344 Z M 7.917969 22.652344 " fill-opacity="1" fill-rule="nonzero"/><path fill="#935f3d" d="M 7.917969 13.433594 C 7.917969 13.585938 7.886719 13.734375 7.828125 13.875 C 7.773438 14.015625 7.6875 14.140625 7.582031 14.25 C 7.472656 14.355469 7.347656 14.441406 7.207031 14.5 C 7.066406 14.558594 6.917969 14.585938 6.765625 14.585938 C 6.613281 14.585938 6.464844 14.558594 6.324219 14.5 C 6.183594 14.441406 6.058594 14.355469 5.949219 14.25 C 5.84375 14.140625 5.761719 14.015625 5.703125 13.875 C 5.644531 13.734375 5.613281 13.585938 5.613281 13.433594 C 5.613281 13.28125 5.644531 13.132812 5.703125 12.992188 C 5.761719 12.851562 5.84375 12.726562 5.949219 12.621094 C 6.058594 12.511719 6.183594 12.429688 6.324219 12.371094 C 6.464844 12.3125 6.613281 12.28125 6.765625 12.28125 C 6.917969 12.28125 7.066406 12.3125 7.207031 12.371094 C 7.347656 12.429688 7.472656 12.511719 7.582031 12.621094 C 7.6875 12.726562 7.773438 12.851562 7.828125 12.992188 C 7.886719 13.132812 7.917969 13.28125 7.917969 13.433594 Z M 7.917969 13.433594 " fill-opacity="1" fill-rule="nonzero"/><path fill="#935f3d" d="M 7.917969 4.21875 C 7.917969 4.371094 7.890625 4.515625 7.832031 4.65625 C 7.773438 4.800781 7.6875 4.925781 7.582031 5.03125 C 7.472656 5.140625 7.347656 5.222656 7.207031 5.28125 C 7.066406 5.339844 6.917969 5.371094 6.765625 5.371094 C 6.613281 5.371094 6.464844 5.339844 6.324219 5.28125 C 6.183594 5.222656 6.058594 5.140625 5.949219 5.03125 C 5.84375 4.925781 5.757812 4.800781 5.699219 4.65625 C 5.640625 4.515625 5.613281 4.371094 5.613281 4.21875 C 5.613281 4.0625 5.640625 3.917969 5.699219 3.777344 C 5.757812 3.636719 5.84375 3.511719 5.949219 3.402344 C 6.058594 3.292969 6.183594 3.210938 6.324219 3.152344 C 6.464844 3.09375 6.613281 3.0625 6.765625 3.0625 C 6.917969 3.0625 7.066406 3.09375 7.207031 3.152344 C 7.347656 3.210938 7.472656 3.292969 7.582031 3.402344 C 7.6875 3.511719 7.773438 3.636719 7.832031 3.777344 C 7.890625 3.917969 7.917969 4.0625 7.917969 4.21875 Z M 7.917969 4.21875 " fill-opacity="1" fill-rule="nonzero"/><path fill="#935f3d" d="M 21.382812 2.429688 L 12.167969 2.429688 C 11.992188 2.429688 11.84375 2.492188 11.71875 2.617188 C 11.59375 2.742188 11.535156 2.890625 11.535156 3.0625 C 11.535156 3.238281 11.59375 3.386719 11.71875 3.511719 C 11.84375 3.636719 11.992188 3.699219 12.167969 3.699219 L 21.382812 3.699219 C 21.558594 3.699219 21.707031 3.636719 21.832031 3.511719 C 21.957031 3.390625 22.019531 3.238281 22.019531 3.0625 C 22.019531 2.890625 21.957031 2.738281 21.832031 2.617188 C 21.707031 2.492188 21.558594 2.429688 21.382812 2.429688 Z M 21.382812 2.429688 " fill-opacity="1" fill-rule="evenodd"/><path fill="#935f3d" d="M 21.382812 11.648438 L 12.167969 11.648438 C 11.992188 11.648438 11.84375 11.710938 11.71875 11.832031 C 11.59375 11.957031 11.53125 12.105469 11.53125 12.28125 C 11.53125 12.457031 11.59375 12.605469 11.71875 12.730469 C 11.84375 12.855469 11.992188 12.914062 12.167969 12.914062 L 21.382812 12.914062 C 21.558594 12.914062 21.707031 12.855469 21.832031 12.730469 C 21.957031 12.605469 22.019531 12.457031 22.019531 12.28125 C 22.019531 12.105469 21.957031 11.957031 21.832031 11.832031 C 21.707031 11.710938 21.558594 11.648438 21.382812 11.648438 Z M 21.382812 11.648438 " fill-opacity="1" fill-rule="evenodd"/><path fill="#935f3d" d="M 21.382812 4.734375 L 12.167969 4.734375 C 11.992188 4.734375 11.84375 4.796875 11.71875 4.921875 C 11.59375 5.042969 11.53125 5.195312 11.53125 5.367188 C 11.53125 5.542969 11.59375 5.695312 11.71875 5.816406 C 11.84375 5.941406 11.992188 6.003906 12.167969 6.003906 L 21.382812 6.003906 C 21.558594 6.003906 21.707031 5.941406 21.832031 5.816406 C 21.957031 5.695312 22.019531 5.542969 22.019531 5.367188 C 22.019531 5.195312 21.957031 5.042969 21.832031 4.921875 C 21.707031 4.796875 21.558594 4.734375 21.382812 4.734375 Z M 21.382812 4.734375 " fill-opacity="1" fill-rule="evenodd"/><path fill="#935f3d" d="M 21.382812 13.953125 L 12.167969 13.953125 C 11.992188 13.953125 11.84375 14.015625 11.71875 14.136719 C 11.59375 14.261719 11.53125 14.410156 11.53125 14.585938 C 11.53125 14.761719 11.59375 14.910156 11.71875 15.035156 C 11.84375 15.15625 11.992188 15.21875 12.167969 15.21875 L 21.382812 15.21875 C 21.558594 15.21875 21.707031 15.15625 21.832031 15.035156 C 21.957031 14.910156 22.019531 14.761719 22.019531 14.585938 C 22.019531 14.410156 21.957031 14.261719 21.832031 14.136719 C 21.707031 14.015625 21.558594 13.953125 21.382812 13.953125 Z M 21.382812 13.953125 " fill-opacity="1" fill-rule="evenodd"/><path fill="#935f3d" d="M 15.679688 31.175781 L 31.695312 31.175781 C 31.871094 31.175781 32.019531 31.113281 32.144531 30.992188 C 32.265625 30.867188 32.328125 30.71875 32.328125 30.542969 L 32.328125 20.40625 C 32.328125 20.230469 32.265625 20.078125 32.144531 19.957031 C 32.019531 19.832031 31.871094 19.769531 31.695312 19.769531 L 15.679688 19.769531 C 15.507812 19.769531 15.355469 19.832031 15.234375 19.957031 C 15.109375 20.078125 15.046875 20.230469 15.046875 20.40625 L 15.046875 30.542969 C 15.046875 30.71875 15.109375 30.867188 15.234375 30.992188 C 15.355469 31.113281 15.507812 31.175781 15.679688 31.175781 Z M 16.316406 21.039062 L 31.0625 21.039062 L 31.0625 29.910156 L 16.316406 29.910156 Z M 16.316406 21.039062 " fill-opacity="1" fill-rule="evenodd"/><path fill="#935f3d" d="M 20.835938 21.988281 C 20.375 21.988281 19.929688 22.078125 19.503906 22.253906 C 19.074219 22.429688 18.699219 22.683594 18.371094 23.007812 C 18.046875 23.335938 17.792969 23.714844 17.617188 24.140625 C 17.441406 24.566406 17.351562 25.011719 17.351562 25.472656 C 17.351562 25.9375 17.441406 26.378906 17.617188 26.808594 C 17.792969 27.234375 18.046875 27.609375 18.371094 27.9375 C 18.699219 28.265625 19.074219 28.515625 19.503906 28.695312 C 19.929688 28.871094 20.375 28.957031 20.835938 28.957031 C 21.296875 28.957031 21.742188 28.871094 22.171875 28.695312 C 22.597656 28.515625 22.972656 28.265625 23.300781 27.9375 C 23.628906 27.609375 23.878906 27.234375 24.054688 26.808594 C 24.234375 26.378906 24.320312 25.9375 24.320312 25.472656 C 24.320312 25.011719 24.234375 24.566406 24.054688 24.140625 C 23.878906 23.714844 23.628906 23.335938 23.300781 23.007812 C 22.972656 22.683594 22.597656 22.429688 22.171875 22.253906 C 21.742188 22.078125 21.296875 21.988281 20.835938 21.988281 Z M 20.835938 27.691406 C 20.542969 27.691406 20.257812 27.636719 19.988281 27.523438 C 19.714844 27.410156 19.476562 27.25 19.269531 27.042969 C 19.058594 26.835938 18.898438 26.59375 18.789062 26.324219 C 18.675781 26.050781 18.617188 25.769531 18.617188 25.472656 C 18.617188 25.179688 18.675781 24.898438 18.789062 24.625 C 18.898438 24.351562 19.058594 24.113281 19.269531 23.90625 C 19.476562 23.699219 19.714844 23.539062 19.988281 23.425781 C 20.257812 23.3125 20.542969 23.253906 20.835938 23.253906 C 21.128906 23.253906 21.414062 23.3125 21.683594 23.425781 C 21.957031 23.539062 22.195312 23.699219 22.40625 23.90625 C 22.613281 24.113281 22.773438 24.351562 22.886719 24.625 C 23 24.898438 23.054688 25.179688 23.054688 25.472656 C 23.054688 25.769531 23 26.050781 22.886719 26.324219 C 22.773438 26.59375 22.613281 26.835938 22.40625 27.042969 C 22.195312 27.25 21.957031 27.410156 21.683594 27.523438 C 21.414062 27.636719 21.128906 27.691406 20.835938 27.691406 Z M 20.835938 27.691406 " fill-opacity="1" fill-rule="evenodd"/><path fill="#935f3d" d="M 25.589844 26.742188 C 25.414062 26.742188 25.265625 26.804688 25.140625 26.925781 C 25.015625 27.050781 24.957031 27.199219 24.957031 27.375 L 24.957031 28.640625 C 24.957031 28.816406 25.015625 28.964844 25.140625 29.089844 C 25.265625 29.214844 25.414062 29.277344 25.589844 29.277344 C 25.765625 29.277344 25.914062 29.214844 26.035156 29.089844 C 26.160156 28.964844 26.222656 28.816406 26.222656 28.640625 L 26.222656 27.375 C 26.222656 27.199219 26.160156 27.050781 26.035156 26.925781 C 25.914062 26.804688 25.765625 26.742188 25.589844 26.742188 Z M 25.589844 26.742188 " fill-opacity="1" fill-rule="evenodd"/><path fill="#935f3d" d="M 27.488281 25.472656 C 27.316406 25.472656 27.164062 25.535156 27.042969 25.660156 C 26.917969 25.78125 26.855469 25.933594 26.855469 26.105469 L 26.855469 28.640625 C 26.855469 28.816406 26.917969 28.964844 27.042969 29.089844 C 27.164062 29.214844 27.316406 29.277344 27.488281 29.277344 C 27.664062 29.277344 27.8125 29.214844 27.9375 29.089844 C 28.0625 28.964844 28.125 28.816406 28.125 28.640625 L 28.125 26.105469 C 28.125 25.933594 28.0625 25.78125 27.9375 25.660156 C 27.8125 25.535156 27.664062 25.472656 27.488281 25.472656 Z M 27.488281 25.472656 " fill-opacity="1" fill-rule="evenodd"/><path fill="#935f3d" d="M 29.390625 22.9375 C 29.214844 22.9375 29.066406 23 28.941406 23.125 C 28.820312 23.25 28.757812 23.398438 28.757812 23.574219 L 28.757812 28.640625 C 28.757812 28.816406 28.820312 28.964844 28.941406 29.089844 C 29.066406 29.214844 29.214844 29.277344 29.390625 29.277344 C 29.566406 29.277344 29.714844 29.214844 29.839844 29.089844 C 29.960938 28.964844 30.023438 28.816406 30.023438 28.640625 L 30.023438 23.574219 C 30.023438 23.398438 29.960938 23.25 29.839844 23.125 C 29.714844 23 29.566406 22.9375 29.390625 22.9375 Z M 29.390625 22.9375 " fill-opacity="1" fill-rule="evenodd"/><path fill="#935f3d" d="M 36.363281 31.808594 L 34.460938 31.808594 L 34.460938 18.503906 C 34.460938 18.328125 34.398438 18.179688 34.273438 18.054688 C 34.152344 17.929688 34 17.871094 33.828125 17.871094 L 22.019531 17.871094 L 22.019531 17.523438 L 23.6875 17.523438 C 23.863281 17.523438 24.011719 17.460938 24.136719 17.339844 C 24.261719 17.214844 24.320312 17.066406 24.320312 16.890625 L 24.320312 9.976562 C 24.320312 9.800781 24.261719 9.652344 24.136719 9.527344 C 24.011719 9.40625 23.863281 9.34375 23.6875 9.34375 L 22.019531 9.34375 L 22.019531 8.308594 L 23.6875 8.308594 C 23.863281 8.308594 24.011719 8.246094 24.136719 8.121094 C 24.261719 7.996094 24.320312 7.847656 24.320312 7.671875 L 24.320312 4.5625 L 30.660156 4.5625 L 30.660156 13.542969 L 29.839844 12.722656 C 29.714844 12.601562 29.566406 12.542969 29.394531 12.546875 C 29.21875 12.546875 29.074219 12.609375 28.949219 12.730469 C 28.828125 12.851562 28.765625 13 28.765625 13.175781 C 28.765625 13.347656 28.824219 13.496094 28.941406 13.621094 L 30.859375 15.535156 C 30.980469 15.65625 31.125 15.714844 31.292969 15.714844 C 31.464844 15.714844 31.609375 15.65625 31.726562 15.535156 L 33.644531 13.621094 C 33.769531 13.496094 33.835938 13.347656 33.835938 13.167969 C 33.839844 12.992188 33.777344 12.839844 33.652344 12.714844 C 33.527344 12.589844 33.375 12.527344 33.199219 12.53125 C 33.019531 12.53125 32.871094 12.597656 32.746094 12.722656 L 31.925781 13.542969 L 31.925781 3.929688 C 31.925781 3.753906 31.867188 3.605469 31.742188 3.480469 C 31.617188 3.355469 31.46875 3.296875 31.292969 3.296875 L 24.324219 3.296875 L 24.324219 0.761719 C 24.324219 0.585938 24.261719 0.4375 24.136719 0.3125 C 24.015625 0.1875 23.863281 0.125 23.691406 0.125 L 0.644531 0.125 C 0.46875 0.125 0.320312 0.1875 0.195312 0.3125 C 0.0742188 0.4375 0.0117188 0.585938 0.0117188 0.761719 L 0.0117188 7.671875 C 0.0117188 7.847656 0.0742188 7.996094 0.195312 8.121094 C 0.320312 8.246094 0.46875 8.308594 0.644531 8.308594 L 2.316406 8.308594 L 2.316406 9.34375 L 0.644531 9.34375 C 0.46875 9.34375 0.320312 9.40625 0.195312 9.527344 C 0.0742188 9.652344 0.0117188 9.800781 0.0117188 9.976562 L 0.0117188 16.890625 C 0.0117188 17.066406 0.0742188 17.214844 0.195312 17.339844 C 0.320312 17.460938 0.46875 17.523438 0.644531 17.523438 L 2.316406 17.523438 L 2.316406 18.5625 L 0.644531 18.5625 C 0.46875 18.5625 0.320312 18.621094 0.195312 18.746094 C 0.0742188 18.871094 0.0117188 19.019531 0.0117188 19.195312 L 0.0117188 26.105469 C 0.0117188 26.28125 0.0742188 26.433594 0.195312 26.554688 C 0.320312 26.679688 0.46875 26.742188 0.644531 26.742188 L 12.914062 26.742188 L 12.914062 31.808594 L 11.015625 31.808594 C 10.839844 31.808594 10.691406 31.871094 10.566406 31.996094 C 10.441406 32.121094 10.378906 32.269531 10.378906 32.445312 L 10.378906 33.128906 C 10.378906 33.324219 10.394531 33.519531 10.425781 33.710938 L 4.042969 33.710938 L 4.042969 31.066406 L 4.863281 31.886719 C 4.988281 32.015625 5.136719 32.078125 5.3125 32.082031 C 5.492188 32.082031 5.640625 32.019531 5.765625 31.894531 C 5.890625 31.769531 5.953125 31.617188 5.953125 31.441406 C 5.953125 31.265625 5.886719 31.113281 5.757812 30.992188 L 3.847656 29.082031 C 3.726562 28.960938 3.582031 28.898438 3.410156 28.898438 C 3.238281 28.898438 3.09375 28.960938 2.972656 29.082031 L 1.0625 30.992188 C 0.933594 31.113281 0.871094 31.265625 0.867188 31.441406 C 0.867188 31.617188 0.929688 31.769531 1.054688 31.894531 C 1.179688 32.019531 1.328125 32.082031 1.507812 32.082031 C 1.683594 32.078125 1.835938 32.015625 1.957031 31.886719 L 2.777344 31.066406 L 2.777344 34.34375 C 2.777344 34.519531 2.839844 34.667969 2.960938 34.792969 C 3.085938 34.917969 3.234375 34.980469 3.410156 34.980469 L 10.867188 34.980469 C 11.203125 35.566406 11.660156 36.03125 12.242188 36.371094 C 12.828125 36.710938 13.457031 36.878906 14.132812 36.878906 L 33.246094 36.878906 C 33.742188 36.878906 34.21875 36.785156 34.679688 36.59375 C 35.140625 36.402344 35.542969 36.132812 35.894531 35.78125 C 36.246094 35.429688 36.519531 35.023438 36.710938 34.566406 C 36.898438 34.105469 36.996094 33.628906 36.996094 33.128906 L 36.996094 32.445312 C 36.996094 32.269531 36.933594 32.121094 36.808594 31.996094 C 36.6875 31.871094 36.535156 31.808594 36.363281 31.808594 Z M 33.191406 19.136719 L 33.191406 31.808594 L 14.183594 31.808594 L 14.183594 19.136719 Z M 13.550781 17.871094 C 13.375 17.871094 13.226562 17.929688 13.101562 18.054688 C 12.976562 18.179688 12.914062 18.328125 12.914062 18.503906 L 12.914062 18.5625 L 3.582031 18.5625 L 3.582031 17.523438 L 20.75 17.523438 L 20.75 17.871094 Z M 1.277344 7.039062 L 1.277344 1.394531 L 23.054688 1.394531 L 23.054688 7.039062 Z M 20.75 8.308594 L 20.75 9.34375 L 3.582031 9.34375 L 3.582031 8.308594 Z M 1.277344 16.257812 L 1.277344 10.609375 L 23.054688 10.609375 L 23.054688 16.257812 Z M 1.277344 25.472656 L 1.277344 19.828125 L 12.914062 19.828125 L 12.914062 25.472656 Z M 35.726562 33.128906 C 35.726562 33.457031 35.664062 33.777344 35.539062 34.078125 C 35.414062 34.382812 35.234375 34.652344 35 34.886719 C 34.765625 35.117188 34.5 35.296875 34.195312 35.421875 C 33.890625 35.550781 33.574219 35.613281 33.246094 35.613281 L 14.132812 35.613281 C 13.800781 35.613281 13.484375 35.550781 13.179688 35.421875 C 12.875 35.296875 12.609375 35.117188 12.375 34.886719 C 12.144531 34.652344 11.964844 34.382812 11.835938 34.078125 C 11.710938 33.777344 11.648438 33.457031 11.648438 33.128906 L 11.648438 33.078125 L 35.726562 33.078125 Z M 35.726562 33.128906 " fill-opacity="1" fill-rule="evenodd"/></svg>