<svg xmlns="http://www.w3.org/2000/svg" xmlns:xlink="http://www.w3.org/1999/xlink" width="40" zoomAndPan="magnify" viewBox="0 0 30 30.000001" height="40" preserveAspectRatio="xMidYMid meet" version="1.0"><defs><clipPath id="92176f0692"><path d="M 0.484375 0 L 29.515625 0 L 29.515625 29.03125 L 0.484375 29.03125 Z M 0.484375 0 " clip-rule="nonzero"/></clipPath><clipPath id="e635c69480"><path d="M 0.484375 0.816406 L 29.515625 0.816406 L 29.515625 28.398438 L 0.484375 28.398438 Z M 0.484375 0.816406 " clip-rule="nonzero"/></clipPath></defs><g clip-path="url(#92176f0692)"><path fill="#ffffff" d="M 0.484375 0 L 29.515625 0 L 29.515625 29.03125 L 0.484375 29.03125 Z M 0.484375 0 " fill-opacity="1" fill-rule="nonzero"/><path fill="#ffffff" d="M 0.484375 0 L 29.515625 0 L 29.515625 29.03125 L 0.484375 29.03125 Z M 0.484375 0 " fill-opacity="1" fill-rule="nonzero"/></g><g clip-path="url(#e635c69480)"><path fill="#925f3d" d="M 22.511719 4.882812 L 21.496094 4.882812 L 21.820312 0.820312 L 22.191406 0.820312 Z M 25.484375 0.820312 L 25.113281 0.820312 L 24.789062 4.882812 L 25.804688 4.882812 Z M 28.410156 13.109375 L 15.078125 13.109375 L 15.078125 13.746094 L 28.414062 13.746094 L 28.414062 13.109375 Z M 8.386719 15.699219 C 8.472656 15.726562 8.566406 15.746094 8.660156 15.746094 C 8.828125 15.746094 8.980469 15.699219 9.113281 15.621094 C 9.3125 15.507812 9.457031 15.320312 9.523438 15.09375 C 9.542969 15.011719 9.5625 14.933594 9.5625 14.847656 C 9.5625 14.734375 9.539062 14.628906 9.5 14.527344 C 9.371094 14.1875 9.042969 13.945312 8.660156 13.945312 C 8.214844 13.945312 7.847656 14.273438 7.777344 14.695312 C 7.773438 14.746094 7.765625 14.792969 7.765625 14.84375 C 7.765625 14.988281 7.804688 15.125 7.867188 15.246094 C 7.96875 15.460938 8.15625 15.621094 8.386719 15.699219 Z M 5.082031 22.03125 C 5.652344 22 6.269531 22.011719 6.9375 22.070312 C 9.457031 22.296875 10.71875 22.671875 11.832031 23 C 12.28125 23.132812 12.691406 23.253906 13.148438 23.351562 L 13.148438 18.535156 L 5.082031 18.535156 Z M 12.304688 17.402344 C 12.289062 17.386719 12.265625 17.375 12.25 17.359375 C 12.132812 17.273438 12.019531 17.1875 11.914062 17.097656 C 11.898438 17.089844 11.882812 17.078125 11.871094 17.066406 C 11.761719 16.976562 11.65625 16.890625 11.550781 16.808594 C 11.125 16.460938 10.75 16.152344 10.351562 15.941406 C 9.992188 16.496094 9.371094 16.863281 8.664062 16.863281 C 8.039062 16.863281 7.480469 16.578125 7.109375 16.125 C 7.09375 16.136719 7.074219 16.148438 7.054688 16.15625 C 6.984375 16.195312 6.917969 16.230469 6.851562 16.277344 C 6.804688 16.304688 6.761719 16.335938 6.722656 16.367188 C 6.664062 16.40625 6.601562 16.449219 6.539062 16.496094 C 6.496094 16.527344 6.449219 16.570312 6.402344 16.609375 C 6.347656 16.65625 6.285156 16.703125 6.230469 16.753906 C 6.183594 16.796875 6.136719 16.84375 6.09375 16.894531 C 6.035156 16.949219 5.984375 17.003906 5.929688 17.058594 C 5.878906 17.105469 5.835938 17.160156 5.789062 17.21875 C 5.738281 17.277344 5.683594 17.339844 5.628906 17.402344 C 5.621094 17.410156 5.621094 17.414062 5.613281 17.421875 L 12.339844 17.421875 C 12.328125 17.414062 12.316406 17.410156 12.304688 17.402344 Z M 6.835938 23.179688 C 6.203125 23.121094 5.621094 23.113281 5.082031 23.140625 L 5.082031 26.359375 L 5.234375 26.359375 C 5.238281 26.359375 5.242188 26.359375 5.242188 26.359375 C 5.246094 26.359375 5.25 26.359375 5.253906 26.359375 L 8.515625 26.359375 C 8.519531 26.359375 8.523438 26.359375 8.527344 26.359375 C 8.53125 26.359375 8.53125 26.359375 8.535156 26.359375 L 11.796875 26.359375 C 11.800781 26.359375 11.804688 26.359375 11.808594 26.359375 C 11.8125 26.359375 11.816406 26.359375 11.820312 26.359375 L 13.144531 26.359375 L 13.144531 24.488281 C 12.550781 24.375 12.050781 24.226562 11.515625 24.066406 C 10.453125 23.753906 9.25 23.398438 6.835938 23.179688 Z M 2.519531 20.832031 C 2.804688 20.078125 3.148438 19.289062 3.554688 18.535156 L 2.519531 18.535156 Z M 27.703125 11.992188 L 15.785156 11.992188 L 15.785156 7.824219 L 16.140625 7.734375 L 16.695312 7.589844 L 17.253906 7.449219 L 17.34375 7.421875 L 18.226562 7.882812 C 18.347656 7.945312 18.488281 7.960938 18.621094 7.925781 L 20.597656 7.421875 L 21.480469 7.882812 C 21.601562 7.945312 21.742188 7.960938 21.875 7.925781 L 23.851562 7.421875 L 24.734375 7.882812 C 24.855469 7.945312 24.996094 7.960938 25.128906 7.925781 L 26.222656 7.648438 L 26.78125 7.507812 L 27.105469 7.421875 L 27.347656 7.542969 L 27.703125 7.730469 Z M 26.636719 10.894531 C 26.636719 10.585938 26.386719 10.335938 26.082031 10.335938 L 17.597656 10.335938 C 17.292969 10.335938 17.039062 10.585938 17.039062 10.894531 C 17.039062 11.199219 17.292969 11.449219 17.597656 11.449219 L 26.078125 11.449219 C 26.386719 11.449219 26.636719 11.199219 26.636719 10.894531 Z M 26.636719 9.222656 C 26.636719 9.183594 26.632812 9.144531 26.625 9.109375 C 26.574219 8.855469 26.351562 8.664062 26.082031 8.664062 L 17.597656 8.664062 C 17.324219 8.664062 17.105469 8.855469 17.050781 9.109375 C 17.042969 9.144531 17.039062 9.183594 17.039062 9.222656 C 17.039062 9.527344 17.292969 9.777344 17.597656 9.777344 L 26.078125 9.777344 C 26.386719 9.777344 26.636719 9.53125 26.636719 9.222656 Z M 17.671875 6.34375 L 18.554688 6.800781 L 20.53125 6.296875 C 20.664062 6.261719 20.804688 6.28125 20.925781 6.34375 L 21.808594 6.800781 L 23.785156 6.296875 C 23.917969 6.261719 24.058594 6.28125 24.179688 6.34375 L 25.0625 6.800781 L 26.234375 6.5 L 26.234375 5.996094 L 17.257812 5.996094 L 17.257812 6.300781 L 17.277344 6.292969 C 17.410156 6.261719 17.550781 6.28125 17.671875 6.34375 Z M 3.96875 22.132812 L 3.96875 20.230469 C 3.660156 20.933594 3.402344 21.640625 3.1875 22.273438 C 3.4375 22.21875 3.695312 22.171875 3.96875 22.132812 Z M 2.519531 24.691406 L 2.519531 26.363281 L 3.96875 26.363281 L 3.96875 23.261719 C 3.542969 23.328125 3.160156 23.417969 2.8125 23.519531 C 2.648438 24.117188 2.550781 24.550781 2.519531 24.691406 Z M 1.40625 27.621094 C 1.40625 27.925781 1.65625 28.175781 1.960938 28.175781 C 2.265625 28.175781 2.519531 27.925781 2.519531 27.621094 L 2.519531 27.472656 L 1.40625 27.472656 Z M 2.519531 17.417969 L 2.519531 11.242188 C 2.566406 11.253906 2.613281 11.261719 2.664062 11.261719 C 2.75 11.261719 2.839844 11.242188 2.925781 11.195312 C 3.195312 11.050781 3.296875 10.710938 3.152344 10.441406 L 2.453125 9.125 C 2.449219 9.117188 2.445312 9.113281 2.441406 9.109375 C 2.421875 9.074219 2.398438 9.042969 2.371094 9.015625 C 2.367188 9.011719 2.363281 9.003906 2.359375 9 C 2.328125 8.96875 2.292969 8.9375 2.253906 8.914062 C 2.242188 8.90625 2.234375 8.90625 2.226562 8.898438 C 2.195312 8.878906 2.164062 8.867188 2.132812 8.855469 C 2.121094 8.851562 2.109375 8.847656 2.097656 8.84375 C 2.078125 8.839844 2.050781 8.835938 2.03125 8.832031 C 2.011719 8.828125 1.984375 8.828125 1.960938 8.828125 C 1.9375 8.828125 1.917969 8.828125 1.890625 8.832031 C 1.871094 8.835938 1.847656 8.839844 1.824219 8.84375 C 1.816406 8.847656 1.800781 8.851562 1.792969 8.855469 C 1.757812 8.867188 1.726562 8.878906 1.699219 8.898438 C 1.6875 8.90625 1.675781 8.90625 1.667969 8.914062 C 1.632812 8.9375 1.597656 8.96875 1.566406 9 C 1.5625 9 1.554688 9.007812 1.550781 9.015625 C 1.527344 9.042969 1.503906 9.074219 1.480469 9.109375 C 1.476562 9.117188 1.476562 9.121094 1.472656 9.125 L 0.769531 10.441406 C 0.621094 10.710938 0.726562 11.050781 1 11.195312 C 1.128906 11.265625 1.277344 11.277344 1.410156 11.242188 L 1.410156 17.417969 Z M 1.132812 26.363281 C 0.828125 26.363281 0.578125 26.613281 0.578125 26.917969 C 0.578125 27.222656 0.828125 27.472656 1.132812 27.472656 L 1.402344 27.472656 L 1.402344 26.363281 Z M 29.214844 26.417969 L 27.78125 25.714844 C 27.503906 25.578125 27.171875 25.695312 27.035156 25.96875 C 26.972656 26.097656 26.96875 26.238281 27.003906 26.363281 L 24.949219 26.363281 C 24.945312 26.363281 24.941406 26.363281 24.9375 26.363281 C 24.933594 26.363281 24.929688 26.363281 24.925781 26.363281 L 21.664062 26.363281 C 21.660156 26.363281 21.660156 26.363281 21.65625 26.363281 C 21.652344 26.363281 21.648438 26.363281 21.644531 26.363281 L 18.382812 26.363281 C 18.378906 26.363281 18.375 26.363281 18.371094 26.363281 C 18.367188 26.363281 18.367188 26.363281 18.363281 26.363281 L 15.101562 26.363281 C 15.097656 26.363281 15.09375 26.363281 15.089844 26.363281 C 15.085938 26.363281 15.082031 26.363281 15.078125 26.363281 L 14.257812 26.363281 L 14.257812 26.917969 C 14.257812 27.222656 14.003906 27.472656 13.699219 27.472656 L 14.535156 27.472656 L 14.535156 27.621094 C 14.535156 27.925781 14.785156 28.175781 15.089844 28.175781 C 15.394531 28.175781 15.648438 27.925781 15.648438 27.621094 L 15.648438 27.472656 L 17.816406 27.472656 L 17.816406 27.621094 C 17.816406 27.925781 18.066406 28.175781 18.371094 28.175781 C 18.679688 28.175781 18.929688 27.925781 18.929688 27.621094 L 18.929688 27.472656 L 21.097656 27.472656 L 21.097656 27.621094 C 21.097656 27.925781 21.347656 28.175781 21.65625 28.175781 C 21.960938 28.175781 22.210938 27.925781 22.210938 27.621094 L 22.210938 27.472656 L 24.378906 27.472656 L 24.378906 27.621094 C 24.378906 27.925781 24.632812 28.175781 24.9375 28.175781 C 25.242188 28.175781 25.492188 27.925781 25.492188 27.621094 L 25.492188 27.472656 L 27 27.472656 C 26.964844 27.601562 26.972656 27.738281 27.035156 27.863281 C 27.132812 28.0625 27.328125 28.175781 27.535156 28.175781 C 27.617188 28.175781 27.703125 28.160156 27.777344 28.121094 L 29.210938 27.417969 C 29.402344 27.324219 29.523438 27.128906 29.523438 26.917969 C 29.527344 26.703125 29.40625 26.511719 29.214844 26.417969 Z M 0.578125 17.980469 C 0.578125 18.285156 0.828125 18.535156 1.132812 18.535156 L 1.402344 18.535156 L 1.402344 17.421875 L 1.132812 17.421875 C 0.828125 17.417969 0.578125 17.667969 0.578125 17.980469 Z M 14.257812 23.523438 L 14.257812 24.644531 C 14.675781 24.683594 15.148438 24.703125 15.699219 24.703125 C 17.78125 24.703125 19.707031 23.929688 21.292969 23.25 C 22.5625 24.628906 24.285156 25.183594 25.441406 25.183594 C 25.746094 25.183594 25.996094 24.933594 25.996094 24.628906 C 25.996094 24.320312 25.746094 24.070312 25.441406 24.070312 C 24.632812 24.070312 23.398438 23.695312 22.40625 22.78125 C 23.335938 22.398438 24.132812 22.128906 24.71875 22.210938 C 25.019531 22.253906 25.304688 22.042969 25.347656 21.738281 C 25.390625 21.433594 25.179688 21.148438 24.875 21.109375 C 23.9375 20.972656 22.867188 21.371094 21.640625 21.890625 C 21.40625 21.535156 21.207031 21.132812 21.058594 20.675781 C 20.667969 19.484375 20.023438 18.878906 19.253906 18.53125 L 25.4375 18.53125 C 25.742188 18.53125 25.992188 18.28125 25.992188 17.976562 C 25.992188 17.667969 25.742188 17.417969 25.4375 17.417969 L 14.214844 17.417969 C 14.238281 17.480469 14.257812 17.550781 14.257812 17.621094 L 14.257812 18.46875 C 14.316406 18.492188 14.371094 18.511719 14.429688 18.53125 C 15.378906 18.863281 16.246094 19 17.015625 19.125 C 18.621094 19.375 19.507812 19.515625 20 21.023438 C 20.160156 21.511719 20.367188 21.941406 20.605469 22.335938 C 19.117188 22.964844 17.464844 23.589844 15.699219 23.589844 C 15.140625 23.589844 14.667969 23.566406 14.257812 23.523438 Z M 0.644531 23.851562 C 0.785156 24.121094 1.125 24.226562 1.394531 24.085938 C 1.398438 24.085938 1.402344 24.082031 1.40625 24.082031 L 1.40625 22.84375 C 1.214844 22.925781 1.035156 23.015625 0.875 23.097656 C 0.601562 23.242188 0.5 23.582031 0.644531 23.851562 Z M 9.21875 12.914062 L 9.21875 11.449219 L 14.671875 11.449219 L 14.671875 10.335938 L 8.660156 10.335938 C 8.355469 10.335938 8.105469 10.585938 8.105469 10.894531 L 8.105469 12.914062 C 8.28125 12.859375 8.46875 12.832031 8.660156 12.832031 C 8.855469 12.832031 9.039062 12.859375 9.21875 12.914062 Z M 4.6875 27.621094 C 4.6875 27.925781 4.9375 28.175781 5.242188 28.175781 C 5.550781 28.175781 5.800781 27.925781 5.800781 27.621094 L 5.800781 27.472656 L 4.6875 27.472656 Z M 7.96875 27.621094 C 7.96875 27.925781 8.21875 28.175781 8.527344 28.175781 C 8.832031 28.175781 9.082031 27.925781 9.082031 27.621094 L 9.082031 27.472656 L 7.96875 27.472656 Z M 11.25 27.621094 C 11.25 27.925781 11.503906 28.175781 11.808594 28.175781 C 12.113281 28.175781 12.363281 27.925781 12.363281 27.621094 L 12.363281 27.472656 L 11.25 27.472656 Z M 11.25 27.621094 " fill-opacity="1" fill-rule="nonzero"/></g></svg>