<svg xmlns="http://www.w3.org/2000/svg" xmlns:xlink="http://www.w3.org/1999/xlink" width="40" zoomAndPan="magnify" viewBox="0 0 30 30.000001" height="40" preserveAspectRatio="xMidYMid meet" version="1.0"><defs><clipPath id="9c4831b3f7"><path d="M 0.484375 0 L 29.515625 0 L 29.515625 29.03125 L 0.484375 29.03125 Z M 0.484375 0 " clip-rule="nonzero"/></clipPath></defs><g clip-path="url(#9c4831b3f7)"><path fill="#ffffff" d="M 0.484375 0 L 29.515625 0 L 29.515625 29.03125 L 0.484375 29.03125 Z M 0.484375 0 " fill-opacity="1" fill-rule="nonzero"/><path fill="#ffffff" d="M 0.484375 0 L 29.515625 0 L 29.515625 29.03125 L 0.484375 29.03125 Z M 0.484375 0 " fill-opacity="1" fill-rule="nonzero"/><path fill="#925f3d" d="M 23.296875 0 C 22.914062 0 22.605469 0.308594 22.605469 0.691406 L 22.605469 8.414062 C 22.015625 8.621094 21.546875 9.089844 21.339844 9.675781 L 2.558594 9.675781 C 1.414062 9.675781 0.484375 10.605469 0.484375 11.75 L 0.484375 13.132812 C 0.484375 14.277344 1.414062 15.207031 2.558594 15.207031 L 10.28125 15.207031 C 10.566406 16.011719 11.332031 16.589844 12.234375 16.589844 C 13.136719 16.589844 13.90625 16.011719 14.191406 15.207031 L 27.441406 15.207031 C 27.824219 15.207031 28.132812 15.515625 28.132812 15.898438 L 28.132812 17.28125 C 28.132812 17.664062 27.824219 17.972656 27.441406 17.972656 L 2.558594 17.972656 C 1.414062 17.972656 0.484375 18.902344 0.484375 20.046875 L 0.484375 21.429688 C 0.484375 22.574219 1.414062 23.503906 2.558594 23.503906 L 15.808594 23.503906 C 16.09375 24.308594 16.863281 24.886719 17.765625 24.886719 C 18.667969 24.886719 19.433594 24.308594 19.71875 23.503906 L 27.441406 23.503906 C 27.824219 23.503906 28.132812 23.8125 28.132812 24.195312 L 28.132812 25.574219 C 28.132812 25.957031 27.824219 26.265625 27.441406 26.265625 L 4.511719 26.265625 C 4.226562 25.460938 3.460938 24.886719 2.558594 24.886719 C 1.414062 24.886719 0.484375 25.8125 0.484375 26.957031 C 0.484375 28.101562 1.414062 29.03125 2.558594 29.03125 C 3.460938 29.03125 4.226562 28.453125 4.511719 27.648438 L 27.441406 27.648438 C 28.585938 27.648438 29.515625 26.722656 29.515625 25.574219 L 29.515625 24.195312 C 29.515625 23.046875 28.585938 22.121094 27.441406 22.121094 L 19.71875 22.121094 C 19.433594 21.316406 18.667969 20.738281 17.765625 20.738281 C 16.863281 20.738281 16.09375 21.316406 15.808594 22.121094 L 2.558594 22.121094 C 2.175781 22.121094 1.867188 21.808594 1.867188 21.429688 L 1.867188 20.046875 C 1.867188 19.664062 2.175781 19.355469 2.558594 19.355469 L 27.441406 19.355469 C 28.585938 19.355469 29.515625 18.425781 29.515625 17.28125 L 29.515625 15.898438 C 29.515625 14.753906 28.585938 13.824219 27.441406 13.824219 L 14.191406 13.824219 C 13.90625 13.019531 13.136719 12.441406 12.234375 12.441406 C 11.332031 12.441406 10.566406 13.019531 10.28125 13.824219 L 2.558594 13.824219 C 2.175781 13.824219 1.867188 13.515625 1.867188 13.132812 L 1.867188 11.75 C 1.867188 11.371094 2.175781 11.058594 2.558594 11.058594 L 21.339844 11.058594 C 21.625 11.863281 22.394531 12.441406 23.296875 12.441406 C 24.441406 12.441406 25.367188 11.511719 25.367188 10.367188 C 25.367188 9.464844 24.792969 8.699219 23.984375 8.414062 L 23.984375 5.53125 L 28.824219 5.53125 C 29.207031 5.53125 29.515625 5.21875 29.515625 4.839844 L 29.515625 0.691406 C 29.515625 0.308594 29.207031 0 28.824219 0 Z M 23.984375 1.382812 L 28.132812 1.382812 L 28.132812 4.148438 L 23.984375 4.148438 Z M 23.296875 9.675781 C 23.675781 9.675781 23.984375 9.988281 23.984375 10.367188 C 23.984375 10.75 23.675781 11.058594 23.296875 11.058594 C 22.914062 11.058594 22.605469 10.75 22.605469 10.367188 C 22.605469 9.988281 22.914062 9.675781 23.296875 9.675781 Z M 12.234375 13.824219 C 12.617188 13.824219 12.925781 14.132812 12.925781 14.515625 C 12.925781 14.898438 12.617188 15.207031 12.234375 15.207031 C 11.851562 15.207031 11.542969 14.898438 11.542969 14.515625 C 11.542969 14.132812 11.851562 13.824219 12.234375 13.824219 Z M 17.765625 22.121094 C 18.148438 22.121094 18.457031 22.429688 18.457031 22.8125 C 18.457031 23.191406 18.148438 23.503906 17.765625 23.503906 C 17.382812 23.503906 17.074219 23.191406 17.074219 22.8125 C 17.074219 22.429688 17.382812 22.121094 17.765625 22.121094 Z M 2.558594 26.265625 C 2.9375 26.265625 3.25 26.578125 3.25 26.957031 C 3.25 27.339844 2.9375 27.648438 2.558594 27.648438 C 2.175781 27.648438 1.867188 27.339844 1.867188 26.957031 C 1.867188 26.578125 2.175781 26.265625 2.558594 26.265625 Z M 2.558594 26.265625 " fill-opacity="1" fill-rule="evenodd"/></g></svg>