<svg xmlns="http://www.w3.org/2000/svg" xmlns:xlink="http://www.w3.org/1999/xlink" width="40" zoomAndPan="magnify" viewBox="0 0 30 30.000001" height="40" preserveAspectRatio="xMidYMid meet" version="1.0"><defs><clipPath id="308fb486ca"><path d="M 0.484375 0 L 29.515625 0 L 29.515625 29.03125 L 0.484375 29.03125 Z M 0.484375 0 " clip-rule="nonzero"/></clipPath><clipPath id="af8a04865a"><path d="M 0.484375 0 L 29.515625 0 L 29.515625 28.304688 L 0.484375 28.304688 Z M 0.484375 0 " clip-rule="nonzero"/></clipPath></defs><g clip-path="url(#308fb486ca)"><path fill="#ffffff" d="M 0.484375 0 L 29.515625 0 L 29.515625 29.03125 L 0.484375 29.03125 Z M 0.484375 0 " fill-opacity="1" fill-rule="nonzero"/><path fill="#ffffff" d="M 0.484375 0 L 29.515625 0 L 29.515625 29.03125 L 0.484375 29.03125 Z M 0.484375 0 " fill-opacity="1" fill-rule="nonzero"/></g><g clip-path="url(#af8a04865a)"><path fill="#925f3d" d="M 29.222656 6.25 L 29.425781 5.128906 C 29.449219 4.992188 29.445312 4.855469 29.417969 4.722656 C 29.386719 4.585938 29.332031 4.460938 29.253906 4.347656 C 29.175781 4.234375 29.078125 4.140625 28.960938 4.066406 C 28.847656 3.988281 28.71875 3.941406 28.582031 3.914062 C 27.644531 3.5625 24.730469 3.851562 22.113281 1.242188 C 22.125 1.109375 22.109375 0.980469 22.066406 0.855469 C 22.023438 0.730469 21.960938 0.617188 21.875 0.515625 C 21.789062 0.417969 21.683594 0.335938 21.566406 0.277344 C 21.449219 0.21875 21.324219 0.183594 21.191406 0.171875 C 21.058594 0.164062 20.929688 0.179688 20.804688 0.222656 C 20.679688 0.261719 20.566406 0.328125 20.46875 0.414062 C 20.367188 0.5 20.289062 0.601562 20.226562 0.722656 C 20.167969 0.839844 20.132812 0.964844 20.125 1.097656 L 19.9375 2.203125 C 19.519531 2.320312 19.160156 2.539062 18.867188 2.859375 C 18.570312 3.183594 18.382812 3.554688 18.300781 3.984375 C 18.21875 4.445312 18.273438 4.886719 18.464844 5.3125 L 13.46875 5.3125 L 13.46875 0.457031 C 13.46875 0.355469 13.433594 0.265625 13.359375 0.191406 C 13.289062 0.121094 13.199219 0.0820312 13.097656 0.0820312 L 3.214844 0.0820312 C 3.113281 0.0820312 3.023438 0.121094 2.953125 0.191406 C 2.878906 0.265625 2.84375 0.355469 2.84375 0.457031 L 2.84375 5.324219 L 2.246094 5.324219 C 2.015625 5.324219 1.789062 5.367188 1.574219 5.457031 C 1.355469 5.546875 1.167969 5.675781 1 5.839844 C 0.835938 6.003906 0.707031 6.195312 0.617188 6.414062 C 0.527344 6.628906 0.484375 6.851562 0.484375 7.085938 L 0.484375 22.660156 C 0.484375 22.894531 0.527344 23.117188 0.617188 23.335938 C 0.707031 23.550781 0.835938 23.742188 1 23.90625 C 1.167969 24.070312 1.355469 24.199219 1.574219 24.289062 C 1.789062 24.378906 2.015625 24.425781 2.246094 24.425781 L 11.316406 24.425781 L 11.316406 27.285156 L 9.304688 27.285156 C 9.199219 27.285156 9.113281 27.320312 9.039062 27.394531 C 8.964844 27.46875 8.929688 27.554688 8.929688 27.660156 C 8.929688 27.761719 8.964844 27.847656 9.039062 27.921875 C 9.113281 27.996094 9.199219 28.03125 9.304688 28.03125 L 20.652344 28.03125 C 20.753906 28.03125 20.84375 27.996094 20.917969 27.921875 C 20.988281 27.847656 21.023438 27.761719 21.023438 27.660156 C 21.023438 27.554688 20.988281 27.46875 20.917969 27.394531 C 20.84375 27.320312 20.753906 27.285156 20.652344 27.285156 L 18.640625 27.285156 L 18.640625 24.425781 L 27.675781 24.425781 C 27.910156 24.425781 28.136719 24.378906 28.351562 24.289062 C 28.566406 24.199219 28.757812 24.070312 28.925781 23.90625 C 29.089844 23.742188 29.21875 23.550781 29.304688 23.335938 C 29.394531 23.117188 29.441406 22.894531 29.441406 22.660156 L 29.441406 7.085938 C 29.441406 6.789062 29.367188 6.507812 29.222656 6.25 Z M 28.6875 5.003906 L 28.398438 6.667969 C 28.382812 6.746094 28.339844 6.8125 28.273438 6.855469 C 28.207031 6.902344 28.132812 6.917969 28.050781 6.902344 L 26.226562 6.578125 L 26.632812 4.324219 L 28.457031 4.652344 C 28.539062 4.667969 28.597656 4.710938 28.644531 4.777344 C 28.6875 4.84375 28.703125 4.914062 28.6875 4.996094 Z M 26.804688 7.449219 L 26.441406 8.695312 L 25.597656 8.554688 L 26.035156 7.3125 Z M 25.484375 6.453125 C 23.976562 6.289062 22.515625 6.472656 21.101562 7.015625 C 21.191406 6.515625 20.777344 8.820312 21.976562 2.136719 C 23.117188 3.132812 24.421875 3.8125 25.890625 4.179688 Z M 21.160156 1.023438 C 21.230469 1.03125 21.285156 1.066406 21.324219 1.125 C 21.363281 1.183594 21.378906 1.246094 21.363281 1.316406 L 20.242188 7.570312 C 20.230469 7.640625 20.195312 7.695312 20.136719 7.734375 C 20.078125 7.773438 20.015625 7.789062 19.949219 7.773438 C 19.878906 7.761719 19.824219 7.726562 19.785156 7.671875 C 19.742188 7.613281 19.730469 7.550781 19.746094 7.480469 C 20.683594 2.242188 19.414062 9.304688 20.867188 1.226562 C 20.875 1.160156 20.910156 1.101562 20.96875 1.0625 C 21.027344 1.023438 21.089844 1.007812 21.160156 1.023438 Z M 19.039062 4.125 C 19.125 3.660156 19.371094 3.304688 19.785156 3.070312 L 19.371094 5.371094 C 19.0625 5.011719 18.953125 4.59375 19.039062 4.125 Z M 3.589844 0.832031 L 12.722656 0.832031 L 12.722656 7.921875 L 3.589844 7.921875 Z M 2.246094 6.070312 L 2.84375 6.070312 L 2.84375 8.292969 C 2.84375 8.398438 2.878906 8.484375 2.953125 8.558594 C 3.023438 8.628906 3.113281 8.667969 3.214844 8.667969 L 13.09375 8.667969 C 13.195312 8.667969 13.28125 8.628906 13.355469 8.558594 C 13.429688 8.484375 13.464844 8.398438 13.464844 8.292969 L 13.464844 6.070312 L 19.003906 6.070312 C 19.070312 6.128906 19.132812 6.1875 19.207031 6.242188 L 19.007812 7.351562 C 18.972656 7.476562 18.960938 7.609375 18.976562 7.738281 C 18.992188 7.871094 19.03125 7.996094 19.09375 8.113281 C 19.160156 8.226562 19.246094 8.328125 19.347656 8.410156 C 19.453125 8.492188 19.566406 8.550781 19.695312 8.589844 C 19.824219 8.625 19.953125 8.636719 20.085938 8.621094 C 20.21875 8.605469 20.339844 8.566406 20.457031 8.5 C 20.574219 8.4375 20.671875 8.351562 20.753906 8.246094 C 20.835938 8.144531 20.898438 8.027344 20.933594 7.902344 C 22.324219 7.28125 23.78125 7.042969 25.296875 7.183594 L 24.746094 8.710938 C 24.707031 8.820312 24.714844 8.925781 24.773438 9.027344 C 24.835938 9.128906 24.921875 9.191406 25.039062 9.207031 C 26.5 9.457031 26.65625 9.476562 26.703125 9.476562 C 26.890625 9.476562 27.011719 9.386719 27.0625 9.207031 L 27.546875 7.582031 L 27.910156 7.648438 C 28.195312 7.699219 28.457031 7.644531 28.691406 7.480469 L 28.691406 19.949219 L 1.230469 19.949219 L 1.230469 7.085938 C 1.230469 6.953125 1.257812 6.820312 1.308594 6.699219 C 1.359375 6.574219 1.433594 6.460938 1.527344 6.367188 C 1.625 6.273438 1.734375 6.199219 1.859375 6.148438 C 1.984375 6.09375 2.113281 6.070312 2.246094 6.070312 Z M 17.894531 27.285156 L 12.0625 27.285156 L 12.0625 24.425781 L 17.894531 24.425781 Z M 27.675781 23.679688 L 2.246094 23.679688 C 2.113281 23.679688 1.984375 23.652344 1.859375 23.601562 C 1.734375 23.546875 1.625 23.476562 1.527344 23.378906 C 1.433594 23.285156 1.359375 23.175781 1.308594 23.050781 C 1.257812 22.925781 1.230469 22.796875 1.230469 22.660156 L 1.230469 20.699219 L 28.695312 20.699219 L 28.695312 22.660156 C 28.695312 22.796875 28.667969 22.925781 28.617188 23.050781 C 28.566406 23.175781 28.492188 23.285156 28.398438 23.378906 C 28.300781 23.476562 28.191406 23.546875 28.066406 23.601562 C 27.941406 23.652344 27.8125 23.679688 27.675781 23.679688 Z M 27.675781 23.679688 " fill-opacity="1" fill-rule="nonzero"/></g><path fill="#925f3d" d="M 16.15625 21.863281 L 13.769531 21.863281 C 13.667969 21.863281 13.578125 21.902344 13.507812 21.972656 C 13.433594 22.046875 13.398438 22.132812 13.398438 22.238281 C 13.398438 22.339844 13.433594 22.429688 13.507812 22.5 C 13.578125 22.574219 13.667969 22.609375 13.769531 22.609375 L 16.15625 22.609375 C 16.257812 22.609375 16.34375 22.574219 16.417969 22.5 C 16.492188 22.429688 16.527344 22.339844 16.527344 22.238281 C 16.527344 22.132812 16.492188 22.046875 16.417969 21.972656 C 16.34375 21.902344 16.257812 21.863281 16.15625 21.863281 Z M 16.15625 21.863281 " fill-opacity="1" fill-rule="nonzero"/><path fill="#925f3d" d="M 15.605469 3.984375 L 16.847656 4.207031 C 16.953125 4.226562 17.046875 4.207031 17.132812 4.144531 C 17.21875 4.085938 17.269531 4.003906 17.289062 3.902344 C 17.304688 3.796875 17.285156 3.703125 17.226562 3.617188 C 17.164062 3.53125 17.082031 3.480469 16.980469 3.460938 L 15.738281 3.242188 C 15.632812 3.222656 15.539062 3.242188 15.453125 3.304688 C 15.367188 3.363281 15.316406 3.445312 15.300781 3.546875 C 15.28125 3.648438 15.300781 3.742188 15.359375 3.828125 C 15.421875 3.914062 15.5 3.964844 15.605469 3.984375 Z M 15.605469 3.984375 " fill-opacity="1" fill-rule="nonzero"/><path fill="#925f3d" d="M 18.074219 1.640625 C 18.132812 1.726562 18.210938 1.777344 18.316406 1.796875 C 18.417969 1.816406 18.511719 1.796875 18.597656 1.738281 C 18.683594 1.679688 18.734375 1.597656 18.753906 1.496094 C 18.773438 1.394531 18.753906 1.300781 18.695312 1.214844 L 17.96875 0.175781 C 17.910156 0.0898438 17.832031 0.0390625 17.730469 0.0195312 C 17.628906 0 17.535156 0.0195312 17.449219 0.078125 C 17.363281 0.136719 17.308594 0.21875 17.292969 0.320312 C 17.273438 0.421875 17.292969 0.515625 17.351562 0.601562 Z M 18.074219 1.640625 " fill-opacity="1" fill-rule="nonzero"/><path fill="#925f3d" d="M 16.757812 7.601562 L 17.796875 6.878906 C 17.882812 6.820312 17.933594 6.742188 17.949219 6.640625 C 17.96875 6.539062 17.949219 6.445312 17.890625 6.359375 C 17.832031 6.277344 17.75 6.222656 17.648438 6.207031 C 17.546875 6.1875 17.457031 6.207031 17.371094 6.265625 L 16.332031 6.988281 C 16.242188 7.046875 16.1875 7.125 16.164062 7.230469 C 16.144531 7.335938 16.164062 7.433594 16.222656 7.519531 C 16.285156 7.609375 16.367188 7.660156 16.472656 7.675781 C 16.578125 7.691406 16.675781 7.667969 16.757812 7.601562 Z M 16.757812 7.601562 " fill-opacity="1" fill-rule="nonzero"/><path fill="#925f3d" d="M 6.527344 6.492188 C 6.867188 6.695312 7.210938 6.699219 7.554688 6.503906 L 9.757812 5.285156 C 10.113281 5.085938 10.292969 4.785156 10.292969 4.375 C 10.292969 3.96875 10.113281 3.667969 9.757812 3.46875 L 7.554688 2.242188 C 7.210938 2.042969 6.863281 2.046875 6.515625 2.25 C 6.171875 2.453125 6 2.753906 6.007812 3.152344 L 6.007812 5.597656 C 6.003906 5.996094 6.179688 6.296875 6.527344 6.492188 Z M 6.753906 3.152344 C 6.753906 3.101562 6.765625 3.054688 6.792969 3.011719 C 6.816406 2.96875 6.851562 2.933594 6.898438 2.90625 C 6.941406 2.882812 6.988281 2.867188 7.039062 2.867188 C 7.089844 2.867188 7.140625 2.878906 7.183594 2.90625 L 9.386719 4.125 C 9.429688 4.152344 9.460938 4.1875 9.488281 4.234375 C 9.511719 4.277344 9.523438 4.324219 9.523438 4.375 C 9.523438 4.425781 9.511719 4.472656 9.488281 4.519531 C 9.460938 4.5625 9.429688 4.597656 9.386719 4.625 L 7.183594 5.847656 C 7.140625 5.871094 7.089844 5.882812 7.039062 5.882812 C 6.988281 5.882812 6.941406 5.871094 6.898438 5.84375 C 6.855469 5.820312 6.820312 5.785156 6.792969 5.742188 C 6.769531 5.695312 6.753906 5.648438 6.753906 5.597656 Z M 6.753906 3.152344 " fill-opacity="1" fill-rule="nonzero"/><path fill="#925f3d" d="M 2.84375 10.058594 L 2.84375 17.773438 C 2.84375 17.875 2.878906 17.960938 2.953125 18.035156 C 3.023438 18.109375 3.113281 18.144531 3.214844 18.144531 L 14.960938 18.144531 C 15.066406 18.144531 15.152344 18.109375 15.226562 18.035156 C 15.300781 17.960938 15.335938 17.875 15.335938 17.773438 L 15.335938 10.058594 C 15.339844 9.957031 15.304688 9.867188 15.230469 9.792969 C 15.15625 9.714844 15.066406 9.679688 14.960938 9.683594 L 3.214844 9.683594 C 3.109375 9.683594 3.023438 9.71875 2.949219 9.792969 C 2.878906 9.863281 2.84375 9.953125 2.84375 10.054688 Z M 3.589844 17.386719 L 3.589844 10.742188 L 8.886719 14.226562 C 9.019531 14.3125 9.15625 14.3125 9.292969 14.226562 L 14.589844 10.742188 L 14.589844 17.386719 Z M 4.464844 10.421875 L 13.71875 10.421875 L 9.089844 13.460938 Z M 4.464844 10.421875 " fill-opacity="1" fill-rule="nonzero"/><path fill="#925f3d" d="M 16.511719 10.054688 L 16.511719 15.65625 C 16.511719 15.761719 16.546875 15.847656 16.621094 15.921875 C 16.691406 15.992188 16.78125 16.03125 16.882812 16.03125 L 18.824219 16.03125 L 18.824219 17.773438 C 18.824219 17.875 18.859375 17.960938 18.933594 18.035156 C 19.007812 18.109375 19.09375 18.144531 19.195312 18.144531 L 27.257812 18.144531 C 27.363281 18.144531 27.449219 18.109375 27.523438 18.035156 C 27.597656 17.960938 27.632812 17.875 27.632812 17.773438 L 27.632812 12.15625 C 27.632812 12.054688 27.597656 11.964844 27.523438 11.894531 C 27.449219 11.820312 27.363281 11.785156 27.257812 11.785156 L 25.320312 11.785156 L 25.320312 10.042969 C 25.320312 9.9375 25.28125 9.851562 25.210938 9.777344 C 25.136719 9.707031 25.050781 9.667969 24.945312 9.667969 L 16.882812 9.667969 C 16.777344 9.667969 16.6875 9.707031 16.613281 9.78125 C 16.542969 9.859375 16.507812 9.949219 16.511719 10.054688 Z M 26.886719 17.386719 L 19.570312 17.386719 L 19.570312 12.53125 L 26.886719 12.53125 Z M 17.257812 10.421875 L 24.574219 10.421875 L 24.574219 11.777344 L 19.191406 11.777344 C 19.089844 11.777344 19 11.8125 18.929688 11.886719 C 18.855469 11.957031 18.820312 12.046875 18.820312 12.148438 L 18.820312 15.285156 L 17.25 15.285156 Z M 17.257812 10.421875 " fill-opacity="1" fill-rule="nonzero"/><path fill="#925f3d" d="M 20.664062 13.871094 L 21.359375 13.871094 C 21.464844 13.871094 21.550781 13.835938 21.625 13.761719 C 21.699219 13.6875 21.734375 13.601562 21.734375 13.496094 C 21.734375 13.394531 21.699219 13.308594 21.625 13.234375 C 21.550781 13.160156 21.464844 13.125 21.359375 13.125 L 20.664062 13.125 C 20.5625 13.125 20.472656 13.160156 20.402344 13.234375 C 20.328125 13.308594 20.292969 13.394531 20.292969 13.496094 C 20.292969 13.601562 20.328125 13.6875 20.402344 13.761719 C 20.472656 13.835938 20.5625 13.871094 20.664062 13.871094 Z M 20.664062 13.871094 " fill-opacity="1" fill-rule="nonzero"/><path fill="#925f3d" d="M 22.152344 13.496094 C 22.152344 13.601562 22.1875 13.6875 22.261719 13.761719 C 22.335938 13.835938 22.421875 13.871094 22.527344 13.871094 L 25.789062 13.871094 C 25.890625 13.871094 25.980469 13.835938 26.054688 13.761719 C 26.125 13.6875 26.164062 13.601562 26.164062 13.496094 C 26.164062 13.394531 26.125 13.308594 26.054688 13.234375 C 25.980469 13.160156 25.890625 13.125 25.789062 13.125 L 22.527344 13.125 C 22.421875 13.125 22.335938 13.160156 22.261719 13.234375 C 22.1875 13.308594 22.152344 13.394531 22.152344 13.496094 Z M 22.152344 13.496094 " fill-opacity="1" fill-rule="nonzero"/><path fill="#925f3d" d="M 21.359375 16.042969 L 20.664062 16.042969 C 20.5625 16.042969 20.472656 16.078125 20.402344 16.152344 C 20.328125 16.226562 20.292969 16.3125 20.292969 16.417969 C 20.292969 16.519531 20.328125 16.605469 20.402344 16.679688 C 20.472656 16.753906 20.5625 16.789062 20.664062 16.789062 L 21.359375 16.789062 C 21.464844 16.789062 21.550781 16.753906 21.625 16.679688 C 21.699219 16.605469 21.734375 16.519531 21.734375 16.417969 C 21.734375 16.3125 21.699219 16.226562 21.625 16.152344 C 21.550781 16.078125 21.464844 16.042969 21.359375 16.042969 Z M 21.359375 16.042969 " fill-opacity="1" fill-rule="nonzero"/><path fill="#925f3d" d="M 25.789062 16.042969 L 22.527344 16.042969 C 22.421875 16.042969 22.335938 16.078125 22.261719 16.152344 C 22.1875 16.226562 22.152344 16.3125 22.152344 16.417969 C 22.152344 16.519531 22.1875 16.605469 22.261719 16.679688 C 22.335938 16.753906 22.421875 16.789062 22.527344 16.789062 L 25.789062 16.789062 C 25.890625 16.789062 25.980469 16.753906 26.054688 16.679688 C 26.125 16.605469 26.164062 16.519531 26.164062 16.417969 C 26.164062 16.3125 26.125 16.226562 26.054688 16.152344 C 25.980469 16.078125 25.890625 16.042969 25.789062 16.042969 Z M 25.789062 16.042969 " fill-opacity="1" fill-rule="nonzero"/><path fill="#925f3d" d="M 25.789062 14.585938 L 25.09375 14.585938 C 24.992188 14.585938 24.90625 14.621094 24.832031 14.695312 C 24.757812 14.765625 24.722656 14.855469 24.722656 14.957031 C 24.722656 15.0625 24.757812 15.148438 24.832031 15.222656 C 24.90625 15.296875 24.992188 15.332031 25.09375 15.332031 L 25.789062 15.332031 C 25.890625 15.332031 25.980469 15.296875 26.054688 15.222656 C 26.125 15.148438 26.164062 15.0625 26.164062 14.957031 C 26.164062 14.855469 26.125 14.765625 26.054688 14.695312 C 25.980469 14.621094 25.890625 14.585938 25.789062 14.585938 Z M 25.789062 14.585938 " fill-opacity="1" fill-rule="nonzero"/><path fill="#925f3d" d="M 20.664062 15.332031 L 23.929688 15.332031 C 24.035156 15.332031 24.121094 15.296875 24.195312 15.222656 C 24.269531 15.148438 24.304688 15.0625 24.304688 14.957031 C 24.304688 14.855469 24.269531 14.765625 24.195312 14.695312 C 24.121094 14.621094 24.035156 14.585938 23.929688 14.585938 L 20.664062 14.585938 C 20.5625 14.585938 20.472656 14.621094 20.402344 14.695312 C 20.328125 14.765625 20.292969 14.855469 20.292969 14.957031 C 20.292969 15.0625 20.328125 15.148438 20.402344 15.222656 C 20.472656 15.296875 20.5625 15.332031 20.664062 15.332031 Z M 20.664062 15.332031 " fill-opacity="1" fill-rule="nonzero"/></svg>