<svg xmlns="http://www.w3.org/2000/svg" xmlns:xlink="http://www.w3.org/1999/xlink" width="50" zoomAndPan="magnify" viewBox="0 0 37.5 37.499999" height="50" preserveAspectRatio="xMidYMid meet" version="1.0"><defs><clipPath id="b6631e0b1a"><path d="M 0 0 L 37.007812 0 L 37.007812 37.007812 L 0 37.007812 Z M 0 0 " clip-rule="nonzero"/></clipPath><clipPath id="e0b4deb86f"><path d="M 0 17 L 26 17 L 26 31.570312 L 0 31.570312 Z M 0 17 " clip-rule="nonzero"/></clipPath><clipPath id="34ee795613"><path d="M 12 27 L 20 27 L 20 31.570312 L 12 31.570312 Z M 12 27 " clip-rule="nonzero"/></clipPath></defs><g clip-path="url(#b6631e0b1a)"><path fill="#ffffff" d="M 0 0 L 37.007812 0 L 37.007812 37.007812 L 0 37.007812 Z M 0 0 " fill-opacity="1" fill-rule="nonzero"/><path fill="#ffffff" d="M 0 0 L 37.007812 0 L 37.007812 37.007812 L 0 37.007812 Z M 0 0 " fill-opacity="1" fill-rule="nonzero"/></g><g clip-path="url(#e0b4deb86f)"><path fill="#935f3d" d="M 25.21875 27.339844 C 25.230469 27.953125 24.617188 28.578125 23.988281 28.449219 C 23.914062 28.433594 23.84375 28.410156 23.773438 28.378906 C 23.847656 28.578125 23.855469 28.785156 23.796875 29.019531 C 23.660156 29.527344 23.128906 29.800781 22.628906 29.691406 C 22.574219 29.679688 22.523438 29.664062 22.472656 29.648438 C 22.488281 29.761719 22.453125 29.882812 22.402344 29.984375 C 22.195312 30.355469 21.75 30.476562 21.347656 30.421875 C 21.289062 30.414062 21.230469 30.40625 21.167969 30.390625 C 21.175781 30.519531 21.117188 30.667969 21.058594 30.769531 C 20.855469 31.105469 20.421875 31.230469 20.042969 31.230469 C 20.023438 31.230469 20.003906 31.230469 19.984375 31.230469 C 19.863281 31.222656 19.742188 31.195312 19.625 31.160156 C 19.585938 31.148438 19.550781 31.136719 19.511719 31.128906 C 19.402344 31.101562 19.292969 31.066406 19.1875 31.03125 C 19.128906 31.011719 19.070312 30.992188 19.007812 30.976562 C 18.945312 30.957031 18.878906 30.9375 18.816406 30.910156 C 18.8125 30.90625 18.804688 30.90625 18.800781 30.902344 C 18.785156 30.894531 18.769531 30.886719 18.75 30.878906 C 18.742188 30.875 18.734375 30.871094 18.738281 30.859375 C 18.445312 30.773438 18.152344 30.6875 17.867188 30.574219 C 17.039062 30.207031 16.234375 29.792969 15.453125 29.339844 C 15.1875 29.1875 14.917969 29.050781 14.664062 28.882812 C 14.421875 28.71875 14.179688 28.554688 13.957031 28.363281 C 13.683594 28.121094 13.390625 27.902344 13.074219 27.71875 C 12.972656 27.660156 12.871094 27.605469 12.769531 27.546875 C 12.761719 27.546875 12.757812 27.546875 12.753906 27.546875 C 12.742188 27.546875 12.730469 27.546875 12.71875 27.542969 C 12.292969 27.402344 11.953125 27.082031 11.53125 26.925781 C 10.105469 26.410156 8.550781 26.539062 7.070312 26.316406 C 4.683594 25.996094 2.328125 25.476562 -0.00390625 24.875 C 0.0820312 24.511719 0.164062 24.148438 0.25 23.78125 C 0.339844 23.390625 0.429688 22.996094 0.519531 22.601562 C 0.613281 22.199219 0.703125 21.796875 0.796875 21.394531 C 0.886719 20.996094 0.980469 20.59375 1.070312 20.195312 C 1.160156 19.792969 1.246094 19.394531 1.335938 18.992188 C 1.417969 18.601562 1.503906 18.210938 1.582031 17.816406 C 1.605469 17.691406 1.632812 17.5625 1.65625 17.4375 C 3.679688 18.339844 5.792969 19.050781 7.832031 19.910156 C 9.519531 20.636719 11.277344 21.25 13.113281 21.449219 C 14.195312 21.605469 15.160156 21.390625 16.136719 20.929688 C 16.832031 20.679688 17.625 19.960938 18.378906 20.28125 C 18.523438 20.347656 18.671875 20.445312 18.757812 20.578125 C 18.921875 20.628906 18.953125 20.832031 19 20.996094 C 19.089844 21.324219 19.164062 21.660156 19.3125 21.96875 C 19.59375 22.5 20.109375 22.839844 20.589844 23.175781 C 21.214844 23.527344 21.792969 23.953125 22.382812 24.359375 C 23.019531 24.792969 23.6875 25.183594 24.261719 25.699219 C 24.550781 25.9375 24.78125 26.234375 25 26.539062 C 25.074219 26.640625 25.09375 26.746094 25.070312 26.84375 C 25.09375 26.859375 25.109375 26.878906 25.121094 26.910156 C 25.191406 27.042969 25.203125 27.195312 25.21875 27.339844 Z M 25.21875 27.339844 " fill-opacity="1" fill-rule="nonzero"/></g><g clip-path="url(#34ee795613)"><path fill="#935f3d" d="M 15.726562 30.089844 C 15.726562 30.09375 15.722656 30.097656 15.71875 30.097656 C 15.722656 30.097656 15.726562 30.09375 15.726562 30.089844 Z M 15.742188 30.074219 C 15.738281 30.078125 15.734375 30.082031 15.730469 30.085938 C 15.734375 30.082031 15.738281 30.078125 15.742188 30.074219 Z M 15.761719 30.058594 C 15.765625 30.054688 15.769531 30.050781 15.773438 30.046875 C 15.769531 30.050781 15.765625 30.054688 15.761719 30.058594 Z M 15.96875 29.828125 C 15.964844 29.835938 15.960938 29.839844 15.957031 29.847656 C 15.960938 29.839844 15.964844 29.835938 15.96875 29.828125 Z M 17.417969 30.609375 C 17.425781 30.601562 17.429688 30.59375 17.4375 30.585938 C 17.429688 30.59375 17.425781 30.601562 17.417969 30.609375 Z M 17.5 30.503906 C 17.503906 30.496094 17.511719 30.488281 17.515625 30.480469 C 17.511719 30.488281 17.503906 30.496094 17.5 30.503906 Z M 18.261719 29.515625 C 18.253906 29.519531 18.25 29.523438 18.242188 29.527344 C 18.25 29.523438 18.253906 29.519531 18.261719 29.515625 Z M 18.285156 29.5 C 18.277344 29.503906 18.269531 29.507812 18.261719 29.511719 C 18.269531 29.507812 18.277344 29.503906 18.285156 29.5 Z M 18.308594 29.484375 C 18.300781 29.488281 18.296875 29.492188 18.289062 29.496094 C 18.296875 29.492188 18.300781 29.488281 18.308594 29.484375 Z M 18.375 29.441406 C 18.382812 29.4375 18.390625 29.433594 18.398438 29.429688 C 18.390625 29.433594 18.382812 29.4375 18.375 29.441406 Z M 19.34375 29.773438 C 19.449219 30.136719 19.296875 30.511719 19.074219 30.800781 C 18.960938 30.957031 18.816406 31.09375 18.644531 31.183594 C 18.515625 31.269531 18.363281 31.316406 18.210938 31.304688 C 18.015625 31.292969 17.832031 31.210938 17.675781 31.097656 C 17.554688 31.011719 17.464844 30.875 17.445312 30.726562 C 17.429688 30.742188 17.417969 30.757812 17.40625 30.769531 C 17.214844 31.003906 16.980469 31.171875 16.667969 31.15625 C 16.453125 31.148438 16.265625 31.03125 16.101562 30.90625 C 15.871094 30.726562 15.765625 30.429688 15.769531 30.140625 C 15.5625 30.324219 15.339844 30.40625 15.027344 30.359375 C 14.773438 30.304688 14.523438 30.1875 14.339844 29.992188 C 14.179688 29.820312 14.070312 29.582031 14.09375 29.339844 C 14.132812 29.070312 14.292969 28.890625 14.476562 28.703125 C 14.589844 28.585938 14.6875 28.460938 14.816406 28.363281 C 14.960938 28.246094 15.136719 28.171875 15.3125 28.117188 C 15.433594 28.074219 15.566406 28.0625 15.695312 28.070312 C 15.816406 28.074219 15.933594 28.109375 16.035156 28.175781 C 16.257812 28.3125 16.394531 28.492188 16.441406 28.699219 C 16.457031 28.679688 16.46875 28.664062 16.476562 28.652344 C 16.566406 28.527344 16.679688 28.417969 16.8125 28.347656 C 16.996094 28.234375 17.214844 28.164062 17.429688 28.207031 C 17.59375 28.238281 17.75 28.296875 17.894531 28.378906 C 18.195312 28.546875 18.269531 28.800781 18.265625 29.128906 C 18.269531 29.253906 18.234375 29.375 18.183594 29.488281 C 18.210938 29.464844 18.234375 29.449219 18.246094 29.441406 C 18.488281 29.234375 18.835938 29.164062 19.09375 29.378906 C 19.214844 29.480469 19.308594 29.621094 19.34375 29.773438 Z M 14.324219 28.476562 C 14.335938 28.539062 14.296875 28.609375 14.265625 28.65625 C 14.199219 28.761719 14.113281 28.851562 14.015625 28.921875 C 13.976562 28.953125 13.9375 28.980469 13.894531 29 C 13.785156 29.0625 13.628906 29.082031 13.507812 29.085938 L 13.503906 29.085938 C 13.433594 29.085938 13.363281 29.074219 13.292969 29.050781 C 13.207031 29.027344 13.125 28.988281 13.042969 28.929688 C 12.917969 28.84375 12.796875 28.75 12.703125 28.628906 C 12.554688 28.4375 12.429688 28.191406 12.476562 27.941406 C 12.5 27.804688 12.574219 27.675781 12.671875 27.578125 C 12.851562 27.398438 13.132812 27.464844 13.335938 27.5625 C 13.617188 27.703125 13.933594 27.808594 14.121094 28.074219 C 14.167969 28.136719 14.210938 28.199219 14.246094 28.269531 C 14.25 28.277344 14.25 28.28125 14.253906 28.285156 C 14.273438 28.320312 14.289062 28.351562 14.296875 28.382812 C 14.3125 28.414062 14.324219 28.445312 14.324219 28.476562 Z M 14.324219 28.476562 " fill-opacity="1" fill-rule="nonzero"/></g><path fill="#935f3d" d="M 35.675781 17.019531 C 35.675781 17.03125 35.679688 17.039062 35.679688 17.050781 C 35.660156 17.0625 35.644531 17.074219 35.625 17.089844 C 35.625 17.09375 35.621094 17.09375 35.617188 17.09375 C 35.613281 17.09375 35.609375 17.089844 35.605469 17.089844 C 35.601562 17.082031 35.605469 17.074219 35.609375 17.070312 C 35.625 17.054688 35.644531 17.039062 35.660156 17.027344 C 35.65625 17.027344 35.652344 17.027344 35.648438 17.023438 C 35.644531 17.023438 35.636719 17.027344 35.632812 17.027344 C 35.625 17.03125 35.613281 17.039062 35.605469 17.039062 C 35.601562 17.039062 35.597656 17.035156 35.59375 17.03125 C 35.578125 17.035156 35.5625 17.039062 35.546875 17.046875 C 35.472656 17.078125 35.398438 17.109375 35.320312 17.128906 C 35.320312 17.128906 35.316406 17.128906 35.316406 17.128906 C 35.3125 17.128906 35.308594 17.128906 35.308594 17.125 C 35.304688 17.117188 35.308594 17.113281 35.3125 17.109375 C 35.328125 17.105469 35.34375 17.101562 35.359375 17.09375 C 35.390625 17.085938 35.421875 17.074219 35.449219 17.0625 C 35.480469 17.050781 35.511719 17.042969 35.542969 17.03125 C 35.585938 17.019531 35.628906 17.003906 35.671875 16.988281 C 35.671875 16.992188 35.671875 16.996094 35.671875 17 C 35.671875 17.003906 35.675781 17.007812 35.675781 17.011719 C 35.675781 17.015625 35.675781 17.015625 35.675781 17.015625 C 35.675781 17.019531 35.675781 17.019531 35.675781 17.019531 Z M 37 24.035156 C 36.964844 24.046875 36.925781 24.054688 36.886719 24.0625 C 36.882812 24.0625 36.882812 24.0625 36.882812 24.0625 C 36.878906 24.0625 36.875 24.0625 36.871094 24.0625 C 36.867188 24.0625 36.863281 24.066406 36.859375 24.066406 C 36.855469 24.066406 36.851562 24.066406 36.851562 24.0625 C 36.851562 24.058594 36.851562 24.054688 36.855469 24.054688 C 36.882812 24.046875 36.90625 24.039062 36.933594 24.035156 C 36.953125 24.03125 36.976562 24.023438 36.996094 24.019531 C 36.996094 24.019531 37 24.019531 37 24.023438 C 37 24.027344 37 24.03125 37 24.035156 Z M 37 24.035156 C 37 24.035156 37 24.039062 37 24.039062 C 36.160156 24.277344 35.285156 24.386719 34.429688 24.570312 C 33.472656 24.734375 32.53125 24.972656 31.570312 25.097656 C 30.203125 25.320312 28.8125 25.445312 27.449219 25.675781 C 27.054688 25.753906 26.65625 25.832031 26.289062 26 C 26.210938 26.136719 26.117188 26.265625 26.074219 26.328125 C 25.890625 26.523438 25.503906 26.996094 25.195312 26.996094 C 25.167969 26.996094 25.140625 26.992188 25.117188 26.984375 C 24.5625 26.757812 24.417969 26.089844 23.992188 25.71875 C 23.460938 25.242188 22.78125 24.980469 22.179688 24.601562 C 21.707031 24.285156 21.210938 23.996094 20.765625 23.644531 C 20.492188 23.417969 20.195312 23.214844 19.90625 23.015625 C 19.601562 22.808594 19.261719 22.597656 18.878906 22.640625 C 18.472656 22.671875 18.082031 22.804688 17.679688 22.851562 C 16.953125 23.402344 16.238281 24.179688 15.269531 24.007812 C 14.773438 23.914062 14.613281 23.453125 14.972656 23.078125 C 15.25 22.777344 15.597656 22.554688 15.882812 22.265625 C 16.335938 21.835938 16.492188 21.148438 17.183594 21.035156 C 17.558594 20.933594 17.929688 20.820312 18.285156 20.671875 C 18.785156 20.453125 19.277344 20.175781 19.824219 20.109375 C 20.378906 20.042969 20.914062 20.253906 21.433594 20.414062 C 22.175781 20.691406 22.921875 20.988281 23.726562 21.003906 C 25.136719 21.179688 26.417969 20.476562 27.714844 20.046875 C 29.800781 19.296875 31.828125 18.382812 33.90625 17.613281 C 34.417969 17.421875 34.933594 17.238281 35.449219 17.0625 C 35.484375 17.046875 35.519531 17.03125 35.558594 17.019531 C 35.59375 17.007812 35.632812 16.992188 35.667969 16.980469 C 35.667969 16.984375 35.667969 16.984375 35.671875 16.988281 C 35.671875 16.992188 35.671875 16.996094 35.671875 17 C 35.671875 17.003906 35.675781 17.007812 35.675781 17.011719 C 35.675781 17.011719 35.675781 17.015625 35.675781 17.015625 C 35.675781 17.027344 35.679688 17.039062 35.679688 17.046875 C 35.753906 17.449219 35.828125 17.847656 35.902344 18.25 C 35.996094 18.75 36.089844 19.25 36.183594 19.75 C 36.273438 20.246094 36.367188 20.738281 36.464844 21.234375 C 36.558594 21.730469 36.65625 22.230469 36.75 22.726562 C 36.832031 23.15625 36.917969 23.589844 37 24.019531 C 37 24.023438 37 24.023438 37 24.023438 C 37 24.027344 37 24.03125 37 24.035156 Z M 37 24.035156 " fill-opacity="1" fill-rule="nonzero"/><path fill="#935f3d" d="M 23.496094 28.003906 C 23.515625 28.039062 23.546875 28.078125 23.546875 28.121094 C 23.542969 28.148438 23.519531 28.171875 23.492188 28.171875 C 23.464844 28.171875 23.445312 28.144531 23.429688 28.125 C 23.28125 27.929688 23.132812 27.738281 22.953125 27.570312 C 22.726562 27.359375 22.472656 27.175781 22.21875 27 C 21.839844 26.742188 21.46875 26.472656 21.085938 26.21875 C 21.015625 26.175781 20.949219 26.136719 20.882812 26.09375 C 20.863281 26.082031 20.855469 26.050781 20.867188 26.03125 C 20.878906 26.007812 20.910156 25.996094 20.933594 26.011719 C 21.066406 26.09375 21.199219 26.171875 21.328125 26.257812 C 21.617188 26.445312 21.90625 26.628906 22.195312 26.816406 C 22.554688 27.050781 22.917969 27.304688 23.207031 27.625 C 23.277344 27.703125 23.34375 27.785156 23.40625 27.871094 C 23.4375 27.914062 23.46875 27.957031 23.496094 28.003906 Z M 22.320312 29.460938 C 22.335938 29.492188 22.308594 29.527344 22.277344 29.523438 C 22.261719 29.519531 22.246094 29.511719 22.238281 29.5 C 21.730469 29.316406 21.410156 28.96875 21.054688 28.585938 C 20.707031 28.222656 20.335938 27.878906 19.921875 27.601562 C 19.851562 27.546875 19.925781 27.4375 20 27.488281 C 20.53125 27.835938 20.988281 28.273438 21.414062 28.742188 C 21.640625 28.996094 21.910156 29.203125 22.207031 29.367188 C 22.246094 29.394531 22.304688 29.410156 22.320312 29.460938 Z M 20.976562 30.144531 C 21 30.15625 21.011719 30.191406 20.992188 30.214844 C 20.96875 30.242188 20.929688 30.234375 20.898438 30.226562 C 20.671875 30.164062 20.457031 30.058594 20.257812 29.933594 C 19.765625 29.632812 19.332031 29.234375 18.882812 28.878906 C 18.796875 28.816406 18.886719 28.6875 18.976562 28.75 C 19.464844 29.140625 19.949219 29.550781 20.476562 29.894531 C 20.636719 29.992188 20.804688 30.066406 20.976562 30.144531 Z M 20.976562 30.144531 " fill-opacity="1" fill-rule="nonzero"/><path fill="#935f3d" d="M 16.472656 28.855469 C 16.484375 29.136719 16.226562 29.488281 16.074219 29.71875 C 16.015625 29.804688 15.957031 29.890625 15.898438 29.980469 C 15.886719 29.996094 15.863281 30 15.847656 29.992188 C 15.832031 29.980469 15.824219 29.957031 15.835938 29.941406 C 15.980469 29.734375 16.128906 29.535156 16.25 29.316406 C 16.328125 29.167969 16.417969 29.015625 16.417969 28.84375 C 16.417969 28.824219 16.410156 28.800781 16.421875 28.785156 C 16.460938 28.761719 16.46875 28.832031 16.472656 28.855469 Z M 18.121094 29.574219 C 18.144531 29.570312 18.144531 29.59375 18.140625 29.609375 C 18.082031 29.757812 18.019531 29.910156 17.945312 30.054688 C 17.859375 30.214844 17.753906 30.363281 17.648438 30.507812 C 17.625 30.542969 17.601562 30.574219 17.578125 30.609375 C 17.570312 30.621094 17.550781 30.625 17.535156 30.617188 C 17.523438 30.609375 17.515625 30.589844 17.527344 30.574219 C 17.578125 30.503906 17.628906 30.433594 17.679688 30.359375 C 17.777344 30.214844 17.875 30.066406 17.949219 29.910156 C 17.996094 29.8125 18.035156 29.714844 18.085938 29.621094 C 18.097656 29.605469 18.105469 29.585938 18.121094 29.574219 Z M 18.121094 29.574219 " fill-opacity="1" fill-rule="nonzero"/><path fill="#935f3d" d="M 16.015625 22.949219 C 16.019531 23.167969 15.753906 23.339844 15.585938 23.457031 C 15.421875 23.554688 15.171875 23.753906 14.980469 23.628906 C 14.746094 23.4375 14.988281 23.140625 15.152344 22.988281 C 15.242188 22.90625 15.332031 22.828125 15.425781 22.75 C 15.445312 22.734375 15.464844 22.71875 15.484375 22.703125 C 15.496094 22.691406 15.507812 22.679688 15.523438 22.667969 C 15.554688 22.636719 15.597656 22.605469 15.644531 22.597656 C 15.644531 22.597656 15.648438 22.597656 15.648438 22.597656 C 15.660156 22.59375 15.671875 22.59375 15.6875 22.59375 C 15.6875 22.59375 15.691406 22.59375 15.695312 22.59375 C 15.699219 22.59375 15.699219 22.59375 15.699219 22.59375 C 15.714844 22.597656 15.734375 22.605469 15.75 22.617188 C 15.757812 22.621094 15.769531 22.628906 15.777344 22.636719 C 15.785156 22.640625 15.792969 22.644531 15.796875 22.648438 C 15.832031 22.671875 15.878906 22.710938 15.917969 22.753906 C 15.972656 22.804688 16.011719 22.871094 16.015625 22.949219 Z M 16.015625 22.949219 " fill-opacity="1" fill-rule="nonzero"/><path fill="#935f3d" d="M 18.617188 30.390625 C 18.320312 30.394531 18.121094 30.152344 18.160156 29.863281 C 18.167969 29.769531 18.195312 29.679688 18.25 29.605469 C 18.296875 29.53125 18.378906 29.457031 18.460938 29.53125 C 18.601562 29.636719 18.773438 29.699219 18.941406 29.757812 C 19.003906 29.769531 19.066406 29.769531 19.125 29.792969 C 19.175781 29.816406 19.238281 29.84375 19.246094 29.902344 C 19.246094 29.992188 19.183594 30.070312 19.128906 30.132812 C 19 30.269531 18.832031 30.394531 18.636719 30.394531 C 18.632812 30.394531 18.625 30.394531 18.617188 30.390625 Z M 19.203125 29.917969 C 19.195312 29.914062 19.191406 29.90625 19.195312 29.898438 C 19.203125 29.871094 19.164062 29.855469 19.144531 29.84375 C 19.097656 29.816406 19.042969 29.808594 18.988281 29.796875 C 18.917969 29.78125 18.84375 29.761719 18.773438 29.742188 C 18.757812 29.734375 18.714844 29.738281 18.71875 29.710938 C 18.722656 29.703125 18.730469 29.695312 18.742188 29.699219 C 18.816406 29.71875 18.890625 29.738281 18.96875 29.757812 C 19.027344 29.773438 19.09375 29.78125 19.148438 29.8125 C 19.179688 29.835938 19.222656 29.855469 19.222656 29.898438 C 19.21875 29.90625 19.214844 29.917969 19.207031 29.917969 C 19.207031 29.917969 19.203125 29.917969 19.203125 29.917969 Z M 19.207031 29.917969 C 19.203125 29.917969 19.203125 29.914062 19.203125 29.914062 C 19.199219 29.816406 19.019531 29.800781 18.949219 29.777344 C 18.824219 29.742188 18.699219 29.710938 18.585938 29.652344 C 18.566406 29.640625 18.542969 29.628906 18.523438 29.617188 C 18.515625 29.613281 18.511719 29.605469 18.515625 29.597656 C 18.519531 29.589844 18.527344 29.589844 18.535156 29.59375 C 18.554688 29.601562 18.570312 29.609375 18.589844 29.617188 C 18.707031 29.671875 18.832031 29.710938 18.953125 29.75 C 19.042969 29.773438 19.167969 29.78125 19.21875 29.871094 C 19.226562 29.882812 19.230469 29.917969 19.210938 29.917969 C 19.207031 29.917969 19.207031 29.917969 19.207031 29.917969 Z M 15.453125 29.363281 C 15.441406 29.359375 15.425781 29.355469 15.414062 29.355469 C 15.171875 29.289062 14.964844 29.03125 14.953125 28.765625 C 14.949219 28.621094 14.988281 28.484375 15.058594 28.375 C 15.128906 28.269531 15.222656 28.234375 15.320312 28.347656 C 15.433594 28.453125 15.554688 28.558594 15.683594 28.652344 C 15.773438 28.714844 15.867188 28.761719 15.964844 28.816406 C 16.027344 28.855469 16.097656 28.878906 16.160156 28.929688 C 16.234375 28.996094 16.15625 29.070312 16.117188 29.113281 C 16.042969 29.1875 15.964844 29.261719 15.871094 29.308594 C 15.78125 29.351562 15.683594 29.375 15.582031 29.375 C 15.539062 29.375 15.496094 29.371094 15.453125 29.363281 Z M 17.367188 29.53125 C 17.347656 29.53125 17.332031 29.527344 17.3125 29.523438 C 16.984375 29.484375 16.707031 29.050781 16.835938 28.683594 C 16.871094 28.597656 16.917969 28.507812 16.992188 28.464844 C 17.082031 28.410156 17.152344 28.511719 17.214844 28.5625 C 17.316406 28.652344 17.425781 28.722656 17.53125 28.800781 C 17.621094 28.871094 17.710938 28.945312 17.816406 28.984375 C 17.875 29.007812 17.9375 29.027344 17.992188 29.066406 C 18.003906 29.070312 18.019531 29.085938 18.007812 29.101562 C 18.023438 29.226562 17.890625 29.328125 17.8125 29.394531 C 17.695312 29.492188 17.550781 29.53125 17.410156 29.53125 C 17.394531 29.53125 17.382812 29.53125 17.367188 29.53125 Z M 17.78125 29.390625 C 17.78125 29.390625 17.777344 29.390625 17.777344 29.390625 C 17.773438 29.386719 17.777344 29.382812 17.78125 29.382812 C 17.816406 29.355469 17.847656 29.320312 17.878906 29.289062 C 17.910156 29.25 17.945312 29.214844 17.960938 29.164062 C 17.964844 29.152344 17.96875 29.136719 17.96875 29.121094 C 17.964844 29.105469 17.96875 29.082031 17.984375 29.078125 C 18.007812 29.074219 18.015625 29.105469 18.015625 29.125 C 18.015625 29.160156 17.996094 29.191406 17.976562 29.21875 C 17.929688 29.28125 17.871094 29.335938 17.808594 29.378906 C 17.800781 29.382812 17.792969 29.390625 17.785156 29.390625 C 17.78125 29.390625 17.78125 29.390625 17.78125 29.390625 Z M 17.734375 29.425781 C 17.726562 29.425781 17.722656 29.417969 17.722656 29.410156 C 17.726562 29.402344 17.730469 29.398438 17.734375 29.398438 C 17.777344 29.375 17.816406 29.339844 17.855469 29.308594 C 17.90625 29.261719 17.976562 29.175781 17.976562 29.101562 C 17.910156 29.074219 17.839844 29.074219 17.773438 29.046875 C 17.75 29.039062 17.757812 28.996094 17.785156 29 C 17.839844 29.011719 17.890625 29.03125 17.945312 29.039062 C 18.046875 29.058594 18.042969 29.113281 17.988281 29.195312 C 17.945312 29.261719 17.886719 29.3125 17.828125 29.363281 C 17.800781 29.382812 17.773438 29.40625 17.742188 29.425781 C 17.738281 29.425781 17.738281 29.425781 17.734375 29.425781 Z M 17.996094 29.117188 C 17.992188 29.117188 17.992188 29.113281 17.992188 29.109375 C 17.992188 29.109375 17.988281 29.105469 17.988281 29.101562 C 17.984375 29.089844 17.976562 29.082031 17.964844 29.078125 C 17.917969 29.054688 17.867188 29.046875 17.816406 29.027344 C 17.800781 29.019531 17.808594 28.992188 17.824219 28.996094 C 17.867188 29.015625 18.035156 29.035156 18.003906 29.109375 C 18.003906 29.113281 18 29.117188 17.996094 29.117188 Z M 18 29.128906 C 17.996094 29.128906 17.992188 29.128906 17.988281 29.125 C 17.988281 29.117188 17.988281 29.113281 17.988281 29.109375 C 17.988281 29.097656 17.980469 29.09375 17.976562 29.089844 C 17.9375 29.0625 17.890625 29.058594 17.847656 29.042969 C 17.796875 29.023438 17.75 29 17.699219 28.976562 C 17.683594 28.96875 17.667969 28.960938 17.652344 28.953125 C 17.648438 28.949219 17.644531 28.941406 17.648438 28.933594 C 17.660156 28.910156 17.6875 28.9375 17.707031 28.941406 C 17.742188 28.957031 17.78125 28.976562 17.816406 28.992188 C 17.871094 29.023438 18 29.019531 18.019531 29.09375 C 18.023438 29.109375 18.011719 29.128906 18 29.128906 Z M 18.003906 29.121094 C 17.996094 29.121094 17.992188 29.109375 17.996094 29.101562 C 18 29.074219 17.941406 29.058594 17.921875 29.050781 C 17.871094 29.035156 17.816406 29.027344 17.765625 29 C 17.695312 28.964844 17.625 28.921875 17.558594 28.875 C 17.546875 28.867188 17.558594 28.84375 17.570312 28.851562 C 17.585938 28.859375 17.597656 28.867188 17.609375 28.875 C 17.679688 28.910156 17.746094 28.953125 17.816406 28.984375 C 17.871094 29.003906 18.011719 29.019531 18.023438 29.089844 C 18.023438 29.101562 18.015625 29.121094 18.003906 29.121094 Z M 13.246094 28.769531 C 13.070312 28.71875 12.929688 28.589844 12.84375 28.429688 C 12.777344 28.304688 12.714844 28.167969 12.71875 28.023438 C 12.722656 27.933594 12.761719 27.800781 12.871094 27.8125 C 12.9375 27.828125 12.980469 27.890625 13.027344 27.933594 C 13.148438 28.058594 13.289062 28.160156 13.4375 28.242188 C 13.570312 28.320312 13.71875 28.375 13.875 28.371094 C 14.03125 28.347656 13.988281 28.480469 13.855469 28.601562 C 13.738281 28.710938 13.546875 28.8125 13.351562 28.792969 C 13.316406 28.789062 13.28125 28.78125 13.246094 28.769531 Z M 13.246094 28.769531 " fill-opacity="1" fill-rule="nonzero"/><path fill="#935f3d" d="M 5.785156 22.605469 C 5.203125 22.566406 4.617188 22.4375 4.050781 22.222656 C 3.722656 22.09375 3.394531 21.9375 3.101562 21.726562 C 3.023438 21.667969 2.914062 21.574219 2.929688 21.472656 C 2.941406 21.375 3.054688 21.34375 3.148438 21.402344 C 4.53125 22.265625 6.144531 22.316406 7.589844 22.121094 C 11.183594 21.550781 14.808594 20.445312 18.136719 18.589844 C 16.933594 17.929688 15.867188 17.070312 14.867188 16.171875 C 13.898438 15.257812 12.96875 14.296875 12.246094 13.207031 C 11.007812 11.40625 10.96875 8.957031 12.238281 7.347656 C 13.257812 6.046875 15.453125 5.839844 16.902344 6.945312 C 17.917969 7.703125 18.210938 8.945312 18.335938 10.070312 C 18.492188 9.125 18.800781 8.175781 19.449219 7.429688 C 20.390625 6.269531 22.242188 5.6875 23.75 6.503906 C 25.066406 7.175781 25.824219 8.5625 25.875 9.902344 C 25.902344 10.765625 25.644531 11.597656 25.292969 12.359375 C 24 15.085938 21.648438 17.082031 19.171875 18.589844 C 21.359375 19.613281 23.757812 20.191406 26.203125 20.484375 C 28.179688 20.738281 30.210938 21.042969 32.253906 20.933594 C 32.613281 20.960938 33.597656 20.789062 33.828125 20.96875 C 34.027344 21.125 33.910156 21.417969 33.648438 21.40625 C 32.652344 21.425781 31.671875 21.5 30.6875 21.453125 C 29.207031 21.394531 27.746094 21.1875 26.304688 20.996094 C 23.644531 20.675781 21.035156 20.035156 18.679688 18.875 C 16.230469 20.269531 13.605469 21.25 10.953125 21.898438 C 9.25 22.292969 7.5625 22.730469 5.785156 22.605469 Z M 18.199219 18.085938 C 18.320312 18.152344 18.4375 18.21875 18.558594 18.285156 C 18.578125 18.292969 18.59375 18.304688 18.613281 18.3125 C 21 16.890625 23.277344 15.019531 24.605469 12.457031 C 25.070312 11.542969 25.429688 10.507812 25.253906 9.441406 C 24.984375 7.734375 23.355469 6.21875 21.472656 6.6875 C 19.847656 7.097656 19.023438 8.636719 18.820312 10.09375 C 18.652344 10.972656 18.714844 11.878906 18.71875 12.765625 C 18.648438 12.984375 18.277344 12.949219 18.222656 12.710938 C 18.125 12.160156 18.058594 11.605469 17.976562 11.046875 C 17.773438 9.730469 17.78125 8.101562 16.460938 7.234375 C 15.398438 6.53125 13.984375 6.59375 13.050781 7.273438 C 12.449219 7.75 12.109375 8.464844 11.921875 9.195312 C 11.453125 11.171875 12.3125 12.789062 13.71875 14.335938 C 15.011719 15.757812 16.484375 17.09375 18.199219 18.085938 Z M 18.199219 18.085938 " fill-opacity="1" fill-rule="nonzero"/><path fill="#935f3d" d="M 4.554688 20.179688 C 5 20.433594 4.960938 21.035156 4.878906 21.472656 C 4.75 22.105469 4.617188 22.742188 4.386719 23.347656 C 4.253906 23.6875 4.058594 24.058594 3.695312 24.183594 C 3.519531 24.238281 3.332031 24.191406 3.15625 24.160156 C 2.660156 24.074219 2 23.878906 1.945312 23.289062 C 1.925781 23.03125 1.984375 22.777344 2.046875 22.527344 C 2.1875 21.949219 2.355469 21.375 2.53125 20.8125 C 2.636719 20.441406 2.730469 19.984375 3.113281 19.820312 C 3.265625 19.773438 3.425781 19.820312 3.578125 19.84375 C 3.917969 19.910156 4.257812 20 4.554688 20.179688 Z M 35.179688 19.980469 C 35.28125 20.621094 35.378906 21.261719 35.378906 21.910156 C 35.371094 22.273438 35.320312 22.691406 35.023438 22.9375 C 34.878906 23.046875 34.6875 23.070312 34.507812 23.105469 C 34.015625 23.199219 33.328125 23.25 33.070312 22.714844 C 32.960938 22.480469 32.929688 22.21875 32.898438 21.964844 C 32.824219 21.375 32.78125 20.78125 32.75 20.1875 C 32.71875 19.804688 32.644531 19.34375 32.945312 19.054688 C 33.074219 18.960938 33.238281 18.945312 33.390625 18.914062 C 33.730469 18.855469 34.078125 18.820312 34.421875 18.882812 C 34.929688 18.964844 35.097656 19.542969 35.179688 19.980469 Z M 35.179688 19.980469 " fill-opacity="1" fill-rule="nonzero"/></svg>