<svg xmlns="http://www.w3.org/2000/svg" xmlns:xlink="http://www.w3.org/1999/xlink" width="50" zoomAndPan="magnify" viewBox="0 0 37.5 37.499999" height="50" preserveAspectRatio="xMidYMid meet" version="1.0"><defs><clipPath id="da67cfd91f"><path d="M 0 0.601562 L 37.007812 0.601562 L 37.007812 36.867188 L 0 36.867188 Z M 0 0.601562 " clip-rule="nonzero"/></clipPath></defs><g clip-path="url(#da67cfd91f)"><path fill="#935f3d" d="M 15.152344 23.902344 C 14.976562 24.214844 14.644531 24.421875 14.265625 24.421875 L 11.1875 24.421875 C 10.808594 24.421875 10.476562 24.214844 10.300781 23.902344 Z M 22.667969 16.933594 C 23.175781 17.054688 23.664062 17.257812 24.113281 17.535156 L 25.050781 17.117188 L 26.15625 18.222656 L 25.742188 19.160156 C 26.015625 19.609375 26.21875 20.097656 26.339844 20.609375 L 27.296875 20.976562 L 27.296875 22.542969 L 26.339844 22.910156 C 26.21875 23.421875 26.015625 23.910156 25.742188 24.355469 L 26.15625 25.292969 L 25.050781 26.402344 L 24.113281 25.984375 C 23.664062 26.257812 23.175781 26.460938 22.667969 26.582031 L 22.296875 27.542969 L 20.734375 27.542969 L 20.363281 26.582031 C 19.855469 26.460938 19.367188 26.257812 18.917969 25.984375 L 17.980469 26.402344 L 16.875 25.292969 L 17.289062 24.355469 C 17.015625 23.910156 16.8125 23.421875 16.691406 22.910156 L 15.734375 22.542969 L 15.734375 20.976562 L 16.691406 20.605469 C 16.8125 20.097656 17.015625 19.609375 17.289062 19.164062 L 16.875 18.222656 L 17.980469 17.117188 L 18.917969 17.535156 C 19.367188 17.257812 19.855469 17.054688 20.363281 16.933594 L 20.734375 15.976562 L 22.296875 15.976562 Z M 21.515625 18.789062 C 19.875 18.789062 18.546875 20.121094 18.546875 21.757812 C 18.546875 23.398438 19.875 24.726562 21.515625 24.726562 C 23.15625 24.726562 24.484375 23.398438 24.484375 21.757812 C 24.484375 20.121094 23.15625 18.789062 21.515625 18.789062 Z M 21.515625 12.648438 L 7.097656 20.277344 L 14.5 20.277344 L 14.5 20.128906 L 15.683594 19.671875 C 15.753906 19.480469 15.832031 19.292969 15.917969 19.109375 L 15.402344 17.949219 L 17.707031 15.644531 L 18.867188 16.160156 C 19.050781 16.074219 19.238281 15.996094 19.429688 15.925781 L 19.886719 14.742188 L 23.144531 14.742188 L 23.601562 15.925781 C 23.792969 15.996094 23.980469 16.074219 24.164062 16.160156 L 25.324219 15.644531 L 27.628906 17.949219 L 27.113281 19.109375 C 27.199219 19.292969 27.277344 19.480469 27.347656 19.671875 L 28.53125 20.128906 L 28.53125 20.277344 L 35.933594 20.277344 Z M 8.011719 35.480469 C 17.015625 35.480469 26.015625 35.480469 35.019531 35.480469 L 35.019531 36.996094 L 8.011719 36.996094 Z M 33.777344 21.507812 L 33.777344 22.671875 L 28.53125 22.671875 L 28.53125 21.507812 Z M 14.5 22.671875 L 9.253906 22.671875 L 9.253906 21.507812 L 14.5 21.507812 Z M 37.007812 13.210938 C 37.007812 13.511719 36.761719 13.753906 36.464844 13.753906 L 30.695312 13.753906 C 30.398438 13.753906 30.152344 13.511719 30.152344 13.210938 L 30.152344 8.097656 L 26.351562 8.097656 L 26.351562 13.8125 L 25.121094 13.160156 L 25.121094 7.480469 C 25.121094 7.140625 25.394531 6.863281 25.734375 6.863281 L 30.152344 6.863281 L 30.152344 1.761719 C 30.152344 1.464844 30.398438 1.21875 30.695312 1.21875 L 31.28125 1.21875 L 31.671875 2.792969 C 31.738281 3.070312 31.984375 3.261719 32.269531 3.261719 L 34.890625 3.265625 C 35.195312 3.265625 35.449219 3.042969 35.5 2.753906 L 35.878906 1.21875 L 36.464844 1.21875 C 36.761719 1.21875 37.007812 1.464844 37.007812 1.761719 Z M 2.0625 13.21875 L 2.0625 12.257812 C 2.0625 11.886719 2.445312 11.585938 2.910156 11.585938 L 4.414062 11.585938 L 4.414062 10.011719 L 0.988281 10.011719 C 0.445312 10.011719 0 9.566406 0 9.019531 L 0 2.210938 C 0 1.664062 0.445312 1.21875 0.988281 1.21875 L 11.886719 1.21875 C 12.433594 1.21875 12.878906 1.664062 12.878906 2.210938 L 12.878906 5.964844 L 15.570312 5.964844 C 15.910156 5.964844 16.1875 6.238281 16.1875 6.578125 L 16.1875 12.828125 L 18.542969 12.828125 L 16.210938 14.0625 L 15.570312 14.0625 C 15.230469 14.0625 14.953125 13.785156 14.953125 13.445312 L 14.953125 7.195312 L 12.878906 7.195312 L 12.878906 9.019531 C 12.878906 9.566406 12.433594 10.011719 11.886719 10.011719 L 8.464844 10.011719 L 8.464844 11.585938 L 9.96875 11.585938 C 10.433594 11.585938 10.8125 11.886719 10.8125 12.257812 L 10.8125 13.21875 Z M 21.515625 8.210938 C 20.917969 8.210938 20.4375 8.691406 20.4375 9.289062 C 20.4375 9.886719 20.917969 10.367188 21.515625 10.367188 C 22.113281 10.367188 22.59375 9.886719 22.59375 9.289062 C 22.59375 8.691406 22.113281 8.210938 21.515625 8.210938 Z M 24.457031 6.914062 C 23.695312 6.082031 22.652344 5.582031 21.515625 5.582031 C 20.378906 5.582031 19.335938 6.082031 18.574219 6.914062 C 18.34375 7.164062 18.363281 7.550781 18.613281 7.78125 C 18.863281 8.011719 19.25 7.992188 19.480469 7.742188 C 20.007812 7.164062 20.730469 6.816406 21.515625 6.816406 C 22.300781 6.816406 23.023438 7.164062 23.550781 7.742188 C 23.78125 7.992188 24.167969 8.011719 24.417969 7.78125 C 24.667969 7.550781 24.6875 7.164062 24.457031 6.914062 Z M 17.871094 5.980469 C 18.816406 4.949219 20.109375 4.328125 21.515625 4.328125 C 22.210938 4.328125 22.875 4.476562 23.476562 4.75 C 24.113281 5.039062 24.683594 5.460938 25.160156 5.980469 C 25.386719 6.230469 25.777344 6.25 26.027344 6.019531 C 26.277344 5.792969 26.292969 5.402344 26.066406 5.152344 C 24.886719 3.863281 23.273438 3.09375 21.515625 3.09375 C 19.757812 3.09375 18.144531 3.863281 16.964844 5.152344 C 16.738281 5.402344 16.753906 5.792969 17.003906 6.019531 C 17.253906 6.25 17.640625 6.230469 17.871094 5.980469 Z M 27.675781 3.390625 C 26.078125 1.644531 23.894531 0.601562 21.515625 0.601562 C 19.136719 0.601562 16.953125 1.644531 15.355469 3.390625 C 15.128906 3.640625 15.144531 4.03125 15.394531 4.257812 C 15.644531 4.488281 16.035156 4.472656 16.261719 4.222656 C 17.625 2.730469 19.484375 1.835938 21.515625 1.835938 C 23.542969 1.835938 25.40625 2.730469 26.769531 4.222656 C 26.996094 4.472656 27.386719 4.488281 27.636719 4.257812 C 27.886719 4.03125 27.902344 3.640625 27.675781 3.390625 Z M 32.550781 1.21875 L 32.75 2.03125 L 34.410156 2.03125 L 34.609375 1.21875 Z M 33.078125 12.84375 C 32.738281 12.84375 32.460938 12.566406 32.460938 12.226562 C 32.460938 11.886719 32.738281 11.609375 33.078125 11.609375 L 34.078125 11.609375 C 34.421875 11.609375 34.695312 11.886719 34.695312 12.226562 C 34.695312 12.566406 34.421875 12.84375 34.078125 12.84375 Z M 31.507812 25.65625 L 31.507812 32.496094 L 29.097656 32.496094 L 29.097656 25.65625 Z M 22.722656 28.773438 L 22.722656 32.496094 L 20.308594 32.496094 L 20.308594 28.773438 Z M 13.933594 25.65625 L 13.933594 32.496094 L 11.523438 32.496094 L 11.523438 25.65625 Z M 11.1875 33.726562 L 14.265625 33.726562 C 14.644531 33.726562 14.976562 33.9375 15.152344 34.246094 L 10.300781 34.246094 C 10.476562 33.9375 10.808594 33.726562 11.1875 33.726562 Z M 19.976562 33.726562 L 23.054688 33.726562 C 23.433594 33.726562 23.765625 33.9375 23.941406 34.246094 L 19.089844 34.246094 C 19.265625 33.9375 19.597656 33.726562 19.976562 33.726562 Z M 28.765625 33.726562 L 31.84375 33.726562 C 32.222656 33.726562 32.554688 33.9375 32.730469 34.246094 L 27.878906 34.246094 C 28.054688 33.9375 28.386719 33.726562 28.765625 33.726562 Z M 32.730469 23.902344 C 32.554688 24.214844 32.222656 24.421875 31.84375 24.421875 L 28.765625 24.421875 C 28.386719 24.421875 28.054688 24.214844 27.878906 23.902344 Z M 32.730469 23.902344 " fill-opacity="1" fill-rule="evenodd"/></g></svg>