<svg xmlns="http://www.w3.org/2000/svg" xmlns:xlink="http://www.w3.org/1999/xlink" width="50" zoomAndPan="magnify" viewBox="0 0 37.5 37.499999" height="50" preserveAspectRatio="xMidYMid meet" version="1.0"><defs><clipPath id="b9f9525c9e"><path d="M 1.171875 7.949219 L 35.828125 7.949219 L 35.828125 37.003906 L 1.171875 37.003906 Z M 1.171875 7.949219 " clip-rule="nonzero"/></clipPath></defs><g clip-path="url(#b9f9525c9e)"><path fill="#935f3d" d="M 33.476562 7.957031 L 29.132812 7.957031 L 29.132812 10.421875 L 31.59375 10.421875 C 32.617188 10.421875 33.445312 11.25 33.445312 12.273438 L 33.445312 24.257812 C 33.445312 25.277344 32.617188 26.109375 31.59375 26.109375 L 5.359375 26.109375 C 4.339844 26.109375 3.511719 25.277344 3.511719 24.257812 L 3.511719 12.273438 C 3.511719 11.25 4.339844 10.421875 5.359375 10.421875 L 7.871094 10.421875 L 7.871094 7.957031 L 3.527344 7.957031 C 2.226562 7.957031 1.171875 9.011719 1.171875 10.308594 L 1.171875 28.550781 C 1.171875 29.847656 2.226562 30.902344 3.527344 30.902344 L 16.242188 30.902344 L 16.242188 34.660156 L 12.960938 34.660156 C 11.636719 34.660156 10.5625 35.710938 10.554688 37.003906 L 26.492188 37.003906 C 26.484375 35.710938 25.410156 34.660156 24.085938 34.660156 L 20.761719 34.660156 L 20.761719 30.902344 L 33.476562 30.902344 C 34.777344 30.902344 35.828125 29.847656 35.828125 28.550781 L 35.828125 10.308594 C 35.828125 9.011719 34.777344 7.957031 33.476562 7.957031 " fill-opacity="1" fill-rule="nonzero"/></g><path fill="#935f3d" d="M 22.890625 13.84375 L 20.074219 13.84375 C 19.789062 13.84375 19.5625 14.074219 19.5625 14.359375 C 19.5625 14.640625 19.789062 14.871094 20.074219 14.871094 L 22.890625 14.871094 C 23.171875 14.871094 23.402344 14.640625 23.402344 14.359375 C 23.402344 14.074219 23.171875 13.84375 22.890625 13.84375 " fill-opacity="1" fill-rule="nonzero"/><path fill="#935f3d" d="M 22.890625 16.203125 L 20.074219 16.203125 C 19.789062 16.203125 19.5625 16.433594 19.5625 16.714844 C 19.5625 17 19.789062 17.230469 20.074219 17.230469 L 22.890625 17.230469 C 23.171875 17.230469 23.402344 17 23.402344 16.714844 C 23.402344 16.433594 23.171875 16.203125 22.890625 16.203125 " fill-opacity="1" fill-rule="nonzero"/><path fill="#935f3d" d="M 17.25 1.859375 C 17.25 1.640625 17.425781 1.460938 17.644531 1.460938 L 19.328125 1.460938 C 19.546875 1.460938 19.726562 1.640625 19.726562 1.859375 L 19.726562 2.34375 C 19.726562 2.5625 19.546875 2.742188 19.328125 2.742188 L 17.644531 2.742188 C 17.425781 2.742188 17.25 2.5625 17.25 2.34375 Z M 16.292969 1.570312 L 16.292969 2.632812 C 16.292969 3.089844 16.664062 3.460938 17.125 3.460938 L 19.851562 3.460938 C 20.308594 3.460938 20.683594 3.089844 20.683594 2.632812 L 20.683594 1.570312 C 20.683594 1.113281 20.308594 0.742188 19.851562 0.742188 L 19.378906 0.742188 C 19.433594 0.664062 19.464844 0.570312 19.464844 0.46875 C 19.464844 0.210938 19.253906 0 18.992188 0 L 17.980469 0 C 17.722656 0 17.511719 0.210938 17.511719 0.46875 C 17.511719 0.570312 17.542969 0.664062 17.597656 0.742188 L 17.125 0.742188 C 16.664062 0.742188 16.292969 1.113281 16.292969 1.570312 " fill-opacity="1" fill-rule="nonzero"/><path fill="#935f3d" d="M 14.898438 1.648438 L 10.953125 1.648438 C 10.765625 1.648438 10.613281 1.800781 10.613281 1.992188 L 10.613281 22.507812 C 10.613281 22.695312 10.765625 22.847656 10.953125 22.847656 L 26.019531 22.847656 C 26.210938 22.847656 26.363281 22.695312 26.363281 22.507812 L 26.363281 1.992188 C 26.363281 1.800781 26.210938 1.648438 26.019531 1.648438 L 22.074219 1.648438 C 21.886719 1.648438 21.734375 1.800781 21.734375 1.992188 L 21.734375 2.566406 C 21.734375 2.753906 21.886719 2.90625 22.074219 2.90625 L 24.667969 2.90625 C 24.855469 2.90625 25.007812 3.058594 25.007812 3.25 L 25.007812 21.25 C 25.007812 21.4375 24.855469 21.589844 24.667969 21.589844 L 12.308594 21.589844 C 12.117188 21.589844 11.964844 21.4375 11.964844 21.25 L 11.964844 3.25 C 11.964844 3.058594 12.117188 2.90625 12.308594 2.90625 L 14.898438 2.90625 C 15.089844 2.90625 15.242188 2.753906 15.242188 2.566406 L 15.242188 1.992188 C 15.242188 1.800781 15.089844 1.648438 14.898438 1.648438 " fill-opacity="1" fill-rule="nonzero"/><path fill="#935f3d" d="M 17.136719 5.699219 C 18.738281 5.699219 20.039062 7 20.039062 8.597656 C 20.039062 10.199219 18.738281 11.5 17.136719 11.5 C 15.539062 11.5 14.234375 10.199219 14.234375 8.597656 C 14.234375 7 15.539062 5.699219 17.136719 5.699219 Z M 13.210938 8.597656 C 13.210938 10.765625 14.972656 12.527344 17.136719 12.527344 C 19.304688 12.527344 21.066406 10.765625 21.066406 8.597656 C 21.066406 6.433594 19.304688 4.671875 17.136719 4.671875 C 14.972656 4.671875 13.210938 6.433594 13.210938 8.597656 " fill-opacity="1" fill-rule="nonzero"/><path fill="#935f3d" d="M 16.554688 10.164062 L 17.71875 10.164062 L 17.71875 9.042969 L 18.84375 9.042969 L 18.84375 7.878906 L 17.71875 7.878906 L 17.71875 6.753906 L 16.554688 6.753906 L 16.554688 7.878906 L 15.433594 7.878906 L 15.433594 9.042969 L 16.554688 9.042969 L 16.554688 10.164062 " fill-opacity="1" fill-rule="nonzero"/><path fill="#935f3d" d="M 16.046875 15.011719 C 15.816406 14.691406 15.4375 14.484375 15.011719 14.484375 C 14.304688 14.484375 13.730469 15.058594 13.730469 15.765625 C 13.730469 16.089844 13.847656 16.429688 14.027344 16.761719 L 14.09375 16.871094 C 14.746094 17.980469 16.050781 18.980469 16.050781 18.980469 C 16.050781 18.980469 17.367188 17.96875 18.011719 16.859375 L 18.09375 16.714844 C 18.261719 16.394531 18.367188 16.070312 18.367188 15.761719 C 18.367188 15.054688 17.792969 14.480469 17.085938 14.480469 C 16.65625 14.484375 16.28125 14.691406 16.046875 15.011719 " fill-opacity="1" fill-rule="nonzero"/></svg>