<svg xmlns="http://www.w3.org/2000/svg" xmlns:xlink="http://www.w3.org/1999/xlink" width="40" zoomAndPan="magnify" viewBox="0 0 30 30.000001" height="40" preserveAspectRatio="xMidYMid meet" version="1.0"><defs><clipPath id="99ed4a1a31"><path d="M 0.484375 0 L 29.515625 0 L 29.515625 29.03125 L 0.484375 29.03125 Z M 0.484375 0 " clip-rule="nonzero"/></clipPath><clipPath id="768ea82c5e"><path d="M 0.484375 0 L 29.515625 0 L 29.515625 29.03125 L 0.484375 29.03125 Z M 0.484375 0 " clip-rule="nonzero"/></clipPath></defs><g clip-path="url(#99ed4a1a31)"><path fill="#ffffff" d="M 0.484375 0 L 29.515625 0 L 29.515625 29.03125 L 0.484375 29.03125 Z M 0.484375 0 " fill-opacity="1" fill-rule="nonzero"/><path fill="#ffffff" d="M 0.484375 0 L 29.515625 0 L 29.515625 29.03125 L 0.484375 29.03125 Z M 0.484375 0 " fill-opacity="1" fill-rule="nonzero"/></g><path fill="#925f3d" d="M 13.777344 4.535156 L 14.910156 2.179688 C 15 1.949219 15.273438 1.859375 15.5 1.949219 C 15.722656 2.042969 15.816406 2.316406 15.722656 2.542969 L 14.910156 4.265625 L 17.222656 4.265625 C 17.40625 4.265625 17.539062 4.355469 17.632812 4.488281 C 17.722656 4.625 17.722656 4.808594 17.632812 4.945312 L 15.453125 8.300781 C 15.316406 8.527344 15.046875 8.574219 14.820312 8.4375 C 14.59375 8.300781 14.546875 8.027344 14.683594 7.800781 L 16.359375 5.125 L 14.140625 5.125 C 14.003906 5.125 13.820312 5.035156 13.777344 4.898438 C 13.683594 4.808594 13.683594 4.671875 13.777344 4.535156 Z M 15.679688 10.433594 C 18.539062 10.433594 20.898438 8.074219 20.898438 5.214844 C 20.898438 2.359375 18.539062 0 15.679688 0 C 12.820312 0 10.464844 2.359375 10.464844 5.214844 C 10.464844 8.074219 12.820312 10.433594 15.679688 10.433594 " fill-opacity="1" fill-rule="nonzero"/><g clip-path="url(#768ea82c5e)"><path fill="#925f3d" d="M 29.0625 28.125 L 26.070312 28.125 L 26.070312 13.835938 C 26.070312 13.609375 25.839844 13.382812 25.617188 13.382812 L 23.347656 13.382812 C 23.117188 13.382812 22.894531 13.609375 22.894531 13.835938 L 22.894531 28.125 L 20.214844 28.125 L 20.214844 17.917969 C 20.214844 17.644531 20.035156 17.464844 19.761719 17.464844 L 17.496094 17.464844 C 17.269531 17.464844 17.042969 17.644531 17.042969 17.917969 L 17.042969 28.125 L 14.367188 28.125 L 14.367188 16.105469 C 14.367188 15.832031 14.183594 15.648438 13.914062 15.648438 L 11.644531 15.648438 C 11.371094 15.648438 11.191406 15.832031 11.191406 16.105469 L 11.191406 28.125 L 8.511719 28.125 L 8.511719 21.546875 C 8.511719 21.273438 8.332031 21.09375 8.058594 21.09375 L 5.789062 21.09375 C 5.519531 21.09375 5.335938 21.273438 5.335938 21.546875 L 5.335938 28.125 L 1.390625 28.125 L 1.390625 24.089844 L 2.296875 24.089844 C 2.570312 24.089844 2.753906 23.863281 2.753906 23.636719 C 2.753906 23.363281 2.570312 23.179688 2.296875 23.179688 L 1.390625 23.179688 L 1.390625 18.007812 L 2.296875 18.007812 C 2.570312 18.007812 2.753906 17.828125 2.753906 17.554688 C 2.753906 17.285156 2.570312 17.101562 2.296875 17.101562 L 1.390625 17.101562 L 1.390625 11.929688 L 2.296875 11.929688 C 2.570312 11.929688 2.753906 11.746094 2.753906 11.476562 C 2.753906 11.25 2.570312 11.023438 2.296875 11.023438 L 1.390625 11.023438 L 1.390625 5.851562 L 2.296875 5.851562 C 2.570312 5.851562 2.753906 5.671875 2.753906 5.398438 C 2.753906 5.125 2.570312 4.945312 2.296875 4.945312 L 1.390625 4.945312 L 1.390625 0.453125 C 1.390625 0.179688 1.164062 0 0.9375 0 C 0.710938 0 0.484375 0.179688 0.484375 0.453125 L 0.484375 28.578125 C 0.484375 28.847656 0.710938 29.03125 0.9375 29.03125 L 29.0625 29.03125 C 29.332031 29.03125 29.515625 28.847656 29.515625 28.578125 C 29.515625 28.304688 29.332031 28.125 29.0625 28.125 " fill-opacity="1" fill-rule="nonzero"/></g><path fill="#925f3d" d="M 7.105469 15.96875 L 12.820312 13.15625 L 18.492188 14.789062 C 18.628906 14.832031 18.8125 14.789062 18.898438 14.695312 L 23.710938 10.886719 L 23.617188 11.339844 C 23.527344 11.613281 23.753906 11.882812 24.074219 11.882812 C 24.253906 11.882812 24.480469 11.746094 24.527344 11.519531 L 24.980469 9.753906 C 25.027344 9.527344 24.890625 9.253906 24.664062 9.210938 L 22.894531 8.753906 C 22.664062 8.710938 22.394531 8.847656 22.347656 9.074219 C 22.304688 9.300781 22.441406 9.574219 22.664062 9.617188 L 23.527344 9.84375 L 18.582031 13.835938 L 12.914062 12.246094 C 12.820312 12.203125 12.683594 12.246094 12.59375 12.292969 L 6.699219 15.148438 C 6.472656 15.242188 6.382812 15.511719 6.472656 15.742188 C 6.609375 15.96875 6.882812 16.105469 7.109375 15.96875 L 7.105469 15.96875 " fill-opacity="1" fill-rule="nonzero"/></svg>