<svg xmlns="http://www.w3.org/2000/svg" xmlns:xlink="http://www.w3.org/1999/xlink" width="40" zoomAndPan="magnify" viewBox="0 0 30 30.000001" height="40" preserveAspectRatio="xMidYMid meet" version="1.0"><defs><clipPath id="adfb56136b"><path d="M 0.484375 0 L 29.515625 0 L 29.515625 29.03125 L 0.484375 29.03125 Z M 0.484375 0 " clip-rule="nonzero"/></clipPath></defs><g clip-path="url(#adfb56136b)"><path fill="#ffffff" d="M 0.484375 0 L 29.515625 0 L 29.515625 29.03125 L 0.484375 29.03125 Z M 0.484375 0 " fill-opacity="1" fill-rule="nonzero"/><path fill="#ffffff" d="M 0.484375 0 L 29.515625 0 L 29.515625 29.03125 L 0.484375 29.03125 Z M 0.484375 0 " fill-opacity="1" fill-rule="nonzero"/></g><path fill="#925f3d" d="M 5.949219 9.738281 C 5.984375 9.761719 6.03125 9.773438 6.074219 9.773438 C 6.15625 9.773438 6.234375 9.730469 6.273438 9.660156 C 6.355469 9.53125 6.441406 9.398438 6.523438 9.269531 C 6.59375 9.164062 6.566406 9.015625 6.457031 8.9375 C 6.351562 8.867188 6.203125 8.894531 6.125 9.003906 C 6.035156 9.140625 5.949219 9.277344 5.863281 9.410156 C 5.800781 9.519531 5.835938 9.667969 5.949219 9.738281 Z M 5.949219 9.738281 " fill-opacity="1" fill-rule="nonzero"/><path fill="#925f3d" d="M 6.800781 21.023438 C 6.726562 20.917969 6.578125 20.898438 6.46875 20.976562 C 6.363281 21.054688 6.34375 21.203125 6.421875 21.308594 C 6.515625 21.4375 6.617188 21.570312 6.71875 21.695312 C 6.765625 21.753906 6.832031 21.785156 6.902344 21.785156 C 6.957031 21.785156 7.007812 21.765625 7.050781 21.730469 C 7.152344 21.648438 7.167969 21.5 7.085938 21.398438 C 6.992188 21.265625 6.898438 21.148438 6.800781 21.023438 Z M 6.800781 21.023438 " fill-opacity="1" fill-rule="nonzero"/><path fill="#925f3d" d="M 6.054688 19.851562 C 5.988281 19.738281 5.847656 19.695312 5.734375 19.753906 C 5.621094 19.820312 5.582031 19.960938 5.640625 20.074219 C 5.714844 20.21875 5.800781 20.359375 5.882812 20.496094 C 5.929688 20.566406 6.007812 20.609375 6.085938 20.609375 C 6.125 20.609375 6.167969 20.597656 6.210938 20.574219 C 6.320312 20.503906 6.355469 20.359375 6.285156 20.246094 C 6.203125 20.121094 6.125 19.984375 6.054688 19.851562 Z M 6.054688 19.851562 " fill-opacity="1" fill-rule="nonzero"/><path fill="#925f3d" d="M 7.710938 22.078125 C 7.621094 21.984375 7.464844 21.984375 7.371094 22.074219 C 7.277344 22.164062 7.277344 22.316406 7.367188 22.410156 C 7.476562 22.523438 7.597656 22.644531 7.714844 22.75 C 7.761719 22.792969 7.820312 22.816406 7.875 22.816406 C 7.941406 22.816406 8 22.792969 8.046875 22.738281 C 8.136719 22.644531 8.128906 22.496094 8.035156 22.398438 C 7.929688 22.300781 7.816406 22.191406 7.710938 22.078125 Z M 7.710938 22.078125 " fill-opacity="1" fill-rule="nonzero"/><path fill="#925f3d" d="M 20.929688 23.253906 L 20.929688 21.585938 C 20.929688 21.457031 20.820312 21.351562 20.691406 21.351562 L 9.304688 21.351562 C 9.175781 21.351562 9.066406 21.457031 9.066406 21.585938 L 9.066406 23.242188 C 8.960938 23.164062 8.855469 23.089844 8.746094 23.003906 C 8.648438 22.921875 8.492188 22.945312 8.414062 23.046875 C 8.332031 23.148438 8.355469 23.300781 8.457031 23.378906 C 8.582031 23.480469 8.71875 23.574219 8.847656 23.667969 C 8.890625 23.699219 8.9375 23.710938 8.984375 23.710938 C 9.015625 23.710938 9.042969 23.703125 9.066406 23.691406 L 9.066406 28.703125 C 9.066406 28.835938 9.175781 28.941406 9.304688 28.941406 L 20.691406 28.941406 C 20.820312 28.941406 20.929688 28.835938 20.929688 28.703125 L 20.929688 23.824219 C 21.007812 23.769531 21.082031 23.722656 21.152344 23.667969 C 21.261719 23.59375 21.285156 23.445312 21.214844 23.335938 C 21.148438 23.242188 21.03125 23.210938 20.929688 23.253906 Z M 20.453125 28.46875 L 9.542969 28.46875 L 9.542969 21.824219 L 20.453125 21.824219 Z M 20.453125 28.46875 " fill-opacity="1" fill-rule="nonzero"/><path fill="#925f3d" d="M 23.183594 8.859375 C 23.230469 8.925781 23.300781 8.957031 23.371094 8.957031 C 23.417969 8.957031 23.472656 8.9375 23.515625 8.90625 C 23.621094 8.832031 23.640625 8.683594 23.5625 8.574219 C 23.46875 8.445312 23.367188 8.316406 23.265625 8.191406 C 23.183594 8.089844 23.035156 8.070312 22.933594 8.15625 C 22.832031 8.238281 22.816406 8.386719 22.898438 8.488281 C 23 8.609375 23.09375 8.734375 23.183594 8.859375 Z M 23.183594 8.859375 " fill-opacity="1" fill-rule="nonzero"/><path fill="#925f3d" d="M 21.960938 22.398438 C 21.847656 22.507812 21.730469 22.609375 21.617188 22.707031 C 21.515625 22.792969 21.503906 22.945312 21.59375 23.039062 C 21.640625 23.09375 21.707031 23.125 21.769531 23.125 C 21.824219 23.125 21.878906 23.105469 21.925781 23.0625 C 22.050781 22.957031 22.167969 22.851562 22.285156 22.738281 C 22.382812 22.648438 22.386719 22.5 22.300781 22.398438 C 22.210938 22.316406 22.054688 22.3125 21.960938 22.398438 Z M 21.960938 22.398438 " fill-opacity="1" fill-rule="nonzero"/><path fill="#925f3d" d="M 5.320312 11.011719 C 5.347656 11.023438 5.382812 11.03125 5.414062 11.03125 C 5.503906 11.03125 5.59375 10.976562 5.632812 10.886719 C 5.691406 10.746094 5.757812 10.605469 5.828125 10.46875 C 5.890625 10.347656 5.835938 10.207031 5.722656 10.152344 C 5.605469 10.09375 5.460938 10.148438 5.410156 10.261719 C 5.335938 10.410156 5.265625 10.554688 5.207031 10.703125 C 5.148438 10.824219 5.199219 10.964844 5.320312 11.011719 Z M 5.320312 11.011719 " fill-opacity="1" fill-rule="nonzero"/><path fill="#925f3d" d="M 23.246094 21.351562 C 23.148438 21.265625 23 21.285156 22.914062 21.386719 C 22.820312 21.503906 22.714844 21.625 22.613281 21.742188 C 22.523438 21.835938 22.535156 21.992188 22.632812 22.074219 C 22.679688 22.117188 22.730469 22.132812 22.792969 22.132812 C 22.855469 22.132812 22.921875 22.101562 22.96875 22.054688 C 23.074219 21.9375 23.183594 21.8125 23.285156 21.6875 C 23.359375 21.582031 23.347656 21.433594 23.246094 21.351562 Z M 23.246094 21.351562 " fill-opacity="1" fill-rule="nonzero"/><path fill="#925f3d" d="M 6.742188 8.550781 C 6.785156 8.585938 6.835938 8.605469 6.890625 8.605469 C 6.960938 8.605469 7.027344 8.574219 7.074219 8.515625 C 7.105469 8.480469 7.132812 8.4375 7.167969 8.402344 L 7.167969 8.777344 C 7.167969 8.90625 7.277344 9.015625 7.40625 9.015625 L 22.589844 9.015625 C 22.71875 9.015625 22.828125 8.90625 22.828125 8.777344 L 22.828125 0.238281 C 22.828125 0.105469 22.71875 0 22.589844 0 L 7.40625 0 C 7.277344 0 7.167969 0.105469 7.167969 0.238281 L 7.167969 7.769531 C 7.117188 7.773438 7.0625 7.796875 7.023438 7.847656 C 6.914062 7.964844 6.808594 8.089844 6.707031 8.214844 C 6.625 8.320312 6.640625 8.46875 6.742188 8.550781 Z M 7.644531 0.472656 L 22.351562 0.472656 L 22.351562 8.539062 L 7.644531 8.539062 Z M 7.644531 0.472656 " fill-opacity="1" fill-rule="nonzero"/><path fill="#925f3d" d="M 4.558594 12.335938 C 3.121094 12.335938 1.949219 13.503906 1.949219 14.945312 C 1.949219 16.386719 3.121094 17.554688 4.558594 17.554688 C 6 17.554688 7.167969 16.386719 7.167969 14.945312 C 7.167969 13.503906 6 12.335938 4.558594 12.335938 Z M 4.558594 17.082031 C 3.378906 17.082031 2.425781 16.125 2.425781 14.945312 C 2.425781 13.765625 3.378906 12.808594 4.558594 12.808594 C 5.742188 12.808594 6.695312 13.765625 6.695312 14.945312 C 6.695312 16.125 5.742188 17.082031 4.558594 17.082031 Z M 4.558594 17.082031 " fill-opacity="1" fill-rule="nonzero"/><path fill="#925f3d" d="M 4.558594 11.386719 C 2.597656 11.386719 1 12.980469 1 14.945312 C 1 16.910156 2.597656 18.503906 4.558594 18.503906 C 4.769531 18.503906 4.976562 18.484375 5.171875 18.449219 C 5.164062 18.449219 5.164062 18.449219 5.160156 18.457031 C 5.035156 18.503906 4.976562 18.640625 5.023438 18.765625 C 5.082031 18.914062 5.140625 19.066406 5.207031 19.214844 C 5.25 19.304688 5.332031 19.359375 5.425781 19.359375 C 5.457031 19.359375 5.492188 19.351562 5.519531 19.339844 C 5.640625 19.285156 5.699219 19.148438 5.644531 19.027344 C 5.585938 18.882812 5.527344 18.742188 5.46875 18.597656 C 5.433594 18.503906 5.335938 18.445312 5.238281 18.445312 C 6.875 18.125 8.117188 16.675781 8.117188 14.945312 C 8.117188 12.980469 6.523438 11.386719 4.558594 11.386719 Z M 4.558594 18.027344 C 2.859375 18.027344 1.476562 16.648438 1.476562 14.945312 C 1.476562 13.242188 2.859375 11.859375 4.558594 11.859375 C 6.261719 11.859375 7.644531 13.242188 7.644531 14.945312 C 7.644531 16.648438 6.261719 18.027344 4.558594 18.027344 Z M 4.558594 18.027344 " fill-opacity="1" fill-rule="nonzero"/><path fill="#925f3d" d="M 4.796875 13.558594 L 4.796875 13.285156 C 4.796875 13.152344 4.691406 13.046875 4.558594 13.046875 C 4.429688 13.046875 4.324219 13.152344 4.324219 13.285156 L 4.324219 13.558594 C 3.980469 13.660156 3.730469 13.980469 3.730469 14.351562 C 3.730469 14.667969 3.917969 14.945312 4.210938 15.058594 L 4.738281 15.265625 C 4.851562 15.308594 4.921875 15.414062 4.921875 15.53125 C 4.921875 15.726562 4.761719 15.886719 4.566406 15.886719 C 4.371094 15.886719 4.210938 15.726562 4.210938 15.53125 L 4.210938 15.414062 C 4.210938 15.285156 4.105469 15.175781 3.972656 15.175781 C 3.84375 15.175781 3.734375 15.285156 3.734375 15.414062 L 3.734375 15.53125 C 3.734375 15.90625 3.984375 16.226562 4.328125 16.328125 L 4.328125 16.601562 C 4.328125 16.730469 4.4375 16.835938 4.566406 16.835938 C 4.695312 16.835938 4.804688 16.730469 4.804688 16.601562 L 4.804688 16.328125 C 5.148438 16.226562 5.398438 15.90625 5.398438 15.53125 C 5.398438 15.21875 5.207031 14.9375 4.917969 14.828125 L 4.386719 14.617188 C 4.277344 14.578125 4.203125 14.472656 4.203125 14.351562 C 4.203125 14.15625 4.363281 13.996094 4.558594 13.996094 C 4.757812 13.996094 4.917969 14.15625 4.917969 14.351562 L 4.917969 14.386719 C 4.917969 14.519531 5.023438 14.625 5.152344 14.625 C 5.285156 14.625 5.390625 14.519531 5.390625 14.386719 L 5.390625 14.351562 C 5.390625 13.980469 5.140625 13.660156 4.796875 13.558594 Z M 4.796875 13.558594 " fill-opacity="1" fill-rule="nonzero"/><path fill="#925f3d" d="M 10.253906 27.992188 C 10.382812 27.992188 10.492188 27.886719 10.492188 27.753906 L 10.492188 26.804688 C 10.492188 26.675781 10.382812 26.570312 10.253906 26.570312 C 10.125 26.570312 10.015625 26.675781 10.015625 26.804688 L 10.015625 27.753906 C 10.015625 27.886719 10.125 27.992188 10.253906 27.992188 Z M 10.253906 27.992188 " fill-opacity="1" fill-rule="nonzero"/><path fill="#925f3d" d="M 10.964844 26.570312 C 10.835938 26.570312 10.726562 26.675781 10.726562 26.804688 L 10.726562 27.753906 C 10.726562 27.886719 10.835938 27.992188 10.964844 27.992188 C 11.097656 27.992188 11.203125 27.886719 11.203125 27.753906 L 11.203125 26.804688 C 11.203125 26.675781 11.097656 26.570312 10.964844 26.570312 Z M 10.964844 26.570312 " fill-opacity="1" fill-rule="nonzero"/><path fill="#925f3d" d="M 11.675781 26.570312 C 11.546875 26.570312 11.441406 26.675781 11.441406 26.804688 L 11.441406 27.753906 C 11.441406 27.886719 11.546875 27.992188 11.675781 27.992188 C 11.808594 27.992188 11.914062 27.886719 11.914062 27.753906 L 11.914062 26.804688 C 11.914062 26.675781 11.808594 26.570312 11.675781 26.570312 Z M 11.675781 26.570312 " fill-opacity="1" fill-rule="nonzero"/><path fill="#925f3d" d="M 12.390625 26.570312 C 12.257812 26.570312 12.152344 26.675781 12.152344 26.804688 L 12.152344 27.753906 C 12.152344 27.886719 12.257812 27.992188 12.390625 27.992188 C 12.519531 27.992188 12.625 27.886719 12.625 27.753906 L 12.625 26.804688 C 12.625 26.675781 12.519531 26.570312 12.390625 26.570312 Z M 12.390625 26.570312 " fill-opacity="1" fill-rule="nonzero"/><path fill="#925f3d" d="M 13.8125 26.570312 C 13.679688 26.570312 13.574219 26.675781 13.574219 26.804688 L 13.574219 27.753906 C 13.574219 27.886719 13.679688 27.992188 13.8125 27.992188 C 13.941406 27.992188 14.050781 27.886719 14.050781 27.753906 L 14.050781 26.804688 C 14.050781 26.675781 13.941406 26.570312 13.8125 26.570312 Z M 13.8125 26.570312 " fill-opacity="1" fill-rule="nonzero"/><path fill="#925f3d" d="M 14.523438 26.570312 C 14.394531 26.570312 14.285156 26.675781 14.285156 26.804688 L 14.285156 27.753906 C 14.285156 27.886719 14.394531 27.992188 14.523438 27.992188 C 14.652344 27.992188 14.761719 27.886719 14.761719 27.753906 L 14.761719 26.804688 C 14.761719 26.675781 14.652344 26.570312 14.523438 26.570312 Z M 14.523438 26.570312 " fill-opacity="1" fill-rule="nonzero"/><path fill="#925f3d" d="M 15.234375 27.992188 C 15.367188 27.992188 15.472656 27.886719 15.472656 27.753906 L 15.472656 26.804688 C 15.472656 26.675781 15.367188 26.570312 15.234375 26.570312 C 15.105469 26.570312 15 26.675781 15 26.804688 L 15 27.753906 C 15 27.886719 15.105469 27.992188 15.234375 27.992188 Z M 15.234375 27.992188 " fill-opacity="1" fill-rule="nonzero"/><path fill="#925f3d" d="M 15.945312 27.992188 C 16.078125 27.992188 16.183594 27.886719 16.183594 27.753906 L 16.183594 26.804688 C 16.183594 26.675781 16.078125 26.570312 15.945312 26.570312 C 15.816406 26.570312 15.710938 26.675781 15.710938 26.804688 L 15.710938 27.753906 C 15.710938 27.886719 15.816406 27.992188 15.945312 27.992188 Z M 15.945312 27.992188 " fill-opacity="1" fill-rule="nonzero"/><path fill="#925f3d" d="M 17.371094 27.992188 C 17.5 27.992188 17.609375 27.886719 17.609375 27.753906 L 17.609375 26.804688 C 17.609375 26.675781 17.5 26.570312 17.371094 26.570312 C 17.238281 26.570312 17.132812 26.675781 17.132812 26.804688 L 17.132812 27.753906 C 17.132812 27.886719 17.238281 27.992188 17.371094 27.992188 Z M 17.371094 27.992188 " fill-opacity="1" fill-rule="nonzero"/><path fill="#925f3d" d="M 18.082031 27.992188 C 18.210938 27.992188 18.320312 27.886719 18.320312 27.753906 L 18.320312 26.804688 C 18.320312 26.675781 18.210938 26.570312 18.082031 26.570312 C 17.953125 26.570312 17.84375 26.675781 17.84375 26.804688 L 17.84375 27.753906 C 17.84375 27.886719 17.953125 27.992188 18.082031 27.992188 Z M 18.082031 27.992188 " fill-opacity="1" fill-rule="nonzero"/><path fill="#925f3d" d="M 18.792969 26.570312 C 18.664062 26.570312 18.554688 26.675781 18.554688 26.804688 L 18.554688 27.753906 C 18.554688 27.886719 18.664062 27.992188 18.792969 27.992188 C 18.925781 27.992188 19.03125 27.886719 19.03125 27.753906 L 19.03125 26.804688 C 19.03125 26.675781 18.925781 26.570312 18.792969 26.570312 Z M 18.792969 26.570312 " fill-opacity="1" fill-rule="nonzero"/><path fill="#925f3d" d="M 19.503906 26.570312 C 19.375 26.570312 19.269531 26.675781 19.269531 26.804688 L 19.269531 27.753906 C 19.269531 27.886719 19.375 27.992188 19.503906 27.992188 C 19.636719 27.992188 19.742188 27.886719 19.742188 27.753906 L 19.742188 26.804688 C 19.742188 26.675781 19.636719 26.570312 19.503906 26.570312 Z M 19.503906 26.570312 " fill-opacity="1" fill-rule="nonzero"/><path fill="#925f3d" d="M 10.726562 26.09375 L 12.625 26.09375 C 12.757812 26.09375 12.863281 25.988281 12.863281 25.859375 L 12.863281 24.398438 C 12.863281 24.269531 12.757812 24.160156 12.625 24.160156 L 10.726562 24.160156 C 10.597656 24.160156 10.492188 24.269531 10.492188 24.398438 L 10.492188 25.859375 C 10.492188 25.988281 10.597656 26.09375 10.726562 26.09375 Z M 11.914062 25.621094 L 11.914062 25.382812 L 12.390625 25.382812 L 12.390625 25.621094 Z M 12.390625 24.910156 L 11.914062 24.910156 L 11.914062 24.636719 L 12.390625 24.636719 Z M 10.964844 24.636719 L 11.441406 24.636719 L 11.441406 25.621094 L 10.964844 25.621094 Z M 10.964844 24.636719 " fill-opacity="1" fill-rule="nonzero"/><path fill="#925f3d" d="M 19.03125 24.195312 C 19.554688 24.195312 19.980469 23.769531 19.980469 23.25 C 19.980469 22.726562 19.554688 22.300781 19.03125 22.300781 C 18.507812 22.300781 18.082031 22.726562 18.082031 23.25 C 18.082031 23.769531 18.507812 24.195312 19.03125 24.195312 Z M 19.03125 22.773438 C 19.292969 22.773438 19.503906 22.988281 19.503906 23.25 C 19.503906 23.507812 19.292969 23.722656 19.03125 23.722656 C 18.769531 23.722656 18.554688 23.507812 18.554688 23.25 C 18.554688 22.988281 18.769531 22.773438 19.03125 22.773438 Z M 19.03125 22.773438 " fill-opacity="1" fill-rule="nonzero"/><path fill="#925f3d" d="M 10.988281 23.59375 C 11.03125 23.675781 11.113281 23.722656 11.203125 23.722656 L 14.523438 23.722656 C 14.605469 23.722656 14.683594 23.679688 14.726562 23.609375 C 14.765625 23.539062 14.773438 23.449219 14.738281 23.378906 L 14.261719 22.429688 C 14.222656 22.347656 14.136719 22.300781 14.050781 22.300781 L 10.726562 22.300781 C 10.644531 22.300781 10.566406 22.339844 10.527344 22.410156 C 10.484375 22.484375 10.480469 22.570312 10.515625 22.644531 Z M 13.902344 22.773438 L 14.136719 23.25 L 11.34375 23.25 L 11.109375 22.773438 Z M 13.902344 22.773438 " fill-opacity="1" fill-rule="nonzero"/><path fill="#925f3d" d="M 15 1.898438 C 13.558594 1.898438 12.390625 3.066406 12.390625 4.507812 C 12.390625 5.195312 12.65625 5.839844 13.136719 6.332031 C 13.628906 6.839844 14.292969 7.117188 15 7.117188 C 15.703125 7.117188 16.367188 6.839844 16.859375 6.332031 C 17.339844 5.839844 17.609375 5.195312 17.609375 4.507812 C 17.609375 3.066406 16.4375 1.898438 15 1.898438 Z M 13.8125 6.28125 L 13.8125 5.355469 C 13.8125 5.015625 14.085938 4.746094 14.421875 4.746094 L 15.574219 4.746094 C 15.910156 4.746094 16.183594 5.015625 16.183594 5.355469 L 16.183594 6.28125 C 15.835938 6.511719 15.425781 6.640625 15 6.640625 C 14.570312 6.640625 14.160156 6.519531 13.8125 6.28125 Z M 14.761719 4.03125 L 14.761719 3.558594 C 14.761719 3.429688 14.867188 3.320312 15 3.320312 C 15.128906 3.320312 15.234375 3.429688 15.234375 3.558594 L 15.234375 4.03125 C 15.234375 4.164062 15.128906 4.269531 15 4.269531 C 14.867188 4.269531 14.761719 4.164062 14.761719 4.03125 Z M 16.660156 5.847656 L 16.660156 5.355469 C 16.660156 4.785156 16.21875 4.324219 15.667969 4.277344 C 15.699219 4.199219 15.710938 4.121094 15.710938 4.03125 L 15.710938 3.558594 C 15.710938 3.167969 15.390625 2.847656 15 2.847656 C 14.605469 2.847656 14.285156 3.167969 14.285156 3.558594 L 14.285156 4.03125 C 14.285156 4.117188 14.304688 4.199219 14.328125 4.277344 C 13.769531 4.324219 13.335938 4.792969 13.335938 5.355469 L 13.335938 5.847656 C 13.027344 5.46875 12.863281 5 12.863281 4.507812 C 12.863281 3.328125 13.816406 2.371094 15 2.371094 C 16.179688 2.371094 17.132812 3.328125 17.132812 4.507812 C 17.132812 5 16.96875 5.46875 16.660156 5.847656 Z M 16.660156 5.847656 " fill-opacity="1" fill-rule="nonzero"/><path fill="#925f3d" d="M 21.640625 2.847656 C 20.726562 2.847656 19.980469 2.097656 19.980469 1.1875 C 19.980469 1.054688 19.875 0.949219 19.742188 0.949219 L 10.253906 0.949219 C 10.125 0.949219 10.015625 1.054688 10.015625 1.1875 C 10.015625 2.097656 9.269531 2.847656 8.355469 2.847656 C 8.226562 2.847656 8.117188 2.953125 8.117188 3.082031 L 8.117188 5.929688 C 8.117188 6.0625 8.226562 6.167969 8.355469 6.167969 C 9.269531 6.167969 10.015625 6.914062 10.015625 7.828125 C 10.015625 7.957031 10.125 8.066406 10.253906 8.066406 L 19.742188 8.066406 C 19.875 8.066406 19.980469 7.957031 19.980469 7.828125 C 19.980469 6.914062 20.726562 6.167969 21.640625 6.167969 C 21.769531 6.167969 21.878906 6.0625 21.878906 5.929688 L 21.878906 3.082031 C 21.878906 2.953125 21.769531 2.847656 21.640625 2.847656 Z M 21.402344 5.707031 C 20.414062 5.816406 19.628906 6.601562 19.515625 7.589844 L 10.480469 7.589844 C 10.367188 6.601562 9.582031 5.816406 8.59375 5.707031 L 8.59375 3.308594 C 9.582031 3.195312 10.367188 2.414062 10.480469 1.421875 L 19.515625 1.421875 C 19.628906 2.414062 20.414062 3.195312 21.402344 3.308594 Z M 21.402344 5.707031 " fill-opacity="1" fill-rule="nonzero"/><path fill="#925f3d" d="M 11.675781 3.796875 L 9.304688 3.796875 C 9.175781 3.796875 9.066406 3.902344 9.066406 4.03125 C 9.066406 4.164062 9.175781 4.269531 9.304688 4.269531 L 11.675781 4.269531 C 11.808594 4.269531 11.914062 4.164062 11.914062 4.03125 C 11.914062 3.902344 11.808594 3.796875 11.675781 3.796875 Z M 11.675781 3.796875 " fill-opacity="1" fill-rule="nonzero"/><path fill="#925f3d" d="M 11.675781 4.746094 L 9.304688 4.746094 C 9.175781 4.746094 9.066406 4.851562 9.066406 4.980469 C 9.066406 5.113281 9.175781 5.21875 9.304688 5.21875 L 11.675781 5.21875 C 11.808594 5.21875 11.914062 5.113281 11.914062 4.980469 C 11.914062 4.851562 11.808594 4.746094 11.675781 4.746094 Z M 11.675781 4.746094 " fill-opacity="1" fill-rule="nonzero"/><path fill="#925f3d" d="M 18.082031 4.03125 C 18.082031 4.164062 18.1875 4.269531 18.320312 4.269531 L 20.691406 4.269531 C 20.820312 4.269531 20.929688 4.164062 20.929688 4.03125 C 20.929688 3.902344 20.820312 3.796875 20.691406 3.796875 L 18.320312 3.796875 C 18.1875 3.796875 18.082031 3.902344 18.082031 4.03125 Z M 18.082031 4.03125 " fill-opacity="1" fill-rule="nonzero"/><path fill="#925f3d" d="M 20.691406 4.746094 L 18.320312 4.746094 C 18.1875 4.746094 18.082031 4.851562 18.082031 4.980469 C 18.082031 5.113281 18.1875 5.21875 18.320312 5.21875 L 20.691406 5.21875 C 20.820312 5.21875 20.929688 5.113281 20.929688 4.980469 C 20.929688 4.851562 20.820312 4.746094 20.691406 4.746094 Z M 20.691406 4.746094 " fill-opacity="1" fill-rule="nonzero"/><path fill="#925f3d" d="M 28.28125 9.488281 L 24.171875 9.488281 C 24.148438 9.453125 24.132812 9.417969 24.109375 9.382812 C 24.035156 9.269531 23.894531 9.234375 23.78125 9.304688 C 23.710938 9.347656 23.675781 9.417969 23.667969 9.496094 L 22.113281 9.496094 C 21.722656 9.496094 21.402344 9.816406 21.402344 10.207031 L 21.402344 20.171875 C 21.402344 20.5625 21.722656 20.882812 22.113281 20.882812 L 23.449219 20.882812 C 23.46875 20.917969 23.492188 20.945312 23.527344 20.972656 C 23.566406 21 23.617188 21.011719 23.65625 21.011719 C 23.734375 21.011719 23.8125 20.976562 23.851562 20.90625 C 23.859375 20.898438 23.863281 20.886719 23.871094 20.882812 L 28.28125 20.882812 C 28.675781 20.882812 28.996094 20.5625 28.996094 20.171875 L 28.996094 10.199219 C 28.996094 9.808594 28.675781 9.488281 28.28125 9.488281 Z M 28.519531 20.164062 C 28.519531 20.292969 28.414062 20.402344 28.28125 20.402344 L 22.113281 20.402344 C 21.984375 20.402344 21.878906 20.292969 21.878906 20.164062 L 21.878906 10.199219 C 21.878906 10.070312 21.984375 9.964844 22.113281 9.964844 L 28.28125 9.964844 C 28.414062 9.964844 28.519531 10.070312 28.519531 10.199219 Z M 28.519531 20.164062 " fill-opacity="1" fill-rule="nonzero"/><path fill="#925f3d" d="M 27.808594 10.4375 L 22.589844 10.4375 C 22.457031 10.4375 22.351562 10.542969 22.351562 10.675781 L 22.351562 19.691406 C 22.351562 19.820312 22.457031 19.925781 22.589844 19.925781 L 27.808594 19.925781 C 27.9375 19.925781 28.046875 19.820312 28.046875 19.691406 L 28.046875 10.675781 C 28.046875 10.542969 27.9375 10.4375 27.808594 10.4375 Z M 27.570312 19.453125 L 22.828125 19.453125 L 22.828125 10.914062 L 27.570312 10.914062 Z M 27.570312 19.453125 " fill-opacity="1" fill-rule="nonzero"/><path fill="#925f3d" d="M 23.539062 17.316406 L 26.386719 17.316406 C 26.777344 17.316406 27.097656 16.996094 27.097656 16.605469 L 27.097656 13.757812 C 27.097656 13.367188 26.777344 13.046875 26.386719 13.046875 L 23.539062 13.046875 C 23.40625 13.046875 23.300781 13.152344 23.300781 13.285156 L 23.300781 17.082031 C 23.300781 17.210938 23.40625 17.316406 23.539062 17.316406 Z M 26.621094 15.417969 L 26.148438 15.417969 C 26.015625 15.417969 25.910156 15.3125 25.910156 15.183594 C 25.910156 15.050781 26.015625 14.945312 26.148438 14.945312 L 26.621094 14.945312 Z M 23.777344 13.523438 L 26.386719 13.523438 C 26.515625 13.523438 26.621094 13.628906 26.621094 13.757812 L 26.621094 14.472656 L 26.148438 14.472656 C 25.757812 14.472656 25.4375 14.792969 25.4375 15.183594 C 25.4375 15.574219 25.757812 15.894531 26.148438 15.894531 L 26.621094 15.894531 L 26.621094 16.605469 C 26.621094 16.734375 26.515625 16.84375 26.386719 16.84375 L 23.777344 16.84375 Z M 23.777344 13.523438 " fill-opacity="1" fill-rule="nonzero"/><path fill="#925f3d" d="M 18.078125 10.4375 C 17.441406 10.003906 16.734375 9.714844 15.984375 9.578125 C 14.605469 9.328125 13.148438 9.625 11.984375 10.402344 C 11.898438 10.460938 11.808594 10.527344 11.722656 10.585938 C 11.25 10.941406 10.835938 11.375 10.496094 11.875 C 9.863281 12.804688 9.53125 13.890625 9.546875 15.015625 C 9.558594 16.113281 9.898438 17.167969 10.527344 18.070312 C 10.550781 18.101562 10.566406 18.136719 10.589844 18.164062 C 10.960938 18.667969 11.410156 19.109375 11.925781 19.457031 C 12.863281 20.097656 13.9375 20.40625 15 20.40625 C 16.636719 20.40625 18.25 19.679688 19.316406 18.296875 C 19.382812 18.207031 19.445312 18.117188 19.511719 18.027344 C 20.328125 16.824219 20.636719 15.371094 20.367188 13.941406 C 20.085938 12.5 19.28125 11.261719 18.078125 10.4375 Z M 10.859375 17.714844 C 9.738281 16.035156 9.742188 13.804688 10.886719 12.140625 C 11.167969 11.738281 11.5 11.375 11.871094 11.074219 L 12.425781 11.441406 L 12.15625 12.371094 C 12.128906 12.472656 12.167969 12.574219 12.253906 12.632812 L 13.324219 13.363281 L 13.011719 16.261719 C 13 16.351562 13.042969 16.433594 13.113281 16.480469 L 14.214844 17.234375 L 13.140625 18.324219 L 12.855469 18.128906 C 12.832031 18.113281 12.796875 18.101562 12.769531 18.09375 Z M 12.191406 19.0625 C 11.867188 18.835938 11.570312 18.574219 11.304688 18.285156 L 12.625 18.546875 L 13.027344 18.824219 C 13.070312 18.851562 13.117188 18.867188 13.164062 18.867188 C 13.226562 18.867188 13.289062 18.839844 13.332031 18.792969 L 14.742188 17.363281 C 14.789062 17.316406 14.8125 17.246094 14.808594 17.175781 C 14.800781 17.105469 14.765625 17.042969 14.707031 17.003906 L 13.484375 16.171875 L 13.800781 13.273438 C 13.8125 13.183594 13.769531 13.101562 13.699219 13.054688 L 12.648438 12.335938 L 12.917969 11.40625 C 12.945312 11.304688 12.90625 11.195312 12.820312 11.144531 L 12.277344 10.777344 C 13.089844 10.25 14.042969 9.96875 15.011719 9.96875 C 15.085938 9.96875 15.164062 9.96875 15.242188 9.976562 L 14.683594 10.332031 C 14.589844 10.390625 14.535156 10.492188 14.535156 10.605469 C 14.535156 10.714844 14.589844 10.816406 14.679688 10.875 L 15.984375 11.765625 L 16.316406 12.929688 L 16 13.386719 C 15.933594 13.484375 15.921875 13.609375 15.976562 13.71875 L 16.769531 15.308594 C 16.796875 15.355469 16.832031 15.394531 16.878906 15.429688 L 17.976562 16.183594 L 17.152344 17.144531 C 17.089844 17.214844 17.0625 17.3125 17.074219 17.402344 C 17.085938 17.488281 17.140625 17.574219 17.214844 17.625 L 18.011719 18.164062 C 18.050781 18.1875 18.09375 18.214844 18.140625 18.21875 L 18.675781 18.3125 C 17.019531 20.117188 14.25 20.464844 12.191406 19.0625 Z M 19.113281 17.75 C 19.085938 17.792969 19.054688 17.839844 19.019531 17.882812 L 18.25 17.746094 L 17.621094 17.3125 L 18.445312 16.351562 C 18.503906 16.28125 18.53125 16.183594 18.519531 16.097656 C 18.507812 16.007812 18.457031 15.921875 18.378906 15.871094 L 17.175781 15.046875 L 16.433594 13.582031 L 16.734375 13.136719 C 16.789062 13.054688 16.808594 12.957031 16.777344 12.863281 L 16.414062 11.582031 C 16.390625 11.511719 16.351562 11.445312 16.285156 11.40625 L 15.121094 10.609375 L 15.976562 10.0625 C 16.628906 10.195312 17.246094 10.449219 17.804688 10.835938 C 18.902344 11.582031 19.640625 12.714844 19.890625 14.027344 C 20.140625 15.332031 19.863281 16.652344 19.113281 17.75 Z M 19.113281 17.75 " fill-opacity="1" fill-rule="nonzero"/><path fill="#925f3d" d="M 15.527344 12.070312 L 14.578125 11.855469 C 14.46875 11.832031 14.363281 11.886719 14.316406 11.980469 L 14.042969 12.527344 C 14.015625 12.589844 14.007812 12.660156 14.039062 12.726562 C 14.066406 12.792969 14.125 12.839844 14.191406 12.859375 L 14.773438 13.011719 L 15.105469 13.378906 C 15.152344 13.433594 15.21875 13.457031 15.28125 13.457031 C 15.300781 13.457031 15.324219 13.457031 15.34375 13.449219 C 15.429688 13.425781 15.496094 13.355469 15.515625 13.273438 L 15.710938 12.347656 C 15.734375 12.222656 15.652344 12.097656 15.527344 12.070312 Z M 15.140625 12.722656 L 15.074219 12.644531 C 15.046875 12.609375 15.003906 12.585938 14.957031 12.574219 L 14.589844 12.476562 L 14.648438 12.359375 L 15.1875 12.476562 Z M 15.140625 12.722656 " fill-opacity="1" fill-rule="nonzero"/></svg>