<svg xmlns="http://www.w3.org/2000/svg" xmlns:xlink="http://www.w3.org/1999/xlink" width="40" zoomAndPan="magnify" viewBox="0 0 30 30.000001" height="40" preserveAspectRatio="xMidYMid meet" version="1.0"><defs><clipPath id="1c8e2c8c21"><path d="M 0.484375 0 L 29.515625 0 L 29.515625 29.03125 L 0.484375 29.03125 Z M 0.484375 0 " clip-rule="nonzero"/></clipPath><clipPath id="3b032a09a5"><path d="M 1.265625 0 L 29.515625 0 L 29.515625 29.03125 L 1.265625 29.03125 Z M 1.265625 0 " clip-rule="nonzero"/></clipPath></defs><g clip-path="url(#1c8e2c8c21)"><path fill="#ffffff" d="M 0.484375 0 L 29.515625 0 L 29.515625 29.03125 L 0.484375 29.03125 Z M 0.484375 0 " fill-opacity="1" fill-rule="nonzero"/><path fill="#ffffff" d="M 0.484375 0 L 29.515625 0 L 29.515625 29.03125 L 0.484375 29.03125 Z M 0.484375 0 " fill-opacity="1" fill-rule="nonzero"/></g><g clip-path="url(#3b032a09a5)"><path fill="#925f3d" d="M 19.667969 11.949219 L 20.464844 11.949219 C 20.558594 12.324219 20.707031 12.667969 20.894531 12.988281 L 20.335938 13.550781 C 20.238281 13.648438 20.238281 13.808594 20.335938 13.90625 L 21.320312 14.894531 C 21.417969 14.992188 21.578125 14.992188 21.675781 14.894531 L 22.238281 14.332031 C 22.558594 14.519531 22.910156 14.667969 23.277344 14.761719 L 23.277344 15.558594 C 23.277344 15.695312 23.390625 15.8125 23.53125 15.8125 L 24.921875 15.8125 C 25.0625 15.8125 25.175781 15.703125 25.175781 15.558594 L 25.175781 14.761719 C 25.550781 14.667969 25.894531 14.519531 26.214844 14.332031 L 26.777344 14.894531 C 26.875 14.992188 27.035156 14.992188 27.132812 14.894531 L 28.117188 13.90625 C 28.214844 13.808594 28.214844 13.648438 28.117188 13.550781 L 27.558594 12.988281 C 27.746094 12.667969 27.894531 12.316406 27.988281 11.949219 L 28.785156 11.949219 C 28.921875 11.949219 29.035156 11.835938 29.035156 11.699219 L 29.035156 10.304688 C 29.035156 10.164062 28.921875 10.050781 28.785156 10.050781 L 27.988281 10.050781 C 27.894531 9.683594 27.746094 9.332031 27.558594 9.011719 L 28.117188 8.449219 C 28.214844 8.351562 28.214844 8.191406 28.117188 8.09375 L 27.132812 7.109375 C 27.035156 7.011719 26.875 7.011719 26.777344 7.109375 L 26.214844 7.671875 C 25.894531 7.480469 25.550781 7.332031 25.175781 7.238281 L 25.175781 6.441406 C 25.175781 6.304688 25.0625 6.191406 24.921875 6.191406 L 23.53125 6.191406 C 23.390625 6.191406 23.277344 6.304688 23.277344 6.441406 L 23.277344 7.238281 C 22.910156 7.332031 22.558594 7.480469 22.238281 7.671875 L 21.675781 7.109375 C 21.578125 7.011719 21.417969 7.011719 21.320312 7.109375 L 20.335938 8.09375 C 20.238281 8.191406 20.238281 8.351562 20.335938 8.449219 L 20.894531 9.011719 C 20.707031 9.332031 20.558594 9.683594 20.464844 10.050781 L 19.667969 10.050781 C 19.53125 10.050781 19.417969 10.164062 19.417969 10.304688 L 19.417969 11.699219 C 19.417969 11.839844 19.53125 11.949219 19.667969 11.949219 Z M 24.222656 8.65625 C 25.519531 8.65625 26.5625 9.707031 26.5625 10.996094 C 26.457031 14.09375 21.988281 14.09375 21.878906 10.996094 C 21.882812 9.707031 22.933594 8.65625 24.222656 8.65625 Z M 5.589844 9.964844 L 5.15625 9.964844 L 5.15625 9.660156 C 5.230469 9.710938 5.503906 9.953125 5.589844 9.964844 Z M 27.683594 19.035156 L 23.085938 19.035156 L 23.191406 18.410156 L 27.441406 18.410156 C 27.644531 18.410156 27.761719 18.5625 27.730469 18.757812 C 27.730469 18.757812 27.683594 19.035156 27.683594 19.035156 Z M 5.359375 25.375 L 4.667969 25.375 L 4.753906 24.824219 L 6.078125 24.824219 C 5.984375 25.128906 5.671875 25.375 5.359375 25.375 Z M 3.609375 27.449219 L 6.429688 27.449219 C 6.347656 27.640625 6.300781 27.824219 6.261719 28.019531 L 3.519531 28.019531 Z M 10.304688 27.246094 C 9.554688 25.402344 6.851562 26.640625 6.847656 28.347656 C 6.800781 29.183594 7.445312 29.84375 8.28125 29.824219 C 9.519531 29.84375 10.71875 28.496094 10.304688 27.246094 Z M 9.394531 28.121094 L 9.382812 28.164062 L 9.085938 28.074219 L 9.375 28.183594 C 9.171875 29.113281 7.707031 29.0625 7.851562 28.011719 C 8.027344 27.0625 9.496094 27.0625 9.394531 28.121094 Z M 10.996094 27.449219 L 22.285156 27.449219 C 22.210938 27.632812 22.160156 27.824219 22.117188 28.019531 L 11 28.019531 C 11.015625 27.828125 11.015625 27.640625 10.996094 27.449219 Z M 26.167969 27.246094 C 25.675781 25.882812 23.742188 26.195312 23.066406 27.3125 L 23.058594 27.3125 C 22.324219 28.3125 22.777344 29.847656 24.144531 29.824219 C 25.371094 29.847656 26.585938 28.476562 26.167969 27.246094 Z M 25.25 28.128906 C 25.101562 29.050781 23.65625 29.132812 23.703125 28.082031 C 23.800781 27.078125 25.359375 27.019531 25.25 28.128906 Z M 29.5 27.449219 L 29.410156 28.019531 L 26.855469 28.019531 C 26.875 27.828125 26.867188 27.640625 26.851562 27.449219 Z M 27.539062 23.886719 L 29.019531 23.886719 L 28.933594 24.445312 L 27.976562 24.445312 C 27.664062 24.4375 27.464844 24.203125 27.539062 23.886719 Z M 28.832031 25.0625 L 27.976562 25.0625 C 27.644531 25.0625 27.351562 24.933594 27.148438 24.691406 C 26.742188 24.265625 26.816406 23.273438 27.539062 23.261719 C 27.539062 23.261719 29.058594 23.261719 29.058594 23.261719 C 28.996094 22.902344 28.691406 22.671875 28.3125 22.671875 C 28.3125 22.671875 22.503906 22.671875 22.503906 22.671875 L 22.449219 22.980469 L 21.824219 26.824219 L 22.644531 26.824219 C 23.585938 25.496094 25.859375 25.230469 26.667969 26.824219 L 28.542969 26.824219 Z M 24.523438 24.15625 L 23.476562 24.15625 C 23.070312 24.152344 23.070312 23.542969 23.476562 23.53125 C 23.476562 23.53125 24.523438 23.53125 24.523438 23.53125 C 24.929688 23.542969 24.929688 24.152344 24.523438 24.15625 Z M 22.992188 19.660156 L 24.050781 19.660156 C 23.953125 20.257812 23.757812 21.457031 23.660156 22.050781 L 22.601562 22.050781 Z M 27.964844 22.050781 L 24.292969 22.050781 C 24.390625 21.457031 24.585938 20.257812 24.675781 19.660156 L 27.671875 19.660156 Z M 21.199219 26.824219 L 10.804688 26.824219 C 9.894531 25.183594 7.832031 25.539062 6.753906 26.8125 C 5.980469 26.847656 5.199219 26.8125 4.425781 26.824219 C 4.472656 26.542969 4.519531 26.269531 4.5625 25.988281 C 5.015625 26.015625 5.488281 26.046875 5.90625 25.863281 C 6.558594 25.644531 7.203125 24.308594 6.167969 24.199219 C 6.167969 24.199219 4.851562 24.199219 4.851562 24.199219 L 5.578125 19.742188 L 5.964844 17.347656 C 5.976562 17.289062 6.003906 17.238281 6.042969 17.191406 C 6.105469 17.125 6.1875 17.078125 6.273438 17.078125 C 6.273438 17.078125 18.121094 17.078125 18.121094 17.074219 L 22.617188 17.074219 C 22.71875 17.074219 22.773438 17.148438 22.75 17.246094 C 22.691406 17.59375 22.421875 19.269531 22.359375 19.65625 C 22.015625 21.777344 21.539062 24.703125 21.199219 26.824219 Z M 5.664062 16.6875 C 5.832031 16.546875 6.042969 16.460938 6.265625 16.460938 L 15.84375 16.460938 L 15.84375 5.230469 L 2.921875 5.230469 L 2.921875 24.175781 L 4.226562 24.175781 L 5.34375 17.257812 C 5.382812 17.03125 5.503906 16.832031 5.664062 16.6875 Z M 9.019531 8.335938 L 11.671875 8.335938 C 12.078125 8.335938 12.078125 8.957031 11.671875 8.960938 C 11.671875 8.960938 9.019531 8.960938 9.019531 8.960938 C 8.613281 8.949219 8.613281 8.339844 9.019531 8.335938 Z M 9.019531 9.769531 L 14.453125 9.769531 C 14.625 9.769531 14.761719 9.90625 14.761719 10.078125 C 14.761719 10.25 14.625 10.390625 14.453125 10.390625 L 9.019531 10.390625 C 8.613281 10.382812 8.613281 9.777344 9.019531 9.769531 Z M 9.019531 12.023438 L 11.671875 12.023438 C 12.078125 12.023438 12.078125 12.644531 11.671875 12.648438 C 11.671875 12.648438 9.019531 12.648438 9.019531 12.648438 C 8.613281 12.636719 8.613281 12.03125 9.019531 12.023438 Z M 9.019531 13.453125 L 14.453125 13.453125 C 14.625 13.453125 14.761719 13.589844 14.761719 13.761719 C 14.761719 13.933594 14.625 14.074219 14.453125 14.074219 L 9.019531 14.074219 C 8.613281 14.066406 8.613281 13.457031 9.019531 13.453125 Z M 4.066406 8.433594 C 4.207031 8.242188 4.441406 8.300781 4.59375 8.449219 C 4.683594 8.265625 4.875 8.140625 5.089844 8.140625 L 6.410156 8.140625 C 6.53125 8.140625 6.640625 8.179688 6.730469 8.238281 L 7.855469 7.175781 C 8.15625 6.894531 8.585938 7.347656 8.28125 7.628906 C 8.28125 7.628906 6.972656 8.863281 6.972656 8.863281 L 6.972656 10.023438 C 6.972656 10.332031 6.71875 10.589844 6.410156 10.589844 L 5.089844 10.589844 C 4.78125 10.589844 4.523438 10.335938 4.523438 10.023438 L 4.523438 9.179688 C 4.324219 8.996094 3.8125 8.789062 4.066406 8.433594 Z M 4.527344 13.710938 L 4.527344 12.78125 L 4.121094 12.464844 C 3.800781 12.21875 4.179688 11.726562 4.5 11.972656 C 4.5 11.972656 4.625 12.070312 4.625 12.070312 C 4.730469 11.921875 4.902344 11.824219 5.089844 11.824219 C 5.390625 11.847656 6.519531 11.761719 6.675781 11.890625 L 7.863281 10.78125 C 8.160156 10.5 8.589844 10.953125 8.285156 11.234375 C 8.285156 11.234375 6.980469 12.464844 6.980469 12.464844 L 6.980469 13.710938 C 6.980469 14.019531 6.726562 14.273438 6.417969 14.273438 L 5.097656 14.273438 C 4.789062 14.273438 4.527344 14.019531 4.527344 13.710938 Z M 5.652344 9.257812 L 5.15625 8.875 L 5.15625 8.761719 L 6.1875 8.761719 Z M 5.890625 9.894531 L 6.359375 9.449219 L 6.359375 9.964844 L 5.746094 9.964844 C 5.796875 9.953125 5.847656 9.929688 5.890625 9.894531 Z M 5.890625 13.492188 L 6.359375 13.046875 L 6.359375 13.648438 L 5.15625 13.648438 L 5.15625 13.257812 C 5.355469 13.402344 5.636719 13.734375 5.890625 13.492188 Z M 5.652344 12.863281 L 5.15625 12.476562 L 5.15625 12.441406 L 6.089844 12.441406 Z M 15.921875 4.605469 L 13.316406 4.605469 L 13.316406 3.585938 L 17.105469 3.585938 C 17.316406 3.585938 17.496094 3.757812 17.496094 3.976562 L 17.496094 16.460938 L 16.46875 16.460938 L 16.46875 5.15625 C 16.46875 4.851562 16.222656 4.605469 15.921875 4.605469 Z M 12.691406 4.605469 L 6.074219 4.605469 L 6.074219 2.472656 C 6.074219 2.351562 6.167969 2.25 6.296875 2.25 L 7.53125 2.25 C 7.832031 0.00390625 10.9375 0 11.234375 2.25 L 12.46875 2.25 C 12.59375 2.25 12.691406 2.347656 12.691406 2.472656 Z M 3.960938 25.820312 L 1.667969 25.820312 C 1.453125 25.820312 1.277344 25.648438 1.277344 25.4375 L 1.277344 3.976562 C 1.277344 3.761719 1.449219 3.585938 1.667969 3.585938 L 5.453125 3.585938 L 5.453125 4.613281 L 2.84375 4.613281 C 2.542969 4.613281 2.296875 4.851562 2.296875 5.15625 L 2.296875 24.253906 C 2.296875 24.554688 2.542969 24.800781 2.84375 24.800781 L 4.128906 24.800781 Z M 3.960938 25.820312 " fill-opacity="1" fill-rule="nonzero"/></g></svg>