<svg xmlns="http://www.w3.org/2000/svg" xmlns:xlink="http://www.w3.org/1999/xlink" width="40" zoomAndPan="magnify" viewBox="0 0 30 30.000001" height="40" preserveAspectRatio="xMidYMid meet" version="1.0"><defs><clipPath id="87285a65f6"><path d="M 0.484375 0 L 29.515625 0 L 29.515625 29.03125 L 0.484375 29.03125 Z M 0.484375 0 " clip-rule="nonzero"/></clipPath><clipPath id="da108295f4"><path d="M 3 0.453125 L 20 0.453125 L 20 16 L 3 16 Z M 3 0.453125 " clip-rule="nonzero"/></clipPath><clipPath id="184f87994c"><path d="M 0.484375 6 L 29.515625 6 L 29.515625 28.761719 L 0.484375 28.761719 Z M 0.484375 6 " clip-rule="nonzero"/></clipPath></defs><g clip-path="url(#87285a65f6)"><path fill="#ffffff" d="M 0.484375 0 L 29.515625 0 L 29.515625 29.03125 L 0.484375 29.03125 Z M 0.484375 0 " fill-opacity="1" fill-rule="nonzero"/><path fill="#ffffff" d="M 0.484375 0 L 29.515625 0 L 29.515625 29.03125 L 0.484375 29.03125 Z M 0.484375 0 " fill-opacity="1" fill-rule="nonzero"/></g><g clip-path="url(#da108295f4)"><path fill="#925f3d" d="M 17.746094 2.175781 C 16.746094 1.089844 15.363281 0.453125 13.910156 0.453125 C 12.617188 0.453125 11.371094 0.953125 10.417969 1.835938 C 8.421875 3.695312 8.195312 6.78125 9.804688 8.914062 L 9.125 9.550781 L 8.875 9.253906 C 8.71875 9.074219 8.492188 8.960938 8.242188 8.960938 C 8.21875 8.960938 8.21875 8.960938 8.195312 8.960938 C 7.96875 8.960938 7.742188 9.050781 7.582031 9.1875 L 4.226562 12.246094 C 3.5 12.929688 3.433594 14.0625 4.089844 14.8125 C 4.429688 15.195312 4.90625 15.402344 5.429688 15.402344 C 5.882812 15.402344 6.335938 15.21875 6.652344 14.902344 L 9.964844 11.792969 C 10.328125 11.453125 10.351562 10.886719 10.011719 10.523438 L 9.738281 10.207031 L 10.417969 9.570312 C 11.371094 10.457031 12.617188 10.957031 13.910156 10.957031 C 15.203125 10.957031 16.453125 10.457031 17.402344 9.570312 C 19.511719 7.644531 19.648438 4.308594 17.746094 2.175781 Z M 6.039062 14.265625 C 5.859375 14.425781 5.65625 14.515625 5.429688 14.515625 C 5.179688 14.515625 4.953125 14.425781 4.769531 14.222656 C 4.429688 13.859375 4.476562 13.269531 4.839844 12.929688 L 8.195312 9.867188 L 9.328125 11.136719 Z M 13.910156 10.070312 C 12.753906 10.070312 11.597656 9.59375 10.757812 8.664062 C 9.171875 6.894531 9.285156 4.128906 11.03125 2.519531 C 11.847656 1.746094 12.890625 1.382812 13.910156 1.382812 C 15.066406 1.382812 16.226562 1.859375 17.0625 2.789062 C 18.652344 4.558594 18.539062 7.324219 16.792969 8.9375 C 15.976562 9.683594 14.933594 10.070312 13.910156 10.070312 Z M 13.910156 10.070312 " fill-opacity="1" fill-rule="nonzero"/></g><path fill="#925f3d" d="M 11.644531 3.152344 C 10.257812 4.445312 10.167969 6.621094 11.417969 8.027344 C 11.507812 8.121094 11.621094 8.1875 11.757812 8.1875 C 11.871094 8.1875 11.984375 8.144531 12.050781 8.074219 C 12.234375 7.914062 12.253906 7.621094 12.097656 7.441406 C 11.167969 6.394531 11.234375 4.785156 12.253906 3.832031 C 12.4375 3.652344 12.460938 3.378906 12.277344 3.199219 C 12.121094 2.992188 11.824219 2.992188 11.644531 3.152344 Z M 11.644531 3.152344 " fill-opacity="1" fill-rule="nonzero"/><path fill="#925f3d" d="M 6.609375 20.414062 L 6.609375 22.75 L 7.515625 22.089844 L 7.515625 20.867188 L 8.195312 20.867188 C 8.378906 20.867188 8.535156 20.777344 8.605469 20.617188 C 8.671875 20.457031 8.671875 20.277344 8.558594 20.140625 L 6.515625 17.417969 C 6.335938 17.191406 5.972656 17.191406 5.792969 17.417969 L 3.75 20.140625 C 3.636719 20.277344 3.636719 20.457031 3.703125 20.617188 C 3.773438 20.777344 3.929688 20.867188 4.113281 20.867188 L 4.792969 20.867188 L 4.792969 24.085938 L 5.699219 23.429688 L 5.699219 20.414062 C 5.699219 20.164062 5.496094 19.960938 5.246094 19.960938 L 5.019531 19.960938 L 6.152344 18.441406 L 7.289062 19.960938 L 7.0625 19.960938 C 6.8125 19.960938 6.609375 20.164062 6.609375 20.414062 Z M 6.609375 20.414062 " fill-opacity="1" fill-rule="nonzero"/><path fill="#925f3d" d="M 12.503906 17.238281 L 12.503906 18.691406 C 12.824219 18.667969 13.140625 18.757812 13.414062 18.984375 L 13.414062 17.691406 L 14.09375 17.691406 C 14.273438 17.691406 14.433594 17.601562 14.5 17.441406 C 14.570312 17.285156 14.570312 17.101562 14.457031 16.964844 L 12.414062 14.242188 C 12.234375 14.015625 11.871094 14.015625 11.6875 14.242188 L 9.648438 16.964844 C 9.535156 17.101562 9.535156 17.285156 9.601562 17.441406 C 9.667969 17.601562 9.828125 17.691406 10.011719 17.691406 L 10.691406 17.691406 L 10.691406 19.753906 L 11.597656 19.097656 L 11.597656 17.238281 C 11.597656 16.988281 11.394531 16.785156 11.144531 16.785156 L 10.917969 16.785156 L 12.050781 15.265625 L 13.183594 16.785156 L 12.957031 16.785156 C 12.710938 16.785156 12.503906 16.988281 12.503906 17.238281 Z M 12.503906 17.238281 " fill-opacity="1" fill-rule="nonzero"/><path fill="#925f3d" d="M 18.402344 14.0625 L 18.402344 23 L 19.308594 22.339844 L 19.308594 14.515625 L 19.988281 14.515625 C 20.171875 14.515625 20.332031 14.425781 20.398438 14.265625 C 20.464844 14.109375 20.464844 13.925781 20.351562 13.789062 L 18.3125 11.070312 C 18.128906 10.839844 17.765625 10.839844 17.585938 11.070312 L 15.542969 13.789062 C 15.429688 13.925781 15.429688 14.109375 15.5 14.265625 C 15.566406 14.425781 15.726562 14.515625 15.90625 14.515625 L 16.585938 14.515625 L 16.585938 22.046875 L 17.496094 22.929688 L 17.496094 14.0625 C 17.496094 13.8125 17.289062 13.609375 17.042969 13.609375 L 16.816406 13.609375 L 17.949219 12.089844 L 19.082031 13.609375 L 18.855469 13.609375 C 18.605469 13.609375 18.402344 13.8125 18.402344 14.0625 Z M 18.402344 14.0625 " fill-opacity="1" fill-rule="nonzero"/><g clip-path="url(#184f87994c)"><path fill="#925f3d" d="M 29.0625 27.671875 L 25.207031 27.671875 L 25.207031 21.386719 L 24.300781 22.046875 L 24.300781 27.671875 L 23.390625 27.671875 L 23.390625 22.703125 L 22.484375 23.363281 L 22.484375 27.671875 L 19.308594 27.671875 L 19.308594 25.722656 L 18.628906 26.21875 C 18.5625 26.265625 18.492188 26.308594 18.402344 26.355469 L 18.402344 27.671875 L 17.496094 27.671875 L 17.496094 26.445312 C 17.269531 26.402344 17.042969 26.265625 16.882812 26.105469 L 16.585938 25.835938 L 16.585938 27.695312 L 13.414062 27.695312 L 13.414062 22.773438 L 12.503906 21.886719 L 12.503906 27.671875 L 11.597656 27.671875 L 11.597656 22.453125 L 10.691406 23.113281 L 10.691406 27.648438 L 7.515625 27.648438 L 7.515625 25.449219 L 6.609375 26.105469 L 6.609375 27.648438 L 5.699219 27.648438 L 5.699219 26.785156 L 4.792969 27.445312 L 4.792969 27.648438 L 3 27.648438 L 12.550781 20.617188 L 17.496094 25.449219 C 17.652344 25.605469 17.902344 25.628906 18.085938 25.492188 L 27.519531 18.554688 L 27.496094 19.121094 C 27.476562 19.371094 27.679688 19.574219 27.929688 19.597656 C 27.929688 19.597656 27.949219 19.597656 27.949219 19.597656 C 28.199219 19.597656 28.382812 19.414062 28.40625 19.164062 L 28.496094 17.464844 C 28.519531 17.214844 28.3125 17.011719 28.066406 16.988281 L 26.476562 16.898438 C 26.226562 16.875 26 17.078125 26 17.328125 C 25.976562 17.578125 26.183594 17.804688 26.429688 17.804688 L 27 17.851562 L 17.878906 24.542969 L 12.890625 19.710938 C 12.730469 19.550781 12.480469 19.527344 12.300781 19.664062 L 1.460938 27.671875 L 1.390625 27.671875 L 1.390625 7.441406 C 1.390625 7.191406 1.1875 6.984375 0.9375 6.984375 C 0.6875 6.984375 0.484375 7.191406 0.484375 7.441406 L 0.484375 28.125 C 0.484375 28.375 0.6875 28.578125 0.9375 28.578125 L 29.0625 28.578125 C 29.3125 28.578125 29.515625 28.375 29.515625 28.125 C 29.515625 27.875 29.3125 27.671875 29.0625 27.671875 Z M 29.0625 27.671875 " fill-opacity="1" fill-rule="nonzero"/></g><path fill="#925f3d" d="M 24.300781 10.886719 L 24.300781 18.667969 L 25.207031 18.007812 L 25.207031 11.339844 L 25.886719 11.339844 C 26.070312 11.339844 26.226562 11.25 26.296875 11.089844 C 26.363281 10.933594 26.363281 10.75 26.25 10.613281 L 24.207031 7.894531 C 24.027344 7.667969 23.664062 7.667969 23.484375 7.894531 L 21.441406 10.613281 C 21.328125 10.75 21.328125 10.933594 21.394531 11.089844 C 21.464844 11.25 21.621094 11.339844 21.804688 11.339844 L 22.484375 11.339844 L 22.484375 20.003906 L 23.390625 19.347656 L 23.390625 10.886719 C 23.390625 10.636719 23.1875 10.433594 22.9375 10.433594 L 22.710938 10.433594 L 23.847656 8.914062 L 24.980469 10.433594 L 24.753906 10.433594 C 24.503906 10.433594 24.300781 10.636719 24.300781 10.886719 Z M 24.300781 10.886719 " fill-opacity="1" fill-rule="nonzero"/></svg>