<svg xmlns="http://www.w3.org/2000/svg" xmlns:xlink="http://www.w3.org/1999/xlink" width="40" zoomAndPan="magnify" viewBox="0 0 30 30.000001" height="40" preserveAspectRatio="xMidYMid meet" version="1.0"><defs><clipPath id="4beed69d87"><path d="M 0.484375 0 L 29.515625 0 L 29.515625 29.03125 L 0.484375 29.03125 Z M 0.484375 0 " clip-rule="nonzero"/></clipPath><clipPath id="86f9c00b57"><path d="M 7 3.195312 L 29.515625 3.195312 L 29.515625 26 L 7 26 Z M 7 3.195312 " clip-rule="nonzero"/></clipPath><clipPath id="cb94844b62"><path d="M 0.484375 12 L 13 12 L 13 24 L 0.484375 24 Z M 0.484375 12 " clip-rule="nonzero"/></clipPath></defs><g clip-path="url(#4beed69d87)"><path fill="#ffffff" d="M 0.484375 0 L 29.515625 0 L 29.515625 29.03125 L 0.484375 29.03125 Z M 0.484375 0 " fill-opacity="1" fill-rule="nonzero"/><path fill="#ffffff" d="M 0.484375 0 L 29.515625 0 L 29.515625 29.03125 L 0.484375 29.03125 Z M 0.484375 0 " fill-opacity="1" fill-rule="nonzero"/></g><g clip-path="url(#86f9c00b57)"><path fill="#925f3d" d="M 29.320312 23.734375 L 24.84375 19.511719 C 26.21875 17.792969 27.046875 15.621094 27.046875 13.25 C 27.046875 7.707031 22.535156 3.195312 16.988281 3.195312 C 12.160156 3.195312 8.121094 6.613281 7.15625 11.152344 C 7.816406 11.285156 8.417969 11.625 8.875 12.121094 C 9.421875 8.125 12.859375 5.054688 16.988281 5.054688 C 21.511719 5.054688 25.1875 8.730469 25.1875 13.253906 C 25.1875 17.765625 21.511719 21.445312 16.988281 21.445312 C 15.828125 21.445312 14.722656 21.203125 13.71875 20.765625 C 14.007812 21.417969 14.0625 22.132812 13.898438 22.808594 C 14.871094 23.136719 15.914062 23.300781 16.988281 23.300781 C 19.359375 23.300781 21.53125 22.476562 23.25 21.101562 L 27.480469 25.578125 C 27.5 25.59375 27.519531 25.613281 27.527344 25.632812 C 28.054688 26.125 28.875 26.105469 29.367188 25.578125 C 29.867188 25.054688 29.839844 24.234375 29.320312 23.734375 Z M 29.320312 23.734375 " fill-opacity="1" fill-rule="nonzero"/></g><g clip-path="url(#cb94844b62)"><path fill="#925f3d" d="M 7.714844 13.664062 C 7.179688 12.695312 5.785156 12.695312 5.25 13.664062 L 1.011719 21.375 C 0.496094 22.3125 1.171875 23.457031 2.242188 23.457031 L 10.722656 23.457031 C 11.796875 23.457031 12.46875 22.3125 11.957031 21.375 Z M 5.722656 15.917969 C 5.722656 15.496094 6.0625 15.15625 6.484375 15.15625 C 6.90625 15.15625 7.25 15.496094 7.25 15.917969 L 7.25 18.644531 C 7.25 19.070312 6.90625 19.410156 6.484375 19.410156 C 6.0625 19.410156 5.722656 19.070312 5.722656 18.644531 Z M 6.480469 21.894531 C 6 21.894531 5.613281 21.503906 5.613281 21.027344 C 5.613281 20.546875 6.003906 20.160156 6.480469 20.160156 C 6.960938 20.160156 7.347656 20.550781 7.347656 21.027344 C 7.351562 21.507812 6.960938 21.894531 6.480469 21.894531 Z M 6.480469 21.894531 " fill-opacity="1" fill-rule="nonzero"/></g><path fill="#925f3d" d="M 14.816406 18.730469 C 15.457031 19.179688 16.207031 19.417969 16.988281 19.417969 C 17.769531 19.417969 18.523438 19.179688 19.160156 18.730469 C 20.402344 17.859375 21.152344 16.800781 21.347656 15.652344 C 22.015625 15.503906 22.34375 15.027344 22.34375 14.195312 C 22.34375 13.558594 22.191406 13.117188 21.890625 12.84375 C 21.765625 12.730469 21.558594 12.609375 21.261719 12.578125 C 21.265625 12.464844 21.265625 12.3125 21.261719 12.140625 L 22.316406 12.140625 C 22.664062 12.140625 22.945312 11.859375 22.945312 11.507812 C 22.945312 11.160156 22.664062 10.875 22.316406 10.875 L 21.574219 10.875 C 21.351562 10.875 21.148438 10.734375 21.070312 10.527344 L 20.304688 8.460938 C 20.113281 7.945312 19.621094 7.601562 19.066406 7.601562 L 14.914062 7.601562 C 14.363281 7.601562 13.867188 7.945312 13.675781 8.460938 L 12.90625 10.523438 C 12.828125 10.734375 12.632812 10.871094 12.40625 10.871094 L 11.664062 10.871094 C 11.316406 10.871094 11.03125 11.15625 11.03125 11.503906 C 11.03125 11.855469 11.316406 12.136719 11.664062 12.136719 L 12.722656 12.136719 C 12.71875 12.3125 12.71875 12.464844 12.722656 12.574219 C 12.425781 12.601562 12.21875 12.726562 12.09375 12.839844 C 11.789062 13.113281 11.640625 13.554688 11.640625 14.191406 C 11.640625 15.019531 11.964844 15.5 12.632812 15.648438 C 12.824219 16.796875 13.574219 17.859375 14.816406 18.730469 Z M 13.902344 12.136719 L 20.070312 12.136719 C 20.144531 12.433594 20.1875 12.714844 20.210938 12.96875 C 19.238281 12.621094 18.09375 12.875 17.742188 12.972656 C 17.390625 13.078125 17.136719 13.117188 17.136719 13.117188 C 17.035156 13.132812 16.933594 13.132812 16.828125 13.117188 C 16.828125 13.117188 16.578125 13.078125 16.222656 12.972656 C 15.875 12.875 14.734375 12.621094 13.757812 12.96875 C 13.785156 12.714844 13.828125 12.433594 13.902344 12.136719 Z M 13.386719 15.355469 C 13.363281 15.113281 13.171875 14.921875 12.933594 14.898438 C 12.640625 14.867188 12.425781 14.847656 12.425781 14.191406 C 12.425781 13.675781 12.550781 13.492188 12.621094 13.425781 C 12.640625 13.40625 12.703125 13.355469 12.847656 13.355469 C 12.867188 13.601562 12.894531 13.824219 12.929688 13.953125 C 12.992188 14.195312 13.566406 14.199219 13.691406 14.015625 C 13.84375 14.523438 14.105469 15.195312 15.03125 15.195312 C 16.328125 15.195312 16.589844 14.359375 16.589844 13.988281 C 16.589844 13.941406 16.59375 13.898438 16.601562 13.859375 C 16.640625 13.675781 16.804688 13.546875 16.988281 13.546875 C 17.175781 13.546875 17.34375 13.675781 17.375 13.859375 C 17.386719 13.898438 17.386719 13.941406 17.386719 13.988281 C 17.386719 14.359375 17.65625 15.195312 18.949219 15.195312 C 19.871094 15.195312 20.132812 14.523438 20.285156 14.015625 C 20.410156 14.199219 20.988281 14.199219 21.050781 13.953125 C 21.078125 13.824219 21.105469 13.601562 21.132812 13.355469 C 21.277344 13.355469 21.339844 13.40625 21.359375 13.425781 C 21.433594 13.488281 21.550781 13.671875 21.550781 14.191406 C 21.550781 14.84375 21.339844 14.867188 21.046875 14.894531 C 20.804688 14.917969 20.613281 15.109375 20.589844 15.347656 C 20.582031 15.429688 20.546875 15.511719 20.53125 15.597656 C 18.183594 15.984375 15.792969 15.984375 13.445312 15.601562 C 13.429688 15.519531 13.394531 15.441406 13.386719 15.355469 Z M 13.386719 15.355469 " fill-opacity="1" fill-rule="nonzero"/></svg>