<svg xmlns="http://www.w3.org/2000/svg" xmlns:xlink="http://www.w3.org/1999/xlink" width="50" zoomAndPan="magnify" viewBox="0 0 37.5 37.499999" height="50" preserveAspectRatio="xMidYMid meet" version="1.0"><defs><clipPath id="03866623ae"><path d="M 0 0 L 37.007812 0 L 37.007812 37.007812 L 0 37.007812 Z M 0 0 " clip-rule="nonzero"/></clipPath><clipPath id="217694f406"><path d="M 0 35 L 23 35 L 23 37.007812 L 0 37.007812 Z M 0 35 " clip-rule="nonzero"/></clipPath><clipPath id="747b3068f2"><path d="M 19 14 L 37.007812 14 L 37.007812 36 L 19 36 Z M 19 14 " clip-rule="nonzero"/></clipPath></defs><g clip-path="url(#03866623ae)"><path fill="#ffffff" d="M 0 0 L 37.007812 0 L 37.007812 37.007812 L 0 37.007812 Z M 0 0 " fill-opacity="1" fill-rule="nonzero"/><path fill="#ffffff" d="M 0 0 L 37.007812 0 L 37.007812 37.007812 L 0 37.007812 Z M 0 0 " fill-opacity="1" fill-rule="nonzero"/></g><path fill="#935f3d" d="M 24.246094 30.964844 C 24.863281 31.160156 25.503906 31.265625 26.160156 31.265625 C 29.679688 31.265625 32.539062 28.402344 32.539062 24.882812 C 32.539062 21.363281 29.679688 18.503906 26.160156 18.503906 C 25.484375 18.503906 24.828125 18.609375 24.199219 18.8125 C 24.226562 18.917969 24.246094 19.027344 24.246094 19.140625 L 24.246094 20.164062 C 24.851562 19.917969 25.496094 19.78125 26.160156 19.78125 C 28.972656 19.78125 31.265625 22.070312 31.265625 24.882812 C 31.265625 27.699219 28.972656 29.988281 26.160156 29.988281 C 25.496094 29.988281 24.851562 29.847656 24.246094 29.601562 L 24.246094 30.964844 " fill-opacity="1" fill-rule="nonzero"/><path fill="#935f3d" d="M 8.292969 26.796875 C 8.292969 26.09375 8.867188 25.523438 9.570312 25.523438 L 13.398438 25.523438 C 14.101562 25.523438 14.675781 26.09375 14.675781 26.796875 L 14.675781 26.949219 L 22.96875 21.96875 L 22.96875 19.140625 L 0 19.140625 L 0 21.96875 L 8.292969 26.949219 L 8.292969 26.796875 " fill-opacity="1" fill-rule="nonzero"/><g clip-path="url(#217694f406)"><path fill="#935f3d" d="M 22.96875 35.730469 L 0 35.730469 L 0 37.007812 L 22.96875 37.007812 L 22.96875 35.730469 " fill-opacity="1" fill-rule="nonzero"/></g><path fill="#935f3d" d="M 22.96875 34.453125 L 22.96875 23.457031 L 14.675781 28.433594 L 14.675781 29.351562 C 14.675781 30.054688 14.101562 30.625 13.398438 30.625 L 9.570312 30.625 C 8.867188 30.625 8.292969 30.054688 8.292969 29.351562 L 8.292969 28.433594 L 0 23.457031 L 0 34.453125 L 22.96875 34.453125 " fill-opacity="1" fill-rule="nonzero"/><path fill="#935f3d" d="M 9.570312 26.796875 L 9.570312 29.351562 L 13.398438 29.351562 L 13.398438 26.796875 L 9.570312 26.796875 " fill-opacity="1" fill-rule="nonzero"/><path fill="#935f3d" d="M 29.988281 24.882812 C 29.988281 22.773438 28.269531 21.054688 26.160156 21.054688 C 25.480469 21.054688 24.828125 21.242188 24.246094 21.578125 L 24.246094 28.1875 C 24.828125 28.523438 25.480469 28.710938 26.160156 28.710938 C 28.269531 28.710938 29.988281 26.996094 29.988281 24.882812 " fill-opacity="1" fill-rule="nonzero"/><path fill="#935f3d" d="M 3.191406 11.484375 L 18.503906 11.484375 L 18.503906 12.761719 L 3.191406 12.761719 Z M 3.191406 8.933594 L 4.464844 8.933594 L 4.464844 10.207031 L 3.191406 10.207031 Z M 7.019531 8.933594 L 7.019531 10.207031 L 5.742188 10.207031 L 5.742188 8.933594 Z M 3.191406 6.378906 L 18.503906 6.378906 L 18.503906 7.65625 L 3.191406 7.65625 Z M 18.503906 10.207031 L 8.292969 10.207031 L 8.292969 8.933594 L 18.503906 8.933594 Z M 3.191406 15.949219 C 3.191406 14.894531 4.046875 14.035156 5.105469 14.035156 L 17.867188 14.035156 C 18.414062 14.035156 18.90625 14.269531 19.257812 14.644531 L 19.773438 14.125 L 19.78125 14.125 L 19.78125 5.105469 L 1.914062 5.105469 L 1.914062 17.867188 L 3.191406 17.867188 L 3.191406 15.949219 " fill-opacity="1" fill-rule="nonzero"/><g clip-path="url(#747b3068f2)"><path fill="#935f3d" d="M 32.925781 19.019531 L 32.023438 18.117188 L 32.925781 17.214844 L 33.828125 18.117188 Z M 32.925781 32.550781 L 32.023438 31.652344 L 32.925781 30.75 L 33.828125 31.652344 Z M 26.796875 35.09375 L 25.523438 35.09375 L 25.523438 33.816406 L 26.796875 33.816406 Z M 26.796875 15.949219 L 25.523438 15.949219 L 25.523438 14.675781 L 26.796875 14.675781 Z M 35.09375 24.246094 L 36.367188 24.246094 L 36.367188 25.523438 L 35.09375 25.523438 Z M 34.65625 27.636719 L 34.777344 27.265625 L 37.007812 26.894531 L 37.007812 22.871094 L 34.777344 22.5 L 34.65625 22.132812 C 34.515625 21.699219 34.332031 21.261719 34.109375 20.824219 L 33.933594 20.480469 L 35.253906 18.636719 L 32.40625 15.792969 L 30.5625 17.109375 L 30.21875 16.933594 C 29.78125 16.710938 29.34375 16.527344 28.910156 16.386719 L 28.542969 16.269531 L 28.171875 14.035156 L 24.148438 14.035156 L 23.777344 16.269531 L 23.410156 16.386719 C 22.976562 16.527344 22.539062 16.710938 22.101562 16.933594 L 21.757812 17.109375 L 19.910156 15.792969 L 19.777344 15.925781 C 19.777344 15.933594 19.78125 15.945312 19.78125 15.949219 L 19.78125 17.867188 L 22.96875 17.867188 C 23.007812 17.867188 23.042969 17.871094 23.085938 17.878906 C 24.054688 17.449219 25.089844 17.226562 26.160156 17.226562 C 30.382812 17.226562 33.816406 20.660156 33.816406 24.882812 C 33.816406 29.105469 30.382812 32.539062 26.160156 32.539062 C 25.507812 32.539062 24.867188 32.453125 24.246094 32.292969 L 24.246094 35.730469 L 28.171875 35.730469 L 28.542969 33.5 L 28.910156 33.378906 C 29.34375 33.242188 29.78125 33.054688 30.21875 32.835938 L 30.5625 32.65625 L 32.40625 33.976562 L 35.253906 31.132812 L 33.933594 29.285156 L 34.109375 28.941406 C 34.332031 28.503906 34.515625 28.066406 34.65625 27.636719 " fill-opacity="1" fill-rule="nonzero"/></g><path fill="#935f3d" d="M 20.417969 2.550781 L 20.417969 1.277344 L 21.695312 1.277344 L 21.695312 2.550781 Z M 19.140625 2.550781 L 14.035156 2.550781 L 14.035156 1.277344 L 19.140625 1.277344 Z M 12.761719 2.550781 L 11.484375 2.550781 L 11.484375 1.277344 L 12.761719 1.277344 Z M 21.054688 6.378906 L 26.796875 6.378906 L 26.796875 7.65625 L 21.054688 7.65625 L 21.054688 8.933594 L 26.796875 8.933594 L 26.796875 10.207031 L 21.054688 10.207031 L 21.054688 15.039062 L 21.875 15.625 C 22.128906 15.503906 22.390625 15.398438 22.644531 15.304688 L 23.066406 12.761719 L 28.074219 12.761719 L 28.074219 5.105469 L 22.96875 5.105469 L 22.96875 0 L 10.207031 0 L 10.207031 3.828125 L 21.054688 3.828125 L 21.054688 6.378906 " fill-opacity="1" fill-rule="nonzero"/><path fill="#935f3d" d="M 24.246094 0.902344 L 24.246094 3.828125 L 27.171875 3.828125 Z M 24.246094 0.902344 " fill-opacity="1" fill-rule="nonzero"/><path fill="#935f3d" d="M 5.105469 15.3125 C 4.753906 15.3125 4.464844 15.601562 4.464844 15.949219 L 4.464844 17.867188 L 18.503906 17.867188 L 18.503906 15.949219 C 18.503906 15.601562 18.214844 15.3125 17.867188 15.3125 L 5.105469 15.3125 " fill-opacity="1" fill-rule="nonzero"/></svg>