<svg xmlns="http://www.w3.org/2000/svg" xmlns:xlink="http://www.w3.org/1999/xlink" width="40" zoomAndPan="magnify" viewBox="0 0 30 30.000001" height="40" preserveAspectRatio="xMidYMid meet" version="1.0"><defs><clipPath id="9032591051"><path d="M 0.484375 0 L 29.515625 0 L 29.515625 29.03125 L 0.484375 29.03125 Z M 0.484375 0 " clip-rule="nonzero"/></clipPath><clipPath id="ec63388745"><path d="M 5 20 L 25 20 L 25 29.03125 L 5 29.03125 Z M 5 20 " clip-rule="nonzero"/></clipPath><clipPath id="d489223ca2"><path d="M 19 8 L 29.515625 8 L 29.515625 19 L 19 19 Z M 19 8 " clip-rule="nonzero"/></clipPath><clipPath id="d64811fd65"><path d="M 0.484375 8 L 11 8 L 11 19 L 0.484375 19 Z M 0.484375 8 " clip-rule="nonzero"/></clipPath></defs><g clip-path="url(#9032591051)"><path fill="#ffffff" d="M 0.484375 0 L 29.515625 0 L 29.515625 29.03125 L 0.484375 29.03125 Z M 0.484375 0 " fill-opacity="1" fill-rule="nonzero"/><path fill="#ffffff" d="M 0.484375 0 L 29.515625 0 L 29.515625 29.03125 L 0.484375 29.03125 Z M 0.484375 0 " fill-opacity="1" fill-rule="nonzero"/></g><path fill="#925f3d" d="M 12.28125 16.984375 C 12.28125 18.480469 13.503906 19.703125 15 19.703125 C 16.496094 19.703125 17.71875 18.480469 17.71875 16.984375 C 17.71875 15.488281 16.496094 14.265625 15 14.265625 C 13.503906 14.265625 12.28125 15.488281 12.28125 16.984375 Z M 16.8125 16.984375 C 16.8125 17.980469 15.996094 18.796875 15 18.796875 C 14.003906 18.796875 13.1875 17.980469 13.1875 16.984375 C 13.1875 15.988281 14.003906 15.171875 15 15.171875 C 15.996094 15.171875 16.8125 15.988281 16.8125 16.984375 Z M 16.8125 16.984375 " fill-opacity="1" fill-rule="nonzero"/><g clip-path="url(#ec63388745)"><path fill="#925f3d" d="M 23.558594 20.8125 C 23.21875 20.472656 22.699219 20.425781 22.316406 20.722656 C 22.316406 20.722656 22.292969 20.722656 22.292969 20.742188 L 20.433594 22.285156 C 20.414062 22.285156 20.390625 22.285156 20.390625 22.285156 L 18.714844 21.0625 C 17.851562 20.246094 16.835938 20.15625 16.425781 20.15625 L 13.460938 20.15625 C 13.4375 20.15625 13.414062 20.15625 13.390625 20.15625 C 12.917969 20.175781 12.035156 20.335938 11.261719 21.0625 L 9.609375 22.285156 C 9.585938 22.285156 9.566406 22.304688 9.566406 22.285156 L 7.707031 20.742188 C 7.707031 20.742188 7.683594 20.742188 7.683594 20.722656 C 7.300781 20.449219 6.78125 20.472656 6.441406 20.8125 L 5.988281 21.289062 C 5.804688 21.492188 5.691406 21.738281 5.714844 22.011719 C 5.738281 22.285156 5.875 22.53125 6.078125 22.691406 L 9.019531 25.113281 C 9.359375 25.363281 9.8125 25.363281 10.152344 25.136719 L 11.828125 24.050781 L 11.828125 27.992188 C 11.828125 28.464844 12.238281 29.03125 12.804688 29.03125 L 17.21875 29.03125 C 17.761719 29.03125 18.191406 28.488281 18.191406 27.992188 L 18.191406 24.050781 L 19.867188 25.160156 C 20.207031 25.410156 20.660156 25.386719 21 25.136719 L 23.921875 22.738281 C 24.148438 22.578125 24.285156 22.328125 24.285156 22.058594 C 24.308594 21.785156 24.195312 21.515625 24.011719 21.332031 Z M 23.355469 21.964844 L 20.433594 24.367188 C 20.414062 24.390625 20.390625 24.390625 20.367188 24.367188 C 20.367188 24.367188 20.34375 24.367188 20.34375 24.34375 L 17.945312 22.78125 C 17.808594 22.691406 17.625 22.691406 17.492188 22.757812 C 17.355469 22.828125 17.265625 22.984375 17.265625 23.167969 L 17.265625 27.945312 C 17.265625 27.992188 17.21875 28.058594 17.175781 28.082031 L 13.210938 28.082031 C 13.1875 28.082031 13.164062 28.082031 13.164062 28.082031 L 12.824219 28.082031 C 12.804688 28.058594 12.734375 27.992188 12.734375 27.945312 L 12.734375 23.167969 C 12.734375 23.007812 12.644531 22.851562 12.507812 22.757812 C 12.441406 22.714844 12.375 22.714844 12.28125 22.714844 C 12.191406 22.714844 12.101562 22.738281 12.035156 22.78125 L 9.632812 24.320312 C 9.632812 24.320312 9.609375 24.320312 9.609375 24.34375 C 9.585938 24.367188 9.566406 24.367188 9.566406 24.34375 L 6.644531 21.964844 C 6.644531 21.964844 6.621094 21.964844 6.621094 21.945312 C 6.621094 21.921875 6.621094 21.921875 6.621094 21.921875 L 7.074219 21.445312 C 7.097656 21.421875 7.121094 21.421875 7.140625 21.445312 L 9 22.984375 C 9 22.984375 9.019531 22.984375 9.019531 23.007812 C 9.359375 23.257812 9.8125 23.257812 10.152344 23.007812 L 11.828125 21.785156 C 11.851562 21.761719 11.851562 21.761719 11.875 21.738281 C 12.441406 21.175781 13.121094 21.082031 13.460938 21.0625 C 13.460938 21.0625 13.484375 21.0625 13.484375 21.0625 L 16.425781 21.0625 C 16.722656 21.0625 17.46875 21.128906 18.101562 21.738281 C 18.125 21.761719 18.125 21.761719 18.148438 21.785156 L 19.824219 23.007812 C 20.164062 23.257812 20.617188 23.257812 20.957031 23.007812 C 20.957031 23.007812 20.980469 23.007812 20.980469 22.984375 L 22.835938 21.445312 C 22.859375 21.445312 22.878906 21.445312 22.902344 21.445312 L 23.355469 21.921875 C 23.355469 21.921875 23.378906 21.945312 23.355469 21.945312 C 23.378906 21.964844 23.378906 21.964844 23.355469 21.964844 Z M 23.355469 21.964844 " fill-opacity="1" fill-rule="nonzero"/></g><path fill="#925f3d" d="M 6.824219 10.644531 C 6.304688 10.621094 5.828125 10.871094 5.488281 11.210938 C 5.148438 10.871094 4.671875 10.621094 4.152344 10.644531 C 3.15625 10.6875 2.339844 11.550781 2.316406 12.589844 C 2.296875 13.089844 2.476562 13.566406 2.75 13.925781 C 2.769531 13.972656 5.125 16.824219 5.125 16.824219 C 5.21875 16.9375 5.332031 16.984375 5.464844 16.984375 C 5.601562 16.984375 5.738281 16.917969 5.804688 16.824219 L 8.070312 14.0625 C 8.207031 13.90625 8.296875 13.769531 8.386719 13.609375 C 8.570312 13.269531 8.636719 12.929688 8.636719 12.613281 C 8.636719 11.550781 7.820312 10.6875 6.824219 10.644531 Z M 7.753906 12.613281 C 7.753906 12.796875 7.707031 12.976562 7.59375 13.179688 C 7.550781 13.269531 7.480469 13.382812 7.390625 13.472656 L 5.488281 15.828125 C 4.832031 15.035156 3.472656 13.382812 3.449219 13.359375 C 3.292969 13.179688 3.203125 12.910156 3.222656 12.636719 C 3.246094 12.070312 3.675781 11.59375 4.199219 11.570312 C 4.199219 11.570312 4.21875 11.570312 4.21875 11.570312 C 4.582031 11.570312 4.921875 11.890625 5.105469 12.183594 C 5.195312 12.320312 5.332031 12.386719 5.488281 12.386719 C 5.648438 12.386719 5.78125 12.296875 5.875 12.183594 C 6.054688 11.890625 6.394531 11.550781 6.78125 11.570312 C 7.300781 11.570312 7.730469 12.046875 7.753906 12.613281 Z M 7.753906 12.613281 " fill-opacity="1" fill-rule="nonzero"/><path fill="#925f3d" d="M 25.667969 12.023438 L 24.964844 10.441406 C 24.894531 10.28125 24.738281 10.167969 24.554688 10.167969 C 24.375 10.167969 24.21875 10.257812 24.148438 10.417969 L 23.378906 11.957031 L 21.726562 12.183594 C 21.566406 12.207031 21.410156 12.320312 21.363281 12.476562 C 21.296875 12.636719 21.339844 12.816406 21.453125 12.929688 L 22.632812 14.175781 L 22.316406 15.898438 C 22.292969 16.078125 22.359375 16.238281 22.496094 16.351562 C 22.632812 16.464844 22.8125 16.464844 22.972656 16.394531 L 24.445312 15.625 L 25.894531 16.464844 C 25.960938 16.507812 26.050781 16.53125 26.121094 16.53125 C 26.210938 16.53125 26.300781 16.507812 26.367188 16.464844 C 26.503906 16.375 26.59375 16.191406 26.570312 16.035156 L 26.324219 14.289062 L 27.546875 13.089844 C 27.660156 12.976562 27.703125 12.796875 27.660156 12.636719 C 27.613281 12.476562 27.476562 12.363281 27.296875 12.320312 Z M 25.53125 13.792969 C 25.417969 13.882812 25.371094 14.039062 25.394531 14.175781 L 25.554688 15.21875 L 24.691406 14.71875 C 24.625 14.675781 24.535156 14.652344 24.464844 14.652344 C 24.398438 14.652344 24.332031 14.675781 24.261719 14.699219 L 23.378906 15.148438 L 23.558594 14.109375 C 23.582031 13.972656 23.539062 13.8125 23.445312 13.722656 L 22.722656 12.953125 L 23.71875 12.816406 C 23.878906 12.796875 23.992188 12.703125 24.058594 12.570312 L 24.511719 11.664062 L 24.917969 12.589844 C 24.988281 12.726562 25.101562 12.816406 25.257812 12.863281 L 26.253906 13.042969 Z M 25.53125 13.792969 " fill-opacity="1" fill-rule="nonzero"/><path fill="#925f3d" d="M 19.304688 5.84375 C 19.304688 5.570312 19.210938 5.300781 18.964844 5.09375 C 19.054688 4.9375 19.097656 4.777344 19.097656 4.597656 C 19.097656 4.007812 18.601562 3.53125 17.921875 3.464844 C 17.898438 3.464844 17.898438 3.464844 17.875 3.464844 L 15.90625 3.464844 L 16.132812 2.808594 C 16.222656 2.535156 16.199219 2.242188 16.0625 1.992188 C 15.929688 1.722656 15.703125 1.539062 15.40625 1.449219 C 14.820312 1.269531 14.207031 1.585938 14.003906 2.152344 L 13.460938 3.828125 C 13.460938 3.851562 13.460938 3.871094 13.4375 3.894531 C 13.4375 3.941406 13.371094 3.984375 13.300781 4.007812 C 13.164062 3.851562 12.960938 3.757812 12.734375 3.757812 L 11.898438 3.757812 C 11.46875 3.757812 11.105469 4.121094 11.105469 4.550781 L 11.105469 8.765625 C 11.105469 9.195312 11.46875 9.558594 11.898438 9.558594 L 12.734375 9.558594 C 12.847656 9.558594 12.9375 9.535156 13.03125 9.488281 C 13.121094 9.535156 13.210938 9.558594 13.300781 9.558594 L 17.175781 9.558594 C 17.535156 9.558594 17.851562 9.421875 18.101562 9.171875 C 18.304688 8.96875 18.417969 8.671875 18.417969 8.402344 C 18.417969 8.265625 18.398438 8.128906 18.351562 8.015625 C 18.625 7.835938 18.804688 7.519531 18.804688 7.132812 C 18.804688 7.019531 18.78125 6.90625 18.738281 6.792969 C 19.097656 6.589844 19.304688 6.273438 19.304688 5.84375 Z M 12.667969 8.605469 L 12.054688 8.605469 L 12.054688 4.597656 L 12.667969 4.597656 Z M 18.101562 6.023438 L 17.625 6.023438 C 17.378906 6.023438 17.175781 6.226562 17.175781 6.476562 C 17.175781 6.726562 17.378906 6.929688 17.625 6.929688 C 17.808594 6.929688 17.921875 7.042969 17.921875 7.109375 C 17.921875 7.222656 17.851562 7.292969 17.71875 7.292969 L 17.332031 7.292969 C 17.082031 7.292969 16.878906 7.496094 16.878906 7.746094 C 16.878906 7.992188 17.082031 8.199219 17.332031 8.199219 L 17.355469 8.199219 C 17.492188 8.199219 17.558594 8.265625 17.558594 8.378906 C 17.558594 8.402344 17.558594 8.445312 17.515625 8.515625 C 17.445312 8.582031 17.355469 8.605469 17.242188 8.605469 L 13.574219 8.605469 L 13.574219 4.824219 C 13.957031 4.734375 14.273438 4.4375 14.367188 4.054688 L 14.910156 2.402344 C 14.953125 2.308594 15.066406 2.242188 15.179688 2.289062 C 15.25 2.308594 15.292969 2.355469 15.292969 2.378906 C 15.316406 2.402344 15.316406 2.445312 15.292969 2.492188 L 14.933594 3.554688 C 14.863281 3.757812 14.910156 3.984375 15.046875 4.144531 C 15.179688 4.304688 15.363281 4.371094 15.566406 4.347656 L 17.851562 4.347656 C 18.058594 4.371094 18.171875 4.484375 18.171875 4.574219 C 18.171875 4.640625 18.058594 4.753906 17.875 4.753906 C 17.875 4.753906 17.875 4.753906 17.851562 4.753906 C 17.605469 4.753906 17.402344 4.960938 17.402344 5.207031 C 17.402344 5.457031 17.605469 5.660156 17.851562 5.660156 C 17.945312 5.660156 18.351562 5.660156 18.351562 5.84375 C 18.398438 5.910156 18.398438 6.023438 18.101562 6.023438 Z M 18.101562 6.023438 " fill-opacity="1" fill-rule="nonzero"/><path fill="#925f3d" d="M 21.113281 6.113281 C 21.113281 2.738281 18.375 0 15 0 C 11.625 0 8.886719 2.738281 8.886719 6.113281 C 8.886719 9.488281 11.625 12.230469 15 12.230469 C 18.375 12.230469 21.113281 9.488281 21.113281 6.113281 Z M 15 11.324219 C 12.125 11.324219 9.792969 8.992188 9.792969 6.113281 C 9.792969 3.238281 12.125 0.90625 15 0.90625 C 17.875 0.90625 20.207031 3.238281 20.207031 6.113281 C 20.207031 8.992188 17.875 11.324219 15 11.324219 Z M 15 11.324219 " fill-opacity="1" fill-rule="nonzero"/><g clip-path="url(#d489223ca2)"><path fill="#925f3d" d="M 24.511719 8.605469 C 21.769531 8.605469 19.527344 10.847656 19.527344 13.585938 C 19.527344 16.328125 21.769531 18.570312 24.511719 18.570312 C 27.25 18.570312 29.492188 16.328125 29.492188 13.585938 C 29.492188 10.847656 27.25 8.605469 24.511719 8.605469 Z M 24.511719 17.664062 C 22.269531 17.664062 20.433594 15.828125 20.433594 13.585938 C 20.433594 11.34375 22.269531 9.511719 24.511719 9.511719 C 26.753906 9.511719 28.585938 11.34375 28.585938 13.585938 C 28.585938 15.828125 26.753906 17.664062 24.511719 17.664062 Z M 24.511719 17.664062 " fill-opacity="1" fill-rule="nonzero"/></g><g clip-path="url(#d64811fd65)"><path fill="#925f3d" d="M 10.472656 13.585938 C 10.472656 10.847656 8.230469 8.605469 5.488281 8.605469 C 2.75 8.605469 0.507812 10.847656 0.507812 13.585938 C 0.507812 16.328125 2.75 18.570312 5.488281 18.570312 C 8.230469 18.570312 10.472656 16.328125 10.472656 13.585938 Z M 5.488281 17.664062 C 3.246094 17.664062 1.414062 15.828125 1.414062 13.585938 C 1.414062 11.34375 3.246094 9.511719 5.488281 9.511719 C 7.730469 9.511719 9.566406 11.34375 9.566406 13.585938 C 9.566406 15.828125 7.730469 17.664062 5.488281 17.664062 Z M 5.488281 17.664062 " fill-opacity="1" fill-rule="nonzero"/></g></svg>