<svg xmlns="http://www.w3.org/2000/svg" xmlns:xlink="http://www.w3.org/1999/xlink" width="50" zoomAndPan="magnify" viewBox="0 0 37.5 37.499999" height="50" preserveAspectRatio="xMidYMid meet" version="1.0"><defs><clipPath id="84c985e497"><path d="M 0 0 L 37.007812 0 L 37.007812 37.007812 L 0 37.007812 Z M 0 0 " clip-rule="nonzero"/></clipPath><clipPath id="367d7512e7"><path d="M 1.019531 0.015625 L 35.804688 0.015625 L 35.804688 36.988281 L 1.019531 36.988281 Z M 1.019531 0.015625 " clip-rule="nonzero"/></clipPath></defs><g clip-path="url(#84c985e497)"><path fill="#ffffff" d="M 0 0 L 37.007812 0 L 37.007812 37.007812 L 0 37.007812 Z M 0 0 " fill-opacity="1" fill-rule="nonzero"/><path fill="#ffffff" d="M 0 0 L 37.007812 0 L 37.007812 37.007812 L 0 37.007812 Z M 0 0 " fill-opacity="1" fill-rule="nonzero"/></g><g clip-path="url(#367d7512e7)"><path fill="#935f3d" d="M 21.015625 2.519531 L 27.761719 2.519531 C 28.339844 2.519531 28.832031 3.03125 28.832031 3.683594 L 28.832031 35.824219 C 28.832031 36.476562 28.339844 36.988281 27.761719 36.988281 L 5.570312 36.988281 C 4.988281 36.988281 4.5 36.476562 4.5 35.824219 L 4.5 35.234375 L 3.832031 35.234375 C 2.28125 35.234375 1.019531 33.976562 1.019531 32.421875 C 1.019531 32.265625 1.148438 32.136719 1.308594 32.136719 L 4.5 32.136719 L 4.5 3.683594 C 4.5 3.03125 4.988281 2.519531 5.570312 2.519531 L 12.3125 2.519531 C 12.347656 1.941406 12.859375 1.46875 13.5 1.46875 L 15.105469 1.46875 C 15.230469 0.640625 15.890625 0.0195312 16.664062 0.0195312 C 17.441406 0.0195312 18.101562 0.640625 18.226562 1.46875 L 19.832031 1.46875 C 20.472656 1.46875 20.984375 1.941406 21.015625 2.519531 Z M 12.3125 3.097656 L 5.570312 3.097656 C 5.332031 3.097656 5.144531 3.292969 5.09375 3.546875 C 5.105469 3.542969 5.113281 3.542969 5.125 3.542969 L 12.3125 3.542969 Z M 5.617188 32.136719 L 6.066406 32.136719 L 6.066406 4.71875 L 5.90625 4.71875 C 5.746094 4.71875 5.617188 4.851562 5.617188 5.007812 Z M 12.316406 4.851562 C 11.125 4.851562 6.640625 4.851562 6.640625 4.851562 L 6.640625 32.136719 L 21.933594 32.136719 C 22.09375 32.136719 22.222656 32.265625 22.222656 32.421875 C 22.222656 33.65625 23.222656 34.65625 24.457031 34.65625 C 25.6875 34.65625 26.6875 33.65625 26.6875 32.421875 L 26.6875 4.851562 L 21.015625 4.851562 C 20.984375 5.429688 20.472656 5.902344 19.832031 5.902344 L 13.5 5.902344 C 12.859375 5.902344 12.347656 5.429688 12.316406 4.851562 Z M 27.265625 32.421875 C 27.265625 33.976562 26.007812 35.234375 24.457031 35.234375 L 5.078125 35.234375 L 5.078125 35.554688 L 24.457031 35.554688 C 26.007812 35.554688 27.265625 34.292969 27.265625 32.742188 Z M 27.707031 36.410156 L 27.761719 36.410156 C 28.042969 36.410156 28.253906 36.140625 28.253906 35.824219 L 28.253906 3.683594 C 28.253906 3.367188 28.042969 3.097656 27.761719 3.097656 L 21.019531 3.097656 L 21.019531 3.542969 L 27.265625 3.542969 C 27.546875 3.542969 27.761719 3.816406 27.761719 4.132812 L 27.761719 36.140625 C 27.761719 36.238281 27.742188 36.328125 27.707031 36.410156 Z M 15.371094 2.046875 L 13.5 2.046875 C 13.175781 2.046875 12.898438 2.273438 12.890625 2.566406 C 12.890625 2.574219 12.890625 2.578125 12.890625 2.582031 L 12.890625 2.628906 C 12.957031 2.601562 13.027344 2.585938 13.105469 2.585938 L 14.976562 2.585938 C 15.214844 2.585938 15.410156 2.394531 15.410156 2.152344 C 15.410156 2.117188 15.410156 2.078125 15.414062 2.042969 C 15.402344 2.046875 15.386719 2.046875 15.371094 2.046875 Z M 17.671875 1.757812 C 17.671875 1.125 17.230469 0.59375 16.664062 0.59375 C 16.222656 0.59375 15.855469 0.921875 15.71875 1.371094 C 15.867188 1.226562 16.054688 1.136719 16.269531 1.136719 C 16.757812 1.136719 17.128906 1.605469 17.128906 2.152344 C 17.128906 2.394531 17.324219 2.585938 17.5625 2.585938 L 19.433594 2.585938 C 19.679688 2.585938 19.894531 2.746094 19.898438 2.96875 C 19.898438 2.972656 19.898438 2.976562 19.898438 2.976562 L 19.898438 5.1875 C 19.898438 5.191406 19.898438 5.191406 19.898438 5.195312 C 19.898438 5.242188 19.890625 5.285156 19.871094 5.324219 C 20.179688 5.304688 20.433594 5.085938 20.441406 4.804688 C 20.441406 4.800781 20.441406 4.792969 20.441406 4.789062 L 20.441406 2.582031 C 20.441406 2.578125 20.441406 2.574219 20.441406 2.566406 C 20.433594 2.273438 20.15625 2.046875 19.832031 2.046875 L 17.960938 2.046875 C 17.800781 2.046875 17.671875 1.917969 17.671875 1.757812 Z M 16.640625 24.476562 L 16.640625 18.734375 C 16.640625 18.574219 16.769531 18.445312 16.929688 18.445312 C 16.9375 18.445312 16.945312 18.445312 16.953125 18.449219 C 19.972656 18.714844 22.378906 21.121094 22.644531 24.140625 C 22.660156 24.324219 22.671875 24.511719 22.671875 24.699219 C 22.671875 24.886719 22.660156 25.074219 22.644531 25.257812 C 22.527344 26.570312 22.007812 27.765625 21.210938 28.722656 C 21.203125 28.730469 21.199219 28.734375 21.191406 28.742188 C 21.078125 28.855469 20.898438 28.855469 20.785156 28.742188 L 16.722656 24.683594 C 16.671875 24.628906 16.640625 24.554688 16.640625 24.476562 Z M 17.21875 19.058594 L 17.21875 24.359375 L 20.964844 28.105469 C 21.578125 27.28125 21.972656 26.289062 22.070312 25.210938 C 22.085938 25.042969 22.09375 24.871094 22.09375 24.699219 C 22.09375 24.527344 22.085938 24.355469 22.070312 24.1875 C 21.835938 21.554688 19.808594 19.433594 17.21875 19.058594 Z M 10.140625 25.257812 C 10.140625 25.25 10.140625 25.242188 10.140625 25.234375 C 10.140625 25.085938 10.253906 24.960938 10.402344 24.945312 C 10.410156 24.945312 10.421875 24.945312 10.429688 24.945312 L 16.171875 24.945312 C 16.25 24.945312 16.320312 24.976562 16.375 25.03125 L 20.4375 29.089844 C 20.546875 29.203125 20.546875 29.386719 20.4375 29.5 C 20.429688 29.503906 20.421875 29.511719 20.417969 29.515625 C 19.460938 30.316406 18.265625 30.835938 16.953125 30.949219 C 16.769531 30.96875 16.582031 30.976562 16.394531 30.976562 C 16.203125 30.976562 16.019531 30.96875 15.832031 30.949219 C 12.816406 30.683594 10.410156 28.277344 10.140625 25.257812 Z M 9.066406 17.226562 C 8.90625 17.226562 8.777344 17.09375 8.777344 16.9375 C 8.777344 16.777344 8.90625 16.648438 9.066406 16.648438 L 24.226562 16.648438 C 24.382812 16.648438 24.515625 16.777344 24.515625 16.9375 C 24.515625 17.09375 24.382812 17.226562 24.226562 17.226562 Z M 21.210938 15.222656 L 21.210938 6.234375 C 21.210938 6.074219 21.339844 5.945312 21.5 5.945312 L 24.226562 5.945312 C 24.382812 5.945312 24.515625 6.074219 24.515625 6.234375 L 24.515625 15.222656 C 24.515625 15.382812 24.382812 15.511719 24.226562 15.511719 L 21.5 15.511719 C 21.339844 15.511719 21.210938 15.382812 21.210938 15.222656 Z M 23.9375 14.933594 C 23.9375 13.425781 23.9375 6.523438 23.9375 6.523438 L 21.789062 6.523438 L 21.789062 14.933594 Z M 15.859375 24.453125 C 15.859375 24.453125 10.429688 24.453125 10.429688 24.453125 C 10.421875 24.453125 10.410156 24.453125 10.402344 24.453125 C 10.253906 24.4375 10.140625 24.3125 10.140625 24.164062 C 10.140625 24.15625 10.140625 24.148438 10.140625 24.140625 C 10.410156 21.121094 12.816406 18.714844 15.832031 18.449219 C 15.839844 18.445312 15.851562 18.445312 15.859375 18.445312 C 16.019531 18.445312 16.148438 18.574219 16.148438 18.734375 L 16.148438 24.164062 C 16.148438 24.324219 16.019531 24.453125 15.859375 24.453125 Z M 16.148438 9.632812 L 16.148438 15.222656 C 16.148438 15.382812 16.019531 15.511719 15.859375 15.511719 L 13.136719 15.511719 C 12.976562 15.511719 12.847656 15.382812 12.847656 15.222656 L 12.847656 9.632812 C 12.847656 9.472656 12.976562 9.34375 13.136719 9.34375 L 15.859375 9.34375 C 16.019531 9.34375 16.148438 9.472656 16.148438 9.632812 Z M 15.574219 9.921875 L 13.421875 9.921875 C 13.421875 9.921875 13.421875 14.933594 13.421875 14.933594 L 15.574219 14.933594 Z M 12.082031 11.722656 L 12.082031 15.222656 C 12.082031 15.382812 11.953125 15.511719 11.792969 15.511719 L 9.066406 15.511719 C 8.90625 15.511719 8.777344 15.382812 8.777344 15.222656 L 8.777344 11.722656 C 8.777344 11.566406 8.90625 11.4375 9.066406 11.4375 L 11.792969 11.4375 C 11.953125 11.4375 12.082031 11.566406 12.082031 11.722656 Z M 17.027344 15.222656 L 17.027344 8.226562 C 17.027344 8.066406 17.15625 7.9375 17.316406 7.9375 L 20.042969 7.9375 C 20.203125 7.9375 20.332031 8.066406 20.332031 8.226562 L 20.332031 15.222656 C 20.332031 15.382812 20.203125 15.511719 20.042969 15.511719 L 17.316406 15.511719 C 17.15625 15.511719 17.027344 15.382812 17.027344 15.222656 Z M 34.5625 7.738281 L 35.03125 7.738281 C 35.285156 7.738281 35.53125 7.839844 35.710938 8.019531 C 35.890625 8.203125 35.992188 8.445312 35.992188 8.699219 L 35.992188 16.511719 C 35.992188 16.667969 35.863281 16.796875 35.703125 16.796875 C 35.542969 16.796875 35.414062 16.667969 35.414062 16.511719 L 35.414062 8.699219 C 35.414062 8.597656 35.371094 8.5 35.300781 8.429688 C 35.230469 8.355469 35.132812 8.316406 35.03125 8.316406 L 34.5625 8.316406 Z M 33.628906 30.792969 L 31.886719 30.792969 L 31.886719 18.671875 C 31.886719 18.53125 32 18.417969 32.140625 18.417969 L 33.375 18.417969 C 33.515625 18.417969 33.628906 18.53125 33.628906 18.671875 Z M 31.71875 17.839844 C 31.65625 17.839844 31.605469 17.789062 31.605469 17.730469 L 31.605469 8.316406 L 33.984375 8.316406 L 33.984375 17.730469 C 33.984375 17.789062 33.933594 17.839844 33.875 17.839844 Z M 32.757812 33.71875 L 31.996094 31.371094 C 31.996094 31.371094 33.519531 31.371094 33.519531 31.371094 Z M 33.984375 7.738281 L 31.605469 7.738281 L 31.605469 6.632812 C 31.605469 6.570312 31.65625 6.523438 31.71875 6.523438 L 33.875 6.523438 C 33.933594 6.523438 33.984375 6.570312 33.984375 6.632812 Z M 33.984375 7.738281 " fill-opacity="1" fill-rule="evenodd"/></g></svg>