<svg xmlns="http://www.w3.org/2000/svg" xmlns:xlink="http://www.w3.org/1999/xlink" width="40" zoomAndPan="magnify" viewBox="0 0 30 30.000001" height="40" preserveAspectRatio="xMidYMid meet" version="1.0"><defs><clipPath id="3bd8a8e73f"><path d="M 0.484375 0 L 29.515625 0 L 29.515625 29.03125 L 0.484375 29.03125 Z M 0.484375 0 " clip-rule="nonzero"/></clipPath><clipPath id="c309108958"><path d="M 19 13 L 26.613281 13 L 26.613281 23 L 19 23 Z M 19 13 " clip-rule="nonzero"/></clipPath><clipPath id="dc2b337e91"><path d="M 12 25 L 16 25 L 16 29.03125 L 12 29.03125 Z M 12 25 " clip-rule="nonzero"/></clipPath><clipPath id="490d05de27"><path d="M 3.386719 13 L 11 13 L 11 22 L 3.386719 22 Z M 3.386719 13 " clip-rule="nonzero"/></clipPath><clipPath id="d50cf31431"><path d="M 3.386719 13 L 11 13 L 11 23 L 3.386719 23 Z M 3.386719 13 " clip-rule="nonzero"/></clipPath></defs><g clip-path="url(#3bd8a8e73f)"><path fill="#ffffff" d="M 0.484375 0 L 29.515625 0 L 29.515625 29.03125 L 0.484375 29.03125 Z M 0.484375 0 " fill-opacity="1" fill-rule="nonzero"/><path fill="#ffffff" d="M 0.484375 0 L 29.515625 0 L 29.515625 29.03125 L 0.484375 29.03125 Z M 0.484375 0 " fill-opacity="1" fill-rule="nonzero"/></g><path fill="#925f3d" d="M 21.351562 13.566406 L 20.035156 14.328125 C 19.730469 14.503906 19.570312 14.808594 19.683594 15.007812 L 23.503906 21.625 C 23.617188 21.824219 23.964844 21.839844 24.269531 21.65625 L 25.585938 20.898438 C 25.894531 20.722656 26.050781 20.417969 25.9375 20.21875 C 24.664062 18.011719 23.390625 15.804688 22.117188 13.601562 C 22.003906 13.40625 21.65625 13.390625 21.351562 13.566406 Z M 21.351562 13.566406 " fill-opacity="1" fill-rule="evenodd"/><g clip-path="url(#c309108958)"><path fill="#925f3d" d="M 23.847656 22.015625 C 23.617188 22.015625 23.402344 21.914062 23.308594 21.742188 L 19.484375 15.125 C 19.28125 14.769531 19.570312 14.320312 19.921875 14.132812 L 21.238281 13.375 C 21.664062 13.128906 22.132812 13.179688 22.316406 13.492188 L 26.136719 20.109375 C 26.339844 20.46875 26.050781 20.914062 25.699219 21.101562 C 25.335938 21.273438 24.257812 22.0625 23.847656 22.015625 Z M 21.464844 13.765625 L 20.148438 14.523438 C 20.011719 14.605469 19.855469 14.757812 19.882812 14.894531 L 23.703125 21.511719 C 23.8125 21.601562 24.015625 21.539062 24.15625 21.460938 L 25.472656 20.699219 C 25.609375 20.621094 25.769531 20.472656 25.738281 20.332031 C 25.738281 20.332031 21.917969 13.714844 21.917969 13.714844 C 21.882812 13.664062 21.683594 13.640625 21.464844 13.765625 Z M 21.464844 13.765625 " fill-opacity="1" fill-rule="nonzero"/></g><g clip-path="url(#dc2b337e91)"><path fill="#925f3d" d="M 13.667969 29.007812 C 12.664062 29.03125 12.011719 27.816406 12.589844 26.992188 C 12.589844 26.992188 12.941406 26.464844 12.941406 26.464844 C 13.339844 25.871094 14.148438 25.710938 14.738281 26.109375 C 15.324219 26.484375 15.492188 27.339844 15.097656 27.914062 C 14.765625 28.449219 14.386719 29.023438 13.667969 29.007812 Z M 13.128906 26.589844 L 13.320312 26.722656 L 12.976562 27.238281 C 12.71875 27.625 12.824219 28.144531 13.207031 28.398438 C 13.59375 28.660156 14.117188 28.554688 14.371094 28.167969 L 14.714844 27.644531 C 15.3125 26.714844 13.949219 25.808594 13.320312 26.710938 Z M 13.128906 26.589844 Z M 13.128906 26.589844 " fill-opacity="1" fill-rule="nonzero"/></g><path fill="#925f3d" d="M 11.710938 28.089844 C 10.707031 28.109375 10.050781 26.890625 10.632812 26.070312 C 10.632812 26.070312 11.773438 24.363281 11.773438 24.363281 C 12.765625 22.96875 14.847656 24.355469 13.933594 25.808594 C 13.933594 25.808594 12.976562 27.25 12.976562 27.25 C 12.714844 27.707031 12.273438 28.105469 11.710938 28.089844 Z M 12.855469 24.242188 C 12.585938 24.242188 12.316406 24.375 12.160156 24.617188 L 11.019531 26.324219 C 10.425781 27.25 11.785156 28.167969 12.414062 27.261719 C 12.726562 26.789062 13.242188 26.03125 13.554688 25.554688 C 13.933594 25.015625 13.503906 24.222656 12.855469 24.242188 Z M 12.855469 24.242188 " fill-opacity="1" fill-rule="nonzero"/><path fill="#925f3d" d="M 9.9375 26.898438 C 8.9375 26.9375 8.269531 25.691406 8.859375 24.878906 C 8.859375 24.878906 10.425781 22.542969 10.425781 22.542969 C 10.820312 21.945312 11.632812 21.789062 12.226562 22.183594 C 12.8125 22.558594 12.988281 23.414062 12.585938 23.988281 C 12.585938 23.988281 11.019531 26.324219 11.019531 26.324219 C 10.765625 26.691406 10.355469 26.898438 9.9375 26.898438 Z M 11.5 22.421875 C 11.230469 22.421875 10.960938 22.554688 10.804688 22.796875 L 9.238281 25.140625 C 8.644531 26.0625 10.003906 26.976562 10.632812 26.074219 L 12.199219 23.738281 C 12.578125 23.199219 12.148438 22.394531 11.5 22.421875 Z M 11.5 22.421875 " fill-opacity="1" fill-rule="nonzero"/><path fill="#925f3d" d="M 8.15625 25.707031 C 7.152344 25.730469 6.5 24.511719 7.078125 23.6875 C 7.078125 23.6875 8.003906 22.304688 8.003906 22.304688 C 8.378906 21.71875 9.234375 21.550781 9.804688 21.945312 C 10.390625 22.320312 10.558594 23.175781 10.164062 23.75 L 9.238281 25.132812 C 9 25.492188 8.585938 25.710938 8.15625 25.707031 Z M 9.085938 22.191406 C 8.808594 22.191406 8.535156 22.332031 8.382812 22.566406 L 7.457031 23.949219 C 6.863281 24.878906 8.230469 25.785156 8.851562 24.882812 L 9.777344 23.5 C 10.15625 22.972656 9.730469 22.167969 9.085938 22.191406 Z M 9.085938 22.191406 " fill-opacity="1" fill-rule="nonzero"/><path fill="#925f3d" d="M 16.226562 28.832031 C 15.726562 28.886719 15.113281 28.296875 14.726562 28.039062 C 14.625 27.964844 14.601562 27.828125 14.671875 27.726562 C 15.375 26.808594 14.003906 25.78125 13.328125 26.714844 C 13.257812 26.824219 13.113281 26.847656 13.007812 26.777344 C 12.90625 26.710938 12.878906 26.5625 12.949219 26.460938 L 13.558594 25.546875 C 14.15625 24.617188 12.792969 23.710938 12.164062 24.613281 C 12.007812 24.863281 11.613281 24.601562 11.785156 24.355469 C 11.785156 24.355469 12.203125 23.726562 12.203125 23.726562 C 12.460938 23.359375 12.351562 22.804688 11.972656 22.566406 C 11.601562 22.308594 11.046875 22.417969 10.808594 22.796875 C 10.808594 22.796875 10.167969 23.757812 10.167969 23.757812 C 10.101562 23.859375 9.960938 23.886719 9.851562 23.820312 C 9.742188 23.75 9.714844 23.601562 9.789062 23.5 C 10.214844 22.910156 9.636719 22.042969 8.925781 22.214844 C 8.707031 22.257812 8.519531 22.382812 8.394531 22.570312 C 8.261719 22.722656 8.09375 23.207031 7.816406 23.007812 C 7.617188 22.835938 7.191406 22.640625 7.152344 22.34375 L 6.671875 20.550781 C 6.652344 20.496094 6.664062 20.433594 6.691406 20.375 L 9.742188 15.097656 C 9.804688 14.984375 9.96875 14.945312 10.078125 15.027344 L 11.257812 15.886719 C 11.292969 15.90625 11.324219 15.917969 11.367188 15.917969 L 13.632812 15.917969 C 13.820312 15.914062 13.945312 16.152344 13.820312 16.292969 C 13.820312 16.292969 12.359375 18.046875 12.359375 18.046875 C 11.601562 18.980469 12.976562 20.121094 13.757812 19.214844 C 13.757812 19.214844 15.339844 17.320312 15.339844 17.320312 C 15.417969 17.230469 15.554688 17.210938 15.652344 17.28125 L 22.160156 22.019531 C 22.246094 22.082031 22.320312 22.152344 22.386719 22.226562 C 23.273438 23.207031 22.28125 24.804688 21.015625 24.453125 C 21.230469 25.410156 20.300781 26.3125 19.308594 26.007812 C 19.53125 26.992188 18.417969 27.894531 17.507812 27.46875 C 17.570312 28.171875 16.921875 28.859375 16.226562 28.832031 Z M 15.171875 27.792969 L 15.753906 28.21875 C 16.644531 28.824219 17.550781 27.542969 16.699219 26.910156 C 16.46875 26.734375 16.742188 26.363281 16.980469 26.539062 C 16.980469 26.539062 17.660156 27.035156 17.660156 27.035156 C 18.015625 27.199219 18.464844 27.074219 18.703125 26.75 C 18.925781 26.445312 18.917969 26.023438 18.691406 25.722656 C 18.542969 25.535156 18.769531 25.269531 18.980469 25.382812 L 19.09375 25.441406 C 19.519531 25.660156 20.085938 25.683594 20.398438 25.257812 C 20.691406 24.851562 20.601562 24.277344 20.199219 23.984375 C 19.957031 23.8125 20.234375 23.433594 20.472656 23.613281 C 20.472656 23.613281 20.804688 23.859375 20.804688 23.859375 C 21.683594 24.480469 22.730469 23.335938 22.03125 22.519531 C 21.984375 22.46875 21.933594 22.421875 21.878906 22.382812 L 15.542969 17.773438 L 14.097656 19.503906 C 13.359375 20.4375 11.75 19.933594 11.683594 18.75 C 11.648438 18.386719 11.761719 18.027344 11.996094 17.746094 L 13.144531 16.375 L 11.355469 16.375 C 11.210938 16.375 11.085938 16.332031 10.972656 16.25 L 10.003906 15.539062 L 7.128906 20.519531 L 7.589844 22.21875 C 7.601562 22.316406 7.828125 22.429688 7.890625 22.484375 C 8.417969 21.417969 10.011719 21.511719 10.339844 22.671875 C 11.160156 21.203125 13.332031 22.242188 12.691406 23.796875 C 13.828125 23.621094 14.609375 25.007812 13.878906 25.898438 C 14.859375 25.742188 15.675781 26.921875 15.171875 27.792969 Z M 15.171875 27.792969 " fill-opacity="1" fill-rule="nonzero"/><path fill="#925f3d" d="M 22.222656 22.589844 C 22.179688 22.589844 22.128906 22.570312 22.089844 22.542969 L 17.976562 19.546875 C 15.851562 17.984375 15.945312 18.0625 15.539062 17.773438 L 14.09375 19.503906 C 13.632812 20.074219 12.714844 20.160156 12.160156 19.679688 C 11.582031 19.191406 11.5 18.328125 11.988281 17.746094 L 13.476562 15.96875 C 14.058594 15.515625 14.710938 15.289062 15.300781 15.285156 L 19.972656 15.285156 C 20.050781 15.285156 20.132812 15.328125 20.171875 15.398438 L 23.628906 21.378906 C 23.6875 21.480469 23.660156 21.613281 23.566406 21.679688 C 23.484375 21.710938 22.296875 22.644531 22.222656 22.589844 Z M 15.941406 17.496094 C 16.019531 17.535156 21.414062 21.492188 22.222656 22.070312 L 23.125 21.425781 L 19.84375 15.738281 L 15.304688 15.738281 C 14.824219 15.738281 14.324219 15.917969 13.808594 16.28125 L 12.347656 18.035156 C 12.023438 18.402344 12.078125 19.015625 12.460938 19.320312 C 12.84375 19.644531 13.421875 19.59375 13.746094 19.207031 L 15.328125 17.316406 C 15.511719 17.085938 15.78125 17.398438 15.941406 17.496094 Z M 15.941406 17.496094 " fill-opacity="1" fill-rule="nonzero"/><g clip-path="url(#490d05de27)"><path fill="#925f3d" d="M 9.691406 14.328125 L 8.378906 13.566406 C 8.070312 13.390625 7.726562 13.40625 7.613281 13.601562 L 3.789062 20.222656 C 3.675781 20.421875 3.835938 20.726562 4.140625 20.902344 L 5.457031 21.664062 C 5.761719 21.839844 6.109375 21.824219 6.222656 21.628906 C 7.5 19.425781 8.769531 17.21875 10.042969 15.011719 C 10.15625 14.8125 10 14.507812 9.691406 14.328125 Z M 9.691406 14.328125 " fill-opacity="1" fill-rule="evenodd"/></g><g clip-path="url(#d50cf31431)"><path fill="#925f3d" d="M 5.882812 22.015625 C 5.472656 22.0625 4.386719 21.265625 4.027344 21.101562 C 3.675781 20.914062 3.386719 20.46875 3.589844 20.109375 L 7.414062 13.492188 C 7.59375 13.179688 8.066406 13.128906 8.492188 13.375 L 9.804688 14.132812 C 10.15625 14.320312 10.445312 14.769531 10.242188 15.125 L 6.421875 21.742188 C 6.324219 21.917969 6.113281 22.019531 5.882812 22.015625 Z M 7.945312 13.675781 C 7.871094 13.675781 7.820312 13.691406 7.808594 13.71875 L 3.988281 20.335938 C 3.964844 20.480469 4.117188 20.621094 4.253906 20.707031 L 5.570312 21.464844 C 5.707031 21.542969 5.910156 21.605469 6.023438 21.515625 C 6.023438 21.515625 9.84375 14.898438 9.84375 14.898438 C 9.867188 14.757812 9.714844 14.609375 9.578125 14.53125 C 9.359375 14.433594 8.171875 13.632812 7.945312 13.675781 Z M 7.945312 13.675781 " fill-opacity="1" fill-rule="nonzero"/></g><path fill="#925f3d" d="M 20.421875 24.097656 C 20.375 24.097656 20.324219 24.078125 20.285156 24.050781 L 17 21.664062 C 16.757812 21.492188 17.035156 21.113281 17.273438 21.296875 C 17.273438 21.296875 20.558594 23.6875 20.558594 23.6875 C 20.734375 23.808594 20.628906 24.109375 20.421875 24.097656 Z M 20.421875 24.097656 " fill-opacity="1" fill-rule="nonzero"/><path fill="#925f3d" d="M 18.867188 25.820312 C 18.820312 25.820312 18.769531 25.804688 18.730469 25.773438 L 15.855469 23.683594 C 15.613281 23.511719 15.882812 23.132812 16.128906 23.3125 L 19.003906 25.40625 C 19.183594 25.523438 19.082031 25.824219 18.867188 25.820312 Z M 18.867188 25.820312 " fill-opacity="1" fill-rule="nonzero"/><path fill="#925f3d" d="M 16.835938 26.960938 C 16.792969 26.960938 16.742188 26.941406 16.699219 26.914062 L 14.851562 25.566406 C 14.609375 25.394531 14.886719 25.015625 15.125 25.195312 L 16.972656 26.546875 C 17.15625 26.664062 17.050781 26.964844 16.835938 26.960938 Z M 16.835938 26.960938 " fill-opacity="1" fill-rule="nonzero"/><path fill="#925f3d" d="M 21.25 10.417969 L 18.226562 10.417969 C 18.125 10.417969 18.039062 10.355469 18.011719 10.261719 C 17.984375 10.164062 18.015625 10.0625 18.097656 10.003906 C 18.375 9.800781 18.542969 9.476562 18.542969 9.132812 C 18.503906 7.714844 16.433594 7.714844 16.394531 9.132812 C 16.394531 9.476562 16.558594 9.800781 16.84375 10.003906 C 17.023438 10.125 16.921875 10.429688 16.707031 10.417969 C 16.707031 10.417969 13.683594 10.417969 13.683594 10.417969 C 13.558594 10.417969 13.457031 10.316406 13.457031 10.191406 L 13.457031 7.699219 C 12.480469 8.359375 11.066406 7.59375 11.09375 6.410156 C 11.058594 5.226562 12.480469 4.460938 13.457031 5.125 L 13.457031 2.628906 C 13.457031 2.503906 13.558594 2.402344 13.683594 2.402344 L 16.707031 2.402344 C 16.921875 2.394531 17.019531 2.695312 16.84375 2.816406 C 16.566406 3.019531 16.394531 3.34375 16.394531 3.6875 C 16.433594 5.105469 18.503906 5.105469 18.542969 3.6875 C 18.542969 3.34375 18.378906 3.019531 18.097656 2.816406 C 17.914062 2.695312 18.015625 2.390625 18.230469 2.402344 L 21.253906 2.402344 C 21.378906 2.402344 21.480469 2.503906 21.480469 2.628906 L 21.480469 5.125 C 22.457031 4.460938 23.875 5.230469 23.847656 6.410156 C 23.878906 7.59375 22.457031 8.359375 21.480469 7.699219 L 21.480469 10.191406 C 21.476562 10.316406 21.375 10.417969 21.25 10.417969 Z M 18.753906 9.960938 L 21.015625 9.960938 L 21.015625 7.171875 C 21.015625 7.066406 21.078125 6.984375 21.175781 6.953125 C 21.265625 6.925781 21.375 6.953125 21.429688 7.039062 C 22.015625 7.878906 23.398438 7.4375 23.375 6.410156 C 23.390625 5.382812 22.007812 4.941406 21.429688 5.78125 C 21.375 5.859375 21.265625 5.894531 21.175781 5.867188 C 21.078125 5.835938 21.015625 5.746094 21.015625 5.652344 L 21.015625 2.855469 L 18.753906 2.855469 C 19.417969 3.832031 18.652344 5.246094 17.464844 5.21875 C 16.28125 5.253906 15.515625 3.832031 16.179688 2.855469 L 13.917969 2.855469 L 13.917969 5.644531 C 13.917969 5.746094 13.855469 5.832031 13.757812 5.859375 C 13.660156 5.890625 13.558594 5.855469 13.503906 5.773438 C 12.917969 4.9375 11.535156 5.378906 11.558594 6.40625 C 11.542969 7.429688 12.917969 7.875 13.503906 7.035156 C 13.558594 6.953125 13.667969 6.921875 13.757812 6.949219 C 13.855469 6.976562 13.917969 7.066406 13.917969 7.164062 L 13.917969 9.953125 L 16.179688 9.953125 C 15.515625 8.980469 16.289062 7.5625 17.464844 7.589844 C 18.652344 7.566406 19.417969 8.984375 18.753906 9.960938 Z M 18.753906 9.960938 " fill-opacity="1" fill-rule="nonzero"/><path fill="#925f3d" d="M 9.136719 10.1875 L 6.113281 10.1875 L 6.113281 7.164062 C 6.804688 8.179688 8.5 7.652344 8.480469 6.40625 C 8.507812 5.15625 6.8125 4.628906 6.113281 5.644531 L 6.113281 2.621094 L 9.136719 2.621094 C 8.128906 1.929688 8.65625 0.234375 9.902344 0.265625 C 11.148438 0.234375 11.675781 1.929688 10.664062 2.628906 L 13.683594 2.628906 L 13.683594 5.652344 C 12.992188 4.636719 11.296875 5.164062 11.320312 6.410156 C 11.292969 7.65625 12.988281 8.183594 13.683594 7.171875 L 13.683594 10.191406 L 10.664062 10.191406 C 11.675781 10.882812 11.148438 12.578125 9.902344 12.558594 C 8.65625 12.578125 8.128906 10.878906 9.136719 10.1875 Z M 9.136719 10.1875 " fill-opacity="1" fill-rule="evenodd"/><path fill="#925f3d" d="M 9.902344 12.777344 C 8.71875 12.8125 7.953125 11.390625 8.613281 10.414062 L 6.121094 10.414062 C 5.996094 10.414062 5.894531 10.3125 5.894531 10.1875 L 5.894531 7.164062 C 5.886719 6.949219 6.1875 6.851562 6.308594 7.027344 C 6.511719 7.304688 6.835938 7.476562 7.179688 7.476562 C 8.597656 7.4375 8.597656 5.367188 7.179688 5.328125 C 6.835938 5.328125 6.511719 5.492188 6.308594 5.773438 C 6.1875 5.957031 5.882812 5.855469 5.894531 5.640625 C 5.894531 5.640625 5.894531 2.617188 5.894531 2.617188 C 5.894531 2.492188 5.996094 2.390625 6.121094 2.390625 L 8.613281 2.390625 C 7.953125 1.421875 8.71875 0.00390625 9.902344 0.03125 C 11.085938 0.00390625 11.851562 1.421875 11.191406 2.394531 L 13.683594 2.394531 C 13.808594 2.394531 13.910156 2.496094 13.910156 2.621094 L 13.910156 5.644531 C 13.917969 5.859375 13.617188 5.957031 13.496094 5.78125 C 13.292969 5.503906 12.96875 5.332031 12.625 5.332031 C 11.207031 5.371094 11.207031 7.441406 12.625 7.480469 C 12.96875 7.480469 13.292969 7.316406 13.496094 7.035156 C 13.617188 6.851562 13.921875 6.953125 13.910156 7.171875 C 13.910156 7.171875 13.910156 10.191406 13.910156 10.191406 C 13.910156 10.316406 13.808594 10.417969 13.683594 10.417969 L 11.191406 10.417969 C 11.851562 11.390625 11.085938 12.8125 9.902344 12.777344 Z M 6.347656 9.960938 L 9.136719 9.960938 C 9.238281 9.960938 9.324219 10.023438 9.351562 10.117188 C 9.378906 10.214844 9.347656 10.316406 9.265625 10.375 C 8.429688 10.957031 8.871094 12.339844 9.898438 12.320312 C 10.921875 12.335938 11.367188 10.957031 10.527344 10.375 C 10.445312 10.316406 10.414062 10.210938 10.441406 10.117188 C 10.46875 10.023438 10.558594 9.960938 10.65625 9.960938 L 13.445312 9.960938 L 13.445312 7.699219 C 12.472656 8.359375 11.054688 7.59375 11.082031 6.410156 C 11.046875 5.226562 12.472656 4.460938 13.445312 5.125 L 13.445312 2.855469 L 10.65625 2.855469 C 10.554688 2.855469 10.46875 2.792969 10.441406 2.695312 C 10.414062 2.601562 10.445312 2.496094 10.527344 2.441406 C 11.367188 1.855469 10.921875 0.472656 9.898438 0.496094 C 8.871094 0.480469 8.429688 1.855469 9.265625 2.441406 C 9.347656 2.496094 9.378906 2.605469 9.351562 2.695312 C 9.324219 2.792969 9.234375 2.855469 9.136719 2.855469 L 6.347656 2.855469 L 6.347656 5.117188 C 7.324219 4.453125 8.738281 5.226562 8.710938 6.40625 C 8.746094 7.589844 7.324219 8.355469 6.347656 7.691406 Z M 6.347656 9.960938 " fill-opacity="1" fill-rule="nonzero"/></svg>