<svg xmlns="http://www.w3.org/2000/svg" xmlns:xlink="http://www.w3.org/1999/xlink" width="40" zoomAndPan="magnify" viewBox="0 0 30 30.000001" height="40" preserveAspectRatio="xMidYMid meet" version="1.0"><defs><clipPath id="5c4e47b59e"><path d="M 0.484375 0 L 29.515625 0 L 29.515625 29.03125 L 0.484375 29.03125 Z M 0.484375 0 " clip-rule="nonzero"/></clipPath><clipPath id="848a552bbd"><path d="M 0.484375 3.628906 L 29.515625 3.628906 L 29.515625 29.03125 L 0.484375 29.03125 Z M 0.484375 3.628906 " clip-rule="nonzero"/></clipPath></defs><g clip-path="url(#5c4e47b59e)"><path fill="#ffffff" d="M 0.484375 0 L 29.515625 0 L 29.515625 29.03125 L 0.484375 29.03125 Z M 0.484375 0 " fill-opacity="1" fill-rule="nonzero"/><path fill="#ffffff" d="M 0.484375 0 L 29.515625 0 L 29.515625 29.03125 L 0.484375 29.03125 Z M 0.484375 0 " fill-opacity="1" fill-rule="nonzero"/></g><g clip-path="url(#848a552bbd)"><path fill="#925f3d" d="M 27.285156 3.632812 L 2.714844 3.632812 C 1.488281 3.632812 0.484375 4.636719 0.484375 5.863281 L 0.484375 21.21875 C 0.484375 22.445312 1.488281 23.449219 2.714844 23.449219 L 10.4375 23.449219 L 10.4375 26.996094 L 7.039062 26.996094 C 5.992188 26.996094 5.136719 27.679688 5.136719 28.515625 L 5.136719 30.039062 L 24.863281 30.039062 L 24.863281 28.515625 C 24.863281 27.679688 24.007812 26.996094 22.960938 26.996094 L 19.5625 26.996094 L 19.5625 23.449219 L 27.285156 23.449219 C 28.511719 23.449219 29.515625 22.445312 29.515625 21.21875 L 29.515625 5.863281 C 29.515625 4.636719 28.511719 3.632812 27.285156 3.632812 Z M 27.648438 19.691406 L 2.351562 19.691406 L 2.351562 17.574219 C 1.871094 17.566406 1.394531 17.570312 0.914062 17.570312 L 0.914062 7.722656 C 1.394531 7.722656 1.871094 7.71875 2.351562 7.722656 L 2.351562 5.808594 C 2.351562 5.636719 2.488281 5.5 2.660156 5.5 L 27.339844 5.5 C 27.511719 5.5 27.648438 5.636719 27.648438 5.808594 Z M 23 8.097656 C 22.25 7.691406 21.417969 7.484375 20.5625 7.484375 C 17.738281 7.484375 15.453125 9.773438 15.453125 12.59375 C 15.453125 13.527344 15.695312 14.421875 16.175781 15.222656 C 16.3125 15.449219 16.238281 15.746094 16.007812 15.882812 C 15.78125 16.019531 15.484375 15.945312 15.347656 15.71875 C 14.78125 14.773438 14.484375 13.695312 14.484375 12.59375 C 14.484375 9.238281 17.207031 6.515625 20.5625 6.515625 C 21.617188 6.515625 22.65625 6.792969 23.574219 7.316406 C 23.621094 7.164062 23.738281 7.039062 23.902344 6.992188 C 24.160156 6.917969 24.425781 7.066406 24.5 7.324219 L 24.785156 8.316406 C 24.875 8.632812 24.625 8.945312 24.300781 8.933594 L 23.304688 8.96875 C 23.039062 8.976562 22.816406 8.769531 22.804688 8.503906 C 22.800781 8.339844 22.875 8.191406 23 8.097656 Z M 17.550781 17.875 C 17.503906 18.027344 17.386719 18.152344 17.222656 18.199219 C 16.964844 18.273438 16.695312 18.121094 16.625 17.867188 L 16.339844 16.875 C 16.25 16.554688 16.5 16.246094 16.824219 16.257812 L 17.820312 16.222656 C 18.085938 16.210938 18.308594 16.421875 18.320312 16.6875 C 18.324219 16.851562 18.25 17 18.125 17.089844 C 18.875 17.5 19.707031 17.707031 20.5625 17.707031 C 23.386719 17.707031 25.671875 15.417969 25.671875 12.59375 C 25.671875 11.6875 25.4375 10.808594 24.980469 10.023438 C 24.847656 9.792969 24.925781 9.5 25.15625 9.363281 C 25.386719 9.230469 25.683594 9.308594 25.816406 9.539062 C 26.359375 10.46875 26.640625 11.519531 26.640625 12.59375 C 26.640625 15.953125 23.917969 18.671875 20.5625 18.671875 C 19.503906 18.671875 18.46875 18.398438 17.550781 17.875 Z M 23.675781 11.851562 C 23.597656 11.523438 23.464844 11.207031 23.289062 10.917969 L 23.558594 10.3125 L 22.84375 9.601562 L 22.238281 9.867188 C 21.949219 9.691406 21.632812 9.5625 21.304688 9.480469 L 21.066406 8.863281 L 20.058594 8.863281 L 19.820312 9.480469 C 19.488281 9.5625 19.175781 9.691406 18.886719 9.867188 L 18.28125 9.601562 L 17.566406 10.3125 L 17.835938 10.917969 C 17.660156 11.207031 17.527344 11.523438 17.449219 11.851562 L 16.832031 12.089844 L 16.832031 13.101562 L 17.449219 13.339844 C 17.527344 13.667969 17.660156 13.980469 17.835938 14.269531 L 17.566406 14.875 L 18.28125 15.589844 L 18.886719 15.320312 C 19.175781 15.5 19.488281 15.628906 19.820312 15.707031 L 20.058594 16.324219 L 21.066406 16.324219 L 21.304688 15.707031 C 21.636719 15.628906 21.949219 15.5 22.238281 15.320312 L 22.84375 15.589844 L 23.558594 14.875 L 23.289062 14.269531 C 23.464844 13.980469 23.597656 13.667969 23.675781 13.339844 L 24.292969 13.101562 L 24.292969 12.089844 Z M 20.5625 14.355469 C 19.589844 14.355469 18.800781 13.566406 18.800781 12.59375 C 18.800781 11.621094 19.589844 10.832031 20.5625 10.832031 C 21.535156 10.832031 22.324219 11.621094 22.324219 12.59375 C 22.324219 13.566406 21.535156 14.355469 20.5625 14.355469 Z M 8.214844 9.402344 L 8.214844 17.464844 C 9.679688 16.800781 11.644531 16.605469 13.578125 16.605469 L 13.578125 8.6875 C 10.84375 8.6875 9.992188 8.921875 8.214844 9.402344 Z M 9.488281 10.128906 C 10.390625 9.90625 11.246094 9.789062 12.171875 9.742188 C 12.4375 9.726562 12.664062 9.933594 12.675781 10.199219 C 12.691406 10.464844 12.484375 10.691406 12.21875 10.703125 C 11.355469 10.75 10.554688 10.859375 9.714844 11.066406 C 9.453125 11.128906 9.195312 10.96875 9.132812 10.710938 C 9.070312 10.449219 9.226562 10.191406 9.488281 10.128906 Z M 9.484375 11.808594 C 10.378906 11.582031 11.25 11.464844 12.167969 11.414062 C 12.433594 11.398438 12.664062 11.601562 12.675781 11.867188 C 12.691406 12.136719 12.488281 12.363281 12.222656 12.378906 C 11.363281 12.425781 10.550781 12.535156 9.71875 12.746094 C 9.457031 12.8125 9.195312 12.652344 9.132812 12.394531 C 9.066406 12.136719 9.222656 11.875 9.484375 11.808594 Z M 12.222656 14.050781 C 11.371094 14.101562 10.546875 14.210938 9.722656 14.425781 C 9.464844 14.492188 9.199219 14.335938 9.132812 14.078125 C 9.066406 13.820312 9.222656 13.558594 9.480469 13.492188 C 10.371094 13.257812 11.25 13.140625 12.167969 13.085938 C 12.433594 13.070312 12.660156 13.273438 12.675781 13.539062 C 12.691406 13.804688 12.488281 14.035156 12.222656 14.050781 Z M 12.226562 15.722656 C 11.378906 15.773438 10.542969 15.886719 9.722656 16.101562 C 9.464844 16.171875 9.199219 16.015625 9.132812 15.757812 C 9.066406 15.5 9.21875 15.238281 9.476562 15.167969 C 10.363281 14.933594 11.253906 14.816406 12.164062 14.757812 C 12.429688 14.742188 12.660156 14.941406 12.675781 15.210938 C 12.695312 15.476562 12.492188 15.703125 12.226562 15.722656 Z M 1.882812 8.6875 L 1.882812 16.605469 C 3.820312 16.605469 5.785156 16.800781 7.246094 17.464844 L 7.246094 9.402344 C 5.46875 8.921875 4.617188 8.6875 1.882812 8.6875 Z M 3.289062 9.742188 C 4.21875 9.789062 5.074219 9.90625 5.976562 10.128906 C 6.234375 10.191406 6.394531 10.449219 6.332031 10.710938 C 6.269531 10.96875 6.007812 11.128906 5.75 11.066406 C 4.910156 10.859375 4.105469 10.746094 3.246094 10.703125 C 2.976562 10.691406 2.773438 10.464844 2.785156 10.199219 C 2.796875 9.933594 3.023438 9.726562 3.289062 9.742188 Z M 6.328125 15.757812 C 6.261719 16.015625 5.996094 16.171875 5.738281 16.101562 C 4.921875 15.886719 4.082031 15.773438 3.238281 15.722656 C 2.972656 15.703125 2.769531 15.476562 2.785156 15.210938 C 2.800781 14.941406 3.03125 14.742188 3.296875 14.757812 C 4.210938 14.816406 5.101562 14.933594 5.984375 15.167969 C 6.242188 15.238281 6.398438 15.5 6.328125 15.757812 Z M 2.785156 13.539062 C 2.800781 13.273438 3.03125 13.070312 3.296875 13.085938 C 4.214844 13.140625 5.09375 13.257812 5.984375 13.492188 C 6.242188 13.558594 6.394531 13.820312 6.328125 14.078125 C 6.261719 14.335938 6 14.492188 5.742188 14.425781 C 4.914062 14.210938 4.089844 14.101562 3.238281 14.050781 C 2.972656 14.035156 2.769531 13.804688 2.785156 13.539062 Z M 6.332031 12.394531 C 6.265625 12.652344 6.003906 12.8125 5.746094 12.746094 C 4.910156 12.535156 4.101562 12.425781 3.242188 12.378906 C 2.976562 12.363281 2.769531 12.136719 2.785156 11.867188 C 2.800781 11.601562 3.027344 11.398438 3.292969 11.414062 C 4.214844 11.464844 5.085938 11.582031 5.980469 11.808594 C 6.238281 11.875 6.394531 12.136719 6.332031 12.394531 Z M 6.332031 12.394531 " fill-opacity="1" fill-rule="evenodd"/></g></svg>