<svg xmlns="http://www.w3.org/2000/svg" xmlns:xlink="http://www.w3.org/1999/xlink" width="40" zoomAndPan="magnify" viewBox="0 0 30 30.000001" height="40" preserveAspectRatio="xMidYMid meet" version="1.0"><defs><clipPath id="83429e2621"><path d="M 0.484375 0 L 29.515625 0 L 29.515625 29.03125 L 0.484375 29.03125 Z M 0.484375 0 " clip-rule="nonzero"/></clipPath><clipPath id="31d4d2e0cd"><path d="M 1.773438 0 L 27.902344 0 L 27.902344 29 L 1.773438 29 Z M 1.773438 0 " clip-rule="nonzero"/></clipPath></defs><g clip-path="url(#83429e2621)"><path fill="#ffffff" d="M 0.484375 0 L 29.515625 0 L 29.515625 29.03125 L 0.484375 29.03125 Z M 0.484375 0 " fill-opacity="1" fill-rule="nonzero"/><path fill="#ffffff" d="M 0.484375 0 L 29.515625 0 L 29.515625 29.03125 L 0.484375 29.03125 Z M 0.484375 0 " fill-opacity="1" fill-rule="nonzero"/></g><g clip-path="url(#31d4d2e0cd)"><path fill="#925f3d" d="M 7.183594 25.894531 L 5.582031 23.066406 L 7.683594 21.851562 C 8.253906 21.519531 8.832031 21.246094 9.460938 21.453125 C 10.320312 21.730469 11.71875 22.324219 13.152344 22.585938 C 13.417969 22.6875 13.59375 22.953125 13.519531 23.230469 C 13.445312 23.507812 13.203125 23.632812 12.882812 23.597656 C 12.101562 23.4375 11.375 23.199219 10.574219 22.984375 C 10.316406 22.914062 10.050781 23.066406 9.984375 23.324219 C 9.914062 23.582031 10.066406 23.84375 10.324219 23.914062 C 11.152344 24.136719 11.902344 24.378906 12.707031 24.546875 L 12.710938 24.546875 C 12.714844 24.546875 12.722656 24.546875 12.726562 24.550781 L 13.171875 24.621094 C 13.855469 24.730469 14.480469 24.632812 15.078125 24.285156 L 18.644531 22.207031 C 20.035156 21.398438 20.636719 21.761719 20.621094 22.351562 C 20.613281 22.539062 20.550781 22.730469 20.40625 22.820312 L 13.9375 26.800781 C 13.460938 27.097656 12.9375 27.164062 12.394531 27.019531 L 7.703125 25.761719 C 7.578125 25.726562 7.449219 25.746094 7.335938 25.808594 Z M 4.105469 22.410156 L 7.046875 27.605469 C 7.1875 27.855469 7.097656 28.179688 6.847656 28.320312 L 5.847656 28.886719 C 5.597656 29.027344 5.273438 28.9375 5.132812 28.6875 L 2.191406 23.492188 C 2.050781 23.242188 2.140625 22.921875 2.390625 22.777344 L 3.390625 22.210938 C 3.640625 22.070312 3.964844 22.160156 4.105469 22.410156 Z M 3.421875 23.132812 C 3.195312 23.164062 3.039062 23.375 3.070312 23.601562 C 3.105469 23.828125 3.316406 23.988281 3.542969 23.953125 C 3.769531 23.921875 3.925781 23.707031 3.894531 23.480469 C 3.859375 23.253906 3.648438 23.097656 3.421875 23.132812 Z M 23.082031 3.128906 L 24.683594 5.960938 L 22.585938 7.175781 C 22.011719 7.507812 21.4375 7.777344 20.808594 7.574219 C 19.949219 7.296875 18.546875 6.703125 17.117188 6.4375 C 16.847656 6.339844 16.671875 6.074219 16.746094 5.796875 C 16.820312 5.519531 17.0625 5.394531 17.386719 5.425781 C 18.167969 5.589844 18.890625 5.828125 19.695312 6.042969 C 19.953125 6.113281 20.214844 5.960938 20.285156 5.703125 C 20.355469 5.445312 20.203125 5.183594 19.945312 5.113281 C 19.113281 4.890625 18.367188 4.644531 17.558594 4.480469 C 17.550781 4.480469 17.546875 4.476562 17.539062 4.476562 L 17.097656 4.40625 C 17.097656 4.40625 17.097656 4.40625 17.09375 4.40625 C 16.414062 4.296875 15.785156 4.394531 15.1875 4.742188 L 11.625 6.816406 C 10.230469 7.628906 9.632812 7.265625 9.648438 6.675781 C 9.652344 6.488281 9.714844 6.296875 9.863281 6.207031 L 16.332031 2.226562 L 16.332031 2.222656 C 16.808594 1.929688 17.332031 1.863281 17.875 2.007812 L 22.566406 3.265625 C 22.6875 3.296875 22.820312 3.28125 22.929688 3.21875 Z M 26.160156 6.617188 L 23.222656 1.421875 C 23.078125 1.167969 23.167969 0.847656 23.421875 0.707031 L 24.417969 0.140625 C 24.671875 -0.00390625 24.992188 0.0859375 25.136719 0.339844 L 28.074219 5.53125 C 28.21875 5.785156 28.128906 6.105469 27.878906 6.246094 L 26.875 6.8125 C 26.625 6.957031 26.304688 6.867188 26.160156 6.617188 Z M 26.84375 5.894531 C 27.070312 5.863281 27.226562 5.652344 27.195312 5.425781 C 27.160156 5.199219 26.949219 5.039062 26.722656 5.074219 C 26.496094 5.105469 26.339844 5.316406 26.371094 5.542969 C 26.40625 5.769531 26.617188 5.929688 26.84375 5.894531 Z M 4.941406 12.285156 L 5.730469 12.804688 C 5.734375 12.804688 5.734375 12.804688 5.734375 12.804688 C 6.578125 13.351562 7.65625 12.5625 7.390625 11.59375 C 7.390625 11.59375 7.195312 10.882812 7.054688 10.363281 L 7.984375 9.617188 L 22.003906 9.617188 L 22.003906 19.347656 L 4.941406 19.347656 Z M 6.410156 18.164062 L 13.472656 18.164062 C 13.28125 16.382812 11.773438 14.996094 9.941406 14.996094 C 8.109375 14.996094 6.601562 16.382812 6.410156 18.164062 Z M 14.976562 14.996094 L 19.820312 14.996094 C 20.085938 14.996094 20.300781 14.777344 20.300781 14.511719 C 20.300781 14.246094 20.085938 14.03125 19.820312 14.03125 L 14.976562 14.03125 C 14.710938 14.03125 14.496094 14.246094 14.496094 14.511719 C 14.496094 14.777344 14.710938 14.996094 14.976562 14.996094 Z M 14.976562 13.152344 L 19.820312 13.152344 C 20.085938 13.152344 20.300781 12.933594 20.300781 12.667969 C 20.300781 12.402344 20.085938 12.1875 19.820312 12.1875 L 14.976562 12.1875 C 14.710938 12.1875 14.496094 12.402344 14.496094 12.667969 C 14.496094 12.933594 14.710938 13.152344 14.976562 13.152344 Z M 14.976562 16.777344 L 19.820312 16.777344 C 20.085938 16.777344 20.300781 16.5625 20.300781 16.296875 C 20.300781 16.03125 20.085938 15.8125 19.820312 15.8125 L 14.976562 15.8125 C 14.710938 15.8125 14.496094 16.03125 14.496094 16.296875 C 14.496094 16.5625 14.710938 16.777344 14.976562 16.777344 Z M 9.941406 14.394531 C 10.929688 14.394531 11.738281 13.585938 11.738281 12.597656 C 11.738281 11.609375 10.929688 10.800781 9.941406 10.800781 C 8.953125 10.800781 8.144531 11.609375 8.144531 12.597656 C 8.144531 13.585938 8.953125 14.394531 9.941406 14.394531 Z M 4.789062 6.695312 L 5.433594 8.398438 C 5.453125 8.449219 5.496094 8.480469 5.550781 8.484375 L 7.371094 8.574219 C 7.496094 8.578125 7.542969 8.734375 7.449219 8.8125 L 6.03125 9.953125 C 5.988281 9.988281 5.96875 10.039062 5.984375 10.09375 L 6.460938 11.847656 C 6.496094 11.96875 6.363281 12.0625 6.257812 11.996094 L 4.734375 11 C 4.691406 10.96875 4.632812 10.96875 4.585938 11 L 3.066406 11.996094 C 2.960938 12.0625 2.828125 11.96875 2.863281 11.847656 L 3.339844 10.09375 C 3.351562 10.039062 3.335938 9.988281 3.292969 9.953125 L 1.875 8.8125 C 1.777344 8.734375 1.828125 8.578125 1.953125 8.574219 L 3.769531 8.484375 C 3.824219 8.480469 3.871094 8.449219 3.890625 8.398438 L 4.535156 6.695312 C 4.578125 6.582031 4.742188 6.582031 4.789062 6.695312 Z M 4.789062 6.695312 " fill-opacity="1" fill-rule="evenodd"/></g></svg>