<svg xmlns="http://www.w3.org/2000/svg" xmlns:xlink="http://www.w3.org/1999/xlink" width="40" zoomAndPan="magnify" viewBox="0 0 30 30.000001" height="40" preserveAspectRatio="xMidYMid meet" version="1.0"><defs><clipPath id="e2ee894b79"><path d="M 0.484375 0 L 29.515625 0 L 29.515625 29.03125 L 0.484375 29.03125 Z M 0.484375 0 " clip-rule="nonzero"/></clipPath><clipPath id="f56df3794e"><path d="M 20 0 L 29.152344 0 L 29.152344 10 L 20 10 Z M 20 0 " clip-rule="nonzero"/></clipPath><clipPath id="72597ad4d4"><path d="M 0.847656 0 L 10 0 L 10 10 L 0.847656 10 Z M 0.847656 0 " clip-rule="nonzero"/></clipPath><clipPath id="64e070438a"><path d="M 0.847656 20 L 10 20 L 10 29 L 0.847656 29 Z M 0.847656 20 " clip-rule="nonzero"/></clipPath></defs><g clip-path="url(#e2ee894b79)"><path fill="#ffffff" d="M 0.484375 0 L 29.515625 0 L 29.515625 29.03125 L 0.484375 29.03125 Z M 0.484375 0 " fill-opacity="1" fill-rule="nonzero"/><path fill="#ffffff" d="M 0.484375 0 L 29.515625 0 L 29.515625 29.03125 L 0.484375 29.03125 Z M 0.484375 0 " fill-opacity="1" fill-rule="nonzero"/></g><path fill="#925f3d" d="M 10.757812 18.433594 C 8.492188 16.171875 8.492188 12.503906 10.757812 10.242188 C 13.015625 7.980469 16.6875 7.980469 18.949219 10.242188 C 21.210938 12.503906 21.210938 16.171875 18.949219 18.433594 C 16.6875 20.695312 13.015625 20.695312 10.757812 18.433594 Z M 19.460938 20.351562 L 20.667969 21.558594 L 22.074219 20.152344 L 20.867188 18.945312 C 23.148438 15.972656 22.9375 11.699219 20.214844 8.976562 C 17.253906 6.015625 12.449219 6.015625 9.488281 8.976562 C 6.527344 11.9375 6.527344 16.738281 9.488281 19.699219 C 12.214844 22.421875 16.488281 22.636719 19.460938 20.351562 " fill-opacity="1" fill-rule="nonzero"/><path fill="#925f3d" d="M 20.296875 21.683594 L 22.199219 19.78125 C 22.292969 19.6875 22.449219 19.6875 22.542969 19.78125 L 23.265625 20.503906 L 21.019531 22.75 L 20.296875 22.027344 C 20.203125 21.933594 20.203125 21.78125 20.296875 21.683594 " fill-opacity="1" fill-rule="nonzero"/><path fill="#925f3d" d="M 20.765625 23.238281 C 20.699219 23.171875 20.699219 23.066406 20.765625 23.003906 L 23.515625 20.25 C 23.582031 20.1875 23.6875 20.1875 23.75 20.25 L 27.515625 24.015625 L 24.53125 27 L 20.765625 23.238281 " fill-opacity="1" fill-rule="nonzero"/><path fill="#925f3d" d="M 27.515625 24.015625 L 28.128906 24.628906 C 28.195312 24.695312 28.195312 24.800781 28.128906 24.863281 L 25.378906 27.617188 C 25.3125 27.679688 25.210938 27.679688 25.144531 27.617188 L 24.53125 27 L 27.515625 24.015625 " fill-opacity="1" fill-rule="nonzero"/><path fill="#925f3d" d="M 4.898438 14.898438 L 6.972656 14.898438 L 6.972656 16.871094 L 4.898438 16.871094 L 4.898438 14.898438 " fill-opacity="1" fill-rule="nonzero"/><path fill="#925f3d" d="M 4.898438 16.871094 L 6.972656 16.871094 L 6.972656 17.277344 L 4.898438 17.277344 L 4.898438 16.871094 " fill-opacity="1" fill-rule="nonzero"/><path fill="#925f3d" d="M 7.878906 16.871094 L 9.949219 16.871094 L 9.949219 17.277344 L 7.878906 17.277344 L 7.878906 16.871094 " fill-opacity="1" fill-rule="nonzero"/><path fill="#925f3d" d="M 7.878906 12.550781 L 9.949219 12.550781 L 9.949219 16.871094 L 7.878906 16.871094 L 7.878906 12.550781 " fill-opacity="1" fill-rule="nonzero"/><path fill="#925f3d" d="M 10.855469 16.871094 L 12.929688 16.871094 L 12.929688 17.277344 L 10.855469 17.277344 L 10.855469 16.871094 " fill-opacity="1" fill-rule="nonzero"/><path fill="#925f3d" d="M 10.855469 13.859375 L 12.929688 13.859375 L 12.929688 16.871094 L 10.855469 16.871094 L 10.855469 13.859375 " fill-opacity="1" fill-rule="nonzero"/><path fill="#925f3d" d="M 13.835938 9.765625 L 15.910156 9.765625 L 15.910156 16.871094 L 13.835938 16.871094 L 13.835938 9.765625 " fill-opacity="1" fill-rule="nonzero"/><path fill="#925f3d" d="M 13.835938 16.871094 L 15.910156 16.871094 L 15.910156 17.277344 L 13.835938 17.277344 L 13.835938 16.871094 " fill-opacity="1" fill-rule="nonzero"/><path fill="#925f3d" d="M 16.816406 11.863281 L 18.890625 11.863281 L 18.890625 16.871094 L 16.816406 16.871094 L 16.816406 11.863281 " fill-opacity="1" fill-rule="nonzero"/><path fill="#925f3d" d="M 16.816406 16.871094 L 18.890625 16.871094 L 18.890625 17.277344 L 16.816406 17.277344 L 16.816406 16.871094 " fill-opacity="1" fill-rule="nonzero"/><path fill="#925f3d" d="M 4.898438 17.683594 L 18.890625 17.683594 L 18.890625 18.253906 L 4.898438 18.253906 L 4.898438 17.683594 " fill-opacity="1" fill-rule="nonzero"/><path fill="#925f3d" d="M 4.898438 18.78125 L 18.890625 18.78125 L 18.890625 19.347656 L 4.898438 19.347656 L 4.898438 18.78125 " fill-opacity="1" fill-rule="nonzero"/><path fill="#925f3d" d="M 24.671875 5.878906 C 24.859375 5.617188 25.019531 5.394531 25.179688 5.164062 C 25.367188 4.898438 25.554688 4.8125 25.847656 4.914062 C 26.222656 5.039062 26.59375 5.179688 26.957031 5.339844 C 27.269531 5.472656 27.441406 5.714844 27.421875 6.074219 C 27.414062 6.25 27.421875 6.429688 27.421875 6.605469 C 27.414062 7.09375 27.191406 7.320312 26.710938 7.324219 C 26.085938 7.328125 25.460938 7.324219 24.835938 7.324219 C 24.109375 7.324219 23.386719 7.328125 22.660156 7.324219 C 22.140625 7.324219 21.921875 7.101562 21.921875 6.585938 C 21.917969 6.417969 21.929688 6.246094 21.917969 6.078125 C 21.894531 5.703125 22.085938 5.464844 22.40625 5.328125 C 22.769531 5.171875 23.140625 5.035156 23.515625 4.910156 C 23.835938 4.804688 23.933594 4.851562 24.132812 5.128906 C 24.304688 5.367188 24.476562 5.605469 24.671875 5.878906 " fill-opacity="1" fill-rule="nonzero"/><path fill="#925f3d" d="M 25.992188 2.816406 C 25.960938 3.257812 25.820312 3.820312 25.359375 4.253906 C 24.96875 4.621094 24.371094 4.628906 23.984375 4.253906 C 23.449219 3.730469 23.28125 3.070312 23.363281 2.351562 C 23.410156 1.976562 23.636719 1.683594 24.019531 1.558594 C 24.589844 1.371094 25.144531 1.355469 25.644531 1.753906 C 25.9375 1.984375 26.003906 2.304688 25.992188 2.816406 " fill-opacity="1" fill-rule="nonzero"/><g clip-path="url(#f56df3794e)"><path fill="#925f3d" d="M 24.671875 1.035156 C 22.589844 1.035156 20.894531 2.730469 20.894531 4.8125 C 20.894531 6.890625 22.589844 8.585938 24.671875 8.585938 C 26.75 8.585938 28.445312 6.890625 28.445312 4.8125 C 28.445312 2.730469 26.75 1.035156 24.671875 1.035156 Z M 24.671875 9.289062 C 22.203125 9.289062 20.195312 7.277344 20.195312 4.8125 C 20.195312 2.34375 22.203125 0.335938 24.671875 0.335938 C 27.140625 0.335938 29.148438 2.34375 29.148438 4.8125 C 29.148438 7.277344 27.140625 9.289062 24.671875 9.289062 " fill-opacity="1" fill-rule="nonzero"/></g><path fill="#925f3d" d="M 5.332031 5.601562 C 5.515625 5.339844 5.679688 5.113281 5.839844 4.886719 C 6.023438 4.621094 6.214844 4.53125 6.507812 4.632812 C 6.882812 4.761719 7.253906 4.902344 7.617188 5.058594 C 7.925781 5.195312 8.101562 5.4375 8.082031 5.796875 C 8.074219 5.972656 8.082031 6.148438 8.082031 6.328125 C 8.074219 6.816406 7.851562 7.042969 7.367188 7.046875 C 6.746094 7.046875 6.121094 7.046875 5.496094 7.046875 C 4.769531 7.046875 4.046875 7.046875 3.320312 7.046875 C 2.800781 7.042969 2.582031 6.820312 2.578125 6.304688 C 2.578125 6.136719 2.585938 5.96875 2.578125 5.800781 C 2.554688 5.425781 2.746094 5.183594 3.0625 5.046875 C 3.425781 4.890625 3.800781 4.757812 4.175781 4.632812 C 4.496094 4.523438 4.59375 4.570312 4.792969 4.847656 C 4.960938 5.089844 5.132812 5.328125 5.332031 5.601562 " fill-opacity="1" fill-rule="nonzero"/><path fill="#925f3d" d="M 6.652344 2.535156 C 6.617188 2.976562 6.480469 3.539062 6.015625 3.972656 C 5.628906 4.339844 5.027344 4.347656 4.644531 3.972656 C 4.109375 3.453125 3.941406 2.789062 4.023438 2.074219 C 4.066406 1.699219 4.296875 1.402344 4.679688 1.277344 C 5.25 1.09375 5.800781 1.074219 6.304688 1.472656 C 6.59375 1.707031 6.664062 2.023438 6.652344 2.535156 " fill-opacity="1" fill-rule="nonzero"/><g clip-path="url(#72597ad4d4)"><path fill="#925f3d" d="M 5.332031 0.757812 C 3.25 0.757812 1.554688 2.449219 1.554688 4.53125 C 1.554688 6.613281 3.25 8.304688 5.332031 8.304688 C 7.410156 8.304688 9.105469 6.613281 9.105469 4.53125 C 9.105469 2.449219 7.410156 0.757812 5.332031 0.757812 Z M 5.332031 9.007812 C 2.859375 9.007812 0.851562 7 0.851562 4.53125 C 0.851562 2.0625 2.859375 0.0546875 5.332031 0.0546875 C 7.800781 0.0546875 9.808594 2.0625 9.808594 4.53125 C 9.808594 7 7.800781 9.007812 5.332031 9.007812 " fill-opacity="1" fill-rule="nonzero"/></g><path fill="#925f3d" d="M 5.332031 25.570312 C 5.515625 25.308594 5.679688 25.082031 5.835938 24.855469 C 6.023438 24.589844 6.214844 24.503906 6.507812 24.601562 C 6.882812 24.726562 7.253906 24.871094 7.617188 25.027344 C 7.925781 25.164062 8.101562 25.40625 8.082031 25.765625 C 8.070312 25.941406 8.082031 26.121094 8.078125 26.296875 C 8.074219 26.785156 7.851562 27.011719 7.367188 27.011719 C 6.742188 27.019531 6.121094 27.015625 5.496094 27.015625 C 4.769531 27.015625 4.042969 27.019531 3.320312 27.015625 C 2.800781 27.011719 2.582031 26.789062 2.578125 26.273438 C 2.578125 26.105469 2.585938 25.9375 2.578125 25.769531 C 2.550781 25.394531 2.746094 25.15625 3.0625 25.015625 C 3.425781 24.859375 3.800781 24.722656 4.175781 24.601562 C 4.496094 24.492188 4.59375 24.542969 4.789062 24.820312 C 4.960938 25.058594 5.132812 25.296875 5.332031 25.570312 " fill-opacity="1" fill-rule="nonzero"/><path fill="#925f3d" d="M 6.652344 22.507812 C 6.617188 22.945312 6.480469 23.507812 6.015625 23.941406 C 5.625 24.308594 5.027344 24.320312 4.644531 23.941406 C 4.109375 23.421875 3.941406 22.757812 4.023438 22.042969 C 4.066406 21.667969 4.296875 21.375 4.679688 21.25 C 5.25 21.0625 5.800781 21.042969 6.300781 21.441406 C 6.59375 21.675781 6.660156 21.992188 6.652344 22.507812 " fill-opacity="1" fill-rule="nonzero"/><g clip-path="url(#64e070438a)"><path fill="#925f3d" d="M 5.328125 20.726562 C 3.25 20.726562 1.554688 22.417969 1.554688 24.5 C 1.554688 26.582031 3.25 28.277344 5.328125 28.277344 C 7.410156 28.277344 9.105469 26.582031 9.105469 24.5 C 9.105469 22.417969 7.410156 20.726562 5.328125 20.726562 Z M 5.328125 28.976562 C 2.859375 28.976562 0.851562 26.96875 0.851562 24.5 C 0.851562 22.03125 2.859375 20.023438 5.328125 20.023438 C 7.796875 20.023438 9.804688 22.03125 9.804688 24.5 C 9.804688 26.96875 7.796875 28.976562 5.328125 28.976562 " fill-opacity="1" fill-rule="nonzero"/></g></svg>