<svg xmlns="http://www.w3.org/2000/svg" xmlns:xlink="http://www.w3.org/1999/xlink" width="40" zoomAndPan="magnify" viewBox="0 0 30 30.000001" height="40" preserveAspectRatio="xMidYMid meet" version="1.0"><defs><clipPath id="febf3323f6"><path d="M 0.484375 0 L 29.515625 0 L 29.515625 29.03125 L 0.484375 29.03125 Z M 0.484375 0 " clip-rule="nonzero"/></clipPath><clipPath id="7e615603e8"><path d="M 7 6 L 29.515625 6 L 29.515625 28.722656 L 7 28.722656 Z M 7 6 " clip-rule="nonzero"/></clipPath><clipPath id="6e364478cc"><path d="M 10 0.417969 L 19 0.417969 L 19 3 L 10 3 Z M 10 0.417969 " clip-rule="nonzero"/></clipPath><clipPath id="10fd9f79ec"><path d="M 1 0.417969 L 11 0.417969 L 11 5 L 1 5 Z M 1 0.417969 " clip-rule="nonzero"/></clipPath></defs><g clip-path="url(#febf3323f6)"><path fill="#ffffff" d="M 0.484375 0 L 29.515625 0 L 29.515625 29.03125 L 0.484375 29.03125 Z M 0.484375 0 " fill-opacity="1" fill-rule="nonzero"/><path fill="#ffffff" d="M 0.484375 0 L 29.515625 0 L 29.515625 29.03125 L 0.484375 29.03125 Z M 0.484375 0 " fill-opacity="1" fill-rule="nonzero"/></g><g clip-path="url(#7e615603e8)"><path fill="#925f3d" d="M 27.753906 15.238281 C 27.679688 15.210938 27.636719 15.160156 27.617188 15.085938 C 27.378906 14.101562 26.992188 13.179688 26.464844 12.316406 C 26.421875 12.25 26.417969 12.179688 26.453125 12.109375 L 27.242188 10.507812 L 25.015625 8.339844 L 23.429688 9.109375 C 23.359375 9.144531 23.292969 9.140625 23.226562 9.101562 C 22.394531 8.597656 21.503906 8.226562 20.558594 7.992188 C 20.480469 7.972656 20.429688 7.925781 20.40625 7.851562 L 19.890625 6.261719 L 16.78125 6.261719 L 16.222656 7.816406 C 16.195312 7.890625 16.144531 7.933594 16.070312 7.953125 C 15.050781 8.183594 14.09375 8.574219 13.199219 9.117188 C 13.128906 9.160156 13.0625 9.160156 12.988281 9.125 L 11.59375 8.402344 L 9.382812 10.585938 L 10.050781 12.035156 C 10.085938 12.105469 10.082031 12.171875 10.039062 12.238281 C 9.453125 13.171875 9.039062 14.175781 8.796875 15.253906 C 8.777344 15.332031 8.730469 15.382812 8.65625 15.40625 L 7.171875 15.890625 L 7.171875 18.996094 L 8.710938 19.550781 C 8.78125 19.578125 8.824219 19.625 8.84375 19.699219 C 9.109375 20.773438 9.542969 21.769531 10.152344 22.6875 C 10.199219 22.757812 10.203125 22.828125 10.167969 22.898438 L 9.445312 24.363281 L 11.675781 26.53125 L 13.246094 25.765625 C 13.3125 25.734375 13.378906 25.734375 13.441406 25.773438 C 14.277344 26.25 15.164062 26.59375 16.105469 26.804688 C 16.183594 26.820312 16.234375 26.867188 16.257812 26.945312 L 16.796875 28.605469 L 19.90625 28.605469 L 20.539062 26.859375 C 20.5625 26.789062 20.609375 26.742188 20.683594 26.722656 C 21.59375 26.484375 22.449219 26.121094 23.253906 25.628906 C 23.324219 25.589844 23.390625 25.585938 23.464844 25.621094 L 25.097656 26.46875 L 27.308594 24.28125 L 26.503906 22.546875 C 26.472656 22.480469 26.476562 22.414062 26.515625 22.347656 C 27.011719 21.523438 27.375 20.640625 27.605469 19.707031 C 27.625 19.628906 27.671875 19.578125 27.746094 19.554688 L 29.515625 18.980469 L 29.515625 15.871094 Z M 23.988281 23.078125 C 23.769531 23.292969 23.542969 23.496094 23.304688 23.6875 C 23.066406 23.875 22.816406 24.050781 22.554688 24.214844 C 22.296875 24.375 22.027344 24.519531 21.753906 24.652344 C 21.476562 24.78125 21.195312 24.898438 20.90625 24.996094 C 20.617188 25.09375 20.320312 25.175781 20.023438 25.238281 C 19.726562 25.304688 19.425781 25.351562 19.121094 25.382812 C 18.816406 25.410156 18.511719 25.425781 18.207031 25.417969 C 17.902344 25.414062 17.597656 25.390625 17.292969 25.351562 C 16.992188 25.3125 16.691406 25.257812 16.394531 25.183594 C 16.097656 25.109375 15.808594 25.015625 15.519531 24.910156 C 15.234375 24.800781 14.957031 24.679688 14.683594 24.539062 C 14.414062 24.398438 14.148438 24.246094 13.894531 24.074219 C 13.640625 23.90625 13.398438 23.722656 13.164062 23.523438 C 12.933594 23.328125 12.710938 23.117188 12.503906 22.894531 C 12.292969 22.671875 12.097656 22.4375 11.917969 22.191406 C 11.734375 21.945312 11.566406 21.691406 11.414062 21.425781 C 11.261719 21.164062 11.125 20.890625 11.003906 20.609375 C 10.882812 20.328125 10.777344 20.042969 10.6875 19.75 C 10.597656 19.457031 10.527344 19.164062 10.472656 18.863281 C 10.417969 18.5625 10.378906 18.257812 10.359375 17.953125 C 10.339844 17.648438 10.335938 17.34375 10.351562 17.039062 C 10.367188 16.734375 10.398438 16.429688 10.449219 16.128906 C 10.5 15.828125 10.566406 15.53125 10.648438 15.238281 C 10.734375 14.941406 10.835938 14.65625 10.953125 14.371094 C 11.066406 14.089844 11.199219 13.816406 11.347656 13.550781 C 11.496094 13.28125 11.660156 13.023438 11.839844 12.777344 C 12.015625 12.527344 12.207031 12.289062 12.414062 12.0625 C 12.617188 11.839844 12.835938 11.625 13.066406 11.421875 C 13.296875 11.222656 13.535156 11.035156 13.785156 10.859375 C 14.039062 10.6875 14.296875 10.527344 14.566406 10.382812 C 14.835938 10.238281 15.113281 10.113281 15.398438 10 C 15.683594 9.886719 15.972656 9.792969 16.265625 9.710938 C 16.5625 9.632812 16.859375 9.570312 17.164062 9.527344 C 17.464844 9.480469 17.769531 9.453125 18.074219 9.445312 C 18.378906 9.433594 18.683594 9.441406 18.988281 9.46875 C 19.292969 9.492188 19.59375 9.535156 19.894531 9.59375 C 20.195312 9.652344 20.488281 9.730469 20.78125 9.824219 C 21.070312 9.917969 21.355469 10.027344 21.632812 10.152344 C 21.910156 10.28125 22.179688 10.421875 22.445312 10.578125 C 22.707031 10.734375 22.957031 10.90625 23.199219 11.09375 C 23.441406 11.28125 23.671875 11.480469 23.890625 11.691406 C 24.113281 11.902344 24.316406 12.128906 24.511719 12.363281 C 24.707031 12.601562 24.886719 12.847656 25.050781 13.105469 C 25.214844 13.359375 25.367188 13.625 25.5 13.898438 C 25.636719 14.175781 25.753906 14.457031 25.859375 14.742188 C 25.960938 15.03125 26.046875 15.324219 26.117188 15.621094 C 26.183594 15.917969 26.238281 16.21875 26.269531 16.523438 C 26.304688 16.824219 26.324219 17.128906 26.324219 17.433594 C 26.324219 18.492188 26.125 19.511719 25.71875 20.492188 C 25.316406 21.46875 24.738281 22.332031 23.988281 23.078125 Z M 23.988281 23.078125 " fill-opacity="1" fill-rule="nonzero"/></g><path fill="#925f3d" d="M 18.980469 21.976562 L 17.859375 22.429688 L 16.523438 18.992188 C 16.851562 18.914062 17.183594 18.839844 17.511719 18.773438 C 17.589844 18.753906 17.664062 18.738281 17.742188 18.722656 C 17.777344 18.71875 17.816406 18.710938 17.851562 18.703125 C 17.921875 18.6875 17.992188 18.671875 18.0625 18.660156 C 18.082031 18.65625 18.097656 18.652344 18.113281 18.648438 Z M 18.980469 21.976562 " fill-opacity="1" fill-rule="nonzero"/><path fill="#925f3d" d="M 21.097656 17.773438 C 20.226562 17.859375 19.265625 18 18.238281 18.195312 C 18.234375 18.195312 18.234375 18.195312 18.230469 18.195312 C 18.148438 18.210938 18.066406 18.226562 17.980469 18.242188 C 17.726562 18.292969 17.472656 18.34375 17.214844 18.402344 C 17.128906 18.417969 17.042969 18.4375 16.957031 18.457031 C 16.855469 18.476562 16.757812 18.5 16.65625 18.523438 C 16.511719 18.558594 16.363281 18.589844 16.21875 18.625 C 16.214844 18.625 16.214844 18.628906 16.210938 18.628906 C 16.210938 18.628906 16.207031 18.628906 16.203125 18.628906 C 16.195312 18.632812 16.191406 18.632812 16.183594 18.632812 C 15.863281 18.710938 15.570312 18.785156 15.304688 18.855469 C 15.214844 18.878906 15.121094 18.886719 15.027344 18.886719 C 14.828125 18.882812 14.644531 18.824219 14.480469 18.710938 C 14.3125 18.601562 14.191406 18.453125 14.113281 18.269531 C 14.109375 18.265625 14.109375 18.261719 14.105469 18.257812 C 14.105469 18.253906 14.101562 18.246094 14.101562 18.242188 C 13.996094 18 13.984375 17.757812 14.070312 17.507812 C 14.15625 17.257812 14.3125 17.074219 14.542969 16.945312 C 14.734375 16.84375 14.933594 16.730469 15.136719 16.605469 C 15.539062 16.359375 15.960938 16.074219 16.394531 15.757812 C 17.503906 14.945312 18.46875 14.070312 19.144531 13.417969 Z M 21.097656 17.773438 " fill-opacity="1" fill-rule="nonzero"/><path fill="#925f3d" d="M 22.582031 17.53125 L 21.9375 17.859375 L 21.78125 17.933594 C 21.75 17.949219 21.714844 17.953125 21.679688 17.941406 C 21.644531 17.929688 21.621094 17.90625 21.605469 17.871094 L 19.417969 12.992188 C 19.417969 12.984375 19.414062 12.980469 19.414062 12.976562 C 19.378906 12.882812 19.40625 12.816406 19.5 12.777344 L 20.371094 12.386719 C 20.414062 12.367188 20.457031 12.367188 20.496094 12.382812 C 20.539062 12.398438 20.566406 12.429688 20.585938 12.46875 L 22.660156 17.328125 C 22.699219 17.417969 22.671875 17.488281 22.582031 17.53125 Z M 22.582031 17.53125 " fill-opacity="1" fill-rule="nonzero"/><path fill="#925f3d" d="M 8.585938 24.5625 C 8.53125 24.660156 8.453125 24.722656 8.34375 24.753906 C 8.238281 24.785156 8.136719 24.777344 8.039062 24.722656 C 7.378906 24.363281 6.753906 23.953125 6.167969 23.484375 C 6.402344 23.328125 6.578125 23.128906 6.703125 22.875 C 7.242188 23.304688 7.816406 23.683594 8.421875 24.015625 C 8.523438 24.066406 8.585938 24.148438 8.617188 24.253906 C 8.648438 24.359375 8.636719 24.464844 8.585938 24.5625 Z M 8.585938 24.5625 " fill-opacity="1" fill-rule="nonzero"/><path fill="#925f3d" d="M 2.164062 13.496094 C 2.164062 14.828125 2.378906 16.121094 2.8125 17.378906 C 3.242188 18.640625 3.867188 19.792969 4.6875 20.84375 C 4.433594 20.964844 4.230469 21.140625 4.074219 21.371094 C 3.3125 20.402344 2.707031 19.34375 2.253906 18.199219 C 1.800781 17.050781 1.519531 15.867188 1.40625 14.636719 C 1.296875 13.410156 1.363281 12.191406 1.609375 10.984375 C 1.851562 9.777344 2.257812 8.628906 2.835938 7.539062 L 3.753906 7.539062 C 2.691406 9.382812 2.160156 11.367188 2.164062 13.496094 Z M 2.164062 13.496094 " fill-opacity="1" fill-rule="nonzero"/><g clip-path="url(#6e364478cc)"><path fill="#925f3d" d="M 18.976562 1.683594 C 18.792969 1.902344 18.683594 2.148438 18.640625 2.429688 C 17.324219 1.886719 15.953125 1.589844 14.527344 1.542969 C 13.105469 1.492188 11.71875 1.691406 10.367188 2.140625 L 10.367188 1.292969 C 11.78125 0.855469 13.226562 0.671875 14.703125 0.742188 C 16.183594 0.808594 17.605469 1.121094 18.976562 1.683594 Z M 18.976562 1.683594 " fill-opacity="1" fill-rule="nonzero"/></g><path fill="#925f3d" d="M 24.949219 7.5 C 24.855469 7.558594 24.753906 7.574219 24.644531 7.546875 C 24.535156 7.519531 24.453125 7.457031 24.394531 7.359375 C 23.550781 5.953125 22.460938 4.765625 21.128906 3.808594 C 21.339844 3.625 21.492188 3.398438 21.582031 3.128906 C 23.011719 4.160156 24.179688 5.433594 25.085938 6.945312 C 25.144531 7.042969 25.160156 7.144531 25.132812 7.25 C 25.105469 7.359375 25.046875 7.441406 24.949219 7.5 Z M 24.949219 7.5 " fill-opacity="1" fill-rule="nonzero"/><path fill="#925f3d" d="M 6.640625 22.214844 C 6.640625 22.414062 6.597656 22.605469 6.511719 22.785156 C 6.40625 23 6.25 23.171875 6.050781 23.304688 C 5.792969 23.476562 5.507812 23.542969 5.199219 23.511719 C 4.890625 23.480469 4.628906 23.351562 4.410156 23.132812 C 4.191406 22.914062 4.066406 22.648438 4.039062 22.339844 C 4.007812 22.03125 4.078125 21.75 4.25 21.492188 C 4.382812 21.289062 4.5625 21.140625 4.777344 21.035156 C 4.953125 20.953125 5.140625 20.910156 5.335938 20.910156 C 5.507812 20.910156 5.675781 20.945312 5.835938 21.011719 C 5.992188 21.078125 6.136719 21.171875 6.257812 21.292969 C 6.378906 21.414062 6.472656 21.554688 6.539062 21.714844 C 6.605469 21.875 6.640625 22.042969 6.640625 22.214844 Z M 6.640625 22.214844 " fill-opacity="1" fill-rule="nonzero"/><path fill="#925f3d" d="M 21.441406 2.65625 C 21.441406 2.828125 21.410156 2.996094 21.34375 3.15625 C 21.277344 3.316406 21.183594 3.457031 21.0625 3.578125 C 20.9375 3.703125 20.796875 3.796875 20.636719 3.863281 C 20.476562 3.929688 20.3125 3.960938 20.140625 3.960938 C 19.964844 3.960938 19.800781 3.929688 19.640625 3.863281 C 19.480469 3.796875 19.339844 3.703125 19.21875 3.578125 C 19.09375 3.457031 19 3.316406 18.933594 3.15625 C 18.867188 2.996094 18.835938 2.828125 18.835938 2.65625 C 18.835938 2.589844 18.839844 2.523438 18.851562 2.460938 C 18.875 2.296875 18.929688 2.144531 19.011719 2.003906 C 19.09375 1.859375 19.199219 1.738281 19.328125 1.636719 C 19.457031 1.535156 19.597656 1.457031 19.757812 1.410156 C 19.914062 1.363281 20.074219 1.34375 20.238281 1.355469 C 20.402344 1.371094 20.558594 1.410156 20.707031 1.484375 C 20.855469 1.554688 20.984375 1.648438 21.09375 1.769531 C 21.207031 1.890625 21.292969 2.027344 21.351562 2.179688 C 21.414062 2.335938 21.441406 2.492188 21.441406 2.65625 Z M 21.441406 2.65625 " fill-opacity="1" fill-rule="nonzero"/><path fill="#925f3d" d="M 10.152344 1.21875 L 10.152344 6.976562 C 10.152344 7.074219 10.117188 7.15625 10.050781 7.222656 C 9.980469 7.292969 9.898438 7.324219 9.804688 7.324219 L 1.941406 7.324219 C 1.847656 7.324219 1.761719 7.292969 1.695312 7.222656 C 1.628906 7.15625 1.59375 7.074219 1.59375 6.976562 L 1.59375 1.058594 L 1.980469 1.550781 L 4.4375 4.636719 C 4.699219 4.96875 5.039062 5.132812 5.457031 5.128906 L 6.199219 5.128906 C 6.597656 5.128906 6.925781 4.980469 7.1875 4.675781 Z M 10.152344 1.21875 " fill-opacity="1" fill-rule="nonzero"/><g clip-path="url(#10fd9f79ec)"><path fill="#925f3d" d="M 10.039062 0.699219 L 6.863281 4.398438 C 6.6875 4.601562 6.46875 4.707031 6.199219 4.703125 L 5.457031 4.703125 C 5.175781 4.707031 4.945312 4.59375 4.769531 4.371094 L 1.800781 0.636719 C 1.824219 0.628906 1.847656 0.621094 1.871094 0.617188 C 1.875 0.613281 1.882812 0.613281 1.886719 0.613281 C 1.90625 0.609375 1.921875 0.609375 1.941406 0.609375 L 9.804688 0.609375 C 9.8125 0.609375 9.820312 0.609375 9.828125 0.609375 C 9.835938 0.609375 9.84375 0.609375 9.851562 0.613281 C 9.859375 0.613281 9.867188 0.613281 9.875 0.617188 C 9.878906 0.617188 9.878906 0.617188 9.878906 0.617188 C 9.894531 0.621094 9.90625 0.625 9.921875 0.628906 C 9.921875 0.628906 9.925781 0.628906 9.925781 0.628906 C 9.933594 0.632812 9.941406 0.636719 9.945312 0.636719 C 9.953125 0.640625 9.960938 0.644531 9.96875 0.648438 C 9.976562 0.652344 9.984375 0.65625 9.988281 0.660156 C 9.996094 0.664062 10.003906 0.667969 10.007812 0.675781 C 10.015625 0.679688 10.019531 0.683594 10.027344 0.6875 C 10.03125 0.691406 10.03125 0.691406 10.035156 0.695312 C 10.035156 0.695312 10.035156 0.695312 10.039062 0.699219 Z M 10.039062 0.699219 " fill-opacity="1" fill-rule="nonzero"/></g></svg>