<svg xmlns="http://www.w3.org/2000/svg" xmlns:xlink="http://www.w3.org/1999/xlink" width="40" zoomAndPan="magnify" viewBox="0 0 30 30.000001" height="40" preserveAspectRatio="xMidYMid meet" version="1.0"><defs><clipPath id="5b6726e1ce"><path d="M 0.484375 0 L 29.515625 0 L 29.515625 29.03125 L 0.484375 29.03125 Z M 0.484375 0 " clip-rule="nonzero"/></clipPath><clipPath id="2088eb2e38"><path d="M 24 10 L 29.515625 10 L 29.515625 16 L 24 16 Z M 24 10 " clip-rule="nonzero"/></clipPath><clipPath id="65830b2487"><path d="M 0.484375 0 L 19 0 L 19 29.03125 L 0.484375 29.03125 Z M 0.484375 0 " clip-rule="nonzero"/></clipPath></defs><g clip-path="url(#5b6726e1ce)"><path fill="#ffffff" d="M 0.484375 0 L 29.515625 0 L 29.515625 29.03125 L 0.484375 29.03125 Z M 0.484375 0 " fill-opacity="1" fill-rule="nonzero"/><path fill="#ffffff" d="M 0.484375 0 L 29.515625 0 L 29.515625 29.03125 L 0.484375 29.03125 Z M 0.484375 0 " fill-opacity="1" fill-rule="nonzero"/></g><path fill="#925f3d" d="M 6.394531 5.933594 C 6.394531 5.433594 5.988281 5.027344 5.488281 5.027344 L 3.222656 5.027344 C 2.726562 5.027344 2.316406 5.433594 2.316406 5.933594 L 2.316406 8.199219 C 2.316406 8.695312 2.726562 9.105469 3.222656 9.105469 L 5.488281 9.105469 C 5.988281 9.105469 6.394531 8.695312 6.394531 8.199219 Z M 6.394531 5.933594 " fill-opacity="1" fill-rule="nonzero"/><path fill="#925f3d" d="M 11.375 5.933594 C 11.375 5.433594 10.96875 5.027344 10.472656 5.027344 L 8.207031 5.027344 C 7.707031 5.027344 7.300781 5.433594 7.300781 5.933594 L 7.300781 8.199219 C 7.300781 8.695312 7.707031 9.105469 8.207031 9.105469 L 10.472656 9.105469 C 10.96875 9.105469 11.375 8.695312 11.375 8.199219 Z M 8.207031 8.199219 L 8.207031 5.933594 L 10.472656 5.933594 L 10.472656 8.199219 Z M 8.207031 8.199219 " fill-opacity="1" fill-rule="nonzero"/><path fill="#925f3d" d="M 6.394531 10.914062 C 6.394531 10.417969 5.988281 10.007812 5.488281 10.007812 L 3.222656 10.007812 C 2.726562 10.007812 2.316406 10.417969 2.316406 10.914062 L 2.316406 13.179688 C 2.316406 13.679688 2.726562 14.085938 3.222656 14.085938 L 5.488281 14.085938 C 5.988281 14.085938 6.394531 13.679688 6.394531 13.179688 Z M 3.222656 13.179688 L 3.222656 10.914062 L 5.488281 10.914062 L 5.488281 13.179688 Z M 3.222656 13.179688 " fill-opacity="1" fill-rule="nonzero"/><path fill="#925f3d" d="M 11.375 10.914062 C 11.375 10.417969 10.96875 10.007812 10.472656 10.007812 L 8.207031 10.007812 C 7.707031 10.007812 7.300781 10.417969 7.300781 10.914062 L 7.300781 13.179688 C 7.300781 13.679688 7.707031 14.085938 8.207031 14.085938 L 10.472656 14.085938 C 10.96875 14.085938 11.375 13.679688 11.375 13.179688 Z M 11.375 10.914062 " fill-opacity="1" fill-rule="nonzero"/><path fill="#925f3d" d="M 27.386719 3.191406 C 27.476562 2.964844 27.476562 2.738281 27.386719 2.515625 L 26.550781 0.566406 C 26.457031 0.363281 26.277344 0.179688 26.074219 0.0898438 C 25.847656 0 25.621094 0 25.394531 0.0898438 L 23.445312 0.949219 C 23.242188 1.042969 23.0625 1.222656 22.972656 1.425781 C 22.878906 1.652344 22.878906 1.878906 22.972656 2.105469 L 23.808594 4.054688 C 23.898438 4.257812 24.082031 4.4375 24.285156 4.527344 C 24.398438 4.574219 24.488281 4.597656 24.601562 4.597656 C 24.714844 4.597656 24.828125 4.574219 24.941406 4.527344 L 26.890625 3.691406 C 27.136719 3.578125 27.296875 3.398438 27.386719 3.191406 Z M 27.386719 3.191406 " fill-opacity="1" fill-rule="nonzero"/><path fill="#925f3d" d="M 25.6875 9.714844 C 26.074219 9.398438 26.121094 8.808594 25.78125 8.445312 L 24.308594 6.726562 C 24.148438 6.542969 23.921875 6.429688 23.695312 6.410156 C 23.445312 6.386719 23.21875 6.476562 23.039062 6.636719 L 21.316406 8.105469 C 20.933594 8.425781 20.886719 9.011719 21.226562 9.375 L 22.699219 11.097656 C 22.859375 11.277344 23.085938 11.390625 23.3125 11.414062 C 23.332031 11.414062 23.355469 11.414062 23.378906 11.414062 C 23.605469 11.414062 23.808594 11.34375 23.96875 11.1875 Z M 23.378906 10.507812 L 21.90625 8.785156 L 23.628906 7.316406 L 25.101562 9.035156 Z M 23.378906 10.507812 " fill-opacity="1" fill-rule="nonzero"/><path fill="#925f3d" d="M 18.417969 5.796875 L 20.503906 6.679688 C 20.957031 6.863281 21.5 6.65625 21.679688 6.203125 L 22.5625 4.121094 C 22.769531 3.667969 22.542969 3.125 22.089844 2.945312 L 19.980469 2.039062 C 19.527344 1.835938 18.984375 2.0625 18.804688 2.515625 C 18.804688 2.515625 17.921875 4.597656 17.921875 4.597656 C 17.851562 4.753906 17.851562 4.914062 17.875 5.074219 C 17.921875 5.390625 18.125 5.660156 18.417969 5.796875 Z M 18.417969 5.796875 " fill-opacity="1" fill-rule="nonzero"/><path fill="#925f3d" d="M 22.8125 13.496094 C 22.632812 13.316406 22.40625 13.226562 22.179688 13.226562 C 21.953125 13.226562 21.703125 13.316406 21.542969 13.496094 L 19.9375 15.105469 C 19.753906 15.285156 19.664062 15.511719 19.664062 15.738281 C 19.664062 15.988281 19.753906 16.214844 19.9375 16.375 L 21.542969 17.980469 C 21.726562 18.164062 21.953125 18.253906 22.179688 18.253906 C 22.40625 18.253906 22.65625 18.164062 22.8125 17.980469 L 24.421875 16.375 C 24.601562 16.191406 24.691406 15.964844 24.691406 15.738281 C 24.691406 15.488281 24.601562 15.261719 24.421875 15.105469 Z M 22.8125 13.496094 " fill-opacity="1" fill-rule="nonzero"/><g clip-path="url(#2088eb2e38)"><path fill="#925f3d" d="M 27.636719 10.734375 C 27.296875 10.394531 26.707031 10.394531 26.367188 10.734375 L 24.78125 12.320312 C 24.445312 12.660156 24.445312 13.246094 24.78125 13.585938 L 26.367188 15.171875 C 26.550781 15.355469 26.753906 15.445312 27.003906 15.445312 C 27.25 15.445312 27.476562 15.355469 27.636719 15.171875 L 29.222656 13.585938 C 29.402344 13.40625 29.492188 13.203125 29.492188 12.953125 C 29.492188 12.703125 29.402344 12.476562 29.222656 12.320312 Z M 27.636719 10.734375 " fill-opacity="1" fill-rule="nonzero"/></g><path fill="#925f3d" d="M 22.859375 19.726562 C 22.769531 19.953125 22.769531 20.199219 22.859375 20.425781 L 23.765625 22.511719 C 23.855469 22.738281 24.035156 22.894531 24.261719 22.984375 C 24.375 23.03125 24.488281 23.054688 24.601562 23.054688 C 24.714844 23.054688 24.851562 23.03125 24.964844 22.984375 L 27.046875 22.078125 C 27.273438 21.988281 27.433594 21.808594 27.523438 21.582031 C 27.613281 21.355469 27.613281 21.105469 27.523438 20.878906 L 26.617188 18.796875 C 26.527344 18.570312 26.34375 18.410156 26.121094 18.320312 C 25.894531 18.230469 25.644531 18.230469 25.417969 18.320312 L 23.332031 19.226562 C 23.128906 19.316406 22.949219 19.5 22.859375 19.726562 Z M 25.78125 19.160156 L 26.683594 21.242188 L 24.601562 22.148438 L 23.695312 20.0625 Z M 25.78125 19.160156 " fill-opacity="1" fill-rule="nonzero"/><path fill="#925f3d" d="M 6.394531 15.898438 C 6.394531 15.398438 5.988281 14.992188 5.488281 14.992188 L 3.222656 14.992188 C 2.726562 14.992188 2.316406 15.398438 2.316406 15.898438 L 2.316406 18.164062 C 2.316406 18.660156 2.726562 19.066406 3.222656 19.066406 L 5.488281 19.066406 C 5.988281 19.066406 6.394531 18.660156 6.394531 18.164062 Z M 6.394531 15.898438 " fill-opacity="1" fill-rule="nonzero"/><path fill="#925f3d" d="M 11.375 15.898438 C 11.375 15.398438 10.96875 14.992188 10.472656 14.992188 L 8.207031 14.992188 C 7.707031 14.992188 7.300781 15.398438 7.300781 15.898438 L 7.300781 18.164062 C 7.300781 18.660156 7.707031 19.066406 8.207031 19.066406 L 10.472656 19.066406 C 10.96875 19.066406 11.375 18.660156 11.375 18.164062 Z M 8.207031 18.164062 L 8.207031 15.898438 L 10.472656 15.898438 L 10.472656 18.164062 Z M 8.207031 18.164062 " fill-opacity="1" fill-rule="nonzero"/><path fill="#925f3d" d="M 5.488281 19.972656 L 3.222656 19.972656 C 2.726562 19.972656 2.316406 20.382812 2.316406 20.878906 L 2.316406 23.144531 C 2.316406 23.640625 2.726562 24.050781 3.222656 24.050781 L 5.488281 24.050781 C 5.988281 24.050781 6.394531 23.640625 6.394531 23.144531 L 6.394531 20.878906 C 6.394531 20.382812 5.988281 19.972656 5.488281 19.972656 Z M 3.222656 23.144531 L 3.222656 20.878906 L 5.488281 20.878906 L 5.488281 23.144531 Z M 3.222656 23.144531 " fill-opacity="1" fill-rule="nonzero"/><path fill="#925f3d" d="M 10.472656 19.972656 L 8.207031 19.972656 C 7.707031 19.972656 7.300781 20.382812 7.300781 20.878906 L 7.300781 23.144531 C 7.300781 23.640625 7.707031 24.050781 8.207031 24.050781 L 10.472656 24.050781 C 10.96875 24.050781 11.375 23.640625 11.375 23.144531 L 11.375 20.878906 C 11.375 20.382812 10.96875 19.972656 10.472656 19.972656 Z M 10.472656 19.972656 " fill-opacity="1" fill-rule="nonzero"/><path fill="#925f3d" d="M 12.28125 23.144531 C 12.28125 23.640625 12.691406 24.050781 13.1875 24.050781 L 15.453125 24.050781 C 15.949219 24.050781 16.335938 23.664062 16.359375 23.191406 L 15.769531 22.941406 C 15.65625 22.894531 15.566406 22.828125 15.476562 22.78125 L 15.476562 23.167969 L 13.1875 23.167969 L 13.1875 20.878906 L 14.683594 20.878906 C 14.707031 20.765625 14.726562 20.652344 14.773438 20.5625 L 15.023438 19.972656 L 13.1875 19.972656 C 12.691406 19.972656 12.28125 20.382812 12.28125 20.878906 Z M 12.28125 23.144531 " fill-opacity="1" fill-rule="nonzero"/><path fill="#925f3d" d="M 12.28125 18.164062 C 12.28125 18.660156 12.691406 19.066406 13.1875 19.066406 L 15.40625 19.066406 L 15.65625 18.480469 C 15.792969 18.140625 16.042969 17.84375 16.335938 17.664062 L 16.335938 15.898438 C 16.335938 15.398438 15.929688 14.992188 15.429688 14.992188 L 13.1875 14.992188 C 12.691406 14.992188 12.28125 15.398438 12.28125 15.898438 Z M 12.28125 18.164062 " fill-opacity="1" fill-rule="nonzero"/><path fill="#925f3d" d="M 15.726562 9.464844 L 14.839844 11.550781 C 14.636719 12.003906 14.863281 12.546875 15.316406 12.726562 C 15.316406 12.726562 17.402344 13.609375 17.402344 13.609375 C 17.851562 13.792969 18.398438 13.585938 18.578125 13.132812 L 19.460938 11.050781 C 19.664062 10.597656 19.4375 10.054688 18.984375 9.875 C 18.984375 9.875 16.902344 8.992188 16.902344 8.992188 C 16.472656 8.785156 15.90625 9.035156 15.726562 9.464844 Z M 17.761719 12.796875 L 15.679688 11.910156 L 16.5625 9.828125 L 18.644531 10.710938 Z M 17.761719 12.796875 " fill-opacity="1" fill-rule="nonzero"/><path fill="#925f3d" d="M 19.394531 22.488281 L 20.277344 20.402344 C 20.480469 19.953125 20.253906 19.40625 19.800781 19.226562 L 17.71875 18.34375 C 17.492188 18.253906 17.242188 18.253906 17.015625 18.34375 C 16.789062 18.433594 16.609375 18.613281 16.515625 18.839844 C 16.515625 18.839844 15.589844 21.0625 15.589844 21.152344 C 15.542969 21.515625 15.703125 21.875 15.996094 22.058594 C 16.042969 22.078125 18.214844 23.007812 18.214844 23.007812 C 18.644531 23.167969 19.191406 22.941406 19.394531 22.488281 Z M 19.394531 22.488281 " fill-opacity="1" fill-rule="nonzero"/><g clip-path="url(#65830b2487)"><path fill="#925f3d" d="M 3.222656 29.03125 L 15.453125 29.03125 C 16.949219 29.03125 18.171875 27.808594 18.171875 26.316406 L 18.171875 23.914062 C 18.058594 23.890625 17.945312 23.847656 17.851562 23.824219 L 17.265625 23.574219 L 17.265625 24.527344 C 17.265625 25.523438 16.449219 26.335938 15.453125 26.335938 L 3.222656 26.335938 C 2.226562 26.335938 1.414062 25.523438 1.414062 24.527344 L 1.414062 2.761719 C 1.414062 1.765625 2.226562 0.949219 3.222656 0.949219 L 5.964844 0.949219 L 6.417969 1.496094 C 7.121094 2.289062 8.117188 2.761719 9.113281 2.761719 C 10.109375 2.761719 11.105469 2.289062 11.808594 1.496094 L 12.261719 0.949219 L 15.453125 0.949219 C 16.449219 0.949219 17.265625 1.765625 17.265625 2.761719 L 17.265625 3.851562 L 17.964844 2.175781 C 17.988281 2.105469 18.011719 2.0625 18.058594 2.015625 C 17.71875 0.859375 16.675781 0.046875 15.453125 0.046875 L 3.222656 0.046875 C 1.730469 0.046875 0.507812 1.269531 0.507812 2.761719 L 0.507812 26.316406 C 0.507812 27.808594 1.730469 29.03125 3.222656 29.03125 Z M 3.222656 27.21875 L 15.453125 27.21875 C 16.132812 27.21875 16.765625 26.972656 17.242188 26.542969 C 17.128906 27.445312 16.359375 28.125 15.453125 28.125 L 3.222656 28.125 C 2.296875 28.125 1.546875 27.425781 1.433594 26.542969 C 1.910156 26.972656 2.542969 27.21875 3.222656 27.21875 Z M 11.058594 0.949219 C 10.539062 1.539062 9.835938 1.855469 9.113281 1.855469 C 8.386719 1.855469 7.707031 1.539062 7.164062 0.949219 Z M 11.058594 0.949219 " fill-opacity="1" fill-rule="nonzero"/></g><path fill="#925f3d" d="M 12.28125 13.179688 C 12.28125 13.679688 12.691406 14.085938 13.1875 14.085938 L 15.453125 14.085938 C 15.613281 14.085938 15.769531 14.039062 15.90625 13.972656 L 14.976562 13.585938 C 14.75 13.496094 14.546875 13.359375 14.386719 13.179688 L 13.1875 13.179688 L 13.1875 10.914062 L 14.140625 10.914062 L 14.523438 10.007812 L 13.1875 10.007812 C 12.691406 10.007812 12.28125 10.417969 12.28125 10.914062 Z M 12.28125 13.179688 " fill-opacity="1" fill-rule="nonzero"/><path fill="#925f3d" d="M 15.453125 5.027344 L 13.1875 5.027344 C 12.691406 5.027344 12.28125 5.433594 12.28125 5.933594 L 12.28125 8.199219 C 12.28125 8.695312 12.691406 9.105469 13.1875 9.105469 L 14.886719 9.105469 C 15.136719 8.492188 15.703125 8.085938 16.359375 8.015625 L 16.359375 5.933594 C 16.359375 5.433594 15.949219 5.027344 15.453125 5.027344 Z M 15.453125 5.027344 " fill-opacity="1" fill-rule="nonzero"/><path fill="#925f3d" d="M 17.265625 5.980469 L 17.265625 8.152344 L 18.171875 8.539062 L 18.171875 6.679688 L 18.058594 6.613281 C 17.738281 6.476562 17.46875 6.25 17.265625 5.980469 Z M 17.265625 5.980469 " fill-opacity="1" fill-rule="nonzero"/><path fill="#925f3d" d="M 17.265625 17.371094 C 17.289062 17.371094 17.308594 17.371094 17.332031 17.371094 C 17.582031 17.371094 17.808594 17.414062 18.035156 17.503906 L 18.171875 17.550781 L 18.171875 14.539062 C 18.035156 14.5625 17.898438 14.585938 17.761719 14.585938 C 17.582031 14.585938 17.421875 14.5625 17.265625 14.515625 Z M 17.265625 17.371094 " fill-opacity="1" fill-rule="nonzero"/></svg>