<svg xmlns="http://www.w3.org/2000/svg" xmlns:xlink="http://www.w3.org/1999/xlink" width="50" zoomAndPan="magnify" viewBox="0 0 37.5 37.499999" height="50" preserveAspectRatio="xMidYMid meet" version="1.0"><defs><clipPath id="a98826d654"><path d="M 2.175781 0.847656 L 34 0.847656 L 34 37 L 2.175781 37 Z M 2.175781 0.847656 " clip-rule="nonzero"/></clipPath></defs><g clip-path="url(#a98826d654)"><path fill="#935f3d" d="M 9.742188 33.851562 L 10.382812 34.851562 L 7.023438 36.996094 L 2.171875 29.390625 L 5.53125 27.25 L 9.734375 33.835938 C 9.734375 33.835938 9.734375 33.839844 9.734375 33.839844 C 9.738281 33.84375 9.742188 33.847656 9.742188 33.851562 Z M 29.261719 26.148438 L 23.785156 29.65625 C 23.644531 30.328125 23.246094 30.921875 22.695312 31.273438 C 22.332031 31.503906 21.921875 31.621094 21.488281 31.621094 C 21.21875 31.621094 20.941406 31.574219 20.664062 31.484375 L 16.71875 30.179688 C 16.4375 30.085938 16.285156 29.785156 16.378906 29.503906 C 16.472656 29.222656 16.773438 29.070312 17.054688 29.164062 L 21 30.46875 C 21.421875 30.609375 21.800781 30.574219 22.121094 30.371094 C 22.464844 30.152344 22.710938 29.738281 22.765625 29.289062 C 22.765625 29.269531 22.769531 29.25 22.773438 29.230469 C 22.792969 28.640625 22.414062 28.085938 21.847656 27.898438 L 13.191406 25.035156 C 12.347656 24.757812 11.539062 24.847656 10.785156 25.308594 L 7.023438 27.597656 L 10.363281 32.832031 L 12.21875 31.703125 C 12.351562 31.621094 12.515625 31.601562 12.664062 31.652344 L 19.792969 34.007812 C 20.75 34.328125 21.703125 34.207031 22.554688 33.660156 L 30.722656 28.425781 C 31.347656 28.023438 31.53125 27.183594 31.128906 26.554688 C 30.726562 25.929688 29.890625 25.746094 29.261719 26.148438 Z M 34.082031 17.246094 C 34.082031 17.964844 33.804688 18.636719 33.300781 19.140625 L 29.132812 23.308594 L 24.964844 19.140625 C 23.921875 18.097656 23.921875 16.398438 24.964844 15.351562 C 25.46875 14.847656 26.140625 14.570312 26.859375 14.570312 C 27.578125 14.570312 28.25 14.847656 28.753906 15.351562 C 28.960938 15.558594 29.300781 15.558594 29.511719 15.351562 C 30.554688 14.308594 32.257812 14.308594 33.300781 15.351562 C 33.804688 15.855469 34.082031 16.527344 34.082031 17.246094 Z M 31.332031 18.414062 C 31.332031 18.117188 31.089844 17.878906 30.796875 17.878906 L 29.667969 17.878906 L 29.667969 16.75 C 29.667969 16.457031 29.425781 16.214844 29.132812 16.214844 C 28.835938 16.214844 28.597656 16.457031 28.597656 16.75 L 28.597656 17.878906 L 27.472656 17.878906 C 27.175781 17.878906 26.9375 18.117188 26.9375 18.414062 C 26.9375 18.710938 27.175781 18.949219 27.472656 18.949219 L 28.597656 18.949219 L 28.597656 20.074219 C 28.597656 20.371094 28.835938 20.609375 29.132812 20.609375 C 29.425781 20.609375 29.667969 20.371094 29.667969 20.074219 L 29.667969 18.949219 L 30.796875 18.949219 C 31.089844 18.949219 31.332031 18.710938 31.332031 18.414062 Z M 13.527344 24.019531 L 22.183594 26.882812 C 22.933594 27.132812 23.492188 27.714844 23.726562 28.425781 L 28.597656 25.300781 L 28.597656 24.289062 L 24.207031 19.898438 C 22.746094 18.4375 22.746094 16.058594 24.207031 14.597656 L 24.207031 14.59375 C 24.253906 14.550781 24.296875 14.507812 24.34375 14.464844 C 23.667969 14.226562 22.949219 14.101562 22.226562 14.101562 L 17.289062 14.101562 C 13.777344 14.101562 10.921875 16.957031 10.921875 20.46875 L 10.921875 24.058594 C 11.753906 23.742188 12.640625 23.726562 13.527344 24.019531 Z M 19.757812 13.03125 C 23.117188 13.03125 25.847656 10.300781 25.847656 6.941406 C 25.847656 3.582031 23.117188 0.851562 19.757812 0.851562 C 16.402344 0.851562 13.671875 3.582031 13.671875 6.941406 C 13.671875 10.300781 16.402344 13.03125 19.757812 13.03125 Z M 19.757812 13.03125 " fill-opacity="1" fill-rule="nonzero"/></g></svg>