<svg xmlns="http://www.w3.org/2000/svg" xmlns:xlink="http://www.w3.org/1999/xlink" width="40" zoomAndPan="magnify" viewBox="0 0 30 30.000001" height="40" preserveAspectRatio="xMidYMid meet" version="1.0"><defs><clipPath id="ceb56e2b22"><path d="M 0.484375 0 L 29.515625 0 L 29.515625 29.03125 L 0.484375 29.03125 Z M 0.484375 0 " clip-rule="nonzero"/></clipPath><clipPath id="a3145fa04d"><path d="M 0.773438 0 L 29.082031 0 L 29.082031 29 L 0.773438 29 Z M 0.773438 0 " clip-rule="nonzero"/></clipPath></defs><g clip-path="url(#ceb56e2b22)"><path fill="#ffffff" d="M 0.484375 0 L 29.515625 0 L 29.515625 29.03125 L 0.484375 29.03125 Z M 0.484375 0 " fill-opacity="1" fill-rule="nonzero"/><path fill="#ffffff" d="M 0.484375 0 L 29.515625 0 L 29.515625 29.03125 L 0.484375 29.03125 Z M 0.484375 0 " fill-opacity="1" fill-rule="nonzero"/></g><g clip-path="url(#a3145fa04d)"><path fill="#925f3d" d="M 15.53125 3.714844 L 15.53125 7.09375 L 14.011719 7.09375 L 14.011719 3.714844 Z M 16.171875 0.730469 L 16.171875 2.734375 L 13.753906 2.734375 C 13.753906 2.734375 12.308594 2.679688 10.859375 3.371094 C 10.796875 3.398438 10.726562 3.394531 10.671875 3.355469 C 10.617188 3.316406 10.589844 3.25 10.597656 3.183594 C 10.738281 2.121094 11.5625 1.28125 12.804688 0.875 C 12.957031 0.828125 13.460938 0.730469 13.621094 0.730469 Z M 16.472656 11.695312 C 15.988281 11.644531 15.492188 11.621094 14.992188 11.621094 C 14.339844 11.621094 13.695312 11.664062 13.066406 11.746094 L 13.066406 8.789062 C 13.066406 8.597656 13.140625 8.417969 13.273438 8.285156 C 13.410156 8.152344 13.589844 8.074219 13.777344 8.074219 L 15.761719 8.074219 C 15.953125 8.074219 16.132812 8.152344 16.265625 8.285156 C 16.398438 8.417969 16.472656 8.597656 16.472656 8.789062 Z M 17.152344 0.179688 C 17.152344 0.078125 17.234375 -0.00390625 17.335938 -0.00390625 L 18.488281 -0.00390625 C 18.589844 -0.00390625 18.671875 0.078125 18.671875 0.179688 L 18.671875 3.285156 C 18.671875 3.386719 18.589844 3.46875 18.488281 3.46875 L 17.335938 3.46875 C 17.234375 3.46875 17.152344 3.386719 17.152344 3.285156 Z M 4.582031 15.828125 L 4.582031 11.1875 C 3.3125 10.660156 2.421875 9.402344 2.421875 7.949219 C 2.421875 6.777344 2.988281 5.742188 3.867188 5.105469 C 3.957031 5.039062 4.082031 5.027344 4.183594 5.078125 C 4.285156 5.132812 4.347656 5.238281 4.347656 5.351562 C 4.351562 6.34375 4.351562 8.34375 4.351562 8.34375 L 5.941406 9.257812 L 7.53125 8.34375 L 7.53125 5.351562 C 7.53125 5.238281 7.597656 5.132812 7.699219 5.078125 C 7.800781 5.027344 7.925781 5.035156 8.019531 5.105469 C 8.890625 5.746094 9.457031 6.777344 9.457031 7.949219 C 9.457031 9.402344 8.566406 10.660156 7.300781 11.1875 L 7.300781 13.75 C 6.320312 14.339844 5.40625 15.039062 4.582031 15.828125 Z M 20.523438 12.679688 C 19.867188 12.417969 19.1875 12.203125 18.492188 12.035156 C 18.609375 11.652344 18.777344 11.289062 18.984375 10.949219 L 18.585938 10.050781 L 19.644531 8.996094 L 20.539062 9.394531 C 20.96875 9.132812 21.433594 8.9375 21.917969 8.824219 L 22.273438 7.90625 L 23.765625 7.90625 L 24.121094 8.824219 C 24.605469 8.9375 25.070312 9.132812 25.5 9.394531 L 26.394531 8.996094 L 27.453125 10.050781 L 27.054688 10.949219 C 27.320312 11.375 27.511719 11.839844 27.625 12.328125 L 28.542969 12.683594 L 28.542969 14.175781 L 27.625 14.527344 C 27.511719 15.015625 27.316406 15.480469 27.054688 15.910156 L 27.453125 16.804688 L 26.84375 17.414062 C 26.238281 16.648438 25.5625 15.941406 24.828125 15.304688 C 25.320312 14.832031 25.628906 14.164062 25.628906 13.429688 C 25.628906 11.988281 24.460938 10.824219 23.019531 10.824219 C 21.839844 10.824219 20.84375 11.605469 20.523438 12.679688 Z M 29.207031 26.648438 L 26.308594 26.648438 C 26.238281 24.902344 25.785156 23.253906 25.035156 21.792969 L 27.546875 20.308594 C 28.542969 22.207031 29.132812 24.363281 29.207031 26.648438 Z M 27.0625 19.449219 L 24.550781 20.933594 C 23.65625 19.507812 22.46875 18.292969 21.070312 17.386719 L 22.527344 14.808594 C 24.359375 15.984375 25.914062 17.574219 27.0625 19.449219 Z M 21.675781 14.308594 L 20.222656 16.886719 C 18.792969 16.125 17.1875 15.667969 15.484375 15.59375 L 15.484375 12.613281 C 17.71875 12.691406 19.820312 13.296875 21.675781 14.308594 Z M 14.5 12.613281 L 14.5 15.59375 C 12.796875 15.667969 11.191406 16.125 9.765625 16.886719 L 8.308594 14.308594 C 10.164062 13.296875 12.265625 12.691406 14.5 12.613281 Z M 7.460938 14.808594 L 8.914062 17.386719 C 7.515625 18.292969 6.328125 19.507812 5.4375 20.933594 L 2.921875 19.449219 C 4.070312 17.574219 5.625 15.984375 7.460938 14.808594 Z M 2.4375 20.308594 L 4.949219 21.792969 C 4.199219 23.253906 3.75 24.902344 3.675781 26.648438 L 0.777344 26.648438 C 0.851562 24.363281 1.445312 22.207031 2.4375 20.308594 Z M 17.546875 26.648438 L 19.839844 21.089844 C 20.0625 20.554688 19.851562 19.933594 19.347656 19.640625 C 18.84375 19.347656 18.203125 19.472656 17.84375 19.929688 L 14.171875 24.636719 C 13.570312 24.839844 13.042969 25.261719 12.710938 25.867188 C 12.574219 26.117188 12.484375 26.382812 12.433594 26.648438 L 4.660156 26.648438 C 4.914062 21.039062 9.441406 16.566406 14.992188 16.566406 C 20.542969 16.566406 25.070312 21.039062 25.324219 26.648438 Z M 15.484375 24.550781 L 18.617188 20.535156 C 18.671875 20.460938 18.773438 20.441406 18.855469 20.488281 C 18.933594 20.535156 18.96875 20.632812 18.933594 20.71875 L 16.980469 25.449219 C 16.785156 25.210938 16.542969 25.003906 16.261719 24.839844 C 16.261719 24.839844 16.257812 24.839844 16.257812 24.839844 C 16.007812 24.699219 15.746094 24.601562 15.484375 24.550781 Z M 15.773438 25.691406 C 16.558594 26.140625 16.839844 27.148438 16.398438 27.945312 C 15.960938 28.742188 14.976562 29.03125 14.195312 28.589844 C 13.414062 28.140625 13.136719 27.132812 13.574219 26.335938 C 14.007812 25.539062 14.992188 25.25 15.773438 25.691406 Z M 15.773438 25.691406 " fill-opacity="1" fill-rule="evenodd"/></g></svg>