<svg xmlns="http://www.w3.org/2000/svg" xmlns:xlink="http://www.w3.org/1999/xlink" width="40" zoomAndPan="magnify" viewBox="0 0 30 30.000001" height="40" preserveAspectRatio="xMidYMid meet" version="1.0"><defs><clipPath id="c69be800f4"><path d="M 0.484375 0 L 29.515625 0 L 29.515625 29.03125 L 0.484375 29.03125 Z M 0.484375 0 " clip-rule="nonzero"/></clipPath><clipPath id="55314bbdf0"><path d="M 0.484375 0.234375 L 29.515625 0.234375 L 29.515625 28.542969 L 0.484375 28.542969 Z M 0.484375 0.234375 " clip-rule="nonzero"/></clipPath></defs><g clip-path="url(#c69be800f4)"><path fill="#ffffff" d="M 0.484375 0 L 29.515625 0 L 29.515625 29.03125 L 0.484375 29.03125 Z M 0.484375 0 " fill-opacity="1" fill-rule="nonzero"/><path fill="#ffffff" d="M 0.484375 0 L 29.515625 0 L 29.515625 29.03125 L 0.484375 29.03125 Z M 0.484375 0 " fill-opacity="1" fill-rule="nonzero"/></g><g clip-path="url(#55314bbdf0)"><path fill="#925f3d" d="M 10.027344 9.746094 L 15.011719 12.621094 C 15.082031 12.664062 15.160156 12.683594 15.238281 12.683594 C 15.320312 12.683594 15.398438 12.664062 15.46875 12.621094 L 20.453125 9.746094 C 20.59375 9.664062 20.683594 9.511719 20.683594 9.347656 L 20.683594 3.59375 C 20.683594 3.429688 20.59375 3.277344 20.453125 3.195312 L 15.46875 0.320312 C 15.328125 0.238281 15.152344 0.238281 15.011719 0.320312 L 10.027344 3.195312 C 9.886719 3.277344 9.796875 3.429688 9.796875 3.59375 L 9.796875 9.347656 C 9.796875 9.511719 9.886719 9.664062 10.027344 9.746094 Z M 10.71875 4.390625 L 11.566406 4.882812 L 11.566406 6.882812 C 11.566406 7.046875 11.652344 7.199219 11.796875 7.28125 L 13.242188 8.113281 C 13.3125 8.15625 13.390625 8.175781 13.472656 8.175781 C 13.550781 8.175781 13.628906 8.15625 13.703125 8.113281 C 13.84375 8.03125 13.929688 7.878906 13.929688 7.714844 L 13.929688 6.246094 L 14.78125 6.738281 L 14.78125 11.425781 L 10.71875 9.082031 Z M 19.300781 3.59375 L 15.238281 5.941406 L 14.390625 5.449219 L 18.453125 3.105469 Z M 12.488281 5.414062 L 13.011719 5.714844 L 13.011719 6.917969 L 12.488281 6.617188 Z M 17.53125 2.574219 L 13.472656 4.917969 L 12.945312 4.617188 L 17.007812 2.269531 Z M 15.699219 11.425781 L 15.699219 6.738281 L 19.761719 4.390625 L 19.761719 9.082031 Z M 15.238281 1.25 L 16.089844 1.738281 L 12.027344 4.085938 L 11.179688 3.59375 Z M 10.5625 26.8125 C 10.332031 27.089844 10.074219 27.351562 9.789062 27.582031 C 8.816406 28.371094 7.625 28.792969 6.386719 28.792969 C 6.226562 28.792969 6.0625 28.785156 5.898438 28.769531 C 4.835938 28.675781 3.84375 28.277344 3.023438 27.625 C 3.066406 27.871094 2.902344 28.109375 2.652344 28.15625 C 2.625 28.160156 2.597656 28.164062 2.570312 28.164062 C 2.351562 28.164062 2.15625 28.007812 2.117188 27.789062 L 1.886719 26.53125 C 1.859375 26.386719 1.902344 26.238281 2 26.132812 C 2.101562 26.027344 2.246094 25.972656 2.390625 25.988281 L 3.679688 26.144531 C 3.933594 26.171875 4.113281 26.402344 4.085938 26.652344 C 4.0625 26.839844 3.933594 26.984375 3.769531 27.035156 C 5.378906 28.195312 7.597656 28.175781 9.207031 26.867188 C 9.445312 26.675781 9.660156 26.460938 9.851562 26.226562 C 10.011719 26.03125 10.300781 26 10.5 26.164062 C 10.695312 26.324219 10.722656 26.613281 10.5625 26.8125 Z M 1.914062 25.566406 C 1.859375 25.585938 1.804688 25.59375 1.753906 25.59375 C 1.566406 25.59375 1.390625 25.480469 1.320312 25.296875 C 0.496094 23.117188 1.160156 20.664062 2.96875 19.191406 C 3.386719 18.851562 3.851562 18.578125 4.347656 18.378906 C 4.15625 18.269531 4.0625 18.035156 4.140625 17.824219 C 4.222656 17.582031 4.488281 17.457031 4.726562 17.542969 L 5.929688 17.96875 C 6.070312 18.019531 6.175781 18.128906 6.21875 18.269531 C 6.261719 18.410156 6.234375 18.5625 6.144531 18.679688 L 5.367188 19.71875 C 5.277344 19.839844 5.140625 19.90625 5 19.90625 C 4.902344 19.90625 4.808594 19.875 4.726562 19.8125 C 4.554688 19.6875 4.5 19.46875 4.570312 19.28125 C 4.207031 19.441406 3.863281 19.652344 3.550781 19.90625 C 2.046875 21.125 1.5 23.164062 2.183594 24.972656 C 2.273438 25.210938 2.152344 25.476562 1.914062 25.566406 Z M 12.34375 24.277344 C 12.511719 24.46875 12.488281 24.761719 12.292969 24.925781 L 11.320312 25.753906 C 11.238281 25.828125 11.132812 25.863281 11.023438 25.863281 C 10.988281 25.863281 10.953125 25.859375 10.917969 25.851562 C 10.777344 25.820312 10.65625 25.71875 10.601562 25.585938 L 10.085938 24.394531 C 9.988281 24.160156 10.09375 23.886719 10.328125 23.789062 C 10.507812 23.710938 10.707031 23.757812 10.835938 23.886719 C 10.972656 22.703125 10.632812 21.507812 9.859375 20.558594 C 9.167969 19.703125 8.1875 19.136719 7.105469 18.960938 C 6.851562 18.917969 6.683594 18.683594 6.722656 18.429688 C 6.765625 18.179688 7 18.011719 7.253906 18.050781 C 8.558594 18.265625 9.738281 18.949219 10.574219 19.976562 C 11.554688 21.179688 11.957031 22.707031 11.722656 24.203125 C 11.917969 24.0625 12.1875 24.09375 12.34375 24.277344 Z M 29.117188 22 L 27.898438 21.804688 C 27.835938 21.617188 27.761719 21.4375 27.671875 21.261719 L 28.398438 20.257812 C 28.53125 20.074219 28.511719 19.824219 28.351562 19.664062 L 27.359375 18.671875 C 27.199219 18.511719 26.949219 18.492188 26.765625 18.625 L 25.761719 19.351562 C 25.585938 19.261719 25.40625 19.1875 25.21875 19.125 L 25.023438 17.902344 C 24.988281 17.679688 24.792969 17.515625 24.570312 17.515625 L 23.167969 17.515625 C 22.941406 17.515625 22.75 17.679688 22.714844 17.902344 L 22.519531 19.125 C 22.332031 19.1875 22.152344 19.261719 21.976562 19.351562 L 20.972656 18.625 C 20.789062 18.492188 20.539062 18.511719 20.378906 18.671875 L 19.386719 19.664062 C 19.226562 19.824219 19.207031 20.074219 19.339844 20.257812 L 20.066406 21.261719 C 19.976562 21.4375 19.902344 21.617188 19.839844 21.804688 L 18.617188 22 C 18.394531 22.035156 18.230469 22.226562 18.230469 22.453125 L 18.230469 23.855469 C 18.230469 24.078125 18.394531 24.273438 18.617188 24.308594 L 19.839844 24.503906 C 19.902344 24.691406 19.976562 24.871094 20.066406 25.046875 L 19.339844 26.050781 C 19.207031 26.234375 19.226562 26.484375 19.386719 26.644531 L 20.378906 27.636719 C 20.539062 27.796875 20.789062 27.816406 20.972656 27.683594 L 21.976562 26.957031 C 22.152344 27.046875 22.332031 27.121094 22.519531 27.183594 L 22.714844 28.402344 C 22.75 28.628906 22.941406 28.792969 23.167969 28.792969 L 24.570312 28.792969 C 24.792969 28.792969 24.988281 28.628906 25.023438 28.402344 L 25.21875 27.183594 C 25.40625 27.121094 25.585938 27.046875 25.761719 26.957031 L 26.765625 27.683594 C 26.949219 27.816406 27.199219 27.796875 27.359375 27.636719 L 28.351562 26.644531 C 28.511719 26.484375 28.53125 26.234375 28.398438 26.050781 L 27.671875 25.046875 C 27.761719 24.871094 27.835938 24.691406 27.898438 24.503906 L 29.117188 24.308594 C 29.34375 24.273438 29.507812 24.082031 29.507812 23.855469 L 29.507812 22.453125 C 29.507812 22.226562 29.34375 22.035156 29.117188 22 Z M 28.585938 23.460938 L 27.464844 23.640625 C 27.285156 23.667969 27.136719 23.804688 27.09375 23.980469 C 27.015625 24.285156 26.894531 24.578125 26.734375 24.847656 C 26.640625 25.007812 26.648438 25.203125 26.757812 25.351562 L 27.421875 26.273438 L 26.988281 26.707031 L 26.066406 26.042969 C 25.917969 25.933594 25.722656 25.925781 25.5625 26.019531 C 25.292969 26.179688 25 26.300781 24.695312 26.378906 C 24.519531 26.421875 24.382812 26.570312 24.355469 26.75 L 24.175781 27.871094 L 23.5625 27.871094 L 23.382812 26.75 C 23.351562 26.570312 23.21875 26.421875 23.042969 26.378906 C 22.738281 26.300781 22.445312 26.179688 22.175781 26.019531 C 22.015625 25.925781 21.820312 25.933594 21.667969 26.042969 L 20.75 26.707031 L 20.316406 26.273438 L 20.980469 25.351562 C 21.089844 25.203125 21.097656 25.007812 21.003906 24.847656 C 20.84375 24.578125 20.722656 24.285156 20.644531 23.980469 C 20.597656 23.804688 20.453125 23.667969 20.273438 23.640625 L 19.152344 23.460938 L 19.152344 22.847656 L 20.273438 22.667969 C 20.453125 22.636719 20.597656 22.503906 20.644531 22.328125 C 20.722656 22.023438 20.84375 21.730469 21.003906 21.460938 C 21.097656 21.300781 21.089844 21.105469 20.980469 20.957031 L 20.316406 20.035156 L 20.75 19.601562 L 21.667969 20.265625 C 21.816406 20.375 22.015625 20.382812 22.175781 20.289062 C 22.445312 20.128906 22.738281 20.007812 23.042969 19.929688 C 23.21875 19.882812 23.351562 19.738281 23.382812 19.558594 L 23.5625 18.4375 L 24.175781 18.4375 L 24.355469 19.558594 C 24.382812 19.738281 24.519531 19.882812 24.695312 19.929688 C 25 20.007812 25.292969 20.128906 25.5625 20.289062 C 25.722656 20.382812 25.917969 20.375 26.066406 20.265625 L 26.988281 19.601562 L 27.421875 20.035156 L 26.757812 20.957031 C 26.648438 21.105469 26.640625 21.300781 26.734375 21.460938 C 26.894531 21.730469 27.015625 22.023438 27.09375 22.328125 C 27.136719 22.503906 27.285156 22.636719 27.464844 22.667969 L 28.585938 22.847656 Z M 23.867188 20.625 C 22.476562 20.625 21.339844 21.761719 21.339844 23.152344 C 21.339844 24.546875 22.476562 25.683594 23.867188 25.683594 C 25.261719 25.683594 26.398438 24.546875 26.398438 23.152344 C 26.398438 21.761719 25.261719 20.625 23.867188 20.625 Z M 23.867188 24.761719 C 22.980469 24.761719 22.261719 24.039062 22.261719 23.152344 C 22.261719 22.265625 22.980469 21.546875 23.867188 21.546875 C 24.753906 21.546875 25.476562 22.265625 25.476562 23.152344 C 25.476562 24.039062 24.753906 24.761719 23.867188 24.761719 Z M 20.914062 6.472656 C 20.914062 6.320312 20.988281 6.175781 21.113281 6.089844 L 23.015625 4.800781 C 23.226562 4.65625 23.511719 4.710938 23.65625 4.921875 C 23.796875 5.132812 23.742188 5.417969 23.53125 5.5625 L 22.871094 6.011719 L 25.605469 6.011719 C 25.859375 6.011719 26.066406 6.21875 26.066406 6.472656 L 26.066406 15.636719 C 26.066406 15.890625 25.859375 16.097656 25.605469 16.097656 C 25.351562 16.097656 25.144531 15.890625 25.144531 15.636719 L 25.144531 6.933594 L 22.871094 6.933594 L 23.53125 7.382812 C 23.742188 7.523438 23.796875 7.808594 23.65625 8.019531 C 23.566406 8.152344 23.421875 8.222656 23.273438 8.222656 C 23.183594 8.222656 23.09375 8.195312 23.015625 8.144531 L 21.113281 6.851562 C 20.988281 6.765625 20.914062 6.625 20.914062 6.472656 Z M 4.707031 14.871094 C 4.566406 14.660156 4.621094 14.375 4.832031 14.234375 C 5.039062 14.089844 5.328125 14.144531 5.46875 14.355469 L 5.917969 15.015625 L 5.917969 6.472656 C 5.917969 6.21875 6.125 6.011719 6.378906 6.011719 L 8.964844 6.011719 C 9.21875 6.011719 9.425781 6.21875 9.425781 6.472656 C 9.425781 6.726562 9.21875 6.933594 8.964844 6.933594 L 6.839844 6.933594 L 6.839844 15.015625 L 7.289062 14.355469 C 7.429688 14.144531 7.71875 14.089844 7.929688 14.234375 C 8.136719 14.375 8.191406 14.660156 8.050781 14.871094 L 6.761719 16.773438 C 6.675781 16.898438 6.53125 16.976562 6.378906 16.976562 C 6.226562 16.976562 6.082031 16.898438 6 16.773438 Z M 17.816406 23.152344 C 17.816406 23.308594 17.742188 23.449219 17.613281 23.535156 L 15.710938 24.824219 C 15.632812 24.878906 15.542969 24.90625 15.453125 24.90625 C 15.308594 24.90625 15.164062 24.835938 15.074219 24.703125 C 14.929688 24.492188 14.984375 24.207031 15.195312 24.0625 L 15.859375 23.613281 L 13.125 23.613281 C 12.871094 23.613281 12.664062 23.410156 12.664062 23.152344 C 12.664062 22.898438 12.871094 22.695312 13.125 22.695312 L 15.859375 22.695312 L 15.195312 22.246094 C 14.984375 22.101562 14.929688 21.816406 15.074219 21.605469 C 15.214844 21.394531 15.503906 21.339844 15.710938 21.484375 L 17.613281 22.773438 C 17.742188 22.859375 17.816406 23 17.816406 23.152344 Z M 17.816406 23.152344 " fill-opacity="1" fill-rule="nonzero"/></g></svg>