<svg xmlns="http://www.w3.org/2000/svg" xmlns:xlink="http://www.w3.org/1999/xlink" width="40" zoomAndPan="magnify" viewBox="0 0 30 30.000001" height="40" preserveAspectRatio="xMidYMid meet" version="1.0"><defs><clipPath id="988cc15f75"><path d="M 0.484375 0 L 29.515625 0 L 29.515625 29.03125 L 0.484375 29.03125 Z M 0.484375 0 " clip-rule="nonzero"/></clipPath><clipPath id="cfe927ea25"><path d="M 1.011719 0 L 29 0 L 29 29.03125 L 1.011719 29.03125 Z M 1.011719 0 " clip-rule="nonzero"/></clipPath></defs><g clip-path="url(#988cc15f75)"><path fill="#ffffff" d="M 0.484375 0 L 29.515625 0 L 29.515625 29.03125 L 0.484375 29.03125 Z M 0.484375 0 " fill-opacity="1" fill-rule="nonzero"/><path fill="#ffffff" d="M 0.484375 0 L 29.515625 0 L 29.515625 29.03125 L 0.484375 29.03125 Z M 0.484375 0 " fill-opacity="1" fill-rule="nonzero"/></g><path fill="#925f3d" d="M 17.195312 8.289062 L 7.828125 8.289062 C 7.554688 8.289062 7.300781 8.394531 7.109375 8.585938 C 6.917969 8.78125 6.8125 9.035156 6.8125 9.308594 L 6.8125 15.542969 C 6.8125 15.8125 6.917969 16.070312 7.109375 16.261719 C 7.300781 16.453125 7.554688 16.558594 7.828125 16.558594 L 10.980469 16.558594 L 10.535156 17.570312 L 9.671875 17.570312 C 9.519531 17.570312 9.398438 17.695312 9.398438 17.847656 C 9.398438 17.996094 9.519531 18.121094 9.671875 18.121094 L 15.351562 18.121094 C 15.503906 18.121094 15.625 17.996094 15.625 17.847656 C 15.625 17.695312 15.503906 17.570312 15.351562 17.570312 L 14.488281 17.570312 L 14.042969 16.558594 L 17.195312 16.558594 C 17.464844 16.558594 17.722656 16.453125 17.914062 16.261719 C 18.105469 16.070312 18.210938 15.8125 18.210938 15.542969 L 18.210938 9.308594 C 18.210938 9.035156 18.105469 8.78125 17.914062 8.585938 C 17.722656 8.394531 17.464844 8.289062 17.195312 8.289062 Z M 11.125 17.570312 L 11.570312 16.558594 L 13.453125 16.558594 L 13.898438 17.570312 Z M 17.664062 15.542969 C 17.664062 15.800781 17.453125 16.011719 17.195312 16.011719 L 7.828125 16.011719 C 7.570312 16.011719 7.359375 15.800781 7.359375 15.542969 L 7.359375 15.003906 L 17.664062 15.003906 Z M 17.664062 14.453125 L 7.359375 14.453125 L 7.359375 9.308594 C 7.359375 9.046875 7.570312 8.839844 7.828125 8.839844 L 17.195312 8.839844 C 17.453125 8.839844 17.664062 9.046875 17.664062 9.308594 Z M 17.664062 14.453125 " fill-opacity="1" fill-rule="nonzero"/><path fill="#925f3d" d="M 10.953125 12.160156 C 10.839844 12.050781 10.710938 11.960938 10.5625 11.898438 C 10.414062 11.835938 10.25 11.800781 10.085938 11.800781 C 9.921875 11.800781 9.761719 11.835938 9.609375 11.898438 C 9.464844 11.960938 9.332031 12.050781 9.21875 12.160156 C 9.105469 12.273438 9.019531 12.40625 8.957031 12.550781 C 8.894531 12.703125 8.859375 12.863281 8.859375 13.027344 C 8.859375 13.195312 8.894531 13.355469 8.957031 13.503906 C 9.019531 13.652344 9.105469 13.78125 9.21875 13.894531 C 9.332031 14.007812 9.464844 14.09375 9.609375 14.15625 C 9.761719 14.222656 9.921875 14.253906 10.085938 14.253906 C 10.25 14.253906 10.414062 14.222656 10.5625 14.15625 C 10.710938 14.09375 10.839844 14.007812 10.953125 13.894531 C 11.066406 13.78125 11.152344 13.652344 11.214844 13.503906 C 11.28125 13.355469 11.3125 13.195312 11.3125 13.027344 C 11.3125 12.863281 11.28125 12.703125 11.214844 12.550781 C 11.152344 12.40625 11.066406 12.273438 10.953125 12.160156 Z M 10.273438 12.199219 C 10.472656 12.246094 10.652344 12.359375 10.773438 12.527344 L 10.273438 12.742188 Z M 10.085938 13.878906 C 9.617188 13.878906 9.238281 13.496094 9.238281 13.027344 C 9.238281 12.824219 9.3125 12.625 9.445312 12.46875 C 9.566406 12.335938 9.722656 12.238281 9.898438 12.199219 L 9.898438 13.027344 C 9.898438 13.089844 9.929688 13.152344 9.984375 13.183594 C 10.015625 13.207031 10.050781 13.214844 10.085938 13.214844 C 10.113281 13.214844 10.136719 13.210938 10.160156 13.199219 L 10.921875 12.871094 C 10.929688 12.921875 10.9375 12.976562 10.9375 13.027344 C 10.9375 13.496094 10.554688 13.878906 10.085938 13.878906 Z M 10.085938 13.878906 " fill-opacity="1" fill-rule="nonzero"/><path fill="#925f3d" d="M 10.953125 9.5 C 10.839844 9.386719 10.710938 9.296875 10.5625 9.238281 C 10.414062 9.171875 10.25 9.140625 10.085938 9.140625 C 9.921875 9.140625 9.761719 9.171875 9.609375 9.238281 C 9.464844 9.296875 9.332031 9.386719 9.21875 9.5 C 9.105469 9.613281 9.019531 9.742188 8.957031 9.890625 C 8.894531 10.039062 8.859375 10.199219 8.859375 10.367188 C 8.859375 10.53125 8.894531 10.691406 8.957031 10.84375 C 9.019531 10.988281 9.105469 11.121094 9.21875 11.234375 C 9.332031 11.34375 9.464844 11.433594 9.609375 11.496094 C 9.761719 11.558594 9.921875 11.589844 10.085938 11.589844 C 10.25 11.589844 10.414062 11.558594 10.5625 11.496094 C 10.710938 11.433594 10.839844 11.34375 10.953125 11.234375 C 11.066406 11.121094 11.152344 10.988281 11.214844 10.84375 C 11.28125 10.691406 11.3125 10.53125 11.3125 10.367188 C 11.3125 10.199219 11.28125 10.039062 11.214844 9.890625 C 11.152344 9.742188 11.066406 9.613281 10.953125 9.5 Z M 10.273438 9.539062 C 10.472656 9.582031 10.652344 9.699219 10.773438 9.863281 L 10.273438 10.078125 Z M 10.085938 11.214844 C 9.617188 11.214844 9.238281 10.835938 9.238281 10.367188 C 9.238281 10.160156 9.3125 9.960938 9.445312 9.808594 C 9.566406 9.671875 9.722656 9.578125 9.898438 9.539062 L 9.898438 10.367188 C 9.898438 10.429688 9.929688 10.488281 9.984375 10.523438 C 10.015625 10.542969 10.050781 10.554688 10.085938 10.554688 C 10.113281 10.554688 10.136719 10.546875 10.160156 10.539062 L 10.921875 10.210938 C 10.929688 10.261719 10.9375 10.3125 10.9375 10.367188 C 10.9375 10.835938 10.554688 11.214844 10.085938 11.214844 Z M 10.085938 11.214844 " fill-opacity="1" fill-rule="nonzero"/><path fill="#925f3d" d="M 16.316406 11.359375 L 16.078125 11.359375 L 16.078125 9.785156 C 16.078125 9.683594 15.992188 9.597656 15.890625 9.597656 L 15.347656 9.597656 C 15.242188 9.597656 15.160156 9.683594 15.160156 9.785156 L 15.160156 11.359375 L 14.933594 11.359375 L 14.933594 10.367188 C 14.933594 10.261719 14.847656 10.179688 14.742188 10.179688 L 14.203125 10.179688 C 14.097656 10.179688 14.011719 10.261719 14.011719 10.367188 L 14.011719 11.359375 L 13.785156 11.359375 L 13.785156 10.699219 C 13.785156 10.597656 13.699219 10.511719 13.59375 10.511719 L 13.054688 10.511719 C 12.949219 10.511719 12.863281 10.597656 12.863281 10.699219 L 12.863281 11.359375 L 12.699219 11.359375 L 12.699219 9.605469 C 12.699219 9.503906 12.613281 9.417969 12.511719 9.417969 C 12.40625 9.417969 12.324219 9.503906 12.324219 9.605469 L 12.324219 11.550781 C 12.324219 11.652344 12.40625 11.738281 12.511719 11.738281 L 16.316406 11.738281 C 16.421875 11.738281 16.503906 11.652344 16.503906 11.550781 C 16.503906 11.445312 16.421875 11.359375 16.316406 11.359375 Z M 13.40625 11.359375 L 13.242188 11.359375 L 13.242188 10.886719 L 13.40625 10.886719 Z M 14.554688 11.359375 L 14.390625 11.359375 L 14.390625 10.554688 L 14.554688 10.554688 Z M 15.699219 11.359375 L 15.535156 11.359375 L 15.535156 9.972656 L 15.699219 9.972656 Z M 15.699219 11.359375 " fill-opacity="1" fill-rule="nonzero"/><path fill="#925f3d" d="M 16.3125 13.726562 L 13.175781 13.777344 L 14.226562 13.050781 L 14.390625 13.398438 C 14.410156 13.445312 14.453125 13.484375 14.503906 13.5 C 14.519531 13.503906 14.539062 13.507812 14.558594 13.507812 C 14.59375 13.507812 14.625 13.5 14.652344 13.480469 L 16.375 12.492188 L 16.1875 12.167969 L 14.644531 13.054688 L 14.472656 12.691406 C 14.449219 12.640625 14.40625 12.605469 14.351562 12.589844 C 14.335938 12.585938 14.320312 12.582031 14.304688 12.582031 C 14.265625 12.582031 14.230469 12.59375 14.199219 12.617188 L 12.699219 13.648438 L 12.699219 12.488281 C 12.699219 12.386719 12.617188 12.300781 12.511719 12.300781 C 12.40625 12.300781 12.324219 12.386719 12.324219 12.488281 L 12.324219 13.96875 C 12.324219 14.019531 12.339844 14.066406 12.375 14.101562 C 12.410156 14.140625 12.457031 14.164062 12.511719 14.164062 L 16.320312 14.105469 C 16.421875 14.101562 16.507812 14.015625 16.503906 13.914062 C 16.503906 13.808594 16.417969 13.726562 16.3125 13.726562 Z M 16.3125 13.726562 " fill-opacity="1" fill-rule="nonzero"/><g clip-path="url(#cfe927ea25)"><path fill="#925f3d" d="M 28.28125 24.921875 L 22.558594 19.203125 C 22.441406 19.082031 22.246094 19.082031 22.125 19.203125 L 21.78125 19.546875 L 20.277344 18.042969 C 20.703125 17.441406 21.058594 16.792969 21.339844 16.101562 C 21.570312 15.53125 21.75 14.933594 21.867188 14.324219 C 21.984375 13.722656 22.042969 13.105469 22.042969 12.492188 C 22.042969 11.878906 21.984375 11.261719 21.867188 10.660156 C 21.828125 10.472656 21.789062 10.285156 21.742188 10.101562 L 22.042969 10.148438 C 22.054688 10.148438 22.070312 10.148438 22.082031 10.148438 C 22.175781 10.148438 22.265625 10.097656 22.3125 10.011719 L 22.808594 9.082031 L 23.515625 8.90625 L 24.390625 9.5 C 24.480469 9.558594 24.601562 9.558594 24.691406 9.492188 L 25.667969 8.769531 C 25.757812 8.707031 25.796875 8.589844 25.761719 8.488281 L 25.457031 7.476562 L 25.835938 6.851562 L 26.871094 6.652344 C 26.976562 6.632812 27.0625 6.546875 27.078125 6.4375 L 27.261719 5.234375 C 27.277344 5.125 27.222656 5.019531 27.125 4.964844 L 26.195312 4.46875 L 26.019531 3.761719 L 26.613281 2.886719 C 26.671875 2.796875 26.671875 2.675781 26.605469 2.585938 L 25.882812 1.605469 C 25.820312 1.519531 25.707031 1.480469 25.601562 1.511719 L 24.589844 1.816406 L 23.964844 1.441406 L 23.765625 0.40625 C 23.746094 0.296875 23.660156 0.214844 23.550781 0.199219 L 22.347656 0.015625 C 22.238281 0 22.132812 0.0546875 22.078125 0.148438 L 21.582031 1.082031 L 20.875 1.253906 L 20 0.664062 C 19.910156 0.601562 19.789062 0.605469 19.699219 0.671875 L 18.722656 1.390625 C 18.632812 1.457031 18.59375 1.570312 18.625 1.675781 L 18.933594 2.6875 L 18.554688 3.308594 L 17.519531 3.511719 C 17.410156 3.53125 17.328125 3.617188 17.3125 3.726562 L 17.242188 4.175781 C 16.863281 3.957031 16.46875 3.765625 16.054688 3.597656 C 15.484375 3.367188 14.886719 3.1875 14.277344 3.070312 C 13.675781 2.953125 13.058594 2.894531 12.445312 2.894531 C 11.832031 2.894531 11.214844 2.953125 10.613281 3.070312 C 10.003906 3.1875 9.40625 3.367188 8.832031 3.597656 C 7.644531 4.082031 6.574219 4.789062 5.660156 5.707031 C 4.867188 6.496094 4.226562 7.40625 3.757812 8.410156 C 3.300781 9.378906 3.015625 10.410156 2.902344 11.480469 C 2.789062 12.542969 2.851562 13.605469 3.089844 14.640625 C 3.308594 15.597656 3.667969 16.503906 4.160156 17.34375 L 4.125 17.34375 C 4.015625 17.34375 3.917969 17.414062 3.882812 17.519531 L 3.65625 18.175781 L 3.257812 18.347656 L 2.625 18.054688 C 2.523438 18.011719 2.40625 18.03125 2.328125 18.109375 L 1.738281 18.714844 C 1.664062 18.792969 1.644531 18.910156 1.691406 19.011719 L 2 19.636719 L 1.835938 20.039062 L 1.183594 20.28125 C 1.078125 20.316406 1.011719 20.417969 1.011719 20.527344 L 1.023438 21.371094 C 1.023438 21.480469 1.09375 21.578125 1.199219 21.613281 L 1.859375 21.839844 L 2.027344 22.238281 L 1.738281 22.871094 C 1.691406 22.96875 1.710938 23.089844 1.789062 23.164062 L 2.394531 23.753906 C 2.472656 23.832031 2.589844 23.851562 2.691406 23.800781 L 3.316406 23.496094 L 3.71875 23.65625 L 3.960938 24.3125 C 3.996094 24.414062 4.09375 24.480469 4.203125 24.480469 C 4.203125 24.480469 4.207031 24.480469 4.207031 24.480469 L 5.050781 24.472656 C 5.160156 24.46875 5.257812 24.398438 5.292969 24.296875 L 5.519531 23.636719 L 5.917969 23.464844 L 6.550781 23.757812 C 6.648438 23.804688 6.769531 23.78125 6.84375 23.703125 L 7.433594 23.097656 C 7.511719 23.019531 7.53125 22.902344 7.480469 22.804688 L 7.175781 22.179688 L 7.335938 21.773438 L 7.992188 21.535156 C 8.09375 21.496094 8.160156 21.398438 8.160156 21.289062 L 8.160156 21.082031 C 8.96875 21.484375 9.832031 21.773438 10.730469 21.933594 C 11.296875 22.039062 11.871094 22.089844 12.445312 22.089844 C 12.878906 22.089844 13.316406 22.058594 13.75 22 C 14.765625 21.859375 15.746094 21.5625 16.664062 21.113281 C 17.128906 20.886719 17.574219 20.621094 17.996094 20.320312 L 19.5 21.828125 L 19.15625 22.171875 C 19.035156 22.292969 19.035156 22.488281 19.15625 22.605469 L 24.875 28.328125 C 25.332031 28.78125 25.933594 29.03125 26.578125 29.03125 C 27.222656 29.03125 27.824219 28.78125 28.28125 28.328125 C 28.734375 27.871094 28.984375 27.265625 28.984375 26.625 C 28.984375 25.980469 28.734375 25.375 28.28125 24.921875 Z M 17.796875 3.984375 L 18.765625 3.796875 C 18.839844 3.785156 18.902344 3.738281 18.941406 3.675781 L 19.4375 2.855469 C 19.472656 2.792969 19.484375 2.71875 19.460938 2.648438 L 19.175781 1.703125 L 19.859375 1.195312 L 20.679688 1.75 C 20.738281 1.789062 20.816406 1.804688 20.886719 1.785156 L 21.816406 1.558594 C 21.886719 1.539062 21.949219 1.492188 21.984375 1.425781 L 22.449219 0.558594 L 23.292969 0.683594 L 23.480469 1.652344 C 23.492188 1.726562 23.535156 1.789062 23.597656 1.828125 L 24.421875 2.320312 C 24.484375 2.359375 24.558594 2.371094 24.628906 2.347656 L 25.574219 2.0625 L 26.078125 2.746094 L 25.527344 3.566406 C 25.484375 3.625 25.472656 3.703125 25.488281 3.773438 L 25.71875 4.703125 C 25.738281 4.773438 25.785156 4.835938 25.847656 4.871094 L 26.71875 5.335938 L 26.59375 6.175781 L 25.621094 6.363281 C 25.550781 6.378906 25.488281 6.421875 25.449219 6.484375 L 24.953125 7.304688 C 24.917969 7.371094 24.90625 7.445312 24.929688 7.515625 L 25.214844 8.460938 L 24.527344 8.964844 L 23.710938 8.414062 C 23.648438 8.371094 23.574219 8.359375 23.503906 8.375 L 22.574219 8.605469 C 22.5 8.625 22.441406 8.671875 22.40625 8.734375 L 21.941406 9.605469 L 21.582031 9.550781 C 21.507812 9.324219 21.429688 9.101562 21.339844 8.878906 C 20.855469 7.6875 20.148438 6.621094 19.230469 5.707031 C 18.765625 5.242188 18.261719 4.828125 17.722656 4.472656 Z M 7.050781 21.328125 C 6.980469 21.351562 6.925781 21.40625 6.898438 21.476562 L 6.652344 22.09375 C 6.625 22.160156 6.625 22.238281 6.660156 22.304688 L 6.933594 22.867188 L 6.601562 23.210938 L 6.03125 22.945312 C 5.964844 22.914062 5.886719 22.914062 5.820312 22.941406 L 5.207031 23.203125 C 5.140625 23.234375 5.089844 23.289062 5.066406 23.359375 L 4.859375 23.953125 L 4.382812 23.960938 L 4.164062 23.371094 C 4.140625 23.300781 4.085938 23.246094 4.019531 23.21875 L 3.402344 22.972656 C 3.371094 22.957031 3.335938 22.953125 3.304688 22.953125 C 3.265625 22.953125 3.226562 22.960938 3.191406 22.980469 L 2.625 23.253906 L 2.285156 22.921875 L 2.546875 22.351562 C 2.578125 22.285156 2.578125 22.207031 2.550781 22.140625 L 2.289062 21.527344 C 2.261719 21.460938 2.203125 21.410156 2.132812 21.386719 L 1.539062 21.179688 L 1.535156 20.703125 L 2.125 20.484375 C 2.191406 20.460938 2.25 20.40625 2.273438 20.339844 L 2.523438 19.722656 C 2.550781 19.652344 2.546875 19.578125 2.515625 19.511719 L 2.238281 18.945312 L 2.570312 18.605469 L 3.144531 18.867188 C 3.210938 18.898438 3.285156 18.898438 3.355469 18.871094 L 3.964844 18.609375 C 4.03125 18.582031 4.085938 18.523438 4.109375 18.453125 L 4.3125 17.859375 L 4.789062 17.855469 L 5.007812 18.445312 C 5.035156 18.511719 5.085938 18.566406 5.15625 18.59375 L 5.773438 18.84375 C 5.839844 18.871094 5.917969 18.867188 5.984375 18.835938 L 6.546875 18.558594 L 6.890625 18.890625 L 6.625 19.464844 C 6.59375 19.53125 6.59375 19.605469 6.621094 19.675781 L 6.882812 20.285156 C 6.914062 20.351562 6.96875 20.40625 7.039062 20.429688 L 7.632812 20.632812 L 7.640625 21.109375 Z M 16.394531 20.5625 C 15.535156 20.980469 14.617188 21.261719 13.667969 21.390625 C 12.726562 21.519531 11.773438 21.5 10.839844 21.328125 C 9.894531 21.160156 8.984375 20.839844 8.144531 20.378906 C 8.144531 20.378906 8.140625 20.378906 8.140625 20.378906 C 8.121094 20.296875 8.058594 20.230469 7.976562 20.203125 L 7.316406 19.976562 L 7.144531 19.578125 L 7.4375 18.945312 C 7.484375 18.84375 7.460938 18.726562 7.382812 18.648438 L 6.78125 18.058594 C 6.699219 17.984375 6.582031 17.964844 6.484375 18.011719 L 5.859375 18.316406 L 5.457031 18.15625 L 5.214844 17.503906 C 5.175781 17.402344 5.078125 17.332031 4.972656 17.332031 C 4.96875 17.332031 4.96875 17.332031 4.96875 17.332031 L 4.871094 17.335938 C 4.863281 17.316406 4.855469 17.300781 4.847656 17.285156 C 4.304688 16.429688 3.917969 15.496094 3.691406 14.503906 C 3.46875 13.535156 3.40625 12.539062 3.511719 11.546875 C 3.617188 10.542969 3.886719 9.578125 4.3125 8.671875 C 4.753906 7.730469 5.355469 6.878906 6.09375 6.140625 C 6.953125 5.28125 7.949219 4.617188 9.066406 4.167969 C 9.601562 3.949219 10.160156 3.785156 10.730469 3.675781 C 11.292969 3.566406 11.871094 3.507812 12.445312 3.507812 C 13.019531 3.507812 13.597656 3.566406 14.160156 3.675781 C 14.730469 3.785156 15.289062 3.949219 15.824219 4.167969 C 16.324219 4.371094 16.804688 4.617188 17.257812 4.90625 C 17.273438 4.921875 17.296875 4.933594 17.320312 4.945312 C 17.847656 5.285156 18.34375 5.6875 18.796875 6.140625 C 19.652344 6.996094 20.316406 7.996094 20.769531 9.113281 C 20.984375 9.648438 21.152344 10.207031 21.261719 10.777344 C 21.371094 11.339844 21.425781 11.917969 21.425781 12.492188 C 21.425781 13.066406 21.371094 13.644531 21.261719 14.207031 C 21.152344 14.777344 20.984375 15.335938 20.769531 15.871094 C 20.316406 16.984375 19.652344 17.984375 18.796875 18.84375 C 18.089844 19.546875 17.28125 20.125 16.394531 20.5625 Z M 18.527344 19.980469 L 19.9375 18.574219 L 21.34375 19.980469 L 19.9375 21.390625 Z M 27.84375 27.890625 C 27.507812 28.230469 27.058594 28.417969 26.578125 28.417969 C 26.097656 28.417969 25.648438 28.230469 25.3125 27.890625 L 19.808594 22.390625 L 20.152344 22.042969 L 21.996094 20.199219 L 22.34375 19.855469 L 27.84375 25.355469 C 28.183594 25.695312 28.371094 26.144531 28.371094 26.625 C 28.371094 27.101562 28.183594 27.554688 27.84375 27.890625 Z M 27.84375 27.890625 " fill-opacity="1" fill-rule="nonzero"/></g><path fill="#925f3d" d="M 20.164062 12.492188 C 20.164062 11.488281 19.972656 10.511719 19.597656 9.585938 C 19.210938 8.628906 18.640625 7.769531 17.902344 7.035156 C 17.164062 6.296875 16.304688 5.726562 15.347656 5.339844 C 14.425781 4.964844 13.449219 4.773438 12.445312 4.773438 C 11.441406 4.773438 10.464844 4.964844 9.539062 5.339844 C 8.582031 5.726562 7.722656 6.296875 6.988281 7.035156 C 6.25 7.769531 5.679688 8.628906 5.292969 9.585938 C 4.917969 10.511719 4.726562 11.488281 4.726562 12.492188 C 4.726562 13.492188 4.917969 14.472656 5.292969 15.394531 C 5.679688 16.351562 6.25 17.210938 6.988281 17.949219 C 7.722656 18.683594 8.582031 19.253906 9.539062 19.644531 C 10.464844 20.019531 11.441406 20.210938 12.445312 20.210938 C 13.445312 20.210938 14.425781 20.019531 15.347656 19.644531 C 16.304688 19.253906 17.164062 18.683594 17.902344 17.949219 C 18.640625 17.210938 19.210938 16.351562 19.597656 15.394531 C 19.972656 14.472656 20.164062 13.492188 20.164062 12.492188 Z M 19.027344 15.164062 C 18.671875 16.046875 18.144531 16.835938 17.46875 17.515625 C 16.789062 18.191406 16 18.71875 15.117188 19.074219 C 14.265625 19.417969 13.367188 19.59375 12.445312 19.59375 C 11.523438 19.59375 10.621094 19.417969 9.773438 19.074219 C 8.890625 18.71875 8.101562 18.191406 7.421875 17.515625 C 6.746094 16.835938 6.21875 16.046875 5.863281 15.164062 C 5.515625 14.3125 5.34375 13.414062 5.34375 12.492188 C 5.34375 11.570312 5.515625 10.667969 5.863281 9.820312 C 6.21875 8.9375 6.746094 8.148438 7.421875 7.46875 C 8.101562 6.792969 8.890625 6.265625 9.773438 5.910156 C 10.625 5.5625 11.523438 5.390625 12.445312 5.390625 C 13.367188 5.390625 14.265625 5.5625 15.117188 5.910156 C 16 6.265625 16.789062 6.789062 17.46875 7.46875 C 18.144531 8.148438 18.671875 8.9375 19.027344 9.820312 C 19.371094 10.667969 19.546875 11.570312 19.546875 12.492188 C 19.546875 13.414062 19.371094 14.3125 19.027344 15.164062 Z M 19.027344 15.164062 " fill-opacity="1" fill-rule="nonzero"/><path fill="#925f3d" d="M 20.113281 6.640625 C 20.3125 6.910156 20.5625 7.132812 20.851562 7.308594 C 21.140625 7.484375 21.453125 7.597656 21.785156 7.652344 C 21.921875 7.671875 22.058594 7.683594 22.195312 7.683594 C 22.402344 7.683594 22.613281 7.65625 22.820312 7.605469 C 23.160156 7.523438 23.472656 7.375 23.753906 7.164062 C 24.023438 6.964844 24.246094 6.714844 24.421875 6.425781 C 24.597656 6.136719 24.710938 5.820312 24.765625 5.488281 C 24.820312 5.144531 24.804688 4.796875 24.71875 4.457031 C 24.636719 4.117188 24.488281 3.800781 24.277344 3.523438 C 24.078125 3.253906 23.828125 3.027344 23.539062 2.855469 C 23.25 2.679688 22.933594 2.566406 22.601562 2.511719 C 22.257812 2.457031 21.910156 2.472656 21.570312 2.554688 C 21.230469 2.640625 20.914062 2.789062 20.636719 2.996094 C 20.367188 3.199219 20.140625 3.449219 19.96875 3.738281 C 19.792969 4.027344 19.679688 4.339844 19.625 4.671875 C 19.570312 5.015625 19.585938 5.363281 19.667969 5.707031 C 19.753906 6.046875 19.902344 6.359375 20.113281 6.640625 Z M 20.414062 4.003906 C 20.699219 3.527344 21.15625 3.195312 21.695312 3.058594 C 21.863281 3.019531 22.03125 3 22.199219 3 C 22.574219 3 22.941406 3.101562 23.269531 3.296875 C 23.746094 3.585938 24.082031 4.042969 24.214844 4.582031 C 24.351562 5.121094 24.265625 5.679688 23.976562 6.15625 C 23.691406 6.632812 23.234375 6.96875 22.695312 7.101562 C 22.527344 7.144531 22.359375 7.164062 22.191406 7.164062 C 21.816406 7.164062 21.449219 7.0625 21.117188 6.863281 C 20.644531 6.578125 20.308594 6.121094 20.171875 5.582031 C 20.039062 5.039062 20.125 4.480469 20.414062 4.003906 Z M 20.414062 4.003906 " fill-opacity="1" fill-rule="nonzero"/><path fill="#925f3d" d="M 5.289062 19.15625 C 4.820312 18.972656 4.308594 18.976562 3.847656 19.175781 C 3.382812 19.371094 3.027344 19.738281 2.839844 20.207031 C 2.652344 20.671875 2.65625 21.183594 2.855469 21.648438 C 3.054688 22.109375 3.417969 22.46875 3.886719 22.65625 C 4.113281 22.746094 4.351562 22.792969 4.585938 22.792969 C 4.839844 22.792969 5.089844 22.742188 5.328125 22.640625 C 5.789062 22.441406 6.148438 22.074219 6.335938 21.609375 C 6.523438 21.140625 6.515625 20.628906 6.320312 20.164062 C 6.121094 19.703125 5.753906 19.34375 5.289062 19.15625 Z M 5.125 22.160156 C 4.789062 22.304688 4.417969 22.308594 4.078125 22.171875 C 3.742188 22.039062 3.476562 21.777344 3.332031 21.445312 C 3.1875 21.109375 3.183594 20.738281 3.320312 20.398438 C 3.457031 20.0625 3.714844 19.796875 4.050781 19.652344 C 4.222656 19.578125 4.40625 19.542969 4.585938 19.542969 C 4.757812 19.542969 4.929688 19.574219 5.09375 19.640625 C 5.433594 19.777344 5.699219 20.035156 5.839844 20.371094 C 6.136719 21.0625 5.816406 21.867188 5.125 22.160156 Z M 5.125 22.160156 " fill-opacity="1" fill-rule="nonzero"/></svg>