<svg xmlns="http://www.w3.org/2000/svg" xmlns:xlink="http://www.w3.org/1999/xlink" width="40" zoomAndPan="magnify" viewBox="0 0 30 30.000001" height="40" preserveAspectRatio="xMidYMid meet" version="1.0"><defs><clipPath id="79fe591d6f"><path d="M 0.484375 0 L 29.515625 0 L 29.515625 29.03125 L 0.484375 29.03125 Z M 0.484375 0 " clip-rule="nonzero"/></clipPath><clipPath id="92f4e833e2"><path d="M 0.976562 23 L 7 23 L 7 28.722656 L 0.976562 28.722656 Z M 0.976562 23 " clip-rule="nonzero"/></clipPath><clipPath id="00702a84c9"><path d="M 3 4.773438 L 21 4.773438 L 21 18 L 3 18 Z M 3 4.773438 " clip-rule="nonzero"/></clipPath><clipPath id="bb391a9a52"><path d="M 3.386719 1.433594 L 15 1.433594 L 15 13.046875 L 3.386719 13.046875 Z M 3.386719 1.433594 " clip-rule="nonzero"/></clipPath></defs><g clip-path="url(#79fe591d6f)"><path fill="#ffffff" d="M 0.484375 0 L 29.515625 0 L 29.515625 29.03125 L 0.484375 29.03125 Z M 0.484375 0 " fill-opacity="1" fill-rule="nonzero"/><path fill="#ffffff" d="M 0.484375 0 L 29.515625 0 L 29.515625 29.03125 L 0.484375 29.03125 Z M 0.484375 0 " fill-opacity="1" fill-rule="nonzero"/></g><g clip-path="url(#92f4e833e2)"><path fill="#925f3d" d="M 6.542969 26.445312 L 5.96875 26.070312 L 5.90625 25.6875 L 6.339844 25.152344 C 6.371094 25.113281 6.375 25.058594 6.347656 25.015625 L 6.019531 24.484375 C 5.996094 24.441406 5.945312 24.421875 5.898438 24.433594 L 5.226562 24.574219 L 4.914062 24.34375 L 4.839844 23.664062 C 4.835938 23.613281 4.796875 23.574219 4.75 23.5625 L 4.144531 23.414062 C 4.097656 23.402344 4.046875 23.421875 4.019531 23.464844 L 3.644531 24.042969 L 3.261719 24.101562 L 2.726562 23.671875 C 2.6875 23.640625 2.632812 23.636719 2.589844 23.660156 L 2.058594 23.988281 C 2.015625 24.011719 1.996094 24.0625 2.007812 24.109375 L 2.148438 24.78125 L 1.917969 25.097656 L 1.238281 25.167969 C 1.1875 25.175781 1.148438 25.210938 1.136719 25.257812 L 0.988281 25.863281 C 0.976562 25.914062 0.996094 25.964844 1.039062 25.988281 L 1.617188 26.363281 L 1.675781 26.75 L 1.246094 27.28125 C 1.214844 27.320312 1.210938 27.375 1.234375 27.417969 L 1.5625 27.949219 C 1.585938 27.992188 1.636719 28.011719 1.683594 28.003906 L 2.355469 27.859375 L 2.671875 28.089844 L 2.742188 28.773438 C 2.75 28.820312 2.785156 28.863281 2.832031 28.875 L 3.441406 29.019531 C 3.488281 29.03125 3.539062 29.011719 3.566406 28.96875 L 3.941406 28.394531 L 4.324219 28.332031 L 4.859375 28.765625 C 4.882812 28.785156 4.917969 28.792969 4.949219 28.789062 C 4.964844 28.785156 4.980469 28.78125 4.992188 28.773438 L 5.523438 28.445312 C 5.566406 28.421875 5.589844 28.371094 5.578125 28.324219 L 5.4375 27.652344 L 5.664062 27.339844 L 6.347656 27.265625 C 6.398438 27.261719 6.4375 27.222656 6.449219 27.175781 L 6.59375 26.570312 C 6.605469 26.523438 6.585938 26.472656 6.542969 26.445312 Z M 3.929688 27.09375 C 3.445312 27.171875 2.992188 26.839844 2.914062 26.355469 C 2.839844 25.871094 3.167969 25.417969 3.652344 25.339844 C 4.136719 25.265625 4.59375 25.59375 4.667969 26.078125 C 4.746094 26.5625 4.414062 27.019531 3.929688 27.09375 Z M 3.929688 27.09375 " fill-opacity="1" fill-rule="nonzero"/></g><path fill="#925f3d" d="M 28.933594 15.777344 L 28.191406 15.292969 L 28.113281 14.796875 L 28.667969 14.109375 C 28.707031 14.058594 28.714844 13.992188 28.679688 13.9375 L 28.261719 13.25 C 28.226562 13.195312 28.164062 13.167969 28.101562 13.183594 L 27.234375 13.363281 L 26.828125 13.070312 L 26.734375 12.191406 C 26.730469 12.128906 26.683594 12.074219 26.621094 12.0625 L 25.839844 11.871094 C 25.777344 11.859375 25.714844 11.882812 25.679688 11.9375 L 25.195312 12.679688 L 24.703125 12.757812 L 24.011719 12.199219 C 23.964844 12.160156 23.894531 12.15625 23.839844 12.1875 L 23.152344 12.609375 C 23.097656 12.640625 23.070312 12.707031 23.085938 12.769531 L 23.269531 13.632812 L 22.972656 14.039062 L 22.09375 14.132812 C 22.03125 14.140625 21.976562 14.183594 21.964844 14.246094 L 21.773438 15.027344 C 21.761719 15.089844 21.785156 15.15625 21.839844 15.191406 L 22.582031 15.671875 L 22.660156 16.167969 L 22.101562 16.855469 C 22.0625 16.90625 22.054688 16.976562 22.089844 17.03125 L 22.511719 17.714844 C 22.542969 17.769531 22.605469 17.796875 22.667969 17.785156 L 23.535156 17.601562 L 23.941406 17.894531 L 24.035156 18.777344 C 24.039062 18.839844 24.085938 18.890625 24.148438 18.90625 L 24.929688 19.09375 C 24.992188 19.109375 25.058594 19.082031 25.09375 19.03125 L 25.574219 18.289062 L 26.070312 18.210938 L 26.757812 18.765625 C 26.792969 18.792969 26.835938 18.804688 26.875 18.800781 C 26.894531 18.796875 26.914062 18.789062 26.929688 18.777344 L 27.617188 18.359375 C 27.671875 18.324219 27.699219 18.261719 27.6875 18.199219 L 27.503906 17.332031 L 27.796875 16.925781 L 28.675781 16.835938 C 28.742188 16.828125 28.792969 16.78125 28.808594 16.71875 L 28.996094 15.9375 C 29.011719 15.875 28.984375 15.808594 28.933594 15.777344 Z M 25.5625 16.613281 C 24.9375 16.714844 24.351562 16.285156 24.253906 15.664062 C 24.15625 15.039062 24.582031 14.453125 25.207031 14.351562 C 25.828125 14.253906 26.417969 14.679688 26.515625 15.304688 C 26.613281 15.929688 26.1875 16.515625 25.5625 16.613281 Z M 25.5625 16.613281 " fill-opacity="1" fill-rule="nonzero"/><path fill="#925f3d" d="M 9.835938 18.292969 C 9.699219 18.292969 9.589844 18.40625 9.589844 18.539062 L 9.589844 25.691406 C 9.589844 25.824219 9.699219 25.9375 9.835938 25.9375 L 13.140625 25.9375 C 13.277344 25.9375 13.386719 25.824219 13.386719 25.691406 L 13.386719 18.539062 C 13.386719 18.40625 13.277344 18.292969 13.140625 18.292969 Z M 9.835938 18.292969 " fill-opacity="1" fill-rule="nonzero"/><path fill="#925f3d" d="M 14.765625 15.484375 C 14.628906 15.484375 14.519531 15.59375 14.519531 15.730469 L 14.519531 25.691406 C 14.519531 25.824219 14.628906 25.9375 14.765625 25.9375 L 18.070312 25.9375 C 18.207031 25.9375 18.316406 25.824219 18.316406 25.691406 L 18.316406 15.730469 C 18.316406 15.59375 18.207031 15.484375 18.070312 15.484375 Z M 14.765625 15.484375 " fill-opacity="1" fill-rule="nonzero"/><g clip-path="url(#00702a84c9)"><path fill="#925f3d" d="M 6.445312 17.652344 C 7.261719 17.527344 8.074219 17.34375 8.871094 17.101562 C 9.671875 16.863281 10.457031 16.566406 11.21875 16.210938 C 11.984375 15.859375 12.726562 15.453125 13.441406 14.992188 C 14.867188 14.074219 16.179688 12.949219 17.320312 11.652344 C 17.890625 11 18.417969 10.308594 18.894531 9.582031 C 19.136719 9.21875 19.359375 8.84375 19.574219 8.464844 C 19.59375 8.433594 19.605469 8.40625 19.621094 8.378906 L 20.464844 8.800781 C 20.625 8.882812 20.808594 8.742188 20.777344 8.566406 L 20.140625 4.996094 C 20.117188 4.851562 19.957031 4.773438 19.828125 4.839844 L 16.589844 6.472656 C 16.429688 6.554688 16.429688 6.785156 16.589844 6.867188 L 17.453125 7.296875 C 17.4375 7.335938 17.421875 7.375 17.40625 7.417969 C 17.265625 7.769531 17.109375 8.121094 16.945312 8.464844 C 16.609375 9.15625 16.226562 9.828125 15.796875 10.472656 C 14.9375 11.757812 13.886719 12.9375 12.679688 13.960938 C 12.078125 14.46875 11.4375 14.941406 10.761719 15.363281 C 10.089844 15.789062 9.382812 16.167969 8.648438 16.5 C 7.917969 16.832031 7.15625 17.109375 6.375 17.339844 C 5.988281 17.453125 5.59375 17.550781 5.195312 17.636719 C 4.796875 17.726562 4.394531 17.796875 3.988281 17.855469 C 4.398438 17.851562 4.808594 17.832031 5.21875 17.796875 C 5.625 17.761719 6.035156 17.714844 6.445312 17.652344 Z M 6.445312 17.652344 " fill-opacity="1" fill-rule="nonzero"/></g><path fill="#925f3d" d="M 22.640625 18.449219 C 22.5 18.449219 22.363281 18.414062 22.246094 18.347656 C 22.125 18.277344 22.019531 18.179688 21.945312 18.0625 L 21.527344 17.375 C 21.347656 17.082031 21.371094 16.707031 21.589844 16.441406 L 21.917969 16.03125 L 21.476562 15.746094 C 21.191406 15.558594 21.050781 15.207031 21.132812 14.875 L 21.320312 14.09375 C 21.398438 13.757812 21.683594 13.511719 22.023438 13.476562 L 22.546875 13.417969 L 22.4375 12.902344 C 22.367188 12.570312 22.515625 12.222656 22.808594 12.042969 L 23.078125 11.878906 C 23.054688 11.871094 23.027344 11.867188 23.003906 11.867188 L 19.699219 11.867188 C 19.5625 11.867188 19.453125 11.976562 19.453125 12.113281 L 19.453125 25.6875 C 19.453125 25.824219 19.5625 25.933594 19.699219 25.933594 L 23.003906 25.933594 C 23.140625 25.933594 23.25 25.824219 23.25 25.6875 L 23.25 18.335938 L 22.804688 18.429688 C 22.75 18.445312 22.695312 18.449219 22.640625 18.449219 Z M 22.640625 18.449219 " fill-opacity="1" fill-rule="nonzero"/><path fill="#925f3d" d="M 8.457031 25.691406 L 8.457031 20.9375 C 8.457031 20.800781 8.34375 20.691406 8.210938 20.691406 L 4.902344 20.691406 C 4.769531 20.691406 4.660156 20.800781 4.660156 20.9375 L 4.660156 22.859375 L 4.90625 22.917969 C 5.222656 22.996094 5.460938 23.265625 5.496094 23.59375 L 5.523438 23.835938 L 5.761719 23.785156 C 5.8125 23.773438 5.867188 23.769531 5.921875 23.769531 C 6.191406 23.769531 6.445312 23.910156 6.585938 24.140625 L 6.910156 24.671875 C 7.082031 24.953125 7.058594 25.3125 6.851562 25.570312 L 6.699219 25.757812 L 6.90625 25.894531 C 6.925781 25.90625 6.945312 25.921875 6.964844 25.9375 L 8.210938 25.9375 C 8.34375 25.9375 8.457031 25.824219 8.457031 25.691406 Z M 8.457031 25.691406 " fill-opacity="1" fill-rule="nonzero"/><path fill="#925f3d" d="M 6.984375 26.738281 L 23.25 26.738281 L 23.25 27.472656 L 6.984375 27.472656 Z M 6.984375 26.738281 " fill-opacity="1" fill-rule="nonzero"/><g clip-path="url(#bb391a9a52)"><path fill="#925f3d" d="M 4.71875 6.535156 C 4.667969 6.625 4.554688 6.65625 4.464844 6.605469 L 3.90625 6.285156 C 3.816406 6.234375 3.785156 6.121094 3.835938 6.03125 C 3.886719 5.941406 4 5.910156 4.089844 5.960938 L 4.648438 6.28125 C 4.738281 6.332031 4.769531 6.445312 4.71875 6.535156 Z M 14.996094 6.429688 C 15 6.496094 14.96875 6.566406 14.902344 6.605469 L 12.1875 8.15625 L 12.1875 11.242188 C 12.195312 11.3125 12.160156 11.378906 12.09375 11.417969 L 9.296875 13.015625 C 9.292969 13.019531 9.292969 13.019531 9.292969 13.019531 C 9.285156 13.023438 9.28125 13.023438 9.277344 13.027344 C 9.273438 13.027344 9.273438 13.03125 9.269531 13.03125 C 9.265625 13.035156 9.257812 13.035156 9.25 13.039062 C 9.246094 13.039062 9.246094 13.039062 9.246094 13.039062 C 9.238281 13.042969 9.234375 13.042969 9.226562 13.042969 C 9.222656 13.042969 9.222656 13.046875 9.21875 13.046875 C 9.210938 13.046875 9.203125 13.046875 9.195312 13.046875 C 9.1875 13.046875 9.179688 13.046875 9.171875 13.046875 C 9.167969 13.046875 9.167969 13.042969 9.164062 13.042969 C 9.15625 13.042969 9.152344 13.042969 9.144531 13.039062 C 9.144531 13.039062 9.140625 13.039062 9.140625 13.039062 C 9.132812 13.035156 9.125 13.035156 9.121094 13.03125 C 9.117188 13.03125 9.117188 13.027344 9.113281 13.027344 C 9.109375 13.027344 9.101562 13.023438 9.097656 13.019531 C 9.097656 13.019531 9.097656 13.019531 9.09375 13.015625 L 6.292969 11.417969 C 6.230469 11.378906 6.195312 11.3125 6.203125 11.242188 L 6.203125 8.15625 L 3.488281 6.605469 C 3.421875 6.566406 3.386719 6.5 3.394531 6.429688 L 3.394531 3.25 C 3.386719 3.179688 3.421875 3.109375 3.488281 3.074219 L 6.292969 1.46875 C 6.351562 1.4375 6.421875 1.433594 6.480469 1.46875 L 9.195312 3.019531 L 11.910156 1.46875 C 11.964844 1.4375 12.035156 1.433594 12.09375 1.46875 L 14.902344 3.070312 C 14.929688 3.089844 14.953125 3.113281 14.972656 3.140625 C 14.992188 3.175781 15 3.210938 14.996094 3.246094 Z M 3.957031 3.234375 L 6.386719 4.625 L 6.542969 4.535156 L 7 4.273438 L 4.570312 2.882812 Z M 4.949219 2.667969 L 7.378906 4.058594 L 7.882812 3.769531 L 5.453125 2.378906 Z M 9.570312 3.234375 L 12.003906 4.625 L 12.617188 4.273438 L 10.1875 2.882812 Z M 10.5625 2.667969 L 12.992188 4.058594 L 13.496094 3.769531 L 11.066406 2.378906 Z M 10.691406 8.582031 L 8.257812 7.191406 L 7.753906 7.480469 L 10.1875 8.871094 Z M 9.007812 3.554688 L 8.445312 3.878906 L 8.445312 4.464844 C 8.445312 4.527344 8.410156 4.59375 8.351562 4.625 L 7.496094 5.113281 C 7.46875 5.132812 7.433594 5.144531 7.394531 5.144531 C 7.292969 5.144531 7.210938 5.058594 7.210938 4.957031 L 7.210938 4.582031 L 6.574219 4.945312 L 6.574219 7.726562 L 7.347656 7.285156 L 9.007812 6.335938 Z M 7.582031 4.632812 L 8.070312 4.355469 L 8.070312 4.089844 L 7.933594 4.171875 L 7.582031 4.371094 Z M 9.382812 6.332031 L 11.816406 7.722656 L 11.816406 4.945312 L 9.382812 3.554688 Z M 9.351562 9.347656 L 9.808594 9.085938 L 7.378906 7.695312 L 6.761719 8.046875 L 9.195312 9.4375 Z M 11.625 8.046875 L 9.195312 6.65625 L 8.636719 6.976562 L 11.066406 8.367188 Z M 10.390625 9.449219 L 10.878906 9.167969 L 10.878906 8.90625 L 10.742188 8.980469 L 10.390625 9.183594 Z M 13.199219 4.632812 L 13.6875 4.355469 L 13.6875 4.089844 L 13.546875 4.171875 L 13.199219 4.371094 Z M 11.441406 2.164062 L 13.875 3.554688 L 14.433594 3.234375 L 12.003906 1.84375 Z M 5.828125 2.164062 L 8.257812 3.554688 L 8.816406 3.234375 L 6.386719 1.84375 Z M 3.765625 6.335938 L 6.199219 7.726562 L 6.199219 4.945312 L 3.765625 3.554688 Z M 6.574219 11.148438 L 9.007812 12.539062 L 9.007812 9.757812 L 6.574219 8.367188 Z M 10.152344 12.097656 L 11.816406 11.148438 L 11.816406 8.371094 L 11.253906 8.691406 L 11.253906 9.277344 C 11.253906 9.34375 11.21875 9.40625 11.160156 9.441406 L 10.304688 9.929688 C 10.277344 9.945312 10.242188 9.957031 10.203125 9.957031 C 10.101562 9.957031 10.015625 9.875 10.015625 9.769531 L 10.015625 9.398438 L 9.382812 9.761719 L 9.382812 12.539062 Z M 12.960938 7.285156 L 14.625 6.335938 L 14.625 3.554688 L 14.0625 3.878906 L 14.0625 4.464844 C 14.0625 4.527344 14.027344 4.59375 13.964844 4.625 L 13.113281 5.113281 C 13.082031 5.132812 13.046875 5.144531 13.011719 5.144531 C 12.90625 5.144531 12.824219 5.058594 12.824219 4.957031 L 12.824219 4.585938 L 12.191406 4.945312 L 12.191406 7.726562 Z M 10.265625 6.28125 L 9.703125 5.960938 C 9.617188 5.910156 9.5 5.941406 9.449219 6.03125 C 9.398438 6.121094 9.429688 6.234375 9.519531 6.285156 L 10.078125 6.605469 C 10.167969 6.65625 10.285156 6.625 10.335938 6.535156 C 10.386719 6.445312 10.355469 6.332031 10.265625 6.28125 Z M 7.457031 11.09375 L 6.898438 10.773438 C 6.808594 10.722656 6.695312 10.753906 6.640625 10.84375 C 6.589844 10.933594 6.621094 11.046875 6.710938 11.097656 L 7.273438 11.417969 C 7.363281 11.46875 7.476562 11.4375 7.527344 11.347656 C 7.578125 11.257812 7.546875 11.144531 7.457031 11.09375 Z M 7.457031 11.09375 " fill-opacity="1" fill-rule="nonzero"/></g></svg>