<svg xmlns="http://www.w3.org/2000/svg" xmlns:xlink="http://www.w3.org/1999/xlink" width="40" zoomAndPan="magnify" viewBox="0 0 30 30.000001" height="40" preserveAspectRatio="xMidYMid meet" version="1.0"><defs><clipPath id="77a5d58963"><path d="M 0.484375 0 L 29.515625 0 L 29.515625 29.03125 L 0.484375 29.03125 Z M 0.484375 0 " clip-rule="nonzero"/></clipPath><clipPath id="3bf2c65a60"><path d="M 1.164062 1.613281 L 29 1.613281 L 29 27.742188 L 1.164062 27.742188 Z M 1.164062 1.613281 " clip-rule="nonzero"/></clipPath></defs><g clip-path="url(#77a5d58963)"><path fill="#ffffff" d="M 0.484375 0 L 29.515625 0 L 29.515625 29.03125 L 0.484375 29.03125 Z M 0.484375 0 " fill-opacity="1" fill-rule="nonzero"/><path fill="#ffffff" d="M 0.484375 0 L 29.515625 0 L 29.515625 29.03125 L 0.484375 29.03125 Z M 0.484375 0 " fill-opacity="1" fill-rule="nonzero"/></g><g clip-path="url(#3bf2c65a60)"><path fill="#925f3d" d="M 23.210938 15.375 C 21.800781 15.375 20.65625 16.523438 20.65625 17.933594 C 20.726562 21.074219 25.207031 21.402344 25.734375 18.316406 C 25.988281 16.789062 24.757812 15.367188 23.210938 15.375 Z M 25.15625 18.144531 C 24.832031 20.570312 21.3125 20.386719 21.253906 17.933594 C 21.378906 15.199219 25.332031 15.421875 25.15625 18.144531 Z M 28.367188 19.28125 C 28.667969 19.257812 28.90625 19 28.90625 18.699219 L 28.90625 17.15625 C 28.90625 16.855469 28.679688 16.605469 28.375 16.566406 L 27.375 16.464844 C 27.324219 16.3125 27.261719 16.15625 27.183594 16.015625 L 27.816406 15.242188 C 28.015625 15.007812 28 14.664062 27.78125 14.445312 L 26.691406 13.359375 C 26.441406 13.105469 26.054688 13.148438 25.8125 13.394531 L 25.8125 4.761719 C 25.8125 3.027344 24.398438 1.613281 22.667969 1.613281 C 22.660156 1.613281 20.886719 1.613281 20.882812 1.613281 C 20.882812 1.613281 3.625 1.613281 3.625 1.613281 C 1.1875 1.699219 1.175781 5.21875 3.625 5.308594 L 4.859375 5.308594 L 4.859375 24.902344 C 4.859375 26.632812 6.273438 28.046875 8.007812 28.046875 L 9.796875 28.046875 C 9.796875 28.046875 27.058594 28.046875 27.058594 28.046875 C 29.503906 27.964844 29.503906 24.4375 27.058594 24.355469 C 27.058594 24.355469 25.8125 24.355469 25.8125 24.355469 L 25.8125 22.46875 C 26.054688 22.710938 26.445312 22.753906 26.691406 22.5 C 26.691406 22.5 27.78125 21.410156 27.78125 21.410156 C 27.992188 21.191406 28.007812 20.847656 27.816406 20.617188 L 27.179688 19.839844 C 27.253906 19.691406 27.316406 19.527344 27.371094 19.382812 Z M 3.632812 4.707031 C 1.984375 4.652344 1.984375 2.265625 3.632812 2.214844 L 19.527344 2.214844 C 18.882812 2.890625 18.882812 4.042969 19.527344 4.707031 Z M 9.804688 27.453125 C 9.804688 27.453125 8.011719 27.453125 8.011719 27.453125 C 6.609375 27.453125 5.464844 26.308594 5.464844 24.90625 L 5.464844 5.308594 L 20.890625 5.308594 C 21.285156 5.308594 21.285156 4.707031 20.890625 4.707031 C 20.199219 4.707031 19.640625 4.136719 19.640625 3.457031 C 19.640625 2.855469 20.074219 2.351562 20.636719 2.234375 C 20.738281 2.191406 22.511719 2.214844 22.671875 2.207031 C 24.074219 2.207031 25.21875 3.351562 25.21875 4.753906 L 25.21875 13.867188 L 25.121094 13.945312 C 24.972656 13.871094 24.820312 13.8125 24.671875 13.761719 L 24.570312 12.753906 C 24.53125 12.457031 24.28125 12.234375 23.980469 12.234375 L 22.445312 12.234375 C 22.144531 12.234375 21.886719 12.457031 21.855469 12.761719 L 21.746094 13.761719 C 21.597656 13.8125 21.445312 13.875 21.296875 13.945312 L 20.519531 13.3125 C 20.28125 13.117188 19.933594 13.136719 19.726562 13.355469 L 18.632812 14.441406 C 18.425781 14.648438 18.402344 15 18.589844 15.230469 L 19.222656 16.007812 C 19.152344 16.152344 19.089844 16.304688 19.035156 16.460938 L 18.03125 16.5625 C 17.734375 16.597656 17.511719 16.847656 17.511719 17.152344 L 17.511719 18.691406 C 17.511719 18.984375 17.746094 19.25 18.042969 19.277344 L 19.042969 19.382812 C 19.089844 19.523438 19.160156 19.691406 19.234375 19.839844 L 18.59375 20.628906 C 18.410156 20.863281 18.429688 21.207031 18.636719 21.414062 L 19.722656 22.492188 C 19.929688 22.71875 20.28125 22.738281 20.519531 22.542969 L 21.296875 21.910156 C 21.4375 21.976562 21.59375 22.042969 21.746094 22.101562 L 21.855469 23.101562 C 21.886719 23.402344 22.136719 23.632812 22.445312 23.632812 L 23.980469 23.632812 C 24.277344 23.632812 24.53125 23.40625 24.570312 23.101562 L 24.671875 22.101562 C 24.832031 22.042969 24.980469 21.976562 25.121094 21.910156 L 25.21875 21.988281 L 25.21875 24.363281 L 9.804688 24.363281 C 9.632812 24.363281 9.5 24.503906 9.503906 24.667969 C 9.503906 24.832031 9.636719 24.964844 9.804688 24.964844 C 10.132812 24.964844 10.429688 25.097656 10.652344 25.304688 C 11.476562 26.027344 10.914062 27.472656 9.804688 27.453125 Z M 27.058594 24.960938 C 28.707031 25.011719 28.707031 27.398438 27.058594 27.453125 C 27.058594 27.453125 11.164062 27.453125 11.164062 27.453125 C 11.808594 26.785156 11.800781 25.613281 11.164062 24.960938 C 11.890625 24.960938 26.859375 24.960938 27.058594 24.960938 Z M 26.601562 20.074219 C 26.601562 20.074219 27.359375 20.988281 27.359375 20.988281 L 26.285156 22.074219 L 25.347656 21.320312 C 25.25 21.246094 25.117188 21.230469 25.015625 21.285156 C 24.804688 21.402344 24.566406 21.503906 24.300781 21.589844 C 24.1875 21.628906 24.101562 21.726562 24.089844 21.84375 L 23.980469 23.023438 L 22.453125 23.035156 L 22.332031 21.84375 C 22.320312 21.726562 22.238281 21.628906 22.125 21.589844 C 21.871094 21.511719 21.625 21.410156 21.40625 21.285156 C 21.300781 21.234375 21.167969 21.246094 21.078125 21.320312 L 20.164062 22.074219 C 20.015625 21.925781 19.207031 21.121094 19.074219 21 L 19.832031 20.074219 C 19.992188 19.894531 19.828125 19.683594 19.753906 19.511719 C 19.59375 19.25 19.648438 18.867188 19.316406 18.808594 C 19.316406 18.808594 18.132812 18.699219 18.132812 18.699219 L 18.121094 17.160156 L 19.316406 17.039062 C 19.441406 17.027344 19.542969 16.945312 19.574219 16.828125 C 19.648438 16.570312 19.75 16.332031 19.867188 16.113281 C 19.925781 16.007812 19.914062 15.875 19.832031 15.78125 L 19.074219 14.859375 L 20.152344 13.777344 L 21.082031 14.53125 C 21.179688 14.605469 21.304688 14.621094 21.414062 14.5625 C 21.652344 14.433594 21.890625 14.339844 22.125 14.269531 C 22.242188 14.238281 22.328125 14.136719 22.34375 14.015625 L 22.460938 12.828125 L 23.984375 12.820312 L 24.109375 14.015625 C 24.117188 14.136719 24.203125 14.238281 24.324219 14.277344 C 24.566406 14.34375 24.804688 14.441406 25.03125 14.566406 C 25.277344 14.722656 25.542969 14.367188 25.722656 14.25 C 25.730469 14.238281 26.28125 13.792969 26.285156 13.785156 L 27.371094 14.859375 L 26.601562 15.789062 C 26.527344 15.886719 26.511719 16.015625 26.570312 16.125 C 26.691406 16.347656 26.792969 16.589844 26.867188 16.835938 C 26.902344 16.953125 27.003906 17.035156 27.121094 17.050781 L 28.308594 17.171875 L 28.3125 18.691406 L 27.121094 18.816406 C 26.796875 18.867188 26.828125 19.261719 26.6875 19.5 C 26.605469 19.675781 26.441406 19.894531 26.601562 20.074219 Z M 7.097656 13.707031 L 14.878906 13.707031 C 15.042969 13.707031 15.175781 13.574219 15.175781 13.410156 L 15.175781 11.1875 C 15.175781 11.023438 15.042969 10.890625 14.878906 10.890625 L 7.097656 10.890625 C 6.933594 10.890625 6.800781 11.023438 6.800781 11.1875 L 6.800781 13.410156 C 6.800781 13.570312 6.933594 13.707031 7.097656 13.707031 Z M 7.398438 11.484375 L 14.582031 11.484375 L 14.582031 13.105469 L 7.398438 13.105469 Z M 7.097656 15.636719 C 7.097656 15.636719 11.417969 15.636719 11.417969 15.636719 C 11.8125 15.636719 11.8125 16.238281 11.417969 16.238281 C 11.417969 16.238281 7.097656 16.238281 7.097656 16.238281 C 6.703125 16.230469 6.710938 15.636719 7.097656 15.636719 Z M 15.277344 18.359375 C 15.277344 18.359375 7.101562 18.359375 7.101562 18.359375 C 6.710938 18.359375 6.714844 17.757812 7.101562 17.757812 L 15.277344 17.757812 C 15.671875 17.761719 15.667969 18.359375 15.277344 18.359375 Z M 15.277344 19.882812 C 15.671875 19.882812 15.667969 20.484375 15.277344 20.484375 C 15.277344 20.484375 7.101562 20.484375 7.101562 20.484375 C 6.710938 20.484375 6.714844 19.882812 7.101562 19.882812 Z M 15.277344 22.609375 C 15.277344 22.609375 7.101562 22.609375 7.101562 22.609375 C 6.710938 22.609375 6.714844 22.011719 7.101562 22.011719 L 15.277344 22.011719 C 15.671875 22.011719 15.667969 22.605469 15.277344 22.609375 Z M 12.191406 9.234375 L 13.644531 9.234375 C 13.8125 9.234375 13.945312 9.101562 13.945312 8.9375 L 13.945312 6.582031 C 13.945312 6.417969 13.8125 6.285156 13.644531 6.285156 L 12.191406 6.285156 C 12.023438 6.285156 11.890625 6.417969 11.890625 6.582031 L 11.890625 8.9375 C 11.886719 9.101562 12.023438 9.234375 12.191406 9.234375 Z M 12.488281 6.882812 L 13.34375 6.882812 L 13.34375 8.636719 L 12.488281 8.636719 Z M 19.5 8.9375 L 19.5 6.582031 C 19.5 6.417969 19.632812 6.285156 19.796875 6.285156 C 19.796875 6.285156 21.253906 6.285156 21.253906 6.285156 C 21.644531 6.285156 21.644531 6.886719 21.253906 6.886719 L 20.09375 6.886719 L 20.09375 8.640625 C 20.09375 8.640625 21.253906 8.640625 21.253906 8.640625 C 21.644531 8.640625 21.644531 9.234375 21.253906 9.242188 L 19.796875 9.242188 C 19.632812 9.234375 19.5 9.101562 19.5 8.9375 Z M 14.425781 8.9375 C 14.425781 8.9375 14.425781 8.402344 14.425781 8.402344 C 14.425781 8.007812 15.027344 8.007812 15.027344 8.402344 L 15.027344 8.640625 L 15.882812 8.640625 L 15.882812 6.582031 C 15.882812 6.191406 16.484375 6.191406 16.484375 6.582031 C 16.484375 6.582031 16.484375 8.9375 16.484375 8.9375 C 16.484375 9.101562 16.351562 9.234375 16.1875 9.234375 L 14.730469 9.234375 C 14.558594 9.234375 14.425781 9.101562 14.425781 8.9375 Z M 16.964844 8.9375 L 16.964844 6.582031 C 16.964844 6.417969 17.097656 6.285156 17.261719 6.285156 C 17.261719 6.285156 18.71875 6.285156 18.71875 6.285156 C 19.109375 6.285156 19.109375 6.886719 18.71875 6.886719 L 17.558594 6.886719 L 17.558594 7.464844 L 18.71875 7.464844 C 18.882812 7.464844 19.015625 7.597656 19.015625 7.765625 C 19.015625 7.929688 18.882812 8.0625 18.71875 8.0625 L 17.558594 8.0625 L 17.558594 8.640625 C 17.558594 8.640625 18.71875 8.640625 18.71875 8.640625 C 19.109375 8.640625 19.109375 9.234375 18.71875 9.242188 L 17.265625 9.242188 C 17.101562 9.234375 16.964844 9.101562 16.964844 8.9375 Z M 22.253906 6.28125 C 22.253906 6.28125 23.707031 6.28125 23.707031 6.28125 C 24.101562 6.28125 24.101562 6.882812 23.707031 6.882812 L 23.277344 6.882812 L 23.277344 8.9375 C 23.277344 9.101562 23.144531 9.234375 22.980469 9.234375 C 22.816406 9.234375 22.683594 9.101562 22.683594 8.9375 L 22.683594 6.882812 L 22.253906 6.882812 C 21.859375 6.882812 21.859375 6.285156 22.253906 6.28125 Z M 7.273438 8.9375 L 7.273438 8.0625 L 8.429688 8.0625 C 8.597656 8.0625 8.730469 7.929688 8.730469 7.765625 L 8.730469 6.582031 C 8.730469 6.417969 8.597656 6.285156 8.429688 6.285156 L 6.976562 6.285156 C 6.808594 6.285156 6.675781 6.417969 6.675781 6.582031 L 6.675781 8.9375 C 6.675781 9.328125 7.273438 9.332031 7.273438 8.9375 Z M 7.273438 6.882812 L 8.128906 6.882812 L 8.128906 7.460938 L 7.273438 7.460938 Z M 9.648438 9.234375 C 9.8125 9.234375 9.945312 9.101562 9.945312 8.9375 L 9.945312 8.34375 L 10.910156 9.167969 C 10.96875 9.214844 11.035156 9.242188 11.105469 9.242188 C 11.371094 9.253906 11.515625 8.886719 11.300781 8.714844 C 11.300781 8.714844 10.542969 8.066406 10.542969 8.066406 L 11.105469 8.066406 C 11.269531 8.066406 11.402344 7.933594 11.402344 7.769531 L 11.402344 6.589844 C 11.402344 6.425781 11.269531 6.292969 11.105469 6.292969 L 9.648438 6.292969 C 9.484375 6.292969 9.351562 6.425781 9.351562 6.589844 L 9.351562 8.945312 C 9.351562 9.101562 9.484375 9.234375 9.648438 9.234375 Z M 9.953125 6.882812 L 10.808594 6.882812 L 10.808594 7.460938 L 9.953125 7.460938 Z M 9.953125 6.882812 " fill-opacity="1" fill-rule="nonzero"/></g></svg>