<svg xmlns="http://www.w3.org/2000/svg" xmlns:xlink="http://www.w3.org/1999/xlink" width="50" zoomAndPan="magnify" viewBox="0 0 37.5 37.499999" height="50" preserveAspectRatio="xMidYMid meet" version="1.0"><defs><clipPath id="13e46111b7"><path d="M 0 0 L 37.007812 0 L 37.007812 37.007812 L 0 37.007812 Z M 0 0 " clip-rule="nonzero"/></clipPath></defs><g clip-path="url(#13e46111b7)"><path fill="#935f3d" d="M 26.132812 8.0625 C 26.132812 9.960938 27.671875 11.5 29.570312 11.5 C 31.46875 11.5 33.007812 9.960938 33.007812 8.0625 C 33.007812 6.164062 31.46875 4.625 29.570312 4.625 C 27.671875 4.625 26.132812 6.164062 26.132812 8.0625 Z M 9.335938 18.4375 C 11.898438 18.234375 14.128906 17.113281 15.816406 15.910156 L 21.1875 15.910156 C 22.875 17.113281 25.109375 18.234375 27.671875 18.4375 L 27.671875 26.445312 C 27.671875 31.613281 22.421875 35.957031 18.503906 37.007812 C 14.582031 35.957031 9.335938 31.613281 9.335938 26.445312 Z M 13.203125 24.796875 L 15.3125 29.011719 C 15.460938 29.308594 15.84375 29.398438 16.109375 29.203125 L 23.640625 23.699219 C 23.878906 23.523438 23.933594 23.1875 23.757812 22.945312 C 23.582031 22.707031 23.242188 22.65625 23.003906 22.832031 L 15.988281 27.960938 L 14.164062 24.316406 C 14.03125 24.050781 13.710938 23.941406 13.445312 24.074219 C 13.179688 24.207031 13.070312 24.53125 13.203125 24.796875 Z M 11.414062 20.207031 L 11.414062 26.445312 C 11.414062 28.160156 12.25 29.871094 13.484375 31.324219 C 14.863281 32.941406 16.726562 34.226562 18.503906 34.835938 C 20.277344 34.226562 22.144531 32.941406 23.523438 31.324219 C 24.757812 29.871094 25.59375 28.160156 25.59375 26.445312 L 25.59375 20.207031 C 23.789062 19.789062 22.089844 19.003906 20.546875 17.988281 L 16.457031 17.988281 C 14.917969 19.003906 13.214844 19.789062 11.414062 20.207031 Z M 10.335938 26.445312 C 10.335938 28.433594 11.273438 30.382812 12.664062 32.019531 C 14.207031 33.824219 16.238281 35.238281 18.503906 35.96875 C 20.765625 35.238281 22.800781 33.824219 24.339844 32.019531 C 25.734375 30.382812 26.671875 28.433594 26.671875 26.445312 L 26.671875 19.332031 C 24.421875 18.886719 22.769531 18.183594 20.871094 16.90625 L 16.136719 16.90625 C 14.226562 18.191406 12.585938 18.886719 10.335938 19.332031 Z M 25.941406 16.292969 C 25.941406 12.183594 22.609375 8.855469 18.503906 8.855469 C 14.394531 8.855469 11.066406 12.183594 11.066406 16.292969 C 11.066406 16.542969 11.121094 16.777344 11.226562 16.996094 C 12.828125 16.535156 14.128906 15.789062 15.472656 14.828125 L 21.535156 14.828125 C 22.878906 15.789062 24.175781 16.535156 25.78125 16.996094 C 25.882812 16.777344 25.941406 16.542969 25.941406 16.292969 Z M 15.066406 3.4375 C 15.066406 5.335938 16.605469 6.875 18.503906 6.875 C 20.402344 6.875 21.941406 5.335938 21.941406 3.4375 C 21.941406 1.539062 20.402344 0 18.503906 0 C 16.605469 0 15.066406 1.539062 15.066406 3.4375 Z M 4 8.0625 C 4 9.960938 5.539062 11.5 7.4375 11.5 C 9.335938 11.5 10.875 9.960938 10.875 8.0625 C 10.875 6.164062 9.335938 4.625 7.4375 4.625 C 5.539062 4.625 4 6.164062 4 8.0625 Z M 37.007812 20.917969 C 37.007812 16.808594 33.675781 13.480469 29.570312 13.480469 C 28.558594 13.480469 27.597656 13.683594 26.71875 14.046875 C 26.964844 14.945312 27.183594 16.34375 26.851562 17.246094 C 27.476562 17.355469 28.117188 17.390625 28.75 17.4375 L 28.75 23.980469 C 32.71875 24.144531 37.007812 23.121094 37.007812 20.917969 Z M 8.257812 23.980469 L 8.257812 17.4375 C 8.890625 17.390625 9.527344 17.355469 10.15625 17.246094 C 9.820312 16.34375 10.042969 14.941406 10.285156 14.046875 C 9.410156 13.683594 8.445312 13.480469 7.4375 13.480469 C 3.328125 13.480469 0 16.808594 0 20.917969 C 0 23.121094 4.285156 24.144531 8.257812 23.980469 Z M 8.257812 23.980469 " fill-opacity="1" fill-rule="evenodd"/></g></svg>