<svg xmlns="http://www.w3.org/2000/svg" xmlns:xlink="http://www.w3.org/1999/xlink" width="40" zoomAndPan="magnify" viewBox="0 0 30 30.000001" height="40" preserveAspectRatio="xMidYMid meet" version="1.0"><defs><clipPath id="38d834c4e9"><path d="M 0.484375 0 L 29.515625 0 L 29.515625 29.03125 L 0.484375 29.03125 Z M 0.484375 0 " clip-rule="nonzero"/></clipPath><clipPath id="a8dab07dda"><path d="M 1 25 L 14 25 L 14 26.128906 L 1 26.128906 Z M 1 25 " clip-rule="nonzero"/></clipPath><clipPath id="0d1a4461a8"><path d="M 0.597656 8 L 15 8 L 15 22 L 0.597656 22 Z M 0.597656 8 " clip-rule="nonzero"/></clipPath><clipPath id="b9e41b0bfa"><path d="M 6 21 L 9 21 L 9 26.128906 L 6 26.128906 Z M 6 21 " clip-rule="nonzero"/></clipPath><clipPath id="09406848e1"><path d="M 22 12 L 29.515625 12 L 29.515625 18 L 22 18 Z M 22 12 " clip-rule="nonzero"/></clipPath></defs><g clip-path="url(#38d834c4e9)"><path fill="#ffffff" d="M 0.484375 0 L 29.515625 0 L 29.515625 29.03125 L 0.484375 29.03125 Z M 0.484375 0 " fill-opacity="1" fill-rule="nonzero"/><path fill="#ffffff" d="M 0.484375 0 L 29.515625 0 L 29.515625 29.03125 L 0.484375 29.03125 Z M 0.484375 0 " fill-opacity="1" fill-rule="nonzero"/></g><g clip-path="url(#a8dab07dda)"><path fill="#925f3d" d="M 13.324219 26.21875 L 1.582031 26.21875 C 1.140625 26.21875 1.140625 25.546875 1.582031 25.546875 L 13.324219 25.546875 C 13.765625 25.546875 13.765625 26.21875 13.324219 26.21875 Z M 13.324219 26.21875 " fill-opacity="1" fill-rule="evenodd"/></g><g clip-path="url(#0d1a4461a8)"><path fill="#925f3d" d="M 13.9375 21.289062 L 0.964844 21.289062 C 0.757812 21.289062 0.597656 21.101562 0.632812 20.898438 L 2.628906 8.925781 C 2.65625 8.765625 2.796875 8.644531 2.960938 8.644531 L 11.9375 8.644531 C 12.101562 8.644531 12.242188 8.765625 12.269531 8.925781 L 14.273438 20.953125 C 14.273438 21.140625 14.125 21.289062 13.9375 21.289062 Z M 1.363281 20.617188 L 13.535156 20.617188 L 11.652344 9.320312 L 3.246094 9.320312 Z M 1.363281 20.617188 " fill-opacity="1" fill-rule="evenodd"/></g><path fill="#925f3d" d="M 12.933594 15.304688 L 1.960938 15.304688 C 1.519531 15.304688 1.519531 14.632812 1.960938 14.632812 L 12.933594 14.632812 C 13.378906 14.632812 13.378906 15.304688 12.933594 15.304688 Z M 12.933594 15.304688 " fill-opacity="1" fill-rule="evenodd"/><path fill="#925f3d" d="M 5.453125 21.289062 C 5.269531 21.289062 5.117188 21.140625 5.117188 20.953125 L 5.117188 8.984375 C 5.117188 8.539062 5.789062 8.539062 5.789062 8.984375 L 5.789062 20.953125 C 5.789062 21.140625 5.640625 21.289062 5.453125 21.289062 Z M 5.453125 21.289062 " fill-opacity="1" fill-rule="evenodd"/><path fill="#925f3d" d="M 9.445312 21.289062 C 9.257812 21.289062 9.105469 21.140625 9.105469 20.953125 L 9.105469 8.984375 C 9.105469 8.539062 9.78125 8.539062 9.78125 8.984375 L 9.78125 20.953125 C 9.78125 21.140625 9.628906 21.289062 9.445312 21.289062 Z M 9.445312 21.289062 " fill-opacity="1" fill-rule="evenodd"/><g clip-path="url(#b9e41b0bfa)"><path fill="#925f3d" d="M 8.207031 26.21875 C 8.019531 26.21875 7.867188 26.070312 7.867188 25.882812 L 7.859375 22.261719 C 7.859375 21.820312 8.53125 21.816406 8.535156 22.261719 L 8.542969 25.882812 C 8.542969 26.070312 8.390625 26.21875 8.207031 26.21875 Z M 6.710938 26.21875 C 6.523438 26.21875 6.371094 26.070312 6.371094 25.882812 L 6.363281 22.261719 C 6.363281 21.820312 7.035156 21.816406 7.039062 22.261719 L 7.046875 25.882812 C 7.046875 26.070312 6.894531 26.21875 6.710938 26.21875 Z M 6.710938 26.21875 " fill-opacity="1" fill-rule="evenodd"/></g><path fill="#925f3d" d="M 12.421875 12.226562 L 2.476562 12.226562 C 2.03125 12.226562 2.03125 11.550781 2.476562 11.550781 L 12.421875 11.550781 C 12.867188 11.550781 12.867188 12.226562 12.421875 12.226562 Z M 12.421875 12.226562 " fill-opacity="1" fill-rule="evenodd"/><path fill="#925f3d" d="M 13.394531 18.132812 L 1.492188 18.132812 C 1.046875 18.132812 1.046875 17.457031 1.492188 17.457031 L 13.394531 17.457031 C 13.835938 17.457031 13.835938 18.132812 13.394531 18.132812 Z M 13.394531 18.132812 " fill-opacity="1" fill-rule="evenodd"/><path fill="#925f3d" d="M 10 22.597656 L 4.898438 22.597656 C 4.710938 22.597656 4.5625 22.449219 4.5625 22.261719 L 4.5625 20.953125 C 4.5625 20.511719 5.234375 20.511719 5.234375 20.953125 L 5.234375 21.925781 L 9.664062 21.925781 C 9.664062 21.296875 9.53125 20.617188 10 20.617188 C 10.1875 20.617188 10.335938 20.765625 10.335938 20.953125 L 10.335938 22.261719 C 10.335938 22.449219 10.1875 22.597656 10 22.597656 Z M 10 22.597656 " fill-opacity="1" fill-rule="evenodd"/><path fill="#925f3d" d="M 22.289062 14.273438 C 21.3125 14.273438 20.535156 13.40625 20.65625 12.425781 C 20.765625 11.539062 21.578125 10.882812 22.492188 10.996094 C 24.519531 11.246094 24.324219 14.273438 22.289062 14.273438 Z M 22.289062 11.65625 C 21.085938 11.65625 20.972656 13.449219 22.171875 13.59375 C 23.519531 13.761719 23.644531 11.65625 22.289062 11.65625 Z M 22.289062 11.65625 " fill-opacity="1" fill-rule="evenodd"/><path fill="#925f3d" d="M 22.507812 11.671875 C 21.757812 11.671875 21.261719 10.628906 21.433594 9.992188 L 22.992188 4.234375 C 23.09375 3.859375 23.644531 3.929688 23.652344 4.316406 L 23.761719 10.28125 C 23.773438 10.894531 23.160156 11.671875 22.507812 11.671875 Z M 23.023438 6.695312 L 22.082031 10.167969 C 22.03125 10.355469 22.261719 11.390625 22.828125 10.816406 C 23 10.636719 23.089844 10.417969 23.089844 10.292969 Z M 23.023438 6.695312 " fill-opacity="1" fill-rule="evenodd"/><path fill="#925f3d" d="M 15.644531 18.050781 C 15.347656 18.050781 15.195312 17.695312 15.398438 17.480469 L 19.542969 13.1875 C 20.179688 12.523438 21.910156 12.632812 21.636719 14.035156 C 21.554688 14.464844 21.296875 14.859375 20.984375 15.035156 L 15.808594 18.007812 C 15.757812 18.039062 15.699219 18.050781 15.644531 18.050781 Z M 20.589844 13.46875 C 20.335938 13.46875 20.113281 13.5625 20.027344 13.65625 L 17.527344 16.242188 L 20.648438 14.453125 C 20.828125 14.351562 21.371094 13.46875 20.589844 13.46875 Z M 20.589844 13.46875 " fill-opacity="1" fill-rule="evenodd"/><path fill="#925f3d" d="M 25.320312 25.890625 L 18.9375 25.890625 C 18.496094 25.890625 18.496094 25.214844 18.9375 25.214844 L 25.320312 25.214844 C 25.761719 25.214844 25.761719 25.890625 25.320312 25.890625 Z M 25.320312 25.890625 " fill-opacity="1" fill-rule="evenodd"/><path fill="#925f3d" d="M 22.128906 25.890625 C 21.941406 25.890625 21.792969 25.738281 21.792969 25.554688 L 21.792969 13.929688 C 21.792969 13.484375 22.464844 13.484375 22.464844 13.929688 L 22.464844 25.554688 C 22.464844 25.738281 22.316406 25.890625 22.128906 25.890625 Z M 22.128906 25.890625 " fill-opacity="1" fill-rule="evenodd"/><path fill="#925f3d" d="M 16.796875 9.644531 C 15.515625 9.644531 14.472656 8.601562 14.472656 7.320312 C 14.472656 6.039062 15.515625 4.996094 16.796875 4.996094 C 18.078125 4.996094 19.121094 6.039062 19.121094 7.320312 C 19.121094 8.601562 18.078125 9.644531 16.796875 9.644531 Z M 16.796875 5.671875 C 15.886719 5.671875 15.144531 6.410156 15.144531 7.320312 C 15.144531 8.230469 15.886719 8.972656 16.796875 8.972656 C 17.707031 8.972656 18.445312 8.234375 18.445312 7.320312 C 18.445312 6.410156 17.707031 5.671875 16.796875 5.671875 Z M 16.796875 5.671875 " fill-opacity="1" fill-rule="evenodd"/><path fill="#925f3d" d="M 16.796875 4.542969 C 16.339844 4.542969 16.457031 3.90625 16.457031 3.347656 C 16.457031 2.902344 17.132812 2.902344 17.132812 3.347656 C 17.132812 3.90625 17.253906 4.542969 16.796875 4.542969 Z M 16.796875 4.542969 " fill-opacity="1" fill-rule="evenodd"/><path fill="#925f3d" d="M 18.351562 4.960938 C 18.097656 4.960938 17.929688 4.683594 18.0625 4.457031 C 18.339844 3.972656 18.554688 3.359375 18.953125 3.585938 C 19.347656 3.816406 18.925781 4.308594 18.644531 4.792969 C 18.582031 4.898438 18.46875 4.960938 18.351562 4.960938 Z M 18.351562 4.960938 " fill-opacity="1" fill-rule="evenodd"/><path fill="#925f3d" d="M 19.492188 6.101562 C 19.152344 6.101562 19.027344 5.644531 19.324219 5.472656 C 19.808594 5.195312 20.300781 4.769531 20.527344 5.167969 C 20.757812 5.5625 20.148438 5.777344 19.660156 6.054688 C 19.609375 6.085938 19.550781 6.101562 19.492188 6.101562 Z M 19.492188 6.101562 " fill-opacity="1" fill-rule="evenodd"/><path fill="#925f3d" d="M 20.769531 7.660156 C 20.210938 7.660156 19.574219 7.78125 19.574219 7.320312 C 19.574219 6.863281 20.210938 6.984375 20.769531 6.984375 C 21.214844 6.984375 21.214844 7.660156 20.769531 7.660156 Z M 20.769531 7.660156 " fill-opacity="1" fill-rule="evenodd"/><path fill="#925f3d" d="M 20.238281 9.644531 C 20.074219 9.644531 19.535156 9.292969 19.324219 9.171875 C 18.941406 8.949219 19.277344 8.367188 19.660156 8.589844 C 20.148438 8.867188 20.757812 9.082031 20.527344 9.476562 C 20.46875 9.585938 20.355469 9.644531 20.238281 9.644531 Z M 20.238281 9.644531 " fill-opacity="1" fill-rule="evenodd"/><path fill="#925f3d" d="M 18.78125 11.101562 C 18.484375 11.101562 18.308594 10.617188 18.0625 10.1875 C 17.839844 9.804688 18.421875 9.46875 18.644531 9.851562 C 18.925781 10.339844 19.347656 10.824219 18.953125 11.054688 C 18.898438 11.085938 18.839844 11.101562 18.785156 11.101562 Z M 18.78125 11.101562 " fill-opacity="1" fill-rule="evenodd"/><path fill="#925f3d" d="M 16.796875 11.632812 C 16.339844 11.632812 16.457031 10.996094 16.457031 10.4375 C 16.457031 9.992188 17.132812 9.992188 17.132812 10.4375 C 17.132812 10.996094 17.253906 11.632812 16.796875 11.632812 Z M 16.796875 11.632812 " fill-opacity="1" fill-rule="evenodd"/><path fill="#925f3d" d="M 14.808594 11.101562 C 14.554688 11.101562 14.386719 10.824219 14.515625 10.597656 C 14.796875 10.109375 15.007812 9.5 15.40625 9.726562 C 15.800781 9.957031 15.378906 10.445312 15.101562 10.933594 C 15.039062 11.039062 14.925781 11.101562 14.808594 11.101562 Z M 14.808594 11.101562 " fill-opacity="1" fill-rule="evenodd"/><path fill="#925f3d" d="M 13.351562 9.644531 C 13.011719 9.644531 12.886719 9.1875 13.183594 9.019531 C 13.667969 8.738281 14.160156 8.316406 14.386719 8.710938 C 14.617188 9.109375 14.007812 9.320312 13.519531 9.601562 C 13.46875 9.632812 13.410156 9.644531 13.351562 9.644531 Z M 13.351562 9.644531 " fill-opacity="1" fill-rule="evenodd"/><path fill="#925f3d" d="M 13.679688 7.660156 C 13.121094 7.660156 12.484375 7.78125 12.484375 7.320312 C 12.484375 6.863281 13.121094 6.984375 13.679688 6.984375 C 14.125 6.984375 14.125 7.660156 13.679688 7.660156 Z M 13.679688 7.660156 " fill-opacity="1" fill-rule="evenodd"/><path fill="#925f3d" d="M 14.097656 6.101562 C 13.933594 6.101562 13.394531 5.746094 13.183594 5.625 C 12.800781 5.40625 13.136719 4.820312 13.519531 5.042969 C 14.007812 5.324219 14.617188 5.535156 14.390625 5.933594 C 14.328125 6.039062 14.214844 6.101562 14.097656 6.101562 Z M 14.097656 6.101562 " fill-opacity="1" fill-rule="evenodd"/><path fill="#925f3d" d="M 15.238281 4.960938 C 14.941406 4.960938 14.765625 4.476562 14.515625 4.046875 C 14.296875 3.664062 14.878906 3.328125 15.097656 3.710938 C 15.378906 4.195312 15.800781 4.6875 15.40625 4.914062 C 15.351562 4.945312 15.292969 4.960938 15.238281 4.960938 Z M 15.238281 4.960938 " fill-opacity="1" fill-rule="evenodd"/><g clip-path="url(#09406848e1)"><path fill="#925f3d" d="M 29.023438 17.933594 C 28.804688 17.933594 24.230469 15.328125 23.640625 15.003906 C 22.789062 14.53125 22.503906 12.753906 24.027344 12.753906 C 24.433594 12.753906 24.824219 12.898438 25.054688 13.128906 L 29.234375 17.328125 C 29.511719 17.574219 29.3125 17.933594 29.03125 17.933594 C 29.03125 17.933594 29.027344 17.933594 29.023438 17.933594 Z M 24.027344 13.429688 C 23.222656 13.429688 23.785156 14.3125 23.96875 14.414062 L 27.117188 16.15625 L 24.578125 13.605469 C 24.476562 13.503906 24.246094 13.429688 24.027344 13.429688 Z M 24.027344 13.429688 " fill-opacity="1" fill-rule="evenodd"/></g></svg>