<svg xmlns="http://www.w3.org/2000/svg" xmlns:xlink="http://www.w3.org/1999/xlink" width="40" zoomAndPan="magnify" viewBox="0 0 30 30.000001" height="40" preserveAspectRatio="xMidYMid meet" version="1.0"><defs><clipPath id="e85eed8688"><path d="M 0.484375 0 L 29.515625 0 L 29.515625 29.03125 L 0.484375 29.03125 Z M 0.484375 0 " clip-rule="nonzero"/></clipPath><clipPath id="c216f3b0fe"><path d="M 0.703125 0 L 29.007812 0 L 29.007812 29 L 0.703125 29 Z M 0.703125 0 " clip-rule="nonzero"/></clipPath></defs><g clip-path="url(#e85eed8688)"><path fill="#ffffff" d="M 0.484375 0 L 29.515625 0 L 29.515625 29.03125 L 0.484375 29.03125 Z M 0.484375 0 " fill-opacity="1" fill-rule="nonzero"/><path fill="#ffffff" d="M 0.484375 0 L 29.515625 0 L 29.515625 29.03125 L 0.484375 29.03125 Z M 0.484375 0 " fill-opacity="1" fill-rule="nonzero"/></g><g clip-path="url(#c216f3b0fe)"><path fill="#925f3d" d="M 9.945312 4.921875 C 9.335938 4.867188 4.28125 6.003906 2.5625 6.703125 C 2.039062 6.914062 1.75 7.152344 1.730469 7.769531 C 1.703125 9.113281 1.808594 9.34375 1.804688 11.117188 C 1.488281 10.5625 1.230469 10.058594 0.742188 9.648438 C 0.710938 10.679688 1.59375 12.792969 1.9375 13.859375 C 1.945312 13.875 2.859375 14.210938 2.917969 14.082031 C 3.226562 13.207031 3.953125 11.210938 3.851562 10.328125 C 3.386719 10.664062 3.128906 11.214844 2.863281 11.710938 C 2.839844 10.914062 2.867188 8.871094 2.972656 8.125 C 3.027344 7.738281 3.253906 7.59375 3.40625 7.507812 C 3.410156 7.511719 9.351562 5.074219 9.945312 4.921875 Z M 12.867188 10.855469 C 12.839844 10.738281 12.816406 10.621094 12.800781 10.511719 C 12.101562 9.835938 11.679688 9.542969 10.753906 10.71875 C 10 11.675781 10.046875 11.933594 11.195312 12.527344 C 11.828125 12.859375 11.320312 13.828125 10.6875 13.492188 C 10.582031 13.429688 10.488281 13.363281 10.398438 13.300781 C 9.425781 13.316406 8.917969 13.40625 9.097656 14.890625 C 9.242188 16.101562 9.457031 16.25 10.6875 15.859375 C 11.371094 15.644531 11.695312 16.6875 11.011719 16.902344 C 10.890625 16.929688 10.777344 16.949219 10.667969 16.96875 C 9.996094 17.667969 9.699219 18.089844 10.878906 19.015625 C 11.835938 19.765625 12.09375 19.71875 12.683594 18.574219 C 13.015625 17.941406 13.984375 18.445312 13.648438 19.082031 C 13.585938 19.183594 13.519531 19.28125 13.457031 19.371094 C 13.472656 20.34375 13.5625 20.847656 15.050781 20.671875 C 16.257812 20.527344 16.410156 20.308594 16.015625 19.082031 C 15.804688 18.394531 16.84375 18.070312 17.058594 18.757812 C 17.085938 18.875 17.109375 18.988281 17.125 19.097656 C 17.824219 19.773438 18.246094 20.066406 19.171875 18.890625 C 19.925781 17.933594 19.875 17.675781 18.730469 17.085938 C 18.09375 16.75 18.605469 15.785156 19.238281 16.117188 C 19.339844 16.179688 19.4375 16.246094 19.527344 16.3125 C 20.496094 16.296875 21.003906 16.203125 20.828125 14.71875 C 20.679688 13.507812 20.46875 13.359375 19.238281 13.75 C 18.554688 13.964844 18.230469 12.921875 18.914062 12.710938 C 19.03125 12.683594 19.148438 12.660156 19.257812 12.640625 C 19.929688 11.945312 20.222656 11.523438 19.046875 10.597656 C 18.089844 9.84375 17.832031 9.890625 17.238281 11.035156 C 16.90625 11.671875 15.941406 11.164062 16.273438 10.53125 C 16.339844 10.425781 16.402344 10.328125 16.46875 10.238281 C 16.453125 9.269531 16.363281 8.761719 14.875 8.941406 C 13.664062 9.085938 13.515625 9.300781 13.90625 10.53125 C 14.121094 11.214844 13.082031 11.539062 12.867188 10.855469 Z M 0.792969 24.636719 C 0.984375 23.65625 1.164062 23.0625 2.113281 22.371094 C 2.394531 22.167969 2.699219 22 3.023438 21.867188 C 1.535156 19.949219 2.277344 16.488281 5.347656 16.953125 C 7.761719 17.316406 7.710938 20.179688 6.734375 21.730469 C 8.039062 22.171875 9.007812 23.15625 8.921875 24.636719 C 8.710938 28.179688 1.183594 27.421875 1.078125 25.074219 C 0.898438 24.996094 0.78125 24.828125 0.792969 24.636719 Z M 3.882812 22.613281 C 3.804688 22.636719 3.726562 22.664062 3.648438 22.691406 C 2.476562 23.121094 2.078125 23.617188 1.914062 24.644531 C 1.898438 24.914062 1.632812 25.128906 1.324219 25.128906 C 1.289062 25.128906 1.253906 25.125 1.222656 25.117188 C 2.175781 27.113281 8.050781 27.21875 8.085938 24.640625 C 8.101562 23.535156 7.15625 22.773438 5.964844 22.527344 C 5.761719 22.652344 5.539062 22.722656 5.308594 22.722656 C 5.234375 22.851562 5.089844 22.933594 4.929688 22.925781 C 4.507812 22.839844 4.175781 22.761719 3.882812 22.613281 Z M 5.363281 22.574219 C 6.929688 22.238281 7.730469 18.246094 5.523438 17.734375 C 3.226562 17.207031 2.449219 19.328125 3.464844 21.066406 C 3.871094 21.765625 4.226562 21.984375 4.988281 22.109375 C 5.246094 22.128906 5.410156 22.367188 5.363281 22.574219 Z M 21.058594 24.636719 C 21.25 23.65625 21.429688 23.0625 22.378906 22.371094 C 22.660156 22.167969 22.96875 22 23.292969 21.867188 C 21.800781 19.949219 22.542969 16.488281 25.613281 16.953125 C 28.027344 17.316406 27.976562 20.179688 27 21.730469 C 28.304688 22.171875 29.277344 23.15625 29.1875 24.636719 C 28.980469 28.179688 21.449219 27.421875 21.347656 25.074219 C 21.164062 24.996094 21.046875 24.828125 21.058594 24.636719 Z M 24.148438 22.613281 C 24.070312 22.636719 23.992188 22.664062 23.917969 22.691406 C 22.746094 23.121094 22.347656 23.617188 22.183594 24.644531 C 22.164062 24.914062 21.898438 25.128906 21.589844 25.128906 C 21.554688 25.128906 21.523438 25.125 21.488281 25.117188 C 22.441406 27.113281 28.320312 27.21875 28.355469 24.640625 C 28.371094 23.535156 27.421875 22.773438 26.234375 22.527344 C 26.027344 22.652344 25.804688 22.722656 25.578125 22.722656 C 25.5 22.851562 25.355469 22.933594 25.195312 22.925781 C 24.773438 22.839844 24.441406 22.761719 24.148438 22.613281 Z M 25.628906 22.574219 C 27.195312 22.238281 27.996094 18.246094 25.789062 17.734375 C 23.496094 17.207031 22.71875 19.328125 23.730469 21.066406 C 24.140625 21.765625 24.492188 21.984375 25.253906 22.109375 C 25.511719 22.128906 25.679688 22.367188 25.628906 22.574219 Z M 17.554688 28.695312 C 17.578125 28.757812 17.617188 28.882812 17.902344 28.925781 C 18.613281 29.03125 19.992188 28.988281 20.074219 28.761719 C 20.429688 27.3125 20.53125 26.027344 20.582031 25.074219 C 20.632812 24.105469 20.71875 22.449219 20.617188 21.515625 C 20.484375 20.308594 18.839844 20.375 17.859375 20.558594 C 17.585938 20.648438 17.464844 21.042969 17.398438 21.285156 C 16.878906 23.285156 17.136719 26.707031 17.554688 28.695312 Z M 13.546875 28.695312 C 13.570312 28.757812 13.605469 28.882812 13.894531 28.925781 C 14.605469 29.03125 15.980469 28.988281 16.066406 28.761719 C 16.523438 26.886719 16.746094 25.03125 16.535156 23.089844 C 16.402344 21.882812 14.757812 21.949219 13.78125 22.132812 C 13.503906 22.222656 13.367188 22.617188 13.316406 22.859375 C 12.9375 24.789062 13.128906 26.707031 13.546875 28.695312 Z M 14.261719 28.328125 C 14.078125 26.46875 13.746094 24.335938 14.257812 22.542969 C 14.566406 22.472656 15.507812 22.59375 15.578125 23.136719 C 15.851562 25.386719 15.636719 26.273438 15.355469 28.519531 C 15.339844 28.675781 14.277344 28.484375 14.261719 28.328125 Z M 9.609375 28.695312 C 9.632812 28.757812 9.667969 28.882812 9.953125 28.925781 C 10.667969 29.03125 12.042969 28.988281 12.128906 28.761719 C 12.492188 27.28125 12.699219 25.542969 12.578125 24.421875 C 12.445312 23.214844 10.847656 23.292969 9.867188 23.476562 C 9.589844 23.566406 9.453125 23.960938 9.40625 24.207031 C 9.1875 25.289062 9.1875 26.707031 9.609375 28.695312 Z M 10.300781 28.207031 C 10.117188 26.347656 10.25 25.164062 10.332031 23.960938 C 10.640625 23.890625 11.449219 23.984375 11.503906 24.523438 C 11.609375 25.570312 11.664062 26.3125 11.382812 28.554688 C 11.363281 28.714844 10.3125 28.367188 10.300781 28.207031 Z M 18.175781 28.125 C 17.988281 26.265625 17.839844 22.660156 18.351562 20.871094 C 18.660156 20.796875 19.535156 21.152344 19.597656 21.691406 C 19.875 23.945312 19.632812 26.332031 19.351562 28.574219 C 19.332031 28.734375 18.1875 28.28125 18.175781 28.125 Z M 10.828125 8.144531 C 11.019531 7.164062 11.199219 6.574219 12.148438 5.882812 C 12.429688 5.679688 12.734375 5.507812 13.058594 5.375 C 11.570312 3.460938 12.3125 0 15.378906 0.460938 C 17.792969 0.828125 17.746094 3.691406 16.769531 5.242188 C 18.074219 5.679688 19.042969 6.667969 18.957031 8.144531 C 18.929688 8.578125 18.796875 8.945312 18.578125 9.257812 C 19.105469 9.433594 19.632812 9.90625 20.144531 10.648438 C 20.691406 11.4375 20.484375 12.113281 19.949219 12.585938 C 21.367188 12.625 21.902344 13.691406 21.566406 15.53125 C 21.394531 16.472656 20.769531 16.804688 20.058594 16.761719 C 21.03125 17.789062 20.660156 18.925781 19.121094 19.988281 C 18.332031 20.53125 17.65625 20.324219 17.179688 19.792969 C 17.144531 21.207031 16.078125 21.746094 14.238281 21.410156 C 13.292969 21.238281 12.964844 20.609375 13.003906 19.898438 C 11.980469 20.875 10.84375 20.5 9.78125 18.960938 C 9.234375 18.175781 9.441406 17.496094 9.976562 17.023438 C 8.558594 16.988281 8.023438 15.921875 8.359375 14.082031 C 8.53125 13.140625 9.15625 12.804688 9.867188 12.847656 C 8.890625 11.820312 9.265625 10.6875 10.804688 9.625 C 11.019531 9.472656 11.230469 9.382812 11.429688 9.335938 C 11.238281 9.109375 11.125 8.859375 11.113281 8.585938 C 10.933594 8.503906 10.816406 8.335938 10.828125 8.144531 Z M 17.632812 9.253906 C 17.933594 8.964844 18.117188 8.597656 18.121094 8.152344 C 18.136719 7.046875 17.191406 6.285156 16 6.039062 C 15.792969 6.160156 15.574219 6.230469 15.34375 6.234375 C 15.269531 6.363281 15.125 6.445312 14.964844 6.433594 C 14.539062 6.351562 14.210938 6.273438 13.917969 6.125 C 13.839844 6.148438 13.761719 6.171875 13.683594 6.203125 C 12.511719 6.632812 12.113281 7.128906 11.949219 8.15625 C 11.929688 8.425781 11.667969 8.640625 11.355469 8.640625 C 11.320312 8.636719 11.289062 8.636719 11.253906 8.628906 C 11.378906 8.890625 11.589844 9.117188 11.859375 9.3125 C 12.164062 9.351562 12.4375 9.503906 12.664062 9.738281 C 12.691406 9.746094 12.71875 9.757812 12.746094 9.765625 C 12.808594 8.390625 13.871094 7.871094 15.6875 8.203125 C 16.628906 8.375 16.960938 9 16.917969 9.714844 C 17.152344 9.488281 17.394531 9.335938 17.632812 9.253906 Z M 16.277344 13.390625 C 15.382812 12.972656 14.207031 12.84375 13.496094 13.660156 C 12.703125 14.566406 13.113281 16.507812 14.726562 16.6875 C 16.609375 16.902344 17.289062 15.308594 16.882812 13.695312 C 16.847656 13.558594 16.8125 13.460938 16.773438 13.375 C 16.628906 13.472656 16.4375 13.484375 16.277344 13.390625 Z M 16.898438 13.246094 C 17.496094 14.039062 17.742188 16.429688 15.90625 17.109375 C 12.683594 18.296875 11.070312 13.953125 13.605469 12.554688 C 14.691406 11.953125 15.679688 12.132812 16.746094 12.589844 C 16.976562 12.726562 17.042969 13.027344 16.898438 13.246094 Z M 15.398438 6.082031 C 16.964844 5.746094 17.761719 1.753906 15.558594 1.246094 C 13.261719 0.714844 12.484375 2.835938 13.5 4.574219 C 13.90625 5.273438 14.257812 5.496094 15.019531 5.621094 C 15.28125 5.640625 15.445312 5.878906 15.398438 6.082031 Z M 19.980469 4.921875 C 20.589844 4.867188 25.640625 6.003906 27.363281 6.703125 C 27.882812 6.914062 28.171875 7.152344 28.195312 7.769531 C 28.222656 9.113281 28.113281 9.34375 28.121094 11.117188 C 28.433594 10.5625 28.695312 10.058594 29.183594 9.648438 C 29.214844 10.679688 28.332031 12.792969 27.984375 13.859375 C 27.980469 13.875 27.066406 14.210938 27.007812 14.082031 C 26.699219 13.207031 25.972656 11.210938 26.074219 10.328125 C 26.535156 10.664062 26.796875 11.214844 27.0625 11.710938 C 27.089844 10.914062 27.058594 8.871094 26.953125 8.125 C 26.898438 7.738281 26.671875 7.59375 26.519531 7.507812 C 26.515625 7.511719 20.570312 5.074219 19.980469 4.921875 Z M 19.980469 4.921875 " fill-opacity="1" fill-rule="evenodd"/></g></svg>