<svg xmlns="http://www.w3.org/2000/svg" xmlns:xlink="http://www.w3.org/1999/xlink" width="40" zoomAndPan="magnify" viewBox="0 0 30 30.000001" height="40" preserveAspectRatio="xMidYMid meet" version="1.0"><defs><clipPath id="6e29faede1"><path d="M 0.484375 0 L 29.515625 0 L 29.515625 29.03125 L 0.484375 29.03125 Z M 0.484375 0 " clip-rule="nonzero"/></clipPath><clipPath id="90fb3bc3d1"><path d="M 0.484375 0 L 29.386719 0 L 29.386719 29.03125 L 0.484375 29.03125 Z M 0.484375 0 " clip-rule="nonzero"/></clipPath></defs><g clip-path="url(#6e29faede1)"><path fill="#ffffff" d="M 0.484375 0 L 29.515625 0 L 29.515625 29.03125 L 0.484375 29.03125 Z M 0.484375 0 " fill-opacity="1" fill-rule="nonzero"/><path fill="#ffffff" d="M 0.484375 0 L 29.515625 0 L 29.515625 29.03125 L 0.484375 29.03125 Z M 0.484375 0 " fill-opacity="1" fill-rule="nonzero"/></g><path fill="#925f3d" d="M 21.988281 4.113281 C 22.140625 3.824219 22.171875 3.496094 22.074219 3.183594 C 21.976562 2.875 21.761719 2.617188 21.476562 2.464844 C 21.1875 2.3125 20.859375 2.28125 20.550781 2.378906 L 19.386719 2.734375 C 19.324219 2.753906 19.269531 2.792969 19.238281 2.855469 C 19.207031 2.910156 19.203125 2.976562 19.21875 3.039062 L 19.800781 4.898438 L 20.378906 6.757812 C 20.410156 6.859375 20.507812 6.925781 20.609375 6.925781 C 20.632812 6.925781 20.660156 6.921875 20.683594 6.914062 C 20.8125 6.871094 20.882812 6.738281 20.84375 6.609375 L 20.335938 4.984375 L 20.890625 4.8125 L 22.292969 6.273438 C 22.339844 6.324219 22.402344 6.347656 22.46875 6.347656 C 22.53125 6.347656 22.589844 6.324219 22.640625 6.28125 C 22.738281 6.191406 22.738281 6.03125 22.644531 5.933594 L 21.402344 4.636719 C 21.660156 4.542969 21.859375 4.355469 21.988281 4.113281 Z M 21.554688 3.878906 C 21.464844 4.050781 21.3125 4.179688 21.121094 4.238281 L 20.191406 4.527344 L 19.757812 3.128906 L 20.691406 2.84375 C 20.878906 2.789062 21.074219 2.808594 21.246094 2.890625 C 21.414062 2.984375 21.542969 3.136719 21.605469 3.324219 C 21.664062 3.507812 21.648438 3.710938 21.554688 3.878906 Z M 21.554688 3.878906 " fill-opacity="1" fill-rule="nonzero"/><g clip-path="url(#90fb3bc3d1)"><path fill="#925f3d" d="M 29.410156 8.195312 L 23.804688 7.496094 L 25.308594 7.023438 C 25.371094 7.007812 25.425781 6.964844 25.457031 6.902344 C 25.488281 6.847656 25.492188 6.78125 25.472656 6.71875 L 23.457031 0.199219 C 23.4375 0.136719 23.394531 0.0820312 23.335938 0.0507812 C 23.28125 0.0234375 23.214844 0.015625 23.152344 0.0351562 L 16.628906 2.050781 C 16.503906 2.09375 16.429688 2.226562 16.472656 2.355469 L 17.453125 5.511719 L 15.0625 8.867188 L 9.390625 7.300781 L 9.390625 6.925781 C 9.804688 6.84375 10.121094 6.476562 10.121094 6.039062 L 10.121094 5.191406 C 10.539062 5.054688 10.851562 4.660156 10.851562 4.191406 L 10.851562 3.300781 C 10.851562 3.222656 10.820312 3.148438 10.761719 3.101562 C 10.664062 3.019531 10.523438 3.03125 10.4375 3.117188 L 10.1875 3.367188 L 10.097656 3.191406 C 10.066406 3.128906 10.015625 3.082031 9.957031 3.0625 C 9.832031 3.019531 9.710938 3.074219 9.65625 3.183594 L 9.535156 3.421875 L 9.273438 3.246094 C 9.175781 3.183594 9.070312 3.128906 8.960938 3.101562 C 8.835938 3.0625 8.695312 3.042969 8.558594 3.050781 C 7.933594 3.082031 7.445312 3.625 7.445312 4.257812 L 7.445312 5.726562 C 7.445312 6.042969 7.644531 6.3125 7.933594 6.414062 L 7.933594 6.902344 C 7.328125 6.789062 6.699219 6.898438 6.175781 7.226562 C 5.605469 7.585938 5.207031 8.175781 5.085938 8.839844 C 5.085938 8.839844 4.226562 13.566406 4.066406 14.480469 C 4.050781 14.578125 4.042969 14.675781 4.042969 14.773438 L 4.042969 15.894531 C 4.042969 16.332031 4.0625 16.769531 4.097656 17.210938 L 4.316406 19.820312 L 0.421875 26.335938 C 0.355469 26.449219 0.390625 26.597656 0.503906 26.671875 L 4.230469 28.980469 C 4.269531 29.003906 4.316406 29.015625 4.359375 29.015625 C 4.433594 29.015625 4.5 28.988281 4.550781 28.925781 C 4.609375 28.851562 4.617188 28.75 4.574219 28.664062 L 3.902344 27.195312 L 7.449219 21.320312 C 7.761719 20.804688 7.925781 20.214844 7.925781 19.617188 L 7.925781 17.765625 L 10.832031 21.5 L 9.613281 26.78125 C 9.460938 27.425781 9.390625 28.097656 9.390625 28.761719 C 9.390625 28.894531 9.5 29.003906 9.632812 29.003906 L 14.015625 29.003906 C 14.101562 29.003906 14.1875 28.960938 14.230469 28.894531 C 14.300781 28.777344 14.265625 28.632812 14.15625 28.558594 L 12.828125 27.675781 L 14.046875 21.585938 C 14.191406 20.84375 14.019531 20.0625 13.5625 19.453125 L 9.894531 14.550781 L 10.066406 13.777344 C 10.386719 14.304688 10.753906 14.800781 11.15625 15.277344 L 11.273438 15.414062 C 11.296875 15.441406 11.328125 15.460938 11.363281 15.480469 L 12.664062 16.039062 C 12.691406 16.050781 12.722656 16.058594 12.757812 16.058594 C 12.832031 16.058594 12.90625 16.027344 12.953125 15.960938 C 12.992188 15.910156 13.003906 15.851562 13.003906 15.789062 L 12.925781 14.667969 C 12.917969 14.609375 12.894531 14.558594 12.851562 14.515625 L 12.429688 14.09375 C 11.960938 13.625 11.539062 13.113281 11.15625 12.570312 L 12.773438 13.320312 C 13.160156 13.503906 13.578125 13.621094 14.007812 13.644531 C 14.964844 13.707031 15.886719 13.363281 16.570312 12.707031 L 20.371094 9.03125 C 20.519531 8.882812 20.597656 8.6875 20.597656 8.480469 C 20.59375 8.292969 20.507812 8.109375 20.371094 7.976562 L 19.433594 7.019531 C 19.292969 6.878906 19.105469 6.800781 18.910156 6.800781 C 18.714844 6.800781 18.527344 6.878906 18.386719 7.019531 L 18.171875 7.246094 C 18.125 7.148438 18.042969 7.0625 17.953125 7 C 17.800781 6.902344 17.613281 6.871094 17.441406 6.914062 C 17.34375 6.941406 17.269531 7.023438 17.257812 7.121094 L 17.15625 8.128906 L 14.144531 10.925781 L 9.667969 8.910156 L 9.75 8.542969 C 9.773438 8.4375 9.722656 8.328125 9.625 8.273438 L 9.03125 7.9375 L 9.207031 7.78125 L 15.101562 9.410156 C 15.125 9.414062 15.144531 9.414062 15.167969 9.414062 C 15.246094 9.414062 15.320312 9.378906 15.367188 9.3125 L 17.640625 6.121094 L 17.710938 6.335938 C 17.746094 6.457031 17.867188 6.539062 17.996094 6.511719 C 18.136719 6.484375 18.222656 6.335938 18.179688 6.203125 L 17.019531 2.464844 L 23.074219 0.589844 L 24.949219 6.640625 L 21.121094 7.824219 C 20.996094 7.859375 20.914062 7.996094 20.945312 8.121094 C 20.976562 8.230469 21.074219 8.304688 21.183594 8.304688 C 21.207031 8.304688 21.230469 8.300781 21.257812 8.292969 L 22.335938 7.957031 L 21.519531 14.332031 C 21.511719 14.398438 21.53125 14.460938 21.566406 14.515625 C 21.605469 14.570312 21.664062 14.601562 21.730469 14.609375 L 23.644531 14.84375 L 19.386719 14.84375 C 19.25 14.84375 19.140625 14.953125 19.140625 15.089844 L 19.140625 21.914062 C 19.140625 22.050781 19.25 22.160156 19.386719 22.160156 L 20.605469 22.160156 L 20.605469 28.742188 C 20.605469 28.875 20.714844 28.988281 20.847656 28.988281 L 27.675781 28.988281 C 27.808594 28.988281 27.917969 28.875 27.917969 28.742188 L 27.917969 21.914062 C 27.917969 21.78125 27.808594 21.671875 27.675781 21.671875 L 26.457031 21.671875 L 26.457031 15.199219 L 28.503906 15.453125 C 28.515625 15.453125 28.523438 15.453125 28.535156 15.453125 C 28.589844 15.453125 28.644531 15.4375 28.6875 15.40625 C 28.734375 15.363281 28.773438 15.308594 28.777344 15.242188 L 29.625 8.46875 C 29.636719 8.335938 29.546875 8.214844 29.410156 8.195312 Z M 7.914062 4.238281 C 7.914062 3.863281 8.226562 3.550781 8.601562 3.550781 C 8.667969 3.550781 8.738281 3.5625 8.804688 3.582031 C 8.871094 3.597656 8.933594 3.628906 8.988281 3.667969 L 9.480469 3.996094 C 9.542969 4.03125 9.609375 4.042969 9.675781 4.027344 C 9.742188 4.007812 9.796875 3.960938 9.832031 3.898438 L 9.859375 3.847656 L 9.882812 3.898438 C 9.917969 3.964844 9.984375 4.019531 10.058594 4.03125 C 10.136719 4.042969 10.21875 4.019531 10.273438 3.964844 L 10.347656 3.890625 L 10.347656 4.203125 C 10.347656 4.445312 10.1875 4.652344 9.96875 4.734375 C 9.9375 4.714844 9.894531 4.703125 9.859375 4.703125 C 9.804688 4.703125 9.75 4.722656 9.707031 4.757812 C 9.65625 4.75 9.613281 4.738281 9.566406 4.722656 L 8.972656 4.476562 C 8.902344 4.445312 8.816406 4.453125 8.742188 4.5 C 8.675781 4.542969 8.632812 4.625 8.632812 4.703125 C 8.632812 4.847656 8.597656 4.988281 8.515625 5.109375 C 8.40625 5.042969 8.28125 5.007812 8.144531 5.007812 C 8.058594 5.007812 7.980469 5.019531 7.902344 5.050781 L 7.902344 4.238281 Z M 8.15625 5.496094 C 8.238281 5.496094 8.308594 5.53125 8.359375 5.597656 C 8.402344 5.660156 8.460938 5.691406 8.535156 5.703125 C 8.609375 5.707031 8.675781 5.683594 8.730469 5.636719 C 8.742188 5.625 8.75 5.617188 8.761719 5.605469 C 8.917969 5.445312 9.03125 5.257812 9.089844 5.042969 L 9.390625 5.164062 C 9.460938 5.195312 9.542969 5.222656 9.621094 5.234375 L 9.621094 6.042969 C 9.621094 6.273438 9.429688 6.464844 9.199219 6.464844 C 9.125 6.464844 9.054688 6.453125 8.980469 6.433594 C 8.851562 6.398438 8.71875 6.46875 8.683594 6.605469 C 8.644531 6.734375 8.71875 6.867188 8.851562 6.902344 C 8.863281 6.910156 8.875 6.910156 8.894531 6.914062 L 8.894531 7.382812 L 8.695312 7.5625 L 8.40625 7.152344 L 8.40625 6.226562 C 8.40625 6.09375 8.296875 5.984375 8.164062 5.984375 C 8.03125 5.984375 7.921875 5.871094 7.921875 5.738281 C 7.921875 5.605469 8.023438 5.496094 8.15625 5.496094 Z M 13.570312 21.472656 L 12.355469 27.523438 L 10.667969 27.523438 C 10.535156 27.523438 10.425781 27.632812 10.425781 27.765625 C 10.425781 27.902344 10.535156 28.011719 10.667969 28.011719 L 12.484375 28.011719 L 13.214844 28.5 L 9.882812 28.5 C 9.902344 27.949219 9.96875 27.40625 10.089844 26.871094 L 11.332031 21.484375 C 11.351562 21.410156 11.332031 21.335938 11.289062 21.277344 L 7.878906 16.886719 C 7.816406 16.808594 7.707031 16.769531 7.601562 16.808594 C 7.503906 16.84375 7.4375 16.9375 7.4375 17.039062 L 7.4375 19.605469 C 7.4375 20.117188 7.296875 20.617188 7.035156 21.054688 L 3.550781 26.835938 L 2.214844 26.011719 C 2.097656 25.9375 1.953125 25.976562 1.878906 26.089844 C 1.804688 26.207031 1.84375 26.351562 1.957031 26.425781 L 3.441406 27.339844 L 3.804688 28.140625 L 0.960938 26.382812 L 4.757812 20.015625 C 4.78125 19.972656 4.792969 19.921875 4.792969 19.867188 L 4.566406 17.179688 C 4.53125 16.757812 4.511719 16.328125 4.511719 15.90625 L 4.511719 14.84375 L 9.511719 14.832031 L 13.175781 19.726562 C 13.546875 20.226562 13.691406 20.859375 13.570312 21.472656 Z M 12.078125 14.414062 L 12.429688 14.773438 L 12.480469 15.414062 L 11.601562 15.035156 L 11.523438 14.941406 C 10.730469 14.011719 10.097656 12.972656 9.632812 11.847656 L 10.316406 12.164062 C 10.808594 12.972656 11.40625 13.734375 12.078125 14.414062 Z M 17.539062 8.394531 C 17.582031 8.355469 17.613281 8.304688 17.617188 8.242188 L 17.710938 7.402344 C 17.726562 7.421875 17.746094 7.445312 17.75 7.488281 L 17.792969 7.746094 C 17.804688 7.835938 17.875 7.910156 17.964844 7.9375 C 18.050781 7.96875 18.148438 7.9375 18.214844 7.878906 L 18.738281 7.335938 C 18.789062 7.289062 18.847656 7.261719 18.914062 7.261719 C 18.984375 7.261719 19.042969 7.289062 19.09375 7.335938 L 20.042969 8.3125 C 20.085938 8.359375 20.117188 8.421875 20.109375 8.488281 C 20.109375 8.554688 20.085938 8.617188 20.039062 8.660156 L 18.160156 10.457031 L 16.855469 9.035156 Z M 14.339844 11.363281 L 16.488281 9.367188 L 17.800781 10.796875 L 16.214844 12.335938 C 15.679688 12.859375 14.964844 13.144531 14.214844 13.144531 C 13.800781 13.144531 13.382812 13.054688 13.003906 12.875 L 10.578125 11.75 L 9.292969 11.152344 L 6.804688 9.992188 C 6.683594 9.9375 6.535156 9.988281 6.480469 10.109375 C 6.425781 10.230469 6.476562 10.378906 6.597656 10.433594 L 8.992188 11.546875 C 9.195312 12.097656 9.425781 12.625 9.699219 13.132812 L 9.429688 14.34375 L 4.554688 14.359375 L 5.542969 8.9375 C 5.640625 8.394531 5.953125 7.9375 6.414062 7.652344 C 6.878906 7.359375 7.425781 7.28125 7.957031 7.425781 L 8.003906 7.441406 L 8.402344 8.007812 L 8.261719 8.257812 L 7.78125 8.035156 C 7.65625 7.980469 7.511719 8.035156 7.457031 8.160156 C 7.402344 8.28125 7.457031 8.425781 7.578125 8.480469 L 14.070312 11.40625 C 14.160156 11.449219 14.269531 11.433594 14.339844 11.363281 Z M 9.199219 8.675781 L 8.710938 8.457031 L 8.773438 8.339844 L 9.21875 8.589844 Z M 27.429688 28.5 L 21.09375 28.5 L 21.09375 22.160156 L 27.429688 22.160156 Z M 19.628906 21.671875 L 19.628906 15.332031 L 25.96875 15.332031 L 25.96875 21.671875 Z M 28.320312 14.9375 L 22.03125 14.152344 L 22.816406 7.859375 L 29.105469 8.644531 Z M 28.320312 14.9375 " fill-opacity="1" fill-rule="nonzero"/></g><path fill="#925f3d" d="M 24.816406 13.515625 L 25.785156 13.636719 C 25.796875 13.636719 25.804688 13.636719 25.816406 13.636719 C 25.9375 13.636719 26.042969 13.546875 26.058594 13.425781 C 26.078125 13.289062 25.980469 13.167969 25.847656 13.152344 L 25.601562 13.121094 L 26.023438 9.730469 L 26.265625 9.761719 C 26.277344 9.761719 26.285156 9.761719 26.296875 9.761719 C 26.417969 9.761719 26.523438 9.671875 26.542969 9.546875 C 26.558594 9.414062 26.460938 9.292969 26.328125 9.273438 L 25.847656 9.214844 L 25.363281 9.152344 C 25.230469 9.132812 25.109375 9.230469 25.089844 9.367188 C 25.070312 9.5 25.167969 9.621094 25.304688 9.640625 L 25.546875 9.671875 L 25.128906 13.058594 L 24.882812 13.027344 C 24.75 13.011719 24.628906 13.109375 24.609375 13.242188 C 24.585938 13.375 24.683594 13.5 24.816406 13.515625 Z M 24.816406 13.515625 " fill-opacity="1" fill-rule="nonzero"/><path fill="#925f3d" d="M 22.882812 18.160156 L 22.410156 18.105469 C 22.074219 18.070312 21.824219 17.789062 21.824219 17.453125 C 21.824219 17.277344 21.890625 17.113281 22.019531 16.992188 C 22.140625 16.867188 22.304688 16.796875 22.480469 16.796875 L 22.742188 16.796875 C 22.988281 16.796875 23.207031 16.929688 23.316406 17.148438 C 23.378906 17.269531 23.523438 17.320312 23.644531 17.257812 C 23.769531 17.199219 23.816406 17.050781 23.753906 16.929688 C 23.566406 16.546875 23.175781 16.308594 22.75 16.308594 L 22.488281 16.308594 C 22.183594 16.308594 21.894531 16.429688 21.675781 16.644531 C 21.457031 16.855469 21.34375 17.148438 21.34375 17.453125 C 21.34375 18.039062 21.78125 18.527344 22.359375 18.59375 L 22.835938 18.648438 C 23.230469 18.691406 23.535156 19.027344 23.535156 19.429688 C 23.535156 19.636719 23.457031 19.835938 23.304688 19.984375 C 23.15625 20.128906 22.957031 20.214844 22.75 20.214844 L 22.378906 20.214844 C 22.132812 20.214844 21.914062 20.082031 21.804688 19.863281 C 21.742188 19.738281 21.597656 19.691406 21.476562 19.753906 C 21.355469 19.8125 21.304688 19.960938 21.367188 20.082031 C 21.554688 20.464844 21.945312 20.703125 22.371094 20.703125 L 22.742188 20.703125 C 23.085938 20.703125 23.402344 20.570312 23.644531 20.332031 C 23.882812 20.085938 24.019531 19.769531 24.019531 19.429688 C 24.019531 18.769531 23.53125 18.226562 22.882812 18.160156 Z M 22.882812 18.160156 " fill-opacity="1" fill-rule="nonzero"/><path fill="#925f3d" d="M 25.40625 23.207031 C 25.308594 23.109375 25.15625 23.109375 25.058594 23.207031 L 23.53125 24.738281 L 23.53125 23.378906 C 23.53125 23.246094 23.421875 23.136719 23.285156 23.136719 C 23.152344 23.136719 23.042969 23.246094 23.042969 23.378906 L 23.042969 27.28125 C 23.042969 27.414062 23.152344 27.523438 23.285156 27.523438 C 23.421875 27.523438 23.53125 27.414062 23.53125 27.28125 L 23.53125 25.921875 L 25.066406 27.457031 C 25.113281 27.503906 25.175781 27.53125 25.238281 27.53125 C 25.296875 27.53125 25.359375 27.503906 25.40625 27.457031 C 25.503906 27.359375 25.503906 27.207031 25.40625 27.109375 L 23.632812 25.328125 L 25.414062 23.550781 C 25.503906 23.457031 25.503906 23.300781 25.40625 23.207031 Z M 25.40625 23.207031 " fill-opacity="1" fill-rule="nonzero"/></svg>