<svg xmlns="http://www.w3.org/2000/svg" xmlns:xlink="http://www.w3.org/1999/xlink" width="40" zoomAndPan="magnify" viewBox="0 0 30 30.000001" height="40" preserveAspectRatio="xMidYMid meet" version="1.0"><defs><clipPath id="5388bfc2d8"><path d="M 0.484375 0 L 29.515625 0 L 29.515625 29.03125 L 0.484375 29.03125 Z M 0.484375 0 " clip-rule="nonzero"/></clipPath><clipPath id="0ce35cc747"><path d="M 1.097656 0 L 28.675781 0 L 28.675781 28.304688 L 1.097656 28.304688 Z M 1.097656 0 " clip-rule="nonzero"/></clipPath></defs><g clip-path="url(#5388bfc2d8)"><path fill="#ffffff" d="M 0.484375 0 L 29.515625 0 L 29.515625 29.03125 L 0.484375 29.03125 Z M 0.484375 0 " fill-opacity="1" fill-rule="nonzero"/><path fill="#ffffff" d="M 0.484375 0 L 29.515625 0 L 29.515625 29.03125 L 0.484375 29.03125 Z M 0.484375 0 " fill-opacity="1" fill-rule="nonzero"/></g><g clip-path="url(#0ce35cc747)"><path fill="#925f3d" d="M 18.078125 6.476562 C 18.253906 6.476562 18.398438 6.621094 18.398438 6.800781 C 18.398438 6.976562 18.253906 7.121094 18.078125 7.121094 L 8.957031 7.121094 C 8.777344 7.121094 8.632812 6.976562 8.632812 6.800781 C 8.632812 6.621094 8.777344 6.476562 8.957031 6.476562 Z M 11.90625 2 L 12.167969 4.011719 C 12.1875 4.171875 12.335938 4.28125 12.492188 4.261719 C 12.652344 4.242188 12.761719 4.09375 12.742188 3.9375 L 12.4375 1.59375 C 12.40625 1.375 12.539062 1.246094 12.710938 1.160156 C 12.949219 1.039062 13.261719 0.992188 13.515625 0.972656 C 13.769531 0.992188 14.085938 1.039062 14.324219 1.160156 C 14.445312 1.21875 14.542969 1.300781 14.582031 1.417969 C 14.597656 1.464844 14.605469 1.515625 14.597656 1.574219 C 14.597656 1.589844 14.597656 1.601562 14.597656 1.613281 L 14.292969 3.9375 C 14.273438 4.09375 14.382812 4.242188 14.542969 4.261719 C 14.699219 4.28125 14.847656 4.171875 14.867188 4.011719 L 15.128906 2.003906 C 16.628906 2.628906 17.679688 4.109375 17.679688 5.839844 C 17.679688 5.859375 17.679688 5.878906 17.679688 5.898438 L 16.113281 5.898438 L 16.113281 3.660156 C 16.113281 3.5 15.984375 3.371094 15.824219 3.371094 C 15.664062 3.371094 15.535156 3.5 15.535156 3.660156 L 15.535156 5.898438 L 11.496094 5.898438 L 11.496094 3.660156 C 11.496094 3.5 11.367188 3.371094 11.207031 3.371094 C 11.046875 3.371094 10.917969 3.5 10.917969 3.660156 L 10.917969 5.898438 L 9.355469 5.898438 C 9.355469 5.878906 9.355469 5.859375 9.355469 5.839844 C 9.355469 4.109375 10.40625 2.628906 11.90625 2 Z M 9.425781 7.871094 L 17.605469 7.871094 C 17.125 9.679688 15.472656 11.019531 13.515625 11.019531 C 11.558594 11.019531 9.90625 9.679688 9.425781 7.871094 Z M 15.125 19.0625 L 11.3125 19.0625 L 11.3125 15.726562 C 11.3125 15.355469 11.089844 15.023438 10.75 14.875 L 7.980469 13.691406 C 9.453125 12.386719 11.394531 11.597656 13.515625 11.597656 C 14.777344 11.597656 15.976562 11.875 17.050781 12.378906 L 16.789062 12.378906 C 15.875 12.378906 15.125 13.125 15.125 14.042969 Z M 18.710938 12.253906 C 17.984375 11.765625 17.183594 11.375 16.332031 11.105469 C 16.878906 10.746094 17.359375 10.28125 17.738281 9.746094 C 18.183594 10.519531 18.90625 11.117188 19.769531 11.40625 L 19.632812 11.40625 C 19.148438 11.40625 18.75 11.78125 18.710938 12.253906 Z M 23.421875 10.664062 C 24.1875 9.980469 24.671875 8.988281 24.671875 7.882812 C 24.671875 5.828125 23.007812 4.167969 20.953125 4.167969 C 20.328125 4.167969 19.742188 4.320312 19.226562 4.589844 C 19.003906 3.566406 18.511719 2.644531 17.828125 1.898438 C 18.320312 1.640625 18.84375 1.445312 19.386719 1.316406 L 19.890625 0.0078125 L 22.019531 0.0078125 L 22.523438 1.316406 C 23.21875 1.480469 23.878906 1.753906 24.488281 2.128906 L 25.769531 1.5625 L 27.273438 3.066406 L 26.707031 4.347656 C 27.082031 4.957031 27.359375 5.617188 27.523438 6.316406 L 28.828125 6.820312 L 28.828125 8.949219 L 27.523438 9.449219 C 27.359375 10.144531 27.082031 10.808594 26.707031 11.417969 L 27.132812 12.378906 L 26.246094 12.378906 L 26.246094 12.332031 C 26.246094 11.820312 25.828125 11.40625 25.316406 11.40625 L 24.28125 11.40625 C 24.066406 11.089844 23.769531 10.832031 23.421875 10.664062 Z M 19.632812 12.332031 L 21.253906 12.332031 C 21.386719 11.78125 21.882812 11.375 22.476562 11.375 C 23.066406 11.375 23.5625 11.78125 23.695312 12.332031 L 25.316406 12.332031 L 25.316406 14.253906 L 19.632812 14.253906 Z M 22.476562 12.734375 C 22.660156 12.734375 22.808594 12.585938 22.808594 12.402344 C 22.808594 12.21875 22.660156 12.070312 22.476562 12.070312 C 22.292969 12.070312 22.144531 12.21875 22.144531 12.402344 C 22.144531 12.585938 22.292969 12.734375 22.476562 12.734375 Z M 26.246094 13.304688 L 28.160156 13.304688 C 28.566406 13.304688 28.898438 13.636719 28.898438 14.042969 L 28.898438 27.628906 C 28.898438 28.035156 28.566406 28.367188 28.160156 28.367188 L 16.789062 28.367188 C 16.382812 28.367188 16.050781 28.035156 16.050781 27.628906 L 16.050781 14.042969 C 16.050781 13.636719 16.382812 13.304688 16.789062 13.304688 L 18.707031 13.304688 L 18.707031 14.253906 C 18.707031 14.765625 19.121094 15.179688 19.632812 15.179688 L 25.316406 15.179688 C 25.828125 15.179688 26.246094 14.765625 26.246094 14.253906 Z M 22.636719 18.539062 L 24.15625 18.539062 C 24.414062 18.539062 24.621094 18.332031 24.621094 18.078125 C 24.621094 17.820312 24.414062 17.613281 24.15625 17.613281 L 22.636719 17.613281 C 22.382812 17.613281 22.175781 17.820312 22.175781 18.078125 C 22.175781 18.332031 22.382812 18.539062 22.636719 18.539062 Z M 19.152344 20.042969 C 18.917969 20.042969 18.726562 20.234375 18.726562 20.46875 L 18.726562 21.757812 C 18.726562 21.988281 18.917969 22.179688 19.152344 22.179688 L 20.4375 22.179688 C 20.671875 22.179688 20.863281 21.988281 20.863281 21.757812 L 20.863281 20.46875 C 20.863281 20.234375 20.671875 20.042969 20.4375 20.042969 Z M 19.152344 16.429688 C 18.917969 16.429688 18.726562 16.621094 18.726562 16.855469 L 18.726562 18.140625 C 18.726562 18.375 18.917969 18.566406 19.152344 18.566406 L 20.4375 18.566406 C 20.671875 18.566406 20.863281 18.375 20.863281 18.140625 L 20.863281 16.855469 C 20.863281 16.621094 20.671875 16.429688 20.4375 16.429688 Z M 22.636719 25.769531 L 24.15625 25.769531 C 24.414062 25.769531 24.621094 25.5625 24.621094 25.304688 C 24.621094 25.050781 24.414062 24.84375 24.15625 24.84375 L 22.636719 24.84375 C 22.382812 24.84375 22.175781 25.050781 22.175781 25.304688 C 22.175781 25.5625 22.382812 25.769531 22.636719 25.769531 Z M 22.636719 24.609375 L 25.675781 24.609375 C 25.929688 24.609375 26.140625 24.402344 26.140625 24.148438 C 26.140625 23.890625 25.929688 23.683594 25.675781 23.683594 L 22.636719 23.683594 C 22.382812 23.683594 22.175781 23.890625 22.175781 24.148438 C 22.175781 24.402344 22.382812 24.609375 22.636719 24.609375 Z M 22.636719 22.078125 L 24.15625 22.078125 C 24.414062 22.078125 24.621094 21.867188 24.621094 21.613281 C 24.621094 21.359375 24.414062 21.148438 24.15625 21.148438 L 22.636719 21.148438 C 22.382812 21.148438 22.175781 21.359375 22.175781 21.613281 C 22.175781 21.867188 22.382812 22.078125 22.636719 22.078125 Z M 19.152344 23.65625 C 18.917969 23.65625 18.726562 23.847656 18.726562 24.082031 L 18.726562 25.371094 C 18.726562 25.605469 18.917969 25.796875 19.152344 25.796875 L 20.4375 25.796875 C 20.671875 25.796875 20.863281 25.605469 20.863281 25.371094 L 20.863281 24.082031 C 20.863281 23.847656 20.671875 23.65625 20.4375 23.65625 Z M 22.636719 20.917969 L 25.675781 20.917969 C 25.929688 20.917969 26.140625 20.710938 26.140625 20.457031 C 26.140625 20.199219 25.929688 19.992188 25.675781 19.992188 L 22.636719 19.992188 C 22.382812 19.992188 22.175781 20.199219 22.175781 20.457031 C 22.175781 20.710938 22.382812 20.917969 22.636719 20.917969 Z M 22.636719 17.382812 L 25.675781 17.382812 C 25.929688 17.382812 26.140625 17.175781 26.140625 16.917969 C 26.140625 16.664062 25.929688 16.457031 25.675781 16.457031 L 22.636719 16.457031 C 22.382812 16.457031 22.175781 16.664062 22.175781 16.917969 C 22.175781 17.175781 22.382812 17.382812 22.636719 17.382812 Z M 5.738281 13.738281 L 10.386719 15.726562 L 10.386719 19.734375 C 10.386719 22.457031 8.414062 24.820312 5.738281 25.316406 C 3.066406 24.820312 1.09375 22.457031 1.09375 19.734375 L 1.09375 15.726562 Z M 2.996094 19.933594 L 4.519531 21.460938 C 4.785156 21.726562 5.21875 21.726562 5.484375 21.460938 C 6.792969 20.152344 7.183594 19.742188 8.488281 18.429688 C 8.75 18.164062 8.75 17.734375 8.484375 17.46875 C 8.21875 17.203125 7.785156 17.203125 7.523438 17.46875 L 5.003906 20.015625 L 3.957031 18.972656 C 3.691406 18.707031 3.261719 18.707031 2.996094 18.972656 C 2.726562 19.238281 2.726562 19.667969 2.996094 19.933594 Z M 2.996094 19.933594 " fill-opacity="1" fill-rule="evenodd"/></g></svg>