<svg xmlns="http://www.w3.org/2000/svg" xmlns:xlink="http://www.w3.org/1999/xlink" width="50" zoomAndPan="magnify" viewBox="0 0 37.5 37.499999" height="50" preserveAspectRatio="xMidYMid meet" version="1.0"><defs><clipPath id="625e22dc7b"><path d="M 0 1 L 37 1 L 37 36.730469 L 0 36.730469 Z M 0 1 " clip-rule="nonzero"/></clipPath></defs><g clip-path="url(#625e22dc7b)"><path fill="#935f3d" d="M 10.136719 21.34375 L 9.777344 21.34375 L 9.777344 21.703125 L 10.136719 21.703125 Z M 11.277344 20.773438 L 11.277344 22.273438 C 11.277344 22.589844 11.023438 22.84375 10.707031 22.84375 L 9.207031 22.84375 C 8.890625 22.84375 8.636719 22.589844 8.636719 22.273438 L 8.636719 20.773438 C 8.636719 20.457031 8.890625 20.203125 9.207031 20.203125 L 10.707031 20.203125 C 11.023438 20.203125 11.277344 20.457031 11.277344 20.773438 Z M 17.042969 11.644531 L 16.683594 11.644531 L 16.683594 12.003906 L 17.042969 12.003906 Z M 17.613281 13.148438 L 16.113281 13.148438 C 15.796875 13.148438 15.542969 12.890625 15.542969 12.574219 L 15.542969 11.074219 C 15.542969 10.761719 15.796875 10.503906 16.113281 10.503906 L 17.613281 10.503906 C 17.929688 10.503906 18.183594 10.761719 18.183594 11.074219 L 18.183594 12.574219 C 18.183594 12.890625 17.929688 13.148438 17.613281 13.148438 Z M 6.535156 17.828125 L 6.171875 17.828125 L 6.171875 18.1875 L 6.535156 18.1875 Z M 7.675781 17.257812 L 7.675781 18.757812 C 7.675781 19.074219 7.417969 19.332031 7.101562 19.332031 L 5.601562 19.332031 C 5.289062 19.332031 5.03125 19.074219 5.03125 18.757812 L 5.03125 17.257812 C 5.03125 16.941406 5.289062 16.6875 5.601562 16.6875 L 7.101562 16.6875 C 7.417969 16.6875 7.675781 16.941406 7.675781 17.257812 Z M 6.535156 14.3125 L 6.171875 14.3125 L 6.171875 14.671875 L 6.535156 14.671875 Z M 7.675781 13.742188 L 7.675781 15.242188 C 7.675781 15.558594 7.417969 15.816406 7.101562 15.816406 L 5.601562 15.816406 C 5.289062 15.816406 5.03125 15.558594 5.03125 15.242188 L 5.03125 13.742188 C 5.03125 13.425781 5.289062 13.171875 5.601562 13.171875 L 7.101562 13.171875 C 7.417969 13.171875 7.675781 13.425781 7.675781 13.742188 Z M 35.695312 21.753906 L 34.753906 20.957031 C 34.605469 20.832031 34.53125 20.640625 34.558594 20.445312 C 34.625 19.9375 34.625 19.421875 34.546875 18.914062 C 34.519531 18.71875 34.59375 18.523438 34.738281 18.398438 L 35.671875 17.59375 L 35.21875 16.515625 L 33.992188 16.621094 C 33.796875 16.636719 33.605469 16.550781 33.488281 16.398438 C 33.175781 15.984375 32.808594 15.625 32.398438 15.316406 C 32.242188 15.203125 32.15625 15.011719 32.167969 14.820312 L 32.257812 13.589844 L 31.175781 13.152344 L 30.382812 14.089844 C 30.257812 14.238281 30.0625 14.3125 29.871094 14.289062 C 29.363281 14.21875 28.847656 14.222656 28.335938 14.296875 C 28.144531 14.324219 27.949219 14.253906 27.820312 14.105469 L 27.015625 13.175781 L 25.941406 13.628906 L 26.042969 14.855469 C 26.058594 15.050781 25.976562 15.238281 25.820312 15.355469 C 25.410156 15.667969 25.046875 16.035156 24.742188 16.449219 C 24.625 16.605469 24.4375 16.691406 24.242188 16.675781 L 23.015625 16.585938 L 22.574219 17.667969 L 23.515625 18.464844 C 23.664062 18.589844 23.738281 18.78125 23.710938 18.976562 C 23.640625 19.484375 23.644531 20 23.722656 20.507812 C 23.75 20.703125 23.679688 20.898438 23.53125 21.023438 L 22.597656 21.828125 L 23.050781 22.90625 L 24.277344 22.804688 C 24.472656 22.785156 24.664062 22.871094 24.78125 23.027344 C 25.09375 23.4375 25.460938 23.796875 25.871094 24.105469 C 26.175781 24.332031 26.097656 24.652344 26.070312 25.003906 L 32.261719 25.003906 C 32.230469 24.632812 32.140625 24.300781 32.449219 24.066406 C 32.859375 23.753906 33.222656 23.386719 33.527344 22.972656 C 33.644531 22.816406 33.832031 22.730469 34.027344 22.746094 L 35.253906 22.835938 Z M 32.515625 26.144531 L 25.929688 26.144531 C 25.585938 27.617188 25.148438 28.980469 24.621094 30.203125 L 29.683594 30.203125 C 30.808594 29.015625 31.765625 27.65625 32.515625 26.144531 Z M 28.488281 31.34375 L 24.085938 31.34375 C 23.390625 32.707031 22.5 33.996094 21.40625 34.960938 C 24.039062 34.339844 26.464844 33.089844 28.488281 31.34375 Z M 21.902344 32.726562 C 20.597656 34.476562 19.105469 35.402344 17.585938 35.402344 C 15.390625 35.402344 13.589844 33.503906 12.378906 31.34375 L 22.789062 31.34375 C 22.511719 31.84375 22.214844 32.304688 21.902344 32.726562 Z M 13.761719 34.960938 C 12.667969 33.992188 11.78125 32.707031 11.082031 31.34375 L 6.683594 31.34375 C 8.703125 33.089844 11.128906 34.339844 13.761719 34.960938 Z M 5.488281 30.203125 L 10.546875 30.203125 C 10.023438 28.980469 9.582031 27.617188 9.242188 26.144531 L 2.652344 26.144531 C 3.402344 27.65625 4.363281 29.015625 5.488281 30.203125 Z M 3.320312 25.003906 L 3.320312 11.417969 C 3.320312 11.195312 3.503906 11.011719 3.726562 11.011719 L 12.988281 11.011719 L 12.988281 25.003906 Z M 10.414062 26.144531 L 24.753906 26.144531 C 24.394531 27.636719 23.925781 29.003906 23.371094 30.203125 L 11.796875 30.203125 C 11.242188 29.003906 10.777344 27.636719 10.414062 26.144531 Z M 14.128906 25.003906 L 14.128906 5.640625 L 16.863281 3.800781 L 19.59375 5.640625 L 19.59375 17.078125 L 17.699219 17.078125 C 17.089844 17.078125 16.59375 17.574219 16.59375 18.1875 L 16.59375 25.003906 Z M 17.734375 18.21875 L 21.464844 18.21875 L 22.546875 19.136719 C 22.511719 19.542969 22.511719 19.953125 22.554688 20.359375 L 21.539062 21.238281 C 21.351562 21.398438 21.289062 21.664062 21.386719 21.890625 L 22.160156 23.730469 C 22.257812 23.960938 22.488281 24.097656 22.734375 24.078125 L 24.070312 23.964844 C 24.332031 24.277344 24.625 24.566406 24.941406 24.824219 L 24.925781 25.003906 L 17.734375 25.003906 Z M 36.910156 21.800781 L 36.15625 23.648438 C 36.0625 23.878906 35.832031 24.019531 35.585938 24.003906 L 34.25 23.90625 C 33.992188 24.222656 33.703125 24.511719 33.390625 24.773438 L 33.410156 25.003906 L 34.59375 25.003906 C 34.910156 25.003906 35.164062 25.261719 35.164062 25.574219 C 35.164062 25.890625 34.910156 26.144531 34.59375 26.144531 L 33.78125 26.144531 C 30.882812 32.476562 24.566406 36.542969 17.585938 36.542969 C 10.601562 36.542969 4.289062 32.476562 1.390625 26.144531 L 0.574219 26.144531 C 0.261719 26.144531 0.00390625 25.890625 0.00390625 25.574219 C 0.00390625 25.261719 0.261719 25.003906 0.574219 25.003906 L 2.179688 25.003906 L 2.179688 11.417969 C 2.179688 10.566406 2.875 9.871094 3.726562 9.871094 L 12.988281 9.871094 L 12.988281 5.335938 C 12.988281 5.148438 13.082031 4.96875 13.242188 4.863281 L 16.542969 2.640625 C 16.738281 2.511719 16.988281 2.511719 17.179688 2.640625 L 20.484375 4.863281 C 20.640625 4.96875 20.734375 5.148438 20.734375 5.335938 L 20.734375 17.078125 L 21.582031 17.078125 L 22.113281 15.773438 C 22.207031 15.542969 22.4375 15.402344 22.683594 15.417969 L 24.019531 15.515625 C 24.277344 15.203125 24.566406 14.910156 24.878906 14.648438 L 24.765625 13.3125 C 24.746094 13.066406 24.886719 12.832031 25.113281 12.738281 L 26.953125 11.960938 C 27.183594 11.867188 27.445312 11.925781 27.609375 12.113281 L 28.484375 13.128906 C 28.890625 13.089844 29.300781 13.085938 29.707031 13.121094 L 30.570312 12.097656 C 30.730469 11.910156 30.992188 11.84375 31.222656 11.9375 L 33.074219 12.691406 C 33.300781 12.785156 33.445312 13.015625 33.425781 13.261719 L 33.328125 14.597656 C 33.644531 14.855469 33.933594 15.144531 34.199219 15.457031 L 35.535156 15.34375 C 35.78125 15.324219 36.011719 15.464844 36.109375 15.691406 L 36.882812 17.53125 C 36.980469 17.761719 36.917969 18.023438 36.730469 18.183594 L 35.714844 19.0625 C 35.757812 19.46875 35.757812 19.878906 35.722656 20.285156 L 36.746094 21.148438 C 36.9375 21.308594 37 21.570312 36.910156 21.800781 Z M 32.070312 18.472656 C 32.402344 19.257812 32.40625 20.125 32.085938 20.914062 C 31.421875 22.539062 29.558594 23.324219 27.933594 22.660156 C 26.304688 22 25.519531 20.136719 26.183594 18.507812 C 26.503906 17.722656 27.113281 17.105469 27.898438 16.773438 C 29.515625 16.09375 31.386719 16.84375 32.070312 18.472656 Z M 33.125 18.03125 C 34.328125 20.898438 32.207031 24.039062 29.128906 24.039062 C 28.585938 24.039062 28.035156 23.9375 27.503906 23.71875 C 25.292969 22.820312 24.226562 20.289062 25.125 18.078125 C 26.027344 15.863281 28.550781 14.800781 30.765625 15.703125 C 31.835938 16.140625 32.675781 16.964844 33.125 18.03125 Z M 10.136719 17.828125 L 9.777344 17.828125 L 9.777344 18.1875 L 10.136719 18.1875 Z M 11.277344 17.257812 C 11.277344 16.941406 11.023438 16.6875 10.707031 16.6875 L 9.207031 16.6875 C 8.890625 16.6875 8.636719 16.941406 8.636719 17.257812 L 8.636719 18.757812 C 8.636719 19.074219 8.890625 19.332031 9.207031 19.332031 L 10.707031 19.332031 C 11.023438 19.332031 11.277344 19.074219 11.277344 18.757812 Z M 10.136719 14.3125 L 9.777344 14.3125 L 9.777344 14.671875 L 10.136719 14.671875 Z M 11.277344 13.742188 C 11.277344 13.425781 11.023438 13.171875 10.707031 13.171875 L 9.207031 13.171875 C 8.890625 13.171875 8.636719 13.425781 8.636719 13.742188 L 8.636719 15.242188 C 8.636719 15.558594 8.890625 15.816406 9.207031 15.816406 L 10.707031 15.816406 C 11.023438 15.816406 11.277344 15.558594 11.277344 15.242188 Z M 6.535156 21.34375 L 6.171875 21.34375 L 6.171875 21.703125 L 6.535156 21.703125 Z M 7.675781 20.773438 C 7.675781 20.457031 7.417969 20.203125 7.101562 20.203125 L 5.601562 20.203125 C 5.289062 20.203125 5.03125 20.457031 5.03125 20.773438 L 5.03125 22.273438 C 5.03125 22.589844 5.289062 22.84375 5.601562 22.84375 L 7.101562 22.84375 C 7.417969 22.84375 7.675781 22.589844 7.675781 22.273438 Z M 7.007812 7.117188 C 7.007812 7.976562 8.148438 7.894531 8.148438 7.167969 C 8.148438 6.3125 7.007812 6.390625 7.007812 7.117188 Z M 9.308594 5.804688 C 9.511719 6.042969 9.875 6.070312 10.113281 5.867188 C 10.351562 5.660156 10.378906 5.300781 10.175781 5.0625 C 8.773438 3.425781 6.378906 3.425781 4.980469 5.0625 C 4.773438 5.300781 4.800781 5.660156 5.039062 5.867188 C 5.28125 6.070312 5.640625 6.042969 5.84375 5.804688 C 6.792969 4.695312 8.359375 4.695312 9.308594 5.804688 Z M 16.683594 8.488281 L 17.042969 8.488281 L 17.042969 8.128906 L 16.683594 8.128906 Z M 15.542969 9.0625 C 15.542969 9.375 15.796875 9.632812 16.113281 9.632812 L 17.613281 9.632812 C 17.929688 9.632812 18.183594 9.375 18.183594 9.0625 L 18.183594 7.558594 C 18.183594 7.246094 17.929688 6.988281 17.613281 6.988281 L 16.113281 6.988281 C 15.796875 6.988281 15.542969 7.246094 15.542969 7.558594 Z M 3.691406 3.898438 C 3.84375 3.898438 3.992188 3.839844 4.105469 3.71875 C 5.996094 1.722656 9.160156 1.71875 11.046875 3.71875 C 11.261719 3.949219 11.625 3.960938 11.851562 3.742188 C 12.082031 3.527344 12.09375 3.167969 11.878906 2.9375 C 9.550781 0.464844 5.601562 0.46875 3.277344 2.9375 C 2.929688 3.300781 3.195312 3.898438 3.691406 3.898438 Z M 30.867188 8.851562 C 31.070312 9.09375 31.429688 9.121094 31.671875 8.914062 C 31.910156 8.710938 31.9375 8.351562 31.734375 8.109375 C 30.332031 6.476562 27.941406 6.472656 26.535156 8.109375 C 26.332031 8.351562 26.359375 8.710938 26.597656 8.914062 C 26.839844 9.121094 27.199219 9.09375 27.402344 8.851562 C 28.351562 7.746094 29.917969 7.746094 30.867188 8.851562 Z M 25.664062 6.769531 C 27.550781 4.769531 30.71875 4.769531 32.605469 6.769531 C 32.820312 6.996094 33.183594 7.007812 33.410156 6.792969 C 33.640625 6.574219 33.652344 6.214844 33.433594 5.984375 C 31.101562 3.515625 27.164062 3.515625 24.832031 5.984375 C 24.617188 6.214844 24.628906 6.574219 24.855469 6.792969 C 25.085938 7.007812 25.449219 7 25.664062 6.769531 Z M 29.132812 9.59375 C 28.820312 9.59375 28.5625 9.851562 28.5625 10.164062 L 28.5625 10.21875 C 28.5625 10.945312 29.703125 11.023438 29.703125 10.164062 C 29.703125 9.851562 29.449219 9.59375 29.132812 9.59375 Z M 29.132812 9.59375 " fill-opacity="1" fill-rule="evenodd"/></g></svg>