<svg xmlns="http://www.w3.org/2000/svg" xmlns:xlink="http://www.w3.org/1999/xlink" width="40" zoomAndPan="magnify" viewBox="0 0 30 30.000001" height="40" preserveAspectRatio="xMidYMid meet" version="1.0"><defs><clipPath id="e8093ee220"><path d="M 0.484375 0 L 29.515625 0 L 29.515625 29.03125 L 0.484375 29.03125 Z M 0.484375 0 " clip-rule="nonzero"/></clipPath><clipPath id="eed7c735c8"><path d="M 0.484375 3 L 15 3 L 15 23 L 0.484375 23 Z M 0.484375 3 " clip-rule="nonzero"/></clipPath><clipPath id="f2157e9338"><path d="M 12 7 L 29.515625 7 L 29.515625 23 L 12 23 Z M 12 7 " clip-rule="nonzero"/></clipPath><clipPath id="54a673b7e5"><path d="M 3 19 L 25 19 L 25 29.03125 L 3 29.03125 Z M 3 19 " clip-rule="nonzero"/></clipPath></defs><g clip-path="url(#e8093ee220)"><path fill="#ffffff" d="M 0.484375 0 L 29.515625 0 L 29.515625 29.03125 L 0.484375 29.03125 Z M 0.484375 0 " fill-opacity="1" fill-rule="nonzero"/><path fill="#ffffff" d="M 0.484375 0 L 29.515625 0 L 29.515625 29.03125 L 0.484375 29.03125 Z M 0.484375 0 " fill-opacity="1" fill-rule="nonzero"/></g><path fill="#925f3d" d="M 7.507812 3.144531 C 7.507812 3.210938 7.484375 3.269531 7.433594 3.316406 C 7.386719 3.363281 7.332031 3.386719 7.265625 3.386719 C 7.199219 3.386719 7.140625 3.363281 7.09375 3.316406 C 7.046875 3.269531 7.023438 3.210938 7.023438 3.144531 C 7.023438 3.078125 7.046875 3.019531 7.09375 2.972656 C 7.140625 2.925781 7.199219 2.902344 7.265625 2.902344 C 7.332031 2.902344 7.386719 2.925781 7.433594 2.972656 C 7.484375 3.019531 7.507812 3.078125 7.507812 3.144531 Z M 7.507812 3.144531 " fill-opacity="1" fill-rule="nonzero"/><path fill="#925f3d" d="M 7.949219 2.703125 C 8.007812 2.703125 8.070312 2.679688 8.117188 2.632812 C 8.214844 2.535156 8.214844 2.382812 8.117188 2.285156 C 7.886719 2.054688 7.585938 1.929688 7.265625 1.929688 C 6.945312 1.929688 6.636719 2.054688 6.410156 2.285156 C 6.316406 2.382812 6.316406 2.535156 6.410156 2.632812 C 6.507812 2.726562 6.660156 2.726562 6.757812 2.632812 C 6.894531 2.492188 7.078125 2.417969 7.269531 2.417969 C 7.464844 2.417969 7.644531 2.492188 7.785156 2.632812 C 7.820312 2.679688 7.882812 2.703125 7.949219 2.703125 Z M 7.949219 2.703125 " fill-opacity="1" fill-rule="nonzero"/><path fill="#925f3d" d="M 8.800781 1.949219 C 8.898438 1.851562 8.898438 1.699219 8.800781 1.601562 C 8.390625 1.191406 7.84375 0.96875 7.257812 0.96875 C 6.675781 0.96875 6.128906 1.191406 5.714844 1.601562 C 5.617188 1.699219 5.617188 1.851562 5.714844 1.949219 C 5.765625 1.996094 5.824219 2.019531 5.886719 2.019531 C 5.945312 2.019531 6.007812 1.996094 6.054688 1.949219 C 6.375 1.628906 6.796875 1.453125 7.253906 1.453125 C 7.707031 1.453125 8.128906 1.628906 8.449219 1.949219 C 8.550781 2.042969 8.710938 2.042969 8.800781 1.949219 Z M 8.800781 1.949219 " fill-opacity="1" fill-rule="nonzero"/><path fill="#925f3d" d="M 5.378906 1.265625 C 5.878906 0.761719 6.550781 0.484375 7.257812 0.484375 C 7.972656 0.484375 8.636719 0.761719 9.140625 1.265625 C 9.1875 1.3125 9.246094 1.335938 9.308594 1.335938 C 9.367188 1.335938 9.429688 1.3125 9.476562 1.265625 C 9.574219 1.167969 9.574219 1.015625 9.476562 0.917969 C 8.890625 0.328125 8.097656 0 7.265625 0 C 6.421875 0 5.636719 0.328125 5.039062 0.917969 C 4.941406 1.015625 4.941406 1.167969 5.039062 1.265625 C 5.136719 1.359375 5.285156 1.359375 5.378906 1.265625 Z M 5.378906 1.265625 " fill-opacity="1" fill-rule="nonzero"/><path fill="#925f3d" d="M 26.726562 12.339844 C 26.726562 12.40625 26.703125 12.460938 26.65625 12.511719 C 26.609375 12.558594 26.550781 12.582031 26.484375 12.582031 C 26.417969 12.582031 26.363281 12.558594 26.316406 12.511719 C 26.265625 12.460938 26.242188 12.40625 26.242188 12.339844 C 26.242188 12.273438 26.265625 12.214844 26.316406 12.167969 C 26.363281 12.121094 26.417969 12.097656 26.484375 12.097656 C 26.550781 12.097656 26.609375 12.121094 26.65625 12.167969 C 26.703125 12.214844 26.726562 12.273438 26.726562 12.339844 Z M 26.726562 12.339844 " fill-opacity="1" fill-rule="nonzero"/><path fill="#925f3d" d="M 27.175781 11.898438 C 27.234375 11.898438 27.296875 11.871094 27.34375 11.824219 C 27.441406 11.726562 27.441406 11.578125 27.34375 11.480469 C 27.113281 11.25 26.8125 11.121094 26.492188 11.121094 C 26.171875 11.121094 25.863281 11.25 25.640625 11.480469 C 25.542969 11.578125 25.542969 11.726562 25.640625 11.824219 C 25.734375 11.921875 25.886719 11.921875 25.984375 11.824219 C 26.121094 11.683594 26.304688 11.613281 26.496094 11.613281 C 26.691406 11.613281 26.871094 11.683594 27.011719 11.824219 C 27.046875 11.871094 27.109375 11.898438 27.175781 11.898438 Z M 27.175781 11.898438 " fill-opacity="1" fill-rule="nonzero"/><path fill="#925f3d" d="M 28.027344 11.140625 C 28.125 11.042969 28.125 10.894531 28.027344 10.796875 C 27.617188 10.386719 27.074219 10.160156 26.484375 10.160156 C 25.898438 10.160156 25.355469 10.386719 24.945312 10.796875 C 24.847656 10.894531 24.847656 11.042969 24.945312 11.140625 C 24.992188 11.191406 25.050781 11.214844 25.113281 11.214844 C 25.171875 11.214844 25.234375 11.191406 25.28125 11.140625 C 25.601562 10.820312 26.027344 10.644531 26.480469 10.644531 C 26.933594 10.644531 27.355469 10.820312 27.675781 11.140625 C 27.78125 11.238281 27.929688 11.238281 28.027344 11.140625 Z M 28.027344 11.140625 " fill-opacity="1" fill-rule="nonzero"/><path fill="#925f3d" d="M 24.605469 10.457031 C 25.105469 9.957031 25.777344 9.675781 26.484375 9.675781 C 27.199219 9.675781 27.863281 9.957031 28.367188 10.457031 C 28.414062 10.507812 28.476562 10.53125 28.535156 10.53125 C 28.597656 10.53125 28.65625 10.507812 28.707031 10.457031 C 28.800781 10.359375 28.800781 10.210938 28.707031 10.113281 C 28.113281 9.519531 27.320312 9.195312 26.480469 9.195312 C 25.640625 9.195312 24.851562 9.519531 24.253906 10.113281 C 24.15625 10.210938 24.15625 10.359375 24.253906 10.457031 C 24.355469 10.554688 24.515625 10.554688 24.605469 10.457031 Z M 24.605469 10.457031 " fill-opacity="1" fill-rule="nonzero"/><g clip-path="url(#eed7c735c8)"><path fill="#925f3d" d="M 5.804688 22.5 C 5.804688 22.367188 5.699219 22.257812 5.566406 22.257812 L 0.96875 22.257812 L 0.96875 4.113281 L 13.546875 4.113281 L 13.546875 6.773438 C 13.546875 6.90625 13.65625 7.015625 13.789062 7.015625 C 13.921875 7.015625 14.03125 6.90625 14.03125 6.773438 L 14.03125 3.871094 C 14.03125 3.738281 13.921875 3.628906 13.789062 3.628906 L 0.726562 3.628906 C 0.59375 3.628906 0.484375 3.738281 0.484375 3.871094 L 0.484375 22.5 C 0.484375 22.632812 0.59375 22.742188 0.726562 22.742188 L 5.566406 22.742188 C 5.699219 22.742188 5.804688 22.632812 5.804688 22.5 Z M 5.804688 22.5 " fill-opacity="1" fill-rule="nonzero"/></g><path fill="#925f3d" d="M 3.386719 5.324219 C 3.386719 5.191406 3.277344 5.082031 3.144531 5.082031 L 1.695312 5.082031 C 1.558594 5.082031 1.453125 5.191406 1.453125 5.324219 L 1.453125 6.289062 C 1.453125 6.421875 1.558594 6.53125 1.695312 6.53125 L 3.144531 6.53125 C 3.277344 6.53125 3.386719 6.421875 3.386719 6.289062 Z M 2.902344 6.046875 L 1.933594 6.046875 L 1.933594 5.566406 L 2.902344 5.566406 Z M 2.902344 6.046875 " fill-opacity="1" fill-rule="nonzero"/><path fill="#925f3d" d="M 5.804688 5.324219 C 5.804688 5.191406 5.699219 5.082031 5.566406 5.082031 L 4.113281 5.082031 C 3.980469 5.082031 3.871094 5.191406 3.871094 5.324219 L 3.871094 6.289062 C 3.871094 6.421875 3.980469 6.53125 4.113281 6.53125 L 5.566406 6.53125 C 5.699219 6.53125 5.804688 6.421875 5.804688 6.289062 Z M 5.324219 6.046875 L 4.355469 6.046875 L 4.355469 5.566406 L 5.324219 5.566406 Z M 5.324219 6.046875 " fill-opacity="1" fill-rule="nonzero"/><path fill="#925f3d" d="M 8.226562 5.324219 C 8.226562 5.191406 8.117188 5.082031 7.984375 5.082031 L 6.53125 5.082031 C 6.398438 5.082031 6.289062 5.191406 6.289062 5.324219 L 6.289062 6.289062 C 6.289062 6.421875 6.398438 6.53125 6.53125 6.53125 L 7.984375 6.53125 C 8.117188 6.53125 8.226562 6.421875 8.226562 6.289062 Z M 7.742188 6.046875 L 6.773438 6.046875 L 6.773438 5.566406 L 7.742188 5.566406 Z M 7.742188 6.046875 " fill-opacity="1" fill-rule="nonzero"/><path fill="#925f3d" d="M 10.644531 5.324219 C 10.644531 5.191406 10.535156 5.082031 10.402344 5.082031 L 8.953125 5.082031 C 8.820312 5.082031 8.710938 5.191406 8.710938 5.324219 L 8.710938 6.289062 C 8.710938 6.421875 8.820312 6.53125 8.953125 6.53125 L 10.402344 6.53125 C 10.535156 6.53125 10.644531 6.421875 10.644531 6.289062 Z M 10.160156 6.046875 L 9.195312 6.046875 L 9.195312 5.566406 L 10.160156 5.566406 Z M 10.160156 6.046875 " fill-opacity="1" fill-rule="nonzero"/><path fill="#925f3d" d="M 13.066406 6.289062 L 13.066406 5.324219 C 13.066406 5.191406 12.957031 5.082031 12.824219 5.082031 L 11.371094 5.082031 C 11.238281 5.082031 11.128906 5.191406 11.128906 5.324219 L 11.128906 6.289062 C 11.128906 6.421875 11.238281 6.53125 11.371094 6.53125 L 12.824219 6.53125 C 12.957031 6.53125 13.066406 6.421875 13.066406 6.289062 Z M 12.582031 6.046875 L 11.613281 6.046875 L 11.613281 5.566406 L 12.582031 5.566406 Z M 12.582031 6.046875 " fill-opacity="1" fill-rule="nonzero"/><path fill="#925f3d" d="M 3.386719 7.742188 C 3.386719 7.609375 3.277344 7.5 3.144531 7.5 L 1.695312 7.5 C 1.558594 7.5 1.453125 7.609375 1.453125 7.742188 L 1.453125 8.710938 C 1.453125 8.84375 1.558594 8.953125 1.695312 8.953125 L 3.144531 8.953125 C 3.277344 8.953125 3.386719 8.84375 3.386719 8.710938 Z M 2.902344 8.46875 L 1.933594 8.46875 L 1.933594 7.984375 L 2.902344 7.984375 Z M 2.902344 8.46875 " fill-opacity="1" fill-rule="nonzero"/><path fill="#925f3d" d="M 5.804688 7.742188 C 5.804688 7.609375 5.699219 7.5 5.566406 7.5 L 4.113281 7.5 C 3.980469 7.5 3.871094 7.609375 3.871094 7.742188 L 3.871094 8.710938 C 3.871094 8.84375 3.980469 8.953125 4.113281 8.953125 L 5.566406 8.953125 C 5.699219 8.953125 5.804688 8.84375 5.804688 8.710938 Z M 5.324219 8.46875 L 4.355469 8.46875 L 4.355469 7.984375 L 5.324219 7.984375 Z M 5.324219 8.46875 " fill-opacity="1" fill-rule="nonzero"/><path fill="#925f3d" d="M 8.226562 7.742188 C 8.226562 7.609375 8.117188 7.5 7.984375 7.5 L 6.53125 7.5 C 6.398438 7.5 6.289062 7.609375 6.289062 7.742188 L 6.289062 8.710938 C 6.289062 8.84375 6.398438 8.953125 6.53125 8.953125 L 7.984375 8.953125 C 8.117188 8.953125 8.226562 8.84375 8.226562 8.710938 Z M 7.742188 8.46875 L 6.773438 8.46875 L 6.773438 7.984375 L 7.742188 7.984375 Z M 7.742188 8.46875 " fill-opacity="1" fill-rule="nonzero"/><path fill="#925f3d" d="M 10.644531 7.742188 C 10.644531 7.609375 10.535156 7.5 10.402344 7.5 L 8.953125 7.5 C 8.820312 7.5 8.710938 7.609375 8.710938 7.742188 L 8.710938 8.710938 C 8.710938 8.84375 8.820312 8.953125 8.953125 8.953125 L 10.402344 8.953125 C 10.535156 8.953125 10.644531 8.84375 10.644531 8.710938 Z M 10.160156 8.46875 L 9.195312 8.46875 L 9.195312 7.984375 L 10.160156 7.984375 Z M 10.160156 8.46875 " fill-opacity="1" fill-rule="nonzero"/><path fill="#925f3d" d="M 3.386719 10.160156 C 3.386719 10.027344 3.277344 9.917969 3.144531 9.917969 L 1.695312 9.917969 C 1.558594 9.917969 1.453125 10.027344 1.453125 10.160156 L 1.453125 11.128906 C 1.453125 11.261719 1.558594 11.371094 1.695312 11.371094 L 3.144531 11.371094 C 3.277344 11.371094 3.386719 11.261719 3.386719 11.128906 Z M 2.902344 10.886719 L 1.933594 10.886719 L 1.933594 10.402344 L 2.902344 10.402344 Z M 2.902344 10.886719 " fill-opacity="1" fill-rule="nonzero"/><path fill="#925f3d" d="M 5.804688 10.160156 C 5.804688 10.027344 5.699219 9.917969 5.566406 9.917969 L 4.113281 9.917969 C 3.980469 9.917969 3.871094 10.027344 3.871094 10.160156 L 3.871094 11.128906 C 3.871094 11.261719 3.980469 11.371094 4.113281 11.371094 L 5.566406 11.371094 C 5.699219 11.371094 5.804688 11.261719 5.804688 11.128906 Z M 5.324219 10.886719 L 4.355469 10.886719 L 4.355469 10.402344 L 5.324219 10.402344 Z M 5.324219 10.886719 " fill-opacity="1" fill-rule="nonzero"/><path fill="#925f3d" d="M 3.386719 12.582031 C 3.386719 12.449219 3.277344 12.339844 3.144531 12.339844 L 1.695312 12.339844 C 1.558594 12.339844 1.453125 12.449219 1.453125 12.582031 L 1.453125 13.546875 C 1.453125 13.679688 1.558594 13.789062 1.695312 13.789062 L 3.144531 13.789062 C 3.277344 13.789062 3.386719 13.679688 3.386719 13.546875 Z M 2.902344 13.304688 L 1.933594 13.304688 L 1.933594 12.824219 L 2.902344 12.824219 Z M 2.902344 13.304688 " fill-opacity="1" fill-rule="nonzero"/><path fill="#925f3d" d="M 5.804688 12.582031 C 5.804688 12.449219 5.699219 12.339844 5.566406 12.339844 L 4.113281 12.339844 C 3.980469 12.339844 3.871094 12.449219 3.871094 12.582031 L 3.871094 13.546875 C 3.871094 13.679688 3.980469 13.789062 4.113281 13.789062 L 5.566406 13.789062 C 5.699219 13.789062 5.804688 13.679688 5.804688 13.546875 Z M 5.324219 13.304688 L 4.355469 13.304688 L 4.355469 12.824219 L 5.324219 12.824219 Z M 5.324219 13.304688 " fill-opacity="1" fill-rule="nonzero"/><path fill="#925f3d" d="M 3.386719 15 C 3.386719 14.867188 3.277344 14.757812 3.144531 14.757812 L 1.695312 14.757812 C 1.558594 14.757812 1.453125 14.867188 1.453125 15 L 1.453125 15.96875 C 1.453125 16.101562 1.558594 16.210938 1.695312 16.210938 L 3.144531 16.210938 C 3.277344 16.210938 3.386719 16.101562 3.386719 15.96875 Z M 2.902344 15.726562 L 1.933594 15.726562 L 1.933594 15.242188 L 2.902344 15.242188 Z M 2.902344 15.726562 " fill-opacity="1" fill-rule="nonzero"/><path fill="#925f3d" d="M 5.804688 15 C 5.804688 14.867188 5.699219 14.757812 5.566406 14.757812 L 4.113281 14.757812 C 3.980469 14.757812 3.871094 14.867188 3.871094 15 L 3.871094 15.96875 C 3.871094 16.101562 3.980469 16.210938 4.113281 16.210938 L 5.566406 16.210938 C 5.699219 16.210938 5.804688 16.101562 5.804688 15.96875 Z M 5.324219 15.726562 L 4.355469 15.726562 L 4.355469 15.242188 L 5.324219 15.242188 Z M 5.324219 15.726562 " fill-opacity="1" fill-rule="nonzero"/><path fill="#925f3d" d="M 8.226562 12.582031 C 8.226562 12.449219 8.117188 12.339844 7.984375 12.339844 L 6.53125 12.339844 C 6.398438 12.339844 6.289062 12.449219 6.289062 12.582031 L 6.289062 13.546875 C 6.289062 13.679688 6.398438 13.789062 6.53125 13.789062 L 7.984375 13.789062 C 8.117188 13.789062 8.226562 13.679688 8.226562 13.546875 Z M 7.742188 13.304688 L 6.773438 13.304688 L 6.773438 12.824219 L 7.742188 12.824219 Z M 7.742188 13.304688 " fill-opacity="1" fill-rule="nonzero"/><path fill="#925f3d" d="M 10.644531 12.582031 C 10.644531 12.449219 10.535156 12.339844 10.402344 12.339844 L 8.953125 12.339844 C 8.820312 12.339844 8.710938 12.449219 8.710938 12.582031 L 8.710938 13.546875 C 8.710938 13.679688 8.820312 13.789062 8.953125 13.789062 L 10.402344 13.789062 C 10.535156 13.789062 10.644531 13.679688 10.644531 13.546875 Z M 10.160156 13.304688 L 9.195312 13.304688 L 9.195312 12.824219 L 10.160156 12.824219 Z M 10.160156 13.304688 " fill-opacity="1" fill-rule="nonzero"/><path fill="#925f3d" d="M 8.226562 15 C 8.226562 14.867188 8.117188 14.757812 7.984375 14.757812 L 6.53125 14.757812 C 6.398438 14.757812 6.289062 14.867188 6.289062 15 L 6.289062 15.96875 C 6.289062 16.101562 6.398438 16.210938 6.53125 16.210938 L 7.984375 16.210938 C 8.117188 16.210938 8.226562 16.101562 8.226562 15.96875 Z M 7.742188 15.726562 L 6.773438 15.726562 L 6.773438 15.242188 L 7.742188 15.242188 Z M 7.742188 15.726562 " fill-opacity="1" fill-rule="nonzero"/><path fill="#925f3d" d="M 10.644531 15 C 10.644531 14.867188 10.535156 14.757812 10.402344 14.757812 L 8.953125 14.757812 C 8.820312 14.757812 8.710938 14.867188 8.710938 15 L 8.710938 15.96875 C 8.710938 16.101562 8.820312 16.210938 8.953125 16.210938 L 10.402344 16.210938 C 10.535156 16.210938 10.644531 16.101562 10.644531 15.96875 Z M 10.160156 15.726562 L 9.195312 15.726562 L 9.195312 15.242188 L 10.160156 15.242188 Z M 10.160156 15.726562 " fill-opacity="1" fill-rule="nonzero"/><path fill="#925f3d" d="M 3.386719 17.417969 C 3.386719 17.285156 3.277344 17.175781 3.144531 17.175781 L 1.695312 17.175781 C 1.558594 17.175781 1.453125 17.285156 1.453125 17.417969 L 1.453125 18.386719 C 1.453125 18.519531 1.558594 18.628906 1.695312 18.628906 L 3.144531 18.628906 C 3.277344 18.628906 3.386719 18.519531 3.386719 18.386719 Z M 2.902344 18.144531 L 1.933594 18.144531 L 1.933594 17.660156 L 2.902344 17.660156 Z M 2.902344 18.144531 " fill-opacity="1" fill-rule="nonzero"/><path fill="#925f3d" d="M 5.804688 17.417969 C 5.804688 17.285156 5.699219 17.175781 5.566406 17.175781 L 4.113281 17.175781 C 3.980469 17.175781 3.871094 17.285156 3.871094 17.417969 L 3.871094 18.386719 C 3.871094 18.519531 3.980469 18.628906 4.113281 18.628906 L 5.566406 18.628906 C 5.699219 18.628906 5.804688 18.519531 5.804688 18.386719 Z M 5.324219 18.144531 L 4.355469 18.144531 L 4.355469 17.660156 L 5.324219 17.660156 Z M 5.324219 18.144531 " fill-opacity="1" fill-rule="nonzero"/><path fill="#925f3d" d="M 3.144531 19.597656 L 1.695312 19.597656 C 1.558594 19.597656 1.453125 19.707031 1.453125 19.839844 L 1.453125 20.804688 C 1.453125 20.941406 1.558594 21.046875 1.695312 21.046875 L 3.144531 21.046875 C 3.277344 21.046875 3.386719 20.941406 3.386719 20.804688 L 3.386719 19.839844 C 3.386719 19.707031 3.277344 19.597656 3.144531 19.597656 Z M 2.902344 20.566406 L 1.933594 20.566406 L 1.933594 20.082031 L 2.902344 20.082031 Z M 2.902344 20.566406 " fill-opacity="1" fill-rule="nonzero"/><path fill="#925f3d" d="M 5.566406 19.597656 L 4.113281 19.597656 C 3.980469 19.597656 3.871094 19.707031 3.871094 19.839844 L 3.871094 20.804688 C 3.871094 20.941406 3.980469 21.046875 4.113281 21.046875 L 5.566406 21.046875 C 5.699219 21.046875 5.804688 20.941406 5.804688 20.804688 L 5.804688 19.839844 C 5.804688 19.707031 5.699219 19.597656 5.566406 19.597656 Z M 5.324219 20.566406 L 4.355469 20.566406 L 4.355469 20.082031 L 5.324219 20.082031 Z M 5.324219 20.566406 " fill-opacity="1" fill-rule="nonzero"/><path fill="#925f3d" d="M 8.226562 17.417969 C 8.226562 17.285156 8.117188 17.175781 7.984375 17.175781 L 6.53125 17.175781 C 6.398438 17.175781 6.289062 17.285156 6.289062 17.417969 L 6.289062 18.386719 C 6.289062 18.519531 6.398438 18.628906 6.53125 18.628906 L 7.984375 18.628906 C 8.117188 18.628906 8.226562 18.519531 8.226562 18.386719 Z M 7.742188 18.144531 L 6.773438 18.144531 L 6.773438 17.660156 L 7.742188 17.660156 Z M 7.742188 18.144531 " fill-opacity="1" fill-rule="nonzero"/><path fill="#925f3d" d="M 10.402344 17.175781 L 8.953125 17.175781 C 8.820312 17.175781 8.710938 17.285156 8.710938 17.417969 L 8.710938 18.386719 C 8.710938 18.519531 8.820312 18.628906 8.953125 18.628906 L 10.402344 18.628906 C 10.535156 18.628906 10.644531 18.519531 10.644531 18.386719 L 10.644531 17.417969 C 10.644531 17.285156 10.535156 17.175781 10.402344 17.175781 Z M 10.160156 18.144531 L 9.195312 18.144531 L 9.195312 17.660156 L 10.160156 17.660156 Z M 10.160156 18.144531 " fill-opacity="1" fill-rule="nonzero"/><path fill="#925f3d" d="M 7.984375 20.804688 C 8.117188 20.804688 8.226562 20.699219 8.226562 20.566406 L 8.226562 19.839844 C 8.226562 19.707031 8.117188 19.597656 7.984375 19.597656 L 6.53125 19.597656 C 6.398438 19.597656 6.289062 19.707031 6.289062 19.839844 L 6.289062 20.804688 C 6.289062 20.941406 6.398438 21.046875 6.53125 21.046875 L 7.015625 21.046875 C 7.148438 21.046875 7.257812 20.941406 7.257812 20.804688 C 7.257812 20.671875 7.148438 20.566406 7.015625 20.566406 L 6.773438 20.566406 L 6.773438 20.082031 L 7.742188 20.082031 L 7.742188 20.566406 C 7.742188 20.699219 7.851562 20.804688 7.984375 20.804688 Z M 7.984375 20.804688 " fill-opacity="1" fill-rule="nonzero"/><path fill="#925f3d" d="M 8.226562 10.160156 C 8.226562 10.027344 8.117188 9.917969 7.984375 9.917969 L 6.53125 9.917969 C 6.398438 9.917969 6.289062 10.027344 6.289062 10.160156 L 6.289062 11.128906 C 6.289062 11.261719 6.398438 11.371094 6.53125 11.371094 L 7.984375 11.371094 C 8.117188 11.371094 8.226562 11.261719 8.226562 11.128906 Z M 7.742188 10.886719 L 6.773438 10.886719 L 6.773438 10.402344 L 7.742188 10.402344 Z M 7.742188 10.886719 " fill-opacity="1" fill-rule="nonzero"/><path fill="#925f3d" d="M 10.644531 10.160156 C 10.644531 10.027344 10.535156 9.917969 10.402344 9.917969 L 8.953125 9.917969 C 8.820312 9.917969 8.710938 10.027344 8.710938 10.160156 L 8.710938 11.128906 C 8.710938 11.261719 8.820312 11.371094 8.953125 11.371094 L 10.402344 11.371094 C 10.535156 11.371094 10.644531 11.261719 10.644531 11.128906 Z M 10.160156 10.886719 L 9.195312 10.886719 L 9.195312 10.402344 L 10.160156 10.402344 Z M 10.160156 10.886719 " fill-opacity="1" fill-rule="nonzero"/><path fill="#925f3d" d="M 11.613281 7.742188 C 11.613281 7.609375 11.503906 7.5 11.371094 7.5 C 11.238281 7.5 11.128906 7.609375 11.128906 7.742188 L 11.128906 8.710938 C 11.128906 8.84375 11.238281 8.953125 11.371094 8.953125 C 11.503906 8.953125 11.613281 8.84375 11.613281 8.710938 Z M 11.613281 7.742188 " fill-opacity="1" fill-rule="nonzero"/><path fill="#925f3d" d="M 11.613281 12.582031 C 11.613281 12.449219 11.503906 12.339844 11.371094 12.339844 C 11.238281 12.339844 11.128906 12.449219 11.128906 12.582031 L 11.128906 13.546875 C 11.128906 13.679688 11.238281 13.789062 11.371094 13.789062 C 11.503906 13.789062 11.613281 13.679688 11.613281 13.546875 Z M 11.613281 12.582031 " fill-opacity="1" fill-rule="nonzero"/><path fill="#925f3d" d="M 11.613281 15 C 11.613281 14.867188 11.503906 14.757812 11.371094 14.757812 C 11.238281 14.757812 11.128906 14.867188 11.128906 15 L 11.128906 15.96875 C 11.128906 16.101562 11.238281 16.210938 11.371094 16.210938 C 11.503906 16.210938 11.613281 16.101562 11.613281 15.96875 Z M 11.613281 15 " fill-opacity="1" fill-rule="nonzero"/><path fill="#925f3d" d="M 11.371094 17.175781 C 11.238281 17.175781 11.128906 17.285156 11.128906 17.417969 L 11.128906 18.386719 C 11.128906 18.519531 11.238281 18.628906 11.371094 18.628906 C 11.503906 18.628906 11.613281 18.519531 11.613281 18.386719 L 11.613281 17.417969 C 11.613281 17.285156 11.503906 17.175781 11.371094 17.175781 Z M 11.371094 17.175781 " fill-opacity="1" fill-rule="nonzero"/><path fill="#925f3d" d="M 11.613281 10.160156 C 11.613281 10.027344 11.503906 9.917969 11.371094 9.917969 C 11.238281 9.917969 11.128906 10.027344 11.128906 10.160156 L 11.128906 11.128906 C 11.128906 11.261719 11.238281 11.371094 11.371094 11.371094 C 11.503906 11.371094 11.613281 11.261719 11.613281 11.128906 Z M 11.613281 10.160156 " fill-opacity="1" fill-rule="nonzero"/><g clip-path="url(#f2157e9338)"><path fill="#925f3d" d="M 29.273438 13.304688 L 22.742188 13.304688 L 22.742188 9.433594 L 22.984375 9.433594 C 23.117188 9.433594 23.226562 9.328125 23.226562 9.195312 L 23.226562 7.742188 C 23.226562 7.609375 23.117188 7.5 22.984375 7.5 L 12.339844 7.5 C 12.207031 7.5 12.097656 7.609375 12.097656 7.742188 L 12.097656 19.113281 C 12.097656 19.246094 12.207031 19.355469 12.339844 19.355469 C 12.472656 19.355469 12.582031 19.246094 12.582031 19.113281 L 12.582031 9.433594 L 22.257812 9.433594 L 22.257812 15 C 22.257812 15.132812 22.367188 15.242188 22.5 15.242188 L 28.546875 15.242188 L 28.546875 22.257812 L 27.582031 22.257812 L 27.582031 16.453125 C 27.582031 16.320312 27.472656 16.210938 27.339844 16.210938 L 25.886719 16.210938 C 25.753906 16.210938 25.644531 16.320312 25.644531 16.453125 L 25.644531 22.257812 L 25.160156 22.257812 L 25.160156 16.453125 C 25.160156 16.320312 25.050781 16.210938 24.917969 16.210938 L 23.46875 16.210938 C 23.335938 16.210938 23.226562 16.320312 23.226562 16.453125 L 23.226562 22.257812 L 22.742188 22.257812 L 22.742188 16.453125 C 22.742188 16.320312 22.632812 16.210938 22.5 16.210938 L 21.046875 16.210938 C 20.914062 16.210938 20.804688 16.320312 20.804688 16.453125 L 20.804688 22.257812 L 20.566406 22.257812 C 20.429688 22.257812 20.324219 22.367188 20.324219 22.5 C 20.324219 22.632812 20.429688 22.742188 20.566406 22.742188 L 28.789062 22.742188 C 28.921875 22.742188 29.03125 22.632812 29.03125 22.5 L 29.03125 15.242188 L 29.273438 15.242188 C 29.40625 15.242188 29.515625 15.132812 29.515625 15 L 29.515625 13.546875 C 29.515625 13.414062 29.40625 13.304688 29.273438 13.304688 Z M 12.582031 8.953125 L 12.582031 7.984375 L 22.742188 7.984375 L 22.742188 8.953125 Z M 27.097656 16.695312 L 27.097656 17.660156 L 26.128906 17.660156 L 26.128906 16.695312 Z M 24.675781 16.695312 L 24.675781 17.660156 L 23.710938 17.660156 L 23.710938 16.695312 Z M 22.257812 16.695312 L 22.257812 17.660156 L 21.289062 17.660156 L 21.289062 16.695312 Z M 21.289062 22.257812 L 21.289062 18.144531 L 22.257812 18.144531 L 22.257812 22.257812 Z M 23.710938 22.257812 L 23.710938 18.144531 L 24.675781 18.144531 L 24.675781 22.257812 Z M 26.128906 22.257812 L 26.128906 18.144531 L 27.097656 18.144531 L 27.097656 22.257812 Z M 29.03125 14.757812 L 22.742188 14.757812 L 22.742188 13.789062 L 29.03125 13.789062 Z M 29.03125 14.757812 " fill-opacity="1" fill-rule="nonzero"/></g><path fill="#925f3d" d="M 20.082031 22.015625 C 20.214844 22.015625 20.324219 21.90625 20.324219 21.773438 L 20.324219 16.453125 C 20.324219 16.320312 20.214844 16.210938 20.082031 16.210938 L 18.628906 16.210938 C 18.496094 16.210938 18.386719 16.320312 18.386719 16.453125 L 18.386719 20.566406 C 18.386719 20.699219 18.496094 20.804688 18.628906 20.804688 C 18.761719 20.804688 18.871094 20.699219 18.871094 20.566406 L 18.871094 18.144531 L 19.839844 18.144531 L 19.839844 21.773438 C 19.839844 21.90625 19.949219 22.015625 20.082031 22.015625 Z M 18.871094 17.660156 L 18.871094 16.695312 L 19.839844 16.695312 L 19.839844 17.660156 Z M 18.871094 17.660156 " fill-opacity="1" fill-rule="nonzero"/><path fill="#925f3d" d="M 17.660156 19.839844 C 17.792969 19.839844 17.902344 19.730469 17.902344 19.597656 L 17.902344 16.453125 C 17.902344 16.320312 17.792969 16.210938 17.660156 16.210938 L 16.210938 16.210938 C 16.078125 16.210938 15.96875 16.320312 15.96875 16.453125 L 15.96875 19.113281 C 15.96875 19.246094 16.078125 19.355469 16.210938 19.355469 C 16.34375 19.355469 16.453125 19.246094 16.453125 19.113281 L 16.453125 18.144531 L 17.417969 18.144531 L 17.417969 19.597656 C 17.417969 19.730469 17.527344 19.839844 17.660156 19.839844 Z M 16.453125 17.660156 L 16.453125 16.695312 L 17.417969 16.695312 L 17.417969 17.660156 Z M 16.453125 17.660156 " fill-opacity="1" fill-rule="nonzero"/><path fill="#925f3d" d="M 13.546875 19.113281 C 13.546875 19.246094 13.65625 19.355469 13.789062 19.355469 C 13.921875 19.355469 14.03125 19.246094 14.03125 19.113281 L 14.03125 18.144531 L 15 18.144531 L 15 19.113281 C 15 19.246094 15.109375 19.355469 15.242188 19.355469 C 15.375 19.355469 15.484375 19.246094 15.484375 19.113281 L 15.484375 16.453125 C 15.484375 16.320312 15.375 16.210938 15.242188 16.210938 L 13.789062 16.210938 C 13.65625 16.210938 13.546875 16.320312 13.546875 16.453125 Z M 15 16.695312 L 15 17.660156 L 14.03125 17.660156 L 14.03125 16.695312 Z M 15 16.695312 " fill-opacity="1" fill-rule="nonzero"/><path fill="#925f3d" d="M 21.289062 15 L 21.289062 10.160156 C 21.289062 10.027344 21.179688 9.917969 21.046875 9.917969 L 13.789062 9.917969 C 13.65625 9.917969 13.546875 10.027344 13.546875 10.160156 L 13.546875 15 C 13.546875 15.132812 13.65625 15.242188 13.789062 15.242188 L 21.046875 15.242188 C 21.179688 15.242188 21.289062 15.132812 21.289062 15 Z M 20.804688 12.339844 L 19.839844 12.339844 L 19.839844 11.613281 L 20.804688 11.613281 Z M 19.355469 12.339844 L 18.386719 12.339844 L 18.386719 11.613281 L 19.355469 11.613281 Z M 16.933594 12.339844 L 16.933594 11.613281 L 17.902344 11.613281 L 17.902344 12.339844 Z M 17.902344 12.824219 L 17.902344 13.546875 L 16.933594 13.546875 L 16.933594 12.824219 Z M 18.386719 11.128906 L 18.386719 10.402344 L 19.355469 10.402344 L 19.355469 11.128906 Z M 17.902344 11.128906 L 16.933594 11.128906 L 16.933594 10.402344 L 17.902344 10.402344 Z M 16.453125 11.128906 L 15.484375 11.128906 L 15.484375 10.402344 L 16.453125 10.402344 Z M 16.453125 11.613281 L 16.453125 12.339844 L 15.484375 12.339844 L 15.484375 11.613281 Z M 15 12.339844 L 14.03125 12.339844 L 14.03125 11.613281 L 15 11.613281 Z M 14.03125 12.824219 L 15 12.824219 L 15 13.546875 L 14.03125 13.546875 Z M 15.484375 12.824219 L 16.453125 12.824219 L 16.453125 13.546875 L 15.484375 13.546875 Z M 16.453125 14.03125 L 16.453125 14.757812 L 15.484375 14.757812 L 15.484375 14.03125 Z M 16.933594 14.03125 L 17.902344 14.03125 L 17.902344 14.757812 L 16.933594 14.757812 Z M 18.386719 14.03125 L 19.355469 14.03125 L 19.355469 14.757812 L 18.386719 14.757812 Z M 18.386719 13.546875 L 18.386719 12.824219 L 19.355469 12.824219 L 19.355469 13.546875 Z M 19.839844 12.824219 L 20.804688 12.824219 L 20.804688 13.546875 L 19.839844 13.546875 Z M 20.804688 11.128906 L 19.839844 11.128906 L 19.839844 10.402344 L 20.804688 10.402344 Z M 15 10.402344 L 15 11.128906 L 14.03125 11.128906 L 14.03125 10.402344 Z M 14.03125 14.03125 L 15 14.03125 L 15 14.757812 L 14.03125 14.757812 Z M 19.839844 14.757812 L 19.839844 14.03125 L 20.804688 14.03125 L 20.804688 14.757812 Z M 19.839844 14.757812 " fill-opacity="1" fill-rule="nonzero"/><g clip-path="url(#54a673b7e5)"><path fill="#925f3d" d="M 24 23.714844 L 19.257812 22.765625 L 17.84375 20.648438 C 17.503906 20.140625 16.941406 19.839844 16.332031 19.839844 L 10.171875 19.839844 C 9.636719 19.839844 9.128906 20.074219 8.777344 20.492188 L 6.878906 22.773438 L 4.628906 23.382812 C 4.542969 23.40625 4.476562 23.472656 4.453125 23.566406 L 3.742188 26.800781 C 3.726562 26.871094 3.742188 26.945312 3.792969 27.007812 C 3.839844 27.058594 3.90625 27.097656 3.980469 27.097656 L 6.773438 27.097656 C 6.773438 28.160156 7.644531 29.03125 8.710938 29.03125 C 9.773438 29.03125 10.644531 28.160156 10.644531 27.097656 L 17.902344 27.097656 C 17.902344 28.160156 18.773438 29.03125 19.839844 29.03125 C 20.902344 29.03125 21.773438 28.160156 21.773438 27.097656 L 23.953125 27.097656 C 24.085938 27.097656 24.195312 26.988281 24.195312 26.855469 L 24.195312 23.953125 C 24.195312 23.835938 24.113281 23.738281 24 23.714844 Z M 23.710938 25.335938 L 22.257812 24.972656 L 22.257812 24.675781 L 23.710938 24.675781 Z M 5.804688 24.195312 L 5.804688 24.675781 L 4.707031 24.675781 L 4.808594 24.195312 Z M 8.710938 28.546875 C 7.910156 28.546875 7.257812 27.894531 7.257812 27.097656 C 7.257812 26.296875 7.910156 25.644531 8.710938 25.644531 C 9.507812 25.644531 10.160156 26.296875 10.160156 27.097656 C 10.160156 27.894531 9.507812 28.546875 8.710938 28.546875 Z M 19.839844 28.546875 C 19.039062 28.546875 18.386719 27.894531 18.386719 27.097656 C 18.386719 26.296875 19.039062 25.644531 19.839844 25.644531 C 20.636719 25.644531 21.289062 26.296875 21.289062 27.097656 C 21.289062 27.894531 20.636719 28.546875 19.839844 28.546875 Z M 21.714844 26.613281 C 21.496094 25.777344 20.738281 25.160156 19.839844 25.160156 C 18.9375 25.160156 18.179688 25.777344 17.964844 26.613281 L 10.585938 26.613281 C 10.367188 25.777344 9.609375 25.160156 8.710938 25.160156 C 7.808594 25.160156 7.050781 25.777344 6.835938 26.613281 L 4.28125 26.613281 L 4.597656 25.160156 L 6.046875 25.160156 C 6.179688 25.160156 6.289062 25.050781 6.289062 24.917969 L 6.289062 23.953125 C 6.289062 23.820312 6.179688 23.710938 6.046875 23.710938 L 5.269531 23.710938 L 7.078125 23.21875 C 7.125 23.207031 7.167969 23.175781 7.199219 23.140625 L 9.144531 20.804688 C 9.398438 20.503906 9.773438 20.328125 10.167969 20.328125 L 16.332031 20.328125 C 16.777344 20.328125 17.191406 20.550781 17.4375 20.921875 L 18.90625 23.121094 C 18.945312 23.175781 18.996094 23.214844 19.058594 23.226562 L 23.703125 24.15625 L 23.703125 24.199219 L 22.011719 24.199219 C 21.878906 24.199219 21.769531 24.308594 21.769531 24.441406 L 21.769531 25.167969 C 21.769531 25.277344 21.839844 25.371094 21.949219 25.402344 L 23.703125 25.839844 L 23.703125 26.613281 Z M 21.714844 26.613281 " fill-opacity="1" fill-rule="nonzero"/></g><path fill="#925f3d" d="M 8.710938 26.128906 C 8.175781 26.128906 7.742188 26.566406 7.742188 27.097656 C 7.742188 27.628906 8.175781 28.066406 8.710938 28.066406 C 9.242188 28.066406 9.675781 27.628906 9.675781 27.097656 C 9.675781 26.566406 9.242188 26.128906 8.710938 26.128906 Z M 8.710938 27.582031 C 8.445312 27.582031 8.226562 27.363281 8.226562 27.097656 C 8.226562 26.832031 8.445312 26.613281 8.710938 26.613281 C 8.976562 26.613281 9.195312 26.832031 9.195312 27.097656 C 9.195312 27.363281 8.976562 27.582031 8.710938 27.582031 Z M 8.710938 27.582031 " fill-opacity="1" fill-rule="nonzero"/><path fill="#925f3d" d="M 19.839844 26.128906 C 19.304688 26.128906 18.871094 26.566406 18.871094 27.097656 C 18.871094 27.628906 19.304688 28.066406 19.839844 28.066406 C 20.371094 28.066406 20.804688 27.628906 20.804688 27.097656 C 20.804688 26.566406 20.371094 26.128906 19.839844 26.128906 Z M 19.839844 27.582031 C 19.574219 27.582031 19.355469 27.363281 19.355469 27.097656 C 19.355469 26.832031 19.574219 26.613281 19.839844 26.613281 C 20.105469 26.613281 20.324219 26.832031 20.324219 27.097656 C 20.324219 27.363281 20.105469 27.582031 19.839844 27.582031 Z M 19.839844 27.582031 " fill-opacity="1" fill-rule="nonzero"/><path fill="#925f3d" d="M 12.824219 20.804688 L 9.917969 20.804688 C 9.847656 20.804688 9.773438 20.84375 9.730469 20.898438 L 7.796875 23.316406 C 7.734375 23.390625 7.730469 23.484375 7.765625 23.570312 C 7.808594 23.65625 7.894531 23.710938 7.984375 23.710938 L 12.824219 23.710938 C 12.957031 23.710938 13.066406 23.601562 13.066406 23.46875 L 13.066406 21.046875 C 13.066406 20.914062 12.957031 20.804688 12.824219 20.804688 Z M 12.582031 23.226562 L 8.484375 23.226562 L 10.035156 21.289062 L 12.582031 21.289062 Z M 12.582031 23.226562 " fill-opacity="1" fill-rule="nonzero"/><path fill="#925f3d" d="M 16.898438 20.921875 C 16.855469 20.847656 16.777344 20.804688 16.695312 20.804688 L 13.789062 20.804688 C 13.65625 20.804688 13.546875 20.914062 13.546875 21.046875 L 13.546875 23.46875 C 13.546875 23.601562 13.65625 23.710938 13.789062 23.710938 L 18.144531 23.710938 C 18.230469 23.710938 18.316406 23.660156 18.355469 23.589844 C 18.398438 23.515625 18.398438 23.417969 18.351562 23.347656 Z M 14.03125 23.226562 L 14.03125 21.289062 L 16.554688 21.289062 L 17.714844 23.226562 Z M 14.03125 23.226562 " fill-opacity="1" fill-rule="nonzero"/><path fill="#925f3d" d="M 14.273438 24.195312 L 13.789062 24.195312 C 13.65625 24.195312 13.546875 24.300781 13.546875 24.433594 C 13.546875 24.570312 13.65625 24.675781 13.789062 24.675781 L 14.273438 24.675781 C 14.40625 24.675781 14.515625 24.570312 14.515625 24.433594 C 14.515625 24.300781 14.40625 24.195312 14.273438 24.195312 Z M 14.273438 24.195312 " fill-opacity="1" fill-rule="nonzero"/><path fill="#925f3d" d="M 8.46875 24.195312 L 7.984375 24.195312 C 7.851562 24.195312 7.742188 24.300781 7.742188 24.433594 C 7.742188 24.570312 7.851562 24.675781 7.984375 24.675781 L 8.46875 24.675781 C 8.601562 24.675781 8.710938 24.570312 8.710938 24.433594 C 8.710938 24.300781 8.601562 24.195312 8.46875 24.195312 Z M 8.46875 24.195312 " fill-opacity="1" fill-rule="nonzero"/><path fill="#925f3d" d="M 27.097656 5.097656 C 27.097656 4.269531 26.472656 3.585938 25.675781 3.484375 C 25.71875 3.230469 25.722656 2.976562 25.699219 2.714844 C 25.554688 1.386719 24.441406 0.328125 23.109375 0.242188 C 22.050781 0.175781 21.054688 0.714844 20.527344 1.628906 C 20.484375 1.628906 20.4375 1.621094 20.394531 1.621094 C 19.324219 1.621094 18.441406 2.429688 18.320312 3.464844 C 17.425781 3.464844 16.695312 4.199219 16.695312 5.09375 C 16.695312 5.988281 17.425781 6.71875 18.320312 6.71875 L 25.46875 6.71875 C 26.363281 6.726562 27.097656 5.992188 27.097656 5.097656 Z M 17.175781 5.097656 C 17.175781 4.46875 17.691406 3.957031 18.320312 3.957031 L 18.550781 3.957031 C 18.683594 3.957031 18.792969 3.847656 18.792969 3.714844 C 18.792969 3.175781 19.058594 2.703125 19.464844 2.414062 L 19.464844 4.628906 L 18.761719 4.628906 C 18.675781 4.46875 18.515625 4.367188 18.320312 4.367188 C 18.042969 4.367188 17.820312 4.589844 17.820312 4.867188 C 17.820312 5.148438 18.042969 5.371094 18.320312 5.371094 C 18.507812 5.371094 18.675781 5.269531 18.761719 5.109375 L 19.707031 5.109375 C 19.839844 5.109375 19.949219 5.003906 19.949219 4.867188 L 19.949219 3.496094 L 20.617188 3.496094 L 20.617188 4.933594 C 20.484375 5.015625 20.402344 5.160156 20.402344 5.328125 C 20.402344 5.582031 20.605469 5.789062 20.859375 5.789062 C 21.113281 5.789062 21.320312 5.582031 21.320312 5.328125 C 21.320312 5.164062 21.230469 5.019531 21.101562 4.933594 L 21.101562 3.253906 C 21.101562 3.121094 20.992188 3.011719 20.859375 3.011719 L 19.949219 3.011719 L 19.949219 2.175781 C 20.09375 2.136719 20.242188 2.109375 20.394531 2.109375 C 20.472656 2.109375 20.550781 2.117188 20.625 2.128906 C 20.726562 2.140625 20.832031 2.09375 20.878906 1.996094 C 21.121094 1.511719 21.519531 1.136719 21.996094 0.925781 L 21.996094 3.78125 C 21.863281 3.859375 21.78125 4.003906 21.78125 4.171875 C 21.78125 4.425781 21.984375 4.632812 22.238281 4.632812 C 22.492188 4.632812 22.699219 4.425781 22.699219 4.171875 C 22.699219 4.011719 22.609375 3.863281 22.480469 3.78125 L 22.480469 2.171875 L 22.988281 2.171875 L 22.988281 2.582031 C 22.863281 2.667969 22.777344 2.804688 22.777344 2.96875 C 22.777344 3.222656 22.984375 3.429688 23.238281 3.429688 C 23.492188 3.429688 23.699219 3.222656 23.699219 2.96875 C 23.699219 2.800781 23.605469 2.648438 23.46875 2.570312 L 23.460938 1.921875 C 23.460938 1.789062 23.351562 1.679688 23.21875 1.679688 L 22.46875 1.679688 L 22.46875 0.773438 C 22.664062 0.738281 22.863281 0.71875 23.0625 0.730469 C 23.515625 0.761719 23.941406 0.925781 24.289062 1.191406 L 24.289062 3.929688 L 23.378906 3.929688 C 23.242188 3.929688 23.136719 4.039062 23.136719 4.171875 L 23.136719 4.933594 C 23.003906 5.015625 22.917969 5.160156 22.917969 5.328125 C 22.917969 5.582031 23.121094 5.789062 23.378906 5.789062 C 23.632812 5.789062 23.835938 5.582031 23.835938 5.328125 C 23.835938 5.164062 23.746094 5.019531 23.617188 4.933594 L 23.617188 4.414062 L 24.289062 4.414062 L 24.289062 5.097656 C 24.289062 5.230469 24.398438 5.339844 24.53125 5.339844 L 25.292969 5.339844 C 25.371094 5.472656 25.519531 5.558594 25.6875 5.558594 C 25.941406 5.558594 26.148438 5.351562 26.148438 5.097656 C 26.148438 4.84375 25.941406 4.640625 25.6875 4.640625 C 25.523438 4.640625 25.378906 4.730469 25.292969 4.855469 L 24.773438 4.855469 L 24.773438 1.679688 C 25.003906 1.996094 25.15625 2.371094 25.199219 2.769531 C 25.226562 3.066406 25.203125 3.363281 25.125 3.648438 C 25.105469 3.71875 25.117188 3.796875 25.167969 3.859375 C 25.214844 3.917969 25.28125 3.957031 25.359375 3.957031 L 25.457031 3.957031 C 26.085938 3.957031 26.601562 4.46875 26.601562 5.097656 C 26.601562 5.726562 26.085938 6.242188 25.457031 6.242188 L 18.320312 6.242188 C 17.691406 6.242188 17.175781 5.726562 17.175781 5.097656 Z M 17.175781 5.097656 " fill-opacity="1" fill-rule="nonzero"/></svg>