<svg xmlns="http://www.w3.org/2000/svg" xmlns:xlink="http://www.w3.org/1999/xlink" width="40" zoomAndPan="magnify" viewBox="0 0 30 30.000001" height="40" preserveAspectRatio="xMidYMid meet" version="1.0"><defs><clipPath id="5853e1c27c"><path d="M 0.484375 0 L 29.515625 0 L 29.515625 29.03125 L 0.484375 29.03125 Z M 0.484375 0 " clip-rule="nonzero"/></clipPath><clipPath id="8332f6431b"><path d="M 4 0 L 25.722656 0 L 25.722656 29 L 4 29 Z M 4 0 " clip-rule="nonzero"/></clipPath></defs><g clip-path="url(#5853e1c27c)"><path fill="#ffffff" d="M 0.484375 0 L 29.515625 0 L 29.515625 29.03125 L 0.484375 29.03125 Z M 0.484375 0 " fill-opacity="1" fill-rule="nonzero"/><path fill="#ffffff" d="M 0.484375 0 L 29.515625 0 L 29.515625 29.03125 L 0.484375 29.03125 Z M 0.484375 0 " fill-opacity="1" fill-rule="nonzero"/></g><g clip-path="url(#8332f6431b)"><path fill="#925f3d" d="M 17.710938 17.175781 L 13.34375 21.542969 C 13.199219 21.6875 12.957031 21.519531 13.042969 21.332031 L 14.648438 17.855469 C 14.667969 17.816406 14.644531 17.773438 14.605469 17.761719 L 12.316406 17.105469 C 12.265625 17.089844 12.25 17.03125 12.285156 16.992188 L 15.804688 13.179688 C 15.9375 13.035156 16.175781 13.171875 16.117188 13.359375 L 15.332031 15.984375 C 15.320312 16.015625 15.339844 16.050781 15.371094 16.066406 L 17.691406 17.0625 C 17.734375 17.082031 17.746094 17.140625 17.710938 17.175781 Z M 18.507812 4.140625 C 16.566406 2.203125 13.421875 2.203125 11.484375 4.140625 C 11.316406 4.308594 11.316406 4.585938 11.484375 4.753906 C 11.652344 4.925781 11.929688 4.925781 12.097656 4.753906 C 13.699219 3.15625 16.292969 3.15625 17.894531 4.753906 C 18.0625 4.925781 18.335938 4.925781 18.507812 4.753906 C 18.675781 4.585938 18.675781 4.308594 18.507812 4.140625 Z M 14.996094 1.695312 C 13.058594 1.695312 11.121094 2.433594 9.640625 3.910156 C 9.472656 4.082031 9.195312 4.082031 9.027344 3.910156 C 8.859375 3.742188 8.859375 3.464844 9.027344 3.296875 C 12.324219 0 17.667969 0 20.964844 3.296875 C 21.132812 3.464844 21.132812 3.742188 20.964844 3.910156 C 20.792969 4.082031 20.519531 4.082031 20.351562 3.910156 C 18.871094 2.433594 16.933594 1.695312 14.996094 1.695312 Z M 18.046875 11.695312 L 17.152344 7.398438 C 17.140625 7.355469 17.175781 7.3125 17.21875 7.3125 L 18.921875 7.3125 C 18.949219 7.3125 18.976562 7.332031 18.984375 7.359375 C 19.328125 8.289062 20.535156 8.570312 21.25 7.855469 C 22.117188 6.988281 21.5 5.503906 20.277344 5.503906 C 19.691406 5.503906 19.183594 5.871094 18.984375 6.398438 C 18.976562 6.429688 18.949219 6.445312 18.921875 6.445312 L 17.007812 6.445312 C 16.976562 6.445312 16.949219 6.421875 16.941406 6.390625 L 16.722656 5.347656 C 16.695312 5.136719 16.511719 4.972656 16.292969 4.972656 L 13.699219 4.972656 C 13.496094 4.972656 13.316406 5.113281 13.273438 5.320312 L 13.050781 6.390625 C 13.042969 6.421875 13.015625 6.445312 12.980469 6.445312 L 11.070312 6.445312 C 11.039062 6.445312 11.015625 6.429688 11.003906 6.398438 C 10.660156 5.472656 9.457031 5.191406 8.738281 5.90625 C 7.875 6.773438 8.492188 8.257812 9.714844 8.257812 C 10.296875 8.257812 10.808594 7.890625 11.003906 7.359375 C 11.015625 7.332031 11.039062 7.3125 11.070312 7.3125 L 12.773438 7.3125 C 12.816406 7.3125 12.847656 7.355469 12.839844 7.398438 L 11.945312 11.695312 C 11.933594 11.753906 11.992188 11.800781 12.042969 11.773438 L 12.875 11.351562 C 12.894531 11.339844 12.90625 11.324219 12.910156 11.304688 L 13.003906 10.851562 C 13.007812 10.832031 13.019531 10.820312 13.03125 10.808594 L 14.957031 9.433594 C 14.980469 9.417969 15.011719 9.417969 15.035156 9.433594 L 16.957031 10.808594 C 16.972656 10.820312 16.984375 10.832031 16.984375 10.851562 L 17.082031 11.304688 C 17.085938 11.324219 17.097656 11.339844 17.117188 11.351562 L 17.949219 11.773438 C 18 11.800781 18.058594 11.753906 18.046875 11.695312 Z M 16.488281 8.457031 L 16.683594 9.398438 C 16.695312 9.460938 16.625 9.507812 16.574219 9.46875 L 15.820312 8.929688 C 15.78125 8.902344 15.78125 8.84375 15.820312 8.816406 L 16.378906 8.417969 C 16.421875 8.386719 16.476562 8.410156 16.488281 8.457031 Z M 16.234375 7.453125 L 15.035156 8.3125 C 15.011719 8.328125 14.980469 8.328125 14.957031 8.3125 L 13.753906 7.453125 C 13.699219 7.414062 13.726562 7.3125 13.796875 7.3125 L 16.191406 7.3125 C 16.265625 7.3125 16.289062 7.414062 16.234375 7.453125 Z M 15.984375 6.445312 L 14.007812 6.445312 C 13.964844 6.445312 13.929688 6.40625 13.941406 6.363281 L 14.039062 5.894531 C 14.042969 5.863281 14.074219 5.839844 14.105469 5.839844 L 15.886719 5.839844 C 15.917969 5.839844 15.945312 5.863281 15.953125 5.894531 L 16.050781 6.363281 C 16.058594 6.40625 16.027344 6.445312 15.984375 6.445312 Z M 13.613281 8.417969 L 14.171875 8.816406 C 14.210938 8.84375 14.210938 8.902344 14.171875 8.929688 L 13.414062 9.46875 C 13.363281 9.507812 13.292969 9.460938 13.308594 9.398438 L 13.503906 8.457031 C 13.515625 8.410156 13.570312 8.386719 13.613281 8.417969 Z M 24.128906 13.28125 C 23.746094 13.179688 23.699219 13 23.609375 13.050781 L 22.179688 13.875 C 21.992188 13.984375 21.75 13.917969 21.640625 13.730469 C 21.53125 13.542969 21.597656 13.300781 21.785156 13.191406 L 23.214844 12.367188 C 23.304688 12.316406 23.171875 12.183594 23.273438 11.800781 C 23.550781 10.765625 24.953125 10.578125 25.492188 11.507812 C 26.03125 12.445312 25.164062 13.558594 24.128906 13.28125 Z M 23.273438 23.335938 C 23.550781 24.367188 24.949219 24.5625 25.492188 23.628906 L 25.488281 23.628906 C 25.824219 23.054688 25.628906 22.308594 25.046875 21.976562 C 24.609375 21.722656 24.070312 21.769531 23.6875 22.078125 C 23.664062 22.097656 23.632812 22.097656 23.609375 22.085938 L 22.179688 21.261719 C 21.992188 21.152344 21.75 21.214844 21.640625 21.40625 C 21.53125 21.59375 21.597656 21.835938 21.785156 21.945312 L 23.214844 22.769531 C 23.304688 22.820312 23.171875 22.949219 23.273438 23.335938 Z M 14.554688 26.402344 C 13.796875 26.710938 13.582031 27.707031 14.175781 28.300781 C 14.90625 29.03125 16.15625 28.511719 16.15625 27.480469 C 16.15625 27 15.863281 26.578125 15.433594 26.402344 C 15.410156 26.394531 15.390625 26.367188 15.390625 26.339844 L 15.390625 24.808594 C 15.390625 24.589844 15.214844 24.414062 14.996094 24.414062 C 14.777344 24.414062 14.597656 24.589844 14.597656 24.808594 L 14.597656 26.339844 C 14.597656 26.367188 14.582031 26.394531 14.554688 26.402344 Z M 5.859375 21.855469 C 4.828125 21.578125 3.960938 22.691406 4.5 23.628906 C 4.667969 23.917969 4.9375 24.113281 5.234375 24.191406 C 6.085938 24.417969 6.878906 23.691406 6.742188 22.839844 C 6.738281 22.808594 6.753906 22.78125 6.777344 22.769531 L 8.203125 21.945312 C 8.394531 21.835938 8.457031 21.59375 8.351562 21.40625 C 8.242188 21.214844 8 21.152344 7.8125 21.261719 L 6.382812 22.085938 C 6.292969 22.136719 6.246094 21.957031 5.859375 21.855469 Z M 7.8125 13.875 L 6.382812 13.050781 C 6.359375 13.035156 6.328125 13.039062 6.304688 13.058594 C 5.921875 13.363281 5.378906 13.414062 4.941406 13.160156 C 4.363281 12.828125 4.164062 12.089844 4.5 11.507812 C 4.667969 11.21875 4.9375 11.023438 5.234375 10.945312 C 6.085938 10.71875 6.875 11.445312 6.746094 12.296875 C 6.738281 12.324219 6.753906 12.351562 6.777344 12.367188 L 8.203125 13.191406 C 8.394531 13.300781 8.457031 13.542969 8.351562 13.730469 C 8.242188 13.917969 8 13.984375 7.8125 13.875 Z M 8.929688 14.367188 L 8.929688 20.347656 C 8.929688 20.375 8.945312 20.398438 8.96875 20.410156 L 14.964844 23.453125 C 14.984375 23.464844 15.007812 23.464844 15.027344 23.453125 L 21.023438 20.410156 C 21.046875 20.398438 21.0625 20.375 21.0625 20.347656 L 21.0625 14.367188 C 21.0625 14.339844 21.046875 14.316406 21.023438 14.304688 L 15.027344 11.261719 C 15.007812 11.25 14.984375 11.25 14.964844 11.261719 L 8.96875 14.304688 C 8.945312 14.316406 8.929688 14.339844 8.929688 14.367188 Z M 8.929688 14.367188 " fill-opacity="1" fill-rule="evenodd"/></g></svg>