<svg xmlns="http://www.w3.org/2000/svg" xmlns:xlink="http://www.w3.org/1999/xlink" width="40" zoomAndPan="magnify" viewBox="0 0 30 30.000001" height="40" preserveAspectRatio="xMidYMid meet" version="1.0"><defs><clipPath id="90dc148f6f"><path d="M 0.484375 0 L 29.515625 0 L 29.515625 29.03125 L 0.484375 29.03125 Z M 0.484375 0 " clip-rule="nonzero"/></clipPath><clipPath id="f16d9db367"><path d="M 0.484375 1 L 28 1 L 28 29.03125 L 0.484375 29.03125 Z M 0.484375 1 " clip-rule="nonzero"/></clipPath><clipPath id="2a30ecdefc"><path d="M 15 0 L 29.515625 0 L 29.515625 15 L 15 15 Z M 15 0 " clip-rule="nonzero"/></clipPath></defs><g clip-path="url(#90dc148f6f)"><path fill="#ffffff" d="M 0.484375 0 L 29.515625 0 L 29.515625 29.03125 L 0.484375 29.03125 Z M 0.484375 0 " fill-opacity="1" fill-rule="nonzero"/><path fill="#ffffff" d="M 0.484375 0 L 29.515625 0 L 29.515625 29.03125 L 0.484375 29.03125 Z M 0.484375 0 " fill-opacity="1" fill-rule="nonzero"/></g><g clip-path="url(#f16d9db367)"><path fill="#925f3d" d="M 26.839844 14.796875 C 25.722656 14.796875 24.605469 14.796875 23.488281 14.796875 C 22.753906 14.796875 22.011719 14.796875 21.265625 14.796875 C 19.179688 14.796875 17.0625 14.796875 14.96875 14.796875 C 14.90625 14.796875 14.851562 14.796875 14.804688 14.796875 C 14.777344 14.796875 14.746094 14.796875 14.71875 14.796875 C 14.71875 14.769531 14.71875 14.742188 14.71875 14.710938 C 14.722656 14.664062 14.722656 14.613281 14.722656 14.550781 C 14.722656 12.105469 14.722656 9.617188 14.722656 7.210938 C 14.722656 5.671875 14.722656 4.136719 14.71875 2.597656 C 14.71875 2.40625 14.699219 2.132812 14.511719 1.960938 C 14.386719 1.84375 14.207031 1.792969 13.96875 1.8125 C 13.796875 1.824219 13.621094 1.835938 13.449219 1.847656 C 12.847656 1.886719 12.222656 1.929688 11.617188 2.042969 C 10.78125 2.199219 9.96875 2.421875 9.207031 2.710938 C 8.449219 2.996094 7.714844 3.355469 7.03125 3.773438 C 6.347656 4.1875 5.695312 4.671875 5.085938 5.21875 C 4.484375 5.757812 3.90625 6.371094 3.378906 7.039062 C 2.679688 7.921875 2.097656 8.875 1.65625 9.871094 C 1.210938 10.871094 0.890625 11.941406 0.703125 13.050781 C 0.640625 13.40625 0.59375 13.765625 0.550781 14.113281 C 0.53125 14.273438 0.507812 14.4375 0.484375 14.597656 L 0.484375 16.277344 C 0.503906 16.402344 0.519531 16.53125 0.535156 16.65625 C 0.570312 16.929688 0.609375 17.210938 0.648438 17.488281 C 0.824219 18.679688 1.152344 19.824219 1.621094 20.894531 C 2.085938 21.957031 2.707031 22.976562 3.464844 23.914062 C 4.4375 25.121094 5.554688 26.128906 6.785156 26.914062 C 8.03125 27.710938 9.421875 28.292969 10.917969 28.648438 C 11.390625 28.761719 11.878906 28.824219 12.351562 28.886719 C 12.570312 28.914062 12.800781 28.945312 13.019531 28.980469 C 13.058594 28.984375 13.101562 28.996094 13.148438 29.007812 C 13.167969 29.015625 13.195312 29.019531 13.21875 29.027344 L 13.242188 29.03125 L 14.917969 29.03125 C 15.097656 29.007812 15.28125 28.984375 15.460938 28.964844 C 15.855469 28.917969 16.265625 28.871094 16.664062 28.789062 C 17.65625 28.585938 18.605469 28.292969 19.484375 27.921875 C 20.363281 27.550781 21.195312 27.085938 21.957031 26.546875 C 22.722656 26.007812 23.433594 25.378906 24.078125 24.675781 C 24.722656 23.972656 25.3125 23.175781 25.835938 22.308594 C 26.433594 21.316406 26.894531 20.246094 27.207031 19.132812 C 27.507812 18.054688 27.671875 16.902344 27.703125 15.707031 C 27.710938 15.371094 27.6875 15.144531 27.53125 14.984375 C 27.378906 14.828125 27.152344 14.796875 26.839844 14.796875 Z M 3.359375 20.53125 C 3.910156 20.304688 4.460938 20.078125 5.007812 19.851562 C 5.234375 19.757812 5.40625 19.6875 5.554688 19.625 L 5.703125 19.566406 C 6.816406 19.109375 7.753906 18.722656 8.152344 18.558594 C 8.792969 18.292969 9.183594 18.132812 9.328125 18.070312 C 9.367188 18.054688 9.390625 18.042969 9.402344 18.039062 C 9.753906 17.894531 10.109375 17.75 10.460938 17.601562 C 11.566406 17.148438 12.707031 16.679688 13.828125 16.210938 C 13.894531 16.179688 13.921875 16.183594 13.925781 16.183594 C 13.933594 16.183594 13.957031 16.195312 14.007812 16.25 C 15.496094 17.871094 17.011719 19.519531 18.476562 21.109375 C 18.808594 21.46875 19.140625 21.828125 19.472656 22.191406 C 19.859375 22.613281 20.25 23.035156 20.636719 23.457031 C 21.042969 23.894531 21.449219 24.335938 21.855469 24.777344 C 21.898438 24.824219 21.941406 24.871094 21.992188 24.925781 C 19.613281 26.820312 17 27.769531 14.191406 27.769531 C 13.367188 27.769531 12.527344 27.6875 11.671875 27.523438 C 7.089844 26.648438 4.140625 23.347656 2.949219 20.699219 Z M 13.339844 15.054688 L 13.335938 15.054688 C 13.117188 15.132812 9.832031 16.476562 4.964844 18.472656 L 2.4375 19.535156 C 1.160156 15.527344 1.636719 11.828125 3.863281 8.539062 C 6.105469 5.222656 9.332031 3.386719 13.453125 3.082031 C 13.457031 3.117188 13.457031 3.148438 13.457031 3.175781 C 13.457031 4.078125 13.457031 4.980469 13.457031 5.882812 C 13.457031 8.820312 13.457031 11.863281 13.464844 14.851562 C 13.464844 14.921875 13.457031 14.96875 13.441406 14.988281 C 13.414062 15.03125 13.359375 15.046875 13.34375 15.054688 Z M 26.421875 16.074219 C 26.238281 19.171875 25.089844 21.789062 22.914062 24.0625 L 15.554688 16.074219 Z M 26.421875 16.074219 " fill-opacity="1" fill-rule="nonzero"/></g><g clip-path="url(#2a30ecdefc)"><path fill="#925f3d" d="M 29.511719 12.683594 C 29.503906 12.652344 29.5 12.625 29.492188 12.597656 C 29.480469 12.554688 29.46875 12.507812 29.464844 12.472656 C 29.421875 11.9375 29.347656 11.402344 29.242188 10.882812 C 29.03125 9.84375 28.566406 8.542969 28.210938 7.800781 C 27.933594 7.210938 27.605469 6.632812 27.242188 6.085938 C 26.359375 4.757812 25.410156 3.832031 24.773438 3.285156 C 23.789062 2.445312 22.71875 1.757812 21.597656 1.238281 C 20.464844 0.71875 19.242188 0.355469 17.972656 0.164062 C 17.707031 0.125 17.441406 0.0859375 17.179688 0.0507812 C 17.058594 0.0351562 16.9375 0.0195312 16.816406 0.00390625 L 16.804688 0 L 15.730469 0 L 15.683594 0.0234375 C 15.40625 0.171875 15.273438 0.410156 15.273438 0.761719 C 15.277344 3.746094 15.277344 6.777344 15.28125 9.710938 C 15.28125 10.972656 15.28125 12.230469 15.28125 13.492188 C 15.28125 13.675781 15.300781 13.902344 15.457031 14.058594 C 15.613281 14.214844 15.84375 14.234375 16.023438 14.234375 C 17.203125 14.234375 18.378906 14.234375 19.554688 14.234375 C 22.570312 14.234375 25.6875 14.234375 28.753906 14.242188 C 29.101562 14.242188 29.34375 14.109375 29.492188 13.835938 L 29.515625 13.789062 L 29.515625 12.707031 Z M 28.234375 12.949219 L 16.570312 12.949219 L 16.570312 1.253906 C 16.726562 1.277344 16.882812 1.296875 17.035156 1.316406 C 17.539062 1.382812 18.019531 1.441406 18.492188 1.542969 C 21.144531 2.109375 23.390625 3.429688 25.175781 5.46875 C 25.746094 6.117188 26.195312 6.785156 26.246094 6.859375 C 26.46875 7.195312 26.679688 7.542969 26.871094 7.894531 C 26.9375 8.035156 27.003906 8.179688 27.070312 8.324219 L 27.074219 8.335938 C 27.160156 8.527344 27.378906 9.015625 27.527344 9.429688 C 27.847656 10.324219 28.066406 11.265625 28.179688 12.234375 C 28.207031 12.445312 28.21875 12.664062 28.230469 12.875 C 28.230469 12.898438 28.234375 12.925781 28.234375 12.949219 Z M 28.234375 12.949219 " fill-opacity="1" fill-rule="nonzero"/></g><path fill="#925f3d" d="M 21.367188 7.65625 C 21.132812 7.605469 20.894531 7.570312 20.65625 7.523438 C 20.027344 7.398438 19.75 7.019531 19.824219 6.378906 C 19.875 5.941406 20.273438 5.546875 20.710938 5.488281 C 21.382812 5.402344 21.90625 5.949219 21.90625 6.53125 C 21.910156 6.847656 22.160156 7.066406 22.445312 7.054688 C 22.765625 7.039062 22.972656 6.808594 22.96875 6.480469 C 22.953125 5.605469 22.394531 4.832031 21.566406 4.542969 C 21.4375 4.5 21.363281 4.441406 21.390625 4.300781 C 21.394531 4.269531 21.390625 4.234375 21.390625 4.203125 C 21.378906 3.988281 21.269531 3.839844 21.082031 3.75 C 20.898438 3.660156 20.722656 3.683594 20.554688 3.792969 C 20.371094 3.917969 20.308594 4.097656 20.328125 4.308594 C 20.335938 4.433594 20.296875 4.496094 20.171875 4.535156 C 19.78125 4.65625 19.476562 4.90625 19.207031 5.210938 C 18.472656 6.050781 18.507812 7.953125 20.089844 8.472656 C 20.410156 8.578125 20.75 8.621094 21.082031 8.691406 C 21.636719 8.804688 21.898438 9.113281 21.902344 9.65625 C 21.90625 10.234375 21.46875 10.703125 20.898438 10.726562 C 20.296875 10.753906 19.816406 10.246094 19.808594 9.6875 C 19.804688 9.359375 19.554688 9.136719 19.261719 9.152344 C 18.945312 9.171875 18.742188 9.40625 18.75 9.738281 C 18.769531 10.605469 19.324219 11.382812 20.140625 11.664062 C 20.289062 11.714844 20.320312 11.785156 20.332031 11.933594 C 20.34375 12.074219 20.394531 12.238281 20.484375 12.347656 C 20.628906 12.519531 20.839844 12.5625 21.054688 12.472656 C 21.273438 12.378906 21.402344 12.214844 21.386719 11.972656 C 21.375 11.789062 21.441406 11.71875 21.613281 11.648438 C 22.382812 11.332031 22.847656 10.761719 22.953125 9.925781 C 23.097656 8.808594 22.464844 7.90625 21.367188 7.660156 Z M 21.367188 7.65625 " fill-opacity="1" fill-rule="nonzero"/><path fill="#925f3d" d="M 23.90625 21.664062 C 24.113281 21.664062 24.246094 21.578125 24.320312 21.5 C 24.390625 21.425781 24.480469 21.292969 24.476562 21.085938 C 24.476562 21.023438 24.472656 20.96875 24.464844 20.914062 C 24.378906 20.230469 24 19.714844 23.371094 19.417969 C 23.195312 19.335938 22.996094 19.359375 22.84375 19.476562 C 22.648438 19.625 22.394531 19.625 22.199219 19.472656 C 22.050781 19.359375 21.871094 19.335938 21.699219 19.40625 C 21.371094 19.542969 21.089844 19.773438 20.882812 20.082031 C 20.675781 20.386719 20.566406 20.734375 20.566406 21.089844 C 20.566406 21.296875 20.652344 21.429688 20.726562 21.503906 C 20.800781 21.578125 20.933594 21.664062 21.144531 21.664062 C 21.300781 21.664062 21.460938 21.664062 21.621094 21.664062 C 21.921875 21.664062 22.222656 21.664062 22.523438 21.664062 C 22.621094 21.664062 22.722656 21.664062 22.824219 21.664062 L 23.113281 21.664062 C 23.378906 21.664062 23.640625 21.664062 23.90625 21.664062 Z M 22.519531 20.773438 C 22.1875 20.773438 21.855469 20.773438 21.519531 20.773438 C 21.589844 20.59375 21.71875 20.429688 21.875 20.320312 C 22.28125 20.53125 22.757812 20.53125 23.164062 20.324219 C 23.335938 20.4375 23.453125 20.585938 23.519531 20.773438 C 23.386719 20.773438 23.25 20.773438 23.113281 20.773438 L 22.824219 20.773438 C 22.722656 20.773438 22.621094 20.773438 22.519531 20.773438 Z M 22.519531 20.773438 " fill-opacity="1" fill-rule="nonzero"/><path fill="#925f3d" d="M 22.523438 19.367188 C 23.242188 19.367188 23.828125 18.78125 23.832031 18.058594 C 23.832031 17.714844 23.699219 17.386719 23.449219 17.136719 C 23.203125 16.890625 22.875 16.753906 22.527344 16.753906 L 22.523438 16.753906 C 22.171875 16.753906 21.839844 16.890625 21.59375 17.136719 C 21.34375 17.386719 21.210938 17.710938 21.210938 18.058594 C 21.210938 18.410156 21.347656 18.738281 21.597656 18.984375 C 21.84375 19.230469 22.171875 19.367188 22.523438 19.367188 Z M 22.222656 17.769531 C 22.304688 17.6875 22.410156 17.644531 22.523438 17.644531 L 22.527344 17.644531 C 22.636719 17.644531 22.738281 17.6875 22.816406 17.769531 C 22.898438 17.847656 22.941406 17.949219 22.9375 18.058594 C 22.9375 18.289062 22.753906 18.476562 22.523438 18.476562 C 22.289062 18.476562 22.105469 18.292969 22.105469 18.058594 C 22.105469 17.949219 22.144531 17.847656 22.222656 17.769531 Z M 22.222656 17.769531 " fill-opacity="1" fill-rule="nonzero"/><path fill="#925f3d" d="M 10.351562 19.929688 L 11.46875 19.929688 L 11.46875 24.570312 L 10.351562 24.570312 Z M 10.351562 19.929688 " fill-opacity="1" fill-rule="nonzero"/><path fill="#925f3d" d="M 12.347656 21.464844 L 13.464844 21.464844 L 13.464844 24.570312 L 12.347656 24.570312 Z M 12.347656 21.464844 " fill-opacity="1" fill-rule="nonzero"/><path fill="#925f3d" d="M 14.34375 18.734375 L 15.460938 18.734375 L 15.460938 24.570312 L 14.34375 24.570312 Z M 14.34375 18.734375 " fill-opacity="1" fill-rule="nonzero"/><path fill="#925f3d" d="M 8.355469 24.824219 L 15.738281 24.824219 L 15.738281 25.261719 L 8.355469 25.261719 Z M 8.355469 24.824219 " fill-opacity="1" fill-rule="nonzero"/><path fill="#925f3d" d="M 8.355469 21.464844 L 9.472656 21.464844 L 9.472656 24.570312 L 8.355469 24.570312 Z M 8.355469 21.464844 " fill-opacity="1" fill-rule="nonzero"/><path fill="#925f3d" d="M 7.621094 7.351562 C 7.613281 7.351562 7.605469 7.351562 7.601562 7.351562 C 6.542969 7.351562 5.546875 7.757812 4.796875 8.503906 C 4.039062 9.257812 3.617188 10.265625 3.613281 11.34375 C 3.609375 12.398438 4.023438 13.394531 4.769531 14.148438 C 5.523438 14.90625 6.527344 15.324219 7.59375 15.328125 L 7.601562 15.328125 C 8.660156 15.328125 9.65625 14.914062 10.410156 14.164062 C 11.164062 13.414062 11.582031 12.414062 11.582031 11.351562 C 11.585938 10.289062 11.175781 9.285156 10.425781 8.53125 C 9.679688 7.777344 8.683594 7.355469 7.621094 7.351562 Z M 9.847656 13.605469 C 9.246094 14.203125 8.445312 14.53125 7.59375 14.53125 C 7.589844 14.53125 7.585938 14.53125 7.582031 14.53125 C 6.730469 14.527344 5.933594 14.191406 5.332031 13.585938 C 4.726562 12.980469 4.398438 12.183594 4.402344 11.335938 C 4.40625 10.476562 4.742188 9.675781 5.347656 9.074219 C 5.953125 8.476562 6.753906 8.148438 7.605469 8.148438 C 7.609375 8.148438 7.617188 8.148438 7.621094 8.148438 C 9.375 8.15625 10.796875 9.589844 10.792969 11.347656 C 10.789062 12.203125 10.453125 13.003906 9.847656 13.605469 Z M 9.847656 13.605469 " fill-opacity="1" fill-rule="nonzero"/><path fill="#925f3d" d="M 9.683594 12.871094 C 9.667969 12.855469 9.65625 12.839844 9.644531 12.828125 C 9.617188 12.796875 9.59375 12.773438 9.570312 12.75 L 9.25 12.429688 C 8.84375 12.023438 8.421875 11.601562 8.003906 11.1875 C 8 11.183594 7.996094 11.179688 7.996094 11.179688 C 7.996094 11.175781 7.996094 11.175781 7.996094 11.171875 C 8 10.605469 8 10.027344 7.996094 9.46875 C 7.996094 9.296875 7.996094 9.121094 7.996094 8.945312 L 7.996094 8.800781 C 7.996094 8.644531 7.871094 8.519531 7.714844 8.519531 L 7.488281 8.519531 C 7.34375 8.519531 7.222656 8.628906 7.207031 8.773438 C 7.207031 8.78125 7.207031 8.789062 7.207031 8.792969 C 7.203125 8.8125 7.199219 8.832031 7.199219 8.859375 L 7.199219 9.277344 C 7.199219 9.941406 7.199219 10.625 7.203125 11.296875 C 7.203125 11.449219 7.289062 11.585938 7.367188 11.664062 C 7.683594 11.988281 8.007812 12.3125 8.320312 12.625 C 8.507812 12.8125 8.695312 12.996094 8.878906 13.183594 C 8.925781 13.230469 8.972656 13.28125 9.015625 13.332031 C 9.035156 13.355469 9.054688 13.378906 9.074219 13.398438 C 9.171875 13.507812 9.335938 13.523438 9.453125 13.4375 L 9.648438 13.292969 C 9.785156 13.191406 9.800781 12.996094 9.683594 12.871094 Z M 9.683594 12.871094 " fill-opacity="1" fill-rule="nonzero"/></svg>