<svg xmlns="http://www.w3.org/2000/svg" xmlns:xlink="http://www.w3.org/1999/xlink" width="40" zoomAndPan="magnify" viewBox="0 0 30 30.000001" height="40" preserveAspectRatio="xMidYMid meet" version="1.0"><defs><clipPath id="f1e70488ab"><path d="M 0.484375 0 L 29.515625 0 L 29.515625 29.03125 L 0.484375 29.03125 Z M 0.484375 0 " clip-rule="nonzero"/></clipPath><clipPath id="b964412dd8"><path d="M 24 17 L 29.515625 17 L 29.515625 21 L 24 21 Z M 24 17 " clip-rule="nonzero"/></clipPath><clipPath id="38d6a09536"><path d="M 0.484375 5 L 15 5 L 15 29.03125 L 0.484375 29.03125 Z M 0.484375 5 " clip-rule="nonzero"/></clipPath><clipPath id="e65b8628a4"><path d="M 5 0.308594 L 11 0.308594 L 11 6 L 5 6 Z M 5 0.308594 " clip-rule="nonzero"/></clipPath></defs><g clip-path="url(#f1e70488ab)"><path fill="#ffffff" d="M 0.484375 0 L 29.515625 0 L 29.515625 29.03125 L 0.484375 29.03125 Z M 0.484375 0 " fill-opacity="1" fill-rule="nonzero"/><path fill="#ffffff" d="M 0.484375 0 L 29.515625 0 L 29.515625 29.03125 L 0.484375 29.03125 Z M 0.484375 0 " fill-opacity="1" fill-rule="nonzero"/></g><path fill="#925f3d" d="M 19.171875 7.777344 C 19.171875 9.125 24.0625 9.125 24.0625 7.777344 C 24.0625 6.910156 23.605469 6.148438 22.925781 5.714844 C 22.589844 6.105469 22.09375 6.355469 21.542969 6.355469 C 21.019531 6.355469 20.546875 6.132812 20.214844 5.777344 C 19.585938 6.21875 19.171875 6.949219 19.171875 7.777344 Z M 19.171875 7.777344 " fill-opacity="1" fill-rule="nonzero"/><path fill="#925f3d" d="M 23.15625 4.53125 C 23.15625 4.746094 23.113281 4.953125 23.03125 5.148438 C 22.949219 5.347656 22.832031 5.519531 22.683594 5.671875 C 22.53125 5.824219 22.355469 5.941406 22.160156 6.023438 C 21.960938 6.105469 21.753906 6.144531 21.542969 6.144531 C 21.328125 6.144531 21.121094 6.105469 20.925781 6.023438 C 20.726562 5.941406 20.550781 5.824219 20.402344 5.671875 C 20.25 5.519531 20.132812 5.347656 20.050781 5.148438 C 19.96875 4.953125 19.929688 4.746094 19.929688 4.53125 C 19.929688 4.316406 19.96875 4.113281 20.050781 3.914062 C 20.132812 3.71875 20.25 3.542969 20.402344 3.390625 C 20.550781 3.242188 20.726562 3.125 20.925781 3.042969 C 21.121094 2.960938 21.328125 2.917969 21.542969 2.917969 C 21.753906 2.917969 21.960938 2.960938 22.160156 3.042969 C 22.355469 3.125 22.53125 3.242188 22.683594 3.390625 C 22.832031 3.542969 22.949219 3.71875 23.03125 3.914062 C 23.113281 4.113281 23.15625 4.316406 23.15625 4.53125 Z M 23.15625 4.53125 " fill-opacity="1" fill-rule="nonzero"/><path fill="#925f3d" d="M 15.789062 18.160156 C 15.410156 18.160156 15.054688 18.042969 14.761719 17.839844 C 14.527344 18.296875 14.09375 18.628906 13.578125 18.730469 C 13.480469 18.996094 13.421875 19.28125 13.421875 19.582031 C 13.421875 20.933594 18.308594 20.933594 18.308594 19.582031 C 18.308594 18.714844 17.855469 17.953125 17.171875 17.519531 C 16.839844 17.910156 16.34375 18.160156 15.789062 18.160156 Z M 15.789062 18.160156 " fill-opacity="1" fill-rule="nonzero"/><path fill="#925f3d" d="M 14.949219 17.164062 C 14.9375 17.332031 14.902344 17.496094 14.847656 17.644531 C 15.113281 17.835938 15.4375 17.953125 15.789062 17.953125 C 16.679688 17.953125 17.402344 17.230469 17.402344 16.339844 C 17.402344 15.449219 16.679688 14.726562 15.789062 14.726562 C 15.511719 14.726562 15.25 14.796875 15.019531 14.921875 C 15.019531 15.628906 14.992188 16.378906 14.949219 17.164062 Z M 14.949219 17.164062 " fill-opacity="1" fill-rule="nonzero"/><path fill="#925f3d" d="M 19.171875 19.582031 C 19.171875 20.933594 24.0625 20.933594 24.0625 19.582031 C 24.0625 18.714844 23.605469 17.953125 22.925781 17.519531 C 22.589844 17.910156 22.09375 18.160156 21.542969 18.160156 C 21.019531 18.160156 20.546875 17.9375 20.214844 17.582031 C 19.585938 18.027344 19.171875 18.757812 19.171875 19.582031 Z M 19.171875 19.582031 " fill-opacity="1" fill-rule="nonzero"/><path fill="#925f3d" d="M 23.15625 16.339844 C 23.15625 16.550781 23.113281 16.757812 23.03125 16.957031 C 22.949219 17.152344 22.832031 17.328125 22.683594 17.480469 C 22.53125 17.628906 22.355469 17.746094 22.160156 17.828125 C 21.960938 17.910156 21.753906 17.953125 21.542969 17.953125 C 21.328125 17.953125 21.121094 17.910156 20.925781 17.828125 C 20.726562 17.746094 20.550781 17.628906 20.402344 17.480469 C 20.25 17.328125 20.132812 17.152344 20.050781 16.957031 C 19.96875 16.757812 19.929688 16.550781 19.929688 16.339844 C 19.929688 16.125 19.96875 15.917969 20.050781 15.722656 C 20.132812 15.523438 20.25 15.351562 20.402344 15.199219 C 20.550781 15.046875 20.726562 14.929688 20.925781 14.847656 C 21.121094 14.765625 21.328125 14.726562 21.542969 14.726562 C 21.753906 14.726562 21.960938 14.765625 22.160156 14.847656 C 22.355469 14.929688 22.53125 15.046875 22.683594 15.199219 C 22.832031 15.351562 22.949219 15.523438 23.03125 15.722656 C 23.113281 15.917969 23.15625 16.125 23.15625 16.339844 Z M 23.15625 16.339844 " fill-opacity="1" fill-rule="nonzero"/><g clip-path="url(#b964412dd8)"><path fill="#925f3d" d="M 27.292969 18.160156 C 26.769531 18.160156 26.296875 17.9375 25.964844 17.582031 C 25.335938 18.027344 24.925781 18.757812 24.925781 19.582031 C 24.925781 20.933594 29.8125 20.933594 29.8125 19.582031 C 29.8125 18.714844 29.359375 17.953125 28.675781 17.519531 C 28.339844 17.910156 27.84375 18.160156 27.292969 18.160156 Z M 27.292969 18.160156 " fill-opacity="1" fill-rule="nonzero"/></g><path fill="#925f3d" d="M 28.90625 16.339844 C 28.90625 16.550781 28.863281 16.757812 28.78125 16.957031 C 28.699219 17.152344 28.585938 17.328125 28.433594 17.480469 C 28.28125 17.628906 28.105469 17.746094 27.910156 17.828125 C 27.710938 17.910156 27.507812 17.953125 27.292969 17.953125 C 27.078125 17.953125 26.871094 17.910156 26.675781 17.828125 C 26.476562 17.746094 26.304688 17.628906 26.152344 17.480469 C 26 17.328125 25.882812 17.152344 25.800781 16.957031 C 25.722656 16.757812 25.679688 16.550781 25.679688 16.339844 C 25.679688 16.125 25.722656 15.917969 25.800781 15.722656 C 25.882812 15.523438 26 15.351562 26.152344 15.199219 C 26.304688 15.046875 26.476562 14.929688 26.675781 14.847656 C 26.871094 14.765625 27.078125 14.726562 27.292969 14.726562 C 27.507812 14.726562 27.710938 14.765625 27.910156 14.847656 C 28.105469 14.929688 28.28125 15.046875 28.433594 15.199219 C 28.585938 15.351562 28.699219 15.523438 28.78125 15.722656 C 28.863281 15.917969 28.90625 16.125 28.90625 16.339844 Z M 28.90625 16.339844 " fill-opacity="1" fill-rule="nonzero"/><path fill="#925f3d" d="M 15.921875 11.742188 L 21.507812 11.742188 L 21.507812 14.074219 L 21.75 14.074219 L 21.75 11.742188 L 27.3125 11.742188 L 27.3125 14.335938 L 27.554688 14.335938 L 27.554688 11.5 L 21.75 11.5 L 21.75 9.4375 L 21.507812 9.4375 L 21.507812 11.5 L 15.679688 11.5 L 15.679688 14.335938 L 15.921875 14.335938 Z M 15.921875 11.742188 " fill-opacity="1" fill-rule="nonzero"/><g clip-path="url(#38d6a09536)"><path fill="#925f3d" d="M 4.726562 18.117188 L 4.726562 15.613281 L 4.96875 15.714844 L 4.96875 27.523438 C 4.96875 28.347656 5.640625 29.019531 6.464844 29.019531 C 7.105469 29.019531 7.648438 28.617188 7.863281 28.050781 C 7.925781 27.886719 7.960938 27.707031 7.960938 27.523438 L 7.960938 16.597656 L 8.523438 16.597656 L 8.523438 27.523438 C 8.523438 28.347656 9.191406 29.019531 10.019531 29.019531 C 10.84375 29.019531 11.515625 28.347656 11.515625 27.523438 L 11.515625 9.367188 C 11.933594 10.226562 12.363281 11.871094 12.359375 14.804688 C 12.359375 15.46875 12.335938 16.203125 12.289062 17.007812 C 12.257812 17.542969 12.664062 18 13.199219 18.03125 C 13.21875 18.035156 13.238281 18.035156 13.257812 18.035156 C 13.765625 18.035156 14.191406 17.636719 14.222656 17.121094 C 14.273438 16.28125 14.296875 15.511719 14.296875 14.804688 C 14.292969 12.0625 13.960938 10.246094 13.460938 8.988281 C 12.972656 7.738281 12.269531 7.03125 11.617188 6.707031 C 11.207031 6.5 10.84375 6.453125 10.625 6.449219 C 10.609375 6.449219 10.59375 6.449219 10.582031 6.449219 L 7.367188 6.449219 C 7.367188 6.472656 7.367188 6.503906 7.367188 6.546875 C 7.363281 7.019531 7.3125 8.421875 6.710938 10.027344 L 6.042969 9.746094 C 6.589844 8.265625 6.640625 6.964844 6.640625 6.546875 C 6.640625 6.5 6.640625 6.46875 6.640625 6.449219 L 5.902344 6.449219 C 5.847656 6.449219 5.789062 6.453125 5.734375 6.464844 C 5.359375 6.507812 5.035156 6.652344 4.753906 6.839844 C 4.417969 7.066406 4.128906 7.355469 3.878906 7.699219 C 3.386719 8.390625 3.042969 9.304688 3.039062 10.34375 C 3.039062 11.125 3.242188 11.96875 3.714844 12.777344 C 4.1875 13.589844 4.917969 14.359375 5.9375 15.042969 C 6.105469 15.152344 6.292969 15.207031 6.476562 15.207031 C 6.789062 15.207031 7.09375 15.054688 7.28125 14.777344 C 7.578125 14.332031 7.460938 13.730469 7.015625 13.433594 C 6.195312 12.882812 5.691406 12.324219 5.390625 11.804688 C 5.085938 11.28125 4.976562 10.796875 4.976562 10.34375 C 4.976562 9.921875 5.078125 9.53125 5.234375 9.203125 C 5.386719 8.878906 5.597656 8.625 5.765625 8.496094 C 5.816406 8.457031 5.859375 8.429688 5.894531 8.414062 L 5.917969 8.6875 C 5.789062 8.785156 5.597656 9 5.453125 9.304688 C 5.300781 9.628906 5.21875 9.988281 5.21875 10.34375 C 5.21875 10.582031 5.253906 10.8125 5.320312 11.042969 L 5.753906 10.015625 L 9.503906 11.597656 L 7.488281 16.382812 L 3.738281 14.800781 L 4.15625 13.808594 C 3.90625 13.515625 3.6875 13.214844 3.503906 12.898438 C 3.042969 12.101562 2.796875 11.21875 2.796875 10.34375 C 2.800781 9.339844 3.113281 8.351562 3.683594 7.558594 C 3.957031 7.179688 4.273438 6.871094 4.617188 6.640625 C 4.964844 6.410156 5.363281 6.269531 5.714844 6.21875 L 5.714844 6.222656 C 5.777344 6.210938 5.839844 6.207031 5.902344 6.207031 L 7.675781 6.207031 C 7.035156 6.070312 5.933594 5.859375 5.222656 5.871094 C 5.039062 5.871094 4.878906 5.890625 4.761719 5.925781 C 3.996094 6.167969 1.859375 7.621094 1.070312 11.917969 C 0.480469 15.148438 2.914062 17.675781 4.726562 18.117188 Z M 4.726562 18.117188 " fill-opacity="1" fill-rule="nonzero"/></g><g clip-path="url(#e65b8628a4)"><path fill="#925f3d" d="M 10.964844 3.035156 C 10.964844 3.394531 10.894531 3.742188 10.757812 4.078125 C 10.621094 4.410156 10.421875 4.703125 10.167969 4.960938 C 9.914062 5.214844 9.617188 5.414062 9.285156 5.550781 C 8.949219 5.6875 8.601562 5.757812 8.242188 5.757812 C 7.882812 5.757812 7.535156 5.6875 7.199219 5.550781 C 6.867188 5.414062 6.570312 5.214844 6.316406 4.960938 C 6.0625 4.703125 5.863281 4.410156 5.726562 4.078125 C 5.589844 3.742188 5.519531 3.394531 5.519531 3.035156 C 5.519531 2.671875 5.589844 2.324219 5.726562 1.992188 C 5.863281 1.660156 6.0625 1.363281 6.316406 1.109375 C 6.570312 0.855469 6.867188 0.65625 7.199219 0.519531 C 7.535156 0.378906 7.882812 0.3125 8.242188 0.3125 C 8.601562 0.3125 8.949219 0.378906 9.285156 0.519531 C 9.617188 0.65625 9.914062 0.855469 10.167969 1.109375 C 10.421875 1.363281 10.621094 1.660156 10.757812 1.992188 C 10.894531 2.324219 10.964844 2.671875 10.964844 3.035156 Z M 10.964844 3.035156 " fill-opacity="1" fill-rule="nonzero"/></g><path fill="#925f3d" d="M 5.933594 11.289062 L 6.042969 11.027344 L 8.578125 12.097656 L 8.46875 12.355469 Z M 5.933594 11.289062 " fill-opacity="1" fill-rule="nonzero"/><path fill="#925f3d" d="M 5.714844 11.804688 L 5.824219 11.546875 L 8.359375 12.613281 L 8.25 12.875 Z M 5.714844 11.804688 " fill-opacity="1" fill-rule="nonzero"/></svg>