<svg xmlns="http://www.w3.org/2000/svg" xmlns:xlink="http://www.w3.org/1999/xlink" width="40" zoomAndPan="magnify" viewBox="0 0 30 30.000001" height="40" preserveAspectRatio="xMidYMid meet" version="1.0"><defs><clipPath id="c838bd1706"><path d="M 0.484375 0 L 29.515625 0 L 29.515625 29.03125 L 0.484375 29.03125 Z M 0.484375 0 " clip-rule="nonzero"/></clipPath><clipPath id="f50251d01d"><path d="M 17 13 L 29.25 13 L 29.25 26 L 17 26 Z M 17 13 " clip-rule="nonzero"/></clipPath><clipPath id="18d7f52f06"><path d="M 7 24 L 12 24 L 12 26.128906 L 7 26.128906 Z M 7 24 " clip-rule="nonzero"/></clipPath><clipPath id="123edda2d6"><path d="M 8 2.902344 L 24 2.902344 L 24 12 L 8 12 Z M 8 2.902344 " clip-rule="nonzero"/></clipPath></defs><g clip-path="url(#c838bd1706)"><path fill="#ffffff" d="M 0.484375 0 L 29.515625 0 L 29.515625 29.03125 L 0.484375 29.03125 Z M 0.484375 0 " fill-opacity="1" fill-rule="nonzero"/><path fill="#ffffff" d="M 0.484375 0 L 29.515625 0 L 29.515625 29.03125 L 0.484375 29.03125 Z M 0.484375 0 " fill-opacity="1" fill-rule="nonzero"/></g><g clip-path="url(#f50251d01d)"><path fill="#925f3d" d="M 24.226562 25.035156 L 22.253906 25.035156 C 22.035156 25.035156 21.871094 24.8125 21.871094 24.59375 L 21.871094 23.664062 C 21.597656 23.554688 21.324219 23.445312 21.105469 23.335938 L 20.390625 23.992188 C 20.28125 24.15625 20.007812 24.15625 19.84375 23.992188 L 18.472656 22.625 C 18.363281 22.570312 18.363281 22.457031 18.363281 22.347656 C 18.363281 22.292969 18.363281 22.128906 18.472656 22.074219 L 19.132812 21.417969 C 18.96875 21.199219 18.914062 20.925781 18.804688 20.652344 L 17.816406 20.652344 C 17.597656 20.652344 17.433594 20.488281 17.433594 20.269531 L 17.433594 18.296875 C 17.433594 18.078125 17.597656 17.859375 17.816406 17.859375 L 18.804688 17.859375 C 18.914062 17.636719 19.023438 17.363281 19.132812 17.089844 L 18.472656 16.433594 C 18.363281 16.324219 18.363281 16.214844 18.363281 16.160156 C 18.363281 16.050781 18.363281 15.941406 18.472656 15.886719 L 19.84375 14.515625 C 20.007812 14.351562 20.28125 14.351562 20.390625 14.515625 L 21.105469 15.117188 C 21.378906 15.007812 21.597656 14.898438 21.871094 14.84375 L 21.871094 13.914062 C 21.871094 13.640625 22.035156 13.476562 22.308594 13.476562 L 24.226562 13.476562 C 24.445312 13.476562 24.664062 13.640625 24.664062 13.914062 L 24.664062 14.84375 C 24.9375 14.953125 25.15625 15.0625 25.429688 15.171875 L 26.089844 14.515625 C 26.253906 14.351562 26.472656 14.351562 26.636719 14.515625 L 28.007812 15.886719 C 28.117188 15.941406 28.117188 16.050781 28.117188 16.160156 C 28.117188 16.214844 28.117188 16.324219 28.007812 16.433594 L 27.347656 17.089844 C 27.511719 17.308594 27.621094 17.582031 27.675781 17.859375 L 28.664062 17.859375 C 28.882812 17.859375 29.046875 18.023438 29.046875 18.242188 L 29.046875 20.214844 C 29.046875 20.433594 28.882812 20.652344 28.664062 20.652344 L 27.675781 20.652344 C 27.621094 20.925781 27.511719 21.199219 27.402344 21.417969 L 28.0625 22.074219 C 28.117188 22.128906 28.171875 22.238281 28.171875 22.347656 C 28.171875 22.402344 28.117188 22.515625 28.0625 22.625 L 26.691406 23.992188 C 26.527344 24.15625 26.253906 24.15625 26.089844 23.992188 L 25.429688 23.335938 C 25.210938 23.445312 24.9375 23.554688 24.664062 23.609375 L 24.664062 24.59375 C 24.609375 24.8125 24.445312 25.035156 24.226562 25.035156 Z M 23.242188 21.746094 C 21.871094 21.746094 20.773438 20.652344 20.773438 19.226562 C 20.773438 17.859375 21.871094 16.761719 23.242188 16.761719 C 24.609375 16.761719 25.761719 17.859375 25.761719 19.226562 C 25.761719 20.652344 24.609375 21.746094 23.242188 21.746094 Z M 23.242188 17.527344 C 22.308594 17.527344 21.542969 18.296875 21.542969 19.28125 C 21.542969 20.214844 22.308594 20.980469 23.242188 20.980469 C 24.171875 20.980469 24.9375 20.214844 24.9375 19.28125 C 24.9375 18.296875 24.171875 17.527344 23.242188 17.527344 Z M 23.242188 17.527344 " fill-opacity="1" fill-rule="evenodd"/></g><path fill="#925f3d" d="M 9.765625 19.226562 L 9.765625 16.488281 L 11.132812 15.722656 C 11.296875 15.613281 11.351562 15.335938 11.242188 15.171875 C 11.132812 14.953125 10.914062 14.898438 10.695312 15.007812 L 9.328125 15.832031 L 7.957031 15.007812 C 7.792969 14.898438 7.519531 14.953125 7.410156 15.171875 C 7.300781 15.335938 7.355469 15.613281 7.574219 15.722656 L 8.941406 16.488281 L 8.941406 19.226562 L 6.3125 19.226562 C 6.148438 17.253906 5.601562 16.542969 5.109375 15.832031 C 4.617188 15.171875 4.066406 14.460938 4.066406 12.816406 C 4.066406 9.914062 6.367188 7.558594 9.328125 7.558594 C 12.230469 7.558594 14.585938 9.914062 14.585938 12.816406 C 14.585938 14.460938 14.039062 15.171875 13.542969 15.832031 C 12.996094 16.542969 12.449219 17.253906 12.285156 19.226562 Z M 6.257812 13.96875 C 6.039062 13.96875 5.820312 13.75 5.820312 13.53125 C 5.820312 11.230469 7.738281 9.367188 10.039062 9.367188 C 10.257812 9.367188 10.421875 9.585938 10.421875 9.804688 C 10.421875 10.023438 10.257812 10.1875 10.039062 10.1875 C 8.121094 10.1875 6.644531 11.722656 6.644531 13.585938 C 6.644531 13.75 6.476562 13.96875 6.257812 13.96875 Z M 6.257812 13.96875 " fill-opacity="1" fill-rule="evenodd"/><path fill="#925f3d" d="M 13.214844 7.832031 C 13.160156 7.832031 13.105469 7.777344 12.996094 7.777344 C 12.832031 7.667969 12.777344 7.394531 12.832031 7.230469 L 13.542969 6.027344 C 13.652344 5.859375 13.875 5.804688 14.09375 5.859375 C 14.257812 5.972656 14.3125 6.191406 14.257812 6.410156 L 13.542969 7.613281 C 13.488281 7.722656 13.378906 7.832031 13.214844 7.832031 Z M 13.214844 7.832031 " fill-opacity="1" fill-rule="evenodd"/><path fill="#925f3d" d="M 16.0625 10.683594 C 15.953125 10.683594 15.789062 10.625 15.734375 10.460938 C 15.625 10.296875 15.679688 10.023438 15.898438 9.914062 L 17.105469 9.257812 C 17.269531 9.148438 17.542969 9.203125 17.652344 9.421875 C 17.761719 9.585938 17.707031 9.859375 17.488281 9.96875 L 16.285156 10.625 C 16.230469 10.683594 16.175781 10.683594 16.0625 10.683594 Z M 16.0625 10.683594 " fill-opacity="1" fill-rule="evenodd"/><path fill="#925f3d" d="M 5.4375 7.832031 C 5.273438 7.832031 5.164062 7.722656 5.109375 7.613281 L 4.398438 6.410156 C 4.289062 6.246094 4.34375 5.972656 4.5625 5.859375 C 4.726562 5.75 5 5.804688 5.109375 6.027344 L 5.820312 7.230469 C 5.929688 7.394531 5.820312 7.667969 5.65625 7.777344 C 5.546875 7.832031 5.492188 7.832031 5.4375 7.832031 Z M 5.4375 7.832031 " fill-opacity="1" fill-rule="evenodd"/><path fill="#925f3d" d="M 2.589844 10.683594 C 2.535156 10.683594 2.480469 10.683594 2.371094 10.625 L 1.21875 9.96875 C 1 9.859375 0.945312 9.585938 1.054688 9.421875 C 1.164062 9.203125 1.382812 9.148438 1.601562 9.257812 L 2.753906 9.914062 C 2.972656 10.023438 3.027344 10.242188 2.917969 10.460938 C 2.863281 10.570312 2.699219 10.683594 2.589844 10.683594 Z M 2.589844 10.683594 " fill-opacity="1" fill-rule="evenodd"/><path fill="#925f3d" d="M 12.722656 24.15625 L 5.984375 24.15625 C 5.328125 24.15625 4.890625 23.664062 4.890625 23.0625 C 4.890625 22.898438 4.890625 22.734375 4.945312 22.625 C 5.273438 22.84375 5.601562 22.953125 5.984375 22.953125 L 12.722656 22.953125 C 13.105469 22.953125 13.433594 22.84375 13.707031 22.679688 C 13.765625 22.789062 13.820312 22.898438 13.820312 23.0625 C 13.820312 23.609375 13.324219 24.15625 12.722656 24.15625 Z M 12.722656 24.15625 " fill-opacity="1" fill-rule="evenodd"/><g clip-path="url(#18d7f52f06)"><path fill="#925f3d" d="M 9.875 26.128906 L 8.832031 26.128906 C 8.066406 26.128906 7.355469 25.636719 7.136719 24.925781 L 11.574219 24.925781 C 11.296875 25.636719 10.640625 26.128906 9.875 26.128906 Z M 9.875 26.128906 " fill-opacity="1" fill-rule="evenodd"/></g><g clip-path="url(#123edda2d6)"><path fill="#925f3d" d="M 23.242188 11.394531 C 23.019531 11.394531 22.855469 11.230469 22.855469 11.011719 L 22.855469 4.929688 C 22.855469 4.273438 22.308594 3.726562 21.597656 3.726562 L 10.96875 3.726562 C 10.257812 3.726562 9.710938 4.273438 9.710938 4.929688 L 9.710938 7.996094 C 9.710938 8.214844 9.546875 8.382812 9.328125 8.382812 C 9.054688 8.382812 8.886719 8.214844 8.886719 7.996094 L 8.886719 4.929688 C 8.886719 3.78125 9.820312 2.902344 10.914062 2.902344 L 21.597656 2.902344 C 22.691406 2.902344 23.625 3.78125 23.625 4.929688 L 23.625 11.011719 C 23.625 11.230469 23.460938 11.394531 23.242188 11.394531 Z M 23.242188 11.394531 " fill-opacity="1" fill-rule="evenodd"/></g><path fill="#925f3d" d="M 23.242188 11.394531 C 23.128906 11.394531 23.019531 11.339844 22.964844 11.285156 L 20.996094 9.3125 C 20.828125 9.203125 20.828125 8.929688 20.996094 8.765625 C 21.160156 8.601562 21.433594 8.601562 21.597656 8.765625 L 23.242188 10.40625 L 24.882812 8.765625 C 25.046875 8.601562 25.320312 8.601562 25.484375 8.765625 C 25.652344 8.929688 25.652344 9.203125 25.484375 9.3125 L 23.515625 11.285156 C 23.460938 11.339844 23.351562 11.394531 23.242188 11.394531 Z M 23.242188 11.394531 " fill-opacity="1" fill-rule="evenodd"/><path fill="#925f3d" d="M 12.722656 22.183594 L 5.984375 22.183594 C 5.382812 22.183594 4.890625 21.691406 4.890625 21.035156 C 4.890625 20.433594 5.382812 19.992188 5.984375 19.992188 L 12.722656 19.992188 C 13.378906 19.992188 13.820312 20.488281 13.820312 21.035156 C 13.875 21.636719 13.378906 22.183594 12.722656 22.183594 Z M 12.722656 22.183594 " fill-opacity="1" fill-rule="evenodd"/></svg>