<svg xmlns="http://www.w3.org/2000/svg" xmlns:xlink="http://www.w3.org/1999/xlink" width="50" zoomAndPan="magnify" viewBox="0 0 37.5 37.499999" height="50" preserveAspectRatio="xMidYMid meet" version="1.0"><defs><clipPath id="c75a4c7e98"><path d="M 3 23 L 27 23 L 27 35.527344 L 3 35.527344 Z M 3 23 " clip-rule="nonzero"/></clipPath><clipPath id="7a5a870f5b"><path d="M 1.84375 12 L 18 12 L 18 24 L 1.84375 24 Z M 1.84375 12 " clip-rule="nonzero"/></clipPath></defs><path fill="#935f3d" d="M 18.996094 11.984375 C 17.792969 11.984375 16.8125 12.960938 16.8125 14.164062 L 16.8125 16.769531 C 17.078125 16.683594 17.335938 16.5625 17.578125 16.402344 C 17.679688 16.332031 17.816406 16.332031 17.917969 16.398438 C 18.023438 16.464844 18.078125 16.589844 18.058594 16.710938 L 17.957031 17.316406 C 17.941406 17.414062 17.90625 17.5 17.882812 17.597656 L 20.339844 17.597656 C 20.285156 17.503906 20.246094 17.398438 20.246094 17.285156 C 20.246094 16.941406 20.523438 16.660156 20.867188 16.660156 C 21.210938 16.660156 21.492188 16.941406 21.492188 17.285156 C 21.492188 17.398438 21.449219 17.503906 21.394531 17.597656 L 24.921875 17.597656 L 24.921875 14.164062 C 24.921875 12.960938 23.941406 11.984375 22.738281 11.984375 L 22.425781 11.984375 L 22.425781 12.292969 C 22.425781 13.152344 21.726562 13.855469 20.867188 13.855469 C 20.007812 13.855469 19.308594 13.152344 19.308594 12.292969 L 19.308594 11.984375 Z M 20.867188 14.789062 C 21.210938 14.789062 21.492188 15.070312 21.492188 15.414062 C 21.492188 15.757812 21.210938 16.035156 20.867188 16.035156 C 20.523438 16.035156 20.246094 15.757812 20.246094 15.414062 C 20.246094 15.070312 20.523438 14.789062 20.867188 14.789062 Z M 20.867188 14.789062 " fill-opacity="1" fill-rule="nonzero"/><path fill="#935f3d" d="M 19.933594 11.808594 L 19.933594 12.292969 C 19.933594 12.808594 20.351562 13.230469 20.867188 13.230469 C 21.382812 13.230469 21.804688 12.808594 21.804688 12.292969 L 21.804688 11.808594 C 21.511719 11.914062 21.199219 11.984375 20.867188 11.984375 C 20.539062 11.984375 20.226562 11.914062 19.933594 11.808594 Z M 19.933594 11.808594 " fill-opacity="1" fill-rule="nonzero"/><g clip-path="url(#c75a4c7e98)"><path fill="#935f3d" d="M 11.824219 24.769531 L 11.824219 23.832031 L 9.320312 23.832031 C 9.292969 25.074219 8.949219 26.289062 8.320312 27.34375 L 3.332031 35.683594 L 19.429688 35.683594 L 21.089844 32.363281 C 21.601562 31.335938 22.53125 30.5625 23.636719 30.246094 C 24.882812 29.890625 25.828125 28.847656 26.082031 27.574219 L 14.632812 27.574219 C 13.082031 27.574219 11.824219 26.316406 11.824219 24.769531 Z M 11.824219 24.769531 " fill-opacity="1" fill-rule="nonzero"/></g><path fill="#935f3d" d="M 8.707031 16.660156 L 8.707031 15.101562 L 6.835938 15.101562 L 6.835938 16.660156 C 6.835938 16.832031 6.695312 16.972656 6.523438 16.972656 L 4.964844 16.972656 L 4.964844 18.84375 L 6.523438 18.84375 C 6.695312 18.84375 6.835938 18.984375 6.835938 19.15625 L 6.835938 20.714844 L 8.707031 20.714844 L 8.707031 19.15625 C 8.707031 18.984375 8.84375 18.84375 9.015625 18.84375 L 10.578125 18.84375 L 10.578125 16.972656 L 9.015625 16.972656 C 8.84375 16.972656 8.707031 16.832031 8.707031 16.660156 Z M 8.707031 16.660156 " fill-opacity="1" fill-rule="nonzero"/><path fill="#935f3d" d="M 8.21875 9.292969 C 8.464844 10.160156 8.53125 11.0625 8.433594 11.984375 L 11.824219 11.984375 L 11.824219 9.46875 C 11.824219 8.535156 11.351562 7.691406 10.59375 7.265625 C 9.914062 6.886719 9.195312 6.90625 8.664062 7.324219 C 8.164062 7.71875 7.953125 8.371094 8.128906 8.980469 Z M 8.21875 9.292969 " fill-opacity="1" fill-rule="nonzero"/><path fill="#935f3d" d="M 18.683594 9.175781 C 18.683594 10.378906 19.664062 11.359375 20.867188 11.359375 C 22.070312 11.359375 23.050781 10.378906 23.050781 9.175781 L 23.050781 7.617188 L 18.683594 7.617188 Z M 18.683594 9.175781 " fill-opacity="1" fill-rule="nonzero"/><path fill="#935f3d" d="M 20.867188 5.121094 C 19.769531 5.121094 18.859375 5.9375 18.707031 6.992188 L 23.027344 6.992188 C 22.875 5.9375 21.964844 5.121094 20.867188 5.121094 Z M 20.867188 5.121094 " fill-opacity="1" fill-rule="nonzero"/><g clip-path="url(#7a5a870f5b)"><path fill="#935f3d" d="M 13.695312 22.273438 L 13.695312 19.777344 C 13.695312 19.683594 13.738281 19.597656 13.808594 19.539062 C 13.882812 19.480469 13.976562 19.453125 14.066406 19.472656 C 14.808594 19.621094 15.5625 19.464844 16.183594 19.035156 C 16.800781 18.613281 17.207031 17.972656 17.335938 17.238281 C 16.203125 17.726562 14.886719 17.621094 13.832031 16.917969 C 13.746094 16.863281 13.695312 16.765625 13.695312 16.660156 L 13.695312 13.542969 C 13.695312 13.027344 13.277344 12.605469 12.761719 12.605469 L 2.78125 12.605469 C 2.265625 12.605469 1.84375 13.027344 1.84375 13.542969 L 1.84375 22.273438 C 1.84375 22.789062 2.265625 23.210938 2.78125 23.210938 L 12.761719 23.210938 C 13.277344 23.210938 13.695312 22.789062 13.695312 22.273438 Z M 11.199219 19.15625 C 11.199219 19.328125 11.0625 19.46875 10.890625 19.46875 L 9.328125 19.46875 L 9.328125 21.027344 C 9.328125 21.199219 9.191406 21.339844 9.015625 21.339844 L 6.523438 21.339844 C 6.351562 21.339844 6.210938 21.199219 6.210938 21.027344 L 6.210938 19.46875 L 4.652344 19.46875 C 4.480469 19.46875 4.339844 19.328125 4.339844 19.15625 L 4.339844 16.660156 C 4.339844 16.488281 4.480469 16.347656 4.652344 16.347656 L 6.210938 16.347656 L 6.210938 14.789062 C 6.210938 14.617188 6.351562 14.476562 6.523438 14.476562 L 9.015625 14.476562 C 9.191406 14.476562 9.328125 14.617188 9.328125 14.789062 L 9.328125 16.347656 L 10.890625 16.347656 C 11.0625 16.347656 11.199219 16.488281 11.199219 16.660156 Z M 11.199219 19.15625 " fill-opacity="1" fill-rule="nonzero"/></g><path fill="#935f3d" d="M 34.691406 3.71875 C 34.484375 3.355469 34.148438 3.101562 33.746094 2.992188 C 33.34375 2.882812 32.921875 2.9375 32.5625 3.148438 L 29.910156 4.675781 L 29.910156 8.277344 L 34.121094 5.847656 C 34.867188 5.417969 35.121094 4.464844 34.691406 3.71875 Z M 34.691406 3.71875 " fill-opacity="1" fill-rule="nonzero"/><path fill="#935f3d" d="M 31.625 19.332031 C 31.222656 19.222656 30.800781 19.277344 30.441406 19.484375 L 27.199219 21.359375 C 26.839844 21.566406 26.582031 21.902344 26.472656 22.304688 C 26.367188 22.707031 26.421875 23.125 26.628906 23.488281 C 27.058594 24.230469 28.015625 24.488281 28.757812 24.058594 L 32 22.1875 C 32.359375 21.980469 32.617188 21.640625 32.726562 21.238281 C 32.835938 20.835938 32.777344 20.417969 32.570312 20.058594 C 32.363281 19.695312 32.027344 19.4375 31.625 19.332031 Z M 31.625 19.332031 " fill-opacity="1" fill-rule="nonzero"/><path fill="#935f3d" d="M 31.625 14.902344 C 31.222656 14.796875 30.800781 14.851562 30.441406 15.058594 L 27.199219 16.929688 C 26.457031 17.359375 26.199219 18.316406 26.628906 19.058594 C 27.058594 19.804688 28.015625 20.0625 28.757812 19.632812 L 32 17.761719 C 32.359375 17.550781 32.617188 17.214844 32.726562 16.8125 C 32.835938 16.410156 32.777344 15.992188 32.570312 15.628906 C 32.363281 15.269531 32.027344 15.011719 31.625 14.902344 Z M 31.625 14.902344 " fill-opacity="1" fill-rule="nonzero"/><path fill="#935f3d" d="M 26.628906 14.632812 C 27.058594 15.378906 28.015625 15.632812 28.757812 15.203125 L 32 13.332031 C 32.742188 12.902344 33 11.949219 32.570312 11.203125 C 32.28125 10.703125 31.757812 10.421875 31.21875 10.421875 C 30.953125 10.421875 30.683594 10.492188 30.441406 10.632812 L 27.199219 12.503906 C 26.457031 12.933594 26.199219 13.886719 26.628906 14.632812 Z M 26.628906 14.632812 " fill-opacity="1" fill-rule="nonzero"/><path fill="#935f3d" d="M 27.984375 24.890625 C 27.226562 24.890625 26.492188 24.5 26.089844 23.800781 C 25.796875 23.292969 25.71875 22.707031 25.871094 22.144531 C 26.023438 21.578125 26.382812 21.109375 26.886719 20.816406 L 27.574219 20.421875 C 26.972656 20.304688 26.417969 19.945312 26.089844 19.371094 C 25.488281 18.328125 25.847656 16.992188 26.886719 16.390625 L 27.574219 15.996094 C 26.972656 15.878906 26.417969 15.519531 26.089844 14.945312 C 25.488281 13.902344 25.847656 12.566406 26.886719 11.964844 L 29.289062 10.578125 L 29.289062 2.316406 C 29.289062 1.109375 28.308594 0.132812 27.105469 0.132812 L 14.632812 0.132812 C 13.425781 0.132812 12.449219 1.109375 12.449219 2.316406 L 12.449219 11.984375 L 12.761719 11.984375 C 13.621094 11.984375 14.320312 12.683594 14.320312 13.542969 L 14.320312 16.488281 C 14.894531 16.828125 15.550781 16.960938 16.191406 16.894531 L 16.191406 14.164062 C 16.191406 12.617188 17.449219 11.359375 18.996094 11.359375 L 19.125 11.359375 C 18.480469 10.84375 18.0625 10.0625 18.0625 9.175781 L 18.0625 7.304688 C 18.0625 5.757812 19.320312 4.496094 20.867188 4.496094 C 22.414062 4.496094 23.675781 5.757812 23.675781 7.304688 L 23.675781 9.175781 C 23.675781 10.0625 23.253906 10.84375 22.609375 11.359375 L 22.738281 11.359375 C 24.285156 11.359375 25.546875 12.617188 25.546875 14.164062 L 25.546875 17.90625 C 25.546875 18.078125 25.40625 18.21875 25.234375 18.21875 L 17.65625 18.21875 C 17.40625 18.746094 17.03125 19.207031 16.539062 19.550781 C 15.878906 20.003906 15.105469 20.207031 14.320312 20.136719 L 14.320312 22.273438 C 14.320312 23.132812 13.621094 23.832031 12.761719 23.832031 L 12.449219 23.832031 L 12.449219 24.769531 C 12.449219 25.972656 13.425781 26.953125 14.632812 26.953125 L 27.105469 26.953125 C 28.308594 26.953125 29.289062 25.972656 29.289062 24.769531 L 29.289062 24.472656 L 29.070312 24.597656 C 28.730469 24.796875 28.351562 24.890625 27.984375 24.890625 Z M 14.632812 2.9375 C 14.285156 2.9375 14.007812 2.660156 14.007812 2.316406 C 14.007812 1.972656 14.285156 1.691406 14.632812 1.691406 C 14.976562 1.691406 15.253906 1.972656 15.253906 2.316406 C 15.253906 2.660156 14.976562 2.9375 14.632812 2.9375 Z M 17.125 2.9375 C 16.78125 2.9375 16.503906 2.660156 16.503906 2.316406 C 16.503906 1.972656 16.78125 1.691406 17.125 1.691406 C 17.46875 1.691406 17.75 1.972656 17.75 2.316406 C 17.75 2.660156 17.46875 2.9375 17.125 2.9375 Z M 20.867188 25.082031 C 19.664062 25.082031 18.683594 24.101562 18.683594 22.898438 C 18.683594 21.695312 19.664062 20.714844 20.867188 20.714844 C 22.070312 20.714844 23.050781 21.695312 23.050781 22.898438 C 23.050781 24.101562 22.070312 25.082031 20.867188 25.082031 Z M 20.867188 25.082031 " fill-opacity="1" fill-rule="nonzero"/><path fill="#935f3d" d="M 22.425781 22.898438 C 22.425781 23.105469 22.386719 23.304688 22.308594 23.492188 C 22.230469 23.683594 22.117188 23.855469 21.96875 24 C 21.824219 24.144531 21.65625 24.257812 21.464844 24.339844 C 21.273438 24.417969 21.074219 24.457031 20.867188 24.457031 C 20.660156 24.457031 20.460938 24.417969 20.269531 24.339844 C 20.082031 24.257812 19.910156 24.144531 19.765625 24 C 19.621094 23.855469 19.507812 23.683594 19.425781 23.492188 C 19.347656 23.304688 19.308594 23.105469 19.308594 22.898438 C 19.308594 22.691406 19.347656 22.492188 19.425781 22.300781 C 19.507812 22.109375 19.621094 21.941406 19.765625 21.792969 C 19.910156 21.648438 20.082031 21.535156 20.269531 21.457031 C 20.460938 21.378906 20.660156 21.339844 20.867188 21.339844 C 21.074219 21.339844 21.273438 21.378906 21.464844 21.457031 C 21.65625 21.535156 21.824219 21.648438 21.96875 21.792969 C 22.117188 21.941406 22.230469 22.109375 22.308594 22.300781 C 22.386719 22.492188 22.425781 22.691406 22.425781 22.898438 Z M 22.425781 22.898438 " fill-opacity="1" fill-rule="nonzero"/></svg>