<svg xmlns="http://www.w3.org/2000/svg" xmlns:xlink="http://www.w3.org/1999/xlink" width="40" zoomAndPan="magnify" viewBox="0 0 30 30.000001" height="40" preserveAspectRatio="xMidYMid meet" version="1.0"><defs><clipPath id="3cb7e248be"><path d="M 0.484375 0 L 29.515625 0 L 29.515625 29.03125 L 0.484375 29.03125 Z M 0.484375 0 " clip-rule="nonzero"/></clipPath><clipPath id="9e05a04261"><path d="M 13 0.585938 L 18 0.585938 L 18 4 L 13 4 Z M 13 0.585938 " clip-rule="nonzero"/></clipPath><clipPath id="312edcfef5"><path d="M 18 25 L 23 25 L 23 29.03125 L 18 29.03125 Z M 18 25 " clip-rule="nonzero"/></clipPath><clipPath id="0971a9ceab"><path d="M 3.386719 2 L 26 2 L 26 29.03125 L 3.386719 29.03125 Z M 3.386719 2 " clip-rule="nonzero"/></clipPath></defs><g clip-path="url(#3cb7e248be)"><path fill="#ffffff" d="M 0.484375 0 L 29.515625 0 L 29.515625 29.03125 L 0.484375 29.03125 Z M 0.484375 0 " fill-opacity="1" fill-rule="nonzero"/><path fill="#ffffff" d="M 0.484375 0 L 29.515625 0 L 29.515625 29.03125 L 0.484375 29.03125 Z M 0.484375 0 " fill-opacity="1" fill-rule="nonzero"/></g><path fill="#925f3d" d="M 16.746094 14.546875 C 16.554688 14.546875 16.402344 14.394531 16.402344 14.203125 L 16.402344 8.4375 L 14.800781 6.628906 L 12.804688 7.351562 C 12.613281 7.421875 12.425781 7.335938 12.355469 7.144531 C 12.285156 6.972656 12.390625 6.785156 12.5625 6.714844 L 14.78125 5.90625 C 14.902344 5.855469 15.058594 5.890625 15.144531 5.992188 L 17.003906 8.074219 C 17.074219 8.128906 17.089844 8.214844 17.089844 8.300781 L 17.089844 14.203125 C 17.089844 14.394531 16.933594 14.546875 16.746094 14.546875 Z M 16.746094 14.546875 " fill-opacity="1" fill-rule="evenodd"/><path fill="#925f3d" d="M 16.746094 9.917969 C 16.640625 9.917969 16.539062 9.847656 16.46875 9.761719 C 16.367188 9.609375 16.402344 9.382812 16.554688 9.28125 L 18.414062 8.023438 C 18.464844 7.972656 18.535156 7.957031 18.605469 7.957031 L 20.824219 7.957031 C 21.015625 7.957031 21.167969 8.109375 21.167969 8.300781 C 21.167969 8.488281 21.015625 8.644531 20.824219 8.644531 L 18.707031 8.644531 L 16.953125 9.847656 C 16.882812 9.882812 16.8125 9.917969 16.746094 9.917969 Z M 16.746094 9.917969 " fill-opacity="1" fill-rule="evenodd"/><path fill="#925f3d" d="M 19.414062 14.976562 C 19.292969 14.976562 19.15625 14.910156 19.105469 14.773438 L 18.3125 12.757812 L 16.554688 11.535156 C 16.402344 11.433594 16.46875 11.3125 16.589844 11.15625 C 16.695312 11 16.796875 10.863281 16.953125 10.96875 L 18.792969 12.257812 C 18.84375 12.292969 18.878906 12.34375 18.914062 12.414062 L 19.742188 14.511719 C 19.808594 14.6875 19.722656 14.890625 19.550781 14.960938 C 19.5 14.976562 19.464844 14.976562 19.414062 14.976562 Z M 19.414062 14.976562 " fill-opacity="1" fill-rule="evenodd"/><path fill="#925f3d" d="M 16.746094 13.464844 C 16.710938 13.464844 16.660156 13.464844 16.625 13.445312 L 14.523438 12.570312 C 14.4375 12.535156 14.371094 12.464844 14.335938 12.378906 L 13.679688 10.675781 C 13.613281 10.503906 13.699219 10.296875 13.871094 10.226562 C 14.058594 10.160156 14.25 10.261719 14.316406 10.433594 L 14.921875 11.984375 L 16.882812 12.808594 C 17.054688 12.878906 17.003906 13.03125 16.933594 13.207031 C 16.882812 13.34375 16.882812 13.464844 16.746094 13.464844 Z M 16.746094 13.464844 " fill-opacity="1" fill-rule="evenodd"/><path fill="#925f3d" d="M 12.683594 9.917969 C 12.578125 9.917969 12.460938 9.847656 12.390625 9.761719 C 12.285156 9.609375 12.339844 9.382812 12.492188 9.28125 L 14.335938 8.023438 C 14.40625 7.972656 14.472656 7.957031 14.542969 7.957031 L 16.746094 7.957031 C 16.933594 7.957031 16.898438 8.074219 16.898438 8.265625 C 16.898438 8.472656 16.933594 8.644531 16.746094 8.644531 L 14.644531 8.644531 L 12.871094 9.847656 C 12.820312 9.882812 12.75 9.917969 12.683594 9.917969 Z M 12.683594 9.917969 " fill-opacity="1" fill-rule="evenodd"/><path fill="#925f3d" d="M 19.707031 10.726562 C 19.515625 10.726562 19.363281 10.570312 19.363281 10.382812 L 19.363281 8.300781 C 19.363281 8.109375 19.515625 8.074219 19.707031 8.074219 C 19.894531 8.074219 20.050781 8.109375 20.050781 8.300781 L 20.050781 10.382812 C 20.050781 10.570312 19.894531 10.726562 19.707031 10.726562 Z M 19.707031 10.726562 " fill-opacity="1" fill-rule="evenodd"/><g clip-path="url(#9e05a04261)"><path fill="#925f3d" d="M 15.679688 3.945312 C 14.75 3.945312 13.992188 3.203125 13.992188 2.273438 C 13.992188 1.34375 14.75 0.585938 15.679688 0.585938 C 16.589844 0.585938 17.347656 1.34375 17.347656 2.273438 C 17.347656 3.203125 16.589844 3.945312 15.679688 3.945312 Z M 15.679688 1.277344 C 15.128906 1.277344 14.679688 1.722656 14.679688 2.273438 C 14.679688 2.824219 15.128906 3.273438 15.679688 3.273438 C 16.210938 3.273438 16.660156 2.824219 16.660156 2.273438 C 16.660156 1.722656 16.210938 1.277344 15.679688 1.277344 Z M 15.679688 1.277344 " fill-opacity="1" fill-rule="evenodd"/></g><g clip-path="url(#312edcfef5)"><path fill="#925f3d" d="M 21.996094 29.972656 L 19.257812 29.972656 C 18.84375 29.972656 18.519531 29.628906 18.519531 29.214844 L 18.519531 26.496094 C 18.519531 26.082031 18.84375 25.753906 19.257812 25.753906 L 21.996094 25.753906 C 22.390625 25.753906 22.734375 26.082031 22.734375 26.496094 L 22.734375 29.214844 C 22.734375 29.628906 22.390625 29.972656 21.996094 29.972656 Z M 19.257812 26.441406 C 19.242188 26.441406 19.207031 26.460938 19.207031 26.496094 L 19.207031 29.214844 C 19.207031 29.25 19.242188 29.28125 19.257812 29.28125 L 21.996094 29.28125 C 22.011719 29.28125 22.046875 29.25 22.046875 29.214844 L 22.046875 26.496094 C 22.046875 26.460938 22.011719 26.441406 21.996094 26.441406 Z M 19.257812 26.441406 " fill-opacity="1" fill-rule="evenodd"/></g><path fill="#925f3d" d="M 20.636719 26.40625 C 20.53125 26.40625 20.429688 26.390625 20.359375 26.320312 C 20.238281 26.183594 20.257812 25.960938 20.394531 25.839844 L 27.195312 19.851562 L 27.195312 7.542969 C 27.195312 4.820312 24.992188 2.617188 22.269531 2.617188 L 17.003906 2.617188 C 16.8125 2.617188 16.78125 2.429688 16.78125 2.238281 C 16.78125 2.050781 16.8125 1.929688 17.003906 1.929688 L 22.269531 1.929688 C 25.371094 1.929688 27.882812 4.445312 27.882812 7.542969 L 27.882812 19.988281 C 27.882812 20.089844 27.847656 20.195312 27.761719 20.246094 L 20.859375 26.355469 C 20.789062 26.40625 20.703125 26.40625 20.636719 26.40625 Z M 27.539062 20.003906 Z M 27.539062 20.003906 " fill-opacity="1" fill-rule="evenodd"/><path fill="#925f3d" d="M 21.152344 28.886719 L 20.101562 28.886719 C 19.828125 28.886719 19.601562 28.664062 19.601562 28.386719 L 19.601562 27.335938 C 19.601562 27.0625 19.828125 26.839844 20.101562 26.839844 L 21.152344 26.839844 C 21.425781 26.839844 21.652344 27.0625 21.652344 27.335938 L 21.652344 28.386719 C 21.652344 28.664062 21.425781 28.886719 21.152344 28.886719 Z M 20.292969 28.199219 L 20.960938 28.199219 L 20.960938 27.527344 L 20.292969 27.527344 Z M 21.152344 27.527344 Z M 21.152344 27.527344 " fill-opacity="1" fill-rule="evenodd"/><g clip-path="url(#0971a9ceab)"><path fill="#925f3d" d="M 12.683594 29.765625 C 12.492188 29.765625 12.339844 29.609375 12.339844 29.421875 L 12.339844 25.632812 C 11.066406 26.148438 9.515625 26.496094 8.328125 26.496094 C 6.847656 26.496094 6.246094 25.769531 6.019531 25.339844 C 5.695312 24.738281 5.710938 24 6.074219 23.480469 C 6.105469 23.414062 6.140625 23.34375 6.125 23.308594 C 6.089844 23.207031 5.882812 23.050781 5.523438 22.929688 C 5.265625 22.84375 5.210938 22.671875 5.195312 22.585938 C 5.160156 22.328125 5.382812 22.191406 5.554688 22.085938 C 5.640625 22.035156 5.730469 21.984375 5.816406 21.914062 C 5.761719 21.898438 5.710938 21.882812 5.660156 21.882812 C 5.296875 21.761719 4.867188 21.640625 4.816406 21.261719 C 4.765625 20.882812 5.160156 20.625 5.316406 20.519531 C 5.539062 20.382812 5.660156 20.175781 5.640625 20.109375 C 5.640625 20.074219 5.523438 19.953125 5.125 19.867188 C 4.25 19.675781 3.714844 19.316406 3.558594 18.800781 C 3.386719 18.195312 3.730469 17.492188 4.59375 16.648438 C 5.675781 15.5625 6.125 14.910156 6.296875 14.617188 C 6.3125 14.546875 6.175781 14.238281 6.089844 14.03125 C 5.882812 13.53125 5.589844 12.859375 5.574219 12.050781 C 5.503906 7.351562 9.5 3.117188 14.492188 2.601562 C 14.679688 2.585938 14.664062 2.722656 14.679688 2.910156 C 14.714844 3.101562 14.75 3.273438 14.558594 3.289062 C 9.910156 3.753906 6.191406 7.695312 6.261719 12.035156 C 6.28125 12.722656 6.519531 13.292969 6.710938 13.757812 C 6.917969 14.238281 7.089844 14.632812 6.882812 14.960938 C 6.65625 15.355469 6.160156 16.046875 5.074219 17.128906 C 4.195312 17.992188 4.164062 18.421875 4.214844 18.609375 C 4.300781 18.851562 4.660156 19.058594 5.28125 19.195312 C 5.902344 19.316406 6.246094 19.589844 6.3125 19.988281 C 6.398438 20.453125 6.039062 20.867188 5.695312 21.089844 C 5.675781 21.105469 5.640625 21.125 5.625 21.140625 C 5.710938 21.175781 5.796875 21.191406 5.847656 21.210938 C 6.210938 21.3125 6.539062 21.417969 6.640625 21.726562 C 6.65625 21.8125 6.675781 22 6.503906 22.207031 C 6.417969 22.3125 6.3125 22.398438 6.210938 22.484375 C 6.453125 22.621094 6.675781 22.808594 6.761719 23.070312 C 6.832031 23.257812 6.863281 23.535156 6.640625 23.859375 C 6.46875 24.117188 6.398438 24.582031 6.625 25.015625 C 6.898438 25.53125 7.5 25.804688 8.328125 25.804688 C 9.566406 25.804688 11.289062 25.394531 12.546875 24.789062 C 12.648438 24.738281 12.769531 24.753906 12.871094 24.808594 C 12.976562 24.875 13.027344 24.980469 13.027344 25.101562 L 13.027344 29.421875 C 13.027344 29.609375 12.871094 29.765625 12.683594 29.765625 Z M 22.703125 24.480469 C 22.527344 24.480469 22.410156 24.480469 22.375 24.308594 C 22.152344 23 21.789062 19.730469 23.390625 17.492188 C 24.921875 15.304688 25.164062 12.292969 24.007812 9.417969 C 22.769531 6.269531 20.1875 4.011719 17.125 3.410156 L 16.726562 3.34375 C 16.539062 3.308594 16.539062 3.152344 16.574219 2.964844 C 16.589844 2.773438 16.660156 2.636719 16.847656 2.671875 C 16.988281 2.6875 17.125 2.703125 17.261719 2.738281 C 20.550781 3.394531 23.320312 5.785156 24.664062 9.160156 C 25.886719 12.257812 25.628906 15.511719 23.957031 17.886719 C 22.511719 19.917969 22.839844 22.984375 23.0625 24.1875 C 23.097656 24.378906 22.941406 24.445312 22.753906 24.480469 C 22.734375 24.480469 22.71875 24.480469 22.703125 24.480469 Z M 22.703125 24.480469 " fill-opacity="1" fill-rule="evenodd"/></g></svg>