<svg xmlns="http://www.w3.org/2000/svg" xmlns:xlink="http://www.w3.org/1999/xlink" width="40" zoomAndPan="magnify" viewBox="0 0 30 30.000001" height="40" preserveAspectRatio="xMidYMid meet" version="1.0"><defs><clipPath id="787a7d68a1"><path d="M 0.484375 0 L 29.515625 0 L 29.515625 29.03125 L 0.484375 29.03125 Z M 0.484375 0 " clip-rule="nonzero"/></clipPath><clipPath id="447fbe37ee"><path d="M 2.695312 6.179688 L 27.375 6.179688 L 27.375 28.679688 L 2.695312 28.679688 Z M 2.695312 6.179688 " clip-rule="nonzero"/></clipPath><clipPath id="2bbefa64e4"><path d="M 2 6 L 6.871094 6 L 6.871094 11.859375 L 2 11.859375 Z M 2 6 " clip-rule="nonzero"/></clipPath><clipPath id="f170b1228e"><path d="M 1.789062 5 L 6.871094 5 L 6.871094 10 L 1.789062 10 Z M 1.789062 5 " clip-rule="nonzero"/></clipPath><clipPath id="ef9a7f5167"><path d="M 5 3.875 L 6.871094 3.875 L 6.871094 6 L 5 6 Z M 5 3.875 " clip-rule="nonzero"/></clipPath><clipPath id="d70ccb116d"><path d="M 21 0.265625 L 28 0.265625 L 28 5.34375 L 21 5.34375 Z M 21 0.265625 " clip-rule="nonzero"/></clipPath><clipPath id="32b4bb427b"><path d="M 27 0.265625 L 29.292969 0.265625 L 29.292969 3 L 27 3 Z M 27 0.265625 " clip-rule="nonzero"/></clipPath></defs><g clip-path="url(#787a7d68a1)"><path fill="#ffffff" d="M 0.484375 0 L 29.515625 0 L 29.515625 29.03125 L 0.484375 29.03125 Z M 0.484375 0 " fill-opacity="1" fill-rule="nonzero"/><path fill="#ffffff" d="M 0.484375 0 L 29.515625 0 L 29.515625 29.03125 L 0.484375 29.03125 Z M 0.484375 0 " fill-opacity="1" fill-rule="nonzero"/></g><g clip-path="url(#447fbe37ee)"><path fill="#925f3d" d="M 3.203125 18.59375 L 6.226562 18.59375 C 6.503906 18.59375 6.726562 18.820312 6.726562 19.09375 L 6.726562 28.527344 C 6.726562 28.800781 6.503906 29.027344 6.226562 29.027344 L 3.203125 29.027344 C 2.925781 29.027344 2.703125 28.800781 2.703125 28.527344 L 2.703125 19.09375 C 2.703125 18.820312 2.925781 18.59375 3.203125 18.59375 Z M 4.714844 12.949219 C 5.15625 12.949219 5.554688 13.121094 5.851562 13.402344 L 9.953125 11.136719 C 9.929688 11.03125 9.917969 10.925781 9.917969 10.8125 C 9.917969 9.902344 10.65625 9.164062 11.570312 9.164062 C 12.429688 9.164062 13.136719 9.828125 13.210938 10.667969 L 16.996094 11.511719 C 17.28125 11.023438 17.8125 10.691406 18.421875 10.691406 C 18.816406 10.691406 19.179688 10.828125 19.460938 11.058594 L 23.6875 8.277344 C 23.648438 8.132812 23.628906 7.984375 23.628906 7.828125 C 23.628906 6.914062 24.367188 6.175781 25.277344 6.175781 C 26.1875 6.175781 26.925781 6.914062 26.925781 7.828125 C 26.925781 8.738281 26.1875 9.476562 25.277344 9.476562 C 24.882812 9.476562 24.519531 9.335938 24.238281 9.105469 L 20.007812 11.890625 C 20.050781 12.035156 20.070312 12.183594 20.070312 12.339844 C 20.070312 13.25 19.332031 13.988281 18.421875 13.988281 C 17.558594 13.988281 16.851562 13.328125 16.78125 12.484375 L 12.996094 11.640625 C 12.710938 12.132812 12.179688 12.460938 11.570312 12.460938 C 11.128906 12.460938 10.730469 12.289062 10.433594 12.011719 L 6.332031 14.273438 C 6.351562 14.378906 6.363281 14.488281 6.363281 14.597656 C 6.363281 15.507812 5.625 16.246094 4.714844 16.246094 C 3.804688 16.246094 3.066406 15.507812 3.066406 14.597656 C 3.066406 13.6875 3.804688 12.949219 4.714844 12.949219 Z M 23.765625 11.824219 C 23.488281 11.824219 23.265625 12.050781 23.265625 12.324219 L 23.265625 28.527344 C 23.265625 28.800781 23.488281 29.027344 23.765625 29.027344 L 26.789062 29.027344 C 27.0625 29.027344 27.289062 28.800781 27.289062 28.527344 L 27.289062 12.324219 C 27.289062 12.050781 27.0625 11.824219 26.789062 11.824219 Z M 16.910156 16.339844 C 17.917969 16.339844 18.925781 16.339844 19.933594 16.339844 C 20.210938 16.339844 20.433594 16.5625 20.433594 16.835938 C 20.433594 20.734375 20.433594 24.628906 20.433594 28.527344 C 20.433594 28.800781 20.210938 29.027344 19.933594 29.027344 C 18.925781 29.027344 17.917969 29.027344 16.910156 29.027344 C 16.636719 29.027344 16.410156 28.800781 16.410156 28.527344 C 16.410156 24.628906 16.410156 20.734375 16.410156 16.835938 C 16.410156 16.5625 16.636719 16.339844 16.910156 16.339844 Z M 10.054688 14.8125 C 9.78125 14.8125 9.558594 15.035156 9.558594 15.3125 C 9.558594 19.714844 9.558594 24.121094 9.558594 28.527344 C 9.558594 28.800781 9.78125 29.027344 10.054688 29.027344 C 11.066406 29.027344 12.074219 29.027344 13.082031 29.027344 C 13.355469 29.027344 13.582031 28.800781 13.582031 28.527344 C 13.582031 24.121094 13.582031 19.714844 13.582031 15.3125 C 13.582031 15.035156 13.355469 14.8125 13.082031 14.8125 C 12.074219 14.8125 11.066406 14.8125 10.054688 14.8125 Z M 10.054688 14.8125 " fill-opacity="1" fill-rule="evenodd"/></g><g clip-path="url(#2bbefa64e4)"><path fill="#925f3d" d="M 5.695312 8.292969 C 5.640625 8.410156 5.582031 8.523438 5.523438 8.628906 C 5.460938 8.933594 5.304688 9.257812 5.023438 9.582031 C 4.386719 10.3125 3.230469 10.335938 2.488281 10.027344 C 3.128906 11.058594 4.210938 11.90625 4.210938 11.90625 C 4.210938 11.90625 6.632812 10.011719 6.632812 8.078125 C 6.632812 7.523438 6.445312 7.011719 6.132812 6.605469 C 6.058594 7.246094 5.910156 7.8125 5.695312 8.292969 Z M 5.695312 8.292969 " fill-opacity="1" fill-rule="nonzero"/></g><g clip-path="url(#f170b1228e)"><path fill="#925f3d" d="M 3.648438 9.703125 C 4.03125 9.695312 4.386719 9.570312 4.699219 9.335938 C 4.867188 9.210938 5.023438 9.054688 5.167969 8.871094 C 5.308594 8.683594 5.4375 8.46875 5.546875 8.226562 C 5.765625 7.738281 5.917969 7.140625 5.988281 6.433594 C 6.015625 6.109375 6.027344 5.765625 6.023438 5.402344 C 5.949219 5.683594 5.867188 5.964844 5.777344 6.234375 C 5.628906 6.6875 5.453125 7.113281 5.253906 7.472656 C 4.945312 8.023438 4.574219 8.414062 4.132812 8.484375 C 3.015625 8.664062 2.949219 7 4.140625 6.933594 C 4.503906 6.914062 4.871094 7.070312 5.140625 7.34375 C 5.3125 7.027344 5.472656 6.636719 5.625 6.183594 C 5.628906 6.164062 5.636719 6.144531 5.644531 6.125 C 5.242188 5.832031 4.746094 5.65625 4.210938 5.65625 C 2.875 5.65625 1.792969 6.742188 1.792969 8.078125 C 1.792969 8.09375 1.792969 8.183594 1.796875 8.230469 C 1.910156 9.25 2.703125 9.730469 3.648438 9.703125 Z M 3.648438 9.703125 " fill-opacity="1" fill-rule="nonzero"/></g><g clip-path="url(#ef9a7f5167)"><path fill="#925f3d" d="M 6.042969 4.734375 L 6.234375 5.671875 L 6.789062 5.703125 L 6.09375 3.875 L 5.191406 5.609375 L 5.746094 5.644531 Z M 6.042969 4.734375 " fill-opacity="1" fill-rule="nonzero"/></g><g clip-path="url(#d70ccb116d)"><path fill="#925f3d" d="M 27.082031 2.503906 C 27.117188 2.726562 27.125 2.957031 27.097656 3.191406 C 26.9375 4.558594 25.699219 5.53125 24.335938 5.371094 C 23.230469 5.242188 22.382812 4.410156 22.179688 3.375 C 22.183594 3.375 24.933594 3.875 27.082031 2.503906 M 21.34375 2.78125 C 20.582031 2.34375 21.226562 1.796875 21.957031 1.761719 C 21.769531 1.824219 20.933594 2.390625 22.125 2.726562 C 22.132812 2.726562 22.136719 2.730469 22.144531 2.730469 C 22.148438 2.691406 22.152344 2.652344 22.152344 2.609375 C 22.3125 1.246094 23.550781 0.269531 24.917969 0.429688 C 26 0.554688 26.839844 1.363281 27.058594 2.371094 C 26.566406 2.707031 25.546875 3.007812 24.492188 3.117188 C 23.25 3.246094 21.945312 3.128906 21.34375 2.78125 Z M 21.34375 2.78125 " fill-opacity="1" fill-rule="evenodd"/></g><g clip-path="url(#32b4bb427b)"><path fill="#925f3d" d="M 27.746094 0.96875 C 28 1.105469 28.410156 1.371094 28.574219 1.292969 C 28.699219 1.230469 28.828125 1.167969 28.953125 1.101562 C 29.359375 0.90625 29.507812 1.242188 29.164062 1.472656 L 28.84375 1.695312 C 28.695312 1.800781 28.714844 2.234375 28.726562 2.523438 C 28.730469 2.652344 28.683594 2.726562 28.617188 2.769531 C 28.585938 2.792969 28.570312 2.789062 28.558594 2.75 C 28.492188 2.496094 28.429688 2.242188 28.363281 1.988281 C 28.351562 1.9375 28.335938 1.914062 28.285156 1.941406 C 28.105469 2.027344 27.929688 2.113281 27.75 2.199219 C 27.738281 2.207031 27.730469 2.214844 27.734375 2.230469 C 27.757812 2.394531 27.734375 2.570312 27.621094 2.632812 C 27.59375 2.648438 27.578125 2.648438 27.574219 2.617188 C 27.558594 2.511719 27.554688 2.375 27.539062 2.277344 C 27.460938 2.296875 27.421875 2.234375 27.464844 2.175781 L 27.183594 2.027344 C 27.121094 1.992188 27.15625 1.957031 27.207031 1.941406 C 27.316406 1.910156 27.46875 1.960938 27.589844 2.027344 C 27.609375 2.035156 27.617188 2.039062 27.636719 2.023438 L 28.128906 1.628906 C 28.167969 1.597656 28.15625 1.585938 28.121094 1.558594 L 27.46875 1.023438 C 27.433594 0.996094 27.441406 0.976562 27.484375 0.960938 C 27.570312 0.925781 27.640625 0.910156 27.746094 0.96875 " fill-opacity="1" fill-rule="evenodd"/></g></svg>