<svg xmlns="http://www.w3.org/2000/svg" xmlns:xlink="http://www.w3.org/1999/xlink" width="40" zoomAndPan="magnify" viewBox="0 0 30 30.000001" height="40" preserveAspectRatio="xMidYMid meet" version="1.0"><defs><clipPath id="5d28d8cb2c"><path d="M 0.484375 0 L 29.515625 0 L 29.515625 29.03125 L 0.484375 29.03125 Z M 0.484375 0 " clip-rule="nonzero"/></clipPath></defs><g clip-path="url(#5d28d8cb2c)"><path fill="#ffffff" d="M 0.484375 0 L 29.515625 0 L 29.515625 29.03125 L 0.484375 29.03125 Z M 0.484375 0 " fill-opacity="1" fill-rule="nonzero"/><path fill="#ffffff" d="M 0.484375 0 L 29.515625 0 L 29.515625 29.03125 L 0.484375 29.03125 Z M 0.484375 0 " fill-opacity="1" fill-rule="nonzero"/><path fill="#925f3d" d="M 26.453125 0 L 3.546875 0 C 3.140625 0 2.75 0.078125 2.375 0.234375 C 2 0.390625 1.667969 0.609375 1.382812 0.898438 C 1.09375 1.183594 0.875 1.515625 0.71875 1.890625 C 0.5625 2.265625 0.484375 2.65625 0.484375 3.0625 L 0.484375 25.96875 C 0.484375 26.375 0.5625 26.765625 0.71875 27.140625 C 0.875 27.515625 1.09375 27.847656 1.382812 28.132812 C 1.667969 28.421875 2 28.644531 2.375 28.796875 C 2.75 28.953125 3.140625 29.03125 3.546875 29.03125 L 26.453125 29.03125 C 26.859375 29.03125 27.25 28.953125 27.625 28.796875 C 28 28.644531 28.332031 28.421875 28.617188 28.132812 C 28.90625 27.847656 29.125 27.515625 29.28125 27.140625 C 29.4375 26.765625 29.515625 26.375 29.515625 25.96875 L 29.515625 3.0625 C 29.515625 2.65625 29.4375 2.265625 29.28125 1.890625 C 29.125 1.515625 28.90625 1.183594 28.617188 0.898438 C 28.332031 0.609375 28 0.390625 27.625 0.234375 C 27.25 0.078125 26.859375 0 26.453125 0 Z M 28.835938 25.96875 C 28.835938 26.285156 28.773438 26.589844 28.652344 26.882812 C 28.53125 27.171875 28.359375 27.429688 28.136719 27.652344 C 27.914062 27.875 27.65625 28.050781 27.363281 28.167969 C 27.074219 28.289062 26.769531 28.351562 26.453125 28.351562 L 3.546875 28.351562 C 3.230469 28.351562 2.925781 28.289062 2.636719 28.167969 C 2.34375 28.050781 2.085938 27.875 1.863281 27.652344 C 1.640625 27.429688 1.46875 27.171875 1.347656 26.882812 C 1.226562 26.589844 1.164062 26.285156 1.164062 25.96875 L 1.164062 6.804688 L 28.835938 6.804688 Z M 28.835938 6.125 L 1.164062 6.125 L 1.164062 3.0625 C 1.164062 2.746094 1.226562 2.441406 1.347656 2.152344 C 1.46875 1.859375 1.640625 1.601562 1.863281 1.378906 C 2.085938 1.15625 2.34375 0.984375 2.636719 0.863281 C 2.925781 0.742188 3.230469 0.679688 3.546875 0.679688 L 26.453125 0.679688 C 26.769531 0.679688 27.074219 0.742188 27.363281 0.863281 C 27.65625 0.984375 27.914062 1.15625 28.136719 1.378906 C 28.359375 1.601562 28.53125 1.859375 28.652344 2.152344 C 28.773438 2.441406 28.835938 2.746094 28.835938 3.0625 Z M 28.835938 6.125 " fill-opacity="1" fill-rule="nonzero"/></g><path fill="#925f3d" d="M 10.179688 22.824219 C 10.433594 22.824219 10.6875 22.796875 10.9375 22.746094 C 11.1875 22.699219 11.429688 22.625 11.664062 22.527344 C 11.902344 22.429688 12.125 22.308594 12.335938 22.167969 C 12.550781 22.027344 12.746094 21.863281 12.925781 21.683594 C 13.105469 21.503906 13.265625 21.308594 13.410156 21.097656 C 13.550781 20.882812 13.667969 20.660156 13.765625 20.425781 C 13.867188 20.1875 13.9375 19.945312 13.988281 19.695312 C 14.039062 19.445312 14.0625 19.195312 14.0625 18.9375 L 14.0625 12.984375 C 14.0625 12.808594 14.03125 12.636719 13.964844 12.476562 C 13.894531 12.3125 13.800781 12.167969 13.675781 12.042969 C 13.550781 11.917969 13.40625 11.820312 13.242188 11.753906 C 13.078125 11.6875 12.910156 11.652344 12.730469 11.652344 C 12.554688 11.652344 12.386719 11.6875 12.222656 11.753906 C 12.058594 11.820312 11.914062 11.917969 11.789062 12.042969 C 11.664062 12.167969 11.570312 12.3125 11.5 12.476562 C 11.433594 12.636719 11.398438 12.808594 11.398438 12.984375 L 11.398438 18.9375 C 11.398438 19.101562 11.367188 19.257812 11.304688 19.40625 C 11.246094 19.554688 11.15625 19.6875 11.042969 19.800781 C 10.929688 19.914062 10.796875 20.003906 10.648438 20.066406 C 10.496094 20.128906 10.34375 20.15625 10.179688 20.15625 C 10.019531 20.15625 9.863281 20.128906 9.714844 20.066406 C 9.5625 20.003906 9.433594 19.914062 9.316406 19.800781 C 9.203125 19.6875 9.117188 19.554688 9.054688 19.40625 C 8.992188 19.257812 8.960938 19.101562 8.960938 18.9375 L 8.960938 12.984375 C 8.960938 12.808594 8.925781 12.636719 8.859375 12.476562 C 8.792969 12.3125 8.695312 12.167969 8.570312 12.042969 C 8.445312 11.917969 8.300781 11.820312 8.136719 11.753906 C 7.976562 11.6875 7.804688 11.652344 7.628906 11.652344 C 7.453125 11.652344 7.28125 11.6875 7.117188 11.753906 C 6.957031 11.820312 6.8125 11.917969 6.6875 12.042969 C 6.5625 12.167969 6.464844 12.3125 6.398438 12.476562 C 6.328125 12.636719 6.296875 12.808594 6.296875 12.984375 L 6.296875 18.9375 C 6.296875 19.195312 6.320312 19.445312 6.371094 19.695312 C 6.421875 19.945312 6.496094 20.1875 6.59375 20.425781 C 6.691406 20.660156 6.808594 20.882812 6.953125 21.097656 C 7.09375 21.308594 7.253906 21.503906 7.433594 21.683594 C 7.613281 21.863281 7.8125 22.027344 8.023438 22.167969 C 8.234375 22.308594 8.457031 22.429688 8.695312 22.527344 C 8.929688 22.625 9.171875 22.699219 9.421875 22.746094 C 9.671875 22.796875 9.925781 22.824219 10.179688 22.824219 Z M 6.976562 12.984375 C 6.976562 12.804688 7.039062 12.652344 7.167969 12.523438 C 7.292969 12.398438 7.449219 12.332031 7.628906 12.332031 C 7.808594 12.332031 7.960938 12.398438 8.089844 12.523438 C 8.21875 12.652344 8.28125 12.804688 8.28125 12.984375 L 8.28125 18.9375 C 8.28125 19.191406 8.328125 19.433594 8.425781 19.664062 C 8.523438 19.898438 8.660156 20.105469 8.835938 20.28125 C 9.015625 20.460938 9.21875 20.597656 9.453125 20.695312 C 9.6875 20.789062 9.929688 20.839844 10.179688 20.839844 C 10.433594 20.839844 10.675781 20.789062 10.90625 20.695312 C 11.140625 20.597656 11.34375 20.460938 11.523438 20.28125 C 11.703125 20.105469 11.839844 19.898438 11.933594 19.664062 C 12.03125 19.433594 12.078125 19.191406 12.078125 18.9375 L 12.078125 12.984375 C 12.078125 12.804688 12.144531 12.652344 12.269531 12.523438 C 12.398438 12.398438 12.550781 12.332031 12.730469 12.332031 C 12.910156 12.332031 13.066406 12.398438 13.191406 12.523438 C 13.320312 12.652344 13.382812 12.804688 13.382812 12.984375 L 13.382812 18.9375 C 13.382812 19.363281 13.300781 19.773438 13.140625 20.164062 C 12.976562 20.558594 12.746094 20.902344 12.445312 21.203125 C 12.144531 21.503906 11.796875 21.734375 11.40625 21.898438 C 11.015625 22.0625 10.605469 22.144531 10.179688 22.144531 C 9.753906 22.144531 9.347656 22.0625 8.953125 21.898438 C 8.5625 21.734375 8.214844 21.503906 7.914062 21.203125 C 7.613281 20.902344 7.382812 20.558594 7.21875 20.164062 C 7.058594 19.773438 6.976562 19.363281 6.976562 18.9375 Z M 6.976562 12.984375 " fill-opacity="1" fill-rule="nonzero"/><path fill="#925f3d" d="M 4 2.496094 C 3.863281 2.496094 3.734375 2.519531 3.609375 2.574219 C 3.484375 2.625 3.375 2.699219 3.277344 2.792969 C 3.183594 2.890625 3.109375 3 3.054688 3.125 C 3.003906 3.25 2.980469 3.378906 2.980469 3.515625 C 2.980469 3.652344 3.003906 3.78125 3.054688 3.90625 C 3.109375 4.03125 3.183594 4.140625 3.277344 4.238281 C 3.375 4.332031 3.484375 4.40625 3.609375 4.457031 C 3.734375 4.511719 3.863281 4.535156 4 4.535156 C 4.136719 4.535156 4.265625 4.511719 4.390625 4.457031 C 4.515625 4.40625 4.625 4.332031 4.722656 4.238281 C 4.816406 4.140625 4.890625 4.03125 4.941406 3.90625 C 4.996094 3.78125 5.019531 3.652344 5.019531 3.515625 C 5.019531 3.378906 4.992188 3.25 4.941406 3.125 C 4.890625 3 4.816406 2.890625 4.722656 2.792969 C 4.625 2.699219 4.515625 2.625 4.390625 2.574219 C 4.265625 2.519531 4.136719 2.496094 4 2.496094 Z M 4 3.855469 C 3.90625 3.855469 3.824219 3.824219 3.757812 3.757812 C 3.691406 3.691406 3.660156 3.609375 3.660156 3.515625 C 3.660156 3.421875 3.691406 3.339844 3.757812 3.273438 C 3.824219 3.207031 3.90625 3.175781 4 3.175781 C 4.09375 3.175781 4.171875 3.207031 4.238281 3.273438 C 4.304688 3.339844 4.339844 3.421875 4.339844 3.515625 C 4.339844 3.609375 4.304688 3.691406 4.238281 3.757812 C 4.171875 3.824219 4.09375 3.855469 4 3.855469 Z M 4 3.855469 " fill-opacity="1" fill-rule="nonzero"/><path fill="#925f3d" d="M 11.257812 2.496094 C 11.121094 2.496094 10.992188 2.519531 10.867188 2.574219 C 10.742188 2.625 10.632812 2.699219 10.535156 2.792969 C 10.441406 2.890625 10.367188 3 10.316406 3.125 C 10.261719 3.25 10.238281 3.378906 10.238281 3.515625 C 10.238281 3.652344 10.261719 3.78125 10.316406 3.90625 C 10.367188 4.03125 10.441406 4.140625 10.535156 4.238281 C 10.632812 4.332031 10.742188 4.40625 10.867188 4.457031 C 10.992188 4.511719 11.121094 4.535156 11.257812 4.535156 C 11.394531 4.535156 11.523438 4.511719 11.648438 4.457031 C 11.773438 4.40625 11.882812 4.332031 11.980469 4.238281 C 12.074219 4.140625 12.148438 4.03125 12.199219 3.90625 C 12.253906 3.78125 12.277344 3.652344 12.277344 3.515625 C 12.277344 3.378906 12.253906 3.25 12.199219 3.125 C 12.148438 3 12.074219 2.890625 11.980469 2.792969 C 11.882812 2.699219 11.773438 2.625 11.648438 2.574219 C 11.523438 2.519531 11.394531 2.496094 11.257812 2.496094 Z M 11.257812 3.855469 C 11.164062 3.855469 11.082031 3.824219 11.015625 3.757812 C 10.949219 3.691406 10.917969 3.609375 10.917969 3.515625 C 10.917969 3.421875 10.949219 3.339844 11.015625 3.273438 C 11.082031 3.207031 11.164062 3.175781 11.257812 3.175781 C 11.351562 3.175781 11.433594 3.207031 11.5 3.273438 C 11.566406 3.339844 11.597656 3.421875 11.597656 3.515625 C 11.597656 3.609375 11.5625 3.691406 11.496094 3.757812 C 11.429688 3.824219 11.351562 3.855469 11.257812 3.855469 Z M 11.257812 3.855469 " fill-opacity="1" fill-rule="nonzero"/><path fill="#925f3d" d="M 7.628906 2.496094 C 7.492188 2.496094 7.363281 2.519531 7.238281 2.574219 C 7.113281 2.625 7.003906 2.699219 6.90625 2.792969 C 6.8125 2.890625 6.738281 3 6.6875 3.125 C 6.632812 3.25 6.609375 3.378906 6.609375 3.515625 C 6.609375 3.652344 6.632812 3.78125 6.6875 3.90625 C 6.738281 4.03125 6.8125 4.140625 6.90625 4.238281 C 7.003906 4.332031 7.113281 4.40625 7.238281 4.457031 C 7.363281 4.511719 7.492188 4.535156 7.628906 4.535156 C 7.765625 4.535156 7.894531 4.511719 8.019531 4.457031 C 8.144531 4.40625 8.253906 4.332031 8.351562 4.238281 C 8.445312 4.140625 8.519531 4.03125 8.570312 3.90625 C 8.625 3.78125 8.648438 3.652344 8.648438 3.515625 C 8.648438 3.378906 8.625 3.25 8.570312 3.125 C 8.519531 3 8.445312 2.890625 8.351562 2.792969 C 8.253906 2.699219 8.144531 2.625 8.019531 2.574219 C 7.894531 2.519531 7.765625 2.496094 7.628906 2.496094 Z M 7.628906 3.855469 C 7.535156 3.855469 7.453125 3.824219 7.386719 3.757812 C 7.320312 3.691406 7.289062 3.609375 7.289062 3.515625 C 7.289062 3.421875 7.320312 3.339844 7.386719 3.273438 C 7.453125 3.207031 7.535156 3.175781 7.628906 3.175781 C 7.722656 3.175781 7.800781 3.207031 7.867188 3.273438 C 7.933594 3.339844 7.96875 3.421875 7.96875 3.515625 C 7.96875 3.609375 7.933594 3.691406 7.867188 3.757812 C 7.800781 3.824219 7.722656 3.855469 7.628906 3.855469 Z M 7.628906 3.855469 " fill-opacity="1" fill-rule="nonzero"/><path fill="#925f3d" d="M 25.773438 2.496094 L 22.144531 2.496094 C 22.007812 2.496094 21.878906 2.519531 21.753906 2.574219 C 21.628906 2.625 21.519531 2.699219 21.421875 2.792969 C 21.328125 2.890625 21.253906 3 21.203125 3.125 C 21.148438 3.25 21.125 3.378906 21.125 3.515625 C 21.125 3.652344 21.148438 3.78125 21.203125 3.90625 C 21.253906 4.03125 21.328125 4.140625 21.421875 4.238281 C 21.519531 4.332031 21.628906 4.40625 21.753906 4.457031 C 21.878906 4.511719 22.007812 4.535156 22.144531 4.535156 L 25.773438 4.535156 C 25.910156 4.535156 26.039062 4.511719 26.164062 4.457031 C 26.289062 4.40625 26.398438 4.332031 26.496094 4.238281 C 26.589844 4.140625 26.664062 4.03125 26.714844 3.90625 C 26.769531 3.78125 26.792969 3.652344 26.792969 3.515625 C 26.792969 3.378906 26.769531 3.25 26.714844 3.125 C 26.664062 3 26.589844 2.890625 26.496094 2.792969 C 26.398438 2.699219 26.289062 2.625 26.164062 2.574219 C 26.039062 2.519531 25.910156 2.496094 25.773438 2.496094 Z M 25.773438 3.855469 L 22.144531 3.855469 C 22.050781 3.855469 21.96875 3.824219 21.902344 3.757812 C 21.835938 3.691406 21.804688 3.609375 21.804688 3.515625 C 21.804688 3.421875 21.835938 3.339844 21.902344 3.273438 C 21.96875 3.207031 22.050781 3.175781 22.144531 3.175781 L 25.773438 3.175781 C 25.867188 3.175781 25.949219 3.207031 26.015625 3.273438 C 26.082031 3.339844 26.113281 3.421875 26.113281 3.515625 C 26.113281 3.609375 26.082031 3.691406 26.015625 3.757812 C 25.949219 3.824219 25.867188 3.855469 25.773438 3.855469 Z M 25.773438 3.855469 " fill-opacity="1" fill-rule="nonzero"/><path fill="#925f3d" d="M 18.300781 17.238281 L 16.171875 20.785156 C 15.8125 21.386719 15.960938 22.160156 16.507812 22.550781 C 17.101562 22.996094 18.019531 22.808594 18.382812 22.164062 L 19.820312 19.769531 L 21.257812 22.164062 C 21.621094 22.808594 22.542969 22.996094 23.132812 22.550781 C 23.679688 22.160156 23.824219 21.382812 23.464844 20.785156 L 21.339844 17.238281 L 23.472656 13.679688 C 23.804688 13.128906 23.707031 12.433594 23.25 12.019531 C 22.667969 11.46875 21.652344 11.621094 21.257812 12.3125 L 19.820312 14.707031 L 18.414062 12.359375 C 18.0625 11.761719 17.257812 11.5 16.648438 11.839844 C 16.003906 12.167969 15.765625 13.042969 16.152344 13.652344 Z M 16.972656 12.4375 C 17.257812 12.28125 17.648438 12.414062 17.828125 12.710938 L 19.527344 15.542969 C 19.558594 15.59375 19.601562 15.632812 19.652344 15.664062 C 19.703125 15.691406 19.761719 15.707031 19.820312 15.707031 C 19.878906 15.707031 19.933594 15.691406 19.988281 15.664062 C 20.039062 15.632812 20.082031 15.59375 20.113281 15.542969 L 21.839844 12.664062 C 21.886719 12.582031 21.953125 12.519531 22.03125 12.46875 C 22.109375 12.414062 22.191406 12.382812 22.285156 12.371094 C 22.378906 12.355469 22.46875 12.363281 22.558594 12.390625 C 22.648438 12.417969 22.726562 12.464844 22.796875 12.527344 C 23.011719 12.722656 23.050781 13.058594 22.890625 13.328125 L 20.648438 17.0625 C 20.578125 17.179688 20.578125 17.296875 20.648438 17.414062 L 22.882812 21.132812 C 23.0625 21.429688 22.996094 21.8125 22.734375 22 C 22.585938 22.101562 22.425781 22.136719 22.246094 22.101562 C 22.070312 22.0625 21.933594 21.96875 21.839844 21.8125 L 20.113281 18.933594 C 20.082031 18.882812 20.039062 18.84375 19.988281 18.8125 C 19.933594 18.785156 19.878906 18.769531 19.820312 18.769531 C 19.761719 18.769531 19.703125 18.785156 19.652344 18.8125 C 19.601562 18.84375 19.558594 18.882812 19.527344 18.933594 L 17.800781 21.8125 C 17.707031 21.96875 17.570312 22.0625 17.390625 22.101562 C 17.214844 22.136719 17.050781 22.101562 16.902344 21.996094 C 16.644531 21.8125 16.578125 21.433594 16.757812 21.136719 L 18.988281 17.414062 C 19.058594 17.296875 19.058594 17.179688 18.988281 17.0625 L 16.734375 13.304688 C 16.644531 13.152344 16.621094 12.988281 16.667969 12.820312 C 16.714844 12.648438 16.816406 12.519531 16.972656 12.4375 Z M 16.972656 12.4375 " fill-opacity="1" fill-rule="nonzero"/></svg>