<svg xmlns="http://www.w3.org/2000/svg" xmlns:xlink="http://www.w3.org/1999/xlink" width="40" zoomAndPan="magnify" viewBox="0 0 30 30.000001" height="40" preserveAspectRatio="xMidYMid meet" version="1.0"><defs><clipPath id="dc2ebd415c"><path d="M 0.484375 0 L 29.515625 0 L 29.515625 29.03125 L 0.484375 29.03125 Z M 0.484375 0 " clip-rule="nonzero"/></clipPath><clipPath id="b67c2b4f02"><path d="M 1.242188 1.550781 L 28.824219 1.550781 L 28.824219 29.03125 L 1.242188 29.03125 Z M 1.242188 1.550781 " clip-rule="nonzero"/></clipPath></defs><g clip-path="url(#dc2ebd415c)"><path fill="#ffffff" d="M 0.484375 0 L 29.515625 0 L 29.515625 29.03125 L 0.484375 29.03125 Z M 0.484375 0 " fill-opacity="1" fill-rule="nonzero"/><path fill="#ffffff" d="M 0.484375 0 L 29.515625 0 L 29.515625 29.03125 L 0.484375 29.03125 Z M 0.484375 0 " fill-opacity="1" fill-rule="nonzero"/></g><g clip-path="url(#b67c2b4f02)"><path fill="#925f3d" d="M 6.867188 15.722656 L 10.828125 15.722656 L 10.046875 17.058594 C 9.941406 17.242188 9.941406 17.457031 10.046875 17.636719 C 10.148438 17.816406 10.339844 17.929688 10.546875 17.929688 L 19.453125 17.929688 C 19.660156 17.929688 19.851562 17.816406 19.957031 17.636719 C 20.058594 17.457031 20.058594 17.242188 19.953125 17.058594 L 19.171875 15.722656 L 23.132812 15.722656 C 23.894531 15.722656 24.511719 15.101562 24.511719 14.34375 L 24.511719 2.929688 C 24.511719 2.167969 23.894531 1.550781 23.132812 1.550781 L 6.867188 1.550781 C 6.109375 1.550781 5.488281 2.167969 5.488281 2.929688 L 5.488281 14.34375 C 5.488281 15.101562 6.109375 15.722656 6.867188 15.722656 Z M 18.960938 17.066406 L 11.042969 17.066406 L 11.828125 15.722656 L 18.175781 15.722656 Z M 23.132812 14.859375 L 6.867188 14.859375 C 6.582031 14.859375 6.351562 14.628906 6.351562 14.34375 L 6.351562 14.132812 L 23.648438 14.132812 L 23.648438 14.34375 C 23.648438 14.628906 23.417969 14.859375 23.132812 14.859375 Z M 6.867188 2.414062 L 23.132812 2.414062 C 23.417969 2.414062 23.648438 2.644531 23.648438 2.929688 L 23.648438 13.273438 L 6.351562 13.273438 L 6.351562 2.929688 C 6.351562 2.644531 6.582031 2.414062 6.867188 2.414062 Z M 28.738281 26.640625 C 28.582031 24.539062 27.167969 22.789062 25.273438 22.109375 C 26.046875 21.5625 26.550781 20.664062 26.550781 19.648438 C 26.550781 17.980469 25.195312 16.625 23.527344 16.625 C 21.863281 16.625 20.507812 17.980469 20.507812 19.648438 C 20.507812 20.664062 21.011719 21.5625 21.78125 22.109375 C 20.429688 22.589844 19.316406 23.617188 18.734375 24.957031 C 18.183594 24.390625 17.503906 23.949219 16.746094 23.675781 C 17.519531 23.128906 18.023438 22.230469 18.023438 21.214844 C 18.023438 19.546875 16.667969 18.191406 15 18.191406 C 13.335938 18.191406 11.980469 19.546875 11.980469 21.214844 C 11.980469 22.230469 12.484375 23.128906 13.253906 23.675781 C 12.496094 23.949219 11.820312 24.390625 11.265625 24.957031 C 10.683594 23.617188 9.570312 22.589844 8.222656 22.109375 C 8.992188 21.5625 9.496094 20.664062 9.496094 19.648438 C 9.496094 17.980469 8.140625 16.625 6.472656 16.625 C 4.808594 16.625 3.453125 17.980469 3.453125 19.648438 C 3.453125 20.664062 3.957031 21.5625 4.726562 22.109375 C 2.832031 22.789062 1.421875 24.539062 1.261719 26.640625 C 1.246094 26.851562 1.320312 27.0625 1.464844 27.21875 C 1.609375 27.375 1.8125 27.460938 2.027344 27.460938 L 9.902344 27.460938 C 9.847656 27.703125 9.808594 27.953125 9.792969 28.207031 C 9.773438 28.417969 9.847656 28.628906 9.992188 28.785156 C 10.136719 28.941406 10.339844 29.027344 10.554688 29.027344 L 19.445312 29.027344 C 19.660156 29.027344 19.863281 28.941406 20.007812 28.785156 C 20.152344 28.628906 20.226562 28.417969 20.210938 28.207031 C 20.191406 27.953125 20.152344 27.703125 20.101562 27.460938 L 27.976562 27.460938 C 28.1875 27.460938 28.390625 27.375 28.535156 27.21875 C 28.679688 27.0625 28.753906 26.851562 28.738281 26.640625 Z M 21.367188 19.648438 C 21.367188 18.457031 22.335938 17.488281 23.527344 17.488281 C 24.71875 17.488281 25.6875 18.457031 25.6875 19.648438 C 25.6875 20.835938 24.71875 21.804688 23.527344 21.808594 C 22.335938 21.804688 21.367188 20.835938 21.367188 19.648438 Z M 12.839844 21.214844 C 12.839844 20.023438 13.808594 19.054688 15 19.054688 C 16.191406 19.054688 17.160156 20.023438 17.160156 21.214844 C 17.160156 22.40625 16.191406 23.375 15 23.375 C 13.808594 23.375 12.839844 22.40625 12.839844 21.214844 Z M 4.3125 19.648438 C 4.3125 18.457031 5.28125 17.488281 6.472656 17.488281 C 7.664062 17.488281 8.632812 18.457031 8.632812 19.648438 C 8.632812 20.835938 7.664062 21.804688 6.472656 21.808594 C 5.28125 21.804688 4.3125 20.835938 4.3125 19.648438 Z M 10.175781 26.601562 L 2.132812 26.601562 C 2.351562 24.386719 4.238281 22.667969 6.472656 22.667969 C 8.386719 22.667969 10.070312 23.921875 10.636719 25.734375 C 10.457031 26.007812 10.304688 26.296875 10.175781 26.601562 Z M 10.660156 28.167969 C 10.878906 25.953125 12.765625 24.234375 15 24.234375 C 17.234375 24.234375 19.121094 25.953125 19.34375 28.167969 Z M 19.824219 26.601562 C 19.699219 26.296875 19.542969 26.007812 19.363281 25.734375 C 19.929688 23.921875 21.617188 22.667969 23.527344 22.667969 C 25.761719 22.667969 27.648438 24.386719 27.871094 26.601562 Z M 7.976562 12.054688 L 14.480469 12.054688 C 14.667969 12.054688 14.851562 11.976562 14.976562 11.839844 C 15.105469 11.703125 15.167969 11.515625 15.15625 11.328125 C 15.042969 9.816406 14.066406 8.550781 12.738281 7.992188 C 13.238281 7.566406 13.554688 6.929688 13.554688 6.222656 C 13.554688 4.941406 12.511719 3.898438 11.230469 3.898438 C 9.945312 3.898438 8.902344 4.941406 8.902344 6.222656 C 8.902344 6.929688 9.222656 7.566406 9.722656 7.992188 C 8.390625 8.550781 7.417969 9.816406 7.304688 11.328125 C 7.289062 11.515625 7.355469 11.703125 7.480469 11.839844 C 7.609375 11.976562 7.789062 12.054688 7.976562 12.054688 Z M 11.230469 4.761719 C 12.035156 4.761719 12.691406 5.417969 12.691406 6.222656 C 12.691406 7.03125 12.035156 7.6875 11.230469 7.6875 C 10.421875 7.6875 9.765625 7.03125 9.765625 6.222656 C 9.765625 5.417969 10.421875 4.761719 11.230469 4.761719 Z M 11.230469 8.550781 C 12.761719 8.550781 14.0625 9.695312 14.273438 11.195312 L 8.183594 11.195312 C 8.398438 9.695312 9.695312 8.550781 11.230469 8.550781 Z M 15.171875 7.953125 L 15.28125 7.953125 L 15.28125 8.691406 C 15.28125 8.855469 15.371094 9.003906 15.515625 9.074219 C 15.578125 9.109375 15.644531 9.125 15.710938 9.125 C 15.800781 9.125 15.890625 9.097656 15.964844 9.042969 L 17.480469 7.953125 L 22.359375 7.953125 C 22.8125 7.953125 23.175781 7.585938 23.175781 7.136719 L 23.175781 3.984375 C 23.175781 3.53125 22.8125 3.167969 22.359375 3.167969 L 15.171875 3.167969 C 14.722656 3.167969 14.355469 3.53125 14.355469 3.984375 L 14.355469 7.136719 C 14.355469 7.585938 14.722656 7.953125 15.171875 7.953125 Z M 15.21875 4.027344 L 22.316406 4.027344 L 22.316406 7.089844 L 17.34375 7.089844 C 17.253906 7.089844 17.164062 7.117188 17.09375 7.171875 L 16.144531 7.851562 L 16.144531 7.519531 C 16.144531 7.285156 15.949219 7.089844 15.710938 7.089844 L 15.21875 7.089844 Z M 15.820312 4.851562 C 15.820312 4.613281 16.011719 4.417969 16.25 4.417969 L 21.28125 4.417969 C 21.519531 4.417969 21.714844 4.613281 21.714844 4.851562 C 21.714844 5.089844 21.519531 5.28125 21.28125 5.28125 L 16.25 5.28125 C 16.011719 5.28125 15.820312 5.089844 15.820312 4.851562 Z M 15.820312 6.269531 C 15.820312 6.03125 16.011719 5.835938 16.25 5.835938 L 21.28125 5.835938 C 21.519531 5.835938 21.714844 6.03125 21.714844 6.269531 C 21.714844 6.507812 21.519531 6.699219 21.28125 6.699219 L 16.25 6.699219 C 16.011719 6.699219 15.820312 6.507812 15.820312 6.269531 Z M 15.820312 6.269531 " fill-opacity="1" fill-rule="nonzero"/></g></svg>