<svg xmlns="http://www.w3.org/2000/svg" xmlns:xlink="http://www.w3.org/1999/xlink" width="40" zoomAndPan="magnify" viewBox="0 0 30 30.000001" height="40" preserveAspectRatio="xMidYMid meet" version="1.0"><defs><clipPath id="16b36f8ec0"><path d="M 0.484375 0 L 29.515625 0 L 29.515625 29.03125 L 0.484375 29.03125 Z M 0.484375 0 " clip-rule="nonzero"/></clipPath><clipPath id="e1ed44ad58"><path d="M 0.484375 1.542969 L 29.515625 1.542969 L 29.515625 27.671875 L 0.484375 27.671875 Z M 0.484375 1.542969 " clip-rule="nonzero"/></clipPath></defs><g clip-path="url(#16b36f8ec0)"><path fill="#ffffff" d="M 0.484375 0 L 29.515625 0 L 29.515625 29.03125 L 0.484375 29.03125 Z M 0.484375 0 " fill-opacity="1" fill-rule="nonzero"/><path fill="#ffffff" d="M 0.484375 0 L 29.515625 0 L 29.515625 29.03125 L 0.484375 29.03125 Z M 0.484375 0 " fill-opacity="1" fill-rule="nonzero"/></g><path fill="#925f3d" d="M 15.671875 18.71875 C 15.667969 18.46875 15.613281 18.230469 15.5 18.003906 L 17.902344 15.121094 C 18.023438 15.171875 18.148438 15.207031 18.277344 15.230469 C 18.40625 15.25 18.535156 15.253906 18.667969 15.246094 C 18.796875 15.234375 18.925781 15.210938 19.050781 15.171875 C 19.171875 15.128906 19.292969 15.074219 19.402344 15.007812 C 19.515625 14.9375 19.617188 14.859375 19.710938 14.765625 C 19.800781 14.675781 19.882812 14.570312 19.949219 14.460938 C 20.019531 14.347656 20.070312 14.230469 20.113281 14.105469 C 20.152344 13.980469 20.175781 13.855469 20.1875 13.722656 C 20.195312 13.59375 20.191406 13.464844 20.167969 13.335938 C 20.148438 13.203125 20.113281 13.082031 20.0625 12.960938 C 20.007812 12.839844 19.945312 12.726562 19.867188 12.621094 C 19.789062 12.515625 19.699219 12.421875 19.601562 12.339844 C 19.5 12.253906 19.390625 12.183594 19.273438 12.125 C 19.15625 12.066406 19.035156 12.023438 18.90625 11.996094 C 18.777344 11.964844 18.648438 11.953125 18.519531 11.953125 C 18.386719 11.957031 18.257812 11.972656 18.132812 12.003906 C 18.007812 12.039062 17.886719 12.085938 17.769531 12.148438 C 17.652344 12.207031 17.546875 12.28125 17.449219 12.367188 C 17.351562 12.457031 17.265625 12.550781 17.191406 12.660156 C 17.117188 12.765625 17.054688 12.882812 17.007812 13.003906 C 16.960938 13.125 16.925781 13.25 16.910156 13.382812 C 16.890625 13.511719 16.890625 13.640625 16.902344 13.769531 C 16.917969 13.902344 16.945312 14.027344 16.988281 14.152344 C 17.03125 14.273438 17.089844 14.390625 17.160156 14.5 L 14.828125 17.296875 C 14.542969 17.132812 14.234375 17.0625 13.902344 17.089844 C 13.570312 17.117188 13.277344 17.234375 13.019531 17.445312 L 11.371094 15.894531 C 11.421875 15.742188 11.445312 15.582031 11.449219 15.421875 C 11.445312 15.207031 11.402344 15 11.316406 14.804688 C 11.230469 14.605469 11.113281 14.433594 10.960938 14.28125 C 10.808594 14.132812 10.632812 14.015625 10.433594 13.933594 C 10.234375 13.855469 10.027344 13.8125 9.8125 13.8125 C 9.601562 13.8125 9.394531 13.855469 9.195312 13.933594 C 8.996094 14.015625 8.820312 14.132812 8.667969 14.28125 C 8.515625 14.433594 8.394531 14.605469 8.3125 14.804688 C 8.226562 15 8.183594 15.207031 8.179688 15.421875 C 8.179688 15.585938 8.207031 15.742188 8.257812 15.898438 L 4.832031 18.859375 C 4.570312 18.695312 4.285156 18.609375 3.976562 18.609375 C 3.738281 18.609375 3.511719 18.65625 3.292969 18.753906 C 3.078125 18.851562 2.890625 18.992188 2.734375 19.171875 C 2.578125 19.347656 2.464844 19.550781 2.398438 19.78125 C 2.328125 20.007812 2.308594 20.238281 2.34375 20.472656 C 2.375 20.710938 2.453125 20.929688 2.582031 21.128906 C 2.707031 21.328125 2.871094 21.496094 3.070312 21.625 C 3.269531 21.753906 3.484375 21.839844 3.722656 21.875 C 3.957031 21.910156 4.1875 21.894531 4.417969 21.832031 C 4.644531 21.765625 4.851562 21.65625 5.03125 21.503906 C 5.210938 21.351562 5.355469 21.164062 5.453125 20.949219 C 5.554688 20.734375 5.609375 20.507812 5.609375 20.273438 C 5.613281 20.035156 5.566406 19.804688 5.472656 19.589844 L 8.808594 16.703125 C 9.101562 16.9375 9.4375 17.054688 9.8125 17.054688 C 10.1875 17.054688 10.523438 16.9375 10.816406 16.703125 L 12.472656 18.261719 C 12.425781 18.410156 12.402344 18.5625 12.402344 18.71875 C 12.40625 18.933594 12.449219 19.140625 12.53125 19.335938 C 12.617188 19.535156 12.738281 19.707031 12.890625 19.859375 C 13.042969 20.007812 13.21875 20.125 13.417969 20.203125 C 13.613281 20.285156 13.820312 20.328125 14.035156 20.328125 C 14.25 20.328125 14.457031 20.285156 14.65625 20.203125 C 14.855469 20.125 15.03125 20.007812 15.183594 19.859375 C 15.335938 19.707031 15.453125 19.535156 15.539062 19.335938 C 15.625 19.140625 15.667969 18.933594 15.671875 18.71875 Z M 18.53125 12.945312 C 18.714844 12.945312 18.875 13.007812 19.003906 13.140625 C 19.136719 13.269531 19.199219 13.425781 19.199219 13.613281 C 19.199219 13.796875 19.136719 13.953125 19.003906 14.082031 C 18.875 14.214844 18.714844 14.28125 18.53125 14.28125 C 18.347656 14.28125 18.191406 14.214844 18.058594 14.082031 C 17.929688 13.953125 17.863281 13.796875 17.863281 13.613281 C 17.863281 13.425781 17.929688 13.269531 18.058594 13.140625 C 18.191406 13.007812 18.347656 12.945312 18.53125 12.945312 Z M 3.976562 20.914062 C 3.792969 20.914062 3.632812 20.847656 3.503906 20.71875 C 3.375 20.585938 3.308594 20.429688 3.308594 20.246094 C 3.308594 20.0625 3.375 19.902344 3.503906 19.773438 C 3.632812 19.644531 3.792969 19.578125 3.976562 19.578125 C 4.160156 19.578125 4.316406 19.644531 4.449219 19.773438 C 4.578125 19.902344 4.644531 20.0625 4.644531 20.246094 C 4.644531 20.429688 4.578125 20.585938 4.449219 20.71875 C 4.316406 20.847656 4.160156 20.914062 3.976562 20.914062 Z M 9.8125 16.089844 C 9.628906 16.089844 9.472656 16.023438 9.34375 15.894531 C 9.210938 15.761719 9.148438 15.605469 9.148438 15.421875 C 9.148438 15.234375 9.210938 15.078125 9.34375 14.949219 C 9.472656 14.816406 9.628906 14.753906 9.8125 14.753906 C 10 14.753906 10.15625 14.816406 10.285156 14.949219 C 10.417969 15.078125 10.480469 15.234375 10.480469 15.421875 C 10.480469 15.605469 10.417969 15.761719 10.285156 15.890625 C 10.15625 16.023438 10 16.089844 9.8125 16.089844 Z M 13.367188 18.71875 C 13.367188 18.535156 13.433594 18.378906 13.5625 18.246094 C 13.695312 18.117188 13.851562 18.050781 14.035156 18.050781 C 14.21875 18.050781 14.378906 18.117188 14.507812 18.246094 C 14.636719 18.378906 14.703125 18.535156 14.703125 18.71875 C 14.703125 18.902344 14.640625 19.0625 14.507812 19.191406 C 14.378906 19.320312 14.21875 19.386719 14.035156 19.386719 C 13.851562 19.386719 13.695312 19.320312 13.5625 19.191406 C 13.433594 19.0625 13.367188 18.902344 13.367188 18.71875 Z M 13.367188 18.71875 " fill-opacity="1" fill-rule="nonzero"/><path fill="#925f3d" d="M 3.0625 8.136719 L 12.1875 8.136719 C 12.324219 8.136719 12.4375 8.085938 12.53125 7.992188 C 12.625 7.898438 12.671875 7.785156 12.671875 7.652344 C 12.671875 7.515625 12.625 7.402344 12.53125 7.308594 C 12.4375 7.214844 12.324219 7.167969 12.1875 7.167969 L 3.0625 7.167969 C 2.929688 7.167969 2.816406 7.214844 2.722656 7.308594 C 2.625 7.402344 2.578125 7.515625 2.578125 7.652344 C 2.578125 7.785156 2.625 7.898438 2.722656 7.992188 C 2.816406 8.085938 2.929688 8.136719 3.0625 8.136719 Z M 3.0625 8.136719 " fill-opacity="1" fill-rule="nonzero"/><path fill="#925f3d" d="M 3.0625 10.257812 L 8.421875 10.257812 C 8.554688 10.257812 8.667969 10.210938 8.765625 10.117188 C 8.859375 10.023438 8.90625 9.90625 8.90625 9.773438 C 8.90625 9.640625 8.859375 9.527344 8.765625 9.433594 C 8.667969 9.335938 8.554688 9.289062 8.421875 9.289062 L 3.0625 9.289062 C 2.929688 9.289062 2.816406 9.335938 2.722656 9.433594 C 2.625 9.527344 2.578125 9.640625 2.578125 9.773438 C 2.578125 9.90625 2.625 10.023438 2.722656 10.117188 C 2.816406 10.210938 2.929688 10.257812 3.0625 10.257812 Z M 3.0625 10.257812 " fill-opacity="1" fill-rule="nonzero"/><path fill="#925f3d" d="M 3.0625 12.457031 L 4.84375 12.457031 C 4.980469 12.457031 5.09375 12.410156 5.1875 12.316406 C 5.28125 12.222656 5.328125 12.109375 5.328125 11.976562 C 5.328125 11.839844 5.28125 11.726562 5.1875 11.632812 C 5.09375 11.539062 4.980469 11.492188 4.84375 11.492188 L 3.0625 11.492188 C 2.929688 11.492188 2.816406 11.539062 2.722656 11.632812 C 2.625 11.726562 2.578125 11.839844 2.578125 11.976562 C 2.578125 12.109375 2.625 12.222656 2.722656 12.316406 C 2.816406 12.410156 2.929688 12.457031 3.0625 12.457031 Z M 3.0625 12.457031 " fill-opacity="1" fill-rule="nonzero"/><path fill="#925f3d" d="M 6.460938 11.492188 C 6.324219 11.492188 6.210938 11.539062 6.117188 11.632812 C 6.023438 11.726562 5.976562 11.839844 5.976562 11.976562 C 5.976562 12.109375 6.023438 12.222656 6.117188 12.316406 C 6.210938 12.410156 6.324219 12.457031 6.460938 12.457031 L 8.660156 12.457031 C 8.792969 12.457031 8.910156 12.410156 9.003906 12.316406 C 9.097656 12.222656 9.144531 12.109375 9.144531 11.976562 C 9.144531 11.839844 9.097656 11.726562 9.003906 11.632812 C 8.910156 11.539062 8.792969 11.492188 8.660156 11.492188 Z M 6.460938 11.492188 " fill-opacity="1" fill-rule="nonzero"/><g clip-path="url(#e1ed44ad58)"><path fill="#925f3d" d="M 25.300781 19.082031 L 25.300781 4.441406 C 25.300781 4.058594 25.226562 3.691406 25.078125 3.339844 C 24.933594 2.988281 24.722656 2.675781 24.453125 2.40625 C 24.183594 2.136719 23.871094 1.929688 23.519531 1.78125 C 23.167969 1.636719 22.800781 1.5625 22.417969 1.5625 L 21.96875 1.5625 C 21.835938 1.5625 21.71875 1.609375 21.625 1.703125 C 21.53125 1.800781 21.484375 1.914062 21.484375 2.046875 L 21.484375 4.917969 L 0.96875 4.917969 C 0.835938 4.917969 0.71875 4.964844 0.625 5.058594 C 0.53125 5.15625 0.484375 5.269531 0.484375 5.402344 L 0.484375 24.902344 C 0.484375 25.035156 0.53125 25.148438 0.625 25.246094 C 0.71875 25.339844 0.835938 25.386719 0.96875 25.386719 L 15.546875 25.386719 C 16.414062 26.082031 17.375 26.609375 18.429688 26.96875 C 19.484375 27.324219 20.566406 27.492188 21.675781 27.46875 C 25.269531 27.46875 28.402344 25.730469 29.476562 23.144531 C 29.527344 23.019531 29.527344 22.898438 29.476562 22.773438 C 28.792969 21.113281 27.257812 19.808594 25.300781 19.082031 Z M 25.222656 22.957031 C 25.222656 23.425781 25.132812 23.878906 24.949219 24.3125 C 24.769531 24.746094 24.515625 25.128906 24.183594 25.460938 C 23.851562 25.792969 23.46875 26.050781 23.03125 26.230469 C 22.597656 26.410156 22.148438 26.5 21.675781 26.5 C 21.207031 26.5 20.753906 26.410156 20.320312 26.230469 C 19.886719 26.050781 19.503906 25.792969 19.171875 25.460938 C 18.839844 25.128906 18.585938 24.746094 18.40625 24.3125 C 18.226562 23.878906 18.136719 23.425781 18.136719 22.957031 C 18.136719 22.488281 18.226562 22.035156 18.40625 21.601562 C 18.585938 21.167969 18.839844 20.785156 19.171875 20.453125 C 19.503906 20.117188 19.886719 19.863281 20.320312 19.683594 C 20.753906 19.503906 21.207031 19.414062 21.675781 19.414062 C 22.148438 19.414062 22.597656 19.503906 23.03125 19.683594 C 23.46875 19.863281 23.851562 20.121094 24.183594 20.453125 C 24.515625 20.785156 24.769531 21.167969 24.949219 21.601562 C 25.132812 22.035156 25.222656 22.488281 25.222656 22.957031 Z M 14.851562 22.957031 C 15.214844 22.28125 15.683594 21.695312 16.265625 21.199219 C 16.84375 20.699219 17.496094 20.324219 18.214844 20.066406 C 17.875 20.472656 17.617188 20.921875 17.4375 21.417969 C 17.257812 21.914062 17.164062 22.425781 17.164062 22.957031 C 17.164062 23.484375 17.257812 23.996094 17.4375 24.492188 C 17.617188 24.988281 17.875 25.4375 18.214844 25.84375 C 17.496094 25.589844 16.84375 25.210938 16.265625 24.714844 C 15.683594 24.21875 15.214844 23.632812 14.851562 22.957031 Z M 22.453125 2.53125 C 22.703125 2.535156 22.941406 2.585938 23.171875 2.683594 C 23.402344 2.785156 23.605469 2.921875 23.78125 3.101562 C 23.957031 3.28125 24.09375 3.484375 24.191406 3.714844 C 24.285156 3.949219 24.332031 4.191406 24.332031 4.441406 L 24.332031 18.777344 C 23.714844 18.617188 23.089844 18.519531 22.453125 18.476562 Z M 1.453125 5.886719 L 21.484375 5.886719 L 21.484375 18.449219 C 17.972656 18.511719 14.929688 20.230469 13.878906 22.773438 C 13.824219 22.898438 13.824219 23.019531 13.878906 23.144531 C 14.070312 23.601562 14.320312 24.027344 14.625 24.417969 L 1.453125 24.417969 Z M 25.140625 25.84375 C 25.480469 25.441406 25.738281 24.988281 25.917969 24.492188 C 26.097656 23.996094 26.1875 23.484375 26.1875 22.957031 C 26.1875 22.429688 26.097656 21.917969 25.917969 21.421875 C 25.738281 20.925781 25.480469 20.472656 25.140625 20.070312 C 25.859375 20.324219 26.511719 20.699219 27.09375 21.199219 C 27.671875 21.699219 28.140625 22.285156 28.503906 22.957031 C 28.140625 23.632812 27.671875 24.21875 27.089844 24.714844 C 26.511719 25.210938 25.859375 25.589844 25.140625 25.84375 Z M 25.140625 25.84375 " fill-opacity="1" fill-rule="nonzero"/></g><path fill="#925f3d" d="M 19.03125 22.957031 C 19.03125 23.308594 19.097656 23.644531 19.230469 23.96875 C 19.367188 24.292969 19.558594 24.582031 19.804688 24.828125 C 20.054688 25.078125 20.339844 25.269531 20.664062 25.402344 C 20.988281 25.539062 21.328125 25.605469 21.679688 25.605469 C 22.027344 25.605469 22.367188 25.539062 22.691406 25.402344 C 23.015625 25.269531 23.300781 25.078125 23.550781 24.828125 C 23.796875 24.582031 23.988281 24.292969 24.125 23.96875 C 24.257812 23.644531 24.324219 23.308594 24.324219 22.957031 C 24.324219 22.605469 24.257812 22.269531 24.125 21.945312 C 23.988281 21.621094 23.796875 21.332031 23.550781 21.085938 C 23.300781 20.835938 23.015625 20.644531 22.691406 20.511719 C 22.367188 20.378906 22.027344 20.308594 21.675781 20.308594 C 21.328125 20.308594 20.988281 20.378906 20.664062 20.511719 C 20.339844 20.648438 20.054688 20.839844 19.808594 21.085938 C 19.558594 21.335938 19.367188 21.621094 19.234375 21.945312 C 19.097656 22.269531 19.03125 22.605469 19.03125 22.957031 Z M 23.355469 22.957031 C 23.355469 23.179688 23.3125 23.394531 23.230469 23.597656 C 23.144531 23.804688 23.023438 23.988281 22.867188 24.144531 C 22.707031 24.300781 22.527344 24.421875 22.320312 24.507812 C 22.113281 24.59375 21.902344 24.636719 21.679688 24.636719 C 21.453125 24.636719 21.242188 24.59375 21.035156 24.507812 C 20.828125 24.425781 20.648438 24.300781 20.488281 24.144531 C 20.332031 23.988281 20.210938 23.804688 20.125 23.601562 C 20.039062 23.394531 19.996094 23.179688 19.996094 22.957031 C 19.996094 22.734375 20.039062 22.519531 20.125 22.316406 C 20.210938 22.109375 20.332031 21.925781 20.488281 21.769531 C 20.648438 21.613281 20.828125 21.492188 21.035156 21.40625 C 21.242188 21.320312 21.453125 21.277344 21.675781 21.277344 C 21.898438 21.277344 22.113281 21.320312 22.320312 21.40625 C 22.523438 21.492188 22.707031 21.613281 22.863281 21.769531 C 23.023438 21.925781 23.144531 22.109375 23.226562 22.316406 C 23.3125 22.519531 23.355469 22.734375 23.355469 22.957031 Z M 23.355469 22.957031 " fill-opacity="1" fill-rule="nonzero"/></svg>