<svg xmlns="http://www.w3.org/2000/svg" xmlns:xlink="http://www.w3.org/1999/xlink" width="50" zoomAndPan="magnify" viewBox="0 0 37.5 37.499999" height="50" preserveAspectRatio="xMidYMid meet" version="1.0"><defs><clipPath id="e5d5b358b5"><path d="M 0 0 L 37.007812 0 L 37.007812 37.007812 L 0 37.007812 Z M 0 0 " clip-rule="nonzero"/></clipPath></defs><g clip-path="url(#e5d5b358b5)"><path fill="#ffffff" d="M 0 0 L 37.007812 0 L 37.007812 37.007812 L 0 37.007812 Z M 0 0 " fill-opacity="1" fill-rule="nonzero"/><path fill="#ffffff" d="M 0 0 L 37.007812 0 L 37.007812 37.007812 L 0 37.007812 Z M 0 0 " fill-opacity="1" fill-rule="nonzero"/></g><path fill="#935f3d" d="M 11.96875 31.871094 C 11.214844 31.855469 10.480469 31.558594 9.925781 31.011719 L 9.605469 30.695312 C 9.507812 30.601562 9.421875 30.496094 9.347656 30.382812 C 8.769531 29.5 9.015625 28.316406 9.898438 27.738281 L 12.910156 25.765625 C 13.667969 25.269531 14.585938 25.078125 15.476562 25.234375 L 15.753906 25.285156 C 16.496094 25.414062 17.246094 25.496094 17.996094 25.527344 L 20.722656 25.648438 C 21.246094 25.667969 21.660156 26.097656 21.664062 26.625 C 21.664062 26.625 21.664062 26.628906 21.664062 26.628906 C 21.664062 27.144531 21.246094 27.5625 20.734375 27.5625 L 17.851562 27.566406 L 18.621094 27.855469 C 19.054688 28.015625 19.355469 28.390625 19.515625 28.839844 C 20.074219 28.65625 20.335938 28.519531 20.300781 28.4375 L 20.734375 28.4375 C 21.414062 28.433594 22.003906 28.058594 22.3125 27.503906 C 23.179688 27.441406 24.046875 27.265625 24.886719 26.976562 C 25.136719 27.449219 25.015625 28.046875 24.582031 28.382812 L 22.734375 29.824219 C 21.128906 31.074219 19.109375 31.664062 17.085938 31.472656 L 15.84375 31.355469 C 15.230469 31.300781 14.613281 31.3125 14.003906 31.390625 C 13.695312 31.46875 13.386719 31.5625 13.085938 31.675781 C 12.765625 31.796875 12.433594 31.863281 12.101562 31.871094 C 12.019531 31.898438 11.972656 31.898438 11.96875 31.871094 Z M 15.167969 24.320312 C 13.160156 22.53125 11.894531 19.921875 11.894531 17.015625 C 11.894531 11.972656 15.703125 7.824219 20.585938 7.316406 C 20.585938 6.726562 20.105469 6.246094 19.515625 6.246094 L 18.164062 6.246094 C 17.714844 6.246094 17.351562 5.882812 17.351562 5.433594 C 17.351562 4.984375 17.714844 4.621094 18.164062 4.621094 L 25.027344 4.621094 C 25.476562 4.621094 25.839844 4.984375 25.839844 5.433594 C 25.839844 5.882812 25.476562 6.246094 25.027344 6.246094 L 23.238281 6.246094 C 22.664062 6.246094 22.203125 6.710938 22.203125 7.28125 C 27.277344 7.597656 31.296875 11.832031 31.296875 17.015625 C 31.296875 22.082031 27.453125 26.246094 22.535156 26.722656 C 22.535156 26.691406 22.535156 26.660156 22.535156 26.628906 C 22.535156 26.621094 22.535156 26.621094 22.535156 26.617188 C 22.53125 25.628906 21.75 24.816406 20.757812 24.773438 L 18.035156 24.65625 C 17.320312 24.625 16.609375 24.546875 15.902344 24.421875 L 15.628906 24.375 C 15.476562 24.347656 15.320312 24.328125 15.167969 24.320312 Z M 25.058594 20.570312 C 25.335938 20.21875 25.277344 19.707031 24.929688 19.425781 L 22.527344 17.496094 C 22.320312 17.332031 22.203125 17.078125 22.203125 16.816406 L 22.203125 11.523438 C 22.203125 11.078125 21.839844 10.714844 21.394531 10.714844 C 20.945312 10.714844 20.585938 11.078125 20.585938 11.523438 L 20.585938 17.597656 C 20.585938 17.859375 20.707031 18.109375 20.910156 18.277344 L 23.917969 20.695312 C 23.921875 20.695312 23.921875 20.699219 23.921875 20.699219 C 24.273438 20.976562 24.777344 20.917969 25.058594 20.570312 Z M 25.058594 20.570312 " fill-opacity="1" fill-rule="nonzero"/></svg>