<svg xmlns="http://www.w3.org/2000/svg" xmlns:xlink="http://www.w3.org/1999/xlink" width="40" zoomAndPan="magnify" viewBox="0 0 30 30.000001" height="40" preserveAspectRatio="xMidYMid meet" version="1.0"><defs><clipPath id="4395ded21d"><path d="M 0.484375 0 L 29.515625 0 L 29.515625 29.03125 L 0.484375 29.03125 Z M 0.484375 0 " clip-rule="nonzero"/></clipPath><clipPath id="7393ef38a6"><path d="M 1.136719 0 L 29.445312 0 L 29.445312 29.03125 L 1.136719 29.03125 Z M 1.136719 0 " clip-rule="nonzero"/></clipPath><clipPath id="353cdbf046"><path d="M 9 17 L 22 17 L 22 29.03125 L 9 29.03125 Z M 9 17 " clip-rule="nonzero"/></clipPath></defs><g clip-path="url(#4395ded21d)"><path fill="#ffffff" d="M 0.484375 0 L 29.515625 0 L 29.515625 29.03125 L 0.484375 29.03125 Z M 0.484375 0 " fill-opacity="1" fill-rule="nonzero"/><path fill="#ffffff" d="M 0.484375 0 L 29.515625 0 L 29.515625 29.03125 L 0.484375 29.03125 Z M 0.484375 0 " fill-opacity="1" fill-rule="nonzero"/></g><g clip-path="url(#7393ef38a6)"><path fill="#925f3d" d="M 29.328125 9.964844 L 15.570312 0.105469 C 15.425781 0 15.226562 0 15.078125 0.105469 L 1.320312 9.964844 C 1.210938 10.042969 1.144531 10.171875 1.144531 10.308594 L 1.144531 29.289062 C 1.144531 29.523438 1.332031 29.714844 1.570312 29.714844 L 5.320312 29.714844 C 5.554688 29.714844 5.746094 29.523438 5.746094 29.289062 L 5.746094 13.191406 L 8.972656 13.191406 C 9.207031 13.191406 9.398438 13.003906 9.398438 12.769531 C 9.398438 12.535156 9.207031 12.34375 8.972656 12.34375 L 5.320312 12.34375 C 5.085938 12.34375 4.894531 12.535156 4.894531 12.769531 L 4.894531 28.863281 L 1.992188 28.863281 L 1.992188 10.527344 L 15.324219 0.972656 L 28.65625 10.527344 L 28.65625 28.863281 L 25.753906 28.863281 L 25.753906 12.769531 C 25.753906 12.535156 25.5625 12.34375 25.328125 12.34375 L 21.191406 12.34375 C 20.957031 12.34375 20.769531 12.535156 20.769531 12.769531 C 20.769531 13.003906 20.957031 13.191406 21.191406 13.191406 L 24.90625 13.191406 L 24.90625 29.289062 C 24.90625 29.523438 25.09375 29.714844 25.328125 29.714844 L 29.082031 29.714844 C 29.316406 29.714844 29.507812 29.523438 29.507812 29.289062 L 29.507812 10.308594 C 29.507812 10.171875 29.441406 10.042969 29.328125 9.964844 Z M 29.328125 9.964844 " fill-opacity="1" fill-rule="nonzero"/></g><g clip-path="url(#353cdbf046)"><path fill="#925f3d" d="M 21.070312 23.117188 L 18.625 23.117188 L 18.625 17.792969 C 18.625 17.558594 18.433594 17.371094 18.199219 17.371094 L 12.453125 17.371094 C 12.214844 17.371094 12.027344 17.558594 12.027344 17.792969 L 12.027344 23.117188 L 9.578125 23.117188 C 9.34375 23.117188 9.152344 23.304688 9.152344 23.542969 L 9.152344 29.289062 C 9.152344 29.523438 9.34375 29.714844 9.578125 29.714844 L 21.070312 29.714844 C 21.304688 29.714844 21.496094 29.523438 21.496094 29.289062 L 21.496094 23.542969 C 21.496094 23.304688 21.304688 23.117188 21.070312 23.117188 Z M 17.714844 23.964844 L 18.679688 23.964844 L 18.679688 25.070312 L 17.714844 25.070312 Z M 15.808594 18.21875 L 15.808594 19.320312 L 14.84375 19.320312 L 14.84375 18.21875 Z M 12.875 18.21875 L 13.992188 18.21875 L 13.992188 19.746094 C 13.992188 19.980469 14.183594 20.171875 14.417969 20.171875 L 16.230469 20.171875 C 16.464844 20.171875 16.65625 19.980469 16.65625 19.746094 L 16.65625 18.21875 L 17.773438 18.21875 L 17.773438 23.117188 L 12.875 23.117188 Z M 12.453125 23.964844 L 12.933594 23.964844 L 12.933594 25.070312 L 11.96875 25.070312 L 11.96875 23.964844 Z M 10.003906 23.964844 L 11.117188 23.964844 L 11.117188 25.492188 C 11.117188 25.726562 11.308594 25.917969 11.542969 25.917969 L 13.359375 25.917969 C 13.59375 25.917969 13.785156 25.726562 13.785156 25.492188 L 13.785156 23.964844 L 14.898438 23.964844 L 14.898438 28.863281 L 10.003906 28.863281 Z M 20.648438 28.863281 L 15.75 28.863281 L 15.75 23.964844 L 16.867188 23.964844 L 16.867188 25.492188 C 16.867188 25.726562 17.054688 25.917969 17.289062 25.917969 L 19.105469 25.917969 C 19.339844 25.917969 19.53125 25.726562 19.53125 25.492188 L 19.53125 23.964844 L 20.648438 23.964844 Z M 20.648438 28.863281 " fill-opacity="1" fill-rule="nonzero"/></g><path fill="#925f3d" d="M 14.003906 6.582031 L 13.15625 6.933594 C 12.988281 7 12.886719 7.167969 12.894531 7.347656 L 12.929688 8.054688 L 12.6875 8.296875 L 11.980469 8.261719 C 11.800781 8.253906 11.632812 8.359375 11.566406 8.523438 L 11.214844 9.371094 C 11.144531 9.535156 11.1875 9.726562 11.320312 9.847656 L 11.847656 10.324219 L 11.847656 10.667969 L 11.320312 11.144531 C 11.1875 11.265625 11.144531 11.453125 11.214844 11.621094 L 11.566406 12.46875 C 11.632812 12.632812 11.800781 12.738281 11.980469 12.730469 L 12.6875 12.695312 L 12.929688 12.9375 L 12.894531 13.644531 C 12.886719 13.824219 12.988281 13.992188 13.15625 14.058594 L 14.003906 14.410156 C 14.167969 14.480469 14.359375 14.4375 14.480469 14.300781 L 14.957031 13.777344 L 15.300781 13.777344 L 15.777344 14.300781 C 15.859375 14.394531 15.972656 14.441406 16.089844 14.441406 C 16.144531 14.441406 16.199219 14.433594 16.253906 14.410156 L 17.101562 14.058594 C 17.265625 13.992188 17.371094 13.824219 17.363281 13.644531 L 17.324219 12.9375 L 17.570312 12.695312 L 18.277344 12.730469 C 18.457031 12.738281 18.621094 12.632812 18.691406 12.46875 L 19.042969 11.621094 C 19.113281 11.457031 19.066406 11.265625 18.933594 11.144531 L 18.410156 10.667969 L 18.410156 10.324219 L 18.933594 9.847656 C 19.066406 9.726562 19.113281 9.535156 19.042969 9.371094 L 18.691406 8.523438 C 18.621094 8.359375 18.457031 8.253906 18.277344 8.261719 L 17.570312 8.296875 L 17.324219 8.054688 L 17.363281 7.347656 C 17.371094 7.167969 17.265625 7 17.101562 6.933594 L 16.253906 6.582031 C 16.085938 6.511719 15.894531 6.554688 15.777344 6.691406 L 15.300781 7.214844 L 14.957031 7.214844 L 14.480469 6.691406 C 14.359375 6.554688 14.167969 6.511719 14.003906 6.582031 Z M 15.488281 8.066406 C 15.609375 8.066406 15.722656 8.015625 15.804688 7.925781 L 16.207031 7.480469 L 16.5 7.601562 L 16.46875 8.199219 C 16.460938 8.320312 16.507812 8.4375 16.589844 8.523438 L 17.101562 9.03125 C 17.1875 9.117188 17.304688 9.164062 17.425781 9.15625 L 18.023438 9.125 L 18.144531 9.417969 L 17.699219 9.820312 C 17.609375 9.898438 17.558594 10.015625 17.558594 10.132812 L 17.558594 10.855469 C 17.558594 10.976562 17.609375 11.089844 17.699219 11.171875 L 18.144531 11.574219 L 18.023438 11.867188 L 17.425781 11.835938 C 17.304688 11.828125 17.1875 11.875 17.101562 11.960938 L 16.589844 12.46875 C 16.507812 12.554688 16.460938 12.671875 16.46875 12.792969 L 16.5 13.390625 L 16.207031 13.511719 L 15.804688 13.066406 C 15.722656 12.976562 15.609375 12.925781 15.488281 12.925781 L 14.765625 12.925781 C 14.648438 12.925781 14.53125 12.976562 14.453125 13.066406 L 14.050781 13.511719 L 13.757812 13.390625 L 13.789062 12.792969 C 13.796875 12.671875 13.75 12.554688 13.664062 12.46875 L 13.15625 11.960938 C 13.070312 11.875 12.953125 11.828125 12.832031 11.835938 L 12.234375 11.867188 L 12.113281 11.574219 L 12.558594 11.171875 C 12.648438 11.089844 12.699219 10.976562 12.699219 10.855469 L 12.699219 10.132812 C 12.699219 10.015625 12.648438 9.898438 12.558594 9.820312 L 12.113281 9.417969 L 12.234375 9.125 L 12.832031 9.15625 C 12.953125 9.164062 13.070312 9.117188 13.15625 9.03125 L 13.664062 8.523438 C 13.75 8.4375 13.796875 8.320312 13.789062 8.199219 L 13.757812 7.601562 L 14.050781 7.480469 L 14.453125 7.925781 C 14.53125 8.015625 14.648438 8.066406 14.765625 8.066406 Z M 15.488281 8.066406 " fill-opacity="1" fill-rule="nonzero"/><path fill="#925f3d" d="M 13.207031 10.496094 C 13.207031 11.554688 14.070312 12.417969 15.128906 12.417969 C 16.1875 12.417969 17.050781 11.554688 17.050781 10.496094 C 17.050781 9.4375 16.1875 8.574219 15.128906 8.574219 C 14.070312 8.574219 13.207031 9.4375 13.207031 10.496094 Z M 15.128906 9.421875 C 15.71875 9.421875 16.199219 9.90625 16.199219 10.496094 C 16.199219 11.085938 15.71875 11.566406 15.128906 11.566406 C 14.535156 11.566406 14.054688 11.085938 14.054688 10.496094 C 14.054688 9.90625 14.535156 9.421875 15.128906 9.421875 Z M 15.128906 9.421875 " fill-opacity="1" fill-rule="nonzero"/><path fill="#925f3d" d="M 13.507812 5.109375 C 12.9375 5.28125 12.398438 5.542969 11.90625 5.886719 C 11.421875 6.226562 10.996094 6.636719 10.636719 7.109375 C 10.277344 7.585938 9.996094 8.113281 9.804688 8.679688 C 9.605469 9.261719 9.503906 9.875 9.503906 10.496094 C 9.503906 11.253906 9.652344 11.992188 9.945312 12.683594 C 10.230469 13.355469 10.632812 13.957031 11.152344 14.472656 C 11.667969 14.988281 12.269531 15.394531 12.9375 15.679688 C 13.390625 15.871094 13.863281 16 14.34375 16.066406 L 14.222656 16.1875 C 14.058594 16.355469 14.058594 16.621094 14.222656 16.789062 C 14.304688 16.871094 14.414062 16.914062 14.523438 16.914062 C 14.632812 16.914062 14.742188 16.871094 14.824219 16.789062 L 15.617188 15.996094 C 15.695312 15.917969 15.742188 15.808594 15.742188 15.695312 C 15.742188 15.582031 15.695312 15.476562 15.617188 15.394531 L 14.824219 14.601562 C 14.660156 14.4375 14.390625 14.4375 14.222656 14.601562 C 14.066406 14.761719 14.058594 15.015625 14.203125 15.179688 C 13.882812 15.117188 13.570312 15.023438 13.269531 14.894531 C 12.703125 14.65625 12.191406 14.3125 11.753906 13.871094 C 11.3125 13.433594 10.96875 12.921875 10.726562 12.355469 C 10.480469 11.765625 10.351562 11.140625 10.351562 10.496094 C 10.351562 9.449219 10.6875 8.453125 11.316406 7.621094 C 11.617188 7.21875 11.980469 6.871094 12.394531 6.582031 C 12.808594 6.289062 13.269531 6.066406 13.753906 5.921875 C 13.976562 5.855469 14.105469 5.617188 14.039062 5.390625 C 13.96875 5.167969 13.734375 5.039062 13.507812 5.109375 Z M 13.507812 5.109375 " fill-opacity="1" fill-rule="nonzero"/><path fill="#925f3d" d="M 16.011719 4.203125 C 15.847656 4.035156 15.578125 4.035156 15.414062 4.203125 L 14.621094 4.996094 C 14.453125 5.160156 14.453125 5.429688 14.621094 5.597656 L 15.414062 6.390625 C 15.496094 6.472656 15.605469 6.511719 15.714844 6.511719 C 15.820312 6.511719 15.929688 6.472656 16.011719 6.390625 C 16.175781 6.230469 16.179688 5.972656 16.03125 5.804688 C 16.355469 5.867188 16.675781 5.964844 16.988281 6.097656 C 17.554688 6.335938 18.066406 6.679688 18.503906 7.121094 C 18.945312 7.558594 19.289062 8.070312 19.527344 8.636719 C 19.777344 9.226562 19.902344 9.851562 19.902344 10.496094 C 19.902344 11.542969 19.570312 12.539062 18.941406 13.371094 C 18.636719 13.773438 18.277344 14.121094 17.863281 14.410156 C 17.445312 14.703125 16.988281 14.925781 16.503906 15.070312 C 16.277344 15.136719 16.152344 15.375 16.21875 15.597656 C 16.273438 15.78125 16.441406 15.902344 16.625 15.902344 C 16.664062 15.902344 16.707031 15.894531 16.746094 15.882812 C 17.320312 15.710938 17.859375 15.449219 18.351562 15.105469 C 18.835938 14.765625 19.261719 14.355469 19.621094 13.882812 C 19.980469 13.40625 20.261719 12.878906 20.453125 12.3125 C 20.652344 11.730469 20.753906 11.117188 20.753906 10.496094 C 20.753906 9.738281 20.605469 9 20.3125 8.304688 C 20.027344 7.636719 19.621094 7.035156 19.105469 6.519531 C 18.589844 6.003906 17.988281 5.597656 17.316406 5.3125 C 16.859375 5.121094 16.382812 4.988281 15.894531 4.921875 L 16.011719 4.804688 C 16.179688 4.636719 16.179688 4.367188 16.011719 4.203125 Z M 16.011719 4.203125 " fill-opacity="1" fill-rule="nonzero"/></svg>