<svg xmlns="http://www.w3.org/2000/svg" xmlns:xlink="http://www.w3.org/1999/xlink" width="40" zoomAndPan="magnify" viewBox="0 0 30 30.000001" height="40" preserveAspectRatio="xMidYMid meet" version="1.0"><defs><clipPath id="7d71f69023"><path d="M 0.484375 0 L 29.515625 0 L 29.515625 29.03125 L 0.484375 29.03125 Z M 0.484375 0 " clip-rule="nonzero"/></clipPath><clipPath id="d65e6eb688"><path d="M 5 2.484375 L 9 2.484375 L 9 7 L 5 7 Z M 5 2.484375 " clip-rule="nonzero"/></clipPath><clipPath id="dbdfad791c"><path d="M 0.484375 9 L 3 9 L 3 15 L 0.484375 15 Z M 0.484375 9 " clip-rule="nonzero"/></clipPath><clipPath id="3e402e3a13"><path d="M 0.484375 14 L 3 14 L 3 18 L 0.484375 18 Z M 0.484375 14 " clip-rule="nonzero"/></clipPath><clipPath id="c807ca64bd"><path d="M 0.484375 17 L 4 17 L 4 21 L 0.484375 21 Z M 0.484375 17 " clip-rule="nonzero"/></clipPath><clipPath id="cd70d3a8db"><path d="M 21 2.484375 L 25 2.484375 L 25 7 L 21 7 Z M 21 2.484375 " clip-rule="nonzero"/></clipPath><clipPath id="2b2e694db0"><path d="M 27 9 L 29.515625 9 L 29.515625 15 L 27 15 Z M 27 9 " clip-rule="nonzero"/></clipPath><clipPath id="e05a9d9204"><path d="M 27 14 L 29.515625 14 L 29.515625 18 L 27 18 Z M 27 14 " clip-rule="nonzero"/></clipPath><clipPath id="982b6d34b6"><path d="M 26 17 L 29.515625 17 L 29.515625 21 L 26 21 Z M 26 17 " clip-rule="nonzero"/></clipPath><clipPath id="5a7278d5a7"><path d="M 15 27 L 20 27 L 20 29.03125 L 15 29.03125 Z M 15 27 " clip-rule="nonzero"/></clipPath><clipPath id="e3c58adb17"><path d="M 10 4 L 28 4 L 28 29.03125 L 10 29.03125 Z M 10 4 " clip-rule="nonzero"/></clipPath></defs><g clip-path="url(#7d71f69023)"><path fill="#ffffff" d="M 0.484375 0 L 29.515625 0 L 29.515625 29.03125 L 0.484375 29.03125 Z M 0.484375 0 " fill-opacity="1" fill-rule="nonzero"/><path fill="#ffffff" d="M 0.484375 0 L 29.515625 0 L 29.515625 29.03125 L 0.484375 29.03125 Z M 0.484375 0 " fill-opacity="1" fill-rule="nonzero"/></g><path fill="#2e3192" d="M 17.917969 12.921875 L 17.917969 14.371094 C 17.242188 13.476562 16.175781 12.910156 15 12.910156 C 13.828125 12.910156 12.761719 13.476562 12.085938 14.371094 L 12.085938 12.921875 L 11.148438 12.53125 L 11.148438 14.117188 C 11.148438 14.226562 11.0625 14.3125 10.957031 14.3125 C 10.851562 14.3125 10.765625 14.226562 10.765625 14.117188 L 10.765625 11.757812 L 10.527344 11.757812 L 10.527344 12.273438 L 8.980469 11.628906 L 15 7.835938 L 21.023438 11.628906 Z M 15 16.917969 C 14.09375 16.917969 13.363281 16.179688 13.363281 15.269531 C 13.363281 14.355469 14.09375 13.617188 15 13.617188 C 15.90625 13.617188 16.640625 14.355469 16.640625 15.269531 C 16.640625 16.179688 15.90625 16.917969 15 16.917969 Z M 15 6.796875 C 10.363281 6.796875 6.601562 10.582031 6.601562 15.25 C 6.601562 19.199219 9.289062 22.511719 12.921875 23.445312 C 13.890625 16.257812 9.25 14.371094 9.25 14.371094 C 12.769531 15.082031 14.328125 17.546875 15 19.941406 C 15.671875 17.546875 17.234375 15.082031 20.75 14.371094 C 20.75 14.371094 16.113281 16.257812 17.082031 23.445312 C 20.714844 22.511719 23.398438 19.199219 23.398438 15.25 C 23.398438 10.582031 19.640625 6.796875 15 6.796875 " fill-opacity="1" fill-rule="nonzero"/><path fill="#e7a811" d="M 8.234375 7.894531 C 8.28125 7.882812 8.328125 7.871094 8.375 7.855469 C 8.421875 7.84375 8.464844 7.824219 8.511719 7.8125 C 8.605469 7.78125 8.695312 7.75 8.777344 7.714844 C 8.820312 7.695312 8.863281 7.675781 8.902344 7.660156 C 8.910156 7.652344 8.921875 7.648438 8.929688 7.644531 C 8.941406 7.640625 8.949219 7.636719 8.960938 7.632812 C 8.980469 7.625 9 7.613281 9.019531 7.605469 C 9.097656 7.574219 9.164062 7.539062 9.226562 7.503906 C 9.257812 7.488281 9.289062 7.472656 9.316406 7.457031 C 9.34375 7.445312 9.367188 7.429688 9.390625 7.417969 C 9.484375 7.371094 9.539062 7.339844 9.539062 7.339844 C 9.539062 7.339844 9.492188 7.292969 9.414062 7.230469 C 9.332031 7.164062 9.214844 7.074219 9.070312 6.988281 C 8.929688 6.902344 8.761719 6.820312 8.578125 6.757812 C 8.484375 6.726562 8.386719 6.703125 8.285156 6.683594 C 8.1875 6.671875 8.085938 6.664062 7.984375 6.671875 C 7.910156 6.675781 7.835938 6.683594 7.765625 6.699219 C 7.726562 6.703125 7.691406 6.710938 7.65625 6.71875 C 7.621094 6.730469 7.589844 6.742188 7.554688 6.753906 C 7.421875 6.800781 7.300781 6.863281 7.199219 6.933594 C 7.175781 6.949219 7.148438 6.96875 7.125 6.988281 C 7.105469 7.007812 7.082031 7.027344 7.0625 7.050781 C 7.023438 7.089844 6.992188 7.132812 6.964844 7.179688 C 6.90625 7.265625 6.878906 7.355469 6.878906 7.445312 C 6.878906 7.535156 6.917969 7.613281 6.972656 7.683594 C 7.03125 7.75 7.113281 7.804688 7.210938 7.84375 C 7.40625 7.929688 7.671875 7.96875 7.949219 7.9375 C 8.046875 7.933594 8.140625 7.917969 8.234375 7.894531 " fill-opacity="1" fill-rule="nonzero"/><g clip-path="url(#d65e6eb688)"><path fill="#e7a811" d="M 5.695312 6.21875 C 5.726562 6.324219 5.773438 6.414062 5.839844 6.476562 C 5.902344 6.535156 5.980469 6.570312 6.074219 6.574219 C 6.167969 6.582031 6.269531 6.554688 6.367188 6.503906 C 6.417969 6.480469 6.464844 6.449219 6.515625 6.410156 C 6.539062 6.390625 6.5625 6.371094 6.585938 6.351562 C 6.609375 6.328125 6.636719 6.308594 6.660156 6.285156 C 6.757812 6.191406 6.851562 6.082031 6.933594 5.953125 C 6.957031 5.921875 6.976562 5.886719 6.996094 5.851562 C 7.019531 5.820312 7.039062 5.785156 7.058594 5.753906 C 7.097656 5.683594 7.136719 5.609375 7.167969 5.535156 C 7.214844 5.433594 7.25 5.324219 7.28125 5.21875 C 7.3125 5.117188 7.339844 5.011719 7.359375 4.90625 C 7.394531 4.695312 7.414062 4.492188 7.417969 4.308594 C 7.425781 4.148438 7.421875 4.007812 7.414062 3.898438 C 8.023438 3.0625 8.59375 2.484375 8.59375 2.484375 C 8.148438 2.789062 7.652344 3.304688 7.234375 3.792969 C 7.222656 3.800781 7.207031 3.8125 7.191406 3.820312 C 7.160156 3.839844 7.128906 3.867188 7.089844 3.890625 C 7.054688 3.917969 7.015625 3.949219 6.976562 3.980469 C 6.898438 4.039062 6.808594 4.109375 6.71875 4.1875 C 6.695312 4.207031 6.671875 4.226562 6.648438 4.246094 C 6.636719 4.253906 6.625 4.265625 6.613281 4.273438 C 6.605469 4.285156 6.59375 4.296875 6.582031 4.308594 C 6.535156 4.351562 6.492188 4.394531 6.445312 4.441406 C 6.355469 4.535156 6.265625 4.632812 6.183594 4.730469 C 6.140625 4.78125 6.101562 4.835938 6.0625 4.890625 C 6.027344 4.945312 5.992188 4.996094 5.957031 5.050781 C 5.890625 5.160156 5.832031 5.269531 5.789062 5.378906 C 5.664062 5.710938 5.640625 6.003906 5.695312 6.21875 " fill-opacity="1" fill-rule="nonzero"/></g><path fill="#e7a811" d="M 6.632812 9.625 C 6.675781 9.601562 6.71875 9.578125 6.761719 9.550781 C 6.785156 9.539062 6.804688 9.527344 6.824219 9.511719 L 6.890625 9.472656 C 6.972656 9.421875 7.054688 9.367188 7.128906 9.3125 C 7.164062 9.28125 7.199219 9.253906 7.238281 9.226562 C 7.273438 9.199219 7.308594 9.171875 7.34375 9.144531 C 7.410156 9.09375 7.46875 9.042969 7.523438 8.992188 C 7.550781 8.96875 7.574219 8.945312 7.597656 8.925781 C 7.625 8.90625 7.644531 8.886719 7.667969 8.871094 C 7.746094 8.800781 7.792969 8.753906 7.792969 8.753906 C 7.792969 8.753906 7.738281 8.722656 7.640625 8.675781 C 7.542969 8.628906 7.40625 8.570312 7.242188 8.519531 C 7.203125 8.503906 7.160156 8.492188 7.117188 8.480469 C 7.074219 8.46875 7.027344 8.457031 6.980469 8.449219 C 6.890625 8.429688 6.792969 8.417969 6.695312 8.410156 C 6.496094 8.394531 6.28125 8.402344 6.085938 8.46875 C 6.011719 8.488281 5.941406 8.515625 5.871094 8.550781 C 5.835938 8.5625 5.804688 8.582031 5.769531 8.597656 C 5.753906 8.605469 5.738281 8.617188 5.722656 8.625 C 5.707031 8.632812 5.691406 8.644531 5.675781 8.65625 C 5.558594 8.734375 5.453125 8.828125 5.367188 8.921875 C 5.34375 8.945312 5.324219 8.972656 5.308594 8.996094 C 5.289062 9.019531 5.273438 9.046875 5.257812 9.074219 C 5.230469 9.125 5.207031 9.175781 5.191406 9.226562 C 5.15625 9.324219 5.148438 9.421875 5.171875 9.511719 C 5.222656 9.691406 5.386719 9.792969 5.601562 9.828125 C 5.816406 9.863281 6.089844 9.835938 6.359375 9.738281 C 6.453125 9.707031 6.542969 9.667969 6.632812 9.625 " fill-opacity="1" fill-rule="nonzero"/><path fill="#e7a811" d="M 4.160156 8.847656 C 4.253906 8.828125 4.347656 8.777344 4.433594 8.703125 C 4.476562 8.664062 4.515625 8.621094 4.554688 8.574219 C 4.574219 8.546875 4.59375 8.523438 4.613281 8.496094 C 4.632812 8.46875 4.652344 8.441406 4.671875 8.410156 C 4.746094 8.292969 4.808594 8.160156 4.863281 8.011719 C 4.871094 7.992188 4.875 7.972656 4.882812 7.953125 C 4.890625 7.933594 4.894531 7.917969 4.902344 7.898438 C 4.914062 7.859375 4.925781 7.820312 4.9375 7.78125 C 4.960938 7.703125 4.980469 7.621094 4.996094 7.535156 C 5.03125 7.308594 5.042969 7.082031 5.03125 6.863281 C 5.023438 6.753906 5.011719 6.648438 4.996094 6.542969 C 4.988281 6.492188 4.980469 6.441406 4.972656 6.394531 C 4.964844 6.347656 4.957031 6.300781 4.949219 6.253906 C 4.921875 6.125 4.890625 6.007812 4.863281 5.910156 C 5.265625 4.78125 5.765625 3.914062 5.765625 3.914062 C 5.371094 4.371094 4.980469 5.105469 4.6875 5.734375 C 4.664062 5.761719 4.636719 5.789062 4.605469 5.824219 C 4.578125 5.851562 4.550781 5.882812 4.519531 5.917969 C 4.488281 5.953125 4.457031 5.992188 4.425781 6.03125 C 4.359375 6.113281 4.289062 6.203125 4.21875 6.304688 C 4.183594 6.355469 4.148438 6.40625 4.109375 6.457031 C 4.074219 6.511719 4.042969 6.570312 4.007812 6.625 C 3.941406 6.742188 3.875 6.859375 3.816406 6.980469 C 3.800781 7.011719 3.789062 7.042969 3.773438 7.074219 C 3.761719 7.105469 3.746094 7.136719 3.734375 7.167969 C 3.710938 7.230469 3.691406 7.292969 3.667969 7.355469 C 3.628906 7.480469 3.597656 7.605469 3.582031 7.726562 C 3.535156 8.085938 3.585938 8.386719 3.695312 8.585938 C 3.804688 8.785156 3.972656 8.882812 4.160156 8.847656 " fill-opacity="1" fill-rule="nonzero"/><path fill="#e7a811" d="M 6.261719 10.496094 C 6.15625 10.472656 6.007812 10.445312 5.832031 10.433594 C 5.742188 10.429688 5.648438 10.425781 5.554688 10.429688 C 5.457031 10.433594 5.359375 10.441406 5.257812 10.457031 C 5.054688 10.492188 4.84375 10.554688 4.664062 10.664062 C 4.597656 10.707031 4.53125 10.75 4.472656 10.796875 C 4.441406 10.824219 4.410156 10.847656 4.382812 10.871094 C 4.367188 10.886719 4.355469 10.898438 4.339844 10.910156 C 4.328125 10.925781 4.316406 10.9375 4.304688 10.953125 C 4.203125 11.0625 4.121094 11.179688 4.058594 11.292969 C 4.027344 11.351562 4.007812 11.410156 3.988281 11.46875 C 3.972656 11.527344 3.960938 11.585938 3.957031 11.640625 C 3.949219 11.746094 3.964844 11.847656 4.011719 11.929688 C 4.105469 12.09375 4.292969 12.15625 4.515625 12.136719 C 4.542969 12.136719 4.570312 12.132812 4.597656 12.128906 C 4.628906 12.121094 4.65625 12.117188 4.6875 12.109375 C 4.75 12.097656 4.808594 12.078125 4.871094 12.054688 C 4.996094 12.007812 5.125 11.945312 5.246094 11.863281 C 5.332031 11.808594 5.414062 11.75 5.492188 11.683594 C 5.527344 11.648438 5.566406 11.613281 5.601562 11.578125 C 5.621094 11.5625 5.636719 11.542969 5.65625 11.523438 L 5.707031 11.472656 C 5.78125 11.398438 5.847656 11.324219 5.90625 11.25 C 5.9375 11.214844 5.964844 11.175781 5.996094 11.140625 C 6.023438 11.105469 6.054688 11.070312 6.082031 11.035156 C 6.132812 10.964844 6.183594 10.902344 6.222656 10.839844 C 6.234375 10.824219 6.246094 10.808594 6.253906 10.796875 C 6.265625 10.78125 6.273438 10.769531 6.285156 10.753906 C 6.304688 10.730469 6.320312 10.703125 6.335938 10.683594 C 6.398438 10.59375 6.433594 10.535156 6.433594 10.535156 C 6.433594 10.535156 6.371094 10.515625 6.261719 10.496094 " fill-opacity="1" fill-rule="nonzero"/><path fill="#e7a811" d="M 2.203125 11.222656 C 2.21875 11.25 2.234375 11.277344 2.253906 11.300781 C 2.273438 11.324219 2.292969 11.347656 2.3125 11.371094 C 2.472656 11.542969 2.660156 11.601562 2.835938 11.515625 C 2.929688 11.472656 3.007812 11.402344 3.074219 11.304688 C 3.109375 11.257812 3.140625 11.203125 3.167969 11.144531 C 3.195312 11.085938 3.21875 11.023438 3.242188 10.957031 C 3.289062 10.820312 3.320312 10.671875 3.335938 10.507812 C 3.339844 10.488281 3.339844 10.46875 3.34375 10.449219 C 3.34375 10.429688 3.347656 10.40625 3.347656 10.386719 C 3.351562 10.347656 3.355469 10.304688 3.355469 10.261719 C 3.359375 10.179688 3.359375 10.09375 3.355469 10.003906 C 3.335938 9.765625 3.292969 9.539062 3.226562 9.324219 C 3.195312 9.214844 3.15625 9.113281 3.117188 9.015625 C 3.078125 8.914062 3.039062 8.824219 3 8.738281 C 2.921875 8.566406 2.84375 8.425781 2.78125 8.324219 C 2.78125 8.320312 2.777344 8.3125 2.773438 8.308594 C 2.921875 7.179688 3.191406 6.296875 3.191406 6.296875 C 2.886719 6.875 2.65625 7.761719 2.511719 8.472656 C 2.503906 8.484375 2.5 8.496094 2.492188 8.507812 C 2.480469 8.527344 2.46875 8.550781 2.457031 8.570312 C 2.449219 8.59375 2.4375 8.617188 2.425781 8.640625 C 2.378906 8.738281 2.332031 8.847656 2.285156 8.964844 C 2.261719 9.023438 2.238281 9.085938 2.214844 9.144531 C 2.191406 9.207031 2.171875 9.273438 2.152344 9.339844 C 2.113281 9.46875 2.074219 9.605469 2.046875 9.742188 C 2.039062 9.773438 2.03125 9.808594 2.027344 9.84375 C 2.019531 9.878906 2.015625 9.914062 2.011719 9.945312 C 2 10.015625 1.996094 10.082031 1.988281 10.152344 C 1.980469 10.285156 1.980469 10.417969 1.992188 10.539062 C 2.011719 10.726562 2.054688 10.890625 2.109375 11.03125 C 2.136719 11.101562 2.167969 11.164062 2.203125 11.222656 " fill-opacity="1" fill-rule="nonzero"/><path fill="#e7a811" d="M 4.011719 14.632812 C 4.117188 14.597656 4.234375 14.539062 4.34375 14.460938 C 4.457031 14.386719 4.570312 14.292969 4.671875 14.179688 C 4.742188 14.105469 4.808594 14.027344 4.871094 13.941406 C 4.898438 13.902344 4.929688 13.855469 4.957031 13.8125 C 4.96875 13.792969 4.980469 13.769531 4.996094 13.746094 L 5.035156 13.679688 C 5.089844 13.59375 5.136719 13.503906 5.179688 13.414062 C 5.191406 13.394531 5.199219 13.371094 5.210938 13.347656 L 5.242188 13.285156 C 5.261719 13.242188 5.28125 13.203125 5.300781 13.160156 C 5.335938 13.078125 5.367188 13.003906 5.394531 12.933594 C 5.40625 12.898438 5.421875 12.867188 5.4375 12.835938 C 5.449219 12.804688 5.460938 12.777344 5.46875 12.75 C 5.511719 12.644531 5.53125 12.582031 5.53125 12.582031 C 5.53125 12.582031 5.464844 12.578125 5.351562 12.582031 C 5.242188 12.585938 5.085938 12.59375 4.90625 12.625 C 4.820312 12.640625 4.722656 12.660156 4.628906 12.6875 C 4.535156 12.710938 4.4375 12.746094 4.339844 12.785156 C 4.246094 12.828125 4.148438 12.875 4.058594 12.933594 C 4.011719 12.960938 3.964844 12.992188 3.921875 13.027344 C 3.882812 13.0625 3.839844 13.097656 3.800781 13.136719 C 3.746094 13.191406 3.691406 13.253906 3.640625 13.316406 C 3.617188 13.347656 3.59375 13.378906 3.570312 13.410156 C 3.5625 13.425781 3.550781 13.441406 3.539062 13.457031 C 3.53125 13.476562 3.519531 13.492188 3.511719 13.507812 C 3.4375 13.640625 3.382812 13.777344 3.351562 13.910156 C 3.332031 13.972656 3.328125 14.039062 3.324219 14.101562 C 3.324219 14.160156 3.324219 14.21875 3.335938 14.277344 C 3.351562 14.386719 3.390625 14.480469 3.457031 14.550781 C 3.59375 14.691406 3.792969 14.707031 4.011719 14.632812 " fill-opacity="1" fill-rule="nonzero"/><g clip-path="url(#dbdfad791c)"><path fill="#e7a811" d="M 1.109375 13.667969 C 1.175781 13.847656 1.257812 14.003906 1.347656 14.128906 C 1.433594 14.253906 1.53125 14.351562 1.632812 14.417969 C 1.835938 14.550781 2.035156 14.558594 2.191406 14.429688 C 2.269531 14.367188 2.332031 14.273438 2.375 14.164062 C 2.398438 14.105469 2.414062 14.046875 2.429688 13.980469 C 2.441406 13.914062 2.445312 13.84375 2.457031 13.773438 C 2.46875 13.628906 2.464844 13.46875 2.441406 13.304688 C 2.441406 13.285156 2.4375 13.261719 2.433594 13.242188 C 2.429688 13.222656 2.425781 13.199219 2.425781 13.179688 C 2.417969 13.136719 2.410156 13.09375 2.402344 13.054688 C 2.386719 12.96875 2.363281 12.882812 2.339844 12.796875 C 2.320312 12.738281 2.300781 12.683594 2.277344 12.625 C 2.253906 12.570312 2.234375 12.515625 2.210938 12.460938 C 2.164062 12.351562 2.109375 12.25 2.050781 12.148438 C 1.992188 12.050781 1.929688 11.953125 1.867188 11.867188 C 1.800781 11.777344 1.742188 11.695312 1.683594 11.621094 C 1.574219 11.480469 1.472656 11.367188 1.390625 11.285156 C 1.121094 10.066406 1.089844 9.007812 1.089844 9.007812 C 0.980469 9.679688 1.0625 10.644531 1.15625 11.378906 C 1.144531 11.421875 1.132812 11.464844 1.121094 11.511719 C 1.109375 11.558594 1.097656 11.609375 1.085938 11.664062 C 1.066406 11.773438 1.042969 11.894531 1.023438 12.019531 C 0.980469 12.277344 0.96875 12.570312 0.972656 12.855469 C 0.972656 12.890625 0.972656 12.925781 0.976562 12.960938 C 0.980469 12.996094 0.980469 13.035156 0.984375 13.070312 C 0.992188 13.140625 1.003906 13.210938 1.015625 13.277344 C 1.039062 13.414062 1.066406 13.546875 1.109375 13.667969 " fill-opacity="1" fill-rule="nonzero"/></g><path fill="#e7a811" d="M 3.289062 16.613281 C 3.289062 16.648438 3.289062 16.679688 3.292969 16.714844 C 3.296875 16.746094 3.300781 16.777344 3.308594 16.808594 C 3.320312 16.871094 3.339844 16.929688 3.359375 16.980469 C 3.40625 17.085938 3.46875 17.171875 3.550781 17.222656 C 3.71875 17.328125 3.921875 17.296875 4.117188 17.167969 C 4.214844 17.105469 4.320312 17.019531 4.410156 16.914062 C 4.503906 16.8125 4.589844 16.691406 4.664062 16.558594 C 4.71875 16.464844 4.765625 16.371094 4.804688 16.273438 C 4.84375 16.171875 4.871094 16.074219 4.90625 15.972656 C 4.9375 15.871094 4.964844 15.773438 4.984375 15.675781 C 4.988281 15.652344 4.992188 15.625 5 15.601562 C 5.003906 15.578125 5.007812 15.554688 5.015625 15.53125 C 5.027344 15.484375 5.035156 15.4375 5.042969 15.394531 C 5.058594 15.304688 5.074219 15.222656 5.082031 15.144531 C 5.09375 15.070312 5.105469 15.003906 5.113281 14.949219 C 5.128906 14.835938 5.132812 14.765625 5.132812 14.765625 C 5.132812 14.765625 5.066406 14.777344 4.953125 14.808594 C 4.84375 14.839844 4.695312 14.886719 4.523438 14.960938 C 4.4375 14.996094 4.351562 15.039062 4.261719 15.085938 C 4.171875 15.136719 4.085938 15.191406 4 15.257812 C 3.914062 15.320312 3.832031 15.394531 3.753906 15.472656 C 3.714844 15.511719 3.675781 15.554688 3.640625 15.597656 C 3.605469 15.640625 3.574219 15.6875 3.546875 15.734375 C 3.460938 15.875 3.390625 16.027344 3.347656 16.175781 C 3.308594 16.324219 3.289062 16.476562 3.289062 16.613281 " fill-opacity="1" fill-rule="nonzero"/><g clip-path="url(#3e402e3a13)"><path fill="#e7a811" d="M 0.566406 15.722656 C 0.59375 15.867188 0.625 16.011719 0.664062 16.152344 C 0.699219 16.296875 0.753906 16.433594 0.808594 16.566406 C 0.867188 16.695312 0.929688 16.820312 1 16.929688 C 1.109375 17.09375 1.230469 17.226562 1.347656 17.332031 C 1.46875 17.433594 1.585938 17.507812 1.703125 17.546875 C 1.9375 17.628906 2.140625 17.585938 2.261719 17.421875 C 2.324219 17.335938 2.363281 17.230469 2.378906 17.109375 C 2.386719 17.046875 2.390625 16.980469 2.386719 16.914062 C 2.382812 16.878906 2.382812 16.84375 2.375 16.808594 C 2.371094 16.773438 2.371094 16.738281 2.363281 16.699219 C 2.339844 16.554688 2.296875 16.398438 2.234375 16.238281 C 2.175781 16.078125 2.101562 15.917969 2.007812 15.757812 C 1.976562 15.703125 1.941406 15.652344 1.90625 15.601562 C 1.871094 15.550781 1.835938 15.503906 1.800781 15.453125 C 1.726562 15.359375 1.648438 15.269531 1.5625 15.183594 C 1.480469 15.097656 1.394531 15.019531 1.3125 14.945312 C 1.230469 14.871094 1.152344 14.804688 1.074219 14.742188 C 0.917969 14.621094 0.777344 14.523438 0.671875 14.460938 C 0.570312 14.394531 0.503906 14.359375 0.503906 14.359375 C 0.503906 14.359375 0.496094 14.464844 0.492188 14.632812 C 0.488281 14.71875 0.488281 14.820312 0.488281 14.933594 C 0.492188 15.046875 0.5 15.171875 0.515625 15.308594 C 0.519531 15.375 0.527344 15.441406 0.535156 15.511719 C 0.539062 15.546875 0.542969 15.582031 0.546875 15.617188 C 0.554688 15.652344 0.5625 15.6875 0.566406 15.722656 " fill-opacity="1" fill-rule="nonzero"/></g><path fill="#e7a811" d="M 3.9375 19.445312 C 3.964844 19.503906 3.996094 19.554688 4.03125 19.601562 C 4.101562 19.695312 4.1875 19.761719 4.28125 19.792969 C 4.375 19.828125 4.472656 19.820312 4.566406 19.785156 C 4.660156 19.75 4.746094 19.6875 4.832031 19.601562 C 4.914062 19.511719 4.992188 19.402344 5.058594 19.277344 C 5.09375 19.214844 5.125 19.148438 5.152344 19.078125 C 5.164062 19.042969 5.175781 19.007812 5.191406 18.96875 C 5.203125 18.933594 5.214844 18.894531 5.226562 18.855469 C 5.257812 18.753906 5.28125 18.648438 5.292969 18.539062 C 5.296875 18.511719 5.300781 18.488281 5.304688 18.460938 L 5.308594 18.417969 L 5.3125 18.378906 C 5.316406 18.324219 5.324219 18.269531 5.324219 18.21875 C 5.332031 18.109375 5.332031 18.003906 5.328125 17.902344 C 5.328125 17.800781 5.328125 17.703125 5.320312 17.609375 C 5.304688 17.425781 5.296875 17.265625 5.28125 17.152344 C 5.269531 17.035156 5.257812 16.96875 5.257812 16.96875 C 5.257812 16.96875 5.191406 16.996094 5.089844 17.054688 C 4.988281 17.109375 4.851562 17.195312 4.699219 17.308594 C 4.625 17.363281 4.546875 17.425781 4.46875 17.496094 C 4.429688 17.535156 4.394531 17.570312 4.355469 17.609375 C 4.316406 17.648438 4.28125 17.6875 4.246094 17.730469 C 4.179688 17.816406 4.113281 17.90625 4.058594 18.003906 C 4.027344 18.054688 4 18.105469 3.976562 18.15625 C 3.953125 18.207031 3.929688 18.261719 3.914062 18.316406 C 3.863281 18.476562 3.832031 18.644531 3.824219 18.804688 C 3.816406 18.882812 3.824219 18.960938 3.832031 19.035156 C 3.839844 19.109375 3.855469 19.183594 3.871094 19.253906 C 3.890625 19.320312 3.910156 19.382812 3.9375 19.445312 " fill-opacity="1" fill-rule="nonzero"/><g clip-path="url(#c807ca64bd)"><path fill="#e7a811" d="M 1.296875 19.679688 L 1.328125 19.726562 C 1.351562 19.757812 1.375 19.785156 1.394531 19.816406 C 1.484375 19.933594 1.578125 20.039062 1.675781 20.132812 C 1.710938 20.164062 1.75 20.199219 1.785156 20.226562 C 1.820312 20.257812 1.859375 20.285156 1.894531 20.3125 C 1.972656 20.363281 2.046875 20.40625 2.117188 20.445312 C 2.261719 20.515625 2.398438 20.558594 2.523438 20.570312 C 2.644531 20.585938 2.757812 20.566406 2.847656 20.523438 C 2.9375 20.476562 3.003906 20.40625 3.046875 20.308594 C 3.089844 20.210938 3.101562 20.09375 3.085938 19.96875 C 3.078125 19.90625 3.066406 19.839844 3.046875 19.773438 C 3.027344 19.707031 3.003906 19.636719 2.976562 19.566406 C 2.945312 19.496094 2.910156 19.425781 2.867188 19.351562 C 2.828125 19.28125 2.78125 19.210938 2.734375 19.136719 C 2.640625 18.992188 2.523438 18.851562 2.390625 18.71875 C 2.34375 18.671875 2.300781 18.628906 2.253906 18.585938 C 2.207031 18.542969 2.160156 18.503906 2.113281 18.464844 C 2.015625 18.386719 1.914062 18.316406 1.808594 18.253906 C 1.757812 18.222656 1.703125 18.191406 1.65625 18.160156 C 1.605469 18.132812 1.554688 18.105469 1.503906 18.078125 C 1.40625 18.023438 1.308594 17.976562 1.214844 17.9375 C 1.03125 17.851562 0.867188 17.792969 0.746094 17.75 C 0.628906 17.710938 0.558594 17.691406 0.558594 17.691406 C 0.558594 17.691406 0.574219 17.796875 0.613281 17.96875 C 0.648438 18.140625 0.703125 18.375 0.796875 18.636719 C 0.839844 18.765625 0.890625 18.902344 0.949219 19.039062 C 1.011719 19.171875 1.078125 19.308594 1.152344 19.441406 C 1.191406 19.507812 1.226562 19.570312 1.265625 19.632812 L 1.296875 19.679688 " fill-opacity="1" fill-rule="nonzero"/></g><path fill="#e7a811" d="M 5.054688 21.675781 C 5.199219 21.925781 5.386719 22.097656 5.597656 22.109375 C 5.800781 22.125 5.976562 21.992188 6.097656 21.78125 C 6.160156 21.671875 6.207031 21.546875 6.242188 21.40625 C 6.28125 21.261719 6.304688 21.109375 6.308594 20.949219 C 6.332031 20.511719 6.207031 20.058594 6.109375 19.695312 C 6.09375 19.652344 6.078125 19.605469 6.066406 19.566406 C 6.054688 19.523438 6.042969 19.484375 6.027344 19.445312 C 6.003906 19.371094 5.980469 19.304688 5.960938 19.25 C 5.949219 19.222656 5.941406 19.195312 5.933594 19.175781 C 5.921875 19.152344 5.917969 19.136719 5.910156 19.121094 C 5.902344 19.089844 5.894531 19.074219 5.894531 19.074219 C 5.894531 19.074219 5.835938 19.117188 5.746094 19.199219 C 5.65625 19.28125 5.539062 19.394531 5.417969 19.542969 C 5.359375 19.617188 5.296875 19.699219 5.234375 19.789062 C 5.207031 19.832031 5.175781 19.878906 5.148438 19.925781 C 5.121094 19.976562 5.09375 20.023438 5.070312 20.074219 C 5.019531 20.175781 4.976562 20.28125 4.945312 20.390625 C 4.925781 20.449219 4.914062 20.503906 4.902344 20.5625 C 4.894531 20.589844 4.890625 20.621094 4.886719 20.648438 C 4.882812 20.679688 4.878906 20.707031 4.875 20.734375 C 4.863281 20.90625 4.871094 21.082031 4.902344 21.242188 C 4.9375 21.398438 4.992188 21.546875 5.054688 21.675781 " fill-opacity="1" fill-rule="nonzero"/><path fill="#e7a811" d="M 3.605469 23.292969 C 3.765625 23.328125 3.914062 23.335938 4.042969 23.316406 C 4.296875 23.28125 4.464844 23.140625 4.5 22.925781 C 4.527344 22.710938 4.433594 22.453125 4.242188 22.207031 C 4.148438 22.082031 4.035156 21.957031 3.898438 21.839844 C 3.769531 21.71875 3.621094 21.605469 3.457031 21.503906 C 3.429688 21.488281 3.402344 21.46875 3.375 21.453125 C 3.347656 21.4375 3.320312 21.421875 3.289062 21.40625 C 3.234375 21.375 3.175781 21.347656 3.121094 21.320312 C 3.003906 21.265625 2.886719 21.222656 2.769531 21.183594 C 2.535156 21.101562 2.308594 21.046875 2.101562 21.007812 C 1.898438 20.96875 1.71875 20.949219 1.59375 20.9375 C 1.46875 20.925781 1.390625 20.925781 1.390625 20.925781 C 1.390625 20.925781 1.402344 20.949219 1.421875 20.996094 C 1.429688 21.019531 1.441406 21.046875 1.457031 21.078125 C 1.472656 21.109375 1.488281 21.144531 1.507812 21.1875 C 1.546875 21.265625 1.597656 21.363281 1.652344 21.46875 C 1.679688 21.519531 1.710938 21.574219 1.742188 21.632812 C 1.777344 21.6875 1.8125 21.746094 1.851562 21.804688 C 2.144531 22.285156 2.609375 22.816406 3.089844 23.085938 C 3.269531 23.1875 3.445312 23.253906 3.605469 23.292969 " fill-opacity="1" fill-rule="nonzero"/><path fill="#e7a811" d="M 6.402344 22.980469 C 6.410156 23.023438 6.421875 23.066406 6.4375 23.105469 C 6.460938 23.1875 6.492188 23.269531 6.527344 23.34375 C 6.546875 23.382812 6.5625 23.417969 6.582031 23.453125 C 6.601562 23.488281 6.621094 23.523438 6.644531 23.558594 C 6.691406 23.621094 6.738281 23.679688 6.785156 23.734375 C 6.835938 23.789062 6.886719 23.839844 6.9375 23.882812 C 6.992188 23.921875 7.046875 23.953125 7.101562 23.980469 C 7.210938 24.03125 7.320312 24.050781 7.425781 24.035156 C 7.632812 24 7.773438 23.824219 7.839844 23.582031 C 7.875 23.464844 7.894531 23.320312 7.894531 23.171875 C 7.898438 23.097656 7.894531 23.023438 7.886719 22.945312 C 7.882812 22.90625 7.875 22.867188 7.871094 22.828125 C 7.863281 22.785156 7.859375 22.746094 7.851562 22.707031 C 7.828125 22.59375 7.800781 22.488281 7.761719 22.382812 C 7.726562 22.277344 7.683594 22.171875 7.636719 22.070312 C 7.625 22.046875 7.613281 22.019531 7.601562 21.996094 L 7.585938 21.960938 L 7.566406 21.921875 C 7.542969 21.875 7.519531 21.824219 7.496094 21.78125 C 7.449219 21.6875 7.394531 21.601562 7.347656 21.515625 C 7.300781 21.433594 7.253906 21.359375 7.210938 21.289062 C 7.1875 21.257812 7.171875 21.226562 7.152344 21.195312 C 7.132812 21.164062 7.117188 21.136719 7.097656 21.113281 C 7.035156 21.011719 6.992188 20.957031 6.992188 20.957031 C 6.992188 20.957031 6.945312 21.011719 6.875 21.113281 C 6.808594 21.214844 6.71875 21.359375 6.628906 21.535156 C 6.585938 21.625 6.542969 21.722656 6.507812 21.824219 C 6.46875 21.925781 6.4375 22.035156 6.410156 22.144531 C 6.386719 22.257812 6.367188 22.375 6.359375 22.496094 C 6.355469 22.609375 6.359375 22.730469 6.378906 22.847656 C 6.386719 22.894531 6.394531 22.9375 6.402344 22.980469 " fill-opacity="1" fill-rule="nonzero"/><path fill="#e7a811" d="M 5.328125 25.664062 C 5.375 25.671875 5.425781 25.679688 5.472656 25.6875 C 5.566406 25.699219 5.65625 25.703125 5.742188 25.699219 C 5.910156 25.699219 6.058594 25.671875 6.179688 25.621094 C 6.421875 25.519531 6.554688 25.339844 6.535156 25.117188 C 6.527344 25.007812 6.480469 24.894531 6.40625 24.785156 C 6.371094 24.730469 6.324219 24.675781 6.273438 24.625 C 6.226562 24.570312 6.167969 24.515625 6.105469 24.464844 C 6.046875 24.414062 5.976562 24.367188 5.90625 24.320312 C 5.867188 24.296875 5.832031 24.273438 5.792969 24.25 C 5.757812 24.230469 5.71875 24.207031 5.679688 24.183594 C 5.597656 24.140625 5.511719 24.101562 5.425781 24.066406 C 5.382812 24.046875 5.335938 24.027344 5.292969 24.011719 C 5.246094 23.992188 5.203125 23.976562 5.15625 23.960938 C 5.03125 23.917969 4.902344 23.886719 4.773438 23.863281 C 4.644531 23.839844 4.519531 23.820312 4.394531 23.808594 C 4.265625 23.796875 4.144531 23.792969 4.023438 23.792969 C 3.902344 23.792969 3.792969 23.792969 3.6875 23.796875 C 3.476562 23.808594 3.292969 23.828125 3.164062 23.847656 C 3.035156 23.867188 2.957031 23.886719 2.957031 23.886719 C 2.957031 23.886719 3.023438 23.976562 3.140625 24.117188 C 3.167969 24.152344 3.199219 24.191406 3.234375 24.234375 C 3.269531 24.277344 3.308594 24.320312 3.351562 24.367188 C 3.433594 24.457031 3.527344 24.554688 3.632812 24.65625 C 4.046875 25.054688 4.625 25.480469 5.179688 25.625 C 5.230469 25.640625 5.277344 25.652344 5.328125 25.664062 " fill-opacity="1" fill-rule="nonzero"/><path fill="#e7a811" d="M 8.335938 24.539062 C 8.371094 24.621094 8.410156 24.703125 8.453125 24.777344 C 8.476562 24.816406 8.5 24.855469 8.523438 24.890625 C 8.550781 24.925781 8.574219 24.960938 8.601562 24.992188 C 8.65625 25.058594 8.710938 25.117188 8.769531 25.175781 C 8.800781 25.203125 8.828125 25.226562 8.859375 25.253906 C 8.890625 25.277344 8.921875 25.296875 8.949219 25.316406 C 9.191406 25.484375 9.453125 25.527344 9.644531 25.433594 C 9.738281 25.386719 9.808594 25.308594 9.851562 25.210938 C 9.898438 25.113281 9.921875 25 9.921875 24.871094 C 9.925781 24.742188 9.910156 24.601562 9.878906 24.460938 C 9.863281 24.386719 9.84375 24.3125 9.820312 24.242188 C 9.808594 24.207031 9.796875 24.167969 9.785156 24.132812 C 9.769531 24.097656 9.757812 24.058594 9.742188 24.023438 C 9.722656 23.976562 9.703125 23.925781 9.679688 23.878906 L 9.660156 23.847656 L 9.640625 23.808594 C 9.625 23.785156 9.609375 23.757812 9.59375 23.734375 C 9.535156 23.636719 9.464844 23.546875 9.394531 23.457031 C 9.328125 23.367188 9.257812 23.28125 9.183594 23.203125 C 9.148438 23.167969 9.113281 23.125 9.078125 23.085938 C 9.046875 23.050781 9.011719 23.011719 8.976562 22.976562 C 8.945312 22.945312 8.910156 22.910156 8.878906 22.878906 C 8.847656 22.847656 8.816406 22.816406 8.789062 22.789062 C 8.730469 22.730469 8.675781 22.679688 8.632812 22.640625 C 8.585938 22.601562 8.554688 22.566406 8.527344 22.542969 C 8.503906 22.519531 8.488281 22.507812 8.488281 22.507812 C 8.488281 22.507812 8.457031 22.578125 8.414062 22.695312 C 8.390625 22.753906 8.367188 22.824219 8.339844 22.90625 C 8.316406 22.988281 8.292969 23.078125 8.269531 23.175781 C 8.226562 23.371094 8.195312 23.597656 8.199219 23.835938 C 8.199219 23.949219 8.210938 24.070312 8.234375 24.1875 C 8.253906 24.308594 8.285156 24.429688 8.335938 24.539062 " fill-opacity="1" fill-rule="nonzero"/><path fill="#e7a811" d="M 8.457031 26.210938 C 8.421875 26.195312 8.382812 26.179688 8.339844 26.164062 C 8.300781 26.144531 8.261719 26.128906 8.222656 26.113281 C 8.140625 26.085938 8.050781 26.058594 7.960938 26.035156 C 7.917969 26.027344 7.871094 26.015625 7.824219 26.007812 C 7.777344 25.996094 7.730469 25.988281 7.683594 25.976562 C 7.585938 25.960938 7.488281 25.949219 7.390625 25.941406 C 7.253906 25.933594 7.121094 25.929688 6.988281 25.9375 C 6.855469 25.941406 6.722656 25.957031 6.59375 25.980469 C 6.339844 26.015625 6.101562 26.074219 5.890625 26.140625 C 5.785156 26.171875 5.6875 26.203125 5.605469 26.234375 C 5.519531 26.261719 5.445312 26.292969 5.382812 26.316406 C 5.257812 26.367188 5.1875 26.402344 5.1875 26.402344 C 5.1875 26.402344 5.210938 26.417969 5.25 26.453125 C 5.289062 26.484375 5.347656 26.535156 5.421875 26.589844 C 5.5 26.648438 5.589844 26.710938 5.695312 26.785156 C 5.746094 26.820312 5.800781 26.855469 5.859375 26.894531 C 5.917969 26.929688 5.980469 26.964844 6.042969 27.003906 C 6.109375 27.039062 6.175781 27.078125 6.242188 27.113281 C 6.3125 27.148438 6.378906 27.1875 6.453125 27.21875 C 6.597656 27.285156 6.75 27.351562 6.902344 27.40625 C 7.054688 27.460938 7.214844 27.5 7.367188 27.535156 C 7.402344 27.542969 7.441406 27.550781 7.480469 27.558594 L 7.535156 27.566406 C 7.558594 27.570312 7.578125 27.574219 7.597656 27.574219 C 7.675781 27.585938 7.757812 27.59375 7.832031 27.597656 C 7.890625 27.601562 7.945312 27.601562 8 27.601562 C 8.054688 27.597656 8.105469 27.59375 8.15625 27.589844 C 8.257812 27.578125 8.351562 27.5625 8.4375 27.539062 C 8.613281 27.492188 8.757812 27.425781 8.863281 27.34375 C 8.972656 27.261719 9.046875 27.164062 9.082031 27.0625 C 9.117188 26.960938 9.113281 26.859375 9.070312 26.75 C 8.988281 26.53125 8.757812 26.355469 8.457031 26.210938 " fill-opacity="1" fill-rule="nonzero"/><path fill="#e7a811" d="M 21.765625 7.894531 C 21.71875 7.882812 21.671875 7.871094 21.625 7.855469 C 21.582031 7.84375 21.535156 7.824219 21.488281 7.8125 C 21.398438 7.78125 21.308594 7.75 21.222656 7.714844 C 21.179688 7.695312 21.140625 7.675781 21.101562 7.660156 C 21.089844 7.652344 21.082031 7.648438 21.070312 7.644531 C 21.0625 7.640625 21.050781 7.636719 21.042969 7.632812 C 21.023438 7.625 21.003906 7.613281 20.984375 7.605469 C 20.90625 7.574219 20.835938 7.539062 20.773438 7.503906 C 20.742188 7.488281 20.714844 7.472656 20.6875 7.457031 C 20.660156 7.445312 20.632812 7.429688 20.609375 7.417969 C 20.519531 7.371094 20.464844 7.339844 20.464844 7.339844 C 20.464844 7.339844 20.507812 7.292969 20.589844 7.230469 C 20.671875 7.164062 20.789062 7.074219 20.929688 6.988281 C 21.070312 6.902344 21.238281 6.820312 21.425781 6.757812 C 21.519531 6.726562 21.617188 6.703125 21.714844 6.683594 C 21.816406 6.671875 21.914062 6.664062 22.015625 6.671875 C 22.089844 6.675781 22.164062 6.683594 22.238281 6.699219 C 22.273438 6.703125 22.308594 6.710938 22.34375 6.71875 C 22.378906 6.730469 22.414062 6.742188 22.445312 6.753906 C 22.578125 6.800781 22.699219 6.863281 22.800781 6.933594 C 22.828125 6.949219 22.851562 6.96875 22.875 6.988281 C 22.898438 7.007812 22.917969 7.027344 22.9375 7.050781 C 22.976562 7.089844 23.011719 7.132812 23.039062 7.179688 C 23.09375 7.265625 23.125 7.355469 23.121094 7.445312 C 23.121094 7.535156 23.085938 7.613281 23.027344 7.683594 C 22.96875 7.75 22.890625 7.804688 22.792969 7.84375 C 22.59375 7.929688 22.332031 7.96875 22.054688 7.9375 C 21.957031 7.933594 21.859375 7.917969 21.765625 7.894531 " fill-opacity="1" fill-rule="nonzero"/><g clip-path="url(#cd70d3a8db)"><path fill="#e7a811" d="M 24.304688 6.21875 C 24.277344 6.324219 24.226562 6.414062 24.164062 6.476562 C 24.097656 6.535156 24.023438 6.570312 23.925781 6.574219 C 23.832031 6.582031 23.734375 6.554688 23.636719 6.503906 C 23.585938 6.480469 23.535156 6.449219 23.488281 6.410156 C 23.464844 6.390625 23.4375 6.371094 23.414062 6.351562 C 23.390625 6.328125 23.367188 6.308594 23.34375 6.285156 C 23.246094 6.191406 23.152344 6.082031 23.066406 5.953125 C 23.046875 5.921875 23.023438 5.886719 23.003906 5.851562 C 22.984375 5.820312 22.960938 5.785156 22.941406 5.753906 C 22.902344 5.683594 22.867188 5.609375 22.832031 5.535156 C 22.785156 5.433594 22.75 5.324219 22.71875 5.21875 C 22.6875 5.117188 22.664062 5.011719 22.644531 4.90625 C 22.605469 4.695312 22.589844 4.492188 22.585938 4.308594 C 22.578125 4.148438 22.582031 4.007812 22.585938 3.898438 C 21.980469 3.0625 21.410156 2.484375 21.410156 2.484375 C 21.855469 2.789062 22.347656 3.304688 22.765625 3.792969 C 22.78125 3.800781 22.792969 3.8125 22.808594 3.820312 C 22.839844 3.839844 22.875 3.867188 22.910156 3.890625 C 22.945312 3.917969 22.984375 3.949219 23.023438 3.980469 C 23.105469 4.039062 23.191406 4.109375 23.285156 4.1875 C 23.304688 4.207031 23.328125 4.226562 23.351562 4.246094 C 23.363281 4.253906 23.375 4.265625 23.386719 4.273438 C 23.398438 4.285156 23.410156 4.296875 23.421875 4.308594 C 23.464844 4.351562 23.511719 4.394531 23.554688 4.441406 C 23.644531 4.535156 23.734375 4.632812 23.820312 4.730469 C 23.863281 4.78125 23.898438 4.835938 23.9375 4.890625 C 23.976562 4.945312 24.011719 4.996094 24.042969 5.050781 C 24.109375 5.160156 24.167969 5.269531 24.214844 5.378906 C 24.339844 5.710938 24.363281 6.003906 24.304688 6.21875 " fill-opacity="1" fill-rule="nonzero"/></g><path fill="#e7a811" d="M 23.367188 9.625 C 23.324219 9.601562 23.28125 9.578125 23.238281 9.550781 C 23.21875 9.539062 23.199219 9.527344 23.175781 9.511719 L 23.113281 9.472656 C 23.027344 9.421875 22.949219 9.367188 22.875 9.3125 C 22.835938 9.28125 22.800781 9.253906 22.765625 9.226562 C 22.730469 9.199219 22.695312 9.171875 22.660156 9.144531 C 22.59375 9.09375 22.53125 9.042969 22.476562 8.992188 C 22.449219 8.96875 22.425781 8.945312 22.402344 8.925781 C 22.378906 8.90625 22.355469 8.886719 22.335938 8.871094 C 22.253906 8.800781 22.210938 8.753906 22.210938 8.753906 C 22.210938 8.753906 22.265625 8.722656 22.363281 8.675781 C 22.457031 8.628906 22.59375 8.570312 22.757812 8.519531 C 22.800781 8.503906 22.84375 8.492188 22.886719 8.480469 C 22.929688 8.46875 22.972656 8.457031 23.019531 8.449219 C 23.113281 8.429688 23.207031 8.417969 23.308594 8.410156 C 23.507812 8.394531 23.71875 8.402344 23.917969 8.46875 C 23.992188 8.488281 24.0625 8.515625 24.128906 8.550781 C 24.164062 8.5625 24.199219 8.582031 24.230469 8.597656 C 24.246094 8.605469 24.265625 8.617188 24.28125 8.625 C 24.296875 8.632812 24.3125 8.644531 24.324219 8.65625 C 24.445312 8.734375 24.550781 8.828125 24.636719 8.921875 C 24.65625 8.945312 24.675781 8.972656 24.695312 8.996094 C 24.710938 9.019531 24.726562 9.046875 24.742188 9.074219 C 24.773438 9.125 24.792969 9.175781 24.8125 9.226562 C 24.84375 9.324219 24.851562 9.421875 24.828125 9.511719 C 24.777344 9.691406 24.613281 9.792969 24.402344 9.828125 C 24.183594 9.863281 23.910156 9.835938 23.644531 9.738281 C 23.550781 9.707031 23.457031 9.667969 23.367188 9.625 " fill-opacity="1" fill-rule="nonzero"/><path fill="#e7a811" d="M 25.84375 8.847656 C 25.746094 8.828125 25.65625 8.777344 25.570312 8.703125 C 25.527344 8.664062 25.484375 8.621094 25.445312 8.574219 C 25.425781 8.546875 25.40625 8.523438 25.390625 8.496094 C 25.371094 8.46875 25.351562 8.441406 25.332031 8.410156 C 25.257812 8.292969 25.191406 8.160156 25.140625 8.011719 C 25.132812 7.992188 25.125 7.972656 25.121094 7.953125 C 25.113281 7.933594 25.105469 7.917969 25.101562 7.898438 C 25.085938 7.859375 25.074219 7.820312 25.0625 7.78125 C 25.042969 7.703125 25.023438 7.621094 25.007812 7.535156 C 24.96875 7.308594 24.957031 7.082031 24.972656 6.863281 C 24.976562 6.753906 24.988281 6.648438 25.003906 6.542969 C 25.011719 6.492188 25.019531 6.441406 25.027344 6.394531 C 25.035156 6.347656 25.046875 6.300781 25.054688 6.253906 C 25.082031 6.125 25.109375 6.007812 25.136719 5.910156 C 24.734375 4.78125 24.238281 3.914062 24.238281 3.914062 C 24.632812 4.371094 25.019531 5.105469 25.316406 5.734375 C 25.339844 5.761719 25.367188 5.789062 25.398438 5.824219 C 25.421875 5.851562 25.453125 5.882812 25.484375 5.917969 C 25.511719 5.953125 25.542969 5.992188 25.574219 6.03125 C 25.640625 6.113281 25.710938 6.203125 25.78125 6.304688 C 25.820312 6.355469 25.855469 6.40625 25.890625 6.457031 C 25.925781 6.511719 25.960938 6.570312 25.996094 6.625 C 26.0625 6.742188 26.125 6.859375 26.1875 6.980469 C 26.199219 7.011719 26.214844 7.042969 26.230469 7.074219 C 26.242188 7.105469 26.253906 7.136719 26.265625 7.167969 C 26.289062 7.230469 26.3125 7.292969 26.332031 7.355469 C 26.371094 7.480469 26.402344 7.605469 26.421875 7.726562 C 26.464844 8.085938 26.417969 8.386719 26.308594 8.585938 C 26.195312 8.785156 26.03125 8.882812 25.84375 8.847656 " fill-opacity="1" fill-rule="nonzero"/><path fill="#e7a811" d="M 23.738281 10.496094 C 23.84375 10.472656 23.996094 10.445312 24.171875 10.433594 C 24.257812 10.429688 24.355469 10.425781 24.449219 10.429688 C 24.542969 10.433594 24.644531 10.441406 24.746094 10.457031 C 24.945312 10.492188 25.15625 10.554688 25.335938 10.664062 C 25.40625 10.707031 25.46875 10.75 25.53125 10.796875 C 25.5625 10.824219 25.589844 10.847656 25.617188 10.871094 C 25.632812 10.886719 25.648438 10.898438 25.660156 10.910156 C 25.675781 10.925781 25.6875 10.9375 25.699219 10.953125 C 25.800781 11.0625 25.882812 11.179688 25.941406 11.292969 C 25.972656 11.351562 25.996094 11.410156 26.011719 11.46875 C 26.027344 11.527344 26.039062 11.585938 26.042969 11.640625 C 26.054688 11.746094 26.035156 11.847656 25.992188 11.929688 C 25.898438 12.09375 25.710938 12.15625 25.488281 12.136719 C 25.460938 12.136719 25.433594 12.132812 25.402344 12.128906 C 25.375 12.121094 25.34375 12.117188 25.3125 12.109375 C 25.253906 12.097656 25.191406 12.078125 25.128906 12.054688 C 25.003906 12.007812 24.878906 11.945312 24.757812 11.863281 C 24.671875 11.808594 24.589844 11.75 24.511719 11.683594 C 24.472656 11.648438 24.4375 11.613281 24.398438 11.578125 C 24.382812 11.5625 24.363281 11.542969 24.347656 11.523438 L 24.292969 11.472656 C 24.222656 11.398438 24.15625 11.324219 24.09375 11.25 C 24.0625 11.214844 24.039062 11.175781 24.007812 11.140625 C 23.976562 11.105469 23.949219 11.070312 23.921875 11.035156 C 23.867188 10.964844 23.820312 10.902344 23.777344 10.839844 C 23.769531 10.824219 23.757812 10.808594 23.75 10.796875 C 23.738281 10.78125 23.726562 10.769531 23.71875 10.753906 C 23.699219 10.730469 23.679688 10.703125 23.664062 10.683594 C 23.601562 10.59375 23.570312 10.535156 23.570312 10.535156 C 23.570312 10.535156 23.632812 10.515625 23.738281 10.496094 " fill-opacity="1" fill-rule="nonzero"/><path fill="#e7a811" d="M 27.800781 11.222656 C 27.785156 11.25 27.765625 11.277344 27.746094 11.300781 C 27.730469 11.324219 27.710938 11.347656 27.691406 11.371094 C 27.53125 11.542969 27.339844 11.601562 27.164062 11.515625 C 27.074219 11.472656 26.992188 11.402344 26.925781 11.304688 C 26.890625 11.257812 26.863281 11.203125 26.835938 11.144531 C 26.808594 11.085938 26.785156 11.023438 26.761719 10.957031 C 26.714844 10.820312 26.679688 10.671875 26.664062 10.507812 C 26.664062 10.488281 26.660156 10.46875 26.660156 10.449219 C 26.65625 10.429688 26.65625 10.40625 26.652344 10.386719 C 26.648438 10.347656 26.648438 10.304688 26.644531 10.261719 C 26.640625 10.179688 26.640625 10.09375 26.648438 10.003906 C 26.664062 9.765625 26.707031 9.539062 26.773438 9.324219 C 26.808594 9.214844 26.84375 9.113281 26.882812 9.015625 C 26.925781 8.914062 26.960938 8.824219 27.003906 8.738281 C 27.082031 8.566406 27.160156 8.425781 27.21875 8.324219 C 27.222656 8.320312 27.226562 8.3125 27.230469 8.308594 C 27.082031 7.179688 26.8125 6.296875 26.8125 6.296875 C 27.117188 6.875 27.34375 7.761719 27.492188 8.472656 C 27.496094 8.484375 27.503906 8.496094 27.507812 8.507812 C 27.519531 8.527344 27.53125 8.550781 27.542969 8.570312 C 27.554688 8.59375 27.566406 8.617188 27.578125 8.640625 C 27.621094 8.738281 27.667969 8.847656 27.71875 8.964844 C 27.742188 9.023438 27.765625 9.085938 27.789062 9.144531 C 27.8125 9.207031 27.832031 9.273438 27.851562 9.339844 C 27.890625 9.46875 27.925781 9.605469 27.957031 9.742188 C 27.964844 9.773438 27.96875 9.808594 27.976562 9.84375 C 27.980469 9.878906 27.988281 9.914062 27.992188 9.945312 C 28 10.015625 28.007812 10.082031 28.011719 10.152344 C 28.023438 10.285156 28.023438 10.417969 28.011719 10.539062 C 27.988281 10.726562 27.949219 10.890625 27.894531 11.03125 C 27.867188 11.101562 27.835938 11.164062 27.800781 11.222656 " fill-opacity="1" fill-rule="nonzero"/><path fill="#e7a811" d="M 25.992188 14.632812 C 25.886719 14.597656 25.769531 14.539062 25.65625 14.460938 C 25.542969 14.386719 25.433594 14.292969 25.332031 14.179688 C 25.261719 14.105469 25.191406 14.027344 25.132812 13.941406 C 25.101562 13.902344 25.074219 13.855469 25.046875 13.8125 C 25.03125 13.792969 25.019531 13.769531 25.007812 13.746094 L 24.964844 13.679688 C 24.914062 13.59375 24.863281 13.503906 24.824219 13.414062 C 24.8125 13.394531 24.800781 13.371094 24.792969 13.347656 L 24.761719 13.285156 C 24.738281 13.242188 24.71875 13.203125 24.703125 13.160156 C 24.664062 13.078125 24.632812 13.003906 24.605469 12.933594 C 24.59375 12.898438 24.578125 12.867188 24.566406 12.835938 C 24.554688 12.804688 24.542969 12.777344 24.53125 12.75 C 24.492188 12.644531 24.472656 12.582031 24.472656 12.582031 C 24.472656 12.582031 24.539062 12.578125 24.648438 12.582031 C 24.761719 12.585938 24.917969 12.59375 25.09375 12.625 C 25.183594 12.640625 25.277344 12.660156 25.375 12.6875 C 25.46875 12.710938 25.5625 12.746094 25.660156 12.785156 C 25.757812 12.828125 25.851562 12.875 25.945312 12.933594 C 25.988281 12.960938 26.039062 12.992188 26.078125 13.027344 C 26.121094 13.0625 26.160156 13.097656 26.199219 13.136719 C 26.257812 13.191406 26.3125 13.253906 26.359375 13.316406 C 26.386719 13.347656 26.410156 13.378906 26.429688 13.410156 C 26.441406 13.425781 26.453125 13.441406 26.460938 13.457031 C 26.472656 13.476562 26.480469 13.492188 26.492188 13.507812 C 26.5625 13.640625 26.617188 13.777344 26.652344 13.910156 C 26.667969 13.972656 26.671875 14.039062 26.675781 14.101562 C 26.679688 14.160156 26.675781 14.21875 26.667969 14.277344 C 26.648438 14.386719 26.613281 14.480469 26.542969 14.550781 C 26.410156 14.691406 26.207031 14.707031 25.992188 14.632812 " fill-opacity="1" fill-rule="nonzero"/><g clip-path="url(#2b2e694db0)"><path fill="#e7a811" d="M 28.890625 13.667969 C 28.824219 13.847656 28.746094 14.003906 28.65625 14.128906 C 28.566406 14.253906 28.472656 14.351562 28.371094 14.417969 C 28.167969 14.550781 27.964844 14.558594 27.8125 14.429688 C 27.734375 14.367188 27.667969 14.273438 27.625 14.164062 C 27.605469 14.105469 27.585938 14.046875 27.574219 13.980469 C 27.5625 13.914062 27.554688 13.84375 27.546875 13.773438 C 27.53125 13.628906 27.535156 13.46875 27.558594 13.304688 C 27.5625 13.285156 27.566406 13.261719 27.570312 13.242188 C 27.570312 13.222656 27.574219 13.199219 27.578125 13.179688 C 27.582031 13.136719 27.589844 13.09375 27.597656 13.054688 C 27.617188 12.96875 27.636719 12.882812 27.664062 12.796875 C 27.683594 12.738281 27.703125 12.683594 27.722656 12.625 C 27.746094 12.570312 27.765625 12.515625 27.792969 12.460938 C 27.839844 12.351562 27.894531 12.25 27.953125 12.148438 C 28.011719 12.050781 28.074219 11.953125 28.136719 11.867188 C 28.199219 11.777344 28.257812 11.695312 28.320312 11.621094 C 28.425781 11.480469 28.53125 11.367188 28.609375 11.285156 C 28.878906 10.066406 28.914062 9.007812 28.914062 9.007812 C 29.019531 9.679688 28.941406 10.644531 28.84375 11.378906 C 28.855469 11.421875 28.867188 11.464844 28.878906 11.511719 C 28.890625 11.558594 28.90625 11.609375 28.914062 11.664062 C 28.9375 11.773438 28.957031 11.894531 28.976562 12.019531 C 29.023438 12.277344 29.035156 12.570312 29.03125 12.855469 C 29.027344 12.890625 29.027344 12.925781 29.027344 12.960938 C 29.023438 12.996094 29.019531 13.035156 29.015625 13.070312 C 29.007812 13.140625 29 13.210938 28.988281 13.277344 C 28.964844 13.414062 28.933594 13.546875 28.890625 13.667969 " fill-opacity="1" fill-rule="nonzero"/></g><path fill="#e7a811" d="M 26.714844 16.613281 C 26.714844 16.648438 26.714844 16.679688 26.710938 16.714844 C 26.707031 16.746094 26.699219 16.777344 26.695312 16.808594 C 26.683594 16.871094 26.664062 16.929688 26.640625 16.980469 C 26.597656 17.085938 26.535156 17.171875 26.453125 17.222656 C 26.285156 17.328125 26.078125 17.296875 25.882812 17.167969 C 25.785156 17.105469 25.683594 17.019531 25.589844 16.914062 C 25.496094 16.8125 25.410156 16.691406 25.335938 16.558594 C 25.28125 16.464844 25.238281 16.371094 25.199219 16.273438 C 25.15625 16.171875 25.128906 16.074219 25.09375 15.972656 C 25.0625 15.871094 25.039062 15.773438 25.019531 15.675781 C 25.011719 15.652344 25.007812 15.625 25.003906 15.601562 C 24.996094 15.578125 24.992188 15.554688 24.988281 15.53125 C 24.976562 15.484375 24.96875 15.4375 24.957031 15.394531 C 24.941406 15.304688 24.929688 15.222656 24.917969 15.144531 C 24.90625 15.070312 24.894531 15.003906 24.890625 14.949219 C 24.875 14.835938 24.871094 14.765625 24.871094 14.765625 C 24.871094 14.765625 24.9375 14.777344 25.046875 14.808594 C 25.15625 14.839844 25.308594 14.886719 25.476562 14.960938 C 25.5625 14.996094 25.652344 15.039062 25.742188 15.085938 C 25.832031 15.136719 25.917969 15.191406 26.003906 15.257812 C 26.089844 15.320312 26.171875 15.394531 26.25 15.472656 C 26.289062 15.511719 26.324219 15.554688 26.363281 15.597656 C 26.394531 15.640625 26.425781 15.6875 26.457031 15.734375 C 26.542969 15.875 26.609375 16.027344 26.65625 16.175781 C 26.695312 16.324219 26.714844 16.476562 26.714844 16.613281 " fill-opacity="1" fill-rule="nonzero"/><g clip-path="url(#e05a9d9204)"><path fill="#e7a811" d="M 29.433594 15.722656 C 29.40625 15.867188 29.375 16.011719 29.335938 16.152344 C 29.300781 16.296875 29.246094 16.433594 29.191406 16.566406 C 29.136719 16.695312 29.074219 16.820312 29.003906 16.929688 C 28.890625 17.09375 28.773438 17.226562 28.652344 17.332031 C 28.535156 17.433594 28.414062 17.507812 28.300781 17.546875 C 28.066406 17.628906 27.863281 17.585938 27.742188 17.421875 C 27.675781 17.335938 27.636719 17.230469 27.621094 17.109375 C 27.613281 17.046875 27.613281 16.980469 27.617188 16.914062 C 27.617188 16.878906 27.621094 16.84375 27.625 16.808594 C 27.628906 16.773438 27.632812 16.738281 27.636719 16.699219 C 27.660156 16.554688 27.703125 16.398438 27.765625 16.238281 C 27.824219 16.078125 27.898438 15.917969 27.992188 15.757812 C 28.027344 15.703125 28.058594 15.652344 28.097656 15.601562 C 28.128906 15.550781 28.164062 15.503906 28.203125 15.453125 C 28.277344 15.359375 28.355469 15.269531 28.4375 15.183594 C 28.519531 15.097656 28.605469 15.019531 28.6875 14.945312 C 28.769531 14.871094 28.851562 14.804688 28.929688 14.742188 C 29.085938 14.621094 29.226562 14.523438 29.328125 14.460938 C 29.433594 14.394531 29.496094 14.359375 29.496094 14.359375 C 29.496094 14.359375 29.503906 14.464844 29.511719 14.632812 C 29.511719 14.71875 29.515625 14.820312 29.511719 14.933594 C 29.507812 15.046875 29.5 15.171875 29.488281 15.308594 C 29.480469 15.375 29.476562 15.441406 29.46875 15.511719 C 29.464844 15.546875 29.460938 15.582031 29.453125 15.617188 C 29.449219 15.652344 29.441406 15.6875 29.433594 15.722656 " fill-opacity="1" fill-rule="nonzero"/></g><path fill="#e7a811" d="M 26.066406 19.445312 C 26.039062 19.503906 26.003906 19.554688 25.96875 19.601562 C 25.898438 19.695312 25.816406 19.761719 25.722656 19.792969 C 25.628906 19.828125 25.53125 19.820312 25.4375 19.785156 C 25.34375 19.75 25.253906 19.6875 25.171875 19.601562 C 25.085938 19.511719 25.007812 19.402344 24.941406 19.277344 C 24.910156 19.214844 24.878906 19.148438 24.851562 19.078125 C 24.835938 19.042969 24.824219 19.007812 24.8125 18.96875 C 24.796875 18.933594 24.785156 18.894531 24.773438 18.855469 C 24.742188 18.753906 24.722656 18.648438 24.707031 18.539062 C 24.703125 18.511719 24.699219 18.488281 24.699219 18.460938 L 24.695312 18.417969 L 24.691406 18.378906 C 24.683594 18.324219 24.679688 18.269531 24.675781 18.21875 C 24.671875 18.109375 24.671875 18.003906 24.675781 17.902344 C 24.671875 17.800781 24.675781 17.703125 24.679688 17.609375 C 24.699219 17.425781 24.707031 17.265625 24.71875 17.152344 C 24.734375 17.035156 24.746094 16.96875 24.746094 16.96875 C 24.746094 16.96875 24.808594 16.996094 24.910156 17.054688 C 25.011719 17.109375 25.152344 17.195312 25.300781 17.308594 C 25.378906 17.363281 25.457031 17.425781 25.53125 17.496094 C 25.570312 17.535156 25.609375 17.570312 25.648438 17.609375 C 25.683594 17.648438 25.71875 17.6875 25.753906 17.730469 C 25.824219 17.816406 25.886719 17.90625 25.945312 18.003906 C 25.972656 18.054688 26 18.105469 26.023438 18.15625 C 26.050781 18.207031 26.074219 18.261719 26.089844 18.316406 C 26.140625 18.476562 26.167969 18.644531 26.175781 18.804688 C 26.183594 18.882812 26.179688 18.960938 26.167969 19.035156 C 26.160156 19.109375 26.148438 19.183594 26.128906 19.253906 C 26.113281 19.320312 26.089844 19.382812 26.066406 19.445312 " fill-opacity="1" fill-rule="nonzero"/><g clip-path="url(#982b6d34b6)"><path fill="#e7a811" d="M 28.703125 19.679688 L 28.671875 19.726562 C 28.652344 19.757812 28.628906 19.785156 28.605469 19.816406 C 28.515625 19.933594 28.421875 20.039062 28.324219 20.132812 C 28.289062 20.164062 28.253906 20.199219 28.21875 20.226562 C 28.183594 20.257812 28.144531 20.285156 28.105469 20.3125 C 28.03125 20.363281 27.957031 20.40625 27.886719 20.445312 C 27.742188 20.515625 27.601562 20.558594 27.480469 20.570312 C 27.355469 20.585938 27.242188 20.566406 27.15625 20.523438 C 27.066406 20.476562 27 20.40625 26.953125 20.308594 C 26.910156 20.210938 26.898438 20.09375 26.914062 19.96875 C 26.921875 19.90625 26.9375 19.839844 26.957031 19.773438 C 26.972656 19.707031 26.996094 19.636719 27.027344 19.566406 C 27.058594 19.496094 27.09375 19.425781 27.132812 19.351562 C 27.171875 19.28125 27.222656 19.210938 27.269531 19.136719 C 27.363281 18.992188 27.480469 18.851562 27.613281 18.71875 C 27.660156 18.671875 27.703125 18.628906 27.75 18.585938 C 27.792969 18.542969 27.84375 18.503906 27.890625 18.464844 C 27.988281 18.386719 28.089844 18.316406 28.191406 18.253906 C 28.246094 18.222656 28.296875 18.191406 28.347656 18.160156 C 28.398438 18.132812 28.449219 18.105469 28.496094 18.078125 C 28.597656 18.023438 28.695312 17.976562 28.785156 17.9375 C 28.972656 17.851562 29.136719 17.792969 29.253906 17.75 C 29.371094 17.710938 29.445312 17.691406 29.445312 17.691406 C 29.445312 17.691406 29.429688 17.796875 29.390625 17.96875 C 29.351562 18.140625 29.300781 18.375 29.207031 18.636719 C 29.160156 18.765625 29.109375 18.902344 29.054688 19.039062 C 28.992188 19.171875 28.921875 19.308594 28.847656 19.441406 C 28.8125 19.507812 28.773438 19.570312 28.734375 19.632812 L 28.703125 19.679688 " fill-opacity="1" fill-rule="nonzero"/></g><path fill="#e7a811" d="M 24.945312 21.675781 C 24.804688 21.925781 24.613281 22.097656 24.40625 22.109375 C 24.199219 22.125 24.027344 21.992188 23.90625 21.78125 C 23.84375 21.671875 23.796875 21.546875 23.757812 21.40625 C 23.722656 21.261719 23.699219 21.109375 23.691406 20.949219 C 23.667969 20.511719 23.792969 20.058594 23.894531 19.695312 C 23.910156 19.652344 23.921875 19.605469 23.9375 19.566406 C 23.949219 19.523438 23.960938 19.484375 23.972656 19.445312 C 23.996094 19.371094 24.019531 19.304688 24.042969 19.25 C 24.050781 19.222656 24.0625 19.195312 24.070312 19.175781 C 24.078125 19.152344 24.085938 19.136719 24.089844 19.121094 C 24.101562 19.089844 24.109375 19.074219 24.109375 19.074219 C 24.109375 19.074219 24.164062 19.117188 24.253906 19.199219 C 24.34375 19.28125 24.460938 19.394531 24.582031 19.542969 C 24.644531 19.617188 24.707031 19.699219 24.765625 19.789062 C 24.796875 19.832031 24.824219 19.878906 24.851562 19.925781 C 24.882812 19.976562 24.910156 20.023438 24.933594 20.074219 C 24.980469 20.175781 25.023438 20.28125 25.058594 20.390625 C 25.074219 20.449219 25.089844 20.503906 25.101562 20.5625 C 25.105469 20.589844 25.113281 20.621094 25.117188 20.648438 C 25.121094 20.679688 25.125 20.707031 25.125 20.734375 C 25.136719 20.90625 25.128906 21.082031 25.097656 21.242188 C 25.0625 21.398438 25.011719 21.546875 24.945312 21.675781 " fill-opacity="1" fill-rule="nonzero"/><path fill="#e7a811" d="M 26.398438 23.292969 C 26.234375 23.328125 26.085938 23.335938 25.960938 23.316406 C 25.707031 23.28125 25.539062 23.140625 25.503906 22.925781 C 25.472656 22.710938 25.570312 22.453125 25.761719 22.207031 C 25.851562 22.082031 25.96875 21.957031 26.101562 21.839844 C 26.234375 21.71875 26.378906 21.605469 26.542969 21.503906 C 26.570312 21.488281 26.601562 21.46875 26.628906 21.453125 C 26.65625 21.4375 26.683594 21.421875 26.710938 21.40625 C 26.765625 21.375 26.824219 21.347656 26.882812 21.320312 C 26.996094 21.265625 27.117188 21.222656 27.234375 21.183594 C 27.46875 21.101562 27.695312 21.046875 27.898438 21.007812 C 28.105469 20.96875 28.285156 20.949219 28.410156 20.9375 C 28.535156 20.925781 28.609375 20.925781 28.609375 20.925781 C 28.609375 20.925781 28.601562 20.949219 28.582031 20.996094 C 28.570312 21.019531 28.5625 21.046875 28.546875 21.078125 C 28.53125 21.109375 28.511719 21.144531 28.492188 21.1875 C 28.453125 21.265625 28.40625 21.363281 28.351562 21.46875 C 28.320312 21.519531 28.292969 21.574219 28.257812 21.632812 C 28.226562 21.6875 28.1875 21.746094 28.152344 21.804688 C 27.855469 22.285156 27.394531 22.816406 26.914062 23.085938 C 26.730469 23.1875 26.558594 23.253906 26.398438 23.292969 " fill-opacity="1" fill-rule="nonzero"/><path fill="#e7a811" d="M 23.597656 22.980469 C 23.589844 23.023438 23.578125 23.066406 23.566406 23.105469 C 23.539062 23.1875 23.507812 23.269531 23.472656 23.34375 C 23.457031 23.382812 23.4375 23.417969 23.417969 23.453125 C 23.398438 23.488281 23.378906 23.523438 23.355469 23.558594 C 23.3125 23.621094 23.265625 23.679688 23.214844 23.734375 C 23.167969 23.789062 23.117188 23.839844 23.0625 23.882812 C 23.007812 23.921875 22.953125 23.953125 22.898438 23.980469 C 22.789062 24.03125 22.679688 24.050781 22.578125 24.035156 C 22.367188 24 22.230469 23.824219 22.160156 23.582031 C 22.128906 23.464844 22.105469 23.320312 22.105469 23.171875 C 22.105469 23.097656 22.109375 23.023438 22.117188 22.945312 C 22.121094 22.90625 22.125 22.867188 22.132812 22.828125 C 22.136719 22.785156 22.144531 22.746094 22.152344 22.707031 C 22.171875 22.59375 22.203125 22.488281 22.242188 22.382812 C 22.277344 22.277344 22.316406 22.171875 22.363281 22.070312 C 22.375 22.046875 22.386719 22.019531 22.398438 21.996094 L 22.417969 21.960938 L 22.433594 21.921875 C 22.457031 21.875 22.480469 21.824219 22.507812 21.78125 C 22.554688 21.6875 22.609375 21.601562 22.652344 21.515625 C 22.699219 21.433594 22.746094 21.359375 22.789062 21.289062 C 22.8125 21.257812 22.832031 21.226562 22.851562 21.195312 C 22.867188 21.164062 22.886719 21.136719 22.902344 21.113281 C 22.96875 21.011719 23.011719 20.957031 23.011719 20.957031 C 23.011719 20.957031 23.058594 21.011719 23.125 21.113281 C 23.195312 21.214844 23.285156 21.359375 23.371094 21.535156 C 23.414062 21.625 23.460938 21.722656 23.496094 21.824219 C 23.53125 21.925781 23.566406 22.035156 23.589844 22.144531 C 23.617188 22.257812 23.632812 22.375 23.640625 22.496094 C 23.648438 22.609375 23.640625 22.730469 23.625 22.847656 C 23.617188 22.894531 23.609375 22.9375 23.597656 22.980469 " fill-opacity="1" fill-rule="nonzero"/><path fill="#e7a811" d="M 24.675781 25.664062 C 24.625 25.671875 24.578125 25.679688 24.53125 25.6875 C 24.4375 25.699219 24.347656 25.703125 24.261719 25.699219 C 24.089844 25.699219 23.945312 25.671875 23.824219 25.621094 C 23.578125 25.519531 23.445312 25.339844 23.464844 25.117188 C 23.476562 25.007812 23.519531 24.894531 23.59375 24.785156 C 23.632812 24.730469 23.675781 24.675781 23.726562 24.625 C 23.777344 24.570312 23.832031 24.515625 23.894531 24.464844 C 23.957031 24.414062 24.023438 24.367188 24.097656 24.320312 C 24.132812 24.296875 24.171875 24.273438 24.207031 24.25 C 24.246094 24.230469 24.285156 24.207031 24.324219 24.183594 C 24.402344 24.140625 24.488281 24.101562 24.578125 24.066406 C 24.621094 24.046875 24.664062 24.027344 24.710938 24.011719 C 24.753906 23.992188 24.800781 23.976562 24.847656 23.960938 C 24.972656 23.917969 25.101562 23.886719 25.230469 23.863281 C 25.355469 23.839844 25.484375 23.820312 25.609375 23.808594 C 25.734375 23.796875 25.859375 23.792969 25.976562 23.792969 C 26.097656 23.792969 26.210938 23.792969 26.316406 23.796875 C 26.527344 23.808594 26.710938 23.828125 26.839844 23.847656 C 26.96875 23.867188 27.042969 23.886719 27.042969 23.886719 C 27.042969 23.886719 26.976562 23.976562 26.863281 24.117188 C 26.832031 24.152344 26.800781 24.191406 26.765625 24.234375 C 26.730469 24.277344 26.695312 24.320312 26.652344 24.367188 C 26.566406 24.457031 26.472656 24.554688 26.371094 24.65625 C 25.953125 25.054688 25.375 25.480469 24.824219 25.625 C 24.773438 25.640625 24.722656 25.652344 24.675781 25.664062 " fill-opacity="1" fill-rule="nonzero"/><path fill="#e7a811" d="M 21.667969 24.539062 C 21.632812 24.621094 21.59375 24.703125 21.546875 24.777344 C 21.523438 24.816406 21.5 24.855469 21.476562 24.890625 C 21.453125 24.925781 21.425781 24.960938 21.398438 24.992188 C 21.347656 25.058594 21.289062 25.117188 21.230469 25.175781 C 21.203125 25.203125 21.171875 25.226562 21.140625 25.253906 C 21.113281 25.277344 21.082031 25.296875 21.050781 25.316406 C 20.808594 25.484375 20.546875 25.527344 20.359375 25.433594 C 20.265625 25.386719 20.195312 25.308594 20.148438 25.210938 C 20.101562 25.113281 20.082031 25 20.078125 24.871094 C 20.074219 24.742188 20.089844 24.601562 20.125 24.460938 C 20.140625 24.386719 20.15625 24.3125 20.179688 24.242188 C 20.191406 24.207031 20.203125 24.167969 20.21875 24.132812 C 20.230469 24.097656 20.246094 24.058594 20.257812 24.023438 C 20.277344 23.976562 20.300781 23.925781 20.324219 23.878906 L 20.34375 23.847656 L 20.363281 23.808594 C 20.378906 23.785156 20.390625 23.757812 20.40625 23.734375 C 20.46875 23.636719 20.535156 23.546875 20.605469 23.457031 C 20.675781 23.367188 20.746094 23.28125 20.816406 23.203125 C 20.855469 23.167969 20.886719 23.125 20.921875 23.085938 C 20.957031 23.050781 20.992188 23.011719 21.023438 22.976562 C 21.058594 22.945312 21.09375 22.910156 21.125 22.878906 C 21.15625 22.847656 21.183594 22.816406 21.214844 22.789062 C 21.273438 22.730469 21.324219 22.679688 21.371094 22.640625 C 21.414062 22.601562 21.449219 22.566406 21.472656 22.542969 C 21.5 22.519531 21.511719 22.507812 21.511719 22.507812 C 21.511719 22.507812 21.542969 22.578125 21.589844 22.695312 C 21.613281 22.753906 21.636719 22.824219 21.660156 22.90625 C 21.6875 22.988281 21.710938 23.078125 21.730469 23.175781 C 21.773438 23.371094 21.808594 23.597656 21.804688 23.835938 C 21.800781 23.949219 21.789062 24.070312 21.769531 24.1875 C 21.746094 24.308594 21.714844 24.429688 21.667969 24.539062 " fill-opacity="1" fill-rule="nonzero"/><path fill="#e7a811" d="M 21.542969 26.210938 C 21.582031 26.195312 21.621094 26.179688 21.660156 26.164062 C 21.699219 26.144531 21.738281 26.128906 21.78125 26.113281 C 21.863281 26.085938 21.949219 26.058594 22.039062 26.035156 C 22.085938 26.027344 22.132812 26.015625 22.179688 26.007812 C 22.222656 25.996094 22.269531 25.988281 22.320312 25.976562 C 22.414062 25.960938 22.511719 25.949219 22.613281 25.941406 C 22.75 25.933594 22.882812 25.929688 23.015625 25.9375 C 23.148438 25.941406 23.28125 25.957031 23.40625 25.980469 C 23.664062 26.015625 23.902344 26.074219 24.113281 26.140625 C 24.214844 26.171875 24.3125 26.203125 24.398438 26.234375 C 24.484375 26.261719 24.558594 26.292969 24.621094 26.316406 C 24.742188 26.367188 24.8125 26.402344 24.8125 26.402344 C 24.8125 26.402344 24.792969 26.417969 24.753906 26.453125 C 24.710938 26.484375 24.65625 26.535156 24.578125 26.589844 C 24.503906 26.648438 24.410156 26.710938 24.308594 26.785156 C 24.257812 26.820312 24.199219 26.855469 24.144531 26.894531 C 24.085938 26.929688 24.023438 26.964844 23.957031 27.003906 C 23.894531 27.039062 23.828125 27.078125 23.757812 27.113281 C 23.691406 27.148438 23.621094 27.1875 23.546875 27.21875 C 23.402344 27.285156 23.253906 27.351562 23.101562 27.40625 C 22.945312 27.460938 22.789062 27.5 22.636719 27.535156 C 22.597656 27.542969 22.558594 27.550781 22.523438 27.558594 L 22.464844 27.566406 C 22.445312 27.570312 22.425781 27.574219 22.40625 27.574219 C 22.324219 27.585938 22.246094 27.59375 22.167969 27.597656 C 22.113281 27.601562 22.058594 27.601562 22.003906 27.601562 C 21.949219 27.597656 21.894531 27.59375 21.84375 27.589844 C 21.742188 27.578125 21.648438 27.5625 21.5625 27.539062 C 21.390625 27.492188 21.246094 27.425781 21.136719 27.34375 C 21.03125 27.261719 20.957031 27.164062 20.921875 27.0625 C 20.886719 26.960938 20.886719 26.859375 20.929688 26.75 C 21.015625 26.53125 21.242188 26.355469 21.542969 26.210938 " fill-opacity="1" fill-rule="nonzero"/><path fill="#e7a811" d="M 10.804688 26.859375 C 10.925781 26.886719 11.046875 26.917969 11.167969 26.941406 C 11.289062 26.96875 11.40625 26.992188 11.527344 27.015625 C 12.003906 27.109375 12.464844 27.1875 12.910156 27.265625 C 13.269531 27.332031 13.617188 27.394531 13.949219 27.460938 C 14.175781 27.382812 14.402344 27.304688 14.632812 27.230469 C 14.515625 27.199219 14.398438 27.164062 14.277344 27.132812 C 13.867188 27.027344 13.4375 26.925781 12.996094 26.828125 C 12.554688 26.726562 12.097656 26.632812 11.632812 26.523438 C 11.515625 26.496094 11.398438 26.46875 11.285156 26.4375 C 11.167969 26.410156 11.050781 26.378906 10.933594 26.34375 C 10.875 26.328125 10.816406 26.3125 10.757812 26.296875 C 10.699219 26.277344 10.640625 26.261719 10.582031 26.242188 C 10.527344 26.226562 10.46875 26.207031 10.410156 26.1875 L 10.320312 26.160156 L 10.234375 26.128906 C 10.175781 26.109375 10.121094 26.089844 10.0625 26.066406 C 10.003906 26.046875 9.945312 26.023438 9.886719 26 C 9.773438 25.957031 9.660156 25.90625 9.546875 25.859375 C 9.320312 25.753906 9.09375 25.648438 8.875 25.519531 L 8.792969 25.472656 L 8.75 25.449219 L 8.710938 25.421875 C 8.65625 25.390625 8.601562 25.355469 8.546875 25.320312 C 8.492188 25.289062 8.4375 25.253906 8.382812 25.21875 L 8.339844 25.191406 L 8.300781 25.164062 L 8.21875 25.109375 C 8.167969 25.074219 8.113281 25.039062 8.058594 25 C 8.003906 24.964844 7.949219 24.929688 7.898438 24.890625 C 7.792969 24.8125 7.6875 24.734375 7.582031 24.65625 C 7.375 24.488281 7.167969 24.324219 6.972656 24.144531 C 6.921875 24.101562 6.871094 24.058594 6.820312 24.015625 C 6.773438 23.96875 6.726562 23.921875 6.675781 23.875 C 6.628906 23.828125 6.582031 23.78125 6.53125 23.734375 C 6.507812 23.714844 6.484375 23.691406 6.460938 23.667969 L 6.390625 23.59375 C 6.011719 23.214844 5.664062 22.796875 5.34375 22.359375 L 5.222656 22.195312 C 5.183594 22.140625 5.144531 22.082031 5.105469 22.027344 L 4.992188 21.855469 L 4.933594 21.773438 L 4.882812 21.683594 C 4.8125 21.566406 4.738281 21.453125 4.667969 21.335938 L 4.46875 20.976562 C 4.214844 20.496094 3.988281 19.996094 3.800781 19.484375 C 3.753906 19.355469 3.710938 19.226562 3.667969 19.097656 L 3.632812 19.003906 L 3.617188 18.953125 C 3.613281 18.9375 3.609375 18.921875 3.605469 18.90625 C 3.585938 18.839844 3.566406 18.773438 3.546875 18.710938 C 3.527344 18.644531 3.511719 18.578125 3.492188 18.515625 C 3.472656 18.449219 3.453125 18.386719 3.4375 18.320312 C 3.40625 18.1875 3.375 18.054688 3.347656 17.925781 C 3.339844 17.890625 3.328125 17.859375 3.324219 17.828125 L 3.304688 17.726562 C 3.292969 17.660156 3.28125 17.59375 3.269531 17.527344 C 3.257812 17.464844 3.246094 17.398438 3.234375 17.332031 L 3.222656 17.28125 C 3.222656 17.265625 3.21875 17.25 3.21875 17.234375 L 3.203125 17.132812 C 3.1875 17 3.167969 16.867188 3.148438 16.738281 C 3.136719 16.605469 3.125 16.472656 3.113281 16.339844 C 3.109375 16.277344 3.101562 16.210938 3.097656 16.144531 C 3.097656 16.078125 3.09375 16.011719 3.09375 15.945312 C 3.089844 15.882812 3.085938 15.816406 3.085938 15.75 L 3.082031 15.652344 L 3.078125 15.601562 L 3.078125 15.554688 C 3.085938 15.292969 3.082031 15.035156 3.101562 14.777344 C 3.15625 13.75 3.359375 12.765625 3.644531 11.863281 C 3.660156 11.808594 3.679688 11.75 3.699219 11.695312 C 3.71875 11.640625 3.738281 11.585938 3.757812 11.53125 C 3.777344 11.476562 3.796875 11.421875 3.816406 11.367188 L 3.84375 11.285156 L 3.875 11.203125 C 3.964844 10.992188 4.042969 10.777344 4.140625 10.578125 C 4.1875 10.476562 4.234375 10.375 4.277344 10.277344 C 4.328125 10.179688 4.378906 10.082031 4.429688 9.988281 C 4.453125 9.9375 4.476562 9.890625 4.503906 9.84375 C 4.515625 9.820312 4.527344 9.796875 4.539062 9.773438 C 4.554688 9.75 4.566406 9.726562 4.578125 9.703125 C 4.632812 9.613281 4.683594 9.523438 4.738281 9.433594 C 5.160156 8.71875 5.621094 8.105469 6.070312 7.601562 C 6.519531 7.09375 6.953125 6.691406 7.324219 6.375 C 7.417969 6.296875 7.507812 6.226562 7.59375 6.160156 C 7.652344 6.214844 7.730469 6.253906 7.820312 6.273438 C 7.867188 6.28125 7.914062 6.285156 7.96875 6.289062 C 8.019531 6.285156 8.074219 6.285156 8.132812 6.277344 C 8.246094 6.265625 8.367188 6.234375 8.492188 6.1875 C 8.523438 6.175781 8.554688 6.160156 8.585938 6.148438 C 8.621094 6.136719 8.652344 6.125 8.683594 6.109375 C 8.75 6.078125 8.8125 6.046875 8.875 6.007812 C 9.066406 5.890625 9.253906 5.757812 9.421875 5.597656 C 9.445312 5.578125 9.464844 5.558594 9.484375 5.539062 C 9.507812 5.519531 9.527344 5.5 9.546875 5.484375 C 9.589844 5.445312 9.628906 5.40625 9.671875 5.367188 C 9.75 5.289062 9.824219 5.210938 9.894531 5.136719 C 9.925781 5.097656 9.960938 5.0625 9.996094 5.03125 C 10.027344 4.996094 10.058594 4.964844 10.085938 4.933594 C 10.117188 4.898438 10.144531 4.867188 10.167969 4.839844 C 11.300781 4.398438 12.308594 4.203125 12.308594 4.203125 C 11.695312 4.203125 10.875 4.390625 10.199219 4.582031 C 10.1875 4.578125 10.179688 4.578125 10.167969 4.578125 C 10.101562 4.570312 10.023438 4.566406 9.9375 4.558594 C 9.894531 4.558594 9.847656 4.554688 9.796875 4.554688 C 9.746094 4.554688 9.695312 4.550781 9.644531 4.554688 C 9.539062 4.5625 9.425781 4.570312 9.308594 4.582031 C 9.25 4.589844 9.191406 4.597656 9.128906 4.605469 C 9.097656 4.609375 9.066406 4.613281 9.039062 4.621094 C 9.007812 4.628906 8.976562 4.636719 8.949219 4.644531 C 8.707031 4.703125 8.457031 4.78125 8.246094 4.914062 C 8.175781 4.953125 8.109375 5 8.042969 5.046875 C 8.011719 5.070312 7.980469 5.09375 7.953125 5.117188 C 7.921875 5.140625 7.894531 5.167969 7.871094 5.191406 C 7.765625 5.296875 7.675781 5.402344 7.613281 5.507812 C 7.582031 5.5625 7.554688 5.609375 7.535156 5.664062 C 7.515625 5.714844 7.503906 5.765625 7.496094 5.8125 C 7.484375 5.910156 7.492188 5.996094 7.53125 6.070312 C 7.441406 6.132812 7.34375 6.195312 7.242188 6.265625 C 6.84375 6.558594 6.375 6.933594 5.882812 7.421875 C 5.390625 7.910156 4.882812 8.507812 4.410156 9.222656 C 4.351562 9.3125 4.292969 9.40625 4.234375 9.496094 C 4.21875 9.519531 4.203125 9.542969 4.1875 9.566406 C 4.175781 9.589844 4.160156 9.613281 4.148438 9.636719 C 4.121094 9.6875 4.09375 9.734375 4.0625 9.78125 C 4.007812 9.878906 3.953125 9.976562 3.894531 10.074219 C 3.84375 10.175781 3.789062 10.277344 3.738281 10.382812 C 3.628906 10.585938 3.535156 10.804688 3.4375 11.019531 L 3.398438 11.101562 L 3.367188 11.1875 C 3.34375 11.242188 3.320312 11.300781 3.296875 11.355469 C 3.277344 11.414062 3.253906 11.46875 3.230469 11.527344 C 3.207031 11.582031 3.183594 11.640625 3.167969 11.699219 C 2.835938 12.628906 2.589844 13.65625 2.507812 14.734375 C 2.480469 15.003906 2.476562 15.277344 2.46875 15.554688 L 2.46875 15.761719 C 2.472656 15.828125 2.472656 15.898438 2.472656 15.96875 C 2.476562 16.035156 2.476562 16.105469 2.476562 16.175781 C 2.480469 16.246094 2.488281 16.3125 2.492188 16.382812 C 2.5 16.523438 2.507812 16.664062 2.519531 16.804688 C 2.535156 16.941406 2.554688 17.082031 2.570312 17.222656 L 2.582031 17.328125 C 2.585938 17.34375 2.585938 17.363281 2.589844 17.378906 L 2.597656 17.433594 C 2.609375 17.503906 2.621094 17.570312 2.632812 17.640625 C 2.644531 17.710938 2.65625 17.78125 2.671875 17.851562 L 2.6875 17.957031 C 2.695312 17.992188 2.703125 18.027344 2.710938 18.0625 C 2.742188 18.199219 2.773438 18.339844 2.804688 18.480469 C 2.820312 18.550781 2.839844 18.617188 2.859375 18.6875 C 2.878906 18.753906 2.894531 18.824219 2.914062 18.894531 C 2.933594 18.960938 2.953125 19.03125 2.972656 19.101562 C 2.976562 19.117188 2.984375 19.136719 2.988281 19.152344 L 3.003906 19.203125 L 3.039062 19.304688 C 3.085938 19.441406 3.128906 19.578125 3.175781 19.714844 C 3.375 20.257812 3.609375 20.785156 3.882812 21.296875 L 4.09375 21.675781 C 4.167969 21.796875 4.246094 21.921875 4.320312 22.042969 L 4.378906 22.136719 L 4.558594 22.40625 C 4.601562 22.464844 4.640625 22.523438 4.683594 22.582031 L 4.8125 22.757812 C 5.152344 23.21875 5.527344 23.65625 5.933594 24.054688 L 6.007812 24.128906 C 6.03125 24.15625 6.058594 24.179688 6.082031 24.203125 C 6.136719 24.253906 6.1875 24.300781 6.238281 24.347656 C 6.289062 24.398438 6.339844 24.445312 6.394531 24.492188 C 6.445312 24.539062 6.5 24.585938 6.554688 24.632812 C 6.765625 24.816406 6.984375 24.988281 7.207031 25.15625 C 7.320312 25.238281 7.429688 25.316406 7.542969 25.398438 C 7.597656 25.441406 7.65625 25.476562 7.714844 25.511719 C 7.773438 25.550781 7.828125 25.589844 7.886719 25.625 L 7.972656 25.683594 L 8.015625 25.710938 L 8.058594 25.734375 C 8.117188 25.769531 8.175781 25.804688 8.234375 25.839844 C 8.292969 25.875 8.351562 25.910156 8.410156 25.945312 L 8.453125 25.96875 L 8.5 25.992188 L 8.589844 26.042969 C 8.828125 26.171875 9.074219 26.285156 9.320312 26.390625 C 9.445312 26.4375 9.566406 26.488281 9.691406 26.53125 C 9.753906 26.554688 9.816406 26.574219 9.878906 26.597656 C 9.941406 26.617188 10.003906 26.636719 10.0625 26.65625 L 10.25 26.710938 C 10.3125 26.730469 10.375 26.746094 10.433594 26.765625 C 10.496094 26.78125 10.558594 26.796875 10.621094 26.8125 C 10.679688 26.828125 10.742188 26.84375 10.804688 26.859375 " fill-opacity="1" fill-rule="nonzero"/><g clip-path="url(#5a7278d5a7)"><path fill="#e7a811" d="M 18.089844 28.582031 C 17.652344 28.359375 17.109375 28.101562 16.472656 27.847656 C 16.332031 27.792969 16.183594 27.738281 16.035156 27.683594 C 15.972656 27.695312 15.914062 27.707031 15.855469 27.71875 C 15.714844 27.75 15.578125 27.777344 15.4375 27.8125 C 15.773438 27.902344 16.089844 27.996094 16.386719 28.089844 C 17.03125 28.300781 17.582031 28.515625 18.035156 28.703125 C 18.484375 28.894531 18.835938 29.050781 19.070312 29.167969 C 19.308594 29.28125 19.433594 29.339844 19.433594 29.339844 C 19.433594 29.339844 19.3125 29.269531 19.089844 29.132812 C 18.863281 29 18.527344 28.808594 18.089844 28.582031 " fill-opacity="1" fill-rule="nonzero"/></g><g clip-path="url(#e3c58adb17)"><path fill="#e7a811" d="M 10.914062 29.132812 C 11.140625 29 11.476562 28.808594 11.914062 28.582031 C 12.351562 28.359375 12.890625 28.101562 13.53125 27.847656 C 14.167969 27.59375 14.90625 27.347656 15.726562 27.132812 C 16.132812 27.027344 16.5625 26.925781 17.007812 26.828125 C 17.449219 26.726562 17.90625 26.632812 18.371094 26.523438 C 18.484375 26.496094 18.601562 26.46875 18.71875 26.4375 C 18.835938 26.410156 18.953125 26.378906 19.066406 26.34375 C 19.125 26.328125 19.183594 26.3125 19.242188 26.296875 C 19.300781 26.277344 19.359375 26.261719 19.417969 26.242188 C 19.476562 26.226562 19.535156 26.207031 19.59375 26.1875 L 19.679688 26.160156 L 19.765625 26.128906 C 19.824219 26.109375 19.882812 26.089844 19.941406 26.066406 C 20 26.046875 20.054688 26.023438 20.113281 26 C 20.230469 25.957031 20.34375 25.90625 20.457031 25.859375 C 20.683594 25.753906 20.910156 25.648438 21.128906 25.519531 L 21.25 25.449219 L 21.292969 25.421875 C 21.347656 25.390625 21.402344 25.355469 21.457031 25.320312 C 21.511719 25.289062 21.566406 25.253906 21.621094 25.21875 L 21.660156 25.191406 L 21.703125 25.164062 L 21.78125 25.109375 C 21.835938 25.074219 21.890625 25.039062 21.945312 25 C 21.996094 24.964844 22.050781 24.929688 22.105469 24.890625 C 22.210938 24.8125 22.316406 24.734375 22.421875 24.65625 C 22.625 24.488281 22.832031 24.324219 23.03125 24.144531 C 23.078125 24.101562 23.128906 24.058594 23.179688 24.015625 C 23.226562 23.96875 23.277344 23.921875 23.324219 23.875 C 23.371094 23.828125 23.421875 23.78125 23.46875 23.734375 C 23.492188 23.714844 23.519531 23.691406 23.542969 23.667969 L 23.613281 23.59375 C 23.988281 23.214844 24.335938 22.796875 24.660156 22.359375 L 24.78125 22.195312 C 24.820312 22.140625 24.855469 22.082031 24.894531 22.027344 L 25.007812 21.855469 L 25.066406 21.773438 L 25.121094 21.683594 C 25.191406 21.566406 25.261719 21.453125 25.332031 21.335938 L 25.53125 20.976562 C 25.789062 20.496094 26.011719 19.996094 26.203125 19.484375 C 26.246094 19.355469 26.289062 19.226562 26.335938 19.097656 L 26.367188 19.003906 L 26.382812 18.953125 C 26.390625 18.9375 26.394531 18.921875 26.398438 18.90625 C 26.417969 18.839844 26.4375 18.773438 26.453125 18.710938 C 26.472656 18.644531 26.492188 18.578125 26.511719 18.515625 C 26.53125 18.449219 26.550781 18.386719 26.5625 18.320312 C 26.59375 18.1875 26.625 18.054688 26.65625 17.925781 C 26.664062 17.890625 26.671875 17.859375 26.679688 17.828125 L 26.695312 17.726562 C 26.710938 17.660156 26.722656 17.59375 26.734375 17.527344 C 26.746094 17.464844 26.757812 17.398438 26.769531 17.332031 L 26.777344 17.28125 C 26.78125 17.265625 26.78125 17.25 26.785156 17.234375 L 26.796875 17.132812 C 26.816406 17 26.835938 16.867188 26.851562 16.738281 C 26.867188 16.605469 26.875 16.472656 26.886719 16.339844 C 26.890625 16.277344 26.898438 16.210938 26.902344 16.144531 C 26.90625 16.078125 26.90625 16.011719 26.910156 15.945312 C 26.914062 15.882812 26.914062 15.816406 26.917969 15.75 L 26.921875 15.652344 L 26.921875 15.554688 C 26.917969 15.292969 26.921875 15.035156 26.902344 14.777344 C 26.847656 13.75 26.644531 12.765625 26.359375 11.863281 C 26.34375 11.808594 26.324219 11.75 26.304688 11.695312 C 26.285156 11.640625 26.265625 11.585938 26.246094 11.53125 C 26.226562 11.476562 26.207031 11.421875 26.1875 11.367188 L 26.160156 11.285156 L 26.125 11.203125 C 26.039062 10.992188 25.960938 10.777344 25.859375 10.578125 C 25.816406 10.476562 25.769531 10.375 25.722656 10.277344 C 25.671875 10.179688 25.621094 10.082031 25.574219 9.988281 C 25.546875 9.9375 25.523438 9.890625 25.5 9.84375 C 25.488281 9.820312 25.476562 9.796875 25.460938 9.773438 C 25.449219 9.75 25.433594 9.726562 25.421875 9.703125 C 25.371094 9.613281 25.316406 9.523438 25.265625 9.433594 C 24.84375 8.71875 24.382812 8.105469 23.933594 7.601562 C 23.480469 7.09375 23.046875 6.691406 22.675781 6.375 C 22.585938 6.296875 22.492188 6.226562 22.410156 6.160156 C 22.351562 6.214844 22.273438 6.253906 22.179688 6.273438 C 22.136719 6.28125 22.085938 6.285156 22.035156 6.289062 C 21.984375 6.285156 21.925781 6.285156 21.871094 6.277344 C 21.753906 6.265625 21.632812 6.234375 21.507812 6.1875 C 21.476562 6.175781 21.445312 6.160156 21.414062 6.148438 C 21.382812 6.136719 21.351562 6.125 21.316406 6.109375 C 21.253906 6.078125 21.1875 6.046875 21.125 6.007812 C 20.9375 5.890625 20.75 5.757812 20.578125 5.597656 C 20.558594 5.578125 20.539062 5.558594 20.515625 5.539062 C 20.496094 5.519531 20.472656 5.5 20.453125 5.484375 C 20.410156 5.445312 20.371094 5.40625 20.332031 5.367188 C 20.253906 5.289062 20.179688 5.210938 20.109375 5.136719 C 20.074219 5.097656 20.039062 5.0625 20.007812 5.03125 C 19.976562 4.996094 19.945312 4.964844 19.914062 4.933594 C 19.886719 4.898438 19.859375 4.867188 19.832031 4.839844 C 18.699219 4.398438 17.695312 4.203125 17.695312 4.203125 C 18.308594 4.203125 19.128906 4.390625 19.804688 4.582031 C 19.8125 4.578125 19.824219 4.578125 19.835938 4.578125 C 19.898438 4.570312 19.976562 4.566406 20.066406 4.558594 C 20.109375 4.558594 20.15625 4.554688 20.207031 4.554688 C 20.253906 4.554688 20.304688 4.550781 20.359375 4.554688 C 20.464844 4.5625 20.578125 4.570312 20.695312 4.582031 C 20.753906 4.589844 20.8125 4.597656 20.871094 4.605469 C 20.902344 4.609375 20.933594 4.613281 20.964844 4.621094 C 20.992188 4.628906 21.023438 4.636719 21.054688 4.644531 C 21.292969 4.703125 21.542969 4.78125 21.753906 4.914062 C 21.828125 4.953125 21.894531 5 21.957031 5.046875 C 21.988281 5.070312 22.019531 5.09375 22.050781 5.117188 C 22.078125 5.140625 22.105469 5.167969 22.132812 5.191406 C 22.238281 5.296875 22.324219 5.402344 22.386719 5.507812 C 22.417969 5.5625 22.445312 5.609375 22.464844 5.664062 C 22.484375 5.714844 22.496094 5.765625 22.503906 5.8125 C 22.519531 5.910156 22.507812 5.996094 22.472656 6.070312 C 22.5625 6.132812 22.660156 6.195312 22.757812 6.265625 C 23.15625 6.558594 23.628906 6.933594 24.121094 7.421875 C 24.609375 7.910156 25.121094 8.507812 25.59375 9.222656 C 25.652344 9.3125 25.710938 9.40625 25.769531 9.496094 C 25.785156 9.519531 25.796875 9.542969 25.8125 9.566406 C 25.828125 9.589844 25.839844 9.613281 25.855469 9.636719 C 25.882812 9.6875 25.910156 9.734375 25.9375 9.78125 C 25.992188 9.878906 26.050781 9.976562 26.105469 10.074219 C 26.160156 10.175781 26.210938 10.277344 26.265625 10.382812 C 26.375 10.585938 26.464844 10.804688 26.566406 11.019531 L 26.601562 11.101562 L 26.636719 11.1875 C 26.660156 11.242188 26.679688 11.300781 26.703125 11.355469 C 26.726562 11.414062 26.75 11.46875 26.769531 11.527344 C 26.792969 11.582031 26.816406 11.640625 26.835938 11.699219 C 27.164062 12.628906 27.410156 13.65625 27.492188 14.734375 C 27.519531 15.003906 27.523438 15.277344 27.535156 15.554688 L 27.535156 15.65625 L 27.53125 15.761719 C 27.53125 15.828125 27.53125 15.898438 27.527344 15.96875 C 27.527344 16.035156 27.527344 16.105469 27.523438 16.175781 C 27.519531 16.246094 27.515625 16.3125 27.511719 16.382812 C 27.5 16.523438 27.492188 16.664062 27.480469 16.804688 C 27.464844 16.941406 27.449219 17.082031 27.433594 17.222656 L 27.417969 17.328125 C 27.417969 17.34375 27.414062 17.363281 27.414062 17.378906 L 27.402344 17.433594 C 27.390625 17.503906 27.378906 17.570312 27.367188 17.640625 C 27.355469 17.710938 27.34375 17.78125 27.332031 17.851562 L 27.3125 17.957031 C 27.308594 17.992188 27.296875 18.027344 27.292969 18.0625 C 27.261719 18.199219 27.230469 18.339844 27.199219 18.480469 C 27.183594 18.550781 27.164062 18.617188 27.144531 18.6875 C 27.125 18.753906 27.105469 18.824219 27.085938 18.894531 C 27.066406 18.960938 27.046875 19.03125 27.027344 19.101562 C 27.023438 19.117188 27.019531 19.136719 27.015625 19.152344 L 26.996094 19.203125 L 26.960938 19.304688 C 26.917969 19.441406 26.871094 19.578125 26.824219 19.714844 C 26.625 20.257812 26.390625 20.785156 26.121094 21.296875 L 25.910156 21.675781 C 25.832031 21.796875 25.757812 21.921875 25.683594 22.042969 L 25.625 22.136719 L 25.5625 22.226562 L 25.441406 22.40625 C 25.402344 22.464844 25.363281 22.523438 25.320312 22.582031 L 25.191406 22.757812 C 24.847656 23.21875 24.472656 23.65625 24.070312 24.054688 L 23.996094 24.128906 C 23.972656 24.15625 23.945312 24.179688 23.917969 24.203125 C 23.867188 24.253906 23.816406 24.300781 23.761719 24.347656 C 23.710938 24.398438 23.660156 24.445312 23.609375 24.492188 C 23.554688 24.539062 23.503906 24.585938 23.449219 24.632812 C 23.238281 24.816406 23.015625 24.988281 22.796875 25.15625 C 22.683594 25.238281 22.570312 25.316406 22.457031 25.398438 C 22.402344 25.441406 22.34375 25.476562 22.285156 25.511719 C 22.230469 25.550781 22.171875 25.589844 22.113281 25.625 L 22.027344 25.683594 L 21.984375 25.710938 L 21.941406 25.734375 C 21.882812 25.769531 21.824219 25.804688 21.765625 25.839844 C 21.707031 25.875 21.648438 25.910156 21.589844 25.945312 L 21.503906 25.992188 L 21.410156 26.042969 C 21.171875 26.171875 20.925781 26.285156 20.679688 26.390625 C 20.558594 26.4375 20.433594 26.488281 20.308594 26.53125 C 20.246094 26.554688 20.1875 26.574219 20.125 26.597656 C 20.0625 26.617188 20 26.636719 19.9375 26.65625 L 19.84375 26.683594 L 19.753906 26.710938 C 19.691406 26.730469 19.628906 26.746094 19.566406 26.765625 C 19.503906 26.78125 19.445312 26.796875 19.382812 26.8125 C 19.320312 26.828125 19.261719 26.84375 19.199219 26.859375 C 19.078125 26.886719 18.957031 26.917969 18.835938 26.941406 C 18.714844 26.96875 18.59375 26.992188 18.476562 27.015625 C 18 27.109375 17.535156 27.1875 17.09375 27.265625 C 16.648438 27.347656 16.222656 27.425781 15.8125 27.511719 C 15 27.683594 14.261719 27.882812 13.617188 28.089844 C 12.972656 28.300781 12.417969 28.515625 11.96875 28.703125 C 11.519531 28.894531 11.167969 29.050781 10.929688 29.167969 C 10.695312 29.28125 10.566406 29.339844 10.566406 29.339844 C 10.566406 29.339844 10.6875 29.269531 10.914062 29.132812 " fill-opacity="1" fill-rule="nonzero"/></g></svg>