<svg xmlns="http://www.w3.org/2000/svg" xmlns:xlink="http://www.w3.org/1999/xlink" width="40" zoomAndPan="magnify" viewBox="0 0 30 30.000001" height="40" preserveAspectRatio="xMidYMid meet" version="1.0"><defs><clipPath id="6b6339609c"><path d="M 0.484375 0 L 29.515625 0 L 29.515625 29.03125 L 0.484375 29.03125 Z M 0.484375 0 " clip-rule="nonzero"/></clipPath><clipPath id="fbca32a5b7"><path d="M 0.484375 5 L 15 5 L 15 24 L 0.484375 24 Z M 0.484375 5 " clip-rule="nonzero"/></clipPath><clipPath id="a0e513c6d1"><path d="M 15 5 L 29.515625 5 L 29.515625 24 L 15 24 Z M 15 5 " clip-rule="nonzero"/></clipPath><clipPath id="8980ead937"><path d="M 7 0.488281 L 23 0.488281 L 23 4 L 7 4 Z M 7 0.488281 " clip-rule="nonzero"/></clipPath><clipPath id="d1c701308f"><path d="M 7 25 L 23 25 L 23 28.796875 L 7 28.796875 Z M 7 25 " clip-rule="nonzero"/></clipPath><clipPath id="566431f860"><path d="M 18.316406 10.351562 L 27.75 10.351562 L 27.75 15 L 18.316406 15 Z M 18.316406 10.351562 " clip-rule="nonzero"/></clipPath><clipPath id="d308fa6e83"><path d="M 19 12 L 27 12 L 27 18.332031 L 19 18.332031 Z M 19 12 " clip-rule="nonzero"/></clipPath></defs><g clip-path="url(#6b6339609c)"><path fill="#ffffff" d="M 0.484375 0 L 29.515625 0 L 29.515625 29.03125 L 0.484375 29.03125 Z M 0.484375 0 " fill-opacity="1" fill-rule="nonzero"/><path fill="#ffffff" d="M 0.484375 0 L 29.515625 0 L 29.515625 29.03125 L 0.484375 29.03125 Z M 0.484375 0 " fill-opacity="1" fill-rule="nonzero"/></g><g clip-path="url(#fbca32a5b7)"><path fill="#935f3d" d="M 1.460938 8.226562 C 1.460938 7.425781 2.113281 6.777344 2.910156 6.777344 L 9.199219 6.777344 L 9.199219 8.226562 C 9.199219 9.558594 10.28125 10.644531 11.613281 10.644531 L 13.066406 10.644531 L 13.066406 20.796875 C 13.066406 21.597656 12.414062 22.25 11.613281 22.25 L 2.910156 22.25 C 2.113281 22.25 1.460938 21.597656 1.460938 20.796875 Z M 10.164062 7.460938 L 12.382812 9.675781 L 11.613281 9.675781 C 10.816406 9.675781 10.164062 9.027344 10.164062 8.226562 Z M 2.910156 23.214844 L 11.613281 23.214844 C 12.949219 23.214844 14.03125 22.132812 14.03125 20.796875 L 14.03125 10.160156 C 14.03125 10.03125 13.980469 9.910156 13.890625 9.820312 L 10.023438 5.949219 C 9.933594 5.859375 9.808594 5.808594 9.679688 5.808594 L 2.910156 5.808594 C 1.578125 5.808594 0.492188 6.894531 0.492188 8.226562 L 0.492188 20.796875 C 0.492188 22.132812 1.578125 23.214844 2.910156 23.214844 " fill-opacity="1" fill-rule="nonzero"/></g><g clip-path="url(#a0e513c6d1)"><path fill="#935f3d" d="M 28.539062 20.796875 C 28.539062 21.597656 27.886719 22.25 27.089844 22.25 L 18.386719 22.25 C 17.585938 22.25 16.933594 21.597656 16.933594 20.796875 L 16.933594 8.226562 C 16.933594 7.425781 17.585938 6.777344 18.386719 6.777344 L 24.671875 6.777344 L 24.671875 8.226562 C 24.671875 9.558594 25.753906 10.644531 27.089844 10.644531 L 28.539062 10.644531 Z M 25.636719 7.460938 L 27.855469 9.675781 L 27.089844 9.675781 C 26.289062 9.675781 25.636719 9.027344 25.636719 8.226562 Z M 25.496094 5.949219 C 25.40625 5.859375 25.28125 5.808594 25.15625 5.808594 L 18.386719 5.808594 C 17.050781 5.808594 15.96875 6.894531 15.96875 8.226562 L 15.96875 20.796875 C 15.96875 22.132812 17.050781 23.214844 18.386719 23.214844 L 27.089844 23.214844 C 28.421875 23.214844 29.507812 22.132812 29.507812 20.796875 L 29.507812 10.160156 C 29.507812 10.03125 29.457031 9.910156 29.363281 9.820312 L 25.496094 5.949219 " fill-opacity="1" fill-rule="nonzero"/></g><path fill="#935f3d" d="M 20.800781 14.027344 C 20.535156 14.027344 20.320312 14.246094 20.320312 14.511719 C 20.320312 14.78125 20.535156 14.996094 20.800781 14.996094 C 21.070312 14.996094 21.285156 14.78125 21.285156 14.511719 C 21.285156 14.246094 21.070312 14.027344 20.800781 14.027344 " fill-opacity="1" fill-rule="nonzero"/><path fill="#935f3d" d="M 22.738281 14.027344 C 22.46875 14.027344 22.253906 14.246094 22.253906 14.511719 C 22.253906 14.78125 22.46875 14.996094 22.738281 14.996094 C 23.003906 14.996094 23.21875 14.78125 23.21875 14.511719 C 23.21875 14.246094 23.003906 14.027344 22.738281 14.027344 " fill-opacity="1" fill-rule="nonzero"/><path fill="#935f3d" d="M 24.671875 14.027344 C 24.402344 14.027344 24.1875 14.246094 24.1875 14.511719 C 24.1875 14.78125 24.402344 14.996094 24.671875 14.996094 C 24.9375 14.996094 25.15625 14.78125 25.15625 14.511719 C 25.15625 14.246094 24.9375 14.027344 24.671875 14.027344 " fill-opacity="1" fill-rule="nonzero"/><g clip-path="url(#8980ead937)"><path fill="#935f3d" d="M 19.351562 3.390625 C 19.351562 3.660156 19.570312 3.875 19.835938 3.875 L 22.253906 3.875 C 22.519531 3.875 22.738281 3.660156 22.738281 3.390625 L 22.738281 0.972656 C 22.738281 0.707031 22.519531 0.488281 22.253906 0.488281 C 21.984375 0.488281 21.769531 0.707031 21.769531 0.972656 L 21.769531 1.914062 C 21.410156 1.671875 20.925781 1.4375 20.28125 1.222656 C 18.863281 0.75 16.988281 0.488281 15 0.488281 C 13.011719 0.488281 11.136719 0.75 9.71875 1.222656 C 7.6875 1.898438 7.261719 2.777344 7.261719 3.390625 C 7.261719 3.660156 7.480469 3.875 7.746094 3.875 C 8.015625 3.875 8.230469 3.660156 8.230469 3.390625 C 8.230469 2.601562 10.867188 1.457031 15 1.457031 C 18.339844 1.457031 20.699219 2.203125 21.484375 2.90625 L 19.835938 2.90625 C 19.570312 2.90625 19.351562 3.125 19.351562 3.390625 " fill-opacity="1" fill-rule="nonzero"/></g><g clip-path="url(#d1c701308f)"><path fill="#935f3d" d="M 22.253906 25.152344 C 21.984375 25.152344 21.769531 25.367188 21.769531 25.632812 C 21.769531 26.421875 19.132812 27.570312 15 27.570312 C 11.660156 27.570312 9.300781 26.820312 8.515625 26.117188 L 10.164062 26.117188 C 10.429688 26.117188 10.648438 25.902344 10.648438 25.632812 C 10.648438 25.367188 10.429688 25.152344 10.164062 25.152344 L 7.746094 25.152344 C 7.480469 25.152344 7.261719 25.367188 7.261719 25.632812 L 7.261719 28.050781 C 7.261719 28.320312 7.480469 28.535156 7.746094 28.535156 C 8.015625 28.535156 8.230469 28.320312 8.230469 28.050781 L 8.230469 27.109375 C 8.589844 27.351562 9.074219 27.585938 9.71875 27.800781 C 11.136719 28.273438 13.011719 28.535156 15 28.535156 C 16.988281 28.535156 18.863281 28.273438 20.28125 27.800781 C 22.3125 27.125 22.738281 26.25 22.738281 25.632812 C 22.738281 25.367188 22.519531 25.152344 22.253906 25.152344 " fill-opacity="1" fill-rule="nonzero"/></g><path fill="#935f3d" d="M 6.78125 13.546875 L 10.648438 13.546875 C 10.914062 13.546875 11.132812 13.328125 11.132812 13.0625 C 11.132812 12.796875 10.914062 12.578125 10.648438 12.578125 L 6.78125 12.578125 C 6.511719 12.578125 6.296875 12.796875 6.296875 13.0625 C 6.296875 13.328125 6.511719 13.546875 6.78125 13.546875 " fill-opacity="1" fill-rule="nonzero"/><path fill="#935f3d" d="M 3.878906 16.445312 L 7.746094 16.445312 C 8.015625 16.445312 8.230469 16.230469 8.230469 15.964844 C 8.230469 15.695312 8.015625 15.480469 7.746094 15.480469 L 3.878906 15.480469 C 3.613281 15.480469 3.394531 15.695312 3.394531 15.964844 C 3.394531 16.230469 3.613281 16.445312 3.878906 16.445312 " fill-opacity="1" fill-rule="nonzero"/><path fill="#935f3d" d="M 10.648438 18.382812 L 7.746094 18.382812 C 7.480469 18.382812 7.261719 18.597656 7.261719 18.863281 C 7.261719 19.132812 7.480469 19.347656 7.746094 19.347656 L 10.648438 19.347656 C 10.914062 19.347656 11.132812 19.132812 11.132812 18.863281 C 11.132812 18.597656 10.914062 18.382812 10.648438 18.382812 " fill-opacity="1" fill-rule="nonzero"/><path fill="#935f3d" d="M 3.878906 13.546875 L 4.84375 13.546875 C 5.113281 13.546875 5.328125 13.328125 5.328125 13.0625 C 5.328125 12.796875 5.113281 12.578125 4.84375 12.578125 L 3.878906 12.578125 C 3.613281 12.578125 3.394531 12.796875 3.394531 13.0625 C 3.394531 13.328125 3.613281 13.546875 3.878906 13.546875 " fill-opacity="1" fill-rule="nonzero"/><path fill="#935f3d" d="M 10.648438 15.480469 L 9.679688 15.480469 C 9.414062 15.480469 9.199219 15.695312 9.199219 15.964844 C 9.199219 16.230469 9.414062 16.445312 9.679688 16.445312 L 10.648438 16.445312 C 10.914062 16.445312 11.132812 16.230469 11.132812 15.964844 C 11.132812 15.695312 10.914062 15.480469 10.648438 15.480469 " fill-opacity="1" fill-rule="nonzero"/><path fill="#935f3d" d="M 3.878906 19.347656 L 5.8125 19.347656 C 6.078125 19.347656 6.296875 19.132812 6.296875 18.863281 C 6.296875 18.597656 6.078125 18.382812 5.8125 18.382812 L 3.878906 18.382812 C 3.613281 18.382812 3.394531 18.597656 3.394531 18.863281 C 3.394531 19.132812 3.613281 19.347656 3.878906 19.347656 " fill-opacity="1" fill-rule="nonzero"/><path fill="#935f3d" d="M 3.878906 10.644531 L 5.8125 10.644531 C 6.078125 10.644531 6.296875 10.429688 6.296875 10.160156 C 6.296875 9.894531 6.078125 9.675781 5.8125 9.675781 L 3.878906 9.675781 C 3.613281 9.675781 3.394531 9.894531 3.394531 10.160156 C 3.394531 10.429688 3.613281 10.644531 3.878906 10.644531 " fill-opacity="1" fill-rule="nonzero"/><g clip-path="url(#566431f860)"><path fill="#925f3d" d="M 27.089844 13.273438 L 25.683594 12.234375 L 25.683594 11 C 25.683594 10.804688 25.523438 10.648438 25.332031 10.648438 L 24.761719 10.648438 C 24.566406 10.648438 24.410156 10.804688 24.410156 11 L 24.410156 11.300781 L 23.335938 10.507812 C 23.101562 10.335938 22.71875 10.335938 22.484375 10.507812 L 18.726562 13.273438 C 18.496094 13.445312 18.445312 13.777344 18.617188 14.011719 L 18.71875 14.152344 C 18.890625 14.382812 19.222656 14.433594 19.457031 14.261719 L 22.484375 12.035156 C 22.71875 11.863281 23.101562 11.863281 23.335938 12.035156 L 26.363281 14.261719 C 26.597656 14.433594 26.929688 14.382812 27.097656 14.152344 L 27.203125 14.011719 C 27.375 13.777344 27.324219 13.445312 27.089844 13.273438 Z M 27.089844 13.273438 " fill-opacity="1" fill-rule="nonzero"/></g><g clip-path="url(#d308fa6e83)"><path fill="#925f3d" d="M 25.96875 14.457031 L 23.332031 12.511719 C 23.101562 12.339844 22.71875 12.339844 22.488281 12.511719 L 19.851562 14.457031 C 19.621094 14.628906 19.429688 14.882812 19.429688 15.019531 L 19.429688 17.839844 C 19.429688 18.300781 19.820312 18.671875 20.304688 18.671875 L 21.914062 18.671875 L 21.914062 16.171875 C 21.914062 15.980469 22.074219 15.824219 22.265625 15.824219 L 23.554688 15.824219 C 23.746094 15.824219 23.902344 15.980469 23.902344 16.171875 L 23.902344 18.671875 L 25.511719 18.671875 C 25.996094 18.671875 26.390625 18.300781 26.390625 17.839844 L 26.390625 15.019531 C 26.390625 14.882812 26.199219 14.628906 25.96875 14.457031 Z M 25.96875 14.457031 " fill-opacity="1" fill-rule="nonzero"/></g></svg>