<svg xmlns="http://www.w3.org/2000/svg" xmlns:xlink="http://www.w3.org/1999/xlink" width="40" zoomAndPan="magnify" viewBox="0 0 30 30.000001" height="40" preserveAspectRatio="xMidYMid meet" version="1.0"><defs><clipPath id="5151b33c02"><path d="M 0.484375 0 L 29.515625 0 L 29.515625 29.03125 L 0.484375 29.03125 Z M 0.484375 0 " clip-rule="nonzero"/></clipPath><clipPath id="083a5ac6f5"><path d="M 0.484375 0.636719 L 29 0.636719 L 29 28.214844 L 0.484375 28.214844 Z M 0.484375 0.636719 " clip-rule="nonzero"/></clipPath></defs><g clip-path="url(#5151b33c02)"><path fill="#ffffff" d="M 0.484375 0 L 29.515625 0 L 29.515625 29.03125 L 0.484375 29.03125 Z M 0.484375 0 " fill-opacity="1" fill-rule="nonzero"/><path fill="#ffffff" d="M 0.484375 0 L 29.515625 0 L 29.515625 29.03125 L 0.484375 29.03125 Z M 0.484375 0 " fill-opacity="1" fill-rule="nonzero"/></g><g clip-path="url(#083a5ac6f5)"><path fill="#925f3d" d="M 22.132812 27.027344 C 22.132812 27.289062 21.914062 27.503906 21.65625 27.503906 L 1.894531 27.503906 C 1.636719 27.503906 1.417969 27.289062 1.417969 27.027344 L 1.417969 1.980469 C 1.417969 1.722656 1.636719 1.503906 1.894531 1.503906 L 21.65625 1.503906 C 21.914062 1.503906 22.132812 1.722656 22.132812 1.980469 L 22.132812 14.199219 C 17.710938 19.183594 17.238281 19.664062 17.191406 19.789062 L 15.71875 23.691406 C 15.675781 23.863281 15.71875 24.039062 15.847656 24.167969 L 15.894531 24.167969 L 3.410156 24.167969 C 3.152344 24.167969 2.980469 24.339844 2.980469 24.601562 C 2.980469 24.863281 3.152344 25.035156 3.410156 25.035156 L 17.886719 25.035156 C 18.144531 25.035156 18.320312 24.863281 18.320312 24.601562 C 18.320312 24.34375 18.144531 24.167969 17.886719 24.167969 L 16.410156 24.167969 C 16.457031 24.125 19.964844 22.347656 19.921875 22.390625 C 19.964844 22.347656 20.007812 22.304688 20.050781 22.261719 L 22.089844 19.964844 L 22.089844 27.027344 Z M 17.800781 20.703125 L 19.011719 21.871094 L 16.933594 22.910156 Z M 19.75 21.351562 L 18.234375 19.878906 C 18.839844 19.230469 23.300781 14.160156 24.90625 12.382812 C 25.253906 13.246094 25.859375 13.679688 26.378906 13.851562 Z M 27.160156 12.988281 L 26.988281 13.160156 C 26.640625 13.117188 25.859375 12.902344 25.511719 11.644531 L 25.6875 11.472656 C 26.554688 10.472656 28.023438 11.992188 27.160156 12.988281 Z M 25.035156 10.90625 L 23 13.203125 L 23 1.980469 C 23 1.242188 22.390625 0.636719 21.65625 0.636719 L 1.894531 0.636719 C 1.15625 0.636719 0.550781 1.242188 0.550781 1.980469 L 0.550781 27.027344 C 0.550781 27.765625 1.15625 28.371094 1.894531 28.371094 L 21.65625 28.371094 C 22.390625 28.371094 23 27.765625 23 27.027344 L 23 19.011719 L 27.550781 13.898438 L 27.808594 13.59375 C 29.453125 11.6875 26.679688 9.042969 25.035156 10.90625 " fill-opacity="1" fill-rule="nonzero"/></g><path fill="#925f3d" d="M 3.410156 4.84375 L 8.222656 4.84375 C 8.480469 4.84375 8.65625 4.667969 8.65625 4.410156 C 8.65625 4.148438 8.480469 3.976562 8.222656 3.976562 L 3.410156 3.976562 C 3.152344 3.976562 2.980469 4.148438 2.980469 4.410156 C 2.980469 4.667969 3.152344 4.84375 3.410156 4.84375 " fill-opacity="1" fill-rule="nonzero"/><path fill="#925f3d" d="M 3.410156 8.003906 L 10.257812 8.003906 C 10.519531 8.003906 10.691406 7.832031 10.691406 7.570312 C 10.691406 7.3125 10.519531 7.136719 10.257812 7.136719 L 3.410156 7.136719 C 3.152344 7.136719 2.980469 7.3125 2.980469 7.570312 C 2.980469 7.789062 3.152344 8.003906 3.410156 8.003906 " fill-opacity="1" fill-rule="nonzero"/><path fill="#925f3d" d="M 3.410156 11.472656 L 20.136719 11.472656 C 20.398438 11.472656 20.570312 11.296875 20.570312 11.039062 C 20.570312 10.777344 20.398438 10.605469 20.136719 10.605469 L 3.410156 10.605469 C 3.152344 10.605469 2.980469 10.777344 2.980469 11.039062 C 2.980469 11.253906 3.152344 11.472656 3.410156 11.472656 " fill-opacity="1" fill-rule="nonzero"/><path fill="#925f3d" d="M 3.410156 14.851562 L 20.136719 14.851562 C 20.398438 14.851562 20.570312 14.679688 20.570312 14.417969 C 20.570312 14.160156 20.398438 13.984375 20.136719 13.984375 L 3.410156 13.984375 C 3.152344 13.984375 2.980469 14.160156 2.980469 14.417969 C 2.980469 14.632812 3.152344 14.851562 3.410156 14.851562 " fill-opacity="1" fill-rule="nonzero"/><path fill="#925f3d" d="M 3.410156 18.230469 L 17.453125 18.230469 C 17.710938 18.230469 17.886719 18.058594 17.886719 17.800781 C 17.886719 17.539062 17.710938 17.367188 17.453125 17.367188 L 3.410156 17.367188 C 3.152344 17.367188 2.980469 17.539062 2.980469 17.800781 C 2.980469 18.058594 3.152344 18.230469 3.410156 18.230469 " fill-opacity="1" fill-rule="nonzero"/><path fill="#925f3d" d="M 3.410156 21.65625 L 15.414062 21.65625 C 15.675781 21.65625 15.847656 21.480469 15.847656 21.222656 C 15.847656 20.960938 15.675781 20.789062 15.414062 20.789062 L 3.410156 20.789062 C 3.152344 20.789062 2.980469 20.960938 2.980469 21.222656 C 2.980469 21.4375 3.152344 21.65625 3.410156 21.65625 " fill-opacity="1" fill-rule="nonzero"/></svg>