<svg xmlns="http://www.w3.org/2000/svg" xmlns:xlink="http://www.w3.org/1999/xlink" width="40" zoomAndPan="magnify" viewBox="0 0 30 30.000001" height="40" preserveAspectRatio="xMidYMid meet" version="1.0"><defs><clipPath id="aace2bee0d"><path d="M 0.484375 0 L 29.515625 0 L 29.515625 29.03125 L 0.484375 29.03125 Z M 0.484375 0 " clip-rule="nonzero"/></clipPath><clipPath id="c0b72f5bcf"><path d="M 12.285156 9.746094 L 18.089844 9.746094 L 18.089844 17.003906 L 12.285156 17.003906 Z M 12.285156 9.746094 " clip-rule="nonzero"/></clipPath><clipPath id="72a40d332d"><path d="M 2 0.425781 L 28 0.425781 L 28 26.554688 L 2 26.554688 Z M 2 0.425781 " clip-rule="nonzero"/></clipPath></defs><g clip-path="url(#aace2bee0d)"><path fill="#ffffff" d="M 0.484375 0 L 29.515625 0 L 29.515625 29.03125 L 0.484375 29.03125 Z M 0.484375 0 " fill-opacity="1" fill-rule="nonzero"/><path fill="#ffffff" d="M 0.484375 0 L 29.515625 0 L 29.515625 29.03125 L 0.484375 29.03125 Z M 0.484375 0 " fill-opacity="1" fill-rule="nonzero"/></g><g clip-path="url(#c0b72f5bcf)"><path fill="#925f3d" d="M 15.238281 15.570312 L 15.492188 15.570312 L 15.605469 16.089844 L 15.367188 16.664062 L 15.125 16.089844 Z M 16.808594 15.386719 C 17.007812 15.382812 17.171875 15.542969 17.175781 15.742188 C 17.175781 15.746094 17.175781 15.75 17.175781 15.75 C 17.175781 15.953125 17.015625 16.113281 16.816406 16.117188 C 16.617188 16.117188 16.453125 15.957031 16.453125 15.753906 C 16.453125 15.753906 16.453125 15.753906 16.453125 15.75 C 16.449219 15.554688 16.609375 15.390625 16.808594 15.386719 Z M 15.789062 15.28125 L 15.917969 15.335938 L 15.6875 15.890625 L 15.605469 15.523438 Z M 14.945312 15.28125 L 15.121094 15.523438 L 15.039062 15.890625 L 14.808594 15.335938 Z M 15.367188 15.105469 L 15.671875 15.230469 L 15.511719 15.449219 L 15.21875 15.449219 L 15.058594 15.230469 Z M 16.230469 14.585938 L 15.96875 15.222656 L 15.5 15.027344 Z M 14.496094 14.585938 L 15.230469 15.027344 L 14.765625 15.222656 Z M 14.332031 14.511719 L 15.28125 16.78125 C 15.300781 16.828125 15.355469 16.851562 15.402344 16.832031 C 15.425781 16.820312 15.441406 16.804688 15.453125 16.78125 L 16.398438 14.511719 L 16.753906 14.625 L 16.753906 15.273438 C 16.488281 15.304688 16.300781 15.546875 16.335938 15.8125 C 16.367188 16.078125 16.609375 16.265625 16.875 16.230469 C 17.140625 16.199219 17.328125 15.957031 17.292969 15.691406 C 17.265625 15.472656 17.09375 15.300781 16.875 15.273438 L 16.875 14.664062 L 17.59375 14.894531 C 17.789062 14.957031 17.933594 15.121094 17.96875 15.324219 L 18.246094 16.820312 C 18.269531 16.953125 18.179688 17.082031 18.046875 17.105469 C 18.03125 17.105469 18.015625 17.109375 18 17.109375 L 12.726562 17.109375 C 12.589844 17.109375 12.480469 16.996094 12.484375 16.859375 C 12.484375 16.847656 12.484375 16.832031 12.488281 16.816406 L 12.761719 15.320312 C 12.800781 15.121094 12.945312 14.957031 13.136719 14.894531 L 13.855469 14.664062 L 13.855469 14.964844 C 13.671875 14.992188 13.519531 15.128906 13.480469 15.3125 L 13.265625 16.246094 C 13.253906 16.308594 13.269531 16.375 13.3125 16.425781 C 13.367188 16.484375 13.4375 16.53125 13.515625 16.550781 C 13.539062 16.621094 13.613281 16.660156 13.683594 16.636719 C 13.753906 16.613281 13.792969 16.535156 13.769531 16.46875 C 13.746094 16.398438 13.667969 16.359375 13.601562 16.382812 C 13.574219 16.390625 13.550781 16.40625 13.535156 16.429688 C 13.484375 16.410156 13.441406 16.382812 13.40625 16.34375 C 13.386719 16.324219 13.378906 16.296875 13.386719 16.273438 L 13.597656 15.339844 C 13.636719 15.164062 13.8125 15.054688 13.988281 15.09375 C 14.113281 15.121094 14.207031 15.21875 14.234375 15.339844 L 14.449219 16.273438 C 14.457031 16.296875 14.449219 16.324219 14.429688 16.34375 C 14.394531 16.382812 14.351562 16.410156 14.300781 16.429688 C 14.257812 16.371094 14.171875 16.359375 14.113281 16.40625 C 14.054688 16.449219 14.042969 16.53125 14.089844 16.589844 C 14.132812 16.648438 14.21875 16.660156 14.277344 16.613281 C 14.296875 16.597656 14.3125 16.578125 14.320312 16.550781 C 14.398438 16.53125 14.46875 16.484375 14.523438 16.425781 C 14.566406 16.375 14.585938 16.308594 14.570312 16.246094 L 14.355469 15.3125 C 14.316406 15.128906 14.164062 14.992188 13.980469 14.964844 L 13.980469 14.625 Z M 14.746094 13.945312 C 14.859375 14.023438 14.992188 14.0625 15.125 14.0625 L 15.601562 14.0625 C 15.738281 14.0625 15.871094 14.023438 15.984375 13.945312 L 15.984375 14.1875 C 15.984375 14.308594 16.035156 14.425781 16.121094 14.507812 L 15.367188 14.964844 L 14.609375 14.507812 C 14.699219 14.425781 14.75 14.308594 14.746094 14.1875 Z M 16.164062 13.796875 C 16.503906 13.851562 16.753906 14.148438 16.753906 14.492188 L 16.753906 14.496094 L 16.40625 14.386719 C 16.375 14.375 16.335938 14.378906 16.304688 14.398438 L 16.234375 14.441406 C 16.15625 14.382812 16.105469 14.289062 16.105469 14.1875 L 16.105469 13.847656 C 16.125 13.828125 16.144531 13.8125 16.164062 13.796875 Z M 14.570312 13.796875 C 14.589844 13.8125 14.605469 13.828125 14.625 13.847656 L 14.625 14.1875 C 14.625 14.289062 14.578125 14.382812 14.496094 14.441406 L 14.421875 14.398438 C 14.390625 14.378906 14.355469 14.375 14.320312 14.386719 L 13.980469 14.496094 L 13.980469 14.492188 C 13.980469 14.148438 14.230469 13.851562 14.570312 13.796875 Z M 16.980469 11.8125 C 17 11.8125 17.019531 11.828125 17.023438 11.84375 C 17.054688 11.960938 17.058594 12.078125 17.035156 12.191406 C 17.019531 12.292969 16.964844 12.382812 16.878906 12.441406 L 16.878906 11.882812 C 16.902344 11.855469 16.929688 11.832031 16.964844 11.816406 C 16.96875 11.8125 16.976562 11.8125 16.980469 11.8125 Z M 13.746094 11.808594 C 13.753906 11.808594 13.761719 11.8125 13.765625 11.816406 C 13.800781 11.832031 13.828125 11.855469 13.847656 11.882812 L 13.847656 12.441406 C 13.765625 12.382812 13.707031 12.292969 13.695312 12.191406 C 13.667969 12.078125 13.671875 11.960938 13.703125 11.84375 C 13.707031 11.824219 13.726562 11.8125 13.746094 11.808594 Z M 14.210938 10.738281 C 14.902344 11.113281 15.695312 11.242188 16.46875 11.105469 C 16.601562 11.082031 16.730469 11.171875 16.753906 11.304688 C 16.757812 11.320312 16.757812 11.332031 16.757812 11.347656 L 16.757812 12.785156 C 16.757812 12.917969 16.710938 13.046875 16.625 13.144531 C 16.421875 13.382812 16.199219 13.601562 15.964844 13.804688 C 15.863281 13.894531 15.734375 13.941406 15.601562 13.941406 L 15.125 13.941406 C 14.992188 13.941406 14.867188 13.894531 14.765625 13.804688 C 14.53125 13.601562 14.3125 13.382812 14.109375 13.144531 C 14.023438 13.046875 13.976562 12.917969 13.976562 12.785156 L 13.976562 11.316406 C 13.980469 11.308594 13.988281 11.300781 13.992188 11.296875 C 14.121094 11.136719 14.199219 10.941406 14.210938 10.738281 Z M 15.53125 9.765625 C 15.027344 9.753906 14.535156 9.914062 14.136719 10.21875 C 13.875 10.214844 13.652344 10.414062 13.625 10.679688 C 13.597656 10.867188 13.617188 11.0625 13.683594 11.242188 C 13.707031 11.3125 13.773438 11.359375 13.847656 11.359375 L 13.847656 11.71875 C 13.839844 11.714844 13.828125 11.707031 13.816406 11.703125 C 13.730469 11.664062 13.632812 11.703125 13.59375 11.789062 C 13.589844 11.796875 13.585938 11.804688 13.585938 11.8125 C 13.550781 11.945312 13.546875 12.082031 13.578125 12.214844 C 13.597656 12.375 13.703125 12.511719 13.847656 12.578125 L 13.847656 12.785156 C 13.851562 12.949219 13.910156 13.105469 14.015625 13.226562 C 14.15625 13.390625 14.304688 13.546875 14.460938 13.695312 C 14.101562 13.796875 13.859375 14.121094 13.859375 14.492188 L 13.859375 14.535156 L 13.101562 14.777344 C 12.863281 14.855469 12.6875 15.054688 12.640625 15.300781 L 12.363281 16.796875 C 12.328125 16.996094 12.460938 17.1875 12.660156 17.226562 C 12.683594 17.230469 12.703125 17.230469 12.726562 17.230469 L 18 17.230469 C 18.207031 17.234375 18.371094 17.070312 18.375 16.867188 C 18.375 16.84375 18.371094 16.820312 18.367188 16.796875 L 18.089844 15.300781 C 18.046875 15.054688 17.871094 14.855469 17.632812 14.777344 L 16.875 14.535156 L 16.875 14.492188 C 16.875 14.121094 16.628906 13.792969 16.269531 13.695312 C 16.425781 13.546875 16.574219 13.390625 16.71875 13.226562 C 16.824219 13.101562 16.878906 12.945312 16.878906 12.785156 L 16.878906 12.578125 C 17.027344 12.511719 17.132812 12.375 17.15625 12.214844 C 17.183594 12.082031 17.183594 11.945312 17.148438 11.8125 C 17.125 11.722656 17.03125 11.667969 16.941406 11.691406 C 16.933594 11.695312 16.921875 11.699219 16.910156 11.703125 C 16.902344 11.707031 16.890625 11.714844 16.878906 11.71875 L 16.878906 11.609375 C 16.984375 11.554688 17.054688 11.457031 17.078125 11.339844 C 17.125 11.074219 17.109375 10.796875 17.035156 10.535156 C 16.988281 10.390625 16.898438 10.265625 16.777344 10.175781 C 16.414062 9.917969 15.976562 9.773438 15.53125 9.765625 " fill-opacity="1" fill-rule="nonzero"/></g><g clip-path="url(#72a40d332d)"><path fill="#925f3d" d="M 17.421875 26.417969 L 12.472656 26.417969 C 12.304688 26.429688 12.140625 26.402344 11.984375 26.347656 C 11.824219 26.289062 11.683594 26.207031 11.558594 26.09375 C 11.433594 25.980469 11.335938 25.847656 11.261719 25.695312 C 11.191406 25.546875 11.148438 25.386719 11.140625 25.21875 L 10.691406 22.460938 C 10.128906 22.230469 9.601562 21.933594 9.113281 21.566406 L 6.347656 22.71875 C 6.046875 22.851562 5.742188 22.863281 5.429688 22.753906 C 5.101562 22.648438 4.855469 22.441406 4.695312 22.132812 L 2.242188 17.871094 C 2.070312 17.585938 2.019531 17.285156 2.085938 16.960938 C 2.148438 16.640625 2.3125 16.378906 2.578125 16.183594 L 4.804688 14.402344 C 4.765625 14.097656 4.746094 13.796875 4.753906 13.492188 C 4.761719 13.257812 4.785156 13.023438 4.832031 12.792969 L 4.859375 12.625 L 2.535156 10.769531 C 2.457031 10.707031 2.394531 10.628906 2.351562 10.539062 C 2.058594 10.097656 2.015625 9.636719 2.214844 9.148438 L 4.710938 4.6875 C 4.742188 4.636719 4.78125 4.585938 4.824219 4.539062 C 5.007812 4.300781 5.246094 4.144531 5.539062 4.070312 C 5.832031 3.996094 6.117188 4.023438 6.390625 4.152344 L 9.113281 5.285156 C 9.542969 4.984375 10 4.722656 10.410156 4.488281 L 10.664062 4.34375 L 11.015625 1.675781 C 11.027344 1.601562 11.046875 1.527344 11.082031 1.460938 C 11.195312 1.207031 11.363281 1 11.589844 0.839844 C 11.816406 0.675781 12.066406 0.585938 12.34375 0.5625 L 17.292969 0.5625 C 17.460938 0.554688 17.625 0.578125 17.78125 0.636719 C 17.941406 0.691406 18.082031 0.777344 18.207031 0.890625 C 18.332031 1.003906 18.429688 1.132812 18.503906 1.285156 C 18.574219 1.4375 18.617188 1.597656 18.625 1.765625 L 19.074219 4.523438 C 19.636719 4.753906 20.164062 5.050781 20.652344 5.414062 L 23.414062 4.261719 C 23.71875 4.132812 24.023438 4.121094 24.332031 4.230469 C 24.664062 4.335938 24.90625 4.542969 25.066406 4.847656 L 27.519531 9.113281 C 27.6875 9.394531 27.742188 9.699219 27.675781 10.019531 C 27.609375 10.34375 27.445312 10.601562 27.183594 10.800781 L 24.953125 12.582031 C 24.996094 12.882812 25.011719 13.1875 25.003906 13.492188 C 25 13.726562 24.972656 13.957031 24.929688 14.191406 C 24.921875 14.242188 24.910156 14.296875 24.902344 14.347656 L 27.347656 16.214844 C 27.472656 16.304688 27.578125 16.414062 27.660156 16.542969 C 27.742188 16.671875 27.800781 16.8125 27.832031 16.964844 C 27.859375 17.117188 27.863281 17.269531 27.835938 17.421875 C 27.808594 17.574219 27.753906 17.714844 27.675781 17.847656 L 25.179688 22.167969 C 25.019531 22.460938 24.78125 22.652344 24.464844 22.753906 C 24.140625 22.867188 23.820312 22.847656 23.511719 22.699219 L 20.75 21.550781 L 20.523438 21.699219 C 20.109375 21.984375 19.671875 22.238281 19.214844 22.453125 L 18.746094 25.332031 C 18.734375 25.398438 18.714844 25.464844 18.683594 25.527344 C 18.570312 25.78125 18.402344 25.988281 18.175781 26.144531 C 17.949219 26.304688 17.699219 26.398438 17.421875 26.417969 Z M 12.484375 25.058594 L 17.410156 25.058594 C 17.382812 25.058594 17.398438 25.027344 17.421875 24.988281 L 17.921875 21.859375 C 17.96875 21.589844 18.121094 21.410156 18.378906 21.320312 C 18.875 21.128906 19.339844 20.875 19.773438 20.566406 C 19.960938 20.441406 20.144531 20.320312 20.332031 20.210938 C 20.527344 20.09375 20.730469 20.078125 20.941406 20.164062 L 24.074219 21.46875 L 26.460938 17.230469 L 23.789062 15.207031 C 23.605469 15.070312 23.515625 14.886719 23.515625 14.660156 C 23.519531 14.425781 23.546875 14.195312 23.589844 13.964844 C 23.621094 13.808594 23.640625 13.648438 23.644531 13.488281 C 23.664062 13.167969 23.632812 12.847656 23.550781 12.535156 C 23.449219 12.238281 23.523438 11.988281 23.769531 11.789062 L 26.304688 9.761719 L 23.867188 5.492188 L 20.8125 6.824219 C 20.5625 6.925781 20.335938 6.894531 20.125 6.726562 C 19.566406 6.257812 18.941406 5.902344 18.25 5.667969 C 17.988281 5.578125 17.835938 5.402344 17.792969 5.128906 L 17.28125 1.925781 L 12.355469 1.925781 C 12.378906 1.925781 12.371094 1.949219 12.347656 1.984375 L 11.976562 4.84375 C 11.945312 5.0625 11.839844 5.226562 11.652344 5.339844 C 11.472656 5.445312 11.28125 5.554688 11.085938 5.664062 C 10.582031 5.9375 10.097656 6.246094 9.640625 6.589844 C 9.429688 6.753906 9.203125 6.789062 8.960938 6.6875 L 5.882812 5.414062 L 5.84375 5.445312 L 3.445312 9.75 L 5.992188 11.789062 C 6.160156 11.925781 6.246094 12.101562 6.246094 12.320312 C 6.242188 12.554688 6.214844 12.789062 6.171875 13.019531 C 6.078125 13.5 6.09375 13.976562 6.210938 14.453125 C 6.3125 14.753906 6.238281 15 5.992188 15.199219 L 3.457031 17.226562 L 5.894531 21.492188 L 8.953125 20.160156 C 9.199219 20.0625 9.425781 20.09375 9.632812 20.257812 C 10.191406 20.726562 10.816406 21.078125 11.507812 21.316406 C 11.769531 21.402344 11.921875 21.582031 11.964844 21.855469 Z M 26.53125 17.289062 C 26.558594 17.320312 26.59375 17.34375 26.632812 17.363281 Z M 26.53125 17.289062 " fill-opacity="1" fill-rule="nonzero"/></g><path fill="#925f3d" d="M 14.949219 19.675781 C 14.542969 19.675781 14.140625 19.632812 13.742188 19.554688 C 13.34375 19.476562 12.957031 19.359375 12.582031 19.203125 C 12.207031 19.046875 11.851562 18.859375 11.511719 18.632812 C 11.175781 18.40625 10.863281 18.148438 10.578125 17.863281 C 10.289062 17.574219 10.035156 17.265625 9.808594 16.925781 C 9.582031 16.589844 9.390625 16.234375 9.238281 15.855469 C 9.082031 15.480469 8.964844 15.097656 8.882812 14.699219 C 8.804688 14.300781 8.765625 13.898438 8.765625 13.492188 C 8.765625 13.085938 8.804688 12.683594 8.882812 12.285156 C 8.964844 11.886719 9.082031 11.5 9.238281 11.125 C 9.390625 10.75 9.582031 10.394531 9.808594 10.054688 C 10.035156 9.71875 10.289062 9.40625 10.578125 9.121094 C 10.863281 8.832031 11.175781 8.578125 11.511719 8.351562 C 11.851562 8.125 12.207031 7.933594 12.582031 7.78125 C 12.957031 7.625 13.34375 7.507812 13.742188 7.425781 C 14.140625 7.347656 14.542969 7.308594 14.949219 7.308594 C 15.355469 7.308594 15.757812 7.347656 16.15625 7.425781 C 16.550781 7.507812 16.9375 7.625 17.3125 7.78125 C 17.6875 7.933594 18.046875 8.125 18.382812 8.351562 C 18.71875 8.578125 19.03125 8.832031 19.320312 9.121094 C 19.605469 9.40625 19.863281 9.71875 20.089844 10.054688 C 20.3125 10.394531 20.503906 10.75 20.660156 11.125 C 20.816406 11.5 20.933594 11.886719 21.011719 12.285156 C 21.089844 12.683594 21.128906 13.085938 21.128906 13.492188 C 21.128906 13.898438 21.089844 14.300781 21.011719 14.695312 C 20.929688 15.09375 20.8125 15.480469 20.660156 15.855469 C 20.503906 16.230469 20.3125 16.585938 20.085938 16.925781 C 19.859375 17.261719 19.605469 17.574219 19.316406 17.859375 C 19.03125 18.148438 18.71875 18.40625 18.382812 18.628906 C 18.042969 18.855469 17.6875 19.046875 17.3125 19.203125 C 16.9375 19.355469 16.550781 19.472656 16.152344 19.554688 C 15.757812 19.632812 15.355469 19.671875 14.949219 19.675781 Z M 14.949219 8.667969 C 14.632812 8.667969 14.316406 8.699219 14.007812 8.761719 C 13.695312 8.824219 13.394531 8.914062 13.101562 9.035156 C 12.8125 9.15625 12.53125 9.304688 12.269531 9.480469 C 12.007812 9.660156 11.761719 9.859375 11.539062 10.082031 C 11.316406 10.304688 11.113281 10.550781 10.9375 10.8125 C 10.761719 11.074219 10.613281 11.355469 10.492188 11.644531 C 10.371094 11.9375 10.28125 12.242188 10.21875 12.550781 C 10.15625 12.859375 10.125 13.175781 10.125 13.492188 C 10.125 13.808594 10.15625 14.121094 10.21875 14.433594 C 10.28125 14.742188 10.371094 15.042969 10.492188 15.335938 C 10.613281 15.628906 10.761719 15.90625 10.9375 16.171875 C 11.113281 16.433594 11.316406 16.675781 11.539062 16.902344 C 11.761719 17.125 12.007812 17.324219 12.269531 17.5 C 12.53125 17.675781 12.8125 17.824219 13.101562 17.945312 C 13.394531 18.066406 13.695312 18.160156 14.007812 18.21875 C 14.316406 18.28125 14.632812 18.3125 14.949219 18.3125 C 15.265625 18.3125 15.578125 18.28125 15.890625 18.21875 C 16.199219 18.160156 16.5 18.066406 16.792969 17.945312 C 17.085938 17.824219 17.363281 17.675781 17.628906 17.5 C 17.890625 17.324219 18.132812 17.125 18.359375 16.902344 C 18.582031 16.675781 18.78125 16.433594 18.957031 16.171875 C 19.132812 15.90625 19.28125 15.628906 19.402344 15.335938 C 19.523438 15.042969 19.617188 14.742188 19.675781 14.433594 C 19.738281 14.121094 19.769531 13.808594 19.769531 13.492188 C 19.769531 13.175781 19.738281 12.863281 19.675781 12.550781 C 19.613281 12.242188 19.523438 11.941406 19.402344 11.648438 C 19.28125 11.355469 19.132812 11.078125 18.957031 10.8125 C 18.78125 10.550781 18.578125 10.308594 18.355469 10.082031 C 18.132812 9.859375 17.890625 9.660156 17.625 9.484375 C 17.363281 9.308594 17.085938 9.160156 16.792969 9.039062 C 16.5 8.917969 16.199219 8.824219 15.886719 8.761719 C 15.578125 8.703125 15.265625 8.671875 14.949219 8.667969 Z M 14.949219 8.667969 " fill-opacity="1" fill-rule="nonzero"/></svg>