<svg xmlns="http://www.w3.org/2000/svg" xmlns:xlink="http://www.w3.org/1999/xlink" width="40" zoomAndPan="magnify" viewBox="0 0 30 30.000001" height="40" preserveAspectRatio="xMidYMid meet" version="1.0"><defs><clipPath id="3671f7fa1a"><path d="M 0.484375 0 L 29.515625 0 L 29.515625 29.03125 L 0.484375 29.03125 Z M 0.484375 0 " clip-rule="nonzero"/></clipPath><clipPath id="9675ac7c30"><path d="M 5 2.902344 L 29.292969 2.902344 L 29.292969 26.128906 L 5 26.128906 Z M 5 2.902344 " clip-rule="nonzero"/></clipPath></defs><g clip-path="url(#3671f7fa1a)"><path fill="#ffffff" d="M 0.484375 0 L 29.515625 0 L 29.515625 29.03125 L 0.484375 29.03125 Z M 0.484375 0 " fill-opacity="1" fill-rule="nonzero"/><path fill="#ffffff" d="M 0.484375 0 L 29.515625 0 L 29.515625 29.03125 L 0.484375 29.03125 Z M 0.484375 0 " fill-opacity="1" fill-rule="nonzero"/></g><path fill="#935f3d" d="M 16.125 7.515625 C 14.550781 7.515625 13.28125 8.785156 13.28125 10.359375 C 13.28125 11.933594 14.550781 13.203125 16.125 13.203125 C 17.699219 13.203125 18.96875 11.933594 18.96875 10.359375 C 18.96875 8.785156 17.679688 7.515625 16.125 7.515625 Z M 16.125 12.328125 C 15.03125 12.328125 14.15625 11.453125 14.15625 10.359375 C 14.15625 9.265625 15.03125 8.390625 16.125 8.390625 C 17.21875 8.390625 18.09375 9.265625 18.09375 10.359375 C 18.09375 11.453125 17.199219 12.328125 16.125 12.328125 Z M 16.125 12.328125 " fill-opacity="1" fill-rule="nonzero"/><path fill="#935f3d" d="M 13.894531 16.683594 C 13.652344 16.683594 13.457031 16.878906 13.457031 17.121094 L 13.457031 18.652344 C 13.457031 19.132812 13.871094 19.546875 14.375 19.546875 L 14.527344 19.546875 L 14.726562 18.671875 L 14.375 18.671875 C 14.355469 18.671875 14.332031 18.652344 14.332031 18.652344 L 14.332031 17.121094 C 14.332031 16.878906 14.136719 16.683594 13.894531 16.683594 Z M 13.894531 16.683594 " fill-opacity="1" fill-rule="nonzero"/><path fill="#935f3d" d="M 18.3125 14.515625 L 20.042969 14.515625 C 19.648438 13.992188 19.035156 13.640625 18.3125 13.640625 L 13.9375 13.640625 C 12.777344 13.640625 11.707031 14.582031 11.707031 15.609375 L 11.707031 19.984375 C 11.707031 20.445312 11.945312 20.859375 12.320312 21.078125 L 10.066406 21.078125 C 10.351562 21.386719 10.632812 21.691406 10.960938 21.953125 L 23.847656 21.953125 C 24.152344 21.691406 24.460938 21.386719 24.746094 21.078125 C 25.007812 20.792969 25.246094 20.488281 25.464844 20.160156 L 26.363281 15.917969 C 26.386719 15.785156 26.363281 15.652344 26.277344 15.542969 C 26.1875 15.433594 26.058594 15.390625 25.925781 15.390625 L 16.652344 15.390625 C 16.453125 15.390625 16.257812 15.542969 16.214844 15.742188 L 15.097656 21.078125 L 14.199219 21.078125 L 14.332031 20.421875 L 13.042969 20.421875 C 12.800781 20.421875 12.558594 20.203125 12.558594 19.984375 L 12.558594 15.609375 C 12.558594 15.128906 13.195312 14.515625 13.917969 14.515625 Z M 17.023438 16.265625 L 25.421875 16.265625 L 24.394531 21.078125 L 15.996094 21.078125 Z M 17.023438 16.265625 " fill-opacity="1" fill-rule="nonzero"/><path fill="#935f3d" d="M 1.578125 7.976562 C 1.554688 7.953125 1.511719 7.953125 1.492188 7.953125 C 1.292969 7.929688 1.097656 8.0625 1.03125 8.257812 C 0.988281 8.414062 1.03125 8.585938 1.140625 8.695312 C 1.226562 8.828125 1.46875 9.332031 1.554688 9.550781 C 1.820312 10.183594 1.863281 10.820312 1.90625 11.496094 C 1.90625 11.628906 1.929688 11.738281 1.929688 11.871094 C 1.929688 11.933594 1.949219 11.980469 1.949219 12.042969 C 1.949219 12.109375 1.972656 12.175781 1.972656 12.242188 C 1.992188 13.421875 2.867188 14.734375 4.464844 14.976562 C 4.617188 14.996094 4.792969 15.019531 4.96875 15.042969 C 4.992188 14.757812 5.011719 14.472656 5.054688 14.167969 C 4.882812 14.144531 4.707031 14.121094 4.574219 14.101562 C 3.4375 13.925781 2.824219 13.027344 2.824219 12.199219 C 2.824219 12.089844 2.804688 12 2.804688 11.914062 C 2.804688 11.871094 2.78125 11.824219 2.78125 11.78125 C 2.78125 11.652344 2.757812 11.542969 2.757812 11.410156 C 2.714844 10.6875 2.648438 9.945312 2.34375 9.199219 C 3.351562 9.617188 4.640625 10.25 5.230469 10.839844 C 5.625 11.210938 5.820312 11.695312 5.910156 12.175781 C 6.105469 11.914062 6.347656 11.671875 6.632812 11.429688 C 6.476562 10.992188 6.238281 10.578125 5.867188 10.226562 C 4.75 9.132812 2.015625 8.128906 1.621094 7.976562 C 1.601562 7.976562 1.601562 7.976562 1.578125 7.976562 Z M 1.578125 7.976562 " fill-opacity="1" fill-rule="nonzero"/><path fill="#935f3d" d="M 3.898438 12.261719 C 3.808594 12.480469 3.898438 12.746094 4.117188 12.832031 C 4.597656 13.050781 4.945312 13.53125 5.144531 13.925781 C 5.230469 13.574219 5.339844 13.226562 5.515625 12.875 C 5.253906 12.546875 4.925781 12.21875 4.488281 12.023438 C 4.246094 11.933594 3.984375 12.042969 3.898438 12.261719 Z M 3.898438 12.261719 " fill-opacity="1" fill-rule="nonzero"/><g clip-path="url(#9675ac7c30)"><path fill="#935f3d" d="M 17.417969 2.921875 C 17.175781 2.921875 16.980469 3.117188 16.980469 3.359375 C 16.980469 3.601562 17.175781 3.796875 17.417969 3.796875 C 23.324219 3.796875 28.136719 8.609375 28.136719 14.515625 C 28.136719 20.421875 23.324219 25.234375 17.417969 25.234375 C 12.363281 25.234375 8.074219 21.777344 6.980469 16.945312 C 7.265625 16.964844 7.59375 16.964844 7.855469 16.964844 C 7.898438 16.964844 7.945312 16.964844 7.988281 16.964844 C 9.605469 16.945312 10.65625 15.742188 10.851562 14.582031 C 10.851562 14.515625 10.875 14.449219 10.898438 14.386719 C 10.917969 14.320312 10.917969 14.277344 10.941406 14.210938 C 10.960938 14.078125 10.984375 13.96875 11.027344 13.839844 C 11.179688 13.160156 11.3125 12.527344 11.640625 11.957031 C 11.75 11.761719 12.078125 11.277344 12.1875 11.167969 C 12.296875 11.082031 12.363281 10.929688 12.339844 10.753906 C 12.296875 10.511719 12.078125 10.359375 11.835938 10.382812 C 11.835938 10.382812 11.835938 10.382812 11.816406 10.382812 C 11.792969 10.382812 11.792969 10.382812 11.773438 10.382812 C 11.3125 10.46875 8.511719 11.101562 7.265625 12.042969 C 5.320312 13.511719 5.976562 16.417969 5.996094 16.550781 C 5.996094 16.59375 6.019531 16.636719 6.039062 16.660156 C 7.070312 22.171875 11.816406 26.109375 17.417969 26.109375 C 23.804688 26.109375 29.011719 20.902344 29.011719 14.515625 C 29.011719 8.128906 23.804688 2.921875 17.417969 2.921875 Z M 7.769531 12.765625 C 8.492188 12.242188 9.867188 11.78125 10.851562 11.519531 C 10.4375 12.21875 10.285156 12.964844 10.132812 13.664062 C 10.109375 13.773438 10.085938 13.902344 10.042969 14.011719 C 10.042969 14.058594 10.023438 14.101562 10 14.144531 C 9.976562 14.230469 9.957031 14.339844 9.933594 14.429688 C 9.804688 15.238281 9.082031 16.070312 7.921875 16.089844 C 7.789062 16.089844 7.660156 16.089844 7.507812 16.089844 C 7.636719 15.761719 8.03125 14.933594 8.6875 14.625 C 8.90625 14.539062 9.015625 14.277344 8.90625 14.058594 C 8.820312 13.839844 8.554688 13.730469 8.335938 13.839844 C 7.398438 14.253906 6.894531 15.261719 6.695312 15.742188 C 6.675781 14.910156 6.761719 13.53125 7.769531 12.765625 Z M 7.769531 12.765625 " fill-opacity="1" fill-rule="nonzero"/></g><path fill="#935f3d" d="M 20.699219 17.359375 C 19.976562 17.359375 19.386719 17.949219 19.386719 18.671875 C 19.386719 19.394531 19.976562 19.984375 20.699219 19.984375 C 21.417969 19.984375 22.011719 19.394531 22.011719 18.671875 C 22.011719 17.949219 21.417969 17.359375 20.699219 17.359375 Z M 20.699219 19.109375 C 20.457031 19.109375 20.261719 18.914062 20.261719 18.671875 C 20.261719 18.433594 20.457031 18.234375 20.699219 18.234375 C 20.9375 18.234375 21.136719 18.433594 21.136719 18.671875 C 21.136719 18.914062 20.9375 19.109375 20.699219 19.109375 Z M 20.699219 19.109375 " fill-opacity="1" fill-rule="nonzero"/></svg>