<svg xmlns="http://www.w3.org/2000/svg" xmlns:xlink="http://www.w3.org/1999/xlink" width="40" zoomAndPan="magnify" viewBox="0 0 30 30.000001" height="40" preserveAspectRatio="xMidYMid meet" version="1.0"><defs><clipPath id="ab9cabd909"><path d="M 0.484375 0 L 29.515625 0 L 29.515625 29.03125 L 0.484375 29.03125 Z M 0.484375 0 " clip-rule="nonzero"/></clipPath><clipPath id="502a4c01af"><path d="M 2.460938 0 L 27.863281 0 L 27.863281 29.03125 L 2.460938 29.03125 Z M 2.460938 0 " clip-rule="nonzero"/></clipPath></defs><g clip-path="url(#ab9cabd909)"><path fill="#ffffff" d="M 0.484375 0 L 29.515625 0 L 29.515625 29.03125 L 0.484375 29.03125 Z M 0.484375 0 " fill-opacity="1" fill-rule="nonzero"/><path fill="#ffffff" d="M 0.484375 0 L 29.515625 0 L 29.515625 29.03125 L 0.484375 29.03125 Z M 0.484375 0 " fill-opacity="1" fill-rule="nonzero"/></g><g clip-path="url(#502a4c01af)"><path fill="#925f3d" d="M 4.441406 0 C 3.355469 0 2.460938 0.894531 2.460938 1.980469 L 2.460938 3.847656 C 2.449219 3.921875 2.449219 3.992188 2.460938 4.0625 L 2.460938 24.300781 C 2.449219 24.375 2.449219 24.445312 2.460938 24.515625 L 2.460938 27.054688 C 2.460938 28.136719 3.355469 29.03125 4.441406 29.03125 L 17.636719 29.03125 C 18.722656 29.03125 19.617188 28.136719 19.617188 27.054688 L 19.617188 24.523438 C 19.628906 24.453125 19.628906 24.378906 19.617188 24.308594 L 19.617188 19.136719 L 25.554688 19.136719 C 26.636719 19.136719 27.535156 18.242188 27.535156 17.15625 L 27.535156 9.300781 C 27.535156 8.183594 26.617188 7.257812 25.496094 7.257812 L 19.617188 7.257812 L 19.617188 4.070312 C 19.628906 3.996094 19.628906 3.925781 19.617188 3.855469 L 19.617188 1.980469 C 19.617188 0.894531 18.722656 0 17.636719 0 Z M 4.441406 1.320312 L 17.636719 1.320312 C 18.003906 1.320312 18.296875 1.613281 18.296875 1.980469 L 18.296875 3.300781 L 3.78125 3.300781 L 3.78125 1.980469 C 3.78125 1.613281 4.074219 1.320312 4.441406 1.320312 Z M 3.78125 4.617188 L 18.296875 4.617188 L 18.296875 7.257812 L 13.082031 7.257812 C 11.960938 7.257812 11.039062 8.183594 11.039062 9.300781 L 11.039062 17.15625 C 11.039062 18.242188 11.9375 19.136719 13.019531 19.136719 L 14.253906 19.136719 C 14.222656 19.351562 14.226562 19.65625 14.164062 19.792969 C 14.046875 20.074219 13.867188 20.285156 13.429688 20.546875 C 13.175781 20.703125 13.054688 21.007812 13.132812 21.292969 C 13.210938 21.578125 13.472656 21.773438 13.769531 21.773438 C 15.242188 21.773438 17.066406 21.085938 18.007812 19.136719 L 18.296875 19.136719 L 18.296875 23.753906 L 3.78125 23.753906 Z M 13.082031 8.578125 L 18.847656 8.578125 C 18.917969 8.589844 18.992188 8.589844 19.0625 8.578125 L 25.496094 8.578125 C 25.894531 8.578125 26.214844 8.898438 26.214844 9.300781 L 26.214844 17.15625 C 26.214844 17.59375 25.992188 17.816406 25.554688 17.816406 L 17.636719 17.816406 C 17.363281 17.816406 17.113281 17.988281 17.019531 18.25 C 16.652344 19.253906 16.066406 19.773438 15.414062 20.078125 C 15.578125 19.585938 15.660156 19.078125 15.660156 18.476562 C 15.660156 18.113281 15.363281 17.816406 15 17.816406 L 13.019531 17.816406 C 12.582031 17.816406 12.359375 17.59375 12.359375 17.15625 L 12.359375 9.300781 C 12.359375 8.898438 12.683594 8.578125 13.082031 8.578125 Z M 19.617188 9.898438 C 19.253906 9.898438 18.957031 10.195312 18.957031 10.558594 C 18.957031 10.597656 18.960938 10.636719 18.96875 10.675781 C 18.195312 10.945312 17.636719 11.671875 17.636719 12.535156 L 17.636719 14.515625 C 17.636719 14.878906 17.339844 15.175781 16.976562 15.175781 L 16.976562 15.835938 L 18.957031 15.835938 C 18.957031 16.199219 19.253906 16.496094 19.617188 16.496094 C 19.980469 16.496094 20.277344 16.199219 20.277344 15.835938 L 22.257812 15.835938 L 22.257812 15.175781 C 21.894531 15.175781 21.597656 14.878906 21.597656 14.515625 L 21.597656 12.535156 C 21.597656 11.671875 21.039062 10.945312 20.265625 10.671875 C 20.273438 10.632812 20.277344 10.597656 20.277344 10.558594 C 20.277344 10.195312 19.980469 9.898438 19.617188 9.898438 Z M 3.78125 25.074219 L 18.296875 25.074219 L 18.296875 27.054688 C 18.296875 27.417969 18.003906 27.710938 17.636719 27.710938 L 4.441406 27.710938 C 4.074219 27.710938 3.78125 27.417969 3.78125 27.054688 Z M 9.058594 25.734375 C 8.824219 25.730469 8.601562 25.855469 8.480469 26.058594 C 8.363281 26.265625 8.363281 26.519531 8.480469 26.726562 C 8.601562 26.933594 8.824219 27.054688 9.058594 27.054688 L 13.019531 27.054688 C 13.257812 27.054688 13.476562 26.933594 13.597656 26.726562 C 13.71875 26.519531 13.71875 26.265625 13.597656 26.058594 C 13.476562 25.855469 13.257812 25.730469 13.019531 25.734375 Z M 9.058594 25.734375 " fill-opacity="1" fill-rule="nonzero"/></g></svg>