<svg xmlns="http://www.w3.org/2000/svg" xmlns:xlink="http://www.w3.org/1999/xlink" width="40" zoomAndPan="magnify" viewBox="0 0 30 30.000001" height="40" preserveAspectRatio="xMidYMid meet" version="1.0"><defs><clipPath id="03b30aaf25"><path d="M 0.484375 0 L 29.515625 0 L 29.515625 29.03125 L 0.484375 29.03125 Z M 0.484375 0 " clip-rule="nonzero"/></clipPath><clipPath id="2f03c986c1"><path d="M 25 13 L 27.847656 13 L 27.847656 16 L 25 16 Z M 25 13 " clip-rule="nonzero"/></clipPath><clipPath id="fed7f12b19"><path d="M 2.445312 0 L 27.847656 0 L 27.847656 29 L 2.445312 29 Z M 2.445312 0 " clip-rule="nonzero"/></clipPath></defs><g clip-path="url(#03b30aaf25)"><path fill="#ffffff" d="M 0.484375 0 L 29.515625 0 L 29.515625 29.03125 L 0.484375 29.03125 Z M 0.484375 0 " fill-opacity="1" fill-rule="nonzero"/><path fill="#ffffff" d="M 0.484375 0 L 29.515625 0 L 29.515625 29.03125 L 0.484375 29.03125 Z M 0.484375 0 " fill-opacity="1" fill-rule="nonzero"/></g><path fill="#925f3d" d="M 14.960938 22.851562 C 15.09375 22.941406 15.25 22.941406 15.378906 22.851562 C 15.976562 22.445312 21.339844 19.445312 21.339844 18.691406 C 21.339844 15.0625 21.339844 13.019531 21.339844 9.382812 C 21.339844 8.773438 20.828125 8.414062 20.234375 8.277344 C 17.070312 7.527344 13.507812 7.429688 10.105469 8.277344 C 9.515625 8.421875 9 8.773438 9 9.382812 C 9 13.019531 9 15.054688 9 18.691406 C 9 19.355469 14.074219 22.25 14.960938 22.851562 Z M 14.960938 22.851562 " fill-opacity="1" fill-rule="evenodd"/><path fill="#ffffff" d="M 14.992188 21.746094 C 15.105469 21.820312 15.238281 21.820312 15.347656 21.746094 C 15.859375 21.398438 20.4375 18.835938 20.4375 18.195312 C 20.4375 15.097656 20.4375 13.355469 20.4375 10.246094 C 20.4375 9.730469 19.996094 9.425781 19.492188 9.304688 C 16.792969 8.667969 13.75 8.582031 10.847656 9.304688 C 10.34375 9.429688 9.90625 9.730469 9.90625 10.246094 C 9.90625 13.355469 9.90625 15.089844 9.90625 18.195312 C 9.90625 18.761719 14.238281 21.230469 14.992188 21.746094 Z M 14.992188 21.746094 " fill-opacity="1" fill-rule="evenodd"/><path fill="#ffffff" d="M 20.4375 18.199219 C 20.4375 18.199219 20.4375 18.195312 20.4375 18.195312 C 20.4375 15.097656 20.4375 13.355469 20.4375 10.25 C 20.4375 9.730469 19.996094 9.425781 19.492188 9.304688 C 17.253906 8.777344 14.78125 8.628906 12.347656 9.003906 C 12.527344 14.132812 15.867188 18.21875 19.960938 18.21875 C 20.117188 18.21875 20.277344 18.210938 20.4375 18.199219 Z M 20.4375 18.199219 " fill-opacity="1" fill-rule="evenodd"/><path fill="#925f3d" d="M 15.621094 0.59375 C 15.1875 0.59375 14.839844 0.941406 14.839844 1.375 C 14.839844 1.804688 15.1875 2.15625 15.621094 2.15625 C 16.050781 2.15625 16.402344 1.804688 16.402344 1.375 C 16.402344 0.941406 16.050781 0.59375 15.621094 0.59375 Z M 15.621094 0.59375 " fill-opacity="1" fill-rule="evenodd"/><path fill="#925f3d" d="M 11.726562 1.878906 C 12.160156 1.878906 12.507812 2.226562 12.507812 2.65625 C 12.507812 3.089844 12.160156 3.441406 11.726562 3.441406 C 11.296875 3.441406 10.945312 3.089844 10.945312 2.65625 C 10.945312 2.226562 11.296875 1.878906 11.726562 1.878906 Z M 11.726562 1.878906 " fill-opacity="1" fill-rule="evenodd"/><path fill="#925f3d" d="M 5.992188 3.933594 C 6.425781 3.933594 6.773438 4.285156 6.773438 4.71875 C 6.773438 5.148438 6.425781 5.5 5.992188 5.5 C 5.5625 5.5 5.210938 5.148438 5.210938 4.71875 C 5.210938 4.285156 5.5625 3.933594 5.992188 3.933594 Z M 5.992188 3.933594 " fill-opacity="1" fill-rule="evenodd"/><path fill="#925f3d" d="M 3.820312 13.597656 C 4.25 13.597656 4.601562 13.949219 4.601562 14.378906 C 4.601562 14.8125 4.25 15.160156 3.820312 15.160156 C 3.386719 15.160156 3.035156 14.8125 3.035156 14.378906 C 3.035156 13.949219 3.386719 13.597656 3.820312 13.597656 Z M 3.820312 13.597656 " fill-opacity="1" fill-rule="evenodd"/><g clip-path="url(#2f03c986c1)"><path fill="#925f3d" d="M 26.523438 13.597656 C 26.089844 13.597656 25.742188 13.949219 25.742188 14.378906 C 25.742188 14.8125 26.089844 15.160156 26.523438 15.160156 C 26.957031 15.160156 27.304688 14.8125 27.304688 14.378906 C 27.304688 13.949219 26.957031 13.597656 26.523438 13.597656 Z M 26.523438 13.597656 " fill-opacity="1" fill-rule="evenodd"/></g><path fill="#925f3d" d="M 23.855469 23.496094 C 23.425781 23.496094 23.074219 23.84375 23.074219 24.277344 C 23.074219 24.710938 23.425781 25.058594 23.855469 25.058594 C 24.289062 25.058594 24.640625 24.710938 24.640625 24.277344 C 24.640625 23.84375 24.289062 23.496094 23.855469 23.496094 Z M 23.855469 23.496094 " fill-opacity="1" fill-rule="evenodd"/><path fill="#925f3d" d="M 15.171875 26.871094 C 15.601562 26.871094 15.953125 27.222656 15.953125 27.65625 C 15.953125 28.085938 15.601562 28.4375 15.171875 28.4375 C 14.742188 28.4375 14.390625 28.085938 14.390625 27.65625 C 14.390625 27.222656 14.738281 26.871094 15.171875 26.871094 Z M 15.171875 26.871094 " fill-opacity="1" fill-rule="evenodd"/><path fill="#925f3d" d="M 6.488281 23.496094 C 6.917969 23.496094 7.265625 23.84375 7.265625 24.277344 C 7.265625 24.710938 6.917969 25.058594 6.488281 25.058594 C 6.054688 25.058594 5.703125 24.710938 5.703125 24.277344 C 5.703125 23.84375 6.054688 23.496094 6.488281 23.496094 Z M 6.488281 23.496094 " fill-opacity="1" fill-rule="evenodd"/><path fill="#ffffff" d="M 14.992188 21.746094 C 15.105469 21.820312 15.238281 21.820312 15.347656 21.746094 C 15.71875 21.492188 18.246094 20.066406 19.59375 19.0625 C 19.46875 17.5625 18.199219 16.371094 16.667969 16.371094 L 13.671875 16.371094 C 12.152344 16.371094 10.890625 17.542969 10.75 19.03125 C 12.050781 19.992188 14.449219 21.375 14.992188 21.746094 Z M 14.992188 21.746094 " fill-opacity="1" fill-rule="evenodd"/><path fill="#ffffff" d="M 16.898438 20.8125 C 17.789062 20.273438 18.863281 19.605469 19.59375 19.0625 C 19.46875 17.5625 18.199219 16.371094 16.667969 16.371094 L 13.671875 16.371094 C 13.359375 16.371094 13.054688 16.421875 12.769531 16.515625 C 13.589844 18.078125 15.050781 19.582031 16.898438 20.8125 Z M 16.898438 20.8125 " fill-opacity="1" fill-rule="evenodd"/><path fill="#925f3d" d="M 15.171875 11.148438 C 13.789062 11.148438 12.65625 12.28125 12.65625 13.664062 L 12.65625 14.210938 C 12.65625 15.59375 13.789062 16.726562 15.171875 16.726562 C 16.554688 16.726562 17.6875 15.59375 17.6875 14.210938 L 17.6875 13.664062 C 17.6875 12.28125 16.554688 11.148438 15.171875 11.148438 Z M 15.171875 11.148438 " fill-opacity="1" fill-rule="evenodd"/><path fill="#ffffff" d="M 15.171875 11.148438 C 14.582031 11.148438 14.035156 11.355469 13.605469 11.699219 C 13.503906 11.972656 13.449219 12.269531 13.449219 12.574219 L 13.449219 13.117188 C 13.449219 14.503906 14.582031 15.636719 15.964844 15.636719 C 16.554688 15.636719 17.097656 15.429688 17.53125 15.085938 C 17.632812 14.8125 17.6875 14.515625 17.6875 14.210938 L 17.6875 13.664062 C 17.6875 12.28125 16.554688 11.148438 15.171875 11.148438 Z M 15.171875 11.148438 " fill-opacity="1" fill-rule="evenodd"/><path fill="#ffffff" d="M 21.128906 4.886719 C 23.320312 4.886719 25.097656 6.664062 25.097656 8.859375 C 25.097656 11.050781 23.320312 12.828125 21.128906 12.828125 C 18.933594 12.828125 17.15625 11.050781 17.15625 8.859375 C 17.15625 6.664062 18.933594 4.886719 21.128906 4.886719 Z M 21.128906 4.886719 " fill-opacity="1" fill-rule="evenodd"/><path fill="#ffffff" d="M 21.128906 4.886719 C 23.320312 4.886719 25.097656 6.664062 25.097656 8.859375 C 25.097656 9.847656 24.734375 10.753906 24.136719 11.449219 C 23.597656 11.726562 22.984375 11.878906 22.335938 11.878906 C 20.140625 11.878906 18.363281 10.101562 18.363281 7.90625 C 18.363281 6.917969 18.726562 6.015625 19.324219 5.316406 C 19.867188 5.042969 20.476562 4.886719 21.128906 4.886719 Z M 21.128906 4.886719 " fill-opacity="1" fill-rule="evenodd"/><path fill="#925f3d" d="M 18.738281 9.710938 C 18.394531 9.460938 18.324219 8.980469 18.570312 8.640625 C 18.824219 8.296875 19.304688 8.222656 19.644531 8.476562 L 20.394531 9.027344 L 22.550781 7.128906 C 22.871094 6.847656 23.355469 6.878906 23.636719 7.199219 C 23.917969 7.515625 23.886719 8 23.570312 8.28125 L 20.949219 10.589844 L 20.949219 10.585938 C 20.683594 10.820312 20.285156 10.847656 19.988281 10.632812 Z M 18.738281 9.710938 " fill-opacity="1" fill-rule="nonzero"/><path fill="#ffffff" d="M 18.578125 8.632812 C 18.832031 8.296875 19.304688 8.226562 19.644531 8.476562 L 20.394531 9.027344 L 22.550781 7.128906 C 22.871094 6.847656 23.355469 6.878906 23.636719 7.199219 C 23.652344 7.214844 23.664062 7.230469 23.675781 7.246094 C 23.644531 7.289062 23.609375 7.324219 23.570312 7.363281 L 20.949219 9.667969 C 20.683594 9.902344 20.285156 9.929688 19.988281 9.710938 L 18.738281 8.792969 C 18.675781 8.746094 18.621094 8.691406 18.578125 8.632812 Z M 18.578125 8.632812 " fill-opacity="1" fill-rule="nonzero"/><g clip-path="url(#fed7f12b19)"><path fill="#925f3d" d="M 18.59375 9.910156 C 17.863281 9.378906 18.148438 8.226562 19.039062 8.089844 C 19.292969 8.050781 19.566406 8.109375 19.792969 8.273438 L 20.382812 8.710938 L 22.390625 6.945312 C 23.066406 6.347656 24.132812 6.867188 24.074219 7.769531 C 24.058594 8.03125 23.941406 8.285156 23.730469 8.46875 L 20.925781 10.9375 L 20.90625 10.914062 C 20.570312 11.089844 20.15625 11.0625 19.839844 10.832031 Z M 18.679688 9.171875 C 18.699219 9.304688 18.769531 9.429688 18.882812 9.511719 L 20.132812 10.433594 C 20.332031 10.578125 20.601562 10.566406 20.785156 10.402344 L 20.96875 10.242188 L 23.40625 8.097656 C 23.753906 7.789062 23.554688 7.214844 23.09375 7.183594 C 22.960938 7.175781 22.824219 7.21875 22.714844 7.3125 L 20.410156 9.34375 L 19.5 8.671875 C 19.132812 8.402344 18.609375 8.710938 18.679688 9.171875 Z M 21.128906 4.640625 C 23.457031 4.640625 25.34375 6.53125 25.34375 8.859375 C 25.34375 11.019531 23.710938 12.820312 21.589844 13.050781 L 21.589844 18.691406 C 21.589844 19.429688 18.121094 21.496094 16.390625 22.527344 C 15.953125 22.789062 15.628906 22.980469 15.519531 23.054688 C 15.421875 23.121094 15.316406 23.160156 15.214844 23.167969 C 15.328125 23.1875 15.417969 23.289062 15.417969 23.410156 L 15.417969 26.65625 C 16.191406 26.847656 16.46875 27.816406 15.898438 28.382812 C 15.253906 29.03125 14.140625 28.566406 14.140625 27.65625 C 14.140625 27.179688 14.46875 26.769531 14.925781 26.65625 L 14.925781 23.410156 C 14.925781 23.289062 15.015625 23.1875 15.128906 23.167969 C 15.023438 23.160156 14.921875 23.121094 14.824219 23.054688 C 14.628906 22.925781 14.191406 22.65625 13.640625 22.324219 C 11.804688 21.203125 8.753906 19.339844 8.753906 18.691406 L 8.753906 9.382812 C 8.753906 8.628906 9.375 8.203125 10.046875 8.035156 C 12.359375 7.460938 14.769531 7.3125 17.125 7.523438 C 17.691406 5.824219 19.289062 4.640625 21.128906 4.640625 Z M 21.09375 13.078125 C 20.957031 13.074219 20.820312 13.066406 20.683594 13.054688 L 20.683594 18.195312 C 20.683594 18.417969 20.332031 18.773438 19.8125 19.183594 C 19.792969 19.210938 19.773438 19.238281 19.742188 19.261719 C 18.777344 19.980469 17.320312 20.847656 16.230469 21.5 L 15.453125 21.972656 C 15.242188 22.097656 15.027344 22.066406 14.832031 21.933594 C 14.4375 21.675781 13.929688 21.375 13.511719 21.121094 C 12.601562 20.5625 11.40625 19.824219 10.601562 19.234375 C 10.578125 19.214844 10.554688 19.191406 10.539062 19.160156 C 10.011719 18.757812 9.65625 18.40625 9.65625 18.195312 L 9.65625 10.25 C 9.65625 9.585938 10.199219 9.214844 10.789062 9.066406 C 12.789062 8.570312 14.878906 8.441406 16.914062 8.632812 C 16.925781 8.421875 16.953125 8.210938 16.996094 8.007812 C 14.726562 7.8125 12.390625 7.960938 10.164062 8.515625 C 9.71875 8.628906 9.246094 8.886719 9.246094 9.382812 L 9.246094 18.691406 C 9.246094 19.0625 12.152344 20.835938 13.898438 21.902344 C 14.445312 22.234375 14.878906 22.5 15.101562 22.648438 C 15.144531 22.679688 15.195312 22.679688 15.242188 22.648438 C 15.375 22.558594 15.699219 22.367188 16.136719 22.105469 C 17.785156 21.121094 21.09375 19.148438 21.09375 18.691406 Z M 20.191406 12.972656 C 18.382812 12.5625 17.035156 11.003906 16.917969 9.128906 C 14.925781 8.9375 12.871094 9.058594 10.910156 9.546875 C 10.546875 9.636719 10.152344 9.84375 10.152344 10.25 L 10.152344 18.195312 C 10.152344 18.269531 10.308594 18.421875 10.566406 18.617188 C 10.855469 17.335938 11.914062 16.347656 13.214844 16.160156 C 12.71875 15.660156 12.40625 14.96875 12.40625 14.210938 L 12.40625 13.664062 C 12.40625 12.144531 13.652344 10.902344 15.171875 10.902344 C 16.691406 10.902344 17.933594 12.144531 17.933594 13.664062 L 17.933594 14.210938 C 17.933594 14.96875 17.625 15.660156 17.125 16.160156 C 18.4375 16.347656 19.503906 17.347656 19.78125 18.640625 C 20.035156 18.441406 20.191406 18.28125 20.191406 18.195312 Z M 23.761719 6.226562 C 22.304688 4.773438 19.949219 4.773438 18.496094 6.226562 C 17.039062 7.679688 17.039062 10.035156 18.496094 11.492188 C 19.949219 12.945312 22.304688 12.945312 23.761719 11.492188 C 25.214844 10.035156 25.214844 7.679688 23.761719 6.226562 Z M 15.171875 11.394531 C 13.925781 11.394531 12.902344 12.417969 12.902344 13.664062 L 12.902344 14.210938 C 12.902344 15.960938 14.828125 17.058594 16.328125 16.160156 C 17 15.757812 17.441406 15.03125 17.441406 14.210938 L 17.441406 13.664062 C 17.441406 12.417969 16.417969 11.394531 15.171875 11.394531 Z M 16.519531 16.621094 C 16.121094 16.847656 15.660156 16.972656 15.171875 16.972656 C 14.683594 16.972656 14.222656 16.847656 13.824219 16.621094 L 13.671875 16.621094 C 12.335938 16.621094 11.203125 17.613281 11.011719 18.917969 C 11.390625 19.191406 11.847656 19.496094 12.320312 19.796875 L 12.320312 19.109375 C 12.320312 18.78125 12.816406 18.78125 12.816406 19.109375 L 12.816406 20.109375 L 15.164062 21.554688 C 15.339844 21.480469 15.785156 21.191406 15.976562 21.078125 C 16.40625 20.824219 16.957031 20.492188 17.527344 20.140625 L 17.527344 19.109375 C 17.527344 18.78125 18.023438 18.78125 18.023438 19.109375 L 18.023438 19.828125 C 18.492188 19.527344 18.953125 19.222656 19.332031 18.945312 C 19.15625 17.628906 18.015625 16.621094 16.667969 16.621094 Z M 6.734375 23.28125 C 7.503906 23.46875 7.78125 24.4375 7.214844 25.007812 C 6.566406 25.652344 5.457031 25.191406 5.457031 24.277344 C 5.457031 23.800781 5.785156 23.390625 6.238281 23.28125 L 6.238281 20.0625 C 6.238281 19.925781 6.351562 19.816406 6.488281 19.816406 L 9.449219 19.816406 C 9.773438 19.816406 9.773438 20.3125 9.449219 20.3125 L 6.734375 20.3125 Z M 6.863281 23.898438 C 6.527344 23.566406 5.949219 23.804688 5.949219 24.277344 C 5.949219 24.75 6.527344 24.992188 6.863281 24.65625 C 7.070312 24.449219 7.070312 24.109375 6.863281 23.898438 Z M 15.546875 27.277344 C 15.214844 26.945312 14.636719 27.183594 14.636719 27.65625 C 14.636719 28.128906 15.214844 28.367188 15.546875 28.035156 C 15.757812 27.824219 15.757812 27.488281 15.546875 27.277344 Z M 23.855469 23.742188 C 23.382812 23.742188 23.144531 24.320312 23.480469 24.65625 C 23.816406 24.992188 24.390625 24.753906 24.390625 24.277344 C 24.390625 23.980469 24.152344 23.742188 23.855469 23.742188 Z M 23.128906 23.550781 C 23.261719 23.421875 23.425781 23.324219 23.609375 23.28125 L 23.609375 20.3125 L 20.894531 20.3125 C 20.566406 20.3125 20.566406 19.816406 20.894531 19.816406 L 23.855469 19.816406 C 23.992188 19.816406 24.105469 19.929688 24.105469 20.066406 L 24.105469 23.28125 C 24.875 23.472656 25.152344 24.4375 24.585938 25.007812 C 23.9375 25.652344 22.828125 25.191406 22.828125 24.28125 C 22.828125 23.996094 22.941406 23.738281 23.128906 23.550781 Z M 26.523438 13.847656 C 26.050781 13.847656 25.808594 14.425781 26.148438 14.757812 C 26.480469 15.09375 27.058594 14.855469 27.058594 14.382812 C 27.058594 14.085938 26.820312 13.847656 26.523438 13.847656 Z M 25.796875 13.652344 C 26.445312 13.007812 27.554688 13.46875 27.554688 14.382812 C 27.554688 15.292969 26.445312 15.753906 25.796875 15.109375 C 25.667969 14.976562 25.570312 14.8125 25.523438 14.628906 L 22.273438 14.628906 C 21.949219 14.628906 21.949219 14.132812 22.273438 14.132812 L 25.523438 14.132812 C 25.570312 13.949219 25.667969 13.785156 25.796875 13.652344 Z M 3.820312 13.351562 C 4.296875 13.351562 4.707031 13.679688 4.816406 14.132812 L 8.070312 14.132812 C 8.394531 14.132812 8.394531 14.628906 8.070312 14.628906 L 4.816406 14.628906 C 4.628906 15.398438 3.660156 15.675781 3.089844 15.109375 C 2.445312 14.460938 2.90625 13.351562 3.820312 13.351562 Z M 4.195312 14.003906 C 3.859375 13.667969 3.285156 13.90625 3.285156 14.382812 C 3.285156 14.855469 3.859375 15.09375 4.195312 14.757812 C 4.40625 14.550781 4.40625 14.210938 4.195312 14.003906 Z M 5.992188 3.6875 C 6.90625 3.6875 7.367188 4.796875 6.722656 5.445312 C 6.585938 5.582031 6.414062 5.679688 6.222656 5.722656 L 6.222656 8.835938 L 8.242188 10.855469 C 8.472656 11.085938 8.125 11.4375 7.890625 11.207031 L 5.796875 9.113281 C 5.75 9.0625 5.722656 9 5.722656 8.9375 L 5.722656 5.710938 C 4.964844 5.507812 4.703125 4.554688 5.265625 3.988281 C 5.453125 3.804688 5.710938 3.6875 5.992188 3.6875 Z M 6.371094 4.339844 C 6.035156 4.003906 5.460938 4.242188 5.460938 4.71875 C 5.460938 5.191406 6.039062 5.429688 6.371094 5.097656 C 6.578125 4.886719 6.578125 4.550781 6.371094 4.339844 Z M 11.726562 1.632812 C 12.640625 1.632812 13.101562 2.742188 12.457031 3.386719 C 12.324219 3.519531 12.160156 3.613281 11.976562 3.660156 L 11.976562 6.898438 C 11.976562 7.226562 11.480469 7.226562 11.480469 6.898438 L 11.480469 3.660156 C 10.710938 3.46875 10.433594 2.5 11 1.933594 C 11.1875 1.746094 11.445312 1.632812 11.726562 1.632812 Z M 12.105469 2.28125 C 11.769531 1.945312 11.195312 2.183594 11.195312 2.660156 C 11.195312 3.132812 11.769531 3.371094 12.105469 3.035156 C 12.3125 2.828125 12.3125 2.492188 12.105469 2.28125 Z M 15.621094 0.839844 C 15.144531 0.839844 14.90625 1.417969 15.242188 1.753906 C 15.578125 2.089844 16.15625 1.851562 16.15625 1.375 C 16.15625 1.082031 15.914062 0.839844 15.621094 0.839844 Z M 14.890625 0.648438 C 15.539062 0 16.648438 0.460938 16.648438 1.375 C 16.648438 1.851562 16.320312 2.261719 15.867188 2.375 L 15.867188 6.898438 C 15.867188 7.226562 15.375 7.226562 15.375 6.898438 L 15.375 2.375 C 14.601562 2.183594 14.324219 1.21875 14.890625 0.648438 Z M 14.890625 0.648438 " fill-opacity="1" fill-rule="nonzero"/></g></svg>