<svg xmlns="http://www.w3.org/2000/svg" xmlns:xlink="http://www.w3.org/1999/xlink" width="40" zoomAndPan="magnify" viewBox="0 0 30 30.000001" height="40" preserveAspectRatio="xMidYMid meet" version="1.0"><defs><clipPath id="5e5948f6df"><path d="M 0.484375 0 L 29.515625 0 L 29.515625 29.03125 L 0.484375 29.03125 Z M 0.484375 0 " clip-rule="nonzero"/></clipPath></defs><g clip-path="url(#5e5948f6df)"><path fill="#ffffff" d="M 0.484375 0 L 29.515625 0 L 29.515625 29.03125 L 0.484375 29.03125 Z M 0.484375 0 " fill-opacity="1" fill-rule="nonzero"/><path fill="#ffffff" d="M 0.484375 0 L 29.515625 0 L 29.515625 29.03125 L 0.484375 29.03125 Z M 0.484375 0 " fill-opacity="1" fill-rule="nonzero"/><path fill="#041630" d="M 29.515625 14.515625 C 29.515625 15.46875 29.421875 16.414062 29.238281 17.347656 C 29.050781 18.28125 28.777344 19.191406 28.410156 20.070312 C 28.046875 20.953125 27.597656 21.789062 27.070312 22.582031 C 26.539062 23.371094 25.9375 24.105469 25.265625 24.78125 C 24.589844 25.453125 23.855469 26.054688 23.0625 26.585938 C 22.273438 27.113281 21.433594 27.5625 20.554688 27.925781 C 19.675781 28.292969 18.765625 28.566406 17.832031 28.753906 C 16.898438 28.9375 15.953125 29.03125 15 29.03125 C 14.046875 29.03125 13.101562 28.9375 12.167969 28.753906 C 11.234375 28.566406 10.324219 28.292969 9.445312 27.925781 C 8.5625 27.5625 7.726562 27.113281 6.933594 26.585938 C 6.144531 26.054688 5.410156 25.453125 4.734375 24.78125 C 4.0625 24.105469 3.460938 23.371094 2.929688 22.582031 C 2.402344 21.789062 1.953125 20.953125 1.589844 20.070312 C 1.222656 19.191406 0.949219 18.28125 0.761719 17.347656 C 0.578125 16.414062 0.484375 15.46875 0.484375 14.515625 C 0.484375 13.5625 0.578125 12.617188 0.761719 11.683594 C 0.949219 10.75 1.222656 9.839844 1.589844 8.960938 C 1.953125 8.082031 2.402344 7.242188 2.929688 6.453125 C 3.460938 5.660156 4.0625 4.925781 4.734375 4.25 C 5.410156 3.578125 6.144531 2.976562 6.933594 2.445312 C 7.726562 1.917969 8.5625 1.46875 9.445312 1.105469 C 10.324219 0.738281 11.234375 0.464844 12.167969 0.277344 C 13.101562 0.09375 14.046875 0 15 0 C 15.953125 0 16.898438 0.09375 17.832031 0.277344 C 18.765625 0.464844 19.675781 0.738281 20.554688 1.105469 C 21.433594 1.46875 22.273438 1.917969 23.0625 2.445312 C 23.855469 2.976562 24.589844 3.578125 25.265625 4.25 C 25.9375 4.925781 26.539062 5.660156 27.070312 6.453125 C 27.597656 7.242188 28.046875 8.082031 28.410156 8.960938 C 28.777344 9.839844 29.050781 10.75 29.238281 11.683594 C 29.421875 12.617188 29.515625 13.5625 29.515625 14.515625 Z M 29.515625 14.515625 " fill-opacity="1" fill-rule="nonzero"/></g><path fill="#ffffff" d="M 19.34375 23.804688 L 16.914062 23.804688 L 16.914062 20.75 C 16.914062 20.648438 16.832031 20.566406 16.734375 20.566406 C 16.632812 20.566406 16.550781 20.648438 16.550781 20.75 L 16.550781 23.804688 L 8.875 23.804688 L 8.875 20.75 C 8.875 20.648438 8.796875 20.566406 8.695312 20.566406 C 8.59375 20.566406 8.515625 20.648438 8.515625 20.75 L 8.515625 23.804688 L 6.082031 23.804688 C 5.984375 23.804688 5.902344 23.726562 5.902344 23.625 L 5.902344 19.53125 C 5.902344 17.390625 7.253906 15.558594 9.148438 14.84375 L 9.148438 16.078125 C 8.917969 16.105469 8.644531 16.253906 8.492188 16.761719 L 8.070312 18.191406 C 8.019531 18.355469 8.054688 18.523438 8.164062 18.667969 C 8.304688 18.859375 8.554688 18.984375 8.800781 18.984375 L 8.886719 18.984375 C 8.984375 18.984375 9.066406 18.902344 9.066406 18.800781 C 9.066406 18.699219 8.984375 18.621094 8.886719 18.621094 L 8.800781 18.621094 C 8.671875 18.621094 8.527344 18.550781 8.453125 18.453125 C 8.394531 18.371094 8.410156 18.316406 8.417969 18.296875 L 8.839844 16.867188 C 8.96875 16.4375 9.160156 16.4375 9.222656 16.4375 L 9.4375 16.4375 C 9.5 16.4375 9.691406 16.4375 9.816406 16.867188 L 10.242188 18.296875 C 10.246094 18.316406 10.265625 18.371094 10.207031 18.453125 C 10.132812 18.550781 9.988281 18.621094 9.859375 18.621094 L 9.773438 18.621094 C 9.675781 18.621094 9.59375 18.699219 9.59375 18.800781 C 9.59375 18.902344 9.675781 18.984375 9.773438 18.984375 L 9.859375 18.984375 C 10.105469 18.984375 10.355469 18.859375 10.496094 18.667969 C 10.605469 18.523438 10.636719 18.355469 10.589844 18.191406 L 10.164062 16.761719 C 10.015625 16.253906 9.738281 16.105469 9.511719 16.078125 L 9.511719 14.726562 C 9.953125 14.597656 10.421875 14.527344 10.90625 14.527344 L 14.523438 14.527344 C 15.109375 14.527344 15.675781 14.628906 16.203125 14.816406 L 16.203125 16.363281 C 15.609375 16.449219 15.152344 16.960938 15.152344 17.578125 C 15.152344 18.257812 15.703125 18.808594 16.382812 18.808594 C 17.0625 18.808594 17.613281 18.257812 17.613281 17.578125 C 17.613281 16.960938 17.15625 16.449219 16.5625 16.363281 L 16.5625 14.960938 C 18.308594 15.746094 19.527344 17.5 19.527344 19.53125 L 19.527344 23.625 C 19.527344 23.726562 19.445312 23.804688 19.34375 23.804688 Z M 16.382812 16.710938 C 16.863281 16.710938 17.25 17.101562 17.25 17.578125 C 17.25 18.058594 16.863281 18.449219 16.382812 18.449219 C 15.90625 18.449219 15.515625 18.058594 15.515625 17.578125 C 15.515625 17.101562 15.90625 16.710938 16.382812 16.710938 Z M 16.382812 16.710938 " fill-opacity="1" fill-rule="evenodd"/><path fill="#ffffff" d="M 12.714844 13.796875 C 10.777344 13.796875 9.199219 12.21875 9.199219 10.28125 L 9.199219 9.683594 C 9.410156 9.507812 9.664062 9.292969 9.703125 9.171875 C 9.859375 8.679688 10.089844 7.953125 10.734375 7.820312 C 10.933594 8.175781 11.613281 9.164062 12.984375 9.199219 C 13.054688 9.199219 13.117188 9.164062 13.148438 9.105469 C 13.179688 9.046875 13.179688 8.972656 13.140625 8.917969 C 13.0625 8.796875 12.992188 8.636719 12.984375 8.558594 C 13.03125 8.550781 13.113281 8.542969 13.191406 8.535156 C 13.644531 8.488281 14.546875 8.394531 15.050781 7.777344 C 15.203125 7.96875 15.832031 8.773438 16.230469 9.5625 L 16.230469 10.28125 C 16.230469 12.21875 14.652344 13.796875 12.714844 13.796875 Z M 9.160156 9.277344 C 9.140625 9.125 9.128906 8.96875 9.128906 8.8125 C 9.128906 6.835938 10.738281 5.226562 12.714844 5.226562 C 14.691406 5.226562 16.300781 6.835938 16.300781 8.8125 C 16.300781 8.832031 16.300781 8.855469 16.300781 8.878906 C 15.789062 8.011719 15.171875 7.367188 15.152344 7.347656 C 15.109375 7.3125 15.054688 7.292969 15 7.304688 C 14.945312 7.3125 14.898438 7.34375 14.871094 7.394531 C 14.511719 8.035156 13.628906 8.125 13.152344 8.175781 C 13.015625 8.1875 12.917969 8.199219 12.851562 8.21875 C 12.75 8.25 12.675781 8.316406 12.644531 8.410156 C 12.601562 8.527344 12.628906 8.675781 12.679688 8.804688 C 11.503906 8.617188 11.023438 7.59375 11.003906 7.546875 C 10.972656 7.476562 10.898438 7.433594 10.820312 7.441406 C 9.84375 7.527344 9.539062 8.488281 9.359375 9.0625 C 9.34375 9.105469 9.261719 9.1875 9.160156 9.277344 Z M 9.160156 9.277344 " fill-opacity="1" fill-rule="evenodd"/><path fill="#ffffff" d="M 11.019531 14.164062 L 11.019531 13.25 C 11.019531 13.1875 11.050781 13.128906 11.105469 13.09375 C 11.160156 13.0625 11.226562 13.058594 11.285156 13.085938 C 11.730469 13.316406 12.210938 13.433594 12.714844 13.433594 C 13.214844 13.433594 13.699219 13.316406 14.144531 13.085938 C 14.199219 13.058594 14.269531 13.0625 14.320312 13.09375 C 14.375 13.128906 14.410156 13.1875 14.410156 13.25 L 14.410156 14.164062 Z M 11.019531 14.164062 " fill-opacity="1" fill-rule="evenodd"/><path fill="#ffffff" d="M 20.21875 20.773438 L 19.890625 20.773438 L 19.890625 19.53125 C 19.890625 18.949219 19.796875 18.382812 19.617188 17.851562 C 19.632812 17.851562 19.644531 17.851562 19.65625 17.851562 C 20.644531 17.851562 21.453125 17.046875 21.453125 16.054688 C 21.453125 15.066406 20.644531 14.261719 19.65625 14.261719 C 18.886719 14.261719 18.230469 14.746094 17.976562 15.425781 C 17.597656 15.105469 17.175781 14.839844 16.714844 14.632812 L 16.566406 14.566406 L 16.566406 14.5625 L 16.523438 14.546875 L 16.203125 14.402344 L 16.203125 14.433594 C 15.898438 14.332031 15.585938 14.261719 15.273438 14.214844 C 15.277344 14.203125 15.285156 14.195312 15.289062 14.183594 L 15.851562 13.210938 C 15.925781 13.082031 16.046875 12.988281 16.191406 12.949219 C 16.335938 12.910156 16.488281 12.929688 16.617188 13.003906 L 17.605469 13.574219 C 17.882812 13.34375 18.195312 13.164062 18.535156 13.039062 L 18.535156 11.898438 C 18.535156 11.589844 18.785156 11.339844 19.09375 11.339844 L 20.21875 11.339844 C 20.527344 11.339844 20.777344 11.589844 20.777344 11.898438 L 20.777344 13.039062 C 21.117188 13.164062 21.429688 13.34375 21.707031 13.574219 L 22.695312 13.003906 C 22.824219 12.929688 22.976562 12.910156 23.121094 12.949219 C 23.265625 12.988281 23.386719 13.082031 23.460938 13.210938 L 24.023438 14.183594 C 24.175781 14.449219 24.085938 14.796875 23.816406 14.949219 L 22.832031 15.519531 C 22.859375 15.695312 22.875 15.875 22.875 16.054688 C 22.875 16.234375 22.859375 16.414062 22.832031 16.589844 L 23.816406 17.160156 C 24.085938 17.316406 24.175781 17.660156 24.023438 17.929688 L 23.460938 18.898438 C 23.386719 19.03125 23.265625 19.121094 23.121094 19.160156 C 22.976562 19.199219 22.824219 19.179688 22.695312 19.105469 L 21.707031 18.535156 C 21.429688 18.765625 21.117188 18.949219 20.777344 19.074219 L 20.777344 20.210938 C 20.777344 20.519531 20.527344 20.773438 20.21875 20.773438 Z M 19.480469 17.476562 C 19.539062 17.484375 19.597656 17.488281 19.65625 17.488281 C 20.445312 17.488281 21.089844 16.84375 21.089844 16.054688 C 21.089844 15.265625 20.445312 14.625 19.65625 14.625 C 18.992188 14.625 18.433594 15.078125 18.269531 15.691406 C 18.789062 16.199219 19.203125 16.808594 19.480469 17.476562 Z M 19.480469 17.476562 " fill-opacity="1" fill-rule="evenodd"/></svg>