<svg xmlns="http://www.w3.org/2000/svg" xmlns:xlink="http://www.w3.org/1999/xlink" width="40" zoomAndPan="magnify" viewBox="0 0 30 30.000001" height="40" preserveAspectRatio="xMidYMid meet" version="1.0"><defs><clipPath id="3ef2207d90"><path d="M 0.484375 0 L 29.515625 0 L 29.515625 29.03125 L 0.484375 29.03125 Z M 0.484375 0 " clip-rule="nonzero"/></clipPath><clipPath id="92446a99e8"><path d="M 9.195312 9.710938 L 20.804688 9.710938 L 20.804688 19.148438 L 9.195312 19.148438 Z M 9.195312 9.710938 " clip-rule="nonzero"/></clipPath><clipPath id="6b4b8bb0e3"><path d="M 0.484375 0 L 29.515625 0 L 29.515625 29.03125 L 0.484375 29.03125 Z M 0.484375 0 " clip-rule="nonzero"/></clipPath></defs><g clip-path="url(#3ef2207d90)"><path fill="#ffffff" d="M 0.484375 0 L 29.515625 0 L 29.515625 29.03125 L 0.484375 29.03125 Z M 0.484375 0 " fill-opacity="1" fill-rule="nonzero"/><path fill="#ffffff" d="M 0.484375 0 L 29.515625 0 L 29.515625 29.03125 L 0.484375 29.03125 Z M 0.484375 0 " fill-opacity="1" fill-rule="nonzero"/></g><g clip-path="url(#92446a99e8)"><path fill="#925f3d" d="M 11.597656 10.3125 C 11.597656 9.980469 11.867188 9.710938 12.199219 9.710938 L 17.800781 9.710938 C 18.132812 9.710938 18.402344 9.980469 18.402344 10.3125 L 18.402344 10.710938 C 18.402344 11.042969 18.132812 11.3125 17.800781 11.3125 L 17.800781 12.113281 L 20.203125 12.113281 C 20.535156 12.113281 20.804688 12.382812 20.804688 12.714844 L 20.804688 13.113281 C 20.804688 13.445312 20.535156 13.714844 20.203125 13.714844 L 20.203125 18.917969 C 20.203125 19.136719 20.023438 19.316406 19.804688 19.316406 L 10.195312 19.316406 C 9.976562 19.316406 9.796875 19.136719 9.796875 18.917969 L 9.796875 13.714844 C 9.464844 13.714844 9.195312 13.445312 9.195312 13.113281 L 9.195312 12.714844 C 9.195312 12.382812 9.464844 12.113281 9.796875 12.113281 L 12.199219 12.113281 L 12.199219 11.3125 C 11.867188 11.3125 11.597656 11.042969 11.597656 10.710938 Z M 17.800781 13.714844 L 19.804688 13.714844 L 19.804688 18.917969 L 17.800781 18.917969 Z M 20.402344 13.113281 C 20.402344 13.222656 20.3125 13.3125 20.203125 13.3125 L 17.800781 13.3125 L 17.800781 12.511719 L 20.203125 12.511719 C 20.3125 12.511719 20.402344 12.601562 20.402344 12.714844 Z M 17.402344 11.3125 L 17.402344 18.917969 L 16.199219 18.917969 L 16.199219 16.914062 C 16.199219 16.695312 16.023438 16.515625 15.800781 16.515625 L 14.199219 16.515625 C 13.976562 16.515625 13.800781 16.695312 13.800781 16.914062 L 13.800781 18.917969 L 12.597656 18.917969 L 12.597656 11.3125 Z M 15.800781 16.914062 L 15.800781 18.917969 L 15.199219 18.917969 L 15.199219 16.914062 Z M 14.800781 16.914062 L 14.800781 18.917969 L 14.199219 18.917969 L 14.199219 16.914062 Z M 10.195312 13.714844 L 10.195312 18.917969 L 12.199219 18.917969 L 12.199219 13.714844 Z M 12.199219 13.3125 L 12.199219 12.511719 L 9.796875 12.511719 C 9.6875 12.511719 9.597656 12.601562 9.597656 12.714844 L 9.597656 13.113281 C 9.597656 13.222656 9.6875 13.3125 9.796875 13.3125 Z M 17.800781 10.910156 L 12.199219 10.910156 C 12.085938 10.910156 12 10.824219 12 10.710938 L 12 10.3125 C 12 10.199219 12.085938 10.113281 12.199219 10.113281 L 17.800781 10.113281 C 17.914062 10.113281 18 10.199219 18 10.3125 L 18 10.710938 C 18 10.824219 17.914062 10.910156 17.800781 10.910156 Z M 14.601562 12.113281 C 14.488281 12.113281 14.398438 12.203125 14.398438 12.3125 L 14.398438 13.113281 L 13.597656 13.113281 C 13.488281 13.113281 13.398438 13.203125 13.398438 13.3125 L 13.398438 14.113281 C 13.398438 14.222656 13.488281 14.3125 13.597656 14.3125 L 14.398438 14.3125 L 14.398438 15.113281 C 14.398438 15.226562 14.488281 15.316406 14.601562 15.316406 L 15.398438 15.316406 C 15.511719 15.316406 15.601562 15.226562 15.601562 15.113281 L 15.601562 14.3125 L 16.402344 14.3125 C 16.511719 14.3125 16.601562 14.222656 16.601562 14.113281 L 16.601562 13.3125 C 16.601562 13.203125 16.511719 13.113281 16.402344 13.113281 L 15.601562 13.113281 L 15.601562 12.3125 C 15.601562 12.203125 15.511719 12.113281 15.398438 12.113281 Z M 14.800781 13.3125 L 14.800781 12.511719 L 15.199219 12.511719 L 15.199219 13.3125 C 15.199219 13.425781 15.289062 13.511719 15.398438 13.511719 L 16.199219 13.511719 L 16.199219 13.914062 L 15.398438 13.914062 C 15.289062 13.914062 15.199219 14.003906 15.199219 14.113281 L 15.199219 14.914062 L 14.800781 14.914062 L 14.800781 14.113281 C 14.800781 14.003906 14.710938 13.914062 14.601562 13.914062 L 13.800781 13.914062 L 13.800781 13.511719 L 14.601562 13.511719 C 14.710938 13.511719 14.800781 13.425781 14.800781 13.3125 Z M 10.597656 14.714844 C 10.597656 14.605469 10.6875 14.515625 10.796875 14.515625 L 11.597656 14.515625 C 11.707031 14.515625 11.796875 14.605469 11.796875 14.714844 L 11.796875 15.515625 C 11.796875 15.625 11.707031 15.714844 11.597656 15.714844 L 10.796875 15.714844 C 10.6875 15.714844 10.597656 15.625 10.597656 15.515625 Z M 10.996094 14.914062 L 10.996094 15.316406 L 11.398438 15.316406 L 11.398438 14.914062 Z M 18.402344 14.515625 C 18.292969 14.515625 18.203125 14.605469 18.203125 14.714844 L 18.203125 15.515625 C 18.203125 15.625 18.292969 15.714844 18.402344 15.714844 L 19.203125 15.714844 C 19.3125 15.714844 19.402344 15.625 19.402344 15.515625 L 19.402344 14.714844 C 19.402344 14.605469 19.3125 14.515625 19.203125 14.515625 Z M 19.003906 15.316406 L 18.601562 15.316406 L 18.601562 14.914062 L 19.003906 14.914062 Z M 10.597656 16.714844 C 10.597656 16.605469 10.6875 16.515625 10.796875 16.515625 L 11.597656 16.515625 C 11.707031 16.515625 11.796875 16.605469 11.796875 16.714844 L 11.796875 17.515625 C 11.796875 17.625 11.707031 17.714844 11.597656 17.714844 L 10.796875 17.714844 C 10.6875 17.714844 10.597656 17.625 10.597656 17.515625 Z M 10.996094 16.914062 L 10.996094 17.316406 L 11.398438 17.316406 L 11.398438 16.914062 Z M 18.402344 16.515625 C 18.292969 16.515625 18.203125 16.605469 18.203125 16.714844 L 18.203125 17.515625 C 18.203125 17.625 18.292969 17.714844 18.402344 17.714844 L 19.203125 17.714844 C 19.3125 17.714844 19.402344 17.625 19.402344 17.515625 L 19.402344 16.714844 C 19.402344 16.605469 19.3125 16.515625 19.203125 16.515625 Z M 18.601562 17.316406 L 18.601562 16.914062 L 19.003906 16.914062 L 19.003906 17.316406 Z M 18.601562 17.316406 " fill-opacity="1" fill-rule="evenodd"/></g><g clip-path="url(#6b4b8bb0e3)"><path fill="#925f3d" d="M 16.878906 0.492188 C 16.820312 0.277344 16.640625 0.125 16.417969 0.101562 C 15.488281 0.0117188 14.546875 0.0117188 13.617188 0.101562 C 13.394531 0.125 13.214844 0.277344 13.15625 0.492188 L 12.644531 2.359375 C 12.082031 2.46875 11.527344 2.617188 10.984375 2.804688 C 10.984375 2.804688 9.609375 1.441406 9.609375 1.441406 C 9.453125 1.285156 9.21875 1.246094 9.015625 1.335938 C 8.164062 1.722656 7.351562 2.191406 6.585938 2.738281 C 6.410156 2.867188 6.328125 3.089844 6.382812 3.304688 L 6.875 5.175781 C 6.441406 5.554688 6.035156 5.960938 5.660156 6.390625 C 5.660156 6.390625 3.789062 5.898438 3.789062 5.898438 C 3.574219 5.84375 3.347656 5.925781 3.222656 6.105469 C 2.675781 6.867188 2.207031 7.679688 1.820312 8.53125 C 1.726562 8.734375 1.769531 8.96875 1.925781 9.125 L 3.289062 10.5 C 3.101562 11.042969 2.953125 11.597656 2.84375 12.160156 C 2.84375 12.160156 0.976562 12.671875 0.976562 12.671875 C 0.761719 12.730469 0.609375 12.914062 0.585938 13.132812 C 0.496094 14.0625 0.496094 15.003906 0.585938 15.9375 C 0.609375 16.15625 0.761719 16.339844 0.976562 16.394531 L 2.84375 16.90625 C 2.953125 17.46875 3.101562 18.023438 3.289062 18.566406 C 3.289062 18.566406 1.925781 19.941406 1.925781 19.941406 C 1.769531 20.097656 1.726562 20.335938 1.820312 20.535156 C 2.207031 21.386719 2.675781 22.199219 3.222656 22.964844 C 3.347656 23.144531 3.574219 23.222656 3.789062 23.167969 L 5.660156 22.675781 C 6.035156 23.109375 6.441406 23.515625 6.875 23.890625 C 6.875 23.890625 6.382812 25.761719 6.382812 25.761719 C 6.328125 25.976562 6.410156 26.203125 6.585938 26.328125 C 7.351562 26.875 8.164062 27.34375 9.015625 27.730469 C 9.21875 27.824219 9.453125 27.78125 9.609375 27.625 L 10.984375 26.261719 C 11.527344 26.449219 12.082031 26.597656 12.644531 26.707031 C 12.644531 26.707031 13.15625 28.574219 13.15625 28.574219 C 13.214844 28.789062 13.394531 28.941406 13.617188 28.964844 C 14.546875 29.054688 15.488281 29.054688 16.417969 28.964844 C 16.640625 28.941406 16.820312 28.789062 16.878906 28.574219 L 17.390625 26.707031 C 17.953125 26.597656 18.507812 26.449219 19.050781 26.261719 C 19.050781 26.261719 20.425781 27.625 20.425781 27.625 C 20.582031 27.78125 20.816406 27.824219 21.019531 27.730469 C 21.871094 27.34375 22.683594 26.875 23.445312 26.328125 C 23.625 26.203125 23.707031 25.976562 23.652344 25.761719 L 23.160156 23.890625 C 23.59375 23.515625 23.996094 23.109375 24.375 22.675781 C 24.375 22.675781 26.246094 23.167969 26.246094 23.167969 C 26.460938 23.222656 26.683594 23.144531 26.8125 22.964844 C 27.359375 22.199219 27.828125 21.386719 28.214844 20.535156 C 28.308594 20.335938 28.265625 20.097656 28.109375 19.941406 L 26.746094 18.566406 C 26.933594 18.023438 27.082031 17.46875 27.191406 16.90625 C 27.191406 16.90625 29.058594 16.394531 29.058594 16.394531 C 29.273438 16.339844 29.425781 16.15625 29.449219 15.9375 C 29.539062 15.003906 29.539062 14.0625 29.449219 13.132812 C 29.425781 12.914062 29.273438 12.730469 29.058594 12.671875 L 27.191406 12.160156 C 27.082031 11.597656 26.933594 11.042969 26.746094 10.5 C 26.746094 10.5 28.109375 9.125 28.109375 9.125 C 28.265625 8.96875 28.308594 8.734375 28.214844 8.53125 C 27.828125 7.679688 27.359375 6.867188 26.8125 6.105469 C 26.683594 5.925781 26.460938 5.84375 26.246094 5.898438 L 24.375 6.390625 C 23.996094 5.960938 23.59375 5.554688 23.160156 5.175781 C 23.160156 5.175781 23.652344 3.304688 23.652344 3.304688 C 23.707031 3.089844 23.625 2.867188 23.445312 2.738281 C 22.683594 2.191406 21.871094 1.722656 21.019531 1.335938 C 20.816406 1.246094 20.582031 1.285156 20.425781 1.441406 L 19.050781 2.804688 C 18.507812 2.617188 17.953125 2.46875 17.390625 2.359375 C 17.390625 2.359375 16.878906 0.492188 16.878906 0.492188 Z M 15.953125 1.128906 L 16.457031 2.960938 C 16.507812 3.160156 16.675781 3.3125 16.878906 3.34375 C 17.601562 3.464844 18.3125 3.65625 19 3.914062 C 19.191406 3.984375 19.410156 3.9375 19.558594 3.792969 L 20.910156 2.457031 C 21.46875 2.730469 22.011719 3.042969 22.53125 3.394531 C 22.53125 3.394531 22.046875 5.230469 22.046875 5.230469 C 21.996094 5.429688 22.066406 5.644531 22.222656 5.777344 C 22.789062 6.242188 23.308594 6.761719 23.777344 7.328125 C 23.90625 7.488281 24.121094 7.554688 24.320312 7.503906 L 26.15625 7.019531 C 26.507812 7.539062 26.820312 8.082031 27.09375 8.644531 C 27.09375 8.644531 25.757812 9.992188 25.757812 9.992188 C 25.613281 10.140625 25.566406 10.359375 25.636719 10.550781 C 25.894531 11.238281 26.085938 11.949219 26.207031 12.671875 C 26.238281 12.875 26.390625 13.042969 26.589844 13.097656 L 28.421875 13.597656 C 28.464844 14.222656 28.464844 14.847656 28.421875 15.46875 C 28.421875 15.46875 26.589844 15.972656 26.589844 15.972656 C 26.390625 16.027344 26.238281 16.191406 26.207031 16.394531 C 26.085938 17.121094 25.894531 17.828125 25.636719 18.515625 C 25.566406 18.710938 25.613281 18.929688 25.757812 19.074219 L 27.09375 20.425781 C 26.820312 20.988281 26.507812 21.527344 26.15625 22.046875 C 26.15625 22.046875 24.320312 21.566406 24.320312 21.566406 C 24.121094 21.511719 23.90625 21.582031 23.777344 21.742188 C 23.308594 22.308594 22.789062 22.828125 22.222656 23.292969 C 22.066406 23.421875 21.996094 23.636719 22.046875 23.835938 L 22.53125 25.675781 C 22.011719 26.023438 21.46875 26.335938 20.910156 26.609375 C 20.910156 26.609375 19.558594 25.273438 19.558594 25.273438 C 19.410156 25.128906 19.191406 25.082031 19 25.15625 C 18.3125 25.410156 17.601562 25.601562 16.878906 25.722656 C 16.675781 25.757812 16.507812 25.90625 16.457031 26.105469 L 15.953125 27.9375 C 15.332031 27.980469 14.703125 27.980469 14.082031 27.9375 C 14.082031 27.9375 13.578125 26.105469 13.578125 26.105469 C 13.527344 25.90625 13.359375 25.757812 13.15625 25.722656 C 12.433594 25.601562 11.722656 25.410156 11.035156 25.15625 C 10.84375 25.082031 10.625 25.128906 10.476562 25.273438 L 9.125 26.609375 C 8.5625 26.335938 8.023438 26.023438 7.503906 25.675781 C 7.503906 25.675781 7.988281 23.835938 7.988281 23.835938 C 8.039062 23.636719 7.96875 23.421875 7.808594 23.292969 C 7.246094 22.828125 6.726562 22.308594 6.257812 21.742188 C 6.128906 21.582031 5.914062 21.511719 5.714844 21.566406 L 3.878906 22.046875 C 3.527344 21.527344 3.214844 20.988281 2.941406 20.425781 C 2.941406 20.425781 4.277344 19.074219 4.277344 19.074219 C 4.421875 18.929688 4.46875 18.710938 4.398438 18.515625 C 4.140625 17.828125 3.949219 17.121094 3.828125 16.394531 C 3.796875 16.191406 3.644531 16.027344 3.445312 15.972656 L 1.613281 15.46875 C 1.570312 14.847656 1.570312 14.222656 1.613281 13.597656 C 1.613281 13.597656 3.445312 13.097656 3.445312 13.097656 C 3.644531 13.042969 3.796875 12.875 3.828125 12.671875 C 3.949219 11.949219 4.140625 11.238281 4.398438 10.550781 C 4.46875 10.359375 4.421875 10.140625 4.277344 9.992188 L 2.941406 8.644531 C 3.214844 8.082031 3.527344 7.539062 3.875 7.019531 C 3.878906 7.019531 5.714844 7.503906 5.714844 7.503906 C 5.914062 7.554688 6.128906 7.488281 6.257812 7.328125 C 6.726562 6.761719 7.246094 6.242188 7.808594 5.777344 C 7.96875 5.644531 8.039062 5.429688 7.988281 5.230469 L 7.503906 3.394531 C 8.023438 3.042969 8.5625 2.730469 9.125 2.457031 C 9.125 2.457031 10.476562 3.792969 10.476562 3.792969 C 10.625 3.9375 10.84375 3.984375 11.035156 3.914062 C 11.722656 3.65625 12.433594 3.464844 13.15625 3.34375 C 13.359375 3.3125 13.527344 3.160156 13.578125 2.960938 L 14.082031 1.128906 C 14.703125 1.085938 15.332031 1.085938 15.953125 1.128906 Z M 15.015625 6.566406 C 10.621094 6.566406 7.050781 10.136719 7.050781 14.535156 C 7.050781 18.929688 10.621094 22.5 15.015625 22.5 C 19.414062 22.5 22.984375 18.929688 22.984375 14.535156 C 22.984375 10.136719 19.414062 6.566406 15.015625 6.566406 Z M 15.015625 7.628906 C 18.828125 7.628906 21.921875 10.722656 21.921875 14.535156 C 21.921875 18.34375 18.828125 21.4375 15.015625 21.4375 C 11.207031 21.4375 8.113281 18.34375 8.113281 14.535156 C 8.113281 10.722656 11.207031 7.628906 15.015625 7.628906 Z M 15.015625 7.628906 " fill-opacity="1" fill-rule="evenodd"/></g></svg>