<svg xmlns="http://www.w3.org/2000/svg" xmlns:xlink="http://www.w3.org/1999/xlink" width="40" zoomAndPan="magnify" viewBox="0 0 30 30.000001" height="40" preserveAspectRatio="xMidYMid meet" version="1.0"><defs><clipPath id="d17a1e1e0a"><path d="M 0.484375 0 L 29.515625 0 L 29.515625 29.03125 L 0.484375 29.03125 Z M 0.484375 0 " clip-rule="nonzero"/></clipPath><clipPath id="a60bd186f1"><path d="M 5.566406 2.902344 L 24.4375 2.902344 L 24.4375 10.886719 L 5.566406 10.886719 Z M 5.566406 2.902344 " clip-rule="nonzero"/></clipPath><clipPath id="1fab81d690"><path d="M 6 3 L 14 3 L 14 10.886719 L 6 10.886719 Z M 6 3 " clip-rule="nonzero"/></clipPath><clipPath id="ac52ff94e2"><path d="M 5.566406 19.097656 L 24.4375 19.097656 L 24.4375 27 L 5.566406 27 Z M 5.566406 19.097656 " clip-rule="nonzero"/></clipPath><clipPath id="71e71340e1"><path d="M 7 19.097656 L 24.4375 19.097656 L 24.4375 27 L 7 27 Z M 7 19.097656 " clip-rule="nonzero"/></clipPath><clipPath id="f94cd20809"><path d="M 16 19.097656 L 24 19.097656 L 24 27 L 16 27 Z M 16 19.097656 " clip-rule="nonzero"/></clipPath><clipPath id="01ecded294"><path d="M 16 19.097656 L 20 19.097656 L 20 27 L 16 27 Z M 16 19.097656 " clip-rule="nonzero"/></clipPath><clipPath id="18474d1eda"><path d="M 14 11.464844 L 16 11.464844 L 16 13 L 14 13 Z M 14 11.464844 " clip-rule="nonzero"/></clipPath><clipPath id="c8e8d73d3b"><path d="M 13 11.464844 L 14 11.464844 L 14 13 L 13 13 Z M 13 11.464844 " clip-rule="nonzero"/></clipPath><clipPath id="4ef12ead6a"><path d="M 11.585938 14 L 13 14 L 13 15 L 11.585938 15 Z M 11.585938 14 " clip-rule="nonzero"/></clipPath><clipPath id="4bdfeefeca"><path d="M 13 16 L 14 16 L 14 17.996094 L 13 17.996094 Z M 13 16 " clip-rule="nonzero"/></clipPath><clipPath id="45b97f6019"><path d="M 14 17 L 16 17 L 16 17.996094 L 14 17.996094 Z M 14 17 " clip-rule="nonzero"/></clipPath><clipPath id="25216bc2ed"><path d="M 16 16 L 17 16 L 17 17.996094 L 16 17.996094 Z M 16 16 " clip-rule="nonzero"/></clipPath><clipPath id="8ac260bd0b"><path d="M 17 14 L 18.117188 14 L 18.117188 15 L 17 15 Z M 17 14 " clip-rule="nonzero"/></clipPath><clipPath id="53818a2701"><path d="M 16 11.464844 L 17 11.464844 L 17 13 L 16 13 Z M 16 11.464844 " clip-rule="nonzero"/></clipPath></defs><g clip-path="url(#d17a1e1e0a)"><path fill="#ffffff" d="M 0.484375 0 L 29.515625 0 L 29.515625 29.03125 L 0.484375 29.03125 Z M 0.484375 0 " fill-opacity="1" fill-rule="nonzero"/><path fill="#ffffff" d="M 0.484375 0 L 29.515625 0 L 29.515625 29.03125 L 0.484375 29.03125 Z M 0.484375 0 " fill-opacity="1" fill-rule="nonzero"/></g><g clip-path="url(#a60bd186f1)"><path fill="#935f3d" d="M 20.550781 10.65625 L 9.433594 10.65625 C 7.296875 10.65625 5.5625 8.921875 5.5625 6.785156 C 5.5625 4.648438 7.296875 2.914062 9.433594 2.914062 L 20.550781 2.914062 C 22.691406 2.914062 24.421875 4.648438 24.421875 6.785156 C 24.421875 8.921875 22.691406 10.65625 20.550781 10.65625 Z M 20.550781 10.65625 " fill-opacity="1" fill-rule="nonzero"/></g><g clip-path="url(#1fab81d690)"><path fill="#ffffff" d="M 13.019531 6.785156 C 13.019531 7.238281 12.933594 7.679688 12.761719 8.097656 C 12.585938 8.519531 12.335938 8.890625 12.015625 9.214844 C 11.691406 9.535156 11.320312 9.785156 10.902344 9.957031 C 10.480469 10.132812 10.042969 10.21875 9.585938 10.21875 C 9.128906 10.21875 8.691406 10.132812 8.273438 9.957031 C 7.851562 9.785156 7.480469 9.535156 7.15625 9.214844 C 6.835938 8.890625 6.585938 8.519531 6.414062 8.097656 C 6.238281 7.679688 6.152344 7.238281 6.152344 6.785156 C 6.152344 6.328125 6.238281 5.890625 6.414062 5.46875 C 6.585938 5.050781 6.835938 4.675781 7.15625 4.355469 C 7.480469 4.035156 7.851562 3.785156 8.273438 3.609375 C 8.691406 3.4375 9.128906 3.347656 9.585938 3.347656 C 10.042969 3.347656 10.480469 3.4375 10.902344 3.609375 C 11.320312 3.785156 11.691406 4.035156 12.015625 4.355469 C 12.335938 4.675781 12.585938 5.050781 12.761719 5.46875 C 12.933594 5.890625 13.019531 6.328125 13.019531 6.785156 Z M 13.019531 6.785156 " fill-opacity="1" fill-rule="nonzero"/></g><path fill="#f2f2f2" d="M 14.855469 5.859375 L 15.535156 5.859375 C 16.109375 5.859375 16.457031 6.214844 16.457031 6.8125 C 16.457031 7.460938 16.113281 7.855469 15.515625 7.855469 L 14.855469 7.855469 Z M 15.210938 7.574219 L 15.507812 7.574219 C 15.894531 7.574219 16.09375 7.292969 16.09375 6.820312 C 16.09375 6.410156 15.890625 6.144531 15.511719 6.144531 L 15.210938 6.144531 Z M 15.210938 7.574219 " fill-opacity="1" fill-rule="nonzero"/><path fill="#f2f2f2" d="M 17.097656 7.335938 L 16.941406 7.855469 L 16.59375 7.855469 C 16.65625 7.660156 17.144531 6.078125 17.214844 5.859375 L 17.667969 5.859375 L 18.324219 7.855469 L 17.953125 7.855469 L 17.78125 7.335938 Z M 17.710938 7.039062 C 17.570312 6.597656 17.476562 6.308594 17.433594 6.132812 L 17.429688 6.132812 C 17.378906 6.359375 17.285156 6.667969 17.167969 7.039062 Z M 17.710938 7.039062 " fill-opacity="1" fill-rule="nonzero"/><path fill="#f2f2f2" d="M 18.929688 7 L 18.929688 7.855469 L 18.585938 7.855469 L 18.585938 5.859375 L 19.359375 5.859375 C 19.730469 5.859375 19.992188 6.042969 19.992188 6.390625 C 19.992188 6.667969 19.835938 6.796875 19.675781 6.855469 C 19.875 6.929688 19.953125 7.089844 19.953125 7.34375 L 19.953125 7.390625 C 19.953125 7.570312 19.960938 7.742188 19.980469 7.855469 L 19.636719 7.855469 C 19.609375 7.773438 19.601562 7.621094 19.601562 7.386719 L 19.601562 7.339844 C 19.601562 7.09375 19.511719 7 19.230469 7 Z M 18.929688 6.71875 L 19.257812 6.71875 C 19.472656 6.71875 19.640625 6.660156 19.640625 6.417969 C 19.640625 6.222656 19.503906 6.140625 19.3125 6.140625 L 18.929688 6.140625 Z M 18.929688 6.71875 " fill-opacity="1" fill-rule="nonzero"/><path fill="#f2f2f2" d="M 20.363281 5.859375 L 20.710938 5.859375 L 20.710938 6.808594 C 20.925781 6.542969 21.261719 6.136719 21.484375 5.859375 L 21.90625 5.859375 L 21.203125 6.671875 L 21.949219 7.855469 L 21.527344 7.855469 L 20.960938 6.902344 L 20.710938 7.171875 L 20.710938 7.855469 L 20.363281 7.855469 Z M 20.363281 5.859375 " fill-opacity="1" fill-rule="nonzero"/><path fill="#935f3d" d="M 8.28125 7.019531 C 8.035156 6.375 8.171875 5.679688 8.578125 5.183594 C 8.507812 5.199219 8.441406 5.21875 8.375 5.246094 C 7.535156 5.566406 7.117188 6.503906 7.4375 7.34375 C 7.757812 8.179688 8.695312 8.601562 9.535156 8.28125 C 9.601562 8.253906 9.667969 8.222656 9.726562 8.191406 C 9.09375 8.089844 8.527344 7.664062 8.28125 7.019531 Z M 8.28125 7.019531 " fill-opacity="1" fill-rule="nonzero"/><path fill="#935f3d" d="M 10.390625 6.03125 L 10.824219 6.167969 L 10.390625 6.308594 L 10.25 6.742188 L 10.113281 6.308594 L 9.679688 6.167969 L 10.113281 6.03125 L 10.25 5.597656 Z M 10.390625 6.03125 " fill-opacity="1" fill-rule="nonzero"/><path fill="#935f3d" d="M 11.554688 6.457031 L 11.84375 6.550781 L 11.554688 6.640625 L 11.464844 6.929688 L 11.375 6.640625 L 11.085938 6.550781 L 11.375 6.457031 L 11.464844 6.167969 Z M 11.554688 6.457031 " fill-opacity="1" fill-rule="nonzero"/><path fill="#935f3d" d="M 10.886719 7.007812 L 11.089844 7.070312 L 10.886719 7.136719 L 10.824219 7.339844 L 10.757812 7.136719 L 10.554688 7.070312 L 10.757812 7.007812 L 10.824219 6.804688 Z M 10.886719 7.007812 " fill-opacity="1" fill-rule="nonzero"/><g clip-path="url(#ac52ff94e2)"><path fill="#f2f2f2" d="M 20.398438 26.75 L 9.410156 26.75 C 7.296875 26.75 5.585938 25.035156 5.585938 22.921875 C 5.585938 20.8125 7.296875 19.097656 9.410156 19.097656 L 20.398438 19.097656 C 22.507812 19.097656 24.222656 20.8125 24.222656 22.921875 C 24.222656 25.035156 22.507812 26.75 20.398438 26.75 Z M 20.398438 26.75 " fill-opacity="1" fill-rule="nonzero"/></g><g clip-path="url(#71e71340e1)"><path fill="#e6e6e6" d="M 20.457031 19.097656 L 20.347656 19.097656 C 22.460938 19.097656 24.171875 20.808594 24.171875 22.921875 C 24.171875 25.035156 22.460938 26.746094 20.347656 26.746094 L 9.363281 26.746094 C 8.863281 26.746094 8.390625 26.636719 7.957031 26.460938 C 8.457031 26.703125 9.015625 26.851562 9.609375 26.851562 L 20.457031 26.851562 C 22.578125 26.851562 24.300781 25.132812 24.300781 23.011719 L 24.300781 22.9375 C 24.300781 20.816406 22.578125 19.097656 20.457031 19.097656 Z M 20.457031 19.097656 " fill-opacity="1" fill-rule="nonzero"/></g><g clip-path="url(#f94cd20809)"><path fill="#ffffff" d="M 23.71875 22.921875 C 23.71875 23.375 23.632812 23.808594 23.460938 24.222656 C 23.289062 24.636719 23.042969 25.003906 22.726562 25.324219 C 22.40625 25.640625 22.039062 25.886719 21.625 26.058594 C 21.207031 26.230469 20.773438 26.316406 20.324219 26.316406 C 19.875 26.316406 19.441406 26.230469 19.027344 26.058594 C 18.609375 25.886719 18.242188 25.640625 17.925781 25.324219 C 17.605469 25.003906 17.359375 24.636719 17.1875 24.222656 C 17.015625 23.808594 16.929688 23.375 16.929688 22.921875 C 16.929688 22.472656 17.015625 22.039062 17.1875 21.625 C 17.359375 21.207031 17.605469 20.839844 17.925781 20.523438 C 18.242188 20.203125 18.609375 19.960938 19.027344 19.789062 C 19.441406 19.613281 19.875 19.527344 20.324219 19.527344 C 20.773438 19.527344 21.207031 19.613281 21.625 19.789062 C 22.039062 19.960938 22.40625 20.203125 22.726562 20.523438 C 23.042969 20.839844 23.289062 21.207031 23.460938 21.625 C 23.632812 22.039062 23.71875 22.472656 23.71875 22.921875 Z M 23.71875 22.921875 " fill-opacity="1" fill-rule="nonzero"/></g><g clip-path="url(#01ecded294)"><path fill="#e6e6e6" d="M 16.929688 22.921875 C 16.929688 21.472656 17.839844 20.234375 19.121094 19.75 C 17.773438 20.171875 16.796875 21.433594 16.796875 22.921875 C 16.796875 24.410156 17.773438 25.671875 19.121094 26.097656 C 17.839844 25.613281 16.929688 24.375 16.929688 22.921875 Z M 16.929688 22.921875 " fill-opacity="1" fill-rule="nonzero"/></g><path fill="#935f3d" d="M 8.285156 21.988281 L 8.632812 21.988281 L 8.632812 23.671875 L 9.535156 23.671875 L 9.496094 23.960938 L 8.285156 23.960938 Z M 8.285156 21.988281 " fill-opacity="1" fill-rule="nonzero"/><path fill="#935f3d" d="M 9.800781 21.988281 L 10.148438 21.988281 L 10.148438 23.960938 L 9.800781 23.960938 Z M 9.800781 21.988281 " fill-opacity="1" fill-rule="nonzero"/><path fill="#935f3d" d="M 12.140625 23.960938 L 11.882812 23.960938 C 11.871094 23.898438 11.859375 23.808594 11.855469 23.710938 C 11.753906 23.917969 11.558594 23.988281 11.296875 23.988281 C 10.78125 23.988281 10.519531 23.554688 10.519531 22.984375 C 10.519531 22.417969 10.832031 21.960938 11.402344 21.960938 C 11.855469 21.960938 12.09375 22.210938 12.148438 22.546875 L 11.804688 22.546875 C 11.761719 22.390625 11.660156 22.246094 11.382812 22.246094 C 11.019531 22.246094 10.878906 22.582031 10.878906 22.988281 C 10.878906 23.378906 11.019531 23.707031 11.371094 23.707031 C 11.710938 23.707031 11.796875 23.472656 11.796875 23.179688 L 11.796875 23.171875 L 11.351562 23.171875 L 11.351562 22.871094 L 12.144531 22.871094 C 12.140625 23.449219 12.140625 23.910156 12.140625 23.960938 Z M 12.140625 23.960938 " fill-opacity="1" fill-rule="nonzero"/><path fill="#935f3d" d="M 12.554688 21.988281 L 12.902344 21.988281 L 12.902344 22.785156 L 13.691406 22.785156 L 13.691406 21.988281 L 14.042969 21.988281 L 14.042969 23.960938 L 13.691406 23.960938 L 13.691406 23.074219 L 12.902344 23.074219 L 12.902344 23.960938 L 12.554688 23.960938 Z M 12.554688 21.988281 " fill-opacity="1" fill-rule="nonzero"/><path fill="#935f3d" d="M 14.859375 22.277344 L 14.308594 22.277344 L 14.308594 21.988281 L 15.761719 21.988281 L 15.761719 22.277344 L 15.210938 22.277344 L 15.210938 23.960938 L 14.859375 23.960938 Z M 14.859375 22.277344 " fill-opacity="1" fill-rule="nonzero"/><path fill="#935f3d" d="M 21.390625 22.980469 C 21.390625 23.121094 21.363281 23.257812 21.308594 23.386719 C 21.253906 23.519531 21.175781 23.632812 21.078125 23.734375 C 20.976562 23.832031 20.863281 23.910156 20.734375 23.964844 C 20.601562 24.019531 20.46875 24.046875 20.324219 24.046875 C 20.183594 24.046875 20.050781 24.019531 19.917969 23.964844 C 19.789062 23.910156 19.671875 23.832031 19.574219 23.734375 C 19.472656 23.632812 19.398438 23.519531 19.34375 23.386719 C 19.289062 23.257812 19.261719 23.121094 19.261719 22.980469 C 19.261719 22.839844 19.289062 22.703125 19.34375 22.574219 C 19.398438 22.445312 19.472656 22.328125 19.574219 22.230469 C 19.671875 22.128906 19.789062 22.054688 19.917969 22 C 20.050781 21.945312 20.183594 21.917969 20.324219 21.917969 C 20.46875 21.917969 20.601562 21.945312 20.734375 22 C 20.863281 22.054688 20.976562 22.128906 21.078125 22.230469 C 21.175781 22.328125 21.253906 22.445312 21.308594 22.574219 C 21.363281 22.703125 21.390625 22.839844 21.390625 22.980469 Z M 21.390625 22.980469 " fill-opacity="1" fill-rule="nonzero"/><path fill="#935f3d" d="M 20.257812 20.65625 L 20.394531 20.65625 L 20.394531 21.472656 L 20.257812 21.472656 Z M 20.257812 20.65625 " fill-opacity="1" fill-rule="nonzero"/><path fill="#935f3d" d="M 18.777344 21.242188 L 18.878906 21.15625 L 19.40625 21.785156 L 19.304688 21.871094 Z M 18.777344 21.242188 " fill-opacity="1" fill-rule="nonzero"/><path fill="#935f3d" d="M 18.023438 22.644531 L 18.046875 22.511719 L 18.851562 22.652344 L 18.828125 22.785156 Z M 18.023438 22.644531 " fill-opacity="1" fill-rule="nonzero"/><path fill="#935f3d" d="M 18.277344 24.089844 L 18.984375 23.679688 L 19.054688 23.796875 L 18.34375 24.207031 Z M 18.277344 24.089844 " fill-opacity="1" fill-rule="nonzero"/><path fill="#935f3d" d="M 19.46875 25.148438 L 19.75 24.378906 L 19.875 24.421875 L 19.597656 25.191406 Z M 19.46875 25.148438 " fill-opacity="1" fill-rule="nonzero"/><path fill="#935f3d" d="M 20.78125 24.421875 L 20.910156 24.375 L 21.191406 25.140625 L 21.0625 25.1875 Z M 20.78125 24.421875 " fill-opacity="1" fill-rule="nonzero"/><path fill="#935f3d" d="M 21.601562 23.789062 L 21.667969 23.675781 L 22.378906 24.082031 L 22.3125 24.199219 Z M 21.601562 23.789062 " fill-opacity="1" fill-rule="nonzero"/><path fill="#935f3d" d="M 21.800781 22.648438 L 22.605469 22.503906 L 22.628906 22.636719 L 21.824219 22.78125 Z M 21.800781 22.648438 " fill-opacity="1" fill-rule="nonzero"/><path fill="#935f3d" d="M 21.238281 21.78125 L 21.765625 21.152344 L 21.867188 21.238281 L 21.34375 21.863281 Z M 21.238281 21.78125 " fill-opacity="1" fill-rule="nonzero"/><path fill="#935f3d" d="M 15 12.980469 C 14.746094 12.980469 14.503906 13.027344 14.273438 13.125 C 14.039062 13.21875 13.835938 13.359375 13.65625 13.535156 C 13.480469 13.714844 13.339844 13.917969 13.246094 14.152344 C 13.148438 14.382812 13.101562 14.625 13.101562 14.878906 C 13.101562 15.128906 13.148438 15.371094 13.246094 15.605469 C 13.339844 15.835938 13.480469 16.042969 13.65625 16.222656 C 13.835938 16.398438 14.039062 16.535156 14.273438 16.632812 C 14.503906 16.730469 14.746094 16.777344 15 16.777344 C 15.25 16.777344 15.492188 16.730469 15.726562 16.632812 C 15.957031 16.535156 16.164062 16.398438 16.34375 16.222656 C 16.519531 16.042969 16.65625 15.835938 16.753906 15.605469 C 16.851562 15.371094 16.898438 15.128906 16.898438 14.878906 C 16.898438 14.625 16.851562 14.382812 16.753906 14.152344 C 16.65625 13.917969 16.519531 13.714844 16.34375 13.535156 C 16.164062 13.359375 15.957031 13.21875 15.726562 13.125 C 15.492188 13.027344 15.25 12.980469 15 12.980469 Z M 15 16.507812 L 15 13.25 C 15.214844 13.25 15.421875 13.292969 15.621094 13.375 C 15.820312 13.457031 15.996094 13.574219 16.148438 13.726562 C 16.304688 13.878906 16.421875 14.054688 16.503906 14.253906 C 16.585938 14.453125 16.628906 14.664062 16.628906 14.878906 C 16.628906 15.09375 16.585938 15.300781 16.503906 15.5 C 16.421875 15.699219 16.304688 15.875 16.148438 16.03125 C 15.996094 16.183594 15.820312 16.300781 15.621094 16.382812 C 15.421875 16.464844 15.214844 16.507812 15 16.507812 Z M 15 16.507812 " fill-opacity="1" fill-rule="nonzero"/><g clip-path="url(#18474d1eda)"><path stroke-linecap="round" transform="matrix(0.0904254, 0, 0, 0.0904254, 11.585828, 11.464866)" fill="none" stroke-linejoin="round" d="M 37.756788 10.756204 L 37.756788 0.734129 " stroke="#000000" stroke-width="1.5" stroke-opacity="1" stroke-miterlimit="4"/></g><g clip-path="url(#c8e8d73d3b)"><path stroke-linecap="round" transform="matrix(0.0904254, 0, 0, 0.0904254, 11.585828, 11.464866)" fill="none" stroke-linejoin="round" d="M 24.235626 14.384887 L 19.267787 5.701968 " stroke="#000000" stroke-width="1.5" stroke-opacity="1" stroke-miterlimit="4"/></g><path stroke-linecap="round" transform="matrix(0.0904254, 0, 0, 0.0904254, 11.585828, 11.464866)" fill="none" stroke-linejoin="round" d="M 14.386345 24.234167 L 5.703427 19.266328 " stroke="#000000" stroke-width="1.5" stroke-opacity="1" stroke-miterlimit="4"/><g clip-path="url(#4ef12ead6a)"><path stroke-linecap="round" transform="matrix(0.0904254, 0, 0, 0.0904254, 11.585828, 11.464866)" fill="none" stroke-linejoin="round" d="M 10.757663 37.755329 L 0.735588 37.755329 " stroke="#000000" stroke-width="1.5" stroke-opacity="1" stroke-miterlimit="4"/></g><path stroke-linecap="round" transform="matrix(0.0904254, 0, 0, 0.0904254, 11.585828, 11.464866)" fill="none" stroke-linejoin="round" d="M 14.386345 51.233292 L 5.703427 56.24433 " stroke="#000000" stroke-width="1.5" stroke-opacity="1" stroke-miterlimit="4"/><g clip-path="url(#4bdfeefeca)"><path stroke-linecap="round" transform="matrix(0.0904254, 0, 0, 0.0904254, 11.585828, 11.464866)" fill="none" stroke-linejoin="round" d="M 24.235626 61.125772 L 19.267787 69.80869 " stroke="#000000" stroke-width="1.5" stroke-opacity="1" stroke-miterlimit="4"/></g><g clip-path="url(#45b97f6019)"><path stroke-linecap="round" transform="matrix(0.0904254, 0, 0, 0.0904254, 11.585828, 11.464866)" fill="none" stroke-linejoin="round" d="M 37.756788 64.754454 L 37.756788 74.733331 " stroke="#000000" stroke-width="1.5" stroke-opacity="1" stroke-miterlimit="4"/></g><g clip-path="url(#25216bc2ed)"><path stroke-linecap="round" transform="matrix(0.0904254, 0, 0, 0.0904254, 11.585828, 11.464866)" fill="none" stroke-linejoin="round" d="M 51.234751 61.125772 L 56.245789 69.80869 " stroke="#000000" stroke-width="1.5" stroke-opacity="1" stroke-miterlimit="4"/></g><path stroke-linecap="round" transform="matrix(0.0904254, 0, 0, 0.0904254, 11.585828, 11.464866)" fill="none" stroke-linejoin="round" d="M 61.12723 51.233292 L 69.810149 56.24433 " stroke="#000000" stroke-width="1.5" stroke-opacity="1" stroke-miterlimit="4"/><g clip-path="url(#8ac260bd0b)"><path stroke-linecap="round" transform="matrix(0.0904254, 0, 0, 0.0904254, 11.585828, 11.464866)" fill="none" stroke-linejoin="round" d="M 64.755913 37.755329 L 74.734789 37.755329 " stroke="#000000" stroke-width="1.5" stroke-opacity="1" stroke-miterlimit="4"/></g><path stroke-linecap="round" transform="matrix(0.0904254, 0, 0, 0.0904254, 11.585828, 11.464866)" fill="none" stroke-linejoin="round" d="M 61.12723 24.234167 L 69.810149 19.266328 " stroke="#000000" stroke-width="1.5" stroke-opacity="1" stroke-miterlimit="4"/><g clip-path="url(#53818a2701)"><path stroke-linecap="round" transform="matrix(0.0904254, 0, 0, 0.0904254, 11.585828, 11.464866)" fill="none" stroke-linejoin="round" d="M 51.234751 14.384887 L 56.245789 5.701968 " stroke="#000000" stroke-width="1.5" stroke-opacity="1" stroke-miterlimit="4"/></g></svg>