<svg xmlns="http://www.w3.org/2000/svg" xmlns:xlink="http://www.w3.org/1999/xlink" width="40" zoomAndPan="magnify" viewBox="0 0 30 30.000001" height="40" preserveAspectRatio="xMidYMid meet" version="1.0"><defs><clipPath id="5e4a65e672"><path d="M 0.484375 0 L 29.515625 0 L 29.515625 29.03125 L 0.484375 29.03125 Z M 0.484375 0 " clip-rule="nonzero"/></clipPath><clipPath id="df991bcb4a"><path d="M 0.484375 2.414062 L 29.515625 2.414062 L 29.515625 26.363281 L 0.484375 26.363281 Z M 0.484375 2.414062 " clip-rule="nonzero"/></clipPath></defs><g clip-path="url(#5e4a65e672)"><path fill="#ffffff" d="M 0.484375 0 L 29.515625 0 L 29.515625 29.03125 L 0.484375 29.03125 Z M 0.484375 0 " fill-opacity="1" fill-rule="nonzero"/><path fill="#ffffff" d="M 0.484375 0 L 29.515625 0 L 29.515625 29.03125 L 0.484375 29.03125 Z M 0.484375 0 " fill-opacity="1" fill-rule="nonzero"/></g><g clip-path="url(#df991bcb4a)"><path fill="#925f3d" d="M 1.453125 9.675781 C 1.453125 8.875 2.101562 8.222656 2.902344 8.222656 L 19.355469 8.222656 C 20.15625 8.222656 20.804688 8.875 20.804688 9.675781 L 20.804688 21.289062 C 20.804688 22.089844 20.15625 22.738281 19.355469 22.738281 L 10.058594 22.738281 C 9.964844 22.738281 9.871094 22.769531 9.789062 22.820312 L 5.628906 25.597656 C 5.507812 25.671875 5.390625 25.636719 5.347656 25.613281 C 5.304688 25.59375 5.203125 25.53125 5.1875 25.386719 L 4.953125 23.171875 C 4.925781 22.925781 4.71875 22.738281 4.472656 22.738281 L 2.902344 22.738281 C 2.101562 22.738281 1.453125 22.089844 1.453125 21.289062 Z M 9.195312 4.835938 C 9.195312 4.035156 9.84375 3.386719 10.644531 3.386719 L 27.097656 3.386719 C 27.898438 3.386719 28.546875 4.035156 28.546875 4.835938 L 28.546875 16.449219 C 28.546875 17.25 27.898438 17.902344 27.097656 17.902344 L 25.527344 17.902344 C 25.28125 17.902344 25.074219 18.089844 25.046875 18.332031 L 24.8125 20.546875 C 24.796875 20.691406 24.695312 20.753906 24.652344 20.777344 C 24.609375 20.796875 24.492188 20.835938 24.378906 20.761719 L 21.773438 19.027344 L 21.773438 9.675781 C 21.773438 8.339844 20.6875 7.253906 19.355469 7.253906 L 9.195312 7.253906 Z M 2.902344 23.707031 L 4.039062 23.707031 L 4.222656 25.492188 C 4.273438 25.929688 4.539062 26.296875 4.933594 26.488281 C 5.105469 26.570312 5.289062 26.609375 5.472656 26.609375 C 5.710938 26.609375 5.945312 26.542969 6.15625 26.40625 L 10.207031 23.707031 L 19.355469 23.707031 C 20.6875 23.707031 21.773438 22.621094 21.773438 21.289062 L 21.773438 20.191406 L 23.847656 21.570312 C 24.054688 21.703125 24.289062 21.773438 24.523438 21.773438 C 24.710938 21.773438 24.894531 21.730469 25.066406 21.648438 C 25.460938 21.460938 25.726562 21.089844 25.777344 20.652344 L 25.960938 18.867188 L 27.097656 18.867188 C 28.429688 18.867188 29.515625 17.785156 29.515625 16.449219 L 29.515625 4.835938 C 29.515625 3.503906 28.429688 2.417969 27.097656 2.417969 L 10.644531 2.417969 C 9.3125 2.417969 8.226562 3.503906 8.226562 4.835938 L 8.226562 7.253906 L 2.902344 7.253906 C 1.570312 7.253906 0.484375 8.339844 0.484375 9.675781 L 0.484375 21.289062 C 0.484375 22.621094 1.570312 23.707031 2.902344 23.707031 " fill-opacity="1" fill-rule="nonzero"/></g><path fill="#925f3d" d="M 7.742188 17.417969 C 7.476562 17.417969 7.257812 17.632812 7.257812 17.902344 C 7.257812 18.167969 7.476562 18.386719 7.742188 18.386719 L 9.675781 18.386719 C 9.945312 18.386719 10.160156 18.167969 10.160156 17.902344 C 10.160156 17.632812 9.945312 17.417969 9.675781 17.417969 L 9.195312 17.417969 L 9.195312 13.546875 L 9.675781 13.546875 C 9.945312 13.546875 10.160156 13.328125 10.160156 13.0625 C 10.160156 12.796875 9.945312 12.578125 9.675781 12.578125 L 7.742188 12.578125 C 7.476562 12.578125 7.257812 12.796875 7.257812 13.0625 C 7.257812 13.328125 7.476562 13.546875 7.742188 13.546875 L 8.226562 13.546875 L 8.226562 17.417969 L 7.742188 17.417969 " fill-opacity="1" fill-rule="nonzero"/><path fill="#925f3d" d="M 3.871094 18.386719 L 5.804688 18.386719 C 6.074219 18.386719 6.289062 18.167969 6.289062 17.902344 C 6.289062 17.632812 6.074219 17.417969 5.804688 17.417969 L 4.355469 17.417969 L 4.355469 13.0625 C 4.355469 12.796875 4.136719 12.578125 3.871094 12.578125 C 3.605469 12.578125 3.386719 12.796875 3.386719 13.0625 L 3.386719 17.902344 C 3.386719 18.167969 3.605469 18.386719 3.871094 18.386719 " fill-opacity="1" fill-rule="nonzero"/><path fill="#925f3d" d="M 16.453125 18.386719 L 18.386719 18.386719 C 18.652344 18.386719 18.871094 18.167969 18.871094 17.902344 C 18.871094 17.632812 18.652344 17.417969 18.386719 17.417969 L 16.933594 17.417969 L 16.933594 15.964844 L 17.417969 15.964844 C 17.6875 15.964844 17.902344 15.75 17.902344 15.480469 C 17.902344 15.214844 17.6875 14.996094 17.417969 14.996094 L 16.933594 14.996094 L 16.933594 13.546875 L 18.386719 13.546875 C 18.652344 13.546875 18.871094 13.328125 18.871094 13.0625 C 18.871094 12.796875 18.652344 12.578125 18.386719 12.578125 L 16.453125 12.578125 C 16.183594 12.578125 15.96875 12.796875 15.96875 13.0625 L 15.96875 17.902344 C 15.96875 18.167969 16.183594 18.386719 16.453125 18.386719 " fill-opacity="1" fill-rule="nonzero"/><path fill="#925f3d" d="M 12.601562 18.039062 C 12.660156 18.246094 12.851562 18.386719 13.066406 18.386719 C 13.277344 18.386719 13.46875 18.246094 13.527344 18.039062 L 14.980469 13.199219 C 15.058594 12.945312 14.910156 12.675781 14.652344 12.597656 C 14.398438 12.523438 14.128906 12.667969 14.054688 12.925781 L 13.066406 16.21875 L 12.074219 12.925781 C 12 12.667969 11.730469 12.523438 11.476562 12.597656 C 11.21875 12.675781 11.074219 12.945312 11.148438 13.199219 L 12.601562 18.039062 " fill-opacity="1" fill-rule="nonzero"/></svg>