<svg xmlns="http://www.w3.org/2000/svg" xmlns:xlink="http://www.w3.org/1999/xlink" width="40" zoomAndPan="magnify" viewBox="0 0 30 30.000001" height="40" preserveAspectRatio="xMidYMid meet" version="1.0"><defs><clipPath id="eaaa6672e9"><path d="M 0.484375 0 L 29.515625 0 L 29.515625 29.03125 L 0.484375 29.03125 Z M 0.484375 0 " clip-rule="nonzero"/></clipPath><clipPath id="dd16acf54d"><path d="M 0.484375 0.742188 L 29.515625 0.742188 L 29.515625 28.324219 L 0.484375 28.324219 Z M 0.484375 0.742188 " clip-rule="nonzero"/></clipPath></defs><g clip-path="url(#eaaa6672e9)"><path fill="#ffffff" d="M 0.484375 0 L 29.515625 0 L 29.515625 29.03125 L 0.484375 29.03125 Z M 0.484375 0 " fill-opacity="1" fill-rule="nonzero"/><path fill="#ffffff" d="M 0.484375 0 L 29.515625 0 L 29.515625 29.03125 L 0.484375 29.03125 Z M 0.484375 0 " fill-opacity="1" fill-rule="nonzero"/></g><g clip-path="url(#dd16acf54d)"><path fill="#925f3d" d="M 10.753906 9.207031 L 7.136719 9.207031 C 6.789062 9.207031 6.503906 9.492188 6.503906 9.839844 L 6.503906 13.464844 C 6.503906 13.8125 6.789062 14.09375 7.136719 14.09375 L 10.753906 14.09375 C 11.101562 14.09375 11.386719 13.8125 11.386719 13.464844 L 11.386719 9.839844 C 11.386719 9.492188 11.101562 9.207031 10.753906 9.207031 Z M 10.667969 13.378906 L 7.222656 13.378906 L 7.222656 9.925781 L 10.667969 9.925781 Z M 7.867188 12.03125 C 7.726562 11.890625 7.726562 11.664062 7.867188 11.523438 C 8.007812 11.382812 8.234375 11.382812 8.375 11.523438 L 8.589844 11.734375 L 9.515625 10.804688 C 9.65625 10.664062 9.882812 10.664062 10.023438 10.804688 C 10.164062 10.945312 10.164062 11.171875 10.023438 11.3125 L 8.84375 12.496094 C 8.773438 12.566406 8.683594 12.601562 8.589844 12.601562 C 8.492188 12.601562 8.402344 12.566406 8.335938 12.496094 Z M 16.667969 25.292969 C 16.667969 25.492188 16.507812 25.652344 16.308594 25.652344 L 13.601562 25.652344 C 13.402344 25.652344 13.242188 25.492188 13.242188 25.292969 C 13.242188 25.097656 13.402344 24.9375 13.601562 24.9375 L 16.308594 24.9375 C 16.507812 24.9375 16.667969 25.097656 16.667969 25.292969 Z M 17.90625 23.152344 C 17.90625 23.351562 17.746094 23.511719 17.546875 23.511719 L 13.601562 23.511719 C 13.402344 23.511719 13.242188 23.351562 13.242188 23.152344 C 13.242188 22.953125 13.402344 22.792969 13.601562 22.792969 L 17.546875 22.792969 C 17.746094 22.792969 17.90625 22.953125 17.90625 23.152344 Z M 10.753906 15.292969 L 7.136719 15.292969 C 6.789062 15.292969 6.503906 15.578125 6.503906 15.925781 L 6.503906 19.546875 C 6.503906 19.898438 6.789062 20.179688 7.136719 20.179688 L 10.753906 20.179688 C 11.101562 20.179688 11.386719 19.898438 11.386719 19.546875 L 11.386719 15.925781 C 11.386719 15.578125 11.101562 15.292969 10.753906 15.292969 Z M 10.667969 19.460938 L 7.222656 19.460938 L 7.222656 16.011719 L 10.667969 16.011719 Z M 13.242188 17.230469 C 13.242188 17.03125 13.402344 16.871094 13.601562 16.871094 L 18.589844 16.871094 C 18.785156 16.871094 18.949219 17.03125 18.949219 17.230469 C 18.949219 17.425781 18.785156 17.589844 18.589844 17.589844 L 13.601562 17.589844 C 13.402344 17.589844 13.242188 17.425781 13.242188 17.230469 Z M 10.753906 21.378906 L 7.136719 21.378906 C 6.789062 21.378906 6.503906 21.660156 6.503906 22.011719 L 6.503906 25.632812 C 6.503906 25.980469 6.789062 26.265625 7.136719 26.265625 L 10.753906 26.265625 C 11.101562 26.265625 11.386719 25.980469 11.386719 25.632812 L 11.386719 22.011719 C 11.386719 21.660156 11.101562 21.378906 10.753906 21.378906 Z M 10.667969 25.546875 L 7.222656 25.546875 L 7.222656 22.097656 L 10.667969 22.097656 Z M 13.242188 19.371094 C 13.242188 19.175781 13.402344 19.011719 13.601562 19.011719 L 16.308594 19.011719 C 16.507812 19.011719 16.667969 19.175781 16.667969 19.371094 C 16.667969 19.570312 16.507812 19.730469 16.308594 19.730469 L 13.601562 19.730469 C 13.402344 19.730469 13.242188 19.570312 13.242188 19.371094 Z M 13.242188 13.195312 C 13.242188 12.996094 13.402344 12.835938 13.601562 12.835938 L 19.984375 12.835938 C 20.179688 12.835938 20.34375 12.996094 20.34375 13.195312 C 20.34375 13.390625 20.179688 13.554688 19.984375 13.554688 L 13.601562 13.554688 C 13.402344 13.554688 13.242188 13.390625 13.242188 13.195312 Z M 13.242188 11.050781 C 13.242188 10.851562 13.402344 10.691406 13.601562 10.691406 L 19.984375 10.691406 C 20.179688 10.691406 20.34375 10.851562 20.34375 11.050781 C 20.34375 11.25 20.179688 11.410156 19.984375 11.410156 L 13.601562 11.410156 C 13.402344 11.410156 13.242188 11.25 13.242188 11.050781 Z M 28.902344 20.136719 L 23.902344 15.933594 C 23.761719 15.8125 23.597656 15.734375 23.425781 15.695312 L 23.425781 4.023438 C 23.425781 3.824219 23.265625 3.664062 23.066406 3.664062 L 20.507812 3.664062 L 20.507812 1.101562 C 20.507812 0.902344 20.347656 0.742188 20.148438 0.742188 L 0.859375 0.742188 C 0.664062 0.742188 0.503906 0.902344 0.503906 1.101562 L 0.503906 24.996094 C 0.503906 25.191406 0.664062 25.351562 0.859375 25.351562 L 3.421875 25.351562 L 3.421875 27.917969 C 3.421875 28.117188 3.582031 28.277344 3.78125 28.277344 L 26.6875 28.277344 C 27.242188 28.277344 27.695312 27.824219 27.695312 27.265625 L 27.695312 22.277344 C 27.824219 22.320312 27.957031 22.34375 28.097656 22.34375 C 28.132812 22.34375 28.171875 22.34375 28.207031 22.339844 C 28.542969 22.3125 28.84375 22.152344 29.058594 21.898438 C 29.5 21.371094 29.429688 20.578125 28.902344 20.136719 Z M 1.21875 24.636719 L 1.21875 1.460938 L 19.789062 1.460938 L 19.789062 3.664062 L 7.515625 3.664062 C 7.421875 3.664062 7.328125 3.699219 7.261719 3.769531 L 3.527344 7.511719 C 3.457031 7.578125 3.421875 7.671875 3.421875 7.765625 L 3.421875 24.636719 Z M 7.15625 4.890625 L 7.15625 7.402344 L 4.644531 7.402344 Z M 4.140625 8.121094 L 7.515625 8.121094 C 7.710938 8.121094 7.875 7.960938 7.875 7.761719 L 7.875 4.382812 L 22.707031 4.382812 L 22.707031 15.757812 C 22.625 15.796875 22.542969 15.84375 22.464844 15.902344 L 17.277344 19.867188 C 16.730469 20.285156 16.625 21.074219 17.042969 21.621094 C 17.246094 21.886719 17.539062 22.054688 17.871094 22.101562 C 18.066406 22.128906 18.261719 22.105469 18.441406 22.042969 L 18.441406 27.265625 C 18.441406 27.367188 18.457031 27.464844 18.484375 27.558594 L 4.140625 27.558594 Z M 23.871094 27.558594 L 22.261719 27.558594 L 22.261719 24.277344 L 23.871094 24.277344 Z M 26.6875 27.558594 L 24.589844 27.558594 L 24.589844 23.917969 C 24.589844 23.71875 24.429688 23.558594 24.230469 23.558594 L 21.90625 23.558594 C 21.707031 23.558594 21.546875 23.71875 21.546875 23.917969 L 21.546875 27.558594 L 19.449219 27.558594 C 19.289062 27.558594 19.160156 27.425781 19.160156 27.265625 L 19.160156 21.578125 L 22.847656 18.757812 C 23.011719 18.628906 23.230469 18.636719 23.390625 18.769531 L 26.976562 21.785156 L 26.976562 27.265625 C 26.976562 27.425781 26.847656 27.558594 26.6875 27.558594 Z M 28.507812 21.4375 C 28.414062 21.546875 28.289062 21.613281 28.144531 21.625 C 28.003906 21.636719 27.867188 21.59375 27.757812 21.503906 L 23.851562 18.21875 C 23.636719 18.039062 23.375 17.949219 23.113281 17.949219 C 22.867188 17.949219 22.621094 18.027344 22.414062 18.1875 L 18.359375 21.285156 C 18.246094 21.371094 18.109375 21.40625 17.964844 21.390625 C 17.824219 21.371094 17.699219 21.296875 17.613281 21.1875 C 17.4375 20.953125 17.480469 20.617188 17.714844 20.4375 L 22.902344 16.472656 C 23.066406 16.347656 23.285156 16.351562 23.441406 16.484375 L 28.441406 20.6875 C 28.664062 20.875 28.695312 21.210938 28.507812 21.4375 Z M 7.867188 18.117188 C 7.726562 17.976562 7.726562 17.75 7.867188 17.609375 C 8.007812 17.46875 8.234375 17.46875 8.375 17.609375 L 8.589844 17.820312 L 9.515625 16.890625 C 9.65625 16.75 9.882812 16.75 10.023438 16.890625 C 10.164062 17.03125 10.164062 17.257812 10.023438 17.398438 L 8.84375 18.582031 C 8.773438 18.652344 8.683594 18.6875 8.589844 18.6875 C 8.492188 18.6875 8.402344 18.652344 8.332031 18.582031 Z M 7.867188 24.199219 C 7.726562 24.0625 7.726562 23.832031 7.867188 23.691406 C 8.007812 23.550781 8.234375 23.550781 8.375 23.691406 L 8.589844 23.90625 L 9.515625 22.976562 C 9.65625 22.835938 9.882812 22.835938 10.023438 22.976562 C 10.164062 23.117188 10.164062 23.34375 10.023438 23.484375 L 8.84375 24.667969 C 8.773438 24.734375 8.683594 24.773438 8.589844 24.773438 C 8.492188 24.773438 8.402344 24.734375 8.335938 24.667969 Z M 7.867188 24.199219 " fill-opacity="1" fill-rule="nonzero"/></g></svg>