<svg xmlns="http://www.w3.org/2000/svg" xmlns:xlink="http://www.w3.org/1999/xlink" width="40" zoomAndPan="magnify" viewBox="0 0 30 30.000001" height="40" preserveAspectRatio="xMidYMid meet" version="1.0"><defs><clipPath id="d0e52a306b"><path d="M 0.484375 0 L 29.515625 0 L 29.515625 29.03125 L 0.484375 29.03125 Z M 0.484375 0 " clip-rule="nonzero"/></clipPath><clipPath id="d945a86833"><path d="M 2 1.453125 L 27 1.453125 L 27 27.582031 L 2 27.582031 Z M 2 1.453125 " clip-rule="nonzero"/></clipPath><clipPath id="4e7e3d2a49"><path d="M 1.613281 1.453125 L 29.191406 1.453125 L 29.191406 27.582031 L 1.613281 27.582031 Z M 1.613281 1.453125 " clip-rule="nonzero"/></clipPath></defs><g clip-path="url(#d0e52a306b)"><path fill="#ffffff" d="M 0.484375 0 L 29.515625 0 L 29.515625 29.03125 L 0.484375 29.03125 Z M 0.484375 0 " fill-opacity="1" fill-rule="nonzero"/><path fill="#ffffff" d="M 0.484375 0 L 29.515625 0 L 29.515625 29.03125 L 0.484375 29.03125 Z M 0.484375 0 " fill-opacity="1" fill-rule="nonzero"/></g><path fill="#fe6d73" d="M 11.648438 21.5625 C 12.101562 21.5625 12.46875 21.933594 12.46875 22.390625 C 12.46875 22.851562 12.101562 23.222656 11.648438 23.222656 C 11.191406 23.222656 10.824219 22.851562 10.824219 22.390625 C 10.824219 21.933594 11.191406 21.5625 11.648438 21.5625 Z M 11.648438 21.5625 " fill-opacity="1" fill-rule="evenodd"/><path fill="#fe6d73" d="M 17.054688 21.5625 C 17.511719 21.5625 17.878906 21.933594 17.878906 22.390625 C 17.878906 22.851562 17.511719 23.222656 17.054688 23.222656 C 16.601562 23.222656 16.234375 22.851562 16.234375 22.390625 C 16.234375 21.933594 16.601562 21.5625 17.054688 21.5625 Z M 17.054688 21.5625 " fill-opacity="1" fill-rule="evenodd"/><path fill="#fe6d73" d="M 20.230469 12.605469 L 19.382812 18.402344 L 9.222656 18.402344 L 8.542969 12.605469 Z M 20.230469 12.605469 " fill-opacity="1" fill-rule="evenodd"/><path fill="#ffe45e" d="M 23.519531 8.914062 L 26.648438 7.636719 C 26.390625 7.027344 25.792969 6.597656 25.09375 6.597656 C 24.164062 6.597656 23.40625 7.359375 23.40625 8.300781 C 23.40625 8.515625 23.449219 8.722656 23.519531 8.914062 Z M 25.027344 4.519531 C 27.09375 4.519531 28.765625 6.210938 28.765625 8.300781 C 28.765625 9.789062 27.917969 11.078125 26.679688 11.695312 C 26.179688 11.945312 25.621094 12.082031 25.027344 12.082031 C 22.960938 12.082031 21.289062 10.390625 21.289062 8.300781 C 21.289062 7.007812 21.929688 5.863281 22.914062 5.183594 C 23.515625 4.765625 24.242188 4.519531 25.027344 4.519531 Z M 25.027344 4.519531 " fill-opacity="1" fill-rule="evenodd"/><path fill="#ffe45e" d="M 26.648438 7.636719 L 23.519531 8.914062 C 23.449219 8.722656 23.40625 8.515625 23.40625 8.300781 C 23.40625 7.359375 24.164062 6.597656 25.09375 6.597656 C 25.792969 6.597656 26.390625 7.027344 26.648438 7.636719 Z M 26.648438 7.636719 " fill-opacity="1" fill-rule="evenodd"/><g clip-path="url(#d945a86833)"><path fill="#caf0f8" d="M 9.222656 18.402344 L 19.382812 18.402344 L 20.230469 12.605469 L 8.542969 12.605469 Z M 26.679688 11.695312 C 26.882812 12.601562 26.992188 13.546875 26.992188 14.515625 C 26.992188 21.484375 21.40625 27.132812 14.519531 27.132812 C 7.628906 27.132812 2.046875 21.484375 2.046875 14.515625 C 2.046875 7.546875 7.628906 1.898438 14.519531 1.898438 C 17.75 1.898438 20.695312 3.140625 22.914062 5.183594 C 21.929688 5.863281 21.289062 7.007812 21.289062 8.300781 C 21.289062 10.390625 22.960938 12.082031 25.027344 12.082031 C 25.621094 12.082031 26.179688 11.945312 26.679688 11.695312 Z M 17.878906 22.390625 C 17.878906 21.933594 17.511719 21.5625 17.054688 21.5625 C 16.601562 21.5625 16.234375 21.933594 16.234375 22.390625 C 16.234375 22.851562 16.601562 23.222656 17.054688 23.222656 C 17.511719 23.222656 17.878906 22.851562 17.878906 22.390625 Z M 12.46875 22.390625 C 12.46875 21.933594 12.101562 21.5625 11.648438 21.5625 C 11.191406 21.5625 10.824219 21.933594 10.824219 22.390625 C 10.824219 22.851562 11.191406 23.222656 11.648438 23.222656 C 12.101562 23.222656 12.46875 22.851562 12.46875 22.390625 Z M 12.46875 22.390625 " fill-opacity="1" fill-rule="evenodd"/></g><path fill="#333333" d="M 20.230469 12.171875 L 8.925781 12.171875 L 8.796875 11.066406 C 8.769531 10.84375 8.582031 10.675781 8.359375 10.683594 L 6.097656 10.738281 C 5.859375 10.746094 5.671875 10.945312 5.679688 11.1875 C 5.683594 11.425781 5.882812 11.617188 6.121094 11.609375 L 7.988281 11.5625 L 8.976562 20.25 C 8.996094 20.472656 9.183594 20.640625 9.402344 20.640625 L 19.457031 20.640625 C 19.695312 20.640625 19.886719 20.445312 19.886719 20.207031 C 19.886719 19.964844 19.695312 19.769531 19.457031 19.769531 L 9.792969 19.769531 L 9.699219 18.835938 L 19.382812 18.835938 C 19.597656 18.835938 19.777344 18.679688 19.808594 18.464844 L 20.65625 12.671875 C 20.671875 12.546875 20.636719 12.417969 20.554688 12.320312 C 20.472656 12.226562 20.355469 12.171875 20.230469 12.171875 Z M 19.011719 17.964844 L 9.605469 17.964844 L 9.027344 13.042969 L 19.730469 13.042969 Z M 19.011719 17.964844 " fill-opacity="1" fill-rule="evenodd"/><path fill="#333333" d="M 11.648438 21.125 C 10.957031 21.125 10.394531 21.691406 10.394531 22.390625 C 10.394531 23.089844 10.957031 23.660156 11.648438 23.660156 C 12.335938 23.660156 12.898438 23.089844 12.898438 22.390625 C 12.898438 21.691406 12.335938 21.125 11.648438 21.125 Z M 11.648438 22.785156 C 11.429688 22.785156 11.257812 22.609375 11.257812 22.390625 C 11.257812 22.175781 11.429688 21.996094 11.648438 21.996094 C 11.863281 21.996094 12.035156 22.175781 12.035156 22.390625 C 12.035156 22.609375 11.863281 22.785156 11.648438 22.785156 Z M 11.648438 22.785156 " fill-opacity="1" fill-rule="evenodd"/><path fill="#333333" d="M 17.054688 21.125 C 16.367188 21.125 15.804688 21.691406 15.804688 22.390625 C 15.804688 23.089844 16.367188 23.660156 17.054688 23.660156 C 17.746094 23.660156 18.308594 23.089844 18.308594 22.390625 C 18.308594 21.691406 17.746094 21.125 17.054688 21.125 Z M 17.054688 22.785156 C 16.839844 22.785156 16.667969 22.609375 16.667969 22.390625 C 16.667969 22.175781 16.839844 21.996094 17.054688 21.996094 C 17.273438 21.996094 17.445312 22.175781 17.445312 22.390625 C 17.445312 22.609375 17.273438 22.785156 17.054688 22.785156 Z M 17.054688 22.785156 " fill-opacity="1" fill-rule="evenodd"/><path fill="#333333" d="M 14.417969 16.878906 C 14.65625 16.878906 14.851562 16.683594 14.851562 16.441406 L 14.851562 14.425781 C 14.851562 14.183594 14.65625 13.988281 14.417969 13.988281 C 14.179688 13.988281 13.988281 14.183594 13.988281 14.425781 L 13.988281 16.441406 C 13.988281 16.683594 14.179688 16.878906 14.417969 16.878906 Z M 14.417969 16.878906 " fill-opacity="1" fill-rule="evenodd"/><path fill="#333333" d="M 15.953125 16.878906 C 16.191406 16.878906 16.386719 16.683594 16.386719 16.441406 L 16.386719 14.425781 C 16.386719 14.183594 16.191406 13.988281 15.953125 13.988281 C 15.714844 13.988281 15.523438 14.183594 15.523438 14.425781 L 15.523438 16.441406 C 15.523438 16.683594 15.714844 16.878906 15.953125 16.878906 Z M 15.953125 16.878906 " fill-opacity="1" fill-rule="evenodd"/><path fill="#333333" d="M 12.886719 16.878906 C 13.125 16.878906 13.316406 16.683594 13.316406 16.441406 L 13.316406 14.425781 C 13.316406 14.183594 13.125 13.988281 12.886719 13.988281 C 12.648438 13.988281 12.453125 14.183594 12.453125 14.425781 L 12.453125 16.441406 C 12.453125 16.683594 12.648438 16.878906 12.886719 16.878906 Z M 12.886719 16.878906 " fill-opacity="1" fill-rule="evenodd"/><path fill="#333333" d="M 25.09375 6.160156 C 23.925781 6.160156 22.976562 7.121094 22.976562 8.300781 C 22.976562 8.566406 23.023438 8.824219 23.117188 9.070312 C 23.269531 9.46875 23.535156 9.8125 23.882812 10.058594 C 24.238281 10.308594 24.65625 10.441406 25.09375 10.441406 C 25.757812 10.441406 26.371094 10.136719 26.777344 9.601562 C 26.921875 9.410156 26.882812 9.136719 26.695312 8.992188 C 26.507812 8.84375 26.234375 8.878906 26.089844 9.070312 C 25.851562 9.390625 25.488281 9.570312 25.09375 9.570312 C 24.726562 9.570312 24.378906 9.402344 24.144531 9.128906 L 26.808594 8.042969 C 26.914062 7.996094 27 7.914062 27.046875 7.804688 C 27.089844 7.695312 27.089844 7.574219 27.042969 7.46875 C 26.710938 6.671875 25.945312 6.160156 25.09375 6.160156 Z M 23.839844 8.3125 C 23.839844 8.308594 23.839844 8.304688 23.839844 8.300781 C 23.839844 7.601562 24.402344 7.03125 25.09375 7.03125 C 25.445312 7.03125 25.773438 7.179688 26.007812 7.429688 Z M 23.839844 8.3125 " fill-opacity="1" fill-rule="evenodd"/><g clip-path="url(#4e7e3d2a49)"><path fill="#333333" d="M 29.199219 8.300781 C 29.199219 7.175781 28.765625 6.117188 27.976562 5.320312 C 27.1875 4.523438 26.140625 4.082031 25.027344 4.082031 C 24.289062 4.082031 23.578125 4.277344 22.957031 4.640625 C 20.613281 2.589844 17.628906 1.460938 14.519531 1.460938 C 12.777344 1.460938 11.085938 1.808594 9.496094 2.488281 C 7.960938 3.144531 6.578125 4.085938 5.394531 5.285156 C 4.210938 6.484375 3.277344 7.878906 2.628906 9.433594 C 1.957031 11.042969 1.613281 12.753906 1.613281 14.515625 C 1.613281 16.277344 1.957031 17.988281 2.628906 19.597656 C 3.277344 21.152344 4.210938 22.546875 5.394531 23.746094 C 6.578125 24.945312 7.957031 25.886719 9.496094 26.542969 C 11.085938 27.222656 12.777344 27.566406 14.519531 27.566406 C 16.261719 27.566406 17.949219 27.222656 19.542969 26.542969 C 21.078125 25.886719 22.457031 24.945312 23.644531 23.746094 C 24.828125 22.546875 25.757812 21.152344 26.410156 19.597656 C 27.082031 17.988281 27.421875 16.277344 27.421875 14.515625 C 27.421875 13.644531 27.335938 12.773438 27.167969 11.921875 C 27.460938 11.746094 27.730469 11.53125 27.976562 11.285156 C 28.765625 10.488281 29.199219 9.429688 29.199219 8.300781 Z M 26.5625 14.515625 C 26.5625 21.230469 21.160156 26.695312 14.519531 26.695312 C 7.878906 26.695312 2.476562 21.230469 2.476562 14.515625 C 2.476562 7.796875 7.878906 2.335938 14.519531 2.335938 C 17.351562 2.335938 20.074219 3.335938 22.238281 5.164062 C 22.183594 5.214844 22.128906 5.265625 22.078125 5.320312 C 21.292969 6.117188 20.859375 7.175781 20.859375 8.300781 C 20.859375 9.429688 21.292969 10.488281 22.078125 11.285156 C 22.867188 12.082031 23.914062 12.519531 25.027344 12.519531 C 25.488281 12.519531 25.9375 12.445312 26.363281 12.300781 C 26.496094 13.027344 26.5625 13.769531 26.5625 14.515625 Z M 25.027344 11.648438 C 23.203125 11.648438 21.71875 10.148438 21.71875 8.300781 C 21.71875 6.457031 23.203125 4.953125 25.027344 4.953125 C 26.851562 4.953125 28.335938 6.457031 28.335938 8.300781 C 28.335938 10.148438 26.851562 11.648438 25.027344 11.648438 Z M 25.027344 11.648438 " fill-opacity="1" fill-rule="evenodd"/></g><path fill="#333333" d="M 14.761719 9.691406 C 14.460938 9.691406 14.171875 9.804688 13.945312 10.003906 C 13.765625 10.164062 13.75 10.441406 13.90625 10.621094 C 14.066406 10.800781 14.339844 10.816406 14.515625 10.65625 C 14.585938 10.597656 14.671875 10.5625 14.761719 10.5625 C 14.855469 10.5625 14.941406 10.597656 15.007812 10.660156 C 15.089844 10.734375 15.195312 10.769531 15.296875 10.769531 C 15.414062 10.769531 15.53125 10.71875 15.617188 10.625 C 15.777344 10.445312 15.761719 10.167969 15.585938 10.007812 C 15.359375 9.804688 15.066406 9.691406 14.761719 9.691406 Z M 14.761719 9.691406 " fill-opacity="1" fill-rule="evenodd"/><path fill="#333333" d="M 16.492188 9.414062 C 16.609375 9.414062 16.726562 9.367188 16.8125 9.269531 C 16.972656 9.089844 16.957031 8.816406 16.777344 8.65625 C 16.222656 8.152344 15.507812 7.875 14.761719 7.875 C 14.023438 7.875 13.308594 8.148438 12.757812 8.644531 C 12.578125 8.804688 12.5625 9.078125 12.71875 9.261719 C 12.878906 9.441406 13.148438 9.457031 13.328125 9.296875 C 13.722656 8.941406 14.234375 8.75 14.761719 8.75 C 15.296875 8.75 15.808594 8.945312 16.203125 9.304688 C 16.285156 9.378906 16.390625 9.414062 16.492188 9.414062 Z M 16.492188 9.414062 " fill-opacity="1" fill-rule="evenodd"/><path fill="#333333" d="M 11.980469 7.757812 C 12.75 7.074219 13.738281 6.695312 14.761719 6.695312 C 15.796875 6.695312 16.789062 7.078125 17.558594 7.773438 C 17.640625 7.847656 17.742188 7.882812 17.84375 7.882812 C 17.960938 7.882812 18.082031 7.835938 18.164062 7.738281 C 18.324219 7.558594 18.308594 7.28125 18.132812 7.121094 C 17.203125 6.285156 16.007812 5.824219 14.761719 5.824219 C 13.527344 5.824219 12.335938 6.277344 11.410156 7.105469 C 11.234375 7.265625 11.214844 7.542969 11.375 7.722656 C 11.53125 7.902344 11.804688 7.917969 11.980469 7.757812 Z M 11.980469 7.757812 " fill-opacity="1" fill-rule="evenodd"/></svg>