<svg xmlns="http://www.w3.org/2000/svg" xmlns:xlink="http://www.w3.org/1999/xlink" width="40" zoomAndPan="magnify" viewBox="0 0 30 30.000001" height="40" preserveAspectRatio="xMidYMid meet" version="1.0"><defs><clipPath id="e87c2d8736"><path d="M 0.484375 0 L 29.515625 0 L 29.515625 29.03125 L 0.484375 29.03125 Z M 0.484375 0 " clip-rule="nonzero"/></clipPath><clipPath id="a250fe58c9"><path d="M 1.265625 0.484375 L 28.847656 0.484375 L 28.847656 27.339844 L 1.265625 27.339844 Z M 1.265625 0.484375 " clip-rule="nonzero"/></clipPath></defs><g clip-path="url(#e87c2d8736)"><path fill="#ffffff" d="M 0.484375 0 L 29.515625 0 L 29.515625 29.03125 L 0.484375 29.03125 Z M 0.484375 0 " fill-opacity="1" fill-rule="nonzero"/><path fill="#ffffff" d="M 0.484375 0 L 29.515625 0 L 29.515625 29.03125 L 0.484375 29.03125 Z M 0.484375 0 " fill-opacity="1" fill-rule="nonzero"/></g><g clip-path="url(#a250fe58c9)"><path fill="#935f3d" d="M 9.859375 21.71875 L 12.859375 21.71875 C 13.230469 21.71875 13.53125 21.40625 13.53125 21.019531 L 13.53125 17.421875 C 13.53125 17.179688 13.335938 16.980469 13.089844 16.980469 L 9.628906 16.980469 C 9.386719 16.980469 9.1875 17.179688 9.1875 17.421875 L 9.1875 21.019531 C 9.1875 21.40625 9.488281 21.71875 9.859375 21.71875 Z M 11.222656 17.867188 L 11.496094 17.867188 L 11.496094 18.550781 L 11.222656 18.550781 Z M 10.074219 17.867188 L 10.339844 17.867188 L 10.339844 18.996094 C 10.339844 19.238281 10.535156 19.4375 10.78125 19.4375 L 11.9375 19.4375 C 12.183594 19.4375 12.382812 19.238281 12.382812 18.996094 L 12.382812 17.867188 L 12.648438 17.867188 L 12.648438 20.832031 L 10.074219 20.832031 Z M 11.53125 14.492188 C 11.53125 14.652344 11.40625 14.78125 11.25 14.78125 C 11.09375 14.78125 10.96875 14.652344 10.96875 14.492188 C 10.96875 14.332031 11.09375 14.199219 11.25 14.199219 C 11.40625 14.199219 11.53125 14.332031 11.53125 14.492188 Z M 7.4375 23.839844 L 7.4375 25.46875 C 7.4375 25.832031 7.726562 26.125 8.085938 26.125 L 9.660156 26.125 C 10.019531 26.125 10.308594 25.832031 10.308594 25.46875 L 10.308594 23.839844 C 10.308594 23.480469 10.019531 23.183594 9.660156 23.183594 L 8.085938 23.183594 C 7.726562 23.183594 7.4375 23.480469 7.4375 23.839844 Z M 8.324219 24.070312 L 9.425781 24.070312 L 9.425781 25.238281 L 8.324219 25.238281 Z M 28.453125 8.859375 L 20.492188 5.171875 C 20.445312 5.0625 20.359375 4.96875 20.242188 4.925781 L 19.609375 4.683594 C 19.511719 4.34375 19.378906 4.019531 19.207031 3.714844 L 19.484375 3.09375 C 19.558594 2.925781 19.523438 2.730469 19.390625 2.601562 L 18.417969 1.625 C 18.289062 1.496094 18.09375 1.460938 17.925781 1.535156 L 17.304688 1.808594 C 16.996094 1.640625 16.671875 1.507812 16.335938 1.410156 L 16.09375 0.773438 C 16.027344 0.605469 15.863281 0.492188 15.679688 0.492188 L 14.300781 0.492188 C 14.117188 0.492188 13.953125 0.605469 13.886719 0.773438 L 13.644531 1.410156 C 13.304688 1.507812 12.980469 1.640625 12.675781 1.808594 L 12.054688 1.535156 C 11.886719 1.460938 11.691406 1.496094 11.5625 1.625 L 10.585938 2.601562 C 10.457031 2.730469 10.421875 2.925781 10.496094 3.09375 L 10.769531 3.714844 C 10.601562 4.019531 10.46875 4.34375 10.367188 4.683594 L 9.734375 4.925781 C 9.621094 4.96875 9.53125 5.0625 9.484375 5.171875 L 1.523438 8.859375 C 1.367188 8.929688 1.265625 9.089844 1.265625 9.261719 L 1.265625 10.03125 C 1.265625 10.53125 1.722656 10.933594 2.285156 10.933594 L 3.9375 10.933594 L 3.9375 27.039062 C 3.9375 27.285156 4.132812 27.484375 4.378906 27.484375 L 25.601562 27.484375 C 25.84375 27.484375 26.042969 27.285156 26.042969 27.039062 L 26.042969 10.933594 L 27.691406 10.933594 C 28.253906 10.933594 28.710938 10.53125 28.710938 10.03125 L 28.710938 9.261719 C 28.710938 9.089844 28.609375 8.929688 28.453125 8.859375 Z M 19.417969 8.816406 L 19.207031 8.34375 C 19.378906 8.035156 19.511719 7.710938 19.609375 7.375 L 20.242188 7.132812 C 20.414062 7.066406 20.527344 6.902344 20.527344 6.71875 L 20.527344 6.164062 L 26.257812 8.816406 Z M 10.335938 5.644531 L 10.898438 5.425781 C 11.035156 5.375 11.136719 5.257812 11.167969 5.117188 C 11.265625 4.710938 11.425781 4.328125 11.644531 3.972656 C 11.71875 3.847656 11.730469 3.695312 11.671875 3.5625 L 11.425781 3.011719 L 11.972656 2.464844 L 12.523438 2.710938 C 12.65625 2.769531 12.808594 2.757812 12.933594 2.683594 C 13.289062 2.464844 13.671875 2.304688 14.078125 2.207031 C 14.21875 2.175781 14.335938 2.074219 14.386719 1.9375 L 14.605469 1.375 L 15.375 1.375 L 15.589844 1.9375 C 15.644531 2.074219 15.757812 2.175781 15.902344 2.207031 C 16.304688 2.304688 16.691406 2.464844 17.042969 2.683594 C 17.167969 2.757812 17.324219 2.769531 17.457031 2.710938 L 18.007812 2.464844 L 18.550781 3.011719 L 18.308594 3.5625 C 18.25 3.695312 18.257812 3.847656 18.335938 3.972656 C 18.554688 4.328125 18.710938 4.710938 18.808594 5.117188 C 18.84375 5.257812 18.945312 5.375 19.082031 5.425781 L 19.640625 5.644531 L 19.640625 6.414062 L 19.082031 6.628906 C 18.945312 6.683594 18.84375 6.796875 18.808594 6.941406 C 18.710938 7.34375 18.554688 7.730469 18.335938 8.082031 C 18.257812 8.207031 18.246094 8.363281 18.308594 8.496094 L 18.550781 9.046875 L 18.007812 9.589844 L 17.457031 9.347656 C 17.324219 9.289062 17.167969 9.296875 17.042969 9.375 C 16.691406 9.59375 16.304688 9.753906 15.902344 9.847656 C 15.757812 9.882812 15.644531 9.984375 15.589844 10.121094 L 15.375 10.679688 L 14.605469 10.679688 L 14.386719 10.121094 C 14.335938 9.984375 14.21875 9.882812 14.078125 9.847656 C 13.671875 9.753906 13.289062 9.59375 12.933594 9.375 C 12.808594 9.296875 12.65625 9.289062 12.523438 9.347656 L 11.972656 9.589844 L 11.425781 9.046875 L 11.671875 8.496094 C 11.730469 8.363281 11.71875 8.207031 11.644531 8.085938 C 11.425781 7.730469 11.265625 7.34375 11.167969 6.941406 C 11.136719 6.796875 11.035156 6.683594 10.898438 6.628906 L 10.335938 6.414062 Z M 3.71875 8.816406 L 9.453125 6.164062 L 9.453125 6.71875 C 9.453125 6.902344 9.566406 7.066406 9.734375 7.132812 L 10.367188 7.375 C 10.46875 7.710938 10.601562 8.035156 10.769531 8.34375 L 10.558594 8.816406 Z M 2.152344 10.007812 L 2.152344 9.703125 L 10.832031 9.703125 L 11.179688 10.046875 L 2.285156 10.046875 C 2.21875 10.046875 2.171875 10.023438 2.152344 10.007812 Z M 8.839844 16.554688 L 13.660156 16.554688 C 13.902344 16.554688 14.101562 16.359375 14.101562 16.113281 L 14.101562 16.085938 L 14.671875 16.085938 C 14.515625 16.285156 14.425781 16.527344 14.425781 16.792969 L 14.425781 23.625 L 11.121094 23.625 C 10.878906 23.625 10.679688 23.824219 10.679688 24.070312 C 10.679688 24.3125 10.878906 24.511719 11.121094 24.511719 L 14.425781 24.511719 L 14.425781 24.558594 C 14.425781 24.644531 14.449219 24.726562 14.496094 24.796875 L 11.121094 24.796875 C 10.878906 24.796875 10.679688 24.996094 10.679688 25.242188 C 10.679688 25.484375 10.878906 25.683594 11.121094 25.683594 L 14.621094 25.683594 C 14.757812 25.683594 14.878906 25.621094 14.960938 25.523438 L 15.324219 26.089844 L 15.324219 26.597656 L 7.0625 26.597656 L 7.0625 16.085938 L 8.398438 16.085938 L 8.398438 16.113281 C 8.398438 16.359375 8.597656 16.554688 8.839844 16.554688 Z M 9.285156 15.671875 L 9.285156 14.875 L 10.214844 14.875 C 10.421875 14.875 10.601562 14.730469 10.648438 14.53125 C 10.714844 14.238281 10.964844 14.03125 11.25 14.03125 C 11.535156 14.03125 11.785156 14.238281 11.851562 14.53125 C 11.898438 14.730469 12.078125 14.875 12.285156 14.875 L 13.21875 14.875 L 13.21875 15.671875 Z M 15.890625 25.332031 L 15.679688 25.003906 L 16.097656 25.003906 Z M 16.46875 24.117188 L 15.308594 24.117188 L 15.308594 18.128906 L 16.46875 18.128906 Z M 16.46875 17.242188 L 15.308594 17.242188 L 15.308594 16.792969 C 15.308594 16.617188 15.496094 16.472656 15.71875 16.472656 L 16.058594 16.472656 C 16.28125 16.472656 16.46875 16.617188 16.46875 16.792969 Z M 20.816406 17.441406 L 20.976562 17.441406 L 20.976562 17.925781 L 20.816406 17.925781 Z M 20.375 18.8125 L 21.417969 18.8125 C 21.664062 18.8125 21.863281 18.613281 21.863281 18.371094 L 21.863281 17.441406 L 22.015625 17.441406 L 22.015625 19.917969 L 19.777344 19.917969 L 19.777344 17.441406 L 19.929688 17.441406 L 19.929688 18.371094 C 19.929688 18.613281 20.128906 18.8125 20.375 18.8125 Z M 20.816406 24.167969 L 20.976562 24.167969 L 20.976562 24.65625 L 20.816406 24.65625 Z M 19.777344 23.28125 L 19.777344 20.804688 L 19.929688 20.804688 L 19.929688 21.734375 C 19.929688 21.980469 20.128906 22.175781 20.375 22.175781 L 21.417969 22.175781 C 21.664062 22.175781 21.863281 21.980469 21.863281 21.734375 L 21.863281 20.804688 L 22.015625 20.804688 L 22.015625 23.28125 Z M 20.816406 20.804688 L 20.976562 20.804688 L 20.976562 21.292969 L 20.816406 21.292969 Z M 23.9375 20.804688 L 24.097656 20.804688 L 24.097656 21.292969 L 23.9375 21.292969 Z M 23.054688 20.804688 L 23.054688 21.734375 C 23.054688 21.980469 23.25 22.175781 23.496094 22.175781 L 24.542969 22.175781 C 24.785156 22.175781 24.984375 21.980469 24.984375 21.734375 L 24.984375 20.804688 L 25.15625 20.804688 L 25.15625 23.28125 L 22.898438 23.28125 L 22.898438 20.804688 Z M 23.9375 24.167969 L 24.097656 24.167969 L 24.097656 24.65625 L 23.9375 24.65625 Z M 23.054688 24.167969 L 23.054688 25.097656 C 23.054688 25.34375 23.25 25.539062 23.496094 25.539062 L 24.542969 25.539062 C 24.785156 25.539062 24.984375 25.34375 24.984375 25.097656 L 24.984375 24.167969 L 25.15625 24.167969 L 25.15625 26.597656 L 22.898438 26.597656 L 22.898438 24.167969 Z M 19.777344 24.167969 L 19.929688 24.167969 L 19.929688 25.097656 C 19.929688 25.34375 20.128906 25.539062 20.375 25.539062 L 21.417969 25.539062 C 21.664062 25.539062 21.863281 25.34375 21.863281 25.097656 L 21.863281 24.167969 L 22.015625 24.167969 L 22.015625 26.597656 L 19.777344 26.597656 Z M 25.15625 19.917969 L 22.898438 19.917969 L 22.898438 16.996094 C 22.898438 16.753906 22.703125 16.554688 22.457031 16.554688 L 19.335938 16.554688 C 19.089844 16.554688 18.890625 16.753906 18.890625 16.996094 L 18.890625 20.136719 C 18.890625 20.214844 18.90625 20.292969 18.929688 20.363281 L 18.890625 20.363281 L 18.890625 23.5 C 18.890625 23.582031 18.90625 23.65625 18.929688 23.726562 L 18.890625 23.726562 L 18.890625 26.597656 L 16.210938 26.597656 L 16.210938 26.453125 C 16.230469 26.433594 16.246094 26.410156 16.261719 26.386719 L 17.28125 24.800781 C 17.328125 24.726562 17.351562 24.644531 17.351562 24.558594 L 17.351562 16.792969 C 17.351562 16.175781 16.851562 15.664062 16.207031 15.59375 C 16.183594 15.371094 15.996094 15.203125 15.765625 15.203125 L 14.101562 15.203125 L 14.101562 14.429688 C 14.101562 14.1875 13.902344 13.988281 13.660156 13.988281 L 12.59375 13.988281 C 12.339844 13.480469 11.828125 13.148438 11.25 13.148438 C 10.671875 13.148438 10.160156 13.480469 9.90625 13.988281 L 8.839844 13.988281 C 8.597656 13.988281 8.398438 14.1875 8.398438 14.429688 L 8.398438 15.203125 L 6.621094 15.203125 C 6.375 15.203125 6.175781 15.398438 6.175781 15.644531 L 6.175781 26.597656 L 4.820312 26.597656 L 4.820312 10.933594 L 13.753906 10.933594 L 13.886719 11.28125 C 13.953125 11.453125 14.117188 11.566406 14.300781 11.566406 L 15.679688 11.566406 C 15.863281 11.566406 16.027344 11.453125 16.09375 11.28125 L 16.226562 10.933594 L 25.15625 10.933594 Z M 27.691406 10.046875 L 18.800781 10.046875 L 19.144531 9.703125 L 27.828125 9.703125 L 27.828125 10.007812 C 27.808594 10.023438 27.761719 10.046875 27.691406 10.046875 Z M 14.988281 8.875 C 16.558594 8.875 17.835938 7.597656 17.835938 6.027344 C 17.835938 4.457031 16.558594 3.179688 14.988281 3.179688 C 13.417969 3.179688 12.140625 4.457031 12.140625 6.027344 C 12.140625 7.597656 13.417969 8.875 14.988281 8.875 Z M 14.988281 4.066406 C 16.070312 4.066406 16.953125 4.945312 16.953125 6.027344 C 16.953125 7.109375 16.070312 7.992188 14.988281 7.992188 C 13.90625 7.992188 13.027344 7.109375 13.027344 6.027344 C 13.027344 4.945312 13.90625 4.066406 14.988281 4.066406 Z M 14.988281 4.066406 " fill-opacity="1" fill-rule="nonzero"/></g></svg>