<svg xmlns="http://www.w3.org/2000/svg" xmlns:xlink="http://www.w3.org/1999/xlink" width="40" zoomAndPan="magnify" viewBox="0 0 30 30.000001" height="40" preserveAspectRatio="xMidYMid meet" version="1.0"><defs><clipPath id="16ca54af94"><path d="M 0.484375 0 L 29.515625 0 L 29.515625 29.03125 L 0.484375 29.03125 Z M 0.484375 0 " clip-rule="nonzero"/></clipPath><clipPath id="4f24eff60e"><path d="M 0.484375 0.605469 L 10 0.605469 L 10 10 L 0.484375 10 Z M 0.484375 0.605469 " clip-rule="nonzero"/></clipPath><clipPath id="6c27626ffa"><path d="M 20 19 L 29.515625 19 L 29.515625 28.1875 L 20 28.1875 Z M 20 19 " clip-rule="nonzero"/></clipPath></defs><g clip-path="url(#16ca54af94)"><path fill="#ffffff" d="M 0.484375 0 L 29.515625 0 L 29.515625 29.03125 L 0.484375 29.03125 Z M 0.484375 0 " fill-opacity="1" fill-rule="nonzero"/><path fill="#ffffff" d="M 0.484375 0 L 29.515625 0 L 29.515625 29.03125 L 0.484375 29.03125 Z M 0.484375 0 " fill-opacity="1" fill-rule="nonzero"/></g><path fill="#935f3d" d="M 15.40625 10.917969 L 17.160156 10.917969 L 17.160156 4.992188 C 17.160156 3.957031 16.316406 3.113281 15.28125 3.113281 L 9.949219 3.113281 L 9.949219 6.539062 C 9.949219 7.480469 9.183594 8.242188 8.246094 8.242188 L 3.832031 8.242188 L 2.253906 9.023438 L 2.253906 14.296875 C 2.253906 15.332031 3.097656 16.175781 4.132812 16.175781 L 13.042969 16.175781 L 13.042969 13.28125 C 13.042969 11.976562 14.105469 10.917969 15.40625 10.917969 Z M 10.925781 7 L 15.160156 7 C 15.292969 7 15.402344 7.109375 15.402344 7.242188 C 15.402344 7.375 15.292969 7.484375 15.160156 7.484375 L 10.925781 7.484375 C 10.792969 7.484375 10.683594 7.375 10.683594 7.242188 C 10.683594 7.109375 10.792969 7 10.925781 7 Z M 10.4375 11.832031 L 4.527344 11.832031 C 4.394531 11.832031 4.285156 11.722656 4.285156 11.589844 C 4.285156 11.457031 4.394531 11.351562 4.527344 11.351562 L 10.4375 11.351562 C 10.570312 11.351562 10.679688 11.457031 10.679688 11.589844 C 10.679688 11.722656 10.570312 11.832031 10.4375 11.832031 Z M 4.527344 9.789062 C 4.394531 9.789062 4.285156 9.683594 4.285156 9.550781 C 4.285156 9.417969 4.394531 9.308594 4.527344 9.308594 L 15.160156 9.308594 C 15.292969 9.308594 15.402344 9.417969 15.402344 9.550781 C 15.402344 9.683594 15.292969 9.789062 15.160156 9.789062 Z M 4.527344 9.789062 " fill-opacity="1" fill-rule="nonzero"/><path fill="#935f3d" d="M 5.679688 2.15625 L 4.582031 4.996094 L 6.773438 4.996094 Z M 5.679688 2.15625 " fill-opacity="1" fill-rule="nonzero"/><g clip-path="url(#4f24eff60e)"><path fill="#935f3d" d="M 0.578125 9.3125 L 3.667969 7.785156 C 3.703125 7.769531 3.738281 7.761719 3.773438 7.761719 L 8.246094 7.761719 C 8.917969 7.761719 9.464844 7.214844 9.464844 6.539062 L 9.464844 1.828125 C 9.464844 1.152344 8.917969 0.605469 8.246094 0.605469 L 2.988281 0.605469 C 2.3125 0.605469 1.765625 1.152344 1.765625 1.828125 L 1.765625 6.542969 C 1.765625 6.609375 1.773438 6.683594 1.789062 6.765625 C 1.800781 6.816406 1.792969 6.871094 1.769531 6.917969 Z M 3.484375 6.503906 L 4.007812 5.140625 L 5.453125 1.402344 C 5.488281 1.308594 5.578125 1.246094 5.679688 1.246094 C 5.777344 1.246094 5.867188 1.308594 5.902344 1.402344 L 7.875 6.503906 C 7.921875 6.628906 7.859375 6.769531 7.734375 6.816406 C 7.707031 6.828125 7.675781 6.832031 7.648438 6.832031 C 7.550781 6.832031 7.460938 6.773438 7.421875 6.675781 L 6.960938 5.476562 L 4.398438 5.476562 L 3.933594 6.675781 C 3.886719 6.800781 3.746094 6.863281 3.621094 6.816406 C 3.496094 6.769531 3.433594 6.628906 3.484375 6.503906 Z M 3.484375 6.503906 " fill-opacity="1" fill-rule="nonzero"/></g><g clip-path="url(#6c27626ffa)"><path fill="#935f3d" d="M 28.222656 26.023438 C 28.199219 25.976562 28.191406 25.925781 28.203125 25.871094 C 28.21875 25.789062 28.226562 25.714844 28.226562 25.648438 L 28.226562 20.933594 C 28.226562 20.261719 27.679688 19.714844 27.003906 19.714844 L 21.746094 19.714844 C 21.074219 19.714844 20.527344 20.261719 20.527344 20.933594 L 20.527344 25.648438 C 20.527344 26.320312 21.074219 26.867188 21.746094 26.867188 L 26.21875 26.867188 C 26.253906 26.867188 26.292969 26.878906 26.324219 26.894531 L 29.414062 28.421875 Z M 27.015625 21.90625 L 26.074219 21.90625 C 25.921875 22.941406 25.558594 23.816406 24.984375 24.515625 C 25.425781 24.902344 25.949219 25.210938 26.566406 25.433594 C 26.691406 25.480469 26.757812 25.621094 26.710938 25.746094 C 26.675781 25.84375 26.585938 25.902344 26.484375 25.902344 C 26.457031 25.902344 26.429688 25.898438 26.402344 25.890625 C 25.730469 25.644531 25.152344 25.296875 24.660156 24.867188 C 24.09375 25.429688 23.367188 25.863281 22.484375 26.15625 C 22.457031 26.164062 22.433594 26.167969 22.40625 26.167969 C 22.304688 26.167969 22.210938 26.105469 22.179688 26.003906 C 22.136719 25.878906 22.203125 25.742188 22.332031 25.699219 C 23.144531 25.425781 23.804688 25.039062 24.320312 24.535156 C 23.832031 24.011719 23.453125 23.386719 23.195312 22.648438 C 23.152344 22.523438 23.21875 22.382812 23.34375 22.339844 C 23.472656 22.296875 23.609375 22.363281 23.652344 22.488281 C 23.886719 23.15625 24.214844 23.714844 24.640625 24.179688 C 25.132812 23.570312 25.445312 22.8125 25.589844 21.90625 L 22.246094 21.90625 C 22.113281 21.90625 22.003906 21.796875 22.003906 21.664062 C 22.003906 21.53125 22.113281 21.421875 22.246094 21.421875 L 24.34375 21.421875 L 24.34375 20.269531 C 24.34375 20.136719 24.453125 20.03125 24.585938 20.03125 C 24.71875 20.03125 24.828125 20.136719 24.828125 20.269531 L 24.828125 21.421875 L 27.015625 21.421875 C 27.148438 21.421875 27.257812 21.53125 27.257812 21.664062 C 27.257812 21.796875 27.148438 21.90625 27.015625 21.90625 Z M 27.015625 21.90625 " fill-opacity="1" fill-rule="nonzero"/></g><path fill="#935f3d" d="M 21.746094 19.234375 L 27.003906 19.234375 C 27.269531 19.234375 27.515625 19.292969 27.738281 19.402344 L 27.738281 13.28125 C 27.738281 12.242188 26.894531 11.398438 25.859375 11.398438 L 15.40625 11.398438 C 14.371094 11.398438 13.527344 12.242188 13.527344 13.28125 L 13.527344 22.582031 C 13.527344 23.621094 14.371094 24.464844 15.40625 24.464844 L 20.042969 24.464844 L 20.042969 20.933594 C 20.042969 19.996094 20.808594 19.234375 21.746094 19.234375 Z M 15.980469 14.753906 L 25.792969 14.753906 C 25.925781 14.753906 26.035156 14.863281 26.035156 14.996094 C 26.035156 15.128906 25.925781 15.234375 25.792969 15.234375 L 15.980469 15.234375 C 15.84375 15.234375 15.738281 15.128906 15.738281 14.996094 C 15.738281 14.863281 15.84375 14.753906 15.980469 14.753906 Z M 15.972656 17.910156 C 15.839844 17.90625 15.734375 17.796875 15.738281 17.664062 C 15.738281 17.53125 15.839844 17.425781 15.984375 17.429688 L 23.070312 17.550781 C 23.203125 17.554688 23.3125 17.664062 23.308594 17.796875 C 23.304688 17.929688 23.199219 18.03125 23.066406 18.03125 C 23.066406 18.03125 23.066406 18.03125 23.0625 18.03125 Z M 15.972656 17.910156 " fill-opacity="1" fill-rule="nonzero"/></svg>