<svg xmlns="http://www.w3.org/2000/svg" xmlns:xlink="http://www.w3.org/1999/xlink" width="40" zoomAndPan="magnify" viewBox="0 0 30 30.000001" height="40" preserveAspectRatio="xMidYMid meet" version="1.0"><defs><clipPath id="33b0130259"><path d="M 0.484375 0 L 29.515625 0 L 29.515625 29.03125 L 0.484375 29.03125 Z M 0.484375 0 " clip-rule="nonzero"/></clipPath><clipPath id="2f0ba06196"><path d="M 8.417969 7.726562 L 17.855469 7.726562 L 17.855469 18.613281 L 8.417969 18.613281 Z M 8.417969 7.726562 " clip-rule="nonzero"/></clipPath><clipPath id="5836572ee7"><path d="M 0.484375 0 L 29.515625 0 L 29.515625 24.675781 L 0.484375 24.675781 Z M 0.484375 0 " clip-rule="nonzero"/></clipPath></defs><g clip-path="url(#33b0130259)"><path fill="#ffffff" d="M 0.484375 0 L 29.515625 0 L 29.515625 29.03125 L 0.484375 29.03125 Z M 0.484375 0 " fill-opacity="1" fill-rule="nonzero"/><path fill="#ffffff" d="M 0.484375 0 L 29.515625 0 L 29.515625 29.03125 L 0.484375 29.03125 Z M 0.484375 0 " fill-opacity="1" fill-rule="nonzero"/></g><g clip-path="url(#2f0ba06196)"><path fill="#925f3d" d="M 10.714844 17.730469 L 10.910156 18.035156 L 9.890625 18.683594 L 8.421875 16.378906 L 9.4375 15.730469 L 10.710938 17.726562 C 10.710938 17.726562 10.710938 17.726562 10.714844 17.726562 C 10.714844 17.726562 10.714844 17.730469 10.714844 17.730469 Z M 16.632812 15.394531 L 14.972656 16.457031 C 14.929688 16.664062 14.808594 16.84375 14.640625 16.949219 C 14.53125 17.019531 14.40625 17.054688 14.273438 17.054688 C 14.195312 17.054688 14.109375 17.039062 14.023438 17.011719 L 12.828125 16.617188 C 12.746094 16.589844 12.699219 16.496094 12.726562 16.414062 C 12.753906 16.328125 12.847656 16.28125 12.929688 16.308594 L 14.125 16.703125 C 14.253906 16.746094 14.371094 16.738281 14.464844 16.675781 C 14.570312 16.609375 14.644531 16.484375 14.660156 16.347656 C 14.664062 16.339844 14.664062 16.335938 14.664062 16.328125 C 14.671875 16.148438 14.554688 15.984375 14.382812 15.925781 L 11.761719 15.058594 C 11.503906 14.972656 11.257812 15 11.03125 15.140625 L 9.890625 15.835938 L 10.902344 17.421875 L 11.464844 17.078125 C 11.507812 17.054688 11.554688 17.046875 11.601562 17.0625 L 13.761719 17.777344 C 14.050781 17.875 14.339844 17.835938 14.597656 17.671875 L 17.074219 16.085938 C 17.265625 15.964844 17.320312 15.710938 17.199219 15.519531 C 17.074219 15.328125 16.820312 15.273438 16.632812 15.394531 Z M 18.09375 12.695312 C 18.09375 12.914062 18.007812 13.117188 17.855469 13.269531 L 16.59375 14.535156 L 15.328125 13.269531 C 15.011719 12.953125 15.011719 12.441406 15.328125 12.121094 C 15.480469 11.96875 15.683594 11.886719 15.902344 11.886719 C 16.121094 11.886719 16.324219 11.96875 16.476562 12.121094 C 16.539062 12.1875 16.644531 12.1875 16.707031 12.121094 C 17.023438 11.804688 17.539062 11.804688 17.855469 12.121094 C 18.007812 12.277344 18.09375 12.480469 18.09375 12.695312 Z M 17.257812 13.050781 C 17.257812 12.960938 17.1875 12.890625 17.097656 12.890625 L 16.753906 12.890625 L 16.753906 12.546875 C 16.753906 12.457031 16.679688 12.386719 16.59375 12.386719 C 16.503906 12.386719 16.429688 12.457031 16.429688 12.546875 L 16.429688 12.890625 L 16.089844 12.890625 C 16 12.890625 15.925781 12.960938 15.925781 13.050781 C 15.925781 13.140625 16 13.214844 16.089844 13.214844 L 16.429688 13.214844 L 16.429688 13.554688 C 16.429688 13.644531 16.503906 13.714844 16.59375 13.714844 C 16.679688 13.714844 16.753906 13.644531 16.753906 13.554688 L 16.753906 13.214844 L 17.097656 13.214844 C 17.1875 13.214844 17.257812 13.140625 17.257812 13.050781 Z M 11.863281 14.75 L 14.484375 15.617188 C 14.710938 15.691406 14.882812 15.871094 14.953125 16.085938 L 16.429688 15.140625 L 16.429688 14.832031 L 15.097656 13.5 C 14.65625 13.058594 14.65625 12.335938 15.097656 11.894531 C 15.113281 11.878906 15.125 11.867188 15.140625 11.855469 C 14.9375 11.78125 14.71875 11.742188 14.5 11.742188 L 13.003906 11.742188 C 11.9375 11.742188 11.070312 12.609375 11.070312 13.675781 L 11.070312 14.761719 C 11.324219 14.667969 11.59375 14.660156 11.863281 14.75 Z M 13.75 11.417969 C 14.769531 11.417969 15.597656 10.589844 15.597656 9.574219 C 15.597656 8.554688 14.769531 7.726562 13.75 7.726562 C 12.734375 7.726562 11.90625 8.554688 11.90625 9.574219 C 11.90625 10.589844 12.734375 11.417969 13.75 11.417969 Z M 13.75 11.417969 " fill-opacity="1" fill-rule="nonzero"/></g><g clip-path="url(#5836572ee7)"><path fill="#925f3d" d="M 28.671875 4.34375 C 29.136719 4.34375 29.511719 3.96875 29.511719 3.503906 C 29.511719 3.042969 29.136719 2.667969 28.671875 2.667969 C 28.355469 2.667969 28.082031 2.839844 27.9375 3.097656 L 15.800781 3.097656 C 15.789062 3.085938 15.78125 3.074219 15.777344 3.058594 L 15.410156 1.476562 C 15.3125 1.058594 15.074219 0.679688 14.738281 0.414062 C 14.398438 0.148438 13.976562 0 13.546875 0 L 11.699219 0 C 11.269531 0 10.847656 0.148438 10.511719 0.414062 C 10.175781 0.679688 9.933594 1.058594 9.835938 1.476562 L 9.46875 3.058594 C 9.460938 3.089844 9.441406 3.113281 9.410156 3.121094 C 9.109375 3.230469 8.8125 3.351562 8.523438 3.488281 C 8.496094 3.503906 8.460938 3.503906 8.4375 3.488281 L 7.058594 2.628906 C 6.691406 2.402344 6.257812 2.304688 5.828125 2.351562 C 5.402344 2.402344 5 2.597656 4.695312 2.902344 L 3.390625 4.207031 C 3.085938 4.511719 2.890625 4.914062 2.839844 5.339844 C 2.792969 5.769531 2.890625 6.203125 3.117188 6.570312 L 3.972656 7.949219 C 3.992188 7.972656 3.992188 8.007812 3.976562 8.035156 C 3.839844 8.324219 3.71875 8.621094 3.609375 8.921875 C 3.601562 8.953125 3.578125 8.972656 3.546875 8.980469 L 1.964844 9.347656 C 1.546875 9.445312 1.167969 9.6875 0.902344 10.023438 C 0.636719 10.359375 0.488281 10.78125 0.488281 11.210938 L 0.488281 13.222656 C 0.488281 13.550781 0.601562 13.871094 0.800781 14.125 C 1.003906 14.382812 1.292969 14.5625 1.609375 14.636719 L 3.261719 15.023438 C 3.476562 15.074219 3.644531 15.226562 3.71875 15.433594 C 3.824219 15.730469 3.949219 16.023438 4.082031 16.308594 C 4.175781 16.507812 4.164062 16.738281 4.050781 16.921875 L 3.152344 18.363281 C 2.980469 18.640625 2.90625 18.972656 2.945312 19.296875 C 2.980469 19.621094 3.128906 19.925781 3.359375 20.15625 L 4.726562 21.523438 C 4.957031 21.753906 5.261719 21.902344 5.585938 21.9375 C 5.910156 21.976562 6.242188 21.902344 6.519531 21.730469 L 7.960938 20.832031 C 8.144531 20.71875 8.375 20.707031 8.574219 20.800781 C 8.859375 20.933594 9.152344 21.058594 9.449219 21.164062 C 9.65625 21.238281 9.808594 21.40625 9.859375 21.621094 L 10.242188 23.273438 C 10.316406 23.589844 10.5 23.875 10.753906 24.078125 C 11.011719 24.28125 11.332031 24.394531 11.65625 24.394531 L 13.589844 24.394531 C 13.917969 24.394531 14.238281 24.28125 14.492188 24.078125 C 14.746094 23.875 14.929688 23.589844 15.003906 23.273438 L 15.390625 21.621094 C 15.4375 21.40625 15.589844 21.238281 15.796875 21.164062 C 16.09375 21.058594 16.390625 20.933594 16.675781 20.800781 C 16.871094 20.707031 17.101562 20.71875 17.289062 20.832031 L 18.730469 21.730469 C 19.007812 21.902344 19.335938 21.976562 19.660156 21.9375 C 19.984375 21.902344 20.292969 21.753906 20.523438 21.523438 L 21.886719 20.15625 C 22.117188 19.925781 22.265625 19.621094 22.304688 19.296875 C 22.339844 18.972656 22.265625 18.640625 22.09375 18.363281 L 21.589844 17.550781 L 27.445312 17.550781 C 27.589844 17.808594 27.863281 17.980469 28.179688 17.980469 C 28.644531 17.980469 29.019531 17.605469 29.019531 17.144531 C 29.019531 16.679688 28.644531 16.304688 28.179688 16.304688 C 27.863281 16.304688 27.589844 16.476562 27.445312 16.734375 L 20.839844 16.734375 C 20.617188 16.734375 20.433594 16.917969 20.433594 17.144531 C 20.433594 17.261719 20.484375 17.367188 20.5625 17.441406 L 21.402344 18.792969 C 21.5625 19.046875 21.523438 19.371094 21.3125 19.582031 L 19.945312 20.949219 C 19.734375 21.160156 19.410156 21.195312 19.160156 21.039062 L 17.71875 20.144531 C 17.296875 19.878906 16.773438 19.851562 16.324219 20.066406 C 16.066406 20.1875 15.796875 20.300781 15.523438 20.398438 C 15.058594 20.5625 14.710938 20.953125 14.597656 21.433594 L 14.210938 23.085938 C 14.144531 23.378906 13.886719 23.582031 13.589844 23.582031 L 11.65625 23.582031 C 11.359375 23.582031 11.105469 23.378906 11.035156 23.085938 L 10.648438 21.433594 C 10.539062 20.953125 10.191406 20.5625 9.722656 20.398438 C 9.453125 20.300781 9.183594 20.1875 8.921875 20.066406 C 8.472656 19.851562 7.953125 19.878906 7.53125 20.144531 L 6.089844 21.039062 C 5.835938 21.195312 5.511719 21.160156 5.300781 20.949219 L 3.933594 19.582031 C 3.722656 19.371094 3.6875 19.046875 3.84375 18.792969 L 4.738281 17.351562 C 5 16.929688 5.03125 16.410156 4.816406 15.960938 C 4.695312 15.699219 4.582031 15.429688 4.484375 15.160156 C 4.316406 14.691406 3.929688 14.34375 3.445312 14.230469 L 1.792969 13.847656 C 1.503906 13.777344 1.300781 13.523438 1.300781 13.222656 L 1.300781 12.664062 L 1.429688 12.664062 L 1.304688 12.160156 C 1.300781 12.152344 1.300781 12.144531 1.300781 12.136719 L 1.300781 11.210938 C 1.300781 10.964844 1.386719 10.722656 1.539062 10.527344 C 1.691406 10.335938 1.910156 10.195312 2.148438 10.140625 L 3.730469 9.773438 C 4.03125 9.703125 4.273438 9.488281 4.375 9.195312 C 4.472656 8.921875 4.585938 8.648438 4.710938 8.382812 C 4.84375 8.105469 4.828125 7.78125 4.664062 7.519531 L 3.808594 6.140625 C 3.675781 5.929688 3.621094 5.679688 3.648438 5.433594 C 3.675781 5.1875 3.789062 4.957031 3.964844 4.78125 L 5.269531 3.476562 C 5.445312 3.300781 5.675781 3.1875 5.921875 3.160156 C 6.167969 3.132812 6.417969 3.1875 6.628906 3.320312 L 8.007812 4.175781 C 8.269531 4.339844 8.59375 4.355469 8.871094 4.222656 C 9.136719 4.097656 9.410156 3.984375 9.683594 3.886719 C 9.976562 3.785156 10.191406 3.542969 10.261719 3.242188 L 10.628906 1.660156 C 10.6875 1.421875 10.824219 1.203125 11.015625 1.050781 C 11.210938 0.898438 11.453125 0.8125 11.699219 0.8125 L 13.546875 0.8125 C 13.796875 0.8125 14.039062 0.898438 14.230469 1.050781 C 14.425781 1.203125 14.5625 1.421875 14.617188 1.660156 L 14.988281 3.242188 C 15.054688 3.539062 15.265625 3.777344 15.550781 3.882812 C 15.597656 3.902344 15.648438 3.910156 15.699219 3.910156 L 27.9375 3.910156 C 28.082031 4.167969 28.355469 4.34375 28.671875 4.34375 Z M 6.78125 12.441406 C 6.78125 15.660156 9.402344 18.28125 12.625 18.28125 C 15.84375 18.28125 18.464844 15.660156 18.464844 12.441406 C 18.464844 12.214844 18.648438 12.035156 18.871094 12.035156 L 26.164062 12.035156 C 26.304688 11.777344 26.582031 11.601562 26.898438 11.601562 C 27.359375 11.601562 27.734375 11.976562 27.734375 12.441406 C 27.734375 12.90625 27.359375 13.28125 26.898438 13.28125 C 26.582031 13.28125 26.304688 13.105469 26.164062 12.847656 L 19.265625 12.847656 C 19.222656 13.601562 19.050781 14.335938 18.753906 15.03125 C 18.421875 15.824219 17.941406 16.535156 17.328125 17.144531 C 16.71875 17.757812 16.007812 18.238281 15.214844 18.574219 C 14.394531 18.917969 13.523438 19.09375 12.625 19.09375 C 11.726562 19.09375 10.855469 18.917969 10.035156 18.574219 C 9.242188 18.238281 8.53125 17.757812 7.917969 17.144531 C 7.308594 16.535156 6.828125 15.824219 6.492188 15.03125 C 6.144531 14.210938 5.96875 13.339844 5.96875 12.441406 C 5.96875 11.542969 6.144531 10.671875 6.492188 9.851562 C 6.828125 9.058594 7.308594 8.347656 7.917969 7.734375 C 8.53125 7.125 9.242188 6.644531 10.035156 6.308594 C 10.855469 5.960938 11.726562 5.785156 12.625 5.785156 C 13.535156 5.785156 14.417969 5.96875 15.25 6.324219 C 15.988281 6.644531 16.65625 7.085938 17.234375 7.640625 L 23.664062 7.640625 C 23.808594 7.382812 24.085938 7.210938 24.398438 7.210938 C 24.863281 7.210938 25.238281 7.585938 25.238281 8.046875 C 25.238281 8.511719 24.863281 8.886719 24.398438 8.886719 C 24.085938 8.886719 23.808594 8.710938 23.664062 8.453125 L 17.058594 8.453125 C 16.925781 8.453125 16.804688 8.390625 16.730469 8.289062 C 15.628906 7.199219 14.175781 6.597656 12.625 6.597656 C 9.402344 6.597656 6.78125 9.21875 6.78125 12.441406 " fill-opacity="1" fill-rule="nonzero"/></g></svg>