<svg xmlns="http://www.w3.org/2000/svg" xmlns:xlink="http://www.w3.org/1999/xlink" width="40" zoomAndPan="magnify" viewBox="0 0 30 30.000001" height="40" preserveAspectRatio="xMidYMid meet" version="1.0"><defs><clipPath id="350263fd6e"><path d="M 0.484375 0 L 29.515625 0 L 29.515625 29.03125 L 0.484375 29.03125 Z M 0.484375 0 " clip-rule="nonzero"/></clipPath><clipPath id="879402fd32"><path d="M 0.484375 0 L 29.515625 0 L 29.515625 29 L 0.484375 29 Z M 0.484375 0 " clip-rule="nonzero"/></clipPath></defs><g clip-path="url(#350263fd6e)"><path fill="#ffffff" d="M 0.484375 0 L 29.515625 0 L 29.515625 29.03125 L 0.484375 29.03125 Z M 0.484375 0 " fill-opacity="1" fill-rule="nonzero"/><path fill="#ffffff" d="M 0.484375 0 L 29.515625 0 L 29.515625 29.03125 L 0.484375 29.03125 Z M 0.484375 0 " fill-opacity="1" fill-rule="nonzero"/></g><g clip-path="url(#879402fd32)"><path fill="#935f3d" d="M 26.195312 4.867188 C 25.65625 4.617188 25.171875 4.273438 24.765625 3.855469 C 24.363281 3.441406 24.035156 2.957031 23.800781 2.417969 C 23.730469 2.238281 23.558594 2.113281 23.359375 2.113281 L 6.945312 2.113281 C 6.761719 2.113281 6.589844 2.222656 6.511719 2.398438 C 6.277344 2.945312 5.945312 3.4375 5.539062 3.855469 C 5.136719 4.265625 4.660156 4.605469 4.136719 4.855469 C 3.960938 4.921875 3.832031 5.09375 3.832031 5.292969 L 3.835938 8.75 C 3.835938 8.929688 3.9375 9.097656 4.109375 9.175781 C 4.644531 9.425781 5.128906 9.773438 5.539062 10.191406 C 5.941406 10.601562 6.269531 11.089844 6.503906 11.628906 C 6.570312 11.804688 6.742188 11.933594 6.945312 11.933594 L 23.359375 11.933594 C 23.542969 11.933594 23.714844 11.824219 23.792969 11.648438 C 24.027344 11.101562 24.359375 10.609375 24.765625 10.191406 C 25.167969 9.78125 25.640625 9.4375 26.167969 9.191406 C 26.34375 9.125 26.46875 8.953125 26.46875 8.75 L 26.46875 5.296875 C 26.46875 5.117188 26.367188 4.949219 26.195312 4.867188 Z M 15.152344 10.992188 C 14.054688 10.992188 13.0625 10.546875 12.347656 9.828125 C 11.628906 9.109375 11.183594 8.121094 11.183594 7.023438 C 11.183594 5.929688 11.628906 4.9375 12.347656 4.21875 C 13.0625 3.5 14.054688 3.054688 15.152344 3.054688 C 16.246094 3.054688 17.238281 3.5 17.957031 4.21875 C 18.675781 4.9375 19.117188 5.925781 19.117188 7.023438 C 19.117188 8.117188 18.675781 9.109375 17.957031 9.828125 C 17.238281 10.546875 16.246094 10.992188 15.152344 10.992188 Z M 6.210938 9.535156 C 5.792969 9.109375 5.308594 8.742188 4.777344 8.460938 L 4.777344 5.585938 C 5.308594 5.304688 5.792969 4.9375 6.210938 4.511719 C 6.625 4.085938 6.976562 3.59375 7.246094 3.058594 L 12.261719 3.058594 C 12.054688 3.207031 11.859375 3.375 11.679688 3.550781 C 10.792969 4.441406 10.242188 5.667969 10.242188 7.023438 C 10.242188 8.378906 10.792969 9.605469 11.679688 10.496094 C 11.859375 10.675781 12.054688 10.839844 12.261719 10.992188 L 7.246094 10.992188 C 6.976562 10.453125 6.625 9.964844 6.210938 9.535156 Z M 25.527344 8.460938 C 24.992188 8.742188 24.507812 9.105469 24.09375 9.535156 C 23.675781 9.960938 23.328125 10.453125 23.058594 10.992188 L 18.042969 10.992188 C 18.246094 10.839844 18.441406 10.675781 18.621094 10.496094 C 19.511719 9.605469 20.0625 8.378906 20.0625 7.023438 C 20.0625 5.667969 19.511719 4.441406 18.621094 3.550781 C 18.441406 3.371094 18.246094 3.207031 18.042969 3.054688 L 23.058594 3.054688 C 23.328125 3.59375 23.675781 4.082031 24.09375 4.511719 C 24.511719 4.9375 24.992188 5.304688 25.527344 5.585938 Z M 14.480469 5.660156 C 14.378906 5.761719 14.316406 5.902344 14.316406 6.054688 C 14.316406 6.203125 14.378906 6.34375 14.480469 6.445312 C 14.582031 6.542969 14.71875 6.609375 14.871094 6.609375 L 15.429688 6.609375 C 15.8125 6.609375 16.160156 6.765625 16.410156 7.015625 C 16.660156 7.265625 16.816406 7.613281 16.816406 7.992188 C 16.816406 8.375 16.660156 8.722656 16.410156 8.972656 L 16.382812 9 C 16.164062 9.207031 15.878906 9.34375 15.566406 9.375 L 15.566406 9.777344 C 15.566406 10.007812 15.378906 10.195312 15.152344 10.195312 C 14.921875 10.195312 14.734375 10.007812 14.734375 9.777344 L 14.734375 9.375 C 14.40625 9.339844 14.113281 9.195312 13.890625 8.972656 C 13.640625 8.722656 13.484375 8.375 13.484375 7.992188 C 13.484375 7.765625 13.671875 7.578125 13.902344 7.578125 C 14.128906 7.578125 14.316406 7.765625 14.316406 7.992188 C 14.316406 8.144531 14.378906 8.285156 14.480469 8.386719 C 14.582031 8.484375 14.71875 8.546875 14.871094 8.546875 L 15.429688 8.546875 C 15.574219 8.546875 15.707031 8.492188 15.804688 8.402344 L 15.820312 8.386719 C 15.921875 8.285156 15.984375 8.144531 15.984375 7.992188 C 15.984375 7.84375 15.921875 7.703125 15.820312 7.601562 C 15.722656 7.503906 15.582031 7.4375 15.429688 7.4375 L 14.871094 7.4375 C 14.488281 7.4375 14.140625 7.28125 13.890625 7.03125 C 13.640625 6.78125 13.484375 6.433594 13.484375 6.054688 C 13.484375 5.671875 13.640625 5.328125 13.890625 5.074219 C 14.113281 4.851562 14.40625 4.707031 14.734375 4.671875 L 14.734375 4.269531 C 14.734375 4.039062 14.921875 3.851562 15.152344 3.851562 C 15.378906 3.851562 15.566406 4.039062 15.566406 4.269531 L 15.566406 4.671875 C 15.894531 4.707031 16.1875 4.851562 16.410156 5.074219 C 16.660156 5.324219 16.816406 5.671875 16.816406 6.054688 C 16.816406 6.28125 16.628906 6.46875 16.402344 6.46875 C 16.171875 6.46875 15.984375 6.28125 15.984375 6.054688 C 15.984375 5.902344 15.921875 5.761719 15.820312 5.660156 C 15.722656 5.5625 15.582031 5.496094 15.429688 5.496094 L 15.15625 5.496094 C 15.152344 5.496094 15.152344 5.496094 15.148438 5.496094 C 15.148438 5.496094 15.148438 5.496094 15.144531 5.496094 L 14.871094 5.496094 C 14.71875 5.5 14.582031 5.5625 14.480469 5.660156 Z M 29.808594 13.679688 C 29.808594 13.109375 29.59375 12.539062 29.160156 12.109375 L 29.160156 12.105469 C 29.046875 11.996094 28.929688 11.898438 28.800781 11.816406 C 28.765625 11.792969 28.730469 11.773438 28.695312 11.75 L 28.695312 0.488281 C 28.695312 0.226562 28.484375 0.015625 28.222656 0.015625 L 2.078125 0.015625 C 1.820312 0.015625 1.609375 0.226562 1.609375 0.488281 L 1.609375 13.558594 C 1.609375 13.820312 1.820312 14.03125 2.078125 14.03125 L 19.96875 14.03125 L 18.230469 15.765625 L 8.042969 15.777344 C 8.027344 15.773438 8.015625 15.773438 8.003906 15.773438 C 7.691406 15.75 7.371094 15.796875 7.070312 15.90625 C 6.792969 16.011719 6.53125 16.171875 6.308594 16.386719 L 6.277344 16.414062 L 0.628906 22.0625 C 0.53125 22.164062 0.484375 22.296875 0.492188 22.429688 L 0.492188 28.25 C 0.492188 28.507812 0.703125 28.722656 0.960938 28.722656 L 6.105469 28.71875 C 6.230469 28.71875 6.351562 28.671875 6.445312 28.574219 L 7.726562 27.242188 L 19.503906 24.277344 C 19.882812 24.160156 20.269531 23.9375 20.644531 23.65625 C 21 23.386719 21.351562 23.066406 21.679688 22.730469 C 21.679688 22.726562 21.683594 22.726562 21.683594 22.722656 C 21.699219 22.710938 21.710938 22.699219 21.722656 22.6875 L 29.160156 15.25 C 29.59375 14.820312 29.808594 14.246094 29.808594 13.679688 Z M 2.550781 0.960938 L 27.75 0.960938 L 27.75 13.089844 L 2.550781 13.089844 Z M 24.09375 14.03125 L 20.621094 17.503906 C 20.527344 17.085938 20.316406 16.710938 20.023438 16.417969 C 19.832031 16.230469 19.613281 16.074219 19.367188 15.964844 L 21.300781 14.03125 Z M 28.867188 13.679688 C 28.867188 14.007812 28.742188 14.335938 28.496094 14.585938 L 21.058594 22.023438 C 21.050781 22.027344 21.046875 22.035156 21.039062 22.042969 C 21.027344 22.054688 21.015625 22.0625 21.003906 22.074219 C 20.707031 22.382812 20.390625 22.671875 20.082031 22.90625 C 19.796875 23.121094 19.511719 23.289062 19.25 23.375 L 7.367188 26.363281 C 7.269531 26.386719 7.1875 26.441406 7.125 26.511719 L 5.90625 27.777344 L 1.429688 27.777344 L 1.429688 22.59375 L 6.964844 17.058594 C 7.09375 16.9375 7.238281 16.84375 7.398438 16.785156 C 7.570312 16.722656 7.753906 16.699219 7.941406 16.710938 C 7.949219 16.710938 7.957031 16.710938 7.96875 16.710938 C 7.988281 16.710938 8.007812 16.714844 8.027344 16.714844 L 18.453125 16.707031 C 18.804688 16.707031 19.125 16.851562 19.355469 17.082031 L 19.355469 17.085938 C 19.589844 17.316406 19.734375 17.636719 19.734375 17.988281 L 19.734375 17.992188 C 19.734375 18.34375 19.589844 18.664062 19.355469 18.894531 C 19.125 19.128906 18.804688 19.273438 18.453125 19.273438 L 11.195312 19.273438 C 10.933594 19.273438 10.722656 19.484375 10.722656 19.742188 C 10.722656 20.003906 10.933594 20.214844 11.195312 20.214844 L 18.453125 20.214844 C 19.0625 20.214844 19.621094 19.964844 20.023438 19.5625 C 20.171875 19.410156 20.300781 19.238281 20.40625 19.050781 L 25.425781 14.03125 L 28.222656 14.03125 C 28.480469 14.03125 28.691406 13.820312 28.691406 13.558594 L 28.691406 13.03125 C 28.808594 13.230469 28.871094 13.457031 28.871094 13.679688 Z M 28.867188 13.679688 " fill-opacity="1" fill-rule="nonzero"/></g></svg>