<svg xmlns="http://www.w3.org/2000/svg" xmlns:xlink="http://www.w3.org/1999/xlink" width="40" zoomAndPan="magnify" viewBox="0 0 30 30.000001" height="40" preserveAspectRatio="xMidYMid meet" version="1.0"><defs><clipPath id="eba16ad1fe"><path d="M 0.484375 0 L 29.515625 0 L 29.515625 29.03125 L 0.484375 29.03125 Z M 0.484375 0 " clip-rule="nonzero"/></clipPath><clipPath id="e42f89afa1"><path d="M 4.4375 0 L 25.484375 0 L 25.484375 22.5 L 4.4375 22.5 Z M 4.4375 0 " clip-rule="nonzero"/></clipPath><clipPath id="2624c85c62"><path d="M 9.195312 25 L 20.804688 25 L 20.804688 28.34375 L 9.195312 28.34375 Z M 9.195312 25 " clip-rule="nonzero"/></clipPath><clipPath id="8788d0cc80"><path d="M 12 23.988281 L 14 23.988281 L 14 27 L 12 27 Z M 12 23.988281 " clip-rule="nonzero"/></clipPath><clipPath id="f0a18bd2a0"><path d="M 16 23.988281 L 18 23.988281 L 18 27 L 16 27 Z M 16 23.988281 " clip-rule="nonzero"/></clipPath><clipPath id="8b9d7b6784"><path d="M 18 23.988281 L 20 23.988281 L 20 26 L 18 26 Z M 18 23.988281 " clip-rule="nonzero"/></clipPath></defs><g clip-path="url(#eba16ad1fe)"><path fill="#ffffff" d="M 0.484375 0 L 29.515625 0 L 29.515625 29.03125 L 0.484375 29.03125 Z M 0.484375 0 " fill-opacity="1" fill-rule="nonzero"/><path fill="#ffffff" d="M 0.484375 0 L 29.515625 0 L 29.515625 29.03125 L 0.484375 29.03125 Z M 0.484375 0 " fill-opacity="1" fill-rule="nonzero"/></g><g clip-path="url(#e42f89afa1)"><path fill="#935f3d" d="M 25.089844 21.652344 L 23.210938 21.652344 L 23.210938 20.246094 L 24.621094 20.246094 C 24.878906 20.246094 25.089844 20.035156 25.089844 19.773438 L 25.089844 7.105469 C 25.089844 6.941406 25.003906 6.785156 24.863281 6.703125 C 22.375 5.210938 22.488281 5.269531 22.398438 5.246094 C 22.382812 5.238281 22.363281 5.234375 22.34375 5.234375 C 22.339844 5.230469 22.332031 5.230469 22.328125 5.230469 C 22.285156 5.226562 22.246094 5.226562 22.207031 5.234375 C 22.15625 5.238281 20.660156 5.488281 19.457031 5.691406 L 19.457031 2.410156 C 19.457031 2.269531 19.394531 2.132812 19.28125 2.046875 C 16.722656 0 16.925781 0.15625 16.863281 0.121094 C 16.789062 0.0820312 16.703125 0.0625 16.625 0.0664062 C 16.609375 0.0664062 16.597656 0.0664062 16.582031 0.0703125 C 16.578125 0.0703125 16.550781 0.0742188 16.503906 0.0859375 C 16.460938 0.101562 14.425781 1.03125 10.816406 2.671875 C 10.648438 2.75 10.542969 2.917969 10.542969 3.101562 L 10.542969 6.425781 C 7.257812 5.195312 7.410156 5.25 7.355469 5.238281 C 7.292969 5.226562 7.230469 5.226562 7.167969 5.238281 C 7.160156 5.238281 7.152344 5.238281 7.148438 5.242188 C 7.109375 5.25 7.074219 5.261719 7.035156 5.285156 C 7.027344 5.285156 7.023438 5.289062 7.015625 5.292969 C 7.007812 5.300781 7 5.304688 6.988281 5.3125 C 6.988281 5.3125 6.984375 5.316406 6.980469 5.316406 C 6.949219 5.339844 5.566406 6.378906 5.097656 6.730469 C 4.980469 6.816406 4.910156 6.957031 4.910156 7.105469 L 4.910156 19.773438 C 4.910156 20.035156 5.121094 20.246094 5.378906 20.246094 L 5.847656 20.246094 L 5.847656 21.652344 L 4.910156 21.652344 C 4.652344 21.652344 4.441406 21.863281 4.441406 22.121094 C 4.441406 22.378906 4.652344 22.589844 4.910156 22.589844 C 5.183594 22.589844 24.8125 22.589844 25.089844 22.589844 C 25.347656 22.589844 25.558594 22.378906 25.558594 22.121094 C 25.558594 21.863281 25.347656 21.652344 25.089844 21.652344 Z M 22.273438 21.652344 L 20.867188 21.652344 L 20.867188 20.246094 L 22.273438 20.246094 Z M 24.152344 19.304688 L 22.742188 19.304688 L 22.742188 6.527344 L 24.152344 7.371094 Z M 21.804688 19.304688 L 20.867188 19.304688 L 20.867188 17.429688 C 20.867188 17.167969 20.65625 16.960938 20.398438 16.960938 L 17.113281 16.960938 L 17.113281 7.03125 L 21.804688 6.25 Z M 18.519531 5.847656 L 17.113281 6.082031 L 17.113281 1.511719 L 18.519531 2.636719 Z M 11.480469 3.402344 L 16.171875 1.265625 C 16.171875 1.882812 16.171875 16.222656 16.171875 16.960938 L 12.886719 16.960938 C 12.628906 16.960938 12.417969 17.167969 12.417969 17.429688 L 12.417969 19.304688 L 11.480469 19.304688 C 11.480469 18.542969 11.480469 4.152344 11.480469 3.402344 Z M 10.542969 19.304688 L 7.726562 19.304688 L 7.726562 6.375 L 10.542969 7.429688 Z M 5.847656 7.339844 L 6.789062 6.636719 L 6.789062 19.304688 C 6.460938 19.304688 6.175781 19.304688 5.847656 19.304688 Z M 6.789062 20.246094 C 7.925781 20.246094 11.277344 20.246094 12.417969 20.246094 L 12.417969 21.652344 L 6.789062 21.652344 Z M 13.359375 21.652344 C 13.359375 21.199219 13.359375 18.355469 13.359375 17.898438 C 14.152344 17.898438 19.128906 17.898438 19.925781 17.898438 C 19.925781 18.351562 19.925781 21.195312 19.925781 21.652344 Z M 13.359375 21.652344 " fill-opacity="1" fill-rule="nonzero"/></g><path fill="#935f3d" d="M 12.417969 3.820312 L 13.359375 3.820312 L 13.359375 5.695312 L 12.417969 5.695312 Z M 12.417969 3.820312 " fill-opacity="1" fill-rule="nonzero"/><path fill="#935f3d" d="M 13.828125 3.820312 L 14.765625 3.820312 L 14.765625 5.695312 L 13.828125 5.695312 Z M 13.828125 3.820312 " fill-opacity="1" fill-rule="nonzero"/><path fill="#935f3d" d="M 12.417969 6.167969 L 13.359375 6.167969 L 13.359375 8.042969 L 12.417969 8.042969 Z M 12.417969 6.167969 " fill-opacity="1" fill-rule="nonzero"/><path fill="#935f3d" d="M 13.828125 6.167969 L 14.765625 6.167969 L 14.765625 8.042969 L 13.828125 8.042969 Z M 13.828125 6.167969 " fill-opacity="1" fill-rule="nonzero"/><path fill="#935f3d" d="M 12.417969 8.511719 L 13.359375 8.511719 L 13.359375 10.390625 L 12.417969 10.390625 Z M 12.417969 8.511719 " fill-opacity="1" fill-rule="nonzero"/><path fill="#935f3d" d="M 13.828125 8.511719 L 14.765625 8.511719 L 14.765625 10.390625 L 13.828125 10.390625 Z M 13.828125 8.511719 " fill-opacity="1" fill-rule="nonzero"/><path fill="#935f3d" d="M 12.417969 10.859375 L 13.359375 10.859375 L 13.359375 12.734375 L 12.417969 12.734375 Z M 12.417969 10.859375 " fill-opacity="1" fill-rule="nonzero"/><path fill="#935f3d" d="M 8.664062 8.511719 L 9.601562 8.511719 L 9.601562 10.390625 L 8.664062 10.390625 Z M 8.664062 8.511719 " fill-opacity="1" fill-rule="nonzero"/><path fill="#935f3d" d="M 8.664062 10.859375 L 9.601562 10.859375 L 9.601562 12.734375 L 8.664062 12.734375 Z M 8.664062 10.859375 " fill-opacity="1" fill-rule="nonzero"/><path fill="#935f3d" d="M 8.664062 13.207031 L 9.601562 13.207031 L 9.601562 15.082031 L 8.664062 15.082031 Z M 8.664062 13.207031 " fill-opacity="1" fill-rule="nonzero"/><path fill="#935f3d" d="M 8.664062 15.550781 L 9.601562 15.550781 L 9.601562 17.429688 L 8.664062 17.429688 Z M 8.664062 15.550781 " fill-opacity="1" fill-rule="nonzero"/><path fill="#935f3d" d="M 13.828125 10.859375 L 14.765625 10.859375 L 14.765625 12.734375 L 13.828125 12.734375 Z M 13.828125 10.859375 " fill-opacity="1" fill-rule="nonzero"/><path fill="#935f3d" d="M 17.582031 7.574219 L 18.519531 7.574219 L 18.519531 8.980469 L 17.582031 8.980469 Z M 17.582031 7.574219 " fill-opacity="1" fill-rule="nonzero"/><path fill="#935f3d" d="M 18.988281 7.574219 L 19.925781 7.574219 L 19.925781 8.980469 L 18.988281 8.980469 Z M 18.988281 7.574219 " fill-opacity="1" fill-rule="nonzero"/><path fill="#935f3d" d="M 20.398438 7.574219 L 21.335938 7.574219 L 21.335938 8.980469 L 20.398438 8.980469 Z M 20.398438 7.574219 " fill-opacity="1" fill-rule="nonzero"/><path fill="#935f3d" d="M 17.582031 9.449219 L 18.519531 9.449219 L 18.519531 10.859375 L 17.582031 10.859375 Z M 17.582031 9.449219 " fill-opacity="1" fill-rule="nonzero"/><path fill="#935f3d" d="M 18.988281 9.449219 L 19.925781 9.449219 L 19.925781 10.859375 L 18.988281 10.859375 Z M 18.988281 9.449219 " fill-opacity="1" fill-rule="nonzero"/><path fill="#935f3d" d="M 20.398438 9.449219 L 21.335938 9.449219 L 21.335938 10.859375 L 20.398438 10.859375 Z M 20.398438 9.449219 " fill-opacity="1" fill-rule="nonzero"/><path fill="#935f3d" d="M 17.582031 11.328125 L 18.519531 11.328125 L 18.519531 12.734375 L 17.582031 12.734375 Z M 17.582031 11.328125 " fill-opacity="1" fill-rule="nonzero"/><path fill="#935f3d" d="M 18.988281 11.328125 L 19.925781 11.328125 L 19.925781 12.734375 L 18.988281 12.734375 Z M 18.988281 11.328125 " fill-opacity="1" fill-rule="nonzero"/><path fill="#935f3d" d="M 20.398438 11.328125 L 21.335938 11.328125 L 21.335938 12.734375 L 20.398438 12.734375 Z M 20.398438 11.328125 " fill-opacity="1" fill-rule="nonzero"/><path fill="#935f3d" d="M 17.582031 13.207031 L 18.519531 13.207031 L 18.519531 14.613281 L 17.582031 14.613281 Z M 17.582031 13.207031 " fill-opacity="1" fill-rule="nonzero"/><path fill="#935f3d" d="M 18.988281 13.207031 L 19.925781 13.207031 L 19.925781 14.613281 L 18.988281 14.613281 Z M 18.988281 13.207031 " fill-opacity="1" fill-rule="nonzero"/><path fill="#935f3d" d="M 17.582031 15.082031 L 18.519531 15.082031 L 18.519531 16.488281 L 17.582031 16.488281 Z M 17.582031 15.082031 " fill-opacity="1" fill-rule="nonzero"/><path fill="#935f3d" d="M 12.417969 13.207031 L 13.359375 13.207031 L 13.359375 15.082031 L 12.417969 15.082031 Z M 12.417969 13.207031 " fill-opacity="1" fill-rule="nonzero"/><path fill="#935f3d" d="M 14.296875 18.367188 L 18.988281 18.367188 L 18.988281 19.304688 L 14.296875 19.304688 Z M 14.296875 18.367188 " fill-opacity="1" fill-rule="nonzero"/><path fill="#935f3d" d="M 14.296875 19.773438 L 18.988281 19.773438 L 18.988281 20.714844 L 14.296875 20.714844 Z M 14.296875 19.773438 " fill-opacity="1" fill-rule="nonzero"/><g clip-path="url(#2624c85c62)"><path fill="#935f3d" d="M 18.867188 25.96875 C 19.039062 25.992188 19.207031 26.023438 19.375 26.0625 C 19.542969 26.097656 19.710938 26.140625 19.878906 26.191406 C 20.042969 26.246094 20.207031 26.304688 20.363281 26.386719 C 20.441406 26.425781 20.519531 26.472656 20.589844 26.527344 C 20.625 26.554688 20.660156 26.589844 20.691406 26.625 C 20.722656 26.660156 20.75 26.699219 20.773438 26.746094 C 20.792969 26.792969 20.804688 26.84375 20.804688 26.898438 C 20.804688 26.953125 20.789062 27.003906 20.769531 27.050781 C 20.746094 27.097656 20.71875 27.136719 20.6875 27.171875 C 20.65625 27.210938 20.621094 27.242188 20.585938 27.273438 C 20.515625 27.332031 20.4375 27.378906 20.359375 27.421875 C 20.28125 27.46875 20.203125 27.503906 20.121094 27.542969 C 19.960938 27.613281 19.796875 27.667969 19.628906 27.722656 C 19.460938 27.773438 19.292969 27.816406 19.125 27.855469 C 18.785156 27.9375 18.445312 28 18.101562 28.050781 C 17.761719 28.101562 17.417969 28.140625 17.070312 28.171875 C 16.726562 28.203125 16.382812 28.226562 16.035156 28.238281 C 15.691406 28.253906 15.34375 28.261719 15 28.261719 C 14.65625 28.261719 14.308594 28.253906 13.964844 28.238281 C 13.617188 28.226562 13.273438 28.203125 12.929688 28.171875 C 12.585938 28.140625 12.238281 28.101562 11.898438 28.050781 C 11.554688 28 11.214844 27.9375 10.875 27.855469 C 10.707031 27.816406 10.539062 27.773438 10.371094 27.722656 C 10.203125 27.667969 10.039062 27.613281 9.878906 27.542969 C 9.796875 27.507812 9.71875 27.46875 9.640625 27.421875 C 9.5625 27.378906 9.484375 27.332031 9.414062 27.273438 C 9.378906 27.242188 9.34375 27.210938 9.3125 27.171875 C 9.28125 27.136719 9.253906 27.097656 9.230469 27.050781 C 9.210938 27.003906 9.195312 26.953125 9.195312 26.898438 C 9.195312 26.84375 9.207031 26.792969 9.226562 26.746094 C 9.25 26.699219 9.277344 26.660156 9.308594 26.625 C 9.339844 26.589844 9.375 26.554688 9.410156 26.527344 C 9.480469 26.472656 9.558594 26.425781 9.636719 26.386719 C 9.792969 26.304688 9.957031 26.242188 10.121094 26.191406 C 10.289062 26.140625 10.457031 26.097656 10.625 26.0625 C 10.792969 26.023438 10.960938 25.992188 11.132812 25.96875 C 10.964844 26.007812 10.796875 26.050781 10.632812 26.097656 C 10.46875 26.148438 10.304688 26.199219 10.148438 26.261719 C 9.988281 26.320312 9.832031 26.390625 9.683594 26.472656 C 9.613281 26.515625 9.542969 26.5625 9.484375 26.617188 C 9.453125 26.640625 9.425781 26.671875 9.402344 26.699219 C 9.375 26.730469 9.355469 26.761719 9.34375 26.796875 C 9.332031 26.828125 9.324219 26.863281 9.328125 26.894531 C 9.328125 26.925781 9.339844 26.957031 9.355469 26.988281 C 9.371094 27.019531 9.394531 27.050781 9.417969 27.078125 C 9.445312 27.105469 9.476562 27.132812 9.507812 27.15625 C 9.570312 27.203125 9.640625 27.246094 9.714844 27.285156 C 9.789062 27.320312 9.863281 27.355469 9.941406 27.382812 C 10.253906 27.507812 10.585938 27.589844 10.917969 27.660156 C 11.585938 27.792969 12.265625 27.875 12.949219 27.925781 C 13.289062 27.953125 13.632812 27.972656 13.972656 27.984375 C 14.316406 27.996094 14.65625 28.003906 15 28.003906 C 15.34375 28.003906 15.683594 27.996094 16.027344 27.984375 C 16.367188 27.972656 16.710938 27.953125 17.050781 27.929688 C 17.734375 27.875 18.414062 27.796875 19.082031 27.660156 C 19.414062 27.589844 19.746094 27.507812 20.058594 27.386719 C 20.136719 27.355469 20.210938 27.320312 20.285156 27.285156 C 20.359375 27.246094 20.429688 27.203125 20.492188 27.15625 C 20.527344 27.132812 20.554688 27.105469 20.582031 27.078125 C 20.605469 27.050781 20.628906 27.019531 20.644531 26.988281 C 20.660156 26.957031 20.671875 26.925781 20.671875 26.894531 C 20.675781 26.863281 20.667969 26.828125 20.65625 26.796875 C 20.644531 26.761719 20.625 26.730469 20.601562 26.699219 C 20.574219 26.671875 20.546875 26.640625 20.515625 26.617188 C 20.457031 26.5625 20.386719 26.515625 20.316406 26.472656 C 20.171875 26.390625 20.011719 26.320312 19.855469 26.261719 C 19.695312 26.199219 19.53125 26.148438 19.367188 26.097656 C 19.203125 26.050781 19.035156 26.007812 18.867188 25.96875 " fill-opacity="1" fill-rule="nonzero"/></g><g clip-path="url(#8788d0cc80)"><path fill="#935f3d" d="M 13.652344 25.839844 C 13.652344 25.953125 13.632812 26.058594 13.589844 26.152344 C 13.546875 26.246094 13.488281 26.328125 13.410156 26.394531 C 13.332031 26.460938 13.238281 26.511719 13.128906 26.546875 C 13.019531 26.582031 12.902344 26.601562 12.769531 26.601562 C 12.652344 26.601562 12.542969 26.589844 12.4375 26.5625 C 12.335938 26.539062 12.242188 26.503906 12.160156 26.453125 L 12.160156 26.09375 C 12.203125 26.125 12.253906 26.152344 12.304688 26.179688 C 12.359375 26.203125 12.410156 26.226562 12.464844 26.242188 C 12.515625 26.261719 12.566406 26.273438 12.617188 26.285156 C 12.667969 26.292969 12.714844 26.300781 12.757812 26.300781 C 12.929688 26.300781 13.050781 26.261719 13.132812 26.179688 C 13.210938 26.101562 13.25 25.992188 13.25 25.855469 C 13.25 25.789062 13.234375 25.730469 13.207031 25.675781 C 13.175781 25.625 13.136719 25.578125 13.082031 25.542969 C 13.027344 25.507812 12.960938 25.480469 12.886719 25.460938 C 12.8125 25.445312 12.730469 25.433594 12.640625 25.433594 L 12.449219 25.433594 L 12.449219 25.113281 L 12.570312 25.113281 C 12.671875 25.113281 12.757812 25.101562 12.832031 25.078125 C 12.910156 25.054688 12.96875 25.023438 13.019531 24.984375 C 13.070312 24.945312 13.105469 24.898438 13.128906 24.84375 C 13.152344 24.789062 13.164062 24.734375 13.164062 24.671875 C 13.164062 24.605469 13.15625 24.546875 13.136719 24.5 C 13.113281 24.453125 13.085938 24.414062 13.050781 24.382812 C 13.015625 24.355469 12.972656 24.332031 12.925781 24.316406 C 12.878906 24.304688 12.824219 24.296875 12.765625 24.296875 C 12.730469 24.296875 12.6875 24.300781 12.636719 24.3125 C 12.589844 24.320312 12.539062 24.332031 12.488281 24.351562 C 12.433594 24.367188 12.382812 24.390625 12.328125 24.414062 C 12.277344 24.4375 12.226562 24.464844 12.179688 24.496094 L 12.179688 24.15625 C 12.273438 24.097656 12.371094 24.054688 12.476562 24.027344 C 12.582031 24 12.691406 23.988281 12.804688 23.988281 C 12.921875 23.988281 13.03125 24 13.121094 24.03125 C 13.214844 24.0625 13.292969 24.105469 13.359375 24.164062 C 13.421875 24.21875 13.472656 24.289062 13.507812 24.367188 C 13.539062 24.449219 13.558594 24.542969 13.558594 24.644531 C 13.558594 24.71875 13.546875 24.785156 13.519531 24.847656 C 13.496094 24.914062 13.464844 24.96875 13.421875 25.023438 C 13.378906 25.074219 13.328125 25.121094 13.269531 25.160156 C 13.210938 25.199219 13.148438 25.230469 13.082031 25.253906 C 13.167969 25.269531 13.246094 25.296875 13.316406 25.332031 C 13.386719 25.367188 13.445312 25.410156 13.496094 25.460938 C 13.546875 25.511719 13.585938 25.570312 13.613281 25.636719 C 13.640625 25.699219 13.652344 25.765625 13.652344 25.839844 " fill-opacity="1" fill-rule="nonzero"/></g><path fill="#935f3d" d="M 15.378906 25.800781 C 15.378906 25.71875 15.367188 25.648438 15.34375 25.589844 C 15.320312 25.535156 15.285156 25.488281 15.242188 25.449219 C 15.203125 25.410156 15.152344 25.382812 15.09375 25.367188 C 15.039062 25.347656 14.976562 25.339844 14.910156 25.339844 C 14.847656 25.339844 14.785156 25.347656 14.726562 25.363281 C 14.667969 25.378906 14.617188 25.394531 14.578125 25.414062 C 14.554688 25.457031 14.539062 25.511719 14.53125 25.570312 C 14.519531 25.632812 14.515625 25.691406 14.515625 25.75 C 14.515625 25.839844 14.527344 25.921875 14.546875 25.988281 C 14.570312 26.054688 14.597656 26.113281 14.636719 26.15625 C 14.675781 26.203125 14.722656 26.234375 14.777344 26.257812 C 14.828125 26.28125 14.886719 26.292969 14.949219 26.292969 C 15.015625 26.292969 15.074219 26.28125 15.125 26.257812 C 15.179688 26.234375 15.222656 26.203125 15.261719 26.160156 C 15.300781 26.121094 15.328125 26.070312 15.347656 26.007812 C 15.371094 25.945312 15.378906 25.878906 15.378906 25.800781 Z M 15.773438 25.777344 C 15.773438 25.894531 15.753906 26.003906 15.714844 26.105469 C 15.675781 26.207031 15.617188 26.292969 15.546875 26.367188 C 15.472656 26.441406 15.386719 26.496094 15.285156 26.539062 C 15.183594 26.578125 15.074219 26.601562 14.949219 26.601562 C 14.820312 26.601562 14.703125 26.582031 14.601562 26.539062 C 14.5 26.5 14.414062 26.441406 14.34375 26.367188 C 14.277344 26.292969 14.222656 26.203125 14.1875 26.09375 C 14.152344 25.988281 14.136719 25.871094 14.136719 25.738281 C 14.136719 25.609375 14.15625 25.472656 14.199219 25.324219 C 14.242188 25.179688 14.300781 25.03125 14.375 24.878906 C 14.453125 24.730469 14.542969 24.582031 14.648438 24.433594 C 14.757812 24.289062 14.875 24.148438 15.003906 24.019531 L 15.421875 24.019531 C 15.34375 24.109375 15.269531 24.199219 15.195312 24.292969 C 15.121094 24.386719 15.054688 24.476562 14.988281 24.566406 C 14.925781 24.660156 14.867188 24.746094 14.816406 24.835938 C 14.765625 24.921875 14.722656 25.003906 14.6875 25.082031 C 14.726562 25.074219 14.769531 25.066406 14.820312 25.058594 C 14.871094 25.054688 14.925781 25.050781 14.988281 25.050781 C 15.09375 25.050781 15.191406 25.066406 15.289062 25.097656 C 15.382812 25.128906 15.464844 25.175781 15.535156 25.238281 C 15.609375 25.296875 15.664062 25.375 15.707031 25.464844 C 15.75 25.554688 15.773438 25.660156 15.773438 25.777344 " fill-opacity="1" fill-rule="nonzero"/><g clip-path="url(#f0a18bd2a0)"><path fill="#935f3d" d="M 17.457031 25.3125 C 17.457031 24.96875 17.417969 24.714844 17.335938 24.542969 C 17.257812 24.375 17.144531 24.289062 16.992188 24.289062 C 16.828125 24.289062 16.707031 24.375 16.625 24.546875 C 16.542969 24.71875 16.5 24.980469 16.5 25.332031 C 16.5 25.65625 16.539062 25.894531 16.621094 26.054688 C 16.703125 26.214844 16.824219 26.296875 16.980469 26.296875 C 17.136719 26.296875 17.253906 26.214844 17.335938 26.050781 C 17.414062 25.890625 17.457031 25.644531 17.457031 25.3125 Z M 17.839844 25.285156 C 17.839844 25.492188 17.820312 25.675781 17.78125 25.839844 C 17.742188 26 17.683594 26.140625 17.605469 26.253906 C 17.53125 26.367188 17.4375 26.453125 17.328125 26.511719 C 17.21875 26.570312 17.09375 26.601562 16.957031 26.601562 C 16.820312 26.601562 16.695312 26.574219 16.59375 26.515625 C 16.488281 26.460938 16.398438 26.378906 16.328125 26.273438 C 16.257812 26.167969 16.203125 26.035156 16.167969 25.878906 C 16.132812 25.722656 16.113281 25.542969 16.113281 25.34375 C 16.113281 25.125 16.132812 24.933594 16.167969 24.765625 C 16.203125 24.597656 16.257812 24.453125 16.332031 24.339844 C 16.40625 24.222656 16.5 24.136719 16.613281 24.074219 C 16.722656 24.015625 16.855469 23.988281 17.003906 23.988281 C 17.5625 23.988281 17.839844 24.417969 17.839844 25.285156 " fill-opacity="1" fill-rule="nonzero"/></g><g clip-path="url(#8b9d7b6784)"><path fill="#935f3d" d="M 18.445312 24.496094 C 18.445312 24.53125 18.449219 24.566406 18.464844 24.597656 C 18.476562 24.628906 18.496094 24.65625 18.519531 24.679688 C 18.542969 24.703125 18.566406 24.71875 18.597656 24.734375 C 18.625 24.746094 18.65625 24.753906 18.6875 24.753906 C 18.722656 24.753906 18.753906 24.746094 18.78125 24.734375 C 18.8125 24.71875 18.835938 24.703125 18.859375 24.679688 C 18.882812 24.65625 18.898438 24.628906 18.914062 24.597656 C 18.925781 24.566406 18.933594 24.53125 18.933594 24.496094 C 18.933594 24.460938 18.925781 24.425781 18.914062 24.394531 C 18.898438 24.363281 18.882812 24.335938 18.859375 24.3125 C 18.835938 24.289062 18.8125 24.273438 18.78125 24.257812 C 18.753906 24.246094 18.722656 24.238281 18.6875 24.238281 C 18.65625 24.238281 18.625 24.246094 18.597656 24.257812 C 18.566406 24.273438 18.542969 24.289062 18.519531 24.3125 C 18.496094 24.335938 18.476562 24.363281 18.464844 24.394531 C 18.449219 24.425781 18.445312 24.460938 18.445312 24.496094 Z M 18.164062 24.496094 C 18.164062 24.425781 18.179688 24.359375 18.207031 24.296875 C 18.234375 24.238281 18.269531 24.183594 18.320312 24.136719 C 18.367188 24.089844 18.421875 24.054688 18.484375 24.027344 C 18.546875 24 18.617188 23.988281 18.6875 23.988281 C 18.761719 23.988281 18.832031 24 18.894531 24.027344 C 18.957031 24.054688 19.015625 24.089844 19.0625 24.136719 C 19.109375 24.183594 19.144531 24.238281 19.171875 24.296875 C 19.199219 24.359375 19.214844 24.425781 19.214844 24.496094 C 19.214844 24.566406 19.199219 24.632812 19.171875 24.695312 C 19.144531 24.757812 19.109375 24.8125 19.0625 24.855469 C 19.015625 24.902344 18.957031 24.9375 18.894531 24.964844 C 18.832031 24.992188 18.761719 25.003906 18.6875 25.003906 C 18.617188 25.003906 18.546875 24.992188 18.484375 24.964844 C 18.421875 24.9375 18.367188 24.902344 18.320312 24.855469 C 18.269531 24.8125 18.234375 24.757812 18.207031 24.695312 C 18.179688 24.632812 18.164062 24.566406 18.164062 24.496094 " fill-opacity="1" fill-rule="nonzero"/></g></svg>