<svg xmlns="http://www.w3.org/2000/svg" xmlns:xlink="http://www.w3.org/1999/xlink" width="40" zoomAndPan="magnify" viewBox="0 0 30 30.000001" height="40" preserveAspectRatio="xMidYMid meet" version="1.0"><defs><clipPath id="f6e56c394a"><path d="M 0.484375 0 L 29.515625 0 L 29.515625 29.03125 L 0.484375 29.03125 Z M 0.484375 0 " clip-rule="nonzero"/></clipPath><clipPath id="02e221b9cc"><path d="M 1 0.898438 L 29.265625 0.898438 L 29.265625 28.480469 L 1 28.480469 Z M 1 0.898438 " clip-rule="nonzero"/></clipPath></defs><g clip-path="url(#f6e56c394a)"><path fill="#ffffff" d="M 0.484375 0 L 29.515625 0 L 29.515625 29.03125 L 0.484375 29.03125 Z M 0.484375 0 " fill-opacity="1" fill-rule="nonzero"/><path fill="#ffffff" d="M 0.484375 0 L 29.515625 0 L 29.515625 29.03125 L 0.484375 29.03125 Z M 0.484375 0 " fill-opacity="1" fill-rule="nonzero"/></g><path fill="#96d9f0" d="M 20.101562 8.5 L 20.101562 17.070312 L 10.128906 17.070312 L 10.128906 8.5 L 10.953125 8.5 L 15.113281 4.898438 L 19.277344 8.5 Z M 20.101562 8.5 " fill-opacity="1" fill-rule="evenodd"/><path fill="#c8eaf6" d="M 20.101562 8.5 L 20.101562 15.660156 C 15.421875 15.613281 11.558594 12.527344 10.851562 8.5 L 10.953125 8.5 L 15.113281 4.898438 L 19.277344 8.5 Z M 20.101562 8.5 " fill-opacity="1" fill-rule="evenodd"/><path fill="#ecf8fe" d="M 13.539062 13.3125 L 16.691406 13.3125 L 16.691406 17.070312 L 13.539062 17.070312 Z M 13.539062 13.3125 " fill-opacity="1" fill-rule="evenodd"/><path fill="#ecf8fe" d="M 11.691406 9.90625 L 13.714844 9.90625 L 13.714844 11.769531 L 11.691406 11.769531 Z M 11.691406 9.90625 " fill-opacity="1" fill-rule="evenodd"/><path fill="#ecf8fe" d="M 16.515625 9.90625 L 18.539062 9.90625 L 18.539062 11.769531 L 16.515625 11.769531 Z M 16.515625 9.90625 " fill-opacity="1" fill-rule="evenodd"/><path fill="#ecf8fe" d="M 7.9375 8.5 L 14.515625 3.464844 C 14.890625 3.179688 15.382812 3.199219 15.730469 3.480469 L 22.292969 8.5 L 18.828125 8.5 L 15.113281 5.660156 L 11.402344 8.5 Z M 7.9375 8.5 " fill-opacity="1" fill-rule="nonzero"/><path fill="#c8eaf6" d="M 17.234375 24.175781 C 17.917969 24.867188 16.546875 26.0625 15.84375 25.421875 C 15.753906 25.34375 15.429688 25.046875 15.339844 24.980469 C 15.734375 25.640625 14.484375 26.671875 13.554688 25.742188 C 11.738281 23.914062 11.421875 23.5 9.617188 21.722656 L 7.996094 20.546875 L 9.679688 15.289062 L 14.738281 16.414062 C 15.699219 17.457031 17.074219 18.84375 17.617188 19.386719 L 19.902344 21.660156 C 20.480469 22.242188 19.242188 23.558594 18.546875 22.859375 C 19.242188 23.558594 17.929688 24.875 17.234375 24.175781 Z M 17.234375 24.175781 " fill-opacity="1" fill-rule="evenodd"/><path fill="#ecf8fe" d="M 9.886719 15.335938 L 14.738281 16.414062 C 15.699219 17.457031 17.074219 18.84375 17.617188 19.382812 L 18.363281 20.128906 C 17.917969 20.175781 17.457031 20.199219 16.984375 20.199219 C 12.949219 20.199219 9.679688 18.4375 9.679688 16.265625 C 9.679688 15.945312 9.75 15.632812 9.886719 15.335938 Z M 9.886719 15.335938 " fill-opacity="1" fill-rule="evenodd"/><path fill="#c8eaf6" d="M 19.921875 15.433594 L 22.4375 20.421875 L 19.957031 21.71875 L 17.617188 19.386719 C 16.691406 18.460938 15.96875 18.464844 15.253906 18.949219 C 13.113281 20.40625 11.382812 18.433594 12.386719 17.832031 L 14.644531 16.480469 C 14.671875 16.464844 14.699219 16.4375 14.738281 16.414062 C 15.207031 16.113281 19.179688 15.632812 19.921875 15.433594 Z M 19.921875 15.433594 " fill-opacity="1" fill-rule="evenodd"/><path fill="#ecf8fe" d="M 19.921875 15.433594 L 21.488281 18.539062 C 21.476562 18.539062 21.46875 18.539062 21.457031 18.539062 C 18.582031 18.539062 16.09375 17.644531 14.902344 16.34375 C 15.789062 16.042969 19.234375 15.617188 19.921875 15.433594 Z M 19.921875 15.433594 " fill-opacity="1" fill-rule="evenodd"/><path fill="#96d9f0" d="M 8.621094 14.117188 L 10.25 14.6875 C 10.542969 14.792969 10.695312 15.113281 10.59375 15.410156 L 8.601562 21.121094 C 8.5 21.414062 8.175781 21.570312 7.886719 21.46875 L 6.253906 20.894531 C 5.960938 20.792969 5.808594 20.46875 5.910156 20.175781 L 7.902344 14.460938 C 8.003906 14.167969 8.328125 14.011719 8.621094 14.117188 Z M 8.621094 14.117188 " fill-opacity="1" fill-rule="evenodd"/><path fill="#c8eaf6" d="M 8.621094 14.117188 L 10.25 14.6875 C 10.542969 14.792969 10.695312 15.113281 10.59375 15.410156 L 9.609375 18.230469 C 8.542969 18.023438 7.660156 17.347656 7.210938 16.441406 L 7.902344 14.460938 C 8.003906 14.167969 8.328125 14.011719 8.621094 14.117188 Z M 8.621094 14.117188 " fill-opacity="1" fill-rule="evenodd"/><path fill="#96d9f0" d="M 21.609375 14.117188 L 19.980469 14.6875 C 19.6875 14.792969 19.53125 15.113281 19.636719 15.410156 L 21.628906 21.121094 C 21.730469 21.414062 22.054688 21.570312 22.347656 21.46875 L 23.976562 20.894531 C 24.269531 20.792969 24.421875 20.46875 24.320312 20.175781 L 22.328125 14.460938 C 22.222656 14.167969 21.902344 14.011719 21.609375 14.117188 Z M 21.609375 14.117188 " fill-opacity="1" fill-rule="evenodd"/><path fill="#c8eaf6" d="M 21.609375 14.117188 L 19.980469 14.6875 C 19.6875 14.792969 19.53125 15.113281 19.636719 15.410156 L 20.238281 17.132812 C 20.742188 17.410156 21.328125 17.566406 21.953125 17.566406 C 22.4375 17.566406 22.902344 17.472656 23.320312 17.300781 L 22.328125 14.460938 C 22.222656 14.167969 21.902344 14.011719 21.609375 14.117188 Z M 21.609375 14.117188 " fill-opacity="1" fill-rule="evenodd"/><path fill="#c8eaf6" d="M 11.292969 20.8125 C 11.585938 21.101562 11.589844 21.574219 11.300781 21.867188 L 10.4375 22.753906 C 10.148438 23.046875 9.679688 23.050781 9.386719 22.761719 C 9.09375 22.472656 9.089844 22 9.378906 21.707031 L 10.242188 20.824219 C 10.53125 20.53125 11.003906 20.527344 11.292969 20.8125 Z M 11.292969 20.8125 " fill-opacity="1" fill-rule="evenodd"/><path fill="#c8eaf6" d="M 12.351562 21.859375 C 12.0625 21.570312 11.589844 21.578125 11.300781 21.867188 L 10.4375 22.753906 C 10.148438 23.046875 10.15625 23.519531 10.445312 23.808594 C 10.738281 24.09375 11.210938 24.089844 11.496094 23.800781 L 12.363281 22.914062 C 12.648438 22.621094 12.644531 22.148438 12.351562 21.859375 Z M 12.351562 21.859375 " fill-opacity="1" fill-rule="evenodd"/><path fill="#c8eaf6" d="M 13.414062 22.90625 C 13.703125 23.191406 13.707031 23.667969 13.421875 23.960938 L 12.558594 24.84375 C 12.269531 25.136719 11.796875 25.140625 11.507812 24.851562 C 11.214844 24.566406 11.210938 24.089844 11.496094 23.800781 L 12.363281 22.914062 C 12.648438 22.621094 13.121094 22.617188 13.414062 22.90625 Z M 13.414062 22.90625 " fill-opacity="1" fill-rule="evenodd"/><path fill="#c8eaf6" d="M 14.472656 23.949219 C 14.179688 23.664062 13.707031 23.667969 13.421875 23.960938 L 12.558594 24.84375 C 12.269531 25.136719 12.273438 25.609375 12.566406 25.898438 C 12.855469 26.1875 13.328125 26.183594 13.617188 25.890625 L 14.480469 25.007812 C 14.765625 24.714844 14.761719 24.238281 14.472656 23.949219 Z M 14.472656 23.949219 " fill-opacity="1" fill-rule="evenodd"/><g clip-path="url(#02e221b9cc)"><path fill="#108cb5" d="M 14.210938 24.210938 C 14.074219 24.066406 13.828125 24.066406 13.679688 24.21875 L 12.816406 25.101562 C 12.671875 25.25 12.675781 25.492188 12.824219 25.636719 C 12.960938 25.777344 13.207031 25.78125 13.359375 25.628906 L 13.359375 25.625 L 14.222656 24.746094 C 14.367188 24.59375 14.363281 24.351562 14.214844 24.207031 Z M 14.730469 23.6875 L 14.730469 23.691406 C 14.855469 23.8125 14.945312 23.960938 15 24.117188 L 15.917969 24.992188 L 16.082031 25.140625 L 16.078125 25.140625 C 16.480469 25.492188 17.296875 24.753906 16.980469 24.4375 L 15.335938 22.859375 C 15.191406 22.71875 15.1875 22.484375 15.328125 22.339844 C 15.46875 22.191406 15.699219 22.1875 15.84375 22.328125 L 17.488281 23.910156 C 17.863281 24.269531 18.632812 23.464844 18.285156 23.117188 L 18.289062 23.117188 L 16.636719 21.53125 C 16.492188 21.386719 16.484375 21.15625 16.625 21.011719 C 16.765625 20.863281 17 20.859375 17.144531 21 L 18.800781 22.59375 L 18.804688 22.597656 L 18.808594 22.597656 C 19.164062 22.957031 19.867188 22.148438 19.644531 21.921875 L 17.359375 19.640625 C 16.703125 18.984375 16.15625 18.78125 15.460938 19.25 C 14.335938 20.019531 13.289062 19.941406 12.601562 19.566406 C 11.707031 19.078125 11.367188 18.011719 12.203125 17.511719 L 13.777344 16.570312 L 10.804688 15.910156 L 9.074219 20.871094 L 9.429688 21.128906 L 9.984375 20.5625 C 10.410156 20.125 11.125 20.121094 11.550781 20.550781 L 11.554688 20.550781 C 11.75 20.75 11.863281 21.011719 11.875 21.277344 C 12.140625 21.289062 12.414062 21.398438 12.613281 21.597656 L 12.609375 21.597656 C 12.8125 21.796875 12.921875 22.058594 12.9375 22.324219 C 13.429688 22.34375 13.851562 22.6875 13.96875 23.167969 C 14.101562 23.21875 14.226562 23.390625 14.265625 23.414062 C 14.316406 23.441406 14.519531 23.476562 14.730469 23.6875 Z M 14.90625 25.046875 C 14.792969 25.234375 14.449219 25.558594 14.28125 25.734375 C 14.773438 25.8125 15.160156 25.339844 15.019531 25.15625 Z M 13.691406 26.296875 C 13.261719 26.578125 12.671875 26.523438 12.304688 26.15625 L 12.308594 26.15625 C 12.105469 25.957031 11.996094 25.695312 11.984375 25.429688 C 11.71875 25.417969 11.449219 25.3125 11.25 25.109375 L 11.246094 25.113281 C 11.050781 24.910156 10.9375 24.648438 10.921875 24.386719 C 10.65625 24.371094 10.386719 24.265625 10.1875 24.066406 C 9.984375 23.863281 9.878906 23.605469 9.863281 23.335938 C 9.597656 23.328125 9.328125 23.222656 9.128906 23.019531 C 8.773438 22.664062 8.699219 22.109375 8.945312 21.679688 L 8.765625 21.550781 C 8.519531 21.828125 8.125 21.9375 7.765625 21.8125 L 6.132812 21.238281 C 5.652344 21.070312 5.394531 20.535156 5.5625 20.050781 L 7.558594 14.335938 C 7.726562 13.855469 8.257812 13.597656 8.738281 13.765625 L 9.761719 14.125 L 9.761719 8.867188 L 7.9375 8.867188 C 7.589844 8.867188 7.421875 8.414062 7.734375 8.191406 L 14.296875 3.167969 C 14.792969 2.785156 15.464844 2.800781 15.960938 3.1875 L 22.515625 8.207031 C 22.792969 8.421875 22.640625 8.863281 22.292969 8.863281 L 22.292969 8.867188 L 20.46875 8.867188 L 20.46875 14.125 L 21.488281 13.765625 C 21.96875 13.59375 22.5 13.847656 22.671875 14.335938 L 24.664062 20.050781 C 24.832031 20.53125 24.578125 21.066406 24.09375 21.238281 L 22.464844 21.8125 C 22.042969 21.960938 21.574219 21.78125 21.355469 21.398438 L 20.410156 21.890625 C 20.511719 22.578125 19.816406 23.351562 19.105469 23.421875 C 19.042969 24.070312 18.429688 24.683594 17.78125 24.738281 C 17.65625 25.621094 16.429688 26.363281 15.648438 25.734375 C 15.300781 26.390625 14.414062 26.695312 13.691406 26.296875 Z M 13.140625 23.722656 C 13.148438 23.710938 13.15625 23.703125 13.164062 23.699219 C 13.394531 23.457031 13.222656 23.054688 12.886719 23.054688 C 12.785156 23.058594 12.695312 23.097656 12.621094 23.171875 L 12.617188 23.171875 L 11.753906 24.054688 C 11.613281 24.203125 11.609375 24.4375 11.765625 24.589844 L 11.761719 24.59375 C 11.910156 24.734375 12.144531 24.738281 12.296875 24.582031 Z M 11.238281 23.535156 L 12.101562 22.652344 C 12.242188 22.515625 12.246094 22.265625 12.09375 22.117188 C 11.960938 21.976562 11.710938 21.972656 11.5625 22.125 L 10.695312 23.007812 L 10.695312 23.011719 C 10.554688 23.148438 10.550781 23.398438 10.703125 23.542969 L 10.707031 23.542969 C 10.839844 23.6875 11.085938 23.691406 11.238281 23.535156 Z M 10.164062 22.507812 C 10.167969 22.5 10.171875 22.496094 10.179688 22.488281 L 10.179688 22.492188 L 11.042969 21.605469 L 11.042969 21.609375 C 11.1875 21.460938 11.1875 21.226562 11.035156 21.074219 L 11.035156 21.070312 C 10.886719 20.929688 10.648438 20.929688 10.503906 21.078125 L 9.636719 21.960938 C 9.496094 22.109375 9.492188 22.34375 9.648438 22.5 L 9.644531 22.5 C 9.789062 22.640625 10.015625 22.640625 10.164062 22.507812 Z M 21.730469 14.460938 L 20.101562 15.035156 C 20 15.070312 19.945312 15.179688 19.980469 15.285156 L 21.882812 20.738281 C 21.933594 20.882812 21.988281 21.203125 22.222656 21.117188 L 23.855469 20.546875 C 23.957031 20.507812 24.011719 20.394531 23.972656 20.292969 L 21.980469 14.578125 C 21.945312 14.480469 21.835938 14.421875 21.730469 14.460938 Z M 21.09375 20.707031 L 19.421875 15.90625 C 18.679688 16.035156 15.144531 16.539062 14.921875 16.730469 C 14.894531 16.753906 14.871094 16.773438 14.832031 16.796875 L 12.574219 18.148438 C 12.371094 18.265625 12.480469 18.492188 12.605469 18.644531 C 12.691406 18.746094 12.808594 18.84375 12.953125 18.921875 C 13.4375 19.1875 14.195312 19.226562 15.050781 18.644531 C 16.0625 17.960938 16.960938 18.21875 17.878906 19.125 L 20.023438 21.265625 Z M 19.238281 15.191406 C 19.25 14.859375 19.4375 14.550781 19.738281 14.394531 L 19.738281 8.867188 L 18.828125 8.867188 C 18.734375 8.867188 18.652344 8.832031 18.585938 8.777344 L 15.117188 6.121094 L 11.625 8.792969 C 11.558594 8.84375 11.480469 8.867188 11.402344 8.867188 L 11.402344 8.871094 L 10.496094 8.871094 L 10.496094 14.394531 C 10.796875 14.554688 10.984375 14.867188 10.992188 15.203125 L 13.171875 15.6875 L 13.171875 13.308594 C 13.171875 13.105469 13.335938 12.941406 13.539062 12.941406 L 16.691406 12.941406 C 16.894531 12.941406 17.058594 13.105469 17.058594 13.308594 L 17.058594 15.539062 Z M 10.128906 15.035156 L 8.5 14.460938 C 8.398438 14.421875 8.285156 14.476562 8.246094 14.582031 L 6.253906 20.292969 C 6.21875 20.394531 6.273438 20.511719 6.375 20.546875 L 8.003906 21.121094 C 8.105469 21.15625 8.222656 21.101562 8.257812 21 L 10.25 15.285156 C 10.285156 15.183594 10.230469 15.066406 10.128906 15.035156 Z M 14.699219 16.027344 C 15.011719 15.910156 15.625 15.78125 16.324219 15.660156 L 16.324219 13.675781 L 13.90625 13.675781 L 13.90625 15.847656 Z M 14.738281 3.753906 L 9.019531 8.132812 L 11.28125 8.132812 L 14.886719 5.371094 C 15.015625 5.269531 15.199219 5.261719 15.335938 5.367188 L 18.949219 8.132812 L 21.210938 8.132812 L 15.503906 3.765625 C 15.273438 3.585938 14.960938 3.578125 14.738281 3.753906 Z M 16.515625 9.535156 L 18.539062 9.535156 C 18.742188 9.535156 18.90625 9.699219 18.90625 9.902344 L 18.90625 11.769531 C 18.90625 11.972656 18.742188 12.140625 18.539062 12.140625 L 16.515625 12.140625 C 16.3125 12.140625 16.148438 11.972656 16.148438 11.769531 L 16.148438 9.902344 C 16.148438 9.699219 16.3125 9.535156 16.515625 9.535156 Z M 18.171875 10.269531 L 16.882812 10.269531 L 16.882812 11.402344 L 18.171875 11.402344 Z M 11.691406 9.535156 L 13.714844 9.535156 C 13.917969 9.535156 14.082031 9.699219 14.082031 9.902344 L 14.082031 11.769531 C 14.082031 11.972656 13.917969 12.140625 13.714844 12.140625 L 11.691406 12.140625 C 11.488281 12.140625 11.324219 11.972656 11.324219 11.769531 L 11.324219 9.902344 C 11.324219 9.699219 11.488281 9.535156 11.691406 9.535156 Z M 13.347656 10.269531 L 12.058594 10.269531 L 12.058594 11.402344 L 13.347656 11.402344 Z M 2.617188 11.117188 C 2.5625 11.308594 2.363281 11.425781 2.167969 11.371094 C 1.972656 11.316406 1.859375 11.113281 1.914062 10.917969 C 3.5625 5.039062 8.949219 0.898438 15.121094 0.898438 C 20.878906 0.898438 25.957031 4.488281 27.960938 9.796875 L 28.507812 7.960938 C 28.566406 7.765625 28.769531 7.652344 28.964844 7.710938 C 29.15625 7.769531 29.269531 7.976562 29.210938 8.171875 L 28.328125 11.121094 C 28.257812 11.355469 27.972656 11.46875 27.753906 11.308594 L 25.25 9.5625 C 25.082031 9.445312 25.039062 9.214844 25.15625 9.050781 C 25.269531 8.882812 25.496094 8.84375 25.664062 8.957031 L 27.289062 10.089844 C 25.402344 5.050781 20.585938 1.632812 15.121094 1.632812 C 9.273438 1.632812 4.191406 5.546875 2.617188 11.117188 Z M 1.71875 21.40625 C 1.664062 21.601562 1.457031 21.710938 1.265625 21.652344 C 1.070312 21.59375 0.960938 21.390625 1.023438 21.195312 L 1.910156 18.269531 C 1.980469 18 2.273438 17.898438 2.496094 18.066406 L 4.988281 19.820312 C 5.152344 19.9375 5.195312 20.164062 5.078125 20.332031 C 4.960938 20.496094 4.734375 20.535156 4.570312 20.421875 L 2.957031 19.285156 C 4.847656 24.320312 9.65625 27.734375 15.121094 27.734375 C 20.964844 27.734375 26.0625 23.8125 27.625 18.253906 C 27.675781 18.058594 27.878906 17.941406 28.074219 18 C 28.269531 18.050781 28.382812 18.257812 28.328125 18.449219 C 26.679688 24.328125 21.292969 28.472656 15.121094 28.472656 C 9.359375 28.472656 4.277344 24.875 2.277344 19.5625 Z M 1.71875 21.40625 " fill-opacity="1" fill-rule="nonzero"/></g></svg>