<svg xmlns="http://www.w3.org/2000/svg" xmlns:xlink="http://www.w3.org/1999/xlink" width="40" zoomAndPan="magnify" viewBox="0 0 30 30.000001" height="40" preserveAspectRatio="xMidYMid meet" version="1.0"><defs><clipPath id="fd1b54257c"><path d="M 0.484375 0 L 29.515625 0 L 29.515625 29.03125 L 0.484375 29.03125 Z M 0.484375 0 " clip-rule="nonzero"/></clipPath><clipPath id="972139806a"><path d="M 4.675781 0 L 24.996094 0 L 24.996094 29.03125 L 4.675781 29.03125 Z M 4.675781 0 " clip-rule="nonzero"/></clipPath></defs><g clip-path="url(#fd1b54257c)"><path fill="#ffffff" d="M 0.484375 0 L 29.515625 0 L 29.515625 29.03125 L 0.484375 29.03125 Z M 0.484375 0 " fill-opacity="1" fill-rule="nonzero"/><path fill="#ffffff" d="M 0.484375 0 L 29.515625 0 L 29.515625 29.03125 L 0.484375 29.03125 Z M 0.484375 0 " fill-opacity="1" fill-rule="nonzero"/></g><path fill="#925f3d" d="M 16.382812 16.378906 C 16.007812 16.003906 15.511719 15.796875 14.980469 15.796875 C 14.449219 15.796875 13.949219 16.003906 13.574219 16.378906 L 8.566406 21.390625 C 8.378906 21.578125 8.277344 21.824219 8.277344 22.085938 C 8.277344 22.347656 8.378906 22.59375 8.566406 22.78125 C 8.949219 23.160156 9.570312 23.160156 9.953125 22.777344 L 10.496094 22.238281 L 10.496094 27.070312 C 10.496094 27.25 10.640625 27.394531 10.816406 27.394531 L 19.140625 27.394531 C 19.320312 27.394531 19.464844 27.25 19.464844 27.070312 L 19.464844 22.238281 L 20.003906 22.777344 C 20.195312 22.96875 20.449219 23.066406 20.699219 23.066406 C 20.949219 23.066406 21.203125 22.96875 21.390625 22.78125 C 21.578125 22.59375 21.679688 22.347656 21.679688 22.085938 C 21.679688 21.824219 21.578125 21.578125 21.394531 21.390625 Z M 18.816406 26.75 L 16.753906 26.75 L 16.753906 24.6875 C 16.753906 23.710938 15.957031 22.914062 14.980469 22.914062 C 14 22.914062 13.207031 23.710938 13.207031 24.6875 L 13.207031 26.75 L 11.140625 26.75 L 11.140625 21.609375 C 11.140625 21.605469 11.136719 21.601562 11.136719 21.59375 L 14.71875 18.011719 C 14.863281 17.871094 15.097656 17.871094 15.242188 18.011719 L 18.816406 21.589844 Z M 18.816406 26.75 " fill-opacity="1" fill-rule="nonzero"/><path fill="#925f3d" d="M 13.5625 20.730469 C 13.5625 21.511719 14.199219 22.148438 14.980469 22.148438 C 15.761719 22.148438 16.394531 21.511719 16.394531 20.730469 C 16.394531 19.949219 15.761719 19.316406 14.980469 19.316406 C 14.199219 19.316406 13.5625 19.949219 13.5625 20.730469 Z M 15.75 20.730469 C 15.75 21.15625 15.402344 21.503906 14.980469 21.503906 C 14.554688 21.503906 14.210938 21.15625 14.210938 20.730469 C 14.210938 20.308594 14.554688 19.960938 14.980469 19.960938 C 15.402344 19.960938 15.75 20.308594 15.75 20.730469 Z M 15.75 20.730469 " fill-opacity="1" fill-rule="nonzero"/><path fill="#925f3d" d="M 7.21875 10.816406 L 10.371094 10.816406 C 10.550781 10.816406 10.695312 10.671875 10.695312 10.496094 C 10.695312 10.316406 10.550781 10.171875 10.371094 10.171875 L 7.21875 10.171875 C 7.039062 10.171875 6.894531 10.316406 6.894531 10.496094 C 6.894531 10.671875 7.039062 10.816406 7.21875 10.816406 Z M 7.21875 10.816406 " fill-opacity="1" fill-rule="nonzero"/><path fill="#925f3d" d="M 7.21875 12.046875 L 17.160156 12.046875 C 17.339844 12.046875 17.484375 11.902344 17.484375 11.722656 C 17.484375 11.546875 17.339844 11.402344 17.160156 11.402344 L 7.21875 11.402344 C 7.039062 11.402344 6.894531 11.546875 6.894531 11.722656 C 6.894531 11.902344 7.039062 12.046875 7.21875 12.046875 Z M 7.21875 12.046875 " fill-opacity="1" fill-rule="nonzero"/><path fill="#925f3d" d="M 7.21875 13.394531 L 10.371094 13.394531 C 10.550781 13.394531 10.695312 13.25 10.695312 13.070312 C 10.695312 12.890625 10.550781 12.746094 10.371094 12.746094 L 7.21875 12.746094 C 7.039062 12.746094 6.894531 12.890625 6.894531 13.070312 C 6.894531 13.25 7.039062 13.394531 7.21875 13.394531 Z M 7.21875 13.394531 " fill-opacity="1" fill-rule="nonzero"/><path fill="#925f3d" d="M 17.484375 14.300781 C 17.484375 14.121094 17.339844 13.976562 17.160156 13.976562 L 7.21875 13.976562 C 7.039062 13.976562 6.894531 14.121094 6.894531 14.300781 C 6.894531 14.476562 7.039062 14.621094 7.21875 14.621094 L 17.160156 14.621094 C 17.339844 14.621094 17.484375 14.476562 17.484375 14.300781 Z M 17.484375 14.300781 " fill-opacity="1" fill-rule="nonzero"/><g clip-path="url(#972139806a)"><path fill="#925f3d" d="M 24.914062 0.59375 L 22.734375 0.59375 L 22.734375 0.328125 C 22.734375 0.148438 22.589844 0.00390625 22.414062 0.00390625 L 17.160156 0.00390625 C 16.980469 0.00390625 16.835938 0.148438 16.835938 0.328125 L 16.835938 0.59375 L 5.042969 0.59375 C 4.863281 0.59375 4.71875 0.738281 4.71875 0.917969 L 4.71875 28.703125 C 4.71875 28.882812 4.863281 29.027344 5.042969 29.027344 L 24.914062 29.027344 C 25.09375 29.027344 25.238281 28.882812 25.238281 28.703125 L 25.238281 0.917969 C 25.238281 0.738281 25.09375 0.59375 24.914062 0.59375 Z M 24.59375 28.378906 L 5.367188 28.378906 L 5.367188 1.242188 L 16.835938 1.242188 L 16.835938 8.140625 C 16.835938 8.273438 16.917969 8.390625 17.039062 8.441406 C 17.078125 8.457031 17.121094 8.464844 17.160156 8.464844 C 17.246094 8.464844 17.332031 8.429688 17.394531 8.363281 L 19.785156 5.878906 L 22.179688 8.363281 C 22.273438 8.460938 22.410156 8.488281 22.535156 8.441406 C 22.65625 8.390625 22.734375 8.273438 22.734375 8.140625 L 22.734375 1.242188 L 24.59375 1.242188 Z M 24.59375 28.378906 " fill-opacity="1" fill-rule="nonzero"/></g></svg>