<svg xmlns="http://www.w3.org/2000/svg" xmlns:xlink="http://www.w3.org/1999/xlink" width="40" zoomAndPan="magnify" viewBox="0 0 30 30.000001" height="40" preserveAspectRatio="xMidYMid meet" version="1.0"><defs><clipPath id="fd421e44a2"><path d="M 0.484375 0 L 29.515625 0 L 29.515625 29.03125 L 0.484375 29.03125 Z M 0.484375 0 " clip-rule="nonzero"/></clipPath><clipPath id="6870c98434"><path d="M 0.484375 0.996094 L 29.515625 0.996094 L 29.515625 27.851562 L 0.484375 27.851562 Z M 0.484375 0.996094 " clip-rule="nonzero"/></clipPath></defs><g clip-path="url(#fd421e44a2)"><path fill="#ffffff" d="M 0.484375 0 L 29.515625 0 L 29.515625 29.03125 L 0.484375 29.03125 Z M 0.484375 0 " fill-opacity="1" fill-rule="nonzero"/><path fill="#ffffff" d="M 0.484375 0 L 29.515625 0 L 29.515625 29.03125 L 0.484375 29.03125 Z M 0.484375 0 " fill-opacity="1" fill-rule="nonzero"/></g><g clip-path="url(#6870c98434)"><path fill="#925f3d" d="M 18.375 1.589844 L 18.375 3.433594 C 18.375 3.597656 18.320312 3.738281 18.203125 3.855469 C 18.085938 3.972656 17.949219 4.03125 17.78125 4.035156 L 16.546875 4.035156 L 16.546875 24.957031 L 17.78125 24.957031 C 17.953125 24.960938 18.09375 25.023438 18.210938 25.144531 C 18.328125 25.265625 18.382812 25.410156 18.375 25.578125 L 18.375 27.402344 C 18.375 27.566406 18.320312 27.707031 18.203125 27.824219 C 18.085938 27.941406 17.949219 28 17.78125 28.003906 L 8.640625 28.003906 C 8.472656 28 8.335938 27.941406 8.21875 27.824219 C 8.101562 27.707031 8.046875 27.566406 8.046875 27.402344 L 8.046875 25.578125 C 8.046875 25.414062 8.101562 25.273438 8.21875 25.15625 C 8.335938 25.039062 8.472656 24.980469 8.640625 24.976562 L 9.894531 24.976562 L 9.894531 15.089844 L 7.726562 15.089844 C 6.78125 15.097656 5.871094 14.914062 5 14.535156 C 4.585938 14.359375 4.1875 14.144531 3.8125 13.890625 C 3.4375 13.636719 3.089844 13.351562 2.769531 13.03125 C 2.128906 12.378906 1.628906 11.632812 1.277344 10.792969 C 1.09375 10.359375 0.960938 9.914062 0.878906 9.453125 L 0.878906 9.398438 C 0.617188 7.984375 0.761719 6.617188 1.308594 5.289062 C 1.652344 4.449219 2.140625 3.703125 2.769531 3.046875 C 3.085938 2.730469 3.433594 2.445312 3.800781 2.191406 C 4.175781 1.9375 4.574219 1.722656 4.988281 1.542969 C 5.859375 1.167969 6.769531 0.984375 7.714844 0.988281 L 17.769531 0.988281 C 17.933594 0.992188 18.074219 1.050781 18.191406 1.167969 C 18.308594 1.285156 18.363281 1.425781 18.363281 1.589844 Z M 17.1875 2.835938 L 17.1875 2.191406 L 7.726562 2.191406 C 6.945312 2.179688 6.191406 2.332031 5.472656 2.640625 C 5.121094 2.785156 4.785156 2.96875 4.472656 3.1875 C 4.164062 3.394531 3.878906 3.628906 3.625 3.898438 C 3.085938 4.441406 2.667969 5.0625 2.371094 5.765625 C 2.0625 6.492188 1.910156 7.25 1.914062 8.039062 C 1.910156 8.421875 1.945312 8.796875 2.011719 9.171875 L 2.035156 9.214844 C 2.101562 9.597656 2.214844 9.964844 2.371094 10.316406 C 2.667969 11.019531 3.085938 11.640625 3.621094 12.179688 C 3.878906 12.453125 4.164062 12.695312 4.472656 12.914062 C 4.789062 13.128906 5.121094 13.3125 5.472656 13.460938 C 6.191406 13.769531 6.945312 13.917969 7.726562 13.910156 L 10.46875 13.910156 C 10.632812 13.90625 10.777344 13.960938 10.894531 14.078125 C 11.015625 14.191406 11.078125 14.332031 11.082031 14.496094 L 11.082031 25.578125 C 11.078125 25.742188 11.023438 25.882812 10.90625 26 C 10.789062 26.117188 10.652344 26.175781 10.488281 26.179688 L 9.234375 26.179688 L 9.234375 26.824219 L 17.1875 26.824219 L 17.1875 26.15625 L 15.953125 26.15625 C 15.792969 26.15625 15.65625 26.097656 15.542969 25.988281 C 15.425781 25.875 15.367188 25.738281 15.359375 25.578125 L 15.359375 3.433594 C 15.359375 3.269531 15.417969 3.125 15.53125 3.011719 C 15.648438 2.894531 15.789062 2.835938 15.953125 2.835938 Z M 9.894531 12.046875 L 9.894531 4.035156 L 7.726562 4.035156 C 7.191406 4.03125 6.675781 4.132812 6.179688 4.339844 C 5.941406 4.453125 5.714844 4.585938 5.496094 4.734375 C 5.289062 4.882812 5.097656 5.046875 4.914062 5.222656 C 4.546875 5.59375 4.261719 6.019531 4.058594 6.5 C 3.957031 6.742188 3.878906 6.992188 3.824219 7.25 C 3.71875 7.785156 3.71875 8.320312 3.824219 8.855469 C 3.882812 9.117188 3.960938 9.367188 4.058594 9.617188 C 4.160156 9.859375 4.285156 10.085938 4.429688 10.304688 C 4.574219 10.515625 4.734375 10.714844 4.914062 10.894531 C 5.09375 11.074219 5.285156 11.234375 5.496094 11.382812 C 5.710938 11.527344 5.941406 11.652344 6.179688 11.753906 C 6.421875 11.855469 6.667969 11.933594 6.921875 11.992188 C 7.183594 12.035156 7.445312 12.058594 7.710938 12.058594 Z M 11.082031 3.433594 L 11.082031 12.648438 C 11.082031 12.8125 11.023438 12.953125 10.910156 13.070312 C 10.792969 13.1875 10.652344 13.246094 10.488281 13.246094 L 7.726562 13.246094 C 7.378906 13.246094 7.035156 13.210938 6.695312 13.140625 C 6.359375 13.078125 6.035156 12.976562 5.722656 12.835938 C 5.410156 12.707031 5.117188 12.546875 4.835938 12.363281 C 4.5625 12.171875 4.308594 11.960938 4.070312 11.726562 C 3.835938 11.480469 3.628906 11.214844 3.441406 10.933594 C 3.257812 10.652344 3.101562 10.359375 2.96875 10.050781 C 2.835938 9.734375 2.734375 9.40625 2.667969 9.066406 C 2.53125 8.371094 2.53125 7.675781 2.667969 6.984375 C 2.734375 6.644531 2.835938 6.316406 2.96875 5.996094 C 3.230469 5.378906 3.597656 4.832031 4.070312 4.359375 C 4.304688 4.117188 4.558594 3.902344 4.835938 3.714844 C 5.109375 3.527344 5.402344 3.371094 5.710938 3.238281 C 6.351562 2.953125 7.023438 2.8125 7.726562 2.820312 L 10.46875 2.820312 C 10.640625 2.8125 10.785156 2.871094 10.90625 2.992188 C 11.027344 3.113281 11.085938 3.261719 11.082031 3.433594 Z M 13.550781 24.957031 L 13.550781 4.035156 L 12.890625 4.035156 L 12.890625 24.957031 Z M 14.738281 3.433594 L 14.738281 25.578125 C 14.738281 25.742188 14.679688 25.882812 14.5625 26 C 14.449219 26.117188 14.308594 26.175781 14.144531 26.179688 L 12.296875 26.179688 C 12.132812 26.175781 11.992188 26.117188 11.878906 26 C 11.761719 25.882812 11.703125 25.742188 11.703125 25.578125 L 11.703125 3.433594 C 11.703125 3.269531 11.757812 3.125 11.875 3.011719 C 11.992188 2.894531 12.132812 2.835938 12.296875 2.835938 L 14.125 2.835938 C 14.289062 2.835938 14.429688 2.894531 14.546875 3.011719 C 14.664062 3.125 14.71875 3.269531 14.71875 3.433594 Z M 29.339844 6.738281 L 29.339844 25.933594 C 29.351562 26.203125 29.230469 26.390625 28.980469 26.5 C 28.730469 26.605469 28.511719 26.5625 28.320312 26.371094 L 18.820312 16.785156 C 18.707031 16.664062 18.648438 16.523438 18.648438 16.359375 C 18.648438 16.195312 18.707031 16.054688 18.820312 15.9375 L 28.320312 6.34375 C 28.433594 6.222656 28.574219 6.160156 28.738281 6.160156 C 28.90625 6.160156 29.046875 6.222656 29.160156 6.34375 C 29.269531 6.453125 29.324219 6.582031 29.328125 6.738281 Z M 28.152344 24.484375 L 28.152344 8.1875 L 20.082031 16.335938 Z M 26.324219 12.609375 L 22.644531 16.320312 L 26.332031 20.039062 Z M 21.375 15.917969 L 26.480469 10.769531 C 26.597656 10.648438 26.746094 10.589844 26.914062 10.589844 C 27.078125 10.589844 27.21875 10.644531 27.332031 10.761719 C 27.445312 10.875 27.503906 11.015625 27.5 11.179688 L 27.5 21.496094 C 27.5 21.65625 27.445312 21.796875 27.332031 21.914062 C 27.214844 22.035156 27.078125 22.09375 26.910156 22.09375 C 26.746094 22.09375 26.605469 22.035156 26.492188 21.914062 L 21.375 16.765625 C 21.261719 16.644531 21.203125 16.503906 21.203125 16.339844 C 21.203125 16.175781 21.261719 16.035156 21.375 15.917969 Z M 21.375 15.917969 " fill-opacity="1" fill-rule="nonzero"/></g></svg>