<svg xmlns="http://www.w3.org/2000/svg" xmlns:xlink="http://www.w3.org/1999/xlink" width="40" zoomAndPan="magnify" viewBox="0 0 30 30.000001" height="40" preserveAspectRatio="xMidYMid meet" version="1.0"><defs><clipPath id="62147ded03"><path d="M 0.484375 0 L 29.515625 0 L 29.515625 29.03125 L 0.484375 29.03125 Z M 0.484375 0 " clip-rule="nonzero"/></clipPath><clipPath id="3f1fba592b"><path d="M 1.207031 4.785156 L 28.789062 4.785156 L 28.789062 19 L 1.207031 19 Z M 1.207031 4.785156 " clip-rule="nonzero"/></clipPath><clipPath id="9b8dade8e6"><path d="M 3 17 L 14 17 L 14 28.011719 L 3 28.011719 Z M 3 17 " clip-rule="nonzero"/></clipPath><clipPath id="8f6df6b283"><path d="M 16 17 L 26 17 L 26 28.011719 L 16 28.011719 Z M 16 17 " clip-rule="nonzero"/></clipPath></defs><g clip-path="url(#62147ded03)"><path fill="#ffffff" d="M 0.484375 0 L 29.515625 0 L 29.515625 29.03125 L 0.484375 29.03125 Z M 0.484375 0 " fill-opacity="1" fill-rule="nonzero"/><path fill="#ffffff" d="M 0.484375 0 L 29.515625 0 L 29.515625 29.03125 L 0.484375 29.03125 Z M 0.484375 0 " fill-opacity="1" fill-rule="nonzero"/></g><g clip-path="url(#3f1fba592b)"><path fill="#1f8fcf" d="M 15 5.734375 C 22.449219 5.734375 28.519531 11.300781 28.785156 18.257812 C 28.789062 18.101562 28.792969 17.945312 28.792969 17.789062 C 28.792969 10.609375 22.617188 4.792969 15 4.792969 C 7.382812 4.792969 1.210938 10.609375 1.210938 17.789062 C 1.210938 17.945312 1.214844 18.101562 1.21875 18.257812 C 1.484375 11.300781 7.550781 5.734375 15 5.734375 Z M 15 5.734375 " fill-opacity="1" fill-rule="nonzero"/></g><path fill="#0397c7" d="M 15 16.40625 C 12.222656 10.542969 8.175781 9.441406 8.175781 9.441406 C 13.183594 13.210938 15 26.042969 15 26.042969 C 15 26.042969 16.8125 13.210938 21.820312 9.441406 C 21.820312 9.441406 17.773438 10.542969 15 16.40625 Z M 15 16.40625 " fill-opacity="1" fill-rule="nonzero"/><path fill="#0397c7" d="M 17.652344 11.675781 L 15.601562 10.296875 L 12.347656 10.296875 L 13.839844 11.132812 C 13.59375 11.410156 13.441406 11.773438 13.441406 12.171875 C 13.441406 13.035156 14.140625 13.734375 15 13.734375 C 15.859375 13.734375 16.554688 13.035156 16.554688 12.171875 C 16.554688 12 16.523438 11.832031 16.472656 11.675781 L 16.949219 11.675781 L 16.851562 13.472656 L 17.253906 13.230469 L 17.140625 11.675781 Z M 17.652344 11.675781 " fill-opacity="1" fill-rule="nonzero"/><path fill="#e24f01" d="M 11.269531 14.417969 L 10.714844 13.4375 C 10.714844 13.4375 9.394531 12.914062 7.621094 13.265625 L 7.621094 23.285156 C 7.621094 23.285156 11.132812 22.726562 14.539062 25.65625 C 14.539062 25.65625 12.871094 22.933594 8.769531 22.480469 L 8.769531 14.03125 C 8.769531 14.03125 9.984375 13.925781 11.269531 14.417969 Z M 11.269531 14.417969 " fill-opacity="1" fill-rule="nonzero"/><path fill="#ff6600" d="M 6.847656 14.835938 L 5.726562 15.332031 L 5.726562 25.335938 C 5.726562 25.335938 10.394531 23.648438 14.175781 25.65625 C 14.175781 25.65625 12.011719 23.554688 6.925781 24.128906 Z M 6.847656 14.835938 " fill-opacity="1" fill-rule="nonzero"/><g clip-path="url(#9b8dade8e6)"><path fill="#ffaa01" d="M 5.152344 26.484375 L 5.097656 17.425781 L 3.976562 17.949219 L 3.976562 28.003906 C 3.976562 28.003906 7.992188 25.097656 13.210938 25.492188 C 13.210938 25.492188 9.402344 24.234375 5.152344 26.484375 Z M 5.152344 26.484375 " fill-opacity="1" fill-rule="nonzero"/></g><path fill="#e24f01" d="M 18.695312 14.417969 L 19.25 13.4375 C 19.25 13.4375 20.574219 12.914062 22.347656 13.265625 L 22.347656 23.285156 C 22.347656 23.285156 18.835938 22.726562 15.425781 25.65625 C 15.425781 25.65625 17.09375 22.933594 21.199219 22.480469 L 21.199219 14.03125 C 21.199219 14.03125 19.980469 13.925781 18.695312 14.417969 Z M 18.695312 14.417969 " fill-opacity="1" fill-rule="nonzero"/><path fill="#ff6600" d="M 23.121094 14.835938 L 24.242188 15.332031 L 24.242188 25.335938 C 24.242188 25.335938 19.574219 23.648438 15.792969 25.65625 C 15.792969 25.65625 17.957031 23.554688 23.042969 24.128906 Z M 23.121094 14.835938 " fill-opacity="1" fill-rule="nonzero"/><g clip-path="url(#8f6df6b283)"><path fill="#ffaa01" d="M 24.816406 26.484375 L 24.867188 17.425781 L 25.988281 17.949219 L 25.988281 28.003906 C 25.988281 28.003906 21.972656 25.097656 16.757812 25.492188 C 16.757812 25.492188 20.5625 24.234375 24.816406 26.484375 Z M 24.816406 26.484375 " fill-opacity="1" fill-rule="nonzero"/></g></svg>