<svg xmlns="http://www.w3.org/2000/svg" xmlns:xlink="http://www.w3.org/1999/xlink" width="40" zoomAndPan="magnify" viewBox="0 0 30 30.000001" height="40" preserveAspectRatio="xMidYMid meet" version="1.0"><defs><clipPath id="988073231c"><path d="M 0.484375 0 L 29.515625 0 L 29.515625 29.03125 L 0.484375 29.03125 Z M 0.484375 0 " clip-rule="nonzero"/></clipPath><clipPath id="a057909518"><path d="M 2.191406 0 L 27.59375 0 L 27.59375 29.03125 L 2.191406 29.03125 Z M 2.191406 0 " clip-rule="nonzero"/></clipPath></defs><g clip-path="url(#988073231c)"><path fill="#ffffff" d="M 0.484375 0 L 29.515625 0 L 29.515625 29.03125 L 0.484375 29.03125 Z M 0.484375 0 " fill-opacity="1" fill-rule="nonzero"/><path fill="#ffffff" d="M 0.484375 0 L 29.515625 0 L 29.515625 29.03125 L 0.484375 29.03125 Z M 0.484375 0 " fill-opacity="1" fill-rule="nonzero"/></g><path fill="#935f3d" d="M 12.378906 26.429688 L 17.554688 26.429688 L 16.917969 24.90625 L 13.015625 24.90625 L 12.378906 26.429688 " fill-opacity="1" fill-rule="nonzero"/><path fill="#935f3d" d="M 14.847656 21.371094 C 14.335938 21.371094 13.917969 21.785156 13.917969 22.300781 C 13.917969 22.8125 14.335938 23.230469 14.847656 23.230469 C 15.363281 23.230469 15.78125 22.8125 15.78125 22.300781 C 15.78125 21.785156 15.363281 21.371094 14.847656 21.371094 " fill-opacity="1" fill-rule="nonzero"/><path fill="#935f3d" d="M 14.90625 5.273438 L 20.6875 5.273438 L 20.6875 6.164062 L 6.761719 6.164062 L 6.761719 4.363281 L 14.574219 4.363281 L 14.574219 4.941406 C 14.574219 5.125 14.722656 5.273438 14.90625 5.273438 Z M 23.195312 2.304688 L 23.195312 4.601562 L 15.246094 4.601562 L 15.246094 2.304688 Z M 6.46875 6.835938 L 20.980469 6.835938 C 21.1875 6.835938 21.355469 6.667969 21.355469 6.460938 L 21.355469 5.273438 L 23.535156 5.273438 C 23.71875 5.273438 23.867188 5.125 23.867188 4.941406 L 23.867188 1.96875 C 23.867188 1.785156 23.71875 1.636719 23.535156 1.636719 L 14.90625 1.636719 C 14.722656 1.636719 14.574219 1.785156 14.574219 1.96875 L 14.574219 3.691406 L 6.46875 3.691406 C 6.261719 3.691406 6.09375 3.859375 6.09375 4.070312 L 6.09375 6.460938 C 6.09375 6.667969 6.261719 6.835938 6.46875 6.835938 " fill-opacity="1" fill-rule="nonzero"/><path fill="#935f3d" d="M 10.273438 4.867188 L 7.445312 4.867188 C 7.261719 4.867188 7.113281 5.015625 7.113281 5.203125 C 7.113281 5.386719 7.261719 5.535156 7.445312 5.535156 L 10.273438 5.535156 C 10.457031 5.535156 10.605469 5.386719 10.605469 5.203125 C 10.605469 5.015625 10.457031 4.867188 10.273438 4.867188 " fill-opacity="1" fill-rule="nonzero"/><path fill="#935f3d" d="M 11.363281 4.867188 C 11.179688 4.867188 11.027344 5.015625 11.027344 5.203125 C 11.027344 5.386719 11.179688 5.535156 11.363281 5.535156 C 11.546875 5.535156 11.699219 5.386719 11.699219 5.203125 C 11.699219 5.015625 11.546875 4.867188 11.363281 4.867188 " fill-opacity="1" fill-rule="nonzero"/><path fill="#935f3d" d="M 12.421875 4.867188 C 12.238281 4.867188 12.085938 5.015625 12.085938 5.203125 C 12.085938 5.386719 12.238281 5.535156 12.421875 5.535156 C 12.609375 5.535156 12.757812 5.386719 12.757812 5.203125 C 12.757812 5.015625 12.609375 4.867188 12.421875 4.867188 " fill-opacity="1" fill-rule="nonzero"/><path fill="#935f3d" d="M 18.179688 3.5 L 18.113281 3.523438 C 18.089844 3.53125 18.070312 3.535156 18.054688 3.535156 L 18.054688 3.332031 L 18.179688 3.332031 Z M 18.6875 3.324219 C 18.691406 3.328125 18.703125 3.355469 18.703125 3.429688 C 18.703125 3.515625 18.6875 3.539062 18.683594 3.539062 L 18.679688 3.539062 C 18.679688 3.539062 18.667969 3.515625 18.667969 3.433594 L 18.667969 3.410156 C 18.667969 3.355469 18.675781 3.332031 18.671875 3.328125 L 18.6875 3.328125 Z M 17.417969 3.535156 L 17.417969 3.332031 L 17.570312 3.332031 L 17.570312 3.492188 L 17.476562 3.523438 C 17.453125 3.53125 17.433594 3.535156 17.417969 3.535156 Z M 16.433594 3.457031 C 16.433594 3.363281 16.453125 3.332031 16.453125 3.332031 L 16.464844 3.328125 C 16.464844 3.335938 16.46875 3.347656 16.46875 3.367188 L 16.46875 3.96875 L 16.953125 3.96875 L 16.953125 3.734375 C 16.96875 3.789062 16.992188 3.835938 17.027344 3.871094 C 17.09375 3.945312 17.191406 3.980469 17.316406 3.980469 C 17.414062 3.980469 17.5 3.964844 17.574219 3.933594 L 17.652344 3.898438 L 17.652344 3.855469 L 17.664062 3.871094 C 17.730469 3.945312 17.828125 3.980469 17.953125 3.980469 C 18.039062 3.980469 18.113281 3.96875 18.179688 3.941406 L 18.179688 4.320312 L 18.667969 4.320312 L 18.667969 3.972656 C 18.695312 3.980469 18.722656 3.980469 18.753906 3.980469 C 18.84375 3.980469 18.925781 3.957031 18.992188 3.910156 C 19.03125 3.882812 19.0625 3.847656 19.089844 3.8125 C 19.101562 3.859375 19.125 3.894531 19.148438 3.917969 C 19.183594 3.949219 19.242188 3.988281 19.335938 3.988281 C 19.378906 3.988281 19.410156 3.980469 19.4375 3.96875 L 19.84375 3.96875 L 20.335938 2.65625 L 19.851562 2.65625 L 19.519531 3.542969 C 19.484375 3.511719 19.429688 3.476562 19.335938 3.476562 C 19.269531 3.476562 19.222656 3.496094 19.1875 3.515625 C 19.191406 3.488281 19.195312 3.460938 19.195312 3.433594 C 19.195312 3.40625 19.191406 3.382812 19.191406 3.359375 C 19.222656 3.378906 19.273438 3.398438 19.335938 3.398438 C 19.429688 3.398438 19.488281 3.359375 19.519531 3.328125 C 19.554688 3.296875 19.59375 3.238281 19.59375 3.140625 C 19.59375 3.046875 19.554688 2.988281 19.519531 2.957031 C 19.488281 2.925781 19.429688 2.886719 19.335938 2.886719 C 19.242188 2.886719 19.183594 2.921875 19.148438 2.953125 C 19.128906 2.972656 19.105469 3.007812 19.089844 3.054688 L 19.089844 3.050781 C 19.011719 2.941406 18.894531 2.886719 18.757812 2.886719 C 18.699219 2.886719 18.644531 2.898438 18.597656 2.917969 L 18.589844 2.902344 L 18.054688 2.902344 L 18.054688 2.730469 L 17.6875 2.730469 L 17.625 2.902344 L 17.417969 2.902344 L 17.417969 2.730469 L 17.054688 2.730469 L 16.972656 2.945312 L 16.855469 3.015625 L 16.84375 3.003906 C 16.769531 2.925781 16.664062 2.886719 16.53125 2.886719 C 16.496094 2.886719 16.464844 2.890625 16.433594 2.894531 L 16.433594 2.589844 L 15.949219 2.589844 L 15.949219 3.96875 L 16.433594 3.96875 L 16.433594 3.457031 " fill-opacity="1" fill-rule="nonzero"/><path fill="#935f3d" d="M 20.449219 3.96875 L 20.9375 2.65625 L 20.453125 2.65625 L 19.964844 3.96875 L 20.449219 3.96875 " fill-opacity="1" fill-rule="nonzero"/><path fill="#935f3d" d="M 20.703125 3.730469 C 20.703125 3.828125 20.742188 3.886719 20.777344 3.917969 C 20.808594 3.949219 20.867188 3.988281 20.960938 3.988281 C 21.054688 3.988281 21.113281 3.949219 21.148438 3.914062 L 21.167969 3.890625 L 21.191406 3.917969 C 21.226562 3.949219 21.285156 3.988281 21.378906 3.988281 C 21.472656 3.988281 21.53125 3.949219 21.566406 3.914062 L 21.585938 3.890625 L 21.609375 3.917969 C 21.644531 3.949219 21.703125 3.988281 21.796875 3.988281 C 21.890625 3.988281 21.949219 3.949219 21.984375 3.914062 L 22.003906 3.890625 L 22.027344 3.917969 C 22.0625 3.949219 22.117188 3.988281 22.214844 3.988281 C 22.308594 3.988281 22.367188 3.949219 22.398438 3.917969 L 22.421875 3.890625 L 22.445312 3.917969 C 22.476562 3.949219 22.535156 3.988281 22.632812 3.988281 C 22.726562 3.988281 22.785156 3.949219 22.816406 3.917969 C 22.851562 3.882812 22.890625 3.824219 22.890625 3.730469 C 22.890625 3.636719 22.847656 3.578125 22.816406 3.546875 C 22.78125 3.515625 22.726562 3.476562 22.632812 3.476562 C 22.535156 3.476562 22.476562 3.511719 22.445312 3.542969 L 22.421875 3.570312 L 22.398438 3.546875 C 22.367188 3.515625 22.308594 3.476562 22.214844 3.476562 C 22.117188 3.476562 22.0625 3.511719 22.027344 3.542969 L 22.003906 3.570312 L 21.980469 3.546875 C 21.949219 3.515625 21.890625 3.476562 21.796875 3.476562 C 21.703125 3.476562 21.644531 3.511719 21.609375 3.542969 L 21.585938 3.570312 L 21.566406 3.546875 C 21.53125 3.515625 21.472656 3.476562 21.378906 3.476562 C 21.285156 3.476562 21.226562 3.511719 21.191406 3.542969 L 21.167969 3.570312 L 21.148438 3.546875 C 21.113281 3.515625 21.054688 3.476562 20.960938 3.476562 C 20.867188 3.476562 20.808594 3.511719 20.777344 3.542969 C 20.742188 3.574219 20.703125 3.636719 20.703125 3.730469 " fill-opacity="1" fill-rule="nonzero"/><path fill="#935f3d" d="M 6.488281 2.300781 C 6.667969 2.300781 6.820312 2.152344 6.820312 1.96875 C 6.820312 1.785156 6.667969 1.636719 6.488281 1.636719 C 6.300781 1.636719 6.152344 1.785156 6.152344 1.96875 C 6.152344 2.152344 6.300781 2.300781 6.488281 2.300781 " fill-opacity="1" fill-rule="nonzero"/><path fill="#935f3d" d="M 7.632812 2.300781 C 7.816406 2.300781 7.96875 2.152344 7.96875 1.96875 C 7.96875 1.785156 7.816406 1.636719 7.632812 1.636719 C 7.453125 1.636719 7.300781 1.785156 7.300781 1.96875 C 7.300781 2.152344 7.453125 2.300781 7.632812 2.300781 " fill-opacity="1" fill-rule="nonzero"/><path fill="#935f3d" d="M 8.972656 2.300781 C 9.15625 2.300781 9.308594 2.152344 9.308594 1.96875 C 9.308594 1.785156 9.15625 1.636719 8.972656 1.636719 C 8.789062 1.636719 8.640625 1.785156 8.640625 1.96875 C 8.640625 2.152344 8.789062 2.300781 8.972656 2.300781 " fill-opacity="1" fill-rule="nonzero"/><g clip-path="url(#a057909518)"><path fill="#935f3d" d="M 4.890625 18.109375 C 4.894531 18.0625 4.894531 18.007812 4.894531 17.972656 L 4.894531 17.9375 C 4.890625 17.914062 4.890625 17.890625 4.890625 17.863281 L 4.890625 3.117188 C 4.890625 1.675781 5.902344 0.664062 7.355469 0.664062 L 11.554688 0.664062 C 12.957031 0.667969 14.355469 0.667969 15.757812 0.667969 C 18.511719 0.667969 20.75 0.664062 22.75 0.648438 C 23.449219 0.648438 24.09375 0.910156 24.566406 1.386719 C 25.039062 1.855469 25.285156 2.484375 25.28125 3.199219 L 25.277344 3.59375 L 25.277344 4.109375 C 25.265625 7.324219 25.269531 10.507812 25.269531 13.757812 L 25.273438 17.851562 L 25.273438 20.039062 L 4.890625 20.039062 Z M 27.148438 22.464844 C 27.148438 22.53125 27.140625 22.601562 27.128906 22.675781 C 27.121094 22.742188 27.105469 22.808594 27.082031 22.878906 C 27.058594 22.96875 27.023438 23.050781 26.980469 23.128906 C 26.957031 23.167969 26.933594 23.210938 26.910156 23.242188 C 26.886719 23.28125 26.855469 23.316406 26.828125 23.351562 C 26.558594 23.675781 26.167969 23.863281 25.75 23.863281 L 4.234375 23.863281 C 3.8125 23.863281 3.421875 23.675781 3.152344 23.351562 C 3.125 23.316406 3.097656 23.28125 3.070312 23.246094 C 3.046875 23.210938 3.023438 23.167969 3 23.125 C 2.957031 23.050781 2.921875 22.96875 2.898438 22.878906 C 2.875 22.808594 2.859375 22.742188 2.851562 22.675781 C 2.839844 22.601562 2.835938 22.535156 2.835938 22.464844 L 2.835938 10.21875 L 2.839844 10.21875 L 2.839844 7.085938 L 2.835938 6.953125 L 2.835938 5.648438 C 2.835938 4.878906 3.457031 4.25 4.222656 4.246094 L 4.222656 17.988281 C 4.222656 18.015625 4.222656 18.042969 4.222656 18.066406 L 4.222656 20.691406 L 25.929688 20.691406 L 25.929688 17.851562 L 25.921875 17.71875 L 25.921875 4.671875 L 25.925781 4.597656 C 25.925781 4.484375 25.925781 4.371094 25.925781 4.257812 C 26.609375 4.34375 27.148438 4.941406 27.148438 5.648438 Z M 11.792969 26.820312 L 12.753906 24.511719 L 17.179688 24.511719 L 18.140625 26.820312 Z M 8.351562 28.363281 L 8.351562 27.472656 L 21.582031 27.472656 L 21.582031 28.363281 Z M 25.925781 3.605469 C 25.925781 3.398438 25.921875 3.191406 25.917969 2.988281 C 25.867188 1.257812 24.570312 0 22.835938 0 L 7.375 0 C 6.476562 0 5.667969 0.3125 5.101562 0.882812 C 4.535156 1.453125 4.222656 2.261719 4.222656 3.164062 L 4.222656 3.597656 C 3.097656 3.601562 2.179688 4.519531 2.179688 5.648438 L 2.179688 22.464844 C 2.179688 22.570312 2.191406 22.675781 2.207031 22.777344 C 2.222656 22.882812 2.246094 22.980469 2.273438 23.070312 C 2.292969 23.136719 2.316406 23.199219 2.34375 23.265625 C 2.371094 23.324219 2.398438 23.378906 2.429688 23.4375 C 2.460938 23.496094 2.496094 23.550781 2.535156 23.609375 C 2.570312 23.664062 2.609375 23.714844 2.652344 23.769531 C 3.042969 24.242188 3.621094 24.511719 4.234375 24.511719 L 12.050781 24.511719 L 11.085938 26.820312 L 7.699219 26.820312 L 7.699219 29.015625 L 22.234375 29.015625 L 22.234375 26.820312 L 18.847656 26.820312 L 17.882812 24.511719 L 25.75 24.511719 C 26.359375 24.511719 26.9375 24.242188 27.332031 23.765625 C 27.371094 23.714844 27.410156 23.664062 27.449219 23.605469 C 27.484375 23.550781 27.523438 23.496094 27.550781 23.4375 C 27.582031 23.378906 27.609375 23.324219 27.636719 23.261719 C 27.664062 23.199219 27.6875 23.136719 27.703125 23.074219 C 27.734375 22.980469 27.757812 22.882812 27.773438 22.777344 C 27.789062 22.675781 27.800781 22.570312 27.800781 22.464844 L 27.800781 5.648438 C 27.800781 4.585938 26.972656 3.699219 25.925781 3.605469 " fill-opacity="1" fill-rule="nonzero"/></g><path fill="#935f3d" d="M 23.726562 12.46875 L 23.71875 12.445312 L 23.707031 12.402344 L 23.691406 12.371094 L 23.671875 12.339844 C 23.660156 12.320312 23.648438 12.304688 23.632812 12.292969 L 23.628906 12.285156 L 23.625 12.28125 C 23.609375 12.265625 23.59375 12.253906 23.574219 12.242188 L 23.542969 12.222656 L 23.511719 12.207031 L 23.46875 12.195312 L 23.445312 12.1875 C 23.421875 12.183594 23.398438 12.179688 23.375 12.179688 L 20.867188 12.179688 C 20.671875 12.179688 20.507812 12.339844 20.507812 12.539062 C 20.507812 12.738281 20.671875 12.898438 20.867188 12.898438 L 22.511719 12.898438 L 18.21875 17.191406 L 15.242188 14.214844 L 15.234375 14.210938 L 15.210938 14.191406 L 15.183594 14.171875 L 15.152344 14.152344 L 15.089844 14.128906 L 15.054688 14.121094 L 15.023438 14.117188 L 14.957031 14.117188 L 14.914062 14.125 L 14.890625 14.132812 L 14.851562 14.144531 L 14.824219 14.160156 L 14.789062 14.179688 L 14.761719 14.199219 L 14.738281 14.21875 L 14.734375 14.226562 L 14.730469 14.230469 L 10.574219 18.746094 C 10.441406 18.890625 10.449219 19.117188 10.59375 19.25 C 10.664062 19.3125 10.75 19.34375 10.835938 19.34375 C 10.933594 19.34375 11.03125 19.304688 11.101562 19.230469 L 15.003906 14.992188 L 17.964844 17.949219 C 18.03125 18.019531 18.125 18.054688 18.21875 18.054688 C 18.308594 18.054688 18.398438 18.019531 18.46875 17.949219 L 23.015625 13.402344 L 23.015625 15.046875 C 23.015625 15.242188 23.175781 15.40625 23.375 15.40625 C 23.574219 15.40625 23.734375 15.242188 23.734375 15.046875 L 23.734375 12.539062 C 23.734375 12.515625 23.730469 12.492188 23.726562 12.46875 " fill-opacity="1" fill-rule="nonzero"/><path fill="#935f3d" d="M 6.179688 19.703125 C 5.984375 19.703125 5.824219 19.542969 5.824219 19.34375 L 5.824219 11.464844 C 5.824219 11.265625 5.984375 11.105469 6.179688 11.105469 C 6.378906 11.105469 6.539062 11.265625 6.539062 11.464844 L 6.539062 19.34375 C 6.539062 19.542969 6.378906 19.703125 6.179688 19.703125 " fill-opacity="1" fill-rule="nonzero"/><path fill="#935f3d" d="M 8.328125 12.179688 L 7.613281 12.179688 C 7.417969 12.179688 7.253906 12.019531 7.253906 11.820312 C 7.253906 11.625 7.417969 11.464844 7.613281 11.464844 L 8.328125 11.464844 C 8.527344 11.464844 8.6875 11.625 8.6875 11.820312 C 8.6875 12.019531 8.527344 12.179688 8.328125 12.179688 " fill-opacity="1" fill-rule="nonzero"/><path fill="#935f3d" d="M 9.046875 13.613281 L 7.613281 13.613281 C 7.417969 13.613281 7.253906 13.453125 7.253906 13.253906 C 7.253906 13.058594 7.417969 12.898438 7.613281 12.898438 L 9.046875 12.898438 C 9.246094 12.898438 9.40625 13.058594 9.40625 13.253906 C 9.40625 13.453125 9.246094 13.613281 9.046875 13.613281 " fill-opacity="1" fill-rule="nonzero"/><path fill="#935f3d" d="M 8.328125 15.046875 L 7.613281 15.046875 C 7.417969 15.046875 7.253906 14.886719 7.253906 14.6875 C 7.253906 14.492188 7.417969 14.328125 7.613281 14.328125 L 8.328125 14.328125 C 8.527344 14.328125 8.6875 14.492188 8.6875 14.6875 C 8.6875 14.886719 8.527344 15.046875 8.328125 15.046875 " fill-opacity="1" fill-rule="nonzero"/><path fill="#935f3d" d="M 9.046875 16.480469 L 7.613281 16.480469 C 7.417969 16.480469 7.253906 16.320312 7.253906 16.121094 C 7.253906 15.921875 7.417969 15.761719 7.613281 15.761719 L 9.046875 15.761719 C 9.246094 15.761719 9.40625 15.921875 9.40625 16.121094 C 9.40625 16.320312 9.246094 16.480469 9.046875 16.480469 " fill-opacity="1" fill-rule="nonzero"/><path fill="#935f3d" d="M 8.328125 17.914062 L 7.613281 17.914062 C 7.417969 17.914062 7.253906 17.75 7.253906 17.554688 C 7.253906 17.355469 7.417969 17.195312 7.613281 17.195312 L 8.328125 17.195312 C 8.527344 17.195312 8.6875 17.355469 8.6875 17.554688 C 8.6875 17.75 8.527344 17.914062 8.328125 17.914062 " fill-opacity="1" fill-rule="nonzero"/><path fill="#935f3d" d="M 9.046875 19.34375 L 7.613281 19.34375 C 7.417969 19.34375 7.253906 19.183594 7.253906 18.988281 C 7.253906 18.789062 7.417969 18.628906 7.613281 18.628906 L 9.046875 18.628906 C 9.246094 18.628906 9.40625 18.789062 9.40625 18.988281 C 9.40625 19.183594 9.246094 19.34375 9.046875 19.34375 " fill-opacity="1" fill-rule="nonzero"/><path fill="#935f3d" d="M 21.460938 8.105469 L 21.460938 8.816406 C 21.464844 8.84375 21.441406 8.867188 21.414062 8.871094 L 17.324219 8.871094 C 17.296875 8.871094 17.273438 8.847656 17.269531 8.820312 L 17.269531 8.105469 C 17.269531 8.078125 17.289062 8.050781 17.320312 8.050781 L 21.40625 8.050781 C 21.4375 8.046875 21.460938 8.070312 21.460938 8.097656 L 21.460938 8.105469 " fill-opacity="1" fill-rule="nonzero"/><path fill="#935f3d" d="M 19.929688 9.921875 L 19.929688 10.632812 C 19.929688 10.660156 19.910156 10.683594 19.878906 10.683594 L 17.335938 10.683594 C 17.304688 10.6875 17.28125 10.664062 17.28125 10.636719 L 17.28125 9.921875 C 17.277344 9.890625 17.300781 9.867188 17.328125 9.867188 L 19.878906 9.867188 C 19.910156 9.871094 19.933594 9.890625 19.9375 9.921875 L 19.929688 9.921875 " fill-opacity="1" fill-rule="nonzero"/><path fill="#935f3d" d="M 13.363281 11.0625 L 15.589844 11.105469 C 15.589844 11.894531 15.199219 12.636719 14.542969 13.078125 L 13.363281 11.0625 " fill-opacity="1" fill-rule="nonzero"/><path fill="#935f3d" d="M 13.558594 10.226562 L 13.53125 7.949219 C 13.574219 7.953125 13.621094 7.964844 13.664062 7.964844 C 13.929688 8.015625 14.179688 8.101562 14.421875 8.222656 C 15.199219 8.640625 15.722656 9.414062 15.820312 10.289062 Z M 16.148438 10.449219 C 16.097656 9.398438 15.492188 8.453125 14.5625 7.960938 C 14.382812 7.867188 14.195312 7.792969 14 7.738281 C 13.800781 7.683594 13.59375 7.648438 13.386719 7.632812 L 13.214844 7.621094 L 13.214844 7.789062 L 13.242188 10.382812 L 13.269531 10.539062 L 13.40625 10.539062 L 15.984375 10.621094 L 16.160156 10.621094 L 16.148438 10.449219 " fill-opacity="1" fill-rule="nonzero"/><path fill="#935f3d" d="M 12.617188 10.832031 L 13.878906 13.03125 C 13.492188 13.253906 13.054688 13.371094 12.609375 13.371094 C 11.207031 13.355469 10.082031 12.203125 10.097656 10.800781 C 10.113281 9.460938 11.167969 8.363281 12.503906 8.292969 L 12.609375 10.832031 L 12.617188 10.832031 " fill-opacity="1" fill-rule="nonzero"/></svg>