<svg xmlns="http://www.w3.org/2000/svg" xmlns:xlink="http://www.w3.org/1999/xlink" width="40" zoomAndPan="magnify" viewBox="0 0 30 30.000001" height="40" preserveAspectRatio="xMidYMid meet" version="1.0"><defs><clipPath id="4b0acde9c3"><path d="M 0.484375 0 L 29.515625 0 L 29.515625 29.03125 L 0.484375 29.03125 Z M 0.484375 0 " clip-rule="nonzero"/></clipPath><clipPath id="e267b6f90d"><path d="M 1.5 0 L 19 0 L 19 16 L 1.5 16 Z M 1.5 0 " clip-rule="nonzero"/></clipPath><clipPath id="2628676919"><path d="M 14 6 L 28.355469 6 L 28.355469 29.03125 L 14 29.03125 Z M 14 6 " clip-rule="nonzero"/></clipPath></defs><g clip-path="url(#4b0acde9c3)"><path fill="#ffffff" d="M 0.484375 0 L 29.515625 0 L 29.515625 29.03125 L 0.484375 29.03125 Z M 0.484375 0 " fill-opacity="1" fill-rule="nonzero"/><path fill="#ffffff" d="M 0.484375 0 L 29.515625 0 L 29.515625 29.03125 L 0.484375 29.03125 Z M 0.484375 0 " fill-opacity="1" fill-rule="nonzero"/></g><path fill="#935f3d" d="M 19.539062 22.425781 C 19.484375 22.425781 19.429688 22.414062 19.382812 22.386719 C 19.222656 22.300781 19.164062 22.101562 19.25 21.941406 L 22.160156 16.652344 L 20.863281 15.359375 C 20.734375 15.230469 20.734375 15.023438 20.863281 14.894531 L 22.992188 12.765625 C 23.117188 12.640625 23.328125 12.640625 23.453125 12.765625 C 23.582031 12.894531 23.582031 13.101562 23.453125 13.230469 L 21.558594 15.125 L 22.792969 16.359375 C 22.898438 16.464844 22.921875 16.625 22.851562 16.75 L 19.824219 22.257812 C 19.765625 22.363281 19.652344 22.425781 19.539062 22.425781 " fill-opacity="1" fill-rule="nonzero"/><path fill="#935f3d" d="M 18.960938 16.921875 C 18.601562 16.921875 18.308594 17.214844 18.308594 17.574219 L 18.308594 18.25 C 18.308594 18.609375 18.601562 18.902344 18.960938 18.902344 C 19.320312 18.902344 19.609375 18.609375 19.609375 18.25 L 19.609375 17.574219 C 19.609375 17.214844 19.320312 16.921875 18.960938 16.921875 Z M 18.960938 19.558594 C 18.238281 19.558594 17.652344 18.972656 17.652344 18.25 L 17.652344 17.574219 C 17.652344 16.851562 18.238281 16.265625 18.960938 16.265625 C 19.679688 16.265625 20.265625 16.851562 20.265625 17.574219 L 20.265625 18.25 C 20.265625 18.972656 19.679688 19.558594 18.960938 19.558594 " fill-opacity="1" fill-rule="nonzero"/><path fill="#935f3d" d="M 23.074219 19.789062 C 22.714844 19.789062 22.421875 20.082031 22.421875 20.441406 L 22.421875 21.121094 C 22.421875 21.480469 22.714844 21.773438 23.074219 21.773438 C 23.433594 21.773438 23.726562 21.480469 23.726562 21.121094 L 23.726562 20.441406 C 23.726562 20.082031 23.433594 19.789062 23.074219 19.789062 Z M 23.074219 22.425781 C 22.351562 22.425781 21.769531 21.839844 21.769531 21.121094 L 21.769531 20.441406 C 21.769531 19.722656 22.351562 19.136719 23.074219 19.136719 C 23.792969 19.136719 24.382812 19.722656 24.382812 20.441406 L 24.382812 21.121094 C 24.382812 21.839844 23.792969 22.425781 23.074219 22.425781 " fill-opacity="1" fill-rule="nonzero"/><path fill="#935f3d" d="M 24.230469 14.15625 C 24.046875 14.15625 23.902344 14.007812 23.902344 13.828125 L 23.902344 12.277344 L 22.386719 12.277344 C 22.203125 12.277344 22.058594 12.132812 22.058594 11.949219 C 22.058594 11.769531 22.203125 11.625 22.386719 11.625 L 24.230469 11.625 C 24.410156 11.625 24.558594 11.769531 24.558594 11.949219 L 24.558594 13.828125 C 24.558594 14.007812 24.410156 14.15625 24.230469 14.15625 " fill-opacity="1" fill-rule="nonzero"/><g clip-path="url(#e267b6f90d)"><path fill="#935f3d" d="M 4.808594 0.65625 C 3.375 0.65625 2.210938 1.820312 2.210938 3.25 L 2.210938 9.453125 C 2.210938 10.882812 3.375 12.046875 4.808594 12.046875 L 14.890625 12.046875 C 14.976562 12.046875 15.058594 12.082031 15.117188 12.140625 L 17.386719 14.339844 L 17.386719 3.25 C 17.386719 1.820312 16.21875 0.65625 14.789062 0.65625 Z M 17.710938 15.441406 C 17.628906 15.441406 17.546875 15.410156 17.484375 15.351562 L 14.757812 12.703125 L 4.808594 12.703125 C 3.015625 12.703125 1.558594 11.246094 1.558594 9.453125 L 1.558594 3.25 C 1.558594 1.457031 3.015625 0 4.808594 0 L 14.789062 0 C 16.582031 0 18.039062 1.457031 18.039062 3.25 L 18.039062 15.113281 C 18.039062 15.246094 17.960938 15.363281 17.839844 15.417969 C 17.800781 15.433594 17.753906 15.441406 17.710938 15.441406 " fill-opacity="1" fill-rule="nonzero"/></g><path fill="#935f3d" d="M 26.746094 24.574219 L 15.902344 24.574219 C 15.722656 24.574219 15.578125 24.429688 15.578125 24.246094 C 15.578125 24.066406 15.722656 23.917969 15.902344 23.917969 L 26.746094 23.917969 C 26.925781 23.917969 27.074219 24.066406 27.074219 24.246094 C 27.074219 24.429688 26.925781 24.574219 26.746094 24.574219 " fill-opacity="1" fill-rule="nonzero"/><g clip-path="url(#2628676919)"><path fill="#935f3d" d="M 27.066406 29.03125 L 15.585938 29.03125 C 14.828125 29.03125 14.214844 28.417969 14.214844 27.664062 L 14.214844 13.960938 C 14.214844 13.78125 14.363281 13.636719 14.542969 13.636719 C 14.722656 13.636719 14.871094 13.78125 14.871094 13.960938 L 14.871094 27.664062 C 14.871094 28.058594 15.191406 28.378906 15.585938 28.378906 L 27.066406 28.378906 C 27.457031 28.378906 27.777344 28.058594 27.777344 27.664062 L 27.777344 7.414062 C 27.777344 7.019531 27.457031 6.703125 27.066406 6.703125 L 19.09375 6.703125 C 18.914062 6.703125 18.765625 6.554688 18.765625 6.375 C 18.765625 6.191406 18.914062 6.046875 19.09375 6.046875 L 27.066406 6.046875 C 27.820312 6.046875 28.433594 6.660156 28.433594 7.414062 L 28.433594 27.664062 C 28.433594 28.417969 27.820312 29.03125 27.066406 29.03125 " fill-opacity="1" fill-rule="nonzero"/></g><path fill="#935f3d" d="M 21.324219 25.949219 C 21.023438 25.949219 20.777344 26.195312 20.777344 26.496094 C 20.777344 26.796875 21.023438 27.042969 21.324219 27.042969 C 21.625 27.042969 21.871094 26.796875 21.871094 26.496094 C 21.871094 26.195312 21.625 25.949219 21.324219 25.949219 " fill-opacity="1" fill-rule="nonzero"/><path fill="#935f3d" d="M 22.667969 8.960938 L 19.980469 8.960938 C 19.800781 8.960938 19.652344 8.8125 19.652344 8.632812 C 19.652344 8.449219 19.800781 8.304688 19.980469 8.304688 L 22.667969 8.304688 C 22.851562 8.304688 22.996094 8.449219 22.996094 8.632812 C 22.996094 8.8125 22.851562 8.960938 22.667969 8.960938 " fill-opacity="1" fill-rule="nonzero"/><path fill="#935f3d" d="M 9.796875 7.421875 C 9.746094 7.421875 9.695312 7.40625 9.648438 7.382812 L 5.285156 5.148438 C 5.125 5.066406 5.0625 4.871094 5.144531 4.710938 C 5.226562 4.546875 5.421875 4.484375 5.582031 4.566406 L 9.796875 6.726562 L 14.011719 4.566406 C 14.171875 4.484375 14.371094 4.546875 14.453125 4.710938 C 14.535156 4.871094 14.472656 5.066406 14.308594 5.148438 L 9.949219 7.382812 C 9.898438 7.40625 9.847656 7.421875 9.796875 7.421875 " fill-opacity="1" fill-rule="nonzero"/><path fill="#935f3d" d="M 5.761719 10.039062 L 13.835938 10.039062 L 13.835938 5.035156 L 9.796875 2.335938 L 5.761719 5.035156 Z M 13.90625 10.691406 L 5.691406 10.691406 C 5.367188 10.691406 5.109375 10.429688 5.109375 10.109375 L 5.109375 4.859375 C 5.109375 4.75 5.160156 4.648438 5.253906 4.585938 L 9.617188 1.671875 C 9.726562 1.597656 9.871094 1.597656 9.980469 1.671875 L 14.34375 4.585938 C 14.433594 4.648438 14.488281 4.75 14.488281 4.859375 L 14.488281 10.109375 C 14.488281 10.429688 14.226562 10.691406 13.90625 10.691406 " fill-opacity="1" fill-rule="nonzero"/><path fill="#935f3d" d="M 11.457031 4.9375 L 8.136719 4.9375 C 7.957031 4.9375 7.8125 4.789062 7.8125 4.609375 C 7.8125 4.429688 7.957031 4.28125 8.136719 4.28125 L 11.457031 4.28125 C 11.636719 4.28125 11.785156 4.429688 11.785156 4.609375 C 11.785156 4.789062 11.636719 4.9375 11.457031 4.9375 " fill-opacity="1" fill-rule="nonzero"/></svg>