<svg xmlns="http://www.w3.org/2000/svg" xmlns:xlink="http://www.w3.org/1999/xlink" width="40" zoomAndPan="magnify" viewBox="0 0 30 30.000001" height="40" preserveAspectRatio="xMidYMid meet" version="1.0"><defs><clipPath id="dd523071fe"><path d="M 0.484375 0 L 29.515625 0 L 29.515625 29.03125 L 0.484375 29.03125 Z M 0.484375 0 " clip-rule="nonzero"/></clipPath><clipPath id="9259617431"><path d="M 21 0 L 29.515625 0 L 29.515625 9 L 21 9 Z M 21 0 " clip-rule="nonzero"/></clipPath><clipPath id="4db808feb3"><path d="M 0.484375 20 L 9 20 L 9 29.03125 L 0.484375 29.03125 Z M 0.484375 20 " clip-rule="nonzero"/></clipPath></defs><g clip-path="url(#dd523071fe)"><path fill="#ffffff" d="M 0.484375 0 L 29.515625 0 L 29.515625 29.03125 L 0.484375 29.03125 Z M 0.484375 0 " fill-opacity="1" fill-rule="nonzero"/><path fill="#ffffff" d="M 0.484375 0 L 29.515625 0 L 29.515625 29.03125 L 0.484375 29.03125 Z M 0.484375 0 " fill-opacity="1" fill-rule="nonzero"/></g><path fill="#935f3d" d="M 20.152344 9.832031 L 11.253906 9.832031 C 10.996094 9.832031 10.773438 9.925781 10.589844 10.109375 C 10.410156 10.289062 10.316406 10.511719 10.316406 10.769531 L 10.316406 11.707031 L 21.085938 11.707031 L 21.085938 10.769531 C 21.085938 10.511719 20.996094 10.289062 20.8125 10.109375 C 20.628906 9.925781 20.410156 9.832031 20.152344 9.832031 Z M 20.152344 9.832031 " fill-opacity="1" fill-rule="nonzero"/><path fill="#935f3d" d="M 11.253906 19.667969 L 20.152344 19.667969 C 20.410156 19.667969 20.628906 19.574219 20.8125 19.394531 C 20.996094 19.210938 21.085938 18.988281 21.085938 18.730469 L 21.085938 12.644531 L 10.316406 12.644531 L 10.316406 18.730469 C 10.316406 18.988281 10.410156 19.210938 10.589844 19.394531 C 10.773438 19.574219 10.996094 19.667969 11.253906 19.667969 Z M 18.746094 13.578125 L 19.683594 13.578125 L 19.683594 14.515625 L 18.746094 14.515625 Z M 18.746094 15.453125 L 19.683594 15.453125 L 19.683594 16.390625 L 18.746094 16.390625 Z M 16.40625 13.578125 L 17.339844 13.578125 L 17.339844 14.515625 L 16.40625 14.515625 Z M 16.40625 15.453125 L 17.339844 15.453125 L 17.339844 16.390625 L 16.40625 16.390625 Z M 16.40625 17.324219 L 17.339844 17.324219 L 17.339844 18.261719 L 16.40625 18.261719 Z M 14.0625 13.578125 L 15 13.578125 L 15 14.515625 L 14.0625 14.515625 Z M 14.0625 15.453125 L 15 15.453125 L 15 16.390625 L 14.0625 16.390625 Z M 14.0625 17.324219 L 15 17.324219 L 15 18.261719 L 14.0625 18.261719 Z M 11.722656 15.453125 L 12.660156 15.453125 L 12.660156 16.390625 L 11.722656 16.390625 Z M 11.722656 17.324219 L 12.660156 17.324219 L 12.660156 18.261719 L 11.722656 18.261719 Z M 11.722656 17.324219 " fill-opacity="1" fill-rule="nonzero"/><g clip-path="url(#9259617431)"><path fill="#935f3d" d="M 25.300781 0 C 25.023438 0 24.75 0.0273438 24.480469 0.0820312 C 24.207031 0.136719 23.945312 0.214844 23.6875 0.320312 C 23.433594 0.425781 23.191406 0.554688 22.960938 0.710938 C 22.730469 0.863281 22.515625 1.039062 22.320312 1.234375 C 22.125 1.429688 21.953125 1.644531 21.796875 1.871094 C 21.644531 2.101562 21.515625 2.347656 21.410156 2.601562 C 21.300781 2.855469 21.222656 3.121094 21.167969 3.390625 C 21.113281 3.664062 21.085938 3.9375 21.085938 4.214844 C 21.085938 4.492188 21.113281 4.765625 21.167969 5.035156 C 21.222656 5.308594 21.300781 5.570312 21.410156 5.828125 C 21.515625 6.082031 21.644531 6.324219 21.796875 6.554688 C 21.953125 6.785156 22.125 7 22.320312 7.195312 C 22.515625 7.390625 22.730469 7.566406 22.960938 7.71875 C 23.191406 7.871094 23.433594 8.003906 23.6875 8.109375 C 23.945312 8.214844 24.207031 8.292969 24.480469 8.347656 C 24.75 8.402344 25.023438 8.429688 25.300781 8.429688 C 25.578125 8.429688 25.851562 8.402344 26.125 8.347656 C 26.394531 8.292969 26.660156 8.214844 26.914062 8.109375 C 27.171875 8.003906 27.414062 7.871094 27.644531 7.71875 C 27.875 7.566406 28.085938 7.390625 28.28125 7.195312 C 28.476562 7 28.652344 6.785156 28.804688 6.554688 C 28.960938 6.324219 29.089844 6.082031 29.195312 5.828125 C 29.300781 5.570312 29.382812 5.308594 29.433594 5.035156 C 29.488281 4.765625 29.515625 4.492188 29.515625 4.214844 C 29.515625 3.9375 29.488281 3.664062 29.433594 3.390625 C 29.382812 3.121094 29.300781 2.855469 29.195312 2.601562 C 29.089844 2.347656 28.960938 2.101562 28.804688 1.871094 C 28.652344 1.644531 28.476562 1.429688 28.28125 1.234375 C 28.085938 1.039062 27.875 0.863281 27.644531 0.710938 C 27.414062 0.554688 27.171875 0.425781 26.914062 0.320312 C 26.660156 0.214844 26.394531 0.136719 26.125 0.0820312 C 25.851562 0.0273438 25.578125 0 25.300781 0 Z M 24.804688 5.871094 C 24.714844 5.960938 24.601562 6.007812 24.472656 6.007812 C 24.34375 6.007812 24.234375 5.960938 24.144531 5.871094 L 23.148438 4.875 L 23.8125 4.214844 L 24.472656 4.875 L 26.792969 2.558594 L 27.457031 3.222656 Z M 24.804688 5.871094 " fill-opacity="1" fill-rule="nonzero"/></g><path fill="#935f3d" d="M 15 26.691406 C 14.617188 26.691406 14.222656 26.667969 13.828125 26.628906 L 13.828125 25.472656 L 11.019531 27.160156 L 13.828125 28.84375 L 13.828125 27.570312 C 14.222656 27.605469 14.617188 27.628906 15 27.628906 C 15.523438 27.628906 16.042969 27.597656 16.5625 27.535156 C 17.082031 27.472656 17.59375 27.378906 18.101562 27.253906 C 18.609375 27.128906 19.105469 26.976562 19.597656 26.792969 C 20.085938 26.609375 20.5625 26.398438 21.027344 26.15625 C 21.488281 25.917969 21.9375 25.652344 22.371094 25.355469 C 22.800781 25.0625 23.214844 24.746094 23.609375 24.402344 C 24.003906 24.058594 24.375 23.691406 24.726562 23.304688 C 25.074219 22.917969 25.402344 22.511719 25.703125 22.085938 C 26.003906 21.65625 26.28125 21.214844 26.527344 20.753906 C 26.777344 20.296875 27 19.824219 27.191406 19.335938 C 27.382812 18.851562 27.546875 18.355469 27.679688 17.851562 C 27.8125 17.34375 27.914062 16.832031 27.984375 16.316406 C 28.058594 15.796875 28.097656 15.277344 28.109375 14.757812 C 28.117188 14.234375 28.097656 13.714844 28.042969 13.191406 C 27.992188 12.671875 27.90625 12.160156 27.792969 11.648438 C 27.679688 11.140625 27.535156 10.636719 27.363281 10.144531 L 26.480469 10.457031 C 26.640625 10.917969 26.773438 11.382812 26.878906 11.855469 C 26.988281 12.328125 27.0625 12.804688 27.113281 13.289062 C 27.160156 13.773438 27.179688 14.253906 27.171875 14.742188 C 27.164062 15.226562 27.125 15.707031 27.058594 16.1875 C 26.992188 16.667969 26.894531 17.144531 26.773438 17.613281 C 26.648438 18.082031 26.496094 18.542969 26.320312 18.992188 C 26.140625 19.445312 25.9375 19.882812 25.703125 20.308594 C 25.472656 20.738281 25.21875 21.148438 24.9375 21.542969 C 24.65625 21.941406 24.355469 22.316406 24.03125 22.679688 C 23.703125 23.039062 23.359375 23.378906 22.992188 23.695312 C 22.628906 24.015625 22.246094 24.308594 21.84375 24.582031 C 21.441406 24.855469 21.027344 25.101562 20.59375 25.328125 C 20.164062 25.550781 19.722656 25.746094 19.269531 25.917969 C 18.8125 26.085938 18.351562 26.230469 17.878906 26.34375 C 17.40625 26.460938 16.933594 26.546875 16.449219 26.605469 C 15.96875 26.660156 15.484375 26.691406 15 26.691406 Z M 15 26.691406 " fill-opacity="1" fill-rule="nonzero"/><path fill="#935f3d" d="M 15 2.339844 C 15.378906 2.339844 15.765625 2.363281 16.171875 2.398438 L 16.171875 3.558594 L 18.980469 1.875 L 16.171875 0.1875 L 16.171875 1.460938 C 15.769531 1.425781 15.378906 1.40625 15 1.40625 C 14.476562 1.40625 13.957031 1.4375 13.4375 1.5 C 12.917969 1.5625 12.40625 1.65625 11.898438 1.777344 C 11.390625 1.902344 10.894531 2.054688 10.402344 2.238281 C 9.914062 2.421875 9.4375 2.632812 8.972656 2.875 C 8.511719 3.113281 8.0625 3.382812 7.628906 3.675781 C 7.199219 3.96875 6.785156 4.289062 6.390625 4.628906 C 5.996094 4.972656 5.625 5.339844 5.273438 5.726562 C 4.925781 6.113281 4.597656 6.523438 4.296875 6.949219 C 3.996094 7.375 3.71875 7.816406 3.472656 8.277344 C 3.222656 8.738281 3 9.210938 2.808594 9.695312 C 2.617188 10.179688 2.453125 10.675781 2.320312 11.183594 C 2.1875 11.6875 2.085938 12.199219 2.015625 12.714844 C 1.941406 13.234375 1.902344 13.753906 1.890625 14.277344 C 1.882812 14.796875 1.902344 15.320312 1.957031 15.839844 C 2.007812 16.359375 2.09375 16.875 2.207031 17.382812 C 2.320312 17.894531 2.464844 18.394531 2.636719 18.886719 L 3.519531 18.574219 C 3.359375 18.117188 3.226562 17.652344 3.121094 17.175781 C 3.011719 16.703125 2.9375 16.226562 2.886719 15.742188 C 2.839844 15.261719 2.820312 14.777344 2.828125 14.292969 C 2.835938 13.808594 2.875 13.324219 2.941406 12.84375 C 3.007812 12.363281 3.105469 11.886719 3.226562 11.417969 C 3.351562 10.949219 3.503906 10.488281 3.679688 10.039062 C 3.859375 9.585938 4.0625 9.148438 4.296875 8.722656 C 4.527344 8.296875 4.78125 7.882812 5.0625 7.488281 C 5.34375 7.09375 5.644531 6.714844 5.96875 6.355469 C 6.296875 5.996094 6.640625 5.65625 7.007812 5.335938 C 7.371094 5.019531 7.753906 4.722656 8.15625 4.449219 C 8.558594 4.175781 8.972656 3.929688 9.40625 3.707031 C 9.835938 3.484375 10.277344 3.285156 10.730469 3.117188 C 11.1875 2.945312 11.648438 2.804688 12.121094 2.6875 C 12.59375 2.574219 13.066406 2.488281 13.550781 2.429688 C 14.03125 2.371094 14.515625 2.339844 15 2.339844 Z M 15 2.339844 " fill-opacity="1" fill-rule="nonzero"/><g clip-path="url(#4db808feb3)"><path fill="#935f3d" d="M 4.699219 29.03125 C 4.976562 29.03125 5.25 29.003906 5.519531 28.953125 C 5.792969 28.898438 6.054688 28.816406 6.3125 28.710938 C 6.566406 28.605469 6.808594 28.476562 7.039062 28.320312 C 7.269531 28.167969 7.484375 27.992188 7.679688 27.796875 C 7.875 27.601562 8.046875 27.390625 8.203125 27.160156 C 8.355469 26.929688 8.484375 26.6875 8.589844 26.429688 C 8.699219 26.175781 8.777344 25.910156 8.832031 25.640625 C 8.886719 25.367188 8.914062 25.09375 8.914062 24.816406 C 8.914062 24.542969 8.886719 24.265625 8.832031 23.996094 C 8.777344 23.722656 8.699219 23.460938 8.589844 23.207031 C 8.484375 22.949219 8.355469 22.707031 8.203125 22.476562 C 8.046875 22.246094 7.875 22.035156 7.679688 21.839844 C 7.484375 21.640625 7.269531 21.46875 7.039062 21.3125 C 6.808594 21.160156 6.566406 21.03125 6.3125 20.925781 C 6.054688 20.820312 5.792969 20.738281 5.519531 20.683594 C 5.25 20.628906 4.976562 20.605469 4.699219 20.605469 C 4.421875 20.605469 4.148438 20.628906 3.875 20.683594 C 3.605469 20.738281 3.339844 20.820312 3.085938 20.925781 C 2.828125 21.03125 2.585938 21.160156 2.355469 21.3125 C 2.125 21.46875 1.914062 21.640625 1.71875 21.839844 C 1.523438 22.035156 1.347656 22.246094 1.195312 22.476562 C 1.039062 22.707031 0.910156 22.949219 0.804688 23.207031 C 0.699219 23.460938 0.617188 23.722656 0.566406 23.996094 C 0.511719 24.265625 0.484375 24.542969 0.484375 24.816406 C 0.484375 25.09375 0.511719 25.367188 0.566406 25.640625 C 0.621094 25.910156 0.699219 26.175781 0.804688 26.429688 C 0.910156 26.683594 1.042969 26.929688 1.195312 27.15625 C 1.347656 27.386719 1.523438 27.601562 1.71875 27.796875 C 1.914062 27.992188 2.128906 28.167969 2.359375 28.320312 C 2.589844 28.472656 2.832031 28.605469 3.085938 28.710938 C 3.339844 28.816406 3.605469 28.894531 3.875 28.949219 C 4.148438 29.003906 4.421875 29.03125 4.699219 29.03125 Z M 5.050781 25.285156 L 4.347656 25.285156 C 4.152344 25.292969 3.964844 25.261719 3.78125 25.195312 C 3.601562 25.128906 3.4375 25.03125 3.296875 24.898438 C 3.152344 24.765625 3.042969 24.613281 2.960938 24.4375 C 2.878906 24.261719 2.832031 24.074219 2.824219 23.882812 C 2.832031 23.699219 2.871094 23.523438 2.945312 23.355469 C 3.019531 23.1875 3.121094 23.039062 3.253906 22.90625 C 3.382812 22.777344 3.53125 22.675781 3.703125 22.605469 C 3.871094 22.53125 4.046875 22.492188 4.230469 22.488281 L 4.230469 22.007812 L 5.167969 22.007812 L 5.167969 22.488281 C 5.351562 22.492188 5.527344 22.53125 5.695312 22.605469 C 5.863281 22.675781 6.011719 22.777344 6.144531 22.90625 C 6.273438 23.039062 6.375 23.1875 6.449219 23.355469 C 6.523438 23.523438 6.5625 23.699219 6.570312 23.882812 L 5.632812 23.882812 C 5.617188 23.738281 5.550781 23.621094 5.4375 23.527344 C 5.324219 23.4375 5.195312 23.398438 5.050781 23.414062 L 4.347656 23.414062 C 4.195312 23.378906 4.0625 23.410156 3.941406 23.507812 C 3.820312 23.601562 3.761719 23.726562 3.761719 23.882812 C 3.761719 24.035156 3.820312 24.160156 3.941406 24.257812 C 4.0625 24.351562 4.195312 24.382812 4.347656 24.351562 L 5.050781 24.351562 C 5.242188 24.34375 5.429688 24.371094 5.613281 24.441406 C 5.796875 24.507812 5.957031 24.605469 6.101562 24.738281 C 6.242188 24.871094 6.355469 25.023438 6.4375 25.199219 C 6.519531 25.375 6.5625 25.5625 6.570312 25.753906 C 6.5625 25.9375 6.523438 26.113281 6.449219 26.28125 C 6.375 26.449219 6.273438 26.597656 6.144531 26.726562 C 6.011719 26.855469 5.863281 26.957031 5.695312 27.03125 C 5.527344 27.101562 5.351562 27.144531 5.167969 27.148438 L 5.167969 27.628906 L 4.230469 27.628906 L 4.230469 27.148438 C 4.046875 27.144531 3.871094 27.101562 3.703125 27.03125 C 3.53125 26.957031 3.382812 26.855469 3.253906 26.726562 C 3.121094 26.597656 3.019531 26.449219 2.945312 26.28125 C 2.871094 26.113281 2.832031 25.9375 2.824219 25.753906 L 3.761719 25.753906 C 3.78125 25.898438 3.847656 26.015625 3.960938 26.105469 C 4.074219 26.195312 4.203125 26.234375 4.347656 26.222656 L 5.050781 26.222656 C 5.199219 26.257812 5.335938 26.226562 5.453125 26.128906 C 5.574219 26.03125 5.632812 25.910156 5.632812 25.753906 C 5.632812 25.601562 5.574219 25.476562 5.453125 25.378906 C 5.335938 25.285156 5.199219 25.253906 5.050781 25.285156 Z M 5.050781 25.285156 " fill-opacity="1" fill-rule="nonzero"/></g></svg>