<svg xmlns="http://www.w3.org/2000/svg" xmlns:xlink="http://www.w3.org/1999/xlink" width="40" zoomAndPan="magnify" viewBox="0 0 30 30.000001" height="40" preserveAspectRatio="xMidYMid meet" version="1.0"><defs><clipPath id="0ba48f9fed"><path d="M 0.484375 0 L 29.515625 0 L 29.515625 29.03125 L 0.484375 29.03125 Z M 0.484375 0 " clip-rule="nonzero"/></clipPath><clipPath id="088deabe43"><path d="M 0.839844 24 L 29.515625 24 L 29.515625 25 L 0.839844 25 Z M 0.839844 24 " clip-rule="nonzero"/></clipPath><clipPath id="f6adcef184"><path d="M 0.839844 25 L 29.515625 25 L 29.515625 26.128906 L 0.839844 26.128906 Z M 0.839844 25 " clip-rule="nonzero"/></clipPath><clipPath id="be83ddab7b"><path d="M 4 2.902344 L 15 2.902344 L 15 14 L 4 14 Z M 4 2.902344 " clip-rule="nonzero"/></clipPath></defs><g clip-path="url(#0ba48f9fed)"><path fill="#ffffff" d="M 0.484375 0 L 29.515625 0 L 29.515625 29.03125 L 0.484375 29.03125 Z M 0.484375 0 " fill-opacity="1" fill-rule="nonzero"/><path fill="#ffffff" d="M 0.484375 0 L 29.515625 0 L 29.515625 29.03125 L 0.484375 29.03125 Z M 0.484375 0 " fill-opacity="1" fill-rule="nonzero"/></g><g clip-path="url(#088deabe43)"><path fill="#925f3d" d="M 29.167969 24.789062 L 1.179688 24.789062 C 1.011719 24.789062 0.84375 24.675781 0.84375 24.453125 C 0.84375 24.285156 1.011719 24.117188 1.179688 24.117188 L 29.167969 24.117188 C 29.335938 24.117188 29.503906 24.285156 29.503906 24.453125 C 29.503906 24.675781 29.335938 24.789062 29.167969 24.789062 Z M 29.167969 24.789062 " fill-opacity="1" fill-rule="evenodd"/></g><g clip-path="url(#f6adcef184)"><path fill="#925f3d" d="M 29.167969 26.414062 L 1.179688 26.414062 C 1.011719 26.414062 0.84375 26.246094 0.84375 26.078125 C 0.84375 25.851562 1.011719 25.742188 1.179688 25.742188 L 29.167969 25.742188 C 29.335938 25.742188 29.503906 25.851562 29.503906 26.078125 C 29.503906 26.246094 29.335938 26.414062 29.167969 26.414062 Z M 29.167969 26.414062 " fill-opacity="1" fill-rule="evenodd"/></g><path fill="#925f3d" d="M 25.023438 12.195312 C 24.855469 12.195312 24.6875 12.082031 24.6875 11.972656 C 24.351562 10.628906 23.34375 9.453125 22.335938 9.226562 C 21.722656 9.117188 21.160156 9.339844 20.714844 9.957031 C 20.601562 10.066406 20.433594 10.125 20.320312 10.066406 C 20.15625 10.011719 20.097656 9.898438 20.097656 9.789062 L 20.097656 9.453125 C 19.652344 9.84375 19.089844 10.570312 19.148438 11.859375 C 19.148438 12.027344 19.035156 12.195312 18.8125 12.195312 C 18.644531 12.195312 18.476562 12.082031 18.476562 11.859375 C 18.476562 11.578125 18.476562 11.300781 18.53125 11.074219 L 18.644531 9.003906 L 18.363281 9.003906 C 18.195312 9.003906 18.082031 8.949219 18.027344 8.835938 C 17.972656 8.722656 17.972656 8.613281 18.027344 8.5 C 18.585938 7.550781 19.316406 6.988281 20.15625 6.765625 C 21.21875 6.542969 22.167969 6.988281 22.503906 7.214844 C 22.839844 7.15625 23.625 6.988281 24.296875 7.4375 C 24.855469 7.773438 25.191406 8.390625 25.304688 9.226562 L 25.359375 11.859375 C 25.359375 12.027344 25.246094 12.140625 25.082031 12.195312 C 25.023438 12.195312 25.023438 12.195312 25.023438 12.195312 Z M 25.023438 12.195312 " fill-opacity="1" fill-rule="evenodd"/><path fill="#925f3d" d="M 21.945312 16.671875 C 20.488281 16.671875 19.148438 15.664062 18.699219 14.265625 L 18.585938 14.265625 C 18.417969 14.265625 18.25 14.152344 18.25 13.929688 L 18.25 12.753906 C 18.25 12.585938 18.363281 12.476562 18.53125 12.417969 L 18.53125 12.027344 C 18.53125 11.859375 18.644531 11.746094 18.8125 11.691406 C 18.921875 10.683594 19.484375 7.269531 21.050781 8.277344 C 22.226562 9.003906 23.007812 9.003906 23.511719 9.003906 C 23.738281 9.003906 23.90625 9.003906 24.015625 9.117188 C 24.128906 9.285156 24.351562 9.621094 24.464844 9.789062 C 24.519531 9.898438 24.519531 9.957031 24.578125 9.957031 C 24.578125 10.011719 24.855469 11.1875 24.96875 11.746094 C 24.96875 11.691406 25.023438 11.691406 25.082031 11.691406 C 25.246094 11.691406 25.414062 11.859375 25.414062 12.027344 L 25.414062 12.417969 C 25.582031 12.476562 25.695312 12.585938 25.695312 12.753906 L 25.695312 13.929688 C 25.695312 14.152344 25.527344 14.265625 25.359375 14.265625 L 25.246094 14.265625 C 24.800781 15.664062 23.457031 16.671875 21.945312 16.671875 Z M 21.945312 16.671875 " fill-opacity="1" fill-rule="evenodd"/><path fill="#925f3d" d="M 27.207031 24.789062 L 16.460938 24.789062 C 16.066406 24.789062 15.675781 24.453125 15.675781 24.0625 L 15.675781 20.925781 C 15.675781 18.800781 17.46875 17.066406 19.59375 17.066406 L 21.554688 21.878906 C 21.554688 22.046875 21.722656 22.101562 21.832031 22.101562 C 22 22.101562 22.113281 22.046875 22.167969 21.933594 L 24.242188 17.066406 C 26.3125 17.121094 27.992188 18.855469 27.992188 20.925781 L 27.992188 24.0625 C 27.992188 24.453125 27.65625 24.789062 27.207031 24.789062 Z M 20.320312 17.066406 L 23.511719 17.066406 L 21.832031 20.925781 Z M 20.320312 17.066406 " fill-opacity="1" fill-rule="evenodd"/><path fill="#925f3d" d="M 25.304688 24.789062 C 25.136719 24.789062 24.96875 24.675781 24.96875 24.453125 L 24.96875 21.488281 C 24.96875 21.320312 25.136719 21.152344 25.304688 21.152344 C 25.527344 21.152344 25.640625 21.320312 25.640625 21.488281 L 25.640625 24.453125 C 25.640625 24.675781 25.527344 24.789062 25.304688 24.789062 Z M 18.363281 24.789062 C 18.195312 24.789062 18.027344 24.675781 18.027344 24.453125 L 18.027344 21.488281 C 18.027344 21.320312 18.195312 21.152344 18.363281 21.152344 C 18.53125 21.152344 18.699219 21.320312 18.699219 21.488281 L 18.699219 24.453125 C 18.699219 24.675781 18.53125 24.789062 18.363281 24.789062 Z M 18.363281 24.789062 " fill-opacity="1" fill-rule="evenodd"/><path fill="#925f3d" d="M 13.269531 22.496094 L 2.632812 22.496094 C 2.296875 22.496094 2.019531 22.214844 2.019531 21.878906 L 2.019531 14.65625 C 2.019531 14.320312 2.296875 14.042969 2.632812 14.042969 L 13.269531 14.042969 C 13.605469 14.042969 13.886719 14.320312 13.886719 14.65625 L 13.886719 21.878906 C 13.886719 22.214844 13.605469 22.496094 13.269531 22.496094 Z M 13.214844 21.039062 L 2.691406 21.039062 L 2.691406 14.714844 L 13.214844 14.714844 Z M 7 21.824219 L 8.902344 21.824219 Z M 7 21.824219 " fill-opacity="1" fill-rule="evenodd"/><path fill="#925f3d" d="M 8.902344 23.835938 L 7 23.835938 C 6.832031 23.835938 6.664062 23.667969 6.664062 23.5 L 6.664062 22.160156 C 6.664062 21.992188 6.832031 21.824219 7 21.824219 L 8.902344 21.824219 C 9.070312 21.824219 9.238281 21.992188 9.238281 22.160156 L 9.238281 23.5 C 9.238281 23.667969 9.070312 23.835938 8.902344 23.835938 Z M 8.902344 23.835938 " fill-opacity="1" fill-rule="evenodd"/><path fill="#925f3d" d="M 10.472656 24.621094 L 5.433594 24.621094 C 5.265625 24.621094 5.097656 24.507812 5.097656 24.285156 L 5.097656 23.835938 C 5.097656 23.390625 5.488281 23 5.9375 23 L 9.96875 23 C 10.472656 23 10.804688 23.390625 10.804688 23.835938 L 10.804688 24.285156 C 10.804688 24.507812 10.636719 24.621094 10.472656 24.621094 Z M 10.472656 24.621094 " fill-opacity="1" fill-rule="evenodd"/><g clip-path="url(#be83ddab7b)"><path fill="#925f3d" d="M 9.96875 13.539062 L 9.238281 13.539062 C 8.960938 13.539062 8.679688 13.316406 8.679688 12.980469 L 8.625 12.082031 C 8.230469 12.027344 7.894531 11.859375 7.617188 11.691406 L 6.886719 12.25 C 6.777344 12.363281 6.664062 12.417969 6.496094 12.417969 C 6.382812 12.417969 6.214844 12.363281 6.105469 12.25 L 5.601562 11.746094 C 5.378906 11.523438 5.378906 11.1875 5.601562 10.90625 L 6.160156 10.234375 C 5.992188 9.957031 5.824219 9.5625 5.769531 9.226562 L 4.875 9.171875 C 4.539062 9.117188 4.3125 8.890625 4.3125 8.613281 L 4.3125 7.886719 C 4.3125 7.550781 4.539062 7.324219 4.875 7.269531 L 5.769531 7.214844 C 5.824219 6.878906 5.992188 6.542969 6.160156 6.207031 L 5.601562 5.535156 C 5.378906 5.308594 5.378906 4.972656 5.601562 4.75 L 6.105469 4.246094 C 6.214844 4.132812 6.382812 4.078125 6.496094 4.078125 C 6.664062 4.078125 6.777344 4.132812 6.886719 4.191406 L 7.617188 4.804688 C 7.894531 4.582031 8.230469 4.46875 8.625 4.359375 L 8.679688 3.464844 C 8.679688 3.183594 8.960938 2.902344 9.238281 2.902344 L 9.96875 2.902344 C 10.246094 2.902344 10.527344 3.183594 10.527344 3.464844 L 10.636719 4.359375 C 10.972656 4.46875 11.308594 4.582031 11.644531 4.804688 L 12.316406 4.191406 C 12.429688 4.132812 12.542969 4.078125 12.710938 4.078125 C 12.878906 4.078125 12.988281 4.132812 13.101562 4.246094 L 13.605469 4.75 C 13.828125 4.972656 13.828125 5.308594 13.605469 5.535156 L 13.046875 6.207031 C 13.269531 6.542969 13.382812 6.878906 13.492188 7.214844 L 14.332031 7.269531 C 14.667969 7.324219 14.894531 7.550781 14.894531 7.886719 L 14.894531 8.613281 C 14.894531 8.890625 14.667969 9.117188 14.332031 9.171875 L 13.492188 9.226562 C 13.382812 9.5625 13.269531 9.957031 13.046875 10.234375 L 13.605469 10.90625 C 13.828125 11.1875 13.828125 11.523438 13.605469 11.746094 L 13.101562 12.25 C 12.988281 12.363281 12.878906 12.417969 12.710938 12.417969 C 12.542969 12.417969 12.429688 12.363281 12.316406 12.25 L 11.644531 11.691406 C 11.308594 11.859375 10.972656 12.027344 10.636719 12.082031 L 10.527344 12.980469 C 10.527344 13.316406 10.246094 13.539062 9.96875 13.539062 Z M 9.632812 11.132812 C 8.007812 11.132812 6.71875 9.84375 6.71875 8.222656 C 6.71875 6.652344 8.007812 5.308594 9.632812 5.308594 C 11.199219 5.308594 12.484375 6.652344 12.484375 8.222656 C 12.484375 9.84375 11.199219 11.132812 9.632812 11.132812 Z M 9.632812 11.132812 " fill-opacity="1" fill-rule="evenodd"/></g><path fill="#925f3d" d="M 10.246094 16.617188 L 5.65625 16.617188 C 5.488281 16.617188 5.320312 16.503906 5.320312 16.28125 C 5.320312 16.113281 5.488281 15.945312 5.65625 15.945312 L 10.246094 15.945312 C 10.414062 15.945312 10.582031 16.113281 10.582031 16.28125 C 10.582031 16.503906 10.414062 16.617188 10.246094 16.617188 Z M 10.246094 16.617188 " fill-opacity="1" fill-rule="evenodd"/><path fill="#925f3d" d="M 10.246094 17.90625 L 5.65625 17.90625 C 5.488281 17.90625 5.320312 17.738281 5.320312 17.570312 C 5.320312 17.34375 5.488281 17.234375 5.65625 17.234375 L 10.246094 17.234375 C 10.414062 17.234375 10.582031 17.34375 10.582031 17.570312 C 10.582031 17.738281 10.414062 17.90625 10.246094 17.90625 Z M 10.246094 17.90625 " fill-opacity="1" fill-rule="evenodd"/><path fill="#925f3d" d="M 10.246094 19.136719 L 5.65625 19.136719 C 5.488281 19.136719 5.320312 18.96875 5.320312 18.800781 C 5.320312 18.632812 5.488281 18.464844 5.65625 18.464844 L 10.246094 18.464844 C 10.414062 18.464844 10.582031 18.632812 10.582031 18.800781 C 10.582031 18.96875 10.414062 19.136719 10.246094 19.136719 Z M 10.246094 19.136719 " fill-opacity="1" fill-rule="evenodd"/></svg>