<svg xmlns="http://www.w3.org/2000/svg" xmlns:xlink="http://www.w3.org/1999/xlink" width="40" zoomAndPan="magnify" viewBox="0 0 30 30.000001" height="40" preserveAspectRatio="xMidYMid meet" version="1.0"><defs><clipPath id="7e202b6376"><path d="M 0.484375 0 L 29.515625 0 L 29.515625 29.03125 L 0.484375 29.03125 Z M 0.484375 0 " clip-rule="nonzero"/></clipPath><clipPath id="9490fad803"><path d="M 6.582031 23.722656 L 16.578125 23.722656 L 16.578125 29.027344 L 6.582031 29.027344 Z M 6.582031 23.722656 " clip-rule="nonzero"/></clipPath><clipPath id="44cc5fb058"><path d="M 20.421875 12.070312 L 23.273438 12.070312 L 23.273438 14.910156 L 20.421875 14.910156 Z M 20.421875 12.070312 " clip-rule="nonzero"/></clipPath><clipPath id="a9706da571"><path d="M 20.421875 9.054688 L 23.273438 9.054688 L 23.273438 11.894531 L 20.421875 11.894531 Z M 20.421875 9.054688 " clip-rule="nonzero"/></clipPath><clipPath id="aebed59b11"><path d="M 20.421875 6 L 23.273438 6 L 23.273438 8.875 L 20.421875 8.875 Z M 20.421875 6 " clip-rule="nonzero"/></clipPath><clipPath id="0103a1ee86"><path d="M 20.421875 15.085938 L 23.273438 15.085938 L 23.273438 17.925781 L 20.421875 17.925781 Z M 20.421875 15.085938 " clip-rule="nonzero"/></clipPath></defs><g clip-path="url(#7e202b6376)"><path fill="#ffffff" d="M 0.484375 0 L 29.515625 0 L 29.515625 29.03125 L 0.484375 29.03125 Z M 0.484375 0 " fill-opacity="1" fill-rule="nonzero"/><path fill="#ffffff" d="M 0.484375 0 L 29.515625 0 L 29.515625 29.03125 L 0.484375 29.03125 Z M 0.484375 0 " fill-opacity="1" fill-rule="nonzero"/></g><g clip-path="url(#9490fad803)"><path fill="#935f3d" d="M 16.117188 26.453125 L 15.976562 26.40625 L 7.992188 23.773438 C 7.667969 23.667969 7.3125 23.84375 7.199219 24.167969 L 6.582031 25.953125 L 15.90625 29.027344 L 16.515625 27.261719 C 16.574219 27.101562 16.5625 26.929688 16.488281 26.773438 C 16.414062 26.625 16.277344 26.507812 16.117188 26.453125 " fill-opacity="1" fill-rule="nonzero"/></g><g clip-path="url(#44cc5fb058)"><path fill="#935f3d" d="M 22.332031 12.082031 C 22.097656 12.082031 21.859375 12.160156 21.664062 12.316406 L 20.839844 12.972656 C 20.375 13.34375 20.296875 14.023438 20.667969 14.488281 C 21.039062 14.949219 21.714844 15.027344 22.179688 14.65625 L 23.003906 14 C 23.46875 13.628906 23.542969 12.953125 23.175781 12.488281 C 22.960938 12.222656 22.648438 12.082031 22.332031 12.082031 " fill-opacity="1" fill-rule="nonzero"/></g><g clip-path="url(#a9706da571)"><path fill="#935f3d" d="M 22.332031 9.058594 C 22.097656 9.058594 21.859375 9.136719 21.664062 9.292969 L 20.839844 9.949219 C 20.375 10.320312 20.296875 10.996094 20.667969 11.460938 C 21.039062 11.925781 21.714844 12.003906 22.179688 11.632812 L 23.003906 10.976562 C 23.46875 10.605469 23.542969 9.925781 23.175781 9.464844 C 22.960938 9.195312 22.648438 9.058594 22.332031 9.058594 " fill-opacity="1" fill-rule="nonzero"/></g><path fill="#935f3d" d="M 19.542969 10.933594 L 19.542969 9.589844 L 19.070312 9.589844 L 19.070312 10.695312 L 17.964844 10.695312 L 17.964844 11.167969 L 19.308594 11.167969 C 19.4375 11.167969 19.542969 11.0625 19.542969 10.933594 " fill-opacity="1" fill-rule="nonzero"/><path fill="#935f3d" d="M 11.320312 10.933594 C 11.320312 11.0625 11.425781 11.167969 11.554688 11.167969 L 12.898438 11.167969 L 12.898438 10.695312 L 11.792969 10.695312 L 11.792969 9.589844 L 11.320312 9.589844 L 11.320312 10.933594 " fill-opacity="1" fill-rule="nonzero"/><path fill="#935f3d" d="M 19.542969 3.179688 C 19.542969 3.050781 19.4375 2.945312 19.308594 2.945312 L 17.964844 2.945312 L 17.964844 3.417969 L 19.070312 3.417969 L 19.070312 4.523438 L 19.542969 4.523438 L 19.542969 3.179688 " fill-opacity="1" fill-rule="nonzero"/><path fill="#935f3d" d="M 11.320312 3.179688 L 11.320312 4.523438 L 11.792969 4.523438 L 11.792969 3.417969 L 12.898438 3.417969 L 12.898438 2.945312 L 11.554688 2.945312 C 11.425781 2.945312 11.320312 3.050781 11.320312 3.179688 " fill-opacity="1" fill-rule="nonzero"/><path fill="#935f3d" d="M 16.667969 4.332031 L 18.082031 4.332031 L 18.082031 5.746094 L 16.667969 5.746094 Z M 16.195312 6.21875 L 18.550781 6.21875 L 18.550781 3.863281 L 16.195312 3.863281 L 16.195312 6.21875 " fill-opacity="1" fill-rule="nonzero"/><path fill="#935f3d" d="M 12.777344 4.328125 L 14.203125 4.328125 L 14.203125 5.753906 L 12.777344 5.753906 Z M 12.316406 6.210938 L 14.660156 6.210938 L 14.660156 3.867188 L 12.316406 3.867188 L 12.316406 6.210938 " fill-opacity="1" fill-rule="nonzero"/><path fill="#935f3d" d="M 14.203125 9.785156 L 12.777344 9.785156 L 12.777344 8.359375 L 14.203125 8.359375 Z M 14.660156 7.902344 L 12.316406 7.902344 L 12.316406 10.242188 L 14.660156 10.242188 L 14.660156 7.902344 " fill-opacity="1" fill-rule="nonzero"/><path fill="#935f3d" d="M 15.660156 3.847656 L 15.203125 3.847656 L 15.203125 4.808594 L 15.660156 4.808594 L 15.660156 3.847656 " fill-opacity="1" fill-rule="nonzero"/><path fill="#935f3d" d="M 15.203125 10.265625 L 15.660156 10.265625 L 15.660156 9.332031 L 15.203125 9.332031 L 15.203125 10.265625 " fill-opacity="1" fill-rule="nonzero"/><path fill="#935f3d" d="M 12.222656 7.285156 L 13.230469 7.285156 L 13.230469 6.828125 L 12.222656 6.828125 L 12.222656 7.285156 " fill-opacity="1" fill-rule="nonzero"/><path fill="#935f3d" d="M 15.203125 6.828125 L 13.75 6.828125 L 13.75 7.285156 L 15.203125 7.285156 L 15.203125 8.8125 L 15.660156 8.8125 L 15.660156 7.285156 L 17.113281 7.285156 L 17.113281 6.828125 L 15.660156 6.828125 L 15.660156 5.328125 L 15.203125 5.328125 L 15.203125 6.828125 " fill-opacity="1" fill-rule="nonzero"/><path fill="#935f3d" d="M 18.640625 6.828125 L 17.632812 6.828125 L 17.632812 7.285156 L 18.640625 7.285156 L 18.640625 6.828125 " fill-opacity="1" fill-rule="nonzero"/><path fill="#935f3d" d="M 17.363281 7.886719 L 16.195312 7.886719 L 16.195312 9.050781 L 16.765625 9.050781 L 16.765625 8.457031 L 17.363281 8.457031 L 17.363281 7.886719 " fill-opacity="1" fill-rule="nonzero"/><path fill="#935f3d" d="M 18.550781 8.457031 L 18.550781 7.886719 L 17.980469 7.886719 L 17.980469 8.457031 L 18.550781 8.457031 " fill-opacity="1" fill-rule="nonzero"/><path fill="#935f3d" d="M 17.386719 9.050781 L 17.957031 9.050781 L 17.957031 8.480469 L 17.386719 8.480469 L 17.386719 9.050781 " fill-opacity="1" fill-rule="nonzero"/><path fill="#935f3d" d="M 17.363281 9.648438 L 17.363281 9.078125 L 16.789062 9.078125 L 16.789062 9.648438 L 17.363281 9.648438 " fill-opacity="1" fill-rule="nonzero"/><path fill="#935f3d" d="M 16.195312 10.242188 L 16.765625 10.242188 L 16.765625 9.671875 L 16.195312 9.671875 L 16.195312 10.242188 " fill-opacity="1" fill-rule="nonzero"/><path fill="#935f3d" d="M 18.550781 9.078125 L 17.980469 9.078125 L 17.980469 9.671875 L 17.386719 9.671875 L 17.386719 10.242188 L 18.550781 10.242188 L 18.550781 9.078125 " fill-opacity="1" fill-rule="nonzero"/><path fill="#935f3d" d="M 15.160156 16.933594 C 15.164062 16.933594 15.167969 16.933594 15.167969 16.933594 C 15.257812 16.945312 15.347656 16.953125 15.441406 16.953125 C 15.527344 16.953125 15.613281 16.945312 15.695312 16.9375 C 16.714844 16.8125 17.488281 15.9375 17.488281 14.90625 C 17.488281 14.867188 17.488281 14.828125 17.484375 14.785156 C 17.476562 14.652344 17.363281 14.550781 17.226562 14.558594 C 17.09375 14.566406 16.992188 14.683594 17 14.816406 C 17.003906 14.84375 17.003906 14.875 17.003906 14.90625 C 17.003906 15.695312 16.414062 16.359375 15.632812 16.457031 C 15.5 16.472656 15.363281 16.472656 15.230469 16.453125 C 15.226562 16.453125 15.222656 16.453125 15.222656 16.453125 C 14.457031 16.34375 13.878906 15.679688 13.878906 14.90625 C 13.878906 14.046875 14.582031 13.34375 15.441406 13.34375 C 15.585938 13.34375 15.726562 13.363281 15.863281 13.402344 C 15.992188 13.441406 16.128906 13.367188 16.164062 13.238281 C 16.199219 13.109375 16.125 12.972656 15.996094 12.9375 C 15.816406 12.886719 15.628906 12.859375 15.441406 12.859375 C 14.3125 12.859375 13.394531 13.777344 13.394531 14.90625 C 13.394531 15.921875 14.15625 16.792969 15.160156 16.933594 " fill-opacity="1" fill-rule="nonzero"/><path fill="#935f3d" d="M 17.445312 12.902344 C 17.339844 12.820312 17.1875 12.839844 17.105469 12.945312 L 15.425781 15.085938 L 14.953125 14.496094 C 14.867188 14.390625 14.714844 14.371094 14.609375 14.457031 C 14.507812 14.539062 14.488281 14.691406 14.574219 14.796875 L 15.238281 15.628906 C 15.285156 15.6875 15.351562 15.71875 15.425781 15.71875 C 15.5 15.71875 15.570312 15.683594 15.617188 15.625 L 17.488281 13.242188 C 17.570312 13.136719 17.550781 12.984375 17.445312 12.902344 " fill-opacity="1" fill-rule="nonzero"/><path fill="#935f3d" d="M 12.316406 20.433594 C 12.214844 18.753906 11.617188 17.492188 10.488281 16.90625 C 10.011719 16.65625 9.734375 16.152344 9.785156 15.621094 L 10.054688 12.878906 C 10.160156 12.101562 9.75 10.972656 9.039062 10.617188 C 8.929688 10.5625 8.820312 10.527344 8.714844 10.511719 C 8.695312 10.511719 8.671875 10.507812 8.648438 10.507812 C 8.417969 10.507812 8.214844 10.683594 8.183594 10.917969 L 7.328125 17.453125 C 7.324219 17.480469 6.992188 19.320312 7.480469 20.789062 C 7.644531 21.289062 7.832031 21.578125 7.996094 21.832031 C 8.265625 22.257812 8.484375 22.597656 8.4375 23.546875 L 15.886719 26.003906 C 16.078125 24.917969 16.726562 24.359375 17.40625 23.769531 C 17.816406 23.417969 18.234375 23.054688 18.597656 22.550781 C 18.984375 22.007812 19.246094 21.394531 19.394531 20.875 L 12.304688 20.875 L 12.316406 20.433594 " fill-opacity="1" fill-rule="nonzero"/><path fill="#935f3d" d="M 9.539062 10.535156 L 9.539062 1.457031 C 9.539062 0.921875 9.976562 0.488281 10.511719 0.488281 L 20.375 0.488281 C 20.910156 0.488281 21.34375 0.921875 21.34375 1.457031 L 21.34375 6.066406 L 21.472656 5.96875 L 21.828125 5.6875 L 21.828125 1.457031 C 21.828125 0.65625 21.175781 0.00390625 20.375 0.00390625 L 10.511719 0.00390625 C 9.710938 0.00390625 9.058594 0.65625 9.058594 1.457031 L 9.058594 10.242188 C 9.105469 10.261719 9.152344 10.277344 9.199219 10.300781 C 9.324219 10.363281 9.4375 10.441406 9.539062 10.535156 " fill-opacity="1" fill-rule="nonzero"/><g clip-path="url(#aebed59b11)"><path fill="#935f3d" d="M 20.839844 6.921875 C 20.375 7.292969 20.296875 7.972656 20.667969 8.4375 C 21.039062 8.902344 21.714844 8.976562 22.179688 8.605469 L 23.003906 7.949219 C 23.46875 7.582031 23.542969 6.902344 23.175781 6.4375 C 22.960938 6.171875 22.648438 6.035156 22.332031 6.035156 C 22.097656 6.035156 21.859375 6.109375 21.664062 6.265625 L 20.839844 6.921875 " fill-opacity="1" fill-rule="nonzero"/></g><path fill="#935f3d" d="M 21.34375 19.046875 C 21.34375 19.582031 20.910156 20.015625 20.375 20.015625 L 12.722656 20.015625 C 12.71875 20.015625 12.714844 20.015625 12.710938 20.019531 L 12.742188 20.5 L 20.375 20.5 C 21.175781 20.5 21.828125 19.847656 21.828125 19.046875 L 21.828125 18.285156 L 21.34375 18.285156 L 21.34375 19.046875 " fill-opacity="1" fill-rule="nonzero"/><g clip-path="url(#0103a1ee86)"><path fill="#935f3d" d="M 22.453125 15.113281 C 22.414062 15.109375 22.371094 15.109375 22.332031 15.109375 C 22.089844 15.109375 21.855469 15.1875 21.664062 15.34375 L 20.839844 16 C 20.375 16.367188 20.296875 17.046875 20.667969 17.511719 C 21.039062 17.976562 21.714844 18.050781 22.179688 17.683594 L 23.003906 17.027344 C 23.46875 16.65625 23.542969 15.976562 23.175781 15.511719 C 22.996094 15.289062 22.738281 15.148438 22.453125 15.113281 " fill-opacity="1" fill-rule="nonzero"/></g></svg>