<svg xmlns="http://www.w3.org/2000/svg" xmlns:xlink="http://www.w3.org/1999/xlink" width="40" zoomAndPan="magnify" viewBox="0 0 30 30.000001" height="40" preserveAspectRatio="xMidYMid meet" version="1.0"><defs><g/><clipPath id="e3928c955d"><path d="M 0.484375 0 L 29.515625 0 L 29.515625 29.03125 L 0.484375 29.03125 Z M 0.484375 0 " clip-rule="nonzero"/></clipPath><clipPath id="97245fe7ef"><path d="M 3.386719 0 L 26.613281 0 L 26.613281 23 L 3.386719 23 Z M 3.386719 0 " clip-rule="nonzero"/></clipPath></defs><g clip-path="url(#e3928c955d)"><path fill="#ffffff" d="M 0.484375 0 L 29.515625 0 L 29.515625 29.03125 L 0.484375 29.03125 Z M 0.484375 0 " fill-opacity="1" fill-rule="nonzero"/><path fill="#ffffff" d="M 0.484375 0 L 29.515625 0 L 29.515625 29.03125 L 0.484375 29.03125 Z M 0.484375 0 " fill-opacity="1" fill-rule="nonzero"/></g><g clip-path="url(#97245fe7ef)"><path fill="#3e6ba3" d="M 26.25 11.429688 C 26.25 12.183594 26.175781 12.925781 26.03125 13.660156 C 25.882812 14.398438 25.667969 15.113281 25.378906 15.804688 C 25.09375 16.5 24.742188 17.160156 24.324219 17.78125 C 23.90625 18.40625 23.433594 18.984375 22.902344 19.515625 C 22.371094 20.046875 21.792969 20.519531 21.167969 20.9375 C 20.546875 21.351562 19.886719 21.707031 19.191406 21.992188 C 18.5 22.28125 17.785156 22.496094 17.046875 22.644531 C 16.3125 22.789062 15.570312 22.863281 14.820312 22.863281 C 14.066406 22.863281 13.324219 22.789062 12.589844 22.644531 C 11.851562 22.496094 11.136719 22.28125 10.445312 21.992188 C 9.75 21.707031 9.089844 21.351562 8.46875 20.9375 C 7.84375 20.519531 7.265625 20.046875 6.734375 19.515625 C 6.203125 18.984375 5.730469 18.40625 5.3125 17.78125 C 4.898438 17.160156 4.542969 16.5 4.257812 15.804688 C 3.96875 15.113281 3.753906 14.398438 3.605469 13.660156 C 3.460938 12.925781 3.386719 12.183594 3.386719 11.429688 C 3.386719 10.679688 3.460938 9.9375 3.605469 9.203125 C 3.753906 8.464844 3.96875 7.75 4.257812 7.058594 C 4.542969 6.363281 4.898438 5.703125 5.3125 5.082031 C 5.730469 4.457031 6.203125 3.878906 6.734375 3.347656 C 7.265625 2.816406 7.84375 2.34375 8.46875 1.925781 C 9.089844 1.507812 9.75 1.15625 10.445312 0.871094 C 11.136719 0.582031 11.851562 0.367188 12.589844 0.21875 C 13.324219 0.0742188 14.066406 0 14.820312 0 C 15.570312 0 16.3125 0.0742188 17.046875 0.21875 C 17.785156 0.367188 18.5 0.582031 19.191406 0.871094 C 19.886719 1.15625 20.546875 1.507812 21.167969 1.925781 C 21.792969 2.34375 22.371094 2.816406 22.902344 3.347656 C 23.433594 3.878906 23.90625 4.457031 24.324219 5.082031 C 24.742188 5.703125 25.09375 6.363281 25.378906 7.058594 C 25.667969 7.75 25.882812 8.464844 26.03125 9.203125 C 26.175781 9.9375 26.25 10.679688 26.25 11.429688 Z M 26.25 11.429688 " fill-opacity="1" fill-rule="nonzero"/></g><path fill="#fefefe" d="M 15.445312 18.746094 L 9.757812 18.746094 C 9.253906 18.746094 8.839844 18.335938 8.839844 17.828125 L 8.839844 7.03125 C 8.839844 6.527344 9.253906 6.113281 9.757812 6.113281 L 10.726562 6.113281 C 10.949219 6.113281 10.949219 6.449219 10.726562 6.449219 L 9.757812 6.449219 C 9.441406 6.449219 9.183594 6.714844 9.183594 7.03125 L 9.183594 17.828125 C 9.183594 18.144531 9.441406 18.402344 9.757812 18.402344 L 15.445312 18.402344 C 15.761719 18.402344 16.019531 18.144531 16.019531 17.828125 L 16.019531 7.03125 C 16.019531 6.714844 15.761719 6.449219 15.445312 6.449219 L 14.320312 6.449219 C 14.097656 6.449219 14.097656 6.113281 14.320312 6.113281 L 15.445312 6.113281 C 15.949219 6.113281 16.363281 6.527344 16.363281 7.03125 L 16.363281 17.828125 C 16.363281 18.335938 15.949219 18.746094 15.445312 18.746094 Z M 15.445312 18.746094 " fill-opacity="1" fill-rule="evenodd"/><path fill="#fefefe" d="M 14.320312 7.625 L 10.726562 7.625 C 10.632812 7.625 10.554688 7.546875 10.554688 7.453125 L 10.554688 4.992188 C 10.554688 4.511719 10.863281 4.125 11.234375 4.125 L 14.84375 4.125 C 15.066406 4.125 15.066406 4.46875 14.84375 4.46875 L 11.234375 4.46875 C 11.054688 4.46875 10.898438 4.714844 10.898438 4.992188 L 10.898438 7.28125 L 14.148438 7.28125 L 14.148438 5.53125 C 14.148438 5.308594 14.492188 5.308594 14.492188 5.53125 L 14.492188 7.453125 C 14.492188 7.546875 14.414062 7.625 14.320312 7.625 Z M 14.320312 7.625 " fill-opacity="1" fill-rule="evenodd"/><path fill="#fefefe" d="M 15.367188 5.703125 L 14.320312 5.703125 C 14.226562 5.703125 14.148438 5.625 14.148438 5.53125 L 14.148438 4.820312 C 14.148438 3.902344 15.539062 3.902344 15.539062 4.820312 L 15.539062 5.53125 C 15.539062 5.625 15.460938 5.703125 15.367188 5.703125 Z M 14.492188 5.359375 L 15.195312 5.359375 C 15.195312 5 15.289062 4.46875 14.84375 4.46875 C 14.40625 4.46875 14.492188 5 14.492188 5.359375 Z M 14.492188 5.359375 " fill-opacity="1" fill-rule="evenodd"/><path fill="#fefefe" d="M 14.878906 8.242188 L 10.316406 8.242188 C 10.222656 8.242188 10.152344 8.164062 10.152344 8.070312 L 10.152344 7.453125 C 10.152344 7.359375 10.222656 7.28125 10.316406 7.28125 L 14.878906 7.28125 C 14.972656 7.28125 15.050781 7.359375 15.050781 7.453125 L 15.050781 8.070312 C 15.050781 8.164062 14.972656 8.242188 14.878906 8.242188 Z M 10.488281 7.898438 L 14.707031 7.898438 L 14.707031 7.625 L 10.488281 7.625 Z M 10.488281 7.898438 " fill-opacity="1" fill-rule="evenodd"/><path fill="#fefefe" d="M 14.945312 12.640625 L 10.351562 12.640625 C 9.964844 12.640625 9.640625 12.324219 9.640625 11.929688 L 9.640625 9.449219 C 9.640625 9.054688 9.964844 8.738281 10.351562 8.738281 L 14.945312 8.738281 C 15.339844 8.738281 15.660156 9.054688 15.660156 9.449219 L 15.660156 11.929688 C 15.660156 12.324219 15.339844 12.640625 14.945312 12.640625 Z M 10.351562 9.082031 C 10.152344 9.082031 9.980469 9.246094 9.980469 9.449219 L 9.980469 11.929688 C 9.980469 12.132812 10.152344 12.296875 10.351562 12.296875 L 14.945312 12.296875 C 15.152344 12.296875 15.316406 12.132812 15.316406 11.929688 L 15.316406 9.449219 C 15.316406 9.246094 15.152344 9.082031 14.945312 9.082031 Z M 10.351562 9.082031 " fill-opacity="1" fill-rule="evenodd"/><path fill="#fefefe" d="M 13.101562 14.347656 C 11.824219 14.347656 11.878906 14.46875 11.878906 13.558594 C 11.878906 13.378906 12.023438 13.230469 12.203125 13.230469 C 13.480469 13.230469 13.429688 13.121094 13.429688 14.03125 C 13.429688 14.203125 13.285156 14.347656 13.101562 14.347656 Z M 12.21875 14.003906 L 13.085938 14.003906 L 13.085938 13.574219 L 12.21875 13.574219 Z M 12.21875 14.003906 " fill-opacity="1" fill-rule="evenodd"/><path fill="#fefefe" d="M 10.863281 14.347656 C 9.585938 14.347656 9.640625 14.46875 9.640625 13.558594 C 9.640625 13.378906 9.785156 13.230469 9.964844 13.230469 C 11.242188 13.230469 11.191406 13.121094 11.191406 14.03125 C 11.191406 14.203125 11.046875 14.347656 10.863281 14.347656 Z M 9.980469 14.003906 L 10.847656 14.003906 L 10.847656 13.574219 L 9.980469 13.574219 Z M 9.980469 14.003906 " fill-opacity="1" fill-rule="evenodd"/><path fill="#fefefe" d="M 15.339844 14.347656 C 14.0625 14.347656 14.117188 14.46875 14.117188 13.558594 C 14.117188 13.378906 14.261719 13.230469 14.433594 13.230469 C 15.710938 13.230469 15.660156 13.121094 15.660156 14.03125 C 15.660156 14.203125 15.523438 14.347656 15.339844 14.347656 Z M 14.457031 14.003906 L 15.316406 14.003906 L 15.316406 13.574219 L 14.457031 13.574219 Z M 14.457031 14.003906 " fill-opacity="1" fill-rule="evenodd"/><path fill="#fefefe" d="M 13.101562 16.0625 C 11.824219 16.0625 11.878906 16.175781 11.878906 15.265625 C 11.878906 15.09375 12.023438 14.949219 12.203125 14.949219 C 13.480469 14.949219 13.429688 14.828125 13.429688 15.738281 C 13.429688 15.917969 13.285156 16.0625 13.101562 16.0625 Z M 12.21875 15.71875 L 13.085938 15.71875 L 13.085938 15.289062 L 12.21875 15.289062 Z M 12.21875 15.71875 " fill-opacity="1" fill-rule="evenodd"/><path fill="#fefefe" d="M 10.863281 16.0625 C 9.585938 16.0625 9.640625 16.175781 9.640625 15.265625 C 9.640625 15.09375 9.785156 14.949219 9.964844 14.949219 C 11.242188 14.949219 11.191406 14.828125 11.191406 15.738281 C 11.191406 15.917969 11.046875 16.0625 10.863281 16.0625 Z M 9.980469 15.71875 L 10.847656 15.71875 L 10.847656 15.289062 L 9.980469 15.289062 Z M 9.980469 15.71875 " fill-opacity="1" fill-rule="evenodd"/><path fill="#fefefe" d="M 15.339844 16.0625 C 14.0625 16.0625 14.117188 16.175781 14.117188 15.265625 C 14.117188 15.09375 14.261719 14.949219 14.433594 14.949219 C 15.710938 14.949219 15.660156 14.828125 15.660156 15.738281 C 15.660156 15.917969 15.523438 16.0625 15.339844 16.0625 Z M 14.457031 15.71875 L 15.316406 15.71875 L 15.316406 15.289062 L 14.457031 15.289062 Z M 14.457031 15.71875 " fill-opacity="1" fill-rule="evenodd"/><path fill="#fefefe" d="M 13.101562 17.769531 C 11.824219 17.769531 11.878906 17.890625 11.878906 16.980469 C 11.878906 16.800781 12.023438 16.652344 12.203125 16.652344 C 13.480469 16.652344 13.429688 16.535156 13.429688 17.441406 C 13.429688 17.625 13.285156 17.769531 13.101562 17.769531 Z M 12.21875 17.425781 L 13.085938 17.425781 L 13.085938 16.996094 L 12.21875 16.996094 Z M 12.21875 17.425781 " fill-opacity="1" fill-rule="evenodd"/><path fill="#fefefe" d="M 10.863281 17.769531 C 9.585938 17.769531 9.640625 17.890625 9.640625 16.980469 C 9.640625 16.800781 9.785156 16.652344 9.964844 16.652344 C 11.242188 16.652344 11.191406 16.535156 11.191406 17.441406 C 11.191406 17.625 11.046875 17.769531 10.863281 17.769531 Z M 9.980469 17.425781 L 10.847656 17.425781 L 10.847656 16.996094 L 9.980469 16.996094 Z M 9.980469 17.425781 " fill-opacity="1" fill-rule="evenodd"/><path fill="#fefefe" d="M 15.339844 17.769531 C 14.0625 17.769531 14.117188 17.890625 14.117188 16.980469 C 14.117188 16.800781 14.261719 16.652344 14.433594 16.652344 C 15.710938 16.652344 15.660156 16.535156 15.660156 17.441406 C 15.660156 17.625 15.523438 17.769531 15.339844 17.769531 Z M 14.457031 17.425781 L 15.316406 17.425781 L 15.316406 16.996094 L 14.457031 16.996094 Z M 14.457031 17.425781 " fill-opacity="1" fill-rule="evenodd"/><path fill="#fefefe" d="M 20.222656 16.542969 L 16.191406 16.542969 C 15.960938 16.542969 15.960938 16.199219 16.191406 16.199219 L 20.222656 16.199219 C 20.351562 16.199219 20.460938 16.097656 20.460938 15.960938 L 20.460938 8.894531 C 20.460938 8.765625 20.351562 8.652344 20.222656 8.652344 L 16.191406 8.652344 C 15.960938 8.652344 15.960938 8.308594 16.191406 8.308594 L 20.222656 8.308594 C 20.539062 8.308594 20.804688 8.574219 20.804688 8.894531 L 20.804688 15.960938 C 20.804688 16.285156 20.539062 16.542969 20.222656 16.542969 Z M 20.222656 16.542969 " fill-opacity="1" fill-rule="evenodd"/><path fill="#fefefe" d="M 17.089844 16.542969 C 16.996094 16.542969 16.917969 16.464844 16.917969 16.371094 L 16.917969 8.480469 C 16.917969 8.257812 17.261719 8.257812 17.261719 8.480469 L 17.261719 16.371094 C 17.261719 16.464844 17.195312 16.542969 17.089844 16.542969 Z M 17.089844 16.542969 " fill-opacity="1" fill-rule="evenodd"/><path fill="#fefefe" d="M 18.78125 10.925781 L 18.164062 10.925781 C 18.035156 10.925781 17.929688 10.8125 17.929688 10.683594 L 17.929688 9.398438 C 17.929688 9.269531 18.035156 9.167969 18.164062 9.167969 L 18.78125 9.167969 C 18.910156 9.167969 19.011719 9.269531 19.011719 9.398438 L 19.011719 10.683594 C 19.011719 10.8125 18.910156 10.925781 18.78125 10.925781 Z M 18.273438 10.582031 L 18.667969 10.582031 L 18.667969 9.511719 L 18.273438 9.511719 Z M 18.273438 10.582031 " fill-opacity="1" fill-rule="evenodd"/><path fill="#fefefe" d="M 19.605469 10.925781 C 19.507812 10.925781 19.433594 10.847656 19.433594 10.753906 L 19.433594 9.339844 C 19.433594 9.117188 19.773438 9.117188 19.773438 9.339844 L 19.773438 10.753906 C 19.773438 10.847656 19.699219 10.925781 19.605469 10.925781 Z M 19.605469 10.925781 " fill-opacity="1" fill-rule="evenodd"/><path fill="#fefefe" d="M 18.78125 13.300781 L 18.164062 13.300781 C 18.035156 13.300781 17.929688 13.199219 17.929688 13.070312 L 17.929688 11.78125 C 17.929688 11.65625 18.035156 11.550781 18.164062 11.550781 L 18.78125 11.550781 C 18.910156 11.550781 19.011719 11.65625 19.011719 11.78125 L 19.011719 13.070312 C 19.011719 13.199219 18.910156 13.300781 18.78125 13.300781 Z M 18.273438 12.957031 L 18.667969 12.957031 L 18.667969 11.894531 L 18.273438 11.894531 Z M 18.273438 12.957031 " fill-opacity="1" fill-rule="evenodd"/><path fill="#fefefe" d="M 19.605469 13.300781 C 19.507812 13.300781 19.433594 13.222656 19.433594 13.128906 L 19.433594 11.722656 C 19.433594 11.5 19.773438 11.5 19.773438 11.722656 L 19.773438 13.128906 C 19.773438 13.222656 19.699219 13.300781 19.605469 13.300781 Z M 19.605469 13.300781 " fill-opacity="1" fill-rule="evenodd"/><path fill="#fefefe" d="M 18.78125 15.683594 L 18.164062 15.683594 C 18.035156 15.683594 17.929688 15.582031 17.929688 15.453125 L 17.929688 14.167969 C 17.929688 14.039062 18.035156 13.9375 18.164062 13.9375 L 18.78125 13.9375 C 18.910156 13.9375 19.011719 14.039062 19.011719 14.167969 L 19.011719 15.453125 C 19.011719 15.582031 18.910156 15.683594 18.78125 15.683594 Z M 18.273438 15.34375 L 18.667969 15.34375 L 18.667969 14.277344 L 18.273438 14.277344 Z M 18.273438 15.34375 " fill-opacity="1" fill-rule="evenodd"/><path fill="#fefefe" d="M 19.605469 15.683594 C 19.507812 15.683594 19.433594 15.609375 19.433594 15.511719 L 19.433594 14.105469 C 19.433594 13.882812 19.773438 13.882812 19.773438 14.105469 L 19.773438 15.511719 C 19.773438 15.609375 19.699219 15.683594 19.605469 15.683594 Z M 19.605469 15.683594 " fill-opacity="1" fill-rule="evenodd"/><g fill="#0d203b" fill-opacity="1"><g transform="translate(2.040765, 26.522881)"><g><path d="M 0.125 -1.375 L 0 -1.375 L 0.125 -1.890625 L 0.625 -1.890625 L 0.625 -0.875 C 0.625 -0.78125 0.625 -0.707031 0.625 -0.65625 C 0.632812 -0.613281 0.640625 -0.582031 0.640625 -0.5625 C 0.648438 -0.53125 0.664062 -0.503906 0.6875 -0.484375 C 0.707031 -0.472656 0.734375 -0.46875 0.765625 -0.46875 C 0.785156 -0.46875 0.804688 -0.472656 0.828125 -0.484375 C 0.847656 -0.503906 0.863281 -0.53125 0.875 -0.5625 C 0.875 -0.582031 0.875 -0.613281 0.875 -0.65625 C 0.882812 -0.695312 0.890625 -0.769531 0.890625 -0.875 L 0.890625 -1.890625 L 1.390625 -1.890625 L 1.390625 -0.796875 C 1.390625 -0.734375 1.390625 -0.675781 1.390625 -0.625 C 1.390625 -0.582031 1.390625 -0.546875 1.390625 -0.515625 C 1.390625 -0.484375 1.382812 -0.453125 1.375 -0.421875 C 1.375 -0.398438 1.367188 -0.378906 1.359375 -0.359375 C 1.316406 -0.234375 1.242188 -0.132812 1.140625 -0.0625 C 1.035156 0 0.90625 0.03125 0.75 0.03125 C 0.632812 0.03125 0.53125 0.0078125 0.4375 -0.03125 C 0.34375 -0.0820312 0.265625 -0.148438 0.203125 -0.234375 C 0.191406 -0.265625 0.179688 -0.296875 0.171875 -0.328125 C 0.160156 -0.359375 0.148438 -0.394531 0.140625 -0.4375 C 0.128906 -0.476562 0.125 -0.523438 0.125 -0.578125 C 0.125 -0.640625 0.125 -0.707031 0.125 -0.78125 Z M 0.125 -1.375 "/></g></g></g><g fill="#0d203b" fill-opacity="1"><g transform="translate(3.559212, 26.522881)"><g><path d="M 0.125 -1.375 L 0.015625 -1.375 L 0.125 -1.890625 L 0.640625 -1.890625 L 0.640625 -0.515625 L 1.015625 -0.515625 L 0.90625 0 L 0.125 0 Z M 0.125 -1.375 "/></g></g></g><g fill="#0d203b" fill-opacity="1"><g transform="translate(4.590394, 26.522881)"><g><path d="M 0.28125 -1.375 L 0.015625 -1.375 L 0.125 -1.890625 L 0.703125 -1.890625 L 0.71875 -1.953125 L 1.171875 -1.953125 L 1.03125 -1.375 L 0.78125 -1.375 L 0.78125 0 L 0.28125 0 Z M 0.28125 -1.375 "/></g></g></g><g fill="#0d203b" fill-opacity="1"><g transform="translate(5.71223, 26.522881)"><g><path d="M 0.140625 -1.375 L 0.015625 -1.375 L 0.140625 -1.890625 L 0.640625 -1.890625 L 0.640625 0 L 0.140625 0 Z M 0.140625 -1.375 "/></g></g></g><g fill="#0d203b" fill-opacity="1"><g transform="translate(6.48845, 26.522881)"><g><path d="M 0.125 -1.375 L 0.015625 -1.375 L 0.125 -1.890625 L 0.640625 -1.890625 L 0.90625 -1.453125 L 1.171875 -1.890625 L 1.6875 -1.890625 L 1.6875 0 L 1.171875 0 L 1.171875 -1.0625 L 0.90625 -0.625 L 0.640625 -1.0625 L 0.640625 0 L 0.125 0 Z M 0.125 -1.375 "/></g></g></g><g fill="#0d203b" fill-opacity="1"><g transform="translate(8.30152, 26.522881)"><g><path d="M 0.328125 -1.375 L 0.21875 -1.375 L 0.328125 -1.890625 L 1.140625 -1.890625 L 1.59375 0 L 1.03125 0 L 0.96875 -0.328125 L 0.609375 -0.328125 L 0.546875 0 L 0 0 Z M 0.90625 -0.75 L 0.796875 -1.265625 L 0.671875 -0.75 Z M 0.90625 -0.75 "/></g></g></g><g fill="#0d203b" fill-opacity="1"><g transform="translate(9.890786, 26.522881)"><g><path d="M 0.28125 -1.375 L 0.015625 -1.375 L 0.125 -1.890625 L 0.703125 -1.890625 L 0.71875 -1.953125 L 1.171875 -1.953125 L 1.03125 -1.375 L 0.78125 -1.375 L 0.78125 0 L 0.28125 0 Z M 0.28125 -1.375 "/></g></g></g><g fill="#0d203b" fill-opacity="1"><g transform="translate(11.012622, 26.522881)"><g><path d="M 0.125 -1.375 L 0.015625 -1.375 L 0.125 -1.890625 L 0.765625 -1.890625 L 0.765625 -1.953125 L 1.21875 -1.953125 L 1.09375 -1.375 L 0.640625 -1.375 L 0.640625 -1.15625 L 1.1875 -1.15625 L 1.09375 -0.734375 L 0.640625 -0.734375 L 0.640625 -0.515625 L 1.1875 -0.515625 L 1.0625 0 L 0.125 0 Z M 0.125 -1.375 "/></g></g></g><g fill="#0d203b" fill-opacity="1"><g transform="translate(12.298769, 26.522881)"><g/></g></g><g fill="#0d203b" fill-opacity="1"><g transform="translate(13.148645, 26.522881)"><g><path d="M 0.125 -1.375 L 0.015625 -1.375 L 0.125 -1.890625 L 0.640625 -1.890625 C 0.703125 -1.890625 0.753906 -1.882812 0.796875 -1.875 C 0.847656 -1.875 0.890625 -1.867188 0.921875 -1.859375 C 0.953125 -1.847656 0.984375 -1.832031 1.015625 -1.8125 C 1.046875 -1.800781 1.078125 -1.785156 1.109375 -1.765625 C 1.179688 -1.691406 1.234375 -1.601562 1.265625 -1.5 C 1.304688 -1.394531 1.328125 -1.28125 1.328125 -1.15625 C 1.328125 -1.007812 1.300781 -0.878906 1.25 -0.765625 C 1.195312 -0.648438 1.128906 -0.566406 1.046875 -0.515625 C 0.953125 -0.453125 0.816406 -0.421875 0.640625 -0.421875 L 0.640625 0 L 0.125 0 Z M 0.65625 -0.90625 C 0.707031 -0.90625 0.75 -0.925781 0.78125 -0.96875 C 0.820312 -1.019531 0.84375 -1.082031 0.84375 -1.15625 C 0.84375 -1.3125 0.773438 -1.390625 0.640625 -1.390625 L 0.640625 -0.90625 Z M 0.65625 -0.90625 "/></g></g></g><g fill="#0d203b" fill-opacity="1"><g transform="translate(14.539609, 26.522881)"><g><path d="M 0.84375 -1.921875 C 0.976562 -1.921875 1.101562 -1.882812 1.21875 -1.8125 C 1.332031 -1.738281 1.425781 -1.632812 1.5 -1.5 C 1.539062 -1.425781 1.570312 -1.34375 1.59375 -1.25 C 1.613281 -1.15625 1.625 -1.050781 1.625 -0.9375 C 1.625 -0.800781 1.609375 -0.675781 1.578125 -0.5625 C 1.546875 -0.445312 1.492188 -0.34375 1.421875 -0.25 C 1.347656 -0.164062 1.257812 -0.0976562 1.15625 -0.046875 C 1.050781 0.00390625 0.945312 0.03125 0.84375 0.03125 C 0.664062 0.03125 0.507812 -0.0234375 0.375 -0.140625 C 0.164062 -0.328125 0.0625 -0.597656 0.0625 -0.953125 C 0.0625 -1.234375 0.128906 -1.457031 0.265625 -1.625 C 0.335938 -1.71875 0.425781 -1.789062 0.53125 -1.84375 C 0.632812 -1.894531 0.738281 -1.921875 0.84375 -1.921875 Z M 0.84375 -1.390625 C 0.769531 -1.390625 0.707031 -1.347656 0.65625 -1.265625 C 0.613281 -1.191406 0.59375 -1.082031 0.59375 -0.9375 C 0.59375 -0.789062 0.613281 -0.675781 0.65625 -0.59375 C 0.707031 -0.507812 0.769531 -0.46875 0.84375 -0.46875 C 0.925781 -0.46875 0.988281 -0.507812 1.03125 -0.59375 C 1.070312 -0.675781 1.09375 -0.789062 1.09375 -0.9375 C 1.09375 -1.082031 1.070312 -1.191406 1.03125 -1.265625 C 0.988281 -1.347656 0.925781 -1.390625 0.84375 -1.390625 Z M 0.84375 -1.390625 "/></g></g></g><g fill="#0d203b" fill-opacity="1"><g transform="translate(16.230862, 26.522881)"><g><path d="M 0.203125 -0.625 C 0.265625 -0.570312 0.332031 -0.53125 0.40625 -0.5 C 0.488281 -0.476562 0.566406 -0.46875 0.640625 -0.46875 C 0.671875 -0.46875 0.695312 -0.476562 0.71875 -0.5 C 0.75 -0.519531 0.765625 -0.546875 0.765625 -0.578125 C 0.765625 -0.597656 0.757812 -0.613281 0.75 -0.625 C 0.75 -0.632812 0.738281 -0.644531 0.71875 -0.65625 C 0.707031 -0.675781 0.6875 -0.691406 0.65625 -0.703125 C 0.625 -0.722656 0.582031 -0.75 0.53125 -0.78125 C 0.445312 -0.820312 0.378906 -0.851562 0.328125 -0.875 C 0.285156 -0.90625 0.242188 -0.941406 0.203125 -0.984375 C 0.160156 -1.023438 0.125 -1.078125 0.09375 -1.140625 C 0.0703125 -1.203125 0.0625 -1.273438 0.0625 -1.359375 C 0.0625 -1.429688 0.0703125 -1.503906 0.09375 -1.578125 C 0.125 -1.648438 0.160156 -1.707031 0.203125 -1.75 C 0.253906 -1.800781 0.3125 -1.84375 0.375 -1.875 C 0.4375 -1.90625 0.507812 -1.921875 0.59375 -1.921875 C 0.625 -1.921875 0.65625 -1.914062 0.6875 -1.90625 C 0.726562 -1.90625 0.78125 -1.894531 0.84375 -1.875 L 0.859375 -1.96875 L 1.265625 -1.859375 L 1.140625 -1.34375 C 1.085938 -1.382812 1.023438 -1.414062 0.953125 -1.4375 C 0.890625 -1.46875 0.832031 -1.484375 0.78125 -1.484375 C 0.726562 -1.484375 0.6875 -1.472656 0.65625 -1.453125 C 0.625 -1.429688 0.609375 -1.410156 0.609375 -1.390625 C 0.609375 -1.367188 0.613281 -1.351562 0.625 -1.34375 C 0.632812 -1.332031 0.644531 -1.316406 0.65625 -1.296875 C 0.675781 -1.285156 0.703125 -1.269531 0.734375 -1.25 C 0.765625 -1.226562 0.804688 -1.207031 0.859375 -1.1875 C 0.910156 -1.15625 0.953125 -1.128906 0.984375 -1.109375 C 1.015625 -1.097656 1.039062 -1.082031 1.0625 -1.0625 C 1.09375 -1.050781 1.113281 -1.035156 1.125 -1.015625 C 1.144531 -1.003906 1.160156 -0.988281 1.171875 -0.96875 C 1.253906 -0.863281 1.296875 -0.738281 1.296875 -0.59375 C 1.296875 -0.507812 1.28125 -0.425781 1.25 -0.34375 C 1.21875 -0.269531 1.175781 -0.203125 1.125 -0.140625 C 1.070312 -0.0859375 1.003906 -0.046875 0.921875 -0.015625 C 0.847656 0.015625 0.765625 0.03125 0.671875 0.03125 C 0.566406 0.03125 0.46875 0.015625 0.375 -0.015625 C 0.28125 -0.046875 0.179688 -0.0859375 0.078125 -0.140625 Z M 0.203125 -0.625 "/></g></g></g><path stroke-linecap="butt" transform="matrix(0.236075, 0, 0, 0.236075, 18.748604, 23.926063)" fill="none" stroke-linejoin="miter" d="M 0.833249 8.338333 C 1.131089 8.536893 1.445476 8.70236 1.776409 8.818186 C 2.107343 8.934013 2.405183 9.0002 2.686476 9.0002 C 2.851943 9.0002 2.984316 8.95056 3.083596 8.867826 C 3.182876 8.80164 3.232516 8.685813 3.232516 8.553439 C 3.232516 8.487253 3.232516 8.421066 3.199423 8.354879 C 3.182876 8.288693 3.133236 8.239053 3.050503 8.172866 C 2.984316 8.106679 2.885036 8.040493 2.76921 7.957759 C 2.636836 7.891572 2.487916 7.808839 2.272809 7.709559 C 1.908782 7.544092 1.610942 7.378626 1.412382 7.262799 C 1.213822 7.130425 1.031809 6.998052 0.882889 6.849132 C 0.667782 6.667118 0.518862 6.435465 0.403035 6.154172 C 0.287208 5.872878 0.237568 5.575038 0.237568 5.244104 C 0.237568 4.913171 0.303755 4.598784 0.403035 4.300944 C 0.518862 4.01965 0.684329 3.77145 0.882889 3.556344 C 1.081449 3.341237 1.329649 3.17577 1.594396 3.059943 C 1.875689 2.944117 2.173529 2.87793 2.487916 2.87793 C 2.66993 2.87793 2.81885 2.87793 2.96777 2.911023 C 3.11669 2.92757 3.31525 2.960663 3.546903 3.02685 L 3.629637 2.662823 L 5.367038 3.093037 L 4.820997 5.293744 C 4.605891 5.111731 4.35769 4.962811 4.076397 4.863531 C 3.81165 4.764251 3.546903 4.714611 3.282157 4.714611 C 3.083596 4.714611 2.91813 4.747704 2.802303 4.830438 C 2.66993 4.896624 2.62029 5.012451 2.62029 5.128278 C 2.62029 5.194464 2.636836 5.260651 2.653383 5.310291 C 2.686476 5.359931 2.736116 5.426118 2.81885 5.492305 C 2.901583 5.558491 3.000863 5.624678 3.149783 5.707411 C 3.282157 5.790145 3.447623 5.872878 3.66273 5.988705 C 3.86129 6.087985 4.026757 6.170718 4.175677 6.253452 C 4.30805 6.336185 4.423877 6.402372 4.523157 6.468558 C 4.622437 6.534745 4.721717 6.600932 4.787904 6.667118 C 4.854091 6.733305 4.920277 6.799492 4.986464 6.882225 C 5.350491 7.312439 5.515958 7.825386 5.515958 8.454159 C 5.515958 8.85128 5.449771 9.19876 5.317398 9.529693 C 5.185024 9.860627 5.003011 10.14192 4.771357 10.373574 C 4.539704 10.605227 4.25841 10.787241 3.944024 10.919614 C 3.61309 11.051987 3.26561 11.118174 2.86849 11.118174 C 2.438276 11.118174 2.024609 11.068534 1.610942 10.936161 C 1.197275 10.820334 0.783609 10.63832 0.336848 10.373574 Z M 10.23176 10.936161 C 9.98356 11.002347 9.751906 11.051987 9.553346 11.068534 C 9.33824 11.101627 9.123133 11.118174 8.908026 11.118174 C 8.345439 11.118174 7.882132 11.018894 7.501559 10.836881 C 7.120985 10.654867 6.806598 10.357027 6.525305 9.94336 C 6.128185 9.364227 5.946171 8.70236 5.946171 7.990852 C 5.946171 7.577186 6.012358 7.180065 6.128185 6.832585 C 6.260558 6.468558 6.442571 6.154172 6.657678 5.889425 C 6.889332 5.624678 7.154078 5.409571 7.468465 5.260651 C 7.766305 5.111731 8.097239 5.028998 8.461266 5.028998 C 9.272053 5.028998 9.900826 5.409571 10.314493 6.137625 C 10.661974 6.749852 10.843987 7.461359 10.843987 8.255599 C 10.843987 8.272146 10.843987 8.305239 10.843987 8.371426 C 10.843987 8.421066 10.82744 8.487253 10.82744 8.553439 L 7.948319 8.553439 C 8.064146 8.85128 8.213066 9.066386 8.411626 9.19876 C 8.610186 9.331133 8.874933 9.39732 9.238959 9.39732 C 9.454066 9.39732 9.68572 9.364227 9.93392 9.331133 C 10.198667 9.281493 10.43032 9.215306 10.62888 9.132573 Z M 8.957666 7.395172 C 8.924573 7.113879 8.858386 6.915319 8.775653 6.782945 C 8.692919 6.667118 8.577092 6.600932 8.428172 6.600932 C 8.279252 6.600932 8.163426 6.667118 8.064146 6.816039 C 7.948319 6.948412 7.898679 7.146972 7.882132 7.395172 Z M 11.522401 7.130425 L 11.07564 7.130425 L 11.522401 5.161371 L 13.491455 5.161371 L 13.491455 5.690865 C 13.607282 5.492305 13.756202 5.343384 13.921669 5.260651 C 14.103682 5.177918 14.318789 5.128278 14.583536 5.128278 C 14.616629 5.128278 14.666269 5.128278 14.699362 5.128278 C 14.732456 5.128278 14.782096 5.144824 14.848282 5.161371 L 14.418069 7.130425 C 14.285695 7.064239 14.186415 7.031145 14.103682 7.031145 C 14.004402 7.031145 13.905122 7.047692 13.822388 7.097332 C 13.739655 7.130425 13.673468 7.196612 13.623828 7.262799 C 13.590735 7.312439 13.574188 7.345532 13.557642 7.395172 C 13.541095 7.444812 13.524548 7.510999 13.508002 7.593732 C 13.508002 7.659919 13.491455 7.759199 13.491455 7.875026 C 13.491455 7.990852 13.491455 8.139773 13.491455 8.305239 L 13.491455 11.002347 L 11.522401 11.002347 Z M 14.682816 5.161371 L 16.817337 5.161371 L 17.34683 8.321786 L 17.876324 5.161371 L 20.010845 5.161371 L 18.538191 11.002347 L 16.138923 11.002347 Z M 20.407965 7.130425 L 19.961205 7.130425 L 20.407965 5.161371 L 22.377019 5.161371 L 22.377019 9.082933 L 22.807233 9.082933 L 22.377019 11.002347 L 20.407965 11.002347 Z M 20.755445 2.762103 L 22.707953 2.762103 L 22.277739 4.714611 L 20.308685 4.714611 Z M 26.497141 10.969254 C 26.315128 11.018894 26.149661 11.051987 26.000741 11.085081 C 25.851821 11.101627 25.702901 11.118174 25.537434 11.118174 C 25.173407 11.118174 24.825927 11.051987 24.528087 10.886521 C 24.230247 10.737601 23.982047 10.522494 23.76694 10.257747 C 23.551833 9.993 23.36982 9.678613 23.253993 9.29804 C 23.138166 8.917466 23.07198 8.487253 23.07198 8.040493 C 23.07198 7.593732 23.138166 7.180065 23.253993 6.816039 C 23.36982 6.452012 23.535287 6.121078 23.750393 5.856331 C 23.9655 5.608131 24.230247 5.393025 24.528087 5.244104 C 24.825927 5.111731 25.173407 5.028998 25.553981 5.028998 C 25.735994 5.028998 25.901461 5.045544 26.050381 5.078638 C 26.199301 5.111731 26.348221 5.177918 26.497141 5.244104 L 26.066928 7.180065 C 25.918008 7.080785 25.785634 7.031145 25.686354 7.031145 C 25.487794 7.031145 25.355421 7.130425 25.256141 7.328985 C 25.156861 7.527546 25.107221 7.792292 25.107221 8.139773 C 25.107221 8.454159 25.156861 8.718906 25.256141 8.934013 C 25.355421 9.132573 25.487794 9.231853 25.636714 9.231853 C 25.719448 9.231853 25.785634 9.215306 25.851821 9.182213 C 25.918008 9.14912 25.984195 9.082933 26.066928 9.0002 Z M 31.146757 10.936161 C 30.898557 11.002347 30.666904 11.051987 30.451797 11.068534 C 30.253237 11.101627 30.03813 11.118174 29.806476 11.118174 C 29.260436 11.118174 28.797129 11.018894 28.416556 10.836881 C 28.035982 10.654867 27.705049 10.357027 27.423755 9.94336 C 27.043182 9.364227 26.844622 8.70236 26.844622 7.990852 C 26.844622 7.577186 26.910808 7.180065 27.043182 6.832585 C 27.159008 6.468558 27.341022 6.154172 27.572675 5.889425 C 27.804329 5.624678 28.069076 5.409571 28.366916 5.260651 C 28.681303 5.111731 29.012236 5.028998 29.359716 5.028998 C 30.18705 5.028998 30.799277 5.409571 31.229491 6.137625 C 31.560424 6.749852 31.742437 7.461359 31.742437 8.255599 C 31.742437 8.272146 31.742437 8.305239 31.742437 8.371426 C 31.742437 8.421066 31.742437 8.487253 31.725891 8.553439 L 28.863316 8.553439 C 28.979143 8.85128 29.128063 9.066386 29.310076 9.19876 C 29.508636 9.331133 29.78993 9.39732 30.13741 9.39732 C 30.352517 9.39732 30.58417 9.364227 30.848917 9.331133 C 31.097117 9.281493 31.328771 9.215306 31.527331 9.132573 Z M 29.872663 7.395172 C 29.823023 7.113879 29.756836 6.915319 29.674103 6.782945 C 29.59137 6.667118 29.475543 6.600932 29.326623 6.600932 C 29.177703 6.600932 29.061876 6.667118 28.962596 6.816039 C 28.863316 6.948412 28.797129 7.146972 28.780583 7.395172 Z M 29.872663 7.395172 " stroke="#222023" stroke-width="0.3225" stroke-opacity="1" stroke-miterlimit="4"/></svg>