<svg xmlns="http://www.w3.org/2000/svg" xmlns:xlink="http://www.w3.org/1999/xlink" width="40" zoomAndPan="magnify" viewBox="0 0 30 30.000001" height="40" preserveAspectRatio="xMidYMid meet" version="1.0"><defs><clipPath id="d2568aba31"><path d="M 0.484375 0 L 29.515625 0 L 29.515625 29.03125 L 0.484375 29.03125 Z M 0.484375 0 " clip-rule="nonzero"/></clipPath><clipPath id="766afecf67"><path d="M 0.484375 2.902344 L 29.492188 2.902344 L 29.492188 26.128906 L 0.484375 26.128906 Z M 0.484375 2.902344 " clip-rule="nonzero"/></clipPath></defs><g clip-path="url(#d2568aba31)"><path fill="#ffffff" d="M 0.484375 0 L 29.515625 0 L 29.515625 29.03125 L 0.484375 29.03125 Z M 0.484375 0 " fill-opacity="1" fill-rule="nonzero"/><path fill="#ffffff" d="M 0.484375 0 L 29.515625 0 L 29.515625 29.03125 L 0.484375 29.03125 Z M 0.484375 0 " fill-opacity="1" fill-rule="nonzero"/></g><path fill="#925f3d" d="M 14.550781 9.367188 L 11.675781 7.429688 C 11.371094 7.222656 10.976562 7.203125 10.652344 7.375 C 10.335938 7.546875 10.136719 7.871094 10.136719 8.222656 L 10.136719 12.097656 C 10.136719 12.453125 10.335938 12.777344 10.652344 12.945312 C 10.800781 13.027344 10.960938 13.0625 11.121094 13.0625 C 11.316406 13.0625 11.511719 13.007812 11.675781 12.894531 L 14.550781 10.957031 C 14.816406 10.777344 14.976562 10.480469 14.976562 10.160156 C 14.976562 9.84375 14.816406 9.546875 14.550781 9.367188 Z M 14.007812 10.15625 L 11.105469 12.097656 L 11.136719 8.230469 L 14.011719 10.152344 C 14.011719 10.152344 14.011719 10.152344 14.007812 10.15625 Z M 14.007812 10.15625 " fill-opacity="1" fill-rule="nonzero"/><g clip-path="url(#766afecf67)"><path fill="#925f3d" d="M 23.683594 13.761719 L 23.683594 4.839844 C 23.683594 3.773438 22.816406 2.90625 21.75 2.90625 L 2.394531 2.90625 C 1.328125 2.90625 0.460938 3.773438 0.460938 4.839844 L 0.460938 20.804688 C 0.460938 21.875 1.328125 22.742188 2.394531 22.742188 L 10.847656 22.742188 C 12.683594 24.421875 15.402344 26.128906 18.847656 26.128906 C 24.582031 26.128906 28.300781 21.394531 29.304688 19.941406 C 29.554688 19.585938 29.554688 19.125 29.304688 18.765625 C 28.621094 17.777344 26.671875 15.261719 23.683594 13.761719 Z M 2.394531 3.871094 L 21.75 3.871094 C 22.28125 3.871094 22.71875 4.304688 22.71875 4.839844 L 22.71875 13.328125 C 21.558594 12.871094 20.261719 12.582031 18.847656 12.582031 C 18.089844 12.582031 17.367188 12.664062 16.679688 12.8125 C 17.140625 12.011719 17.394531 11.097656 17.394531 10.160156 C 17.394531 7.226562 15.007812 4.839844 12.074219 4.839844 C 9.136719 4.839844 6.75 7.226562 6.75 10.160156 C 6.75 12.886719 8.808594 15.132812 11.449219 15.445312 C 10.84375 15.945312 10.316406 16.457031 9.867188 16.933594 L 1.429688 16.933594 L 1.429688 4.839844 C 1.429688 4.304688 1.863281 3.871094 2.394531 3.871094 Z M 9.179688 19.390625 C 9.167969 19.367188 9.167969 19.339844 9.179688 19.316406 C 9.660156 18.628906 10.800781 17.140625 12.496094 15.847656 C 11.914062 16.902344 11.589844 18.097656 11.589844 19.355469 C 11.589844 20.613281 11.914062 21.804688 12.496094 22.863281 C 10.800781 21.570312 9.660156 20.082031 9.179688 19.390625 Z M 12.074219 14.515625 C 9.671875 14.515625 7.71875 12.5625 7.71875 10.160156 C 7.71875 7.761719 9.671875 5.808594 12.074219 5.808594 C 14.472656 5.808594 16.425781 7.761719 16.425781 10.160156 C 16.425781 11.335938 15.941406 12.464844 15.097656 13.28125 C 14.265625 13.597656 13.496094 14.003906 12.804688 14.453125 C 12.570312 14.492188 12.324219 14.515625 12.074219 14.515625 Z M 1.429688 20.804688 L 1.429688 17.902344 L 9.03125 17.902344 C 8.753906 18.246094 8.539062 18.546875 8.386719 18.765625 C 8.261719 18.945312 8.203125 19.148438 8.203125 19.355469 L 6.265625 19.355469 C 6.265625 19.085938 6.050781 18.871094 5.78125 18.871094 C 5.515625 18.871094 5.300781 19.085938 5.300781 19.355469 L 2.878906 19.355469 C 2.613281 19.355469 2.394531 19.570312 2.394531 19.839844 C 2.394531 20.105469 2.613281 20.320312 2.878906 20.320312 L 5.300781 20.320312 C 5.300781 20.589844 5.515625 20.804688 5.78125 20.804688 C 6.050781 20.804688 6.265625 20.589844 6.265625 20.320312 L 8.660156 20.320312 C 8.949219 20.714844 9.355469 21.222656 9.867188 21.773438 L 2.394531 21.773438 C 1.863281 21.773438 1.429688 21.339844 1.429688 20.804688 Z M 15.042969 24.355469 C 13.464844 23.15625 12.558594 21.339844 12.558594 19.355469 C 12.558594 17.371094 13.464844 15.550781 15.042969 14.351562 C 16.175781 13.867188 17.445312 13.546875 18.847656 13.546875 C 20.246094 13.546875 21.515625 13.867188 22.648438 14.351562 C 24.230469 15.550781 25.136719 17.371094 25.136719 19.355469 C 25.136719 21.339844 24.230469 23.160156 22.648438 24.355469 C 21.515625 24.839844 20.246094 25.160156 18.847656 25.160156 C 17.445312 25.160156 16.175781 24.84375 15.042969 24.355469 Z M 28.511719 19.390625 C 28.03125 20.082031 26.894531 21.570312 25.195312 22.859375 C 25.78125 21.804688 26.105469 20.609375 26.105469 19.355469 C 26.105469 18.097656 25.78125 16.902344 25.195312 15.847656 C 26.894531 17.140625 28.03125 18.625 28.511719 19.316406 C 28.527344 19.339844 28.527344 19.367188 28.511719 19.390625 Z M 28.511719 19.390625 " fill-opacity="1" fill-rule="nonzero"/></g><path fill="#925f3d" d="M 23.199219 19.355469 C 23.199219 18.960938 23.136719 18.574219 23.03125 18.199219 C 23.140625 17.960938 23.199219 17.699219 23.199219 17.417969 C 23.199219 16.351562 22.332031 15.484375 21.265625 15.484375 C 21.136719 15.484375 21.011719 15.496094 20.890625 15.523438 C 20.261719 15.183594 19.5625 15 18.847656 15 C 16.445312 15 14.492188 16.953125 14.492188 19.355469 C 14.492188 21.753906 16.445312 23.707031 18.847656 23.707031 C 21.246094 23.707031 23.199219 21.753906 23.199219 19.355469 Z M 22.234375 17.417969 C 22.234375 17.953125 21.800781 18.386719 21.265625 18.386719 C 20.730469 18.386719 20.296875 17.953125 20.296875 17.417969 C 20.296875 16.886719 20.730469 16.453125 21.265625 16.453125 C 21.800781 16.453125 22.234375 16.886719 22.234375 17.417969 Z M 18.847656 22.742188 C 16.980469 22.742188 15.460938 21.222656 15.460938 19.355469 C 15.460938 17.488281 16.980469 15.96875 18.847656 15.96875 C 19.183594 15.96875 19.519531 16.023438 19.839844 16.121094 C 19.527344 16.464844 19.332031 16.917969 19.332031 17.417969 C 19.332031 18.488281 20.199219 19.355469 21.265625 19.355469 C 21.613281 19.355469 21.933594 19.253906 22.210938 19.097656 C 22.21875 19.183594 22.234375 19.269531 22.234375 19.355469 C 22.234375 21.222656 20.714844 22.742188 18.847656 22.742188 Z M 18.847656 22.742188 " fill-opacity="1" fill-rule="nonzero"/></svg>