<svg xmlns="http://www.w3.org/2000/svg" xmlns:xlink="http://www.w3.org/1999/xlink" width="211" zoomAndPan="magnify" viewBox="0 0 158.25 46.499999" height="62" preserveAspectRatio="xMidYMid meet" version="1.0"><defs><g/><clipPath id="eb77cbf91d"><path d="M 133.191406 10.21875 L 141 10.21875 L 141 33 L 133.191406 33 Z M 133.191406 10.21875 " clip-rule="nonzero"/></clipPath></defs><g fill="#4b4b4b" fill-opacity="1"><g transform="translate(11.74947, 31.84154)"><g><path d="M 0.90625 -24.296875 L 4.796875 -24.296875 L 9.65625 -5.515625 L 15.046875 -24.296875 L 18.125 -24.296875 L 23.515625 -5.4375 L 28.40625 -24.296875 L 31.9375 -24.296875 L 25.515625 0 L 21.859375 0 L 16.484375 -18.390625 L 10.984375 0 L 7.453125 0 Z M 0.90625 -24.296875 "/></g></g></g><g fill="#4b4b4b" fill-opacity="1"><g transform="translate(44.634288, 31.84154)"><g><path d="M 17.8125 -3.984375 C 17.414062 -3.234375 16.945312 -2.582031 16.40625 -2.03125 C 15.875 -1.488281 15.285156 -1.039062 14.640625 -0.6875 C 13.992188 -0.34375 13.300781 -0.0859375 12.5625 0.078125 C 11.832031 0.242188 11.066406 0.328125 10.265625 0.328125 C 8.867188 0.328125 7.617188 0.09375 6.515625 -0.375 C 5.410156 -0.84375 4.476562 -1.484375 3.71875 -2.296875 C 2.957031 -3.117188 2.375 -4.085938 1.96875 -5.203125 C 1.5625 -6.328125 1.359375 -7.535156 1.359375 -8.828125 C 1.359375 -10.128906 1.5625 -11.347656 1.96875 -12.484375 C 2.375 -13.617188 2.945312 -14.601562 3.6875 -15.4375 C 4.4375 -16.269531 5.34375 -16.925781 6.40625 -17.40625 C 7.46875 -17.882812 8.648438 -18.125 9.953125 -18.125 C 11.515625 -18.125 12.816406 -17.863281 13.859375 -17.34375 C 14.910156 -16.820312 15.753906 -16.113281 16.390625 -15.21875 C 17.023438 -14.320312 17.476562 -13.265625 17.75 -12.046875 C 18.019531 -10.835938 18.15625 -9.546875 18.15625 -8.171875 L 4.96875 -8.171875 C 4.96875 -7.347656 5.070312 -6.582031 5.28125 -5.875 C 5.5 -5.175781 5.820312 -4.566406 6.25 -4.046875 C 6.6875 -3.535156 7.222656 -3.132812 7.859375 -2.84375 C 8.503906 -2.550781 9.253906 -2.40625 10.109375 -2.40625 C 11.203125 -2.40625 12.148438 -2.648438 12.953125 -3.140625 C 13.765625 -3.640625 14.410156 -4.335938 14.890625 -5.234375 Z M 14.65625 -10.6875 C 14.613281 -11.40625 14.484375 -12.050781 14.265625 -12.625 C 14.054688 -13.207031 13.757812 -13.707031 13.375 -14.125 C 13 -14.539062 12.535156 -14.863281 11.984375 -15.09375 C 11.441406 -15.320312 10.8125 -15.4375 10.09375 -15.4375 C 9.332031 -15.4375 8.660156 -15.3125 8.078125 -15.0625 C 7.503906 -14.820312 7.007812 -14.488281 6.59375 -14.0625 C 6.175781 -13.632812 5.835938 -13.128906 5.578125 -12.546875 C 5.328125 -11.972656 5.15625 -11.351562 5.0625 -10.6875 Z M 14.65625 -10.6875 "/></g></g></g><g fill="#4b4b4b" fill-opacity="1"><g transform="translate(64.16276, 31.84154)"><g><path d="M 14.109375 -12.296875 L 24.234375 -12.296875 L 24.234375 -3.953125 C 22.773438 -2.484375 21.164062 -1.398438 19.40625 -0.703125 C 17.65625 -0.015625 15.773438 0.328125 13.765625 0.328125 C 11.835938 0.328125 10.117188 0.0195312 8.609375 -0.59375 C 7.097656 -1.207031 5.820312 -2.066406 4.78125 -3.171875 C 3.738281 -4.285156 2.945312 -5.613281 2.40625 -7.15625 C 1.863281 -8.695312 1.59375 -10.398438 1.59375 -12.265625 C 1.59375 -14.046875 1.878906 -15.691406 2.453125 -17.203125 C 3.035156 -18.710938 3.859375 -20.015625 4.921875 -21.109375 C 5.984375 -22.210938 7.257812 -23.078125 8.75 -23.703125 C 10.238281 -24.328125 11.894531 -24.640625 13.71875 -24.640625 C 14.84375 -24.640625 15.898438 -24.515625 16.890625 -24.265625 C 17.890625 -24.023438 18.8125 -23.648438 19.65625 -23.140625 C 20.507812 -22.640625 21.273438 -22.003906 21.953125 -21.234375 C 22.640625 -20.472656 23.222656 -19.566406 23.703125 -18.515625 L 20.359375 -17.0625 C 19.734375 -18.53125 18.863281 -19.65625 17.75 -20.4375 C 16.632812 -21.226562 15.269531 -21.625 13.65625 -21.625 C 12.300781 -21.625 11.113281 -21.347656 10.09375 -20.796875 C 9.082031 -20.253906 8.238281 -19.535156 7.5625 -18.640625 C 6.882812 -17.742188 6.378906 -16.71875 6.046875 -15.5625 C 5.710938 -14.40625 5.546875 -13.21875 5.546875 -12 C 5.546875 -10.695312 5.707031 -9.476562 6.03125 -8.34375 C 6.363281 -7.207031 6.867188 -6.21875 7.546875 -5.375 C 8.234375 -4.539062 9.097656 -3.882812 10.140625 -3.40625 C 11.179688 -2.925781 12.410156 -2.6875 13.828125 -2.6875 C 15.078125 -2.6875 16.289062 -2.890625 17.46875 -3.296875 C 18.65625 -3.710938 19.71875 -4.347656 20.65625 -5.203125 L 20.65625 -9.28125 L 14.109375 -9.28125 Z M 14.109375 -12.296875 "/></g></g></g><g fill="#4b4b4b" fill-opacity="1"><g transform="translate(90.045866, 31.84154)"><g><path d="M 17.8125 -3.984375 C 17.414062 -3.234375 16.945312 -2.582031 16.40625 -2.03125 C 15.875 -1.488281 15.285156 -1.039062 14.640625 -0.6875 C 13.992188 -0.34375 13.300781 -0.0859375 12.5625 0.078125 C 11.832031 0.242188 11.066406 0.328125 10.265625 0.328125 C 8.867188 0.328125 7.617188 0.09375 6.515625 -0.375 C 5.410156 -0.84375 4.476562 -1.484375 3.71875 -2.296875 C 2.957031 -3.117188 2.375 -4.085938 1.96875 -5.203125 C 1.5625 -6.328125 1.359375 -7.535156 1.359375 -8.828125 C 1.359375 -10.128906 1.5625 -11.347656 1.96875 -12.484375 C 2.375 -13.617188 2.945312 -14.601562 3.6875 -15.4375 C 4.4375 -16.269531 5.34375 -16.925781 6.40625 -17.40625 C 7.46875 -17.882812 8.648438 -18.125 9.953125 -18.125 C 11.515625 -18.125 12.816406 -17.863281 13.859375 -17.34375 C 14.910156 -16.820312 15.753906 -16.113281 16.390625 -15.21875 C 17.023438 -14.320312 17.476562 -13.265625 17.75 -12.046875 C 18.019531 -10.835938 18.15625 -9.546875 18.15625 -8.171875 L 4.96875 -8.171875 C 4.96875 -7.347656 5.070312 -6.582031 5.28125 -5.875 C 5.5 -5.175781 5.820312 -4.566406 6.25 -4.046875 C 6.6875 -3.535156 7.222656 -3.132812 7.859375 -2.84375 C 8.503906 -2.550781 9.253906 -2.40625 10.109375 -2.40625 C 11.203125 -2.40625 12.148438 -2.648438 12.953125 -3.140625 C 13.765625 -3.640625 14.410156 -4.335938 14.890625 -5.234375 Z M 14.65625 -10.6875 C 14.613281 -11.40625 14.484375 -12.050781 14.265625 -12.625 C 14.054688 -13.207031 13.757812 -13.707031 13.375 -14.125 C 13 -14.539062 12.535156 -14.863281 11.984375 -15.09375 C 11.441406 -15.320312 10.8125 -15.4375 10.09375 -15.4375 C 9.332031 -15.4375 8.660156 -15.3125 8.078125 -15.0625 C 7.503906 -14.820312 7.007812 -14.488281 6.59375 -14.0625 C 6.175781 -13.632812 5.835938 -13.128906 5.578125 -12.546875 C 5.328125 -11.972656 5.15625 -11.351562 5.0625 -10.6875 Z M 14.65625 -10.6875 "/></g></g></g><g fill="#4b4b4b" fill-opacity="1"><g transform="translate(109.574338, 31.84154)"><g><path d="M 2.59375 -17.78125 L 6.125 -17.78125 L 6.125 -14.96875 C 6.382812 -15.519531 6.722656 -15.992188 7.140625 -16.390625 C 7.554688 -16.796875 8.019531 -17.125 8.53125 -17.375 C 9.039062 -17.625 9.585938 -17.8125 10.171875 -17.9375 C 10.753906 -18.0625 11.347656 -18.125 11.953125 -18.125 C 13.035156 -18.125 13.972656 -17.941406 14.765625 -17.578125 C 15.554688 -17.210938 16.210938 -16.707031 16.734375 -16.0625 C 17.253906 -15.425781 17.640625 -14.671875 17.890625 -13.796875 C 18.148438 -12.929688 18.28125 -11.984375 18.28125 -10.953125 L 18.28125 0 L 14.75 0 L 14.75 -10.859375 C 14.75 -12.234375 14.421875 -13.289062 13.765625 -14.03125 C 13.117188 -14.78125 12.109375 -15.15625 10.734375 -15.15625 C 9.285156 -15.15625 8.15625 -14.75 7.34375 -13.9375 C 6.53125 -13.132812 6.125 -12.03125 6.125 -10.625 L 6.125 0 L 2.59375 0 Z M 2.59375 -17.78125 "/></g></g></g><g clip-path="url(#eb77cbf91d)"><path fill="#a67c52" d="M 140.738281 29.234375 C 140.738281 25.472656 138.234375 25.472656 138.234375 21.710938 C 138.234375 17.953125 140.738281 17.949219 140.738281 14.1875 C 140.738281 13.691406 140.644531 13.210938 140.453125 12.75 C 140.261719 12.289062 139.992188 11.882812 139.636719 11.53125 C 139.285156 11.175781 138.878906 10.90625 138.417969 10.714844 C 137.957031 10.523438 137.476562 10.429688 136.976562 10.429688 C 136.480469 10.429688 136 10.523438 135.539062 10.714844 C 135.078125 10.90625 134.671875 11.175781 134.320312 11.53125 C 133.964844 11.882812 133.695312 12.289062 133.503906 12.75 C 133.3125 13.210938 133.21875 13.691406 133.21875 14.1875 C 133.21875 17.949219 135.726562 17.949219 135.726562 21.710938 C 135.726562 25.476562 133.21875 25.472656 133.21875 29.234375 C 133.21875 29.730469 133.3125 30.210938 133.503906 30.671875 C 133.695312 31.132812 133.964844 31.539062 134.320312 31.894531 C 134.671875 32.246094 135.078125 32.515625 135.539062 32.707031 C 136 32.898438 136.480469 32.996094 136.976562 32.996094 C 137.476562 32.996094 137.957031 32.898438 138.417969 32.707031 C 138.878906 32.515625 139.285156 32.246094 139.636719 31.894531 C 139.992188 31.539062 140.261719 31.132812 140.453125 30.671875 C 140.644531 30.210938 140.738281 29.730469 140.738281 29.234375 Z M 140.738281 29.234375 " fill-opacity="1" fill-rule="nonzero"/></g><path fill="#a67c52" d="M 138.847656 4.597656 C 139.097656 4.847656 139.289062 5.132812 139.425781 5.460938 C 139.5625 5.789062 139.628906 6.128906 139.628906 6.480469 C 139.628906 6.832031 139.5625 7.175781 139.425781 7.5 C 139.289062 7.828125 139.097656 8.113281 138.847656 8.363281 C 138.597656 8.613281 138.308594 8.808594 137.984375 8.941406 C 137.65625 9.078125 137.316406 9.144531 136.964844 9.144531 C 136.609375 9.144531 136.269531 9.078125 135.945312 8.941406 C 135.617188 8.808594 135.328125 8.613281 135.078125 8.363281 C 134.828125 8.113281 134.636719 7.828125 134.503906 7.5 C 134.367188 7.175781 134.300781 6.835938 134.300781 6.480469 C 134.300781 6.128906 134.367188 5.789062 134.503906 5.460938 C 134.636719 5.132812 134.828125 4.847656 135.078125 4.597656 C 135.328125 4.347656 135.617188 4.152344 135.945312 4.019531 C 136.269531 3.882812 136.609375 3.816406 136.964844 3.816406 C 137.316406 3.816406 137.65625 3.882812 137.984375 4.019531 C 138.308594 4.152344 138.597656 4.347656 138.847656 4.597656 Z M 138.847656 4.597656 " fill-opacity="1" fill-rule="nonzero"/><g fill="#4b4b4b" fill-opacity="1"><g transform="translate(90.10381, 43.408692)"><g><path d="M 4.1875 -6.875 L 4.1875 -6.15625 L 2.515625 -6.15625 L 2.515625 0 L 1.75 0 L 1.75 -6.15625 L 0.09375 -6.15625 L 0.09375 -6.875 Z M 4.1875 -6.875 "/></g></g></g><g fill="#4b4b4b" fill-opacity="1"><g transform="translate(94.382177, 43.408692)"><g><path d="M 1.421875 -7.515625 L 1.421875 -3.78125 L 1.4375 -3.765625 C 1.59375 -3.972656 1.765625 -4.128906 1.953125 -4.234375 C 2.148438 -4.347656 2.382812 -4.40625 2.65625 -4.40625 C 3.132812 -4.40625 3.5 -4.257812 3.75 -3.96875 C 4 -3.675781 4.125 -3.21875 4.125 -2.59375 L 4.125 0 L 3.390625 0 L 3.390625 -2.5 C 3.390625 -2.925781 3.320312 -3.234375 3.1875 -3.421875 C 3.0625 -3.617188 2.828125 -3.71875 2.484375 -3.71875 C 2.097656 -3.71875 1.820312 -3.585938 1.65625 -3.328125 C 1.5 -3.066406 1.421875 -2.660156 1.421875 -2.109375 L 1.421875 0 L 0.6875 0 L 0.6875 -7.515625 Z M 1.421875 -7.515625 "/></g></g></g><g fill="#4b4b4b" fill-opacity="1"><g transform="translate(99.188516, 43.408692)"><g><path d="M 1.5625 -4.28125 L 1.5625 0 L 0.828125 0 L 0.828125 -4.28125 Z M 0.671875 -5.90625 C 0.671875 -6.039062 0.722656 -6.15625 0.828125 -6.25 C 0.941406 -6.351562 1.0625 -6.40625 1.1875 -6.40625 C 1.332031 -6.40625 1.457031 -6.351562 1.5625 -6.25 C 1.664062 -6.15625 1.71875 -6.039062 1.71875 -5.90625 C 1.71875 -5.75 1.664062 -5.617188 1.5625 -5.515625 C 1.457031 -5.421875 1.332031 -5.375 1.1875 -5.375 C 1.050781 -5.375 0.929688 -5.421875 0.828125 -5.515625 C 0.722656 -5.617188 0.671875 -5.75 0.671875 -5.90625 Z M 0.671875 -5.90625 "/></g></g></g><g fill="#4b4b4b" fill-opacity="1"><g transform="translate(101.57348, 43.408692)"><g><path d="M 4.125 0 L 3.390625 0 L 3.390625 -2.5 C 3.390625 -2.925781 3.320312 -3.234375 3.1875 -3.421875 C 3.0625 -3.617188 2.828125 -3.71875 2.484375 -3.71875 C 2.097656 -3.71875 1.820312 -3.582031 1.65625 -3.3125 C 1.5 -3.050781 1.421875 -2.648438 1.421875 -2.109375 L 1.421875 0 L 0.6875 0 L 0.6875 -4.28125 L 1.421875 -4.28125 L 1.421875 -3.765625 L 1.4375 -3.765625 C 1.59375 -3.972656 1.769531 -4.128906 1.96875 -4.234375 C 2.164062 -4.347656 2.394531 -4.40625 2.65625 -4.40625 C 3.132812 -4.40625 3.5 -4.253906 3.75 -3.953125 C 4 -3.660156 4.125 -3.207031 4.125 -2.59375 Z M 4.125 0 "/></g></g></g><g fill="#4b4b4b" fill-opacity="1"><g transform="translate(106.379819, 43.408692)"><g><path d="M 1.390625 -7.515625 L 1.390625 -2.703125 L 2.9375 -4.28125 L 3.921875 -4.28125 L 2.09375 -2.453125 L 4.265625 0 L 3.296875 0 L 1.578125 -1.953125 L 1.390625 -1.765625 L 1.390625 0 L 0.65625 0 L 0.65625 -7.515625 Z M 1.390625 -7.515625 "/></g></g></g><g fill="#241610" fill-opacity="1"><g transform="translate(110.661272, 43.408692)"><g/></g></g><g fill="#a67c52" fill-opacity="1"><g transform="translate(113.466117, 43.408692)"><g><path d="M 0.40625 -6.34375 C 0.40625 -6.550781 0.476562 -6.726562 0.625 -6.875 C 0.769531 -7.03125 0.945312 -7.109375 1.15625 -7.109375 C 1.363281 -7.109375 1.539062 -7.03125 1.6875 -6.875 C 1.832031 -6.726562 1.90625 -6.550781 1.90625 -6.34375 C 1.90625 -6.132812 1.832031 -5.957031 1.6875 -5.8125 C 1.539062 -5.664062 1.363281 -5.59375 1.15625 -5.59375 C 0.945312 -5.59375 0.769531 -5.664062 0.625 -5.8125 C 0.476562 -5.957031 0.40625 -6.132812 0.40625 -6.34375 Z M 1.796875 -4.46875 L 1.796875 0 L 0.515625 0 L 0.515625 -4.46875 Z M 1.796875 -4.46875 "/></g></g></g><g fill="#a67c52" fill-opacity="1"><g transform="translate(115.769154, 43.408692)"><g><path d="M 4.46875 0 L 3.1875 0 L 3.1875 -2.59375 C 3.1875 -2.914062 3.132812 -3.160156 3.03125 -3.328125 C 2.9375 -3.503906 2.757812 -3.59375 2.5 -3.59375 C 2.25 -3.59375 2.054688 -3.5 1.921875 -3.3125 C 1.796875 -3.125 1.734375 -2.789062 1.734375 -2.3125 L 1.734375 0 L 0.453125 0 L 0.453125 -4.46875 L 1.734375 -4.46875 L 1.734375 -4.0625 L 1.75 -4.0625 C 1.882812 -4.257812 2.050781 -4.398438 2.25 -4.484375 C 2.457031 -4.578125 2.679688 -4.625 2.921875 -4.625 C 3.429688 -4.625 3.816406 -4.46875 4.078125 -4.15625 C 4.335938 -3.84375 4.46875 -3.378906 4.46875 -2.765625 Z M 4.46875 0 "/></g></g></g><g fill="#a67c52" fill-opacity="1"><g transform="translate(120.684727, 43.408692)"><g><path d="M 2.796875 -6.546875 C 2.703125 -6.597656 2.613281 -6.632812 2.53125 -6.65625 C 2.445312 -6.6875 2.363281 -6.703125 2.28125 -6.703125 C 2.082031 -6.691406 1.945312 -6.609375 1.875 -6.453125 C 1.8125 -6.304688 1.78125 -6.132812 1.78125 -5.9375 L 1.78125 -4.46875 L 2.796875 -4.46875 L 2.796875 -3.390625 L 1.78125 -3.390625 L 1.78125 0 L 0.5 0 L 0.5 -3.390625 L 0.078125 -3.390625 L 0.078125 -4.46875 L 0.5 -4.46875 L 0.5 -5.796875 C 0.5 -6.441406 0.644531 -6.941406 0.9375 -7.296875 C 1.238281 -7.648438 1.65625 -7.828125 2.1875 -7.828125 C 2.414062 -7.828125 2.617188 -7.78125 2.796875 -7.6875 Z M 2.796875 -6.546875 "/></g></g></g><g fill="#a67c52" fill-opacity="1"><g transform="translate(123.442908, 43.408692)"><g><path d="M 0.40625 -6.34375 C 0.40625 -6.550781 0.476562 -6.726562 0.625 -6.875 C 0.769531 -7.03125 0.945312 -7.109375 1.15625 -7.109375 C 1.363281 -7.109375 1.539062 -7.03125 1.6875 -6.875 C 1.832031 -6.726562 1.90625 -6.550781 1.90625 -6.34375 C 1.90625 -6.132812 1.832031 -5.957031 1.6875 -5.8125 C 1.539062 -5.664062 1.363281 -5.59375 1.15625 -5.59375 C 0.945312 -5.59375 0.769531 -5.664062 0.625 -5.8125 C 0.476562 -5.957031 0.40625 -6.132812 0.40625 -6.34375 Z M 1.796875 -4.46875 L 1.796875 0 L 0.515625 0 L 0.515625 -4.46875 Z M 1.796875 -4.46875 "/></g></g></g><g fill="#a67c52" fill-opacity="1"><g transform="translate(125.745945, 43.408692)"><g><path d="M 4.46875 0 L 3.1875 0 L 3.1875 -2.59375 C 3.1875 -2.914062 3.132812 -3.160156 3.03125 -3.328125 C 2.9375 -3.503906 2.757812 -3.59375 2.5 -3.59375 C 2.25 -3.59375 2.054688 -3.5 1.921875 -3.3125 C 1.796875 -3.125 1.734375 -2.789062 1.734375 -2.3125 L 1.734375 0 L 0.453125 0 L 0.453125 -4.46875 L 1.734375 -4.46875 L 1.734375 -4.0625 L 1.75 -4.0625 C 1.882812 -4.257812 2.050781 -4.398438 2.25 -4.484375 C 2.457031 -4.578125 2.679688 -4.625 2.921875 -4.625 C 3.429688 -4.625 3.816406 -4.46875 4.078125 -4.15625 C 4.335938 -3.84375 4.46875 -3.378906 4.46875 -2.765625 Z M 4.46875 0 "/></g></g></g><g fill="#a67c52" fill-opacity="1"><g transform="translate(130.661518, 43.408692)"><g><path d="M 0.40625 -6.34375 C 0.40625 -6.550781 0.476562 -6.726562 0.625 -6.875 C 0.769531 -7.03125 0.945312 -7.109375 1.15625 -7.109375 C 1.363281 -7.109375 1.539062 -7.03125 1.6875 -6.875 C 1.832031 -6.726562 1.90625 -6.550781 1.90625 -6.34375 C 1.90625 -6.132812 1.832031 -5.957031 1.6875 -5.8125 C 1.539062 -5.664062 1.363281 -5.59375 1.15625 -5.59375 C 0.945312 -5.59375 0.769531 -5.664062 0.625 -5.8125 C 0.476562 -5.957031 0.40625 -6.132812 0.40625 -6.34375 Z M 1.796875 -4.46875 L 1.796875 0 L 0.515625 0 L 0.515625 -4.46875 Z M 1.796875 -4.46875 "/></g></g></g><g fill="#a67c52" fill-opacity="1"><g transform="translate(132.964555, 43.408692)"><g><path d="M 1.890625 -5.984375 L 1.890625 -4.46875 L 2.671875 -4.46875 L 2.671875 -3.390625 L 1.890625 -3.390625 L 1.890625 0 L 0.609375 0 L 0.609375 -3.390625 L 0.171875 -3.390625 L 0.171875 -4.46875 L 0.609375 -4.46875 L 0.609375 -5.984375 Z M 1.890625 -5.984375 "/></g></g></g><g fill="#a67c52" fill-opacity="1"><g transform="translate(135.458754, 43.408692)"><g><path d="M 1.484375 -2.03125 C 1.484375 -1.65625 1.5625 -1.359375 1.71875 -1.140625 C 1.875 -0.929688 2.09375 -0.828125 2.375 -0.828125 C 2.582031 -0.828125 2.753906 -0.882812 2.890625 -1 C 3.023438 -1.113281 3.132812 -1.257812 3.21875 -1.4375 L 4.40625 -1.25 C 4.238281 -0.789062 3.972656 -0.441406 3.609375 -0.203125 C 3.253906 0.0234375 2.84375 0.140625 2.375 0.140625 C 1.707031 0.140625 1.164062 -0.0703125 0.75 -0.5 C 0.34375 -0.925781 0.140625 -1.492188 0.140625 -2.203125 C 0.140625 -2.929688 0.332031 -3.515625 0.71875 -3.953125 C 1.101562 -4.398438 1.628906 -4.625 2.296875 -4.625 C 2.972656 -4.625 3.492188 -4.40625 3.859375 -3.96875 C 4.234375 -3.539062 4.421875 -2.929688 4.421875 -2.140625 L 4.421875 -2.03125 Z M 3.21875 -2.828125 C 3.175781 -3.109375 3.078125 -3.328125 2.921875 -3.484375 C 2.765625 -3.640625 2.582031 -3.71875 2.375 -3.71875 C 2.164062 -3.71875 1.984375 -3.644531 1.828125 -3.5 C 1.671875 -3.351562 1.566406 -3.128906 1.515625 -2.828125 Z M 3.21875 -2.828125 "/></g></g></g></svg>